%TF.GenerationSoftware,Altium Limited,Altium Designer,25.2.1 (25)*%
G04 Layer_Color=32768*
%FSLAX43Y43*%
%MOMM*%
%TF.SameCoordinates,F200B209-1327-4569-A0A9-47A55D8EC772*%
%TF.FilePolarity,Positive*%
%TF.FileFunction,Other,Mechanical_15*%
%TF.Part,Single*%
G01*
G75*
%TA.AperFunction,NonConductor*%
%ADD50C,0.100*%
%ADD51C,0.050*%
D50*
X49000Y4500D02*
G03*
X49000Y4500I-3500J0D01*
G01*
Y45500D02*
G03*
X49000Y45500I-3500J0D01*
G01*
X8000D02*
G03*
X8000Y45500I-3500J0D01*
G01*
Y4500D02*
G03*
X8000Y4500I-3500J0D01*
G01*
X3600Y11950D02*
X5400D01*
X3600Y9050D02*
X5400D01*
Y11950D01*
X3600Y9050D02*
Y11950D01*
X44600D02*
X46400D01*
X44600Y9050D02*
X46400D01*
Y11950D01*
X44600Y9050D02*
Y11950D01*
X32000Y7300D02*
X40000D01*
X32000Y200D02*
X40000D01*
Y7300D01*
X32000Y200D02*
Y7300D01*
X35250Y14670D02*
Y17670D01*
X32750D02*
X35250D01*
X32750Y14670D02*
Y17670D01*
Y14670D02*
X35250D01*
X32350Y14920D02*
Y17370D01*
X31150Y14920D02*
X32350D01*
X31150D02*
Y17370D01*
X32350D01*
X26900Y33400D02*
Y34600D01*
X24450D02*
X26900D01*
X24450Y33400D02*
Y34600D01*
Y33400D02*
X26900D01*
X24900Y26225D02*
X26100D01*
X24900Y23775D02*
Y26225D01*
Y23775D02*
X26100D01*
Y26225D01*
X24900Y21025D02*
Y23475D01*
X26100D01*
Y21025D02*
Y23475D01*
X24900Y21025D02*
X26100D01*
X26900Y34900D02*
Y36100D01*
X24450D02*
X26900D01*
X24450Y34900D02*
Y36100D01*
Y34900D02*
X26900D01*
X24400Y36525D02*
Y38975D01*
X25600D01*
Y36525D02*
Y38975D01*
X24400Y36525D02*
X25600D01*
X26900Y39400D02*
Y40600D01*
X24450D02*
X26900D01*
X24450Y39400D02*
Y40600D01*
Y39400D02*
X26900D01*
X27775Y20600D02*
X30225D01*
Y19400D02*
Y20600D01*
X27775Y19400D02*
X30225D01*
X27775D02*
Y20600D01*
X24950Y26650D02*
Y27850D01*
Y26650D02*
X27400D01*
Y27850D01*
X24950D02*
X27400D01*
X24950Y19400D02*
X27400D01*
X24950D02*
Y20600D01*
X27400D01*
Y19400D02*
Y20600D01*
X19775Y14900D02*
Y16100D01*
Y14900D02*
X22225D01*
Y16100D01*
X19775D02*
X22225D01*
X35225Y11650D02*
Y12850D01*
X32775D02*
X35225D01*
X32775Y11650D02*
Y12850D01*
Y11650D02*
X35225D01*
X19775Y13400D02*
Y14600D01*
Y13400D02*
X22225D01*
Y14600D01*
X19775D02*
X22225D01*
X19775Y17600D02*
X22225D01*
Y16400D02*
Y17600D01*
X19775Y16400D02*
X22225D01*
X19775D02*
Y17600D01*
X30650Y21900D02*
X31850D01*
X30650Y19450D02*
Y21900D01*
Y19450D02*
X31850D01*
Y21900D01*
X32150D02*
X33350D01*
X32150Y19450D02*
Y21900D01*
Y19450D02*
X33350D01*
Y21900D01*
X32775Y17900D02*
Y19100D01*
Y17900D02*
X35225D01*
Y19100D01*
X32775D02*
X35225D01*
X32775Y13150D02*
Y14350D01*
Y13150D02*
X35225D01*
Y14350D01*
X32775D02*
X35225D01*
X20225Y40725D02*
Y58100D01*
Y40725D02*
X29775D01*
Y58100D01*
X20225D02*
X29775D01*
X20225Y40725D02*
Y58100D01*
Y40725D02*
X29775D01*
Y58100D01*
X20225D02*
X29775D01*
X28025Y28900D02*
X30475D01*
X28025D02*
Y30100D01*
X30475D01*
Y28900D02*
Y30100D01*
X28025Y30400D02*
X30475D01*
X28025D02*
Y31600D01*
X30475D01*
Y30400D02*
Y31600D01*
X19025Y28900D02*
Y30100D01*
Y28900D02*
X21475D01*
Y30100D01*
X19025D02*
X21475D01*
X19025Y30400D02*
Y31600D01*
Y30400D02*
X21475D01*
Y31600D01*
X19025D02*
X21475D01*
D51*
X9855Y210D02*
Y5790D01*
X28145D01*
Y210D02*
Y5790D01*
X9855Y210D02*
X28145D01*
X23875Y12375D02*
X29125D01*
Y17625D01*
X23875D02*
X29125D01*
X23875Y12375D02*
Y17625D01*
X22625Y28375D02*
X26875D01*
Y32625D01*
X22625D02*
X26875D01*
X22625Y28375D02*
Y32625D01*
%TF.MD5,2dcc0d5a2dc7976a5bece6adda2bb5c8*%
M02*
