%TF.GenerationSoftware,Altium Limited,Altium Designer,25.2.1 (25)*%
G04 Layer_Color=6809061*
%FSLAX43Y43*%
%MOMM*%
%TF.SameCoordinates,F200B209-1327-4569-A0A9-47A55D8EC772*%
%TF.FilePolarity,Positive*%
%TF.FileFunction,Legend,Bot*%
%TF.Part,Single*%
G01*
G75*
%TA.AperFunction,NonConductor*%
%ADD30C,0.200*%
%ADD31C,0.250*%
%ADD32C,0.400*%
%ADD33C,0.254*%
G36*
X15386Y35432D02*
X17295D01*
Y34479D01*
X17294D01*
Y34478D01*
X16341D01*
Y33523D01*
X17294D01*
Y33522D01*
X17295D01*
Y32568D01*
X18250D01*
Y30659D01*
X17295D01*
Y31614D01*
X16342D01*
Y31615D01*
X16341D01*
Y32568D01*
X15386D01*
Y31615D01*
X15385D01*
Y31614D01*
X14432D01*
Y32568D01*
X11568D01*
Y31614D01*
X12521D01*
Y31613D01*
X12523D01*
Y30659D01*
X11568D01*
Y31614D01*
X10615D01*
Y31615D01*
X10613D01*
Y32568D01*
X9659D01*
Y31615D01*
X9658D01*
Y31614D01*
X8704D01*
Y30659D01*
X7750D01*
Y32568D01*
X8704D01*
Y33522D01*
X8706D01*
Y33523D01*
X9659D01*
Y34478D01*
X8706D01*
Y34479D01*
X8704D01*
Y35432D01*
X7750D01*
Y36118D01*
Y36119D01*
Y36387D01*
X8703D01*
Y36385D01*
X8704D01*
Y35432D01*
X10613D01*
Y33523D01*
X11568D01*
Y35432D01*
X10613D01*
Y37341D01*
X11568D01*
Y36387D01*
X14432D01*
Y37341D01*
X15386D01*
Y35432D01*
D02*
G37*
G36*
X18250D02*
X17295D01*
Y35725D01*
Y35726D01*
Y36385D01*
X17296D01*
Y36387D01*
X18250D01*
Y35432D01*
D02*
G37*
G36*
X14432Y31539D02*
Y31538D01*
Y30659D01*
X13477D01*
Y31613D01*
X13478D01*
Y31614D01*
X14432D01*
Y31539D01*
D02*
G37*
%LPC*%
G36*
X15386Y35432D02*
X14432D01*
Y33523D01*
X15386D01*
Y35432D01*
D02*
G37*
%LPD*%
D30*
X18248Y29673D02*
Y28673D01*
X17748D01*
X17582Y28840D01*
Y29506D01*
X17748Y29673D01*
X18248D01*
X16749Y28673D02*
X17082D01*
X17248Y28840D01*
Y29173D01*
X17082Y29340D01*
X16749D01*
X16582Y29173D01*
Y29006D01*
X17248D01*
X16249Y28673D02*
X15749D01*
X15582Y28840D01*
X15749Y29006D01*
X16082D01*
X16249Y29173D01*
X16082Y29340D01*
X15582D01*
X15249Y28673D02*
X14916D01*
X15082D01*
Y29340D01*
X15249D01*
X14083Y28340D02*
X13916D01*
X13750Y28507D01*
Y29340D01*
X14249D01*
X14416Y29173D01*
Y28840D01*
X14249Y28673D01*
X13750D01*
X13416D02*
Y29340D01*
X12917D01*
X12750Y29173D01*
Y28673D01*
X11917D02*
X12250D01*
X12417Y28840D01*
Y29173D01*
X12250Y29340D01*
X11917D01*
X11750Y29173D01*
Y29006D01*
X12417D01*
X10751Y29673D02*
Y28673D01*
X11250D01*
X11417Y28840D01*
Y29173D01*
X11250Y29340D01*
X10751D01*
X9418Y29673D02*
Y28673D01*
X8918D01*
X8751Y28840D01*
Y29006D01*
Y29173D01*
X8918Y29340D01*
X9418D01*
X8418D02*
Y28840D01*
X8251Y28673D01*
X7752D01*
Y28507D01*
X7918Y28340D01*
X8085D01*
X7752Y28673D02*
Y29340D01*
X21081Y26660D02*
Y27660D01*
X20581D01*
X20414Y27493D01*
Y27160D01*
X20581Y26994D01*
X21081D01*
X20747D02*
X20414Y26660D01*
X20081Y27327D02*
Y26827D01*
X19914Y26660D01*
X19414D01*
Y27327D01*
X19081Y26660D02*
X18581D01*
X18415Y26827D01*
X18581Y26994D01*
X18915D01*
X19081Y27160D01*
X18915Y27327D01*
X18415D01*
X18082Y26660D02*
X17582D01*
X17415Y26827D01*
X17582Y26994D01*
X17915D01*
X18082Y27160D01*
X17915Y27327D01*
X17415D01*
X16582Y26660D02*
X16915D01*
X17082Y26827D01*
Y27160D01*
X16915Y27327D01*
X16582D01*
X16415Y27160D01*
Y26994D01*
X17082D01*
X16082Y26660D02*
X15749D01*
X15916D01*
Y27660D01*
X16082D01*
X15249Y26660D02*
X14916D01*
X15082D01*
Y27660D01*
X15249D01*
X13416Y26660D02*
Y27660D01*
X13083Y27327D01*
X12750Y27660D01*
Y26660D01*
X12250Y27327D02*
X11917D01*
X11750Y27160D01*
Y26660D01*
X12250D01*
X12417Y26827D01*
X12250Y26994D01*
X11750D01*
X10751Y27327D02*
X11250D01*
X11417Y27160D01*
Y26827D01*
X11250Y26660D01*
X10751D01*
X9751Y27493D02*
X9917Y27660D01*
X10251D01*
X10417Y27493D01*
Y26827D01*
X10251Y26660D01*
X9917D01*
X9751Y26827D01*
Y27160D01*
X10084D01*
X9418Y27327D02*
Y26660D01*
Y26994D01*
X9251Y27160D01*
X9084Y27327D01*
X8918D01*
X7918Y26660D02*
X8251D01*
X8418Y26827D01*
Y27160D01*
X8251Y27327D01*
X7918D01*
X7752Y27160D01*
Y26994D01*
X8418D01*
X7085Y26327D02*
X6918D01*
X6752Y26494D01*
Y27327D01*
X7252D01*
X7418Y27160D01*
Y26827D01*
X7252Y26660D01*
X6752D01*
X6252D02*
X5919D01*
X5752Y26827D01*
Y27160D01*
X5919Y27327D01*
X6252D01*
X6419Y27160D01*
Y26827D01*
X6252Y26660D01*
X5419Y27327D02*
Y26660D01*
Y26994D01*
X5252Y27160D01*
X5086Y27327D01*
X4919D01*
D31*
X39250Y44900D02*
Y46100D01*
X38850Y45700D01*
X38450Y46100D01*
Y44900D01*
X38050Y45900D02*
X37850Y46100D01*
X37451D01*
X37251Y45900D01*
Y45700D01*
X37451Y45500D01*
X37651D01*
X37451D01*
X37251Y45300D01*
Y45100D01*
X37451Y44900D01*
X37850D01*
X38050Y45100D01*
X44450Y32050D02*
Y31250D01*
X43850D01*
X44050Y31650D01*
Y31850D01*
X43850Y32050D01*
X43450D01*
X43250Y31850D01*
Y31450D01*
X43450Y31250D01*
X44250Y32450D02*
X44450Y32650D01*
Y33049D01*
X44250Y33249D01*
X43450D01*
X43250Y33049D01*
Y32650D01*
X43450Y32450D01*
X44250D01*
X43250Y33649D02*
X44050D01*
Y33849D01*
X43850Y34049D01*
X43250D01*
X43850D01*
X44050Y34249D01*
X43850Y34449D01*
X43250D01*
Y34849D02*
X44050D01*
Y35049D01*
X43850Y35249D01*
X43250D01*
X43850D01*
X44050Y35449D01*
X43850Y35649D01*
X43250D01*
X41750Y34674D02*
Y33474D01*
X41150D01*
X40950Y33674D01*
Y33874D01*
X41150Y34074D01*
X41750D01*
X41150D01*
X40950Y34274D01*
Y34474D01*
X41150Y34674D01*
X41750D01*
X40350Y33474D02*
X39951D01*
X39751Y33674D01*
Y34074D01*
X39951Y34274D01*
X40350D01*
X40550Y34074D01*
Y33674D01*
X40350Y33474D01*
X39151Y34274D02*
X38751D01*
X38551Y34074D01*
Y33474D01*
X39151D01*
X39351Y33674D01*
X39151Y33874D01*
X38551D01*
X38151Y34274D02*
Y33474D01*
Y33874D01*
X37951Y34074D01*
X37751Y34274D01*
X37551D01*
X36152Y34674D02*
Y33474D01*
X36752D01*
X36952Y33674D01*
Y34074D01*
X36752Y34274D01*
X36152D01*
X41750Y32874D02*
Y31674D01*
X41150D01*
X40950Y31874D01*
Y32674D01*
X41150Y32874D01*
X41750D01*
X40550Y31674D02*
X40151D01*
X40350D01*
Y32474D01*
X40550D01*
X39551Y31674D02*
Y32474D01*
X39351D01*
X39151Y32274D01*
Y31674D01*
Y32274D01*
X38951Y32474D01*
X38751Y32274D01*
Y31674D01*
X40275Y30424D02*
X41074D01*
Y29824D01*
X40674Y30024D01*
X40474D01*
X40275Y29824D01*
Y29424D01*
X40474Y29224D01*
X40874D01*
X41074Y29424D01*
X39875Y30224D02*
X39675Y30424D01*
X39275D01*
X39075Y30224D01*
Y29424D01*
X39275Y29224D01*
X39675D01*
X39875Y29424D01*
Y30224D01*
X38675Y29224D02*
Y30024D01*
X38475D01*
X38275Y29824D01*
Y29224D01*
Y29824D01*
X38075Y30024D01*
X37875Y29824D01*
Y29224D01*
X37475D02*
Y30024D01*
X37276D01*
X37076Y29824D01*
Y29224D01*
Y29824D01*
X36876Y30024D01*
X36676Y29824D01*
Y29224D01*
D32*
X23560Y4900D02*
Y5400D01*
Y5150D01*
X22060D01*
Y4900D01*
Y5400D01*
Y6150D02*
X23560D01*
X22060Y7149D01*
X23560D01*
Y7649D02*
Y8649D01*
Y8149D01*
X22060D01*
X20770Y5900D02*
X21020Y5650D01*
Y5150D01*
X20770Y4900D01*
X20520D01*
X20270Y5150D01*
Y5650D01*
X20020Y5900D01*
X19770D01*
X19520Y5650D01*
Y5150D01*
X19770Y4900D01*
X20770Y7399D02*
X21020Y7149D01*
Y6649D01*
X20770Y6400D01*
X19770D01*
X19520Y6649D01*
Y7149D01*
X19770Y7399D01*
X21020Y7899D02*
X19520D01*
X20020D01*
X21020Y8899D01*
X20270Y8149D01*
X19520Y8899D01*
X16980Y4900D02*
X18480D01*
X17980Y5400D01*
X18480Y5900D01*
X16980D01*
X18480Y7149D02*
Y6649D01*
X18230Y6400D01*
X17230D01*
X16980Y6649D01*
Y7149D01*
X17230Y7399D01*
X18230D01*
X18480Y7149D01*
X18230Y8899D02*
X18480Y8649D01*
Y8149D01*
X18230Y7899D01*
X17980D01*
X17730Y8149D01*
Y8649D01*
X17480Y8899D01*
X17230D01*
X16980Y8649D01*
Y8149D01*
X17230Y7899D01*
X18480Y9399D02*
Y9898D01*
Y9648D01*
X16980D01*
Y9399D01*
Y9898D01*
X15690Y5900D02*
X15940Y5650D01*
Y5150D01*
X15690Y4900D01*
X14690D01*
X14440Y5150D01*
Y5650D01*
X14690Y5900D01*
X15690Y7399D02*
X15940Y7149D01*
Y6649D01*
X15690Y6400D01*
X15440D01*
X15190Y6649D01*
Y7149D01*
X14940Y7399D01*
X14690D01*
X14440Y7149D01*
Y6649D01*
X14690Y6400D01*
X13150Y5900D02*
X13400Y5650D01*
Y5150D01*
X13150Y4900D01*
X12150D01*
X11900Y5150D01*
Y5650D01*
X12150Y5900D01*
X13400Y7399D02*
Y6400D01*
X11900D01*
Y7399D01*
X12650Y6400D02*
Y6899D01*
X24600Y4900D02*
X26100D01*
X25600Y5400D01*
X26100Y5900D01*
X24600D01*
X26100Y6400D02*
Y6899D01*
Y6649D01*
X24600D01*
Y6400D01*
Y6899D01*
X25850Y8649D02*
X26100Y8399D01*
Y7899D01*
X25850Y7649D01*
X25600D01*
X25350Y7899D01*
Y8399D01*
X25100Y8649D01*
X24850D01*
X24600Y8399D01*
Y7899D01*
X24850Y7649D01*
X26100Y9898D02*
Y9399D01*
X25850Y9149D01*
X24850D01*
X24600Y9399D01*
Y9898D01*
X24850Y10148D01*
X25850D01*
X26100Y9898D01*
X37270Y6400D02*
Y7400D01*
X37770Y6900D02*
X36770D01*
X37770Y7900D02*
X38020Y8149D01*
Y8649D01*
X37770Y8899D01*
X37520D01*
X37270Y8649D01*
Y8399D01*
Y8649D01*
X37020Y8899D01*
X36770D01*
X36520Y8649D01*
Y8149D01*
X36770Y7900D01*
X38020Y9399D02*
X37020D01*
X36520Y9899D01*
X37020Y10399D01*
X38020D01*
X37770Y10899D02*
X38020Y11148D01*
Y11648D01*
X37770Y11898D01*
X37520D01*
X37270Y11648D01*
Y11398D01*
Y11648D01*
X37020Y11898D01*
X36770D01*
X36520Y11648D01*
Y11148D01*
X36770Y10899D01*
X35230Y7400D02*
X35480Y7150D01*
Y6650D01*
X35230Y6400D01*
X34230D01*
X33980Y6650D01*
Y7150D01*
X34230Y7400D01*
X34730D01*
Y6900D01*
X33980Y7900D02*
X35480D01*
X33980Y8899D01*
X35480D01*
Y9399D02*
X33980D01*
Y10149D01*
X34230Y10399D01*
X35230D01*
X35480Y10149D01*
Y9399D01*
D33*
X42500Y30924D02*
Y38174D01*
X39800Y45500D02*
X41500D01*
X40992Y45000D02*
X41500Y45508D01*
X40992Y46008D02*
X41500Y45500D01*
X42000Y37666D02*
X42508Y38174D01*
X42500D02*
X43008Y37666D01*
X35250Y30924D02*
X35758Y31432D01*
X35250Y30924D02*
X42500D01*
X35250Y30932D02*
X35758Y30424D01*
%TF.MD5,42553b8f6c532ab99149b1ebb22ec9c7*%
M02*
