M48
;Layer_Color=9474304
;FILE_FORMAT=4:3
METRIC,LZ
;TYPE=PLATED
T01F00S00C0.300
T02F00S00C0.762
T03F00S00C0.900
T04F00S00C1.000
T05F00S00C1.100
T06F00S00C1.150
T07F00S00C1.300
T08F00S00C3.500
%
T01
X00905Y000975
X002825Y006125
T02
X0008Y001975
Y002229
Y002483
X0007Y005546
Y0058
Y006054
X0011
Y0058
Y005546
T03
X002994Y001425
X003248
X003502
X003756
X00401
X004264
X004518
X004772
X005026
X00528
X005534
X005788
X006042
X006296
X00655
X006804
X007058
X007312
X007566
X00782
X008074
X008328
X008582
X008836
X00909
X009344
Y004727
X00909
X008836
X008582
X008328
X008074
X00782
X007566
X007312
X007058
X006804
X00655
X006296
X006042
X005788
X005534
X00528
X005026
X004772
X004518
X004264
X00401
X003756
X003502
X003248
X002994
X00245Y004624
Y004878
Y00437
Y004116
Y003862
Y003608
Y003354
Y0031
Y002437
Y002183
Y001929
Y001675
X000672Y0031
Y003354
Y003608
Y003862
Y004116
Y00437
Y004624
Y004878
T04
X001742Y007183
Y007437
X001996
Y007183
X00225
Y007437
X002504
Y007183
X002758
Y007437
X004442
Y007183
X004696
Y007437
X00495
Y007183
X005204
Y007437
X005458
Y007183
X007142
Y007437
X007396
Y007183
X00765
Y007437
X007904
Y007183
X008158
Y007437
T05
X003921Y0005
X004175
X004429
X004683
X004937
X005191
T06
X002998Y0005
X003252
X005792
X006046
X0063
X006946
X0072
X007454
X008121
X008375
X008629
X005804Y005325
X00555
X005296
X004675
X004421
X004167
X003533
X003279
X003025
X006871Y005475
X007125
X007379
Y00605
X007125
X006871
X007975Y00605
X008229
X008483
Y005475
X008229
X007975
T07
X001184Y00045
X001692
X0022
T08
X00045Y00045
X00945
X00045Y00745
X00945
M30
