%TF.GenerationSoftware,Altium Limited,Altium Designer,25.2.1 (25)*%
G04 Layer_Color=8388736*
%FSLAX43Y43*%
%MOMM*%
%TF.SameCoordinates,13C9EE94-67B1-431B-914D-B35A32CB9B67*%
%TF.FilePolarity,Negative*%
%TF.FileFunction,Soldermask,Top*%
%TF.Part,Single*%
G01*
G75*
%TA.AperFunction,SMDPad,CuDef*%
%ADD31R,0.750X1.400*%
G04:AMPARAMS|DCode=32|XSize=1.4mm|YSize=0.75mm|CornerRadius=0.135mm|HoleSize=0mm|Usage=FLASHONLY|Rotation=0.000|XOffset=0mm|YOffset=0mm|HoleType=Round|Shape=RoundedRectangle|*
%AMROUNDEDRECTD32*
21,1,1.400,0.480,0,0,0.0*
21,1,1.130,0.750,0,0,0.0*
1,1,0.270,0.565,-0.240*
1,1,0.270,-0.565,-0.240*
1,1,0.270,-0.565,0.240*
1,1,0.270,0.565,0.240*
%
%ADD32ROUNDEDRECTD32*%
%ADD33R,0.850X0.800*%
%TA.AperFunction,ComponentPad*%
%ADD34C,6.150*%
%ADD35C,1.650*%
%ADD36C,1.875*%
%ADD37C,1.674*%
%ADD38C,2.150*%
%ADD39C,2.650*%
%TA.AperFunction,ViaPad*%
%ADD40C,0.850*%
D31*
X95400Y9750D02*
D03*
X93600D02*
D03*
D32*
X18495Y62180D02*
D03*
Y60380D02*
D03*
X20495Y62180D02*
D03*
Y60380D02*
D03*
X22495Y62180D02*
D03*
Y60380D02*
D03*
X24495Y62180D02*
D03*
Y60380D02*
D03*
X26495Y62180D02*
D03*
Y60380D02*
D03*
D33*
X18500Y57575D02*
D03*
Y58925D02*
D03*
X20500Y57575D02*
D03*
Y58925D02*
D03*
X22500Y57575D02*
D03*
Y58925D02*
D03*
X24500Y57575D02*
D03*
Y58925D02*
D03*
X26500Y57575D02*
D03*
Y58925D02*
D03*
D34*
X4500Y74500D02*
D03*
X94500D02*
D03*
X4500Y4500D02*
D03*
X94500D02*
D03*
D35*
X17420Y71830D02*
D03*
Y74370D02*
D03*
X19960Y71830D02*
D03*
Y74370D02*
D03*
X22500Y71830D02*
D03*
Y74370D02*
D03*
X25040Y71830D02*
D03*
Y74370D02*
D03*
X27580Y71830D02*
D03*
Y74370D02*
D03*
X71420Y71830D02*
D03*
Y74370D02*
D03*
X73960Y71830D02*
D03*
Y74370D02*
D03*
X76500Y71830D02*
D03*
Y74370D02*
D03*
X79040Y71830D02*
D03*
Y74370D02*
D03*
X81580Y71830D02*
D03*
Y74370D02*
D03*
X44420Y71830D02*
D03*
Y74370D02*
D03*
X46960Y71830D02*
D03*
Y74370D02*
D03*
X49500Y71830D02*
D03*
Y74370D02*
D03*
X52040Y71830D02*
D03*
Y74370D02*
D03*
X54580Y71830D02*
D03*
Y74370D02*
D03*
X93440Y14250D02*
D03*
X90900D02*
D03*
X88360D02*
D03*
X85820D02*
D03*
X83280D02*
D03*
X80740D02*
D03*
X78200D02*
D03*
X75660D02*
D03*
X73120D02*
D03*
X70580D02*
D03*
X68040D02*
D03*
X65500D02*
D03*
X62960D02*
D03*
X60420D02*
D03*
X57880D02*
D03*
X55340D02*
D03*
X52800D02*
D03*
X50260D02*
D03*
X47720D02*
D03*
X45180D02*
D03*
X42640D02*
D03*
X40100D02*
D03*
X37560D02*
D03*
X35020D02*
D03*
X32480D02*
D03*
X29940D02*
D03*
Y47270D02*
D03*
X32480D02*
D03*
X35020D02*
D03*
X37560D02*
D03*
X40100D02*
D03*
X42640D02*
D03*
X45180D02*
D03*
X47720D02*
D03*
X50260D02*
D03*
X52800D02*
D03*
X55340D02*
D03*
X57880D02*
D03*
X60420D02*
D03*
X62960D02*
D03*
X65500D02*
D03*
X68040D02*
D03*
X70580D02*
D03*
X73120D02*
D03*
X75660D02*
D03*
X78200D02*
D03*
X80740D02*
D03*
X83280D02*
D03*
X85820D02*
D03*
X88360D02*
D03*
X90900D02*
D03*
X93440D02*
D03*
X24500Y48780D02*
D03*
Y43700D02*
D03*
Y46240D02*
D03*
Y38620D02*
D03*
Y41160D02*
D03*
Y31000D02*
D03*
Y33540D02*
D03*
Y36080D02*
D03*
X6720Y31000D02*
D03*
Y36080D02*
D03*
Y33540D02*
D03*
Y41160D02*
D03*
Y38620D02*
D03*
Y48780D02*
D03*
Y46240D02*
D03*
Y43700D02*
D03*
X24500Y24370D02*
D03*
Y21830D02*
D03*
Y19290D02*
D03*
Y16750D02*
D03*
D36*
X68710Y60500D02*
D03*
X71250D02*
D03*
X73790D02*
D03*
X29980Y5000D02*
D03*
X32520D02*
D03*
X63000D02*
D03*
X60460D02*
D03*
X57920D02*
D03*
X30250Y53250D02*
D03*
X32790D02*
D03*
X35330D02*
D03*
X84830Y54750D02*
D03*
X82290D02*
D03*
X79750D02*
D03*
X81210Y5000D02*
D03*
X83750D02*
D03*
X86290D02*
D03*
X69460D02*
D03*
X72000D02*
D03*
X74540D02*
D03*
X58040Y53250D02*
D03*
X55500D02*
D03*
X52960D02*
D03*
X68710Y54750D02*
D03*
X71250D02*
D03*
X73790D02*
D03*
X46750Y53250D02*
D03*
X44210D02*
D03*
X41670D02*
D03*
X84830Y60500D02*
D03*
X82290D02*
D03*
X79750D02*
D03*
D37*
X8000Y22290D02*
D03*
Y19750D02*
D03*
Y24830D02*
D03*
X11000Y58000D02*
D03*
Y60540D02*
D03*
Y55460D02*
D03*
X7000Y58000D02*
D03*
Y60540D02*
D03*
Y55460D02*
D03*
D38*
X39210Y5000D02*
D03*
X41750D02*
D03*
X44290D02*
D03*
X46830D02*
D03*
X49370D02*
D03*
X51910D02*
D03*
D39*
X22000Y4500D02*
D03*
X16920D02*
D03*
X11840D02*
D03*
D40*
X28250Y61250D02*
D03*
X90500Y9750D02*
D03*
%TF.MD5,5de3e4770ee0fc21a2d56449a575ffcb*%
M02*
