%TF.GenerationSoftware,Altium Limited,Altium Designer,25.2.1 (25)*%
G04 Layer_Physical_Order=1*
G04 Layer_Color=255*
%FSLAX43Y43*%
%MOMM*%
%TF.SameCoordinates,13C9EE94-67B1-431B-914D-B35A32CB9B67*%
%TF.FilePolarity,Positive*%
%TF.FileFunction,Copper,L1,Top,Signal*%
%TF.Part,Single*%
G01*
G75*
%TA.AperFunction,NonConductor*%
%ADD10C,0.203*%
%TA.AperFunction,SMDPad,CuDef*%
%ADD11R,0.600X1.250*%
G04:AMPARAMS|DCode=12|XSize=1.25mm|YSize=0.6mm|CornerRadius=0.06mm|HoleSize=0mm|Usage=FLASHONLY|Rotation=0.000|XOffset=0mm|YOffset=0mm|HoleType=Round|Shape=RoundedRectangle|*
%AMROUNDEDRECTD12*
21,1,1.250,0.480,0,0,0.0*
21,1,1.130,0.600,0,0,0.0*
1,1,0.120,0.565,-0.240*
1,1,0.120,-0.565,-0.240*
1,1,0.120,-0.565,0.240*
1,1,0.120,0.565,0.240*
%
%ADD12ROUNDEDRECTD12*%
%ADD13R,0.700X0.650*%
%TA.AperFunction,NonConductor*%
%ADD14C,0.300*%
%TA.AperFunction,Conductor*%
%ADD15C,0.500*%
%ADD16C,0.200*%
%ADD17C,1.000*%
%TA.AperFunction,ComponentPad*%
%ADD18C,6.000*%
%ADD19C,1.500*%
%ADD20C,1.725*%
%ADD21C,1.524*%
%ADD22C,2.000*%
%ADD23C,2.500*%
%TA.AperFunction,ViaPad*%
%ADD24C,0.700*%
D10*
X98498Y74500D02*
G03*
X94505Y78498I-3998J0D01*
G01*
X94500Y502D02*
G03*
X98498Y4500I0J3998D01*
G01*
X27476Y62420D02*
G03*
X27060Y62836I-416J0D01*
G01*
Y61525D02*
G03*
X27476Y61940I0J416D01*
G01*
X27522Y60620D02*
G03*
X27060Y61082I-462J0D01*
G01*
Y59679D02*
G03*
X27522Y60140I0J462D01*
G01*
X25930Y62836D02*
G03*
X25515Y62420I0J-416D01*
G01*
X25476D02*
G03*
X25060Y62836I-416J0D01*
G01*
X23930D02*
G03*
X23515Y62420I0J-416D01*
G01*
X23476D02*
G03*
X23060Y62836I-416J0D01*
G01*
X25060Y61525D02*
G03*
X25476Y61940I0J416D01*
G01*
X25515D02*
G03*
X25930Y61525I416J0D01*
G01*
X23515Y61940D02*
G03*
X23930Y61525I416J0D01*
G01*
X23060D02*
G03*
X23476Y61940I0J416D01*
G01*
X21930Y62836D02*
G03*
X21515Y62420I0J-416D01*
G01*
X21476D02*
G03*
X21060Y62836I-416J0D01*
G01*
X19476Y62420D02*
G03*
X19060Y62836I-416J0D01*
G01*
X19930D02*
G03*
X19515Y62420I0J-416D01*
G01*
X21515Y61940D02*
G03*
X21930Y61525I416J0D01*
G01*
X21060D02*
G03*
X21476Y61940I0J416D01*
G01*
X19515D02*
G03*
X19930Y61525I416J0D01*
G01*
X19060D02*
G03*
X19476Y61940I0J416D01*
G01*
X4496Y78498D02*
G03*
X502Y74500I5J-3998D01*
G01*
X17930Y62836D02*
G03*
X17515Y62420I0J-416D01*
G01*
Y61940D02*
G03*
X17930Y61525I416J0D01*
G01*
X21495Y60775D02*
G03*
X21060Y61082I-435J-154D01*
G01*
X25495Y60775D02*
G03*
X25060Y61082I-435J-154D01*
G01*
X23930D02*
G03*
X23495Y60775I0J-462D01*
G01*
X25930Y61082D02*
G03*
X25495Y60775I0J-462D01*
G01*
X21930Y61082D02*
G03*
X21495Y60775I0J-462D01*
G01*
X23495Y60775D02*
G03*
X23060Y61082I-435J-154D01*
G01*
X19495Y60775D02*
G03*
X19060Y61082I-435J-154D01*
G01*
X19930D02*
G03*
X19495Y60775I0J-462D01*
G01*
X17930Y61082D02*
G03*
X17469Y60620I0J-462D01*
G01*
Y60140D02*
G03*
X17930Y59679I462J0D01*
G01*
X502Y4500D02*
G03*
X4500Y502I3998J0D01*
G01*
X94130Y78498D02*
X94727Y77902D01*
X93707D02*
X94304Y78498D01*
X94425Y77902D02*
X94992Y78468D01*
X92988Y77902D02*
X93585Y78498D01*
X92694D02*
X93290Y77902D01*
X93412Y78498D02*
X94009Y77902D01*
X95777Y78289D02*
X96164Y77902D01*
X95862D02*
X96117Y78157D01*
X94866Y78482D02*
X95446Y77902D01*
X95144D02*
X95589Y78347D01*
X91257Y78498D02*
X92326Y77429D01*
X90538Y78498D02*
X91967Y77070D01*
X91975Y78498D02*
X92686Y77788D01*
X89102Y78498D02*
X91249Y76351D01*
X88842Y75910D02*
X91430Y78498D01*
X89820D02*
X91608Y76710D01*
X89201Y75551D02*
X92148Y78498D01*
X86946D02*
X91098Y74346D01*
X89560Y75192D02*
X92867Y78498D01*
X88383D02*
X91098Y75783D01*
X87665Y78498D02*
X91098Y75065D01*
X97902Y75631D02*
X98225Y75954D01*
X97902Y76164D02*
X98289Y75777D01*
X97902Y74912D02*
X98395Y75405D01*
X97468Y76634D02*
X97713Y76879D01*
X97109Y76993D02*
X97385Y77269D01*
X97828Y76275D02*
X97995Y76442D01*
X97902Y73475D02*
X98498Y74072D01*
X97902Y74727D02*
X98498Y74130D01*
X97902Y74009D02*
X98498Y73412D01*
X97902Y75446D02*
X98482Y74866D01*
X97902Y74194D02*
X98489Y74781D01*
X96201Y77902D02*
X97902Y76201D01*
X96164Y77902D02*
X97902Y76164D01*
X96750Y77353D02*
X97010Y77613D01*
X96391Y77712D02*
X96589Y77910D01*
X91098Y76201D02*
X92799Y77902D01*
X96201D01*
X91098Y76012D02*
X92988Y77902D01*
X89752Y74975D02*
X91098Y73628D01*
X89752Y73228D02*
X91098Y74575D01*
X89752Y74665D02*
X91098Y76012D01*
X89752Y73946D02*
X91098Y75293D01*
X86228Y78498D02*
X86725Y78002D01*
X85904D02*
X86401Y78498D01*
X86623Y78002D02*
X87119Y78498D01*
X84791D02*
X85288Y78002D01*
X84467D02*
X84964Y78498D01*
X85509D02*
X86006Y78002D01*
X88124Y76629D02*
X89993Y78498D01*
X87764Y76988D02*
X89275Y78498D01*
X88483Y76270D02*
X90712Y78498D01*
X87046Y77706D02*
X87838Y78498D01*
X87405Y77347D02*
X88556Y78498D01*
X81917D02*
X82414Y78002D01*
X81594D02*
X82091Y78498D01*
X82312Y78002D02*
X82809Y78498D01*
X80875Y78002D02*
X81372Y78498D01*
X80480D02*
X80977Y78002D01*
X81199Y78498D02*
X81696Y78002D01*
X83749D02*
X84246Y78498D01*
X83354D02*
X83851Y78002D01*
X84073Y78498D02*
X84569Y78002D01*
X82636Y78498D02*
X83133Y78002D01*
X83031D02*
X83527Y78498D01*
X86751Y78002D02*
X87002Y77751D01*
X86751Y78002D02*
X87002Y77751D01*
X89501Y75252D01*
X86249Y78002D02*
X86751D01*
X85186D02*
X85683Y78498D01*
X86249Y78002D02*
X86751D01*
X89752Y74499D02*
Y75001D01*
X86725Y78002D02*
X89752Y74975D01*
Y74499D02*
Y75001D01*
X89501Y75252D02*
X89752Y75001D01*
X89501Y75252D02*
X89752Y75001D01*
X82732Y74111D02*
X83869Y75248D01*
X82732Y74829D02*
X83151Y75248D01*
X82429D02*
X84749D01*
X80428Y74946D02*
X80731Y75248D01*
X82429D02*
X82732Y74946D01*
X84749Y75248D02*
X86704Y73294D01*
X82732Y73794D02*
Y74946D01*
X81004Y73218D02*
X82156D01*
X80428Y73794D02*
Y74946D01*
Y73794D02*
X81004Y73218D01*
X97788Y72686D02*
X98498Y71975D01*
X97429Y72326D02*
X98498Y71257D01*
X97070Y71967D02*
X98498Y70538D01*
X97902Y73290D02*
X98498Y72694D01*
X97902Y72799D02*
Y76201D01*
X96201Y71098D02*
X97902Y72799D01*
X95065Y71098D02*
X98498Y67665D01*
X93628Y71098D02*
X98498Y66228D01*
X92909Y71098D02*
X98498Y65509D01*
X96710Y71608D02*
X98498Y69820D01*
X96351Y71249D02*
X98498Y69102D01*
X89752Y64607D02*
X98498Y73354D01*
X89752Y73538D02*
X98498Y64791D01*
X89752Y72819D02*
X98498Y64073D01*
X91098Y72909D02*
X92909Y71098D01*
X89752Y65325D02*
X95525Y71098D01*
X92799D02*
X96201D01*
X89752Y71383D02*
X98498Y62636D01*
X89752Y63170D02*
X98498Y71917D01*
X89752Y62452D02*
X98498Y71198D01*
X89752Y63888D02*
X98498Y72635D01*
X89752Y72101D02*
X98498Y63354D01*
X89752Y58859D02*
X98498Y67606D01*
X89752Y67790D02*
X98498Y59044D01*
X89752Y67072D02*
X98498Y58325D01*
X95783Y71098D02*
X98498Y68383D01*
X94346Y71098D02*
X98498Y66946D01*
X89752Y59578D02*
X98498Y68325D01*
X89752Y65635D02*
X98498Y56888D01*
X89752Y57423D02*
X98498Y66169D01*
X89752Y56704D02*
X98498Y65451D01*
X89752Y58141D02*
X98498Y66888D01*
X89752Y66354D02*
X98498Y57607D01*
X89752Y70664D02*
X98498Y61917D01*
X89752Y66044D02*
X94806Y71098D01*
X89752Y61733D02*
X98498Y70480D01*
X89752Y67481D02*
X93369Y71098D01*
X89752Y66762D02*
X94088Y71098D01*
X89752Y60296D02*
X98498Y69043D01*
X89752Y69227D02*
X98498Y60480D01*
X89752Y68509D02*
X98498Y59762D01*
X89752Y69946D02*
X98498Y61199D01*
X89752Y61015D02*
X98498Y69762D01*
X91098Y72799D02*
Y76201D01*
X89752Y74256D02*
X91098Y72909D01*
X89752Y72509D02*
X91098Y73856D01*
X84449Y75248D02*
X86704Y72993D01*
X83730Y75248D02*
X86704Y72275D01*
X82732Y71955D02*
X85387Y74611D01*
X89752Y50001D02*
Y74499D01*
X86704Y55206D02*
Y73294D01*
X89752Y71791D02*
X91098Y73138D01*
X83012Y75248D02*
X86704Y71557D01*
X82732Y74092D02*
X86704Y70120D01*
X82598Y72540D02*
X85028Y74970D01*
X82238Y72899D02*
X84588Y75248D01*
X82156Y73218D02*
X82732Y73794D01*
X81603Y72982D02*
X81839Y73218D01*
X81450D02*
X81687Y72982D01*
X81004D02*
X82156D01*
X82732Y74810D02*
X86704Y70838D01*
X82521Y73584D02*
X86704Y69401D01*
X82162Y73225D02*
X86704Y68683D01*
X80428Y72406D02*
X81004Y72982D01*
X82156D02*
X82732Y72406D01*
X91098Y72799D02*
X92799Y71098D01*
X89752Y69636D02*
X92007Y71891D01*
X89752Y68917D02*
X92366Y71532D01*
X89752Y71073D02*
X91288Y72609D01*
X82732Y71254D02*
Y72406D01*
X89752Y70354D02*
X91647Y72250D01*
X89752Y68199D02*
X92725Y71172D01*
X82598Y61764D02*
X86704Y65870D01*
X83119Y61567D02*
X86704Y65151D01*
X82732Y71937D02*
X86704Y67964D01*
X82714Y71236D02*
X86704Y67246D01*
X82354Y70877D02*
X86704Y66528D01*
X82156Y70678D02*
X82732Y71254D01*
X81004Y70678D02*
X82156D01*
X80428Y71254D02*
Y72406D01*
Y71254D02*
X81004Y70678D01*
X80772Y61374D02*
X86704Y67306D01*
X80413Y61734D02*
X86704Y68025D01*
X81880Y61764D02*
X86704Y66588D01*
X81835Y70678D02*
X86704Y65809D01*
X81116Y70678D02*
X86704Y65091D01*
X80157Y78002D02*
X80654Y78498D01*
X80138Y75248D02*
X80435Y74952D01*
X79889Y75248D02*
X80731D01*
X79889D02*
X80192Y74946D01*
X79762Y78498D02*
X80259Y78002D01*
X80083Y75054D02*
X80277Y75248D01*
X80192Y74477D02*
X80428Y74240D01*
X80192Y74444D02*
X80428Y74681D01*
X80174Y73776D02*
X80986Y72964D01*
X80192Y73794D02*
Y74946D01*
X79616Y73218D02*
X80192Y73794D01*
X78002Y78002D02*
X78498Y78498D01*
X78002Y78002D02*
X78498Y78498D01*
X50341Y78002D02*
X86249D01*
X77283D02*
X77780Y78498D01*
X76888D02*
X77385Y78002D01*
X77607Y78498D02*
X78104Y78002D01*
X79438D02*
X79935Y78498D01*
X79044D02*
X79540Y78002D01*
X79447Y72982D02*
X80428Y73963D01*
X78325Y78498D02*
X78822Y78002D01*
X78720D02*
X79217Y78498D01*
X79891Y72707D02*
X80703Y73519D01*
X79814Y73417D02*
X80627Y72604D01*
X80192Y72289D02*
X81121Y73218D01*
X79616Y72982D02*
X80192Y72406D01*
X79531Y72982D02*
X80192Y72321D01*
X80428Y72085D01*
X80192Y71603D02*
X80428Y71366D01*
X80192Y71571D02*
X80428Y71807D01*
X79616Y70678D02*
X80192Y71254D01*
Y72406D01*
X79542Y70291D02*
Y70678D01*
X79295Y73218D02*
X79531Y72982D01*
X78641Y73218D02*
X79616D01*
X78464Y72982D02*
X79616D01*
X78729D02*
X78966Y73218D01*
X78252Y72829D02*
X78641Y73218D01*
X78609Y73186D02*
X78813Y72982D01*
X78252Y70891D02*
X78464Y70678D01*
X78252Y72769D02*
X78464Y72982D01*
X78252Y70669D02*
X78538Y70383D01*
X78252Y70499D02*
Y70891D01*
Y70499D02*
Y70891D01*
X76765Y75748D02*
X76945Y75568D01*
X76565Y78002D02*
X77062Y78498D01*
X76091Y75748D02*
X77126D01*
X75846Y78002D02*
X76343Y78498D01*
X75451D02*
X75948Y78002D01*
X76170Y78498D02*
X76667Y78002D01*
X76899Y75522D02*
X77126Y75748D01*
X76240Y75522D02*
X76467Y75748D01*
X75924Y75522D02*
X76899D01*
X76069Y75726D02*
X76273Y75522D01*
X75348Y73794D02*
Y74946D01*
X75128Y78002D02*
X75625Y78498D01*
X74733D02*
X75230Y78002D01*
X52131Y76248D02*
X75086D01*
X74409Y78002D02*
X74906Y78498D01*
X74085Y75522D02*
X74812Y76248D01*
X74828D02*
X74957Y76119D01*
X75348Y74946D02*
X75924Y75522D01*
X75112Y74769D02*
X76091Y75748D01*
X75112Y74393D02*
X75348Y74630D01*
X74359Y75522D02*
X75086Y76248D01*
X75112Y73794D02*
Y74769D01*
X75998Y72982D02*
Y73218D01*
X75348Y73794D02*
X75924Y73218D01*
X75348Y72406D02*
X75924Y72982D01*
X75112Y71519D02*
X75348Y71756D01*
X75112Y72372D02*
X75348Y72136D01*
X75112Y71654D02*
X75348Y71417D01*
X76806Y70678D02*
X76866Y70618D01*
X75348Y71254D02*
X75924Y70678D01*
X76926D01*
X75112Y71254D02*
Y72406D01*
X75348Y71254D02*
Y72406D01*
X75112Y73809D02*
X75939Y72982D01*
X74462Y73025D02*
X75348Y73912D01*
X74836Y72681D02*
X75649Y73494D01*
X75112Y74528D02*
X75348Y74291D01*
X74536Y73218D02*
X75112Y73794D01*
Y72238D02*
X75998Y73125D01*
X74760Y73443D02*
X75573Y72630D01*
X74536Y70678D02*
X75112Y71254D01*
X74536Y72982D02*
X75112Y72406D01*
X74503Y72982D02*
X75112Y72372D01*
X79542Y70202D02*
X80511Y71172D01*
X78252Y68194D02*
X80870Y70812D01*
X78252Y67475D02*
X81455Y70678D01*
X79542Y69789D02*
Y70291D01*
X78538D02*
Y70678D01*
X79542Y69789D02*
Y70291D01*
X78252Y62446D02*
X86704Y70899D01*
X78252Y63165D02*
X86704Y71617D01*
X78252Y61728D02*
X86704Y70180D01*
X80007Y71069D02*
X86704Y64372D01*
X79648Y70710D02*
X86704Y63654D01*
X78001Y70248D02*
X78252Y70499D01*
X76752Y68849D02*
X78538Y70636D01*
X77499Y69252D02*
X78538Y70291D01*
X78001Y70248D02*
X78252Y70499D01*
X76752Y68999D02*
X78001Y70248D01*
X77977Y70225D02*
X78225Y69977D01*
X78252Y64602D02*
X86704Y73054D01*
X78252Y65320D02*
X86465Y73533D01*
X78252Y63883D02*
X86704Y72335D01*
X78252Y66757D02*
X85746Y74251D01*
X78252Y66038D02*
X86105Y73892D01*
X79542Y70098D02*
X86704Y62936D01*
X79337Y69584D02*
X86704Y62217D01*
X78252Y66359D02*
X82846Y61764D01*
X79291Y69538D02*
X79542Y69789D01*
X79291Y69538D02*
X79542Y69789D01*
X78252Y65640D02*
X82128Y61764D01*
X78977Y69225D02*
X86704Y61499D01*
X78618Y68866D02*
X86704Y60780D01*
X79725Y61764D02*
X86704Y68743D01*
X78259Y68507D02*
X85048Y61718D01*
X78252Y67077D02*
X83916Y61413D01*
X78252Y68499D02*
X79291Y69538D01*
X77618Y69866D02*
X77866Y69618D01*
X77259Y69507D02*
X77507Y69259D01*
X77248Y69001D02*
X77499Y69252D01*
X77248Y69001D02*
X77499Y69252D01*
X78252Y51251D02*
Y68499D01*
Y61009D02*
X86704Y69462D01*
X78252Y67796D02*
X84329Y61718D01*
X76752Y65975D02*
X77248Y66472D01*
X76752Y66422D02*
X77248Y65925D01*
X76087Y70678D02*
X76507Y70259D01*
X74952Y71095D02*
X76147Y69900D01*
X75999Y69752D02*
X76926Y70678D01*
X75748Y69501D02*
X75999Y69752D01*
X74593Y70736D02*
X75788Y69541D01*
X75748Y69501D02*
X75999Y69752D01*
X72526Y71366D02*
X75748Y68144D01*
X72211Y70963D02*
X75748Y67425D01*
X71731Y70724D02*
X75748Y66707D01*
X73932Y70678D02*
X75748Y68862D01*
Y68999D02*
Y69501D01*
X63333Y76248D02*
X75748Y63833D01*
X62615Y76248D02*
X75748Y63115D01*
X61896Y76248D02*
X75748Y62396D01*
X64770Y76248D02*
X75748Y65270D01*
X64051Y76248D02*
X75748Y64551D01*
X71012Y70724D02*
X75748Y65988D01*
X63641Y58612D02*
X75816Y70787D01*
X60459Y76248D02*
X75748Y60959D01*
X64000Y58253D02*
X76426Y70678D01*
X61178Y76248D02*
X75748Y61678D01*
X63281Y58971D02*
X75457Y71146D01*
X76752Y67412D02*
X77248Y67909D01*
X76752Y68577D02*
X77248Y68080D01*
X76752Y67859D02*
X77248Y67362D01*
Y68499D02*
Y69001D01*
X76900Y69147D02*
X77248Y68799D01*
Y68499D02*
Y69001D01*
Y51251D02*
Y68499D01*
X76752Y65257D02*
X77248Y65754D01*
X76752Y65704D02*
X77248Y65207D01*
X76752Y66694D02*
X77248Y67190D01*
X76752Y67140D02*
X77248Y66644D01*
X76752Y68131D02*
X77248Y68627D01*
X68948Y61764D02*
X75748Y68564D01*
X71104Y61764D02*
X75748Y66409D01*
Y68999D02*
Y69501D01*
X68230Y61764D02*
X75748Y69283D01*
X76752Y49471D02*
Y68999D01*
X75748Y49471D02*
Y68999D01*
X69864Y61243D02*
X75748Y67127D01*
X69504Y61602D02*
X75748Y67846D01*
X71822Y61764D02*
X75748Y65690D01*
X89752Y55267D02*
X98498Y64014D01*
X89752Y64198D02*
X98498Y55451D01*
X89752Y63480D02*
X98498Y54733D01*
X89752Y55986D02*
X98498Y64733D01*
X89752Y64917D02*
X98498Y56170D01*
X86048Y59999D02*
X86704Y59343D01*
X89752Y62043D02*
X98498Y53296D01*
X89752Y53831D02*
X98498Y62577D01*
X89752Y53112D02*
X98498Y61859D01*
X89752Y54549D02*
X98498Y63296D01*
X89752Y62761D02*
X98498Y54015D01*
X85426Y61718D02*
X86704Y62996D01*
X83479Y61208D02*
X86704Y64433D01*
X85792Y61365D02*
X86704Y62278D01*
X85439Y61718D02*
X86048Y61109D01*
X84708Y61718D02*
X86704Y63714D01*
X86048Y60718D02*
X86704Y60062D01*
X86048Y60185D02*
X86704Y60841D01*
X82596Y56014D02*
X86704Y60122D01*
X86048Y60903D02*
X86704Y61559D01*
X86048Y59891D02*
Y61109D01*
X85825Y55651D02*
X86704Y56530D01*
X85466Y56010D02*
X86704Y57249D01*
X86094Y55202D02*
X86704Y55812D01*
X85743Y59586D02*
X86704Y58625D01*
X85462Y56014D02*
X86094Y55382D01*
Y54924D02*
X86258Y54760D01*
X87248Y53751D02*
Y54246D01*
X87010Y54008D02*
X87248Y53770D01*
X86651Y53649D02*
X86899Y53401D01*
X86094Y54597D02*
Y55382D01*
Y54597D02*
X86704Y55206D01*
X85329Y59282D02*
X86704Y57907D01*
X83430Y59744D02*
X86704Y56470D01*
X84610Y59282D02*
X86704Y57188D01*
X85439Y59282D02*
X86048Y59891D01*
X84198Y56014D02*
X85462D01*
X83118Y55818D02*
X86704Y59404D01*
X83071Y59384D02*
X86704Y55751D01*
X83477Y55459D02*
X86704Y58685D01*
X82501Y59236D02*
X86617Y55120D01*
X84751Y56014D02*
X86704Y57967D01*
X84221Y61718D02*
X85439D01*
X83612Y61109D02*
X84221Y61718D01*
X83554Y60565D02*
X83612Y60622D01*
X83554Y61056D02*
X83612Y60999D01*
X83554Y60338D02*
X83612Y60280D01*
Y59891D02*
X84221Y59282D01*
X85439D01*
X83554Y59868D02*
Y61132D01*
X83612Y59891D02*
Y61109D01*
X82922Y61764D02*
X83554Y61132D01*
X81658Y61764D02*
X82922D01*
X82846D02*
X83554Y61056D01*
X81026Y61132D02*
X81658Y61764D01*
X81014Y59868D02*
Y61132D01*
X81026Y59868D02*
Y61132D01*
X80736Y55591D02*
X84427Y59282D01*
X80723Y59577D02*
X84286Y56014D01*
X81877D02*
X85145Y59282D01*
X81026Y59868D02*
X81658Y59236D01*
X82922D02*
X83554Y59868D01*
X83566Y55382D02*
X84198Y56014D01*
X81782Y59236D02*
X85004Y56014D01*
X83566Y54118D02*
Y55382D01*
X82922Y56014D02*
X83554Y55382D01*
X82849Y56014D02*
X83554Y55309D01*
Y54118D02*
Y55382D01*
X84659Y53486D02*
X84821Y53324D01*
X83566Y54118D02*
X84198Y53486D01*
X84983D01*
X82922D02*
X83554Y54118D01*
X81658Y53486D02*
X82922D01*
X81658Y59236D02*
X82922D01*
X81026Y55382D02*
X81658Y56014D01*
X82922D01*
X80968Y55105D02*
X81026Y55163D01*
X80968Y55021D02*
X81026Y54963D01*
Y54118D02*
Y55382D01*
X80968Y54303D02*
X81026Y54245D01*
Y54118D02*
X81658Y53486D01*
X80968Y54141D02*
Y55359D01*
Y54387D02*
X81026Y54444D01*
X90351Y49401D02*
X98498Y57548D01*
X89752Y57733D02*
X98498Y48986D01*
X90710Y49042D02*
X98498Y56830D01*
X89752Y58451D02*
X98498Y49704D01*
X89752Y50238D02*
X98498Y58985D01*
X89992Y49760D02*
X98498Y58267D01*
X91501Y48396D02*
X98498Y55393D01*
X89752Y57014D02*
X98498Y48267D01*
X93682Y48422D02*
X98498Y53238D01*
X91070Y48683D02*
X98498Y56112D01*
X92964Y48422D02*
X98498Y53956D01*
X89752Y60606D02*
X98498Y51859D01*
X89752Y52394D02*
X98498Y61140D01*
X89752Y51675D02*
X98498Y60422D01*
X89752Y61325D02*
X98498Y52578D01*
X86252Y51249D02*
X87858Y52856D01*
X87651Y52649D02*
X87858Y52441D01*
X89752Y50957D02*
X98498Y59704D01*
X89752Y59888D02*
X98498Y51141D01*
X89752Y59169D02*
X98498Y50423D01*
X87858Y48422D02*
Y52856D01*
X86252Y51049D02*
X87858Y52656D01*
X90951Y48802D02*
X91202Y48551D01*
X89752Y51985D02*
X93315Y48422D01*
X90951Y48802D02*
X91202Y48551D01*
X89752Y50001D02*
X90951Y48802D01*
X88862Y48422D02*
Y49386D01*
Y48630D02*
X89240Y49008D01*
X91202Y48422D02*
X91476D01*
X89752Y51267D02*
X92730Y48288D01*
X92864Y48422D02*
X94016D01*
X91202D02*
Y48551D01*
Y48422D02*
Y48551D01*
X86574Y51571D02*
X87858Y50286D01*
X86252Y50331D02*
X87858Y51937D01*
X86252Y51175D02*
X87858Y49568D01*
X87292Y52290D02*
X87858Y51723D01*
X86933Y51930D02*
X87858Y51005D01*
X88862Y49386D02*
X88999Y49248D01*
X86447Y48371D02*
X87858Y49782D01*
X88862Y49386D02*
X88999Y49248D01*
X86252Y48894D02*
X87858Y50500D01*
X86252Y50456D02*
X87858Y48849D01*
X86292Y53290D02*
X86540Y53042D01*
X85499Y52002D02*
X87248Y53751D01*
X85933Y52930D02*
X86180Y52683D01*
X85574Y52571D02*
X85821Y52324D01*
X85214Y52212D02*
X85462Y51964D01*
X85248Y51751D02*
X85499Y52002D01*
X85248Y51249D02*
Y51751D01*
X85499Y52002D01*
X84496Y51493D02*
X85248Y50741D01*
X84855Y51853D02*
X85248Y51459D01*
Y51249D02*
Y51751D01*
X83431Y53995D02*
X84462Y52964D01*
X83072Y53636D02*
X84103Y52605D01*
X83029Y51532D02*
X84983Y53486D01*
X81785D02*
X83384Y51887D01*
X80690Y53863D02*
X83025Y51527D01*
X82503Y53486D02*
X83743Y52246D01*
X83782Y50734D02*
X87248Y54201D01*
X83782Y50779D02*
X87248Y54246D01*
X83782Y50016D02*
X85248Y51483D01*
X82778Y51281D02*
X83029Y51532D01*
X82778Y51281D02*
X83029Y51532D01*
X86252Y49612D02*
X87858Y51219D01*
X83782Y50053D02*
X85248Y48586D01*
X83782Y48579D02*
X85248Y50046D01*
X84137Y51134D02*
X85248Y50023D01*
X83782Y50771D02*
X85248Y49304D01*
X83782Y49297D02*
X85248Y50764D01*
X86252Y49738D02*
X87676Y48313D01*
X86252Y48422D02*
Y51249D01*
Y48422D02*
X86396D01*
X85248D02*
Y51249D01*
X83782Y48422D02*
Y50779D01*
X82778D02*
Y51281D01*
Y50779D02*
Y51281D01*
X80916Y48587D02*
X82778Y50449D01*
X80742Y48760D02*
X80993Y48510D01*
X80742Y48760D02*
X80993Y48510D01*
X82778Y48422D02*
Y50779D01*
X81392Y48345D02*
X82778Y49731D01*
X80993Y48422D02*
X81316D01*
X80993D02*
Y48510D01*
Y48422D02*
Y48510D01*
X80382Y61764D02*
X81014Y61132D01*
X79118Y61764D02*
X80382D01*
Y59236D02*
X81014Y59868D01*
X78486D02*
Y61132D01*
X79118Y61764D01*
X78486Y59868D02*
X79118Y59236D01*
X80377Y55950D02*
X83965Y59538D01*
X79676Y55968D02*
X83612Y59904D01*
X78252Y55981D02*
X81582Y59311D01*
X78252Y56699D02*
X81223Y59671D01*
X78252Y58854D02*
X78876Y59478D01*
X78252Y64204D02*
X81174Y61281D01*
X78252Y64922D02*
X81534Y61640D01*
X78252Y63485D02*
X79973Y61764D01*
X78252Y62767D02*
X79254Y61764D01*
X76752Y64538D02*
X77248Y65035D01*
X78252Y62048D02*
X78827Y61473D01*
X78252Y59893D02*
X82131Y56014D01*
X78252Y60291D02*
X78486Y60525D01*
X78252Y59573D02*
X78516Y59837D01*
X78252Y61330D02*
X78486Y61096D01*
X78252Y60611D02*
X78486Y60377D01*
X79627Y59236D02*
X82849Y56014D01*
X79118Y59236D02*
X80382D01*
X80346D02*
X83883Y55699D01*
X78252Y57019D02*
X79303Y55968D01*
X78252Y57738D02*
X80021Y55968D01*
X79141D02*
X80359D01*
X80968Y55359D01*
X78252Y58456D02*
X81176Y55532D01*
X78252Y56301D02*
X78863Y55690D01*
X78532Y55359D02*
X79141Y55968D01*
X78252Y58136D02*
X79352Y59236D01*
X76752Y58073D02*
X77248Y58569D01*
X76752Y58519D02*
X77248Y58023D01*
X76752Y58791D02*
X77248Y59288D01*
X76752Y59238D02*
X77248Y58741D01*
X78252Y59175D02*
X81535Y55891D01*
X78252Y57417D02*
X80070Y59236D01*
X76752Y56636D02*
X77248Y57133D01*
X76752Y57354D02*
X77248Y57851D01*
X76752Y57801D02*
X77248Y57304D01*
X76752Y62830D02*
X77248Y62333D01*
X76752Y62383D02*
X77248Y62880D01*
X76752Y61665D02*
X77248Y62162D01*
X76752Y63102D02*
X77248Y63598D01*
X76752Y64267D02*
X77248Y63770D01*
X76752Y63548D02*
X77248Y63051D01*
X76752Y60228D02*
X77248Y60725D01*
X76752Y61393D02*
X77248Y60896D01*
X76752Y60675D02*
X77248Y60178D01*
X76752Y62111D02*
X77248Y61615D01*
X76752Y60946D02*
X77248Y61443D01*
X76752Y64985D02*
X77248Y64488D01*
X72211Y61435D02*
X75748Y64972D01*
X76752Y63820D02*
X77248Y64317D01*
X73931Y61718D02*
X75748Y63535D01*
X73213Y61718D02*
X75748Y64254D01*
X74524Y61593D02*
X75748Y62817D01*
X75008Y60640D02*
X75748Y61380D01*
X74884Y61234D02*
X75748Y62098D01*
X75008Y60981D02*
X75748Y60241D01*
X74399Y61718D02*
X75008Y61109D01*
Y59891D02*
Y61109D01*
X76752Y59956D02*
X77248Y59459D01*
X76752Y59509D02*
X77248Y60006D01*
X74476Y59358D02*
X75748Y58086D01*
X75008Y60263D02*
X75748Y59523D01*
X75008Y59921D02*
X75748Y60662D01*
X74835Y59718D02*
X75748Y58804D01*
X76752Y55917D02*
X77248Y56414D01*
X76752Y57083D02*
X77248Y56586D01*
X76752Y56364D02*
X77248Y55867D01*
X74558Y55879D02*
X75748Y57069D01*
X74917Y55519D02*
X75748Y56351D01*
X72514Y59883D02*
X75748Y56649D01*
X71819Y56014D02*
X75748Y59943D01*
X73834Y59282D02*
X75748Y57367D01*
X74369Y59282D02*
X75008Y59921D01*
X74399Y59282D02*
X75008Y59891D01*
X72210Y55686D02*
X75748Y59225D01*
X72162Y59516D02*
X75748Y55930D01*
X73975Y56014D02*
X75748Y57788D01*
X73256Y56014D02*
X75748Y58506D01*
X74422Y56014D02*
X75054Y55382D01*
X80359Y53532D02*
X80968Y54141D01*
X78532D02*
X79141Y53532D01*
X80359D01*
X79838Y49664D02*
X83929Y53755D01*
X79479Y50024D02*
X83570Y54114D01*
X79584Y53532D02*
X82778Y50337D01*
X78760Y50742D02*
X81581Y53563D01*
X80302Y53532D02*
X82778Y51056D01*
X78532Y54141D02*
Y55359D01*
X78252Y55262D02*
X82225Y59236D01*
X78252Y53825D02*
X78550Y54123D01*
X78252Y54864D02*
X78532Y54584D01*
X78252Y55583D02*
X78532Y55302D01*
X78252Y54544D02*
X78532Y54824D01*
X78401Y51101D02*
X81222Y53922D01*
X78252Y54146D02*
X82778Y49619D01*
X78252Y51670D02*
X80113Y53532D01*
X76752Y54209D02*
X77248Y53712D01*
X78252Y53107D02*
X78909Y53764D01*
X80197Y49305D02*
X84378Y53486D01*
X78252Y53427D02*
X82778Y48900D01*
X80556Y48946D02*
X82778Y51168D01*
X79120Y50383D02*
X82223Y53486D01*
X78252Y52388D02*
X79395Y53532D01*
X78252Y51251D02*
X80742Y48760D01*
X78252Y51272D02*
X81102Y48422D01*
X78252Y52709D02*
X82622Y48339D01*
X78595Y48422D02*
X79086Y48912D01*
X77877Y48422D02*
X78726Y49271D01*
X77801Y48422D02*
X78776D01*
X77248Y50749D02*
X77499Y50498D01*
X77248Y50749D02*
X77499Y50498D01*
X76752Y50170D02*
X77290Y50708D01*
X76752Y51335D02*
X77248Y50838D01*
Y50749D02*
Y51251D01*
X77120Y49102D02*
X78008Y49990D01*
X76752Y49898D02*
X78228Y48422D01*
X77480Y48743D02*
X78367Y49630D01*
X76761Y49461D02*
X77649Y50349D01*
X76752Y49471D02*
X77801Y48422D01*
X76752Y54481D02*
X77248Y54977D01*
X76752Y55646D02*
X77248Y55149D01*
X76752Y54927D02*
X77248Y54430D01*
X76752Y55199D02*
X77248Y55696D01*
X75054Y55188D02*
X75748Y54494D01*
X75054Y54220D02*
X75748Y54914D01*
X76752Y53044D02*
X77248Y53541D01*
X76752Y53762D02*
X77248Y54259D01*
X76752Y53490D02*
X77248Y52994D01*
X75054Y54118D02*
Y55382D01*
Y54469D02*
X75748Y53775D01*
X75054Y54938D02*
X75748Y55633D01*
X74871Y53935D02*
X75748Y53057D01*
X74511Y53575D02*
X75748Y52338D01*
X74320Y53486D02*
X75054Y54220D01*
X71725Y59236D02*
X75748Y55212D01*
X74422Y53486D02*
X75054Y54118D01*
X72164Y53768D02*
X75748Y50183D01*
X71727Y53486D02*
X75748Y49465D01*
X71009Y53486D02*
X76073Y48422D01*
X72778Y51225D02*
X75748Y54196D01*
X73882Y53486D02*
X75748Y51620D01*
X76752Y50888D02*
X77248Y51385D01*
X76752Y52054D02*
X77248Y51557D01*
Y50749D02*
Y51251D01*
X76752Y52772D02*
X77248Y52275D01*
X76752Y52325D02*
X77248Y52822D01*
X76752Y51607D02*
X77248Y52104D01*
X75748Y48969D02*
X75999Y48718D01*
X75748Y48969D02*
X75999Y48718D01*
X75722Y48422D02*
X76009Y48709D01*
X75748Y48969D02*
Y49471D01*
Y48969D02*
Y49471D01*
X73855Y50147D02*
X75748Y52041D01*
X73496Y50506D02*
X75748Y52759D01*
X74214Y49788D02*
X75748Y51322D01*
X73164Y53486D02*
X75748Y50901D01*
X73137Y50866D02*
X75748Y53477D01*
X75292Y48710D02*
X75748Y49167D01*
X74933Y49070D02*
X75748Y49885D01*
X75581Y48422D02*
X76236D01*
X70752Y53251D02*
X75581Y48422D01*
X74574Y49429D02*
X75748Y50604D01*
X73691Y78002D02*
X74188Y78498D01*
X73296D02*
X73793Y78002D01*
X74015Y78498D02*
X74511Y78002D01*
X72578Y78498D02*
X73075Y78002D01*
X72254D02*
X72751Y78498D01*
X72973Y78002D02*
X73469Y78498D01*
X73391Y76248D02*
X74118Y75522D01*
X72526Y74681D02*
X74093Y76248D01*
X74109D02*
X74598Y75760D01*
X72287Y75161D02*
X73375Y76248D01*
X72673D02*
X73399Y75522D01*
X71536Y78002D02*
X72033Y78498D01*
X71141D02*
X71638Y78002D01*
X71859Y78498D02*
X72356Y78002D01*
X70817D02*
X71314Y78498D01*
X70423D02*
X70919Y78002D01*
X70517Y76248D02*
X71290Y75476D01*
X71883D02*
X72656Y76248D01*
X71236D02*
X72808Y74676D01*
X71954Y76248D02*
X73033Y75170D01*
X69799Y76248D02*
X70719Y75328D01*
X71165Y75476D02*
X71938Y76248D01*
X73384Y75522D02*
X74359D01*
X72808Y74946D02*
X73384Y75522D01*
X72526Y74240D02*
X72808Y73957D01*
X72526Y73817D02*
Y74923D01*
X71973Y75476D02*
X72526Y74923D01*
Y73962D02*
X72808Y74245D01*
X73458Y72982D02*
Y73218D01*
X72808Y73794D02*
X73384Y73218D01*
X74462Y72982D02*
Y73218D01*
X72808Y73794D02*
Y74946D01*
X71973Y73264D02*
X72526Y73817D01*
X70867Y75476D02*
X71973D01*
X70314Y74923D02*
X70867Y75476D01*
X71499Y72936D02*
X71828Y73264D01*
X70867D02*
X71973D01*
X70867Y72936D02*
X71973D01*
X70314Y73817D02*
X70867Y73264D01*
X71346D02*
X71675Y72936D01*
X61478Y78002D02*
X61975Y78498D01*
X61083D02*
X61580Y78002D01*
X61801Y78498D02*
X62298Y78002D01*
X60365Y78498D02*
X60861Y78002D01*
X60041D02*
X60538Y78498D01*
X60759Y78002D02*
X61256Y78498D01*
X63238D02*
X63735Y78002D01*
X62915D02*
X63412Y78498D01*
X63633Y78002D02*
X64130Y78498D01*
X62196Y78002D02*
X62693Y78498D01*
X62520D02*
X63017Y78002D01*
X57491Y78498D02*
X57988Y78002D01*
X57167D02*
X57664Y78498D01*
X57886Y78002D02*
X58383Y78498D01*
X56449Y78002D02*
X56946Y78498D01*
X56054D02*
X56551Y78002D01*
X56773Y78498D02*
X57269Y78002D01*
X59323D02*
X59819Y78498D01*
X58928D02*
X59425Y78002D01*
X59646Y78498D02*
X60143Y78002D01*
X58209Y78498D02*
X58706Y78002D01*
X58604D02*
X59101Y78498D01*
X68986D02*
X69483Y78002D01*
X68662D02*
X69159Y78498D01*
X69381Y78002D02*
X69877Y78498D01*
X67944Y78002D02*
X68440Y78498D01*
X67549D02*
X68046Y78002D01*
X68267Y78498D02*
X68764Y78002D01*
X70099D02*
X70596Y78498D01*
X69080Y76248D02*
X70360Y74969D01*
X70314Y73817D02*
Y74923D01*
X69704Y78498D02*
X70201Y78002D01*
X68362Y76248D02*
X70314Y74296D01*
X65070Y78002D02*
X65567Y78498D01*
X64675D02*
X65172Y78002D01*
X65394Y78498D02*
X65890Y78002D01*
X63957Y78498D02*
X64454Y78002D01*
X64352D02*
X64848Y78498D01*
X66830D02*
X67327Y78002D01*
X66507D02*
X67004Y78498D01*
X67225Y78002D02*
X67722Y78498D01*
X65788Y78002D02*
X66285Y78498D01*
X66112D02*
X66609Y78002D01*
X72454Y72454D02*
X73301Y73301D01*
X72454Y72454D02*
X73301Y73301D01*
X72808Y72406D02*
X73384Y72982D01*
X72378Y73669D02*
X73225Y72822D01*
X72095Y72813D02*
X72942Y73661D01*
X72019Y73310D02*
X72866Y72463D01*
X72808Y71254D02*
Y72406D01*
X72526Y71807D02*
X72808Y72090D01*
X72526Y72085D02*
X72808Y71802D01*
X71973Y72936D02*
X72526Y72383D01*
Y71277D02*
Y72383D01*
X58223Y63252D02*
X71219Y76248D01*
X56867D02*
X71352Y61764D01*
X67644Y76248D02*
X70956Y72936D01*
X60049Y62204D02*
X71109Y73264D01*
X59023Y76248D02*
X73553Y61718D01*
X58304Y76248D02*
X73008Y61545D01*
X59741Y76248D02*
X74271Y61718D01*
X57586Y76248D02*
X72648Y61186D01*
X61845Y60408D02*
X72808Y71372D01*
X73384Y70678D02*
X74536D01*
X72808Y71254D02*
X73384Y70678D01*
X73181Y61718D02*
X74399D01*
X72572Y61077D02*
X73213Y61718D01*
X72572Y61109D02*
X73181Y61718D01*
X72572Y59891D02*
Y61109D01*
X72514Y60602D02*
X72572Y60544D01*
X72514Y59868D02*
Y61132D01*
Y61019D02*
X72572Y61077D01*
X71973Y70724D02*
X72526Y71277D01*
X70867Y70724D02*
X71973D01*
X70618Y61764D02*
X71882D01*
X62563Y59689D02*
X73552Y70678D01*
X62204Y60049D02*
X73109Y70954D01*
X62922Y59330D02*
X74271Y70678D01*
X61485Y60767D02*
X71443Y70724D01*
X71882Y61764D02*
X72514Y61132D01*
X70314Y72383D02*
X70867Y72936D01*
X66925Y76248D02*
X70553Y72621D01*
X70314Y71277D02*
X70867Y70724D01*
X66207Y76248D02*
X70314Y72141D01*
X65488Y76248D02*
X70314Y71422D01*
Y71277D02*
Y72383D01*
X61126Y61126D02*
X70796Y70796D01*
X59689Y62563D02*
X70629Y73503D01*
X61126Y61126D02*
X70796Y70796D01*
X60408Y61845D02*
X70314Y71751D01*
X60767Y61485D02*
X70437Y71155D01*
X57504Y63252D02*
X70501Y76248D01*
X56786Y63252D02*
X69783Y76248D01*
X58941Y63252D02*
X70314Y74625D01*
X58499Y63252D02*
X59001D01*
X56067D02*
X69064Y76248D01*
X58499Y63252D02*
X59001D01*
X59330Y62922D02*
X70314Y73907D01*
X56149Y76248D02*
X70633Y61764D01*
X55732Y71637D02*
X67446Y59922D01*
X59001Y63252D02*
X59252Y63001D01*
X59001Y63252D02*
X59252Y63001D01*
X69342Y61764D02*
X69974Y61132D01*
X68078Y61764D02*
X69342D01*
X69986Y61132D02*
X70618Y61764D01*
X67446Y61132D02*
X68078Y61764D01*
X58674Y60829D02*
X58741Y60896D01*
X59033Y60470D02*
X59100Y60537D01*
X69974Y59868D02*
Y61132D01*
X59252Y63001D02*
X67492Y54761D01*
X69986Y59868D02*
Y61132D01*
X67446Y59868D02*
Y61132D01*
X64359Y57893D02*
X67446Y60980D01*
X58004Y61498D02*
X58139D01*
X56001Y63252D02*
X58499D01*
X58314Y61188D02*
X58382Y61256D01*
X57254Y60748D02*
X57502Y60501D01*
X57254Y60748D02*
X57502Y60501D01*
X58004Y61498D02*
X70812Y48690D01*
X57502Y60501D02*
X68291Y49712D01*
X57502Y60496D02*
X68286Y49712D01*
X58139Y61498D02*
X65638Y53999D01*
X57249Y60748D02*
X57502Y60496D01*
X55336Y78498D02*
X55833Y78002D01*
X55012D02*
X55509Y78498D01*
X55731Y78002D02*
X56227Y78498D01*
X54617D02*
X55114Y78002D01*
X54294D02*
X54791Y78498D01*
X53994Y76248D02*
X54720Y75522D01*
X55732Y74411D02*
X57569Y76248D01*
X55640Y75037D02*
X56851Y76248D01*
X55021Y72982D02*
X58288Y76248D01*
X54687Y75522D02*
X55414Y76248D01*
X55281Y75397D02*
X56133Y76248D01*
X53575Y78002D02*
X54072Y78498D01*
X53180D02*
X53677Y78002D01*
X53899Y78498D02*
X54396Y78002D01*
X52462Y78498D02*
X52959Y78002D01*
X52138D02*
X52635Y78498D01*
X52857Y78002D02*
X53354Y78498D01*
X53275Y76248D02*
X54003Y75520D01*
X52933Y75204D02*
X53977Y76248D01*
X53192Y74744D02*
X54696Y76248D01*
X52532Y75522D02*
X53259Y76248D01*
X52557D02*
X53644Y75161D01*
X55732Y73794D02*
Y74946D01*
X55156Y75522D02*
X55732Y74946D01*
X54004Y73218D02*
X55156D01*
X54004Y75522D02*
X55156D01*
X53428Y73794D02*
Y74946D01*
Y73794D02*
X54004Y73218D01*
X55156D02*
X55732Y73794D01*
X54868Y73218D02*
X55105Y72982D01*
X54004D02*
X55156D01*
X54150Y73218D02*
X54387Y72982D01*
X54303D02*
X54539Y73218D01*
X53428Y74946D02*
X54004Y75522D01*
X53192Y74026D02*
X53428Y74263D01*
X53192Y74177D02*
X53428Y73940D01*
X52616Y75522D02*
X53192Y74946D01*
X52565Y75522D02*
X53192Y74895D01*
X53428Y74658D01*
X52741Y72857D02*
X53553Y73669D01*
X52616Y73218D02*
X53192Y73794D01*
X53024Y73626D02*
X53836Y72814D01*
X53192Y73794D02*
Y74946D01*
X51641Y73218D02*
X52616D01*
X51744Y78498D02*
X52240Y78002D01*
X51420D02*
X51917Y78498D01*
X51464Y75522D02*
X52616D01*
X51025Y78498D02*
X51522Y78002D01*
X50702D02*
X51198Y78498D01*
X51625Y75743D02*
X51847Y75522D01*
X51985Y76102D02*
X52565Y75522D01*
X51814D02*
X52541Y76248D01*
X50888Y74946D02*
X51464Y75522D01*
X50888Y73971D02*
Y74946D01*
X50652Y74359D02*
X50888Y74596D01*
X50307Y78498D02*
X50804Y78002D01*
X49983D02*
X50480Y78498D01*
X49839Y78002D02*
X50341D01*
X49588Y78498D02*
X50085Y78002D01*
X48870Y78498D02*
X49603Y77765D01*
X49839Y78002D02*
X50341D01*
X50652Y74769D02*
X52131Y76248D01*
X49588Y77751D02*
X49839Y78002D01*
X50652Y73794D02*
Y74769D01*
X48151Y78498D02*
X49244Y77406D01*
X49588Y77751D02*
X49839Y78002D01*
X51995Y73218D02*
X52231Y72982D01*
X51459Y73036D02*
X51513Y72982D01*
X51464D02*
X52616D01*
X50652Y74561D02*
X50888Y74325D01*
X50499Y73582D02*
X50888Y73971D01*
X50652Y73843D02*
X50706Y73789D01*
X51252Y72804D02*
X51666Y73218D01*
X51252Y72829D02*
X51641Y73218D01*
X52147Y72982D02*
X52384Y73218D01*
X50248Y72829D02*
Y73331D01*
Y72829D02*
Y73331D01*
X50499Y73582D01*
X50076Y73218D02*
X50652Y73794D01*
X50248Y73331D02*
X50499Y73582D01*
X49101Y73218D02*
X50076D01*
X48924Y72982D02*
X50076D01*
X49992D02*
X50248Y73238D01*
X49839Y73218D02*
X50248Y72809D01*
X50076Y72982D02*
X50248Y72809D01*
X49121Y73218D02*
X49358Y72982D01*
X49274D02*
X49511Y73218D01*
X55732Y71537D02*
X60443Y76248D01*
X55732Y72255D02*
X59725Y76248D01*
X55316Y63937D02*
X67627Y76248D01*
X55448Y72690D02*
X59006Y76248D01*
X55156Y72982D02*
X55732Y72406D01*
X55105Y72982D02*
X55732Y72355D01*
X55675Y63578D02*
X68346Y76248D01*
X55430D02*
X70266Y61412D01*
X55732Y74510D02*
X68478Y61764D01*
X55730Y73793D02*
X67919Y61605D01*
X55371Y73434D02*
X67560Y61246D01*
X53160Y66092D02*
X63317Y76248D01*
X52801Y66451D02*
X62598Y76248D01*
X53520Y65733D02*
X64035Y76248D01*
X52542Y66910D02*
X61880Y76248D01*
X52542Y67628D02*
X61162Y76248D01*
X53428Y72406D02*
X54004Y72982D01*
X54956Y64296D02*
X66909Y76248D01*
X54597Y64655D02*
X66190Y76248D01*
X54712D02*
X69196Y61764D01*
X53879Y65374D02*
X64754Y76248D01*
X54238Y65014D02*
X65472Y76248D01*
X55732Y72355D02*
X67446Y60641D01*
X55732Y71254D02*
Y72406D01*
X55156Y70678D02*
X55732Y71254D01*
X54004Y70678D02*
X55156D01*
X53428Y71254D02*
X54004Y70678D01*
X53849Y61752D02*
X53922Y61825D01*
X55564Y71086D02*
X70636Y56014D01*
X55204Y70727D02*
X70268Y55664D01*
X54535Y70678D02*
X69245Y55968D01*
X53192Y71303D02*
X68527Y55968D01*
X52857Y70919D02*
X67955Y55822D01*
X52542Y68361D02*
X57651Y63252D01*
X52542Y69079D02*
X58369Y63252D01*
X52542Y67643D02*
X56932Y63252D01*
X52542Y69065D02*
X54155Y70678D01*
X52542Y68347D02*
X54873Y70678D01*
X52542Y69798D02*
X67492Y54847D01*
X52542Y70516D02*
X67595Y55462D01*
X52542Y66924D02*
X56214Y63252D01*
X52542Y66711D02*
X56001Y63252D01*
X50499Y65248D02*
X53996Y61752D01*
X53100Y72497D02*
X53913Y73310D01*
X52664Y73267D02*
X53477Y72454D01*
X52616Y72982D02*
X53192Y72406D01*
X51252Y72769D02*
X51464Y72982D01*
X48632Y72749D02*
X49101Y73218D01*
X48381Y72498D02*
X48632Y72749D01*
X53428Y71254D02*
Y72406D01*
X53192Y72021D02*
X53428Y71785D01*
X52542Y70502D02*
X53428Y71389D01*
X53192Y71254D02*
Y72406D01*
Y71871D02*
X53428Y72107D01*
X48381Y72498D02*
X48632Y72749D01*
X48348Y72406D02*
X48924Y72982D01*
X48019Y72498D02*
X48381D01*
X48019D02*
X48381D01*
X48019D02*
X48112Y72406D01*
Y72073D02*
X48348Y71836D01*
Y71254D02*
Y72406D01*
X48112Y71354D02*
X50248Y69217D01*
X48348Y71254D02*
X48924Y70678D01*
X48112Y71254D02*
Y72406D01*
Y71820D02*
X48348Y72056D01*
X52616Y70678D02*
X53192Y71254D01*
X52542Y69784D02*
X53720Y70962D01*
X52542Y66711D02*
Y70678D01*
X50248Y65499D02*
X50499Y65248D01*
X50248Y65499D02*
Y66001D01*
Y65499D02*
X50499Y65248D01*
X52412Y61752D02*
X53204Y62544D01*
X51694Y61752D02*
X52845Y62903D01*
X53131Y61752D02*
X53563Y62184D01*
X50257Y61752D02*
X52126Y63621D01*
X50975Y61752D02*
X52486Y63262D01*
X50150Y70753D02*
X50248Y70654D01*
X47802Y70945D02*
X50248Y68499D01*
X49506Y70678D02*
X50248Y69936D01*
X50076Y70678D02*
X50248Y70851D01*
X48924Y70678D02*
X50076D01*
X48820Y61752D02*
X51408Y64340D01*
X48102Y61752D02*
X51049Y64699D01*
X49538Y61752D02*
X51767Y63980D01*
X50248Y66001D02*
Y70851D01*
Y65499D02*
Y66001D01*
X73181Y59282D02*
X74399D01*
X72572Y59891D02*
X73181Y59282D01*
X72514Y60301D02*
X72572Y60359D01*
X69986Y59868D02*
X70618Y59236D01*
X71101Y56014D02*
X74369Y59282D01*
X69828Y55459D02*
X73650Y59282D01*
X71006Y59236D02*
X74228Y56014D01*
X71882Y59236D02*
X72514Y59868D01*
X70618Y59236D02*
X71882D01*
X69815Y59709D02*
X73509Y56014D01*
X68900Y55968D02*
X72697Y59766D01*
X68181Y55968D02*
X71449Y59236D01*
X69342D02*
X69974Y59868D01*
X69294Y59236D02*
X69974Y59916D01*
X68132Y59236D02*
X71354Y56014D01*
X69469Y55819D02*
X73056Y59406D01*
X69456Y59349D02*
X72975Y55831D01*
X68851Y59236D02*
X72615Y55471D01*
X66514Y55738D02*
X70315Y59539D01*
X66874Y55379D02*
X70731Y59236D01*
X72526Y55284D02*
X73256Y56014D01*
X72526Y55382D02*
X73158Y56014D01*
X74422D01*
X71882D02*
X72514Y55382D01*
X70618Y56014D02*
X71882D01*
X72514Y54118D02*
Y55382D01*
X72526Y54118D02*
X73158Y53486D01*
X72526Y54124D02*
X73164Y53486D01*
X73158D02*
X74422D01*
X72526Y54118D02*
Y55382D01*
X71882Y53486D02*
X72514Y54118D01*
X69986D02*
Y55382D01*
X70618Y56014D01*
X68751Y53502D02*
X69999D01*
X69928Y54841D02*
X69986Y54899D01*
X69928Y55285D02*
X69986Y55227D01*
X69928Y54567D02*
X69986Y54509D01*
X70025Y53502D02*
X70314Y53790D01*
X69999Y53502D02*
X70501D01*
X69999D02*
X70501D01*
X69307D02*
X69986Y54181D01*
X69782Y53995D02*
X70275Y53502D01*
X66155Y56097D02*
X69294Y59236D01*
X65796Y56456D02*
X68575Y59236D01*
X68078D02*
X69342D01*
X67446Y59868D02*
X68078Y59236D01*
X67446Y59922D02*
X68132Y59236D01*
X65437Y56816D02*
X67967Y59346D01*
X69319Y55968D02*
X69928Y55359D01*
X68101Y55968D02*
X69319D01*
X69245D02*
X69928Y55285D01*
X67492Y55359D02*
X68101Y55968D01*
X67492Y55279D02*
X68181Y55968D01*
X64718Y57534D02*
X67446Y60262D01*
X61906Y57596D02*
X61974Y57664D01*
X62266Y57237D02*
X62333Y57304D01*
X61188Y58314D02*
X61256Y58382D01*
X60829Y58674D02*
X60896Y58741D01*
X61547Y57955D02*
X61615Y58023D01*
X65078Y57175D02*
X67608Y59706D01*
X63343Y56159D02*
X63411Y56227D01*
X63703Y55800D02*
X63770Y55867D01*
X62625Y56878D02*
X62692Y56945D01*
X62984Y56518D02*
X63052Y56586D01*
X69928Y54141D02*
Y55359D01*
X67492Y54761D02*
Y55359D01*
X67233Y55020D02*
X67492Y55279D01*
X69422Y53635D02*
X69556Y53502D01*
X69319Y53532D02*
X69928Y54141D01*
X68720Y53532D02*
X69319D01*
X65638Y53999D02*
X65889Y53748D01*
X65858Y53645D02*
X65925Y53712D01*
X64780Y54722D02*
X64848Y54790D01*
X64421Y55081D02*
X64489Y55149D01*
X65139Y54363D02*
X65207Y54431D01*
X64062Y55441D02*
X64129Y55508D01*
X60859Y54393D02*
X61482Y55016D01*
X65638Y53999D02*
X65889Y53748D01*
X65499Y54004D02*
X65566Y54071D01*
X65638Y53999D02*
X65889Y53748D01*
X61218Y54034D02*
X61841Y54657D01*
X61578Y53675D02*
X62200Y54297D01*
X71341Y52662D02*
X72661Y53982D01*
X70981Y53021D02*
X71446Y53486D01*
X70618D02*
X71882D01*
X70501Y53502D02*
X70752Y53251D01*
X70501Y53502D02*
X70752Y53251D01*
X70622Y53380D02*
X70728Y53486D01*
X72059Y51943D02*
X73602Y53486D01*
X71700Y52303D02*
X73021Y53623D01*
X72418Y51584D02*
X74320Y53486D01*
X70270Y50873D02*
X70947Y51550D01*
X70629Y50513D02*
X71307Y51191D01*
X69986Y54118D02*
X70618Y53486D01*
X69192Y51950D02*
X69741Y52498D01*
X68751D02*
X69999D01*
X68644D02*
X68751D01*
X68644D02*
X68751D01*
X68833Y52309D02*
X69022Y52498D01*
X69123D02*
X73199Y48422D01*
X68644Y52498D02*
X72721Y48422D01*
X69911Y51232D02*
X70588Y51909D01*
X69551Y51591D02*
X70229Y52269D01*
X68731Y50771D02*
X68799Y50839D01*
X72066Y49076D02*
X72744Y49754D01*
X71707Y49436D02*
X72384Y50113D01*
X72425Y48717D02*
X73103Y49395D01*
X71348Y49795D02*
X72025Y50472D01*
X70988Y50154D02*
X71666Y50832D01*
X70887Y48616D02*
X70954Y48683D01*
X73566Y48422D02*
X73821Y48676D01*
X72848Y48422D02*
X73462Y49036D01*
X72721Y48422D02*
X73696D01*
X70812Y48690D02*
X71063Y48439D01*
Y48422D02*
X71156D01*
X69809Y49693D02*
X69877Y49761D01*
X69450Y50053D02*
X69517Y50120D01*
X70168Y49334D02*
X70236Y49402D01*
X69091Y50412D02*
X69158Y50479D01*
X68291Y49712D02*
X68542Y49461D01*
X70528Y48975D02*
X70595Y49042D01*
X68542Y48426D02*
X69057Y48941D01*
X70812Y48690D02*
X71063Y48439D01*
X68542Y49144D02*
X68697Y49300D01*
X68542Y48422D02*
Y48959D01*
X67654Y51849D02*
X67721Y51916D01*
X67295Y52208D02*
X67362Y52275D01*
X68013Y51489D02*
X68081Y51557D01*
X66576Y52926D02*
X66644Y52994D01*
X66217Y53285D02*
X66285Y53353D01*
X66935Y52567D02*
X67003Y52635D01*
X68372Y51130D02*
X68440Y51198D01*
X64810Y50442D02*
X65433Y51065D01*
X65170Y50083D02*
X65792Y50705D01*
X64092Y51160D02*
X64715Y51783D01*
X64451Y50801D02*
X65074Y51424D01*
X63374Y51879D02*
X63996Y52501D01*
X63014Y52238D02*
X63637Y52861D01*
X63733Y51520D02*
X64355Y52142D01*
X62296Y52956D02*
X62919Y53579D01*
X61937Y53316D02*
X62559Y53938D01*
X62655Y52597D02*
X63278Y53220D01*
X61598Y49385D02*
X62980Y50767D01*
X61239Y49744D02*
X62621Y51126D01*
X61957Y49025D02*
X63340Y50408D01*
X60520Y50462D02*
X61903Y51845D01*
X60879Y50103D02*
X62262Y51486D01*
X68542Y48959D02*
Y49456D01*
X68286Y49712D02*
X68542Y49456D01*
Y48959D02*
Y49456D01*
X68291Y49712D02*
X68542Y49461D01*
X65888Y49364D02*
X66511Y49987D01*
X66002Y48759D02*
X66870Y49628D01*
X67538Y48422D02*
Y48959D01*
X66229Y48268D02*
X67229Y49269D01*
X66002Y48422D02*
Y48749D01*
Y49251D01*
Y48749D02*
Y49251D01*
X65751Y49502D02*
X66002Y49251D01*
X65529Y49724D02*
X66151Y50346D01*
X65751Y49502D02*
X66002Y49251D01*
X62316Y48666D02*
X63699Y50049D01*
X60635Y48422D02*
X60845Y48632D01*
X63508Y48422D02*
X64417Y49330D01*
X62790Y48422D02*
X64058Y49690D01*
X64998Y48422D02*
Y48749D01*
X60732Y50251D02*
X62561Y48422D01*
X63536D01*
X60110Y59392D02*
X60178Y59460D01*
X59751Y59751D02*
X59819Y59819D01*
X60470Y59033D02*
X60537Y59100D01*
X59751Y59751D02*
X59819Y59819D01*
X59392Y60110D02*
X59460Y60178D01*
X58249Y56502D02*
X58751D01*
X59063Y56189D02*
X59686Y56812D01*
X58657Y56502D02*
X59326Y57171D01*
X59422Y55830D02*
X60045Y56453D01*
X58751Y56502D02*
X59002Y56251D01*
X58751Y56502D02*
X59002Y56251D01*
X55407Y59748D02*
X58654Y56502D01*
X54688Y59748D02*
X57935Y56502D01*
X55783D02*
X57890Y58608D01*
X54346Y56502D02*
X57171Y59326D01*
X53970Y59748D02*
X57217Y56502D01*
X55065D02*
X57530Y58967D01*
X57938Y56502D02*
X58967Y57530D01*
X57220Y56502D02*
X58608Y57890D01*
X58249Y56502D02*
X58751D01*
X56502D02*
X58249Y58249D01*
X56502Y56502D02*
X58249Y58249D01*
X60141Y55112D02*
X60763Y55734D01*
X59781Y55471D02*
X60404Y56094D01*
X60500Y54753D02*
X61122Y55375D01*
X58714Y54403D02*
X59029Y54719D01*
X58060Y54468D02*
X58670Y55078D01*
X59073Y54044D02*
X59388Y54359D01*
X59258Y52641D02*
Y53859D01*
Y53511D02*
X59747Y54000D01*
X59258Y52792D02*
X60107Y53641D01*
X58649Y54468D02*
X59258Y53859D01*
X57501Y55498D02*
X58532Y54468D01*
X56783Y55498D02*
X57813Y54468D01*
X57431D02*
X58649D01*
X55951Y54514D02*
X56935Y55498D01*
X56065D02*
X57263Y54300D01*
X56760Y53886D02*
X58311Y55437D01*
X56401Y54245D02*
X57654Y55498D01*
X55346D02*
X56904Y53941D01*
X56822Y53859D02*
X57431Y54468D01*
X52909Y56502D02*
X56156Y59748D01*
X52533D02*
X55780Y56502D01*
X53251Y59748D02*
X56498Y56502D01*
X51815Y59748D02*
X55061Y56502D01*
X51473D02*
X54719Y59748D01*
X52191Y56502D02*
X55438Y59748D01*
X53628Y56502D02*
X56812Y59686D01*
X52473Y55498D02*
X53457Y54514D01*
X53077D02*
X54062Y55498D01*
X51754D02*
X52738Y54514D01*
X52359D02*
X53343Y55498D01*
X49317Y56502D02*
X52564Y59748D01*
X48941D02*
X52188Y56502D01*
X49659Y59748D02*
X52906Y56502D01*
X48223Y59748D02*
X51469Y56502D01*
X47881D02*
X51127Y59748D01*
X48599Y56502D02*
X51846Y59748D01*
X50754Y56502D02*
X54001Y59748D01*
X50378D02*
X53625Y56502D01*
X51096Y59748D02*
X54343Y56502D01*
X50036D02*
X53283Y59748D01*
X51036Y55498D02*
X52174Y54360D01*
X55233Y54514D02*
X56217Y55498D01*
X54628D02*
X55612Y54514D01*
X54868D02*
X56132D01*
X53909Y55498D02*
X54894Y54514D01*
X53694Y54412D02*
X54780Y55498D01*
X54053Y54053D02*
X55498Y55498D01*
X56764Y53362D02*
X56822Y53304D01*
X56132Y54514D02*
X56764Y53882D01*
Y53172D02*
X56822Y53230D01*
X54053Y54053D02*
X55498Y55498D01*
X54236Y53882D02*
X54868Y54514D01*
X53191Y55498D02*
X54522Y54168D01*
X52328Y54514D02*
X53592D01*
X54224Y53882D01*
X50317Y55498D02*
X51815Y54001D01*
X51696Y53882D02*
X52328Y54514D01*
X49599Y55498D02*
X51696Y53401D01*
X48880Y55498D02*
X51696Y52683D01*
Y53851D02*
X52359Y54514D01*
X47968Y53715D02*
X49751Y55498D01*
X47968Y52997D02*
X50469Y55498D01*
X58404Y50502D02*
X60825Y52922D01*
X57686Y50502D02*
X60466Y53282D01*
X59123Y50502D02*
X61184Y52563D01*
X58649Y52032D02*
X59258Y52641D01*
X58731Y52114D02*
X60343Y50502D01*
X59002Y56251D02*
X65751Y49502D01*
X58249Y55498D02*
X64998Y48749D01*
X58220Y55498D02*
X64998Y48720D01*
X59090Y52473D02*
X63141Y48422D01*
X59841Y50502D02*
X61544Y52204D01*
X56822Y52641D02*
X57431Y52032D01*
X54812Y50502D02*
X56887Y52576D01*
X56822Y52641D02*
Y53859D01*
X56764Y52618D02*
Y53882D01*
X56132Y51986D02*
X56764Y52618D01*
X56749Y59748D02*
X67538Y48959D01*
X56125Y59748D02*
X67458Y48415D01*
X56764Y52644D02*
X58906Y50502D01*
X56418Y52272D02*
X58188Y50502D01*
X55531D02*
X57246Y52217D01*
X60481Y50502D02*
X60732Y50251D01*
X59979Y50502D02*
X60481D01*
X60732Y50251D01*
X59979Y50502D02*
X60481D01*
X58094Y52032D02*
X59625Y50502D01*
X59191Y49498D02*
X60268Y48422D01*
X59916D02*
X60486Y48991D01*
X59909Y49498D02*
X60986Y48422D01*
X59844D02*
X60996D01*
X58468Y48410D02*
X59556Y49498D01*
X58473D02*
X59697Y48274D01*
X56967Y50502D02*
X58498Y52032D01*
X56249Y50502D02*
X57779Y52032D01*
X57431D02*
X58649D01*
X55267Y51986D02*
X56751Y50502D01*
X55985Y51986D02*
X57469Y50502D01*
X57761Y48422D02*
X58838Y49498D01*
X57036D02*
X58112Y48422D01*
X57304D02*
X58456D01*
X55606D02*
X56683Y49498D01*
X56317D02*
X57394Y48422D01*
X54236Y52618D02*
Y53882D01*
X53592Y51986D02*
X54224Y52618D01*
X54236D02*
X54868Y51986D01*
X54224Y52618D02*
Y53882D01*
X51696Y52618D02*
X52328Y51986D01*
X53592D01*
X54070Y52464D02*
X56033Y50502D01*
X53711Y52105D02*
X55314Y50502D01*
X53375D02*
X54864Y51990D01*
X52657Y50502D02*
X54505Y52349D01*
X52393Y51986D02*
X53877Y50502D01*
X51696Y52618D02*
Y53882D01*
X48162Y55498D02*
X53159Y50502D01*
X51696Y52683D02*
X52393Y51986D01*
X47968Y53537D02*
X51004Y50502D01*
X47968Y52641D02*
Y53859D01*
Y52819D02*
X50285Y50502D01*
X50502D02*
X52157Y52157D01*
X49783Y50502D02*
X51798Y52516D01*
X50502Y50502D02*
X52157Y52157D01*
X48346Y50502D02*
X51696Y53851D01*
X49065Y50502D02*
X51696Y53133D01*
X54094Y50502D02*
X55578Y51986D01*
X53111D02*
X54596Y50502D01*
X54868Y51986D02*
X56132D01*
X52732Y48422D02*
X53809Y49498D01*
X52007D02*
X53084Y48422D01*
X52224D02*
X53376D01*
X54887D02*
X55964Y49498D01*
X54162D02*
X55239Y48422D01*
X54764D02*
X55916D01*
X53413Y48384D02*
X54527Y49498D01*
X53444D02*
X54642Y48300D01*
X51938Y50502D02*
X53423Y51986D01*
X51220Y50502D02*
X52704Y51986D01*
X49858Y48422D02*
X50935Y49498D01*
X49133D02*
X50210Y48422D01*
X49684D02*
X50836D01*
X50577D02*
X51654Y49498D01*
X48415D02*
X49588Y48325D01*
X51288Y49498D02*
X52365Y48422D01*
X48359Y48359D02*
X49498Y49498D01*
X48359Y48359D02*
X49498Y49498D01*
X94208Y48229D02*
X98498Y52519D01*
X91861Y48037D02*
X98498Y54675D01*
X94567Y47870D02*
X98498Y51801D01*
X94016Y48422D02*
X94592Y47846D01*
X92288D02*
X92864Y48422D01*
X92052Y47509D02*
X92288Y47746D01*
X94592Y47176D02*
X98498Y51083D01*
X92288Y46694D02*
Y47846D01*
X94592Y46694D02*
Y47846D01*
X92052Y46694D02*
Y47846D01*
Y47530D02*
X92288Y47293D01*
X89752Y50548D02*
X92371Y47929D01*
X89752Y56296D02*
X98498Y47549D01*
X91476Y48422D02*
X92052Y47846D01*
X88999Y49248D02*
X90075Y48173D01*
X88862Y49283D02*
X90024Y48121D01*
X89748Y47846D02*
X90075Y48173D01*
X89752Y53422D02*
X98498Y44675D01*
X89752Y54140D02*
X98498Y45394D01*
X89752Y52704D02*
X98498Y43957D01*
X89752Y55577D02*
X98498Y46830D01*
X89752Y54859D02*
X98498Y46112D01*
X94592Y47145D02*
X98498Y43238D01*
X94016Y46118D02*
X94592Y46694D01*
X92864Y46118D02*
X94016D01*
X92052Y46791D02*
X92288Y47028D01*
X91476Y46118D02*
X92052Y46694D01*
X92288D02*
X92864Y46118D01*
X92052Y46811D02*
X98498Y40365D01*
X91751Y46394D02*
X98498Y39646D01*
X93463Y46118D02*
X98498Y41083D01*
X94458Y46560D02*
X98498Y42520D01*
X94099Y46201D02*
X98498Y41801D01*
X91308Y46118D02*
X98498Y38928D01*
X89403Y46586D02*
X98498Y37491D01*
X90589Y46118D02*
X98498Y38209D01*
X91379Y46118D02*
X92052Y46791D01*
X89748Y46694D02*
X90324Y46118D01*
X91476D01*
X86972Y46862D02*
X98498Y35336D01*
X86697Y46419D02*
X98498Y34617D01*
X86279Y46118D02*
X98498Y33899D01*
X89044Y46227D02*
X98498Y36773D01*
X88434Y46118D02*
X98498Y36054D01*
X89154Y48204D02*
X89599Y48649D01*
X86806Y48011D02*
X87858Y49064D01*
X88936Y48422D02*
X89512Y47846D01*
X86396Y48422D02*
X86972Y47846D01*
X86252Y49019D02*
X87317Y47954D01*
X87208Y47846D02*
X87784Y48422D01*
X89512Y47843D02*
X89958Y48290D01*
X88862Y48565D02*
X89748Y47678D01*
Y46694D02*
Y47846D01*
X84668Y46694D02*
Y47846D01*
X89512Y46694D02*
Y47846D01*
X84099Y48178D02*
X85248Y49327D01*
X83782Y49334D02*
X84969Y48147D01*
X84668Y47846D02*
X85244Y48422D01*
X82128Y47846D02*
X82704Y48422D01*
X81752Y47986D02*
X82778Y49013D01*
X83856Y48422D02*
X84432Y47846D01*
Y47792D02*
X85248Y48609D01*
X83782Y48616D02*
X84668Y47729D01*
X84432Y46694D02*
Y47846D01*
X81892Y46694D02*
Y47846D01*
X82128Y46694D02*
Y47846D01*
X89512Y47196D02*
X89748Y46959D01*
X89512Y47125D02*
X89748Y47362D01*
X86972Y46740D02*
X87208Y46977D01*
X86972Y47458D02*
X87208Y47695D01*
X86972Y46694D02*
Y47846D01*
Y47581D02*
X87208Y47344D01*
X88936Y46118D02*
X89512Y46694D01*
X87208D02*
X87784Y46118D01*
X88936D01*
X87208Y46694D02*
Y47846D01*
X86396Y46118D02*
X86972Y46694D01*
X84432Y47247D02*
X84668Y47010D01*
X84432Y47074D02*
X84668Y47311D01*
X82128Y46694D02*
X82704Y46118D01*
X81892Y47407D02*
X82128Y47644D01*
X81892Y47632D02*
X82128Y47395D01*
X86350Y46118D02*
X86972Y46740D01*
X84668Y46694D02*
X85244Y46118D01*
X86396D01*
X83856D02*
X84432Y46694D01*
X82704Y46118D02*
X83856D01*
X90836Y15402D02*
X98498Y23064D01*
X88681Y15402D02*
X98498Y25219D01*
X91515Y15362D02*
X98498Y22346D01*
X85807Y15402D02*
X98498Y28093D01*
X85560Y46118D02*
X98498Y33180D01*
X87962Y15402D02*
X98498Y25938D01*
Y4500D02*
Y74500D01*
X86820Y14978D02*
X98498Y26656D01*
X89512Y14796D02*
X98498Y23783D01*
X86461Y15337D02*
X98498Y27375D01*
X89167Y15170D02*
X98498Y24501D01*
X81892Y46914D02*
X98498Y30307D01*
X81642Y46445D02*
X98498Y29588D01*
X82933Y15402D02*
X98498Y30967D01*
X84349Y46612D02*
X98498Y32462D01*
X83990Y46252D02*
X98498Y31744D01*
X83405Y46118D02*
X98498Y31025D01*
X84113Y15144D02*
X98498Y29530D01*
X81765Y14952D02*
X98498Y31685D01*
X84432Y14745D02*
X98498Y28812D01*
X81406Y15311D02*
X98498Y32404D01*
X83652Y15402D02*
X98498Y30248D01*
X94581Y14836D02*
X98498Y18754D01*
X94222Y15196D02*
X98498Y19472D01*
X94592Y14128D02*
X98498Y18035D01*
X94016Y15402D02*
X94592Y14826D01*
X94006Y15402D02*
X94592Y14816D01*
Y13674D02*
Y14826D01*
Y14098D02*
X98498Y10191D01*
X94067Y10731D02*
X98498Y15162D01*
X95550Y10777D02*
X98498Y13725D01*
X94592Y14816D02*
X98498Y10909D01*
X94832Y10777D02*
X98498Y14443D01*
X92991Y15402D02*
X98498Y20909D01*
X91874Y15003D02*
X98498Y21627D01*
X93710Y15402D02*
X98498Y20190D01*
X92288Y14826D02*
X92864Y15402D01*
X94016D01*
X91206Y10024D02*
X98498Y17317D01*
X87508Y5608D02*
X98498Y16598D01*
X93349Y10731D02*
X98498Y15880D01*
X92052Y13764D02*
X95039Y10777D01*
X92288Y13674D02*
X92864Y13098D01*
X90324Y15402D02*
X91476D01*
X89748Y14826D02*
X90324Y15402D01*
X91476D02*
X92052Y14826D01*
X87784Y15402D02*
X88936D01*
X87208Y14826D02*
X87784Y15402D01*
X88936D02*
X89512Y14826D01*
X92052Y13674D02*
Y14826D01*
X89748Y13674D02*
Y14826D01*
X92288Y13674D02*
Y14826D01*
X87208Y13674D02*
Y14826D01*
X89512Y13674D02*
Y14826D01*
X85244Y15402D02*
X86396D01*
X84668Y14826D02*
X85244Y15402D01*
X86396D02*
X86972Y14826D01*
X82704Y15402D02*
X83856D01*
X82128Y14826D02*
X82704Y15402D01*
X83856D02*
X84432Y14826D01*
X84668Y13674D02*
Y14826D01*
X84432Y13674D02*
Y14826D01*
X86972Y13674D02*
Y14826D01*
X81892Y13674D02*
Y14826D01*
X82128Y13674D02*
Y14826D01*
X92052Y14482D02*
X92288Y14246D01*
X92052Y14462D02*
X92288Y14699D01*
X92052Y13744D02*
X92288Y13980D01*
X89512Y14077D02*
X89748Y14314D01*
X86972Y14534D02*
X87208Y14297D01*
X89512Y14149D02*
X89748Y13912D01*
X91406Y13098D02*
X92052Y13744D01*
X86972Y13815D02*
X90331Y10456D01*
X89748Y13674D02*
X90324Y13098D01*
X86972Y13693D02*
X87208Y13929D01*
X88936Y13098D02*
X89512Y13674D01*
X86972Y14411D02*
X87208Y14648D01*
X84432Y14026D02*
X84668Y14263D01*
X84432Y14200D02*
X84668Y13963D01*
X81892Y14360D02*
X82128Y14597D01*
X81892Y14585D02*
X82128Y14348D01*
X86377Y13098D02*
X86972Y13693D01*
X84668Y13674D02*
X85244Y13098D01*
X86396D02*
X86972Y13674D01*
X81892Y13866D02*
X82778Y12979D01*
X83856Y13098D02*
X84432Y13674D01*
X81250Y46118D02*
X98498Y28870D01*
X79294Y46637D02*
X98498Y27433D01*
X80531Y46118D02*
X98498Y28151D01*
X81316Y48422D02*
X81892Y47846D01*
X78252Y51990D02*
X82262Y47980D01*
X81316Y46118D02*
X81892Y46694D01*
X74240Y46663D02*
X98498Y22404D01*
X71533Y46496D02*
X98498Y19530D01*
X73881Y46303D02*
X98498Y21686D01*
X76588Y46470D02*
X98498Y24559D01*
X78935Y46278D02*
X98498Y26715D01*
X69185Y46688D02*
X98498Y17375D01*
X68826Y46329D02*
X98498Y16657D01*
X68318Y46118D02*
X98498Y15938D01*
X71174Y46137D02*
X98498Y18812D01*
X59032Y46784D02*
X90414Y15402D01*
X60662D02*
X91379Y46118D01*
X65691Y15402D02*
X98498Y48209D01*
X64973Y15402D02*
X98498Y48927D01*
X63289Y46118D02*
X94006Y15402D01*
X62571Y46118D02*
X93288Y15402D01*
X62817D02*
X93534Y46118D01*
X76221D02*
X98498Y23841D01*
X75503Y46118D02*
X98498Y23123D01*
X73347Y46118D02*
X98498Y20967D01*
X80164Y46118D02*
X81316D01*
X78376D02*
X98498Y25996D01*
X77658Y46118D02*
X98498Y25278D01*
X72875Y15402D02*
X98498Y41025D01*
X70720Y15402D02*
X98498Y43180D01*
X73594Y15402D02*
X98498Y40306D01*
X72629Y46118D02*
X98498Y20249D01*
X70474Y46118D02*
X98498Y18094D01*
X57788Y15402D02*
X88505Y46118D01*
X55633Y15402D02*
X86350Y46118D01*
X58382Y45279D02*
X88259Y15402D01*
X58382Y43124D02*
X86104Y15402D01*
X54915D02*
X85632Y46118D01*
X58382Y42405D02*
X85385Y15402D01*
X67846D02*
X98498Y46054D01*
X60416Y46118D02*
X91132Y15402D01*
X68565D02*
X98498Y45335D01*
X59944Y15402D02*
X90661Y46118D01*
X58382Y40250D02*
X83230Y15402D01*
X79352Y47741D02*
X79804Y48194D01*
X77499Y50498D02*
X79870Y48127D01*
X79588Y47846D02*
X79870Y48127D01*
X79045Y48153D02*
X79445Y48553D01*
X78776Y48422D02*
X79352Y47846D01*
X76812Y47683D02*
X77048Y47446D01*
X79588Y46694D02*
Y47846D01*
X79352Y46694D02*
Y47846D01*
X77048Y46694D02*
Y47669D01*
X76812Y46694D02*
Y47846D01*
Y47356D02*
X77048Y47593D01*
X76236Y48422D02*
X76812Y47846D01*
X69999Y52498D02*
X74580Y47917D01*
X74508Y47846D02*
X74580Y47917D01*
X73696Y48422D02*
X74272Y47846D01*
X69841Y52498D02*
X74508Y47831D01*
X73990Y48127D02*
X74180Y48317D01*
X76752Y50617D02*
X79588Y47780D01*
X75999Y48718D02*
X77048Y47669D01*
X74272Y47690D02*
X74540Y47958D01*
X74272Y46694D02*
Y47846D01*
X74508Y46694D02*
Y47846D01*
X79352Y47023D02*
X79588Y47259D01*
X79352Y47298D02*
X79588Y47061D01*
X76812Y46965D02*
X77048Y46728D01*
X76236Y46118D02*
X76812Y46694D01*
X74508D02*
X75084Y46118D01*
X76236D01*
X79588Y46694D02*
X80164Y46118D01*
X78776D02*
X79352Y46694D01*
X77624Y46118D02*
X78776D01*
X77048Y46728D02*
X77658Y46118D01*
X77048Y46694D02*
X77624Y46118D01*
X74272Y46972D02*
X74508Y47208D01*
X74272Y47349D02*
X74508Y47113D01*
X55241Y35488D02*
X75327Y15402D01*
X73696Y46118D02*
X74272Y46694D01*
X72544Y46118D02*
X73696D01*
X58114Y38362D02*
X81075Y15402D01*
X57755Y38003D02*
X80356Y15402D01*
X56678Y36925D02*
X78201Y15402D01*
X55600Y35847D02*
X76046Y15402D01*
X72544D02*
X73696D01*
X66602Y14876D02*
X98498Y46772D01*
X63895Y15042D02*
X98498Y49646D01*
X67600Y46118D02*
X98498Y15220D01*
X66243Y15235D02*
X98498Y47490D01*
X63536Y15402D02*
X98498Y50364D01*
X61424Y46547D02*
X92717Y15254D01*
X64112Y46733D02*
X98498Y12346D01*
X63772Y46354D02*
X98498Y11628D01*
X66119Y46162D02*
X98498Y13783D01*
X66479Y46521D02*
X98498Y14501D01*
X61547Y14850D02*
X92840Y46143D01*
X61188Y15209D02*
X92481Y46502D01*
X58481Y15376D02*
X89774Y46669D01*
X58717Y46380D02*
X90010Y15087D01*
X56134Y15184D02*
X87426Y46476D01*
X53427Y15351D02*
X84719Y46643D01*
X52759Y15402D02*
X83476Y46118D01*
X61065Y46188D02*
X92358Y14895D01*
X58841Y15017D02*
X90133Y46309D01*
X56492Y14823D02*
X87787Y46118D01*
X53786Y14991D02*
X85079Y46284D01*
X51412Y14772D02*
X82758Y46118D01*
X79058Y15119D02*
X98498Y34559D01*
X76352Y15286D02*
X98498Y37433D01*
X80778Y15402D02*
X98498Y33122D01*
X77904Y15402D02*
X98498Y35996D01*
X75749Y15402D02*
X98498Y38151D01*
X78623Y15402D02*
X98498Y35277D01*
X74272Y14643D02*
X98498Y38869D01*
X71656Y14901D02*
X98498Y41743D01*
X79352Y14694D02*
X98498Y33840D01*
X74004Y15093D02*
X98498Y39588D01*
X76711Y14927D02*
X98498Y36714D01*
X68950Y15068D02*
X98498Y44617D01*
X58382Y44560D02*
X87662Y15280D01*
X71297Y15260D02*
X98498Y42462D01*
X58382Y41687D02*
X84955Y15113D01*
X58382Y39532D02*
X82608Y15305D01*
X65445Y46118D02*
X98498Y13065D01*
X58382Y45997D02*
X89748Y14630D01*
X69192Y14592D02*
X98498Y43898D01*
X58382Y43842D02*
X87303Y14920D01*
X58382Y40968D02*
X84668Y14681D01*
X58382Y38813D02*
X82249Y14946D01*
X57396Y37644D02*
X79901Y15138D01*
X80164Y15402D02*
X81316D01*
X75084D02*
X76236D01*
X73696D02*
X74272Y14826D01*
X77624Y15402D02*
X78776D01*
X79352Y14826D01*
X77048D02*
X77624Y15402D01*
X79588Y14826D02*
X80164Y15402D01*
X74508Y14826D02*
X75084Y15402D01*
X76236D02*
X76812Y14826D01*
X50604Y15402D02*
X82128Y46926D01*
X48372Y15325D02*
X79665Y46618D01*
X49886Y15402D02*
X80603Y46118D01*
X56318Y36566D02*
X77553Y15331D01*
X47731Y15402D02*
X78447Y46118D01*
X54881Y35129D02*
X74847Y15164D01*
X51079Y15158D02*
X82372Y46451D01*
X48732Y14966D02*
X80024Y46258D01*
X57037Y37284D02*
X79588Y14733D01*
X55959Y36207D02*
X77194Y14972D01*
X54522Y34770D02*
X74508Y14784D01*
X81316Y15402D02*
X81892Y14826D01*
X79352Y14251D02*
X79588Y14014D01*
X79352Y13975D02*
X79588Y14212D01*
X79352Y13674D02*
Y14826D01*
X77048Y13674D02*
Y14826D01*
X76812Y13917D02*
X77048Y13681D01*
X79588Y13674D02*
X80164Y13098D01*
X79588Y13674D02*
Y14826D01*
X81316Y13098D02*
X81892Y13674D01*
X77048Y13681D02*
X77631Y13098D01*
X78776D02*
X79352Y13674D01*
X76812Y14309D02*
X77048Y14546D01*
X76812Y14636D02*
X77048Y14399D01*
X74272Y13924D02*
X74508Y14161D01*
X74272Y13674D02*
Y14826D01*
Y14302D02*
X74508Y14065D01*
X76162Y12941D02*
X77048Y13827D01*
X74468Y6218D02*
X82128Y13878D01*
X76236Y13098D02*
X76812Y13674D01*
X74508D02*
Y14826D01*
X76812Y13674D02*
Y14826D01*
X96102Y9891D02*
X98498Y12288D01*
X96102Y10609D02*
X98498Y13006D01*
X94698Y10777D02*
X96102D01*
X94698Y10643D02*
X94832Y10777D01*
X94698Y10026D02*
Y10777D01*
Y9374D02*
Y10026D01*
X96102Y10432D02*
X98498Y8036D01*
X96002Y8354D02*
X98498Y10851D01*
X96234Y7868D02*
X98498Y10133D01*
X96102Y9173D02*
X98498Y11569D01*
X96102Y8723D02*
Y10777D01*
X94016Y13098D02*
X94592Y13674D01*
X91737Y13360D02*
X94698Y10399D01*
X93436Y13098D02*
X95757Y10777D01*
X92944Y10731D02*
X94256D01*
X92864Y13098D02*
X94016D01*
X94444Y13527D02*
X98498Y9473D01*
X94085Y13168D02*
X98498Y8754D01*
X94256Y10123D02*
X94698Y9680D01*
X94256Y8769D02*
Y10731D01*
Y10200D02*
X94698Y10643D01*
X96002Y7902D02*
Y8723D01*
X94698Y7902D02*
Y8723D01*
X96002D02*
X96102D01*
X94698D02*
Y9374D01*
Y10026D01*
Y8723D02*
Y9374D01*
X96953Y7150D02*
X98498Y8696D01*
X96102Y9714D02*
X98498Y7317D01*
X97312Y6791D02*
X98498Y7977D01*
X96593Y7509D02*
X98498Y9414D01*
X96002Y7902D02*
X96201D01*
X94698Y9374D02*
Y10026D01*
X94256Y9482D02*
X94698Y9925D01*
X94256Y9405D02*
X94698Y8962D01*
X92944Y8769D02*
X94256D01*
X94112Y7902D02*
X94698Y8488D01*
X93394Y7902D02*
X94698Y9206D01*
X92799Y7902D02*
X94698D01*
X93454Y8769D02*
X94322Y7902D01*
X94173Y8769D02*
X94698Y8244D01*
X91476Y13098D02*
X92052Y13674D01*
X90562Y13098D02*
X92944Y10716D01*
X91280Y13098D02*
X93648Y10731D01*
X87784Y13098D02*
X88936D01*
X87208Y13674D02*
X87784Y13098D01*
X90324D02*
X91476D01*
X90886Y10423D02*
X93562Y13098D01*
X89030Y13193D02*
X92944Y9279D01*
X88407Y13098D02*
X93604Y7902D01*
X89390Y13552D02*
X92944Y9998D01*
X90200Y10456D02*
X92854Y13109D01*
X86252Y11536D02*
X87814Y13098D01*
X86252Y12254D02*
X87440Y13443D01*
X86252Y10817D02*
X88533Y13098D01*
X86252Y12973D02*
X86377Y13098D01*
X85248Y10751D02*
Y13098D01*
X86252D02*
X86396D01*
X86683Y13385D02*
X89880Y10188D01*
X86252Y13098D02*
X89794Y9555D01*
X86252Y12380D02*
X91765Y6867D01*
X86252Y10751D02*
Y13098D01*
Y10249D02*
Y10751D01*
X91206Y9397D02*
Y10103D01*
X90853Y10456D02*
X91206Y10103D01*
X90147Y9044D02*
X90853D01*
X92944Y8769D02*
Y10731D01*
X91206Y9581D02*
X92885Y7902D01*
X90938Y9130D02*
X92483Y7585D01*
X90853Y9044D02*
X91206Y9397D01*
X90305Y9044D02*
X92124Y7226D01*
X89794Y10050D02*
X90200Y10456D01*
X89794Y10103D02*
X90147Y10456D01*
X90853D01*
X86252Y10249D02*
Y10751D01*
X86001Y9998D02*
X86252Y10249D01*
X89794Y9397D02*
X90147Y9044D01*
X86001Y9998D02*
X86252Y10249D01*
X89794Y9397D02*
Y10103D01*
X97902Y5759D02*
X98498Y5162D01*
X97902Y5225D02*
X98498Y5822D01*
X97902Y4507D02*
X98498Y5104D01*
X97902Y5944D02*
X98498Y6540D01*
X97671Y6431D02*
X98498Y7259D01*
X97902Y5040D02*
X98498Y4444D01*
X97902Y4322D02*
X98435Y3789D01*
X97902Y3788D02*
X98497Y4384D01*
X97902Y3070D02*
X98385Y3553D01*
X97902Y2799D02*
Y6201D01*
Y3604D02*
X98287Y3218D01*
X96102Y8996D02*
X98498Y6599D01*
X96002Y8377D02*
X98498Y5880D01*
X96201Y7902D02*
X97902Y6201D01*
X87508Y4890D02*
X92944Y10326D01*
X84836Y5810D02*
X92494Y13468D01*
X91098Y6201D02*
X92799Y7902D01*
X85275Y502D02*
X93543Y8769D01*
X84803Y8800D02*
X93101Y502D01*
X84557D02*
X92944Y8889D01*
X87508Y5376D02*
X92383Y502D01*
X97902Y2885D02*
X98076Y2711D01*
X97585Y2483D02*
X97811Y2258D01*
X96734Y1184D02*
X97816Y2266D01*
X97226Y2124D02*
X97497Y1853D01*
X96867Y1765D02*
X97137Y1494D01*
X96508Y1405D02*
X96731Y1182D01*
X96201Y1098D02*
X97902Y2799D01*
X95930Y1098D02*
X97902Y3070D01*
X96096Y1098D02*
X96277Y918D01*
X95378Y1098D02*
X95768Y708D01*
X95447Y615D02*
X95930Y1098D01*
X94659D02*
X95195Y563D01*
X94616Y503D02*
X95212Y1098D01*
X92799D02*
X96201D01*
X91098Y2799D02*
X92799Y1098D01*
X93941D02*
X94538Y502D01*
X93223Y1098D02*
X93819Y502D01*
X93178D02*
X93775Y1098D01*
X93896Y502D02*
X94493Y1098D01*
X91741Y502D02*
X92569Y1329D01*
X92460Y502D02*
X93056Y1098D01*
X86252Y10943D02*
X91098Y6096D01*
X86252Y11662D02*
X91405Y6508D01*
X87149Y5968D02*
X90226Y9044D01*
X86681Y6218D02*
X89827Y9364D01*
X85963Y6218D02*
X89794Y10050D01*
X86899Y6218D02*
X87508Y5609D01*
X91098Y2799D02*
Y6201D01*
X86239Y10237D02*
X91098Y5378D01*
X85994Y502D02*
X91098Y5606D01*
X87508Y4391D02*
Y5609D01*
X84477Y6169D02*
X91406Y13098D01*
X84443Y8441D02*
X86666Y6218D01*
X85681D02*
X86899D01*
X85072Y5609D02*
X85681Y6218D01*
X85014Y5269D02*
X85072Y5327D01*
X85880Y9878D02*
X91098Y4659D01*
X85521Y9519D02*
X91098Y3941D01*
X85162Y9159D02*
X91098Y3223D01*
X85014Y4368D02*
Y5632D01*
X85072Y4391D02*
Y5609D01*
X87508Y4658D02*
X91664Y502D01*
X87431D02*
X91098Y4169D01*
X87282Y4165D02*
X90946Y502D01*
X86899Y3782D02*
X87508Y4391D01*
X86923Y3806D02*
X90227Y502D01*
X90304D02*
X91850Y2047D01*
X89586Y502D02*
X91491Y2407D01*
X91023Y502D02*
X92209Y1688D01*
X88149Y502D02*
X91098Y3451D01*
X88867Y502D02*
X91132Y2766D01*
X85072Y4391D02*
X85681Y3782D01*
X86899D01*
X85014Y4996D02*
X85072Y4939D01*
X85014Y4551D02*
X85072Y4609D01*
X86712Y502D02*
X91098Y4888D01*
X84969Y4323D02*
X88790Y502D01*
X86229Y3782D02*
X89509Y502D01*
X84382Y3736D02*
X85014Y4368D01*
X84610Y3964D02*
X88072Y502D01*
X83976Y13219D02*
X85248Y11946D01*
X83782Y11221D02*
X85248Y12688D01*
X83782Y10503D02*
X85248Y11969D01*
X84335Y13578D02*
X85248Y12665D01*
X83782Y11976D02*
X85128Y10630D01*
X83782Y11258D02*
X84769Y10271D01*
X84252Y7381D02*
X90147Y13276D01*
X84252Y8099D02*
X89788Y13635D01*
X84252Y6662D02*
X90688Y13098D01*
X83782Y9784D02*
X85248Y11251D01*
X83782Y10539D02*
X84409Y9912D01*
X83782Y11939D02*
X85092Y13250D01*
X83782Y12658D02*
X84733Y13609D01*
X83782Y12695D02*
X85248Y11228D01*
X82128Y13674D02*
X82704Y13098D01*
X81628Y13411D02*
X82778Y12261D01*
X81223Y13098D02*
X82778Y11543D01*
X83782Y10281D02*
Y13098D01*
X83499Y9002D02*
X85248Y10751D01*
X80959Y8462D02*
X82778Y10281D01*
X80504Y13098D02*
X82778Y10824D01*
Y10281D02*
Y13098D01*
X83782Y9821D02*
X84050Y9553D01*
X83531Y9528D02*
X83782Y9779D01*
X83531Y9528D02*
X83782Y9779D01*
Y10281D01*
Y9779D02*
Y10281D01*
X83443Y9441D02*
X83691Y9193D01*
X84252Y8249D02*
X86001Y9998D01*
X83248Y8751D02*
X83499Y9002D01*
X84252Y6264D02*
Y8249D01*
X83248D02*
Y8751D01*
Y8249D02*
Y8751D01*
X83084Y9082D02*
X83332Y8834D01*
X81712Y7709D02*
X83531Y9528D01*
X83248Y8751D02*
X83499Y9002D01*
X82725Y8722D02*
X83248Y8199D01*
X82366Y8363D02*
X83248Y7481D01*
X83135Y6264D02*
X83248Y6377D01*
X81712Y6277D02*
X83248Y7814D01*
X83118Y6264D02*
X83248D01*
X81712Y6996D02*
X83248Y8533D01*
X82006Y8004D02*
X83248Y6762D01*
X79281Y13603D02*
X82691Y10193D01*
X77624Y13098D02*
X78776D01*
X80164D02*
X81316D01*
X77048Y13674D02*
X77624Y13098D01*
X76162Y11911D02*
Y13098D01*
Y11504D02*
X77756Y13098D01*
X78922Y13244D02*
X82332Y9834D01*
X77631Y13098D02*
X81613Y9116D01*
X78349Y13098D02*
X81972Y9475D01*
X76574Y13437D02*
X81254Y8756D01*
X76194Y13098D02*
X80895Y8397D01*
X76162Y12222D02*
X77331Y13392D01*
X74226Y13629D02*
X75158Y12697D01*
X73867Y13270D02*
X75158Y11978D01*
X74508Y13674D02*
X75084Y13098D01*
X73696D02*
X74272Y13674D01*
X73622Y12556D02*
X74624Y13558D01*
X75158Y11911D02*
Y13098D01*
X72502Y6407D02*
X79679Y13584D01*
X72502Y7125D02*
X78475Y13098D01*
X73622Y11837D02*
X74983Y13199D01*
X73622Y12797D02*
X74833Y11585D01*
X80708Y8211D02*
X80959Y8462D01*
X80708Y8211D02*
X80959Y8462D01*
X80708Y7709D02*
Y8211D01*
X76162Y11409D02*
Y11911D01*
Y12412D02*
X80708Y7865D01*
X76162Y11409D02*
Y11911D01*
X80708Y6264D02*
Y7709D01*
X75945Y11192D02*
X80708Y6428D01*
X81712Y6264D02*
Y7709D01*
X76162Y11694D02*
X80708Y7147D01*
Y7709D02*
Y8211D01*
X75911Y11158D02*
X76162Y11409D01*
X73622Y12078D02*
X74474Y11226D01*
X75911Y11158D02*
X76162Y11409D01*
X73622Y11619D02*
Y12121D01*
X73492Y11490D02*
X74115Y10867D01*
X70002Y6781D02*
X75158Y11937D01*
X70002Y7499D02*
X75158Y12656D01*
X72502Y7749D02*
X75911Y11158D01*
X71749Y8502D02*
X75158Y11911D01*
X73133Y11130D02*
X73755Y10508D01*
X84252Y7196D02*
X85455Y5992D01*
X84252Y7914D02*
X85948Y6218D01*
X84252Y6264D02*
X84382D01*
X83248D02*
Y8249D01*
X82129Y5977D02*
X83248Y7096D01*
X81712Y6264D02*
X81842D01*
X84252Y6477D02*
X85096Y5633D01*
X83838Y502D02*
X92944Y9608D01*
X82486Y5615D02*
X83135Y6264D01*
X81712Y6862D02*
X82714Y5860D01*
X81842Y6264D02*
X82474Y5632D01*
X75758Y4634D02*
X82778Y11655D01*
X72344Y502D02*
X82778Y10936D01*
X81712Y7580D02*
X83073Y6219D01*
X75527Y5840D02*
X82778Y13092D01*
X75168Y6199D02*
X82386Y13417D01*
X75758Y5353D02*
X82778Y12373D01*
X74508Y9755D02*
X83762Y502D01*
X74149Y9396D02*
X83043Y502D01*
X73789Y9037D02*
X82325Y502D01*
X73430Y8678D02*
X81606Y502D01*
X73071Y8319D02*
X80888Y502D01*
X84382Y6264D02*
X85014Y5632D01*
X82486Y4368D02*
X83118Y3736D01*
X84382D01*
X82486Y5632D02*
X83118Y6264D01*
X82474Y4368D02*
Y5632D01*
X82486Y4368D02*
Y5632D01*
X83401Y3736D02*
X86635Y502D01*
X83120D02*
X86400Y3782D01*
X84119Y3736D02*
X87354Y502D01*
X82262Y4156D02*
X85917Y502D01*
X82402D02*
X85682Y3782D01*
X81842Y3736D02*
X82474Y4368D01*
X78810Y502D02*
X82581Y4273D01*
X79528Y502D02*
X82940Y3914D01*
X78091Y502D02*
X81325Y3736D01*
X80578D02*
X81842D01*
X81903Y3797D02*
X85198Y502D01*
X81683D02*
X85322Y4141D01*
X81246Y3736D02*
X84480Y502D01*
X80246D02*
X83481Y3736D01*
X80965Y502D02*
X84199Y3736D01*
X79946Y5632D02*
X80578Y6264D01*
X75585Y10833D02*
X80366Y6052D01*
X80578Y6264D02*
X80708D01*
X75226Y10474D02*
X80007Y5693D01*
X75149Y6218D02*
X75758Y5609D01*
Y4913D02*
X80169Y502D01*
X75217D02*
X79946Y5230D01*
X75936Y502D02*
X79946Y4512D01*
Y4368D02*
Y5632D01*
X75758Y4391D02*
Y5609D01*
X73214Y5682D02*
X80630Y13098D01*
X72855Y6041D02*
X80038Y13225D01*
X73931Y6218D02*
X75149D01*
X72712Y7959D02*
X74453Y6218D01*
X72502Y7451D02*
X73833Y6120D01*
X73322Y5609D02*
X73931Y6218D01*
X73781Y502D02*
X80708Y7429D01*
X73062Y502D02*
X80708Y8148D01*
X74499Y502D02*
X80708Y6711D01*
X74867Y10115D02*
X79946Y5036D01*
Y4368D02*
X80578Y3736D01*
X75149Y3782D02*
X75758Y4391D01*
X74015Y3782D02*
X77296Y502D01*
X73931Y3782D02*
X75149D01*
X76654Y502D02*
X80233Y4081D01*
X75660Y4293D02*
X79451Y502D01*
X77373D02*
X80607Y3736D01*
X75301Y3934D02*
X78733Y502D01*
X74734Y3782D02*
X78014Y502D01*
X73322Y4391D02*
X73931Y3782D01*
X73322Y4475D02*
X74015Y3782D01*
X70640Y4284D02*
X74422Y502D01*
X70188D02*
X73700Y4013D01*
X70281Y3925D02*
X73704Y502D01*
X72988Y4091D02*
X76577Y502D01*
X71906Y3736D02*
X75140Y502D01*
X72625Y3736D02*
X75859Y502D01*
X70907D02*
X74187Y3782D01*
X71625Y502D02*
X74906Y3782D01*
X68542Y48769D02*
X69447Y47864D01*
X68542Y49456D02*
X69790Y48208D01*
X69428Y47846D02*
X69790Y48208D01*
X68936Y48102D02*
X69416Y48582D01*
X66888Y47846D02*
X67464Y48422D01*
X68616D02*
X69192Y47846D01*
X71156Y48422D02*
X71732Y47846D01*
X69192Y47639D02*
X69775Y48222D01*
X69428Y46694D02*
Y47846D01*
X66888Y46694D02*
Y47846D01*
X69192Y46694D02*
Y47846D01*
X66588Y47909D02*
X67538Y48859D01*
X66002Y49154D02*
X67099Y48056D01*
X64348Y47846D02*
X64924Y48422D01*
X59258Y53023D02*
X64392Y47889D01*
X59258Y53742D02*
X64751Y48249D01*
X63881Y48076D02*
X64776Y48971D01*
X66015Y48422D02*
X66652Y47785D01*
X65889Y53748D02*
X71968Y47669D01*
X66652Y46694D02*
Y47846D01*
X64348Y47825D02*
X64945Y48422D01*
X66076D02*
X66652Y47846D01*
X71968Y46694D02*
Y47669D01*
X71732Y47305D02*
X71968Y47542D01*
X71732Y47016D02*
X71968Y46779D01*
X71732Y47734D02*
X71968Y47497D01*
X71732Y46694D02*
Y47846D01*
X69192Y46921D02*
X69428Y47157D01*
X71968Y46779D02*
X72629Y46118D01*
X71156D02*
X71732Y46694D01*
X71968D02*
X72544Y46118D01*
X69428Y46694D02*
X70004Y46118D01*
X71156D01*
X69192Y47400D02*
X69428Y47164D01*
X66652Y47254D02*
X66888Y47491D01*
X66652Y47067D02*
X66888Y46830D01*
X66652Y47785D02*
X66888Y47548D01*
X64112Y47588D02*
X64348Y47825D01*
Y46694D02*
X64924Y46118D01*
X68616D02*
X69192Y46694D01*
X66888D02*
X67464Y46118D01*
X68616D01*
X66076D02*
X66652Y46694D01*
X64924Y46118D02*
X66076D01*
X60986Y48422D02*
X61572Y47836D01*
X59979Y49498D02*
X61808Y47669D01*
X63536Y48422D02*
X64112Y47846D01*
X59268Y47774D02*
X59916Y48422D01*
X59268Y47846D02*
X59844Y48422D01*
X60996D02*
X61572Y47846D01*
X64348Y46694D02*
Y47846D01*
X64112Y46694D02*
Y47846D01*
X61572Y47836D02*
X61808Y47599D01*
X59268Y46694D02*
Y47846D01*
X61572Y46694D02*
Y47846D01*
X57754Y49498D02*
X59338Y47915D01*
X56479Y47858D02*
X58119Y49498D01*
X58827Y48051D02*
X60127Y49351D01*
X56120Y48217D02*
X57401Y49498D01*
X55916Y48422D02*
X56492Y47846D01*
X56728D02*
X57304Y48422D01*
X59032Y46694D02*
Y47846D01*
X58456Y48422D02*
X59032Y47846D01*
Y47537D02*
X59268Y47774D01*
X56492Y46694D02*
Y47846D01*
X56728Y46694D02*
Y47846D01*
X64112Y47451D02*
X64348Y47215D01*
X61808Y46694D02*
Y47669D01*
X64112Y46869D02*
X64348Y47106D01*
X61572Y47118D02*
X61808Y46881D01*
X61572Y47203D02*
X61808Y47440D01*
X59268Y46694D02*
X59844Y46118D01*
X63536D02*
X64112Y46694D01*
X61808D02*
X62384Y46118D01*
X63536D01*
X60996D02*
X61572Y46694D01*
X59844Y46118D02*
X60996D01*
X59032Y47502D02*
X59268Y47266D01*
X56492Y47169D02*
X56728Y46932D01*
X59032Y46818D02*
X59268Y47055D01*
X56492Y47152D02*
X56728Y47389D01*
X55916Y46118D02*
X56492Y46694D01*
X58456Y46118D02*
X59032Y46694D01*
X56370Y46572D02*
X57378Y45564D01*
X58382Y45450D02*
X59447Y46516D01*
X56728Y46694D02*
X57304Y46118D01*
X55842Y45784D02*
X56740Y46682D01*
X68616Y15402D02*
X69192Y14826D01*
X67464Y15402D02*
X68616D01*
X70004D02*
X71156D01*
X66076D02*
X66652Y14826D01*
X64924Y15402D02*
X66076D01*
X66888Y14826D02*
X67464Y15402D01*
X71156D02*
X71732Y14826D01*
X69428D02*
X70004Y15402D01*
X71968Y14826D02*
X72544Y15402D01*
X65988D02*
X66652Y14738D01*
X64348Y13674D02*
Y14826D01*
X58382Y39703D02*
X64861Y46182D01*
X58382Y40421D02*
X64502Y46541D01*
X58382Y38984D02*
X65516Y46118D01*
X58382Y41139D02*
X63361Y46118D01*
X58382Y41858D02*
X62642Y46118D01*
X62384Y15402D02*
X63536D01*
X64348Y14777D02*
X64973Y15402D01*
X64348Y14826D02*
X64924Y15402D01*
X64112Y13674D02*
Y14826D01*
X61808D02*
X62384Y15402D01*
X63536D02*
X64112Y14826D01*
X71732Y14258D02*
X71968Y14495D01*
X71732Y14687D02*
X71968Y14450D01*
X71732Y13968D02*
X71968Y13732D01*
X69192Y14353D02*
X69428Y14116D01*
X66888Y13674D02*
Y14826D01*
X69192Y13873D02*
X69428Y14110D01*
X71968Y13674D02*
Y14826D01*
X71732Y13674D02*
Y14826D01*
X71968Y13732D02*
X72602Y13098D01*
X69192Y13674D02*
Y14826D01*
X69428Y13674D02*
Y14826D01*
X66652Y14207D02*
X66888Y14444D01*
X66652Y14738D02*
X66888Y14501D01*
X64112Y13822D02*
X64348Y14059D01*
X64112Y14541D02*
X64348Y14777D01*
X64112Y14404D02*
X64348Y14167D01*
X66652Y14019D02*
X66888Y13783D01*
X64044Y5852D02*
X71968Y13776D01*
X63482Y10318D02*
X66888Y13725D01*
X66652Y13674D02*
Y14826D01*
X59032Y13737D02*
X62478Y10290D01*
X58382Y42576D02*
X62154Y46349D01*
X58382Y43295D02*
X61808Y46722D01*
X58382Y44013D02*
X60487Y46118D01*
X58382Y44732D02*
X59806Y46156D01*
X57378Y39131D02*
Y46118D01*
X58382Y39131D02*
Y46118D01*
Y38629D02*
Y39131D01*
X58131Y38378D02*
X58382Y38629D01*
X58131Y38378D02*
X58382Y38629D01*
Y39131D01*
X56728Y14826D02*
X57304Y15402D01*
X55842Y45664D02*
X57378Y44127D01*
X55842Y44347D02*
X57378Y45884D01*
X55842Y44945D02*
X57378Y43408D01*
X56010Y46213D02*
X57378Y44845D01*
X55842Y45065D02*
X57099Y46323D01*
X55842Y43091D02*
Y46118D01*
Y43508D02*
X57378Y41971D01*
X55842Y44227D02*
X57378Y42690D01*
X55916Y15402D02*
X56492Y14826D01*
X55842Y42589D02*
Y43091D01*
Y42589D02*
Y43091D01*
X61572Y14789D02*
X61808Y14552D01*
X60959Y15402D02*
X61572Y14789D01*
Y14156D02*
X61808Y14393D01*
X59844Y15402D02*
X60996D01*
X59268Y14826D02*
X59844Y15402D01*
X60996D02*
X61572Y14826D01*
X61808Y13674D02*
Y14826D01*
X61572Y13674D02*
Y14826D01*
Y14070D02*
X61808Y13834D01*
X59268Y13674D02*
Y14826D01*
X59032Y13771D02*
X59268Y14008D01*
X59032Y14489D02*
X59268Y14726D01*
X58456Y15402D02*
X59032Y14826D01*
Y14455D02*
X59268Y14218D01*
X57304Y15402D02*
X58456D01*
X56492Y14105D02*
X56728Y14342D01*
X59032Y13674D02*
Y14826D01*
X56728Y13674D02*
Y14826D01*
X58359Y13098D02*
X59032Y13771D01*
X56492Y13674D02*
Y14826D01*
Y14122D02*
X56728Y13885D01*
X54880Y49498D02*
X56728Y47650D01*
X53772Y48025D02*
X55246Y49498D01*
X55599D02*
X56990Y48107D01*
X54188Y47846D02*
X54764Y48422D01*
X53952Y47486D02*
X54188Y47723D01*
X53952Y47554D02*
X54188Y47317D01*
Y46694D02*
Y47846D01*
X53952Y46835D02*
X54838Y45948D01*
X54188Y46694D02*
X54764Y46118D01*
X53952Y46694D02*
Y47846D01*
Y46767D02*
X54188Y47004D01*
X53376Y48422D02*
X53952Y47846D01*
X52725Y49498D02*
X54283Y47940D01*
X53303Y46118D02*
X53952Y46767D01*
X51412Y47819D02*
X53091Y49498D01*
X51066Y48192D02*
X52372Y49498D01*
X51648Y46694D02*
X52224Y46118D01*
X53663Y46405D02*
X54838Y45230D01*
X53302Y45399D02*
X54393Y46490D01*
X53302Y44681D02*
X54752Y46131D01*
X53376Y46118D02*
X53952Y46694D01*
X51315Y46598D02*
X52298Y45615D01*
X54838Y43091D02*
Y46118D01*
X53302Y45330D02*
X54838Y43793D01*
X55842Y43628D02*
X57378Y45165D01*
X53302Y44549D02*
Y45051D01*
Y46048D02*
X54838Y44511D01*
X53302Y44549D02*
Y45051D01*
X55842Y42790D02*
X57378Y41253D01*
X55842Y42910D02*
X57378Y44447D01*
X55591Y42338D02*
X55842Y42589D01*
X53302Y44612D02*
X54830Y43083D01*
X55591Y42338D02*
X55842Y42589D01*
X53051Y44298D02*
X53302Y44549D01*
X53051Y44298D02*
X53302Y44549D01*
X52974Y44221D02*
X54471Y42724D01*
X52298Y45051D02*
Y46118D01*
X53302Y45051D02*
Y46118D01*
X52614Y43862D02*
X54112Y42364D01*
X52255Y43503D02*
X53753Y42005D01*
X51896Y43144D02*
X53394Y41646D01*
X51537Y42784D02*
X53034Y41287D01*
X51178Y42425D02*
X52675Y40928D01*
X51648Y47846D02*
X52224Y48422D01*
X50570Y49498D02*
X51935Y48133D01*
X51412Y47220D02*
X51648Y46983D01*
X50836Y48422D02*
X51412Y47846D01*
X49851Y49498D02*
X51648Y47701D01*
X51412Y47101D02*
X51648Y47338D01*
Y46694D02*
Y47846D01*
X50836Y46118D02*
X51412Y46694D01*
X50752Y45723D02*
X51686Y46657D01*
X51412Y46694D02*
Y47846D01*
X49108Y46694D02*
X49684Y46118D01*
X49108Y47846D02*
X49684Y48422D01*
X48718Y47999D02*
X50217Y49498D01*
X48872Y46716D02*
X49108Y46953D01*
X48872Y47435D02*
X49108Y47672D01*
X48296Y48422D02*
X48872Y47846D01*
Y47605D02*
X49108Y47368D01*
Y46694D02*
Y47846D01*
X48872Y46886D02*
X49748Y46009D01*
X48296Y46118D02*
X48872Y46694D01*
Y47846D01*
X48274Y46118D02*
X48872Y46716D01*
X50956Y46239D02*
X52221Y44974D01*
X50752Y45004D02*
X52045Y46298D01*
X50752Y46118D02*
X50836D01*
X50752Y44999D02*
Y45501D01*
Y46118D01*
Y44999D02*
Y45501D01*
Y45006D02*
X51503Y44255D01*
X50752Y45725D02*
X51862Y44614D01*
X50396Y44644D02*
X51144Y43896D01*
X50501Y44748D02*
X50752Y44999D01*
X50501Y44748D02*
X50752Y44999D01*
X50037Y44284D02*
X50784Y43537D01*
X49748Y45501D02*
Y46118D01*
X49678Y43925D02*
X50425Y43178D01*
X48608Y46431D02*
X49644Y45396D01*
X48203Y46118D02*
X49284Y45037D01*
X49318Y43566D02*
X50066Y42818D01*
X48959Y43207D02*
X49707Y42459D01*
X48600Y42847D02*
X49347Y42100D01*
X48241Y42488D02*
X48988Y41741D01*
X47881Y42129D02*
X48629Y41381D01*
X55583Y42330D02*
X57378Y40535D01*
X55224Y41971D02*
X57378Y39816D01*
X54864Y41612D02*
X57362Y39114D01*
X54505Y41253D02*
X57003Y38755D01*
X54146Y40894D02*
X56644Y38396D01*
X53787Y40534D02*
X56284Y38037D01*
X53428Y40175D02*
X55925Y37678D01*
X53068Y39816D02*
X55566Y37318D01*
X52249Y34002D02*
X57378Y39131D01*
X52709Y39457D02*
X55207Y36959D01*
X52350Y39097D02*
X54847Y36600D01*
X48370Y34002D02*
X57378Y43010D01*
X48329Y36582D02*
X54838Y43091D01*
X49082Y35829D02*
X55591Y42338D01*
X51991Y38738D02*
X54488Y36241D01*
X48076Y36582D02*
X54838Y43344D01*
X51631Y38379D02*
X54129Y35881D01*
X51244Y34002D02*
X57378Y40136D01*
X50525Y34002D02*
X57378Y40855D01*
X51962Y34002D02*
X57378Y39418D01*
X49088Y34002D02*
X57378Y42292D01*
X49807Y34002D02*
X57378Y41573D01*
X54163Y34411D02*
X73172Y15402D01*
X53804Y34051D02*
X72499Y15356D01*
X53445Y33692D02*
X72140Y14997D01*
X54188Y14826D02*
X54764Y15402D01*
X53376D02*
X53952Y14826D01*
X54764Y15402D02*
X55916D01*
X54188Y13674D02*
Y14826D01*
X53952Y13720D02*
X54188Y13957D01*
X53952Y13788D02*
X54838Y12901D01*
X53952Y14438D02*
X54188Y14675D01*
X53952Y14506D02*
X54188Y14269D01*
X53085Y33333D02*
X71017Y15402D01*
X50546Y32998D02*
X68143Y15402D01*
X52702Y32998D02*
X70298Y15402D01*
X53002Y33249D02*
X58131Y38378D01*
X48391Y32998D02*
X65988Y15402D01*
X51265Y32998D02*
X69433Y14830D01*
X49828Y32998D02*
X67444Y15382D01*
X51983Y32998D02*
X69792Y15189D01*
X49109Y32998D02*
X67085Y15023D01*
X53330Y13098D02*
X53952Y13720D01*
X50818Y42066D02*
X52316Y40568D01*
X50459Y41707D02*
X51957Y40209D01*
X51272Y38020D02*
X53770Y35522D01*
X50100Y41347D02*
X51597Y39850D01*
X49741Y40988D02*
X51238Y39491D01*
X49381Y40629D02*
X50879Y39131D01*
X50913Y37661D02*
X53411Y35163D01*
X50554Y37301D02*
X53051Y34804D01*
X50195Y36942D02*
X52692Y34445D01*
X49835Y36583D02*
X52333Y34085D01*
X49476Y36224D02*
X51698Y34002D01*
X49022Y40270D02*
X50520Y38772D01*
X48663Y39911D02*
X50161Y38413D01*
X48304Y39551D02*
X49801Y38054D01*
X48329Y35578D02*
X48831D01*
X47945Y39192D02*
X49442Y37695D01*
X48329Y35578D02*
X48831D01*
X49117Y35865D02*
X50980Y34002D01*
X47966Y35578D02*
X49543Y34002D01*
X48685Y35578D02*
X50262Y34002D01*
X48831Y35578D02*
X49082Y35829D01*
X48831Y35578D02*
X49082Y35829D01*
X52751Y32998D02*
X53002Y33249D01*
X52751Y32998D02*
X53002Y33249D01*
X52224Y15402D02*
X53376D01*
X52249Y32998D02*
X52751D01*
X52249D02*
X52751D01*
X51648Y14826D02*
X52224Y15402D01*
X53952Y13674D02*
Y14826D01*
X51648Y13674D02*
Y14826D01*
X51412Y14173D02*
X51648Y13936D01*
X51412Y13674D02*
Y14826D01*
Y14054D02*
X51648Y14290D01*
X49684Y15402D02*
X50836D01*
X49108Y14826D02*
X49684Y15402D01*
X50836D02*
X51412Y14826D01*
X48296Y15402D02*
X48872Y14826D01*
Y14387D02*
X49108Y14624D01*
Y13674D02*
Y14826D01*
X48222Y13019D02*
X49108Y13906D01*
X48872Y13839D02*
X49758Y12952D01*
X48872Y13674D02*
Y14826D01*
Y14557D02*
X49108Y14321D01*
X71968Y13674D02*
X72544Y13098D01*
X71519Y13462D02*
X72618Y12363D01*
Y12121D02*
Y13098D01*
X71156D02*
X71732Y13674D01*
X69428D02*
X70004Y13098D01*
X71156D01*
X73622Y11619D02*
Y12121D01*
Y13098D01*
X73371Y11368D02*
X73622Y11619D01*
X71160Y13103D02*
X72380Y11883D01*
X70446Y13098D02*
X72021Y11524D01*
X69172Y13654D02*
X71662Y11164D01*
X68813Y13295D02*
X71303Y10805D01*
X68291Y13098D02*
X70944Y10446D01*
X66465Y13488D02*
X70225Y9728D01*
X66106Y13128D02*
X69866Y9368D01*
X67573Y13098D02*
X70584Y10087D01*
X63685Y6211D02*
X70572Y13098D01*
X63482Y6726D02*
X69929Y13174D01*
X69249Y8752D02*
X72618Y12121D01*
X63482Y7445D02*
X69570Y13533D01*
X65417Y13098D02*
X69507Y9009D01*
X73371Y11368D02*
X73622Y11619D01*
X72774Y10771D02*
X73396Y10149D01*
X72414Y10412D02*
X73037Y9789D01*
X72055Y10053D02*
X72678Y9430D01*
X71696Y9694D02*
X72319Y9071D01*
X71498Y8251D02*
X71749Y8502D01*
X72502Y6264D02*
Y7749D01*
X71498Y6264D02*
Y7749D01*
X72502Y6264D02*
X72632D01*
X71498Y7749D02*
Y8251D01*
Y7749D02*
Y8251D01*
X71337Y9334D02*
X71959Y8712D01*
X70002Y7999D02*
X73371Y11368D01*
X71498Y8251D02*
X71749Y8502D01*
X70978Y8975D02*
X71600Y8353D01*
X70618Y8616D02*
X71498Y7736D01*
X70259Y8257D02*
X71498Y7017D01*
X70148Y6208D02*
X71498Y7559D01*
X70002Y7796D02*
X71498Y6299D01*
X71368Y6264D02*
X71498D01*
X70002D02*
Y7999D01*
Y6264D02*
X70092D01*
X66888Y13674D02*
X67464Y13098D01*
X66076D02*
X66652Y13674D01*
X68616Y13098D02*
X69192Y13674D01*
X64348D02*
X64924Y13098D01*
X63536D02*
X64112Y13674D01*
X64924Y13098D02*
X66076D01*
X64112Y13686D02*
X69147Y8650D01*
X63758Y13321D02*
X68998Y8081D01*
X63482Y11037D02*
X65543Y13098D01*
X63482Y11755D02*
X64874Y13148D01*
X63482Y6264D02*
Y13098D01*
X61808Y13674D02*
X62384Y13098D01*
X60996D02*
X61572Y13674D01*
X62384Y13098D02*
X62478D01*
X59268Y13674D02*
X59844Y13098D01*
X58456D02*
X59032Y13674D01*
X59844Y13098D02*
X60996D01*
X63482Y12474D02*
X64515Y13507D01*
X58704Y13346D02*
X62478Y9572D01*
X63482Y9600D02*
X67222Y13340D01*
X61411Y13513D02*
X62478Y12445D01*
X61051Y13154D02*
X62478Y11727D01*
X68998Y8501D02*
X69249Y8752D01*
X63482Y12160D02*
X68998Y6644D01*
Y8501D02*
X69249Y8752D01*
X68998Y7999D02*
Y8501D01*
X67464Y13098D02*
X68616D01*
X68998Y7999D02*
Y8501D01*
Y6264D02*
Y7999D01*
X63482Y11442D02*
X68744Y6180D01*
X68828Y6264D02*
X68998D01*
X63482Y6413D02*
X63631Y6264D01*
X63482D02*
X63632D01*
X63482Y8163D02*
X68417Y13098D01*
X63482Y8882D02*
X67698Y13098D01*
X63482Y12879D02*
X68998Y7362D01*
X60388Y13098D02*
X62478Y11008D01*
X58233Y13098D02*
X62478Y8853D01*
Y6264D02*
Y13098D01*
X60864Y6264D02*
X62478Y7878D01*
X62368Y6264D02*
X62478D01*
X60146D02*
X62478Y8597D01*
X59828Y6264D02*
X61092D01*
X72502Y6733D02*
X73474Y5761D01*
X70507Y5849D02*
X71498Y6840D01*
X70736Y5632D02*
X71368Y6264D01*
X70002Y7077D02*
X71091Y5988D01*
X68196Y5632D02*
X68828Y6264D01*
X70092D02*
X70724Y5632D01*
X72632Y6264D02*
X73264Y5632D01*
X70736Y4368D02*
Y5632D01*
X73264Y4368D02*
Y5632D01*
X70002Y6359D02*
X70736Y5625D01*
X70724Y4368D02*
Y5632D01*
X64264Y4635D02*
X72618Y12989D01*
X64264Y5354D02*
X72277Y13366D01*
X60849Y502D02*
X72618Y12271D01*
X63482Y10724D02*
X68385Y5821D01*
X61567Y502D02*
X68998Y7933D01*
X62286Y502D02*
X68998Y7214D01*
X63482Y7850D02*
X70830Y502D01*
X63482Y8568D02*
X71548Y502D01*
X63482Y7132D02*
X70112Y502D01*
X63004D02*
X68998Y6496D01*
X64264Y5631D02*
X69393Y502D01*
X73322Y4391D02*
Y5609D01*
X73264Y5014D02*
X73322Y5072D01*
X73264Y4533D02*
X73322Y4475D01*
X73264Y5252D02*
X73322Y5194D01*
X70092Y3736D02*
X70724Y4368D01*
X70736D02*
X71368Y3736D01*
X72632D02*
X73264Y4368D01*
X69470Y502D02*
X73341Y4372D01*
X69751Y3736D02*
X72985Y502D01*
X69033Y3736D02*
X72267Y502D01*
X71368Y3736D02*
X72632D01*
X68196Y4368D02*
X68828Y3736D01*
X64264Y4912D02*
X68675Y502D01*
X68828Y3736D02*
X70092D01*
X64441Y502D02*
X68252Y4312D01*
X65160Y502D02*
X68611Y3953D01*
X68033Y502D02*
X71318Y3786D01*
X67315Y502D02*
X70959Y4145D01*
X68752Y502D02*
X71986Y3736D01*
X65878Y502D02*
X69112Y3736D01*
X66596Y502D02*
X69831Y3736D01*
X63482Y9287D02*
X68196Y4573D01*
X63482Y10005D02*
X68196Y5291D01*
X63631Y6264D02*
X64264Y5631D01*
X61736Y5632D02*
X62368Y6264D01*
X61696Y5660D02*
X62478Y6442D01*
X63632Y6264D02*
X64264Y5632D01*
X68196Y4368D02*
Y5632D01*
X64264Y4368D02*
Y5632D01*
X63723Y502D02*
X68196Y4975D01*
X61724Y4368D02*
Y5632D01*
X61736Y4368D02*
Y5632D01*
X58955Y5792D02*
X62478Y9315D01*
X58596Y6151D02*
X62478Y10034D01*
X61337Y6019D02*
X62478Y7160D01*
X61092Y6264D02*
X61724Y5632D01*
X59196D02*
X59828Y6264D01*
X58529Y6218D02*
X59138Y5609D01*
X59196Y4368D02*
Y5632D01*
X59138Y5257D02*
X59196Y5314D01*
X59138Y5009D02*
X59196Y4951D01*
X59138Y4391D02*
Y5609D01*
X63632Y3736D02*
X64264Y4368D01*
X61111Y3755D02*
X64364Y502D01*
X60411Y3736D02*
X63646Y502D01*
X61736Y4368D02*
X62368Y3736D01*
X61092D02*
X61724Y4368D01*
X62368Y3736D02*
X63632D01*
X64177Y4281D02*
X67956Y502D01*
X63818Y3922D02*
X67238Y502D01*
X63285Y3736D02*
X66519Y502D01*
X61470Y4114D02*
X65083Y502D01*
X62567Y3736D02*
X65801Y502D01*
X59196Y4368D02*
X59828Y3736D01*
X59138Y4538D02*
X59196Y4596D01*
X59828Y3736D02*
X61092D01*
X58529Y3782D02*
X59138Y4391D01*
X59412Y502D02*
X62646Y3736D01*
X59088Y4341D02*
X62927Y502D01*
X60131D02*
X63365Y3736D01*
X58729Y3982D02*
X62209Y502D01*
X58694D02*
X62148Y3956D01*
X56728Y13674D02*
X57304Y13098D01*
X55842Y12018D02*
X57113Y13289D01*
X57304Y13098D02*
X58456D01*
X55916D02*
X56492Y13674D01*
X54188D02*
X54764Y13098D01*
X55842Y12736D02*
X56754Y13649D01*
X56356Y13539D02*
X62478Y7416D01*
X55842Y11299D02*
X57641Y13098D01*
X57515D02*
X62478Y8135D01*
X54838Y11341D02*
Y13098D01*
X55842Y11341D02*
Y13098D01*
X53376D02*
X53952Y13674D01*
X53302Y12352D02*
X54406Y13456D01*
X53649Y13372D02*
X54838Y12183D01*
X51648Y13674D02*
X52224Y13098D01*
X51302Y13564D02*
X52298Y12567D01*
X50762Y11967D02*
X52059Y13264D01*
X53302Y11633D02*
X54767Y13098D01*
X53302Y11551D02*
Y13098D01*
Y13001D02*
X54838Y11464D01*
X50942Y13205D02*
X52298Y11849D01*
Y11551D02*
Y13098D01*
X55842Y10839D02*
Y11341D01*
X53302Y12283D02*
X54541Y11043D01*
X55842Y10839D02*
Y11341D01*
X53302Y11049D02*
Y11551D01*
Y11049D02*
Y11551D01*
X53051Y10798D02*
X53302Y11049D01*
X55591Y10588D02*
X55842Y10839D01*
X53302Y11564D02*
X54182Y10684D01*
X55591Y10588D02*
X55842Y10839D01*
X53051Y10798D02*
X53302Y11049D01*
X53200Y10947D02*
X53822Y10325D01*
X52841Y10588D02*
X53463Y9966D01*
X52481Y10229D02*
X53104Y9606D01*
X52122Y9870D02*
X52745Y9247D01*
X50762Y11248D02*
X52298Y12785D01*
X50762Y12667D02*
X52088Y11341D01*
X51659Y8162D02*
X54838Y11341D01*
X49872Y7485D02*
X54838Y12452D01*
X49872Y7619D02*
X53051Y10798D01*
X49119Y8372D02*
X52298Y11551D01*
X51763Y9511D02*
X52386Y8888D01*
X50836Y13098D02*
X51412Y13674D01*
X50762Y12685D02*
X51699Y13623D01*
X50762Y11009D02*
Y11511D01*
X49758D02*
Y13098D01*
X49108Y13674D02*
X49684Y13098D01*
X50762Y11511D02*
Y13098D01*
Y11230D02*
X51370Y10622D01*
X50762Y11949D02*
X51729Y10981D01*
X50511Y10758D02*
X50762Y11009D01*
Y11511D01*
X50511Y10758D02*
X50762Y11009D01*
X48595Y13397D02*
X49758Y12234D01*
X48222Y11582D02*
X49738Y13098D01*
X48222Y13052D02*
X49758Y11515D01*
X48296Y13098D02*
X48872Y13674D01*
X48222Y12301D02*
X49352Y13431D01*
X48222Y11221D02*
Y13098D01*
Y12334D02*
X49401Y11154D01*
X48222Y10864D02*
X49758Y12401D01*
X48222Y11615D02*
X49042Y10795D01*
X48222Y10719D02*
Y11221D01*
Y10719D02*
Y11221D01*
X50513Y10761D02*
X51011Y10263D01*
X50154Y10401D02*
X50651Y9904D01*
X51404Y9151D02*
X52026Y8529D01*
X49795Y10042D02*
X50292Y9545D01*
X49435Y9683D02*
X49933Y9185D01*
X49076Y9324D02*
X49574Y8826D01*
X51408Y7911D02*
X51659Y8162D01*
X51045Y8792D02*
X51667Y8170D01*
X51408Y7911D02*
X51659Y8162D01*
X50685Y8433D02*
X51408Y7710D01*
Y7409D02*
Y7911D01*
X48222Y10897D02*
X48683Y10435D01*
X47951Y10449D02*
X48324Y10076D01*
X48717Y8965D02*
X49215Y8467D01*
X47971Y10468D02*
X48222Y10719D01*
X47971Y10468D02*
X48222Y10719D01*
X48868Y8121D02*
X49119Y8372D01*
X48868Y8121D02*
X49119Y8372D01*
X48868Y7619D02*
Y8121D01*
X48358Y8605D02*
X48868Y8095D01*
Y7619D02*
Y8121D01*
X55997Y13179D02*
X62478Y6698D01*
X55842Y12616D02*
X62281Y6177D01*
X57944Y6218D02*
X62478Y10752D01*
X55842Y11179D02*
X60757Y6264D01*
X55653Y10650D02*
X60039Y6264D01*
X54575Y9572D02*
X57929Y6218D01*
X55842Y11898D02*
X61922Y5818D01*
X55293Y10291D02*
X59574Y6010D01*
X54934Y9932D02*
X59215Y5651D01*
X54216Y9213D02*
X57261Y6168D01*
X53856Y8854D02*
X56902Y5809D01*
X53312Y5177D02*
X61808Y13674D01*
X52855Y6158D02*
X59820Y13123D01*
X53214Y5798D02*
X60514Y13098D01*
X52412Y7151D02*
X58359Y13098D01*
X52412Y6433D02*
X59461Y13482D01*
X53138Y8136D02*
X56702Y4572D01*
X50791Y502D02*
X62478Y12189D01*
X50073Y502D02*
X62478Y12907D01*
X51510Y502D02*
X62478Y11470D01*
X53312Y4459D02*
X62168Y13315D01*
X52779Y7776D02*
X60054Y502D01*
X57311Y6218D02*
X58529D01*
X56702Y4391D02*
Y5609D01*
X57311Y6218D01*
X56702Y4391D02*
X57311Y3782D01*
X57975Y502D02*
X61789Y4315D01*
X57492Y3782D02*
X60772Y502D01*
X58210Y3782D02*
X61490Y502D01*
X57311Y3782D02*
X58529D01*
X57257Y502D02*
X60491Y3736D01*
X52420Y7417D02*
X59335Y502D01*
X52412Y6707D02*
X58617Y502D01*
X53312Y5088D02*
X57898Y502D01*
X53312Y4370D02*
X57180Y502D01*
X52946D02*
X56769Y4324D01*
X55820Y502D02*
X59441Y4123D01*
X55102Y502D02*
X58382Y3782D01*
X56538Y502D02*
X59800Y3763D01*
X53665Y502D02*
X57128Y3965D01*
X54383Y502D02*
X57663Y3782D01*
X52412Y7409D02*
X55591Y10588D01*
X50148Y6324D02*
X51408Y7585D01*
X52412Y6402D02*
Y7409D01*
X51408D02*
Y7911D01*
X50326Y8074D02*
X51408Y6992D01*
Y6402D02*
Y7409D01*
X53497Y8495D02*
X56702Y5290D01*
X50507Y5965D02*
X51408Y6866D01*
X52611Y6402D02*
X53312Y5701D01*
X50071Y6402D02*
X50640Y5832D01*
X51209Y6402D01*
X49872Y6766D02*
X54838Y11733D01*
X48868Y6402D02*
Y7619D01*
X49872Y6402D02*
Y7619D01*
X48788Y6402D02*
X48868Y6482D01*
X47999Y8246D02*
X48868Y7376D01*
X48669Y6402D02*
X48868D01*
X49967Y7715D02*
X51280Y6402D01*
X49872Y7092D02*
X50885Y6078D01*
X49872Y6402D02*
X50071D01*
X47800Y6132D02*
X48868Y7200D01*
X48100Y5832D02*
X48669Y6402D01*
X53312Y4299D02*
Y5701D01*
X52611Y3598D02*
X53312Y4299D01*
X51209Y3598D02*
X52611D01*
X52412Y6402D02*
X52611D01*
X51209D02*
X51408D01*
X50640Y4168D02*
X51209Y3598D01*
X52988Y3975D02*
X56462Y502D01*
X52228D02*
X56702Y4976D01*
X52629Y3616D02*
X55743Y502D01*
X51209Y3598D02*
X54306Y502D01*
X51928Y3598D02*
X55025Y502D01*
X50071Y3598D02*
X50640Y4168D01*
X47933Y4001D02*
X51433Y502D01*
X47917D02*
X51112Y3696D01*
X48100Y4168D02*
X48669Y3598D01*
X50071D01*
X50281Y3809D02*
X53588Y502D01*
X49354D02*
X52451Y3598D01*
X49773D02*
X52869Y502D01*
X48636D02*
X51733Y3598D01*
X49054D02*
X52151Y502D01*
X47433Y78498D02*
X48885Y77047D01*
X46785Y75522D02*
X49762Y78498D01*
X47359Y75522D02*
X49588Y77751D01*
X46715Y78498D02*
X48525Y76688D01*
X45996Y78498D02*
X48166Y76329D01*
X46384Y75522D02*
X47359D01*
X45808Y73971D02*
Y74946D01*
X46384Y75522D01*
X45659Y73822D02*
X45808Y73971D01*
X45526Y74262D02*
X45808Y74545D01*
X45526Y73940D02*
X45644Y73822D01*
X45278Y78498D02*
X47807Y75969D01*
X44583Y75476D02*
X47606Y78498D01*
X45137Y75311D02*
X48325Y78498D01*
X43841D02*
X46818Y75522D01*
X43123Y78498D02*
X46242Y75379D01*
X44559Y78498D02*
X47448Y75610D01*
X42211Y73822D02*
X46888Y78498D01*
X41493Y73822D02*
X46169Y78498D01*
X45497Y74952D02*
X49043Y78498D01*
X42404D02*
X45883Y75020D01*
X45526Y74659D02*
X45808Y74376D01*
Y71254D02*
Y72406D01*
X45901Y72498D01*
X45808Y71254D02*
X46384Y70678D01*
X45530Y72498D02*
X45808Y72220D01*
X45526Y71785D02*
X45808Y71502D01*
X45526Y71389D02*
X45808Y71672D01*
X47350Y70678D02*
X50248Y67780D01*
X46632Y70678D02*
X50248Y67062D01*
X46665Y61752D02*
X50330Y65417D01*
X47536Y70678D02*
X48112Y71254D01*
X46384Y70678D02*
X47536D01*
X45420Y71172D02*
X50248Y66344D01*
X45410Y72498D02*
X45901D01*
X45061Y70813D02*
X50248Y65625D01*
X45526Y72107D02*
X45808Y72390D01*
X45526Y73822D02*
X45659D01*
X44973Y70724D02*
X45526Y71277D01*
X45228Y61752D02*
X50248Y66772D01*
X41938Y72498D02*
X52685Y61752D01*
X35871D02*
X53996D01*
X35473Y72498D02*
X46219Y61752D01*
X37628Y72498D02*
X48375Y61752D01*
X41686Y78498D02*
X44708Y75476D01*
X40967Y78498D02*
X43990Y75476D01*
X43867D02*
X44973D01*
X40249Y78498D02*
X43569Y75178D01*
X39530Y78498D02*
X43314Y74714D01*
Y74923D02*
X43867Y75476D01*
X40056Y73822D02*
X44733Y78498D01*
X39337Y73822D02*
X44014Y78498D01*
X40774Y73822D02*
X45451Y78498D01*
X38619Y73822D02*
X43296Y78498D01*
X38812D02*
X43314Y73996D01*
X35938Y78498D02*
X40615Y73822D01*
X35745D02*
X40422Y78498D01*
X36464Y73822D02*
X41140Y78498D01*
X35027Y73822D02*
X39704Y78498D01*
X34501D02*
X39178Y73822D01*
X35220Y78498D02*
X39897Y73822D01*
X37901D02*
X42577Y78498D01*
X37375D02*
X42052Y73822D01*
X38094Y78498D02*
X42770Y73822D01*
X36657Y78498D02*
X41334Y73822D01*
X37182D02*
X41859Y78498D01*
X45526Y73822D02*
Y74923D01*
X44973Y75476D02*
X45526Y74923D01*
X45410Y72498D02*
X45526Y72383D01*
X43314Y71277D02*
Y72383D01*
X45526Y71277D02*
Y72383D01*
X43867Y70724D02*
X44973D01*
X43314Y71277D02*
X43867Y70724D01*
X43314Y72383D02*
X43430Y72498D01*
X42657D02*
X43314Y71841D01*
X34443Y63180D02*
X43314Y72051D01*
Y73822D02*
Y74923D01*
X42929Y73822D02*
X43314Y74207D01*
X35520Y62102D02*
X44143Y70724D01*
X34754Y72498D02*
X45501Y61752D01*
X35888D02*
X44861Y70724D01*
X34802Y62820D02*
X43314Y71333D01*
X35161Y62461D02*
X43646Y70946D01*
X44431Y70724D02*
X53404Y61752D01*
X41220Y72498D02*
X51967Y61752D01*
X43791D02*
X50248Y68209D01*
X42354Y61752D02*
X50248Y69646D01*
X41636Y61752D02*
X50248Y70364D01*
X43073Y61752D02*
X50248Y68927D01*
X45946Y61752D02*
X50248Y66054D01*
X44509Y61752D02*
X50248Y67491D01*
X47383Y61752D02*
X50690Y65058D01*
X43912Y59748D02*
X47159Y56502D01*
X44288D02*
X47535Y59748D01*
X39065Y72498D02*
X49811Y61752D01*
X38346Y72498D02*
X49093Y61752D01*
X38762D02*
X48348Y71338D01*
X36909Y72498D02*
X47656Y61752D01*
X36191Y72498D02*
X46938Y61752D01*
X38044D02*
X46971Y70678D01*
X40501Y72498D02*
X51248Y61752D01*
X39783Y72498D02*
X50530Y61752D01*
X40917D02*
X49844Y70678D01*
X39481Y61752D02*
X48666Y70937D01*
X40199Y61752D02*
X49126Y70678D01*
X47162Y56502D02*
X50409Y59748D01*
X46786D02*
X50033Y56502D01*
X47504Y59748D02*
X50751Y56502D01*
X47284Y54468D02*
X48314Y55498D01*
X46565Y54468D02*
X47596Y55498D01*
X47681Y54146D02*
X49033Y55498D01*
X47444D02*
X52440Y50502D01*
X47310Y50902D02*
X51906Y55498D01*
X47669Y50543D02*
X52625Y55498D01*
X46951Y51261D02*
X51188Y55498D01*
X46725D02*
X51722Y50502D01*
X45349Y59748D02*
X48596Y56502D01*
X34501Y59748D02*
X56749D01*
X44671Y56502D02*
X58249D01*
X44630Y59748D02*
X47877Y56502D01*
X45007D02*
X48254Y59748D01*
X46444Y56502D02*
X49690Y59748D01*
X46067D02*
X49314Y56502D01*
X44671Y55498D02*
X58249D01*
X45725Y56502D02*
X48972Y59748D01*
X46007Y55498D02*
X47037Y54468D01*
X41038Y59748D02*
X44285Y56502D01*
X40320Y59748D02*
X43868Y56200D01*
X41757Y59748D02*
X45004Y56502D01*
X38509Y55752D02*
X42506Y59748D01*
X37791Y55752D02*
X41788Y59748D01*
X39601D02*
X43509Y55841D01*
X39934Y55739D02*
X43943Y59748D01*
X39228Y55752D02*
X43225Y59748D01*
X40293Y55380D02*
X44662Y59748D01*
X38165D02*
X42790Y55123D01*
X38883Y59748D02*
X43150Y55482D01*
X37325Y61752D02*
X46318Y70744D01*
X36607Y61752D02*
X45959Y71104D01*
X35636Y55752D02*
X39633Y59748D01*
X34917Y55752D02*
X38914Y59748D01*
X34573D02*
X38569Y55752D01*
X35291Y59748D02*
X39288Y55752D01*
X36728Y59748D02*
X41962Y54514D01*
X36009Y59748D02*
X41244Y54514D01*
X37446Y59748D02*
X42431Y54764D01*
X36354Y55752D02*
X40351Y59748D01*
X37073Y55752D02*
X41069Y59748D01*
X44169Y56502D02*
X44671D01*
X43194Y59748D02*
X46440Y56502D01*
X43687Y54514D02*
X44671Y55498D01*
X43918Y56251D02*
X44169Y56502D01*
X43918Y56251D02*
X44169Y56502D01*
X44671D01*
X45288Y55498D02*
X46319Y54468D01*
X45008Y54348D02*
X46159Y55498D01*
X45368Y53989D02*
X46877Y55498D01*
X43738Y54514D02*
X44722Y55498D01*
X44456Y54514D02*
X45440Y55498D01*
X42475Y59748D02*
X45722Y56502D01*
X39921Y55752D02*
X40172Y55501D01*
X39921Y55752D02*
X40172Y55501D01*
X39419Y55752D02*
X39921D01*
X39419D02*
X39921D01*
X41011Y54661D02*
X46098Y59748D01*
X40652Y55020D02*
X45380Y59748D01*
X41583Y54514D02*
X46817Y59748D01*
X42182Y54514D02*
X43918Y56251D01*
X40172Y55501D02*
X41158Y54514D01*
X32153Y73822D02*
X36830Y78498D01*
X31628D02*
X36305Y73822D01*
X32346Y78498D02*
X37023Y73822D01*
X31199Y74304D02*
X35393Y78498D01*
X30909D02*
X35586Y73822D01*
X31558Y73945D02*
X36112Y78498D01*
X33783D02*
X38460Y73822D01*
X33590D02*
X38267Y78498D01*
X34308Y73822D02*
X38985Y78498D01*
X32872Y73822D02*
X37548Y78498D01*
X33065D02*
X37741Y73822D01*
X30839Y74663D02*
X34675Y78498D01*
X30480Y75022D02*
X33956Y78498D01*
X4496D02*
X94505D01*
X29762Y75741D02*
X32519Y78498D01*
X29403Y76100D02*
X31801Y78498D01*
X30121Y75381D02*
X33238Y78498D01*
X29473D02*
X34149Y73822D01*
X28754Y78498D02*
X33431Y73822D01*
X30191Y78498D02*
X34868Y73822D01*
X27317Y78498D02*
X31994Y73822D01*
X28036Y78498D02*
X32713Y73822D01*
X32288Y65335D02*
X39451Y72498D01*
X31681Y73822D02*
X43314D01*
X32647Y64976D02*
X40169Y72498D01*
X31569Y66053D02*
X38014Y72498D01*
X31210Y66413D02*
X37296Y72498D01*
X31928Y65694D02*
X38733Y72498D01*
X34084Y63539D02*
X43043Y72498D01*
X33724Y63898D02*
X42325Y72498D01*
X32599D02*
X43346Y61752D01*
X33006Y64616D02*
X40888Y72498D01*
X33365Y64257D02*
X41606Y72498D01*
X29414Y68209D02*
X33704Y72498D01*
X29055Y68568D02*
X32985Y72498D01*
X28639D02*
X43430D01*
X29002Y76501D02*
X31681Y73822D01*
X28336Y69286D02*
X31548Y72498D01*
X28695Y68927D02*
X32267Y72498D01*
X30851Y66772D02*
X36577Y72498D01*
X30491Y67131D02*
X35859Y72498D01*
X26192Y71431D02*
X35871Y61752D01*
X29773Y67849D02*
X34422Y72498D01*
X30132Y67490D02*
X35140Y72498D01*
X28617Y76752D02*
X30364Y78498D01*
X27899Y76752D02*
X29646Y78498D01*
X28751Y76752D02*
X29002Y76501D01*
X28249Y76752D02*
X28751D01*
X28249D02*
X28751D01*
X29002Y76501D01*
X29043Y76459D02*
X31083Y78498D01*
X28732Y71837D02*
X29393Y72498D01*
X27977Y69645D02*
X30830Y72498D01*
X28639D02*
X28732Y72406D01*
Y71254D02*
Y72406D01*
X26462Y76752D02*
X28209Y78498D01*
X25880D02*
X27627Y76752D01*
X22091D02*
X28249D01*
X25162Y78498D02*
X26909Y76752D01*
X25025D02*
X26772Y78498D01*
X25744Y76752D02*
X27490Y78498D01*
X27181Y76752D02*
X28927Y78498D01*
X26599D02*
X28346Y76752D01*
X27618Y70005D02*
X30112Y72498D01*
X26428Y72406D02*
X26635Y72613D01*
X18526Y71485D02*
X27198Y62813D01*
X28156Y70678D02*
X28732Y71254D01*
X27422Y62625D02*
X29272Y64475D01*
X27476Y61960D02*
X29632Y64116D01*
X27259Y70364D02*
X27573Y70678D01*
X28756Y61803D02*
X30350Y63397D01*
X28190Y61956D02*
X29991Y63757D01*
X27897Y61956D02*
X28603D01*
X27453Y62558D02*
X28055Y61956D01*
X27476Y61940D02*
Y62420D01*
X27004Y70678D02*
X28156D01*
X24041Y62836D02*
X27476Y66271D01*
X24760Y62836D02*
X27836Y65912D01*
X26428Y71254D02*
X27004Y70678D01*
X22604Y62836D02*
X26758Y66990D01*
X26197Y62836D02*
X28554Y65194D01*
X25355Y62713D02*
X28195Y65553D01*
X26915Y62836D02*
X28913Y64834D01*
X23268Y62781D02*
X27117Y66630D01*
X25930Y62836D02*
X27060D01*
X29725Y72498D02*
X40472Y61752D01*
X29007Y72498D02*
X39754Y61752D01*
X30444Y72498D02*
X41190Y61752D01*
X28732Y71337D02*
X38317Y61752D01*
X28732Y72055D02*
X39035Y61752D01*
X28414Y70936D02*
X37598Y61752D01*
X33317Y72498D02*
X44064Y61752D01*
X31880Y72498D02*
X42627Y61752D01*
X34036Y72498D02*
X44783Y61752D01*
X31162Y72498D02*
X41909Y61752D01*
X28956Y61055D02*
X34259Y55752D01*
X27235Y70678D02*
X36162Y61752D01*
X20652Y70795D02*
X35696Y55752D01*
X27953Y70678D02*
X36880Y61752D01*
X23499Y70248D02*
X33748Y59999D01*
X20051Y70678D02*
X34977Y55752D01*
X27002Y56457D02*
X32146Y61601D01*
X22206Y70678D02*
X37133Y55752D01*
X21012Y71154D02*
X36414Y55752D01*
X22924Y70678D02*
X37851Y55752D01*
X27002Y55738D02*
X32505Y61242D01*
X27002Y55020D02*
X32865Y60883D01*
X33999Y59748D02*
X34501D01*
X33748Y59999D02*
X33999Y59748D01*
X34501D01*
X33748Y59999D02*
X33999Y59748D01*
X31999Y55752D02*
X32501D01*
X31999D02*
X32501D01*
X34199D02*
X38196Y59748D01*
X33481Y55752D02*
X37477Y59748D01*
X32501Y55752D02*
X39419D01*
X32044D02*
X36041Y59748D01*
X32762Y55752D02*
X36759Y59748D01*
X28675Y60617D02*
X33540Y55752D01*
X28029Y60544D02*
X32822Y55752D01*
X27522Y60333D02*
X32104Y55752D01*
X31748Y55501D02*
X31999Y55752D01*
X31748Y55501D02*
X31999Y55752D01*
X27030Y52175D02*
X34604Y59748D01*
X27002Y52865D02*
X33942Y59805D01*
X30088Y54514D02*
X35322Y59748D01*
X27002Y54302D02*
X33224Y60524D01*
X27002Y53583D02*
X33583Y60165D01*
X28956Y61285D02*
X30709Y63038D01*
X28603Y61956D02*
X28956Y61603D01*
X27544D02*
X27897Y61956D01*
X27461Y61831D02*
X27617Y61675D01*
X28956Y60897D02*
Y61603D01*
X27544Y60897D02*
Y61603D01*
Y60897D02*
X27897Y60544D01*
X27267Y61033D02*
X27544Y61310D01*
X25930Y61082D02*
X27060D01*
X26598D02*
X27041Y61525D01*
X26330D02*
X26773Y61082D01*
X25930Y61525D02*
X27060D01*
X27252Y58144D02*
X31428Y62320D01*
X27252Y58862D02*
X31069Y62679D01*
X27252Y57425D02*
X31787Y61961D01*
X27049Y61525D02*
X27544Y61029D01*
X28603Y60544D02*
X28956Y60897D01*
X27522Y60569D02*
X27697Y60744D01*
X27897Y60544D02*
X28603D01*
X27522Y60140D02*
Y60620D01*
X27252Y58198D02*
Y58302D01*
Y58198D02*
Y58302D01*
X27353Y59784D02*
X31692Y55445D01*
X27252Y57730D02*
X30467Y54514D01*
X30762D02*
X31748Y55501D01*
X27252Y56848D02*
Y58198D01*
Y57012D02*
X29749Y54514D01*
X27252Y59581D02*
X28215Y60544D01*
X27002Y56848D02*
X27252D01*
X26997Y59652D02*
X27252D01*
Y58302D02*
Y59652D01*
Y58448D02*
X30974Y54726D01*
X27252Y59167D02*
X31333Y55085D01*
X27002Y56543D02*
X29324Y54220D01*
X27002Y52203D02*
Y56848D01*
Y55825D02*
X28986Y53840D01*
X47359Y54468D02*
X47968Y53859D01*
X46141Y54468D02*
X47359D01*
X45532Y52681D02*
Y53859D01*
X47359Y52032D02*
X47968Y52641D01*
X47698Y52371D02*
X49567Y50502D01*
X45532Y52681D02*
X46181Y52032D01*
X45532Y52641D02*
X46141Y52032D01*
X44836Y54514D02*
X45474Y53876D01*
X44620Y55448D02*
X45871Y54198D01*
X45532Y53859D02*
X46141Y54468D01*
X44261Y55089D02*
X44836Y54514D01*
X43687D02*
X44842D01*
X45474Y53882D01*
Y53157D02*
X45532Y53100D01*
X45474Y53377D02*
X45532Y53435D01*
X45474Y52738D02*
X45532Y52681D01*
X45474Y52738D02*
Y53882D01*
Y53876D02*
X45532Y53818D01*
X47318Y52032D02*
X48848Y50502D01*
X46600Y52032D02*
X48130Y50502D01*
X47711D02*
X59979D01*
X46592Y51621D02*
X47003Y52032D01*
X46181D02*
X47711Y50502D01*
X46958Y49749D02*
X47209Y49498D01*
X47711D01*
X47209D02*
X47711D01*
X59979D01*
X46189Y49063D02*
X46917Y49791D01*
X46958Y49749D02*
X47209Y49498D01*
X46181Y52032D02*
X47359D01*
X43597Y50782D02*
X44762Y51946D01*
X44316Y50782D02*
X45121Y51587D01*
X44471Y50782D02*
X44722Y50531D01*
X43698Y51986D02*
X44722D01*
X44471Y50782D02*
X44722Y50531D01*
X45471Y49781D02*
X46199Y50509D01*
X44722Y51986D02*
X46958Y49749D01*
X45830Y49422D02*
X46558Y50150D01*
X44753Y50500D02*
X45480Y51227D01*
X45112Y50141D02*
X45839Y50868D01*
X43902Y54730D02*
X44117Y54514D01*
X42962Y51249D02*
X43698Y51986D01*
X42711Y50998D02*
X42962Y51249D01*
X41158Y54514D02*
X42182D01*
X40406Y52618D02*
X41022Y52002D01*
X40507D02*
X40765Y52259D01*
X43376Y51664D02*
X44258Y50782D01*
X42879D02*
X44083Y51986D01*
X43017Y51304D02*
X43539Y50782D01*
X42711Y50998D02*
X42962Y51249D01*
X40449Y50998D02*
X40666Y50782D01*
X39419Y54748D02*
X40406Y53762D01*
X38854Y54748D02*
X40406Y53197D01*
Y52618D02*
Y53762D01*
X37417Y54748D02*
X40164Y52002D01*
X36915D02*
X39540Y54627D01*
X37633Y52002D02*
X39900Y54268D01*
X39070Y52002D02*
X40406Y53337D01*
X38136Y54748D02*
X40883Y52002D01*
X39788D02*
X40406Y52619D01*
X38352Y52002D02*
X40259Y53909D01*
X39012Y50998D02*
X39229Y50782D01*
X42209Y50998D02*
X42711D01*
X42161Y50782D02*
X42377Y50998D01*
X42209D02*
X42711D01*
X41442Y50782D02*
X41659Y50998D01*
X41167D02*
X41384Y50782D01*
X41886Y50998D02*
X42103Y50782D01*
X43969D02*
X44471D01*
X42604Y50998D02*
X42821Y50782D01*
X43969D02*
X44471D01*
X41380Y49283D02*
X41556Y49458D01*
X41204D02*
X42239D01*
X38294Y50998D02*
X38510Y50782D01*
X37850D02*
X38067Y50998D01*
X38568Y50782D02*
X38785Y50998D01*
X37132Y50782D02*
X37348Y50998D01*
X37575D02*
X37792Y50782D01*
X40724D02*
X40940Y50998D01*
X40005Y50782D02*
X40222Y50998D01*
X38984Y49138D02*
X40019D01*
X39287Y50782D02*
X39504Y50998D01*
X39731D02*
X39947Y50782D01*
X47703Y48422D02*
X48780Y49498D01*
X47696D02*
X49229Y47966D01*
X47144Y48422D02*
X48296D01*
X46908Y48345D02*
X48062Y49498D01*
X46549Y48704D02*
X47343Y49498D01*
X46987Y48265D02*
X47144Y48422D01*
X46480Y47268D02*
X46568Y47179D01*
X46332Y47271D02*
X46568Y47034D01*
Y46694D02*
Y47179D01*
X46480Y47268D02*
X46568Y47179D01*
X46332Y47050D02*
X46515Y47233D01*
X44490Y51986D02*
X48055Y48422D01*
X43772Y51986D02*
X47336Y48422D01*
X44722Y50531D02*
X46987Y48265D01*
X43792Y47656D02*
X44028Y47419D01*
X42239Y49458D02*
X44028Y47669D01*
X43792Y47384D02*
X44028Y47621D01*
X46332Y46694D02*
Y47416D01*
X44028Y46694D02*
Y47669D01*
X46332Y47416D02*
X46480Y47268D01*
X43792Y46694D02*
Y47846D01*
Y46937D02*
X44028Y46701D01*
X47144Y46118D02*
X48296D01*
X46261Y46623D02*
X48566Y44318D01*
X47484Y46118D02*
X48925Y44678D01*
X46568Y46694D02*
X47144Y46118D01*
X45756D02*
X46332Y46694D01*
X44604Y46118D02*
X45756D01*
X45902Y46264D02*
X48207Y43959D01*
X45254Y41662D02*
X49711Y46118D01*
X45909Y41662D02*
X49748Y45501D01*
X44611Y46118D02*
X47488Y43241D01*
X45329Y46118D02*
X47847Y43600D01*
X43554Y46457D02*
X47129Y42881D01*
X42455Y46118D02*
X46411Y42163D01*
X43174Y46118D02*
X46770Y42522D01*
X44028Y46701D02*
X44611Y46118D01*
X44028Y46694D02*
X44604Y46118D01*
X41662Y41662D02*
X46631Y46631D01*
X41206Y46649D02*
X46051Y41804D01*
X41662Y41662D02*
X46631Y46631D01*
X40847Y46290D02*
X45475Y41662D01*
X40943D02*
X45400Y46118D01*
X41739Y48923D02*
X42257Y49441D01*
X41271Y49458D02*
X42307Y48422D01*
X42098Y48564D02*
X42616Y49082D01*
X41204Y49458D02*
X42241Y48422D01*
X39801D02*
X40268Y48889D01*
X40519Y48422D02*
X40627Y48530D01*
X42674Y48422D02*
X42975Y48722D01*
X41989Y49458D02*
X43026Y48422D01*
X42241D02*
X43216D01*
X40019Y49138D02*
X41488Y47669D01*
X40676Y48422D02*
X41252Y47846D01*
X39391Y48731D02*
X39799Y49138D01*
X37600Y48818D02*
X37997Y48422D01*
X37161D02*
X38136D01*
X37044Y48539D02*
X37324Y48818D01*
X36882D02*
X37278Y48422D01*
X37645D02*
X37921Y48697D01*
X39435Y49138D02*
X40152Y48422D01*
X38984Y49138D02*
X39701Y48422D01*
X40676D01*
X37799Y48818D02*
X38948Y47669D01*
X38136Y48422D02*
X38712Y47846D01*
X43216Y48422D02*
X43792Y47846D01*
X41488Y46694D02*
Y47669D01*
X41252Y46999D02*
X41488Y47236D01*
X41252Y47717D02*
X41346Y47812D01*
X41252Y46694D02*
Y47846D01*
Y47322D02*
X41488Y47085D01*
X43216Y46118D02*
X43792Y46694D01*
X41488D02*
X42064Y46118D01*
X43216D01*
X40676D02*
X41252Y46694D01*
X39524Y46118D02*
X40676D01*
X38948Y46694D02*
Y47669D01*
X38712Y47333D02*
X38948Y47569D01*
X38712Y46988D02*
X38948Y46752D01*
X38712Y46694D02*
Y47846D01*
Y47707D02*
X38948Y47470D01*
Y46694D02*
X39524Y46118D01*
X38948Y46752D02*
X39582Y46118D01*
X38069Y41662D02*
X42526Y46118D01*
X38136D02*
X38712Y46694D01*
X36984Y46118D02*
X38136D01*
X36548Y53790D02*
X37506Y54748D01*
X36223Y54184D02*
X36788Y54748D01*
X36548Y53072D02*
X38225Y54748D01*
X36548Y52641D02*
Y53859D01*
X35939Y54468D02*
X36548Y53859D01*
X36196Y52002D02*
X38943Y54748D01*
X35981D02*
X38727Y52002D01*
X36699Y54748D02*
X39446Y52002D01*
X36548Y53462D02*
X38009Y52002D01*
X36548Y52744D02*
X37290Y52002D01*
X35789Y54468D02*
X36069Y54748D01*
X32501D02*
X39419D01*
X34721Y54468D02*
X35939D01*
X35071D02*
X35351Y54748D01*
X34544D02*
X34824Y54468D01*
X35262Y54748D02*
X35542Y54468D01*
X34112Y53859D02*
X34721Y54468D01*
X33825Y54748D02*
X34413Y54160D01*
X33910Y54026D02*
X34633Y54748D01*
X36240Y52333D02*
X36572Y52002D01*
X34791D02*
X41022D01*
X34791Y50998D02*
X42209D01*
X35939Y52032D02*
X36548Y52641D01*
X34761Y52032D02*
X35939D01*
X34976Y50782D02*
X35193Y50998D01*
X36413Y50782D02*
X36630Y50998D01*
X36138D02*
X36355Y50782D01*
X36857Y50998D02*
X37074Y50782D01*
X35420Y50998D02*
X35637Y50782D01*
X35695D02*
X35912Y50998D01*
X34112Y52681D02*
X34761Y52032D01*
X34112Y52641D02*
X34721Y52032D01*
X34038Y51249D02*
X34289Y50998D01*
X34038Y51249D02*
X34289Y50998D01*
X34702D02*
X34918Y50782D01*
X34289Y50998D02*
X34791D01*
X28423Y50782D02*
X43969D01*
X32996Y51986D02*
X34200Y50782D01*
X34289Y50998D02*
X34791D01*
X33551Y54385D02*
X33914Y54748D01*
X33422Y54514D02*
X34054Y53882D01*
X33341Y54514D02*
X34054Y53801D01*
X33107Y54748D02*
X33341Y54514D01*
X32961D02*
X33196Y54748D01*
X32445Y54692D02*
X32623Y54514D01*
X34112Y52681D02*
Y53859D01*
X34054Y53451D02*
X34112Y53509D01*
X34054Y53083D02*
X34112Y53025D01*
X34054Y52738D02*
Y53882D01*
Y53801D02*
X34112Y53743D01*
X32266Y54514D02*
X32501Y54748D01*
X29618Y54514D02*
X30762D01*
X32266D02*
X33422D01*
X28986Y53882D02*
X29618Y54514D01*
X27002Y55106D02*
X28986Y53122D01*
Y52618D02*
Y53882D01*
X31526Y52618D02*
Y53773D01*
X27002Y54388D02*
X30608Y50782D01*
X31514Y52618D02*
Y53762D01*
X27002Y53669D02*
X29889Y50782D01*
X27389Y51816D02*
X28986Y53412D01*
X34057Y52736D02*
X34112Y52791D01*
X34054Y52738D02*
X34112Y52681D01*
X33302Y51986D02*
X34038Y51249D01*
X31526Y52618D02*
X32158Y51986D01*
X31220Y52324D02*
X32763Y50782D01*
X32158Y51986D02*
X33302D01*
X32821Y50782D02*
X33664Y51624D01*
X32277Y51986D02*
X33482Y50782D01*
X33539D02*
X34023Y51265D01*
X31384Y50782D02*
X32589Y51986D01*
X32103Y50782D02*
X33304Y51983D01*
X30882Y51986D02*
X31514Y52618D01*
X28986D02*
X29618Y51986D01*
X30882D01*
X27749Y51456D02*
X28986Y52694D01*
X28108Y51097D02*
X29307Y52297D01*
X29947Y50782D02*
X31655Y52489D01*
X27002Y52951D02*
X29171Y50782D01*
X30122Y51986D02*
X31326Y50782D01*
X27002Y52233D02*
X28453Y50782D01*
X27002Y52203D02*
X28423Y50782D01*
X36764Y48818D02*
X37799D01*
X35490Y48422D02*
X35567Y48498D01*
X34444Y48422D02*
X35596D01*
X34772D02*
X34848Y48498D01*
X34258Y50782D02*
X34475Y50998D01*
X35046Y48498D02*
X35123Y48422D01*
X36764Y48818D02*
X37161Y48422D01*
X35579Y48498D02*
X36408Y47669D01*
X36172Y46694D02*
Y47846D01*
X34328Y48498D02*
X34424Y48402D01*
X35596Y48422D02*
X36172Y47846D01*
X33609Y48498D02*
X34065Y48043D01*
X33554Y47923D02*
X34130Y48498D01*
X26751D02*
X35579D01*
X33195Y48282D02*
X33412Y48498D01*
X31904Y48422D02*
X33056D01*
X33632Y47846D01*
X33868D02*
X34444Y48422D01*
X33632Y46694D02*
Y47846D01*
X33868Y46694D02*
Y47846D01*
X26425Y48498D02*
X33262Y41662D01*
X32968Y48422D02*
X33632Y47758D01*
X36408Y46694D02*
Y47669D01*
X36172Y47373D02*
X36408Y47136D01*
X36172Y46948D02*
X36408Y47185D01*
X36172Y47666D02*
X36291Y47786D01*
X33632Y47282D02*
X33868Y47518D01*
X33632Y47039D02*
X33868Y46803D01*
X35596Y46118D02*
X36172Y46694D01*
X33759Y41662D02*
X38948Y46851D01*
X36408Y46694D02*
X36984Y46118D01*
X33868Y46694D02*
X34444Y46118D01*
X35596D01*
X33632Y47758D02*
X33868Y47521D01*
X29448Y41662D02*
X34175Y46388D01*
X29524Y46118D02*
X33980Y41662D01*
X33056Y46118D02*
X33632Y46694D01*
X31904Y46118D02*
X33056D01*
X33445Y46508D02*
X38291Y41662D01*
X30738Y46341D02*
X35417Y41662D01*
X32322D02*
X36882Y46221D01*
X30167Y41662D02*
X34624Y46118D01*
X30242D02*
X34699Y41662D01*
X30840Y51986D02*
X32045Y50782D01*
X30666D02*
X32014Y52130D01*
X32173Y48498D02*
X32249Y48422D01*
X29743D02*
X29819Y48498D01*
X29299D02*
X29376Y48422D01*
X30017Y48498D02*
X30094Y48422D01*
X32616D02*
X32693Y48498D01*
X31092Y47615D02*
X31975Y48498D01*
X32891D02*
X32968Y48422D01*
X30736Y48498D02*
X31358Y47876D01*
X31454Y48498D02*
X31718Y48235D01*
X29229Y50782D02*
X30433Y51986D01*
X28511Y50782D02*
X29715Y51986D01*
X28581Y48498D02*
X29011Y48068D01*
X26249Y48498D02*
X26751D01*
X26249D02*
X26751D01*
X27862D02*
X28788Y47572D01*
X27144Y48498D02*
X28788Y46854D01*
X25606Y45721D02*
X28383Y48498D01*
X25231Y44628D02*
X29101Y48498D01*
X25423Y46976D02*
X26946Y48498D01*
X25606Y46440D02*
X27664Y48498D01*
X31328Y47846D02*
X31904Y48422D01*
X31092Y47424D02*
X31328Y47187D01*
X31092Y46897D02*
X31328Y47134D01*
X30848Y48090D02*
X31256Y48498D01*
X30461Y48422D02*
X30538Y48498D01*
X30516Y48422D02*
X31092Y47846D01*
X31328Y46694D02*
Y47846D01*
X30516Y46118D02*
X31092Y46694D01*
X31328D02*
X31904Y46118D01*
X31092Y46694D02*
Y47846D01*
X29364Y46118D02*
X30516D01*
X29364Y48422D02*
X30516D01*
X28788Y47846D02*
X29364Y48422D01*
X28788Y46694D02*
X29364Y46118D01*
X28788Y46694D02*
Y47846D01*
X25590Y44269D02*
X28788Y47467D01*
X27293Y41662D02*
X31827Y46196D01*
X25069Y42312D02*
X29120Y46362D01*
X25432Y41956D02*
X29595Y46118D01*
X25606Y43566D02*
X28788Y46749D01*
X24760Y45134D02*
X28233Y41662D01*
X23725Y78498D02*
X25472Y76752D01*
X23588D02*
X25335Y78498D01*
X24307Y76752D02*
X26054Y78498D01*
X22870Y76752D02*
X24617Y78498D01*
X22288D02*
X24035Y76752D01*
X23007Y78498D02*
X24754Y76752D01*
X24444Y78498D02*
X26190Y76752D01*
X22883Y75748D02*
X22940Y75692D01*
X22769Y75522D02*
X22996Y75748D01*
X22165D02*
X22392Y75522D01*
X22358D02*
X22585Y75748D01*
X22152Y76752D02*
X23898Y78498D01*
X21570D02*
X23317Y76752D01*
X22091Y75748D02*
X22996D01*
X21589Y76752D02*
X22091D01*
X20851Y78498D02*
X22598Y76752D01*
X21589D02*
X22091D01*
X20203Y75522D02*
X23180Y78498D01*
X19485Y75522D02*
X22462Y78498D01*
X21924Y75522D02*
X22769D01*
X21112Y74769D02*
X22091Y75748D01*
X21112Y73928D02*
X21998Y73041D01*
X26498Y72749D02*
X26635Y72613D01*
X25999Y73248D02*
X26498Y72749D01*
X26635Y72613D01*
X25823Y73425D02*
X25999Y73248D01*
X25823Y73425D02*
X25999Y73248D01*
X25950Y72647D02*
X26275Y72972D01*
X26192Y71722D02*
X26428Y71485D01*
X26192Y72171D02*
X26634Y72613D01*
X26192Y71452D02*
X26428Y71689D01*
X25616Y72982D02*
X26192Y72406D01*
Y71431D02*
Y72406D01*
X25616Y73218D02*
X25823Y73425D01*
X24641Y73218D02*
X25616D01*
X24464Y72982D02*
X25616D01*
X24695Y73218D02*
X24932Y72982D01*
X21998D02*
Y73218D01*
X24847Y72982D02*
X25084Y73218D01*
X25566Y72982D02*
X25916Y73332D01*
X24252Y72829D02*
X24641Y73218D01*
X25413D02*
X26428Y72203D01*
X21348Y72356D02*
X21974Y72982D01*
X24252Y72769D02*
X24464Y72982D01*
X21338Y76501D02*
X21589Y76752D01*
X20133Y78498D02*
X21880Y76752D01*
X21348Y74946D02*
X21924Y75522D01*
X21338Y76501D02*
X21589Y76752D01*
X20359Y75522D02*
X21338Y76501D01*
X21112Y74646D02*
X21348Y74409D01*
Y73794D02*
Y74946D01*
X21112Y74275D02*
X21348Y74512D01*
Y73794D02*
X21924Y73218D01*
X21112Y73794D02*
Y74769D01*
X20536Y73218D02*
X21112Y73794D01*
X19415Y78498D02*
X21375Y76538D01*
X18696Y78498D02*
X21016Y76179D01*
X18347Y75102D02*
X21743Y78498D01*
X19384Y75522D02*
X20359D01*
X18808Y74946D02*
X19384Y75522D01*
X18526Y74562D02*
X18808Y74845D01*
Y73794D02*
Y74946D01*
X18526Y73844D02*
X18808Y74127D01*
Y73794D02*
X19384Y73218D01*
X18526Y73817D02*
Y74923D01*
Y74359D02*
X18808Y74076D01*
X20896Y72622D02*
X21708Y73434D01*
X20819Y73502D02*
X21632Y72689D01*
X21348Y72406D02*
X21924Y72982D01*
X20536Y72981D02*
X21349Y73794D01*
X20462Y72982D02*
Y73218D01*
X20536Y72982D02*
X21112Y72406D01*
Y71773D02*
X21348Y71536D01*
X21112Y72120D02*
X21348Y72356D01*
X21112Y71401D02*
X21348Y71638D01*
X20462Y73141D02*
X21348Y72254D01*
X21112Y71254D02*
Y72406D01*
X19458Y72982D02*
Y73218D01*
X18437Y73729D02*
X19284Y72882D01*
X18808Y72406D02*
X19384Y72982D01*
X18154Y72754D02*
X19001Y73601D01*
X18078Y73369D02*
X18925Y72522D01*
X18808Y71254D02*
Y72406D01*
X18513Y72395D02*
X19361Y73242D01*
X18526Y71689D02*
X18808Y71972D01*
X18526Y71277D02*
Y72383D01*
Y72203D02*
X18808Y71921D01*
X26428Y71254D02*
Y72406D01*
X23930Y62836D02*
X25060D01*
X23248Y70499D02*
X23499Y70248D01*
X23248Y70499D02*
X23499Y70248D01*
X25476Y61940D02*
Y62420D01*
X23476Y61940D02*
Y62420D01*
X18294Y62836D02*
X24603Y69145D01*
X18270Y71022D02*
X26456Y62836D01*
X19012D02*
X24962Y68786D01*
X23248Y70499D02*
Y70851D01*
X23076Y70678D02*
X23248Y70851D01*
Y70499D02*
Y70851D01*
X21156Y62825D02*
X26040Y67708D01*
X20449Y62836D02*
X25680Y68067D01*
X21883Y62833D02*
X26399Y67349D01*
X19453Y62558D02*
X25321Y68426D01*
X25515Y61940D02*
Y62420D01*
X25414Y61722D02*
X26055Y61082D01*
X25876Y61079D02*
X26322Y61525D01*
X25152Y61073D02*
X25684Y61605D01*
X24894Y61525D02*
X25545Y60874D01*
X23515Y61940D02*
Y62420D01*
X24175Y61525D02*
X24618Y61082D01*
X23472Y60830D02*
X24167Y61525D01*
X24443Y61082D02*
X24885Y61525D01*
X23006Y61082D02*
X23605Y61682D01*
X23344Y61637D02*
X23901Y61081D01*
X21930Y62836D02*
X23060D01*
X21924Y70678D02*
X23076D01*
X21348Y71254D02*
Y72406D01*
X20536Y70678D02*
X21112Y71254D01*
X21348D02*
X21924Y70678D01*
X21476Y61940D02*
Y62420D01*
X21515Y61940D02*
Y62420D01*
X19930Y62836D02*
X21060D01*
X19384Y70678D02*
X20536D01*
X18808Y71254D02*
X19384Y70678D01*
X19515Y61940D02*
Y62420D01*
X19476Y61940D02*
Y62420D01*
X21930Y61525D02*
X23060D01*
X20850Y61082D02*
X21547Y61779D01*
X22287Y61082D02*
X22730Y61525D01*
X22020D02*
X22463Y61082D01*
X22738Y61525D02*
X23204Y61059D01*
X21254Y61573D02*
X21772Y61054D01*
X21409Y60923D02*
X22012Y61525D01*
X18695Y61082D02*
X19147Y61534D01*
X20132Y61082D02*
X20575Y61525D01*
X19858Y61531D02*
X20307Y61082D01*
X20583Y61525D02*
X21026Y61082D01*
X19139Y61532D02*
X19670Y61001D01*
X19328Y60996D02*
X19862Y61530D01*
X17978Y78498D02*
X20657Y75819D01*
X17283Y75476D02*
X20306Y78498D01*
X17987Y75461D02*
X21025Y78498D01*
X17259D02*
X20236Y75522D01*
X16541Y78498D02*
X19518Y75522D01*
X16867Y75476D02*
X17973D01*
X18526Y74923D01*
X15823Y78498D02*
X19092Y75229D01*
X16314Y74923D02*
X16867Y75476D01*
X14386Y78498D02*
X17409Y75476D01*
X13667Y78498D02*
X16779Y75387D01*
X15104Y78498D02*
X18808Y74794D01*
X12231Y78498D02*
X16314Y74415D01*
X7902Y73996D02*
X12404Y78498D01*
X12949D02*
X16419Y75028D01*
X10794Y78498D02*
X16612Y72680D01*
X9357Y78498D02*
X16314Y71541D01*
X11512Y78498D02*
X17075Y72936D01*
X7902Y73278D02*
X13122Y78498D01*
X10075D02*
X16314Y72259D01*
X17946Y73264D02*
X18526Y73844D01*
X17973Y73264D02*
X18526Y73817D01*
X17465Y73264D02*
X17793Y72936D01*
X16899D02*
X17228Y73264D01*
X17617Y72936D02*
X17946Y73264D01*
X17973Y72936D02*
X18526Y72383D01*
X17973Y70724D02*
X18526Y71277D01*
X16867Y70724D02*
X17973D01*
X16867Y73264D02*
X17973D01*
X16867Y72936D02*
X17973D01*
X16314Y73817D02*
X16867Y73264D01*
X16314Y73817D02*
Y74923D01*
Y72383D02*
X16867Y72936D01*
X16314Y72351D02*
X16899Y72936D01*
X16314Y71277D02*
Y72383D01*
Y71277D02*
X16867Y70724D01*
X6849Y77254D02*
X8093Y78498D01*
X6489Y77613D02*
X7375Y78498D01*
X7208Y76895D02*
X8812Y78498D01*
X5341Y77902D02*
X5938Y78498D01*
X5046D02*
X5643Y77902D01*
X6059D02*
X6656Y78498D01*
X7902Y75433D02*
X10967Y78498D01*
X7902Y76152D02*
X10248Y78498D01*
X7902Y74715D02*
X11685Y78498D01*
X7567Y76535D02*
X9530Y78498D01*
X6201Y77902D02*
X7902Y76201D01*
X4331Y78495D02*
X4925Y77902D01*
X3904D02*
X4501Y78498D01*
X2799Y77902D02*
X6201D01*
X3692Y78416D02*
X4206Y77902D01*
X3186D02*
X3702Y78418D01*
X3132Y78257D02*
X3488Y77902D01*
X4623D02*
X5219Y78498D01*
X1098Y76201D02*
X2799Y77902D01*
X2634Y78037D02*
X2784Y77887D01*
X1001Y76436D02*
X2564Y77999D01*
X2189Y77763D02*
X2425Y77528D01*
X1792Y77442D02*
X2066Y77168D01*
X1441Y77075D02*
X1707Y76809D01*
X1136Y76661D02*
X1347Y76450D01*
X880Y76199D02*
X1098Y75981D01*
X680Y75681D02*
X1098Y75262D01*
X7902Y72799D02*
Y76201D01*
X6201Y71098D02*
X7902Y72799D01*
X2799Y71098D02*
X6201D01*
X1098Y72799D02*
Y76201D01*
Y72799D02*
X2799Y71098D01*
X502Y74422D02*
X1098Y73825D01*
X502Y74499D02*
X1098Y75096D01*
X502Y73781D02*
X1098Y74377D01*
X582Y75298D02*
X1098Y75814D01*
X546Y75096D02*
X1098Y74544D01*
X502Y71625D02*
X1387Y72511D01*
X502Y72344D02*
X1098Y72941D01*
X502Y70907D02*
X1746Y72151D01*
X502Y73704D02*
X1098Y73107D01*
X502Y73062D02*
X1098Y73659D01*
X8638Y78498D02*
X24301Y62836D01*
X7202Y78498D02*
X22864Y62836D01*
X7902Y75643D02*
X20709Y62836D01*
X7902Y73488D02*
X18553Y62836D01*
X7902Y74925D02*
X19990Y62836D01*
X7887Y72784D02*
X17844Y62827D01*
X7920Y78498D02*
X23672Y62746D01*
X7902Y74206D02*
X19541Y62567D01*
X8164Y60608D02*
X18809Y71254D01*
X7528Y72425D02*
X17515Y62437D01*
X7168Y72066D02*
X18152Y61082D01*
X5765Y78498D02*
X21596Y62667D01*
X502Y59412D02*
X19588Y78498D01*
X6483D02*
X22146Y62836D01*
X502Y60131D02*
X18869Y78498D01*
X502Y60849D02*
X18151Y78498D01*
X6809Y71707D02*
X17587Y60929D01*
X4544Y71098D02*
X17748Y57894D01*
X502Y72985D02*
X23774Y49713D01*
X3825Y71098D02*
X17748Y57175D01*
X5981Y71098D02*
X17748Y59331D01*
X5262Y71098D02*
X17748Y58612D01*
X17849Y70724D02*
X25770Y62804D01*
X17131Y70724D02*
X25019Y62836D01*
X17930D02*
X19060D01*
X13108Y58369D02*
X24244Y69504D01*
X12673Y58652D02*
X23884Y69863D01*
X17977Y61082D02*
X18420Y61525D01*
X13468Y58010D02*
X17515Y62057D01*
X13827Y57651D02*
X17745Y61569D01*
X12164Y61016D02*
X21875Y70728D01*
X11857Y61428D02*
X21516Y71087D01*
X11414Y61704D02*
X20389Y70678D01*
X8061Y61224D02*
X17561Y70724D01*
X10696Y61704D02*
X19670Y70678D01*
X11665Y59081D02*
X23248Y70664D01*
X3107Y71098D02*
X24320Y49886D01*
X12024Y58721D02*
X23525Y70222D01*
X7437Y59164D02*
X19168Y70894D01*
X12164Y60298D02*
X22544Y70678D01*
X502Y67315D02*
X4285Y71098D01*
X502Y68033D02*
X3567Y71098D01*
X502Y66596D02*
X5004Y71098D01*
X502Y69470D02*
X2465Y71433D01*
X502Y70188D02*
X2105Y71792D01*
X502Y68752D02*
X2848Y71098D01*
X6450Y71347D02*
X17469Y60329D01*
X502Y55820D02*
X16314Y71633D01*
X7104Y61704D02*
X16496Y71096D01*
X502Y71548D02*
X10382Y61668D01*
X502Y65878D02*
X5722Y71098D01*
X502Y63004D02*
X15996Y78498D01*
X502Y63723D02*
X15277Y78498D01*
X502Y62286D02*
X16714Y78498D01*
X502Y64441D02*
X14559Y78498D01*
X502Y65160D02*
X13840Y78498D01*
X502Y72267D02*
X11065Y61704D01*
X502Y57975D02*
X16329Y73803D01*
X502Y61567D02*
X17433Y78498D01*
X502Y57257D02*
X16688Y73443D01*
X502Y58694D02*
X16314Y74507D01*
X502Y56538D02*
X16314Y72351D01*
X17515Y61940D02*
Y62420D01*
X7702Y61583D02*
X16855Y70737D01*
X10418Y61704D02*
X11582D01*
X6418D02*
X7582D01*
X5836Y61122D02*
X6418Y61704D01*
X7582D02*
X8164Y61122D01*
X9836D02*
X10418Y61704D01*
X502Y62209D02*
X6287Y56423D01*
X11582Y61704D02*
X12164Y61122D01*
X502Y63646D02*
X5836Y58311D01*
X502Y62927D02*
X5836Y57593D01*
X502Y68675D02*
X7473Y61704D01*
X502Y70830D02*
X10023Y61308D01*
X502Y67956D02*
X6754Y61704D01*
X502Y67238D02*
X6227Y61512D01*
X502Y66519D02*
X5868Y61153D01*
X502Y69393D02*
X9836Y60058D01*
X502Y70112D02*
X9836Y60777D01*
X502Y65083D02*
X6421Y59164D01*
X502Y65801D02*
X5836Y60466D01*
X502Y64364D02*
X6060Y58806D01*
X23930Y61525D02*
X25060D01*
X21930Y61082D02*
X23060D01*
X23930D02*
X25060D01*
X19930D02*
X21060D01*
X19930Y61525D02*
X21060D01*
X17930Y61082D02*
X19060D01*
X18428Y61525D02*
X18871Y61082D01*
X17930Y61525D02*
X19060D01*
X14152Y56538D02*
X17528Y59915D01*
X17748Y58302D02*
Y59652D01*
X17469Y60140D02*
Y60620D01*
X14152Y57257D02*
X17469Y60574D01*
X17748Y59652D02*
X17994D01*
X17748Y59417D02*
X17983Y59652D01*
X17748Y56848D02*
X17998D01*
X17748Y58198D02*
Y58302D01*
Y58198D02*
Y58302D01*
Y56848D02*
Y58198D01*
X17998Y56749D02*
X18249Y56498D01*
X17998Y56749D02*
X18249Y56498D01*
X14152Y52228D02*
X18336Y56412D01*
X17998Y56749D02*
Y56848D01*
Y56749D02*
Y56848D01*
X14152Y56674D02*
Y57326D01*
X13826Y57652D02*
X14152Y57326D01*
Y56674D02*
Y57326D01*
X13152Y58326D02*
X13826Y57652D01*
X12826Y58652D02*
X13152Y58326D01*
X13826Y57652D02*
X14152Y57326D01*
Y53665D02*
X17748Y57262D01*
X14152Y54383D02*
X17748Y57980D01*
X14152Y52946D02*
X17998Y56793D01*
X14152Y55820D02*
X17748Y59417D01*
X14152Y55102D02*
X17748Y58698D01*
X12174Y58652D02*
X12826D01*
X11768Y59563D02*
X12680Y58652D01*
X12174D02*
X12826D01*
X12164Y59958D02*
Y61122D01*
X11582Y59164D02*
X12094Y58652D01*
X12174D01*
X12826D02*
X13152Y58326D01*
X12174Y57348D02*
X12848Y56674D01*
X11961Y57215D02*
X12848Y56328D01*
X11582Y56836D02*
X12094Y57348D01*
X12174D01*
X11582Y59376D02*
X12164Y59958D01*
X10418Y59376D02*
X11582D01*
X10418Y59164D02*
X11582D01*
X9836Y59958D02*
X10418Y59376D01*
X9836Y59958D02*
Y61122D01*
X10518Y59376D02*
X10731Y59164D01*
X11237Y59376D02*
X11450Y59164D01*
X11029D02*
X11242Y59376D01*
X9836Y57418D02*
X10418Y56836D01*
X9836Y58582D02*
X10418Y59164D01*
X9836Y57418D02*
Y58582D01*
X12164Y55987D02*
X12848Y56672D01*
X11602Y56856D02*
X12848Y55609D01*
X12164Y55269D02*
X12848Y55954D01*
X11832Y56374D02*
X12490Y57032D01*
X11363Y56624D02*
X11576Y56836D01*
X11582Y56624D02*
X12164Y56042D01*
Y55576D02*
X12848Y54891D01*
X12153Y54868D02*
X12848Y54173D01*
X11794Y54509D02*
X12848Y53454D01*
X12164Y54878D02*
Y56042D01*
X11582Y54296D02*
X12164Y54878D01*
X10903Y56836D02*
X11116Y56624D01*
X10418Y56836D02*
X11582D01*
X10418Y56624D02*
X11582D01*
X10645D02*
X10857Y56836D01*
X9836Y56042D02*
X10418Y56624D01*
Y54296D02*
X11582D01*
X9836Y54878D02*
X10418Y54296D01*
X11288D02*
X12848Y52736D01*
X9836Y54878D02*
Y56042D01*
X9652Y55933D02*
X9836Y55748D01*
X25998Y48749D02*
X26249Y48498D01*
X25606Y49142D02*
X25998Y48749D01*
X26249Y48498D01*
X25606Y48595D02*
X25879Y48869D01*
X25606Y48227D02*
Y49142D01*
X25064Y47335D02*
X26238Y48509D01*
X25053Y47346D02*
X25606Y46793D01*
Y45687D02*
Y46793D01*
X25053Y47674D02*
X25606Y48227D01*
X24741Y49886D02*
X24801Y49946D01*
X18249Y56498D02*
X24862Y49886D01*
X23947D02*
X24862D01*
X24022D02*
X24442Y50305D01*
X23394Y49258D02*
X24022Y49886D01*
X24376Y47674D02*
X24704Y47346D01*
X23947Y47674D02*
X25053D01*
X23947Y47346D02*
X25053D01*
X24356D02*
X24685Y47674D01*
X25053Y45134D02*
X25606Y45687D01*
X25019Y45134D02*
X25606Y45721D01*
X25053Y44806D02*
X25606Y44253D01*
X24690Y44806D02*
X25019Y45134D01*
X25099Y42641D02*
X26078Y41662D01*
X25053Y42594D02*
X25606Y43147D01*
X25076Y42312D02*
X25652Y41736D01*
X25606Y43147D02*
Y44253D01*
X24042Y45134D02*
X24371Y44806D01*
X23947Y45134D02*
X25053D01*
X23947Y44806D02*
X25053D01*
X23394Y45782D02*
X24042Y45134D01*
X23971Y44806D02*
X24300Y45134D01*
X24427Y42594D02*
X24709Y42312D01*
X23947Y42594D02*
X25053D01*
X23924Y42312D02*
X25076D01*
X24351D02*
X24634Y42594D01*
X14152Y47199D02*
X20850Y53897D01*
X14152Y55025D02*
X23394Y45782D01*
X14152Y46481D02*
X21209Y53538D01*
X14152Y48636D02*
X20132Y54616D01*
X14152Y49354D02*
X19772Y54975D01*
X14152Y47917D02*
X20491Y54257D01*
X14152Y53588D02*
X23441Y44299D01*
X14152Y54306D02*
X23800Y44658D01*
X14152Y52869D02*
X23394Y43627D01*
X14152Y45762D02*
X21569Y53179D01*
X14152Y45044D02*
X21928Y52820D01*
X14152Y50791D02*
X19054Y55694D01*
X14152Y51509D02*
X18695Y56053D01*
X14152Y50073D02*
X19413Y55334D01*
X10569Y54296D02*
X12848Y52017D01*
X9652Y51320D02*
X12848Y54517D01*
X9652Y49883D02*
X12848Y53080D01*
X14152Y57180D02*
X23986Y47346D01*
X12164Y60605D02*
X23415Y49353D01*
X14152Y56462D02*
X23607Y47006D01*
X12128Y59922D02*
X23394Y48656D01*
X14152Y55743D02*
X23394Y46500D01*
Y45687D02*
X23947Y45134D01*
X23394Y46793D02*
X23947Y47346D01*
X23394Y48227D02*
X23947Y47674D01*
X23394Y45687D02*
Y46793D01*
Y44229D02*
X23971Y44806D01*
X23394Y43147D02*
X23947Y42594D01*
X23394Y44253D02*
X23947Y44806D01*
X23394Y43147D02*
Y44253D01*
Y49333D02*
X23947Y49886D01*
X14152Y43607D02*
X22646Y52101D01*
X23394Y48227D02*
Y49333D01*
X14152Y44325D02*
X22287Y52461D01*
X9652Y52340D02*
X12848Y49144D01*
X14152Y51433D02*
X23598Y41986D01*
X14152Y52151D02*
X23991Y42312D01*
X23348Y41736D02*
X23924Y42312D01*
X14152Y42888D02*
X23005Y51742D01*
X14152Y42170D02*
X23365Y51383D01*
X8937Y57790D02*
X10524Y59376D01*
X8578Y58149D02*
X10112Y59683D01*
X9297Y57431D02*
X9836Y57971D01*
X8529Y58198D02*
X9326Y57402D01*
X8219Y58508D02*
X9836Y60126D01*
X9326Y57402D02*
X9652Y57076D01*
Y56424D02*
Y57076D01*
Y57067D02*
X9919Y57335D01*
X9652Y56349D02*
X10279Y56976D01*
X9326Y57402D02*
X9652Y57076D01*
Y56424D02*
Y57076D01*
X8164Y60294D02*
X9856Y58602D01*
X8164Y61013D02*
X10215Y58961D01*
X7972Y59767D02*
X9836Y57903D01*
X8204Y58524D02*
X8529Y58198D01*
X7869Y58877D02*
X9836Y60844D01*
X8204Y58524D02*
X8529Y58198D01*
X7613Y59408D02*
X10408Y56613D01*
X502Y59335D02*
X8348Y51488D01*
X502Y58617D02*
X8348Y50770D01*
X502Y60054D02*
X8348Y52207D01*
X7759Y57014D02*
X8348Y56424D01*
X9652Y53475D02*
X10473Y54296D01*
X9652Y54194D02*
X10086Y54628D01*
X9652Y52757D02*
X11191Y54296D01*
X9652Y55214D02*
X9836Y55029D01*
X9652Y55631D02*
X9836Y55815D01*
X9652Y54912D02*
X9836Y55097D01*
X9652Y50602D02*
X12848Y53798D01*
X9652Y54496D02*
X12848Y51299D01*
X9652Y53777D02*
X12848Y50581D01*
X9652Y50326D02*
Y56424D01*
Y52038D02*
X12848Y55235D01*
X9652Y56651D02*
X10049Y56254D01*
X8118Y55533D02*
X8348Y55764D01*
X8118Y55311D02*
X8348Y55081D01*
X7311Y56836D02*
X8348Y55799D01*
X8001Y56135D02*
X8319Y56453D01*
X8348Y50326D02*
Y56424D01*
X6931Y54342D02*
X8348Y52925D01*
X6826Y49932D02*
X8348Y51454D01*
X7963Y54747D02*
X8348Y54362D01*
X7604Y54388D02*
X8348Y53644D01*
X8164Y59958D02*
Y61122D01*
X7582Y59376D02*
X8164Y59958D01*
X6418Y59164D02*
X7582D01*
X6926Y59376D02*
X7139Y59164D01*
X6719D02*
X6932Y59376D01*
X6418D02*
X7582D01*
Y59164D02*
X8164Y58582D01*
X5836Y57418D02*
X6418Y56836D01*
X7582D02*
X7759Y57014D01*
X5836Y58582D02*
X6418Y59164D01*
X5836Y57418D02*
Y58582D01*
Y59958D02*
X6418Y59376D01*
X502Y61490D02*
X5928Y56064D01*
X502Y54383D02*
X5957Y59838D01*
X5836Y59958D02*
Y61122D01*
X502Y60772D02*
X5882Y55391D01*
X502Y55102D02*
X5836Y60436D01*
X502Y57898D02*
X8211Y50189D01*
X502Y53665D02*
X6316Y59479D01*
X502Y51510D02*
X6123Y57131D01*
X502Y52946D02*
X5836Y58281D01*
X502Y52228D02*
X5836Y57563D01*
X7642Y56495D02*
X7960Y56813D01*
X6418Y56836D02*
X7582D01*
X7559Y56578D02*
X8118Y56019D01*
X7007Y56578D02*
X7265Y56836D01*
X6593D02*
X6851Y56578D01*
X6441D02*
X7559D01*
X8118Y54901D02*
Y56019D01*
X7559Y54342D02*
X8118Y54901D01*
X6441Y54342D02*
X7559D01*
X5882Y54901D02*
X6441Y54342D01*
X5882Y56019D02*
X6441Y56578D01*
X5882Y54901D02*
Y56019D01*
X502Y56462D02*
X7032Y49932D01*
X502Y50791D02*
X6547Y56836D01*
X6144Y49932D02*
X7296D01*
X502Y55743D02*
X6313Y49932D01*
X502Y50073D02*
X5882Y55453D01*
X9652Y53059D02*
X12848Y49862D01*
X9326Y49348D02*
X9652Y49674D01*
X9326Y49348D02*
X9652Y49674D01*
Y50326D01*
Y49674D02*
Y50326D01*
X8432Y48454D02*
X9326Y49348D01*
X9652Y50185D02*
X12848Y46988D01*
X7872Y45948D02*
X12848Y50925D01*
X9548Y49570D02*
X12848Y46270D01*
X9652Y51622D02*
X12848Y48425D01*
X9652Y50904D02*
X12848Y47707D01*
X7587Y47100D02*
X12848Y52362D01*
X502Y46481D02*
X8348Y54327D01*
X7872Y46666D02*
X12848Y51643D01*
X7420Y49807D02*
X8348Y50735D01*
X502Y47199D02*
X8348Y55046D01*
X7625Y49602D02*
X8348Y50326D01*
X7395Y44753D02*
X12848Y50206D01*
X502Y44325D02*
X8348Y52172D01*
X7754Y44393D02*
X12848Y49488D01*
X502Y45762D02*
X8348Y53609D01*
X502Y45044D02*
X8348Y52891D01*
X9189Y49211D02*
X12848Y45552D01*
X8106Y48128D02*
X8432Y48454D01*
X8106Y48128D02*
X8432Y48454D01*
X7796Y48128D02*
X8106D01*
X7796D02*
X8106D01*
X7872Y45664D02*
Y46816D01*
X8470Y48493D02*
X12848Y44115D01*
X7872Y43793D02*
X12848Y48769D01*
X8111Y48134D02*
X12848Y43396D01*
X8829Y48852D02*
X12848Y44833D01*
X7872Y43124D02*
Y44276D01*
X7597Y47929D02*
X12848Y42678D01*
X7160Y47392D02*
X7897Y48128D01*
X7296Y44852D02*
X7872Y44276D01*
X7296Y47392D02*
X7872Y46816D01*
X7296Y45088D02*
X7872Y45664D01*
X7179Y47628D02*
X12848Y41959D01*
X7109Y42312D02*
X12848Y48051D01*
X7562Y42046D02*
X12848Y47333D01*
X7296Y42548D02*
X7872Y43124D01*
X7296Y42312D02*
X7872Y41736D01*
X7296Y49932D02*
X7625Y49602D01*
X5568Y48204D02*
X6144Y47628D01*
X7296D02*
X7796Y48128D01*
X5568Y49356D02*
X6144Y49932D01*
X502Y49996D02*
X5895Y44602D01*
X5568Y48204D02*
Y49356D01*
X502Y42888D02*
X5693Y48080D01*
X502Y48559D02*
X5568Y43492D01*
X502Y47840D02*
X6087Y42255D01*
X502Y49277D02*
X5568Y44211D01*
X502Y43607D02*
X5568Y48674D01*
X502Y49354D02*
X5965Y54818D01*
X502Y57180D02*
X7852Y49829D01*
X502Y48636D02*
X6325Y54459D01*
X502Y54306D02*
X5568Y49239D01*
X502Y55025D02*
X5869Y49657D01*
X502Y53588D02*
X5568Y48521D01*
X502Y52869D02*
X6062Y47309D01*
X502Y47917D02*
X6927Y54342D01*
X502Y50714D02*
X6364Y44852D01*
X502Y52151D02*
X5703Y46950D01*
X502Y51433D02*
X5568Y46366D01*
X6144Y45088D02*
X7296D01*
X6144Y47392D02*
X7296D01*
X6144Y44852D02*
X7296D01*
X6461Y47628D02*
X6698Y47392D01*
X6442D02*
X6678Y47628D01*
X6775Y44852D02*
X7012Y45088D01*
X6846D02*
X7083Y44852D01*
X6144Y42548D02*
X7296D01*
X6144Y42312D02*
X7296D01*
X6391D02*
X6627Y42548D01*
X6512D02*
X6749Y42312D01*
X6144Y47628D02*
X7296D01*
X5568Y45664D02*
X6144Y45088D01*
X5568Y44276D02*
X6144Y44852D01*
X5568Y46816D02*
X6144Y47392D01*
X5568Y45664D02*
Y46816D01*
Y43124D02*
X6144Y42548D01*
X502Y42170D02*
X6052Y47721D01*
X5568Y41736D02*
X6144Y42312D01*
X502Y47122D02*
X5728Y41896D01*
X5568Y43124D02*
Y44276D01*
X46662Y40909D02*
X50501Y44748D01*
X46406Y40658D02*
X50752Y45004D01*
X47522Y41770D02*
X48270Y41022D01*
X47163Y41411D02*
X47911Y40663D01*
X46411Y40658D02*
X46662Y40909D01*
X46411Y40658D02*
X46662Y40909D01*
X46369Y39122D02*
X52298Y45051D01*
X46306Y39122D02*
X52298Y45114D01*
X47122Y38369D02*
X53051Y44298D01*
X46804Y41051D02*
X47551Y40304D01*
X46445Y40692D02*
X47192Y39945D01*
X43098Y41662D02*
X47555Y46118D01*
X42380Y41662D02*
X46991Y46272D01*
X43817Y41662D02*
X48274Y46118D01*
X40225Y41662D02*
X44682Y46118D01*
X39506Y41662D02*
X44284Y46439D01*
X40300Y46118D02*
X44757Y41662D01*
X45587Y39122D02*
X52298Y45833D01*
X44535Y41662D02*
X49338Y46464D01*
X45760Y40658D02*
X46833Y39585D01*
X42714Y39122D02*
X44251Y40658D01*
X45042D02*
X46474Y39226D01*
X46871Y38118D02*
X47122Y38369D01*
X46871Y38118D02*
X47122Y38369D01*
X46369Y38118D02*
X46871D01*
X45909Y40658D02*
X46411D01*
X45909D02*
X46411D01*
X46369Y38118D02*
X46871D01*
X47585Y38833D02*
X49083Y37335D01*
X47226Y38474D02*
X48724Y36976D01*
X46863Y38118D02*
X48365Y36617D01*
X45426Y38118D02*
X46963Y36582D01*
X46145Y38118D02*
X47682Y36582D01*
X44323Y40658D02*
X45860Y39122D01*
X44151D02*
X45687Y40658D01*
X44869Y39122D02*
X46406Y40658D01*
X43432Y39122D02*
X44969Y40658D01*
X42886D02*
X44423Y39122D01*
X43605Y40658D02*
X45142Y39122D01*
X44708Y38118D02*
X46245Y36582D01*
X43989Y38118D02*
X45526Y36582D01*
X45203D02*
X46739Y38118D01*
X43047Y36582D02*
X44584Y38118D01*
X43766Y36582D02*
X45303Y38118D01*
X38788Y41662D02*
X44028Y46902D01*
X38499Y46482D02*
X43320Y41662D01*
X39582Y46118D02*
X44038Y41662D01*
X38140Y46123D02*
X42602Y41662D01*
X37426Y46118D02*
X41883Y41662D01*
X37685Y39122D02*
X39222Y40658D01*
X39122Y39122D02*
X40658Y40658D01*
X39122Y39122D02*
X40658Y40658D01*
X39294D02*
X40831Y39122D01*
X37857Y40658D02*
X39394Y39122D01*
X38403D02*
X39940Y40658D01*
X36633Y41662D02*
X41577Y46606D01*
X36152Y46674D02*
X41165Y41662D01*
X37351D02*
X41936Y46247D01*
X35914Y41662D02*
X40371Y46118D01*
X35793Y46315D02*
X40446Y41662D01*
X35529Y39122D02*
X37066Y40658D01*
X36966Y39122D02*
X38503Y40658D01*
X36421D02*
X37957Y39122D01*
X37139Y40658D02*
X38676Y39122D01*
X35702Y40658D02*
X37239Y39122D01*
X36248D02*
X37785Y40658D01*
X41995Y39122D02*
X43532Y40658D01*
X41449D02*
X42986Y39122D01*
X42168Y40658D02*
X43705Y39122D01*
X40731Y40658D02*
X42268Y39122D01*
X40558D02*
X42095Y40658D01*
X41277Y39122D02*
X42814Y40658D01*
X42329Y36582D02*
X43866Y38118D01*
X41834D02*
X43371Y36582D01*
X42553Y38118D02*
X44089Y36582D01*
X40892D02*
X42429Y38118D01*
X41116D02*
X42653Y36582D01*
X39840Y39122D02*
X41377Y40658D01*
X38576D02*
X40113Y39122D01*
X40013Y40658D02*
X41549Y39122D01*
X35863Y36582D02*
X37400Y38118D01*
X37300Y36582D02*
X38837Y38118D01*
X39679D02*
X41216Y36582D01*
X39455D02*
X40992Y38118D01*
X40397D02*
X41934Y36582D01*
X37524Y38118D02*
X39060Y36582D01*
X38018D02*
X39555Y38118D01*
X47358Y36582D02*
X54838Y44062D01*
X44857Y15402D02*
X75574Y46118D01*
X47652Y34002D02*
X57378Y43728D01*
X46639Y36582D02*
X54838Y44780D01*
X45921Y36582D02*
X54838Y45499D01*
X45811Y35578D02*
X47388Y34002D01*
X46025Y15133D02*
X77317Y46425D01*
X45575Y15402D02*
X77048Y46875D01*
X46332Y14721D02*
X77729Y46118D01*
X43318Y15299D02*
X74611Y46592D01*
X43677Y14940D02*
X74970Y46233D01*
X40546Y15402D02*
X71968Y46824D01*
X39828Y15402D02*
X70545Y46118D01*
X42702Y15402D02*
X73418Y46118D01*
X38263Y15274D02*
X69556Y46567D01*
X35517Y15402D02*
X66888Y46773D01*
X37673Y15402D02*
X68389Y46118D01*
X40970Y15107D02*
X72263Y46400D01*
X38623Y14915D02*
X69915Y46207D01*
X41252Y14670D02*
X72700Y46118D01*
X35916Y15082D02*
X67208Y46374D01*
X36172Y14619D02*
X67671Y46118D01*
X47248Y35578D02*
X48825Y34002D01*
X43362Y32998D02*
X60959Y15402D01*
X44799Y32998D02*
X62396Y15402D01*
X46529Y35578D02*
X48106Y34002D01*
X46215D02*
X47792Y35578D01*
X46933Y34002D02*
X48510Y35578D01*
X46954Y32998D02*
X64738Y15215D01*
X46236Y32998D02*
X64378Y14856D01*
X47673Y32998D02*
X65269Y15402D01*
X44081Y32998D02*
X62031Y15048D01*
X45517Y32998D02*
X63114Y15402D01*
X40488Y32998D02*
X58085Y15402D01*
X39770Y32998D02*
X57367Y15402D01*
X42644Y32998D02*
X60240Y15402D01*
X36896Y32998D02*
X54629Y15266D01*
X37615Y32998D02*
X55212Y15402D01*
X41207Y32998D02*
X59324Y14881D01*
X39052Y32998D02*
X56976Y15074D01*
X41925Y32998D02*
X59683Y15241D01*
X36178Y32998D02*
X54269Y14907D01*
X38333Y32998D02*
X56728Y14603D01*
X43271Y38118D02*
X44808Y36582D01*
X41611D02*
X43147Y38118D01*
X44484Y36582D02*
X46021Y38118D01*
X38961D02*
X40497Y36582D01*
X38737D02*
X40274Y38118D01*
X40174Y36582D02*
X41711Y38118D01*
X39749Y34002D02*
X41326Y35578D01*
X39345D02*
X40922Y34002D01*
X40064Y35578D02*
X41640Y34002D01*
X38627Y35578D02*
X40204Y34002D01*
X39031D02*
X40607Y35578D01*
X36805Y38118D02*
X38342Y36582D01*
X36582D02*
X38118Y38118D01*
X38242D02*
X39779Y36582D01*
X36582D02*
X38118Y38118D01*
X36087D02*
X37624Y36582D01*
X36472Y35578D02*
X38048Y34002D01*
X37908Y35578D02*
X39485Y34002D01*
X37594D02*
X39171Y35578D01*
X38312Y34002D02*
X39889Y35578D01*
X36875Y34002D02*
X38452Y35578D01*
X37190D02*
X38767Y34002D01*
X44060D02*
X45636Y35578D01*
X43656D02*
X45233Y34002D01*
X44374Y35578D02*
X45951Y34002D01*
X42937Y35578D02*
X44514Y34002D01*
X42623D02*
X44199Y35578D01*
X43341Y34002D02*
X44918Y35578D01*
X45496Y34002D02*
X47073Y35578D01*
X45093D02*
X46669Y34002D01*
X46568Y14826D02*
X47144Y15402D01*
X44778Y34002D02*
X46355Y35578D01*
X44028Y14826D02*
X44604Y15402D01*
X40782Y35578D02*
X42359Y34002D01*
X40467D02*
X42044Y35578D01*
X41186Y34002D02*
X42763Y35578D01*
X35753D02*
X37330Y34002D01*
X36157D02*
X37734Y35578D01*
X41904Y34002D02*
X43481Y35578D01*
X41501D02*
X43077Y34002D01*
X42219Y35578D02*
X43796Y34002D01*
X36408Y14826D02*
X36984Y15402D01*
X40676D02*
X41252Y14826D01*
X35196Y41662D02*
X39653Y46118D01*
X34477Y41662D02*
X39229Y46413D01*
X35271Y46118D02*
X39728Y41662D01*
X34553Y46118D02*
X39009Y41662D01*
X33086Y46148D02*
X37573Y41662D01*
X33374Y39122D02*
X34911Y40658D01*
X34811Y39122D02*
X36348Y40658D01*
X34265D02*
X35802Y39122D01*
X34984Y40658D02*
X36520Y39122D01*
X33547Y40658D02*
X35084Y39122D01*
X34093D02*
X35629Y40658D01*
X33041Y41662D02*
X37497Y46118D01*
X32397D02*
X36854Y41662D01*
X25652D02*
X45909D01*
X31604D02*
X36522Y46580D01*
X31092Y46706D02*
X36136Y41662D01*
X30885D02*
X35342Y46118D01*
X25652Y39122D02*
X46369D01*
X25652Y40658D02*
X45909D01*
X32989Y36582D02*
X34526Y38118D01*
X32656Y39122D02*
X34193Y40658D01*
X32828D02*
X34365Y39122D01*
X35145Y36582D02*
X36682Y38118D01*
X34650D02*
X36187Y36582D01*
X35368Y38118D02*
X36905Y36582D01*
X34426D02*
X35963Y38118D01*
X33932D02*
X35468Y36582D01*
X34002Y34002D02*
X35578Y35578D01*
X35035D02*
X36612Y34002D01*
X34720D02*
X36297Y35578D01*
X35438Y34002D02*
X37015Y35578D01*
X34002Y34002D02*
X35578Y35578D01*
X34316D02*
X35893Y34002D01*
X25652Y36582D02*
X48329D01*
X25652Y38118D02*
X46369D01*
X25652Y35578D02*
X48329D01*
X33213Y38118D02*
X34750Y36582D01*
X32495Y38118D02*
X34032Y36582D01*
X33708D02*
X35245Y38118D01*
X33598Y35578D02*
X35175Y34002D01*
X33283D02*
X34860Y35578D01*
X25652Y34002D02*
X52249D01*
X32565D02*
X34142Y35578D01*
X32879D02*
X34456Y34002D01*
X29955Y40658D02*
X31492Y39122D01*
X28730Y41662D02*
X33868Y46800D01*
X30501Y39122D02*
X32037Y40658D01*
X29236D02*
X30773Y39122D01*
X29064D02*
X30601Y40658D01*
X29782Y39122D02*
X31319Y40658D01*
X31937Y39122D02*
X33474Y40658D01*
X31392D02*
X32928Y39122D01*
X32110Y40658D02*
X33647Y39122D01*
X30673Y40658D02*
X32210Y39122D01*
X31219D02*
X32756Y40658D01*
X25606Y48600D02*
X32544Y41662D01*
X25433Y48054D02*
X31825Y41662D01*
X25073Y47695D02*
X31107Y41662D01*
X25856D02*
X30313Y46118D01*
X25606Y46444D02*
X30388Y41662D01*
X25606Y45726D02*
X29670Y41662D01*
X28012D02*
X32468Y46118D01*
X26575Y41662D02*
X31468Y46555D01*
X28518Y40658D02*
X30055Y39122D01*
X28345D02*
X29882Y40658D01*
X27961Y36582D02*
X29497Y38118D01*
X31776D02*
X33313Y36582D01*
X31553D02*
X33089Y38118D01*
X32271Y36582D02*
X33808Y38118D01*
X31058D02*
X32595Y36582D01*
X30834D02*
X32371Y38118D01*
X30409Y34002D02*
X31986Y35578D01*
X31846Y34002D02*
X33423Y35578D01*
X31443D02*
X33019Y34002D01*
X32161Y35578D02*
X33738Y34002D01*
X30724Y35578D02*
X32301Y34002D01*
X31128D02*
X32705Y35578D01*
X29397Y36582D02*
X30934Y38118D01*
X28903D02*
X30439Y36582D01*
X29621Y38118D02*
X31158Y36582D01*
X28184Y38118D02*
X29721Y36582D01*
X28679D02*
X30216Y38118D01*
X30339D02*
X31876Y36582D01*
X30116D02*
X31653Y38118D01*
X28569Y35578D02*
X30146Y34002D01*
X27851Y35578D02*
X29427Y34002D01*
X28254D02*
X29831Y35578D01*
X34799Y15402D02*
X52396Y32998D01*
X34741D02*
X52338Y15402D01*
X35459Y32998D02*
X53056Y15402D01*
X25652Y16312D02*
X42338Y32998D01*
X25652Y17031D02*
X41619Y32998D01*
X27557D02*
X45154Y15402D01*
X33568Y14889D02*
X51677Y32998D01*
X33304D02*
X51648Y14654D01*
X34023Y32998D02*
X51922Y15099D01*
X26120Y32998D02*
X44160Y14958D01*
X26838Y32998D02*
X44520Y15317D01*
X25440Y17537D02*
X40901Y32998D01*
X25081Y17897D02*
X40183Y32998D01*
X25652D02*
X52249D01*
X25632Y19885D02*
X38746Y32998D01*
X25273Y20244D02*
X38027Y32998D01*
X25652Y19186D02*
X39464Y32998D01*
X18055Y5842D02*
X45212Y32998D01*
X17647Y6152D02*
X44493Y32998D01*
X18415Y5483D02*
X45930Y32998D01*
X16210Y6152D02*
X43056Y32998D01*
X16928Y6152D02*
X43775Y32998D01*
X32586D02*
X50183Y15402D01*
X31925D02*
X49522Y32998D01*
X32644Y15402D02*
X50241Y32998D01*
X29724Y15356D02*
X47367Y32998D01*
X29712D02*
X47309Y15402D01*
X30431Y32998D02*
X48027Y15402D01*
X31867Y32998D02*
X49574Y15292D01*
X31149Y32998D02*
X49215Y14932D01*
X33209Y15248D02*
X50959Y32998D01*
X30442Y15356D02*
X48085Y32998D01*
X30827Y15022D02*
X48804Y32998D01*
X25544Y32856D02*
X42998Y15402D01*
X25184Y32497D02*
X42280Y15402D01*
X25652Y31312D02*
X41813Y15150D01*
X25377Y30149D02*
X40125Y15402D01*
X24959Y29848D02*
X39465Y15343D01*
X28275Y32998D02*
X46568Y14705D01*
X18572Y4922D02*
X46648Y32998D01*
X28994D02*
X46867Y15125D01*
X25652Y30593D02*
X41488Y14756D01*
X24241Y29848D02*
X39106Y14983D01*
X30006Y35578D02*
X31583Y34002D01*
X25264Y25264D02*
X32998Y32998D01*
X25606Y24887D02*
X33717Y32998D01*
X29287Y35578D02*
X30864Y34002D01*
X28973D02*
X30549Y35578D01*
X29691Y34002D02*
X31268Y35578D01*
X25652Y22059D02*
X36591Y32998D01*
X25466Y22592D02*
X35872Y32998D01*
X25652Y21341D02*
X37309Y32998D01*
X25606Y24169D02*
X34435Y32998D01*
X25606Y24892D02*
X35096Y15402D01*
X25264Y25264D02*
X32998Y32998D01*
X24757Y25476D02*
X32280Y32998D01*
X25106Y22951D02*
X35154Y32998D01*
X19918Y22792D02*
X30125Y32998D01*
X19199Y22792D02*
X29406Y32998D01*
X24039Y25476D02*
X31562Y32998D01*
X14152Y38501D02*
X37251Y15402D01*
X14152Y39219D02*
X37969Y15402D01*
X14152Y37783D02*
X36758Y15176D01*
X14152Y37064D02*
X36408Y14807D01*
X20636Y22792D02*
X30843Y32998D01*
X25606Y24173D02*
X34411Y15368D01*
X25065Y23277D02*
X32940Y15402D01*
X25652Y21972D02*
X32222Y15402D01*
X25652Y19817D02*
X30113Y15356D01*
X25651Y21254D02*
X31704Y15201D01*
X25652Y19098D02*
X29394Y15356D01*
X25424Y23636D02*
X34052Y15009D01*
X25318Y15840D02*
X31998Y9159D01*
X33868Y14826D02*
X34444Y15402D01*
X25292Y20895D02*
X31345Y14842D01*
X25652Y16225D02*
X31998Y9878D01*
X23154Y15848D02*
X31998Y7004D01*
X22436Y15848D02*
X31998Y6286D01*
X24123Y15598D02*
X31998Y7723D01*
X20281Y15848D02*
X29911Y6218D01*
X24841Y15598D02*
X31998Y8441D01*
X21717Y15848D02*
X31595Y5971D01*
X15970Y15848D02*
X31317Y502D01*
X16688Y15848D02*
X32035Y502D01*
X20999Y15848D02*
X31256Y5591D01*
X15601Y15499D02*
X30598Y502D01*
X47144Y15402D02*
X48296D01*
X46568Y13674D02*
Y14826D01*
X46332Y14224D02*
X46568Y13987D01*
X46332Y13674D02*
Y14826D01*
X45756Y15402D02*
X46332Y14826D01*
Y14003D02*
X46568Y14239D01*
X46247Y13590D02*
X47218Y12618D01*
X45888Y13231D02*
X47218Y11900D01*
Y11221D02*
Y13098D01*
X45756D02*
X46332Y13674D01*
X46568D02*
X47144Y13098D01*
X45502Y12454D02*
X46645Y13598D01*
X44604Y15402D02*
X45756D01*
X45502Y13098D02*
X45756D01*
X44028Y13674D02*
X44498Y13204D01*
X43792Y13890D02*
X44498Y13183D01*
X43146Y13098D02*
X44498Y11746D01*
X45502Y12898D02*
X47199Y11201D01*
X45502Y11736D02*
X47004Y13238D01*
X45502Y11017D02*
X47218Y12734D01*
X45502Y11001D02*
Y13098D01*
X43142Y11531D02*
X44498Y12888D01*
X47592Y10090D02*
X47965Y9717D01*
X47233Y9730D02*
X47605Y9358D01*
X46874Y9371D02*
X47246Y8999D01*
X45502Y10743D02*
X46121Y10124D01*
X45502Y10499D02*
Y11001D01*
X46514Y9012D02*
X46887Y8639D01*
X46579Y8332D02*
X49758Y11511D01*
X46328Y8081D02*
X46579Y8332D01*
X46328Y8081D02*
X46579Y8332D01*
X46155Y8653D02*
X46528Y8280D01*
X45796Y8294D02*
X46328Y7761D01*
X45502Y11462D02*
X46480Y10483D01*
X45502Y12180D02*
X46840Y10842D01*
X45264Y10262D02*
X45762Y9764D01*
X45502Y10499D02*
Y11001D01*
X45251Y10248D02*
X45502Y10499D01*
X45251Y10248D02*
X45502Y10499D01*
X44905Y9903D02*
X45403Y9405D01*
X44039Y8042D02*
X47218Y11221D01*
X44546Y9544D02*
X45044Y9046D01*
X41499Y8002D02*
X44498Y11001D01*
X44187Y9184D02*
X44684Y8687D01*
X44028Y13674D02*
Y14826D01*
X43792Y14608D02*
X44028Y14372D01*
X43792Y14336D02*
X44028Y14573D01*
X43792Y13674D02*
Y14826D01*
X43216Y15402D02*
X43792Y14826D01*
X43216Y13098D02*
X43792Y13674D01*
X43540Y13423D02*
X44498Y12465D01*
X43142Y12249D02*
X44297Y13405D01*
X44498Y11001D02*
Y13204D01*
X43142Y12968D02*
X44028Y13855D01*
X43142Y11891D02*
Y13098D01*
X42064Y15402D02*
X43216D01*
X41488Y14826D02*
X42064Y15402D01*
X41488Y13674D02*
Y14826D01*
X41252Y14275D02*
X41488Y14038D01*
X41252Y13674D02*
Y14826D01*
Y13952D02*
X41488Y14188D01*
X41193Y13615D02*
X42138Y12669D01*
X40833Y13256D02*
X42138Y11951D01*
Y11891D02*
Y13098D01*
X40676D02*
X41252Y13674D01*
X41488D02*
X42064Y13098D01*
X43142Y11666D02*
X44153Y10655D01*
X43142Y12385D02*
X44498Y11028D01*
X42891Y11138D02*
X43142Y11389D01*
Y11891D01*
Y11389D02*
Y11891D01*
X42891Y11138D02*
X43142Y11389D01*
X43827Y8825D02*
X44325Y8328D01*
X43788Y7791D02*
X44039Y8042D01*
X43788Y7791D02*
X44039Y8042D01*
X42921Y11169D02*
X43794Y10296D01*
X43468Y8466D02*
X43966Y7968D01*
X42562Y10809D02*
X43434Y9937D01*
X42202Y10450D02*
X43075Y9578D01*
X41843Y10091D02*
X42716Y9218D01*
X40273Y13098D02*
X41809Y11562D01*
X41484Y9732D02*
X42357Y8859D01*
X41125Y9372D02*
X41997Y8500D01*
X39712Y7959D02*
X42891Y11138D01*
X40766Y9013D02*
X41638Y8141D01*
X40406Y8654D02*
X41279Y7781D01*
X41248Y7751D02*
X41499Y8002D01*
X47332Y7579D02*
X50511Y10758D01*
X47332Y7100D02*
X52298Y12067D01*
X47639Y7887D02*
X48868Y6658D01*
X46328Y7579D02*
Y8081D01*
Y7579D02*
Y8081D01*
Y6402D02*
Y7579D01*
X47352Y6402D02*
X48868Y7918D01*
X47332Y7476D02*
X48538Y6270D01*
X47332Y6758D02*
X48179Y5911D01*
X47332Y6402D02*
Y7579D01*
X47531Y6402D02*
X48100Y5832D01*
X44792Y6715D02*
X49758Y11682D01*
X42323Y6402D02*
X47218Y11297D01*
X44792Y7289D02*
X47971Y10468D01*
X45437Y7934D02*
X46328Y7043D01*
X42252Y7049D02*
X47218Y12016D01*
X45077Y7575D02*
X46251Y6402D01*
X45453Y5940D02*
X46328Y6815D01*
X45094Y6299D02*
X46328Y7534D01*
X46129Y6402D02*
X46328D01*
X44792Y7143D02*
X45831Y6103D01*
X45560Y5832D02*
X46129Y6402D01*
X47531Y3598D02*
X48100Y4168D01*
X45226Y3834D02*
X48559Y502D01*
X45762D02*
X48859Y3598D01*
X47332Y6402D02*
X47531D01*
X45560Y4168D02*
X46129Y3598D01*
X47531D01*
X47574Y3642D02*
X50714Y502D01*
X47199D02*
X50752Y4055D01*
X46899Y3598D02*
X49996Y502D01*
X46181Y3598D02*
X49277Y502D01*
X46481D02*
X49577Y3598D01*
X42879Y4026D02*
X46404Y502D01*
X42170D02*
X45698Y4030D01*
X42888Y502D02*
X46057Y3670D01*
X44991Y3598D02*
X45560Y4168D01*
X42520Y3667D02*
X45685Y502D01*
X45044D02*
X48405Y3863D01*
X44325Y502D02*
X47422Y3598D01*
X44744D02*
X47840Y502D01*
X43607D02*
X46704Y3598D01*
X44025D02*
X47122Y502D01*
X43788Y7289D02*
Y7791D01*
X42750Y7747D02*
X43788Y6709D01*
Y6402D02*
Y7289D01*
Y7791D01*
X43109Y8107D02*
X43788Y7427D01*
X42252Y6402D02*
Y7249D01*
X44792Y6402D02*
Y7289D01*
X42391Y7388D02*
X43483Y6296D01*
X42746Y6106D02*
X43788Y7149D01*
X42252Y6809D02*
X43124Y5936D01*
X42451Y6402D02*
X43020Y5832D01*
X42252Y7249D02*
X45251Y10248D01*
X39712Y6664D02*
X44498Y11451D01*
X41248Y7751D02*
X41499Y8002D01*
X41248Y7249D02*
Y7751D01*
X40047Y8295D02*
X41248Y7094D01*
Y7249D02*
Y7751D01*
Y6402D02*
Y7249D01*
X40039Y6273D02*
X41248Y7483D01*
X40398Y5914D02*
X41248Y6764D01*
X39712Y6475D02*
X39785Y6402D01*
X39712D02*
X39911D01*
X44792D02*
X44991D01*
X43589D02*
X43788D01*
X44991D02*
X45560Y5832D01*
X43020D02*
X43589Y6402D01*
X42252D02*
X42451D01*
Y3598D02*
X43020Y4168D01*
X41870Y3598D02*
X44967Y502D01*
X41452D02*
X44548Y3598D01*
X43589D02*
X44991D01*
X43020Y4168D02*
X43589Y3598D01*
X41152D02*
X44248Y502D01*
X41049Y6402D02*
X41248D01*
X40480Y5832D02*
X41049Y6402D01*
X40480Y4168D02*
X41049Y3598D01*
X39911Y6402D02*
X40480Y5832D01*
X39911Y3598D02*
X40480Y4168D01*
X40172Y3860D02*
X43530Y502D01*
X40015D02*
X43350Y3837D01*
X40733Y502D02*
X43830Y3598D01*
X41049D02*
X42451D01*
X39715D02*
X42812Y502D01*
X39524Y15402D02*
X40676D01*
X38948Y14826D02*
X39524Y15402D01*
X38712Y13941D02*
X38948Y13704D01*
X38712Y14659D02*
X38948Y14423D01*
X38712Y13674D02*
Y14826D01*
Y14285D02*
X38948Y14522D01*
Y13674D02*
X39524Y13098D01*
X38948Y13704D02*
X39554Y13098D01*
X38486Y13448D02*
X41091Y10843D01*
X38948Y13674D02*
Y14826D01*
X38136Y13098D02*
X38712Y13674D01*
X38136Y15402D02*
X38712Y14826D01*
X36984Y15402D02*
X38136D01*
X36408Y13674D02*
X36984Y13098D01*
X36408Y13674D02*
Y14826D01*
X36172Y14326D02*
X36408Y14089D01*
X36172Y13901D02*
X36408Y14137D01*
X36138Y13641D02*
X40013Y9766D01*
X33002Y7857D02*
X38948Y13804D01*
X33002Y7138D02*
X39243Y13380D01*
X33002Y10012D02*
X36536Y13547D01*
X33431Y13474D02*
X38708Y8197D01*
X39554Y13098D02*
X41450Y11203D01*
X38117Y13098D02*
X40732Y10484D01*
X38959Y8712D02*
X42138Y11891D01*
X39524Y13098D02*
X40676D01*
X38708Y8461D02*
X38959Y8712D01*
X38708Y8461D02*
X38959Y8712D01*
X39712Y6402D02*
Y7959D01*
Y7383D02*
X44498Y12169D01*
X39712Y7912D02*
X41222Y6402D01*
X38708Y7959D02*
Y8461D01*
Y7959D02*
Y8461D01*
X35779Y13282D02*
X39654Y9406D01*
X35244Y13098D02*
X39295Y9047D01*
X37399Y13098D02*
X40372Y10125D01*
X33002Y9294D02*
X36895Y13187D01*
X36984Y13098D02*
X38136D01*
X34525D02*
X38936Y8688D01*
X33002Y6420D02*
X39680Y13098D01*
X33002Y12467D02*
X38708Y6760D01*
X33072Y13115D02*
X38708Y7478D01*
X33002Y8575D02*
X37525Y13098D01*
X35596Y15402D02*
X36172Y14826D01*
X34444Y15402D02*
X35596D01*
X33632Y14234D02*
X33868Y14471D01*
X33056Y15402D02*
X33632Y14826D01*
X31904Y15402D02*
X33056D01*
X33632Y14710D02*
X33868Y14474D01*
X36172Y13674D02*
Y14826D01*
X33868Y13674D02*
Y14826D01*
X33632Y13992D02*
X33868Y13755D01*
X31328Y13674D02*
Y14826D01*
X33632Y13674D02*
Y14826D01*
X31328Y14805D02*
X31925Y15402D01*
X31328Y14826D02*
X31904Y15402D01*
X30493Y15356D02*
X31046Y14803D01*
X29387Y15356D02*
X30493D01*
X28834Y14803D02*
X29387Y15356D01*
X31046Y14423D02*
X31328Y14140D01*
X31046Y14522D02*
X31328Y14805D01*
X31046Y13803D02*
X31328Y14086D01*
X31046Y13697D02*
Y14803D01*
X33868Y13674D02*
X34444Y13098D01*
X33868Y13755D02*
X34525Y13098D01*
X34444D02*
X35596D01*
X33056D02*
X33632Y13674D01*
X31328D02*
X31904Y13098D01*
X31998D01*
X35596D02*
X36172Y13674D01*
X33002Y11449D02*
X34651Y13098D01*
X33002Y10731D02*
X35369Y13098D01*
X33002Y12886D02*
X33868Y13753D01*
X33002Y12167D02*
X34188Y13354D01*
X29387Y13144D02*
X30493D01*
X28834Y13760D02*
X29450Y13144D01*
X28834Y13697D02*
X29387Y13144D01*
X30690Y13342D02*
X31998Y12033D01*
X30169Y13144D02*
X31998Y11315D01*
X29450Y13144D02*
X31998Y10596D01*
X31046Y13704D02*
X31998Y12752D01*
X30493Y13144D02*
X31046Y13697D01*
X33717Y5699D02*
X41591Y13572D01*
X33358Y6058D02*
X40398Y13098D01*
X39712Y7194D02*
X40776Y6129D01*
X38708Y6402D02*
Y7959D01*
X37808Y5701D02*
X38509Y6402D01*
X38708D01*
X33784Y5047D02*
X41950Y13213D01*
X33002Y7438D02*
X39938Y502D01*
X33002Y6719D02*
X39219Y502D01*
X37808Y4299D02*
Y5701D01*
X33784Y4368D02*
Y5632D01*
X30675Y502D02*
X42138Y11965D01*
X29957Y502D02*
X42138Y12683D01*
X33002Y11748D02*
X38429Y6321D01*
X33002Y10312D02*
X37808Y5505D01*
X33002Y11030D02*
X38070Y5962D01*
X33002Y9593D02*
X37808Y4786D01*
X33002Y8156D02*
X40656Y502D01*
X33002Y8875D02*
X41375Y502D01*
X32112D02*
X38708Y7098D01*
X31394Y502D02*
X38708Y7816D01*
X32831Y502D02*
X37808Y5479D01*
X36423Y502D02*
X39519Y3598D01*
X35704Y502D02*
X38801Y3598D01*
X38509D02*
X39911D01*
X37808Y4299D02*
X38509Y3598D01*
X34267Y502D02*
X37937Y4171D01*
X34986Y502D02*
X38296Y3812D01*
X38996Y3598D02*
X42093Y502D01*
X38578D02*
X41675Y3598D01*
X39296Y502D02*
X42393Y3598D01*
X37141Y502D02*
X40644Y4004D01*
X37860Y502D02*
X41003Y3645D01*
X32393Y3736D02*
X35627Y502D01*
X31109Y4302D02*
X34909Y502D01*
X4500D02*
X94500D01*
X33152Y3736D02*
X33784Y4368D01*
X30750Y3942D02*
X34190Y502D01*
X33784Y5219D02*
X38501Y502D01*
X33549D02*
X37808Y4761D01*
X33784Y4500D02*
X37783Y502D01*
X33491Y4075D02*
X37064Y502D01*
X33111Y3736D02*
X36346Y502D01*
X33002Y6264D02*
Y13098D01*
X29926Y6218D02*
X31998Y8290D01*
X33002Y6264D02*
X33152D01*
X31998D02*
Y13098D01*
X31888Y6264D02*
X31998D01*
X29371Y6218D02*
X30589D01*
X30976Y5831D02*
X31998Y6854D01*
X30617Y6190D02*
X31998Y7572D01*
X33152Y6264D02*
X33784Y5632D01*
X31256D02*
X31888Y6264D01*
X30589Y6218D02*
X31198Y5609D01*
X23606Y4927D02*
X31841Y13162D01*
X23435Y5474D02*
X31482Y13521D01*
X23606Y4208D02*
X31998Y12601D01*
X22630Y6106D02*
X29668Y13144D01*
X15242Y15140D02*
X29880Y502D01*
X23075Y5833D02*
X30387Y13144D01*
X22773Y502D02*
X31998Y9727D01*
X22054Y502D02*
X31998Y10446D01*
X23491Y502D02*
X31998Y9009D01*
X20617Y502D02*
X31998Y11883D01*
X21336Y502D02*
X31998Y11164D01*
X31256Y4368D02*
Y5632D01*
X31198Y4931D02*
X31256Y4873D01*
X31198Y4617D02*
X31256Y4674D01*
X31198Y4391D02*
Y5609D01*
Y5335D02*
X31256Y5393D01*
Y4368D02*
X31888Y3736D01*
X30192Y3782D02*
X33472Y502D01*
X31888Y3736D02*
X33152D01*
X30589Y3782D02*
X31198Y4391D01*
X28762Y4493D02*
X29473Y3782D01*
X26365Y502D02*
X29645Y3782D01*
X29371D02*
X30589D01*
X29473D02*
X32754Y502D01*
X28520D02*
X31821Y3803D01*
X29238Y502D02*
X32473Y3736D01*
X27802Y502D02*
X31462Y4162D01*
X27083Y502D02*
X30363Y3782D01*
X26908Y39122D02*
X28445Y40658D01*
X26363D02*
X27899Y39122D01*
X27081Y40658D02*
X28618Y39122D01*
X26190D02*
X27727Y40658D01*
X25606Y43571D02*
X27515Y41662D01*
X25652Y40651D02*
X27181Y39122D01*
X27799Y40658D02*
X29336Y39122D01*
X27627D02*
X29164Y40658D01*
X27466Y38118D02*
X29003Y36582D01*
X26747Y38118D02*
X28284Y36582D01*
X27242D02*
X28779Y38118D01*
X25458Y43000D02*
X26796Y41662D01*
X25266Y45347D02*
X28952Y41662D01*
X25599Y39249D02*
X27008Y40658D01*
X25239Y39608D02*
X26290Y40658D01*
X25076Y40008D02*
X25652Y40584D01*
X23924Y39772D02*
X25076D01*
X25326Y40258D02*
X26463Y39122D01*
X25018Y37232D02*
X25905Y38118D01*
X25406Y36901D02*
X26624Y38118D01*
X24857Y40008D02*
X25744Y39122D01*
X25076Y39772D02*
X25652Y39196D01*
X26029Y38118D02*
X27566Y36582D01*
X25805D02*
X27342Y38118D01*
X26524Y36582D02*
X28060Y38118D01*
X25695Y35578D02*
X27272Y34002D01*
X25573Y34194D02*
X26957Y35578D01*
X25652Y34002D02*
Y34116D01*
X27132Y35578D02*
X28709Y34002D01*
X26817D02*
X28394Y35578D01*
X27536Y34002D02*
X29113Y35578D01*
X26099Y34002D02*
X27676Y35578D01*
X26414D02*
X27990Y34002D01*
X25518Y37911D02*
X26847Y36582D01*
X25159Y37552D02*
X26129Y36582D01*
X25076Y34928D02*
X25652Y35504D01*
X25076Y37468D02*
X25652Y38044D01*
X23924Y37468D02*
X25076D01*
Y37232D02*
X25652Y36656D01*
X25351Y35204D02*
X26554Y34002D01*
X25214Y34553D02*
X26239Y35578D01*
X24908Y34928D02*
X25835Y34002D01*
X23924Y34692D02*
X25076D01*
X25652Y34116D01*
X14152Y46404D02*
X23624Y36931D01*
X14152Y47122D02*
X24042Y37232D01*
X14152Y36423D02*
X23405Y45676D01*
X14152Y45685D02*
X23348Y36488D01*
X14152Y37141D02*
X23394Y46384D01*
X14152Y44967D02*
X23348Y35770D01*
X14152Y44248D02*
X23816Y34584D01*
X14152Y35704D02*
X23764Y45317D01*
X14152Y43530D02*
X23457Y34224D01*
X14152Y34986D02*
X23394Y44229D01*
X14152Y34267D02*
X23394Y43510D01*
X14152Y40733D02*
X24083Y50665D01*
X14152Y41452D02*
X23724Y51024D01*
X14152Y49277D02*
X23791Y39638D01*
X14152Y49996D02*
X23348Y40799D01*
X14152Y50714D02*
X23348Y41517D01*
X14152Y40015D02*
X23394Y49258D01*
X14152Y38578D02*
X23598Y48024D01*
X14152Y48559D02*
X23432Y39279D01*
X14152Y37860D02*
X23966Y47674D01*
X14152Y39296D02*
X23394Y48539D01*
X14152Y47840D02*
X23348Y38644D01*
X24685Y39772D02*
X24922Y40008D01*
X23924D02*
X25076D01*
X23924Y37232D02*
X25076D01*
X24139Y40008D02*
X24376Y39772D01*
X23966D02*
X24203Y40008D01*
X24300Y37232D02*
X24537Y37468D01*
X24634Y34692D02*
X24871Y34928D01*
X24524Y37468D02*
X24760Y37232D01*
X23924Y34928D02*
X25076D01*
X24190D02*
X24427Y34692D01*
X23348Y34116D02*
X23924Y34692D01*
X23348Y39196D02*
X23924Y39772D01*
X23348Y40584D02*
X23924Y40008D01*
X23348Y39154D02*
X23966Y39772D01*
X23348Y40584D02*
Y41736D01*
Y38044D02*
Y39196D01*
Y36656D02*
X23924Y37232D01*
X23348Y38044D02*
X23924Y37468D01*
X23348Y35504D02*
X23924Y34928D01*
X14152Y42812D02*
X23348Y33615D01*
Y35504D02*
Y36656D01*
X25652Y31399D02*
X27251Y32998D01*
X25381Y31847D02*
X26533Y32998D01*
X25652Y30681D02*
X27969Y32998D01*
X24967Y32152D02*
X25814Y32998D01*
X23348Y32964D02*
X23924Y32388D01*
X25076D02*
X25652Y32964D01*
X18481Y22792D02*
X28688Y32998D01*
X14152Y35627D02*
X24303Y25476D01*
X14171Y22792D02*
X23846Y32467D01*
X14152Y34909D02*
X23766Y25294D01*
X14152Y34190D02*
X23407Y24935D01*
X14152Y42093D02*
X24093Y32152D01*
X8991Y25515D02*
X23704Y40228D01*
X14152Y36346D02*
X25022Y25476D01*
X14152Y41375D02*
X23649Y31877D01*
X14152Y33549D02*
X23572Y42969D01*
X8833Y23202D02*
X23512Y37881D01*
X12015Y22792D02*
X24152Y34928D01*
X9164Y22814D02*
X23871Y37521D01*
X14066Y32839D02*
X23924Y22981D01*
X11297Y22792D02*
X23679Y35174D01*
X13452Y22792D02*
X23487Y32826D01*
X25652Y30424D02*
Y31576D01*
X25076Y32152D02*
X25652Y31576D01*
X25076Y29848D02*
X25652Y30424D01*
X24575Y32388D02*
X24812Y32152D01*
X24249D02*
X24486Y32388D01*
X23924Y29848D02*
X25076D01*
X25053Y25476D02*
X25606Y24923D01*
X25022Y25476D02*
X25606Y24892D01*
Y23817D02*
Y24923D01*
X23947Y25476D02*
X25053D01*
X23924Y32152D02*
X25076D01*
X23924Y32388D02*
X25076D01*
X23394Y24923D02*
X23947Y25476D01*
X23348Y31576D02*
X23924Y32152D01*
X23348Y30424D02*
X23924Y29848D01*
X17763Y22792D02*
X24819Y29848D01*
X17044Y22792D02*
X24101Y29848D01*
X23394Y24831D02*
X24039Y25476D01*
X16326Y22792D02*
X23653Y30119D01*
X23348Y32964D02*
Y34116D01*
X13826Y32598D02*
X14152Y32924D01*
X13826Y32598D02*
X14152Y32924D01*
Y33576D01*
Y56674D01*
Y32924D02*
Y33576D01*
Y33472D02*
X23394Y24229D01*
X14152Y39938D02*
X23348Y30741D01*
X13707Y32480D02*
X23395Y22792D01*
X14152Y40656D02*
X23348Y31459D01*
X13348Y32120D02*
X22677Y22792D01*
X10817Y31652D02*
X12848Y33683D01*
X10099Y31652D02*
X12848Y34401D01*
X10924Y31652D02*
X12848Y33576D01*
Y56674D01*
X8662Y31652D02*
X12848Y35838D01*
X9381Y31652D02*
X12848Y35119D01*
X10578Y22792D02*
X23348Y35562D01*
X9860Y22792D02*
X23348Y36280D01*
X12734Y22792D02*
X23348Y33406D01*
X9118Y24923D02*
X23348Y39154D01*
X11902Y30674D02*
X13826Y32598D01*
X23348Y30424D02*
Y31576D01*
X12270Y31043D02*
X20522Y22792D01*
X23394Y23817D02*
Y24923D01*
X11911Y30684D02*
X19803Y22792D01*
X11576Y30348D02*
X11902Y30674D01*
X11576Y30348D02*
X11902Y30674D01*
X15607Y22792D02*
X23348Y30533D01*
X14889Y22792D02*
X23348Y31251D01*
X21355Y22792D02*
X23394Y24831D01*
X12989Y31761D02*
X21958Y22792D01*
X12629Y31402D02*
X21240Y22792D01*
X10924Y30348D02*
X11576D01*
X10924D02*
X11576D01*
X8654D02*
X16211Y22792D01*
X9118Y24271D02*
Y25389D01*
X9051Y24204D02*
X10464Y22792D01*
X10809Y30348D02*
X18366Y22792D01*
X10091Y30348D02*
X17648Y22792D01*
X11528Y30348D02*
X19085Y22792D01*
X9373Y30348D02*
X16929Y22792D01*
X9118Y24856D02*
X11182Y22792D01*
X7872Y44063D02*
X12848Y39086D01*
X7872Y40919D02*
X12848Y45896D01*
X7872Y38764D02*
X12848Y43741D01*
X7872Y46218D02*
X12848Y41241D01*
X7872Y41637D02*
X12848Y46614D01*
X7872Y40584D02*
Y41736D01*
Y41189D02*
X12848Y36212D01*
X7872Y36608D02*
X12848Y41585D01*
X7872Y35890D02*
X12848Y40867D01*
X7872Y43344D02*
X12848Y38367D01*
X7872Y38045D02*
X12848Y43022D01*
X7728Y39339D02*
X12848Y44459D01*
X7369Y39698D02*
X12848Y45177D01*
X7622Y42875D02*
X12848Y37649D01*
X7789Y45582D02*
X12848Y40523D01*
X7430Y45223D02*
X12848Y39804D01*
X7296Y40008D02*
X7872Y40584D01*
X7815Y40527D02*
X12848Y35494D01*
X7456Y40168D02*
X12848Y34775D01*
X7344Y34644D02*
X12848Y40148D01*
X7231Y42548D02*
X12848Y36931D01*
X7536Y36991D02*
X12848Y42304D01*
X7703Y34284D02*
X12848Y39430D01*
X7296Y34928D02*
X7872Y35504D01*
X7296Y34692D02*
X7872Y34116D01*
Y38044D02*
Y39196D01*
X7296Y37232D02*
X7872Y36656D01*
Y35504D02*
Y36656D01*
Y33735D02*
X12848Y38712D01*
X7872Y39034D02*
X12848Y34057D01*
X7872Y33016D02*
X12848Y37993D01*
X7872Y38315D02*
X12730Y33457D01*
X7648Y37820D02*
X12370Y33098D01*
X7296Y39772D02*
X7872Y39196D01*
X7295Y37468D02*
X7872Y38045D01*
X6144Y37468D02*
X7296D01*
X6144Y40008D02*
X7296D01*
X6144Y39772D02*
X7296D01*
Y37468D02*
X7872Y38044D01*
X6144Y34928D02*
X7296D01*
X6144Y34692D02*
X7296D01*
X7058Y37232D02*
X7295Y37468D01*
X6144Y37232D02*
X7296D01*
X5568Y40618D02*
X6178Y40008D01*
X502Y42812D02*
X6113Y37200D01*
X5568Y40584D02*
X6144Y40008D01*
X502Y42093D02*
X5754Y36841D01*
X502Y37141D02*
X6027Y42666D01*
X5568Y40584D02*
Y41736D01*
X502Y40656D02*
X5568Y35589D01*
X502Y35704D02*
X5568Y40771D01*
X502Y34986D02*
X5834Y40318D01*
X502Y36423D02*
X5568Y41489D01*
X502Y41375D02*
X5568Y36308D01*
X502Y40015D02*
X5860Y45373D01*
X502Y45685D02*
X5568Y40618D01*
X502Y44967D02*
X5920Y39548D01*
X502Y46404D02*
X5568Y41337D01*
X502Y41452D02*
X5568Y46518D01*
X502Y40733D02*
X5568Y45800D01*
X502Y43530D02*
X5568Y38463D01*
X502Y39296D02*
X6294Y45088D01*
X502Y37860D02*
X5667Y43025D01*
X502Y44248D02*
X5568Y39182D01*
X502Y38578D02*
X5568Y43645D01*
X6897Y40008D02*
X7134Y39772D01*
X6724D02*
X6961Y40008D01*
X6563Y37468D02*
X6800Y37232D01*
X6339D02*
X6576Y37468D01*
X6178Y40008D02*
X6415Y39772D01*
X5568Y35589D02*
X6229Y34928D01*
X6673Y34692D02*
X6910Y34928D01*
X6229D02*
X6466Y34692D01*
X6948Y34928D02*
X7185Y34692D01*
X5568Y35504D02*
X6144Y34928D01*
X5568Y34116D02*
X6144Y34692D01*
X5568Y38044D02*
X6144Y37468D01*
X5568Y39196D02*
X6144Y39772D01*
X5568Y36656D02*
X6144Y37232D01*
X5568Y38044D02*
Y39196D01*
Y35504D02*
Y36656D01*
X502Y39938D02*
X5946Y34493D01*
X502Y34267D02*
X6243Y40008D01*
X502Y39219D02*
X5587Y34134D01*
X502Y33549D02*
X5568Y38616D01*
X502Y38501D02*
X5568Y33434D01*
X7872Y36160D02*
X11652Y32379D01*
X7840Y35473D02*
X11293Y32020D01*
X7796Y31652D02*
X10924D01*
X7872Y34005D02*
X10225Y31652D01*
X7872Y32964D02*
Y34116D01*
X7673Y32766D02*
X8788Y31652D01*
X8632Y25874D02*
X23348Y40591D01*
X7987Y25948D02*
X23348Y41309D01*
X8367Y23454D02*
X23348Y38435D01*
X7944Y31652D02*
X12848Y36556D01*
X7872Y33286D02*
X9506Y31652D01*
X7511Y31937D02*
X12848Y37275D01*
X7282Y37468D02*
X12011Y32739D01*
X7481Y35114D02*
X10934Y31661D01*
X7296Y32388D02*
X7872Y32964D01*
X7244Y32388D02*
X7872Y33016D01*
X7296Y32152D02*
X7796Y31652D01*
X502Y34909D02*
X12619Y22792D01*
X502Y19181D02*
X23931Y42610D01*
X502Y34190D02*
X11900Y22792D01*
X502Y33472D02*
X8026Y25948D01*
X7314Y32407D02*
X8069Y31652D01*
X8559Y25948D02*
X9118Y25389D01*
X7796Y30348D02*
X10924D01*
X7441Y25948D02*
X8559D01*
X7296Y29848D02*
X7796Y30348D01*
X7936D02*
X15493Y22792D01*
X7507Y30059D02*
X14774Y22792D01*
X8559Y23712D02*
X9118Y24271D01*
X6281Y29848D02*
X13337Y22792D01*
X502Y22773D02*
X8077Y30348D01*
X6999Y29848D02*
X14056Y22792D01*
X502Y30598D02*
X7646Y23454D01*
X6882Y24271D02*
X7441Y23712D01*
X502Y19899D02*
X10951Y30348D01*
X502Y20617D02*
X10233Y30348D01*
X502Y24851D02*
X11375Y13977D01*
X502Y22054D02*
X8796Y30348D01*
X502Y21336D02*
X9514Y30348D01*
X7007Y32152D02*
X7244Y32388D01*
X6614D02*
X6851Y32152D01*
X6144Y32388D02*
X7296D01*
X5568Y32964D02*
X6144Y32388D01*
X5568Y32964D02*
Y34116D01*
X6288Y32152D02*
X6525Y32388D01*
X502Y27083D02*
X5976Y32557D01*
X502Y32754D02*
X7374Y25881D01*
X5568Y31576D02*
X6144Y32152D01*
X502Y28520D02*
X5568Y33587D01*
X502Y27802D02*
X5616Y32916D01*
X502Y32112D02*
X6001Y37612D01*
X502Y37783D02*
X6138Y32146D01*
X502Y37064D02*
X5779Y31787D01*
X502Y31394D02*
X5568Y36461D01*
X502Y32831D02*
X5642Y37971D01*
X502Y36346D02*
X5568Y31279D01*
X502Y29957D02*
X5809Y35264D01*
X502Y35627D02*
X5568Y30561D01*
X502Y29238D02*
X6192Y34928D01*
X502Y4500D02*
Y74500D01*
Y30675D02*
X5568Y35742D01*
X6144Y29848D02*
X7296D01*
X6144Y32152D02*
X7296D01*
X6882Y25389D02*
X7441Y25948D01*
X5568Y30424D02*
X6144Y29848D01*
X5568Y30424D02*
Y31576D01*
X6882Y24271D02*
Y25389D01*
X502Y27006D02*
X7006Y20502D01*
X502Y27725D02*
X7365Y20861D01*
X502Y18462D02*
X6882Y24843D01*
X502Y26288D02*
X6836Y19953D01*
X502Y25569D02*
X6836Y19235D01*
X502Y31317D02*
X6882Y24936D01*
X502Y32035D02*
X7015Y25522D01*
X502Y24928D02*
X5783Y30209D01*
X502Y26365D02*
X5568Y31432D01*
X502Y25646D02*
X5568Y30713D01*
X502Y23491D02*
X6859Y29848D01*
X502Y29880D02*
X7173Y23208D01*
X502Y28443D02*
X6836Y22108D01*
X502Y24209D02*
X6142Y29850D01*
X502Y29162D02*
X6836Y22827D01*
X25076Y22982D02*
X25652Y22406D01*
X25053Y23264D02*
X25606Y23817D01*
X25652Y21254D02*
Y22406D01*
X24359Y23264D02*
X24642Y22982D01*
X24418D02*
X24701Y23264D01*
X25076Y20678D02*
X25652Y21254D01*
X24989Y20678D02*
X25652Y21341D01*
X24790Y20678D02*
X25027Y20442D01*
X24072Y20678D02*
X24308Y20442D01*
X24752D02*
X24989Y20678D01*
X23947Y23264D02*
X25053D01*
X23924Y22982D02*
X25076D01*
X23510Y22792D02*
X23983Y23264D01*
X23394Y23817D02*
X23947Y23264D01*
X23734Y22792D02*
X23924Y22982D01*
X24034Y20442D02*
X24271Y20678D01*
X20088Y21788D02*
X23975Y17902D01*
X23924Y20678D02*
X25076D01*
X22243Y21788D02*
X23757Y20274D01*
X23348Y21254D02*
X23924Y20678D01*
X25076Y17902D02*
X25652Y17326D01*
X25076Y18138D02*
X25652Y18714D01*
Y16174D02*
Y17326D01*
X25076Y20442D02*
X25652Y19866D01*
X25027Y20442D02*
X25652Y19817D01*
Y18714D02*
Y19866D01*
Y16943D02*
X28834Y13760D01*
X25484Y18547D02*
X29032Y15000D01*
X28834Y13697D02*
Y14803D01*
X25125Y18188D02*
X28834Y14479D01*
X25076Y15598D02*
X25652Y16174D01*
X23924Y18138D02*
X25076D01*
X23924Y20442D02*
X25076D01*
X23924Y17902D02*
X25076D01*
X23348Y18714D02*
X23924Y18138D01*
X23348Y19866D02*
X23924Y20442D01*
X24367Y17902D02*
X24604Y18138D01*
X24456D02*
X24693Y17902D01*
X23674Y15848D02*
X23924Y15598D01*
X25076D01*
X23399Y17652D02*
X23905Y18158D01*
X23674Y17652D02*
X23924Y17902D01*
X23437Y22792D02*
X23734D01*
X22792D02*
X23606Y23606D01*
X23437Y22792D02*
X23734D01*
X22792D02*
X23606Y23606D01*
X22073Y22792D02*
X23394Y24113D01*
X22962Y21788D02*
X23348Y21402D01*
Y21254D02*
Y21788D01*
X21525D02*
X23398Y19915D01*
X19369Y21788D02*
X23506Y17652D01*
X17652D02*
X21788Y21788D01*
X17933D02*
X22069Y17652D01*
X15496D02*
X19633Y21788D01*
X15059D02*
X19196Y17652D01*
X15777Y21788D02*
X19914Y17652D01*
X13622Y21788D02*
X17759Y17652D01*
X12904Y21788D02*
X17040Y17652D01*
X14341Y21788D02*
X18477Y17652D01*
X17214Y21788D02*
X21351Y17652D01*
X16933D02*
X21070Y21788D01*
X17652Y17652D02*
X21788Y21788D01*
X16215Y17652D02*
X20352Y21788D01*
X16496D02*
X20633Y17652D01*
X20806Y21788D02*
X23348Y19246D01*
X19807Y17652D02*
X23379Y21224D01*
X23348Y18714D02*
Y19866D01*
X18651Y21788D02*
X22788Y17652D01*
X18370D02*
X22507Y21788D01*
X19088Y17652D02*
X23225Y21788D01*
X22681Y17652D02*
X23546Y18517D01*
X20525Y17652D02*
X23738Y20864D01*
X15951Y15848D02*
X23674D01*
X21244Y17652D02*
X23348Y19756D01*
X21962Y17652D02*
X23348Y19038D01*
X15049Y17652D02*
X15951D01*
X15049D02*
X15951D01*
X23674D01*
X14598Y17201D02*
X15049Y17652D01*
X14598Y17201D02*
X15049Y17652D01*
X12742Y9868D02*
X18722Y15848D01*
X12742Y11305D02*
X17285Y15848D01*
X12742Y9149D02*
X19441Y15848D01*
X12742Y12639D02*
X15951Y15848D01*
X12742Y12023D02*
X16567Y15848D01*
X21911Y6106D02*
X29168Y13363D01*
X19562Y15848D02*
X29282Y6129D01*
X28762Y5609D02*
X29371Y6218D01*
X20394Y5303D02*
X21197Y6106D01*
X18844Y15848D02*
X28922Y5770D01*
X21197Y6106D02*
X22803D01*
X18572Y4203D02*
X28834Y14466D01*
X17407Y15848D02*
X28762Y4493D01*
X15588Y502D02*
X28834Y13748D01*
X18125Y15848D02*
X28762Y5212D01*
X22803Y6106D02*
X23606Y5303D01*
X13001Y5817D02*
X23033Y15848D01*
X12742Y6276D02*
X22314Y15848D01*
X13360Y5457D02*
X23713Y15810D01*
X14164Y14062D02*
X22120Y6106D01*
X12742Y6994D02*
X21596Y15848D01*
X13805Y13703D02*
X21402Y6106D01*
X14883Y14780D02*
X29162Y502D01*
X13492Y4152D02*
X24938Y15598D01*
X14524Y14421D02*
X28443Y502D01*
X13492Y4871D02*
X24219Y15598D01*
X12742Y11174D02*
X23414Y502D01*
X28762Y4391D02*
X29371Y3782D01*
X28762Y4391D02*
Y5609D01*
X23349Y3441D02*
X26288Y502D01*
X23606Y3697D02*
Y5303D01*
X22990Y3081D02*
X25569Y502D01*
X24928D02*
X28790Y4363D01*
X24209Y502D02*
X28762Y5054D01*
X25646Y502D02*
X29149Y4004D01*
X23606Y4621D02*
X27725Y502D01*
X23606Y3902D02*
X27006Y502D01*
X22803Y2895D02*
X23606Y3697D01*
X21197Y2895D02*
X22803D01*
X18572Y4626D02*
X22696Y502D01*
X18329Y3432D02*
X21259Y502D01*
X21740Y2895D02*
X24133Y502D01*
X19899D02*
X22292Y2895D01*
X22458D02*
X24851Y502D01*
X18572Y3907D02*
X21977Y502D01*
X19181D02*
X21574Y2895D01*
X13446Y13344D02*
X20940Y5849D01*
X13087Y12984D02*
X20581Y5490D01*
X16094Y6152D02*
X17746D01*
X15268Y5326D02*
X16094Y6152D01*
X12742Y6076D02*
X13492Y5326D01*
X17746Y6152D02*
X18572Y5326D01*
X15268Y5210D02*
X16210Y6152D01*
X12742Y6145D02*
X18385Y502D01*
X13492Y3674D02*
Y5326D01*
X15268Y3674D02*
Y5326D01*
X12742Y7713D02*
X20877Y15848D01*
X12742Y8431D02*
X20159Y15848D01*
X12742Y10456D02*
X17045Y6152D01*
X12742Y9737D02*
X16327Y6152D01*
X12742Y6076D02*
Y12639D01*
Y9019D02*
X15851Y5909D01*
X12742Y11893D02*
X20394Y4240D01*
X12742Y12611D02*
X20394Y4958D01*
X12742Y8300D02*
X15492Y5550D01*
X12742Y7582D02*
X15268Y5055D01*
X12742Y6864D02*
X15268Y4337D01*
X20394Y3697D02*
X21197Y2895D01*
X20394Y3697D02*
Y5303D01*
X18572Y3674D02*
Y5326D01*
X17746Y2849D02*
X18572Y3674D01*
X16757Y2849D02*
X19104Y502D01*
X17970Y3072D02*
X20540Y502D01*
X17744D02*
X20667Y3425D01*
X18462Y502D02*
X21026Y3066D01*
X17025Y502D02*
X20394Y3871D01*
X17475Y2849D02*
X19822Y502D01*
X15268Y3674D02*
X16094Y2849D01*
X13274Y3457D02*
X16230Y502D01*
X16094Y2849D02*
X17746D01*
X12915Y3098D02*
X15512Y502D01*
X13433D02*
X15937Y3006D01*
X16307Y502D02*
X20394Y4589D01*
X13492Y4677D02*
X17667Y502D01*
X14870D02*
X17217Y2849D01*
X13492Y3958D02*
X16948Y502D01*
X14152D02*
X16499Y2849D01*
X9164Y19222D02*
X11731Y21788D01*
X9164Y22792D02*
X23437D01*
X9164Y21788D02*
X23348D01*
X9000Y20495D02*
X10294Y21788D01*
X8692Y23845D02*
X9745Y22792D01*
X9164Y19940D02*
X11012Y21788D01*
X11467D02*
X15604Y17652D01*
X10748Y21788D02*
X14967Y17570D01*
X12185Y21788D02*
X16322Y17652D01*
X9312Y21788D02*
X14249Y16851D01*
X10030Y21788D02*
X14608Y17210D01*
X502Y9841D02*
X12449Y21788D01*
X502Y24133D02*
X11016Y13618D01*
X502Y9123D02*
X13167Y21788D01*
X502Y22696D02*
X10938Y12259D01*
X502Y23414D02*
X10938Y12977D01*
X502Y21977D02*
X10938Y11541D01*
X4310Y7902D02*
X18196Y21788D01*
X2873Y7902D02*
X16759Y21788D01*
X5028Y7902D02*
X18915Y21788D01*
X502Y8404D02*
X13886Y21788D01*
X502Y7686D02*
X14604Y21788D01*
X8918Y21463D02*
X13890Y16492D01*
X8537Y21126D02*
X13530Y16133D01*
X11389Y13992D02*
X14598Y17201D01*
X9164Y19781D02*
X13171Y15774D01*
X9111Y19115D02*
X12812Y15414D01*
X8752Y18756D02*
X12453Y15055D01*
X12742Y10586D02*
X18004Y15848D01*
X10938Y13541D02*
X11389Y13992D01*
X10938Y13541D02*
X11389Y13992D01*
X10938Y12639D02*
Y13541D01*
Y12639D02*
Y13541D01*
X7485Y18586D02*
X11734Y14337D01*
X502Y19822D02*
X10938Y9385D01*
X8203Y18586D02*
X12094Y14696D01*
X502Y21259D02*
X10938Y10822D01*
X502Y20540D02*
X10938Y10104D01*
X5746Y7902D02*
X10938Y13094D01*
X3591Y7902D02*
X17478Y21788D01*
X6333Y7770D02*
X10938Y12375D01*
X502Y19104D02*
X10938Y8667D01*
X502Y18385D02*
X10938Y7948D01*
X9164Y22792D02*
Y22872D01*
X8582Y23454D02*
X9164Y22872D01*
Y21708D02*
Y21788D01*
X8106Y23712D02*
X8365Y23454D01*
X7648D02*
X7907Y23712D01*
X7441D02*
X8559D01*
X8641Y20854D02*
X9575Y21788D01*
X8582Y21126D02*
X9164Y21708D01*
X7418Y20914D02*
X8582D01*
X7818Y21126D02*
X8031Y20914D01*
X7982D02*
X8195Y21126D01*
X7418Y23454D02*
X8582D01*
X6836Y21708D02*
X7418Y21126D01*
X8582D01*
X6836Y22872D02*
X7418Y23454D01*
X502Y17744D02*
X6956Y24198D01*
X6836Y21708D02*
Y22872D01*
X502Y14870D02*
X7088Y21457D01*
X502Y17025D02*
X7315Y23839D01*
X502Y14152D02*
X7476Y21126D01*
X502Y16307D02*
X6836Y22642D01*
X502Y15588D02*
X6836Y21923D01*
X9164Y19168D02*
Y20332D01*
X8582Y20914D02*
X9164Y20332D01*
X6836Y19235D02*
X7485Y18586D01*
X6836Y19168D02*
Y20332D01*
X7418Y20914D01*
X6836Y19168D02*
X7418Y18586D01*
X8582D02*
X9164Y19168D01*
X8528Y18586D02*
X9164Y19222D01*
X7418Y18586D02*
X8582D01*
X502Y9764D02*
X2582Y7684D01*
X2799Y7902D02*
X6201D01*
X502Y11278D02*
X7810Y18586D01*
X502Y11996D02*
X7255Y18750D01*
X502Y10559D02*
X8528Y18586D01*
X502Y13433D02*
X6836Y19768D01*
X502Y12715D02*
X6896Y19109D01*
X502Y12638D02*
X5238Y7902D01*
X502Y13356D02*
X5956Y7902D01*
X502Y11919D02*
X4519Y7902D01*
X502Y11201D02*
X3801Y7902D01*
X502Y10483D02*
X3083Y7902D01*
X7902Y5028D02*
X10938Y8065D01*
X7902Y5746D02*
X10938Y8783D01*
X10188Y5326D02*
X10938Y6076D01*
Y12639D01*
X7410Y6692D02*
X10938Y10220D01*
X7770Y6333D02*
X10938Y9502D01*
X7902Y5956D02*
X13356Y502D01*
X7902Y3591D02*
X10938Y6628D01*
X7902Y5238D02*
X12638Y502D01*
X7902Y4310D02*
X10938Y7346D01*
X10188Y3674D02*
Y5326D01*
X502Y16948D02*
X10938Y6512D01*
X502Y6967D02*
X15323Y21788D01*
X7051Y7051D02*
X10938Y10938D01*
X6692Y7410D02*
X10938Y11657D01*
X502Y17667D02*
X10938Y7230D01*
X7051Y7051D02*
X10938Y10938D01*
X502Y16230D02*
X10797Y5935D01*
X502Y6249D02*
X16041Y21788D01*
X502Y15512D02*
X10438Y5575D01*
X502Y14793D02*
X10188Y5106D01*
X502Y14075D02*
X10188Y4388D01*
X12666Y2849D02*
X13492Y3674D01*
X10559Y502D02*
X15268Y5210D01*
X11014Y2849D02*
X12666D01*
X10188Y3674D02*
X11014Y2849D01*
X9123Y502D02*
X11470Y2849D01*
X9841Y502D02*
X12188Y2849D01*
X11996Y502D02*
X15268Y3774D01*
X11278Y502D02*
X15268Y4492D01*
X12715Y502D02*
X15578Y3365D01*
X11728Y2849D02*
X14075Y502D01*
X12446Y2849D02*
X14793Y502D01*
X7902Y2873D02*
X10188Y5159D01*
X6249Y502D02*
X10188Y4441D01*
X6967Y502D02*
X10188Y3723D01*
X7684Y2582D02*
X9764Y502D01*
X7325Y2222D02*
X9046Y502D01*
X7902Y3801D02*
X11201Y502D01*
X7902Y4519D02*
X11919Y502D01*
X8404D02*
X10883Y2980D01*
X7686Y502D02*
X10524Y3339D01*
X7902Y3083D02*
X10483Y502D01*
X6201Y7902D02*
X7902Y6201D01*
X1098Y6127D02*
X2873Y7902D01*
X5956D02*
X7902Y5956D01*
X1098Y6201D02*
X2799Y7902D01*
X535Y3983D02*
X1098Y3420D01*
X628Y3502D02*
X1098Y3972D01*
X7902Y2799D02*
Y6201D01*
X789Y3011D02*
X3011Y789D01*
X6127Y1098D02*
X7902Y2873D01*
X1098Y2799D02*
Y6201D01*
X808Y2964D02*
X1098Y3254D01*
X502Y8327D02*
X1863Y6966D01*
X502Y9046D02*
X2222Y7325D01*
X502Y7609D02*
X1504Y6606D01*
X502Y6172D02*
X1098Y5575D01*
X502Y6890D02*
X1145Y6247D01*
X502Y5531D02*
X1098Y6127D01*
X520Y4113D02*
X1098Y4691D01*
X502Y4735D02*
X1098Y4138D01*
X502Y5454D02*
X1098Y4857D01*
X502Y4812D02*
X1098Y5409D01*
X6201Y1098D02*
X7902Y2799D01*
X4812Y502D02*
X5409Y1098D01*
X4857D02*
X5454Y502D01*
X4113Y520D02*
X4691Y1098D01*
X3502Y628D02*
X3972Y1098D01*
X4138D02*
X4735Y502D01*
X6966Y1863D02*
X8327Y502D01*
X6606Y1504D02*
X7609Y502D01*
X6247Y1145D02*
X6890Y502D01*
X5531D02*
X6127Y1098D01*
X5575D02*
X6172Y502D01*
X1673Y1673D02*
X1949Y1949D01*
X1673Y1673D02*
X1949Y1949D01*
X2055Y1336D02*
X2308Y1590D01*
X1047Y2484D02*
X1230Y2667D01*
X1336Y2055D02*
X1590Y2308D01*
X3420Y1098D02*
X3983Y535D01*
X2964Y808D02*
X3254Y1098D01*
X2799D02*
X6201D01*
X1098Y2799D02*
X2799Y1098D01*
X2484Y1047D02*
X2667Y1230D01*
D11*
X95400Y9750D02*
D03*
X93600D02*
D03*
D12*
X18495Y62180D02*
D03*
Y60380D02*
D03*
X20495Y62180D02*
D03*
Y60380D02*
D03*
X22495Y62180D02*
D03*
Y60380D02*
D03*
X24495Y62180D02*
D03*
Y60380D02*
D03*
X26495Y62180D02*
D03*
Y60380D02*
D03*
D13*
X18500Y57575D02*
D03*
Y58925D02*
D03*
X20500Y57575D02*
D03*
Y58925D02*
D03*
X22500Y57575D02*
D03*
Y58925D02*
D03*
X24500Y57575D02*
D03*
Y58925D02*
D03*
X26500Y57575D02*
D03*
Y58925D02*
D03*
D14*
X85440Y61110D02*
X85619Y61289D01*
X85440Y59890D02*
X85619Y59711D01*
X84041Y61289D02*
X84220Y61110D01*
X84041Y59711D02*
X84220Y59890D01*
X78961Y55539D02*
X79140Y55360D01*
X80360Y54140D02*
X80539Y53961D01*
X80360Y55360D02*
X80539Y55539D01*
X78961Y53961D02*
X79140Y54140D01*
X71950Y74900D02*
X72130Y75080D01*
X71950Y73840D02*
X72130Y73660D01*
X70710Y75080D02*
X70890Y74900D01*
X70710Y73660D02*
X70890Y73840D01*
X71950Y72360D02*
X72130Y72540D01*
X70710D02*
X70890Y72360D01*
X73001Y61289D02*
X73180Y61110D01*
X74400D02*
X74579Y61289D01*
X71950Y71300D02*
X72130Y71120D01*
X70710D02*
X70890Y71300D01*
X74400Y59890D02*
X74579Y59711D01*
X73001D02*
X73180Y59890D01*
X69320Y55360D02*
X69499Y55539D01*
X69320Y54140D02*
X69499Y53961D01*
X67921Y55539D02*
X68100Y55360D01*
X58650Y53860D02*
X58829Y54039D01*
X57251D02*
X57430Y53860D01*
X58650Y52640D02*
X58829Y52461D01*
X57251D02*
X57430Y52640D01*
X93600Y10375D02*
Y10629D01*
X93900Y9750D02*
X94154D01*
X93600Y8871D02*
Y9125D01*
X93046Y9750D02*
X93300D01*
X90747Y9503D02*
X90927Y9323D01*
X90747Y9997D02*
X90927Y10177D01*
X90073Y9323D02*
X90253Y9503D01*
X90073Y10177D02*
X90253Y9997D01*
X86900Y5610D02*
X87079Y5789D01*
X85501D02*
X85680Y5610D01*
X86900Y4390D02*
X87079Y4211D01*
X85501D02*
X85680Y4390D01*
X75150Y5610D02*
X75329Y5789D01*
X73751D02*
X73930Y5610D01*
X75150Y4390D02*
X75329Y4211D01*
X73751D02*
X73930Y4390D01*
X58530Y5610D02*
X58709Y5789D01*
X58530Y4390D02*
X58709Y4211D01*
X57131Y5789D02*
X57310Y5610D01*
X57131Y4211D02*
X57310Y4390D01*
X44950Y74900D02*
X45130Y75080D01*
X43710D02*
X43890Y74900D01*
X44950Y71300D02*
X45130Y71120D01*
X43710D02*
X43890Y71300D01*
X27120Y62180D02*
X27374D01*
X28497Y61497D02*
X28677Y61677D01*
X27823D02*
X28003Y61497D01*
X27823Y60823D02*
X28003Y61003D01*
X28497D02*
X28677Y60823D01*
X47360Y53860D02*
X47539Y54039D01*
X45961D02*
X46140Y53860D01*
X45961Y52461D02*
X46140Y52640D01*
X47360D02*
X47539Y52461D01*
X35940Y52640D02*
X36119Y52461D01*
X34541Y54039D02*
X34720Y53860D01*
X35940D02*
X36119Y54039D01*
X34541Y52461D02*
X34720Y52640D01*
X26495Y62480D02*
Y62734D01*
X24495Y62480D02*
Y62734D01*
X25616Y62180D02*
X25870D01*
X26495Y61626D02*
Y61880D01*
X25120Y62180D02*
X25374D01*
X24495Y61626D02*
Y61880D01*
X23616Y62180D02*
X23870D01*
X23120D02*
X23374D01*
X22495Y62480D02*
Y62734D01*
X21120Y62180D02*
X21374D01*
X20495Y62480D02*
Y62734D01*
X18495Y62480D02*
Y62734D01*
X19616Y62180D02*
X19870D01*
X19120D02*
X19374D01*
X22495Y61626D02*
Y61880D01*
X21616Y62180D02*
X21870D01*
X20495Y61626D02*
Y61880D01*
X18495Y61626D02*
Y61880D01*
X17950Y74900D02*
X18130Y75080D01*
X16710D02*
X16890Y74900D01*
X17950Y73840D02*
X18130Y73660D01*
X17950Y71300D02*
X18130Y71120D01*
X17950Y72360D02*
X18130Y72540D01*
X16710Y73660D02*
X16890Y73840D01*
X16710Y72540D02*
X16890Y72360D01*
X16710Y71120D02*
X16890Y71300D01*
X17616Y62180D02*
X17870D01*
X25030Y48250D02*
X25210Y48070D01*
X25030Y46770D02*
X25210Y46950D01*
X23790Y48070D02*
X23970Y48250D01*
X23790Y46950D02*
X23970Y46770D01*
X25030Y45710D02*
X25210Y45530D01*
X25030Y44230D02*
X25210Y44410D01*
X25030Y43170D02*
X25210Y42990D01*
X23790D02*
X23970Y43170D01*
X23790Y45530D02*
X23970Y45710D01*
X23790Y49490D02*
X23970Y49310D01*
X23790Y44410D02*
X23970Y44230D01*
X7539Y54921D02*
X7718Y54742D01*
X7539Y55999D02*
X7718Y56178D01*
X6282Y54742D02*
X6461Y54921D01*
X6282Y56178D02*
X6461Y55999D01*
X29230Y14960D02*
X29410Y14780D01*
X30470D02*
X30650Y14960D01*
X30470Y13720D02*
X30650Y13540D01*
X29230D02*
X29410Y13720D01*
X30590Y5610D02*
X30769Y5789D01*
X30590Y4390D02*
X30769Y4211D01*
X29191Y5789D02*
X29370Y5610D01*
X29191Y4211D02*
X29370Y4390D01*
X25030Y24900D02*
X25210Y25080D01*
X23790D02*
X23970Y24900D01*
X8539Y25369D02*
X8718Y25548D01*
X7282D02*
X7461Y25369D01*
X7282Y24112D02*
X7461Y24291D01*
X8539D02*
X8718Y24112D01*
X25030Y23840D02*
X25210Y23660D01*
X23790D02*
X23970Y23840D01*
X22884Y3616D02*
X23063Y3437D01*
X22884Y5384D02*
X23063Y5564D01*
X20937D02*
X21116Y5384D01*
X20937Y3437D02*
X21116Y3616D01*
D15*
X6720Y31000D02*
X11250D01*
X13500Y33250D01*
Y57000D01*
X12500Y58000D02*
X13500Y57000D01*
X11000Y58000D02*
X12500D01*
X9000Y50000D02*
Y56750D01*
X6720Y48780D02*
X7780D01*
X9000Y50000D01*
X7000Y58000D02*
X7128Y57872D01*
X7878D01*
X9000Y56750D01*
X94500Y4500D02*
X95350Y5350D01*
Y9700D01*
X95400Y9750D01*
D16*
X28245Y61255D02*
X28250Y61250D01*
X27820Y62180D02*
X28245Y61755D01*
X26495Y62180D02*
X27820D01*
X28245Y61255D02*
Y61755D01*
X24495Y62180D02*
X26495D01*
X22495D02*
X24495D01*
X20495D02*
X22495D01*
X18495D02*
X20495D01*
X28173Y50280D02*
X44220D01*
X26500Y51953D02*
Y57575D01*
Y51953D02*
X28173Y50280D01*
X28040Y49960D02*
X42490D01*
X24500Y53500D02*
X28040Y49960D01*
X24500Y53500D02*
Y57575D01*
X22500Y54750D02*
Y57575D01*
Y54750D02*
X27610Y49640D01*
X40270D01*
X20500Y56000D02*
Y57575D01*
X27180Y49320D02*
X38050D01*
X20500Y56000D02*
X27180Y49320D01*
X26500Y49000D02*
X35830D01*
X18500Y57000D02*
X26500Y49000D01*
X18500Y57000D02*
Y57575D01*
X90500Y9750D02*
X93600D01*
X24148Y21830D02*
X24500D01*
X23688Y22290D02*
X24148Y21830D01*
X8000Y22290D02*
X23688D01*
X26495Y58930D02*
Y60380D01*
Y58930D02*
X26500Y58925D01*
X24495Y58930D02*
X24500Y58925D01*
X24495Y58930D02*
Y60380D01*
X22495Y58930D02*
Y60380D01*
Y58930D02*
X22500Y58925D01*
X20495Y58930D02*
X20500Y58925D01*
X20495Y58930D02*
Y60380D01*
X18495Y58930D02*
Y60380D01*
Y58930D02*
X18500Y58925D01*
X19960Y74370D02*
X21840Y76250D01*
X28500D01*
X31430Y73320D01*
X45910D01*
X46960Y74370D01*
X27000Y73000D02*
X48130D01*
X26250Y73750D02*
X27000Y73000D01*
X48130D02*
X49500Y74370D01*
X25500Y75750D02*
X26250Y75000D01*
Y73750D02*
Y75000D01*
X23750Y75750D02*
X25500D01*
X22500Y74500D02*
X23750Y75750D01*
X22500Y74370D02*
Y74500D01*
X90700Y47470D02*
X90900Y47270D01*
X90700Y47470D02*
Y48300D01*
X89250Y49750D02*
X90700Y48300D01*
X89250Y49750D02*
Y74750D01*
X86500Y77500D02*
X89250Y74750D01*
X50090Y77500D02*
X86500D01*
X46960Y74370D02*
X50090Y77500D01*
X49500Y74370D02*
X51880Y76750D01*
X86250D01*
X88360Y74640D01*
Y47270D02*
Y74640D01*
X73960Y71830D02*
Y74370D01*
X76500Y71830D02*
Y74370D01*
X85750Y47340D02*
X85820Y47270D01*
X85750Y47340D02*
Y51500D01*
X87750Y53500D01*
Y74000D01*
X85500Y76250D02*
X87750Y74000D01*
X75840Y76250D02*
X85500D01*
X73960Y74370D02*
X75840Y76250D01*
X83280Y47270D02*
Y51030D01*
X87205Y54955D01*
Y73545D01*
X85000Y75750D02*
X87205Y73545D01*
X76500Y74370D02*
X77880Y75750D01*
X85000D01*
X77750Y68750D02*
X79040Y70040D01*
X77750Y51000D02*
Y68750D01*
X79040Y70040D02*
Y71830D01*
X77750Y51000D02*
X80491Y48259D01*
Y47519D02*
Y48259D01*
Y47519D02*
X80740Y47270D01*
X77750Y73080D02*
X79040Y74370D01*
X77750Y70750D02*
Y73080D01*
X76250Y69250D02*
X77750Y70750D01*
X76250Y49220D02*
Y69250D01*
Y49220D02*
X78200Y47270D01*
X52040Y66460D02*
Y71830D01*
Y66460D02*
X55750Y62750D01*
X58750D01*
X75660Y47270D02*
Y47590D01*
X68500Y53000D02*
X70250D01*
X75660Y47590D01*
X70561Y47289D02*
Y48189D01*
X57500Y61250D02*
X70561Y48189D01*
X35620Y61250D02*
X57500D01*
X70561Y47289D02*
X70580Y47270D01*
X58750Y62750D02*
X68500Y53000D01*
X66140Y54250D02*
X66140D01*
X54500Y62000D02*
X58390D01*
X66140Y54250D01*
X66140D02*
X73120Y47270D01*
X50750Y65750D02*
Y73080D01*
Y65750D02*
X54500Y62000D01*
X50750Y73080D02*
X52040Y74370D01*
X25040Y71830D02*
X35620Y61250D01*
X23750Y70750D02*
X34250Y60250D01*
X57000D01*
X68040Y49210D01*
Y47270D02*
Y49210D01*
X23750Y70750D02*
Y73080D01*
X25040Y74370D01*
X22500Y71830D02*
Y74370D01*
X19960Y71830D02*
Y74370D01*
X65500Y47270D02*
Y49000D01*
X44420Y56000D02*
X58500D01*
X65500Y49000D01*
X41670Y53250D02*
X44420Y56000D01*
X60230Y50000D02*
X62960Y47270D01*
X47460Y50000D02*
X60230D01*
X44210Y53250D02*
X47460Y50000D01*
X24500Y33540D02*
X24540Y33500D01*
X52500D01*
X57880Y38880D01*
Y47270D01*
X55340Y42840D02*
Y47270D01*
X48580Y36080D02*
X55340Y42840D01*
X24500Y36080D02*
X48580D01*
X52800Y44800D02*
Y47270D01*
X46620Y38620D02*
X52800Y44800D01*
X24500Y38620D02*
X46620D01*
X50250Y47260D02*
X50260Y47270D01*
X50250Y45250D02*
Y47260D01*
X46160Y41160D02*
X50250Y45250D01*
X24500Y41160D02*
X46160D01*
X30250Y53250D02*
X32250Y55250D01*
X39670D01*
X41670Y53250D01*
X42460Y51500D02*
X44210Y53250D01*
X34540Y51500D02*
X42460D01*
X32790Y53250D02*
X34540Y51500D01*
X85750Y14180D02*
X85820Y14250D01*
X85750Y10500D02*
Y14180D01*
X83750Y8500D02*
X85750Y10500D01*
X83750Y5000D02*
Y8500D01*
X83280Y10030D02*
Y14250D01*
X81210Y7960D02*
X83280Y10030D01*
X81210Y5000D02*
Y7960D01*
X69500Y8250D02*
X73120Y11870D01*
X69500Y5040D02*
Y8250D01*
X73120Y11870D02*
Y14250D01*
X75660Y11660D02*
Y14250D01*
X72000Y8000D02*
X75660Y11660D01*
X72000Y5000D02*
Y8000D01*
X69460Y5000D02*
X69500Y5040D01*
X62980Y5020D02*
X63000Y5000D01*
X62980Y5020D02*
Y14230D01*
X62960Y14250D02*
X62980Y14230D01*
X55340Y11090D02*
Y14250D01*
X51910Y7660D02*
X55340Y11090D01*
X51910Y5000D02*
Y7660D01*
X49370Y7870D02*
X52800Y11300D01*
Y14250D01*
X49370Y5000D02*
Y7870D01*
X46830Y7830D02*
X50260Y11260D01*
Y14250D01*
X46830Y5000D02*
Y7830D01*
X47720Y10970D02*
Y14250D01*
X44290Y7540D02*
X47720Y10970D01*
X44290Y5000D02*
Y7540D01*
X45000Y14070D02*
X45180Y14250D01*
X45000Y10750D02*
Y14070D01*
X41750Y7500D02*
X45000Y10750D01*
X41750Y5000D02*
Y7500D01*
X42640Y11640D02*
Y14250D01*
X39210Y8210D02*
X42640Y11640D01*
X39210Y5000D02*
Y8210D01*
X32500Y5020D02*
X32520Y5000D01*
X32500Y5020D02*
Y14230D01*
X32480Y14250D02*
X32500Y14230D01*
X47471Y47519D02*
X47720Y47270D01*
X46981Y47519D02*
X47471D01*
X44220Y50280D02*
X46981Y47519D01*
X42490Y49960D02*
X45180Y47270D01*
X40270Y49640D02*
X42640Y47270D01*
X38050Y49320D02*
X40100Y47270D01*
X35830Y49000D02*
X37560Y47270D01*
D17*
X15500Y16750D02*
X24500D01*
X11840Y13090D02*
X15500Y16750D01*
X11840Y4500D02*
Y13090D01*
D18*
X4500Y74500D02*
D03*
X94500D02*
D03*
X4500Y4500D02*
D03*
X94500D02*
D03*
D19*
X17420Y71830D02*
D03*
Y74370D02*
D03*
X19960Y71830D02*
D03*
Y74370D02*
D03*
X22500Y71830D02*
D03*
Y74370D02*
D03*
X25040Y71830D02*
D03*
Y74370D02*
D03*
X27580Y71830D02*
D03*
Y74370D02*
D03*
X71420Y71830D02*
D03*
Y74370D02*
D03*
X73960Y71830D02*
D03*
Y74370D02*
D03*
X76500Y71830D02*
D03*
Y74370D02*
D03*
X79040Y71830D02*
D03*
Y74370D02*
D03*
X81580Y71830D02*
D03*
Y74370D02*
D03*
X44420Y71830D02*
D03*
Y74370D02*
D03*
X46960Y71830D02*
D03*
Y74370D02*
D03*
X49500Y71830D02*
D03*
Y74370D02*
D03*
X52040Y71830D02*
D03*
Y74370D02*
D03*
X54580Y71830D02*
D03*
Y74370D02*
D03*
X93440Y14250D02*
D03*
X90900D02*
D03*
X88360D02*
D03*
X85820D02*
D03*
X83280D02*
D03*
X80740D02*
D03*
X78200D02*
D03*
X75660D02*
D03*
X73120D02*
D03*
X70580D02*
D03*
X68040D02*
D03*
X65500D02*
D03*
X62960D02*
D03*
X60420D02*
D03*
X57880D02*
D03*
X55340D02*
D03*
X52800D02*
D03*
X50260D02*
D03*
X47720D02*
D03*
X45180D02*
D03*
X42640D02*
D03*
X40100D02*
D03*
X37560D02*
D03*
X35020D02*
D03*
X32480D02*
D03*
X29940D02*
D03*
Y47270D02*
D03*
X32480D02*
D03*
X35020D02*
D03*
X37560D02*
D03*
X40100D02*
D03*
X42640D02*
D03*
X45180D02*
D03*
X47720D02*
D03*
X50260D02*
D03*
X52800D02*
D03*
X55340D02*
D03*
X57880D02*
D03*
X60420D02*
D03*
X62960D02*
D03*
X65500D02*
D03*
X68040D02*
D03*
X70580D02*
D03*
X73120D02*
D03*
X75660D02*
D03*
X78200D02*
D03*
X80740D02*
D03*
X83280D02*
D03*
X85820D02*
D03*
X88360D02*
D03*
X90900D02*
D03*
X93440D02*
D03*
X24500Y48780D02*
D03*
Y43700D02*
D03*
Y46240D02*
D03*
Y38620D02*
D03*
Y41160D02*
D03*
Y31000D02*
D03*
Y33540D02*
D03*
Y36080D02*
D03*
X6720Y31000D02*
D03*
Y36080D02*
D03*
Y33540D02*
D03*
Y41160D02*
D03*
Y38620D02*
D03*
Y48780D02*
D03*
Y46240D02*
D03*
Y43700D02*
D03*
X24500Y24370D02*
D03*
Y21830D02*
D03*
Y19290D02*
D03*
Y16750D02*
D03*
D20*
X68710Y60500D02*
D03*
X71250D02*
D03*
X73790D02*
D03*
X29980Y5000D02*
D03*
X32520D02*
D03*
X63000D02*
D03*
X60460D02*
D03*
X57920D02*
D03*
X30250Y53250D02*
D03*
X32790D02*
D03*
X35330D02*
D03*
X84830Y54750D02*
D03*
X82290D02*
D03*
X79750D02*
D03*
X81210Y5000D02*
D03*
X83750D02*
D03*
X86290D02*
D03*
X69460D02*
D03*
X72000D02*
D03*
X74540D02*
D03*
X58040Y53250D02*
D03*
X55500D02*
D03*
X52960D02*
D03*
X68710Y54750D02*
D03*
X71250D02*
D03*
X73790D02*
D03*
X46750Y53250D02*
D03*
X44210D02*
D03*
X41670D02*
D03*
X84830Y60500D02*
D03*
X82290D02*
D03*
X79750D02*
D03*
D21*
X8000Y22290D02*
D03*
Y19750D02*
D03*
Y24830D02*
D03*
X11000Y58000D02*
D03*
Y60540D02*
D03*
Y55460D02*
D03*
X7000Y58000D02*
D03*
Y60540D02*
D03*
Y55460D02*
D03*
D22*
X39210Y5000D02*
D03*
X41750D02*
D03*
X44290D02*
D03*
X46830D02*
D03*
X49370D02*
D03*
X51910D02*
D03*
D23*
X22000Y4500D02*
D03*
X16920D02*
D03*
X11840D02*
D03*
D24*
X28250Y61250D02*
D03*
X90500Y9750D02*
D03*
%TF.MD5,0ec1f6bf604da40022d7c7dd1fb38039*%
M02*
