%TF.GenerationSoftware,Altium Limited,Altium Designer,25.2.1 (25)*%
G04 Layer_Physical_Order=2*
G04 Layer_Color=36540*
%FSLAX43Y43*%
%MOMM*%
%TF.SameCoordinates,EC6566CF-20FD-4289-836C-F72492794835*%
%TF.FilePolarity,Positive*%
%TF.FileFunction,Copper,L2,Inr,Signal*%
%TF.Part,Single*%
G01*
G75*
%TA.AperFunction,ComponentPad*%
%ADD27C,6.000*%
%ADD28C,1.500*%
%ADD29R,1.500X1.500*%
%ADD30C,2.500*%
%ADD31C,2.000*%
%ADD32C,3.000*%
%ADD33C,1.725*%
%TA.AperFunction,ViaPad*%
%ADD34C,0.700*%
G36*
X46041Y49611D02*
X46573Y49505D01*
X47087Y49331D01*
X47573Y49091D01*
X48024Y48789D01*
X48432Y48432D01*
X48789Y48024D01*
X49091Y47573D01*
X49331Y47087D01*
X49505Y46573D01*
X49611Y46041D01*
X49645Y45511D01*
X49643Y45500D01*
Y4500D01*
X49645Y4489D01*
X49611Y3959D01*
X49505Y3427D01*
X49331Y2913D01*
X49091Y2427D01*
X48789Y1976D01*
X48432Y1568D01*
X48024Y1211D01*
X47573Y909D01*
X47087Y669D01*
X46573Y495D01*
X46041Y389D01*
X45511Y355D01*
X45500Y357D01*
X4500D01*
X4489Y355D01*
X3959Y389D01*
X3427Y495D01*
X2913Y669D01*
X2427Y909D01*
X1976Y1211D01*
X1568Y1568D01*
X1211Y1976D01*
X909Y2427D01*
X669Y2913D01*
X495Y3427D01*
X389Y3959D01*
X355Y4489D01*
X357Y4500D01*
Y16544D01*
X484Y16569D01*
X555Y16397D01*
X752Y16103D01*
X1003Y15852D01*
X1297Y15655D01*
X1625Y15519D01*
X1973Y15450D01*
X2327D01*
X2675Y15519D01*
X3003Y15655D01*
X3297Y15852D01*
X3548Y16103D01*
X3745Y16397D01*
X3881Y16725D01*
X3950Y17073D01*
Y17427D01*
X3881Y17775D01*
X3745Y18103D01*
X3548Y18397D01*
X3297Y18648D01*
X3003Y18845D01*
X2675Y18981D01*
X2327Y19050D01*
X1973D01*
X1625Y18981D01*
X1297Y18845D01*
X1003Y18648D01*
X752Y18397D01*
X555Y18103D01*
X484Y17931D01*
X357Y17956D01*
Y24044D01*
X484Y24069D01*
X555Y23897D01*
X752Y23603D01*
X1003Y23352D01*
X1297Y23155D01*
X1625Y23019D01*
X1973Y22950D01*
X2327D01*
X2675Y23019D01*
X3003Y23155D01*
X3297Y23352D01*
X3548Y23603D01*
X3745Y23897D01*
X3881Y24225D01*
X3950Y24573D01*
Y24927D01*
X3881Y25275D01*
X3745Y25603D01*
X3548Y25897D01*
X3297Y26148D01*
X3003Y26345D01*
X2675Y26481D01*
X2327Y26550D01*
X1973D01*
X1625Y26481D01*
X1297Y26345D01*
X1003Y26148D01*
X752Y25897D01*
X555Y25603D01*
X484Y25431D01*
X357Y25456D01*
Y45500D01*
X355Y45511D01*
X389Y46041D01*
X495Y46573D01*
X669Y47087D01*
X909Y47573D01*
X1211Y48024D01*
X1568Y48432D01*
X1976Y48789D01*
X2427Y49091D01*
X2913Y49331D01*
X3427Y49505D01*
X3959Y49611D01*
X4489Y49645D01*
X4500Y49643D01*
X45500D01*
X45511Y49645D01*
X46041Y49611D01*
D02*
G37*
%LPC*%
G36*
X36423Y45662D02*
X36117D01*
X35821Y45583D01*
X35556Y45430D01*
X35340Y45214D01*
X35187Y44949D01*
X35107Y44653D01*
Y44347D01*
X35187Y44051D01*
X35340Y43786D01*
X35556Y43570D01*
X35821Y43417D01*
X36117Y43338D01*
X36423D01*
X36719Y43417D01*
X36984Y43570D01*
X37200Y43786D01*
X37353Y44051D01*
X37432Y44347D01*
Y44653D01*
X37353Y44949D01*
X37200Y45214D01*
X36984Y45430D01*
X36719Y45583D01*
X36423Y45662D01*
D02*
G37*
G36*
X33883D02*
X33577D01*
X33281Y45583D01*
X33016Y45430D01*
X32800Y45214D01*
X32647Y44949D01*
X32568Y44653D01*
Y44347D01*
X32647Y44051D01*
X32800Y43786D01*
X33016Y43570D01*
X33281Y43417D01*
X33577Y43338D01*
X33883D01*
X34179Y43417D01*
X34444Y43570D01*
X34660Y43786D01*
X34813Y44051D01*
X34893Y44347D01*
Y44653D01*
X34813Y44949D01*
X34660Y45214D01*
X34444Y45430D01*
X34179Y45583D01*
X33883Y45662D01*
D02*
G37*
G36*
X31343D02*
X31037D01*
X30741Y45583D01*
X30476Y45430D01*
X30260Y45214D01*
X30107Y44949D01*
X30028Y44653D01*
Y44347D01*
X30107Y44051D01*
X30260Y43786D01*
X30476Y43570D01*
X30741Y43417D01*
X31037Y43338D01*
X31343D01*
X31639Y43417D01*
X31904Y43570D01*
X32120Y43786D01*
X32273Y44051D01*
X32353Y44347D01*
Y44653D01*
X32273Y44949D01*
X32120Y45214D01*
X31904Y45430D01*
X31639Y45583D01*
X31343Y45662D01*
D02*
G37*
G36*
X16423D02*
X16117D01*
X15821Y45583D01*
X15556Y45430D01*
X15340Y45214D01*
X15187Y44949D01*
X15108Y44653D01*
Y44347D01*
X15187Y44051D01*
X15340Y43786D01*
X15556Y43570D01*
X15821Y43417D01*
X16117Y43338D01*
X16423D01*
X16719Y43417D01*
X16984Y43570D01*
X17200Y43786D01*
X17353Y44051D01*
X17433Y44347D01*
Y44653D01*
X17353Y44949D01*
X17200Y45214D01*
X16984Y45430D01*
X16719Y45583D01*
X16423Y45662D01*
D02*
G37*
G36*
X13883D02*
X13577D01*
X13281Y45583D01*
X13016Y45430D01*
X12800Y45214D01*
X12647Y44949D01*
X12568Y44653D01*
Y44347D01*
X12647Y44051D01*
X12800Y43786D01*
X13016Y43570D01*
X13281Y43417D01*
X13577Y43338D01*
X13883D01*
X14179Y43417D01*
X14444Y43570D01*
X14660Y43786D01*
X14813Y44051D01*
X14892Y44347D01*
Y44653D01*
X14813Y44949D01*
X14660Y45214D01*
X14444Y45430D01*
X14179Y45583D01*
X13883Y45662D01*
D02*
G37*
G36*
X11343D02*
X11037D01*
X10741Y45583D01*
X10476Y45430D01*
X10260Y45214D01*
X10107Y44949D01*
X10028Y44653D01*
Y44347D01*
X10107Y44051D01*
X10260Y43786D01*
X10476Y43570D01*
X10741Y43417D01*
X11037Y43338D01*
X11343D01*
X11639Y43417D01*
X11904Y43570D01*
X12120Y43786D01*
X12273Y44051D01*
X12352Y44347D01*
Y44653D01*
X12273Y44949D01*
X12120Y45214D01*
X11904Y45430D01*
X11639Y45583D01*
X11343Y45662D01*
D02*
G37*
G36*
X45760Y48800D02*
X45240D01*
X44727Y48719D01*
X44233Y48558D01*
X43770Y48322D01*
X43350Y48017D01*
X42983Y47650D01*
X42678Y47230D01*
X42442Y46767D01*
X42281Y46273D01*
X42200Y45760D01*
Y45240D01*
X42281Y44727D01*
X42442Y44233D01*
X42678Y43770D01*
X42983Y43350D01*
X43350Y42983D01*
X43770Y42678D01*
X44233Y42442D01*
X44727Y42281D01*
X45240Y42200D01*
X45760D01*
X46273Y42281D01*
X46767Y42442D01*
X47230Y42678D01*
X47650Y42983D01*
X48017Y43350D01*
X48322Y43770D01*
X48558Y44233D01*
X48719Y44727D01*
X48800Y45240D01*
Y45760D01*
X48719Y46273D01*
X48558Y46767D01*
X48322Y47230D01*
X48017Y47650D01*
X47650Y48017D01*
X47230Y48322D01*
X46767Y48558D01*
X46273Y48719D01*
X45760Y48800D01*
D02*
G37*
G36*
X4760D02*
X4240D01*
X3727Y48719D01*
X3233Y48558D01*
X2770Y48322D01*
X2350Y48017D01*
X1983Y47650D01*
X1678Y47230D01*
X1442Y46767D01*
X1281Y46273D01*
X1200Y45760D01*
Y45240D01*
X1281Y44727D01*
X1442Y44233D01*
X1678Y43770D01*
X1983Y43350D01*
X2350Y42983D01*
X2770Y42678D01*
X3233Y42442D01*
X3727Y42281D01*
X4240Y42200D01*
X4760D01*
X5273Y42281D01*
X5767Y42442D01*
X6230Y42678D01*
X6650Y42983D01*
X7017Y43350D01*
X7322Y43770D01*
X7558Y44233D01*
X7719Y44727D01*
X7800Y45240D01*
Y45760D01*
X7719Y46273D01*
X7558Y46767D01*
X7322Y47230D01*
X7017Y47650D01*
X6650Y48017D01*
X6230Y48322D01*
X5767Y48558D01*
X5273Y48719D01*
X4760Y48800D01*
D02*
G37*
G36*
X23336Y40150D02*
X23164D01*
X22999Y40106D01*
X22851Y40020D01*
X22730Y39899D01*
X22644Y39751D01*
X22600Y39586D01*
Y39414D01*
X22644Y39249D01*
X22730Y39101D01*
X22851Y38980D01*
X22999Y38894D01*
X23164Y38850D01*
X23336D01*
X23501Y38894D01*
X23649Y38980D01*
X23770Y39101D01*
X23856Y39249D01*
X23900Y39414D01*
Y39586D01*
X23856Y39751D01*
X23770Y39899D01*
X23649Y40020D01*
X23501Y40106D01*
X23336Y40150D01*
D02*
G37*
G36*
X3138Y39630D02*
X2862D01*
X2595Y39558D01*
X2355Y39420D01*
X2160Y39225D01*
X2022Y38985D01*
X1950Y38718D01*
Y38442D01*
X2022Y38175D01*
X2160Y37935D01*
X2355Y37740D01*
X2595Y37602D01*
X2862Y37530D01*
X3138D01*
X3405Y37602D01*
X3645Y37740D01*
X3840Y37935D01*
X3978Y38175D01*
X4050Y38442D01*
Y38718D01*
X3978Y38985D01*
X3840Y39225D01*
X3645Y39420D01*
X3405Y39558D01*
X3138Y39630D01*
D02*
G37*
G36*
X14411Y38575D02*
X14239D01*
X14074Y38531D01*
X13926Y38445D01*
X13805Y38324D01*
X13719Y38176D01*
X13675Y38011D01*
Y37839D01*
X13719Y37674D01*
X13805Y37526D01*
X13926Y37405D01*
X14074Y37319D01*
X14239Y37275D01*
X14411D01*
X14576Y37319D01*
X14724Y37405D01*
X14845Y37526D01*
X14931Y37674D01*
X14975Y37839D01*
Y38011D01*
X14931Y38176D01*
X14845Y38324D01*
X14724Y38445D01*
X14576Y38531D01*
X14411Y38575D01*
D02*
G37*
G36*
X45332Y39183D02*
X45026D01*
X44730Y39104D01*
X44465Y38951D01*
X44249Y38735D01*
X44096Y38470D01*
X44016Y38174D01*
Y37868D01*
X44096Y37572D01*
X44249Y37307D01*
X44465Y37091D01*
X44730Y36938D01*
X45026Y36859D01*
X45332D01*
X45628Y36938D01*
X45893Y37091D01*
X46109Y37307D01*
X46262Y37572D01*
X46341Y37868D01*
Y38174D01*
X46262Y38470D01*
X46109Y38735D01*
X45893Y38951D01*
X45628Y39104D01*
X45332Y39183D01*
D02*
G37*
G36*
X4050Y37090D02*
X1950D01*
Y34990D01*
X4050D01*
Y37090D01*
D02*
G37*
G36*
X17586Y35150D02*
X17414D01*
X17249Y35106D01*
X17101Y35020D01*
X16980Y34899D01*
X16894Y34751D01*
X16850Y34586D01*
Y34414D01*
X16894Y34249D01*
X16980Y34101D01*
X17101Y33980D01*
X17249Y33894D01*
X17414Y33850D01*
X17586D01*
X17751Y33894D01*
X17899Y33980D01*
X18020Y34101D01*
X18106Y34249D01*
X18150Y34414D01*
Y34586D01*
X18106Y34751D01*
X18020Y34899D01*
X17899Y35020D01*
X17751Y35106D01*
X17586Y35150D01*
D02*
G37*
G36*
X3138Y34550D02*
X2862D01*
X2595Y34478D01*
X2355Y34340D01*
X2160Y34145D01*
X2022Y33905D01*
X1950Y33638D01*
Y33362D01*
X2022Y33095D01*
X2160Y32855D01*
X2355Y32660D01*
X2595Y32522D01*
X2862Y32450D01*
X3138D01*
X3405Y32522D01*
X3645Y32660D01*
X3840Y32855D01*
X3978Y33095D01*
X4050Y33362D01*
Y33638D01*
X3978Y33905D01*
X3840Y34145D01*
X3645Y34340D01*
X3405Y34478D01*
X3138Y34550D01*
D02*
G37*
G36*
X14086Y31150D02*
X13914D01*
X13749Y31106D01*
X13601Y31020D01*
X13480Y30899D01*
X13394Y30751D01*
X13350Y30586D01*
Y30414D01*
X13394Y30249D01*
X13480Y30101D01*
X13601Y29980D01*
X13749Y29894D01*
X13914Y29850D01*
X14086D01*
X14251Y29894D01*
X14399Y29980D01*
X14520Y30101D01*
X14606Y30249D01*
X14650Y30414D01*
Y30586D01*
X14606Y30751D01*
X14520Y30899D01*
X14399Y31020D01*
X14251Y31106D01*
X14086Y31150D01*
D02*
G37*
G36*
X30886Y29150D02*
X30714D01*
X30549Y29106D01*
X30401Y29020D01*
X30280Y28899D01*
X30194Y28751D01*
X30150Y28586D01*
Y28414D01*
X30194Y28249D01*
X30280Y28101D01*
X30401Y27980D01*
X30549Y27894D01*
X30714Y27850D01*
X30886D01*
X31051Y27894D01*
X31199Y27980D01*
X31320Y28101D01*
X31406Y28249D01*
X31450Y28414D01*
Y28586D01*
X31406Y28751D01*
X31320Y28899D01*
X31199Y29020D01*
X31051Y29106D01*
X30886Y29150D01*
D02*
G37*
G36*
X29186D02*
X29014D01*
X28849Y29106D01*
X28701Y29020D01*
X28580Y28899D01*
X28494Y28751D01*
X28450Y28586D01*
Y28414D01*
X28494Y28249D01*
X28580Y28101D01*
X28701Y27980D01*
X28849Y27894D01*
X29014Y27850D01*
X29186D01*
X29351Y27894D01*
X29499Y27980D01*
X29620Y28101D01*
X29706Y28249D01*
X29750Y28414D01*
Y28586D01*
X29706Y28751D01*
X29620Y28899D01*
X29499Y29020D01*
X29351Y29106D01*
X29186Y29150D01*
D02*
G37*
G36*
X19336Y27200D02*
X19164D01*
X18999Y27156D01*
X18851Y27070D01*
X18730Y26949D01*
X18644Y26801D01*
X18600Y26636D01*
Y26464D01*
X18644Y26299D01*
X18730Y26151D01*
X18851Y26030D01*
X18999Y25944D01*
X19164Y25900D01*
X19336D01*
X19501Y25944D01*
X19649Y26030D01*
X19770Y26151D01*
X19856Y26299D01*
X19900Y26464D01*
Y26636D01*
X19856Y26801D01*
X19770Y26949D01*
X19649Y27070D01*
X19501Y27156D01*
X19336Y27200D01*
D02*
G37*
G36*
X12521Y26050D02*
X12179D01*
X11848Y25961D01*
X11552Y25790D01*
X11310Y25548D01*
X11139Y25252D01*
X11050Y24921D01*
Y24579D01*
X11139Y24248D01*
X11310Y23952D01*
X11552Y23710D01*
X11848Y23539D01*
X12179Y23450D01*
X12521D01*
X12852Y23539D01*
X13148Y23710D01*
X13390Y23952D01*
X13561Y24248D01*
X13650Y24579D01*
Y24921D01*
X13561Y25252D01*
X13390Y25548D01*
X13148Y25790D01*
X12852Y25961D01*
X12521Y26050D01*
D02*
G37*
G36*
X34086Y23150D02*
X33914D01*
X33749Y23106D01*
X33601Y23020D01*
X33480Y22899D01*
X33394Y22751D01*
X33350Y22586D01*
Y22414D01*
X33394Y22249D01*
X33480Y22101D01*
X33601Y21980D01*
X33749Y21894D01*
X33914Y21850D01*
X34086D01*
X34251Y21894D01*
X34399Y21980D01*
X34520Y22101D01*
X34606Y22249D01*
X34650Y22414D01*
Y22586D01*
X34606Y22751D01*
X34520Y22899D01*
X34399Y23020D01*
X34251Y23106D01*
X34086Y23150D01*
D02*
G37*
G36*
X27336Y22800D02*
X27164D01*
X26999Y22756D01*
X26851Y22670D01*
X26730Y22549D01*
X26644Y22401D01*
X26600Y22236D01*
Y22064D01*
X26644Y21899D01*
X26730Y21751D01*
X26851Y21630D01*
X26999Y21544D01*
X27164Y21500D01*
X27336D01*
X27501Y21544D01*
X27649Y21630D01*
X27770Y21751D01*
X27856Y21899D01*
X27900Y22064D01*
Y22236D01*
X27856Y22401D01*
X27770Y22549D01*
X27649Y22670D01*
X27501Y22756D01*
X27336Y22800D01*
D02*
G37*
G36*
X36336Y22150D02*
X36164D01*
X35999Y22106D01*
X35851Y22020D01*
X35730Y21899D01*
X35644Y21751D01*
X35600Y21586D01*
Y21414D01*
X35644Y21249D01*
X35730Y21101D01*
X35851Y20980D01*
X35999Y20894D01*
X36164Y20850D01*
X36336D01*
X36501Y20894D01*
X36649Y20980D01*
X36770Y21101D01*
X36856Y21249D01*
X36900Y21414D01*
Y21586D01*
X36856Y21751D01*
X36770Y21899D01*
X36649Y22020D01*
X36501Y22106D01*
X36336Y22150D01*
D02*
G37*
G36*
X12521Y18550D02*
X12179D01*
X11848Y18461D01*
X11552Y18290D01*
X11310Y18048D01*
X11139Y17752D01*
X11050Y17421D01*
Y17079D01*
X11139Y16748D01*
X11310Y16452D01*
X11552Y16210D01*
X11848Y16039D01*
X12179Y15950D01*
X12521D01*
X12852Y16039D01*
X13148Y16210D01*
X13390Y16452D01*
X13561Y16748D01*
X13650Y17079D01*
Y17421D01*
X13561Y17752D01*
X13390Y18048D01*
X13148Y18290D01*
X12852Y18461D01*
X12521Y18550D01*
D02*
G37*
G36*
X38336Y14940D02*
X38164D01*
X37999Y14896D01*
X37851Y14810D01*
X37730Y14689D01*
X37644Y14541D01*
X37600Y14376D01*
Y14204D01*
X37644Y14039D01*
X37730Y13891D01*
X37851Y13770D01*
X37999Y13684D01*
X38164Y13640D01*
X38336D01*
X38501Y13684D01*
X38649Y13770D01*
X38770Y13891D01*
X38856Y14039D01*
X38900Y14204D01*
Y14376D01*
X38856Y14541D01*
X38770Y14689D01*
X38649Y14810D01*
X38501Y14896D01*
X38336Y14940D01*
D02*
G37*
G36*
X45403Y15453D02*
X45097D01*
X44801Y15373D01*
X44536Y15220D01*
X44320Y15004D01*
X44167Y14739D01*
X44088Y14443D01*
Y14137D01*
X44167Y13841D01*
X44320Y13576D01*
X44536Y13360D01*
X44801Y13207D01*
X45097Y13127D01*
X45403D01*
X45699Y13207D01*
X45964Y13360D01*
X46180Y13576D01*
X46333Y13841D01*
X46412Y14137D01*
Y14443D01*
X46333Y14739D01*
X46180Y15004D01*
X45964Y15220D01*
X45699Y15373D01*
X45403Y15453D01*
D02*
G37*
G36*
X12653Y8050D02*
X12347D01*
X12048Y7990D01*
X11766Y7874D01*
X11512Y7704D01*
X11296Y7488D01*
X11126Y7234D01*
X11010Y6952D01*
X10950Y6653D01*
Y6347D01*
X11010Y6048D01*
X11126Y5766D01*
X11296Y5512D01*
X11512Y5296D01*
X11766Y5126D01*
X12048Y5010D01*
X12347Y4950D01*
X12653D01*
X12952Y5010D01*
X13234Y5126D01*
X13488Y5296D01*
X13704Y5512D01*
X13874Y5766D01*
X13990Y6048D01*
X14050Y6347D01*
Y6653D01*
X13990Y6952D01*
X13874Y7234D01*
X13704Y7488D01*
X13488Y7704D01*
X13234Y7874D01*
X12952Y7990D01*
X12653Y8050D01*
D02*
G37*
G36*
X45760Y7800D02*
X45240D01*
X44727Y7719D01*
X44233Y7558D01*
X43770Y7322D01*
X43350Y7017D01*
X42983Y6650D01*
X42678Y6230D01*
X42442Y5767D01*
X42281Y5273D01*
X42200Y4760D01*
Y4240D01*
X42281Y3727D01*
X42442Y3233D01*
X42678Y2770D01*
X42983Y2350D01*
X43350Y1983D01*
X43770Y1678D01*
X44233Y1442D01*
X44727Y1281D01*
X45240Y1200D01*
X45760D01*
X46273Y1281D01*
X46767Y1442D01*
X47230Y1678D01*
X47650Y1983D01*
X48017Y2350D01*
X48322Y2770D01*
X48558Y3233D01*
X48719Y3727D01*
X48800Y4240D01*
Y4760D01*
X48719Y5273D01*
X48558Y5767D01*
X48322Y6230D01*
X48017Y6650D01*
X47650Y7017D01*
X47230Y7322D01*
X46767Y7558D01*
X46273Y7719D01*
X45760Y7800D01*
D02*
G37*
G36*
X4760D02*
X4240D01*
X3727Y7719D01*
X3233Y7558D01*
X2770Y7322D01*
X2350Y7017D01*
X1983Y6650D01*
X1678Y6230D01*
X1442Y5767D01*
X1281Y5273D01*
X1200Y4760D01*
Y4240D01*
X1281Y3727D01*
X1442Y3233D01*
X1678Y2770D01*
X1983Y2350D01*
X2350Y1983D01*
X2770Y1678D01*
X3233Y1442D01*
X3727Y1281D01*
X4240Y1200D01*
X4760D01*
X5273Y1281D01*
X5767Y1442D01*
X6230Y1678D01*
X6650Y1983D01*
X7017Y2350D01*
X7322Y2770D01*
X7558Y3233D01*
X7719Y3727D01*
X7800Y4240D01*
Y4760D01*
X7719Y5273D01*
X7558Y5767D01*
X7322Y6230D01*
X7017Y6650D01*
X6650Y7017D01*
X6230Y7322D01*
X5767Y7558D01*
X5273Y7719D01*
X4760Y7800D01*
D02*
G37*
%LPD*%
D27*
X45500Y4500D02*
D03*
X4500D02*
D03*
X45500Y45500D02*
D03*
X4500D02*
D03*
D28*
X3000Y38580D02*
D03*
Y33500D02*
D03*
D29*
Y36040D02*
D03*
D30*
X12500Y6500D02*
D03*
X17580D02*
D03*
D31*
X12350Y24750D02*
D03*
Y17250D02*
D03*
D32*
X2150Y24750D02*
D03*
Y17250D02*
D03*
D33*
X38810Y44500D02*
D03*
X36270D02*
D03*
X33730D02*
D03*
X31190D02*
D03*
X18810D02*
D03*
X16270D02*
D03*
X13730D02*
D03*
X11190D02*
D03*
X45250Y14290D02*
D03*
Y11750D02*
D03*
X45179Y38021D02*
D03*
Y35481D02*
D03*
D34*
X23250Y39500D02*
D03*
X14000Y30500D02*
D03*
X36250Y21500D02*
D03*
X37250Y4500D02*
D03*
X38250Y14290D02*
D03*
X17500Y34500D02*
D03*
X14325Y37925D02*
D03*
X19475Y37925D02*
D03*
X21750Y34500D02*
D03*
X17175Y31575D02*
D03*
X27250Y22150D02*
D03*
X34000Y22500D02*
D03*
Y15500D02*
D03*
X27250Y17850D02*
D03*
X19250Y19450D02*
D03*
X29500Y35000D02*
D03*
X35500D02*
D03*
X32500Y38000D02*
D03*
Y32000D02*
D03*
Y35000D02*
D03*
X35900Y28500D02*
D03*
X32500D02*
D03*
X30800D02*
D03*
X29100D02*
D03*
X19250Y26550D02*
D03*
%TF.MD5,80ae2cc4cf34b09bd3db426ac2148535*%
M02*
