%TF.GenerationSoftware,Altium Limited,Altium Designer,25.2.1 (25)*%
G04 Layer_Color=32768*
%FSLAX43Y43*%
%MOMM*%
%TF.SameCoordinates,EC6566CF-20FD-4289-836C-F72492794835*%
%TF.FilePolarity,Positive*%
%TF.FileFunction,Other,Part_Boundary*%
%TF.Part,Single*%
G01*
G75*
%TA.AperFunction,NonConductor*%
%ADD36C,0.200*%
%ADD39C,0.127*%
%ADD42C,0.100*%
%ADD63C,0.050*%
D36*
X38500Y25180D02*
Y40680D01*
X26500Y25180D02*
X38500D01*
X26500D02*
Y40680D01*
X38500D01*
D39*
X9750Y32550D02*
X13750D01*
Y39450D01*
X9750D02*
X13750D01*
X9750Y32550D02*
Y39450D01*
D42*
X49000Y4500D02*
G03*
X49000Y4500I-3500J0D01*
G01*
X8000D02*
G03*
X8000Y4500I-3500J0D01*
G01*
X49000Y45500D02*
G03*
X49000Y45500I-3500J0D01*
G01*
X8000D02*
G03*
X8000Y45500I-3500J0D01*
G01*
X9400Y10900D02*
X20400D01*
X9400Y2750D02*
X20400D01*
Y10900D01*
X9400Y2750D02*
Y10900D01*
X19000Y36025D02*
Y38475D01*
X17800Y36025D02*
X19000D01*
X17800D02*
Y38475D01*
X19000D01*
X14800Y36025D02*
Y38475D01*
X16000D01*
Y36025D02*
Y38475D01*
X14800Y36025D02*
X16000D01*
X16300Y38475D02*
X17500D01*
X16300Y36025D02*
Y38475D01*
Y36025D02*
X17500D01*
Y38475D01*
X250Y11500D02*
Y30500D01*
X14250Y11500D02*
Y30500D01*
X250Y11500D02*
X14250D01*
X250Y30500D02*
X14250D01*
X14750Y29000D02*
X23750D01*
X14750Y17000D02*
Y29000D01*
Y17000D02*
X23750D01*
Y29000D01*
X37360Y14150D02*
Y23850D01*
X30640Y14150D02*
X37360D01*
X30640D02*
Y23850D01*
X37360D01*
X28395Y41710D02*
X41605D01*
Y48810D01*
X28395Y41710D02*
Y48810D01*
X41605D01*
X8395Y41710D02*
X21605D01*
Y48810D01*
X8395Y41710D02*
Y48810D01*
X21605D01*
X17725Y29900D02*
Y31100D01*
X15275D02*
X17725D01*
X15275Y29900D02*
Y31100D01*
Y29900D02*
X17725D01*
X39650Y20800D02*
Y23700D01*
X37850Y20800D02*
Y23700D01*
X39650D01*
X37850Y20800D02*
X39650D01*
X38050Y3600D02*
Y5400D01*
X40950Y3600D02*
Y5400D01*
X38050D02*
X40950D01*
X38050Y3600D02*
X40950D01*
X42450Y9020D02*
Y17020D01*
X49550Y9020D02*
Y17020D01*
X42450D02*
X49550D01*
X42450Y9020D02*
X49550D01*
X42379Y32751D02*
Y40751D01*
X49479Y32751D02*
Y40751D01*
X42379D02*
X49479D01*
X42379Y32751D02*
X49479D01*
D63*
X14865Y31700D02*
Y35300D01*
X21135Y31700D02*
Y35300D01*
X14865D02*
X21135D01*
X14865Y31700D02*
X21135D01*
X30250Y16250D02*
Y23750D01*
X24250Y16250D02*
Y23750D01*
X30250D01*
X24250Y16250D02*
X30250D01*
X20550Y36550D02*
Y39950D01*
X23950D01*
Y36550D02*
Y39950D01*
X20550Y36550D02*
X23950D01*
%TF.MD5,f60ff55016eb15ba0b7c8d9a4b152d3c*%
M02*
