M48
;Layer_Color=9474304
;FILE_FORMAT=4:3
METRIC,LZ
;TYPE=PLATED
T01F00S00C0.300
T02F00S00C1.100
T03F00S00C1.150
T04F00S00C1.300
T05F00S00C1.600
T06F00S00C1.700
T07F00S00C3.500
;TYPE=NON_PLATED
T08F00S00C2.650
%
T01
X00915Y001175
X00906Y00166
X00896Y00186
X00876
X00856
X00836
X00846Y00206
X00866
X00856Y00226
X00836
X00846Y00246
X00866
X00876Y00266
X00856
X00836
X00846Y00286
X00866
X00856Y00306
X00866Y00326
X00846
X00826
X00836Y00346
X00856
X00866Y00366
X00846
X00826
X00836Y00386
X00856
X00876
X00866Y00406
X00846
X00856Y00426
X00836
X00846Y00446
X00866
X00876Y00466
X00856
X00836
X00846Y00486
X00866
X00856Y00506
X00836
X00846Y00526
X00866
X00906Y00486
X00916Y00466
Y00386
X00906Y00366
Y00286
X00916Y00266
X00816Y00306
X00796
X00776
X00756
X00736
X00716
X00696
X00676
X00656
X00666Y00326
X00686
X00706
X00696Y00346
X00676
X00656
X00601Y00346
X00586
X005935Y00361
X006085
X0061Y0038763
X00623Y0038237
X00597
X00586Y00376
X00605Y004075
X0058Y004325
Y004675
X007225Y004525
Y004825
X00795
Y004525
X00776Y00386
X00756
X00736
X00746Y00366
X00766
X00776Y00346
X00756
X00766Y00326
X00746
X00747Y00277
X007705
X00816Y00346
Y00386
X00696
X00706Y00366
X006085Y00331
X00846Y00166
X00866
X00487Y003495
Y003755
X004825Y0046
X00126Y00546
X00136Y00566
X00126Y00586
X00136Y00606
X00126Y00626
X00136Y00686
X00126Y00706
X00085Y006575
X00146Y00626
X00166
X00186
X00206
X00226
X00246
X00256Y00606
X00276
X00296
X00266Y00586
Y00546
X00226
X00206
X00216Y00566
X00226Y00586
X00236Y00606
X00216
X00176
X00156
X00166Y00586
X00146
X00156Y00566
X00176
X00166Y00546
X00146
X00236Y00686
X00246Y00706
X003175Y006725
X00365Y0066
Y00635
X00416Y00646
X00436
X00446Y00666
X00426
X00436Y00686
X00416
X00426Y00706
X00446
X00456Y00726
X00476
X00496
X00516
X00536
X00436
X00416
X003883Y007175
Y007525
Y007875
Y008225
X003517Y007275
X003175Y00745
X00356Y00566
X00396
X00416
X00436
X00446Y00586
X00426
X00406
X00416Y00606
X00436
X00446Y00626
X00426
Y00546
X00446
X00406
X00386
X00487Y005795
Y006055
X00586Y00601
X00601
X00597Y0061237
X0061Y0061763
X00623Y0061237
X006085Y00586
X005935
X00586Y00571
X00601
X006085Y00556
X00636Y00566
X00656
X00676
X00696
X00716
X00736
X00756
X00776
X00796
X00816
X00806Y00586
X00786
X00766
X00746
X00726
X00706
X00716Y00606
X00736
X00756
X00776
X00796
X00816
X00806Y00546
X00786
X00766
X00746
X00726
X00706
X00686
X00666
X00646
X00696Y00606
X00746Y00626
X00766
X00776Y00646
X00756
X00766Y00666
X00746
X00756Y00686
X00776
X00795Y006825
X00766Y00706
X00746
X00756Y00726
X00776
X00736
X00716
X00696
X00676
X00656
X00636
X00616
X00596
X00576
X00556
X0058Y006975
Y006625
X0055Y006675
X00605Y006375
X006675Y006975
X007225Y006825
X00846Y00566
X00866
X00856Y00546
X00906Y00566
T02
X004365Y00795
X004619
X004873
X005127
X005381
X005635
T03
X001046Y006725
X0013
Y0073
X001046
X001554
Y006725
X002131
X002385
X002639
Y0073
X002385
X002131
T04
X0008Y001238
X0089Y001725
Y002233
Y002733
Y003241
Y003741
Y004249
Y004749
Y005257
X0008Y003762
Y003254
Y002754
Y002246
Y001746
X0089Y005757
Y006265
T05
X002496Y002775
Y003025
X002846
Y002775
X003354
Y003025
X003704
Y002775
Y003475
Y003725
X003354
Y003475
X002846
Y003725
X002496
Y003475
Y004175
Y004425
X002846
Y004175
X003354
Y004425
X003704
Y004175
Y004875
Y005125
X003354
Y004875
X002846
Y005125
X002496
Y004875
Y005575
Y005825
X002846
Y005575
X003354
Y005825
X003704
Y005575
T06
X00271Y001249
X003726
X004742
X005758
X006774
X00779
Y002265
X006774
X005758
X004742
X003726
X00271
T07
X00045Y00045
X00915
X00045Y00805
X00915
T08
X0031Y0029045
Y0036045
Y0043045
Y0050045
Y0056955
M30
