%TF.GenerationSoftware,Altium Limited,Altium Designer,25.2.1 (25)*%
G04 Layer_Color=65535*
%FSLAX43Y43*%
%MOMM*%
%TF.SameCoordinates,3E8C3AF6-32D8-460F-991F-00D2D819B343*%
%TF.FilePolarity,Positive*%
%TF.FileFunction,Legend,Top*%
%TF.Part,Single*%
G01*
G75*
%TA.AperFunction,NonConductor*%
%ADD41C,0.200*%
%ADD42C,0.127*%
%ADD43C,0.100*%
%ADD44C,0.254*%
%ADD45C,0.400*%
%ADD46C,0.150*%
G36*
X13400Y52999D02*
X13495D01*
Y52992D01*
X13546D01*
Y52985D01*
X13598D01*
Y52977D01*
X13634D01*
Y52970D01*
X13678D01*
Y52963D01*
X13693D01*
Y52956D01*
X13729D01*
Y52948D01*
X13759D01*
Y52941D01*
X13781D01*
Y52934D01*
X13810D01*
Y52926D01*
X13825D01*
Y52919D01*
X13847D01*
Y52912D01*
X13869D01*
Y52904D01*
X13883D01*
Y52897D01*
X13905D01*
Y52890D01*
X13920D01*
Y52882D01*
X13949D01*
Y52875D01*
X13956D01*
Y52868D01*
X13978D01*
Y52860D01*
X13986D01*
Y52853D01*
X14000D01*
Y52846D01*
X14022D01*
Y52838D01*
X14030D01*
Y52831D01*
X14052D01*
Y52824D01*
X14066D01*
Y52816D01*
X14081D01*
Y52809D01*
X14088D01*
Y52802D01*
X14103D01*
Y52794D01*
X14118D01*
Y52787D01*
X14125D01*
Y52780D01*
X14140D01*
Y52772D01*
X14154D01*
Y52765D01*
X14162D01*
Y52758D01*
X14176D01*
Y52750D01*
X14184D01*
Y52743D01*
X14198D01*
Y52736D01*
X14206D01*
Y52728D01*
X14220D01*
Y52721D01*
X14227D01*
Y52714D01*
X14235D01*
Y52706D01*
X14249D01*
Y52699D01*
X14257D01*
Y52692D01*
X14271D01*
Y52684D01*
X14279D01*
Y52677D01*
X14286D01*
Y52670D01*
X14301D01*
Y52663D01*
X14308D01*
Y52655D01*
X14315D01*
Y52648D01*
X14323D01*
Y52641D01*
X14330D01*
Y52633D01*
X14345D01*
Y52619D01*
X14359D01*
Y52611D01*
X14367D01*
Y52604D01*
X14374D01*
Y52597D01*
X14381D01*
Y52589D01*
X14389D01*
Y52582D01*
X14396D01*
Y52575D01*
X14403D01*
Y52567D01*
X14418D01*
Y52553D01*
X14433D01*
Y52538D01*
X14440D01*
Y52531D01*
X14447D01*
Y52523D01*
X14455D01*
Y52516D01*
X14462D01*
Y52509D01*
X14469D01*
Y52501D01*
X14477D01*
Y52494D01*
X14484D01*
Y52487D01*
X14491D01*
Y52479D01*
X14499D01*
Y52472D01*
X14506D01*
Y52457D01*
X14513D01*
Y52450D01*
X14520D01*
Y52443D01*
X14528D01*
Y52435D01*
X14535D01*
Y52428D01*
X14542D01*
Y52413D01*
X14550D01*
Y52406D01*
X14557D01*
Y52399D01*
X14564D01*
Y52391D01*
X14572D01*
Y52377D01*
X14579D01*
Y52370D01*
X14586D01*
Y52355D01*
X14594D01*
Y52348D01*
X14601D01*
Y52340D01*
X14608D01*
Y52326D01*
X14616D01*
Y52318D01*
X14623D01*
Y52304D01*
X14630D01*
Y52296D01*
X14638D01*
Y52289D01*
X14645D01*
Y52267D01*
X14652D01*
Y52260D01*
X14660D01*
Y52245D01*
X14667D01*
Y52238D01*
X14674D01*
Y52223D01*
X14682D01*
Y52208D01*
X14689D01*
Y52201D01*
X14696D01*
Y52186D01*
X14704D01*
Y52172D01*
X14711D01*
Y52157D01*
X14718D01*
Y52135D01*
X14726D01*
Y52128D01*
X14733D01*
Y52106D01*
X14740D01*
Y52098D01*
X14748D01*
Y52076D01*
X14755D01*
Y52062D01*
X14762D01*
Y52047D01*
X14770D01*
Y52025D01*
X14777D01*
Y52011D01*
X14784D01*
Y51981D01*
X14792D01*
Y51967D01*
X14799D01*
Y51945D01*
X14806D01*
Y51923D01*
X14813D01*
Y51908D01*
X14821D01*
Y51871D01*
X14828D01*
Y51849D01*
X14835D01*
Y51813D01*
X14843D01*
Y51791D01*
X14850D01*
Y51762D01*
X14857D01*
Y51710D01*
X14865D01*
Y51674D01*
X14872D01*
Y51608D01*
X14879D01*
Y51512D01*
X14887D01*
Y45499D01*
X14879D01*
Y45403D01*
X14872D01*
Y45337D01*
X14865D01*
Y45301D01*
X14857D01*
Y45250D01*
X14850D01*
Y45220D01*
X14843D01*
Y45198D01*
X14835D01*
Y45162D01*
X14828D01*
Y45140D01*
X14821D01*
Y45103D01*
X14813D01*
Y45088D01*
X14806D01*
Y45066D01*
X14799D01*
Y45044D01*
X14792D01*
Y45030D01*
X14784D01*
Y45001D01*
X14777D01*
Y44986D01*
X14770D01*
Y44964D01*
X14762D01*
Y44949D01*
X14755D01*
Y44935D01*
X14748D01*
Y44913D01*
X14740D01*
Y44905D01*
X14733D01*
Y44883D01*
X14726D01*
Y44876D01*
X14718D01*
Y44854D01*
X14711D01*
Y44839D01*
X14704D01*
Y44825D01*
X14696D01*
Y44810D01*
X14689D01*
Y44803D01*
X14682D01*
Y44788D01*
X14674D01*
Y44773D01*
X14667D01*
Y44766D01*
X14660D01*
Y44751D01*
X14652D01*
Y44744D01*
X14645D01*
Y44722D01*
X14638D01*
Y44715D01*
X14630D01*
Y44708D01*
X14623D01*
Y44693D01*
X14616D01*
Y44686D01*
X14608D01*
Y44671D01*
X14601D01*
Y44664D01*
X14594D01*
Y44656D01*
X14586D01*
Y44642D01*
X14579D01*
Y44634D01*
X14572D01*
Y44620D01*
X14564D01*
Y44612D01*
X14557D01*
Y44605D01*
X14550D01*
Y44598D01*
X14542D01*
Y44583D01*
X14535D01*
Y44576D01*
X14528D01*
Y44568D01*
X14520D01*
Y44561D01*
X14513D01*
Y44554D01*
X14506D01*
Y44539D01*
X14499D01*
Y44532D01*
X14491D01*
Y44524D01*
X14484D01*
Y44517D01*
X14477D01*
Y44510D01*
X14469D01*
Y44502D01*
X14462D01*
Y44495D01*
X14455D01*
Y44488D01*
X14447D01*
Y44480D01*
X14440D01*
Y44473D01*
X14433D01*
Y44458D01*
X14418D01*
Y44444D01*
X14403D01*
Y44437D01*
X14396D01*
Y44429D01*
X14389D01*
Y44422D01*
X14381D01*
Y44415D01*
X14374D01*
Y44407D01*
X14367D01*
Y44400D01*
X14359D01*
Y44393D01*
X14345D01*
Y44378D01*
X14330D01*
Y44371D01*
X14323D01*
Y44363D01*
X14315D01*
Y44356D01*
X14308D01*
Y44349D01*
X14301D01*
Y44341D01*
X14286D01*
Y44334D01*
X14279D01*
Y44327D01*
X14271D01*
Y44319D01*
X14257D01*
Y44312D01*
X14249D01*
Y44305D01*
X14235D01*
Y44297D01*
X14227D01*
Y44290D01*
X14220D01*
Y44283D01*
X14206D01*
Y44275D01*
X14198D01*
Y44268D01*
X14184D01*
Y44261D01*
X14176D01*
Y44253D01*
X14162D01*
Y44246D01*
X14154D01*
Y44239D01*
X14140D01*
Y44231D01*
X14125D01*
Y44224D01*
X14118D01*
Y44217D01*
X14103D01*
Y44209D01*
X14088D01*
Y44202D01*
X14081D01*
Y44195D01*
X14066D01*
Y44187D01*
X14052D01*
Y44180D01*
X14030D01*
Y44173D01*
X14022D01*
Y44165D01*
X14000D01*
Y44158D01*
X13986D01*
Y44151D01*
X13978D01*
Y44144D01*
X13956D01*
Y44136D01*
X13949D01*
Y44129D01*
X13920D01*
Y44122D01*
X13905D01*
Y44114D01*
X13883D01*
Y44107D01*
X13869D01*
Y44100D01*
X13847D01*
Y44092D01*
X13825D01*
Y44085D01*
X13810D01*
Y44078D01*
X13781D01*
Y44070D01*
X13759D01*
Y44063D01*
X13729D01*
Y44056D01*
X13693D01*
Y44048D01*
X13678D01*
Y44041D01*
X13634D01*
Y44034D01*
X13598D01*
Y44026D01*
X13546D01*
Y44019D01*
X13495D01*
Y44012D01*
X13400D01*
Y44004D01*
X4602D01*
Y44012D01*
X4507D01*
Y44019D01*
X4456D01*
Y44026D01*
X4405D01*
Y44034D01*
X4368D01*
Y44041D01*
X4324D01*
Y44048D01*
X4309D01*
Y44056D01*
X4273D01*
Y44063D01*
X4243D01*
Y44070D01*
X4222D01*
Y44078D01*
X4192D01*
Y44085D01*
X4178D01*
Y44092D01*
X4156D01*
Y44100D01*
X4134D01*
Y44107D01*
X4119D01*
Y44114D01*
X4097D01*
Y44122D01*
X4082D01*
Y44129D01*
X4053D01*
Y44136D01*
X4046D01*
Y44144D01*
X4024D01*
Y44151D01*
X4016D01*
Y44158D01*
X4002D01*
Y44165D01*
X3980D01*
Y44173D01*
X3972D01*
Y44180D01*
X3950D01*
Y44187D01*
X3936D01*
Y44195D01*
X3921D01*
Y44202D01*
X3914D01*
Y44209D01*
X3899D01*
Y44217D01*
X3885D01*
Y44224D01*
X3877D01*
Y44231D01*
X3863D01*
Y44239D01*
X3848D01*
Y44246D01*
X3841D01*
Y44253D01*
X3826D01*
Y44261D01*
X3819D01*
Y44268D01*
X3804D01*
Y44275D01*
X3797D01*
Y44283D01*
X3782D01*
Y44290D01*
X3775D01*
Y44297D01*
X3767D01*
Y44305D01*
X3753D01*
Y44312D01*
X3745D01*
Y44319D01*
X3731D01*
Y44327D01*
X3723D01*
Y44334D01*
X3716D01*
Y44341D01*
X3701D01*
Y44349D01*
X3694D01*
Y44356D01*
X3687D01*
Y44363D01*
X3679D01*
Y44371D01*
X3672D01*
Y44378D01*
X3657D01*
Y44393D01*
X3643D01*
Y44400D01*
X3636D01*
Y44407D01*
X3628D01*
Y44415D01*
X3621D01*
Y44422D01*
X3614D01*
Y44429D01*
X3606D01*
Y44437D01*
X3599D01*
Y44444D01*
X3584D01*
Y44458D01*
X3570D01*
Y44473D01*
X3562D01*
Y44480D01*
X3555D01*
Y44488D01*
X3548D01*
Y44495D01*
X3540D01*
Y44502D01*
X3533D01*
Y44510D01*
X3526D01*
Y44517D01*
X3518D01*
Y44524D01*
X3511D01*
Y44532D01*
X3504D01*
Y44539D01*
X3496D01*
Y44554D01*
X3489D01*
Y44561D01*
X3482D01*
Y44568D01*
X3474D01*
Y44576D01*
X3467D01*
Y44583D01*
X3460D01*
Y44598D01*
X3452D01*
Y44605D01*
X3445D01*
Y44612D01*
X3438D01*
Y44620D01*
X3430D01*
Y44634D01*
X3423D01*
Y44642D01*
X3416D01*
Y44656D01*
X3408D01*
Y44664D01*
X3401D01*
Y44671D01*
X3394D01*
Y44686D01*
X3386D01*
Y44693D01*
X3379D01*
Y44708D01*
X3372D01*
Y44715D01*
X3364D01*
Y44722D01*
X3357D01*
Y44744D01*
X3350D01*
Y44751D01*
X3343D01*
Y44766D01*
X3335D01*
Y44773D01*
X3328D01*
Y44788D01*
X3321D01*
Y44803D01*
X3313D01*
Y44810D01*
X3306D01*
Y44825D01*
X3299D01*
Y44839D01*
X3291D01*
Y44854D01*
X3284D01*
Y44876D01*
X3277D01*
Y44883D01*
X3269D01*
Y44905D01*
X3262D01*
Y44913D01*
X3255D01*
Y44935D01*
X3247D01*
Y44949D01*
X3240D01*
Y44964D01*
X3233D01*
Y44986D01*
X3225D01*
Y45001D01*
X3218D01*
Y45030D01*
X3211D01*
Y45044D01*
X3203D01*
Y45066D01*
X3196D01*
Y45088D01*
X3189D01*
Y45103D01*
X3181D01*
Y45140D01*
X3174D01*
Y45162D01*
X3167D01*
Y45198D01*
X3159D01*
Y45220D01*
X3152D01*
Y45250D01*
X3145D01*
Y45301D01*
X3137D01*
Y45337D01*
X3130D01*
Y45403D01*
X3123D01*
Y45499D01*
X3115D01*
Y51512D01*
X3123D01*
Y51608D01*
X3130D01*
Y51674D01*
X3137D01*
Y51710D01*
X3145D01*
Y51762D01*
X3152D01*
Y51791D01*
X3159D01*
Y51813D01*
X3167D01*
Y51849D01*
X3174D01*
Y51871D01*
X3181D01*
Y51908D01*
X3189D01*
Y51923D01*
X3196D01*
Y51945D01*
X3203D01*
Y51967D01*
X3211D01*
Y51981D01*
X3218D01*
Y52011D01*
X3225D01*
Y52025D01*
X3233D01*
Y52047D01*
X3240D01*
Y52062D01*
X3247D01*
Y52076D01*
X3255D01*
Y52098D01*
X3262D01*
Y52106D01*
X3269D01*
Y52128D01*
X3277D01*
Y52135D01*
X3284D01*
Y52157D01*
X3291D01*
Y52172D01*
X3299D01*
Y52186D01*
X3306D01*
Y52201D01*
X3313D01*
Y52208D01*
X3321D01*
Y52223D01*
X3328D01*
Y52238D01*
X3335D01*
Y52245D01*
X3343D01*
Y52260D01*
X3350D01*
Y52267D01*
X3357D01*
Y52289D01*
X3364D01*
Y52296D01*
X3372D01*
Y52304D01*
X3379D01*
Y52318D01*
X3386D01*
Y52326D01*
X3394D01*
Y52340D01*
X3401D01*
Y52348D01*
X3408D01*
Y52355D01*
X3416D01*
Y52370D01*
X3423D01*
Y52377D01*
X3430D01*
Y52391D01*
X3438D01*
Y52399D01*
X3445D01*
Y52406D01*
X3452D01*
Y52413D01*
X3460D01*
Y52428D01*
X3467D01*
Y52435D01*
X3474D01*
Y52443D01*
X3482D01*
Y52450D01*
X3489D01*
Y52457D01*
X3496D01*
Y52472D01*
X3504D01*
Y52479D01*
X3511D01*
Y52487D01*
X3518D01*
Y52494D01*
X3526D01*
Y52501D01*
X3533D01*
Y52509D01*
X3540D01*
Y52516D01*
X3548D01*
Y52523D01*
X3555D01*
Y52531D01*
X3562D01*
Y52538D01*
X3570D01*
Y52553D01*
X3584D01*
Y52567D01*
X3599D01*
Y52575D01*
X3606D01*
Y52582D01*
X3614D01*
Y52589D01*
X3621D01*
Y52597D01*
X3628D01*
Y52604D01*
X3636D01*
Y52611D01*
X3643D01*
Y52619D01*
X3657D01*
Y52633D01*
X3672D01*
Y52641D01*
X3679D01*
Y52648D01*
X3687D01*
Y52655D01*
X3694D01*
Y52663D01*
X3701D01*
Y52670D01*
X3716D01*
Y52677D01*
X3723D01*
Y52684D01*
X3731D01*
Y52692D01*
X3745D01*
Y52699D01*
X3753D01*
Y52706D01*
X3767D01*
Y52714D01*
X3775D01*
Y52721D01*
X3782D01*
Y52728D01*
X3797D01*
Y52736D01*
X3804D01*
Y52743D01*
X3819D01*
Y52750D01*
X3826D01*
Y52758D01*
X3841D01*
Y52765D01*
X3848D01*
Y52772D01*
X3863D01*
Y52780D01*
X3877D01*
Y52787D01*
X3885D01*
Y52794D01*
X3899D01*
Y52802D01*
X3914D01*
Y52809D01*
X3921D01*
Y52816D01*
X3936D01*
Y52824D01*
X3950D01*
Y52831D01*
X3972D01*
Y52838D01*
X3980D01*
Y52846D01*
X4002D01*
Y52853D01*
X4016D01*
Y52860D01*
X4024D01*
Y52868D01*
X4046D01*
Y52875D01*
X4053D01*
Y52882D01*
X4082D01*
Y52890D01*
X4097D01*
Y52897D01*
X4119D01*
Y52904D01*
X4134D01*
Y52912D01*
X4156D01*
Y52919D01*
X4178D01*
Y52926D01*
X4192D01*
Y52934D01*
X4222D01*
Y52941D01*
X4243D01*
Y52948D01*
X4273D01*
Y52956D01*
X4309D01*
Y52963D01*
X4324D01*
Y52970D01*
X4368D01*
Y52977D01*
X4405D01*
Y52985D01*
X4456D01*
Y52992D01*
X4507D01*
Y52999D01*
X4602D01*
Y53007D01*
X13400D01*
Y52999D01*
D02*
G37*
G36*
X90864Y74432D02*
X93045D01*
Y73342D01*
X93044D01*
Y73341D01*
X91955D01*
Y72250D01*
X93044D01*
Y72249D01*
X93045D01*
Y71159D01*
X94136D01*
Y68977D01*
X93045D01*
Y70068D01*
X91956D01*
Y70070D01*
X91955D01*
Y71159D01*
X90864D01*
Y70070D01*
X90862D01*
Y70068D01*
X89773D01*
Y71159D01*
X86500D01*
Y70068D01*
X87590D01*
Y70067D01*
X87591D01*
Y68977D01*
X86500D01*
Y70068D01*
X85410D01*
Y70070D01*
X85409D01*
Y71159D01*
X84318D01*
Y70070D01*
X84317D01*
Y70068D01*
X83227D01*
Y68977D01*
X82136D01*
Y71159D01*
X83227D01*
Y72249D01*
X83229D01*
Y72250D01*
X84318D01*
Y73341D01*
X83229D01*
Y73342D01*
X83227D01*
Y74432D01*
X82136D01*
Y75216D01*
Y75217D01*
Y75523D01*
X83226D01*
Y75521D01*
X83227D01*
Y74432D01*
X85409D01*
Y72250D01*
X86500D01*
Y74432D01*
X85409D01*
Y76614D01*
X86500D01*
Y75523D01*
X89773D01*
Y76614D01*
X90864D01*
Y74432D01*
D02*
G37*
G36*
X94136D02*
X93045D01*
Y74767D01*
Y74768D01*
Y75521D01*
X93047D01*
Y75523D01*
X94136D01*
Y74432D01*
D02*
G37*
G36*
X89773Y69983D02*
Y69981D01*
Y68977D01*
X88682D01*
Y70067D01*
X88683D01*
Y70068D01*
X89773D01*
Y69983D01*
D02*
G37*
%LPC*%
G36*
X13414Y52311D02*
X4588D01*
Y52304D01*
X4522D01*
Y52296D01*
X4485D01*
Y52289D01*
X4463D01*
Y52282D01*
X4427D01*
Y52274D01*
X4412D01*
Y52267D01*
X4383D01*
Y52260D01*
X4368D01*
Y52252D01*
X4346D01*
Y52245D01*
X4331D01*
Y52238D01*
X4317D01*
Y52230D01*
X4295D01*
Y52223D01*
X4287D01*
Y52216D01*
X4273D01*
Y52208D01*
X4258D01*
Y52201D01*
X4243D01*
Y52194D01*
X4229D01*
Y52186D01*
X4222D01*
Y52179D01*
X4207D01*
Y52172D01*
X4192D01*
Y52164D01*
X4185D01*
Y52157D01*
X4178D01*
Y52150D01*
X4163D01*
Y52142D01*
X4156D01*
Y52135D01*
X4148D01*
Y52128D01*
X4134D01*
Y52120D01*
X4126D01*
Y52113D01*
X4119D01*
Y52106D01*
X4112D01*
Y52098D01*
X4104D01*
Y52091D01*
X4090D01*
Y52084D01*
X4082D01*
Y52076D01*
X4075D01*
Y52069D01*
X4068D01*
Y52062D01*
X4060D01*
Y52055D01*
X4053D01*
Y52047D01*
X4046D01*
Y52040D01*
X4038D01*
Y52033D01*
X4031D01*
Y52018D01*
X4024D01*
Y52011D01*
X4016D01*
Y52003D01*
X4009D01*
Y51996D01*
X4002D01*
Y51989D01*
X3994D01*
Y51981D01*
X3987D01*
Y51967D01*
X3980D01*
Y51959D01*
X3972D01*
Y51945D01*
X3965D01*
Y51937D01*
X3958D01*
Y51930D01*
X3950D01*
Y51915D01*
X3943D01*
Y51901D01*
X3936D01*
Y51893D01*
X3929D01*
Y51879D01*
X3921D01*
Y51864D01*
X3914D01*
Y51857D01*
X3907D01*
Y51842D01*
X3899D01*
Y51820D01*
X3892D01*
Y51813D01*
X3885D01*
Y51791D01*
X3877D01*
Y51784D01*
X3870D01*
Y51754D01*
X3863D01*
Y51740D01*
X3855D01*
Y51718D01*
X3848D01*
Y51688D01*
X3841D01*
Y51666D01*
X3833D01*
Y51630D01*
X3826D01*
Y51600D01*
X3819D01*
Y51549D01*
X3811D01*
Y45462D01*
X3819D01*
Y45411D01*
X3826D01*
Y45381D01*
X3833D01*
Y45345D01*
X3841D01*
Y45323D01*
X3848D01*
Y45294D01*
X3855D01*
Y45272D01*
X3863D01*
Y45257D01*
X3870D01*
Y45228D01*
X3877D01*
Y45220D01*
X3885D01*
Y45198D01*
X3892D01*
Y45191D01*
X3899D01*
Y45169D01*
X3907D01*
Y45154D01*
X3914D01*
Y45147D01*
X3921D01*
Y45132D01*
X3929D01*
Y45118D01*
X3936D01*
Y45110D01*
X3943D01*
Y45096D01*
X3950D01*
Y45081D01*
X3958D01*
Y45074D01*
X3965D01*
Y45066D01*
X3972D01*
Y45052D01*
X3980D01*
Y45044D01*
X3987D01*
Y45030D01*
X3994D01*
Y45023D01*
X4002D01*
Y45015D01*
X4009D01*
Y45008D01*
X4016D01*
Y45001D01*
X4024D01*
Y44986D01*
X4031D01*
Y44979D01*
X4038D01*
Y44971D01*
X4046D01*
Y44964D01*
X4053D01*
Y44957D01*
X4060D01*
Y44949D01*
X4068D01*
Y44942D01*
X4075D01*
Y44935D01*
X4082D01*
Y44927D01*
X4090D01*
Y44920D01*
X4104D01*
Y44913D01*
X4112D01*
Y44905D01*
X4119D01*
Y44898D01*
X4126D01*
Y44891D01*
X4134D01*
Y44883D01*
X4148D01*
Y44876D01*
X4156D01*
Y44869D01*
X4163D01*
Y44861D01*
X4178D01*
Y44854D01*
X4185D01*
Y44847D01*
X4192D01*
Y44839D01*
X4207D01*
Y44832D01*
X4222D01*
Y44825D01*
X4229D01*
Y44817D01*
X4243D01*
Y44810D01*
X4258D01*
Y44803D01*
X4273D01*
Y44795D01*
X4287D01*
Y44788D01*
X4295D01*
Y44781D01*
X4317D01*
Y44773D01*
X4331D01*
Y44766D01*
X4346D01*
Y44759D01*
X4368D01*
Y44751D01*
X4383D01*
Y44744D01*
X4412D01*
Y44737D01*
X4427D01*
Y44730D01*
X4463D01*
Y44722D01*
X4485D01*
Y44715D01*
X4522D01*
Y44708D01*
X4588D01*
Y44700D01*
X13422D01*
Y44708D01*
X13480D01*
Y44715D01*
X13517D01*
Y44722D01*
X13539D01*
Y44730D01*
X13576D01*
Y44737D01*
X13590D01*
Y44744D01*
X13620D01*
Y44751D01*
X13634D01*
Y44759D01*
X13656D01*
Y44766D01*
X13671D01*
Y44773D01*
X13685D01*
Y44781D01*
X13707D01*
Y44788D01*
X13715D01*
Y44795D01*
X13729D01*
Y44803D01*
X13744D01*
Y44810D01*
X13759D01*
Y44817D01*
X13773D01*
Y44825D01*
X13781D01*
Y44832D01*
X13795D01*
Y44839D01*
X13810D01*
Y44847D01*
X13817D01*
Y44854D01*
X13825D01*
Y44861D01*
X13839D01*
Y44869D01*
X13847D01*
Y44876D01*
X13854D01*
Y44883D01*
X13869D01*
Y44891D01*
X13876D01*
Y44898D01*
X13883D01*
Y44905D01*
X13891D01*
Y44913D01*
X13898D01*
Y44920D01*
X13913D01*
Y44927D01*
X13920D01*
Y44935D01*
X13927D01*
Y44942D01*
X13934D01*
Y44949D01*
X13942D01*
Y44957D01*
X13949D01*
Y44964D01*
X13956D01*
Y44971D01*
X13964D01*
Y44979D01*
X13971D01*
Y44986D01*
X13978D01*
Y45001D01*
X13986D01*
Y45008D01*
X13993D01*
Y45015D01*
X14000D01*
Y45023D01*
X14008D01*
Y45030D01*
X14015D01*
Y45044D01*
X14022D01*
Y45052D01*
X14030D01*
Y45066D01*
X14037D01*
Y45074D01*
X14044D01*
Y45081D01*
X14052D01*
Y45096D01*
X14059D01*
Y45110D01*
X14066D01*
Y45118D01*
X14074D01*
Y45125D01*
X14081D01*
Y45147D01*
X14088D01*
Y45154D01*
X14096D01*
Y45169D01*
X14103D01*
Y45191D01*
X14110D01*
Y45198D01*
X14118D01*
Y45220D01*
X14125D01*
Y45228D01*
X14132D01*
Y45257D01*
X14140D01*
Y45272D01*
X14147D01*
Y45294D01*
X14154D01*
Y45323D01*
X14162D01*
Y45345D01*
X14169D01*
Y45381D01*
X14176D01*
Y45411D01*
X14184D01*
Y45462D01*
X14191D01*
Y51549D01*
X14184D01*
Y51600D01*
X14176D01*
Y51630D01*
X14169D01*
Y51666D01*
X14162D01*
Y51688D01*
X14154D01*
Y51718D01*
X14147D01*
Y51740D01*
X14140D01*
Y51754D01*
X14132D01*
Y51784D01*
X14125D01*
Y51791D01*
X14118D01*
Y51813D01*
X14110D01*
Y51820D01*
X14103D01*
Y51842D01*
X14096D01*
Y51857D01*
X14088D01*
Y51864D01*
X14081D01*
Y51879D01*
X14074D01*
Y51893D01*
X14066D01*
Y51901D01*
X14059D01*
Y51915D01*
X14052D01*
Y51930D01*
X14044D01*
Y51937D01*
X14037D01*
Y51945D01*
X14030D01*
Y51959D01*
X14022D01*
Y51967D01*
X14015D01*
Y51981D01*
X14008D01*
Y51989D01*
X14000D01*
Y51996D01*
X13993D01*
Y52003D01*
X13986D01*
Y52011D01*
X13978D01*
Y52025D01*
X13971D01*
Y52033D01*
X13964D01*
Y52040D01*
X13956D01*
Y52047D01*
X13949D01*
Y52055D01*
X13942D01*
Y52062D01*
X13934D01*
Y52069D01*
X13927D01*
Y52076D01*
X13920D01*
Y52084D01*
X13913D01*
Y52091D01*
X13898D01*
Y52098D01*
X13891D01*
Y52106D01*
X13883D01*
Y52113D01*
X13876D01*
Y52120D01*
X13869D01*
Y52128D01*
X13854D01*
Y52135D01*
X13847D01*
Y52142D01*
X13839D01*
Y52150D01*
X13825D01*
Y52157D01*
X13817D01*
Y52164D01*
X13810D01*
Y52172D01*
X13795D01*
Y52179D01*
X13781D01*
Y52186D01*
X13773D01*
Y52194D01*
X13759D01*
Y52201D01*
X13744D01*
Y52208D01*
X13729D01*
Y52216D01*
X13715D01*
Y52223D01*
X13707D01*
Y52230D01*
X13685D01*
Y52238D01*
X13671D01*
Y52245D01*
X13656D01*
Y52252D01*
X13634D01*
Y52260D01*
X13620D01*
Y52267D01*
X13590D01*
Y52274D01*
X13576D01*
Y52282D01*
X13539D01*
Y52289D01*
X13517D01*
Y52296D01*
X13480D01*
Y52304D01*
X13414D01*
Y52311D01*
D02*
G37*
%LPD*%
G36*
X8814Y51791D02*
X8829D01*
Y45748D01*
X8822D01*
Y45740D01*
X8814D01*
Y45733D01*
X8800D01*
Y45740D01*
X7811D01*
Y45733D01*
X7803D01*
Y45740D01*
X7789D01*
Y46077D01*
X7803D01*
Y46085D01*
X7818D01*
Y46077D01*
X7825D01*
Y46085D01*
X8448D01*
Y46077D01*
X8463D01*
Y46085D01*
X8477D01*
Y46092D01*
X8485D01*
Y46817D01*
Y46824D01*
Y48326D01*
X8477D01*
Y48341D01*
X8470D01*
Y48348D01*
X8463D01*
Y48355D01*
X8455D01*
Y48363D01*
X8441D01*
Y48370D01*
X8433D01*
Y48377D01*
X8426D01*
Y48385D01*
X8419D01*
Y48392D01*
X8411D01*
Y48399D01*
X8404D01*
Y48407D01*
X8397D01*
Y48414D01*
X8389D01*
Y48421D01*
X8382D01*
Y48429D01*
X8375D01*
Y48436D01*
X8367D01*
Y48443D01*
X8353D01*
Y48451D01*
X8345D01*
Y48458D01*
X8338D01*
Y48465D01*
X8331D01*
Y48473D01*
X8324D01*
Y48480D01*
X8316D01*
Y48487D01*
X8309D01*
Y48495D01*
X8302D01*
Y48502D01*
X8294D01*
Y48509D01*
X8287D01*
Y48517D01*
X8272D01*
Y48524D01*
X8265D01*
Y48531D01*
X8258D01*
Y48539D01*
X8250D01*
Y48546D01*
X8243D01*
Y48553D01*
X8236D01*
Y48561D01*
X8228D01*
Y48568D01*
X8221D01*
Y48575D01*
X8214D01*
Y48582D01*
X8199D01*
Y48590D01*
X8192D01*
Y48597D01*
X8184D01*
Y48604D01*
X8177D01*
Y48612D01*
X8170D01*
Y48619D01*
X8162D01*
Y48626D01*
X8155D01*
Y48634D01*
X8148D01*
Y48641D01*
X8140D01*
Y48648D01*
X8133D01*
Y48656D01*
X8126D01*
Y48663D01*
X8111D01*
Y48670D01*
X8104D01*
Y48678D01*
X8096D01*
Y48685D01*
X8089D01*
Y48692D01*
X8082D01*
Y48700D01*
X8074D01*
Y48707D01*
X8067D01*
Y48714D01*
X8060D01*
Y48722D01*
X8052D01*
Y48729D01*
X8038D01*
Y48736D01*
X8031D01*
Y48744D01*
X8023D01*
Y48751D01*
X8016D01*
Y48758D01*
X8009D01*
Y48766D01*
X8001D01*
Y48773D01*
X7994D01*
Y48780D01*
X7987D01*
Y48788D01*
X7979D01*
Y48795D01*
X7972D01*
Y48802D01*
X7965D01*
Y48810D01*
X7950D01*
Y48817D01*
X7943D01*
Y48824D01*
X7935D01*
Y48832D01*
X7928D01*
Y48839D01*
X7921D01*
Y48846D01*
X7913D01*
Y48854D01*
X7906D01*
Y48861D01*
X7899D01*
Y48868D01*
X7891D01*
Y48875D01*
X7877D01*
Y48883D01*
X7869D01*
Y48890D01*
X7862D01*
Y48897D01*
X7855D01*
Y48905D01*
X7847D01*
Y48912D01*
X7840D01*
Y48919D01*
X7833D01*
Y48927D01*
X7825D01*
Y48934D01*
X7818D01*
Y48941D01*
X7811D01*
Y48949D01*
X7796D01*
Y48956D01*
X7789D01*
Y48963D01*
X7781D01*
Y48971D01*
X7774D01*
Y48978D01*
X7767D01*
Y48985D01*
X7759D01*
Y48993D01*
X7752D01*
Y49000D01*
X7745D01*
Y49007D01*
X7738D01*
Y49015D01*
X7730D01*
Y49022D01*
X7723D01*
Y49029D01*
X7708D01*
Y49037D01*
X7701D01*
Y49044D01*
X7694D01*
Y49051D01*
X7686D01*
Y49059D01*
X7679D01*
Y49066D01*
X7672D01*
Y49073D01*
X7664D01*
Y49081D01*
X7657D01*
Y49088D01*
X7650D01*
Y49095D01*
X7635D01*
Y49103D01*
X7628D01*
Y49110D01*
X7620D01*
Y49117D01*
X7613D01*
Y49125D01*
X7606D01*
Y49132D01*
X7598D01*
Y49139D01*
X7591D01*
Y49146D01*
X7584D01*
Y49154D01*
X7576D01*
Y49161D01*
X7569D01*
Y49168D01*
X7562D01*
Y49176D01*
X7547D01*
Y49183D01*
X7540D01*
Y49190D01*
X7532D01*
Y49198D01*
X7525D01*
Y49205D01*
X7518D01*
Y49212D01*
X7510D01*
Y49220D01*
X7503D01*
Y49227D01*
X7496D01*
Y49234D01*
X7488D01*
Y49242D01*
X7474D01*
Y49249D01*
X7466D01*
Y49256D01*
X7459D01*
Y49264D01*
X7452D01*
Y49271D01*
X7445D01*
Y49278D01*
X7437D01*
Y49286D01*
X7430D01*
Y49293D01*
X7423D01*
Y49300D01*
X7415D01*
Y49308D01*
X7408D01*
Y49315D01*
X7401D01*
Y49322D01*
X7386D01*
Y49330D01*
X7379D01*
Y49337D01*
X7371D01*
Y49344D01*
X7364D01*
Y49352D01*
X7357D01*
Y49359D01*
X7349D01*
Y49366D01*
X7335D01*
Y49381D01*
X7327D01*
Y49388D01*
X7313D01*
Y49403D01*
X7298D01*
Y49410D01*
X7291D01*
Y49418D01*
X7283D01*
Y49425D01*
X7276D01*
Y49432D01*
X7269D01*
Y49439D01*
X7261D01*
Y49447D01*
X7254D01*
Y49454D01*
X7239D01*
Y49461D01*
X7232D01*
Y49469D01*
X7225D01*
Y49476D01*
X7217D01*
Y49483D01*
X7210D01*
Y49491D01*
X7203D01*
Y49498D01*
X7195D01*
Y49505D01*
X7188D01*
Y49513D01*
X7181D01*
Y49520D01*
X7173D01*
Y49527D01*
X7166D01*
Y49535D01*
X7159D01*
Y49542D01*
X7144D01*
Y49549D01*
X7137D01*
Y49557D01*
X7130D01*
Y49564D01*
X7122D01*
Y49571D01*
X7115D01*
Y49579D01*
X7108D01*
Y49586D01*
X7100D01*
Y49593D01*
X7093D01*
Y49601D01*
X7086D01*
Y49608D01*
X7071D01*
Y49615D01*
X7064D01*
Y49623D01*
X7056D01*
Y49630D01*
X7049D01*
Y49637D01*
X7042D01*
Y49645D01*
X7034D01*
Y49652D01*
X7027D01*
Y49659D01*
X7020D01*
Y49667D01*
X7012D01*
Y49674D01*
X7005D01*
Y49681D01*
X6998D01*
Y49689D01*
X6983D01*
Y49696D01*
X6976D01*
Y49703D01*
X6968D01*
Y49711D01*
X6961D01*
Y49718D01*
X6954D01*
Y49725D01*
X6946D01*
Y49732D01*
X6939D01*
Y49740D01*
X6932D01*
Y49747D01*
X6924D01*
Y49754D01*
X6910D01*
Y49762D01*
X6902D01*
Y49769D01*
X6895D01*
Y49776D01*
X6888D01*
Y49784D01*
X6880D01*
Y49791D01*
X6873D01*
Y49798D01*
X6866D01*
Y49806D01*
X6859D01*
Y49813D01*
X6851D01*
Y49820D01*
X6844D01*
Y49828D01*
X6829D01*
Y49835D01*
X6822D01*
Y49842D01*
X6815D01*
Y49850D01*
X6807D01*
Y49857D01*
X6800D01*
Y49864D01*
X6793D01*
Y49872D01*
X6785D01*
Y49879D01*
X6778D01*
Y49886D01*
X6771D01*
Y49894D01*
X6763D01*
Y49901D01*
X6756D01*
Y49908D01*
X6741D01*
Y49916D01*
X6734D01*
Y49923D01*
X6727D01*
Y49930D01*
X6719D01*
Y49938D01*
X6712D01*
Y49945D01*
X6705D01*
Y49952D01*
X6697D01*
Y49960D01*
X6690D01*
Y49967D01*
X6683D01*
Y49974D01*
X6668D01*
Y49982D01*
X6661D01*
Y49989D01*
X6653D01*
Y49996D01*
X6646D01*
Y50004D01*
X6639D01*
Y50011D01*
X6631D01*
Y50018D01*
X6624D01*
Y50026D01*
X6617D01*
Y50033D01*
X6602D01*
Y50047D01*
X6595D01*
Y50055D01*
X6580D01*
Y50047D01*
X6573D01*
Y50033D01*
X6566D01*
Y50011D01*
X6558D01*
Y49989D01*
X6551D01*
Y49967D01*
X6544D01*
Y49938D01*
X6536D01*
Y49916D01*
X6529D01*
Y49894D01*
X6522D01*
Y49872D01*
X6514D01*
Y49850D01*
X6507D01*
Y49828D01*
X6500D01*
Y49806D01*
X6492D01*
Y49776D01*
X6485D01*
Y49754D01*
X6478D01*
Y49732D01*
X6470D01*
Y49711D01*
X6463D01*
Y49689D01*
X6456D01*
Y49667D01*
X6448D01*
Y49645D01*
X6441D01*
Y49615D01*
X6434D01*
Y49593D01*
X6426D01*
Y49571D01*
X6419D01*
Y49549D01*
X6412D01*
Y49527D01*
X6404D01*
Y49505D01*
X6397D01*
Y49476D01*
X6390D01*
Y49461D01*
X6382D01*
Y49432D01*
X6375D01*
Y49410D01*
X6368D01*
Y49388D01*
X6360D01*
Y49366D01*
X6353D01*
Y49344D01*
X6346D01*
Y49315D01*
X6338D01*
Y49293D01*
X6331D01*
Y49271D01*
X6324D01*
Y49249D01*
X6316D01*
Y49227D01*
X6309D01*
Y49205D01*
X6302D01*
Y49183D01*
X6294D01*
Y49154D01*
X6287D01*
Y49139D01*
X6280D01*
Y49110D01*
X6273D01*
Y49088D01*
X6265D01*
Y49066D01*
X6258D01*
Y49044D01*
X6251D01*
Y49022D01*
X6243D01*
Y48993D01*
X6236D01*
Y48971D01*
X6229D01*
Y48949D01*
X6221D01*
Y48927D01*
X6214D01*
Y48905D01*
X6207D01*
Y48883D01*
X6199D01*
Y48861D01*
X6192D01*
Y48839D01*
X6185D01*
Y48810D01*
X6177D01*
Y48788D01*
X6170D01*
Y48766D01*
X6163D01*
Y48744D01*
X6155D01*
Y48722D01*
X6148D01*
Y48700D01*
X6141D01*
Y48678D01*
X6133D01*
Y48648D01*
X6126D01*
Y48626D01*
X6119D01*
Y48604D01*
X6111D01*
Y48582D01*
X6104D01*
Y48561D01*
X6097D01*
Y48539D01*
X6089D01*
Y48509D01*
X6082D01*
Y48487D01*
X6075D01*
Y48465D01*
X6067D01*
Y48443D01*
X6060D01*
Y48421D01*
X6053D01*
Y48399D01*
X6045D01*
Y48377D01*
X6038D01*
Y48355D01*
X6031D01*
Y48326D01*
X6023D01*
Y48311D01*
X6016D01*
Y48282D01*
X6009D01*
Y48260D01*
X6001D01*
Y48238D01*
X5994D01*
Y48216D01*
X5987D01*
Y48194D01*
X5980D01*
Y48165D01*
X5972D01*
Y48143D01*
X5965D01*
Y48121D01*
X5958D01*
Y48099D01*
X5950D01*
Y48077D01*
X5943D01*
Y48055D01*
X5936D01*
Y48033D01*
X5928D01*
Y48004D01*
X5921D01*
Y47982D01*
X5914D01*
Y47960D01*
X5906D01*
Y47938D01*
X5899D01*
Y47916D01*
X5892D01*
Y47894D01*
X5884D01*
Y47872D01*
X5877D01*
Y47843D01*
X5870D01*
Y47821D01*
X5862D01*
Y47799D01*
X5855D01*
Y47777D01*
X5848D01*
Y47755D01*
X5840D01*
Y47733D01*
X5833D01*
Y47711D01*
X5826D01*
Y47681D01*
X5818D01*
Y47660D01*
X5811D01*
Y47638D01*
X5804D01*
Y47616D01*
X5796D01*
Y47594D01*
X5789D01*
Y47572D01*
X5782D01*
Y47542D01*
X5774D01*
Y47528D01*
X5767D01*
Y47498D01*
X5760D01*
Y47476D01*
X5752D01*
Y47454D01*
X5745D01*
Y47432D01*
X5738D01*
Y47410D01*
X5730D01*
Y47381D01*
X5723D01*
Y47367D01*
X5716D01*
Y47337D01*
X5708D01*
Y47315D01*
X5701D01*
Y47293D01*
X5694D01*
Y47271D01*
X5687D01*
Y47249D01*
X5679D01*
Y47220D01*
X5672D01*
Y47205D01*
X5665D01*
Y47176D01*
X5657D01*
Y47154D01*
X5650D01*
Y47132D01*
X5643D01*
Y47110D01*
X5635D01*
Y47088D01*
X5628D01*
Y47059D01*
X5621D01*
Y47044D01*
X5613D01*
Y47015D01*
X5606D01*
Y46993D01*
X5599D01*
Y46971D01*
X5591D01*
Y46949D01*
X5584D01*
Y46927D01*
X5577D01*
Y46905D01*
X5569D01*
Y46876D01*
X5562D01*
Y46854D01*
X5555D01*
Y46832D01*
X5547D01*
Y46810D01*
X5540D01*
Y46788D01*
X5533D01*
Y46766D01*
X5525D01*
Y46744D01*
X5518D01*
Y46715D01*
X5511D01*
Y46693D01*
X5503D01*
Y46671D01*
X5496D01*
Y46649D01*
X5489D01*
Y46627D01*
X5481D01*
Y46605D01*
X5474D01*
Y46583D01*
X5467D01*
Y46553D01*
X5459D01*
Y46531D01*
X5452D01*
Y46509D01*
X5445D01*
Y46488D01*
X5437D01*
Y46466D01*
X5430D01*
Y46444D01*
X5423D01*
Y46422D01*
X5415D01*
Y46392D01*
X5408D01*
Y46370D01*
X5401D01*
Y46348D01*
X5394D01*
Y46326D01*
X5386D01*
Y46304D01*
X5379D01*
Y46282D01*
X5372D01*
Y46260D01*
X5379D01*
Y46253D01*
X5716D01*
Y45916D01*
X5708D01*
Y45909D01*
X4331D01*
Y45916D01*
X4324D01*
Y46246D01*
X4331D01*
Y46253D01*
X5188D01*
Y46260D01*
X5196D01*
Y46268D01*
X5203D01*
Y46297D01*
X5210D01*
Y46319D01*
X5218D01*
Y46341D01*
X5225D01*
Y46363D01*
X5232D01*
Y46385D01*
X5240D01*
Y46407D01*
X5247D01*
Y46429D01*
X5254D01*
Y46451D01*
X5262D01*
Y46473D01*
X5269D01*
Y46495D01*
X5276D01*
Y46524D01*
X5284D01*
Y46546D01*
X5291D01*
Y46568D01*
X5298D01*
Y46590D01*
X5306D01*
Y46612D01*
X5313D01*
Y46634D01*
X5320D01*
Y46656D01*
X5328D01*
Y46685D01*
X5335D01*
Y46700D01*
X5342D01*
Y46729D01*
X5350D01*
Y46751D01*
X5357D01*
Y46773D01*
X5364D01*
Y46795D01*
X5372D01*
Y46817D01*
X5379D01*
Y46839D01*
X5386D01*
Y46861D01*
X5394D01*
Y46883D01*
X5401D01*
Y46912D01*
X5408D01*
Y46934D01*
X5415D01*
Y46956D01*
X5423D01*
Y46978D01*
X5430D01*
Y47000D01*
X5437D01*
Y47022D01*
X5445D01*
Y47044D01*
X5452D01*
Y47066D01*
X5459D01*
Y47088D01*
X5467D01*
Y47117D01*
X5474D01*
Y47139D01*
X5481D01*
Y47161D01*
X5489D01*
Y47183D01*
X5496D01*
Y47205D01*
X5503D01*
Y47227D01*
X5511D01*
Y47249D01*
X5518D01*
Y47271D01*
X5525D01*
Y47293D01*
X5533D01*
Y47323D01*
X5540D01*
Y47345D01*
X5547D01*
Y47367D01*
X5555D01*
Y47389D01*
X5562D01*
Y47410D01*
X5569D01*
Y47432D01*
X5577D01*
Y47454D01*
X5584D01*
Y47476D01*
X5591D01*
Y47506D01*
X5599D01*
Y47528D01*
X5606D01*
Y47550D01*
X5613D01*
Y47572D01*
X5621D01*
Y47594D01*
X5628D01*
Y47616D01*
X5635D01*
Y47638D01*
X5643D01*
Y47660D01*
X5650D01*
Y47681D01*
X5657D01*
Y47711D01*
X5665D01*
Y47733D01*
X5672D01*
Y47755D01*
X5679D01*
Y47777D01*
X5687D01*
Y47799D01*
X5694D01*
Y47821D01*
X5701D01*
Y47843D01*
X5708D01*
Y47865D01*
X5716D01*
Y47887D01*
X5723D01*
Y47909D01*
X5730D01*
Y47938D01*
X5738D01*
Y47960D01*
X5745D01*
Y47982D01*
X5752D01*
Y48004D01*
X5760D01*
Y48026D01*
X5767D01*
Y48048D01*
X5774D01*
Y48070D01*
X5782D01*
Y48092D01*
X5789D01*
Y48121D01*
X5796D01*
Y48136D01*
X5804D01*
Y48165D01*
X5811D01*
Y48187D01*
X5818D01*
Y48209D01*
X5826D01*
Y48231D01*
X5833D01*
Y48253D01*
X5840D01*
Y48275D01*
X5848D01*
Y48297D01*
X5855D01*
Y48326D01*
X5862D01*
Y48348D01*
X5870D01*
Y48370D01*
X5877D01*
Y48392D01*
X5884D01*
Y48414D01*
X5892D01*
Y48436D01*
X5899D01*
Y48458D01*
X5906D01*
Y48480D01*
X5914D01*
Y48502D01*
X5921D01*
Y48524D01*
X5928D01*
Y48553D01*
X5936D01*
Y48575D01*
X5943D01*
Y48597D01*
X5950D01*
Y48619D01*
X5958D01*
Y48641D01*
X5965D01*
Y48663D01*
X5972D01*
Y48685D01*
X5980D01*
Y48714D01*
X5987D01*
Y48736D01*
X5994D01*
Y48758D01*
X6001D01*
Y48780D01*
X6009D01*
Y48802D01*
X6016D01*
Y48824D01*
X6023D01*
Y48846D01*
X6031D01*
Y48868D01*
X6038D01*
Y48890D01*
X6045D01*
Y48912D01*
X6053D01*
Y48941D01*
X6060D01*
Y48963D01*
X6067D01*
Y48985D01*
X6075D01*
Y49007D01*
X6082D01*
Y49029D01*
X6089D01*
Y49051D01*
X6097D01*
Y49073D01*
X6104D01*
Y49103D01*
X6111D01*
Y49117D01*
X6119D01*
Y49146D01*
X6126D01*
Y49168D01*
X6133D01*
Y49190D01*
X6141D01*
Y49212D01*
X6148D01*
Y49234D01*
X6155D01*
Y49256D01*
X6163D01*
Y49278D01*
X6170D01*
Y49300D01*
X6177D01*
Y49330D01*
X6185D01*
Y49352D01*
X6192D01*
Y49374D01*
X6199D01*
Y49388D01*
X6207D01*
Y49418D01*
X6214D01*
Y49439D01*
X6221D01*
Y49461D01*
X6229D01*
Y49483D01*
X6236D01*
Y49505D01*
X6243D01*
Y49535D01*
X6251D01*
Y49557D01*
X6258D01*
Y49579D01*
X6265D01*
Y49601D01*
X6273D01*
Y49623D01*
X6280D01*
Y49645D01*
X6287D01*
Y49667D01*
X6294D01*
Y49696D01*
X6302D01*
Y49711D01*
X6309D01*
Y49740D01*
X6316D01*
Y49762D01*
X6324D01*
Y49784D01*
X6331D01*
Y49806D01*
X6338D01*
Y49828D01*
X6346D01*
Y49850D01*
X6353D01*
Y49872D01*
X6360D01*
Y49894D01*
X6368D01*
Y49923D01*
X6375D01*
Y49945D01*
X6382D01*
Y49967D01*
X6390D01*
Y49989D01*
X6397D01*
Y50011D01*
X6404D01*
Y50033D01*
X6412D01*
Y50055D01*
X6419D01*
Y50077D01*
X6426D01*
Y50099D01*
X6434D01*
Y50128D01*
X6441D01*
Y50150D01*
X6448D01*
Y50172D01*
X6456D01*
Y50194D01*
X6463D01*
Y50216D01*
X6470D01*
Y50238D01*
X6478D01*
Y50260D01*
X6485D01*
Y50282D01*
X6492D01*
Y50311D01*
X6500D01*
Y50333D01*
X6507D01*
Y50355D01*
X6514D01*
Y50377D01*
X6522D01*
Y50399D01*
X6529D01*
Y50421D01*
X6536D01*
Y50443D01*
X6544D01*
Y50465D01*
X6551D01*
Y50487D01*
X6558D01*
Y50516D01*
X6566D01*
Y50531D01*
X6573D01*
Y50560D01*
X6580D01*
Y50582D01*
X6587D01*
Y50604D01*
X6595D01*
Y50626D01*
X6602D01*
Y50648D01*
X6609D01*
Y50670D01*
X6617D01*
Y50692D01*
X6624D01*
Y50721D01*
X6631D01*
Y50743D01*
X6639D01*
Y50765D01*
X6646D01*
Y50787D01*
X6653D01*
Y50809D01*
X6661D01*
Y50831D01*
X6668D01*
Y50853D01*
X6675D01*
Y50875D01*
X6683D01*
Y50904D01*
X6690D01*
Y50919D01*
X6697D01*
Y50948D01*
X6705D01*
Y50970D01*
X6712D01*
Y50992D01*
X6719D01*
Y51014D01*
X6727D01*
Y51036D01*
X6734D01*
Y51058D01*
X6741D01*
Y51080D01*
X6749D01*
Y51088D01*
X6756D01*
Y51095D01*
X6763D01*
Y51088D01*
X6771D01*
Y51080D01*
X6778D01*
Y51073D01*
X6785D01*
Y51066D01*
X6793D01*
Y51058D01*
X6800D01*
Y51051D01*
X6807D01*
Y51044D01*
X6815D01*
Y51036D01*
X6822D01*
Y51029D01*
X6829D01*
Y51022D01*
X6837D01*
Y51014D01*
X6844D01*
Y51007D01*
X6851D01*
Y51000D01*
X6859D01*
Y50992D01*
X6866D01*
Y50985D01*
X6873D01*
Y50978D01*
X6880D01*
Y50970D01*
X6888D01*
Y50963D01*
X6895D01*
Y50956D01*
X6902D01*
Y50948D01*
X6910D01*
Y50941D01*
X6917D01*
Y50934D01*
X6924D01*
Y50926D01*
X6932D01*
Y50919D01*
X6939D01*
Y50912D01*
X6946D01*
Y50904D01*
X6954D01*
Y50897D01*
X6961D01*
Y50890D01*
X6968D01*
Y50883D01*
X6976D01*
Y50875D01*
X6983D01*
Y50868D01*
X6990D01*
Y50861D01*
X6998D01*
Y50853D01*
X7005D01*
Y50846D01*
X7012D01*
Y50839D01*
X7020D01*
Y50831D01*
X7027D01*
Y50824D01*
X7034D01*
Y50817D01*
X7042D01*
Y50809D01*
X7049D01*
Y50802D01*
X7056D01*
Y50795D01*
X7064D01*
Y50787D01*
X7071D01*
Y50780D01*
X7078D01*
Y50773D01*
X7086D01*
Y50765D01*
X7093D01*
Y50758D01*
X7100D01*
Y50751D01*
X7108D01*
Y50743D01*
X7115D01*
Y50736D01*
X7122D01*
Y50729D01*
X7130D01*
Y50721D01*
X7137D01*
Y50714D01*
X7144D01*
Y50707D01*
X7152D01*
Y50699D01*
X7159D01*
Y50692D01*
X7166D01*
Y50685D01*
X7173D01*
Y50677D01*
X7181D01*
Y50670D01*
X7188D01*
Y50663D01*
X7195D01*
Y50655D01*
X7203D01*
Y50648D01*
X7210D01*
Y50641D01*
X7217D01*
Y50633D01*
X7225D01*
Y50626D01*
X7232D01*
Y50619D01*
X7239D01*
Y50611D01*
X7247D01*
Y50604D01*
X7254D01*
Y50597D01*
X7261D01*
Y50590D01*
X7269D01*
Y50582D01*
X7276D01*
Y50575D01*
X7283D01*
Y50568D01*
X7291D01*
Y50560D01*
X7298D01*
Y50553D01*
X7305D01*
Y50546D01*
X7313D01*
Y50538D01*
X7320D01*
Y50531D01*
X7327D01*
Y50524D01*
X7335D01*
Y50516D01*
X7342D01*
Y50509D01*
X7349D01*
Y50502D01*
X7357D01*
Y50494D01*
X7364D01*
Y50487D01*
X7371D01*
Y50480D01*
X7379D01*
Y50472D01*
X7386D01*
Y50465D01*
X7393D01*
Y50458D01*
X7401D01*
Y50450D01*
X7408D01*
Y50443D01*
X7415D01*
Y50436D01*
X7423D01*
Y50428D01*
X7430D01*
Y50421D01*
X7437D01*
Y50414D01*
X7445D01*
Y50406D01*
X7452D01*
Y50399D01*
X7459D01*
Y50392D01*
X7466D01*
Y50384D01*
X7474D01*
Y50377D01*
X7481D01*
Y50370D01*
X7488D01*
Y50362D01*
X7496D01*
Y50355D01*
X7503D01*
Y50348D01*
X7510D01*
Y50340D01*
X7518D01*
Y50333D01*
X7525D01*
Y50326D01*
X7532D01*
Y50319D01*
X7540D01*
Y50311D01*
X7547D01*
Y50304D01*
X7554D01*
Y50297D01*
X7562D01*
Y50289D01*
X7569D01*
Y50282D01*
X7576D01*
Y50275D01*
X7584D01*
Y50267D01*
X7591D01*
Y50260D01*
X7598D01*
Y50253D01*
X7606D01*
Y50245D01*
X7613D01*
Y50238D01*
X7620D01*
Y50231D01*
X7628D01*
Y50223D01*
X7635D01*
Y50216D01*
X7642D01*
Y50209D01*
X7650D01*
Y50201D01*
X7657D01*
Y50194D01*
X7664D01*
Y50187D01*
X7672D01*
Y50179D01*
X7679D01*
Y50172D01*
X7686D01*
Y50165D01*
X7694D01*
Y50157D01*
X7701D01*
Y50150D01*
X7708D01*
Y50143D01*
X7716D01*
Y50135D01*
X7723D01*
Y50128D01*
X7730D01*
Y50121D01*
X7738D01*
Y50113D01*
X7745D01*
Y50106D01*
X7752D01*
Y50099D01*
X7759D01*
Y50091D01*
X7767D01*
Y50084D01*
X7774D01*
Y50077D01*
X7781D01*
Y50069D01*
X7789D01*
Y50062D01*
X7796D01*
Y50055D01*
X7803D01*
Y50047D01*
X7811D01*
Y50033D01*
X7825D01*
Y50026D01*
X7833D01*
Y50018D01*
X7840D01*
Y50011D01*
X7847D01*
Y50004D01*
X7855D01*
Y49996D01*
X7862D01*
Y49989D01*
X7869D01*
Y49982D01*
X7877D01*
Y49974D01*
X7884D01*
Y49967D01*
X7891D01*
Y49960D01*
X7899D01*
Y49952D01*
X7906D01*
Y49945D01*
X7913D01*
Y49938D01*
X7921D01*
Y49930D01*
X7928D01*
Y49923D01*
X7935D01*
Y49916D01*
X7943D01*
Y49908D01*
X7950D01*
Y49901D01*
X7957D01*
Y49894D01*
X7965D01*
Y49886D01*
X7972D01*
Y49879D01*
X7979D01*
Y49872D01*
X7987D01*
Y49864D01*
X7994D01*
Y49857D01*
X8001D01*
Y49850D01*
X8009D01*
Y49842D01*
X8016D01*
Y49835D01*
X8023D01*
Y49828D01*
X8031D01*
Y49820D01*
X8038D01*
Y49813D01*
X8045D01*
Y49806D01*
X8052D01*
Y49798D01*
X8060D01*
Y49791D01*
X8067D01*
Y49784D01*
X8074D01*
Y49776D01*
X8082D01*
Y49769D01*
X8089D01*
Y49762D01*
X8096D01*
Y49754D01*
X8104D01*
Y49747D01*
X8111D01*
Y49740D01*
X8118D01*
Y49732D01*
X8126D01*
Y49725D01*
X8133D01*
Y49718D01*
X8140D01*
Y49711D01*
X8148D01*
Y49703D01*
X8155D01*
Y49696D01*
X8162D01*
Y49689D01*
X8170D01*
Y49681D01*
X8177D01*
Y49674D01*
X8184D01*
Y49667D01*
X8192D01*
Y49659D01*
X8199D01*
Y49652D01*
X8206D01*
Y49645D01*
X8214D01*
Y49637D01*
X8221D01*
Y49630D01*
X8228D01*
Y49623D01*
X8236D01*
Y49615D01*
X8243D01*
Y49608D01*
X8250D01*
Y49601D01*
X8258D01*
Y49593D01*
X8265D01*
Y49586D01*
X8272D01*
Y49579D01*
X8280D01*
Y49571D01*
X8287D01*
Y49564D01*
X8294D01*
Y49557D01*
X8302D01*
Y49549D01*
X8309D01*
Y49542D01*
X8316D01*
Y49535D01*
X8324D01*
Y49527D01*
X8331D01*
Y49520D01*
X8338D01*
Y49513D01*
X8345D01*
Y49505D01*
X8353D01*
Y49498D01*
X8360D01*
Y49491D01*
X8367D01*
Y49483D01*
X8375D01*
Y49476D01*
X8382D01*
Y49469D01*
X8389D01*
Y49461D01*
X8397D01*
Y49454D01*
X8404D01*
Y49447D01*
X8411D01*
Y49439D01*
X8419D01*
Y49432D01*
X8426D01*
Y49425D01*
X8433D01*
Y49418D01*
X8441D01*
Y49410D01*
X8448D01*
Y49403D01*
X8455D01*
Y49388D01*
X8485D01*
Y51439D01*
X8477D01*
Y51447D01*
X7620D01*
Y51461D01*
X7613D01*
Y51784D01*
X7620D01*
Y51791D01*
X8807D01*
Y51798D01*
X8814D01*
Y51791D01*
D02*
G37*
G36*
X9195D02*
X10389D01*
Y51454D01*
X10382D01*
Y51447D01*
X9525D01*
Y51432D01*
X9517D01*
Y51417D01*
X9525D01*
Y51110D01*
X9517D01*
Y51066D01*
X9525D01*
Y50077D01*
X9517D01*
Y50033D01*
X9525D01*
Y49410D01*
X9517D01*
Y49388D01*
X9525D01*
Y49381D01*
X9532D01*
Y49388D01*
X9547D01*
Y49403D01*
X9554D01*
Y49410D01*
X9561D01*
Y49418D01*
X9569D01*
Y49425D01*
X9576D01*
Y49432D01*
X9583D01*
Y49439D01*
X9591D01*
Y49447D01*
X9598D01*
Y49454D01*
X9605D01*
Y49461D01*
X9613D01*
Y49469D01*
X9620D01*
Y49476D01*
X9627D01*
Y49483D01*
X9635D01*
Y49491D01*
X9642D01*
Y49498D01*
X9649D01*
Y49505D01*
X9657D01*
Y49513D01*
X9664D01*
Y49520D01*
X9671D01*
Y49527D01*
X9679D01*
Y49535D01*
X9686D01*
Y49542D01*
X9693D01*
Y49549D01*
X9701D01*
Y49557D01*
X9708D01*
Y49564D01*
X9715D01*
Y49571D01*
X9723D01*
Y49579D01*
X9730D01*
Y49586D01*
X9737D01*
Y49593D01*
X9745D01*
Y49601D01*
X9752D01*
Y49608D01*
X9759D01*
Y49615D01*
X9767D01*
Y49623D01*
X9774D01*
Y49630D01*
X9781D01*
Y49637D01*
X9789D01*
Y49645D01*
X9796D01*
Y49652D01*
X9803D01*
Y49659D01*
X9811D01*
Y49667D01*
X9818D01*
Y49674D01*
X9825D01*
Y49681D01*
X9832D01*
Y49689D01*
X9840D01*
Y49696D01*
X9847D01*
Y49703D01*
X9854D01*
Y49711D01*
X9862D01*
Y49718D01*
X9869D01*
Y49725D01*
X9876D01*
Y49732D01*
X9884D01*
Y49740D01*
X9891D01*
Y49747D01*
X9898D01*
Y49754D01*
X9906D01*
Y49762D01*
X9913D01*
Y49769D01*
X9920D01*
Y49776D01*
X9928D01*
Y49784D01*
X9935D01*
Y49791D01*
X9942D01*
Y49798D01*
X9950D01*
Y49806D01*
X9957D01*
Y49813D01*
X9964D01*
Y49820D01*
X9972D01*
Y49828D01*
X9979D01*
Y49835D01*
X9986D01*
Y49842D01*
X9994D01*
Y49850D01*
X10001D01*
Y49857D01*
X10008D01*
Y49864D01*
X10016D01*
Y49872D01*
X10023D01*
Y49879D01*
X10030D01*
Y49886D01*
X10038D01*
Y49894D01*
X10045D01*
Y49901D01*
X10052D01*
Y49908D01*
X10060D01*
Y49916D01*
X10067D01*
Y49923D01*
X10074D01*
Y49930D01*
X10082D01*
Y49938D01*
X10089D01*
Y49945D01*
X10096D01*
Y49952D01*
X10104D01*
Y49960D01*
X10111D01*
Y49967D01*
X10118D01*
Y49974D01*
X10125D01*
Y49982D01*
X10133D01*
Y49989D01*
X10140D01*
Y49996D01*
X10147D01*
Y50004D01*
X10155D01*
Y50011D01*
X10162D01*
Y50018D01*
X10169D01*
Y50026D01*
X10177D01*
Y50033D01*
X10191D01*
Y50047D01*
X10199D01*
Y50055D01*
X10206D01*
Y50062D01*
X10213D01*
Y50069D01*
X10221D01*
Y50077D01*
X10228D01*
Y50084D01*
X10235D01*
Y50091D01*
X10243D01*
Y50099D01*
X10250D01*
Y50106D01*
X10257D01*
Y50113D01*
X10265D01*
Y50121D01*
X10272D01*
Y50128D01*
X10279D01*
Y50135D01*
X10287D01*
Y50143D01*
X10294D01*
Y50150D01*
X10301D01*
Y50157D01*
X10309D01*
Y50165D01*
X10316D01*
Y50172D01*
X10323D01*
Y50179D01*
X10331D01*
Y50187D01*
X10338D01*
Y50194D01*
X10345D01*
Y50201D01*
X10353D01*
Y50209D01*
X10360D01*
Y50216D01*
X10367D01*
Y50223D01*
X10375D01*
Y50231D01*
X10382D01*
Y50238D01*
X10389D01*
Y50245D01*
X10396D01*
Y50253D01*
X10404D01*
Y50260D01*
X10411D01*
Y50267D01*
X10418D01*
Y50275D01*
X10426D01*
Y50282D01*
X10433D01*
Y50289D01*
X10440D01*
Y50297D01*
X10448D01*
Y50304D01*
X10455D01*
Y50311D01*
X10462D01*
Y50319D01*
X10470D01*
Y50326D01*
X10477D01*
Y50333D01*
X10484D01*
Y50340D01*
X10492D01*
Y50348D01*
X10499D01*
Y50355D01*
X10506D01*
Y50362D01*
X10514D01*
Y50370D01*
X10521D01*
Y50377D01*
X10528D01*
Y50384D01*
X10536D01*
Y50392D01*
X10543D01*
Y50399D01*
X10550D01*
Y50406D01*
X10558D01*
Y50414D01*
X10565D01*
Y50421D01*
X10572D01*
Y50428D01*
X10580D01*
Y50436D01*
X10587D01*
Y50443D01*
X10594D01*
Y50450D01*
X10602D01*
Y50458D01*
X10609D01*
Y50465D01*
X10616D01*
Y50472D01*
X10624D01*
Y50480D01*
X10631D01*
Y50487D01*
X10638D01*
Y50494D01*
X10646D01*
Y50502D01*
X10653D01*
Y50509D01*
X10660D01*
Y50516D01*
X10668D01*
Y50524D01*
X10675D01*
Y50531D01*
X10682D01*
Y50538D01*
X10689D01*
Y50546D01*
X10697D01*
Y50553D01*
X10704D01*
Y50560D01*
X10711D01*
Y50568D01*
X10719D01*
Y50575D01*
X10726D01*
Y50582D01*
X10733D01*
Y50590D01*
X10741D01*
Y50597D01*
X10748D01*
Y50604D01*
X10755D01*
Y50611D01*
X10763D01*
Y50619D01*
X10770D01*
Y50626D01*
X10777D01*
Y50633D01*
X10785D01*
Y50641D01*
X10792D01*
Y50648D01*
X10799D01*
Y50655D01*
X10807D01*
Y50663D01*
X10814D01*
Y50670D01*
X10821D01*
Y50677D01*
X10829D01*
Y50685D01*
X10836D01*
Y50692D01*
X10843D01*
Y50699D01*
X10851D01*
Y50707D01*
X10858D01*
Y50714D01*
X10865D01*
Y50721D01*
X10873D01*
Y50729D01*
X10880D01*
Y50736D01*
X10887D01*
Y50743D01*
X10895D01*
Y50751D01*
X10902D01*
Y50758D01*
X10909D01*
Y50765D01*
X10917D01*
Y50773D01*
X10924D01*
Y50780D01*
X10931D01*
Y50787D01*
X10939D01*
Y50795D01*
X10946D01*
Y50802D01*
X10953D01*
Y50809D01*
X10961D01*
Y50817D01*
X10968D01*
Y50824D01*
X10975D01*
Y50831D01*
X10983D01*
Y50839D01*
X10990D01*
Y50846D01*
X10997D01*
Y50853D01*
X11004D01*
Y50861D01*
X11012D01*
Y50868D01*
X11019D01*
Y50875D01*
X11026D01*
Y50883D01*
X11034D01*
Y50890D01*
X11041D01*
Y50897D01*
X11048D01*
Y50904D01*
X11056D01*
Y50912D01*
X11063D01*
Y50919D01*
X11070D01*
Y50926D01*
X11078D01*
Y50934D01*
X11085D01*
Y50941D01*
X11092D01*
Y50948D01*
X11100D01*
Y50956D01*
X11107D01*
Y50963D01*
X11114D01*
Y50970D01*
X11122D01*
Y50978D01*
X11129D01*
Y50985D01*
X11136D01*
Y50992D01*
X11144D01*
Y51000D01*
X11151D01*
Y51007D01*
X11158D01*
Y51014D01*
X11166D01*
Y51022D01*
X11173D01*
Y51029D01*
X11180D01*
Y51036D01*
X11188D01*
Y51044D01*
X11195D01*
Y51051D01*
X11202D01*
Y51058D01*
X11210D01*
Y51066D01*
X11217D01*
Y51073D01*
X11224D01*
Y51080D01*
X11232D01*
Y51088D01*
X11239D01*
Y51095D01*
X11246D01*
Y51088D01*
X11254D01*
Y51080D01*
X11261D01*
Y51058D01*
X11268D01*
Y51036D01*
X11276D01*
Y51014D01*
X11283D01*
Y50992D01*
X11290D01*
Y50970D01*
X11297D01*
Y50948D01*
X11305D01*
Y50919D01*
X11312D01*
Y50904D01*
X11319D01*
Y50875D01*
X11327D01*
Y50853D01*
X11334D01*
Y50831D01*
X11341D01*
Y50809D01*
X11349D01*
Y50787D01*
X11356D01*
Y50765D01*
X11363D01*
Y50743D01*
X11371D01*
Y50721D01*
X11378D01*
Y50692D01*
X11385D01*
Y50670D01*
X11393D01*
Y50648D01*
X11400D01*
Y50626D01*
X11407D01*
Y50604D01*
X11415D01*
Y50582D01*
X11422D01*
Y50560D01*
X11429D01*
Y50538D01*
X11437D01*
Y50516D01*
X11444D01*
Y50487D01*
X11451D01*
Y50465D01*
X11459D01*
Y50443D01*
X11466D01*
Y50421D01*
X11473D01*
Y50399D01*
X11481D01*
Y50377D01*
X11488D01*
Y50355D01*
X11495D01*
Y50333D01*
X11503D01*
Y50311D01*
X11510D01*
Y50282D01*
X11517D01*
Y50260D01*
X11525D01*
Y50238D01*
X11532D01*
Y50216D01*
X11539D01*
Y50194D01*
X11547D01*
Y50172D01*
X11554D01*
Y50150D01*
X11561D01*
Y50128D01*
X11568D01*
Y50099D01*
X11576D01*
Y50084D01*
X11583D01*
Y50055D01*
X11590D01*
Y50033D01*
X11598D01*
Y50011D01*
X11605D01*
Y49989D01*
X11612D01*
Y49967D01*
X11620D01*
Y49945D01*
X11627D01*
Y49923D01*
X11634D01*
Y49894D01*
X11642D01*
Y49872D01*
X11649D01*
Y49850D01*
X11656D01*
Y49828D01*
X11664D01*
Y49806D01*
X11671D01*
Y49784D01*
X11678D01*
Y49762D01*
X11686D01*
Y49740D01*
X11693D01*
Y49718D01*
X11700D01*
Y49696D01*
X11708D01*
Y49667D01*
X11715D01*
Y49645D01*
X11722D01*
Y49623D01*
X11730D01*
Y49601D01*
X11737D01*
Y49579D01*
X11744D01*
Y49557D01*
X11752D01*
Y49535D01*
X11759D01*
Y49513D01*
X11766D01*
Y49491D01*
X11774D01*
Y49461D01*
X11781D01*
Y49439D01*
X11788D01*
Y49418D01*
X11796D01*
Y49388D01*
X11803D01*
Y49374D01*
X11810D01*
Y49352D01*
X11818D01*
Y49330D01*
X11825D01*
Y49308D01*
X11832D01*
Y49278D01*
X11840D01*
Y49264D01*
X11847D01*
Y49234D01*
X11854D01*
Y49212D01*
X11861D01*
Y49190D01*
X11869D01*
Y49168D01*
X11876D01*
Y49146D01*
X11883D01*
Y49125D01*
X11891D01*
Y49103D01*
X11898D01*
Y49081D01*
X11905D01*
Y49051D01*
X11913D01*
Y49029D01*
X11920D01*
Y49007D01*
X11927D01*
Y48985D01*
X11935D01*
Y48963D01*
X11942D01*
Y48941D01*
X11949D01*
Y48919D01*
X11957D01*
Y48897D01*
X11964D01*
Y48875D01*
X11971D01*
Y48846D01*
X11979D01*
Y48824D01*
X11986D01*
Y48802D01*
X11993D01*
Y48780D01*
X12001D01*
Y48758D01*
X12008D01*
Y48736D01*
X12015D01*
Y48714D01*
X12023D01*
Y48692D01*
X12030D01*
Y48670D01*
X12037D01*
Y48648D01*
X12045D01*
Y48619D01*
X12052D01*
Y48597D01*
X12059D01*
Y48575D01*
X12067D01*
Y48553D01*
X12074D01*
Y48531D01*
X12081D01*
Y48509D01*
X12089D01*
Y48487D01*
X12096D01*
Y48458D01*
X12103D01*
Y48443D01*
X12111D01*
Y48414D01*
X12118D01*
Y48392D01*
X12125D01*
Y48370D01*
X12133D01*
Y48348D01*
X12140D01*
Y48326D01*
X12147D01*
Y48304D01*
X12155D01*
Y48282D01*
X12162D01*
Y48260D01*
X12169D01*
Y48231D01*
X12176D01*
Y48209D01*
X12184D01*
Y48187D01*
X12191D01*
Y48165D01*
X12198D01*
Y48143D01*
X12206D01*
Y48121D01*
X12213D01*
Y48099D01*
X12220D01*
Y48070D01*
X12228D01*
Y48055D01*
X12235D01*
Y48026D01*
X12242D01*
Y48004D01*
X12250D01*
Y47982D01*
X12257D01*
Y47960D01*
X12264D01*
Y47938D01*
X12272D01*
Y47916D01*
X12279D01*
Y47894D01*
X12286D01*
Y47872D01*
X12294D01*
Y47850D01*
X12301D01*
Y47821D01*
X12308D01*
Y47799D01*
X12316D01*
Y47777D01*
X12323D01*
Y47755D01*
X12330D01*
Y47733D01*
X12338D01*
Y47711D01*
X12345D01*
Y47689D01*
X12352D01*
Y47667D01*
X12360D01*
Y47638D01*
X12367D01*
Y47623D01*
X12374D01*
Y47594D01*
X12382D01*
Y47572D01*
X12389D01*
Y47550D01*
X12396D01*
Y47528D01*
X12404D01*
Y47506D01*
X12411D01*
Y47484D01*
X12418D01*
Y47462D01*
X12426D01*
Y47432D01*
X12433D01*
Y47410D01*
X12440D01*
Y47389D01*
X12448D01*
Y47367D01*
X12455D01*
Y47345D01*
X12462D01*
Y47323D01*
X12469D01*
Y47301D01*
X12477D01*
Y47279D01*
X12484D01*
Y47257D01*
X12491D01*
Y47235D01*
X12499D01*
Y47205D01*
X12506D01*
Y47183D01*
X12513D01*
Y47161D01*
X12521D01*
Y47139D01*
X12528D01*
Y47117D01*
X12535D01*
Y47096D01*
X12543D01*
Y47074D01*
X12550D01*
Y47044D01*
X12557D01*
Y47030D01*
X12565D01*
Y47000D01*
X12572D01*
Y46978D01*
X12579D01*
Y46956D01*
X12587D01*
Y46934D01*
X12594D01*
Y46912D01*
X12601D01*
Y46890D01*
X12609D01*
Y46868D01*
X12616D01*
Y46846D01*
X12623D01*
Y46817D01*
X12631D01*
Y46795D01*
X12638D01*
Y46773D01*
X12645D01*
Y46751D01*
X12653D01*
Y46729D01*
X12660D01*
Y46707D01*
X12667D01*
Y46685D01*
X12675D01*
Y46663D01*
X12682D01*
Y46641D01*
X12689D01*
Y46619D01*
X12697D01*
Y46590D01*
X12704D01*
Y46568D01*
X12711D01*
Y46546D01*
X12719D01*
Y46524D01*
X12726D01*
Y46502D01*
X12733D01*
Y46480D01*
X12741D01*
Y46458D01*
X12748D01*
Y46429D01*
X12755D01*
Y46414D01*
X12762D01*
Y46385D01*
X12770D01*
Y46363D01*
X12777D01*
Y46341D01*
X12784D01*
Y46319D01*
X12792D01*
Y46297D01*
X12799D01*
Y46268D01*
X12806D01*
Y46260D01*
X12814D01*
Y46253D01*
X13678D01*
Y45916D01*
X13671D01*
Y45909D01*
X12294D01*
Y45923D01*
X12286D01*
Y46246D01*
X12294D01*
Y46253D01*
X12623D01*
Y46260D01*
X12631D01*
Y46282D01*
X12623D01*
Y46312D01*
X12616D01*
Y46326D01*
X12609D01*
Y46356D01*
X12601D01*
Y46378D01*
X12594D01*
Y46400D01*
X12587D01*
Y46422D01*
X12579D01*
Y46444D01*
X12572D01*
Y46466D01*
X12565D01*
Y46495D01*
X12557D01*
Y46517D01*
X12550D01*
Y46539D01*
X12543D01*
Y46561D01*
X12535D01*
Y46583D01*
X12528D01*
Y46605D01*
X12521D01*
Y46627D01*
X12513D01*
Y46656D01*
X12506D01*
Y46678D01*
X12499D01*
Y46700D01*
X12491D01*
Y46722D01*
X12484D01*
Y46744D01*
X12477D01*
Y46766D01*
X12469D01*
Y46788D01*
X12462D01*
Y46817D01*
X12455D01*
Y46839D01*
X12448D01*
Y46861D01*
X12440D01*
Y46883D01*
X12433D01*
Y46905D01*
X12426D01*
Y46927D01*
X12418D01*
Y46949D01*
X12411D01*
Y46978D01*
X12404D01*
Y46993D01*
X12396D01*
Y47022D01*
X12389D01*
Y47044D01*
X12382D01*
Y47066D01*
X12374D01*
Y47088D01*
X12367D01*
Y47110D01*
X12360D01*
Y47139D01*
X12352D01*
Y47154D01*
X12345D01*
Y47183D01*
X12338D01*
Y47205D01*
X12330D01*
Y47227D01*
X12323D01*
Y47249D01*
X12316D01*
Y47271D01*
X12308D01*
Y47293D01*
X12301D01*
Y47323D01*
X12294D01*
Y47345D01*
X12286D01*
Y47367D01*
X12279D01*
Y47389D01*
X12272D01*
Y47410D01*
X12264D01*
Y47432D01*
X12257D01*
Y47454D01*
X12250D01*
Y47484D01*
X12242D01*
Y47506D01*
X12235D01*
Y47528D01*
X12228D01*
Y47550D01*
X12220D01*
Y47572D01*
X12213D01*
Y47594D01*
X12206D01*
Y47623D01*
X12198D01*
Y47645D01*
X12191D01*
Y47667D01*
X12184D01*
Y47689D01*
X12176D01*
Y47711D01*
X12169D01*
Y47733D01*
X12162D01*
Y47755D01*
X12155D01*
Y47777D01*
X12147D01*
Y47806D01*
X12140D01*
Y47828D01*
X12133D01*
Y47850D01*
X12125D01*
Y47872D01*
X12118D01*
Y47894D01*
X12111D01*
Y47923D01*
X12103D01*
Y47938D01*
X12096D01*
Y47967D01*
X12089D01*
Y47989D01*
X12081D01*
Y48011D01*
X12074D01*
Y48033D01*
X12067D01*
Y48055D01*
X12059D01*
Y48077D01*
X12052D01*
Y48099D01*
X12045D01*
Y48128D01*
X12037D01*
Y48150D01*
X12030D01*
Y48172D01*
X12023D01*
Y48194D01*
X12015D01*
Y48216D01*
X12008D01*
Y48238D01*
X12001D01*
Y48260D01*
X11993D01*
Y48289D01*
X11986D01*
Y48311D01*
X11979D01*
Y48326D01*
X11971D01*
Y48355D01*
X11964D01*
Y48377D01*
X11957D01*
Y48399D01*
X11949D01*
Y48421D01*
X11942D01*
Y48451D01*
X11935D01*
Y48473D01*
X11927D01*
Y48495D01*
X11920D01*
Y48517D01*
X11913D01*
Y48539D01*
X11905D01*
Y48561D01*
X11898D01*
Y48590D01*
X11891D01*
Y48612D01*
X11883D01*
Y48634D01*
X11876D01*
Y48656D01*
X11869D01*
Y48678D01*
X11861D01*
Y48700D01*
X11854D01*
Y48722D01*
X11847D01*
Y48751D01*
X11840D01*
Y48773D01*
X11832D01*
Y48795D01*
X11825D01*
Y48817D01*
X11818D01*
Y48839D01*
X11810D01*
Y48861D01*
X11803D01*
Y48883D01*
X11796D01*
Y48912D01*
X11788D01*
Y48927D01*
X11781D01*
Y48956D01*
X11774D01*
Y48978D01*
X11766D01*
Y49000D01*
X11759D01*
Y49022D01*
X11752D01*
Y49044D01*
X11744D01*
Y49073D01*
X11737D01*
Y49088D01*
X11730D01*
Y49117D01*
X11722D01*
Y49139D01*
X11715D01*
Y49161D01*
X11708D01*
Y49183D01*
X11700D01*
Y49205D01*
X11693D01*
Y49227D01*
X11686D01*
Y49256D01*
X11678D01*
Y49278D01*
X11671D01*
Y49300D01*
X11664D01*
Y49322D01*
X11656D01*
Y49344D01*
X11649D01*
Y49366D01*
X11642D01*
Y49388D01*
X11634D01*
Y49418D01*
X11627D01*
Y49439D01*
X11620D01*
Y49461D01*
X11612D01*
Y49483D01*
X11605D01*
Y49505D01*
X11598D01*
Y49527D01*
X11590D01*
Y49557D01*
X11583D01*
Y49579D01*
X11576D01*
Y49601D01*
X11568D01*
Y49623D01*
X11561D01*
Y49645D01*
X11554D01*
Y49667D01*
X11547D01*
Y49689D01*
X11539D01*
Y49711D01*
X11532D01*
Y49740D01*
X11525D01*
Y49762D01*
X11517D01*
Y49784D01*
X11510D01*
Y49806D01*
X11503D01*
Y49828D01*
X11495D01*
Y49850D01*
X11488D01*
Y49872D01*
X11481D01*
Y49901D01*
X11473D01*
Y49923D01*
X11466D01*
Y49945D01*
X11459D01*
Y49967D01*
X11451D01*
Y49989D01*
X11444D01*
Y50011D01*
X11437D01*
Y50033D01*
X11429D01*
Y50055D01*
X11407D01*
Y50040D01*
X11400D01*
Y50033D01*
X11385D01*
Y50026D01*
X11378D01*
Y50018D01*
X11371D01*
Y50011D01*
X11363D01*
Y50004D01*
X11356D01*
Y49996D01*
X11349D01*
Y49989D01*
X11341D01*
Y49982D01*
X11334D01*
Y49974D01*
X11327D01*
Y49967D01*
X11319D01*
Y49960D01*
X11305D01*
Y49952D01*
X11297D01*
Y49945D01*
X11290D01*
Y49938D01*
X11283D01*
Y49930D01*
X11276D01*
Y49923D01*
X11268D01*
Y49916D01*
X11261D01*
Y49908D01*
X11254D01*
Y49901D01*
X11246D01*
Y49894D01*
X11232D01*
Y49886D01*
X11224D01*
Y49879D01*
X11217D01*
Y49872D01*
X11210D01*
Y49864D01*
X11202D01*
Y49857D01*
X11195D01*
Y49850D01*
X11188D01*
Y49842D01*
X11180D01*
Y49835D01*
X11173D01*
Y49828D01*
X11166D01*
Y49820D01*
X11158D01*
Y49813D01*
X11144D01*
Y49806D01*
X11136D01*
Y49798D01*
X11129D01*
Y49791D01*
X11122D01*
Y49784D01*
X11114D01*
Y49776D01*
X11107D01*
Y49769D01*
X11100D01*
Y49762D01*
X11092D01*
Y49754D01*
X11085D01*
Y49747D01*
X11078D01*
Y49740D01*
X11063D01*
Y49732D01*
X11056D01*
Y49725D01*
X11048D01*
Y49718D01*
X11041D01*
Y49711D01*
X11034D01*
Y49703D01*
X11026D01*
Y49696D01*
X11019D01*
Y49689D01*
X11012D01*
Y49681D01*
X11004D01*
Y49674D01*
X10990D01*
Y49667D01*
X10983D01*
Y49659D01*
X10975D01*
Y49652D01*
X10968D01*
Y49645D01*
X10961D01*
Y49637D01*
X10953D01*
Y49630D01*
X10946D01*
Y49623D01*
X10939D01*
Y49615D01*
X10931D01*
Y49608D01*
X10924D01*
Y49601D01*
X10917D01*
Y49593D01*
X10902D01*
Y49586D01*
X10895D01*
Y49579D01*
X10887D01*
Y49571D01*
X10880D01*
Y49564D01*
X10873D01*
Y49557D01*
X10865D01*
Y49549D01*
X10858D01*
Y49542D01*
X10851D01*
Y49535D01*
X10843D01*
Y49527D01*
X10829D01*
Y49520D01*
X10821D01*
Y49513D01*
X10814D01*
Y49505D01*
X10807D01*
Y49498D01*
X10799D01*
Y49491D01*
X10792D01*
Y49483D01*
X10785D01*
Y49476D01*
X10777D01*
Y49469D01*
X10770D01*
Y49461D01*
X10763D01*
Y49454D01*
X10755D01*
Y49447D01*
X10741D01*
Y49439D01*
X10733D01*
Y49432D01*
X10726D01*
Y49425D01*
X10719D01*
Y49418D01*
X10711D01*
Y49410D01*
X10704D01*
Y49403D01*
X10697D01*
Y49396D01*
X10689D01*
Y49388D01*
X10682D01*
Y49381D01*
X10668D01*
Y49366D01*
X10653D01*
Y49359D01*
X10646D01*
Y49352D01*
X10638D01*
Y49344D01*
X10631D01*
Y49337D01*
X10624D01*
Y49330D01*
X10616D01*
Y49322D01*
X10609D01*
Y49315D01*
X10602D01*
Y49308D01*
X10587D01*
Y49300D01*
X10580D01*
Y49293D01*
X10572D01*
Y49286D01*
X10565D01*
Y49278D01*
X10558D01*
Y49271D01*
X10550D01*
Y49264D01*
X10543D01*
Y49256D01*
X10536D01*
Y49249D01*
X10528D01*
Y49242D01*
X10521D01*
Y49234D01*
X10514D01*
Y49227D01*
X10499D01*
Y49220D01*
X10492D01*
Y49212D01*
X10484D01*
Y49205D01*
X10477D01*
Y49198D01*
X10470D01*
Y49190D01*
X10462D01*
Y49183D01*
X10455D01*
Y49176D01*
X10448D01*
Y49168D01*
X10440D01*
Y49161D01*
X10426D01*
Y49154D01*
X10418D01*
Y49146D01*
X10411D01*
Y49139D01*
X10404D01*
Y49132D01*
X10396D01*
Y49125D01*
X10389D01*
Y49117D01*
X10382D01*
Y49110D01*
X10375D01*
Y49103D01*
X10367D01*
Y49095D01*
X10360D01*
Y49088D01*
X10353D01*
Y49081D01*
X10338D01*
Y49073D01*
X10331D01*
Y49066D01*
X10323D01*
Y49059D01*
X10316D01*
Y49051D01*
X10309D01*
Y49044D01*
X10301D01*
Y49037D01*
X10294D01*
Y49029D01*
X10287D01*
Y49022D01*
X10279D01*
Y49015D01*
X10265D01*
Y49007D01*
X10257D01*
Y49000D01*
X10250D01*
Y48993D01*
X10243D01*
Y48985D01*
X10235D01*
Y48978D01*
X10228D01*
Y48971D01*
X10221D01*
Y48963D01*
X10213D01*
Y48956D01*
X10206D01*
Y48949D01*
X10199D01*
Y48941D01*
X10184D01*
Y48934D01*
X10177D01*
Y48927D01*
X10169D01*
Y48919D01*
X10162D01*
Y48912D01*
X10155D01*
Y48905D01*
X10147D01*
Y48897D01*
X10140D01*
Y48890D01*
X10133D01*
Y48883D01*
X10125D01*
Y48875D01*
X10118D01*
Y48868D01*
X10104D01*
Y48861D01*
X10096D01*
Y48854D01*
X10089D01*
Y48846D01*
X10082D01*
Y48839D01*
X10074D01*
Y48832D01*
X10067D01*
Y48824D01*
X10060D01*
Y48817D01*
X10052D01*
Y48810D01*
X10045D01*
Y48802D01*
X10038D01*
Y48795D01*
X10023D01*
Y48788D01*
X10016D01*
Y48780D01*
X10008D01*
Y48773D01*
X10001D01*
Y48766D01*
X9994D01*
Y48758D01*
X9986D01*
Y48751D01*
X9979D01*
Y48744D01*
X9972D01*
Y48736D01*
X9964D01*
Y48729D01*
X9957D01*
Y48722D01*
X9950D01*
Y48714D01*
X9935D01*
Y48707D01*
X9928D01*
Y48700D01*
X9920D01*
Y48692D01*
X9913D01*
Y48685D01*
X9906D01*
Y48678D01*
X9898D01*
Y48670D01*
X9891D01*
Y48663D01*
X9884D01*
Y48656D01*
X9869D01*
Y48648D01*
X9862D01*
Y48641D01*
X9854D01*
Y48634D01*
X9847D01*
Y48626D01*
X9840D01*
Y48619D01*
X9832D01*
Y48612D01*
X9825D01*
Y48604D01*
X9818D01*
Y48597D01*
X9811D01*
Y48590D01*
X9803D01*
Y48582D01*
X9796D01*
Y48575D01*
X9781D01*
Y48568D01*
X9774D01*
Y48561D01*
X9767D01*
Y48553D01*
X9759D01*
Y48546D01*
X9752D01*
Y48539D01*
X9745D01*
Y48531D01*
X9737D01*
Y48524D01*
X9730D01*
Y48517D01*
X9723D01*
Y48509D01*
X9708D01*
Y48502D01*
X9701D01*
Y48495D01*
X9693D01*
Y48487D01*
X9686D01*
Y48480D01*
X9679D01*
Y48473D01*
X9671D01*
Y48465D01*
X9664D01*
Y48458D01*
X9657D01*
Y48451D01*
X9649D01*
Y48443D01*
X9642D01*
Y48436D01*
X9635D01*
Y48429D01*
X9620D01*
Y48421D01*
X9613D01*
Y48414D01*
X9605D01*
Y48407D01*
X9598D01*
Y48399D01*
X9591D01*
Y48392D01*
X9583D01*
Y48385D01*
X9576D01*
Y48377D01*
X9569D01*
Y48370D01*
X9561D01*
Y48363D01*
X9554D01*
Y48355D01*
X9539D01*
Y48348D01*
X9532D01*
Y48341D01*
X9525D01*
Y48319D01*
X9517D01*
Y48304D01*
X9525D01*
Y46107D01*
X9517D01*
Y46092D01*
X9525D01*
Y46085D01*
X9539D01*
Y46077D01*
X9554D01*
Y46085D01*
X10177D01*
Y46077D01*
X10184D01*
Y46085D01*
X10206D01*
Y46077D01*
X10213D01*
Y45740D01*
X10199D01*
Y45733D01*
X10191D01*
Y45740D01*
X9203D01*
Y45733D01*
X9188D01*
Y45740D01*
X9181D01*
Y45748D01*
X9173D01*
Y51791D01*
X9188D01*
Y51798D01*
X9195D01*
Y51791D01*
D02*
G37*
G36*
X13671Y45550D02*
X13678D01*
Y45228D01*
X13671D01*
Y45220D01*
X4331D01*
Y45228D01*
X4324D01*
Y45550D01*
X4331D01*
Y45565D01*
X13671D01*
Y45550D01*
D02*
G37*
%LPC*%
G36*
X90864Y74432D02*
X89773D01*
Y72250D01*
X90864D01*
Y74432D01*
D02*
G37*
%LPD*%
D41*
X73950Y57850D02*
G03*
X73950Y57850I-100J0D01*
G01*
X55950Y61400D02*
G03*
X55950Y61400I-100J0D01*
G01*
Y53900D02*
G03*
X55950Y53900I-100J0D01*
G01*
X78000Y58650D02*
G03*
X78000Y58650I-100J0D01*
G01*
X81200Y57850D02*
G03*
X81200Y57850I-100J0D01*
G01*
X78000Y35650D02*
G03*
X78000Y35650I-100J0D01*
G01*
X81178Y34912D02*
G03*
X81097Y34750I-78J-62D01*
G01*
X59150Y42100D02*
G03*
X59150Y42100I-100J0D01*
G01*
X70750Y35650D02*
G03*
X70750Y35650I-100J0D01*
G01*
X73950Y34850D02*
G03*
X73950Y34850I-100J0D01*
G01*
X55950Y30900D02*
G03*
X55950Y30900I-100J0D01*
G01*
X59150Y65100D02*
G03*
X59150Y65100I-100J0D01*
G01*
X55950Y38400D02*
G03*
X55950Y38400I-100J0D01*
G01*
X84900Y34920D02*
Y36169D01*
Y23300D02*
Y24169D01*
X85086Y24800D02*
X86115D01*
X84900Y45031D02*
Y46500D01*
Y33420D02*
Y34920D01*
X86016D02*
X86400D01*
X84900D02*
X85184D01*
X92500Y23340D02*
Y24840D01*
Y34920D02*
Y36420D01*
X91000Y34920D02*
X92500D01*
X84900Y25031D02*
Y26300D01*
X92500Y24840D02*
Y26340D01*
X91000Y24840D02*
X92500D01*
X91000Y65160D02*
X92500D01*
Y63660D02*
Y65160D01*
X84900Y63660D02*
Y65160D01*
Y14740D02*
Y16169D01*
X92500Y14740D02*
Y16240D01*
X91000Y14740D02*
X92500D01*
X84900Y55080D02*
Y56169D01*
Y43500D02*
Y44169D01*
X84940Y45000D02*
X86260D01*
X84900Y65160D02*
X86400D01*
X84900Y53580D02*
Y55080D01*
X85813D02*
X86400D01*
X84900D02*
X85387D01*
X92500Y14740D02*
X95700D01*
X92500Y43500D02*
Y45000D01*
Y55080D02*
Y56580D01*
X91000Y55080D02*
X92500D01*
Y33420D02*
Y34920D01*
Y45000D02*
Y46500D01*
X91000Y45000D02*
X92500D01*
X95700D01*
X92500Y34920D02*
X95700D01*
X92500Y24840D02*
X95700D01*
X92500Y53580D02*
Y55080D01*
Y65160D02*
X95700D01*
X92500Y55080D02*
X95700D01*
X84900Y14740D02*
X86400D01*
X22020Y14000D02*
Y16000D01*
X40340Y24250D02*
X42340D01*
Y5750D02*
Y7750D01*
X4500Y9870D02*
Y11370D01*
X31580Y5730D02*
X33580D01*
X31180Y24250D02*
X33180D01*
X22020Y22250D02*
Y24250D01*
X24020D01*
X42340Y22250D02*
Y24250D01*
X40340Y5750D02*
X42340D01*
X22020D02*
X24020D01*
X22020D02*
Y7750D01*
X4500Y38610D02*
Y40110D01*
X6000D01*
X4500Y28530D02*
Y30030D01*
X12100Y28530D02*
Y30030D01*
X10600Y40150D02*
X12100D01*
Y38650D02*
Y40150D01*
X4500Y19950D02*
X6000D01*
X4500D02*
Y21450D01*
Y9870D02*
X6000D01*
X4500Y30030D02*
X6000D01*
X4500D02*
Y31530D01*
Y18450D02*
Y19950D01*
X62660Y5750D02*
X64660D01*
X82980D02*
Y7750D01*
X80980Y5750D02*
X82980D01*
X42340D02*
X44340D01*
X62660D02*
Y7750D01*
X60660Y5750D02*
X62660D01*
Y24250D02*
X64660D01*
X80980D02*
X82980D01*
Y22250D02*
Y24250D01*
X42340D02*
X44340D01*
X60660D02*
X62660D01*
Y22250D02*
Y24250D01*
X12100Y9870D02*
Y11370D01*
Y18450D02*
Y19950D01*
Y30030D02*
Y31530D01*
X10600Y30030D02*
X12100D01*
X10600Y9870D02*
X12100D01*
Y19950D02*
Y21450D01*
X10600Y19950D02*
X12100D01*
X65550Y57800D02*
Y58800D01*
Y52200D02*
Y53200D01*
X64550Y52200D02*
X65550D01*
X58450Y57800D02*
Y58800D01*
X58865D01*
X64550D02*
X65550D01*
X60750Y44475D02*
Y45525D01*
X50000Y45600D02*
Y46400D01*
X58450Y52200D02*
X59450D01*
X58450D02*
Y53200D01*
X50000Y44100D02*
Y44900D01*
X300Y30030D02*
X4500D01*
X300Y19950D02*
X4500D01*
X300Y9870D02*
X4500D01*
X82980Y300D02*
Y5750D01*
X62660Y300D02*
Y5750D01*
X57600Y45000D02*
X58400D01*
X300Y40130D02*
X4500D01*
X22020Y300D02*
Y5750D01*
X42340Y300D02*
Y5750D01*
X66350Y45000D02*
X67150D01*
X58450Y35103D02*
Y35800D01*
X58919D01*
X64550Y29200D02*
X65550D01*
X58450D02*
X59450D01*
X58450D02*
Y30200D01*
X64550Y35800D02*
X65550D01*
Y35123D02*
Y35800D01*
Y29200D02*
Y30077D01*
X64000Y44475D02*
Y45525D01*
X29600Y73762D02*
X30400D01*
X6400Y66488D02*
X7200D01*
X29600D02*
X30400D01*
X6400Y73762D02*
X7200D01*
X90975Y9750D02*
X92025D01*
X66350Y68000D02*
X67150D01*
X64000Y67475D02*
Y68525D01*
X57600Y68000D02*
X58400D01*
X60750Y67475D02*
Y68525D01*
X51000Y69600D02*
Y70400D01*
Y68100D02*
Y68900D01*
X29885Y63140D02*
Y64140D01*
X29385Y63640D01*
X30051D01*
X6799Y63973D02*
X6965Y64140D01*
X7298D01*
X7465Y63973D01*
Y63806D01*
X7298Y63640D01*
X7132D01*
X7298D01*
X7465Y63473D01*
Y63307D01*
X7298Y63140D01*
X6965D01*
X6799Y63307D01*
X7132Y76110D02*
X7465D01*
X7298D01*
Y77110D01*
X7132Y76943D01*
X30051Y76110D02*
X29385D01*
X30051Y76777D01*
Y76943D01*
X29885Y77110D01*
X29552D01*
X29385Y76943D01*
X56017Y75300D02*
X56683D01*
X51437Y74800D02*
Y75800D01*
X50937Y75300D01*
X51603D01*
X46523Y74800D02*
X45857D01*
X46523Y75467D01*
Y75633D01*
X46357Y75800D01*
X46023D01*
X45857Y75633D01*
X48397D02*
X48563Y75800D01*
X48897D01*
X49063Y75633D01*
Y75467D01*
X48897Y75300D01*
X48730D01*
X48897D01*
X49063Y75134D01*
Y74967D01*
X48897Y74800D01*
X48563D01*
X48397Y74967D01*
X52977Y74800D02*
Y75800D01*
X53643Y74800D01*
Y75800D01*
X54643Y75633D02*
X54476Y75800D01*
X54143D01*
X53977Y75633D01*
Y74967D01*
X54143Y74800D01*
X54476D01*
X54643Y74967D01*
X43483Y74800D02*
X43817D01*
X43650D01*
Y75800D01*
X43483Y75633D01*
X42866Y57500D02*
X42200D01*
Y57000D01*
X42533D01*
X42200D01*
Y56500D01*
X43200D02*
X43533D01*
X43366D01*
Y57500D01*
X43200Y57333D01*
X7517Y8930D02*
X8183Y7930D01*
Y8930D02*
X7517Y7930D01*
X9183D02*
X8517D01*
X9183Y8597D01*
Y8763D01*
X9016Y8930D01*
X8683D01*
X8517Y8763D01*
X87984Y13800D02*
X88650Y12800D01*
Y13800D02*
X87984Y12800D01*
X88983D02*
X89316D01*
X89150D01*
Y13800D01*
X88983Y13633D01*
X19314Y6200D02*
X19980Y5200D01*
Y6200D02*
X19314Y5200D01*
X20314Y6033D02*
X20480Y6200D01*
X20813D01*
X20980Y6033D01*
Y5866D01*
X20813Y5700D01*
X20647D01*
X20813D01*
X20980Y5533D01*
Y5367D01*
X20813Y5200D01*
X20480D01*
X20314Y5367D01*
X42866Y29500D02*
X42200D01*
Y29000D01*
X42533D01*
X42200D01*
Y28500D01*
X43866Y29500D02*
X43200D01*
Y29000D01*
X43533Y29167D01*
X43700D01*
X43866Y29000D01*
Y28667D01*
X43700Y28500D01*
X43366D01*
X43200Y28667D01*
X44925Y33750D02*
Y32750D01*
X45425D01*
X45591Y32917D01*
Y33583D01*
X45425Y33750D01*
X44925D01*
X45925Y32750D02*
X46258D01*
X46091D01*
Y33750D01*
X45925Y33583D01*
X63450Y63500D02*
Y62833D01*
X63783Y62500D01*
X64116Y62833D01*
Y63500D01*
X64450Y62500D02*
X64783D01*
X64616D01*
Y63500D01*
X64450Y63333D01*
X63450Y40500D02*
Y39833D01*
X63783Y39500D01*
X64116Y39833D01*
Y40500D01*
X65116Y39500D02*
X64450D01*
X65116Y40167D01*
Y40333D01*
X64950Y40500D01*
X64616D01*
X64450Y40333D01*
X30500Y67913D02*
X29500D01*
Y68413D01*
X29667Y68579D01*
X30000D01*
X30167Y68413D01*
Y67913D01*
Y68246D02*
X30500Y68579D01*
X29500Y69579D02*
X29667Y69246D01*
X30000Y68913D01*
X30333D01*
X30500Y69079D01*
Y69413D01*
X30333Y69579D01*
X30167D01*
X30000Y69413D01*
Y68913D01*
X7300Y67913D02*
X6300D01*
Y68413D01*
X6467Y68579D01*
X6800D01*
X6967Y68413D01*
Y67913D01*
Y68246D02*
X7300Y68579D01*
X6300Y69579D02*
Y68913D01*
X6800D01*
X6633Y69246D01*
Y69413D01*
X6800Y69579D01*
X7133D01*
X7300Y69413D01*
Y69079D01*
X7133Y68913D01*
X30500Y70671D02*
X29500D01*
Y71171D01*
X29667Y71337D01*
X30000D01*
X30167Y71171D01*
Y70671D01*
Y71004D02*
X30500Y71337D01*
Y72337D02*
Y71671D01*
X29833Y72337D01*
X29667D01*
X29500Y72170D01*
Y71837D01*
X29667Y71671D01*
X7300Y71004D02*
X6300D01*
Y71504D01*
X6467Y71671D01*
X6800D01*
X6967Y71504D01*
Y71004D01*
Y71337D02*
X7300Y71671D01*
Y72004D02*
Y72337D01*
Y72170D01*
X6300D01*
X6467Y72004D01*
X63317Y69250D02*
Y70250D01*
X63817D01*
X63983Y70083D01*
Y69750D01*
X63817Y69583D01*
X63317D01*
X63650D02*
X63983Y69250D01*
X64816D02*
Y70250D01*
X64317Y69750D01*
X64983D01*
X59917Y69000D02*
Y70000D01*
X60417D01*
X60583Y69833D01*
Y69500D01*
X60417Y69333D01*
X59917D01*
X60250D02*
X60583Y69000D01*
X60917Y69833D02*
X61083Y70000D01*
X61416D01*
X61583Y69833D01*
Y69667D01*
X61416Y69500D01*
X61250D01*
X61416D01*
X61583Y69333D01*
Y69167D01*
X61416Y69000D01*
X61083D01*
X60917Y69167D01*
X63167Y46100D02*
Y47100D01*
X63667D01*
X63833Y46933D01*
Y46600D01*
X63667Y46433D01*
X63167D01*
X63500D02*
X63833Y46100D01*
X64167Y46933D02*
X64333Y47100D01*
X64666D01*
X64833Y46933D01*
Y46766D01*
X64666Y46600D01*
X64833Y46433D01*
Y46267D01*
X64666Y46100D01*
X64333D01*
X64167Y46267D01*
Y46433D01*
X64333Y46600D01*
X64167Y46766D01*
Y46933D01*
X64333Y46600D02*
X64666D01*
X59917Y46100D02*
Y47100D01*
X60417D01*
X60583Y46933D01*
Y46600D01*
X60417Y46433D01*
X59917D01*
X60250D02*
X60583Y46100D01*
X60917Y47100D02*
X61583D01*
Y46933D01*
X60917Y46267D01*
Y46100D01*
X33970Y70167D02*
Y70833D01*
X33804Y71000D01*
X33470D01*
X33304Y70833D01*
Y70167D01*
X33470Y70000D01*
X33804D01*
X33637Y70333D02*
X33970Y70000D01*
X33804D02*
X33970Y70167D01*
X34803Y70000D02*
Y71000D01*
X34304Y70500D01*
X34970D01*
X33970Y73667D02*
Y74333D01*
X33804Y74500D01*
X33470D01*
X33304Y74333D01*
Y73667D01*
X33470Y73500D01*
X33804D01*
X33637Y73833D02*
X33970Y73500D01*
X33804D02*
X33970Y73667D01*
X34304Y74333D02*
X34470Y74500D01*
X34803D01*
X34970Y74333D01*
Y74167D01*
X34803Y74000D01*
X34637D01*
X34803D01*
X34970Y73833D01*
Y73667D01*
X34803Y73500D01*
X34470D01*
X34304Y73667D01*
X33970Y77167D02*
Y77833D01*
X33804Y78000D01*
X33470D01*
X33304Y77833D01*
Y77167D01*
X33470Y77000D01*
X33804D01*
X33637Y77333D02*
X33970Y77000D01*
X33804D02*
X33970Y77167D01*
X34970Y77000D02*
X34304D01*
X34970Y77667D01*
Y77833D01*
X34803Y78000D01*
X34470D01*
X34304Y77833D01*
X34304Y80667D02*
Y81333D01*
X34137Y81500D01*
X33804D01*
X33637Y81333D01*
Y80667D01*
X33804Y80500D01*
X34137D01*
X33970Y80833D02*
X34304Y80500D01*
X34137D02*
X34304Y80667D01*
X34637Y80500D02*
X34970D01*
X34803D01*
Y81500D01*
X34637Y81333D01*
X61334Y51650D02*
Y50650D01*
X62000D01*
X62333D02*
X62666D01*
X62500D01*
Y51650D01*
X62333Y51483D01*
X61167Y28650D02*
Y27650D01*
X61833D01*
X62833D02*
X62167D01*
X62833Y28317D01*
Y28483D01*
X62666Y28650D01*
X62333D01*
X62167Y28483D01*
X89400Y8917D02*
X90400D01*
Y9583D01*
X89567Y9917D02*
X89400Y10083D01*
Y10416D01*
X89567Y10583D01*
X89734D01*
X89900Y10416D01*
Y10250D01*
Y10416D01*
X90067Y10583D01*
X90233D01*
X90400Y10416D01*
Y10083D01*
X90233Y9917D01*
X23017Y64386D02*
Y63386D01*
Y63886D01*
X23683D01*
Y64386D01*
Y63386D01*
X24683Y64386D02*
X24017D01*
Y63886D01*
X24350Y64052D01*
X24516D01*
X24683Y63886D01*
Y63553D01*
X24516Y63386D01*
X24183D01*
X24017Y63553D01*
X59345Y77910D02*
Y76910D01*
Y77410D01*
X60011D01*
Y77910D01*
Y76910D01*
X60345D02*
X60678D01*
X60511D01*
Y77910D01*
X60345Y77743D01*
X12167Y64386D02*
Y63386D01*
Y63886D01*
X12833D01*
Y64386D01*
Y63386D01*
X13666D02*
Y64386D01*
X13167Y63886D01*
X13833D01*
X23017Y76864D02*
Y75864D01*
Y76364D01*
X23683D01*
Y76864D01*
Y75864D01*
X24017Y76697D02*
X24183Y76864D01*
X24516D01*
X24683Y76697D01*
Y76531D01*
X24516Y76364D01*
X24350D01*
X24516D01*
X24683Y76198D01*
Y76031D01*
X24516Y75864D01*
X24183D01*
X24017Y76031D01*
X12167Y76864D02*
Y75864D01*
Y76364D01*
X12833D01*
Y76864D01*
Y75864D01*
X13833D02*
X13167D01*
X13833Y76531D01*
Y76697D01*
X13666Y76864D01*
X13333D01*
X13167Y76697D01*
X42866Y36500D02*
X42200D01*
Y36000D01*
X42533D01*
X42200D01*
Y35500D01*
X43700D02*
Y36500D01*
X43200Y36000D01*
X43866D01*
X42866Y43500D02*
X42200D01*
Y43000D01*
X42533D01*
X42200D01*
Y42500D01*
X43200Y43333D02*
X43366Y43500D01*
X43700D01*
X43866Y43333D01*
Y43167D01*
X43700Y43000D01*
X43533D01*
X43700D01*
X43866Y42833D01*
Y42667D01*
X43700Y42500D01*
X43366D01*
X43200Y42667D01*
X42866Y50500D02*
X42200D01*
Y50000D01*
X42533D01*
X42200D01*
Y49500D01*
X43866D02*
X43200D01*
X43866Y50167D01*
Y50333D01*
X43700Y50500D01*
X43366D01*
X43200Y50333D01*
X67917Y68083D02*
X67750Y67917D01*
Y67584D01*
X67917Y67417D01*
X68583D01*
X68750Y67584D01*
Y67917D01*
X68583Y68083D01*
X67917Y68417D02*
X67750Y68583D01*
Y68916D01*
X67917Y69083D01*
X68083D01*
X68250Y68916D01*
Y68750D01*
Y68916D01*
X68417Y69083D01*
X68583D01*
X68750Y68916D01*
Y68583D01*
X68583Y68417D01*
X56167Y67833D02*
X56000Y67667D01*
Y67334D01*
X56167Y67167D01*
X56833D01*
X57000Y67334D01*
Y67667D01*
X56833Y67833D01*
X57000Y68833D02*
Y68167D01*
X56333Y68833D01*
X56167D01*
X56000Y68666D01*
Y68333D01*
X56167Y68167D01*
X53091Y68833D02*
X52925Y69000D01*
X52592D01*
X52425Y68833D01*
Y68167D01*
X52592Y68000D01*
X52925D01*
X53091Y68167D01*
X53925Y68000D02*
Y69000D01*
X53425Y68500D01*
X54091D01*
X53091Y70333D02*
X52925Y70500D01*
X52592D01*
X52425Y70333D01*
Y69667D01*
X52592Y69500D01*
X52925D01*
X53091Y69667D01*
X53425Y69500D02*
X53758D01*
X53591D01*
Y70500D01*
X53425Y70333D01*
X83367Y52667D02*
X83200Y52500D01*
Y52167D01*
X83367Y52000D01*
X84033D01*
X84200Y52167D01*
Y52500D01*
X84033Y52667D01*
X84200Y53000D02*
Y53333D01*
Y53167D01*
X83200D01*
X83367Y53000D01*
Y53833D02*
X83200Y54000D01*
Y54333D01*
X83367Y54500D01*
X84033D01*
X84200Y54333D01*
Y54000D01*
X84033Y53833D01*
X83367D01*
X67667Y53333D02*
X67500Y53167D01*
Y52834D01*
X67667Y52667D01*
X68333D01*
X68500Y52834D01*
Y53167D01*
X68333Y53333D01*
Y53667D02*
X68500Y53833D01*
Y54166D01*
X68333Y54333D01*
X67667D01*
X67500Y54166D01*
Y53833D01*
X67667Y53667D01*
X67834D01*
X68000Y53833D01*
Y54333D01*
X83417Y62833D02*
X83250Y62667D01*
Y62334D01*
X83417Y62167D01*
X84083D01*
X84250Y62334D01*
Y62667D01*
X84083Y62833D01*
X83250Y63833D02*
X83417Y63500D01*
X83750Y63167D01*
X84083D01*
X84250Y63333D01*
Y63666D01*
X84083Y63833D01*
X83916D01*
X83750Y63666D01*
Y63167D01*
X67667Y62833D02*
X67500Y62667D01*
Y62334D01*
X67667Y62167D01*
X68333D01*
X68500Y62334D01*
Y62667D01*
X68333Y62833D01*
X67500Y63833D02*
Y63167D01*
X68000D01*
X67834Y63500D01*
Y63666D01*
X68000Y63833D01*
X68333D01*
X68500Y63666D01*
Y63333D01*
X68333Y63167D01*
X46550Y61133D02*
X46384Y61300D01*
X46050D01*
X45884Y61133D01*
Y60467D01*
X46050Y60300D01*
X46384D01*
X46550Y60467D01*
X46884Y61300D02*
X47550D01*
Y61133D01*
X46884Y60467D01*
Y60300D01*
X46550Y53633D02*
X46384Y53800D01*
X46050D01*
X45884Y53633D01*
Y52967D01*
X46050Y52800D01*
X46384D01*
X46550Y52967D01*
X46884Y53633D02*
X47050Y53800D01*
X47383D01*
X47550Y53633D01*
Y53467D01*
X47383Y53300D01*
X47550Y53134D01*
Y52967D01*
X47383Y52800D01*
X47050D01*
X46884Y52967D01*
Y53134D01*
X47050Y53300D01*
X46884Y53467D01*
Y53633D01*
X47050Y53300D02*
X47383D01*
X67717Y44417D02*
X67550Y44250D01*
Y43917D01*
X67717Y43750D01*
X68383D01*
X68550Y43917D01*
Y44250D01*
X68383Y44417D01*
X68550Y44750D02*
Y45083D01*
Y44917D01*
X67550D01*
X67717Y44750D01*
Y45583D02*
X67550Y45750D01*
Y46083D01*
X67717Y46250D01*
X67883D01*
X68050Y46083D01*
Y45916D01*
Y46083D01*
X68216Y46250D01*
X68383D01*
X68550Y46083D01*
Y45750D01*
X68383Y45583D01*
X56367Y44417D02*
X56200Y44250D01*
Y43917D01*
X56367Y43750D01*
X57033D01*
X57200Y43917D01*
Y44250D01*
X57033Y44417D01*
X57200Y44750D02*
Y45083D01*
Y44917D01*
X56200D01*
X56367Y44750D01*
X57200Y46250D02*
Y45583D01*
X56534Y46250D01*
X56367D01*
X56200Y46083D01*
Y45750D01*
X56367Y45583D01*
X52091Y44833D02*
X51925Y45000D01*
X51592D01*
X51425Y44833D01*
Y44167D01*
X51592Y44000D01*
X51925D01*
X52091Y44167D01*
X52425Y44000D02*
X52758D01*
X52591D01*
Y45000D01*
X52425Y44833D01*
X53758Y44000D02*
Y45000D01*
X53258Y44500D01*
X53924D01*
X52091Y46333D02*
X51925Y46500D01*
X51592D01*
X51425Y46333D01*
Y45667D01*
X51592Y45500D01*
X51925D01*
X52091Y45667D01*
X52425Y45500D02*
X52758D01*
X52591D01*
Y46500D01*
X52425Y46333D01*
X53258Y45500D02*
X53591D01*
X53424D01*
Y46500D01*
X53258Y46333D01*
X83417Y39417D02*
X83250Y39250D01*
Y38917D01*
X83417Y38750D01*
X84083D01*
X84250Y38917D01*
Y39250D01*
X84083Y39417D01*
X84250Y39750D02*
Y40083D01*
Y39917D01*
X83250D01*
X83417Y39750D01*
X83250Y41250D02*
X83417Y40916D01*
X83750Y40583D01*
X84083D01*
X84250Y40750D01*
Y41083D01*
X84083Y41250D01*
X83916D01*
X83750Y41083D01*
Y40583D01*
X67667Y39417D02*
X67500Y39250D01*
Y38917D01*
X67667Y38750D01*
X68333D01*
X68500Y38917D01*
Y39250D01*
X68333Y39417D01*
X68500Y39750D02*
Y40083D01*
Y39917D01*
X67500D01*
X67667Y39750D01*
X67500Y41250D02*
Y40583D01*
X68000D01*
X67834Y40916D01*
Y41083D01*
X68000Y41250D01*
X68333D01*
X68500Y41083D01*
Y40750D01*
X68333Y40583D01*
X83417Y29834D02*
X83250Y29667D01*
Y29334D01*
X83417Y29167D01*
X84083D01*
X84250Y29334D01*
Y29667D01*
X84083Y29834D01*
X84250Y30833D02*
Y30167D01*
X83583Y30833D01*
X83417D01*
X83250Y30667D01*
Y30333D01*
X83417Y30167D01*
Y31166D02*
X83250Y31333D01*
Y31666D01*
X83417Y31833D01*
X84083D01*
X84250Y31666D01*
Y31333D01*
X84083Y31166D01*
X83417D01*
X67667Y29917D02*
X67500Y29750D01*
Y29417D01*
X67667Y29250D01*
X68333D01*
X68500Y29417D01*
Y29750D01*
X68333Y29917D01*
X68500Y30250D02*
Y30583D01*
Y30417D01*
X67500D01*
X67667Y30250D01*
X68333Y31083D02*
X68500Y31250D01*
Y31583D01*
X68333Y31750D01*
X67667D01*
X67500Y31583D01*
Y31250D01*
X67667Y31083D01*
X67834D01*
X68000Y31250D01*
Y31750D01*
X45717Y38133D02*
X45551Y38300D01*
X45217D01*
X45051Y38133D01*
Y37467D01*
X45217Y37300D01*
X45551D01*
X45717Y37467D01*
X46050Y37300D02*
X46384D01*
X46217D01*
Y38300D01*
X46050Y38133D01*
X46884Y38300D02*
X47550D01*
Y38133D01*
X46884Y37467D01*
Y37300D01*
X45717Y30633D02*
X45551Y30800D01*
X45217D01*
X45051Y30633D01*
Y29967D01*
X45217Y29800D01*
X45551D01*
X45717Y29967D01*
X46050Y29800D02*
X46384D01*
X46217D01*
Y30800D01*
X46050Y30633D01*
X46884D02*
X47050Y30800D01*
X47383D01*
X47550Y30633D01*
Y30467D01*
X47383Y30300D01*
X47550Y30134D01*
Y29967D01*
X47383Y29800D01*
X47050D01*
X46884Y29967D01*
Y30134D01*
X47050Y30300D01*
X46884Y30467D01*
Y30633D01*
X47050Y30300D02*
X47383D01*
D42*
X36375Y76500D02*
Y76935D01*
Y78500D02*
X36950D01*
X36375Y76500D02*
X36950D01*
X36375Y78065D02*
Y78500D01*
X77550Y36700D02*
X78350D01*
X76200Y38050D02*
X77550Y36700D01*
X76200Y38050D02*
Y43300D01*
X76797Y33047D02*
X77550Y33800D01*
X76200Y27200D02*
Y32320D01*
Y27200D02*
X78350D01*
X82800Y38050D02*
Y43300D01*
X80650D02*
X82800D01*
X80650Y56800D02*
X81154D01*
X76200Y43300D02*
X78350D01*
X80650Y36700D02*
X81450D01*
X82800Y38050D01*
X80650Y59700D02*
X81450D01*
X82800Y61050D01*
Y66300D01*
X76200Y61050D02*
X77550Y59700D01*
X76200Y62880D02*
Y66300D01*
Y61050D02*
Y62320D01*
X76986Y66300D02*
X78350D01*
X82800Y27200D02*
Y32154D01*
X80650Y27200D02*
X82800D01*
X77550Y33800D02*
X78350D01*
X80650Y66300D02*
X82800D01*
X80650Y33800D02*
X81450D01*
X82281Y32970D01*
X78046Y56800D02*
X78350D01*
X76200Y55450D02*
X77153Y56403D01*
X76200Y54880D02*
Y55450D01*
Y50200D02*
Y54320D01*
X81970Y56280D02*
X82800Y55450D01*
Y50200D02*
Y55450D01*
X80650Y50200D02*
X82800D01*
X76200D02*
X78350D01*
X73400Y33800D02*
X74200D01*
X74588Y37088D02*
X75550Y38050D01*
Y39086D02*
Y43300D01*
X73400D02*
X75550D01*
X70300Y33800D02*
X71100D01*
X69088Y32588D02*
X70300Y33800D01*
X68950Y27200D02*
Y32259D01*
X74200Y33800D02*
X75550Y32450D01*
Y31086D02*
Y32450D01*
Y27200D02*
Y30114D01*
X73400Y27200D02*
X75550D01*
X68950Y38050D02*
Y43300D01*
X71100D01*
X73400Y36700D02*
X74122D01*
X68950Y27200D02*
X71100D01*
X68950Y38050D02*
X70169Y36831D01*
X69831Y60169D02*
X70300Y59700D01*
X68950Y61050D02*
X69169Y60831D01*
X68950Y61050D02*
Y66300D01*
X71100D01*
X70300Y59700D02*
X71100D01*
X74986Y66300D02*
X75550D01*
X73400D02*
X74215D01*
X54800Y53550D02*
Y54350D01*
X53450Y52200D02*
X54800Y53550D01*
X73400Y59700D02*
X74200D01*
X75112Y60612D01*
X75550Y65086D02*
Y66300D01*
Y61086D02*
Y64114D01*
X74046Y56800D02*
X74200D01*
X75550Y55450D01*
Y50200D02*
Y55450D01*
X48200Y66300D02*
X53450D01*
X48200Y64150D02*
Y66300D01*
X68950Y54941D02*
Y55450D01*
Y50200D02*
Y54259D01*
Y50200D02*
X71100D01*
X77550Y59700D02*
X78350D01*
X73400Y50200D02*
X75550D01*
X70300Y56800D02*
X71100D01*
X70088Y56588D02*
X70300Y56800D01*
X68950Y55450D02*
X69612Y56112D01*
X53450Y58800D02*
X54800Y57450D01*
X48200Y58800D02*
X53450D01*
X48200Y56650D02*
Y58800D01*
Y52200D02*
X53450D01*
X48200D02*
Y54350D01*
X54800Y56650D02*
Y57450D01*
X48200Y59700D02*
Y61850D01*
X54800Y64150D02*
Y64950D01*
X53450Y66300D02*
X54800Y64950D01*
Y61050D02*
Y61850D01*
X53450Y59700D02*
X54800Y61050D01*
X48200Y59700D02*
X53450D01*
X48200Y33650D02*
Y35800D01*
X54800Y38050D02*
Y38850D01*
X53450Y36700D02*
X54800Y38050D01*
Y33650D02*
Y34450D01*
X53450Y35800D02*
X54800Y34450D01*
X48200Y35800D02*
X53450D01*
Y43300D02*
X54800Y41950D01*
X48200Y43300D02*
X53450D01*
X48200Y41150D02*
Y43300D01*
Y36700D02*
X53450D01*
X48200D02*
Y38850D01*
X54800Y41150D02*
Y41950D01*
X53450Y29200D02*
X54800Y30550D01*
X48200Y29200D02*
X53450D01*
X48200D02*
Y31350D01*
X54800Y30550D02*
Y31350D01*
X36375Y80000D02*
X36950D01*
X36375Y81565D02*
Y82000D01*
Y80000D02*
Y80435D01*
Y82000D02*
X36950D01*
X36375Y71500D02*
X36950D01*
X36375Y73000D02*
X36950D01*
X36375Y69500D02*
X36950D01*
X36375Y71065D02*
Y71500D01*
Y69500D02*
Y69935D01*
Y74565D02*
Y75000D01*
Y73000D02*
Y73435D01*
Y75000D02*
X36950D01*
D43*
X41000Y58856D02*
Y60000D01*
Y54856D02*
Y58344D01*
Y54000D02*
Y54344D01*
X21000Y54000D02*
X41000D01*
X21000Y54856D02*
Y60000D01*
Y54000D02*
Y54344D01*
Y60000D02*
X41000D01*
X21000Y46000D02*
X41000D01*
Y40000D02*
Y46000D01*
X21000Y40000D02*
X41000D01*
Y47000D02*
Y53000D01*
X21000Y47000D02*
X41000D01*
X21000D02*
Y53000D01*
Y33000D02*
X41000D01*
X21000D02*
Y39000D01*
Y40000D02*
Y46000D01*
Y39000D02*
X41000D01*
Y33000D02*
Y39000D01*
X21000Y26000D02*
X41000D01*
X21000D02*
Y32000D01*
Y53000D02*
X41000D01*
X21000Y32000D02*
X41000D01*
Y26000D02*
Y32000D01*
X62250Y65400D02*
X63250D01*
X58750D02*
X59750D01*
X58750Y64400D02*
Y65400D01*
X42900Y32650D02*
X44100D01*
X42900Y33850D02*
X44100D01*
X63250Y64400D02*
Y65400D01*
Y60600D02*
Y61600D01*
X58750Y60600D02*
Y61600D01*
Y60600D02*
X59750D01*
X62250D02*
X63250D01*
X58750Y41400D02*
Y42400D01*
Y38051D02*
Y38600D01*
X59075Y37600D02*
X59750D01*
X63250Y41400D02*
Y42400D01*
X62250D02*
X63250D01*
X58750D02*
X59750D01*
X62250Y37600D02*
X63250D01*
Y38600D01*
X43373Y33250D02*
X43627Y32996D01*
X43373Y33250D02*
X43627Y33504D01*
X42275Y32650D02*
Y33850D01*
D44*
X41105Y80540D02*
Y82040D01*
X42605D01*
X41110Y76960D02*
X42610D01*
X7920Y75540D02*
X8920D01*
X10455Y76064D02*
Y77064D01*
X11455D01*
X7920Y70460D02*
X8920D01*
X7920D02*
Y71460D01*
Y74540D02*
Y75540D01*
X18080Y74540D02*
Y75540D01*
X14545Y77064D02*
X15545D01*
Y76064D02*
Y77064D01*
X18085Y70460D02*
Y71460D01*
X17085Y70460D02*
X18085D01*
X17080Y75540D02*
X18080D01*
X25395Y77064D02*
X26395D01*
Y76064D02*
Y77064D01*
X27930Y69790D02*
X28930D01*
X27935Y70460D02*
X28935D01*
X27930Y75540D02*
X28930D01*
Y74540D02*
Y75540D01*
X26395Y63186D02*
Y64186D01*
X25395Y63186D02*
X26395D01*
X18765Y68790D02*
Y69790D01*
X28930Y68790D02*
Y69790D01*
Y64710D02*
Y65710D01*
X27930Y64710D02*
X28930D01*
X57395Y82040D02*
X58895D01*
Y80540D02*
Y82040D01*
X18770Y70460D02*
X19770D01*
X41110Y76960D02*
Y78460D01*
X58890Y76960D02*
Y78460D01*
X57390Y76960D02*
X58890D01*
X21305Y76064D02*
Y77064D01*
X22305D01*
X28935Y70460D02*
Y71460D01*
X18770Y70460D02*
Y71460D01*
Y74540D02*
Y75540D01*
X19770D01*
X10455Y63186D02*
X11455D01*
X10455D02*
Y64186D01*
X7915Y69790D02*
X8915D01*
X7920Y64710D02*
X8920D01*
X7920D02*
Y65710D01*
X21305Y63186D02*
X22305D01*
X21305D02*
Y64186D01*
X17080Y69790D02*
X18080D01*
X18765D02*
X19765D01*
X18770Y64710D02*
X19770D01*
X18770D02*
Y65710D01*
X15545Y63186D02*
Y64186D01*
X14545Y63186D02*
X15545D01*
X7915Y68790D02*
Y69790D01*
X18080Y68790D02*
Y69790D01*
Y64710D02*
Y65710D01*
X17080Y64710D02*
X18080D01*
D45*
X60545Y80000D02*
X60295Y80250D01*
X59795D01*
X59545Y80000D01*
Y79750D01*
X59795Y79500D01*
X60295D01*
X60545Y79250D01*
Y79000D01*
X60295Y78750D01*
X59795D01*
X59545Y79000D01*
X62044Y80250D02*
X61045D01*
Y78750D01*
X62044D01*
X61045Y79500D02*
X61544D01*
X62544Y78750D02*
Y80250D01*
X63294D01*
X63544Y80000D01*
Y79500D01*
X63294Y79250D01*
X62544D01*
X63044D02*
X63544Y78750D01*
X64044Y80250D02*
Y79250D01*
X64543Y78750D01*
X65043Y79250D01*
Y80250D01*
X66293D02*
X65793D01*
X65543Y80000D01*
Y79000D01*
X65793Y78750D01*
X66293D01*
X66543Y79000D01*
Y80000D01*
X66293Y80250D01*
X69542Y80000D02*
X69292Y80250D01*
X68792D01*
X68542Y80000D01*
Y79000D01*
X68792Y78750D01*
X69292D01*
X69542Y79000D01*
X70791Y80250D02*
X70292D01*
X70042Y80000D01*
Y79000D01*
X70292Y78750D01*
X70791D01*
X71041Y79000D01*
Y80000D01*
X70791Y80250D01*
X71541Y78750D02*
Y80250D01*
X72541Y78750D01*
Y80250D01*
X73041D02*
X74040D01*
X73540D01*
Y78750D01*
X74540D02*
Y80250D01*
X75290D01*
X75540Y80000D01*
Y79500D01*
X75290Y79250D01*
X74540D01*
X75040D02*
X75540Y78750D01*
X76789Y80250D02*
X76290D01*
X76040Y80000D01*
Y79000D01*
X76290Y78750D01*
X76789D01*
X77039Y79000D01*
Y80000D01*
X76789Y80250D01*
X77539D02*
Y78750D01*
X78539D01*
X50251Y10600D02*
X49251D01*
Y9850D01*
X49751D01*
X49251D01*
Y9100D01*
X50751Y10100D02*
Y9100D01*
Y9600D01*
X51000Y9850D01*
X51250Y10100D01*
X51500D01*
X52500Y9100D02*
X53000D01*
X53250Y9350D01*
Y9850D01*
X53000Y10100D01*
X52500D01*
X52250Y9850D01*
Y9350D01*
X52500Y9100D01*
X53750D02*
Y10100D01*
X54499D01*
X54749Y9850D01*
Y9100D01*
X55499Y10350D02*
Y10100D01*
X55249D01*
X55749D01*
X55499D01*
Y9350D01*
X55749Y9100D01*
X8065Y60850D02*
X9065D01*
X8565Y61350D02*
Y60350D01*
X9565Y61350D02*
X9814Y61600D01*
X10314D01*
X10564Y61350D01*
Y61100D01*
X10314Y60850D01*
X10564Y60600D01*
Y60350D01*
X10314Y60100D01*
X9814D01*
X9565Y60350D01*
Y60600D01*
X9814Y60850D01*
X9565Y61100D01*
Y61350D01*
X9814Y60850D02*
X10314D01*
X11064Y61600D02*
Y60600D01*
X11564Y60100D01*
X12064Y60600D01*
Y61600D01*
X13313Y60100D02*
Y61600D01*
X12564Y60850D01*
X13563D01*
X15166Y79400D02*
X14916Y79650D01*
X14416D01*
X14166Y79400D01*
Y79150D01*
X14416Y78900D01*
X14916D01*
X15166Y78650D01*
Y78400D01*
X14916Y78150D01*
X14416D01*
X14166Y78400D01*
X16666Y79650D02*
X15666D01*
Y78150D01*
X16666D01*
X15666Y78900D02*
X16166D01*
X17165Y78150D02*
Y79650D01*
X17915D01*
X18165Y79400D01*
Y78900D01*
X17915Y78650D01*
X17165D01*
X17665D02*
X18165Y78150D01*
X18665Y79650D02*
Y78650D01*
X19165Y78150D01*
X19665Y78650D01*
Y79650D01*
X20914D02*
X20414D01*
X20164Y79400D01*
Y78400D01*
X20414Y78150D01*
X20914D01*
X21164Y78400D01*
Y79400D01*
X20914Y79650D01*
X22664Y79400D02*
X22414Y79650D01*
X21914D01*
X21664Y79400D01*
Y79150D01*
X21914Y78900D01*
X22414D01*
X22664Y78650D01*
Y78400D01*
X22414Y78150D01*
X21914D01*
X21664Y78400D01*
X94750Y17250D02*
X93750D01*
X94250Y16750D02*
Y17750D01*
X94750Y22330D02*
X93750D01*
X94750Y27330D02*
X93750D01*
X94250Y26830D02*
Y27830D01*
X94750Y32410D02*
X93750D01*
X94750Y37410D02*
X93750D01*
X94250Y36910D02*
Y37910D01*
X94750Y42490D02*
X93750D01*
X94750Y47490D02*
X93750D01*
X94250Y46990D02*
Y47990D01*
X94750Y52570D02*
X93750D01*
X94750Y57570D02*
X93750D01*
X94250Y57070D02*
Y58070D01*
X94750Y62650D02*
X93750D01*
X86701Y67050D02*
X87700D01*
X87200Y67550D02*
Y66550D01*
X89200Y67800D02*
X88200D01*
Y67050D01*
X88700Y67300D01*
X88950D01*
X89200Y67050D01*
Y66550D01*
X88950Y66300D01*
X88450D01*
X88200Y66550D01*
X89700Y67800D02*
Y66800D01*
X90200Y66300D01*
X90699Y66800D01*
Y67800D01*
X27182Y4750D02*
Y3250D01*
X27931D01*
X28181Y3500D01*
Y3750D01*
X27931Y4000D01*
X27182D01*
X27931D01*
X28181Y4250D01*
Y4500D01*
X27931Y4750D01*
X27182D01*
X28681Y3250D02*
Y4250D01*
X29181Y4750D01*
X29681Y4250D01*
Y3250D01*
Y4000D01*
X28681D01*
X30181Y4750D02*
X31180D01*
X30680D01*
Y3250D01*
X31680Y4750D02*
X32680D01*
X32180D01*
Y3250D01*
X34179Y4750D02*
X33180D01*
Y3250D01*
X34179D01*
X33180Y4000D02*
X33680D01*
X34679Y3250D02*
Y4750D01*
X35429D01*
X35679Y4500D01*
Y4000D01*
X35429Y3750D01*
X34679D01*
X35179D02*
X35679Y3250D01*
X36179Y4750D02*
Y4500D01*
X36679Y4000D01*
X37178Y4500D01*
Y4750D01*
X36679Y4000D02*
Y3250D01*
X69321D02*
Y4750D01*
X70071D01*
X70321Y4500D01*
Y4000D01*
X70071Y3750D01*
X69321D01*
X69821D02*
X70321Y3250D01*
X71820Y4750D02*
X70821D01*
Y3250D01*
X71820D01*
X70821Y4000D02*
X71320D01*
X72320Y4750D02*
Y3250D01*
X73320D01*
X73820D02*
Y4250D01*
X74320Y4750D01*
X74819Y4250D01*
Y3250D01*
Y4000D01*
X73820D01*
X75319Y4750D02*
Y4500D01*
X75819Y4000D01*
X76319Y4500D01*
Y4750D01*
X75819Y4000D02*
Y3250D01*
X49376Y4500D02*
X49126Y4750D01*
X48626D01*
X48376Y4500D01*
Y4250D01*
X48626Y4000D01*
X49126D01*
X49376Y3750D01*
Y3500D01*
X49126Y3250D01*
X48626D01*
X48376Y3500D01*
X49876Y4750D02*
Y3250D01*
X50376Y3750D01*
X50876Y3250D01*
Y4750D01*
X51375D02*
X51875D01*
X51625D01*
Y3250D01*
X51375D01*
X51875D01*
X52625Y4750D02*
X53625D01*
X53125D01*
Y3250D01*
X55124Y4500D02*
X54874Y4750D01*
X54374D01*
X54124Y4500D01*
Y3500D01*
X54374Y3250D01*
X54874D01*
X55124Y3500D01*
X55624Y4750D02*
Y3250D01*
Y4000D01*
X56624D01*
Y4750D01*
Y3250D01*
X36760Y1500D02*
X37760D01*
X26600D02*
X27600D01*
X27100Y2000D02*
Y1000D01*
X18850Y54501D02*
X18600Y54251D01*
Y53751D01*
X18850Y53501D01*
X19100D01*
X19350Y53751D01*
Y54251D01*
X19600Y54501D01*
X19850D01*
X20100Y54251D01*
Y53751D01*
X19850Y53501D01*
X18600Y56000D02*
Y55001D01*
X20100D01*
Y56000D01*
X19350Y55001D02*
Y55500D01*
X20100Y56500D02*
X18600D01*
Y57250D01*
X18850Y57500D01*
X19350D01*
X19600Y57250D01*
Y56500D01*
Y57000D02*
X20100Y57500D01*
X18600Y58000D02*
X19600D01*
X20100Y58500D01*
X19600Y58999D01*
X18600D01*
Y60249D02*
Y59749D01*
X18850Y59499D01*
X19850D01*
X20100Y59749D01*
Y60249D01*
X19850Y60499D01*
X18850D01*
X18600Y60249D01*
Y26251D02*
X20100D01*
Y27001D01*
X19850Y27251D01*
X19600D01*
X19350Y27001D01*
Y26251D01*
Y27001D01*
X19100Y27251D01*
X18850D01*
X18600Y27001D01*
Y26251D01*
X20100Y27750D02*
X19100D01*
X18600Y28250D01*
X19100Y28750D01*
X20100D01*
X19350D01*
Y27750D01*
X18600Y29250D02*
Y30250D01*
Y29750D01*
X20100D01*
X18600Y30749D02*
Y31749D01*
Y31249D01*
X20100D01*
X20100Y41750D02*
X18600D01*
X19100Y42250D01*
X18600Y42750D01*
X20100D01*
Y44250D02*
Y43250D01*
X19100Y44250D01*
X18850D01*
X18600Y44000D01*
Y43500D01*
X18850Y43250D01*
X20100Y34750D02*
X18600D01*
X19100Y35250D01*
X18600Y35750D01*
X20100D01*
X18850Y36250D02*
X18600Y36500D01*
Y37000D01*
X18850Y37250D01*
X19100D01*
X19350Y37000D01*
Y36750D01*
Y37000D01*
X19600Y37250D01*
X19850D01*
X20100Y37000D01*
Y36500D01*
X19850Y36250D01*
X20100Y49000D02*
X18600D01*
X19100Y49500D01*
X18600Y50000D01*
X20100D01*
Y50500D02*
Y51000D01*
Y50750D01*
X18600D01*
X18850Y50500D01*
X1750Y27540D02*
X2750D01*
X2250Y28040D02*
Y27040D01*
X1000Y14170D02*
Y15670D01*
X1500Y15170D01*
X2000Y15670D01*
Y14170D01*
X2500Y15420D02*
X2750Y15670D01*
X3250D01*
X3500Y15420D01*
Y15170D01*
X3250Y14920D01*
X3000D01*
X3250D01*
X3500Y14670D01*
Y14420D01*
X3250Y14170D01*
X2750D01*
X2500Y14420D01*
X1000Y24250D02*
Y25750D01*
X1500Y25250D01*
X2000Y25750D01*
Y24250D01*
X3500D02*
X2500D01*
X3500Y25250D01*
Y25500D01*
X3250Y25750D01*
X2750D01*
X2500Y25500D01*
X1250Y34330D02*
Y35830D01*
X1750Y35330D01*
X2250Y35830D01*
Y34330D01*
X2750D02*
X3250D01*
X3000D01*
Y35830D01*
X2750Y35580D01*
X5601Y42020D02*
X6601D01*
X6101Y42520D02*
Y41520D01*
X8100Y41270D02*
X7100D01*
X8100Y42270D01*
Y42520D01*
X7850Y42770D01*
X7350D01*
X7100Y42520D01*
X9350Y41270D02*
Y42770D01*
X8600Y42020D01*
X9600D01*
X10099Y42770D02*
Y41770D01*
X10599Y41270D01*
X11099Y41770D01*
Y42770D01*
X1750Y22460D02*
X2750D01*
X1750Y17460D02*
X2750D01*
X2250Y17960D02*
Y16960D01*
X1750Y12380D02*
X2750D01*
X1750Y32540D02*
X2750D01*
X1750Y37620D02*
X2750D01*
X2250Y38120D02*
Y37120D01*
X12900Y37496D02*
X14400D01*
X13900Y36996D01*
X14400Y36496D01*
X12900D01*
X14400Y35247D02*
Y35747D01*
X14150Y35996D01*
X13150D01*
X12900Y35747D01*
Y35247D01*
X13150Y34997D01*
X14150D01*
X14400Y35247D01*
Y34497D02*
Y33497D01*
Y33997D01*
X12900D01*
X14400Y32248D02*
Y32747D01*
X14150Y32997D01*
X13150D01*
X12900Y32747D01*
Y32248D01*
X13150Y31998D01*
X14150D01*
X14400Y32248D01*
X12900Y31498D02*
X14400D01*
Y30748D01*
X14150Y30498D01*
X13650D01*
X13400Y30748D01*
Y31498D01*
Y30998D02*
X12900Y30498D01*
X14150Y27499D02*
X14400Y27749D01*
Y28249D01*
X14150Y28499D01*
X13150D01*
X12900Y28249D01*
Y27749D01*
X13150Y27499D01*
X14400Y26250D02*
Y26749D01*
X14150Y26999D01*
X13150D01*
X12900Y26749D01*
Y26250D01*
X13150Y26000D01*
X14150D01*
X14400Y26250D01*
X12900Y25500D02*
X14400D01*
X12900Y24500D01*
X14400D01*
Y24000D02*
Y23001D01*
Y23500D01*
X12900D01*
Y22501D02*
X14400D01*
Y21751D01*
X14150Y21501D01*
X13650D01*
X13400Y21751D01*
Y22501D01*
Y22001D02*
X12900Y21501D01*
X14400Y20252D02*
Y20751D01*
X14150Y21001D01*
X13150D01*
X12900Y20751D01*
Y20252D01*
X13150Y20002D01*
X14150D01*
X14400Y20252D01*
Y19502D02*
X12900D01*
Y18502D01*
X14400Y18002D02*
X12900D01*
Y17003D01*
X14400Y15503D02*
Y16503D01*
X12900D01*
Y15503D01*
X13650Y16503D02*
Y16003D01*
X12900Y15003D02*
X14400D01*
Y14253D01*
X14150Y14004D01*
X13650D01*
X13400Y14253D01*
Y15003D01*
Y14503D02*
X12900Y14004D01*
X14150Y12504D02*
X14400Y12754D01*
Y13254D01*
X14150Y13504D01*
X13900D01*
X13650Y13254D01*
Y12754D01*
X13400Y12504D01*
X13150D01*
X12900Y12754D01*
Y13254D01*
X13150Y13504D01*
D46*
X4958Y39252D02*
Y39502D01*
X5708D01*
Y39252D01*
Y38377D02*
Y38877D01*
X5333D01*
Y38627D01*
Y38877D01*
X4958D01*
X5458Y38127D02*
X4958D01*
X5208D01*
X5333Y38002D01*
X5458Y37878D01*
Y37753D01*
X4958Y37253D02*
Y37003D01*
X5083Y36878D01*
X5333D01*
X5458Y37003D01*
Y37253D01*
X5333Y37378D01*
X5083D01*
X4958Y37253D01*
Y36628D02*
X5458D01*
Y36253D01*
X5333Y36128D01*
X4958D01*
X5583Y35753D02*
X5458D01*
Y35878D01*
Y35628D01*
Y35753D01*
X5083D01*
X4958Y35628D01*
Y35253D02*
Y35003D01*
X5708D01*
Y35253D01*
X92042Y15618D02*
Y15368D01*
X91292D01*
Y15618D01*
Y16493D02*
Y15993D01*
X91667D01*
Y16243D01*
Y15993D01*
X92042D01*
X91542Y16743D02*
X92042D01*
X91792D01*
X91667Y16868D01*
X91542Y16992D01*
Y17117D01*
X92042Y17617D02*
Y17867D01*
X91917Y17992D01*
X91667D01*
X91542Y17867D01*
Y17617D01*
X91667Y17492D01*
X91917D01*
X92042Y17617D01*
Y18242D02*
X91542D01*
Y18617D01*
X91667Y18742D01*
X92042D01*
X91417Y19117D02*
X91542D01*
Y18992D01*
Y19242D01*
Y19117D01*
X91917D01*
X92042Y19242D01*
Y19617D02*
Y19867D01*
X91292D01*
Y19617D01*
%TF.MD5,822ea344169465c5db69f6221d029a3e*%
M02*
