%TF.GenerationSoftware,Altium Limited,Altium Designer,25.2.1 (25)*%
G04 Layer_Color=255*
%FSLAX43Y43*%
%MOMM*%
%TF.SameCoordinates,3E8C3AF6-32D8-460F-991F-00D2D819B343*%
%TF.FilePolarity,Positive*%
%TF.FileFunction,Pads,Top*%
%TF.Part,Single*%
G01*
G75*
%TA.AperFunction,SMDPad,CuDef*%
G04:AMPARAMS|DCode=11|XSize=1.31mm|YSize=0.49mm|CornerRadius=0.061mm|HoleSize=0mm|Usage=FLASHONLY|Rotation=180.000|XOffset=0mm|YOffset=0mm|HoleType=Round|Shape=RoundedRectangle|*
%AMROUNDEDRECTD11*
21,1,1.310,0.368,0,0,180.0*
21,1,1.188,0.490,0,0,180.0*
1,1,0.123,-0.594,0.184*
1,1,0.123,0.594,0.184*
1,1,0.123,0.594,-0.184*
1,1,0.123,-0.594,-0.184*
%
%ADD11ROUNDEDRECTD11*%
%ADD12R,1.600X3.500*%
%ADD13R,1.250X0.600*%
%ADD14R,3.500X1.600*%
%ADD15R,0.700X0.650*%
G04:AMPARAMS|DCode=16|XSize=0.9mm|YSize=0.3mm|CornerRadius=0.075mm|HoleSize=0mm|Usage=FLASHONLY|Rotation=0.000|XOffset=0mm|YOffset=0mm|HoleType=Round|Shape=RoundedRectangle|*
%AMROUNDEDRECTD16*
21,1,0.900,0.150,0,0,0.0*
21,1,0.750,0.300,0,0,0.0*
1,1,0.150,0.375,-0.075*
1,1,0.150,-0.375,-0.075*
1,1,0.150,-0.375,0.075*
1,1,0.150,0.375,0.075*
%
%ADD16ROUNDEDRECTD16*%
%AMCUSTOMSHAPE17*
4,1,4,0.263,0.175,-0.263,0.175,-0.263,-0.175,0.263,-0.175,0.263,0.175,0.0*%
%ADD17CUSTOMSHAPE17*%

%AMCUSTOMSHAPE18*
4,1,5,0.225,-0.100,0.225,-0.450,-0.225,-0.450,-0.225,0.450,0.225,0.450,0.225,-0.100,0.0*%
%ADD18CUSTOMSHAPE18*%

%AMCUSTOMSHAPE19*
4,1,4,-0.263,0.175,0.263,0.175,0.263,-0.175,-0.263,-0.175,-0.263,0.175,0.0*%
%ADD19CUSTOMSHAPE19*%

%AMCUSTOMSHAPE20*
4,1,5,-0.225,-0.100,-0.225,-0.450,0.225,-0.450,0.225,0.450,-0.225,0.450,-0.225,-0.100,0.0*%
%ADD20CUSTOMSHAPE20*%

%TA.AperFunction,SMDPad,SMDef*%
%ADD21R,0.127X0.127*%
%TA.AperFunction,SMDPad,CuDef*%
G04:AMPARAMS|DCode=22|XSize=1.55mm|YSize=0.25mm|CornerRadius=0.063mm|HoleSize=0mm|Usage=FLASHONLY|Rotation=0.000|XOffset=0mm|YOffset=0mm|HoleType=Round|Shape=RoundedRectangle|*
%AMROUNDEDRECTD22*
21,1,1.550,0.125,0,0,0.0*
21,1,1.425,0.250,0,0,0.0*
1,1,0.125,0.713,-0.063*
1,1,0.125,-0.713,-0.063*
1,1,0.125,-0.713,0.063*
1,1,0.125,0.713,0.063*
%
%ADD22ROUNDEDRECTD22*%
%AMCUSTOMSHAPE23*
4,1,8,-0.200,0.188,-0.775,0.188,-0.774,0.438,0.775,0.438,0.775,0.188,0.250,0.188,0.250,-0.438,-0.200,-0.438,-0.200,0.188,0.0*%
%ADD23CUSTOMSHAPE23*%

%AMCUSTOMSHAPE24*
4,1,8,0.200,0.188,0.775,0.188,0.774,0.438,-0.775,0.438,-0.775,0.188,-0.250,0.188,-0.250,-0.438,0.200,-0.438,0.200,0.188,0.0*%
%ADD24CUSTOMSHAPE24*%

%AMCUSTOMSHAPE25*
4,1,4,-0.300,0.963,0.300,0.963,0.300,-0.963,-0.300,-0.963,-0.300,0.963,0.0*%
%ADD25CUSTOMSHAPE25*%

G04:AMPARAMS|DCode=26|XSize=0.9mm|YSize=0.3mm|CornerRadius=0.075mm|HoleSize=0mm|Usage=FLASHONLY|Rotation=90.000|XOffset=0mm|YOffset=0mm|HoleType=Round|Shape=RoundedRectangle|*
%AMROUNDEDRECTD26*
21,1,0.900,0.150,0,0,90.0*
21,1,0.750,0.300,0,0,90.0*
1,1,0.150,0.075,0.375*
1,1,0.150,0.075,-0.375*
1,1,0.150,-0.075,-0.375*
1,1,0.150,-0.075,0.375*
%
%ADD26ROUNDEDRECTD26*%
%ADD27R,0.650X0.700*%
%ADD28R,0.600X1.250*%
%ADD29R,2.500X3.200*%
%TA.AperFunction,ComponentPad*%
%ADD34C,1.725*%
%ADD35C,3.250*%
%ADD36C,2.000*%
%ADD37C,1.325*%
%ADD38C,2.400*%
%ADD39C,6.000*%
D11*
X36075Y77500D02*
D03*
X37925Y76850D02*
D03*
Y78150D02*
D03*
X36075Y81000D02*
D03*
X37925Y80350D02*
D03*
Y81650D02*
D03*
X36075Y74000D02*
D03*
X37925Y73350D02*
D03*
Y74650D02*
D03*
X36075Y70500D02*
D03*
X37925Y69850D02*
D03*
Y71150D02*
D03*
D12*
X79500Y50700D02*
D03*
Y56300D02*
D03*
Y42800D02*
D03*
Y37200D02*
D03*
Y27700D02*
D03*
Y33300D02*
D03*
Y65800D02*
D03*
Y60200D02*
D03*
X72250Y50700D02*
D03*
Y56300D02*
D03*
Y65800D02*
D03*
Y60200D02*
D03*
Y42800D02*
D03*
Y37200D02*
D03*
Y27700D02*
D03*
Y33300D02*
D03*
D13*
X91500Y8850D02*
D03*
Y10650D02*
D03*
D14*
X48700Y63000D02*
D03*
X54300D02*
D03*
X48700Y55500D02*
D03*
X54300D02*
D03*
X48700Y40000D02*
D03*
X54300D02*
D03*
X48700Y32500D02*
D03*
X54300D02*
D03*
D15*
X6800Y67163D02*
D03*
Y65813D02*
D03*
X30000Y74437D02*
D03*
Y73087D02*
D03*
X6800D02*
D03*
Y74437D02*
D03*
X30000Y67163D02*
D03*
Y65813D02*
D03*
X66750Y68675D02*
D03*
Y67325D02*
D03*
X58000D02*
D03*
Y68675D02*
D03*
X66750Y45675D02*
D03*
Y44325D02*
D03*
X58000D02*
D03*
Y45675D02*
D03*
D16*
X59388Y63950D02*
D03*
X62612D02*
D03*
Y63450D02*
D03*
X59388D02*
D03*
Y40950D02*
D03*
X62612D02*
D03*
Y40450D02*
D03*
X59388D02*
D03*
D17*
X62787Y64475D02*
D03*
Y41475D02*
D03*
D18*
X62300Y64750D02*
D03*
Y41750D02*
D03*
D19*
X59213Y64475D02*
D03*
Y41475D02*
D03*
D20*
X59700Y64750D02*
D03*
Y41750D02*
D03*
D21*
X62612Y63950D02*
D03*
Y63450D02*
D03*
Y40950D02*
D03*
Y40450D02*
D03*
D22*
X59701Y62950D02*
D03*
X62299D02*
D03*
Y62250D02*
D03*
X59701D02*
D03*
Y39950D02*
D03*
X62299D02*
D03*
Y39250D02*
D03*
X59701D02*
D03*
D23*
X62300Y61237D02*
D03*
Y38237D02*
D03*
D24*
X59700Y61237D02*
D03*
Y38237D02*
D03*
D25*
X61000Y61763D02*
D03*
Y38763D02*
D03*
D26*
X60750Y64737D02*
D03*
X61250Y64737D02*
D03*
X61750Y64736D02*
D03*
X60250Y64738D02*
D03*
X60750Y41737D02*
D03*
X61250Y41736D02*
D03*
X61750Y41736D02*
D03*
X60250Y41737D02*
D03*
D27*
X44175Y33250D02*
D03*
X42825D02*
D03*
X50325Y68500D02*
D03*
X51675D02*
D03*
X50325Y70000D02*
D03*
X51675D02*
D03*
X49325Y46000D02*
D03*
X50675D02*
D03*
X49325Y44500D02*
D03*
X50675D02*
D03*
D28*
X59850Y68000D02*
D03*
X61650D02*
D03*
X63100D02*
D03*
X64900D02*
D03*
X63100Y45000D02*
D03*
X64900D02*
D03*
X59850D02*
D03*
X61650D02*
D03*
D29*
X64950Y32500D02*
D03*
X59050D02*
D03*
X64950Y55500D02*
D03*
X59050D02*
D03*
D34*
X15540Y73000D02*
D03*
X13000D02*
D03*
X10460D02*
D03*
Y67250D02*
D03*
X13000D02*
D03*
X15540D02*
D03*
X21310D02*
D03*
X23850D02*
D03*
X26390D02*
D03*
Y73000D02*
D03*
X23850D02*
D03*
X21310D02*
D03*
D35*
X27100Y12490D02*
D03*
Y22650D02*
D03*
X37260Y12490D02*
D03*
Y22650D02*
D03*
X47420Y12490D02*
D03*
Y22650D02*
D03*
X57580Y12490D02*
D03*
Y22650D02*
D03*
X67740Y12490D02*
D03*
Y22650D02*
D03*
X77900Y12490D02*
D03*
Y22650D02*
D03*
D36*
X8000Y17460D02*
D03*
Y12380D02*
D03*
Y27540D02*
D03*
Y22460D02*
D03*
Y37620D02*
D03*
Y32540D02*
D03*
X43650Y79500D02*
D03*
X46190D02*
D03*
X48730D02*
D03*
X51270D02*
D03*
X53810D02*
D03*
X56350D02*
D03*
X89000Y57570D02*
D03*
Y62650D02*
D03*
Y47490D02*
D03*
Y52570D02*
D03*
Y37410D02*
D03*
Y42490D02*
D03*
Y27330D02*
D03*
Y32410D02*
D03*
Y22330D02*
D03*
Y17250D02*
D03*
D37*
X31000Y56955D02*
D03*
Y36045D02*
D03*
Y43045D02*
D03*
Y50045D02*
D03*
Y29045D02*
D03*
D38*
X24960Y55750D02*
D03*
Y58250D02*
D03*
X28460Y55750D02*
D03*
Y58250D02*
D03*
X33540Y55750D02*
D03*
Y58250D02*
D03*
X37040Y55750D02*
D03*
Y58250D02*
D03*
Y37250D02*
D03*
Y34750D02*
D03*
X33540Y37250D02*
D03*
Y34750D02*
D03*
X28460Y37250D02*
D03*
Y34750D02*
D03*
X24960Y37250D02*
D03*
Y34750D02*
D03*
X37040Y44250D02*
D03*
Y41750D02*
D03*
X33540Y44250D02*
D03*
Y41750D02*
D03*
X28460Y44250D02*
D03*
Y41750D02*
D03*
X24960Y44250D02*
D03*
Y41750D02*
D03*
X37040Y51250D02*
D03*
Y48750D02*
D03*
X33540Y51250D02*
D03*
Y48750D02*
D03*
X28460Y51250D02*
D03*
Y48750D02*
D03*
X24960Y51250D02*
D03*
Y48750D02*
D03*
X37040Y30250D02*
D03*
Y27750D02*
D03*
X33540Y30250D02*
D03*
Y27750D02*
D03*
X28460Y30250D02*
D03*
Y27750D02*
D03*
X24960Y30250D02*
D03*
Y27750D02*
D03*
D39*
X91500Y80500D02*
D03*
X4500D02*
D03*
X91500Y4500D02*
D03*
X4500D02*
D03*
%TF.MD5,53c8163371b5ae08f20cc960414151cf*%
M02*
