%TF.GenerationSoftware,Altium Limited,Altium Designer,25.2.1 (25)*%
G04 Layer_Color=16711935*
%FSLAX43Y43*%
%MOMM*%
%TF.SameCoordinates,3E8C3AF6-32D8-460F-991F-00D2D819B343*%
%TF.FilePolarity,Negative*%
%TF.FileFunction,Soldermask,Bot*%
%TF.Part,Single*%
G01*
G75*
%TA.AperFunction,ComponentPad*%
%ADD60C,1.875*%
%ADD61C,3.400*%
%ADD62C,2.150*%
%ADD63C,1.475*%
%ADD64C,2.550*%
%ADD65C,6.150*%
%TA.AperFunction,ViaPad*%
%ADD66C,0.850*%
D60*
X15540Y73000D02*
D03*
X13000D02*
D03*
X10460D02*
D03*
Y67250D02*
D03*
X13000D02*
D03*
X15540D02*
D03*
X21310D02*
D03*
X23850D02*
D03*
X26390D02*
D03*
Y73000D02*
D03*
X23850D02*
D03*
X21310D02*
D03*
D61*
X27100Y12490D02*
D03*
Y22650D02*
D03*
X37260Y12490D02*
D03*
Y22650D02*
D03*
X47420Y12490D02*
D03*
Y22650D02*
D03*
X57580Y12490D02*
D03*
Y22650D02*
D03*
X67740Y12490D02*
D03*
Y22650D02*
D03*
X77900Y12490D02*
D03*
Y22650D02*
D03*
D62*
X8000Y17460D02*
D03*
Y12380D02*
D03*
Y27540D02*
D03*
Y22460D02*
D03*
Y37620D02*
D03*
Y32540D02*
D03*
X43650Y79500D02*
D03*
X46190D02*
D03*
X48730D02*
D03*
X51270D02*
D03*
X53810D02*
D03*
X56350D02*
D03*
X89000Y57570D02*
D03*
Y62650D02*
D03*
Y47490D02*
D03*
Y52570D02*
D03*
Y37410D02*
D03*
Y42490D02*
D03*
Y27330D02*
D03*
Y32410D02*
D03*
Y22330D02*
D03*
Y17250D02*
D03*
D63*
X31000Y56955D02*
D03*
Y36045D02*
D03*
Y43045D02*
D03*
Y50045D02*
D03*
Y29045D02*
D03*
D64*
X24960Y55750D02*
D03*
Y58250D02*
D03*
X28460Y55750D02*
D03*
Y58250D02*
D03*
X33540Y55750D02*
D03*
Y58250D02*
D03*
X37040Y55750D02*
D03*
Y58250D02*
D03*
Y37250D02*
D03*
Y34750D02*
D03*
X33540Y37250D02*
D03*
Y34750D02*
D03*
X28460Y37250D02*
D03*
Y34750D02*
D03*
X24960Y37250D02*
D03*
Y34750D02*
D03*
X37040Y44250D02*
D03*
Y41750D02*
D03*
X33540Y44250D02*
D03*
Y41750D02*
D03*
X28460Y44250D02*
D03*
Y41750D02*
D03*
X24960Y44250D02*
D03*
Y41750D02*
D03*
X37040Y51250D02*
D03*
Y48750D02*
D03*
X33540Y51250D02*
D03*
Y48750D02*
D03*
X28460Y51250D02*
D03*
Y48750D02*
D03*
X24960Y51250D02*
D03*
Y48750D02*
D03*
X37040Y30250D02*
D03*
Y27750D02*
D03*
X33540Y30250D02*
D03*
Y27750D02*
D03*
X28460Y30250D02*
D03*
Y27750D02*
D03*
X24960Y30250D02*
D03*
Y27750D02*
D03*
D65*
X91500Y80500D02*
D03*
X4500D02*
D03*
X91500Y4500D02*
D03*
X4500D02*
D03*
D66*
X29600Y60600D02*
D03*
X27600D02*
D03*
X26600Y58600D02*
D03*
Y54600D02*
D03*
X24600Y70600D02*
D03*
Y62600D02*
D03*
X25600Y60600D02*
D03*
X23600Y68600D02*
D03*
X22600Y62600D02*
D03*
X23600Y60600D02*
D03*
X22600Y58600D02*
D03*
Y54600D02*
D03*
X20600Y62600D02*
D03*
X21600Y60600D02*
D03*
Y56600D02*
D03*
X20600Y54600D02*
D03*
X18600Y62600D02*
D03*
X16600D02*
D03*
X17600Y60600D02*
D03*
X16600Y58600D02*
D03*
X17600Y56600D02*
D03*
X16600Y54600D02*
D03*
X14600Y62600D02*
D03*
X15600Y60600D02*
D03*
X14600Y58600D02*
D03*
X15600Y56600D02*
D03*
X14600Y54600D02*
D03*
X12600Y70600D02*
D03*
X13600Y68600D02*
D03*
X12600Y62600D02*
D03*
X13600Y60600D02*
D03*
X12600Y58600D02*
D03*
X13600Y56600D02*
D03*
X12600Y54600D02*
D03*
X55000Y66750D02*
D03*
X36500Y63500D02*
D03*
Y66000D02*
D03*
X91500Y11750D02*
D03*
X48250Y46000D02*
D03*
X48700Y60550D02*
D03*
Y57950D02*
D03*
X58000Y46750D02*
D03*
X59700Y61237D02*
D03*
X62300D02*
D03*
X58000Y69750D02*
D03*
X48700Y34950D02*
D03*
Y37550D02*
D03*
X77050Y27700D02*
D03*
X74700D02*
D03*
X72250Y45250D02*
D03*
X79500D02*
D03*
Y48250D02*
D03*
X72250D02*
D03*
X79500Y68250D02*
D03*
X72250D02*
D03*
X66750Y69750D02*
D03*
X60500Y63750D02*
D03*
X58000Y66250D02*
D03*
Y43250D02*
D03*
X60500Y40750D02*
D03*
X31750Y74500D02*
D03*
Y67250D02*
D03*
X8500Y65750D02*
D03*
X35170Y72750D02*
D03*
X38830Y71750D02*
D03*
Y75250D02*
D03*
Y82250D02*
D03*
Y78750D02*
D03*
X81600Y60600D02*
D03*
X80600Y58600D02*
D03*
X81600Y56600D02*
D03*
X80600Y54600D02*
D03*
X79600Y60600D02*
D03*
X78600Y58600D02*
D03*
X79600Y56600D02*
D03*
X78600Y54600D02*
D03*
X77600Y72600D02*
D03*
X76600Y70600D02*
D03*
X77600Y68600D02*
D03*
X76600Y66600D02*
D03*
X77600Y64600D02*
D03*
X76600Y62600D02*
D03*
X77600Y60600D02*
D03*
X76600Y58600D02*
D03*
X77600Y56600D02*
D03*
X76600Y54600D02*
D03*
X75600Y72600D02*
D03*
X74600Y70600D02*
D03*
X75600Y68600D02*
D03*
X74600Y66600D02*
D03*
X75600Y64600D02*
D03*
X74600Y62600D02*
D03*
X75600Y60600D02*
D03*
X74600Y58600D02*
D03*
X75600Y56600D02*
D03*
X74600Y54600D02*
D03*
X73600Y72600D02*
D03*
Y60600D02*
D03*
X72600Y58600D02*
D03*
X73600Y56600D02*
D03*
X72600Y54600D02*
D03*
X71600Y72600D02*
D03*
Y60600D02*
D03*
X70600Y58600D02*
D03*
X71600Y56600D02*
D03*
X70600Y54600D02*
D03*
X69600Y72600D02*
D03*
Y60600D02*
D03*
Y56600D02*
D03*
X68600Y54600D02*
D03*
X67600Y72600D02*
D03*
Y56600D02*
D03*
X66600Y54600D02*
D03*
X65600Y72600D02*
D03*
Y56600D02*
D03*
X64600Y54600D02*
D03*
X63600Y72600D02*
D03*
Y56600D02*
D03*
X61600Y72600D02*
D03*
X59600D02*
D03*
X57600D02*
D03*
X55600D02*
D03*
X53600D02*
D03*
X51600D02*
D03*
X49600D02*
D03*
X47600D02*
D03*
X45600D02*
D03*
X44600Y70600D02*
D03*
Y66600D02*
D03*
Y62600D02*
D03*
Y58600D02*
D03*
Y54600D02*
D03*
X43600Y72600D02*
D03*
X42600Y70600D02*
D03*
X43600Y68600D02*
D03*
X42600Y66600D02*
D03*
X43600Y64600D02*
D03*
X42600Y62600D02*
D03*
X43600Y60600D02*
D03*
X42600Y58600D02*
D03*
X43600Y56600D02*
D03*
X42600Y54600D02*
D03*
X41600Y72600D02*
D03*
Y68600D02*
D03*
Y64600D02*
D03*
Y60600D02*
D03*
X40600Y58600D02*
D03*
X41600Y56600D02*
D03*
X40600Y54600D02*
D03*
X39600Y56600D02*
D03*
X38600Y54600D02*
D03*
X35600Y56600D02*
D03*
X60100Y60100D02*
D03*
X60850Y58600D02*
D03*
X60100Y57100D02*
D03*
X60850Y55600D02*
D03*
X58600Y60100D02*
D03*
X59350Y58600D02*
D03*
X58600Y57100D02*
D03*
X61000Y61763D02*
D03*
X60850Y36100D02*
D03*
X60100Y34600D02*
D03*
X60850Y33100D02*
D03*
X58600Y37600D02*
D03*
X59350Y36100D02*
D03*
X58600Y34600D02*
D03*
X90600Y56600D02*
D03*
Y48600D02*
D03*
X91600Y46600D02*
D03*
Y38600D02*
D03*
X90600Y36600D02*
D03*
Y28600D02*
D03*
X91600Y26600D02*
D03*
X90600Y16600D02*
D03*
X89600Y18600D02*
D03*
X86600Y56600D02*
D03*
Y52600D02*
D03*
Y48600D02*
D03*
X87600Y46600D02*
D03*
X86600Y44600D02*
D03*
Y40600D02*
D03*
X87600Y38600D02*
D03*
X86600Y36600D02*
D03*
Y32600D02*
D03*
Y28600D02*
D03*
X87600Y26600D02*
D03*
X86600Y24600D02*
D03*
Y20600D02*
D03*
X87600Y18600D02*
D03*
X86600Y16600D02*
D03*
X84600Y56600D02*
D03*
X85600Y54600D02*
D03*
X84600Y52600D02*
D03*
X85600Y50600D02*
D03*
X84600Y48600D02*
D03*
X85600Y46600D02*
D03*
X84600Y44600D02*
D03*
X85600Y42600D02*
D03*
X84600Y40600D02*
D03*
X85600Y38600D02*
D03*
X84600Y36600D02*
D03*
X85600Y34600D02*
D03*
X84600Y32600D02*
D03*
X85600Y30600D02*
D03*
X84600Y28600D02*
D03*
X85600Y26600D02*
D03*
X84600Y24600D02*
D03*
X85600Y22600D02*
D03*
X84600Y20600D02*
D03*
X85600Y18600D02*
D03*
X84600Y16600D02*
D03*
X83600Y50600D02*
D03*
Y46600D02*
D03*
Y42600D02*
D03*
Y38600D02*
D03*
X82600Y36600D02*
D03*
X83600Y34600D02*
D03*
X82600Y32600D02*
D03*
X83600Y26600D02*
D03*
Y22600D02*
D03*
Y18600D02*
D03*
X81600Y38600D02*
D03*
Y34600D02*
D03*
Y30600D02*
D03*
X79600D02*
D03*
X77600Y38600D02*
D03*
X76600Y36600D02*
D03*
X77600Y34600D02*
D03*
X76600Y32600D02*
D03*
X77600Y30600D02*
D03*
X75600Y38600D02*
D03*
X74600Y36600D02*
D03*
X75600Y34600D02*
D03*
X74600Y32600D02*
D03*
X75600Y30600D02*
D03*
X73600Y38600D02*
D03*
Y30600D02*
D03*
X70600Y36600D02*
D03*
Y32600D02*
D03*
X71600Y30600D02*
D03*
X69600Y38600D02*
D03*
Y34600D02*
D03*
X68600Y32600D02*
D03*
X69600Y30600D02*
D03*
X67600Y34600D02*
D03*
X66600Y32600D02*
D03*
X67600Y30600D02*
D03*
X65600Y34600D02*
D03*
Y30600D02*
D03*
X61000Y38763D02*
D03*
X62300Y38237D02*
D03*
X59700D02*
D03*
%TF.MD5,3ab7e89360566ab76c8a7fe9bd0a5c38*%
M02*
