%TF.GenerationSoftware,Altium Limited,Altium Designer,25.2.1 (25)*%
G04 Layer_Color=0*
%FSLAX43Y43*%
%MOMM*%
%TF.SameCoordinates,D3577A82-B172-4AAC-A9F5-C134510085F9*%
%TF.FilePolarity,Positive*%
%TF.FileFunction,Plated,1,4,PTH,Drill*%
%TF.Part,Single*%
G01*
G75*
%TA.AperFunction,ComponentDrill*%
%ADD57C,3.500*%
%ADD58C,0.900*%
%ADD59C,3.200*%
%ADD60C,0.750*%
%ADD61C,1.750*%
%ADD62C,1.500*%
%ADD63C,1.150*%
%TA.AperFunction,ViaDrill,NotFilled*%
%ADD64C,0.300*%
D57*
X45500Y4500D02*
D03*
X4500D02*
D03*
X45500Y45500D02*
D03*
X4500D02*
D03*
D58*
X16110Y33190D02*
D03*
X33890D02*
D03*
X31350D02*
D03*
X28810D02*
D03*
X26270D02*
D03*
X23730D02*
D03*
X21190D02*
D03*
X18650D02*
D03*
X33890Y40810D02*
D03*
X31350D02*
D03*
X28810D02*
D03*
X26270D02*
D03*
X23730D02*
D03*
X21190D02*
D03*
X18650D02*
D03*
X16110D02*
D03*
D59*
X37500Y45395D02*
D03*
X12500D02*
D03*
X25000Y82795D02*
D03*
D60*
X43735Y21400D02*
D03*
X43670Y28600D02*
D03*
D61*
X46785Y29320D02*
D03*
Y20680D02*
D03*
D62*
X41735Y29320D02*
D03*
Y20680D02*
D03*
D63*
X26270Y5000D02*
D03*
X23730D02*
D03*
D64*
X36500Y21500D02*
D03*
X22575Y25715D02*
D03*
X13250Y27000D02*
D03*
Y21000D02*
D03*
X4500Y13500D02*
D03*
X13250Y24000D02*
D03*
X39500Y13750D02*
D03*
Y28000D02*
D03*
X47000Y23500D02*
D03*
X39500Y26750D02*
D03*
X44000Y22750D02*
D03*
X44750Y33500D02*
D03*
Y16500D02*
D03*
X44000Y24250D02*
D03*
X36500Y24250D02*
D03*
Y23250D02*
D03*
X44000Y25250D02*
D03*
X39500Y24500D02*
D03*
Y25500D02*
D03*
X27250Y29500D02*
D03*
X22500Y14250D02*
D03*
X43750Y10000D02*
D03*
X41500D02*
D03*
X35250Y13750D02*
D03*
Y12750D02*
D03*
X38500Y10000D02*
D03*
X36500D02*
D03*
%TF.MD5,35057080a1acbb111fd8ac0e3b3d61a7*%
M02*
