%TF.GenerationSoftware,Altium Limited,Altium Designer,25.2.1 (25)*%
G04 Layer_Physical_Order=3*
G04 Layer_Color=16440176*
%FSLAX43Y43*%
%MOMM*%
%TF.SameCoordinates,D3577A82-B172-4AAC-A9F5-C134510085F9*%
%TF.FilePolarity,Positive*%
%TF.FileFunction,Copper,L3,Inr,Signal*%
%TF.Part,Single*%
G01*
G75*
%TA.AperFunction,ComponentPad*%
%ADD25C,6.000*%
%ADD26C,1.400*%
%ADD27C,5.000*%
%ADD28C,1.250*%
%ADD29C,2.750*%
%ADD30C,2.250*%
%ADD31C,1.725*%
%TA.AperFunction,ViaPad*%
%ADD32C,0.700*%
G36*
X46141Y49549D02*
X46767Y49399D01*
X47361Y49153D01*
X47910Y48817D01*
X48399Y48399D01*
X48817Y47910D01*
X49153Y47361D01*
X49399Y46767D01*
X49549Y46141D01*
X49598Y45528D01*
X49592Y45500D01*
Y4500D01*
X49598Y4472D01*
X49549Y3859D01*
X49399Y3233D01*
X49153Y2639D01*
X48817Y2090D01*
X48399Y1601D01*
X47910Y1183D01*
X47361Y847D01*
X46767Y601D01*
X46141Y451D01*
X45528Y402D01*
X45500Y408D01*
X42000D01*
Y9393D01*
Y9581D01*
X42020Y9601D01*
X42106Y9749D01*
X42150Y9914D01*
Y10086D01*
X42106Y10251D01*
X42020Y10399D01*
X42000Y10419D01*
Y19379D01*
X42246Y19445D01*
X42549Y19620D01*
X42566Y19637D01*
X42400Y19802D01*
X42612Y20015D01*
X42778Y19849D01*
X42795Y19866D01*
X42970Y20169D01*
X43060Y20506D01*
Y20729D01*
X43187Y20781D01*
X43228Y20740D01*
X43417Y20631D01*
X43626Y20575D01*
X43844D01*
X44053Y20631D01*
X44204Y20718D01*
X44041Y20882D01*
X44253Y21094D01*
X44417Y20931D01*
X44504Y21082D01*
X44560Y21291D01*
Y21509D01*
X44504Y21718D01*
X44395Y21907D01*
X44281Y22021D01*
X44275Y22045D01*
X44288Y22149D01*
X44300Y22173D01*
X44399Y22230D01*
X44520Y22351D01*
X44606Y22499D01*
X44650Y22664D01*
Y22836D01*
X44606Y23001D01*
X44520Y23149D01*
X44399Y23270D01*
X44251Y23356D01*
X44086Y23400D01*
X43914D01*
X43749Y23356D01*
X43601Y23270D01*
X43480Y23149D01*
X43394Y23001D01*
X43350Y22836D01*
Y22664D01*
X43394Y22499D01*
X43480Y22351D01*
X43506Y22324D01*
X43468Y22183D01*
X43417Y22169D01*
X43266Y22082D01*
X43429Y21918D01*
X43217Y21706D01*
X43053Y21869D01*
X42966Y21718D01*
X42917Y21536D01*
X42834Y21507D01*
X42783Y21506D01*
X42778Y21511D01*
X42612Y21345D01*
X42400Y21558D01*
X42566Y21723D01*
X42549Y21740D01*
X42246Y21915D01*
X42000Y21981D01*
Y28019D01*
X42246Y28085D01*
X42549Y28260D01*
X42728Y28439D01*
X42869Y28401D01*
X42901Y28282D01*
X42988Y28131D01*
X43152Y28294D01*
X43364Y28082D01*
X43201Y27918D01*
X43352Y27831D01*
X43561Y27775D01*
X43779D01*
X43988Y27831D01*
X44139Y27918D01*
X43976Y28082D01*
X44188Y28294D01*
X44352Y28131D01*
X44439Y28282D01*
X44495Y28491D01*
Y28709D01*
X44439Y28918D01*
X44352Y29069D01*
X44188Y28906D01*
X43976Y29118D01*
X44139Y29282D01*
X43988Y29369D01*
X43779Y29425D01*
X43561D01*
X43352Y29369D01*
X43187Y29274D01*
X43060Y29318D01*
Y29494D01*
X42970Y29831D01*
X42795Y30134D01*
X42778Y30151D01*
X42612Y29985D01*
X42400Y30198D01*
X42566Y30363D01*
X42549Y30380D01*
X42246Y30555D01*
X42000Y30621D01*
Y43000D01*
X39265D01*
X39233Y43027D01*
X39188Y43107D01*
X39187Y43127D01*
X39211Y43177D01*
X39324Y43259D01*
X39636Y43571D01*
X39895Y43927D01*
X40095Y44320D01*
X40231Y44739D01*
X40300Y45175D01*
Y45615D01*
X40231Y46051D01*
X40095Y46470D01*
X39895Y46863D01*
X39636Y47219D01*
X39324Y47531D01*
X38968Y47790D01*
X38575Y47990D01*
X38156Y48126D01*
X37720Y48195D01*
X37280D01*
X36844Y48126D01*
X36425Y47990D01*
X36032Y47790D01*
X35676Y47531D01*
X35364Y47219D01*
X35105Y46863D01*
X34905Y46470D01*
X34769Y46051D01*
X34700Y45615D01*
Y45175D01*
X34769Y44739D01*
X34905Y44320D01*
X35105Y43927D01*
X35364Y43571D01*
X35676Y43259D01*
X35789Y43177D01*
X35813Y43127D01*
X35812Y43107D01*
X35767Y43027D01*
X35735Y43000D01*
X14265D01*
X14233Y43027D01*
X14188Y43107D01*
X14186Y43127D01*
X14210Y43177D01*
X14324Y43259D01*
X14635Y43571D01*
X14894Y43927D01*
X15095Y44320D01*
X15231Y44739D01*
X15300Y45175D01*
Y45615D01*
X15231Y46051D01*
X15095Y46470D01*
X14894Y46863D01*
X14635Y47219D01*
X14324Y47531D01*
X13967Y47790D01*
X13575Y47990D01*
X13155Y48126D01*
X12720Y48195D01*
X12279D01*
X11844Y48126D01*
X11425Y47990D01*
X11032Y47790D01*
X10676Y47531D01*
X10364Y47219D01*
X10105Y46863D01*
X9905Y46470D01*
X9769Y46051D01*
X9700Y45615D01*
Y45175D01*
X9769Y44739D01*
X9905Y44320D01*
X10105Y43927D01*
X10364Y43571D01*
X10676Y43259D01*
X10789Y43177D01*
X10813Y43127D01*
X10811Y43107D01*
X10767Y43027D01*
X10735Y43000D01*
X8000D01*
Y42694D01*
Y408D01*
X4500D01*
X4472Y402D01*
X3859Y451D01*
X3233Y601D01*
X2639Y847D01*
X2090Y1183D01*
X1601Y1601D01*
X1183Y2090D01*
X847Y2639D01*
X601Y3233D01*
X451Y3859D01*
X402Y4472D01*
X408Y4500D01*
Y45500D01*
X402Y45528D01*
X451Y46141D01*
X601Y46767D01*
X847Y47361D01*
X1183Y47910D01*
X1601Y48399D01*
X2090Y48817D01*
X2639Y49153D01*
X3233Y49399D01*
X3859Y49549D01*
X4472Y49598D01*
X4500Y49592D01*
X45500D01*
X45528Y49598D01*
X46141Y49549D01*
D02*
G37*
G36*
X36425Y42800D02*
X36844Y42664D01*
X37280Y42595D01*
X37720D01*
X38156Y42664D01*
X38575Y42800D01*
X38781Y42905D01*
X38901Y42883D01*
X38927Y42843D01*
X38951Y42801D01*
X38960Y42794D01*
X38967Y42784D01*
X39007Y42757D01*
X39044Y42727D01*
X39056Y42724D01*
X39066Y42717D01*
X39113Y42708D01*
X39159Y42695D01*
X39171Y42696D01*
X39183Y42694D01*
X41694D01*
Y30745D01*
X41547D01*
X41185Y30648D01*
X40860Y30460D01*
X40595Y30195D01*
X40407Y29870D01*
X40310Y29508D01*
Y29132D01*
X40407Y28770D01*
X40595Y28445D01*
X40860Y28180D01*
X41185Y27992D01*
X41547Y27895D01*
X41694D01*
Y22105D01*
X41547D01*
X41185Y22008D01*
X40860Y21820D01*
X40595Y21555D01*
X40407Y21230D01*
X40310Y20868D01*
Y20492D01*
X40407Y20130D01*
X40595Y19805D01*
X40860Y19540D01*
X41185Y19352D01*
X41547Y19255D01*
X41694D01*
Y10607D01*
X41609Y10550D01*
X41391D01*
X41229Y10483D01*
X41399Y10313D01*
X41187Y10101D01*
X41017Y10271D01*
X40950Y10109D01*
Y9891D01*
X41017Y9729D01*
X41187Y9899D01*
X41399Y9687D01*
X41229Y9517D01*
X41391Y9450D01*
X41609D01*
X41694Y9393D01*
Y408D01*
X8306D01*
Y42694D01*
X10816D01*
X10828Y42696D01*
X10840Y42695D01*
X10886Y42708D01*
X10933Y42717D01*
X10944Y42724D01*
X10955Y42727D01*
X10993Y42757D01*
X11033Y42784D01*
X11039Y42794D01*
X11049Y42801D01*
X11072Y42843D01*
X11099Y42883D01*
X11219Y42905D01*
X11425Y42800D01*
X11844Y42664D01*
X12279Y42595D01*
X12720D01*
X13155Y42664D01*
X13575Y42800D01*
X13780Y42905D01*
X13900Y42883D01*
X13927Y42843D01*
X13950Y42801D01*
X13960Y42794D01*
X13967Y42784D01*
X14006Y42757D01*
X14044Y42727D01*
X14056Y42724D01*
X14066Y42717D01*
X14113Y42708D01*
X14159Y42695D01*
X14171Y42696D01*
X14183Y42694D01*
X35817D01*
X35829Y42696D01*
X35841Y42695D01*
X35887Y42708D01*
X35934Y42717D01*
X35944Y42724D01*
X35956Y42727D01*
X35993Y42757D01*
X36033Y42784D01*
X36040Y42794D01*
X36049Y42801D01*
X36073Y42843D01*
X36099Y42883D01*
X36219Y42905D01*
X36425Y42800D01*
D02*
G37*
%LPC*%
G36*
X45752Y48700D02*
X45248D01*
X44751Y48621D01*
X44272Y48466D01*
X43823Y48237D01*
X43415Y47941D01*
X43343Y47869D01*
X43504Y47708D01*
X43292Y47496D01*
X43131Y47657D01*
X43059Y47585D01*
X42763Y47177D01*
X42534Y46728D01*
X42379Y46249D01*
X42300Y45752D01*
Y45248D01*
X42379Y44751D01*
X42534Y44272D01*
X42763Y43823D01*
X43059Y43415D01*
X43131Y43343D01*
X43292Y43504D01*
X43504Y43292D01*
X43343Y43131D01*
X43415Y43059D01*
X43823Y42763D01*
X44272Y42534D01*
X44751Y42379D01*
X45248Y42300D01*
X45752D01*
X46249Y42379D01*
X46728Y42534D01*
X47177Y42763D01*
X47585Y43059D01*
X47657Y43131D01*
X47496Y43292D01*
X47708Y43504D01*
X47869Y43343D01*
X47941Y43415D01*
X48237Y43823D01*
X48466Y44272D01*
X48621Y44751D01*
X48700Y45248D01*
Y45752D01*
X48621Y46249D01*
X48466Y46728D01*
X48237Y47177D01*
X47941Y47585D01*
X47869Y47657D01*
X47708Y47496D01*
X47496Y47708D01*
X47657Y47869D01*
X47585Y47941D01*
X47177Y48237D01*
X46728Y48466D01*
X46249Y48621D01*
X45752Y48700D01*
D02*
G37*
G36*
X4752D02*
X4248D01*
X3751Y48621D01*
X3272Y48466D01*
X2823Y48237D01*
X2415Y47941D01*
X2343Y47869D01*
X2504Y47708D01*
X2292Y47496D01*
X2131Y47657D01*
X2059Y47585D01*
X1763Y47177D01*
X1534Y46728D01*
X1379Y46249D01*
X1300Y45752D01*
Y45248D01*
X1379Y44751D01*
X1534Y44272D01*
X1763Y43823D01*
X2059Y43415D01*
X2131Y43343D01*
X2292Y43504D01*
X2504Y43292D01*
X2343Y43131D01*
X2415Y43059D01*
X2823Y42763D01*
X3272Y42534D01*
X3751Y42379D01*
X4248Y42300D01*
X4752D01*
X5249Y42379D01*
X5728Y42534D01*
X6177Y42763D01*
X6585Y43059D01*
X6657Y43131D01*
X6496Y43292D01*
X6708Y43504D01*
X6869Y43343D01*
X6941Y43415D01*
X7237Y43823D01*
X7466Y44272D01*
X7621Y44751D01*
X7700Y45248D01*
Y45752D01*
X7621Y46249D01*
X7466Y46728D01*
X7237Y47177D01*
X6941Y47585D01*
X6869Y47657D01*
X6708Y47496D01*
X6496Y47708D01*
X6657Y47869D01*
X6585Y47941D01*
X6177Y48237D01*
X5728Y48466D01*
X5249Y48621D01*
X4752Y48700D01*
D02*
G37*
G36*
X44836Y34150D02*
X44664D01*
X44499Y34106D01*
X44351Y34020D01*
X44230Y33899D01*
X44144Y33751D01*
X44100Y33586D01*
Y33414D01*
X44144Y33249D01*
X44230Y33101D01*
X44351Y32980D01*
X44499Y32894D01*
X44664Y32850D01*
X44836D01*
X45001Y32894D01*
X45149Y32980D01*
X45270Y33101D01*
X45356Y33249D01*
X45400Y33414D01*
Y33586D01*
X45356Y33751D01*
X45270Y33899D01*
X45149Y34020D01*
X45001Y34106D01*
X44836Y34150D01*
D02*
G37*
G36*
X46940Y30895D02*
X46630D01*
X46326Y30834D01*
X46039Y30716D01*
X45781Y30543D01*
X45777Y30540D01*
X45942Y30376D01*
X45729Y30163D01*
X45565Y30328D01*
X45562Y30324D01*
X45389Y30066D01*
X45271Y29779D01*
X45210Y29475D01*
Y29165D01*
X45271Y28861D01*
X45389Y28574D01*
X45562Y28316D01*
X45565Y28312D01*
X45729Y28477D01*
X45942Y28264D01*
X45777Y28100D01*
X45781Y28097D01*
X46039Y27924D01*
X46326Y27806D01*
X46630Y27745D01*
X46940D01*
X47244Y27806D01*
X47531Y27924D01*
X47789Y28097D01*
X47793Y28100D01*
X47628Y28264D01*
X47841Y28477D01*
X48005Y28312D01*
X48008Y28316D01*
X48181Y28574D01*
X48299Y28861D01*
X48360Y29165D01*
Y29475D01*
X48299Y29779D01*
X48181Y30066D01*
X48008Y30324D01*
X48005Y30328D01*
X47841Y30163D01*
X47628Y30376D01*
X47793Y30540D01*
X47789Y30543D01*
X47531Y30716D01*
X47244Y30834D01*
X46940Y30895D01*
D02*
G37*
G36*
X44086Y25900D02*
X43914D01*
X43749Y25856D01*
X43601Y25770D01*
X43480Y25649D01*
X43394Y25501D01*
X43350Y25336D01*
Y25164D01*
X43394Y24999D01*
X43480Y24851D01*
X43581Y24750D01*
X43480Y24649D01*
X43394Y24501D01*
X43350Y24336D01*
Y24164D01*
X43394Y23999D01*
X43480Y23851D01*
X43601Y23730D01*
X43749Y23644D01*
X43914Y23600D01*
X44086D01*
X44251Y23644D01*
X44399Y23730D01*
X44520Y23851D01*
X44606Y23999D01*
X44650Y24164D01*
Y24336D01*
X44606Y24501D01*
X44520Y24649D01*
X44419Y24750D01*
X44520Y24851D01*
X44606Y24999D01*
X44650Y25164D01*
Y25336D01*
X44606Y25501D01*
X44520Y25649D01*
X44399Y25770D01*
X44251Y25856D01*
X44086Y25900D01*
D02*
G37*
G36*
X47086Y24150D02*
X46914D01*
X46749Y24106D01*
X46601Y24020D01*
X46480Y23899D01*
X46394Y23751D01*
X46350Y23586D01*
Y23414D01*
X46394Y23249D01*
X46480Y23101D01*
X46601Y22980D01*
X46749Y22894D01*
X46914Y22850D01*
X47086D01*
X47251Y22894D01*
X47399Y22980D01*
X47520Y23101D01*
X47606Y23249D01*
X47650Y23414D01*
Y23586D01*
X47606Y23751D01*
X47520Y23899D01*
X47399Y24020D01*
X47251Y24106D01*
X47086Y24150D01*
D02*
G37*
G36*
X46940Y22255D02*
X46630D01*
X46326Y22194D01*
X46039Y22076D01*
X45781Y21903D01*
X45777Y21900D01*
X45942Y21736D01*
X45729Y21523D01*
X45565Y21688D01*
X45562Y21684D01*
X45389Y21426D01*
X45271Y21139D01*
X45210Y20835D01*
Y20525D01*
X45271Y20221D01*
X45389Y19934D01*
X45562Y19676D01*
X45565Y19672D01*
X45729Y19837D01*
X45942Y19624D01*
X45777Y19460D01*
X45781Y19457D01*
X46039Y19284D01*
X46326Y19166D01*
X46630Y19105D01*
X46940D01*
X47244Y19166D01*
X47531Y19284D01*
X47789Y19457D01*
X47793Y19460D01*
X47628Y19624D01*
X47841Y19837D01*
X48005Y19672D01*
X48008Y19676D01*
X48181Y19934D01*
X48299Y20221D01*
X48360Y20525D01*
Y20835D01*
X48299Y21139D01*
X48181Y21426D01*
X48008Y21684D01*
X48005Y21688D01*
X47841Y21523D01*
X47628Y21736D01*
X47793Y21900D01*
X47789Y21903D01*
X47531Y22076D01*
X47244Y22194D01*
X46940Y22255D01*
D02*
G37*
G36*
X44836Y17150D02*
X44664D01*
X44499Y17106D01*
X44351Y17020D01*
X44230Y16899D01*
X44144Y16751D01*
X44100Y16586D01*
Y16414D01*
X44144Y16249D01*
X44230Y16101D01*
X44351Y15980D01*
X44499Y15894D01*
X44664Y15850D01*
X44836D01*
X45001Y15894D01*
X45149Y15980D01*
X45270Y16101D01*
X45356Y16249D01*
X45400Y16414D01*
Y16586D01*
X45356Y16751D01*
X45270Y16899D01*
X45149Y17020D01*
X45001Y17106D01*
X44836Y17150D01*
D02*
G37*
G36*
X4586Y14150D02*
X4414D01*
X4249Y14106D01*
X4101Y14020D01*
X3980Y13899D01*
X3894Y13751D01*
X3850Y13586D01*
Y13414D01*
X3894Y13249D01*
X3980Y13101D01*
X4101Y12980D01*
X4249Y12894D01*
X4414Y12850D01*
X4586D01*
X4751Y12894D01*
X4899Y12980D01*
X5020Y13101D01*
X5106Y13249D01*
X5150Y13414D01*
Y13586D01*
X5106Y13751D01*
X5020Y13899D01*
X4899Y14020D01*
X4751Y14106D01*
X4586Y14150D01*
D02*
G37*
G36*
X43836Y10650D02*
X43664D01*
X43499Y10606D01*
X43351Y10520D01*
X43230Y10399D01*
X43144Y10251D01*
X43100Y10086D01*
Y9914D01*
X43144Y9749D01*
X43230Y9601D01*
X43351Y9480D01*
X43499Y9394D01*
X43664Y9350D01*
X43836D01*
X44001Y9394D01*
X44149Y9480D01*
X44270Y9601D01*
X44356Y9749D01*
X44400Y9914D01*
Y10086D01*
X44356Y10251D01*
X44270Y10399D01*
X44149Y10520D01*
X44001Y10606D01*
X43836Y10650D01*
D02*
G37*
G36*
X45752Y7700D02*
X45248D01*
X44751Y7621D01*
X44272Y7466D01*
X43823Y7237D01*
X43415Y6941D01*
X43343Y6869D01*
X43504Y6708D01*
X43292Y6496D01*
X43131Y6657D01*
X43059Y6585D01*
X42763Y6177D01*
X42534Y5728D01*
X42379Y5249D01*
X42300Y4752D01*
Y4248D01*
X42379Y3751D01*
X42534Y3272D01*
X42763Y2823D01*
X43059Y2415D01*
X43131Y2343D01*
X43292Y2504D01*
X43504Y2292D01*
X43343Y2131D01*
X43415Y2059D01*
X43823Y1763D01*
X44272Y1534D01*
X44751Y1379D01*
X45248Y1300D01*
X45752D01*
X46249Y1379D01*
X46728Y1534D01*
X47177Y1763D01*
X47585Y2059D01*
X47657Y2131D01*
X47496Y2292D01*
X47708Y2504D01*
X47869Y2343D01*
X47941Y2415D01*
X48237Y2823D01*
X48466Y3272D01*
X48621Y3751D01*
X48700Y4248D01*
Y4752D01*
X48621Y5249D01*
X48466Y5728D01*
X48237Y6177D01*
X47941Y6585D01*
X47869Y6657D01*
X47708Y6496D01*
X47496Y6708D01*
X47657Y6869D01*
X47585Y6941D01*
X47177Y7237D01*
X46728Y7466D01*
X46249Y7621D01*
X45752Y7700D01*
D02*
G37*
G36*
X4752D02*
X4248D01*
X3751Y7621D01*
X3272Y7466D01*
X2823Y7237D01*
X2415Y6941D01*
X2343Y6869D01*
X2504Y6708D01*
X2292Y6496D01*
X2131Y6657D01*
X2059Y6585D01*
X1763Y6177D01*
X1534Y5728D01*
X1379Y5249D01*
X1300Y4752D01*
Y4248D01*
X1379Y3751D01*
X1534Y3272D01*
X1763Y2823D01*
X2059Y2415D01*
X2131Y2343D01*
X2292Y2504D01*
X2504Y2292D01*
X2343Y2131D01*
X2415Y2059D01*
X2823Y1763D01*
X3272Y1534D01*
X3751Y1379D01*
X4248Y1300D01*
X4752D01*
X5249Y1379D01*
X5728Y1534D01*
X6177Y1763D01*
X6585Y2059D01*
X6657Y2131D01*
X6496Y2292D01*
X6708Y2504D01*
X6869Y2343D01*
X6941Y2415D01*
X7237Y2823D01*
X7466Y3272D01*
X7621Y3751D01*
X7700Y4248D01*
Y4752D01*
X7621Y5249D01*
X7466Y5728D01*
X7237Y6177D01*
X6941Y6585D01*
X6869Y6657D01*
X6708Y6496D01*
X6496Y6708D01*
X6657Y6869D01*
X6585Y6941D01*
X6177Y7237D01*
X5728Y7466D01*
X5249Y7621D01*
X4752Y7700D01*
D02*
G37*
G36*
X34022Y41810D02*
X33758D01*
X33504Y41742D01*
X33276Y41610D01*
X33090Y41424D01*
X32958Y41196D01*
X32890Y40942D01*
Y40678D01*
X32958Y40424D01*
X33090Y40196D01*
X33276Y40010D01*
X33504Y39878D01*
X33758Y39810D01*
X34022D01*
X34276Y39878D01*
X34504Y40010D01*
X34690Y40196D01*
X34822Y40424D01*
X34890Y40678D01*
Y40942D01*
X34822Y41196D01*
X34690Y41424D01*
X34504Y41610D01*
X34276Y41742D01*
X34022Y41810D01*
D02*
G37*
G36*
X31482D02*
X31218D01*
X30964Y41742D01*
X30736Y41610D01*
X30550Y41424D01*
X30418Y41196D01*
X30350Y40942D01*
Y40678D01*
X30418Y40424D01*
X30550Y40196D01*
X30736Y40010D01*
X30964Y39878D01*
X31218Y39810D01*
X31482D01*
X31736Y39878D01*
X31964Y40010D01*
X32150Y40196D01*
X32282Y40424D01*
X32350Y40678D01*
Y40942D01*
X32282Y41196D01*
X32150Y41424D01*
X31964Y41610D01*
X31736Y41742D01*
X31482Y41810D01*
D02*
G37*
G36*
X28942D02*
X28678D01*
X28424Y41742D01*
X28196Y41610D01*
X28010Y41424D01*
X27878Y41196D01*
X27810Y40942D01*
Y40678D01*
X27878Y40424D01*
X28010Y40196D01*
X28196Y40010D01*
X28424Y39878D01*
X28678Y39810D01*
X28942D01*
X29196Y39878D01*
X29424Y40010D01*
X29610Y40196D01*
X29742Y40424D01*
X29810Y40678D01*
Y40942D01*
X29742Y41196D01*
X29610Y41424D01*
X29424Y41610D01*
X29196Y41742D01*
X28942Y41810D01*
D02*
G37*
G36*
X26402D02*
X26138D01*
X25884Y41742D01*
X25656Y41610D01*
X25470Y41424D01*
X25338Y41196D01*
X25270Y40942D01*
Y40678D01*
X25338Y40424D01*
X25470Y40196D01*
X25656Y40010D01*
X25884Y39878D01*
X26138Y39810D01*
X26402D01*
X26656Y39878D01*
X26884Y40010D01*
X27070Y40196D01*
X27202Y40424D01*
X27270Y40678D01*
Y40942D01*
X27202Y41196D01*
X27070Y41424D01*
X26884Y41610D01*
X26656Y41742D01*
X26402Y41810D01*
D02*
G37*
G36*
X23862D02*
X23598D01*
X23344Y41742D01*
X23116Y41610D01*
X22930Y41424D01*
X22798Y41196D01*
X22730Y40942D01*
Y40678D01*
X22798Y40424D01*
X22930Y40196D01*
X23116Y40010D01*
X23344Y39878D01*
X23598Y39810D01*
X23862D01*
X24116Y39878D01*
X24344Y40010D01*
X24530Y40196D01*
X24662Y40424D01*
X24730Y40678D01*
Y40942D01*
X24662Y41196D01*
X24530Y41424D01*
X24344Y41610D01*
X24116Y41742D01*
X23862Y41810D01*
D02*
G37*
G36*
X21322D02*
X21058D01*
X20804Y41742D01*
X20576Y41610D01*
X20390Y41424D01*
X20258Y41196D01*
X20190Y40942D01*
Y40678D01*
X20258Y40424D01*
X20390Y40196D01*
X20576Y40010D01*
X20804Y39878D01*
X21058Y39810D01*
X21322D01*
X21576Y39878D01*
X21804Y40010D01*
X21990Y40196D01*
X22122Y40424D01*
X22190Y40678D01*
Y40942D01*
X22122Y41196D01*
X21990Y41424D01*
X21804Y41610D01*
X21576Y41742D01*
X21322Y41810D01*
D02*
G37*
G36*
X18782D02*
X18518D01*
X18264Y41742D01*
X18036Y41610D01*
X17850Y41424D01*
X17718Y41196D01*
X17650Y40942D01*
Y40678D01*
X17718Y40424D01*
X17850Y40196D01*
X18036Y40010D01*
X18264Y39878D01*
X18518Y39810D01*
X18782D01*
X19036Y39878D01*
X19264Y40010D01*
X19450Y40196D01*
X19582Y40424D01*
X19650Y40678D01*
Y40942D01*
X19582Y41196D01*
X19450Y41424D01*
X19264Y41610D01*
X19036Y41742D01*
X18782Y41810D01*
D02*
G37*
G36*
X16242D02*
X15978D01*
X15724Y41742D01*
X15496Y41610D01*
X15310Y41424D01*
X15178Y41196D01*
X15110Y40942D01*
Y40678D01*
X15178Y40424D01*
X15310Y40196D01*
X15496Y40010D01*
X15724Y39878D01*
X15978Y39810D01*
X16242D01*
X16496Y39878D01*
X16724Y40010D01*
X16910Y40196D01*
X17042Y40424D01*
X17110Y40678D01*
Y40942D01*
X17042Y41196D01*
X16910Y41424D01*
X16724Y41610D01*
X16496Y41742D01*
X16242Y41810D01*
D02*
G37*
G36*
X28928Y34090D02*
X28691D01*
X28463Y34029D01*
X28286Y33926D01*
X28449Y33763D01*
X28237Y33550D01*
X28073Y33714D01*
X27971Y33537D01*
X27910Y33308D01*
Y33071D01*
X27971Y32843D01*
X28073Y32666D01*
X28237Y32829D01*
X28449Y32617D01*
X28286Y32453D01*
X28463Y32351D01*
X28691Y32290D01*
X28928D01*
X29157Y32351D01*
X29334Y32453D01*
X29170Y32617D01*
X29383Y32829D01*
X29546Y32666D01*
X29649Y32843D01*
X29710Y33071D01*
Y33308D01*
X29649Y33537D01*
X29546Y33714D01*
X29383Y33550D01*
X29170Y33763D01*
X29334Y33926D01*
X29157Y34029D01*
X28928Y34090D01*
D02*
G37*
G36*
X34022Y34190D02*
X33758D01*
X33504Y34122D01*
X33276Y33990D01*
X33090Y33804D01*
X32958Y33576D01*
X32890Y33322D01*
Y33058D01*
X32958Y32804D01*
X33090Y32576D01*
X33276Y32390D01*
X33504Y32258D01*
X33758Y32190D01*
X34022D01*
X34276Y32258D01*
X34504Y32390D01*
X34690Y32576D01*
X34822Y32804D01*
X34890Y33058D01*
Y33322D01*
X34822Y33576D01*
X34690Y33804D01*
X34504Y33990D01*
X34276Y34122D01*
X34022Y34190D01*
D02*
G37*
G36*
X31482D02*
X31218D01*
X30964Y34122D01*
X30736Y33990D01*
X30550Y33804D01*
X30418Y33576D01*
X30350Y33322D01*
Y33058D01*
X30418Y32804D01*
X30550Y32576D01*
X30736Y32390D01*
X30964Y32258D01*
X31218Y32190D01*
X31482D01*
X31736Y32258D01*
X31964Y32390D01*
X32150Y32576D01*
X32282Y32804D01*
X32350Y33058D01*
Y33322D01*
X32282Y33576D01*
X32150Y33804D01*
X31964Y33990D01*
X31736Y34122D01*
X31482Y34190D01*
D02*
G37*
G36*
X26402D02*
X26138D01*
X25884Y34122D01*
X25656Y33990D01*
X25470Y33804D01*
X25338Y33576D01*
X25270Y33322D01*
Y33058D01*
X25338Y32804D01*
X25470Y32576D01*
X25656Y32390D01*
X25884Y32258D01*
X26138Y32190D01*
X26402D01*
X26656Y32258D01*
X26884Y32390D01*
X27070Y32576D01*
X27202Y32804D01*
X27270Y33058D01*
Y33322D01*
X27202Y33576D01*
X27070Y33804D01*
X26884Y33990D01*
X26656Y34122D01*
X26402Y34190D01*
D02*
G37*
G36*
X23862D02*
X23598D01*
X23344Y34122D01*
X23116Y33990D01*
X22930Y33804D01*
X22798Y33576D01*
X22730Y33322D01*
Y33058D01*
X22798Y32804D01*
X22930Y32576D01*
X23116Y32390D01*
X23344Y32258D01*
X23598Y32190D01*
X23862D01*
X24116Y32258D01*
X24344Y32390D01*
X24530Y32576D01*
X24662Y32804D01*
X24730Y33058D01*
Y33322D01*
X24662Y33576D01*
X24530Y33804D01*
X24344Y33990D01*
X24116Y34122D01*
X23862Y34190D01*
D02*
G37*
G36*
X21322D02*
X21058D01*
X20804Y34122D01*
X20576Y33990D01*
X20390Y33804D01*
X20258Y33576D01*
X20190Y33322D01*
Y33058D01*
X20258Y32804D01*
X20390Y32576D01*
X20576Y32390D01*
X20804Y32258D01*
X21058Y32190D01*
X21322D01*
X21576Y32258D01*
X21804Y32390D01*
X21990Y32576D01*
X22122Y32804D01*
X22190Y33058D01*
Y33322D01*
X22122Y33576D01*
X21990Y33804D01*
X21804Y33990D01*
X21576Y34122D01*
X21322Y34190D01*
D02*
G37*
G36*
X18782D02*
X18518D01*
X18264Y34122D01*
X18036Y33990D01*
X17850Y33804D01*
X17718Y33576D01*
X17650Y33322D01*
Y33058D01*
X17718Y32804D01*
X17850Y32576D01*
X18036Y32390D01*
X18264Y32258D01*
X18518Y32190D01*
X18782D01*
X19036Y32258D01*
X19264Y32390D01*
X19450Y32576D01*
X19582Y32804D01*
X19650Y33058D01*
Y33322D01*
X19582Y33576D01*
X19450Y33804D01*
X19264Y33990D01*
X19036Y34122D01*
X18782Y34190D01*
D02*
G37*
G36*
X16242D02*
X15978D01*
X15724Y34122D01*
X15496Y33990D01*
X15310Y33804D01*
X15178Y33576D01*
X15110Y33322D01*
Y33058D01*
X15178Y32804D01*
X15310Y32576D01*
X15496Y32390D01*
X15724Y32258D01*
X15978Y32190D01*
X16242D01*
X16496Y32258D01*
X16724Y32390D01*
X16910Y32576D01*
X17042Y32804D01*
X17110Y33058D01*
Y33322D01*
X17042Y33576D01*
X16910Y33804D01*
X16724Y33990D01*
X16496Y34122D01*
X16242Y34190D01*
D02*
G37*
G36*
X27336Y30150D02*
X27164D01*
X26999Y30106D01*
X26851Y30020D01*
X26730Y29899D01*
X26644Y29751D01*
X26600Y29586D01*
Y29414D01*
X26644Y29249D01*
X26730Y29101D01*
X26851Y28980D01*
X26999Y28894D01*
X27164Y28850D01*
X27336D01*
X27501Y28894D01*
X27649Y28980D01*
X27770Y29101D01*
X27856Y29249D01*
X27900Y29414D01*
Y29586D01*
X27856Y29751D01*
X27770Y29899D01*
X27649Y30020D01*
X27501Y30106D01*
X27336Y30150D01*
D02*
G37*
G36*
X13336Y27650D02*
X13164D01*
X12999Y27606D01*
X12851Y27520D01*
X12730Y27399D01*
X12644Y27251D01*
X12600Y27086D01*
Y26914D01*
X12644Y26749D01*
X12730Y26601D01*
X12851Y26480D01*
X12999Y26394D01*
X13164Y26350D01*
X13336D01*
X13501Y26394D01*
X13649Y26480D01*
X13770Y26601D01*
X13856Y26749D01*
X13900Y26914D01*
Y27086D01*
X13856Y27251D01*
X13770Y27399D01*
X13649Y27520D01*
X13501Y27606D01*
X13336Y27650D01*
D02*
G37*
G36*
X22684Y26265D02*
X22466D01*
X22304Y26198D01*
X22474Y26028D01*
X22262Y25816D01*
X22092Y25986D01*
X22025Y25824D01*
Y25606D01*
X22092Y25444D01*
X22262Y25614D01*
X22474Y25402D01*
X22304Y25232D01*
X22466Y25165D01*
X22684D01*
X22846Y25232D01*
X22676Y25402D01*
X22888Y25614D01*
X23058Y25444D01*
X23125Y25606D01*
Y25824D01*
X23058Y25986D01*
X22888Y25816D01*
X22676Y26028D01*
X22846Y26198D01*
X22684Y26265D01*
D02*
G37*
G36*
X39586Y28650D02*
X39414D01*
X39249Y28606D01*
X39101Y28520D01*
X38980Y28399D01*
X38894Y28251D01*
X38850Y28086D01*
Y27914D01*
X38894Y27749D01*
X38980Y27601D01*
X39101Y27480D01*
X39156Y27448D01*
Y27302D01*
X39101Y27270D01*
X38980Y27149D01*
X38894Y27001D01*
X38850Y26836D01*
Y26664D01*
X38894Y26499D01*
X38980Y26351D01*
X39101Y26230D01*
X39156Y26198D01*
Y26052D01*
X39101Y26020D01*
X38980Y25899D01*
X38894Y25751D01*
X38850Y25586D01*
Y25414D01*
X38894Y25249D01*
X38980Y25101D01*
X39081Y25000D01*
X38980Y24899D01*
X38894Y24751D01*
X38850Y24586D01*
Y24414D01*
X38894Y24249D01*
X38980Y24101D01*
X39101Y23980D01*
X39249Y23894D01*
X39414Y23850D01*
X39586D01*
X39751Y23894D01*
X39899Y23980D01*
X40020Y24101D01*
X40106Y24249D01*
X40150Y24414D01*
Y24586D01*
X40106Y24751D01*
X40020Y24899D01*
X39919Y25000D01*
X40020Y25101D01*
X40106Y25249D01*
X40150Y25414D01*
Y25586D01*
X40106Y25751D01*
X40020Y25899D01*
X39899Y26020D01*
X39844Y26052D01*
Y26198D01*
X39899Y26230D01*
X40020Y26351D01*
X40106Y26499D01*
X40150Y26664D01*
Y26836D01*
X40106Y27001D01*
X40020Y27149D01*
X39899Y27270D01*
X39844Y27302D01*
Y27448D01*
X39899Y27480D01*
X40020Y27601D01*
X40106Y27749D01*
X40150Y27914D01*
Y28086D01*
X40106Y28251D01*
X40020Y28399D01*
X39899Y28520D01*
X39751Y28606D01*
X39586Y28650D01*
D02*
G37*
G36*
X13336Y24650D02*
X13164D01*
X12999Y24606D01*
X12851Y24520D01*
X12730Y24399D01*
X12644Y24251D01*
X12600Y24086D01*
Y23914D01*
X12644Y23749D01*
X12730Y23601D01*
X12851Y23480D01*
X12999Y23394D01*
X13164Y23350D01*
X13336D01*
X13501Y23394D01*
X13649Y23480D01*
X13770Y23601D01*
X13856Y23749D01*
X13900Y23914D01*
Y24086D01*
X13856Y24251D01*
X13770Y24399D01*
X13649Y24520D01*
X13501Y24606D01*
X13336Y24650D01*
D02*
G37*
G36*
X36586Y24900D02*
X36414D01*
X36249Y24856D01*
X36101Y24770D01*
X35980Y24649D01*
X35894Y24501D01*
X35850Y24336D01*
Y24164D01*
X35894Y23999D01*
X35980Y23851D01*
X36081Y23750D01*
X35980Y23649D01*
X35894Y23501D01*
X35850Y23336D01*
Y23164D01*
X35894Y22999D01*
X35980Y22851D01*
X36101Y22730D01*
X36249Y22644D01*
X36414Y22600D01*
X36586D01*
X36751Y22644D01*
X36899Y22730D01*
X37020Y22851D01*
X37106Y22999D01*
X37150Y23164D01*
Y23336D01*
X37106Y23501D01*
X37020Y23649D01*
X36919Y23750D01*
X37020Y23851D01*
X37106Y23999D01*
X37150Y24164D01*
Y24336D01*
X37106Y24501D01*
X37020Y24649D01*
X36899Y24770D01*
X36751Y24856D01*
X36586Y24900D01*
D02*
G37*
G36*
X13359Y21550D02*
X13141D01*
X12979Y21483D01*
X13149Y21313D01*
X12937Y21101D01*
X12767Y21271D01*
X12700Y21109D01*
Y20891D01*
X12767Y20729D01*
X12937Y20899D01*
X13149Y20687D01*
X12979Y20517D01*
X13141Y20450D01*
X13359D01*
X13521Y20517D01*
X13351Y20687D01*
X13563Y20899D01*
X13733Y20729D01*
X13800Y20891D01*
Y21109D01*
X13733Y21271D01*
X13563Y21101D01*
X13351Y21313D01*
X13521Y21483D01*
X13359Y21550D01*
D02*
G37*
G36*
X36586Y22150D02*
X36414D01*
X36249Y22106D01*
X36101Y22020D01*
X35980Y21899D01*
X35894Y21751D01*
X35850Y21586D01*
Y21414D01*
X35894Y21249D01*
X35980Y21101D01*
X36101Y20980D01*
X36249Y20894D01*
X36414Y20850D01*
X36586D01*
X36751Y20894D01*
X36899Y20980D01*
X37020Y21101D01*
X37106Y21249D01*
X37150Y21414D01*
Y21586D01*
X37106Y21751D01*
X37020Y21899D01*
X36899Y22020D01*
X36751Y22106D01*
X36586Y22150D01*
D02*
G37*
G36*
X39609Y14300D02*
X39391D01*
X39229Y14233D01*
X39399Y14063D01*
X39187Y13851D01*
X39017Y14021D01*
X38950Y13859D01*
Y13641D01*
X39017Y13479D01*
X39187Y13649D01*
X39399Y13437D01*
X39229Y13267D01*
X39391Y13200D01*
X39609D01*
X39771Y13267D01*
X39601Y13437D01*
X39813Y13649D01*
X39983Y13479D01*
X40050Y13641D01*
Y13859D01*
X39983Y14021D01*
X39813Y13851D01*
X39601Y14063D01*
X39771Y14233D01*
X39609Y14300D01*
D02*
G37*
G36*
X22586Y14900D02*
X22414D01*
X22249Y14856D01*
X22101Y14770D01*
X21980Y14649D01*
X21894Y14501D01*
X21850Y14336D01*
Y14164D01*
X21894Y13999D01*
X21980Y13851D01*
X22101Y13730D01*
X22249Y13644D01*
X22414Y13600D01*
X22586D01*
X22751Y13644D01*
X22899Y13730D01*
X23020Y13851D01*
X23106Y13999D01*
X23150Y14164D01*
Y14336D01*
X23106Y14501D01*
X23020Y14649D01*
X22899Y14770D01*
X22751Y14856D01*
X22586Y14900D01*
D02*
G37*
G36*
X35336Y14400D02*
X35164D01*
X34999Y14356D01*
X34851Y14270D01*
X34730Y14149D01*
X34644Y14001D01*
X34600Y13836D01*
Y13664D01*
X34644Y13499D01*
X34730Y13351D01*
X34851Y13230D01*
X34863Y13140D01*
X34784Y13062D01*
X34700Y12859D01*
Y12641D01*
X34767Y12479D01*
X34937Y12649D01*
X35149Y12437D01*
X34979Y12267D01*
X35141Y12200D01*
X35359D01*
X35521Y12267D01*
X35351Y12437D01*
X35563Y12649D01*
X35733Y12479D01*
X35800Y12641D01*
Y12859D01*
X35716Y13062D01*
X35637Y13140D01*
X35649Y13230D01*
X35770Y13351D01*
X35856Y13499D01*
X35900Y13664D01*
Y13836D01*
X35856Y14001D01*
X35770Y14149D01*
X35649Y14270D01*
X35501Y14356D01*
X35336Y14400D01*
D02*
G37*
G36*
X38586Y10650D02*
X38414D01*
X38249Y10606D01*
X38101Y10520D01*
X37980Y10399D01*
X37894Y10251D01*
X37850Y10086D01*
Y9914D01*
X37894Y9749D01*
X37980Y9601D01*
X38101Y9480D01*
X38249Y9394D01*
X38414Y9350D01*
X38586D01*
X38751Y9394D01*
X38899Y9480D01*
X39020Y9601D01*
X39106Y9749D01*
X39150Y9914D01*
Y10086D01*
X39106Y10251D01*
X39020Y10399D01*
X38899Y10520D01*
X38751Y10606D01*
X38586Y10650D01*
D02*
G37*
G36*
X36586D02*
X36414D01*
X36249Y10606D01*
X36101Y10520D01*
X35980Y10399D01*
X35894Y10251D01*
X35850Y10086D01*
Y9914D01*
X35894Y9749D01*
X35980Y9601D01*
X36101Y9480D01*
X36249Y9394D01*
X36414Y9350D01*
X36586D01*
X36751Y9394D01*
X36899Y9480D01*
X37020Y9601D01*
X37106Y9749D01*
X37150Y9914D01*
Y10086D01*
X37106Y10251D01*
X37020Y10399D01*
X36899Y10520D01*
X36751Y10606D01*
X36586Y10650D01*
D02*
G37*
G36*
X26423Y6162D02*
X26117D01*
X25821Y6083D01*
X25556Y5930D01*
X25340Y5714D01*
X25187Y5449D01*
X25108Y5153D01*
Y4847D01*
X25187Y4551D01*
X25340Y4286D01*
X25556Y4070D01*
X25821Y3917D01*
X26117Y3838D01*
X26423D01*
X26719Y3917D01*
X26984Y4070D01*
X27200Y4286D01*
X27353Y4551D01*
X27433Y4847D01*
Y5153D01*
X27353Y5449D01*
X27200Y5714D01*
X26984Y5930D01*
X26719Y6083D01*
X26423Y6162D01*
D02*
G37*
G36*
X23883D02*
X23577D01*
X23281Y6083D01*
X23016Y5930D01*
X22800Y5714D01*
X22647Y5449D01*
X22567Y5153D01*
Y4847D01*
X22647Y4551D01*
X22800Y4286D01*
X23016Y4070D01*
X23281Y3917D01*
X23577Y3838D01*
X23883D01*
X24179Y3917D01*
X24444Y4070D01*
X24660Y4286D01*
X24813Y4551D01*
X24892Y4847D01*
Y5153D01*
X24813Y5449D01*
X24660Y5714D01*
X24444Y5930D01*
X24179Y6083D01*
X23883Y6162D01*
D02*
G37*
%LPD*%
D25*
X45500Y4500D02*
D03*
X4500D02*
D03*
X45500Y45500D02*
D03*
X4500D02*
D03*
D26*
X16110Y33190D02*
D03*
X33890D02*
D03*
X31350D02*
D03*
X28810D02*
D03*
X26270D02*
D03*
X23730D02*
D03*
X21190D02*
D03*
X18650D02*
D03*
X33890Y40810D02*
D03*
X31350D02*
D03*
X28810D02*
D03*
X26270D02*
D03*
X23730D02*
D03*
X21190D02*
D03*
X18650D02*
D03*
X16110D02*
D03*
D27*
X37500Y45395D02*
D03*
X12500D02*
D03*
X25000Y82795D02*
D03*
D28*
X43735Y21400D02*
D03*
X43670Y28600D02*
D03*
D29*
X46785Y29320D02*
D03*
Y20680D02*
D03*
D30*
X41735Y29320D02*
D03*
Y20680D02*
D03*
D31*
X26270Y5000D02*
D03*
X23730D02*
D03*
D32*
X36500Y21500D02*
D03*
X22575Y25715D02*
D03*
X13250Y27000D02*
D03*
Y21000D02*
D03*
X4500Y13500D02*
D03*
X13250Y24000D02*
D03*
X39500Y13750D02*
D03*
Y28000D02*
D03*
X47000Y23500D02*
D03*
X39500Y26750D02*
D03*
X44000Y22750D02*
D03*
X44750Y33500D02*
D03*
Y16500D02*
D03*
X44000Y24250D02*
D03*
X36500Y24250D02*
D03*
Y23250D02*
D03*
X44000Y25250D02*
D03*
X39500Y24500D02*
D03*
Y25500D02*
D03*
X27250Y29500D02*
D03*
X22500Y14250D02*
D03*
X43750Y10000D02*
D03*
X41500D02*
D03*
X35250Y13750D02*
D03*
Y12750D02*
D03*
X38500Y10000D02*
D03*
X36500D02*
D03*
%TF.MD5,f23eaab6488c99d676611a8e2e8e7a6f*%
M02*
