%TF.GenerationSoftware,Altium Limited,Altium Designer,25.2.1 (25)*%
G04 Layer_Color=255*
%FSLAX43Y43*%
%MOMM*%
%TF.SameCoordinates,D3577A82-B172-4AAC-A9F5-C134510085F9*%
%TF.FilePolarity,Positive*%
%TF.FileFunction,Pads,Bot*%
%TF.Part,Single*%
G01*
G75*
%TA.AperFunction,ComponentPad*%
%ADD25C,6.000*%
%ADD26C,1.400*%
%ADD27C,5.000*%
%ADD28C,1.250*%
%ADD29C,2.750*%
%ADD30C,2.250*%
%ADD31C,1.725*%
D25*
X45500Y4500D02*
D03*
X4500D02*
D03*
X45500Y45500D02*
D03*
X4500D02*
D03*
D26*
X16110Y33190D02*
D03*
X33890D02*
D03*
X31350D02*
D03*
X28810D02*
D03*
X26270D02*
D03*
X23730D02*
D03*
X21190D02*
D03*
X18650D02*
D03*
X33890Y40810D02*
D03*
X31350D02*
D03*
X28810D02*
D03*
X26270D02*
D03*
X23730D02*
D03*
X21190D02*
D03*
X18650D02*
D03*
X16110D02*
D03*
D27*
X37500Y45395D02*
D03*
X12500D02*
D03*
X25000Y82795D02*
D03*
D28*
X43735Y21400D02*
D03*
X43670Y28600D02*
D03*
D29*
X46785Y29320D02*
D03*
Y20680D02*
D03*
D30*
X41735Y29320D02*
D03*
Y20680D02*
D03*
D31*
X26270Y5000D02*
D03*
X23730D02*
D03*
%TF.MD5,8d19728c5437e9f5f8b5698a58cc8aba*%
M02*
