%TF.GenerationSoftware,Altium Limited,Altium Designer,25.2.1 (25)*%
G04 Layer_Physical_Order=2*
G04 Layer_Color=36540*
%FSLAX43Y43*%
%MOMM*%
%TF.SameCoordinates,D3577A82-B172-4AAC-A9F5-C134510085F9*%
%TF.FilePolarity,Positive*%
%TF.FileFunction,Copper,L2,Inr,Signal*%
%TF.Part,Single*%
G01*
G75*
%TA.AperFunction,ComponentPad*%
%ADD25C,6.000*%
%ADD26C,1.400*%
%ADD27C,5.000*%
%ADD28C,1.250*%
%ADD29C,2.750*%
%ADD30C,2.250*%
%ADD31C,1.725*%
%TA.AperFunction,ViaPad*%
%ADD32C,0.700*%
G36*
X46141Y49549D02*
X46767Y49399D01*
X47361Y49153D01*
X47910Y48817D01*
X48399Y48399D01*
X48817Y47910D01*
X49153Y47361D01*
X49399Y46767D01*
X49549Y46141D01*
X49598Y45528D01*
X49592Y45500D01*
Y4500D01*
X49598Y4472D01*
X49549Y3859D01*
X49399Y3233D01*
X49153Y2639D01*
X48817Y2090D01*
X48399Y1601D01*
X47910Y1183D01*
X47361Y847D01*
X46767Y601D01*
X46141Y451D01*
X45528Y402D01*
X45500Y408D01*
X4500D01*
X4472Y402D01*
X3859Y451D01*
X3233Y601D01*
X2639Y847D01*
X2090Y1183D01*
X1601Y1601D01*
X1183Y2090D01*
X847Y2639D01*
X601Y3233D01*
X451Y3859D01*
X402Y4472D01*
X408Y4500D01*
Y45500D01*
X402Y45528D01*
X451Y46141D01*
X601Y46767D01*
X847Y47361D01*
X1183Y47910D01*
X1601Y48399D01*
X2090Y48817D01*
X2639Y49153D01*
X3233Y49399D01*
X3859Y49549D01*
X4472Y49598D01*
X4500Y49592D01*
X45500D01*
X45528Y49598D01*
X46141Y49549D01*
D02*
G37*
%LPC*%
G36*
X37720Y48195D02*
X37280D01*
X36844Y48126D01*
X36425Y47990D01*
X36032Y47790D01*
X35676Y47531D01*
X35364Y47219D01*
X35105Y46863D01*
X34905Y46470D01*
X34769Y46051D01*
X34700Y45615D01*
Y45175D01*
X34769Y44739D01*
X34905Y44320D01*
X35105Y43927D01*
X35364Y43571D01*
X35676Y43259D01*
X36032Y43000D01*
X36425Y42800D01*
X36844Y42664D01*
X37280Y42595D01*
X37720D01*
X38156Y42664D01*
X38575Y42800D01*
X38968Y43000D01*
X39324Y43259D01*
X39636Y43571D01*
X39895Y43927D01*
X40095Y44320D01*
X40231Y44739D01*
X40300Y45175D01*
Y45615D01*
X40231Y46051D01*
X40095Y46470D01*
X39895Y46863D01*
X39636Y47219D01*
X39324Y47531D01*
X38968Y47790D01*
X38575Y47990D01*
X38156Y48126D01*
X37720Y48195D01*
D02*
G37*
G36*
X12720D02*
X12279D01*
X11844Y48126D01*
X11425Y47990D01*
X11032Y47790D01*
X10676Y47531D01*
X10364Y47219D01*
X10105Y46863D01*
X9905Y46470D01*
X9769Y46051D01*
X9700Y45615D01*
Y45175D01*
X9769Y44739D01*
X9905Y44320D01*
X10105Y43927D01*
X10364Y43571D01*
X10676Y43259D01*
X11032Y43000D01*
X11425Y42800D01*
X11844Y42664D01*
X12279Y42595D01*
X12720D01*
X13155Y42664D01*
X13575Y42800D01*
X13967Y43000D01*
X14324Y43259D01*
X14635Y43571D01*
X14894Y43927D01*
X15095Y44320D01*
X15231Y44739D01*
X15300Y45175D01*
Y45615D01*
X15231Y46051D01*
X15095Y46470D01*
X14894Y46863D01*
X14635Y47219D01*
X14324Y47531D01*
X13967Y47790D01*
X13575Y47990D01*
X13155Y48126D01*
X12720Y48195D01*
D02*
G37*
G36*
X45760Y48800D02*
X45240D01*
X44727Y48719D01*
X44233Y48558D01*
X43770Y48322D01*
X43350Y48017D01*
X42983Y47650D01*
X42678Y47230D01*
X42442Y46767D01*
X42281Y46273D01*
X42200Y45760D01*
Y45240D01*
X42281Y44727D01*
X42442Y44233D01*
X42678Y43770D01*
X42983Y43350D01*
X43350Y42983D01*
X43770Y42678D01*
X44233Y42442D01*
X44727Y42281D01*
X45240Y42200D01*
X45760D01*
X46273Y42281D01*
X46767Y42442D01*
X47230Y42678D01*
X47650Y42983D01*
X48017Y43350D01*
X48322Y43770D01*
X48558Y44233D01*
X48719Y44727D01*
X48800Y45240D01*
Y45760D01*
X48719Y46273D01*
X48558Y46767D01*
X48322Y47230D01*
X48017Y47650D01*
X47650Y48017D01*
X47230Y48322D01*
X46767Y48558D01*
X46273Y48719D01*
X45760Y48800D01*
D02*
G37*
G36*
X4760D02*
X4240D01*
X3727Y48719D01*
X3233Y48558D01*
X2770Y48322D01*
X2350Y48017D01*
X1983Y47650D01*
X1678Y47230D01*
X1442Y46767D01*
X1281Y46273D01*
X1200Y45760D01*
Y45240D01*
X1281Y44727D01*
X1442Y44233D01*
X1678Y43770D01*
X1983Y43350D01*
X2350Y42983D01*
X2770Y42678D01*
X3233Y42442D01*
X3727Y42281D01*
X4240Y42200D01*
X4760D01*
X5273Y42281D01*
X5767Y42442D01*
X6230Y42678D01*
X6650Y42983D01*
X7017Y43350D01*
X7322Y43770D01*
X7558Y44233D01*
X7719Y44727D01*
X7800Y45240D01*
Y45760D01*
X7719Y46273D01*
X7558Y46767D01*
X7322Y47230D01*
X7017Y47650D01*
X6650Y48017D01*
X6230Y48322D01*
X5767Y48558D01*
X5273Y48719D01*
X4760Y48800D01*
D02*
G37*
G36*
X34022Y41810D02*
X33758D01*
X33504Y41742D01*
X33276Y41610D01*
X33090Y41424D01*
X32958Y41196D01*
X32890Y40942D01*
Y40678D01*
X32958Y40424D01*
X33090Y40196D01*
X33276Y40010D01*
X33504Y39878D01*
X33758Y39810D01*
X34022D01*
X34276Y39878D01*
X34504Y40010D01*
X34690Y40196D01*
X34822Y40424D01*
X34890Y40678D01*
Y40942D01*
X34822Y41196D01*
X34690Y41424D01*
X34504Y41610D01*
X34276Y41742D01*
X34022Y41810D01*
D02*
G37*
G36*
X31482D02*
X31218D01*
X30964Y41742D01*
X30736Y41610D01*
X30550Y41424D01*
X30418Y41196D01*
X30350Y40942D01*
Y40678D01*
X30418Y40424D01*
X30550Y40196D01*
X30736Y40010D01*
X30964Y39878D01*
X31218Y39810D01*
X31482D01*
X31736Y39878D01*
X31964Y40010D01*
X32150Y40196D01*
X32282Y40424D01*
X32350Y40678D01*
Y40942D01*
X32282Y41196D01*
X32150Y41424D01*
X31964Y41610D01*
X31736Y41742D01*
X31482Y41810D01*
D02*
G37*
G36*
X28942D02*
X28678D01*
X28424Y41742D01*
X28196Y41610D01*
X28010Y41424D01*
X27878Y41196D01*
X27810Y40942D01*
Y40678D01*
X27878Y40424D01*
X28010Y40196D01*
X28196Y40010D01*
X28424Y39878D01*
X28678Y39810D01*
X28942D01*
X29196Y39878D01*
X29424Y40010D01*
X29610Y40196D01*
X29742Y40424D01*
X29810Y40678D01*
Y40942D01*
X29742Y41196D01*
X29610Y41424D01*
X29424Y41610D01*
X29196Y41742D01*
X28942Y41810D01*
D02*
G37*
G36*
X26402D02*
X26138D01*
X25884Y41742D01*
X25656Y41610D01*
X25470Y41424D01*
X25338Y41196D01*
X25270Y40942D01*
Y40678D01*
X25338Y40424D01*
X25470Y40196D01*
X25656Y40010D01*
X25884Y39878D01*
X26138Y39810D01*
X26402D01*
X26656Y39878D01*
X26884Y40010D01*
X27070Y40196D01*
X27202Y40424D01*
X27270Y40678D01*
Y40942D01*
X27202Y41196D01*
X27070Y41424D01*
X26884Y41610D01*
X26656Y41742D01*
X26402Y41810D01*
D02*
G37*
G36*
X23862D02*
X23598D01*
X23344Y41742D01*
X23116Y41610D01*
X22930Y41424D01*
X22798Y41196D01*
X22730Y40942D01*
Y40678D01*
X22798Y40424D01*
X22930Y40196D01*
X23116Y40010D01*
X23344Y39878D01*
X23598Y39810D01*
X23862D01*
X24116Y39878D01*
X24344Y40010D01*
X24530Y40196D01*
X24662Y40424D01*
X24730Y40678D01*
Y40942D01*
X24662Y41196D01*
X24530Y41424D01*
X24344Y41610D01*
X24116Y41742D01*
X23862Y41810D01*
D02*
G37*
G36*
X21322D02*
X21058D01*
X20804Y41742D01*
X20576Y41610D01*
X20390Y41424D01*
X20258Y41196D01*
X20190Y40942D01*
Y40678D01*
X20258Y40424D01*
X20390Y40196D01*
X20576Y40010D01*
X20804Y39878D01*
X21058Y39810D01*
X21322D01*
X21576Y39878D01*
X21804Y40010D01*
X21990Y40196D01*
X22122Y40424D01*
X22190Y40678D01*
Y40942D01*
X22122Y41196D01*
X21990Y41424D01*
X21804Y41610D01*
X21576Y41742D01*
X21322Y41810D01*
D02*
G37*
G36*
X18782D02*
X18518D01*
X18264Y41742D01*
X18036Y41610D01*
X17850Y41424D01*
X17718Y41196D01*
X17650Y40942D01*
Y40678D01*
X17718Y40424D01*
X17850Y40196D01*
X18036Y40010D01*
X18264Y39878D01*
X18518Y39810D01*
X18782D01*
X19036Y39878D01*
X19264Y40010D01*
X19450Y40196D01*
X19582Y40424D01*
X19650Y40678D01*
Y40942D01*
X19582Y41196D01*
X19450Y41424D01*
X19264Y41610D01*
X19036Y41742D01*
X18782Y41810D01*
D02*
G37*
G36*
X16242D02*
X15978D01*
X15724Y41742D01*
X15496Y41610D01*
X15310Y41424D01*
X15178Y41196D01*
X15110Y40942D01*
Y40678D01*
X15178Y40424D01*
X15310Y40196D01*
X15496Y40010D01*
X15724Y39878D01*
X15978Y39810D01*
X16242D01*
X16496Y39878D01*
X16724Y40010D01*
X16910Y40196D01*
X17042Y40424D01*
X17110Y40678D01*
Y40942D01*
X17042Y41196D01*
X16910Y41424D01*
X16724Y41610D01*
X16496Y41742D01*
X16242Y41810D01*
D02*
G37*
G36*
X44859Y34050D02*
X44641D01*
X44479Y33983D01*
X44649Y33813D01*
X44437Y33601D01*
X44267Y33771D01*
X44200Y33609D01*
Y33391D01*
X44267Y33229D01*
X44437Y33399D01*
X44649Y33187D01*
X44479Y33017D01*
X44641Y32950D01*
X44859D01*
X45021Y33017D01*
X44851Y33187D01*
X45063Y33399D01*
X45233Y33229D01*
X45300Y33391D01*
Y33609D01*
X45233Y33771D01*
X45063Y33601D01*
X44851Y33813D01*
X45021Y33983D01*
X44859Y34050D01*
D02*
G37*
G36*
X34008Y34090D02*
X33771D01*
X33543Y34029D01*
X33366Y33926D01*
X33529Y33763D01*
X33317Y33550D01*
X33153Y33714D01*
X33051Y33537D01*
X32990Y33308D01*
Y33071D01*
X33051Y32843D01*
X33153Y32666D01*
X33317Y32829D01*
X33529Y32617D01*
X33366Y32453D01*
X33543Y32351D01*
X33771Y32290D01*
X34008D01*
X34237Y32351D01*
X34414Y32453D01*
X34250Y32617D01*
X34463Y32829D01*
X34626Y32666D01*
X34729Y32843D01*
X34790Y33071D01*
Y33308D01*
X34729Y33537D01*
X34626Y33714D01*
X34463Y33550D01*
X34250Y33763D01*
X34414Y33926D01*
X34237Y34029D01*
X34008Y34090D01*
D02*
G37*
G36*
X31482Y34190D02*
X31218D01*
X30964Y34122D01*
X30736Y33990D01*
X30550Y33804D01*
X30418Y33576D01*
X30350Y33322D01*
Y33058D01*
X30418Y32804D01*
X30550Y32576D01*
X30736Y32390D01*
X30964Y32258D01*
X31218Y32190D01*
X31482D01*
X31736Y32258D01*
X31964Y32390D01*
X32150Y32576D01*
X32282Y32804D01*
X32350Y33058D01*
Y33322D01*
X32282Y33576D01*
X32150Y33804D01*
X31964Y33990D01*
X31736Y34122D01*
X31482Y34190D01*
D02*
G37*
G36*
X28942D02*
X28678D01*
X28424Y34122D01*
X28196Y33990D01*
X28010Y33804D01*
X27878Y33576D01*
X27810Y33322D01*
Y33058D01*
X27878Y32804D01*
X28010Y32576D01*
X28196Y32390D01*
X28424Y32258D01*
X28678Y32190D01*
X28942D01*
X29196Y32258D01*
X29424Y32390D01*
X29610Y32576D01*
X29742Y32804D01*
X29810Y33058D01*
Y33322D01*
X29742Y33576D01*
X29610Y33804D01*
X29424Y33990D01*
X29196Y34122D01*
X28942Y34190D01*
D02*
G37*
G36*
X26402D02*
X26138D01*
X25884Y34122D01*
X25656Y33990D01*
X25470Y33804D01*
X25338Y33576D01*
X25270Y33322D01*
Y33058D01*
X25338Y32804D01*
X25470Y32576D01*
X25656Y32390D01*
X25884Y32258D01*
X26138Y32190D01*
X26402D01*
X26656Y32258D01*
X26884Y32390D01*
X27070Y32576D01*
X27202Y32804D01*
X27270Y33058D01*
Y33322D01*
X27202Y33576D01*
X27070Y33804D01*
X26884Y33990D01*
X26656Y34122D01*
X26402Y34190D01*
D02*
G37*
G36*
X23862D02*
X23598D01*
X23344Y34122D01*
X23116Y33990D01*
X22930Y33804D01*
X22798Y33576D01*
X22730Y33322D01*
Y33058D01*
X22798Y32804D01*
X22930Y32576D01*
X23116Y32390D01*
X23344Y32258D01*
X23598Y32190D01*
X23862D01*
X24116Y32258D01*
X24344Y32390D01*
X24530Y32576D01*
X24662Y32804D01*
X24730Y33058D01*
Y33322D01*
X24662Y33576D01*
X24530Y33804D01*
X24344Y33990D01*
X24116Y34122D01*
X23862Y34190D01*
D02*
G37*
G36*
X21322D02*
X21058D01*
X20804Y34122D01*
X20576Y33990D01*
X20390Y33804D01*
X20258Y33576D01*
X20190Y33322D01*
Y33058D01*
X20258Y32804D01*
X20390Y32576D01*
X20576Y32390D01*
X20804Y32258D01*
X21058Y32190D01*
X21322D01*
X21576Y32258D01*
X21804Y32390D01*
X21990Y32576D01*
X22122Y32804D01*
X22190Y33058D01*
Y33322D01*
X22122Y33576D01*
X21990Y33804D01*
X21804Y33990D01*
X21576Y34122D01*
X21322Y34190D01*
D02*
G37*
G36*
X18782D02*
X18518D01*
X18264Y34122D01*
X18036Y33990D01*
X17850Y33804D01*
X17718Y33576D01*
X17650Y33322D01*
Y33058D01*
X17718Y32804D01*
X17850Y32576D01*
X18036Y32390D01*
X18264Y32258D01*
X18518Y32190D01*
X18782D01*
X19036Y32258D01*
X19264Y32390D01*
X19450Y32576D01*
X19582Y32804D01*
X19650Y33058D01*
Y33322D01*
X19582Y33576D01*
X19450Y33804D01*
X19264Y33990D01*
X19036Y34122D01*
X18782Y34190D01*
D02*
G37*
G36*
X16242D02*
X15978D01*
X15724Y34122D01*
X15496Y33990D01*
X15310Y33804D01*
X15178Y33576D01*
X15110Y33322D01*
Y33058D01*
X15178Y32804D01*
X15310Y32576D01*
X15496Y32390D01*
X15724Y32258D01*
X15978Y32190D01*
X16242D01*
X16496Y32258D01*
X16724Y32390D01*
X16910Y32576D01*
X17042Y32804D01*
X17110Y33058D01*
Y33322D01*
X17042Y33576D01*
X16910Y33804D01*
X16724Y33990D01*
X16496Y34122D01*
X16242Y34190D01*
D02*
G37*
G36*
X27359Y30050D02*
X27141D01*
X26979Y29983D01*
X27149Y29813D01*
X26937Y29601D01*
X26767Y29771D01*
X26700Y29609D01*
Y29391D01*
X26767Y29229D01*
X26937Y29399D01*
X27149Y29187D01*
X26979Y29017D01*
X27141Y28950D01*
X27359D01*
X27521Y29017D01*
X27351Y29187D01*
X27563Y29399D01*
X27733Y29229D01*
X27800Y29391D01*
Y29609D01*
X27733Y29771D01*
X27563Y29601D01*
X27351Y29813D01*
X27521Y29983D01*
X27359Y30050D01*
D02*
G37*
G36*
X39609Y28550D02*
X39391D01*
X39229Y28483D01*
X39399Y28313D01*
X39187Y28101D01*
X39017Y28271D01*
X38950Y28109D01*
Y27891D01*
X39017Y27729D01*
X39187Y27899D01*
X39399Y27687D01*
X39229Y27517D01*
X39281Y27496D01*
X39272Y27362D01*
X39249Y27356D01*
X39101Y27270D01*
X38980Y27149D01*
X38894Y27001D01*
X38850Y26836D01*
Y26664D01*
X38894Y26499D01*
X38980Y26351D01*
X39101Y26230D01*
X39156Y26198D01*
Y26052D01*
X39101Y26020D01*
X38980Y25899D01*
X38894Y25751D01*
X38850Y25586D01*
Y25414D01*
X38894Y25249D01*
X38980Y25101D01*
X39081Y25000D01*
X38980Y24899D01*
X38894Y24751D01*
X38850Y24586D01*
Y24414D01*
X38894Y24249D01*
X38980Y24101D01*
X39101Y23980D01*
X39249Y23894D01*
X39414Y23850D01*
X39586D01*
X39751Y23894D01*
X39899Y23980D01*
X40020Y24101D01*
X40106Y24249D01*
X40150Y24414D01*
Y24586D01*
X40106Y24751D01*
X40020Y24899D01*
X39919Y25000D01*
X40020Y25101D01*
X40106Y25249D01*
X40150Y25414D01*
Y25586D01*
X40106Y25751D01*
X40020Y25899D01*
X39899Y26020D01*
X39844Y26052D01*
Y26198D01*
X39899Y26230D01*
X40020Y26351D01*
X40106Y26499D01*
X40150Y26664D01*
Y26836D01*
X40106Y27001D01*
X40020Y27149D01*
X39899Y27270D01*
X39751Y27356D01*
X39728Y27362D01*
X39719Y27496D01*
X39771Y27517D01*
X39601Y27687D01*
X39813Y27899D01*
X39983Y27729D01*
X40050Y27891D01*
Y28109D01*
X39983Y28271D01*
X39813Y28101D01*
X39601Y28313D01*
X39771Y28483D01*
X39609Y28550D01*
D02*
G37*
G36*
X41923Y30745D02*
X41547D01*
X41185Y30648D01*
X40860Y30460D01*
X40595Y30195D01*
X40407Y29870D01*
X40310Y29508D01*
Y29132D01*
X40407Y28770D01*
X40595Y28445D01*
X40860Y28180D01*
X41185Y27992D01*
X41547Y27895D01*
X41923D01*
X42285Y27992D01*
X42610Y28180D01*
X42688Y28258D01*
X42824Y28215D01*
X42930Y28032D01*
X43102Y27860D01*
X43313Y27738D01*
X43548Y27675D01*
X43792D01*
X44027Y27738D01*
X44238Y27860D01*
X44410Y28032D01*
X44532Y28243D01*
X44595Y28478D01*
Y28722D01*
X44532Y28957D01*
X44410Y29168D01*
X44238Y29340D01*
X44027Y29462D01*
X43792Y29525D01*
X43548D01*
X43313Y29462D01*
X43270Y29437D01*
X43178Y29490D01*
X43157Y29519D01*
X43063Y29870D01*
X42875Y30195D01*
X42610Y30460D01*
X42285Y30648D01*
X41923Y30745D01*
D02*
G37*
G36*
X46950Y30995D02*
X46620D01*
X46296Y30931D01*
X45992Y30804D01*
X45717Y30621D01*
X45484Y30388D01*
X45301Y30113D01*
X45174Y29809D01*
X45110Y29485D01*
Y29155D01*
X45174Y28831D01*
X45301Y28527D01*
X45484Y28252D01*
X45717Y28019D01*
X45992Y27836D01*
X46296Y27709D01*
X46620Y27645D01*
X46950D01*
X47274Y27709D01*
X47578Y27836D01*
X47853Y28019D01*
X48086Y28252D01*
X48269Y28527D01*
X48396Y28831D01*
X48460Y29155D01*
Y29485D01*
X48396Y29809D01*
X48269Y30113D01*
X48086Y30388D01*
X47853Y30621D01*
X47578Y30804D01*
X47274Y30931D01*
X46950Y30995D01*
D02*
G37*
G36*
X13359Y27550D02*
X13141D01*
X12979Y27483D01*
X13149Y27313D01*
X12937Y27101D01*
X12767Y27271D01*
X12700Y27109D01*
Y26891D01*
X12767Y26729D01*
X12937Y26899D01*
X13149Y26687D01*
X12979Y26517D01*
X13141Y26450D01*
X13359D01*
X13521Y26517D01*
X13351Y26687D01*
X13563Y26899D01*
X13733Y26729D01*
X13800Y26891D01*
Y27109D01*
X13733Y27271D01*
X13563Y27101D01*
X13351Y27313D01*
X13521Y27483D01*
X13359Y27550D01*
D02*
G37*
G36*
X22661Y26365D02*
X22489D01*
X22324Y26321D01*
X22176Y26235D01*
X22055Y26114D01*
X21969Y25966D01*
X21925Y25801D01*
Y25629D01*
X21969Y25464D01*
X22055Y25316D01*
X22176Y25195D01*
X22324Y25109D01*
X22489Y25065D01*
X22661D01*
X22826Y25109D01*
X22974Y25195D01*
X23095Y25316D01*
X23181Y25464D01*
X23225Y25629D01*
Y25801D01*
X23181Y25966D01*
X23095Y26114D01*
X22974Y26235D01*
X22826Y26321D01*
X22661Y26365D01*
D02*
G37*
G36*
X13359Y24550D02*
X13141D01*
X12979Y24483D01*
X13149Y24313D01*
X12937Y24101D01*
X12767Y24271D01*
X12700Y24109D01*
Y23891D01*
X12767Y23729D01*
X12937Y23899D01*
X13149Y23687D01*
X12979Y23517D01*
X13141Y23450D01*
X13359D01*
X13521Y23517D01*
X13351Y23687D01*
X13563Y23899D01*
X13733Y23729D01*
X13800Y23891D01*
Y24109D01*
X13733Y24271D01*
X13563Y24101D01*
X13351Y24313D01*
X13521Y24483D01*
X13359Y24550D01*
D02*
G37*
G36*
X44086Y25900D02*
X43914D01*
X43749Y25856D01*
X43601Y25770D01*
X43480Y25649D01*
X43394Y25501D01*
X43350Y25336D01*
Y25164D01*
X43394Y24999D01*
X43480Y24851D01*
X43581Y24750D01*
X43480Y24649D01*
X43394Y24501D01*
X43350Y24336D01*
Y24164D01*
X43394Y23999D01*
X43480Y23851D01*
X43601Y23730D01*
X43749Y23644D01*
X43914Y23600D01*
X44086D01*
X44251Y23644D01*
X44399Y23730D01*
X44520Y23851D01*
X44606Y23999D01*
X44650Y24164D01*
Y24336D01*
X44606Y24501D01*
X44520Y24649D01*
X44419Y24750D01*
X44520Y24851D01*
X44606Y24999D01*
X44650Y25164D01*
Y25336D01*
X44606Y25501D01*
X44520Y25649D01*
X44399Y25770D01*
X44251Y25856D01*
X44086Y25900D01*
D02*
G37*
G36*
X44109Y23300D02*
X43891D01*
X43729Y23233D01*
X43899Y23063D01*
X43687Y22851D01*
X43517Y23021D01*
X43450Y22859D01*
Y22641D01*
X43534Y22438D01*
X43536Y22436D01*
X43498Y22294D01*
X43378Y22262D01*
X43167Y22140D01*
X42995Y21968D01*
X42873Y21757D01*
X42864Y21722D01*
X42741Y21689D01*
X42610Y21820D01*
X42285Y22008D01*
X41923Y22105D01*
X41547D01*
X41185Y22008D01*
X40860Y21820D01*
X40595Y21555D01*
X40407Y21230D01*
X40310Y20868D01*
Y20492D01*
X40407Y20130D01*
X40595Y19805D01*
X40860Y19540D01*
X41185Y19352D01*
X41547Y19255D01*
X41923D01*
X42285Y19352D01*
X42610Y19540D01*
X42875Y19805D01*
X43063Y20130D01*
X43160Y20492D01*
Y20517D01*
X43287Y20591D01*
X43378Y20538D01*
X43613Y20475D01*
X43857D01*
X44092Y20538D01*
X44303Y20660D01*
X44475Y20832D01*
X44597Y21043D01*
X44660Y21278D01*
Y21522D01*
X44597Y21757D01*
X44475Y21968D01*
X44303Y22140D01*
X44286Y22150D01*
X44292Y22245D01*
X44101Y22437D01*
X44313Y22649D01*
X44483Y22479D01*
X44550Y22641D01*
Y22859D01*
X44483Y23021D01*
X44313Y22851D01*
X44101Y23063D01*
X44271Y23233D01*
X44109Y23300D01*
D02*
G37*
G36*
X47086Y24150D02*
X46914D01*
X46749Y24106D01*
X46601Y24020D01*
X46480Y23899D01*
X46394Y23751D01*
X46350Y23586D01*
Y23414D01*
X46394Y23249D01*
X46480Y23101D01*
X46601Y22980D01*
X46749Y22894D01*
X46914Y22850D01*
X47086D01*
X47251Y22894D01*
X47399Y22980D01*
X47520Y23101D01*
X47606Y23249D01*
X47650Y23414D01*
Y23586D01*
X47606Y23751D01*
X47520Y23899D01*
X47399Y24020D01*
X47251Y24106D01*
X47086Y24150D01*
D02*
G37*
G36*
X36586Y24900D02*
X36414D01*
X36249Y24856D01*
X36101Y24770D01*
X35980Y24649D01*
X35894Y24501D01*
X35850Y24336D01*
Y24164D01*
X35894Y23999D01*
X35980Y23851D01*
X36081Y23750D01*
X35980Y23649D01*
X35894Y23501D01*
X35850Y23336D01*
Y23164D01*
X35894Y22999D01*
X35980Y22851D01*
X36101Y22730D01*
X36249Y22644D01*
X36414Y22600D01*
X36586D01*
X36751Y22644D01*
X36899Y22730D01*
X37020Y22851D01*
X37106Y22999D01*
X37150Y23164D01*
Y23336D01*
X37106Y23501D01*
X37020Y23649D01*
X36919Y23750D01*
X37020Y23851D01*
X37106Y23999D01*
X37150Y24164D01*
Y24336D01*
X37106Y24501D01*
X37020Y24649D01*
X36899Y24770D01*
X36751Y24856D01*
X36586Y24900D01*
D02*
G37*
G36*
X36609Y22050D02*
X36391D01*
X36229Y21983D01*
X36399Y21813D01*
X36187Y21601D01*
X36017Y21771D01*
X35950Y21609D01*
Y21391D01*
X36017Y21229D01*
X36187Y21399D01*
X36399Y21187D01*
X36229Y21017D01*
X36391Y20950D01*
X36609D01*
X36771Y21017D01*
X36601Y21187D01*
X36813Y21399D01*
X36983Y21229D01*
X37050Y21391D01*
Y21609D01*
X36983Y21771D01*
X36813Y21601D01*
X36601Y21813D01*
X36771Y21983D01*
X36609Y22050D01*
D02*
G37*
G36*
X13336Y21650D02*
X13164D01*
X12999Y21606D01*
X12851Y21520D01*
X12730Y21399D01*
X12644Y21251D01*
X12600Y21086D01*
Y20914D01*
X12644Y20749D01*
X12730Y20601D01*
X12851Y20480D01*
X12999Y20394D01*
X13164Y20350D01*
X13336D01*
X13501Y20394D01*
X13649Y20480D01*
X13770Y20601D01*
X13856Y20749D01*
X13900Y20914D01*
Y21086D01*
X13856Y21251D01*
X13770Y21399D01*
X13649Y21520D01*
X13501Y21606D01*
X13336Y21650D01*
D02*
G37*
G36*
X46950Y22355D02*
X46620D01*
X46296Y22291D01*
X45992Y22164D01*
X45717Y21981D01*
X45484Y21748D01*
X45301Y21473D01*
X45174Y21169D01*
X45110Y20845D01*
Y20515D01*
X45174Y20191D01*
X45301Y19887D01*
X45484Y19612D01*
X45717Y19379D01*
X45992Y19196D01*
X46296Y19069D01*
X46620Y19005D01*
X46950D01*
X47274Y19069D01*
X47578Y19196D01*
X47853Y19379D01*
X48086Y19612D01*
X48269Y19887D01*
X48396Y20191D01*
X48460Y20515D01*
Y20845D01*
X48396Y21169D01*
X48269Y21473D01*
X48086Y21748D01*
X47853Y21981D01*
X47578Y22164D01*
X47274Y22291D01*
X46950Y22355D01*
D02*
G37*
G36*
X44859Y17050D02*
X44641D01*
X44479Y16983D01*
X44649Y16813D01*
X44437Y16601D01*
X44267Y16771D01*
X44200Y16609D01*
Y16391D01*
X44267Y16229D01*
X44437Y16399D01*
X44649Y16187D01*
X44479Y16017D01*
X44641Y15950D01*
X44859D01*
X45021Y16017D01*
X44851Y16187D01*
X45063Y16399D01*
X45233Y16229D01*
X45300Y16391D01*
Y16609D01*
X45233Y16771D01*
X45063Y16601D01*
X44851Y16813D01*
X45021Y16983D01*
X44859Y17050D01*
D02*
G37*
G36*
X35359Y14300D02*
X35141D01*
X34979Y14233D01*
X35149Y14063D01*
X34937Y13851D01*
X34767Y14021D01*
X34700Y13859D01*
Y13641D01*
X34784Y13438D01*
X34863Y13360D01*
X34851Y13270D01*
X34730Y13149D01*
X34644Y13001D01*
X34600Y12836D01*
Y12664D01*
X34644Y12499D01*
X34730Y12351D01*
X34851Y12230D01*
X34999Y12144D01*
X35164Y12100D01*
X35336D01*
X35501Y12144D01*
X35649Y12230D01*
X35770Y12351D01*
X35856Y12499D01*
X35900Y12664D01*
Y12836D01*
X35856Y13001D01*
X35770Y13149D01*
X35649Y13270D01*
X35637Y13360D01*
X35716Y13438D01*
X35800Y13641D01*
Y13859D01*
X35733Y14021D01*
X35563Y13851D01*
X35351Y14063D01*
X35521Y14233D01*
X35359Y14300D01*
D02*
G37*
G36*
X4609Y14050D02*
X4391D01*
X4229Y13983D01*
X4399Y13813D01*
X4187Y13601D01*
X4017Y13771D01*
X3950Y13609D01*
Y13391D01*
X4017Y13229D01*
X4187Y13399D01*
X4399Y13187D01*
X4229Y13017D01*
X4391Y12950D01*
X4609D01*
X4771Y13017D01*
X4601Y13187D01*
X4813Y13399D01*
X4983Y13229D01*
X5050Y13391D01*
Y13609D01*
X4983Y13771D01*
X4813Y13601D01*
X4601Y13813D01*
X4771Y13983D01*
X4609Y14050D01*
D02*
G37*
G36*
X22586Y14900D02*
X22414D01*
X22249Y14856D01*
X22101Y14770D01*
X21980Y14649D01*
X21894Y14501D01*
X21850Y14336D01*
Y14164D01*
X21894Y13999D01*
X21980Y13851D01*
X22101Y13730D01*
X22249Y13644D01*
X22414Y13600D01*
X22586D01*
X22751Y13644D01*
X22899Y13730D01*
X23020Y13851D01*
X23106Y13999D01*
X23150Y14164D01*
Y14336D01*
X23106Y14501D01*
X23020Y14649D01*
X22899Y14770D01*
X22751Y14856D01*
X22586Y14900D01*
D02*
G37*
G36*
X39586Y14400D02*
X39414D01*
X39249Y14356D01*
X39101Y14270D01*
X38980Y14149D01*
X38894Y14001D01*
X38850Y13836D01*
Y13664D01*
X38894Y13499D01*
X38980Y13351D01*
X39101Y13230D01*
X39249Y13144D01*
X39414Y13100D01*
X39586D01*
X39751Y13144D01*
X39899Y13230D01*
X40020Y13351D01*
X40106Y13499D01*
X40150Y13664D01*
Y13836D01*
X40106Y14001D01*
X40020Y14149D01*
X39899Y14270D01*
X39751Y14356D01*
X39586Y14400D01*
D02*
G37*
G36*
X43859Y10550D02*
X43641D01*
X43479Y10483D01*
X43649Y10313D01*
X43437Y10101D01*
X43267Y10271D01*
X43200Y10109D01*
Y9891D01*
X43267Y9729D01*
X43437Y9899D01*
X43649Y9687D01*
X43479Y9517D01*
X43641Y9450D01*
X43859D01*
X44021Y9517D01*
X43851Y9687D01*
X44063Y9899D01*
X44233Y9729D01*
X44300Y9891D01*
Y10109D01*
X44233Y10271D01*
X44063Y10101D01*
X43851Y10313D01*
X44021Y10483D01*
X43859Y10550D01*
D02*
G37*
G36*
X38609D02*
X38391D01*
X38229Y10483D01*
X38399Y10313D01*
X38187Y10101D01*
X38017Y10271D01*
X37950Y10109D01*
Y9891D01*
X38017Y9729D01*
X38187Y9899D01*
X38399Y9687D01*
X38229Y9517D01*
X38391Y9450D01*
X38609D01*
X38771Y9517D01*
X38601Y9687D01*
X38813Y9899D01*
X38983Y9729D01*
X39050Y9891D01*
Y10109D01*
X38983Y10271D01*
X38813Y10101D01*
X38601Y10313D01*
X38771Y10483D01*
X38609Y10550D01*
D02*
G37*
G36*
X36609D02*
X36391D01*
X36229Y10483D01*
X36399Y10313D01*
X36187Y10101D01*
X36017Y10271D01*
X35950Y10109D01*
Y9891D01*
X36017Y9729D01*
X36187Y9899D01*
X36399Y9687D01*
X36229Y9517D01*
X36391Y9450D01*
X36609D01*
X36771Y9517D01*
X36601Y9687D01*
X36813Y9899D01*
X36983Y9729D01*
X37050Y9891D01*
Y10109D01*
X36983Y10271D01*
X36813Y10101D01*
X36601Y10313D01*
X36771Y10483D01*
X36609Y10550D01*
D02*
G37*
G36*
X41586Y10650D02*
X41414D01*
X41249Y10606D01*
X41101Y10520D01*
X40980Y10399D01*
X40894Y10251D01*
X40850Y10086D01*
Y9914D01*
X40894Y9749D01*
X40980Y9601D01*
X41101Y9480D01*
X41249Y9394D01*
X41414Y9350D01*
X41586D01*
X41751Y9394D01*
X41899Y9480D01*
X42020Y9601D01*
X42106Y9749D01*
X42150Y9914D01*
Y10086D01*
X42106Y10251D01*
X42020Y10399D01*
X41899Y10520D01*
X41751Y10606D01*
X41586Y10650D01*
D02*
G37*
G36*
X23870Y6062D02*
X23590D01*
X23320Y5990D01*
X23087Y5855D01*
X23252Y5690D01*
X23040Y5478D01*
X22875Y5643D01*
X22740Y5410D01*
X22667Y5140D01*
Y4860D01*
X22740Y4590D01*
X22875Y4357D01*
X23040Y4522D01*
X23252Y4310D01*
X23087Y4145D01*
X23320Y4010D01*
X23590Y3938D01*
X23870D01*
X24140Y4010D01*
X24373Y4145D01*
X24208Y4310D01*
X24420Y4522D01*
X24585Y4357D01*
X24720Y4590D01*
X24792Y4860D01*
Y5140D01*
X24720Y5410D01*
X24585Y5643D01*
X24420Y5478D01*
X24208Y5690D01*
X24373Y5855D01*
X24140Y5990D01*
X23870Y6062D01*
D02*
G37*
G36*
X26423Y6162D02*
X26117D01*
X25821Y6083D01*
X25556Y5930D01*
X25340Y5714D01*
X25187Y5449D01*
X25108Y5153D01*
Y4847D01*
X25187Y4551D01*
X25340Y4286D01*
X25556Y4070D01*
X25821Y3917D01*
X26117Y3838D01*
X26423D01*
X26719Y3917D01*
X26984Y4070D01*
X27200Y4286D01*
X27353Y4551D01*
X27433Y4847D01*
Y5153D01*
X27353Y5449D01*
X27200Y5714D01*
X26984Y5930D01*
X26719Y6083D01*
X26423Y6162D01*
D02*
G37*
G36*
X45760Y7800D02*
X45240D01*
X44727Y7719D01*
X44233Y7558D01*
X43770Y7322D01*
X43350Y7017D01*
X42983Y6650D01*
X42678Y6230D01*
X42442Y5767D01*
X42281Y5273D01*
X42200Y4760D01*
Y4240D01*
X42281Y3727D01*
X42442Y3233D01*
X42678Y2770D01*
X42983Y2350D01*
X43350Y1983D01*
X43770Y1678D01*
X44233Y1442D01*
X44727Y1281D01*
X45240Y1200D01*
X45760D01*
X46273Y1281D01*
X46767Y1442D01*
X47230Y1678D01*
X47650Y1983D01*
X48017Y2350D01*
X48322Y2770D01*
X48558Y3233D01*
X48719Y3727D01*
X48800Y4240D01*
Y4760D01*
X48719Y5273D01*
X48558Y5767D01*
X48322Y6230D01*
X48017Y6650D01*
X47650Y7017D01*
X47230Y7322D01*
X46767Y7558D01*
X46273Y7719D01*
X45760Y7800D01*
D02*
G37*
G36*
X4760D02*
X4240D01*
X3727Y7719D01*
X3233Y7558D01*
X2770Y7322D01*
X2350Y7017D01*
X1983Y6650D01*
X1678Y6230D01*
X1442Y5767D01*
X1281Y5273D01*
X1200Y4760D01*
Y4240D01*
X1281Y3727D01*
X1442Y3233D01*
X1678Y2770D01*
X1983Y2350D01*
X2350Y1983D01*
X2770Y1678D01*
X3233Y1442D01*
X3727Y1281D01*
X4240Y1200D01*
X4760D01*
X5273Y1281D01*
X5767Y1442D01*
X6230Y1678D01*
X6650Y1983D01*
X7017Y2350D01*
X7322Y2770D01*
X7558Y3233D01*
X7719Y3727D01*
X7800Y4240D01*
Y4760D01*
X7719Y5273D01*
X7558Y5767D01*
X7322Y6230D01*
X7017Y6650D01*
X6650Y7017D01*
X6230Y7322D01*
X5767Y7558D01*
X5273Y7719D01*
X4760Y7800D01*
D02*
G37*
%LPD*%
D25*
X45500Y4500D02*
D03*
X4500D02*
D03*
X45500Y45500D02*
D03*
X4500D02*
D03*
D26*
X16110Y33190D02*
D03*
X33890D02*
D03*
X31350D02*
D03*
X28810D02*
D03*
X26270D02*
D03*
X23730D02*
D03*
X21190D02*
D03*
X18650D02*
D03*
X33890Y40810D02*
D03*
X31350D02*
D03*
X28810D02*
D03*
X26270D02*
D03*
X23730D02*
D03*
X21190D02*
D03*
X18650D02*
D03*
X16110D02*
D03*
D27*
X37500Y45395D02*
D03*
X12500D02*
D03*
X25000Y82795D02*
D03*
D28*
X43735Y21400D02*
D03*
X43670Y28600D02*
D03*
D29*
X46785Y29320D02*
D03*
Y20680D02*
D03*
D30*
X41735Y29320D02*
D03*
Y20680D02*
D03*
D31*
X26270Y5000D02*
D03*
X23730D02*
D03*
D32*
X36500Y21500D02*
D03*
X22575Y25715D02*
D03*
X13250Y27000D02*
D03*
Y21000D02*
D03*
X4500Y13500D02*
D03*
X13250Y24000D02*
D03*
X39500Y13750D02*
D03*
Y28000D02*
D03*
X47000Y23500D02*
D03*
X39500Y26750D02*
D03*
X44000Y22750D02*
D03*
X44750Y33500D02*
D03*
Y16500D02*
D03*
X44000Y24250D02*
D03*
X36500Y24250D02*
D03*
Y23250D02*
D03*
X44000Y25250D02*
D03*
X39500Y24500D02*
D03*
Y25500D02*
D03*
X27250Y29500D02*
D03*
X22500Y14250D02*
D03*
X43750Y10000D02*
D03*
X41500D02*
D03*
X35250Y13750D02*
D03*
Y12750D02*
D03*
X38500Y10000D02*
D03*
X36500D02*
D03*
%TF.MD5,23de39278973ead4cf25dc5f4b9700ed*%
M02*
