M48
;Layer_Color=9474304
;FILE_FORMAT=4:3
METRIC,LZ
;TYPE=PLATED
T01F00S00C0.300
T02F00S00C0.750
T03F00S00C0.900
T04F00S00C1.150
T05F00S00C1.500
T06F00S00C1.750
T07F00S00C3.200
T08F00S00C3.500
%
T01
X00045Y00135
X00225Y001425
X003525Y001375
Y001275
X00365Y001
X00385
X00415
X004375
X00395Y001375
X004475Y00165
X0044Y002275
Y002425
Y002525
X00395Y00255
Y00245
Y002675
Y0028
X00365Y002425
Y002325
Y00215
X0047Y00235
X004475Y00335
X002725Y00295
X0022575Y0025715
X001325Y0027
Y0024
Y0021
T02
X0043735Y00214
X004367Y00286
T03
X001611Y003319
X001865
X002119
X002373
X002627
X002881
X003135
X003389
Y004081
X003135
X002881
X002627
X002373
X002119
X001865
X001611
T04
X002373Y0005
X002627
T05
X0041735Y002068
Y002932
T06
X0046785Y002068
Y002932
T07
X00375Y0045395
X00125
X0025Y0082795
T08
X00045Y00045
X00455
Y00455
X00045
M30
