%TF.GenerationSoftware,Altium Limited,Altium Designer,25.2.1 (25)*%
G04 Layer_Physical_Order=1*
G04 Layer_Color=255*
%FSLAX43Y43*%
%MOMM*%
%TF.SameCoordinates,D3577A82-B172-4AAC-A9F5-C134510085F9*%
%TF.FilePolarity,Positive*%
%TF.FileFunction,Copper,L1,Top,Signal*%
%TF.Part,Single*%
G01*
G75*
%TA.AperFunction,NonConductor*%
%ADD10C,0.203*%
%TA.AperFunction,Conductor*%
%ADD11C,0.230*%
%TA.AperFunction,SMDPad,CuDef*%
%ADD12R,0.700X0.650*%
%ADD13R,0.650X0.700*%
%ADD14R,1.900X0.400*%
%ADD15R,1.850X0.650*%
%ADD16R,0.800X0.270*%
%ADD17R,0.900X0.270*%
%ADD18R,1.250X0.600*%
%ADD19R,0.475X0.300*%
G04:AMPARAMS|DCode=20|XSize=1.25mm|YSize=0.6mm|CornerRadius=0.06mm|HoleSize=0mm|Usage=FLASHONLY|Rotation=180.000|XOffset=0mm|YOffset=0mm|HoleType=Round|Shape=RoundedRectangle|*
%AMROUNDEDRECTD20*
21,1,1.250,0.480,0,0,180.0*
21,1,1.130,0.600,0,0,180.0*
1,1,0.120,-0.565,0.240*
1,1,0.120,0.565,0.240*
1,1,0.120,0.565,-0.240*
1,1,0.120,-0.565,-0.240*
%
%ADD20ROUNDEDRECTD20*%
%TA.AperFunction,NonConductor*%
%ADD21C,0.300*%
%TA.AperFunction,Conductor*%
%ADD22C,0.400*%
%ADD23C,0.200*%
%ADD24C,0.300*%
%TA.AperFunction,ComponentPad*%
%ADD25C,6.000*%
%ADD26C,1.400*%
%ADD27C,5.000*%
%ADD28C,1.250*%
%ADD29C,2.750*%
%ADD30C,2.250*%
%ADD31C,1.725*%
%TA.AperFunction,ViaPad*%
%ADD32C,0.700*%
D10*
X49498Y45500D02*
G03*
X45500Y49498I-3998J0D01*
G01*
X45402Y33500D02*
G03*
X45402Y33500I-652J0D01*
G01*
X48902Y45500D02*
G03*
X48902Y45500I-3402J0D01*
G01*
X48562Y29320D02*
G03*
X45099Y29881I-1777J0D01*
G01*
X45517Y28076D02*
G03*
X48562Y29320I1268J1244D01*
G01*
X45365Y26885D02*
G03*
X45517Y27250I-365J365D01*
G01*
X45364Y26884D02*
G03*
X45517Y27250I-364J366D01*
G01*
X49498Y21736D02*
G03*
X49390Y21890I-498J-236D01*
G01*
X49498Y21736D02*
G03*
X49390Y21890I-498J-236D01*
G01*
X47751Y23529D02*
G03*
X46673Y24177I-751J-29D01*
G01*
X46381Y23073D02*
G03*
X46971Y22749I619J427D01*
G01*
X43925Y29595D02*
G03*
X43246Y29535I-255J-995D01*
G01*
X42808Y30925D02*
G03*
X42961Y30559I517J0D01*
G01*
X42808Y30925D02*
G03*
X42960Y30560I517J0D01*
G01*
X43246Y29535D02*
G03*
X40589Y28312I-1511J-215D01*
G01*
X44561Y24750D02*
G03*
X44752Y25250I-561J500D01*
G01*
Y24250D02*
G03*
X44561Y24750I-752J0D01*
G01*
X44752Y25250D02*
G03*
X44380Y25899I-752J0D01*
G01*
X44365Y22210D02*
G03*
X44652Y22750I-365J540D01*
G01*
X44762Y21400D02*
G03*
X44365Y22210I-1027J0D01*
G01*
X42599Y28062D02*
G03*
X42738Y28169I-864J1258D01*
G01*
D02*
G03*
X42796Y28062I932J431D01*
G01*
X41787Y27794D02*
G03*
X41887Y27801I-52J1526D01*
G01*
X44652Y22750D02*
G03*
X44566Y23073I-652J0D01*
G01*
X41933Y22194D02*
G03*
X41833Y22203I-198J-1514D01*
G01*
X40402Y45395D02*
G03*
X40402Y45395I-2902J0D01*
G01*
X34992Y40810D02*
G03*
X34992Y40810I-1102J0D01*
G01*
X40152Y28000D02*
G03*
X39182Y27431I-652J0D01*
G01*
X34892Y33190D02*
G03*
X34892Y33190I-1002J0D01*
G01*
X31852Y32209D02*
G03*
X32452Y33190I-502J981D01*
G01*
X30427Y40208D02*
G03*
X32452Y40810I923J602D01*
G01*
Y33190D02*
G03*
X30848Y32209I-1102J0D01*
G01*
X32452Y40810D02*
G03*
X30427Y41412I-1102J0D01*
G01*
X29312Y32209D02*
G03*
X29912Y33190I-502J981D01*
G01*
X31704Y28994D02*
G03*
X31852Y29350I-354J356D01*
G01*
X31705Y28995D02*
G03*
X31852Y29350I-355J355D01*
G01*
X39818Y27431D02*
G03*
X40152Y28000I-318J569D01*
G01*
X40183Y27063D02*
G03*
X39818Y27431I-683J-313D01*
G01*
X39182D02*
G03*
X39083Y26125I318J-681D01*
G01*
D02*
G03*
X38939Y25000I417J-625D01*
G01*
X39121Y23851D02*
G03*
X38983Y23500I379J-351D01*
G01*
X38939Y25000D02*
G03*
X39121Y23851I561J-500D01*
G01*
D02*
G03*
X38983Y23500I379J-351D01*
G01*
X37061Y23750D02*
G03*
X37252Y24250I-561J500D01*
G01*
D02*
G03*
X35902Y24705I-752J0D01*
G01*
X37252Y23250D02*
G03*
X37061Y23750I-752J0D01*
G01*
X35902Y22795D02*
G03*
X37252Y23250I598J455D01*
G01*
X29750Y27248D02*
G03*
X30106Y27396I0J502D01*
G01*
X29750Y27248D02*
G03*
X30105Y27395I0J502D01*
G01*
X32145Y21145D02*
G03*
X32500Y20998I355J355D01*
G01*
X32144Y21146D02*
G03*
X32500Y20998I356J354D01*
G01*
X47358Y22362D02*
G03*
X48448Y20056I-573J-1682D01*
G01*
X49390Y17360D02*
G03*
X49498Y17514I-390J390D01*
G01*
X49390Y17360D02*
G03*
X49498Y17514I-390J390D01*
G01*
X45223Y16052D02*
G03*
X45402Y16500I-473J448D01*
G01*
X46750Y14948D02*
G03*
X47140Y15110I0J552D01*
G01*
X46750Y14948D02*
G03*
X47140Y15110I0J552D01*
G01*
X44777Y13140D02*
G03*
X44315Y13602I-462J0D01*
G01*
X43250Y20495D02*
G03*
X44762Y21400I485J905D01*
G01*
X40871Y21938D02*
G03*
X43250Y20495I864J-1258D01*
G01*
X45402Y16500D02*
G03*
X44277Y16052I-652J0D01*
G01*
X43185Y13602D02*
G03*
X42725Y13177I0J-462D01*
G01*
X44315Y12198D02*
G03*
X44777Y12660I0J462D01*
G01*
X44677Y11340D02*
G03*
X44315Y11702I-362J0D01*
G01*
Y10498D02*
G03*
X44677Y10860I0J362D01*
G01*
X44402Y10000D02*
G03*
X44170Y10498I-652J0D01*
G01*
X45500Y502D02*
G03*
X49498Y4500I0J3998D01*
G01*
X43200Y12173D02*
G03*
X43356Y12198I0J502D01*
G01*
X43200Y12173D02*
G03*
X43356Y12198I0J502D01*
G01*
X43185Y11702D02*
G03*
X42823Y11340I0J-362D01*
G01*
Y10860D02*
G03*
X43185Y10498I362J0D01*
G01*
X42252Y10000D02*
G03*
X42002Y10560I-752J0D01*
G01*
X43330Y10498D02*
G03*
X44402Y10000I420J-498D01*
G01*
X48902Y4500D02*
G03*
X48902Y4500I-3402J0D01*
G01*
X40998Y10560D02*
G03*
X42252Y10000I502J-560D01*
G01*
X41250Y16052D02*
G03*
X40860Y15890I0J-552D01*
G01*
X40634Y17636D02*
G03*
X41000Y17483I366J364D01*
G01*
X40635Y17635D02*
G03*
X41000Y17483I365J365D01*
G01*
X37152Y21500D02*
G03*
X37152Y21500I-652J0D01*
G01*
X38983Y19500D02*
G03*
X39135Y19135I517J0D01*
G01*
X38983Y19500D02*
G03*
X39136Y19134I517J0D01*
G01*
X41250Y16052D02*
G03*
X40860Y15890I0J-552D01*
G01*
X39860Y14890D02*
G03*
X39698Y14500I390J-390D01*
G01*
X39860Y14890D02*
G03*
X39698Y14500I390J-390D01*
G01*
Y14475D02*
G03*
X38897Y13302I-198J-725D01*
G01*
X35740Y13320D02*
G03*
X35902Y13750I-490J430D01*
G01*
D02*
G03*
X34760Y13320I-652J0D01*
G01*
X38897Y13302D02*
G03*
X38977Y13210I603J448D01*
G01*
X40748Y11764D02*
G03*
X40799Y11948I-498J236D01*
G01*
X40748Y11764D02*
G03*
X40799Y11948I-498J236D01*
G01*
X40640Y11610D02*
G03*
X40748Y11764I-390J390D01*
G01*
X40640Y11610D02*
G03*
X40748Y11764I-390J390D01*
G01*
X40000Y11198D02*
G03*
X40390Y11360I0J552D01*
G01*
X40000Y11198D02*
G03*
X40390Y11360I0J552D01*
G01*
X39152Y10000D02*
G03*
X39152Y10000I-652J0D01*
G01*
X36002Y12752D02*
G03*
X35740Y13320I-752J-2D01*
G01*
X34760D02*
G03*
X34647Y12302I490J-570D01*
G01*
X29000D02*
G03*
X28610Y12140I0J-552D01*
G01*
X29000Y12302D02*
G03*
X28610Y12140I0J-552D01*
G01*
X37152Y10000D02*
G03*
X37152Y10000I-652J0D01*
G01*
X29733Y41412D02*
G03*
X29733Y40208I-923J-602D01*
G01*
X27372Y40810D02*
G03*
X27372Y40810I-1102J0D01*
G01*
X24832D02*
G03*
X24832Y40810I-1102J0D01*
G01*
X29912Y33190D02*
G03*
X28308Y32209I-1102J0D01*
G01*
X27372Y33190D02*
G03*
X27372Y33190I-1102J0D01*
G01*
X24232Y32209D02*
G03*
X24832Y33190I-502J981D01*
G01*
D02*
G03*
X23228Y32209I-1102J0D01*
G01*
X22292Y40810D02*
G03*
X22292Y40810I-1102J0D01*
G01*
X21692Y32209D02*
G03*
X22292Y33190I-502J981D01*
G01*
D02*
G03*
X20688Y32209I-1102J0D01*
G01*
X27902Y29500D02*
G03*
X27902Y29500I-652J0D01*
G01*
X25752Y30000D02*
G03*
X25604Y30356I-502J0D01*
G01*
X25752Y30000D02*
G03*
X25605Y30355I-502J0D01*
G01*
X27500Y28252D02*
G03*
X27145Y28105I0J-502D01*
G01*
X27500Y28252D02*
G03*
X27144Y28104I0J-502D01*
G01*
X25895Y26855D02*
G03*
X25752Y26557I355J-355D01*
G01*
X25896Y26856D02*
G03*
X25752Y26557I354J-356D01*
G01*
X24748Y28807D02*
G03*
X24604Y29106I-498J-57D01*
G01*
X24748Y28807D02*
G03*
X24605Y29105I-498J-57D01*
G01*
X23228Y31520D02*
G03*
X23375Y31165I502J0D01*
G01*
X23228Y31520D02*
G03*
X23376Y31164I502J0D01*
G01*
X22015Y25213D02*
G03*
X23327Y25715I560J502D01*
G01*
D02*
G03*
X22015Y26217I-752J0D01*
G01*
X17212Y40810D02*
G03*
X17212Y40810I-1102J0D01*
G01*
X15401Y45395D02*
G03*
X15401Y45395I-2902J0D01*
G01*
X4500Y49498D02*
G03*
X502Y45500I0J-3998D01*
G01*
X7902D02*
G03*
X7902Y45500I-3402J0D01*
G01*
X19752Y33190D02*
G03*
X19752Y33190I-1102J0D01*
G01*
X20688Y31810D02*
G03*
X20835Y31455I502J0D01*
G01*
X20688Y31810D02*
G03*
X20836Y31455I502J0D01*
G01*
X19752Y40810D02*
G03*
X19752Y40810I-1102J0D01*
G01*
X17105Y27355D02*
G03*
X16902Y27478I-355J-355D01*
G01*
X17106Y27354D02*
G03*
X16902Y27478I-356J-354D01*
G01*
X17699Y24091D02*
G03*
X18055Y23943I356J354D01*
G01*
X17700Y24090D02*
G03*
X18055Y23943I355J355D01*
G01*
X17212Y33190D02*
G03*
X17212Y33190I-1102J0D01*
G01*
X13902Y27000D02*
G03*
X13902Y27000I-652J0D01*
G01*
X23748Y17750D02*
G03*
X23896Y17394I502J0D01*
G01*
X23748Y17750D02*
G03*
X23895Y17395I502J0D01*
G01*
X27360Y13930D02*
G03*
X27715Y13783I355J355D01*
G01*
X27359Y13931D02*
G03*
X27715Y13783I356J354D01*
G01*
X27534Y5000D02*
G03*
X26822Y6137I-1264J0D01*
G01*
X25880Y9410D02*
G03*
X25718Y9020I390J-390D01*
G01*
X25880Y9410D02*
G03*
X25718Y9020I390J-390D01*
G01*
Y6137D02*
G03*
X27534Y5000I552J-1137D01*
G01*
X21940Y13748D02*
G03*
X23252Y14250I560J502D01*
G01*
D02*
G03*
X21940Y14752I-752J0D01*
G01*
X24894Y5000D02*
G03*
X24894Y5000I-1164J0D01*
G01*
X17925Y23677D02*
G03*
X17569Y23529I0J-502D01*
G01*
X17925Y23677D02*
G03*
X17570Y23530I0J-502D01*
G01*
X17000Y20498D02*
G03*
X17356Y20646I0J502D01*
G01*
X17000Y20498D02*
G03*
X17355Y20645I0J502D01*
G01*
X13902Y24000D02*
G03*
X13902Y24000I-652J0D01*
G01*
X13810Y21502D02*
G03*
X13810Y20498I-560J-502D01*
G01*
X5152Y13500D02*
G03*
X5152Y13500I-652J0D01*
G01*
X7902Y4500D02*
G03*
X5052Y7857I-3402J0D01*
G01*
X3948D02*
G03*
X7902Y4500I552J-3357D01*
G01*
X502D02*
G03*
X4500Y502I3998J0D01*
G01*
X48514Y47077D02*
X48953Y47516D01*
X48238Y47519D02*
X48664Y47945D01*
X48866Y45992D02*
X49372Y46498D01*
X48728Y46573D02*
X49192Y47036D01*
X48234Y47524D02*
X49407Y46351D01*
X47534Y48943D02*
X48943Y47534D01*
X48826Y46213D02*
X49498Y45541D01*
X48896Y45304D02*
X49480Y45887D01*
X48824Y44778D02*
X49498Y44104D01*
X48901Y45420D02*
X49498Y44823D01*
X48655Y44229D02*
X49498Y43386D01*
X48723Y44413D02*
X49498Y45188D01*
X48416Y43749D02*
X49498Y42667D01*
X45304Y48896D02*
X45887Y49480D01*
X44823Y49498D02*
X45420Y48901D01*
X46351Y49407D02*
X47524Y48234D01*
X45541Y49498D02*
X46213Y48826D01*
X44413Y48723D02*
X45188Y49498D01*
X44104D02*
X44778Y48824D01*
X43386Y49498D02*
X44229Y48655D01*
X47905Y47905D02*
X48327Y48327D01*
X47519Y48238D02*
X47945Y48664D01*
X47905Y47905D02*
X48327Y48327D01*
X46573Y48728D02*
X47036Y49192D01*
X45992Y48866D02*
X46498Y49372D01*
X47077Y48514D02*
X47516Y48953D01*
X45748Y42107D02*
X49498Y38357D01*
X46364Y42210D02*
X49498Y39075D01*
Y21736D02*
Y45500D01*
X45317Y33822D02*
X49498Y38004D01*
X43942Y42476D02*
X49498Y36920D01*
X45002Y42135D02*
X49498Y37638D01*
X44908Y34132D02*
X49498Y38722D01*
X46898Y31093D02*
X49498Y33693D01*
X45302Y31652D02*
X49498Y35848D01*
X46001Y30914D02*
X49498Y34412D01*
X47479Y30955D02*
X49498Y32975D01*
X45302Y32370D02*
X49498Y36567D01*
X44865Y32652D02*
X49498Y37285D01*
X44675Y30306D02*
X49498Y35130D01*
X47766Y42963D02*
X49498Y41230D01*
X48119Y43329D02*
X49498Y41949D01*
X46895Y42397D02*
X49498Y39794D01*
X47359Y42651D02*
X49498Y40512D01*
X44925Y32872D02*
X45146Y32652D01*
X45324Y33192D02*
X47636Y30879D01*
X43528Y32752D02*
X44118Y33342D01*
X44146Y32652D02*
X44428Y32933D01*
X42667Y49498D02*
X43749Y48416D01*
X41949Y49498D02*
X43329Y48119D01*
X40401Y45430D02*
X44469Y49498D01*
X40322Y46069D02*
X43751Y49498D01*
X40138Y46604D02*
X43033Y49498D01*
X29017D02*
X44442Y34074D01*
X40310Y44672D02*
X49498Y35483D01*
X40400Y45300D02*
X49498Y36202D01*
X39851Y43694D02*
X49498Y34046D01*
X40118Y44145D02*
X49498Y34765D01*
X34156Y34156D02*
X43095Y43095D01*
X34156Y34156D02*
X43095Y43095D01*
X34607Y33889D02*
X43481Y42762D01*
X40512Y49498D02*
X42651Y47359D01*
X39548Y47451D02*
X41596Y49498D01*
X39794D02*
X42397Y46895D01*
X39876Y47060D02*
X42314Y49498D01*
X39075D02*
X42210Y46364D01*
X38357Y49498D02*
X42107Y45748D01*
X37638Y49498D02*
X42135Y45002D01*
X41230Y49498D02*
X42963Y47766D01*
X40291Y44602D02*
X42277Y46587D01*
X40313Y46105D02*
X42476Y43942D01*
X31955Y34110D02*
X42272Y44427D01*
X31416Y34290D02*
X42134Y45008D01*
X32304Y33741D02*
X42486Y43923D01*
X39120Y42988D02*
X49498Y32609D01*
X39517Y43309D02*
X49498Y33328D01*
X36596Y42638D02*
X49498Y29736D01*
X38656Y42734D02*
X49498Y31891D01*
X30919Y25172D02*
X49498Y43751D01*
X30902Y25873D02*
X49498Y44469D01*
X31002Y24536D02*
X49498Y43033D01*
X38112Y42559D02*
X49498Y31173D01*
X42810Y32752D02*
X49498Y39441D01*
X34591Y25252D02*
X49498Y40159D01*
X37459Y42494D02*
X49498Y30454D01*
X33873Y25252D02*
X49498Y40877D01*
X33154Y25252D02*
X49498Y41596D01*
X31690Y24505D02*
X49498Y42314D01*
X34863Y33426D02*
X43923Y42486D01*
X32451Y33170D02*
X42762Y43481D01*
X30652Y26342D02*
X46587Y42277D01*
X31852Y29696D02*
X44427Y42272D01*
X29215Y26342D02*
X45008Y42134D01*
X29876Y33468D02*
X42104Y45696D01*
X29934Y26342D02*
X45696Y42104D01*
X34981Y40661D02*
X42890Y32752D01*
X34773Y40151D02*
X42598Y32325D01*
X34381Y39824D02*
X42598Y31607D01*
X32371Y40397D02*
X41935Y30833D01*
X32072Y39978D02*
X41274Y30775D01*
X33772Y39715D02*
X43882Y29604D01*
X48492Y29813D02*
X49498Y30819D01*
X48264Y30304D02*
X49498Y31538D01*
X48344Y30171D02*
X49498Y29017D01*
X48554Y29157D02*
X49498Y30101D01*
X47925Y30683D02*
X49498Y32256D01*
X48430Y28649D02*
X49498Y27580D01*
X48560Y29238D02*
X49498Y28299D01*
X47788Y27854D02*
X49498Y26144D01*
X48162Y28198D02*
X49498Y26862D01*
X46657Y27548D02*
X49498Y24707D01*
X47303Y27621D02*
X49498Y25425D01*
X47211Y24221D02*
X49498Y26509D01*
X45302Y31348D02*
Y32652D01*
X45146D02*
X45302Y32496D01*
X46703Y31095D01*
X45302Y31777D02*
X46114Y30965D01*
X45012Y31348D02*
X45663Y30697D01*
X45034Y29947D02*
X45191Y30104D01*
X45517Y27556D02*
X45801Y27841D01*
X45517Y27250D02*
Y28076D01*
X44745Y25348D02*
X46948Y27551D01*
X44906Y26425D02*
X47085Y24247D01*
X47625Y23917D02*
X49498Y25791D01*
X45729Y24177D02*
X49498Y27946D01*
X45517Y27252D02*
X49498Y23270D01*
X47853Y23427D02*
X49498Y25072D01*
X45517Y27970D02*
X49498Y23988D01*
X45011Y24177D02*
X49498Y28664D01*
X45265Y26785D02*
X49498Y22552D01*
X49290Y21990D02*
X49498Y22198D01*
X48931Y22349D02*
X49498Y22917D01*
X48572Y22708D02*
X49498Y23635D01*
X48212Y23068D02*
X49498Y24354D01*
X47747Y23585D02*
X49498Y21833D01*
X46448Y24177D02*
X49498Y27227D01*
X47751Y23529D02*
X49390Y21890D01*
X45384Y23073D02*
X46127Y22330D01*
X44745Y25150D02*
X45718Y24177D01*
X44724Y24452D02*
X45000Y24177D01*
X44748D02*
X46673D01*
X46880Y22454D02*
X47073Y22647D01*
X46971Y22749D02*
X47358Y22362D01*
X46103Y23073D02*
X46721Y22455D01*
X45963Y22255D02*
X46583Y22875D01*
X44750Y21552D02*
X45090Y21212D01*
X44052Y32652D02*
X45302D01*
X44052Y31248D02*
Y31348D01*
Y32652D02*
Y32752D01*
X42598D02*
X44052D01*
X43956Y31025D02*
X44280Y31348D01*
X44052D02*
X45302D01*
X44315Y30665D02*
X44998Y31348D01*
X44294D02*
X45319Y30323D01*
X43842Y31139D02*
X45099Y29881D01*
X43842Y31248D02*
X44052D01*
X42961Y30559D02*
X43925Y29595D01*
X42598Y32541D02*
X42810Y32752D01*
X42598Y31248D02*
X42808D01*
X43842Y31139D02*
Y31248D01*
X42808Y30925D02*
Y31248D01*
X41618Y30842D02*
X42598Y31822D01*
Y31248D02*
Y32752D01*
X42251Y30757D02*
X42743Y31248D01*
X43041Y30110D02*
X43225Y30294D01*
X43238Y29588D02*
X43585Y29935D01*
X42709Y30496D02*
X42878Y30665D01*
X44682Y24566D02*
X49498Y29383D01*
X44547Y26066D02*
X46436Y24177D01*
X44495Y25816D02*
X46292Y27613D01*
X44380Y25899D02*
X45364Y26884D01*
X44566Y23073D02*
X46381D01*
X44666D02*
X45673Y22066D01*
X44710Y21721D02*
X46063Y23073D01*
X44576Y22445D02*
X45327Y21694D01*
X44428Y22157D02*
X45344Y23073D01*
X42599Y28062D02*
X42796D01*
X41933Y27662D02*
Y27806D01*
X35310Y25252D02*
X42598Y32541D01*
X41887Y27662D02*
Y27801D01*
X41833Y22203D02*
Y22338D01*
X41787Y22206D02*
Y22338D01*
X37520Y48297D02*
X38722Y49498D01*
X36202D02*
X37405Y48295D01*
X36920Y49498D02*
X38210Y48208D01*
X36685Y48180D02*
X38004Y49498D01*
X35483D02*
X36777Y48205D01*
X34765Y49498D02*
X36250Y48013D01*
X34046Y49498D02*
X35799Y47746D01*
X38698Y48038D02*
X40159Y49498D01*
X38162Y48220D02*
X39441Y49498D01*
X39156Y47777D02*
X40877Y49498D01*
X34989Y40736D02*
X36826Y42573D01*
X34525Y41710D02*
X35835Y43019D01*
X34862Y41328D02*
X36291Y42757D01*
X33328Y49498D02*
X35414Y47412D01*
X32609Y49498D02*
X35093Y47015D01*
X34003Y41906D02*
X35444Y43347D01*
X32426Y41047D02*
X35118Y43739D01*
X31891Y49498D02*
X34839Y46551D01*
X31770Y41828D02*
X34675Y44733D01*
X32187Y41526D02*
X34857Y44197D01*
X32422Y41065D02*
X32795Y40692D01*
X32149Y40052D02*
X32794Y40697D01*
X34743Y33715D02*
X40283Y28174D01*
X34846Y32893D02*
X39175Y28565D01*
X34093Y32209D02*
X38995Y27307D01*
X34568Y32453D02*
X38867Y28154D01*
X31852Y30859D02*
X39020Y23691D01*
X32275Y32591D02*
X38906Y25960D01*
X31852Y30141D02*
X38983Y23009D01*
X40283Y28312D02*
X40589D01*
X39958Y28463D02*
X40298Y28804D01*
X40283Y27912D02*
Y28312D01*
X39423Y28647D02*
X40213Y29437D01*
X32450Y33134D02*
X38753Y26831D01*
X31852Y31133D02*
X33191Y32473D01*
X31852Y31852D02*
X32924Y32924D01*
X31852Y31852D02*
X32924Y32924D01*
X35902Y25125D02*
X38853Y28077D01*
X31907Y32240D02*
X38756Y25391D01*
X31852Y29422D02*
X36299Y24974D01*
X31852Y30415D02*
X33653Y32217D01*
X31852Y29350D02*
Y32209D01*
Y31577D02*
X38766Y24663D01*
X31173Y49498D02*
X34664Y46007D01*
X30454Y49498D02*
X34599Y45354D01*
X29917Y41412D02*
X34715Y46210D01*
X31108Y41885D02*
X34598Y45375D01*
X28968Y41900D02*
X36567Y49498D01*
X29736D02*
X34743Y44491D01*
X29475Y41688D02*
X37285Y49498D01*
X29623Y33933D02*
X38293Y42604D01*
X31595Y39736D02*
X40803Y30529D01*
X29194Y34223D02*
X37465Y42494D01*
X28500Y34247D02*
X33963Y39711D01*
X28748Y39710D02*
X34415Y34043D01*
X30405Y40208D02*
X30484Y40130D01*
X29762Y32636D02*
X30250Y33124D01*
X29835Y33594D02*
X30248Y33181D01*
X29733Y40208D02*
X30427D01*
X29733Y41412D02*
X30427D01*
X29585Y32407D02*
X30848Y31144D01*
X29858Y32852D02*
X30848Y31862D01*
X29502Y30938D02*
X30799Y32236D01*
X29312Y31652D02*
X29502D01*
X29312D02*
Y32209D01*
X29496Y31652D02*
X30429Y32585D01*
X30670Y39944D02*
X40457Y30156D01*
X29714Y40181D02*
X40245Y29650D01*
X29402Y29402D02*
X30848Y30848D01*
Y29558D02*
Y32209D01*
X29335Y39841D02*
X40264Y28912D01*
X29402Y29402D02*
X30848Y30848D01*
X28970Y28252D02*
X30848Y30130D01*
X31632Y28923D02*
X35304Y25252D01*
X31273Y28564D02*
X34585Y25252D01*
X30106Y27396D02*
X31704Y28994D01*
X29542Y28252D02*
X30848Y29558D01*
X30914Y28204D02*
X33867Y25252D01*
X29502Y30220D02*
X30848Y31567D01*
X29502Y30198D02*
Y31652D01*
Y31054D02*
X30848Y29707D01*
X29502Y30335D02*
X30564Y29273D01*
X29312Y31962D02*
X30848Y30425D01*
X29402Y30120D02*
X29480Y30198D01*
X29402Y28948D02*
Y30198D01*
Y29717D02*
X30204Y28914D01*
X29402Y30198D02*
X29502D01*
X29402Y28998D02*
X29845Y28555D01*
X28733Y28948D02*
X29430Y28252D01*
X40183Y27912D02*
X40283D01*
X40148Y27935D02*
X40283Y28070D01*
X40183Y27412D02*
Y27912D01*
X40065Y27675D02*
X40183Y27556D01*
Y27063D02*
Y27412D01*
X40114Y27183D02*
X40183Y27252D01*
Y22838D02*
Y23338D01*
Y27063D02*
Y27412D01*
X40017Y23286D02*
X40183Y23453D01*
X40080Y23349D02*
X40183Y23245D01*
X37249Y24317D02*
X39067Y26136D01*
X37192Y23542D02*
X38823Y25173D01*
X36496Y25002D02*
X39037Y27542D01*
X37013Y24800D02*
X38773Y26560D01*
X35902Y24705D02*
Y25252D01*
X40017Y22775D02*
X40183Y22941D01*
Y22838D02*
Y23338D01*
Y22338D02*
Y22838D01*
X40017Y22694D02*
X40183Y22527D01*
X37002Y21915D02*
X39014Y23927D01*
X37250Y23306D02*
X38983Y21572D01*
X37127Y21321D02*
X38983Y23178D01*
X40283Y21938D02*
Y22338D01*
X40183D02*
X40283D01*
Y21938D02*
X40871D01*
X40017Y21257D02*
X40248Y21026D01*
X40017Y21975D02*
X40465Y21527D01*
X40017Y22056D02*
X40283Y22323D01*
X40017Y21338D02*
X40617Y21938D01*
X37224Y24049D02*
X38983Y22290D01*
X35902Y22252D02*
X36208Y22558D01*
X36520Y22151D02*
X38757Y24388D01*
X35902Y22498D02*
X36285Y22115D01*
X35902Y22248D02*
Y22795D01*
X35802Y22152D02*
X35898Y22248D01*
X35802Y21880D02*
X35908Y21773D01*
X33098Y25252D02*
X34448D01*
X33098Y25196D02*
X33154Y25252D01*
X33098Y24505D02*
Y25252D01*
X30902Y25343D02*
X31739Y24505D01*
X30555Y27845D02*
X33148Y25252D01*
X30195Y27486D02*
X33098Y24583D01*
X30902Y26061D02*
X32458Y24505D01*
X34448Y25252D02*
X34552D01*
X34448D02*
X34552D01*
X35902D01*
X32408Y24505D02*
X33098Y25196D01*
X31002Y24505D02*
Y25172D01*
X30902D02*
X31002D01*
Y24505D02*
X33098D01*
X29715Y27248D02*
X30621Y26342D01*
X28996Y27248D02*
X29903Y26342D01*
X28448D02*
X30902D01*
X28497D02*
X29404Y27248D01*
X28448Y25172D02*
Y26342D01*
X30902Y25172D02*
Y26342D01*
Y25088D02*
Y25172D01*
X28448Y25088D02*
Y25172D01*
X34715Y22248D02*
X34811Y22152D01*
X34552D02*
Y22248D01*
X35433D02*
X35530Y22152D01*
X35083D02*
X35180Y22248D01*
X34448D02*
X34552D01*
X34448Y22252D02*
X34552D01*
X34448Y22248D02*
X34552D01*
X35902D01*
X34552Y22152D02*
X35802D01*
X32500Y20998D02*
X33098D01*
X28348Y22448D02*
Y22632D01*
Y23718D01*
Y21362D02*
Y22448D01*
Y22632D01*
Y23718D02*
Y23902D01*
Y25172D01*
Y23718D02*
Y23902D01*
X31002Y21178D02*
Y21362D01*
Y21178D02*
Y21362D01*
X31887Y21403D02*
X32144Y21146D01*
X31002Y21403D02*
X31887D01*
X28348Y21178D02*
Y21362D01*
Y21178D02*
Y21362D01*
X47799Y19222D02*
X48448Y18573D01*
X48171Y19568D02*
X48448Y19291D01*
Y17978D02*
Y20056D01*
X47317Y18985D02*
X48386Y17916D01*
X44314Y20552D02*
X47668Y17198D01*
X45385Y16648D02*
X48448Y19712D01*
X48807Y16777D02*
X49498Y16086D01*
X49166Y17136D02*
X49498Y16804D01*
X46677Y18907D02*
X48027Y17557D01*
X45080Y17062D02*
X46928Y18909D01*
X45302Y18127D02*
X46949Y16479D01*
X45233Y18652D02*
X45790Y19208D01*
X44658Y20950D02*
X45210Y21502D01*
X45302Y18002D02*
X46277Y18977D01*
X45302Y17348D02*
Y18652D01*
X44515D02*
X45414Y19551D01*
X44650Y20934D02*
X45012Y20572D01*
X45302Y17409D02*
X46590Y16120D01*
X44644Y17348D02*
X44848Y17144D01*
X48089Y16059D02*
X49498Y14649D01*
X48448Y16418D02*
X49498Y15367D01*
Y4500D02*
Y17514D01*
X47729Y15699D02*
X49498Y13930D01*
X44604Y11557D02*
X49498Y16451D01*
X47140Y15110D02*
X49390Y17360D01*
X44677Y10911D02*
X49498Y15733D01*
X46989Y15003D02*
X49498Y12494D01*
X47370Y15340D02*
X49498Y13212D01*
X45607Y14948D02*
X49498Y11057D01*
X46325Y14948D02*
X49498Y11775D01*
X44396Y9911D02*
X49498Y15014D01*
X44888Y14948D02*
X49498Y10338D01*
X44170Y14948D02*
X49498Y9620D01*
X45507Y16052D02*
X48448Y18993D01*
X45394Y16598D02*
X45940Y16052D01*
X46522D02*
X48448Y17978D01*
X46225Y16052D02*
X48448Y18275D01*
X45223Y16052D02*
X46522D01*
X44776Y13165D02*
X46559Y14948D01*
X44468Y13576D02*
X45841Y14948D01*
X43896Y18752D02*
X45144Y19999D01*
X43773Y20374D02*
X47309Y16839D01*
X43959Y18752D02*
X44052Y18659D01*
X43178Y18752D02*
X45011Y20585D01*
X43195Y20234D02*
X44777Y18652D01*
X42225Y18517D02*
X44185Y20477D01*
X44052Y18652D02*
X45302D01*
X44052D02*
Y18752D01*
Y17348D02*
X45302D01*
X44052Y17248D02*
Y17348D01*
X44025Y17248D02*
X44301Y16972D01*
X42598Y17248D02*
X44052D01*
X43307D02*
X44100Y16455D01*
X43182Y20192D02*
X43414Y20425D01*
X42582Y19410D02*
X43240Y18752D01*
X42952Y19758D02*
X43959Y18752D01*
X42598Y18517D02*
Y18752D01*
X42081Y19193D02*
X42598Y18675D01*
X41506Y18517D02*
X42223Y19233D01*
X42598Y18752D02*
X44052D01*
X42598Y17248D02*
Y17483D01*
X42633Y16052D02*
X43830Y17248D01*
X41000Y17483D02*
X42598D01*
X41214Y18517D02*
X42598D01*
X41915Y16052D02*
X43112Y17248D01*
X43352Y16052D02*
X44648Y17348D01*
X44070Y16052D02*
X44188Y16170D01*
X44030Y11702D02*
X49498Y17169D01*
X41250Y16052D02*
X44277D01*
X42354Y17483D02*
X43785Y16052D01*
X42733Y14948D02*
X44080Y13602D01*
X43775D02*
X45122Y14948D01*
X43185Y13602D02*
X44315D01*
X43452Y14948D02*
X49498Y8902D01*
X43030Y13575D02*
X44404Y14948D01*
X35704Y502D02*
X49498Y14296D01*
X41478Y14948D02*
X46750D01*
X36423Y502D02*
X49498Y13577D01*
X42015Y14948D02*
X43362Y13602D01*
X41635Y17483D02*
X43067Y16052D01*
X42138Y13402D02*
X43685Y14948D01*
X41420Y13402D02*
X42967Y14948D01*
X41193Y16049D02*
X42598Y17454D01*
X40909Y17491D02*
X42348Y16052D01*
X40802Y13502D02*
X42248Y14948D01*
X42632Y13177D02*
X42750Y13295D01*
X42252Y13177D02*
Y13402D01*
X41387Y14857D02*
X42821Y13424D01*
X40802Y13402D02*
X42252D01*
X42125D02*
X42252Y13275D01*
X45250Y7892D02*
X49498Y12141D01*
X44777Y12905D02*
X49498Y8183D01*
X44635Y12328D02*
X49498Y7465D01*
X45948Y7872D02*
X49498Y11422D01*
X44336Y7696D02*
X49498Y12859D01*
X44046Y12198D02*
X49498Y6746D01*
X47044Y7531D02*
X49498Y9985D01*
X46535Y7740D02*
X49498Y10704D01*
X47880Y6930D02*
X49498Y8548D01*
X47490Y7259D02*
X49498Y9267D01*
X44348Y9741D02*
X46278Y7811D01*
X43980Y9391D02*
X45470Y7901D01*
X44310Y10498D02*
X47822Y6986D01*
X44777Y12660D02*
Y13140D01*
X44677Y10860D02*
Y11340D01*
X43356Y12198D02*
X44315D01*
X43335Y12192D02*
X43825Y11702D01*
X44170Y10498D02*
X44315D01*
X48715Y5610D02*
X49498Y6393D01*
X48497Y6110D02*
X49498Y7112D01*
X48811Y5278D02*
X49498Y4591D01*
X48859Y5035D02*
X49498Y5675D01*
X44677Y10850D02*
X49498Y6028D01*
X48216Y6548D02*
X49498Y7830D01*
X47986Y6822D02*
X49498Y5309D01*
X48899Y4356D02*
X49498Y4956D01*
X48901Y4470D02*
X49455Y3916D01*
X48747Y3487D02*
X49489Y4229D01*
X48833Y3820D02*
X49323Y3329D01*
X46649Y670D02*
X49330Y3351D01*
X48669Y3265D02*
X49124Y2810D01*
X48435Y2781D02*
X48869Y2347D01*
X48141Y2356D02*
X48565Y1932D01*
X47792Y1987D02*
X48215Y1564D01*
X47389Y1671D02*
X47818Y1242D01*
X46929Y1413D02*
X47374Y968D01*
X43607Y502D02*
X44390Y1285D01*
X44041Y1427D02*
X44967Y502D01*
X46403Y1220D02*
X46877Y746D01*
X45794Y1111D02*
X46319Y586D01*
X45771Y511D02*
X46513Y1253D01*
X45060Y1127D02*
X45681Y506D01*
X44325Y502D02*
X44965Y1141D01*
X45044Y502D02*
X45644Y1101D01*
X43312Y11702D02*
X43809Y12198D01*
X42252Y12173D02*
X43200D01*
X42634D02*
X43113Y11694D01*
X42252Y11359D02*
X43066Y12173D01*
X43185Y11702D02*
X44315D01*
X43185Y10498D02*
X43330D01*
X42252Y11119D02*
X43141Y10230D01*
X42247Y9918D02*
X42931Y10602D01*
X42252Y12078D02*
X42347Y12173D01*
X42252Y11948D02*
Y12052D01*
Y10598D02*
Y11948D01*
Y12052D01*
Y13177D02*
X42725D01*
X42252Y13275D02*
X42350Y13177D01*
X42252Y12052D02*
Y12173D01*
X42823Y10860D02*
Y11340D01*
X42252Y11838D02*
X42823Y11266D01*
X42252Y10641D02*
X42823Y11213D01*
X42002Y10598D02*
X42252D01*
X42084Y10473D02*
X42209Y10598D01*
X42054D02*
X44820Y7833D01*
X42202Y9732D02*
X44265Y7669D01*
X34267Y502D02*
X43297Y9531D01*
X32833Y11198D02*
X43530Y502D01*
X33549D02*
X43101Y10053D01*
X33552Y11198D02*
X44248Y502D01*
X41870Y9346D02*
X43781Y7435D01*
X42888Y502D02*
X43890Y1503D01*
X42170Y502D02*
X43452Y1784D01*
X34986Y502D02*
X43839Y9354D01*
X41175Y9322D02*
X43356Y7141D01*
X41452Y502D02*
X43070Y2120D01*
X38877Y10902D02*
X42987Y6792D01*
X39146Y9915D02*
X42671Y6389D01*
X38875Y9467D02*
X42413Y5929D01*
X34270Y11198D02*
X42427Y3041D01*
X38204Y9419D02*
X42220Y5403D01*
X32115Y11198D02*
X42812Y502D01*
X40015D02*
X42469Y2956D01*
X39296Y502D02*
X42260Y3465D01*
X40733Y502D02*
X42741Y2510D01*
X37141Y502D02*
X42304Y5664D01*
X36777Y9410D02*
X42127Y4060D01*
X38578Y502D02*
X42128Y4052D01*
X40283Y19448D02*
X40551Y19717D01*
X40017Y19901D02*
X40293Y20178D01*
X40017Y19820D02*
X41320Y18517D01*
X40017Y19714D02*
X41214Y18517D01*
X36773Y20908D02*
X41630Y16052D01*
X40017Y20538D02*
X40257Y20298D01*
X35802Y21161D02*
X40981Y15982D01*
X41001Y18730D02*
X41451Y19180D01*
X40642Y19089D02*
X40933Y19381D01*
X41353Y19202D02*
X42038Y18517D01*
X39136Y19134D02*
X40634Y17636D01*
X40017Y19714D02*
Y23286D01*
X37073Y22764D02*
X38983Y20854D01*
X37115Y21285D02*
X38991Y19409D01*
X38983Y19500D02*
Y23500D01*
X35802Y20848D02*
Y22152D01*
X36612Y22507D02*
X38983Y20135D01*
X40017Y20619D02*
X40215Y20817D01*
X34552Y20848D02*
X35802D01*
X34552Y20748D02*
Y20848D01*
X37728Y13302D02*
X41910Y17483D01*
X35888Y13617D02*
X40270Y17999D01*
X36910Y13202D02*
X41191Y17483D01*
X36191Y13202D02*
X40629Y17640D01*
X35396Y20848D02*
X40607Y15637D01*
X34678Y20848D02*
X40248Y15278D01*
X35736Y14184D02*
X39911Y18358D01*
X40802Y13402D02*
Y14272D01*
X41028Y14498D02*
X42125Y13402D01*
X40802Y14006D02*
X41406Y13402D01*
X40802Y14272D02*
X41478Y14948D01*
X39860Y14890D02*
X40860Y15890D01*
X40802Y14220D02*
X41530Y14948D01*
X39634Y14490D02*
X39701Y14557D01*
X34059Y20748D02*
X39889Y14919D01*
X33341Y20748D02*
X39594Y14496D01*
X35236Y14401D02*
X39552Y18717D01*
X38446Y13302D02*
X38760Y13616D01*
X35886Y13893D02*
X36577Y13202D01*
X31002Y18788D02*
X33098Y20885D01*
Y20748D02*
Y20998D01*
X31002Y15196D02*
X36679Y20873D01*
X31002Y15915D02*
X36085Y20998D01*
X31002Y20225D02*
X32033Y21257D01*
X31002Y20944D02*
X31461Y21403D01*
X31002Y19507D02*
X32493Y20998D01*
X33098Y20748D02*
X34552D01*
X31002Y16098D02*
Y16282D01*
Y15012D02*
Y16098D01*
Y16282D01*
Y17352D02*
X34398Y20748D01*
X31002Y18070D02*
X33680Y20748D01*
X31002Y16633D02*
X35217Y20848D01*
X31002Y19908D02*
Y20092D01*
Y19908D02*
Y20092D01*
Y18638D02*
Y18822D01*
Y19908D01*
Y20092D02*
Y21178D01*
X28348Y18822D02*
Y19908D01*
Y18638D02*
Y18822D01*
X31002Y17368D02*
Y17552D01*
Y17368D02*
Y17552D01*
Y16282D02*
Y17368D01*
Y17552D02*
Y18638D01*
Y18822D01*
X28348Y17368D02*
Y17552D01*
X32349Y21022D02*
X39032Y14339D01*
X31249Y21403D02*
X38762Y13891D01*
X31002Y13759D02*
X38983Y21741D01*
X31002Y20933D02*
X38633Y13302D01*
X30262Y12302D02*
X38983Y21023D01*
X31002Y14478D02*
X38983Y22460D01*
X30981Y12302D02*
X38983Y20304D01*
X31002Y18059D02*
X34820Y14240D01*
X31002Y15904D02*
X34604Y12302D01*
X32417D02*
X39192Y19077D01*
X31699Y12302D02*
X38983Y19586D01*
X31002Y20214D02*
X37914Y13302D01*
X31002Y18777D02*
X35393Y14386D01*
X31002Y19496D02*
X37699Y12798D01*
X31002Y14828D02*
Y15012D01*
Y14828D02*
Y15012D01*
Y14467D02*
X33167Y12302D01*
X31002Y13558D02*
Y14828D01*
Y17340D02*
X34598Y13744D01*
X31002Y16622D02*
X34565Y13059D01*
X31002Y15185D02*
X33885Y12302D01*
X31002Y13748D02*
X32448Y12302D01*
X30801Y13558D02*
X31002Y13759D01*
X33136Y12302D02*
X34599Y13764D01*
X29755Y13558D02*
X31012Y12302D01*
X28348Y13558D02*
Y13783D01*
X30473Y13558D02*
X31730Y12302D01*
X38977Y12802D02*
Y13210D01*
X38983Y12767D02*
Y13204D01*
X37699Y11698D02*
Y12198D01*
Y13302D02*
X38897D01*
X37301Y12478D02*
X37699Y12080D01*
Y11698D02*
Y12198D01*
X37301Y11759D02*
X37699Y11362D01*
X37301Y11438D02*
X37699Y11836D01*
X40390Y11360D02*
X40640Y11610D01*
X37699Y12302D02*
Y12802D01*
Y13302D01*
Y12302D02*
Y12802D01*
X37301Y11698D02*
Y12302D01*
X37228Y12802D02*
X37699Y13273D01*
X37301Y12302D02*
Y12802D01*
Y12156D02*
X37699Y12554D01*
Y12198D02*
Y12302D01*
Y12198D02*
Y12302D01*
Y12198D02*
Y12302D01*
X37201Y11198D02*
X37301D01*
Y11698D02*
Y12302D01*
Y11198D02*
Y11698D01*
X40482Y11452D02*
X40748Y11186D01*
X40017Y11199D02*
X40846Y10370D01*
X40748Y10598D02*
Y11764D01*
X38877Y11198D02*
X38977D01*
X38877D02*
X38977D01*
X40748Y10598D02*
X40998D01*
X38977Y11198D02*
X40000D01*
X39299D02*
X40822Y9675D01*
X39064Y10327D02*
X39935Y11198D01*
X38877Y10859D02*
X39217Y11198D01*
X37860Y502D02*
X42108Y4750D01*
X38817Y10798D02*
X38877Y10859D01*
Y10798D02*
Y11198D01*
X38262Y10798D02*
X38415Y10646D01*
X37699Y11198D02*
X37799D01*
X37699D02*
Y11698D01*
X37799Y10798D02*
Y11198D01*
X38652Y10634D02*
X38817Y10798D01*
X37799D02*
X38877D01*
X36123Y13202D02*
X37201D01*
Y12802D02*
X37301D01*
X37201D02*
Y13202D01*
X36123Y13133D02*
X36191Y13202D01*
X36023Y12802D02*
X36123D01*
Y13202D01*
Y10798D02*
Y11198D01*
X37201Y10798D02*
Y11198D01*
X36123Y10798D02*
X37201D01*
X36023Y11198D02*
X36123D01*
X36023Y12752D02*
X36123D01*
X36023Y11198D02*
X36123D01*
X35816Y13244D02*
X36123Y12938D01*
X29544Y12302D02*
X30801Y13558D01*
X28348D02*
X31002D01*
X29036D02*
X30293Y12302D01*
X28779Y12255D02*
X30082Y13558D01*
X35966Y12977D02*
X36123Y13133D01*
X33854Y12302D02*
X34535Y12983D01*
X29228Y11198D02*
X36023D01*
X29000Y12302D02*
X34647D01*
X30675Y502D02*
X40772Y10598D01*
X29959Y11198D02*
X40656Y502D01*
X31396Y11198D02*
X42093Y502D01*
X30678Y11198D02*
X41375Y502D01*
X29241Y11198D02*
X39938Y502D01*
X28876Y10845D02*
X39219Y502D01*
X29957D02*
X40748Y11293D01*
X37116Y9789D02*
X42111Y4794D01*
X32112Y502D02*
X41027Y9416D01*
X32831Y502D02*
X41582Y9253D01*
X28516Y10486D02*
X38501Y502D01*
X29238D02*
X38173Y9436D01*
X31394Y502D02*
X40760Y9868D01*
X37201Y11141D02*
X37967Y10375D01*
X37000Y10418D02*
X37780Y11198D01*
X37129Y9829D02*
X38098Y10798D01*
X36825D02*
X37919Y9704D01*
X36515Y10651D02*
X36662Y10798D01*
X35707Y11198D02*
X36289Y10616D01*
X34988Y11198D02*
X35910Y10277D01*
X28520Y502D02*
X37866Y9848D01*
X26092Y41897D02*
X33693Y49498D01*
X25425D02*
X33231Y41693D01*
X24736Y41259D02*
X32975Y49498D01*
X24707D02*
X32904Y41301D01*
X23988Y49498D02*
X31605Y41882D01*
X23932Y41893D02*
X31538Y49498D01*
X24424Y41666D02*
X32256Y49498D01*
X27130Y41498D02*
X35130Y49498D01*
X26726Y41813D02*
X34412Y49498D01*
X27354Y41004D02*
X35848Y49498D01*
X27305Y40434D02*
X33593Y34146D01*
X26144Y49498D02*
X33741Y41901D01*
X25740Y39844D02*
X31294Y34290D01*
X26383Y34286D02*
X32108Y40011D01*
X23270Y49498D02*
X30937Y41831D01*
X27322Y41136D02*
X27710Y40748D01*
X22281Y40960D02*
X30819Y49498D01*
X22552D02*
X30518Y41532D01*
X24830Y40754D02*
X25304Y40280D01*
X24815Y40620D02*
X25183Y40988D01*
X24655Y40211D02*
X30751Y34115D01*
X23721Y39708D02*
X29214Y34215D01*
X23488Y34265D02*
X28940Y39716D01*
X24150Y34208D02*
X30150Y40208D01*
X27019Y40002D02*
X33153Y33868D01*
X26905Y34090D02*
X32990Y40174D01*
X27580Y49498D02*
X44427Y32652D01*
X28299Y49498D02*
X44122Y33675D01*
X24567Y33906D02*
X30634Y39973D01*
X24287Y39860D02*
X30400Y33747D01*
X26862Y49498D02*
X43609Y32752D01*
X27242Y33708D02*
X33372Y39838D01*
X26556Y39746D02*
X32909Y33393D01*
X27214Y32623D02*
X28185Y31652D01*
X24806Y33427D02*
X31113Y39734D01*
X25748Y30059D02*
X28066Y32377D01*
X24790Y32891D02*
X28098Y29583D01*
X27369Y33116D02*
X27753Y33500D01*
X24713Y33687D02*
X25169Y33231D01*
X22291Y33236D02*
X22685Y32841D01*
X22284Y33060D02*
X22655Y33431D01*
X27372Y33184D02*
X27796Y32759D01*
X25465Y30494D02*
X27777Y32806D01*
X24530Y32433D02*
X26908Y30055D01*
X24529Y32432D02*
X25174Y33077D01*
X24232Y32134D02*
X24488Y32391D01*
X24388Y31572D02*
X25370Y32554D01*
X21071Y41905D02*
X28664Y49498D01*
X20396D02*
X28181Y41714D01*
X19671Y41224D02*
X27946Y49498D01*
X19678D02*
X27841Y41335D01*
X18959Y49498D02*
X26596Y41862D01*
X18895Y41884D02*
X26509Y49498D01*
X19371Y41642D02*
X27227Y49498D01*
X22072Y41470D02*
X30101Y49498D01*
X21680Y41796D02*
X29383Y49498D01*
X21833D02*
X29920Y41412D01*
X21348Y34280D02*
X27720Y40651D01*
X4500Y49498D02*
X45500D01*
X21115D02*
X28706Y41907D01*
X20759Y39796D02*
X26264Y34292D01*
X16086Y49498D02*
X23674Y41910D01*
X16047Y41910D02*
X23635Y49498D01*
X17014Y41440D02*
X25072Y49498D01*
X16634Y41779D02*
X24354Y49498D01*
X15367D02*
X23131Y41735D01*
X13930Y49498D02*
X21594Y41835D01*
X14649Y49498D02*
X22780Y41367D01*
X18241Y49498D02*
X25894Y41845D01*
X22215Y41214D02*
X22628Y40801D01*
X17964Y41672D02*
X25791Y49498D01*
X17523D02*
X25462Y41559D01*
X16804Y49498D02*
X25206Y41096D01*
X22238Y40472D02*
X28472Y34238D01*
X19594Y40243D02*
X25703Y34134D01*
X21965Y40027D02*
X28027Y33965D01*
X21855Y34068D02*
X27932Y40145D01*
X19510Y33878D02*
X25581Y39950D01*
X19106Y34193D02*
X25267Y40354D01*
X19239Y39879D02*
X25339Y33779D01*
X22179Y33674D02*
X28326Y39820D01*
X21516Y39758D02*
X27758Y33516D01*
X19734Y33384D02*
X26076Y39726D01*
X19475Y32460D02*
X23748Y28186D01*
X18691Y39709D02*
X24227Y34173D01*
X18472Y34277D02*
X23919Y39725D01*
X17091Y32688D02*
X23748Y26030D01*
X17170Y40511D02*
X23431Y34250D01*
X16312Y34273D02*
X22647Y40608D01*
X16910Y40053D02*
X22973Y33990D01*
X16804Y34046D02*
X22874Y40116D01*
X502Y27802D02*
X22198Y49498D01*
X502Y28520D02*
X21480Y49498D01*
X502Y27083D02*
X22917Y49498D01*
X21826Y31884D02*
X22712Y32770D01*
X22153Y32655D02*
X23228Y31580D01*
X17116Y33639D02*
X23280Y39804D01*
X16474Y39770D02*
X22690Y33554D01*
X28059Y31652D02*
X28308Y31900D01*
X27998Y31652D02*
X28308D01*
Y32209D01*
X27998Y30198D02*
X28098D01*
X27998Y31591D02*
X28059Y31652D01*
X27756Y29911D02*
X28043Y30198D01*
X25752Y29344D02*
X27998Y31591D01*
X27873Y29310D02*
X28098Y29535D01*
Y28948D02*
X29402D01*
X28098D02*
Y30198D01*
X27500Y28252D02*
X29542D01*
X27533D02*
X28230Y28948D01*
X27805Y29158D02*
X28711Y28252D01*
X27998Y30198D02*
Y31652D01*
X26859Y32259D02*
X27998Y31120D01*
X27277Y30151D02*
X27998Y30872D01*
X26311Y32089D02*
X27998Y30402D01*
X27383Y28862D02*
X27993Y28252D01*
X25752Y28625D02*
X26599Y29473D01*
X28252Y28252D02*
X28948Y28948D01*
X28252Y28252D02*
X28948Y28948D01*
X27708Y27248D02*
X29750D01*
X28278D02*
X29185Y26342D01*
X26752Y26033D02*
X27967Y27248D01*
X26752Y26292D02*
X27708Y27248D01*
X26752Y25315D02*
X28685Y27248D01*
X27634Y27174D02*
X28466Y26342D01*
X27274Y26815D02*
X28448Y25641D01*
X28348Y25172D02*
X28448D01*
X26915Y26456D02*
X28348Y25023D01*
X26752Y24596D02*
X28448Y26293D01*
X26752Y25901D02*
X28348Y24304D01*
X26752Y23878D02*
X28448Y25575D01*
X25752Y27907D02*
X26839Y28994D01*
X25752Y27188D02*
X27440Y28877D01*
X25752Y28338D02*
X26565Y27524D01*
X25752Y29775D02*
X27311Y28215D01*
X25752Y29056D02*
X26924Y27884D01*
X25752Y26557D02*
Y30000D01*
X25896Y26856D02*
X27144Y28104D01*
X25752Y27619D02*
X26206Y27165D01*
X25752Y26901D02*
X25850Y26803D01*
X25106Y30853D02*
X26343Y32091D01*
X24747Y31213D02*
X25752Y32218D01*
X24232Y32013D02*
X26612Y29633D01*
X24232Y31728D02*
X25604Y30356D01*
X21810Y32279D02*
X24748Y29341D01*
X24232Y31728D02*
Y32209D01*
X21692Y32018D02*
X24604Y29106D01*
X24687Y28997D02*
X24748Y29059D01*
Y28807D02*
Y29792D01*
X23376Y31164D02*
X24748Y29792D01*
X23981Y29728D02*
X24397Y30144D01*
X24340Y29369D02*
X24748Y29777D01*
X23228Y31520D02*
Y32209D01*
X22185Y31524D02*
X23014Y32353D01*
X22544Y31165D02*
X23228Y31849D01*
X19052Y32164D02*
X23748Y27467D01*
X21692Y32018D02*
Y32209D01*
X18374Y32123D02*
X23748Y26749D01*
X23263Y30447D02*
X23678Y30862D01*
X23622Y30088D02*
X24037Y30503D01*
X20836Y31455D02*
X23748Y28542D01*
X22903Y30806D02*
X23323Y31226D01*
X17919Y26540D02*
X21835Y30456D01*
X22830Y26422D02*
X23748Y27341D01*
X21413Y26442D02*
X23631Y28660D01*
X23223Y26096D02*
X23748Y26622D01*
X21906Y26217D02*
X23748Y28059D01*
X19976Y26442D02*
X22912Y29378D01*
X16760Y32301D02*
X22594Y26466D01*
X20694Y26442D02*
X23272Y29019D01*
X23326Y25734D02*
X23748Y25312D01*
X23267Y25423D02*
X23748Y25904D01*
X22656Y24968D02*
X23748Y23875D01*
X23132Y25210D02*
X23748Y24594D01*
X21652Y23807D02*
X22867Y25023D01*
X19257Y26442D02*
X22553Y29737D01*
X21652Y26217D02*
Y26442D01*
Y25213D02*
X22015D01*
X21652Y26217D02*
X22015D01*
X16245Y32097D02*
X22070Y26272D01*
X18998Y26442D02*
X21652D01*
X18314Y26217D02*
X22194Y30097D01*
X21652Y23718D02*
Y23902D01*
Y24988D01*
Y23718D02*
Y23902D01*
Y24988D02*
Y25172D01*
Y24988D02*
Y25172D01*
Y24525D02*
X22194Y25067D01*
X12373Y48294D02*
X13577Y49498D01*
X11775D02*
X13025Y48249D01*
X12494Y49498D02*
X14436Y47556D01*
X13043Y48245D02*
X14296Y49498D01*
X11057D02*
X12268Y48287D01*
X10338Y49498D02*
X11663Y48173D01*
X11467Y48107D02*
X12859Y49498D01*
X15091Y46701D02*
X17888Y49498D01*
X14815Y47144D02*
X17169Y49498D01*
X15396Y45570D02*
X19325Y49498D01*
X15292Y46184D02*
X18606Y49498D01*
X14069Y47835D02*
X15733Y49498D01*
X13597Y48081D02*
X15014Y49498D01*
X14474Y47521D02*
X16451Y49498D01*
X7259Y47490D02*
X9267Y49498D01*
X6930Y47880D02*
X8548Y49498D01*
X7531Y47044D02*
X9985Y49498D01*
X6746D02*
X9796Y46449D01*
X6548Y48216D02*
X7830Y49498D01*
X6110Y48497D02*
X7112Y49498D01*
X6028D02*
X9640Y45886D01*
X9620Y49498D02*
X11153Y47965D01*
X8902Y49498D02*
X10716Y47684D01*
X8183Y49498D02*
X10344Y47337D01*
X7740Y46535D02*
X10704Y49498D01*
X7465D02*
X10036Y46927D01*
X7872Y45948D02*
X11422Y49498D01*
X15338Y44794D02*
X20043Y49498D01*
X15392Y45163D02*
X18644Y41911D01*
X14660Y47332D02*
X20407Y41585D01*
X15353Y45920D02*
X20138Y41136D01*
X13212Y49498D02*
X20852Y41858D01*
X7833Y44820D02*
X18392Y34261D01*
X7901Y45470D02*
X19272Y34099D01*
X15278Y44559D02*
X18083Y41754D01*
X15070Y44048D02*
X17719Y41399D01*
X12308Y42500D02*
X20655Y34153D01*
X11365Y42724D02*
X20279Y33810D01*
X7669Y44265D02*
X17920Y34015D01*
X7435Y43781D02*
X17624Y33592D01*
X7892Y45250D02*
X12141Y49498D01*
X7811Y46278D02*
X9829Y44260D01*
X14788Y43611D02*
X16607Y41793D01*
X7696Y44336D02*
X9788Y46427D01*
X6986Y47822D02*
X9604Y45203D01*
X7141Y43356D02*
X16210Y34287D01*
X14442Y43239D02*
X15811Y41870D01*
X14032Y42931D02*
X15353Y41610D01*
X13553Y42691D02*
X15070Y41174D01*
X6792Y42987D02*
X15608Y34171D01*
X12991Y42535D02*
X15065Y40461D01*
X6389Y42671D02*
X15221Y33840D01*
X5035Y48859D02*
X5675Y49498D01*
X4591D02*
X5278Y48811D01*
X5309Y49498D02*
X6822Y47986D01*
X5610Y48715D02*
X6393Y49498D01*
X4356Y48899D02*
X4956Y49498D01*
X3487Y48747D02*
X4229Y49489D01*
X3916Y49455D02*
X4470Y48901D01*
X3329Y49323D02*
X3820Y48833D01*
X2810Y49124D02*
X3265Y48669D01*
X2347Y48869D02*
X2781Y48435D01*
X670Y46649D02*
X3351Y49330D01*
X1932Y48565D02*
X2356Y48141D01*
X1564Y48215D02*
X1987Y47792D01*
X1242Y47818D02*
X1671Y47389D01*
X968Y47374D02*
X1413Y46929D01*
X746Y46877D02*
X1220Y46403D01*
X511Y45771D02*
X1253Y46513D01*
X586Y46319D02*
X1111Y45794D01*
X506Y45681D02*
X1127Y45060D01*
X502Y42888D02*
X1503Y43890D01*
X502Y43607D02*
X1285Y44390D01*
X502Y42170D02*
X1784Y43452D01*
X502Y44325D02*
X1141Y44965D01*
X502Y45044D02*
X1101Y45644D01*
X502Y44967D02*
X1427Y44041D01*
X502Y31394D02*
X11711Y42603D01*
X502Y32112D02*
X11193Y42804D01*
X502Y42812D02*
X15562Y27752D01*
X502Y29957D02*
X13101Y42556D01*
X502Y29238D02*
X20762Y49498D01*
X502Y43530D02*
X16280Y27752D01*
X502Y44248D02*
X18533Y26217D01*
X4060Y42127D02*
X19745Y26442D01*
X5929Y42413D02*
X15017Y33325D01*
X5403Y42220D02*
X21182Y26442D01*
X4794Y42111D02*
X20464Y26442D01*
X502Y42093D02*
X14943Y27652D01*
X502Y30675D02*
X12325Y42499D01*
X3041Y42427D02*
X19027Y26442D01*
X502Y34267D02*
X10059Y43825D01*
X502Y41452D02*
X2120Y43070D01*
X502Y32831D02*
X10751Y43080D01*
X502Y33549D02*
X10373Y43421D01*
X502Y35704D02*
X9649Y44852D01*
X502Y36423D02*
X9601Y45522D01*
X502Y34986D02*
X9814Y44298D01*
X502Y38578D02*
X4052Y42128D01*
X502Y39296D02*
X3465Y42260D01*
X502Y37860D02*
X4750Y42108D01*
X502Y40015D02*
X2956Y42469D01*
X502Y40733D02*
X2510Y42741D01*
X502Y37141D02*
X5664Y42304D01*
X19751Y40804D02*
X20176Y40379D01*
X19722Y40556D02*
X20095Y40929D01*
X19721Y32932D02*
X20688Y31964D01*
X19559Y33812D02*
X20092Y33279D01*
X15761Y39765D02*
X21236Y34291D01*
X15538Y27752D02*
X20312Y32525D01*
X20688Y31810D02*
Y32209D01*
X17560Y26899D02*
X21476Y30815D01*
X16902Y27678D02*
X20766Y31542D01*
X16257Y27752D02*
X20688Y32183D01*
X17201Y27259D02*
X21116Y31174D01*
X17207Y40914D02*
X17788Y41496D01*
X17207Y33290D02*
X17583Y32914D01*
X17195Y33000D02*
X17563Y33368D01*
X17093Y41307D02*
X17549Y40851D01*
X16902Y27478D02*
Y27752D01*
X18243Y26217D02*
X18998D01*
X17106Y27354D02*
X18243Y26217D01*
X18998D02*
Y26442D01*
X15448Y26248D02*
X16792D01*
X15628D02*
X16075Y25802D01*
X17081Y25702D02*
X17210Y25831D01*
X16852Y24698D02*
X17092D01*
X17699Y24091D01*
X16792Y26248D02*
X17341Y25700D01*
X16852Y25702D02*
X17300D01*
X16752Y23936D02*
X17303Y24487D01*
X18998Y23718D02*
Y23902D01*
X18055Y23943D02*
X18998D01*
Y23718D02*
Y23902D01*
X17929Y23677D02*
X18196Y23943D01*
X17912Y23964D02*
X18200Y23677D01*
X17925D02*
X18998D01*
X16793Y25802D02*
X16852Y25743D01*
X16462Y25802D02*
X16851Y26190D01*
X16852Y24598D02*
Y24698D01*
Y25702D02*
Y25802D01*
X16346Y26248D02*
X16793Y25802D01*
X15744D02*
X16191Y26248D01*
X15841Y24598D02*
X15938Y24502D01*
X16599D02*
X16696Y24598D01*
X16559D02*
X16656Y24502D01*
X16752Y24406D01*
X15881Y24502D02*
X15977Y24598D01*
X15448Y27662D02*
X15538Y27752D01*
X14720Y27652D02*
X20100Y33031D01*
X15448Y27652D02*
Y27752D01*
X13758Y27408D02*
X18456Y32106D01*
X13282Y27651D02*
X17962Y32330D01*
X502Y26365D02*
X15010Y40873D01*
X15448Y27752D02*
X16902D01*
X15448Y26248D02*
Y26348D01*
X14198D02*
X15448D01*
X14198Y27652D02*
X15448D01*
X14148Y25802D02*
X16852D01*
X502Y39219D02*
X12608Y27113D01*
X14198Y26348D02*
Y27652D01*
X502Y41375D02*
X14225Y27652D01*
X502Y39938D02*
X12894Y27546D01*
X502Y40656D02*
X13625Y27533D01*
X13783Y27375D02*
X14198Y26959D01*
X13871Y26803D02*
X14198Y27130D01*
X14307Y25802D02*
X14854Y26348D01*
X13796Y26644D02*
X14638Y25802D01*
X15025D02*
X15472Y26248D01*
X14809Y26348D02*
X15356Y25802D01*
X502Y24928D02*
X15480Y39906D01*
X502Y25646D02*
X15141Y40286D01*
X502Y24209D02*
X16005Y39713D01*
X15123Y24598D02*
X15219Y24502D01*
X14444D02*
X14540Y24598D01*
X15162Y24502D02*
X15259Y24598D01*
X14148D02*
X16852D01*
X14248Y24502D02*
X16752D01*
X14148Y25643D02*
X14307Y25802D01*
X13363Y26358D02*
X14148Y25573D01*
Y24598D02*
Y25802D01*
X502Y36346D02*
X12634Y24213D01*
X502Y38501D02*
X14148Y24854D01*
X502Y37064D02*
X12975Y24591D01*
X502Y37783D02*
X14248Y24036D01*
X14404Y24598D02*
X14501Y24502D01*
X13697Y24474D02*
X14148Y24925D01*
X13900Y23958D02*
X14248Y24306D01*
X13149Y24644D02*
X14148Y25643D01*
X26752Y21004D02*
X28348Y22601D01*
X26752Y23027D02*
X28348Y21430D01*
X26752Y20286D02*
X28348Y21883D01*
X26752Y22309D02*
X28348Y20712D01*
X26752Y23746D02*
X28348Y22149D01*
X26752Y22441D02*
X28348Y24038D01*
X26752Y21723D02*
X28348Y23319D01*
Y19908D02*
Y20092D01*
Y21178D01*
X26752Y18849D02*
X28348Y20446D01*
Y19908D02*
Y20092D01*
X26752Y19567D02*
X28348Y21164D01*
X26752Y21590D02*
X28348Y19994D01*
X26752Y20872D02*
X28348Y19275D01*
X26752Y23159D02*
X28348Y24756D01*
X26752Y25183D02*
X28348Y23586D01*
X26752Y24464D02*
X28348Y22867D01*
X21692Y25213D02*
X23748Y23157D01*
X21652Y22380D02*
X23748Y20283D01*
X21652Y21362D02*
Y22448D01*
Y20215D02*
X23748Y22312D01*
X21652Y18638D02*
Y18822D01*
Y19908D02*
Y20092D01*
Y18638D02*
Y18822D01*
Y19496D02*
X23748Y21593D01*
X21652Y21662D02*
X23748Y19565D01*
X21652Y20943D02*
X23748Y18846D01*
X26915Y18294D02*
X28348Y19727D01*
Y18638D02*
Y18822D01*
X26752Y19435D02*
X28348Y17838D01*
X27274Y17935D02*
X28348Y19009D01*
X21652Y19506D02*
X28871Y12286D01*
X26752Y20154D02*
X28348Y18557D01*
X21652Y18788D02*
X28455Y11985D01*
X28348Y17368D02*
Y17552D01*
Y18638D01*
X28103Y17327D02*
X28348Y17572D01*
X27883Y17327D02*
X28348D01*
X27634Y17576D02*
X28348Y18291D01*
X26752Y18717D02*
X28142Y17327D01*
X21652Y18069D02*
X28095Y11626D01*
X26752Y18458D02*
Y26292D01*
X23748Y17750D02*
Y28542D01*
X26752Y18458D02*
X27883Y17327D01*
X21652Y15904D02*
X23748Y18001D01*
X21652Y17341D02*
X23748Y19438D01*
X21652Y17552D02*
Y18638D01*
Y16623D02*
X23748Y18719D01*
X23896Y17394D02*
X27359Y13931D01*
X21652Y17368D02*
Y17552D01*
Y17368D02*
Y17552D01*
Y15186D02*
X23879Y17413D01*
X21652Y21652D02*
X23748Y23748D01*
X21652Y23817D02*
X23748Y21720D01*
X21652Y23098D02*
X23748Y21002D01*
X21652Y21652D02*
X23748Y23748D01*
X21652Y24535D02*
X23748Y22438D01*
X21652Y23088D02*
X23748Y25185D01*
X21652Y22370D02*
X23748Y24467D01*
X21652Y18822D02*
Y19908D01*
Y20092D01*
Y18059D02*
X23748Y20156D01*
X21652Y20225D02*
X23748Y18128D01*
X21652Y20933D02*
X23748Y23030D01*
X21652Y20092D02*
Y21178D01*
Y18778D02*
X23748Y20875D01*
X21652Y22448D02*
Y22632D01*
Y23718D01*
Y22448D02*
Y22632D01*
X18318Y21403D02*
X18998Y20723D01*
X502Y19899D02*
X20530Y39928D01*
X502Y20617D02*
X20204Y40319D01*
X502Y19181D02*
X21040Y39719D01*
X21652Y21178D02*
Y21362D01*
Y21178D02*
Y21362D01*
X18998Y19908D02*
Y20092D01*
X17856Y21147D02*
X18998Y20004D01*
Y20092D02*
Y21178D01*
Y19908D02*
Y20092D01*
X502Y29162D02*
X23518Y6145D01*
X502Y28443D02*
X23021Y5923D01*
X502Y29880D02*
X25050Y5331D01*
X502Y27725D02*
X22694Y5532D01*
X502Y32035D02*
X25718Y6818D01*
X502Y31317D02*
X25693Y6125D01*
X502Y30598D02*
X25295Y5805D01*
X21652Y17351D02*
X27736Y11266D01*
X502Y24133D02*
X24133Y502D01*
X502Y23414D02*
X23414Y502D01*
X502Y22696D02*
X22696Y502D01*
X502Y26288D02*
X26288Y502D01*
X502Y25569D02*
X25569Y502D01*
X502Y24851D02*
X24851Y502D01*
X13625Y20349D02*
X18998Y14975D01*
X14444Y20248D02*
X18998Y15694D01*
X502Y20540D02*
X20540Y502D01*
X502Y19822D02*
X19822Y502D01*
X502Y27006D02*
X22567Y4940D01*
X502Y21977D02*
X21977Y502D01*
X502Y21259D02*
X21259Y502D01*
X18998Y16282D02*
Y17368D01*
Y17552D01*
X21652Y16282D02*
Y17368D01*
X7238Y6519D02*
X18998Y18280D01*
X6519Y7238D02*
X18998Y19717D01*
X502Y19104D02*
X19104Y502D01*
X28093Y13783D02*
X29575Y12302D01*
X27715Y13783D02*
X28348D01*
X25880Y9410D02*
X28610Y12140D01*
X23249Y14317D02*
X27018Y10548D01*
X26822Y8792D02*
X29228Y11198D01*
X27294Y5741D02*
X32751Y11198D01*
X26919Y6085D02*
X32033Y11198D01*
X27511Y5240D02*
X33469Y11198D01*
X26822Y7424D02*
X30596Y11198D01*
X26822Y8143D02*
X29877Y11198D01*
X26822Y6706D02*
X31314Y11198D01*
X26822Y6137D02*
Y8792D01*
X25718Y6137D02*
Y9020D01*
X23078Y13769D02*
X26659Y10189D01*
X23184Y14562D02*
X24956Y16335D01*
X23338Y6096D02*
X25718Y8476D01*
X24816Y5419D02*
X25718Y6321D01*
X24867Y4751D02*
X25010Y4895D01*
X24875Y4788D02*
X25075Y4588D01*
X24527Y5848D02*
X25718Y7039D01*
X24073Y6112D02*
X25718Y7758D01*
X26365Y502D02*
X35849Y9985D01*
X27374Y4385D02*
X34188Y11198D01*
X28157Y10127D02*
X37783Y502D01*
X27798Y9768D02*
X37064Y502D01*
X24928D02*
X35625Y11198D01*
X24209Y502D02*
X34906Y11198D01*
X25646Y502D02*
X36123Y10978D01*
X27083Y502D02*
X36082Y9500D01*
X27080Y9049D02*
X35627Y502D01*
X27802D02*
X36671Y9371D01*
X27439Y9409D02*
X36346Y502D01*
X26822Y8589D02*
X34909Y502D01*
X26822Y7870D02*
X34190Y502D01*
X26822Y7152D02*
X33472Y502D01*
X26822Y6434D02*
X32754Y502D01*
X27534Y5003D02*
X32035Y502D01*
X27395Y4423D02*
X31317Y502D01*
X24653Y4291D02*
X28443Y502D01*
X26601Y3780D02*
X29880Y502D01*
X25858Y3805D02*
X29162Y502D01*
X27075Y4025D02*
X30598Y502D01*
X23670Y3837D02*
X27006Y502D01*
X23491D02*
X26885Y3896D01*
X24262Y3964D02*
X27725Y502D01*
X22829Y14926D02*
X24597Y16694D01*
X21936Y14752D02*
X24237Y17053D01*
X21652Y15914D02*
X22567Y14999D01*
X21652Y15196D02*
X22019Y14828D01*
X21652Y16633D02*
X27377Y10907D01*
X22621Y13508D02*
X26299Y9830D01*
X21652Y13748D02*
X21940D01*
X21662D02*
X25940Y9470D01*
X20415Y13558D02*
X25718Y8255D01*
X21134Y13558D02*
X25718Y8974D01*
X19697Y13558D02*
X25718Y7537D01*
X21652Y16098D02*
Y16282D01*
Y16098D02*
Y16282D01*
Y14828D02*
Y15012D01*
Y16098D01*
X18998D02*
Y16282D01*
Y16098D02*
Y16282D01*
Y15012D02*
Y16098D01*
X21652Y14752D02*
X21940D01*
X21652D02*
Y14828D01*
Y13558D02*
Y13748D01*
Y14828D02*
Y15012D01*
X18998Y13558D02*
Y14828D01*
Y13558D02*
X21652D01*
X12715Y502D02*
X26752Y14539D01*
X11996Y502D02*
X26393Y14898D01*
X14152Y502D02*
X27488Y13838D01*
X13433Y502D02*
X27111Y14180D01*
X10559Y502D02*
X25674Y15616D01*
X9841Y502D02*
X25315Y15976D01*
X11278Y502D02*
X26033Y15257D01*
X16307Y502D02*
X29364Y13558D01*
X17025Y502D02*
X25765Y9241D01*
X22773Y502D02*
X26030Y3759D01*
X22054Y502D02*
X25529Y3976D01*
X4500Y502D02*
X45500D01*
X14870D02*
X28152Y13783D01*
X15588Y502D02*
X28645Y13558D01*
X7686Y502D02*
X20743Y13558D01*
X9123Y502D02*
X22188Y13566D01*
X8404Y502D02*
X21461Y13558D01*
X6249Y502D02*
X19306Y13558D01*
X5531Y502D02*
X18998Y13969D01*
X6967Y502D02*
X20024Y13558D01*
X20617Y502D02*
X23979Y3863D01*
X19899Y502D02*
X23311Y3914D01*
X21336Y502D02*
X25185Y4351D01*
X17744Y502D02*
X22634Y5392D01*
X18462Y502D02*
X22618Y4657D01*
X19181Y502D02*
X22882Y4203D01*
X18651Y23943D02*
X18918Y23677D01*
X18648D02*
X18914Y23943D01*
X16852Y23317D02*
X17662Y24128D01*
X16752Y24406D02*
X17600Y23557D01*
X16752Y23688D02*
X17138Y23302D01*
X17342D02*
X17569Y23529D01*
X16852Y22298D02*
X17550D01*
X17423D02*
X17506Y22215D01*
X16852Y22198D02*
Y22298D01*
Y23302D02*
X17342D01*
X16804Y22198D02*
X17147Y21856D01*
X16723Y21752D02*
X17269Y22298D01*
X16752Y23498D02*
Y24502D01*
X15504Y23498D02*
X15601Y23402D01*
X15499D02*
X15596Y23498D01*
X14781Y23402D02*
X14877Y23498D01*
X14248D02*
Y24502D01*
X14786Y23498D02*
X14883Y23402D01*
X16223Y23498D02*
X16319Y23402D01*
X16217D02*
X16314Y23498D01*
X16852Y23302D02*
Y23402D01*
X14248Y23498D02*
X16752D01*
X15448Y21752D02*
X15552D01*
X16004D02*
X16451Y22198D01*
X18998Y21178D02*
Y21362D01*
X18113Y21403D02*
X18998D01*
X17497Y20787D02*
X18998Y19286D01*
Y21178D02*
Y21362D01*
X17356Y20646D02*
X18113Y21403D01*
X16902Y21611D02*
X17549Y22259D01*
X18998Y18822D02*
Y19908D01*
X17063Y20502D02*
X18998Y18567D01*
Y18638D02*
Y18822D01*
X15881Y20248D02*
X18998Y17131D01*
X16599Y20248D02*
X18998Y17849D01*
X15162Y20248D02*
X18998Y16412D01*
X15367Y22198D02*
X15814Y21752D01*
X15448D02*
X15552D01*
X16902D01*
X16086Y22198D02*
X16533Y21752D01*
X14649Y22198D02*
X15096Y21752D01*
X14567D02*
X15014Y22198D01*
X15286Y21752D02*
X15733Y22198D01*
X16902Y20498D02*
X17000D01*
X16902Y21611D02*
Y21752D01*
Y20248D02*
Y20498D01*
X15448Y20248D02*
X15552D01*
X15448D02*
X15552D01*
X16902D01*
X502Y35627D02*
X14377Y21752D01*
X13841Y23725D02*
X14164Y23402D01*
X502Y21336D02*
X18904Y39738D01*
X502Y18462D02*
X15027Y32988D01*
X502Y22773D02*
X17817Y40088D01*
X502Y23491D02*
X17576Y40565D01*
X502Y22054D02*
X18236Y39789D01*
X14148Y23402D02*
X16852D01*
X14148Y22198D02*
Y23402D01*
Y22198D02*
X16852D01*
X14098Y20248D02*
X15448D01*
X14098Y21752D02*
X15448D01*
X13119Y21740D02*
X14148Y22769D01*
X13700Y21602D02*
X14296Y22198D01*
X502Y32754D02*
X12565Y20690D01*
X502Y34909D02*
X13909Y21502D01*
X502Y34190D02*
X12988Y21704D01*
X502Y33472D02*
X12599Y21375D01*
X13810Y20498D02*
X14098D01*
Y21502D02*
Y21752D01*
Y20248D02*
Y20498D01*
X13463Y23384D02*
X14148Y22699D01*
X13810Y21502D02*
X14098D01*
X5052Y7925D02*
X18530Y21403D01*
X502Y16307D02*
X16299Y32105D01*
X6077Y7514D02*
X18998Y20435D01*
X5573Y7728D02*
X18998Y21154D01*
X502Y17025D02*
X15660Y32184D01*
X502Y17744D02*
X15254Y32496D01*
X502Y15588D02*
X17647Y32734D01*
X12940Y20315D02*
X18998Y14257D01*
X5527Y9837D02*
X15938Y20248D01*
X6905Y6905D02*
X18998Y18998D01*
X6905Y6905D02*
X18998Y18998D01*
X5527Y10556D02*
X15219Y20248D01*
X5054Y10802D02*
X14501Y20248D01*
X5052Y8644D02*
X16656Y20248D01*
X4759Y14098D02*
X14248Y23588D01*
X502Y13433D02*
X13447Y26379D01*
X502Y12715D02*
X14198Y26412D01*
X502Y11996D02*
X12606Y24101D01*
X502Y14152D02*
X12842Y26492D01*
X502Y14870D02*
X12599Y26968D01*
X502Y4500D02*
Y45500D01*
X5317Y12502D02*
X13083Y20267D01*
X5109Y13731D02*
X12510Y21131D01*
X5427Y11892D02*
X14033Y20498D01*
X502Y11278D02*
X12776Y23553D01*
X4599Y12502D02*
X12648Y20550D01*
X502Y10559D02*
X13292Y23350D01*
X18998Y17368D02*
Y17552D01*
Y18638D01*
Y14828D02*
Y15012D01*
Y14828D02*
Y15012D01*
Y18638D02*
Y18822D01*
X7514Y6077D02*
X18998Y17562D01*
X5427Y11298D02*
Y12502D01*
X5527Y9398D02*
Y10802D01*
X5052Y8088D02*
X5344Y7795D01*
X5052Y9398D02*
X5527D01*
X4715Y11298D02*
X5212Y10802D01*
X5052Y7857D02*
Y9398D01*
X4595Y12855D02*
X4948Y12502D01*
X3881D02*
X4269Y12891D01*
X3996Y11298D02*
X4493Y10802D01*
X4336D02*
X4833Y11298D01*
X3741Y9398D02*
X3948Y9191D01*
Y7857D02*
Y9398D01*
X7866Y4992D02*
X18998Y16125D01*
X7728Y5573D02*
X18998Y16843D01*
X7723Y3413D02*
X18998Y14688D01*
X7896Y4304D02*
X18998Y15406D01*
X5069Y13818D02*
X18385Y502D01*
X5037Y13131D02*
X17667Y502D01*
X5427Y12023D02*
X16948Y502D01*
X5527Y10487D02*
X15512Y502D01*
X5527Y9768D02*
X14793Y502D01*
X7795Y5344D02*
X12638Y502D01*
X7902Y4519D02*
X11919Y502D01*
X5178Y9398D02*
X14075Y502D01*
X5052Y8806D02*
X13356Y502D01*
X5427Y11305D02*
X16230Y502D01*
X7453Y2812D02*
X9764Y502D01*
X7163Y2384D02*
X9046Y502D01*
X7841Y3861D02*
X11201Y502D01*
X7683Y3301D02*
X10483Y502D01*
X6419Y1691D02*
X7609Y502D01*
X6818Y2011D02*
X8327Y502D01*
X5442Y1231D02*
X6172Y502D01*
X4840Y1115D02*
X5454Y502D01*
X5963Y1429D02*
X6890Y502D01*
X4117Y1120D02*
X4735Y502D01*
X4113Y520D02*
X4696Y1104D01*
X4812Y502D02*
X5587Y1277D01*
X3573Y12502D02*
X5427D01*
X502Y16230D02*
X4230Y12502D01*
X502Y9841D02*
X3902Y13241D01*
X502Y14075D02*
X3775Y10802D01*
X502Y18385D02*
X4818Y14069D01*
X502Y17667D02*
X4131Y14037D01*
X502Y16948D02*
X3855Y13595D01*
X3473Y10802D02*
X5527D01*
X3573Y11298D02*
X5427D01*
X3617Y10802D02*
X4114Y11298D01*
X3473Y9398D02*
X3948D01*
X502Y11919D02*
X3948Y8473D01*
X502Y11201D02*
X3861Y7841D01*
X3413Y7723D02*
X3948Y8259D01*
X3573Y11298D02*
Y12502D01*
X502Y12638D02*
X3473Y9666D01*
X502Y8404D02*
X3573Y11476D01*
X502Y9123D02*
X3573Y12194D01*
X502Y14793D02*
X3573Y11721D01*
X502Y15512D02*
X3573Y12440D01*
X502Y13356D02*
X3473Y10384D01*
Y10658D02*
X3617Y10802D01*
X3473Y9398D02*
Y10802D01*
X502Y9046D02*
X2384Y7163D01*
X502Y7686D02*
X3473Y10658D01*
X502Y10483D02*
X3301Y7683D01*
X502Y9764D02*
X2812Y7453D01*
X1673Y1673D02*
X2095Y2095D01*
X789Y3011D02*
X3011Y789D01*
X502Y6249D02*
X3651Y9398D01*
X502Y6967D02*
X3473Y9939D01*
X502Y5531D02*
X3948Y8977D01*
X3502Y628D02*
X4008Y1134D01*
X2964Y808D02*
X3427Y1272D01*
X3133Y1385D02*
X3983Y535D01*
X2055Y1336D02*
X2481Y1762D01*
X1673Y1673D02*
X2095Y2095D01*
X2484Y1047D02*
X2923Y1486D01*
X502Y6172D02*
X1231Y5442D01*
X502Y5454D02*
X1115Y4840D01*
X502Y4812D02*
X1277Y5587D01*
X502Y4735D02*
X1120Y4117D01*
X502Y8327D02*
X2011Y6818D01*
X502Y7609D02*
X1691Y6419D01*
X502Y6890D02*
X1429Y5963D01*
X1047Y2484D02*
X1486Y2923D01*
X808Y2964D02*
X1272Y3427D01*
X1336Y2055D02*
X1762Y2481D01*
X628Y3502D02*
X1134Y4008D01*
X520Y4113D02*
X1104Y4696D01*
X535Y3983D02*
X1385Y3133D01*
D11*
X44000Y24250D02*
G03*
X43554Y24696I-446J0D01*
G01*
X42706D02*
G03*
X42635Y24625I0J-71D01*
G01*
X43804Y25054D02*
G03*
X44000Y25250I0J196D01*
G01*
X42635Y25125D02*
G03*
X42706Y25054I71J0D01*
G01*
X36500Y23250D02*
G03*
X36179Y23571I-321J0D01*
G01*
X35746D02*
G03*
X35175Y23000I0J-571D01*
G01*
X36179Y23929D02*
G03*
X36500Y24250I0J321D01*
G01*
X35175Y24500D02*
G03*
X35746Y23929I571J0D01*
G01*
X33825Y23000D02*
G03*
X33194Y23631I-631J0D01*
G01*
X30131D02*
G03*
X29675Y23175I0J-456D01*
G01*
X33314Y23989D02*
G03*
X33825Y24500I0J511D01*
G01*
X29675Y24445D02*
G03*
X30131Y23989I456J0D01*
G01*
X39946Y24946D02*
G03*
X39500Y24500I0J-446D01*
G01*
X41035Y24875D02*
G03*
X40964Y24946I-71J0D01*
G01*
X39500Y25500D02*
G03*
X39696Y25304I196J0D01*
G01*
X40964D02*
G03*
X41035Y25375I0J71D01*
G01*
X38338Y12250D02*
X39250D01*
X39500Y12500D01*
Y13750D01*
Y28000D02*
X39627D01*
X39752Y27875D01*
X41035D01*
X40002Y26375D02*
X41035D01*
X39627Y26750D02*
X40002Y26375D01*
X39500Y26750D02*
X39627D01*
X43272Y22125D02*
X43897Y22750D01*
X42635Y22125D02*
X43272D01*
X43897Y22750D02*
X44000D01*
X39500Y19500D02*
X41000Y18000D01*
X39500Y23500D02*
X40375Y24375D01*
X39500Y19500D02*
Y23500D01*
X44675Y32000D02*
X44713Y32037D01*
Y33463D01*
X44750Y33500D01*
X42706Y24696D02*
X43554D01*
X42706Y25054D02*
X43804D01*
X43325Y30925D02*
Y32000D01*
Y30925D02*
X45000Y29250D01*
Y27250D02*
Y29250D01*
X43375Y25625D02*
X45000Y27250D01*
X42635Y25625D02*
X43375D01*
X41000Y18000D02*
X43325D01*
X40375Y24375D02*
X41035D01*
X42615Y22145D02*
X42635Y22125D01*
X42010Y22145D02*
X42615D01*
X41780Y22375D02*
X42010Y22145D01*
X41035Y22375D02*
X41780D01*
X41626Y27874D02*
X41875Y27625D01*
X42635D01*
X41035Y27875D02*
X41036Y27874D01*
X41626D01*
X42615Y26145D02*
X42635Y26125D01*
X42010Y26145D02*
X42615D01*
X41780Y26375D02*
X42010Y26145D01*
X41035Y26375D02*
X41780D01*
X35746Y23571D02*
X36179D01*
X35746Y23929D02*
X36179D01*
X30131Y23631D02*
X33194D01*
X30131Y23989D02*
X33314D01*
X39946Y24946D02*
X40964D01*
X39696Y25304D02*
X40964D01*
D12*
X41500Y12675D02*
D03*
Y11325D02*
D03*
X28750Y30925D02*
D03*
Y29575D02*
D03*
D13*
X16175Y27000D02*
D03*
X14825D02*
D03*
X16175Y21000D02*
D03*
X14825D02*
D03*
X33825Y21500D02*
D03*
X35175D02*
D03*
Y24500D02*
D03*
X33825D02*
D03*
X35175Y23000D02*
D03*
X33825D02*
D03*
X43325Y32000D02*
D03*
X44675D02*
D03*
Y18000D02*
D03*
X43325D02*
D03*
D14*
X15500Y25200D02*
D03*
Y24000D02*
D03*
Y22800D02*
D03*
D15*
X29675Y25715D02*
D03*
Y24445D02*
D03*
Y23175D02*
D03*
Y21905D02*
D03*
Y20635D02*
D03*
Y19365D02*
D03*
Y18095D02*
D03*
Y16825D02*
D03*
Y15555D02*
D03*
Y14285D02*
D03*
X20325D02*
D03*
Y15555D02*
D03*
Y16825D02*
D03*
Y18095D02*
D03*
Y19365D02*
D03*
Y20635D02*
D03*
Y21905D02*
D03*
Y23175D02*
D03*
Y24445D02*
D03*
Y25715D02*
D03*
D16*
X42635Y22125D02*
D03*
Y22625D02*
D03*
Y23125D02*
D03*
Y23625D02*
D03*
Y24125D02*
D03*
Y24625D02*
D03*
Y25125D02*
D03*
Y25625D02*
D03*
Y26125D02*
D03*
Y26625D02*
D03*
Y27125D02*
D03*
Y27625D02*
D03*
D17*
X41035Y27875D02*
D03*
Y27375D02*
D03*
Y26875D02*
D03*
Y26375D02*
D03*
Y25875D02*
D03*
Y25375D02*
D03*
Y24875D02*
D03*
Y24375D02*
D03*
Y23875D02*
D03*
Y23375D02*
D03*
Y22875D02*
D03*
Y22375D02*
D03*
D18*
X4500Y10100D02*
D03*
Y11900D02*
D03*
D19*
X38338Y12750D02*
D03*
Y12250D02*
D03*
Y11750D02*
D03*
Y11250D02*
D03*
X36662D02*
D03*
Y11750D02*
D03*
Y12250D02*
D03*
Y12750D02*
D03*
D20*
X43750Y12900D02*
D03*
Y11100D02*
D03*
D21*
X44997Y33747D02*
X45139Y33889D01*
X44361D02*
X44503Y33747D01*
X44997Y33253D02*
X45139Y33111D01*
X44361D02*
X44503Y33253D01*
X45000Y32000D02*
X45200D01*
X44675Y32350D02*
Y32550D01*
Y31450D02*
Y31650D01*
X42635Y27760D02*
Y27960D01*
X44247Y22503D02*
X44389Y22361D01*
X34385Y33685D02*
X34526Y33826D01*
X33254D02*
X33395Y33685D01*
X34385Y32695D02*
X34526Y32554D01*
X39747Y28247D02*
X39889Y28389D01*
X39111D02*
X39253Y28247D01*
X33254Y32554D02*
X33395Y32695D01*
X29100Y29575D02*
X29300D01*
X28750Y29050D02*
Y29250D01*
X39747Y27753D02*
X39889Y27611D01*
X39111D02*
X39253Y27753D01*
X36747Y21747D02*
X36889Y21889D01*
X36111Y21111D02*
X36253Y21253D01*
X36747D02*
X36889Y21111D01*
X36111Y21889D02*
X36253Y21747D01*
X35500Y21500D02*
X35700D01*
X30600Y25715D02*
X30800D01*
X29675Y26040D02*
Y26240D01*
X28550Y25715D02*
X28750D01*
X35175Y21850D02*
Y22050D01*
X44675Y18350D02*
Y18550D01*
X45000Y18000D02*
X45200D01*
X44997Y16747D02*
X45139Y16889D01*
X44675Y17450D02*
Y17650D01*
X44361Y16889D02*
X44503Y16747D01*
X44997Y16253D02*
X45139Y16111D01*
X44361D02*
X44503Y16253D01*
X44375Y11100D02*
X44575D01*
X43750Y11400D02*
Y11600D01*
X43997Y10247D02*
X44139Y10389D01*
X43361Y9611D02*
X43503Y9753D01*
X43997D02*
X44139Y9611D01*
X42925Y11100D02*
X43125D01*
X43361Y10389D02*
X43503Y10247D01*
X35175Y20950D02*
Y21150D01*
X35497Y13997D02*
X35639Y14139D01*
X34861D02*
X35003Y13997D01*
X38338Y10900D02*
Y11100D01*
X38747Y10247D02*
X38889Y10389D01*
X38747Y9753D02*
X38889Y9611D01*
X38111Y10389D02*
X38253Y10247D01*
X38111Y9611D02*
X38253Y9753D01*
X36662Y12900D02*
Y13100D01*
Y10900D02*
Y11100D01*
X36747Y10247D02*
X36889Y10389D01*
X36111Y9611D02*
X36253Y9753D01*
X36747D02*
X36889Y9611D01*
X36111Y10389D02*
X36253Y10247D01*
X28200Y29575D02*
X28400D01*
X27497Y29253D02*
X27639Y29111D01*
X27497Y29747D02*
X27639Y29889D01*
X26861Y29111D02*
X27003Y29253D01*
X26861Y29889D02*
X27003Y29747D01*
X15500Y24200D02*
Y24400D01*
X16450Y24000D02*
X16650D01*
X14825Y27350D02*
Y27550D01*
Y26450D02*
Y26650D01*
X12861Y27389D02*
X13003Y27247D01*
X14300Y27000D02*
X14500D01*
X13497Y27247D02*
X13639Y27389D01*
X12861Y26611D02*
X13003Y26753D01*
X13497D02*
X13639Y26611D01*
X14350Y24000D02*
X14550D01*
X12861Y24389D02*
X13003Y24247D01*
X13497D02*
X13639Y24389D01*
X24340Y5610D02*
X24481Y5751D01*
X24340Y4390D02*
X24481Y4249D01*
X22979D02*
X23120Y4390D01*
X22979Y5751D02*
X23120Y5610D01*
X15500Y23600D02*
Y23800D01*
X13497Y23753D02*
X13639Y23611D01*
X12861D02*
X13003Y23753D01*
X5125Y11900D02*
X5325D01*
X4747Y13253D02*
X4889Y13111D01*
X4747Y13747D02*
X4889Y13889D01*
X4500Y12200D02*
Y12400D01*
X4111Y13111D02*
X4253Y13253D01*
X4111Y13889D02*
X4253Y13747D01*
X4500Y11400D02*
Y11600D01*
X3675Y11900D02*
X3875D01*
D22*
X28810Y40810D02*
X31350D01*
D23*
Y29350D02*
Y33190D01*
X21190Y31810D02*
Y33190D01*
X23730Y31520D02*
Y33190D01*
X28750Y30925D02*
X28810Y30985D01*
Y33190D01*
X26250Y18250D02*
Y26500D01*
X35175Y21500D02*
X36500D01*
X32500D02*
X33825D01*
X32095Y21905D02*
X32500Y21500D01*
X29675Y21905D02*
X32095D01*
X20325Y25715D02*
X22575D01*
X13250Y27000D02*
X14825D01*
X13250Y21000D02*
X14825D01*
X13250Y24000D02*
X15500D01*
X44713Y16538D02*
X44750Y16500D01*
X44713Y16538D02*
Y17962D01*
X44675Y18000D02*
X44713Y17962D01*
X17905Y21905D02*
X20325D01*
X17000Y21000D02*
X17905Y21905D01*
X16175Y21000D02*
X17000D01*
X18035Y25715D02*
X20325D01*
X16750Y27000D02*
X18035Y25715D01*
X16175Y27000D02*
X16750D01*
X17925Y23175D02*
X20325D01*
X17550Y22800D02*
X17925Y23175D01*
X15500Y22800D02*
X17550D01*
X18055Y24445D02*
X20325D01*
X17300Y25200D02*
X18055Y24445D01*
X15500Y25200D02*
X17300D01*
X28675Y29500D02*
X28750Y29575D01*
X27250Y29500D02*
X28675D01*
X20360Y14250D02*
X22500D01*
X20325Y14285D02*
X20360Y14250D01*
X27675Y16825D02*
X29675D01*
X26250Y18250D02*
X27675Y16825D01*
X26250Y26500D02*
X27500Y27750D01*
X29750D01*
X31350Y29350D01*
X23730Y31520D02*
X25250Y30000D01*
Y18000D02*
Y30000D01*
Y18000D02*
X27695Y15555D01*
X29675D01*
X27715Y14285D02*
X29675D01*
X24250Y17750D02*
X27715Y14285D01*
X24250Y17750D02*
Y28750D01*
X21190Y31810D02*
X24250Y28750D01*
X43750Y10000D02*
Y11100D01*
X43750Y11100D01*
X43425Y12900D02*
X43750D01*
X43200Y12675D02*
X43425Y12900D01*
X41500Y12675D02*
X43200D01*
X41500Y10000D02*
Y11325D01*
X35250Y13750D02*
X36250Y12750D01*
X36662D01*
X35750Y12250D02*
X36662D01*
X35250Y12750D02*
X35750Y12250D01*
X38419Y10081D02*
X38500Y10000D01*
X38419Y10081D02*
Y11200D01*
X38369Y11250D02*
X38419Y11200D01*
X38338Y11250D02*
X38369D01*
X36500Y10000D02*
X36581Y10081D01*
Y11200D01*
X36631Y11250D01*
X36662D01*
D24*
X4500Y11900D02*
Y13500D01*
X38338Y11750D02*
X40000D01*
X40250Y12000D01*
X47000Y23500D02*
X49000Y21500D01*
Y17750D02*
Y21500D01*
X46750Y15500D02*
X49000Y17750D01*
X41250Y15500D02*
X46750D01*
X40250Y14500D02*
X41250Y15500D01*
X40250Y12000D02*
Y14500D01*
X46873Y23500D02*
X47000D01*
X46748Y23625D02*
X46873Y23500D01*
X42635Y23625D02*
X46748D01*
X42615Y23645D02*
X42635Y23625D01*
X42010Y23645D02*
X42615D01*
X41780Y23875D02*
X42010Y23645D01*
X41035Y23875D02*
X41780D01*
X29000Y11750D02*
X36662D01*
X26270Y9020D02*
X29000Y11750D01*
X26270Y5000D02*
Y9020D01*
X4500Y4500D02*
Y10100D01*
D25*
X45500Y4500D02*
D03*
X4500D02*
D03*
X45500Y45500D02*
D03*
X4500D02*
D03*
D26*
X16110Y33190D02*
D03*
X33890D02*
D03*
X31350D02*
D03*
X28810D02*
D03*
X26270D02*
D03*
X23730D02*
D03*
X21190D02*
D03*
X18650D02*
D03*
X33890Y40810D02*
D03*
X31350D02*
D03*
X28810D02*
D03*
X26270D02*
D03*
X23730D02*
D03*
X21190D02*
D03*
X18650D02*
D03*
X16110D02*
D03*
D27*
X37500Y45395D02*
D03*
X12500D02*
D03*
X25000Y82795D02*
D03*
D28*
X43735Y21400D02*
D03*
X43670Y28600D02*
D03*
D29*
X46785Y29320D02*
D03*
Y20680D02*
D03*
D30*
X41735Y29320D02*
D03*
Y20680D02*
D03*
D31*
X26270Y5000D02*
D03*
X23730D02*
D03*
D32*
X36500Y21500D02*
D03*
X22575Y25715D02*
D03*
X13250Y27000D02*
D03*
Y21000D02*
D03*
X4500Y13500D02*
D03*
X13250Y24000D02*
D03*
X39500Y13750D02*
D03*
Y28000D02*
D03*
X47000Y23500D02*
D03*
X39500Y26750D02*
D03*
X44000Y22750D02*
D03*
X44750Y33500D02*
D03*
Y16500D02*
D03*
X44000Y24250D02*
D03*
X36500Y24250D02*
D03*
Y23250D02*
D03*
X44000Y25250D02*
D03*
X39500Y24500D02*
D03*
Y25500D02*
D03*
X27250Y29500D02*
D03*
X22500Y14250D02*
D03*
X43750Y10000D02*
D03*
X41500D02*
D03*
X35250Y13750D02*
D03*
Y12750D02*
D03*
X38500Y10000D02*
D03*
X36500D02*
D03*
%TF.MD5,f4a54704c9dfd9571ac0c3bb5e69557c*%
M02*
