%TF.GenerationSoftware,Altium Limited,Altium Designer,25.2.1 (25)*%
G04 Layer_Color=255*
%FSLAX43Y43*%
%MOMM*%
%TF.SameCoordinates,EE928B88-05C6-4CB7-BE72-DB3FC024E120*%
%TF.FilePolarity,Positive*%
%TF.FileFunction,Pads,Top*%
%TF.Part,Single*%
G01*
G75*
%TA.AperFunction,SMDPad,CuDef*%
%ADD11R,0.400X0.600*%
%ADD12R,10.020X11.000*%
%ADD13R,0.600X1.250*%
%TA.AperFunction,ComponentPad*%
%ADD15C,1.725*%
%ADD16C,2.000*%
%ADD17C,6.000*%
%ADD18C,5.000*%
%ADD19C,2.085*%
%ADD20O,12.500X3.750*%
%ADD21O,3.000X5.500*%
%ADD22C,2.300*%
%ADD23C,1.325*%
%ADD24C,2.400*%
D11*
X57000Y10850D02*
D03*
Y12150D02*
D03*
D12*
Y28600D02*
D03*
D13*
X69100Y11000D02*
D03*
X70900D02*
D03*
D15*
X54460Y5000D02*
D03*
X57000D02*
D03*
X59540D02*
D03*
D16*
X69500Y16670D02*
D03*
Y21750D02*
D03*
Y31830D02*
D03*
Y26750D02*
D03*
D17*
X70000Y4500D02*
D03*
X4500Y44000D02*
D03*
X70000D02*
D03*
X4500Y4500D02*
D03*
D18*
X57000Y32050D02*
D03*
D19*
X59540Y15000D02*
D03*
X57000D02*
D03*
X54460D02*
D03*
D20*
X20875Y31750D02*
D03*
X41125D02*
D03*
D21*
X14900Y8375D02*
D03*
X47100D02*
D03*
D22*
X18180Y44040D02*
D03*
Y41500D02*
D03*
Y38960D02*
D03*
X13100D02*
D03*
Y41500D02*
D03*
Y44040D02*
D03*
X48900D02*
D03*
Y41500D02*
D03*
Y38960D02*
D03*
X43820D02*
D03*
Y41500D02*
D03*
Y44040D02*
D03*
D23*
X5045Y24250D02*
D03*
D24*
X6250Y18210D02*
D03*
X3750D02*
D03*
X6250Y21710D02*
D03*
X3750D02*
D03*
X6250Y26790D02*
D03*
X3750D02*
D03*
X6250Y30290D02*
D03*
X3750D02*
D03*
%TF.MD5,71c6aad8abff059960ec182c9d7a87fb*%
M02*
