%TF.GenerationSoftware,Altium Limited,Altium Designer,25.2.1 (25)*%
G04 Layer_Physical_Order=2*
G04 Layer_Color=16711680*
%FSLAX43Y43*%
%MOMM*%
%TF.SameCoordinates,EE928B88-05C6-4CB7-BE72-DB3FC024E120*%
%TF.FilePolarity,Positive*%
%TF.FileFunction,Copper,L2,Bot,Signal*%
%TF.Part,Single*%
G01*
G75*
%TA.AperFunction,NonConductor*%
%ADD10C,0.203*%
%TA.AperFunction,Conductor*%
%ADD14C,0.300*%
%TA.AperFunction,ComponentPad*%
%ADD15C,1.725*%
%ADD16C,2.000*%
%ADD17C,6.000*%
%ADD18C,5.000*%
%ADD19C,2.085*%
%ADD20O,12.500X3.750*%
%ADD21O,3.000X5.500*%
%ADD22C,2.300*%
%ADD23C,1.325*%
%ADD24C,2.400*%
G36*
X70641Y48049D02*
X71267Y47899D01*
X71861Y47653D01*
X72410Y47317D01*
X72899Y46899D01*
X73317Y46410D01*
X73653Y45861D01*
X73899Y45267D01*
X74049Y44641D01*
X74098Y44028D01*
X74092Y44000D01*
Y4500D01*
X74098Y4472D01*
X74049Y3859D01*
X73899Y3233D01*
X73653Y2639D01*
X73317Y2090D01*
X72899Y1601D01*
X72410Y1183D01*
X71861Y847D01*
X71267Y601D01*
X70641Y451D01*
X70028Y402D01*
X70000Y408D01*
X65500D01*
Y31371D01*
X68277D01*
X68289Y31328D01*
X68460Y31032D01*
X68702Y30790D01*
X68998Y30619D01*
X69329Y30530D01*
X69671D01*
X70002Y30619D01*
X70298Y30790D01*
X70540Y31032D01*
X70711Y31328D01*
X70800Y31659D01*
Y32001D01*
X70711Y32332D01*
X70540Y32628D01*
X70298Y32870D01*
X70002Y33041D01*
X69671Y33130D01*
X69329D01*
X68998Y33041D01*
X68702Y32870D01*
X68460Y32628D01*
X68289Y32332D01*
X68277Y32289D01*
X65500D01*
Y39500D01*
X50256D01*
X50251Y39520D01*
X50060Y39850D01*
X49790Y40120D01*
X49710Y40167D01*
Y40293D01*
X49790Y40340D01*
X50060Y40610D01*
X50251Y40940D01*
X50350Y41309D01*
Y41691D01*
X50251Y42060D01*
X50060Y42390D01*
X49790Y42660D01*
X49710Y42707D01*
Y42833D01*
X49790Y42880D01*
X50060Y43150D01*
X50251Y43480D01*
X50350Y43849D01*
Y44231D01*
X50251Y44600D01*
X50060Y44930D01*
X49790Y45200D01*
X49460Y45391D01*
X49091Y45490D01*
X48709D01*
X48340Y45391D01*
X48010Y45200D01*
X47740Y44930D01*
X47549Y44600D01*
X47450Y44231D01*
Y43849D01*
X47549Y43480D01*
X47740Y43150D01*
X48010Y42880D01*
X48090Y42833D01*
Y42707D01*
X48010Y42660D01*
X47740Y42390D01*
X47549Y42060D01*
X47450Y41691D01*
Y41309D01*
X47549Y40940D01*
X47740Y40610D01*
X48010Y40340D01*
X48090Y40293D01*
Y40167D01*
X48010Y40120D01*
X47740Y39850D01*
X47549Y39520D01*
X47544Y39500D01*
X45176D01*
X45171Y39520D01*
X44980Y39850D01*
X44710Y40120D01*
X44630Y40167D01*
Y40293D01*
X44710Y40340D01*
X44980Y40610D01*
X45171Y40940D01*
X45270Y41309D01*
Y41691D01*
X45171Y42060D01*
X44980Y42390D01*
X44710Y42660D01*
X44630Y42707D01*
Y42833D01*
X44710Y42880D01*
X44980Y43150D01*
X45171Y43480D01*
X45270Y43849D01*
Y44231D01*
X45171Y44600D01*
X44980Y44930D01*
X44710Y45200D01*
X44380Y45391D01*
X44011Y45490D01*
X43629D01*
X43260Y45391D01*
X42930Y45200D01*
X42660Y44930D01*
X42469Y44600D01*
X42370Y44231D01*
Y43849D01*
X42469Y43480D01*
X42660Y43150D01*
X42930Y42880D01*
X43010Y42833D01*
Y42707D01*
X42930Y42660D01*
X42660Y42390D01*
X42469Y42060D01*
X42370Y41691D01*
Y41309D01*
X42469Y40940D01*
X42660Y40610D01*
X42930Y40340D01*
X43010Y40293D01*
Y40167D01*
X42930Y40120D01*
X42660Y39850D01*
X42469Y39520D01*
X42464Y39500D01*
X19536D01*
X19531Y39520D01*
X19340Y39850D01*
X19070Y40120D01*
X18990Y40167D01*
Y40293D01*
X19070Y40340D01*
X19340Y40610D01*
X19531Y40940D01*
X19630Y41309D01*
Y41691D01*
X19531Y42060D01*
X19340Y42390D01*
X19070Y42660D01*
X18990Y42707D01*
Y42833D01*
X19070Y42880D01*
X19340Y43150D01*
X19531Y43480D01*
X19630Y43849D01*
Y44231D01*
X19531Y44600D01*
X19340Y44930D01*
X19070Y45200D01*
X18740Y45391D01*
X18371Y45490D01*
X17989D01*
X17620Y45391D01*
X17290Y45200D01*
X17020Y44930D01*
X16829Y44600D01*
X16730Y44231D01*
Y43849D01*
X16829Y43480D01*
X17020Y43150D01*
X17290Y42880D01*
X17370Y42833D01*
Y42707D01*
X17290Y42660D01*
X17020Y42390D01*
X16829Y42060D01*
X16730Y41691D01*
Y41309D01*
X16829Y40940D01*
X17020Y40610D01*
X17290Y40340D01*
X17370Y40293D01*
Y40167D01*
X17290Y40120D01*
X17020Y39850D01*
X16829Y39520D01*
X16824Y39500D01*
X14456D01*
X14451Y39520D01*
X14260Y39850D01*
X13990Y40120D01*
X13910Y40167D01*
Y40293D01*
X13990Y40340D01*
X14260Y40610D01*
X14451Y40940D01*
X14550Y41309D01*
Y41691D01*
X14451Y42060D01*
X14260Y42390D01*
X13990Y42660D01*
X13910Y42707D01*
Y42833D01*
X13990Y42880D01*
X14260Y43150D01*
X14451Y43480D01*
X14550Y43849D01*
Y44231D01*
X14451Y44600D01*
X14260Y44930D01*
X13990Y45200D01*
X13660Y45391D01*
X13291Y45490D01*
X12909D01*
X12540Y45391D01*
X12210Y45200D01*
X11940Y44930D01*
X11749Y44600D01*
X11650Y44231D01*
Y43849D01*
X11749Y43480D01*
X11940Y43150D01*
X12210Y42880D01*
X12290Y42833D01*
Y42707D01*
X12210Y42660D01*
X11940Y42390D01*
X11749Y42060D01*
X11650Y41691D01*
Y41309D01*
X11749Y40940D01*
X11940Y40610D01*
X12210Y40340D01*
X12290Y40293D01*
Y40167D01*
X12210Y40120D01*
X11940Y39850D01*
X11749Y39520D01*
X11744Y39500D01*
X9000D01*
Y408D01*
X4500D01*
X4472Y402D01*
X3859Y451D01*
X3233Y601D01*
X2639Y847D01*
X2090Y1183D01*
X1601Y1601D01*
X1183Y2090D01*
X847Y2639D01*
X601Y3233D01*
X451Y3859D01*
X402Y4472D01*
X408Y4500D01*
Y44000D01*
X402Y44028D01*
X451Y44641D01*
X601Y45267D01*
X847Y45861D01*
X1183Y46410D01*
X1601Y46899D01*
X2090Y47317D01*
X2639Y47653D01*
X3233Y47899D01*
X3859Y48049D01*
X4472Y48098D01*
X4500Y48092D01*
X70000D01*
X70028Y48098D01*
X70641Y48049D01*
D02*
G37*
%LPC*%
G36*
X6398Y31790D02*
X6102D01*
X5812Y31732D01*
X5539Y31619D01*
X5294Y31455D01*
X5085Y31246D01*
X5063Y31214D01*
X4937D01*
X4915Y31246D01*
X4706Y31455D01*
X4461Y31619D01*
X4188Y31732D01*
X3898Y31790D01*
X3602D01*
X3312Y31732D01*
X3039Y31619D01*
X2794Y31455D01*
X2585Y31246D01*
X2421Y31001D01*
X2308Y30728D01*
X2250Y30438D01*
Y30142D01*
X2308Y29852D01*
X2421Y29579D01*
X2585Y29334D01*
X2794Y29125D01*
X3039Y28961D01*
X3312Y28848D01*
X3602Y28790D01*
X3898D01*
X4188Y28848D01*
X4461Y28961D01*
X4706Y29125D01*
X4915Y29334D01*
X4937Y29366D01*
X5063D01*
X5085Y29334D01*
X5294Y29125D01*
X5539Y28961D01*
X5812Y28848D01*
X6102Y28790D01*
X6398D01*
X6688Y28848D01*
X6961Y28961D01*
X7206Y29125D01*
X7415Y29334D01*
X7579Y29579D01*
X7692Y29852D01*
X7750Y30142D01*
Y30438D01*
X7692Y30728D01*
X7579Y31001D01*
X7415Y31246D01*
X7206Y31455D01*
X6961Y31619D01*
X6688Y31732D01*
X6398Y31790D01*
D02*
G37*
G36*
Y28290D02*
X6102D01*
X5812Y28232D01*
X5539Y28119D01*
X5294Y27955D01*
X5085Y27746D01*
X5063Y27714D01*
X4937D01*
X4915Y27746D01*
X4706Y27955D01*
X4461Y28119D01*
X4188Y28232D01*
X3898Y28290D01*
X3602D01*
X3312Y28232D01*
X3039Y28119D01*
X2794Y27955D01*
X2585Y27746D01*
X2421Y27501D01*
X2308Y27228D01*
X2250Y26938D01*
Y26642D01*
X2308Y26352D01*
X2421Y26079D01*
X2585Y25834D01*
X2794Y25625D01*
X3039Y25461D01*
X3312Y25348D01*
X3602Y25290D01*
X3633D01*
X3701Y25163D01*
X3605Y25020D01*
X3482Y24724D01*
X3420Y24410D01*
Y24090D01*
X3482Y23776D01*
X3605Y23480D01*
X3701Y23337D01*
X3633Y23210D01*
X3602D01*
X3312Y23152D01*
X3039Y23039D01*
X2794Y22875D01*
X2585Y22666D01*
X2421Y22421D01*
X2308Y22148D01*
X2250Y21858D01*
Y21562D01*
X2308Y21272D01*
X2421Y20999D01*
X2585Y20754D01*
X2794Y20545D01*
X3039Y20381D01*
X3312Y20268D01*
X3602Y20210D01*
X3898D01*
X4188Y20268D01*
X4461Y20381D01*
X4706Y20545D01*
X4915Y20754D01*
X4937Y20786D01*
X5063D01*
X5085Y20754D01*
X5294Y20545D01*
X5539Y20381D01*
X5812Y20268D01*
X6102Y20210D01*
X6398D01*
X6688Y20268D01*
X6961Y20381D01*
X7206Y20545D01*
X7415Y20754D01*
X7579Y20999D01*
X7692Y21272D01*
X7750Y21562D01*
Y21858D01*
X7692Y22148D01*
X7579Y22421D01*
X7415Y22666D01*
X7206Y22875D01*
X6961Y23039D01*
X6688Y23152D01*
X6450Y23200D01*
X6391Y23310D01*
X6389Y23337D01*
X6485Y23480D01*
X6608Y23776D01*
X6670Y24090D01*
Y24410D01*
X6608Y24724D01*
X6485Y25020D01*
X6389Y25163D01*
X6391Y25190D01*
X6450Y25300D01*
X6688Y25348D01*
X6961Y25461D01*
X7206Y25625D01*
X7415Y25834D01*
X7579Y26079D01*
X7692Y26352D01*
X7750Y26642D01*
Y26938D01*
X7692Y27228D01*
X7579Y27501D01*
X7415Y27746D01*
X7206Y27955D01*
X6961Y28119D01*
X6688Y28232D01*
X6398Y28290D01*
D02*
G37*
G36*
X69671Y28050D02*
X69329D01*
X68998Y27961D01*
X68702Y27790D01*
X68460Y27548D01*
X68289Y27252D01*
X68200Y26921D01*
Y26579D01*
X68289Y26248D01*
X68460Y25952D01*
X68702Y25710D01*
X68998Y25539D01*
X69329Y25450D01*
X69671D01*
X70002Y25539D01*
X70298Y25710D01*
X70540Y25952D01*
X70711Y26248D01*
X70800Y26579D01*
Y26921D01*
X70711Y27252D01*
X70540Y27548D01*
X70298Y27790D01*
X70002Y27961D01*
X69671Y28050D01*
D02*
G37*
G36*
Y23050D02*
X69329D01*
X68998Y22961D01*
X68702Y22790D01*
X68460Y22548D01*
X68289Y22252D01*
X68200Y21921D01*
Y21579D01*
X68289Y21248D01*
X68460Y20952D01*
X68702Y20710D01*
X68998Y20539D01*
X69329Y20450D01*
X69671D01*
X70002Y20539D01*
X70298Y20710D01*
X70540Y20952D01*
X70711Y21248D01*
X70800Y21579D01*
Y21921D01*
X70711Y22252D01*
X70540Y22548D01*
X70298Y22790D01*
X70002Y22961D01*
X69671Y23050D01*
D02*
G37*
G36*
X6398Y19710D02*
X6102D01*
X5812Y19652D01*
X5539Y19539D01*
X5294Y19375D01*
X5085Y19166D01*
X5063Y19134D01*
X4937D01*
X4915Y19166D01*
X4706Y19375D01*
X4461Y19539D01*
X4188Y19652D01*
X3898Y19710D01*
X3602D01*
X3312Y19652D01*
X3039Y19539D01*
X2794Y19375D01*
X2585Y19166D01*
X2421Y18921D01*
X2308Y18648D01*
X2250Y18358D01*
Y18062D01*
X2308Y17772D01*
X2421Y17499D01*
X2585Y17254D01*
X2794Y17045D01*
X3039Y16881D01*
X3312Y16768D01*
X3602Y16710D01*
X3898D01*
X4188Y16768D01*
X4461Y16881D01*
X4706Y17045D01*
X4915Y17254D01*
X4937Y17286D01*
X5063D01*
X5085Y17254D01*
X5294Y17045D01*
X5539Y16881D01*
X5812Y16768D01*
X6102Y16710D01*
X6398D01*
X6688Y16768D01*
X6961Y16881D01*
X7206Y17045D01*
X7415Y17254D01*
X7579Y17499D01*
X7692Y17772D01*
X7750Y18062D01*
Y18358D01*
X7692Y18648D01*
X7579Y18921D01*
X7415Y19166D01*
X7206Y19375D01*
X6961Y19539D01*
X6688Y19652D01*
X6398Y19710D01*
D02*
G37*
G36*
X69671Y17970D02*
X69329D01*
X68998Y17881D01*
X68702Y17710D01*
X68460Y17468D01*
X68289Y17172D01*
X68200Y16841D01*
Y16499D01*
X68289Y16168D01*
X68460Y15872D01*
X68702Y15630D01*
X68998Y15459D01*
X69329Y15370D01*
X69671D01*
X70002Y15459D01*
X70298Y15630D01*
X70540Y15872D01*
X70711Y16168D01*
X70800Y16499D01*
Y16841D01*
X70711Y17172D01*
X70540Y17468D01*
X70298Y17710D01*
X70002Y17881D01*
X69671Y17970D01*
D02*
G37*
%LPD*%
D10*
X63851Y39091D02*
X65091Y37851D01*
Y32382D02*
Y39091D01*
X63133D02*
X65091Y37133D01*
X64356Y32382D02*
X65091D01*
X64711D02*
X65091Y32762D01*
X63992Y32382D02*
X65091Y33480D01*
X64570Y39091D02*
X65091Y38570D01*
X63528Y32106D02*
X63804Y32382D01*
X63528Y32106D02*
X63804Y32382D01*
X64356D01*
X63804D02*
X64356D01*
X64058Y30981D02*
X65091Y29949D01*
X63802Y30519D02*
X65091Y29230D01*
X63802Y29317D02*
X65091Y30606D01*
X63802Y29801D02*
X65091Y28512D01*
X63802Y28599D02*
X65091Y29888D01*
X63802Y30724D02*
X64356Y31278D01*
X63802Y30036D02*
X65044Y31278D01*
X62974Y31552D02*
X63528Y32106D01*
X64479Y31278D02*
X65091Y30667D01*
X64356Y31278D02*
X65091D01*
X61696Y39091D02*
X65091Y35696D01*
X60978Y39091D02*
X65091Y34978D01*
X60259Y39091D02*
X65091Y34259D01*
X59541Y39091D02*
X65091Y33541D01*
X58823Y39091D02*
X65091Y32823D01*
X57386Y39091D02*
X64095Y32382D01*
X58104Y39091D02*
X64813Y32382D01*
X56667Y39091D02*
X63590Y32168D01*
X62415Y39091D02*
X65091Y36415D01*
X50452Y39091D02*
X65091D01*
X55949D02*
X63231Y31808D01*
X55230Y39091D02*
X62872Y31449D01*
X45891Y39091D02*
X62698Y22283D01*
Y31276D02*
X62974Y31552D01*
X62698Y31276D02*
X62974Y31552D01*
X50421Y38153D02*
X62698Y25875D01*
X50061Y37794D02*
X62698Y25157D01*
X49702Y37435D02*
X62698Y24438D01*
X49010Y37408D02*
X62698Y23720D01*
X48292Y37408D02*
X62698Y23002D01*
X63802Y18541D02*
X65091Y19830D01*
X63802Y19743D02*
X65091Y18454D01*
X63802Y20461D02*
X65091Y19173D01*
X63802Y19025D02*
X65091Y17736D01*
X63802Y17104D02*
X65091Y18393D01*
X63802Y17823D02*
X65091Y19112D01*
X63802Y21898D02*
X65091Y20609D01*
X63802Y19978D02*
X65091Y21267D01*
X63802Y20696D02*
X65091Y21985D01*
X63802Y19259D02*
X65091Y20548D01*
X63802Y21180D02*
X65091Y19891D01*
X63802Y16151D02*
X65091Y14862D01*
X63802Y14231D02*
X65091Y15519D01*
X63802Y14949D02*
X65091Y16238D01*
X63802Y13512D02*
X65091Y14801D01*
X63802Y15433D02*
X65091Y14144D01*
X63802Y16386D02*
X65091Y17675D01*
X63802Y17588D02*
X65091Y16299D01*
X63802Y18306D02*
X65091Y17017D01*
X63802Y16869D02*
X65091Y15580D01*
X63802Y15667D02*
X65091Y16956D01*
X63802Y25725D02*
X65091Y27014D01*
X63802Y26927D02*
X65091Y25638D01*
X63802Y27646D02*
X65091Y26357D01*
X63802Y26209D02*
X65091Y24920D01*
X63802Y25007D02*
X65091Y26296D01*
X63802Y29083D02*
X65091Y27794D01*
X63802Y27162D02*
X65091Y28451D01*
X63802Y27881D02*
X65091Y29169D01*
X63802Y26444D02*
X65091Y27733D01*
X63802Y28364D02*
X65091Y27075D01*
X63802Y22133D02*
X65091Y23422D01*
X63802Y23335D02*
X65091Y22046D01*
X63802Y24054D02*
X65091Y22765D01*
X63802Y22617D02*
X65091Y21328D01*
X63802Y21415D02*
X65091Y22704D01*
X63802Y25490D02*
X65091Y24201D01*
X63802Y23570D02*
X65091Y24859D01*
X63802Y24288D02*
X65091Y25577D01*
X63802Y22852D02*
X65091Y24141D01*
X63802Y24772D02*
X65091Y23483D01*
X50452Y38957D02*
X50585Y39091D01*
X50452Y38238D02*
X51304Y39091D01*
X46798Y33867D02*
X52022Y39091D01*
X49676Y37408D02*
X50452Y38184D01*
X47517Y33148D02*
X53459Y39091D01*
X47157Y33507D02*
X52741Y39091D01*
X50452Y38184D02*
Y39091D01*
X49622Y37408D02*
X50452Y38238D01*
X47348Y38184D02*
Y39091D01*
X48124Y37408D02*
X49676D01*
X47348Y38184D02*
X48124Y37408D01*
X53075Y39091D02*
X62698Y29467D01*
X52357Y39091D02*
X62698Y28749D01*
X51638Y39091D02*
X62698Y28030D01*
X50920Y39091D02*
X62698Y27312D01*
X50452Y38840D02*
X62698Y26594D01*
X47777Y31971D02*
X54896Y39091D01*
X47777Y31253D02*
X55614Y39091D01*
X47777Y32690D02*
X54177Y39091D01*
X54512D02*
X62698Y30904D01*
X53794Y39091D02*
X62698Y30186D01*
X45372Y39091D02*
X47348D01*
X46609D02*
X47348Y38352D01*
X42648Y34027D02*
X47348Y38727D01*
X43366Y34027D02*
X47436Y38097D01*
X42648Y34027D02*
X47348Y38727D01*
X45372Y38906D02*
X45556Y39091D01*
X45372Y38187D02*
X46275Y39091D01*
X45372Y38184D02*
Y39091D01*
X44596Y37408D02*
X45372Y38184D01*
X44593Y37408D02*
X45372Y38187D01*
X45366Y38179D02*
X62698Y20846D01*
X45007Y37819D02*
X62698Y20128D01*
X44648Y37460D02*
X62698Y19409D01*
X43981Y37408D02*
X62698Y18691D01*
X43263Y37408D02*
X62698Y17973D01*
X44803Y34027D02*
X48185Y37408D01*
X45372Y38891D02*
X62698Y21565D01*
X44084Y34027D02*
X47795Y37737D01*
X46240Y34027D02*
X49622Y37408D01*
X45521Y34027D02*
X48903Y37408D01*
X55210Y16416D02*
X62698Y23904D01*
X55570Y16056D02*
X62698Y23185D01*
X54520Y16444D02*
X62698Y24622D01*
X57394Y16444D02*
X62698Y21748D01*
X57917Y16249D02*
X62698Y21030D01*
X56676Y16444D02*
X62698Y22467D01*
Y30724D02*
Y31276D01*
Y30724D02*
Y31276D01*
X55182Y16444D02*
X55730Y15896D01*
X56278Y16444D02*
X57722D01*
X55730Y15896D02*
X56278Y16444D01*
X58444Y15339D02*
X62698Y19593D01*
X58444Y14620D02*
X62698Y18875D01*
X58277Y15890D02*
X62698Y20312D01*
X58444Y14278D02*
Y15722D01*
X57722Y13556D02*
X58444Y14278D01*
X57722Y16444D02*
X58444Y15722D01*
X55730Y14104D02*
X56278Y13556D01*
X55182D02*
X55730Y14104D01*
X56278Y13556D02*
X57722D01*
X55012D02*
X55182D01*
X47777Y32176D02*
X62698Y17254D01*
X47777Y31458D02*
X62698Y16536D01*
X43295Y29473D02*
X56324Y16444D01*
X53802D02*
X62698Y25341D01*
X44013Y29473D02*
X57043Y16444D01*
X46638Y34027D02*
X47777Y32888D01*
Y30612D02*
Y32888D01*
X43044Y37408D02*
X44596D01*
X53738Y16444D02*
X55182D01*
X46638Y29473D02*
X47777Y30612D01*
Y30739D02*
X62698Y15817D01*
X47481Y30316D02*
X62698Y15099D01*
X47122Y29957D02*
X62698Y14380D01*
X46763Y29598D02*
X62698Y13662D01*
X42577Y29473D02*
X55942Y16108D01*
X53016Y15658D02*
X53802Y16444D01*
X53016Y14278D02*
Y15722D01*
X53738Y16444D01*
Y13556D02*
X53908D01*
X53016Y14278D02*
X53738Y13556D01*
X63802Y13277D02*
X65091Y11988D01*
X63802Y11357D02*
X65091Y12646D01*
X63802Y12075D02*
X65091Y13364D01*
X63802Y10638D02*
X65091Y11927D01*
X63802Y11840D02*
X65091Y10551D01*
X63802Y12559D02*
X65091Y11270D01*
X63802Y14714D02*
X65091Y13425D01*
X58444Y14324D02*
X62698Y10070D01*
X58444Y15043D02*
X62698Y10788D01*
X63802Y13996D02*
X65091Y12707D01*
X63802Y12794D02*
X65091Y14083D01*
X63802Y11122D02*
X65091Y9833D01*
Y502D02*
Y31278D01*
X63802Y9920D02*
X65091Y11209D01*
X63802Y10404D02*
X65091Y9115D01*
X63802Y9202D02*
X65091Y10491D01*
X62698Y8986D02*
Y30724D01*
X63802Y8986D02*
Y30724D01*
X58108Y13942D02*
X62698Y9352D01*
X57811Y6085D02*
X62698Y10972D01*
X57749Y13583D02*
X62522Y8809D01*
X48108Y11469D02*
X62698Y26059D01*
X55012Y10469D02*
X62698Y18156D01*
X44732Y29473D02*
X62698Y11507D01*
X55012Y9033D02*
X62698Y16719D01*
X55012Y9751D02*
X62698Y17438D01*
X46169Y29473D02*
X62698Y12944D01*
X46729Y11527D02*
X62698Y27496D01*
X45450Y29473D02*
X62698Y12225D01*
X57057Y13556D02*
X62163Y8450D01*
X47448Y11527D02*
X62698Y26777D01*
X55840Y6987D02*
X62698Y13846D01*
X56199Y6628D02*
X62698Y13127D01*
X55481Y7347D02*
X62698Y14564D01*
X57272Y6264D02*
X62698Y11691D01*
X56558Y6269D02*
X62698Y12409D01*
X55401Y13775D02*
X61444Y7732D01*
X55122Y7706D02*
X62698Y15283D01*
X55012Y8314D02*
X62698Y16001D01*
X56339Y13556D02*
X61804Y8091D01*
X55012Y13446D02*
X61085Y7373D01*
X63802Y9685D02*
X65091Y8396D01*
X63802Y8967D02*
X65091Y7678D01*
X63709Y8341D02*
X65091Y6959D01*
X63349Y7982D02*
X65091Y6241D01*
X62990Y7623D02*
X65091Y5523D01*
X62631Y7264D02*
X65091Y4804D01*
X63802Y8434D02*
Y8986D01*
Y8434D02*
Y8986D01*
Y8483D02*
X65091Y9772D01*
X63526Y8158D02*
X63802Y8434D01*
X63526Y8158D02*
X63802Y8434D01*
X62286Y502D02*
X65091Y3306D01*
X63004Y502D02*
X65091Y2588D01*
X61567Y502D02*
X65091Y4025D01*
X64441Y502D02*
X65091Y1151D01*
X63723Y502D02*
X65091Y1869D01*
X62272Y6904D02*
X65091Y4086D01*
X61913Y6545D02*
X65091Y3367D01*
X61553Y6186D02*
X65091Y2649D01*
X61194Y5827D02*
X65091Y1930D01*
X60849Y502D02*
X65091Y4743D01*
X58170Y5726D02*
X62698Y10254D01*
X60804Y4767D02*
X65091Y9054D01*
X57257Y502D02*
X65091Y8335D01*
X60835Y5468D02*
X65091Y1212D01*
X60804Y5437D02*
X63526Y8158D01*
X59977Y6264D02*
X62698Y8986D01*
X60804Y4368D02*
Y5437D01*
X59427Y6264D02*
X62698Y9535D01*
X60172Y3736D02*
X60804Y4368D01*
X57538Y3736D02*
X60772Y502D01*
X58694D02*
X65091Y6898D01*
X59412Y502D02*
X65091Y6180D01*
X57975Y502D02*
X65091Y7617D01*
X60804Y4780D02*
X65083Y502D01*
X60131D02*
X65091Y5462D01*
X60292Y3856D02*
X63646Y502D01*
X60651Y4215D02*
X64364Y502D01*
X57944Y4048D02*
X61490Y502D01*
X59693Y3736D02*
X62927Y502D01*
X58975Y3736D02*
X62209Y502D01*
X55012Y12625D02*
X56110Y13724D01*
X55012Y7816D02*
Y13556D01*
Y13343D02*
X55751Y14083D01*
X55012Y11188D02*
X57380Y13556D01*
X55012Y12728D02*
X60726Y7013D01*
X55012Y11906D02*
X56661Y13556D01*
X53908Y7816D02*
Y13556D01*
Y7264D02*
Y7816D01*
X49002Y7333D02*
X53908Y12240D01*
Y7264D02*
X54184Y6988D01*
X53908Y7264D02*
Y7816D01*
X55012Y11291D02*
X60008Y6295D01*
X55012Y10573D02*
X59320Y6264D01*
X55012Y12009D02*
X60367Y6654D01*
X55012Y9136D02*
X58396Y5752D01*
X55012Y9854D02*
X58755Y6111D01*
X55012Y8417D02*
X57165Y6264D01*
X55012Y7816D02*
X56563Y6264D01*
X49002Y7962D02*
X56462Y502D01*
X53908Y7264D02*
X54184Y6988D01*
X49002Y7243D02*
X55743Y502D01*
X49002Y9488D02*
X53403Y13890D01*
X49002Y8770D02*
X53787Y13556D01*
X49002Y10207D02*
X53044Y14250D01*
X49002Y6615D02*
X53908Y11522D01*
X49002Y8052D02*
X53908Y12958D01*
X48468Y11110D02*
X53016Y15658D01*
X48827Y10751D02*
X53016Y14940D01*
X45198Y10576D02*
X46149Y11527D01*
X48051D02*
X49002Y10576D01*
X46149Y11527D02*
X48051D01*
X49002Y9398D02*
X57898Y502D01*
X49002Y8680D02*
X57180Y502D01*
X49002Y10117D02*
X58617Y502D01*
X46481D02*
X53908Y7929D01*
X45762Y502D02*
X53908Y8648D01*
X45198Y6174D02*
Y10576D01*
X49002Y6174D02*
Y10576D01*
X43607Y502D02*
X53908Y10803D01*
X45044Y502D02*
X53908Y9366D01*
X44325Y502D02*
X53908Y10085D01*
X58908Y6264D02*
X59977D01*
X58276Y5632D02*
X58908Y6264D01*
X57632D02*
X58264Y5632D01*
X58276Y4368D02*
Y5632D01*
X58264Y4368D02*
Y5632D01*
X56563Y6264D02*
X57632D01*
X55736Y4368D02*
Y5437D01*
X54184Y6988D02*
X55736Y5437D01*
X56368Y3736D02*
X57632D01*
X55736Y4368D02*
X56368Y3736D01*
X58276Y4435D02*
X58975Y3736D01*
X56538Y502D02*
X59773Y3736D01*
X55820Y502D02*
X59054Y3736D01*
X58908D02*
X60172D01*
X56819D02*
X60054Y502D01*
X57632Y3736D02*
X58264Y4368D01*
X58276D02*
X58908Y3736D01*
X57617D02*
X58264Y4383D01*
X55102Y502D02*
X58622Y4022D01*
X54383Y502D02*
X57617Y3736D01*
X47917Y502D02*
X54294Y6878D01*
X48458Y5631D02*
X53588Y502D01*
X47199D02*
X53935Y7238D01*
X48099Y5272D02*
X52869Y502D01*
X47429Y5223D02*
X52151Y502D01*
X45198Y6174D02*
X46149Y5223D01*
X48051D02*
X49002Y6174D01*
X42888Y502D02*
X47610Y5223D01*
X46711D02*
X51433Y502D01*
X46149Y5223D02*
X48051D01*
X51509Y502D02*
X55736Y4728D01*
X52228Y502D02*
X55915Y4189D01*
X50791Y502D02*
X55731Y5442D01*
X53665Y502D02*
X56899Y3736D01*
X52946Y502D02*
X56274Y3830D01*
X49002Y6525D02*
X55025Y502D01*
X49354D02*
X55013Y6160D01*
X48636Y502D02*
X54653Y6519D01*
X50073Y502D02*
X55372Y5801D01*
X48818Y5990D02*
X54306Y502D01*
X41580Y39091D02*
X42268Y38403D01*
Y38184D02*
Y39091D01*
X36900Y34027D02*
X41964Y39091D01*
X37988D02*
X43052Y34027D01*
X38707Y39091D02*
X43771Y34027D01*
X37270Y39091D02*
X42334Y34027D01*
X31523Y39091D02*
X36586Y34027D01*
X35833Y39091D02*
X40897Y34027D01*
X30804Y39091D02*
X35868Y34027D01*
X36551Y39091D02*
X41615Y34027D01*
X36182D02*
X41246Y39091D01*
X39425D02*
X44489Y34027D01*
X40144Y39091D02*
X45208Y34027D01*
X27527Y31119D02*
X35498Y39091D01*
X41929Y34027D02*
X46993Y39091D01*
X40862D02*
X45926Y34027D01*
X28649Y39091D02*
X34662Y33077D01*
X27930Y39091D02*
X34473Y32548D01*
X27527Y31837D02*
X34780Y39091D01*
X30086D02*
X35381Y33796D01*
X29367Y39091D02*
X35021Y33436D01*
X22532Y34027D02*
X27596Y39091D01*
X23250Y34027D02*
X28314Y39091D01*
X21813Y34027D02*
X26877Y39091D01*
X23969Y34027D02*
X29033Y39091D01*
X19732D02*
X42268D01*
X20028D02*
X25092Y34027D01*
X20377D02*
X25441Y39091D01*
X19658Y34027D02*
X24722Y39091D01*
X21095Y34027D02*
X26159Y39091D01*
X20746D02*
X25810Y34027D01*
X27334Y33081D02*
X33343Y39091D01*
X27527Y32556D02*
X34062Y39091D01*
X27212D02*
X34473Y31829D01*
X26494Y39091D02*
X34473Y31111D01*
X9409Y12283D02*
X36217Y39091D01*
X25406Y34027D02*
X30469Y39091D01*
X26124Y34027D02*
X31188Y39091D01*
X24687Y34027D02*
X29751Y39091D01*
X26975Y33440D02*
X32625Y39091D01*
X26615Y33800D02*
X31906Y39091D01*
X42268Y38184D02*
X43044Y37408D01*
X39774Y34027D02*
X43156Y37408D01*
X39056Y34027D02*
X42741Y37712D01*
X40492Y34027D02*
X43874Y37408D01*
X41211Y34027D02*
X44593Y37408D01*
X35612Y34027D02*
X46638D01*
X37619D02*
X42268Y38676D01*
X38337Y34027D02*
X42382Y38071D01*
X35115Y39091D02*
X40179Y34027D01*
X34473Y30612D02*
X35612Y29473D01*
X34473Y32888D02*
X35612Y34027D01*
X37548Y29473D02*
X53908Y13113D01*
X36829Y29473D02*
X53908Y12394D01*
X36111Y29473D02*
X53908Y11676D01*
X41858Y29473D02*
X54887Y16444D01*
X41140Y29473D02*
X54169Y16444D01*
X38984Y29473D02*
X53016Y15442D01*
X38266Y29473D02*
X53016Y14723D01*
X35612Y29473D02*
X46638D01*
X40421D02*
X53594Y16300D01*
X39703Y29473D02*
X53235Y15941D01*
X32959Y39091D02*
X38023Y34027D01*
X33678Y39091D02*
X38742Y34027D01*
X32241Y39091D02*
X37305Y34027D01*
X34473Y30612D02*
Y32888D01*
X34396Y39091D02*
X39460Y34027D01*
X26388D02*
X27527Y32888D01*
Y30612D02*
Y32888D01*
X15362Y34027D02*
X26388D01*
Y29473D02*
X27527Y30612D01*
X15362Y29473D02*
X26388D01*
X27527Y31592D02*
X47592Y11527D01*
X27527Y30873D02*
X46873Y11527D01*
X9409Y11565D02*
X36935Y39091D01*
X27298Y30383D02*
X46155Y11527D01*
X15837D02*
X34698Y30387D01*
X14400Y11527D02*
X34473Y31600D01*
X15119Y11527D02*
X34473Y30881D01*
X9409Y14438D02*
X24444Y29473D01*
X9409Y13002D02*
X25881Y29473D01*
X9409Y13720D02*
X25163Y29473D01*
X19732Y38411D02*
X20412Y39091D01*
X19732Y38184D02*
Y39091D01*
X16628Y38184D02*
X17404Y37408D01*
X18956D02*
X19732Y38184D01*
X14560Y38093D02*
X18626Y34027D01*
X14201Y37733D02*
X17908Y34027D01*
X14652Y39091D02*
X16628D01*
X14652Y38360D02*
X15383Y39091D01*
X14652Y38184D02*
Y39091D01*
X16628Y38184D02*
Y39091D01*
X16436D02*
X16628Y38898D01*
X18221Y34027D02*
X23285Y39091D01*
X18940Y34027D02*
X24004Y39091D01*
X17503Y34027D02*
X22567Y39091D01*
X19732Y38668D02*
X24373Y34027D01*
X19614Y38067D02*
X23655Y34027D01*
X15717Y39091D02*
X20781Y34027D01*
X16066D02*
X21130Y39091D01*
X14999D02*
X20063Y34027D01*
X16784D02*
X21848Y39091D01*
X14652Y38719D02*
X19344Y34027D01*
X11548Y38184D02*
Y39091D01*
Y38231D02*
X12371Y37408D01*
X10688Y39091D02*
X11548Y38231D01*
X13876Y37408D02*
X14652Y38184D01*
X11548D02*
X12324Y37408D01*
X9409Y38146D02*
X10354Y39091D01*
X9409Y37428D02*
X11072Y39091D01*
X9409Y38865D02*
X9635Y39091D01*
X11407D02*
X11548Y38949D01*
X9409Y39091D02*
X11548D01*
X9970D02*
X15198Y33863D01*
X9409Y31681D02*
X16628Y38899D01*
X9409Y32399D02*
X16101Y39091D01*
X9409Y30244D02*
X16989Y37823D01*
X9409Y30962D02*
X16630Y38183D01*
X9409Y36709D02*
X11548Y38848D01*
X9409Y38214D02*
X14479Y33144D01*
X9409Y38933D02*
X14839Y33503D01*
X9409Y35273D02*
X11935Y37798D01*
X9409Y35991D02*
X11575Y38157D01*
X13807Y37408D02*
X17189Y34027D01*
X19255Y37708D02*
X22937Y34027D01*
X13089Y37408D02*
X16471Y34027D01*
X18118Y37408D02*
X21500Y34027D01*
X18836Y37408D02*
X22218Y34027D01*
X17404Y37408D02*
X18956D01*
X12371D02*
X15752Y34027D01*
X14223Y32888D02*
X15362Y34027D01*
X12324Y37408D02*
X13876D01*
X14223Y30612D02*
X15362Y29473D01*
X14223Y30612D02*
Y32888D01*
X9409Y18031D02*
X20852Y29473D01*
X9409Y17312D02*
X21571Y29473D01*
X9409Y19467D02*
X19415Y29473D01*
X9409Y15875D02*
X23008Y29473D01*
X9409Y16594D02*
X22289Y29473D01*
X9409Y21623D02*
X17260Y29473D01*
X9409Y20904D02*
X17979Y29473D01*
X9409Y22341D02*
X16542Y29473D01*
X13949Y11527D02*
X15851D01*
X9409Y20186D02*
X18697Y29473D01*
X9409Y28807D02*
X18011Y37408D01*
X9409Y28088D02*
X18729Y37408D01*
X9409Y29525D02*
X17348Y37464D01*
X9409Y27370D02*
X14223Y32184D01*
X9409Y36059D02*
X14223Y31245D01*
X9409Y34554D02*
X12294Y37439D01*
X9409Y33836D02*
X12982Y37408D01*
X9409Y37496D02*
X14223Y32682D01*
X9409Y36777D02*
X14223Y31963D01*
X9409Y33117D02*
X13700Y37408D01*
X9409Y23059D02*
X15823Y29473D01*
X9409Y18749D02*
X20134Y29473D01*
X9409Y23778D02*
X15233Y29602D01*
X9409Y17380D02*
X15263Y11527D01*
X9409Y15157D02*
X23726Y29473D01*
X9409Y25933D02*
X14223Y30747D01*
X9409Y25215D02*
X14515Y30320D01*
X9409Y26652D02*
X14223Y31466D01*
X9409Y16662D02*
X14544Y11527D01*
X9409Y24496D02*
X14874Y29961D01*
X23491Y502D02*
X62080Y39091D01*
X24209Y502D02*
X62798Y39091D01*
X22773Y502D02*
X61362Y39091D01*
X25646Y502D02*
X64235Y39091D01*
X26365Y502D02*
X64954Y39091D01*
X24928Y502D02*
X63517Y39091D01*
X25775D02*
X53908Y10957D01*
X25057Y39091D02*
X53908Y10239D01*
X24338Y39091D02*
X53908Y9521D01*
X23620Y39091D02*
X53908Y8802D01*
X22902Y39091D02*
X53908Y8084D01*
X29238Y502D02*
X65091Y36354D01*
X29957Y502D02*
X65091Y35635D01*
X28520Y502D02*
X65091Y37072D01*
X31394Y502D02*
X65091Y34198D01*
X30675Y502D02*
X65091Y34917D01*
X27527Y32310D02*
X59335Y502D01*
X27802D02*
X65091Y37791D01*
X27083Y502D02*
X65091Y38509D01*
X32831Y502D02*
X62698Y30369D01*
X32112Y502D02*
X62698Y31088D01*
X22183Y39091D02*
X53908Y7365D01*
X21465Y39091D02*
X55736Y4819D01*
X9409Y35340D02*
X44248Y502D01*
X9409Y33904D02*
X42812Y502D01*
X9409Y34622D02*
X43530Y502D01*
X9409Y8691D02*
X39809Y39091D01*
X9409Y7973D02*
X40527Y39091D01*
X9409Y9409D02*
X39091Y39091D01*
X9409Y30312D02*
X39219Y502D01*
X9409Y31030D02*
X39938Y502D01*
X19899D02*
X58488Y39091D01*
X20617Y502D02*
X59206Y39091D01*
X19181Y502D02*
X57769Y39091D01*
X22054Y502D02*
X60643Y39091D01*
X21336Y502D02*
X59925Y39091D01*
X17744Y502D02*
X56333Y39091D01*
X18462Y502D02*
X57051Y39091D01*
X9409Y33185D02*
X42093Y502D01*
X9409Y31748D02*
X40656Y502D01*
X9409Y32467D02*
X41375Y502D01*
X26939Y30024D02*
X45793Y11170D01*
X33549Y502D02*
X62698Y29651D01*
X26580Y29665D02*
X45434Y10811D01*
X34267Y502D02*
X62698Y28933D01*
X34986Y502D02*
X62698Y28214D01*
X22461Y29473D02*
X45198Y6736D01*
X26053Y29473D02*
X45198Y10328D01*
X25334Y29473D02*
X45198Y9609D01*
X24616Y29473D02*
X45198Y8891D01*
X23898Y29473D02*
X45198Y8173D01*
X23179Y29473D02*
X45198Y7454D01*
X40015Y502D02*
X45443Y5930D01*
X40733Y502D02*
X45802Y5571D01*
X39296Y502D02*
X45198Y6404D01*
X42170Y502D02*
X46892Y5223D01*
X41452Y502D02*
X46173Y5223D01*
X36423Y502D02*
X45198Y9277D01*
X37141Y502D02*
X45198Y8559D01*
X35704Y502D02*
X45198Y9996D01*
X38578Y502D02*
X45198Y7122D01*
X37859Y502D02*
X45198Y7841D01*
X14870Y502D02*
X43842Y29473D01*
X15588Y502D02*
X44560Y29473D01*
X14152Y502D02*
X43123Y29473D01*
X15995D02*
X44967Y502D01*
X9409D02*
X65091D01*
X16802Y6744D02*
X39531Y29473D01*
X11996Y502D02*
X40968Y29473D01*
X11278Y502D02*
X40250Y29473D01*
X13433Y502D02*
X42405Y29473D01*
X12715Y502D02*
X41687Y29473D01*
X19587D02*
X48559Y502D01*
X20306Y29473D02*
X49277Y502D01*
X18869Y29473D02*
X47840Y502D01*
X21742Y29473D02*
X50714Y502D01*
X21024Y29473D02*
X49996Y502D01*
X16713Y29473D02*
X45685Y502D01*
X17025D02*
X45997Y29473D01*
X16307Y502D02*
X45279Y29473D01*
X18150D02*
X47122Y502D01*
X17432Y29473D02*
X46404Y502D01*
X16802Y9617D02*
X36658Y29473D01*
X16802Y8899D02*
X37376Y29473D01*
X16802Y10336D02*
X35939Y29473D01*
X16802Y8181D02*
X38094Y29473D01*
X16802Y7462D02*
X38813Y29473D01*
X16802Y8181D02*
X38094Y29473D01*
X16203Y11174D02*
X35057Y30028D01*
X16562Y10815D02*
X35416Y29669D01*
X12998Y10576D02*
X13949Y11527D01*
X15851D02*
X16802Y10576D01*
X12998Y6174D02*
Y10576D01*
X9409Y23127D02*
X32035Y502D01*
X9409Y22409D02*
X31317Y502D01*
X9409Y23846D02*
X32754Y502D01*
X9409Y20972D02*
X29880Y502D01*
X9409Y21690D02*
X30598Y502D01*
X9409Y19535D02*
X28443Y502D01*
X9409Y18817D02*
X27725Y502D01*
X9409Y20254D02*
X29162Y502D01*
X16802Y6174D02*
Y10576D01*
X9409Y18098D02*
X27006Y502D01*
X9409Y15943D02*
X13888Y11465D01*
X9409Y10128D02*
X38372Y39091D01*
X9409Y10846D02*
X37654Y39091D01*
X9409Y14506D02*
X13169Y10747D01*
X9409Y15225D02*
X13528Y11106D01*
X9409Y13069D02*
X12998Y9481D01*
X9409Y12351D02*
X12998Y8762D01*
X9409Y13788D02*
X12998Y10199D01*
X9409Y10914D02*
X12998Y7325D01*
X9409Y11633D02*
X12998Y8044D01*
X9409Y28875D02*
X37783Y502D01*
X9409Y28156D02*
X37064Y502D01*
X9409Y29593D02*
X38501Y502D01*
X9409Y26719D02*
X35627Y502D01*
X9409Y27438D02*
X36346Y502D01*
X9409Y7254D02*
X34473Y32318D01*
X9409Y26001D02*
X34909Y502D01*
X9409D02*
Y39091D01*
Y24564D02*
X33472Y502D01*
X9409Y25283D02*
X34190Y502D01*
X15851Y5223D02*
X16802Y6174D01*
X10559Y502D02*
X15281Y5223D01*
X9409Y5885D02*
X14793Y502D01*
X14382Y5223D02*
X19104Y502D01*
X13949Y5223D02*
X15851D01*
X12998Y6174D02*
X13949Y5223D01*
X9409Y1507D02*
X13538Y5635D01*
X9409Y2225D02*
X13178Y5994D01*
X9841Y502D02*
X14563Y5223D01*
X9409Y788D02*
X13897Y5276D01*
X16802Y9269D02*
X25569Y502D01*
X16802Y8551D02*
X24851Y502D01*
X16802Y9988D02*
X26288Y502D01*
X16802Y7114D02*
X23414Y502D01*
X16802Y7833D02*
X24133Y502D01*
X16553Y5926D02*
X21977Y502D01*
X16802Y6396D02*
X22696Y502D01*
X16194Y5567D02*
X21259Y502D01*
X15819Y5223D02*
X20540Y502D01*
X15100Y5223D02*
X19822Y502D01*
X9409Y3662D02*
X12998Y7251D01*
X9409Y2944D02*
X12998Y6533D01*
X9409Y9477D02*
X18385Y502D01*
X9409Y5167D02*
X14075Y502D01*
X9409Y788D02*
X13897Y5276D01*
X9409Y6536D02*
X12998Y10125D01*
X9409Y5817D02*
X12998Y9406D01*
X9409Y10196D02*
X12998Y6607D01*
X9409Y4381D02*
X12998Y7969D01*
X9409Y5099D02*
X12998Y8688D01*
X9409Y8040D02*
X16948Y502D01*
X9409Y7322D02*
X16230Y502D01*
X9409Y8759D02*
X17667Y502D01*
X9409Y4448D02*
X13356Y502D01*
X9409Y6604D02*
X15512Y502D01*
X9409Y3012D02*
X11919Y502D01*
X9409Y2293D02*
X11201Y502D01*
X9409Y3730D02*
X12638Y502D01*
X9409Y856D02*
X9764Y502D01*
X9409Y1575D02*
X10483Y502D01*
D14*
X64080Y31830D02*
X69500D01*
X63250Y31000D02*
X64080Y31830D01*
X63250Y8710D02*
Y31000D01*
X59540Y5000D02*
X63250Y8710D01*
X54460Y7540D02*
X57000Y5000D01*
X54460Y7540D02*
Y15000D01*
D15*
Y5000D02*
D03*
X57000D02*
D03*
X59540D02*
D03*
D16*
X69500Y16670D02*
D03*
Y21750D02*
D03*
Y31830D02*
D03*
Y26750D02*
D03*
D17*
X70000Y4500D02*
D03*
X4500Y44000D02*
D03*
X70000D02*
D03*
X4500Y4500D02*
D03*
D18*
X57000Y32050D02*
D03*
D19*
X59540Y15000D02*
D03*
X57000D02*
D03*
X54460D02*
D03*
D20*
X20875Y31750D02*
D03*
X41125D02*
D03*
D21*
X14900Y8375D02*
D03*
X47100D02*
D03*
D22*
X18180Y44040D02*
D03*
Y41500D02*
D03*
Y38960D02*
D03*
X13100D02*
D03*
Y41500D02*
D03*
Y44040D02*
D03*
X48900D02*
D03*
Y41500D02*
D03*
Y38960D02*
D03*
X43820D02*
D03*
Y41500D02*
D03*
Y44040D02*
D03*
D23*
X5045Y24250D02*
D03*
D24*
X6250Y18210D02*
D03*
X3750D02*
D03*
X6250Y21710D02*
D03*
X3750D02*
D03*
X6250Y26790D02*
D03*
X3750D02*
D03*
X6250Y30290D02*
D03*
X3750D02*
D03*
%TF.MD5,fe0ab4aac6c949b448417a234939cb1a*%
M02*
