%TF.GenerationSoftware,Altium Limited,Altium Designer,25.2.1 (25)*%
G04 Layer_Color=32768*
%FSLAX43Y43*%
%MOMM*%
%TF.SameCoordinates,15E4D4AB-41CD-4887-95FF-7FA6A238CDF5*%
%TF.FilePolarity,Positive*%
%TF.FileFunction,Other,Mechanical_15*%
%TF.Part,Single*%
G01*
G75*
%TA.AperFunction,NonConductor*%
%ADD47C,0.200*%
%ADD52C,0.100*%
%ADD86C,0.050*%
D47*
X25000Y41750D02*
X37000D01*
X25000D02*
Y57250D01*
X37000D01*
Y41750D02*
Y57250D01*
X24000Y41750D02*
Y57250D01*
X12000D02*
X24000D01*
X12000Y41750D02*
Y57250D01*
Y41750D02*
X24000D01*
D52*
X47982Y63000D02*
G03*
X47982Y63000I-4000J0D01*
G01*
X83018Y71750D02*
G03*
X83018Y71750I-4000J0D01*
G01*
X65518D02*
G03*
X65518Y71750I-4000J0D01*
G01*
X56768D02*
G03*
X56768Y71750I-4000J0D01*
G01*
X48018D02*
G03*
X48018Y71750I-4000J0D01*
G01*
X74268D02*
G03*
X74268Y71750I-4000J0D01*
G01*
X82982Y63000D02*
G03*
X82982Y63000I-4000J0D01*
G01*
X74232D02*
G03*
X74232Y63000I-4000J0D01*
G01*
X65482D02*
G03*
X65482Y63000I-4000J0D01*
G01*
X56732D02*
G03*
X56732Y63000I-4000J0D01*
G01*
X2995Y69475D02*
Y71275D01*
X5895Y69475D02*
Y71275D01*
X2995Y69475D02*
X5895D01*
X2995Y71275D02*
X5895D01*
X91650Y10678D02*
Y18278D01*
X97650D01*
X91650Y10678D02*
X97650D01*
Y18278D01*
X54165Y78690D02*
Y85790D01*
X64835Y78690D02*
Y85790D01*
X54165Y78690D02*
X64835D01*
X54165Y85790D02*
X64835D01*
X24500Y82750D02*
X37500D01*
X24500Y64500D02*
Y82750D01*
Y64500D02*
X37500D01*
Y82750D01*
X11500D02*
X24500D01*
X11500Y64500D02*
Y82750D01*
Y64500D02*
X24500D01*
Y82750D01*
X11100Y65450D02*
X12900D01*
X11100Y62550D02*
X12900D01*
Y65450D01*
X11100Y62550D02*
Y65450D01*
X14594Y49985D02*
Y52885D01*
X16394Y49985D02*
Y52885D01*
X14594Y49985D02*
X16394D01*
X14594Y52885D02*
X16394D01*
X28183Y49731D02*
Y52631D01*
X29983Y49731D02*
Y52631D01*
X28183Y49731D02*
X29983D01*
X28183Y52631D02*
X29983D01*
X9100Y62550D02*
Y65450D01*
X10900Y62550D02*
Y65450D01*
X9100Y62550D02*
X10900D01*
X9100Y65450D02*
X10900D01*
X25850Y57706D02*
X31650D01*
Y57706D02*
Y63706D01*
X25850D02*
X31650D01*
X25850Y57706D02*
Y63706D01*
X12850Y57750D02*
Y63750D01*
Y63750D02*
X18650D01*
Y57750D02*
Y63750D01*
X12850Y57750D02*
X18650D01*
X50380Y44450D02*
X52180D01*
X50380Y41550D02*
X52180D01*
X50380D02*
Y44450D01*
X52180Y41550D02*
Y44450D01*
X65240D02*
X67040D01*
X65240Y41550D02*
X67040D01*
X65240D02*
Y44450D01*
X67040Y41550D02*
Y44450D01*
X70093Y54050D02*
X71893D01*
X70093Y56950D02*
X71893D01*
Y54050D02*
Y56950D01*
X70093Y54050D02*
Y56950D01*
X40380Y54050D02*
X42180D01*
X40380Y56950D02*
X42180D01*
Y54050D02*
Y56950D01*
X40380Y54050D02*
Y56950D01*
X55240Y54050D02*
X57040D01*
X55240Y56950D02*
X57040D01*
Y54050D02*
Y56950D01*
X55240Y54050D02*
Y56950D01*
X80100Y44450D02*
X81900D01*
X80100Y41550D02*
X81900D01*
X80100D02*
Y44450D01*
X81900Y41550D02*
Y44450D01*
X28145Y33460D02*
X41355D01*
Y40560D01*
X28145Y33460D02*
Y40560D01*
X41355D01*
X42145Y33460D02*
X55355D01*
Y40560D01*
X42145Y33460D02*
Y40560D01*
X55355D01*
X56145Y33460D02*
X69355D01*
Y40560D01*
X56145Y33460D02*
Y40560D01*
X69355D01*
X14145Y33460D02*
X27355D01*
Y40560D01*
X14145Y33460D02*
Y40560D01*
X27355D01*
X70145Y33460D02*
X83355D01*
Y40560D01*
X70145Y33460D02*
Y40560D01*
X83355D01*
X8624Y1816D02*
Y12486D01*
X1524Y1816D02*
Y12486D01*
Y1816D02*
X8624D01*
X1524Y12486D02*
X8624D01*
Y12816D02*
Y23486D01*
X1524Y12816D02*
Y23486D01*
Y12816D02*
X8624D01*
X1524Y23486D02*
X8624D01*
X9044Y1816D02*
Y12486D01*
X16144Y1816D02*
Y12486D01*
X9044D02*
X16144D01*
X9044Y1816D02*
X16144D01*
X9044Y12816D02*
Y23486D01*
X16144Y12816D02*
Y23486D01*
X9044D02*
X16144D01*
X9044Y12816D02*
X16144D01*
X69500Y81250D02*
Y90750D01*
Y81250D02*
X90500D01*
X69500Y90750D02*
X90500D01*
Y81250D02*
Y90750D01*
X42145Y25940D02*
X55355D01*
Y33040D01*
X42145Y25940D02*
Y33040D01*
X55355D01*
X14145Y25940D02*
X27355D01*
Y33040D01*
X14145Y25940D02*
Y33040D01*
X27355D01*
X28145Y25940D02*
X41355D01*
Y33040D01*
X28145Y25940D02*
Y33040D01*
X41355D01*
X56145Y25940D02*
X69355D01*
Y33040D01*
X56145Y25940D02*
Y33040D01*
X69355D01*
X70145Y25940D02*
X83355D01*
Y33040D01*
X70145Y25940D02*
Y33040D01*
X83355D01*
X65660Y28700D02*
X67460D01*
X65660Y25800D02*
X67460D01*
X65660D02*
Y28700D01*
X67460Y25800D02*
Y28700D01*
X79660D02*
X81460D01*
X79660Y25800D02*
X81460D01*
X79660D02*
Y28700D01*
X81460Y25800D02*
Y28700D01*
X51660D02*
X53460D01*
X51660Y25800D02*
X53460D01*
X51660D02*
Y28700D01*
X53460Y25800D02*
Y28700D01*
X37660D02*
X39460D01*
X37660Y25800D02*
X39460D01*
X37660D02*
Y28700D01*
X39460Y25800D02*
Y28700D01*
X23660D02*
X25460D01*
X23660Y25800D02*
X25460D01*
X23660D02*
Y28700D01*
X25460Y25800D02*
Y28700D01*
X87810Y36310D02*
X97190D01*
Y45690D01*
X87810D02*
X97190D01*
X87810Y36310D02*
Y45690D01*
Y46310D02*
X97190D01*
Y55690D01*
X87810D02*
X97190D01*
X87810Y46310D02*
Y55690D01*
Y56310D02*
X97190D01*
Y65690D01*
X87810D02*
X97190D01*
X87810Y56310D02*
Y65690D01*
Y26310D02*
X97190D01*
Y35690D01*
X87810D02*
X97190D01*
X87810Y26310D02*
Y35690D01*
X53000Y17500D02*
Y23750D01*
X71000Y17500D02*
Y23750D01*
X53000D02*
X71000D01*
X53000Y17500D02*
X71000D01*
X16040Y37800D02*
Y40700D01*
X17840Y37800D02*
Y40700D01*
X16040D02*
X17840D01*
X16040Y37800D02*
X17840D01*
X58040D02*
Y40700D01*
X59840Y37800D02*
Y40700D01*
X58040D02*
X59840D01*
X58040Y37800D02*
X59840D01*
X30040D02*
Y40700D01*
X31840Y37800D02*
Y40700D01*
X30040D02*
X31840D01*
X30040Y37800D02*
X31840D01*
X85450Y84550D02*
Y87450D01*
X87250Y84550D02*
Y87450D01*
X85450D02*
X87250D01*
X85450Y84550D02*
X87250D01*
X72040Y37800D02*
Y40700D01*
X73840Y37800D02*
Y40700D01*
X72040D02*
X73840D01*
X72040Y37800D02*
X73840D01*
X44040D02*
Y40700D01*
X45840Y37800D02*
Y40700D01*
X44040D02*
X45840D01*
X44040Y37800D02*
X45840D01*
X29600Y3520D02*
X39400D01*
X29600Y3520D02*
Y24480D01*
Y24480D02*
X39400D01*
Y3520D02*
Y24480D01*
X54710Y-7650D02*
X90270D01*
X54710D02*
Y3770D01*
X54710Y3770D02*
X90270D01*
X90270Y-7650D02*
Y3770D01*
X54710Y5460D02*
X90270D01*
X90270Y5460D02*
Y10540D01*
X54710Y5460D02*
Y10540D01*
X54710Y10540D02*
X90270D01*
X50400Y3520D02*
Y24480D01*
X40600Y24480D02*
X50400D01*
X40600Y3520D02*
Y24480D01*
Y3520D02*
X50400D01*
X28400Y3520D02*
Y24480D01*
X18600Y24480D02*
X28400D01*
X18600Y3520D02*
Y24480D01*
Y3520D02*
X28400D01*
X730Y86300D02*
X53530D01*
X730D02*
Y97320D01*
X53530D01*
Y86300D02*
Y97320D01*
D86*
X-5760Y75010D02*
X8840D01*
X-5760Y58990D02*
Y75010D01*
Y58990D02*
X8840D01*
Y75010D01*
%TF.MD5,5925adced2281f43965e452056bfa517*%
M02*
