%TF.GenerationSoftware,Altium Limited,Altium Designer,25.2.1 (25)*%
G04 Layer_Color=128*
%FSLAX43Y43*%
%MOMM*%
%TF.SameCoordinates,D3577A82-B172-4AAC-A9F5-C134510085F9*%
%TF.FilePolarity,Positive*%
%TF.FileFunction,Drillmap*%
%TF.Part,Single*%
G01*
G75*
%TA.AperFunction,NonConductor*%
%ADD66C,0.127*%
D66*
X43750Y4500D02*
X47250D01*
X45500Y2750D02*
Y6250D01*
X2750Y4500D02*
X6250D01*
X4500Y2750D02*
Y6250D01*
X43750Y45500D02*
X47250D01*
X45500Y43750D02*
Y47250D01*
X2750Y45500D02*
X6250D01*
X4500Y43750D02*
Y47250D01*
X15660Y33190D02*
X16560D01*
X16110Y32740D02*
Y33640D01*
X33440Y33190D02*
X34340D01*
X33890Y32740D02*
Y33640D01*
X30900Y33190D02*
X31800D01*
X31350Y32740D02*
Y33640D01*
X28360Y33190D02*
X29260D01*
X28810Y32740D02*
Y33640D01*
X25820Y33190D02*
X26720D01*
X26270Y32740D02*
Y33640D01*
X23280Y33190D02*
X24180D01*
X23730Y32740D02*
Y33640D01*
X20740Y33190D02*
X21640D01*
X21190Y32740D02*
Y33640D01*
X18200Y33190D02*
X19100D01*
X18650Y32740D02*
Y33640D01*
X33440Y40810D02*
X34340D01*
X33890Y40360D02*
Y41260D01*
X30900Y40810D02*
X31800D01*
X31350Y40360D02*
Y41260D01*
X28360Y40810D02*
X29260D01*
X28810Y40360D02*
Y41260D01*
X25820Y40810D02*
X26720D01*
X26270Y40360D02*
Y41260D01*
X23280Y40810D02*
X24180D01*
X23730Y40360D02*
Y41260D01*
X20740Y40810D02*
X21640D01*
X21190Y40360D02*
Y41260D01*
X18200Y40810D02*
X19100D01*
X18650Y40360D02*
Y41260D01*
X15660Y40810D02*
X16560D01*
X16110Y40360D02*
Y41260D01*
X35900Y45395D02*
X39100D01*
X37500Y43795D02*
Y46995D01*
X10900Y45395D02*
X14100D01*
X12500Y43795D02*
Y46995D01*
X23400Y82795D02*
X26600D01*
X25000Y81195D02*
Y84395D01*
X43360Y21400D02*
X44110D01*
X43735Y21025D02*
Y21775D01*
X43295Y28600D02*
X44045D01*
X43670Y28225D02*
Y28975D01*
X45910Y29320D02*
X47660D01*
X46785Y28445D02*
Y30195D01*
X45910Y20680D02*
X47660D01*
X46785Y19805D02*
Y21555D01*
X40985Y29320D02*
X42485D01*
X41735Y28570D02*
Y30070D01*
X40985Y20680D02*
X42485D01*
X41735Y19930D02*
Y21430D01*
X25695Y5000D02*
X26845D01*
X26270Y4425D02*
Y5575D01*
X23155Y5000D02*
X24305D01*
X23730Y4425D02*
Y5575D01*
X36350Y21500D02*
X36650D01*
X36500Y21350D02*
Y21650D01*
X22425Y25715D02*
X22725D01*
X22575Y25565D02*
Y25865D01*
X13100Y27000D02*
X13400D01*
X13250Y26850D02*
Y27150D01*
X13100Y21000D02*
X13400D01*
X13250Y20850D02*
Y21150D01*
X4350Y13500D02*
X4650D01*
X4500Y13350D02*
Y13650D01*
X13100Y24000D02*
X13400D01*
X13250Y23850D02*
Y24150D01*
X39350Y13750D02*
X39650D01*
X39500Y13600D02*
Y13900D01*
X39350Y28000D02*
X39650D01*
X39500Y27850D02*
Y28150D01*
X46850Y23500D02*
X47150D01*
X47000Y23350D02*
Y23650D01*
X39350Y26750D02*
X39650D01*
X39500Y26600D02*
Y26900D01*
X43850Y22750D02*
X44150D01*
X44000Y22600D02*
Y22900D01*
X44600Y33500D02*
X44900D01*
X44750Y33350D02*
Y33650D01*
X44600Y16500D02*
X44900D01*
X44750Y16350D02*
Y16650D01*
X43850Y24250D02*
X44150D01*
X44000Y24100D02*
Y24400D01*
X36350Y24250D02*
X36650D01*
X36500Y24100D02*
Y24400D01*
X36350Y23250D02*
X36650D01*
X36500Y23100D02*
Y23400D01*
X43850Y25250D02*
X44150D01*
X44000Y25100D02*
Y25400D01*
X39350Y24500D02*
X39650D01*
X39500Y24350D02*
Y24650D01*
X39350Y25500D02*
X39650D01*
X39500Y25350D02*
Y25650D01*
X27100Y29500D02*
X27400D01*
X27250Y29350D02*
Y29650D01*
X22350Y14250D02*
X22650D01*
X22500Y14100D02*
Y14400D01*
X43600Y10000D02*
X43900D01*
X43750Y9850D02*
Y10150D01*
X41350Y10000D02*
X41650D01*
X41500Y9850D02*
Y10150D01*
X35100Y13750D02*
X35400D01*
X35250Y13600D02*
Y13900D01*
X35100Y12750D02*
X35400D01*
X35250Y12600D02*
Y12900D01*
X38350Y10000D02*
X38650D01*
X38500Y9850D02*
Y10150D01*
X36350Y10000D02*
X36650D01*
X36500Y9850D02*
Y10150D01*
%TF.MD5,38766895a8731a0a209636c5ea0c1c4a*%
M02*
