%TF.GenerationSoftware,Altium Limited,Altium Designer,25.2.1 (25)*%
G04 Layer_Color=65535*
%FSLAX43Y43*%
%MOMM*%
%TF.SameCoordinates,D3577A82-B172-4AAC-A9F5-C134510085F9*%
%TF.FilePolarity,Positive*%
%TF.FileFunction,Legend,Top*%
%TF.Part,Single*%
G01*
G75*
%TA.AperFunction,NonConductor*%
%ADD21C,0.300*%
%ADD33C,0.200*%
%ADD34C,0.100*%
%ADD35C,0.400*%
%ADD36C,0.250*%
%ADD37C,0.254*%
G36*
X9851Y21913D02*
X9912D01*
Y21908D01*
X9946D01*
Y21903D01*
X9979D01*
Y21899D01*
X10003D01*
Y21894D01*
X10031D01*
Y21889D01*
X10041D01*
Y21884D01*
X10064D01*
Y21880D01*
X10083D01*
Y21875D01*
X10098D01*
Y21870D01*
X10117D01*
Y21865D01*
X10126D01*
Y21861D01*
X10140D01*
Y21856D01*
X10155D01*
Y21851D01*
X10164D01*
Y21846D01*
X10178D01*
Y21842D01*
X10188D01*
Y21837D01*
X10207D01*
Y21832D01*
X10212D01*
Y21827D01*
X10226D01*
Y21823D01*
X10231D01*
Y21818D01*
X10240D01*
Y21813D01*
X10254D01*
Y21808D01*
X10259D01*
Y21804D01*
X10273D01*
Y21799D01*
X10283D01*
Y21794D01*
X10292D01*
Y21789D01*
X10297D01*
Y21785D01*
X10307D01*
Y21780D01*
X10316D01*
Y21775D01*
X10321D01*
Y21770D01*
X10330D01*
Y21766D01*
X10340D01*
Y21761D01*
X10345D01*
Y21756D01*
X10354D01*
Y21751D01*
X10359D01*
Y21747D01*
X10368D01*
Y21742D01*
X10373D01*
Y21737D01*
X10383D01*
Y21733D01*
X10387D01*
Y21728D01*
X10392D01*
Y21723D01*
X10401D01*
Y21718D01*
X10406D01*
Y21713D01*
X10416D01*
Y21709D01*
X10420D01*
Y21704D01*
X10425D01*
Y21699D01*
X10435D01*
Y21695D01*
X10439D01*
Y21690D01*
X10444D01*
Y21685D01*
X10449D01*
Y21680D01*
X10454D01*
Y21676D01*
X10463D01*
Y21666D01*
X10473D01*
Y21661D01*
X10477D01*
Y21657D01*
X10482D01*
Y21652D01*
X10487D01*
Y21647D01*
X10492D01*
Y21642D01*
X10496D01*
Y21638D01*
X10501D01*
Y21633D01*
X10511D01*
Y21623D01*
X10520D01*
Y21614D01*
X10525D01*
Y21609D01*
X10530D01*
Y21604D01*
X10534D01*
Y21600D01*
X10539D01*
Y21595D01*
X10544D01*
Y21590D01*
X10549D01*
Y21585D01*
X10553D01*
Y21581D01*
X10558D01*
Y21576D01*
X10563D01*
Y21571D01*
X10568D01*
Y21562D01*
X10572D01*
Y21557D01*
X10577D01*
Y21552D01*
X10582D01*
Y21547D01*
X10587D01*
Y21543D01*
X10591D01*
Y21533D01*
X10596D01*
Y21528D01*
X10601D01*
Y21524D01*
X10606D01*
Y21519D01*
X10610D01*
Y21509D01*
X10615D01*
Y21505D01*
X10620D01*
Y21495D01*
X10625D01*
Y21490D01*
X10629D01*
Y21486D01*
X10634D01*
Y21476D01*
X10639D01*
Y21471D01*
X10644D01*
Y21462D01*
X10648D01*
Y21457D01*
X10653D01*
Y21452D01*
X10658D01*
Y21438D01*
X10663D01*
Y21433D01*
X10667D01*
Y21424D01*
X10672D01*
Y21419D01*
X10677D01*
Y21410D01*
X10682D01*
Y21400D01*
X10686D01*
Y21395D01*
X10691D01*
Y21386D01*
X10696D01*
Y21376D01*
X10701D01*
Y21367D01*
X10705D01*
Y21353D01*
X10710D01*
Y21348D01*
X10715D01*
Y21334D01*
X10720D01*
Y21329D01*
X10724D01*
Y21315D01*
X10729D01*
Y21305D01*
X10734D01*
Y21296D01*
X10739D01*
Y21281D01*
X10743D01*
Y21272D01*
X10748D01*
Y21253D01*
X10753D01*
Y21243D01*
X10758D01*
Y21229D01*
X10762D01*
Y21215D01*
X10767D01*
Y21205D01*
X10772D01*
Y21182D01*
X10777D01*
Y21168D01*
X10781D01*
Y21144D01*
X10786D01*
Y21130D01*
X10791D01*
Y21111D01*
X10796D01*
Y21077D01*
X10800D01*
Y21054D01*
X10805D01*
Y21011D01*
X10810D01*
Y20949D01*
X10815D01*
Y17051D01*
X10810D01*
Y16990D01*
X10805D01*
Y16947D01*
X10800D01*
Y16923D01*
X10796D01*
Y16890D01*
X10791D01*
Y16871D01*
X10786D01*
Y16857D01*
X10781D01*
Y16833D01*
X10777D01*
Y16819D01*
X10772D01*
Y16795D01*
X10767D01*
Y16785D01*
X10762D01*
Y16771D01*
X10758D01*
Y16757D01*
X10753D01*
Y16747D01*
X10748D01*
Y16728D01*
X10743D01*
Y16719D01*
X10739D01*
Y16705D01*
X10734D01*
Y16695D01*
X10729D01*
Y16686D01*
X10724D01*
Y16671D01*
X10720D01*
Y16667D01*
X10715D01*
Y16652D01*
X10710D01*
Y16648D01*
X10705D01*
Y16633D01*
X10701D01*
Y16624D01*
X10696D01*
Y16614D01*
X10691D01*
Y16605D01*
X10686D01*
Y16600D01*
X10682D01*
Y16591D01*
X10677D01*
Y16581D01*
X10672D01*
Y16576D01*
X10667D01*
Y16567D01*
X10663D01*
Y16562D01*
X10658D01*
Y16548D01*
X10653D01*
Y16543D01*
X10648D01*
Y16539D01*
X10644D01*
Y16529D01*
X10639D01*
Y16524D01*
X10634D01*
Y16515D01*
X10629D01*
Y16510D01*
X10625D01*
Y16505D01*
X10620D01*
Y16496D01*
X10615D01*
Y16491D01*
X10610D01*
Y16482D01*
X10606D01*
Y16477D01*
X10601D01*
Y16472D01*
X10596D01*
Y16467D01*
X10591D01*
Y16458D01*
X10587D01*
Y16453D01*
X10582D01*
Y16448D01*
X10577D01*
Y16444D01*
X10572D01*
Y16439D01*
X10568D01*
Y16429D01*
X10563D01*
Y16425D01*
X10558D01*
Y16420D01*
X10553D01*
Y16415D01*
X10549D01*
Y16410D01*
X10544D01*
Y16406D01*
X10539D01*
Y16401D01*
X10534D01*
Y16396D01*
X10530D01*
Y16391D01*
X10525D01*
Y16387D01*
X10520D01*
Y16377D01*
X10511D01*
Y16368D01*
X10501D01*
Y16363D01*
X10496D01*
Y16358D01*
X10492D01*
Y16353D01*
X10487D01*
Y16349D01*
X10482D01*
Y16344D01*
X10477D01*
Y16339D01*
X10473D01*
Y16334D01*
X10463D01*
Y16325D01*
X10454D01*
Y16320D01*
X10449D01*
Y16315D01*
X10444D01*
Y16311D01*
X10439D01*
Y16306D01*
X10435D01*
Y16301D01*
X10425D01*
Y16296D01*
X10420D01*
Y16292D01*
X10416D01*
Y16287D01*
X10406D01*
Y16282D01*
X10401D01*
Y16277D01*
X10392D01*
Y16273D01*
X10387D01*
Y16268D01*
X10383D01*
Y16263D01*
X10373D01*
Y16258D01*
X10368D01*
Y16254D01*
X10359D01*
Y16249D01*
X10354D01*
Y16244D01*
X10345D01*
Y16239D01*
X10340D01*
Y16235D01*
X10330D01*
Y16230D01*
X10321D01*
Y16225D01*
X10316D01*
Y16220D01*
X10307D01*
Y16216D01*
X10297D01*
Y16211D01*
X10292D01*
Y16206D01*
X10283D01*
Y16201D01*
X10273D01*
Y16197D01*
X10259D01*
Y16192D01*
X10254D01*
Y16187D01*
X10240D01*
Y16182D01*
X10231D01*
Y16178D01*
X10226D01*
Y16173D01*
X10212D01*
Y16168D01*
X10207D01*
Y16163D01*
X10188D01*
Y16159D01*
X10178D01*
Y16154D01*
X10164D01*
Y16149D01*
X10155D01*
Y16144D01*
X10140D01*
Y16140D01*
X10126D01*
Y16135D01*
X10117D01*
Y16130D01*
X10098D01*
Y16125D01*
X10083D01*
Y16121D01*
X10064D01*
Y16116D01*
X10041D01*
Y16111D01*
X10031D01*
Y16106D01*
X10003D01*
Y16102D01*
X9979D01*
Y16097D01*
X9946D01*
Y16092D01*
X9912D01*
Y16087D01*
X9851D01*
Y16083D01*
X4149D01*
Y16087D01*
X4087D01*
Y16092D01*
X4054D01*
Y16097D01*
X4021D01*
Y16102D01*
X3997D01*
Y16106D01*
X3968D01*
Y16111D01*
X3959D01*
Y16116D01*
X3935D01*
Y16121D01*
X3916D01*
Y16125D01*
X3902D01*
Y16130D01*
X3883D01*
Y16135D01*
X3873D01*
Y16140D01*
X3859D01*
Y16144D01*
X3845D01*
Y16149D01*
X3835D01*
Y16154D01*
X3821D01*
Y16159D01*
X3812D01*
Y16163D01*
X3793D01*
Y16168D01*
X3788D01*
Y16173D01*
X3774D01*
Y16178D01*
X3769D01*
Y16182D01*
X3759D01*
Y16187D01*
X3745D01*
Y16192D01*
X3740D01*
Y16197D01*
X3726D01*
Y16201D01*
X3717D01*
Y16206D01*
X3707D01*
Y16211D01*
X3703D01*
Y16216D01*
X3693D01*
Y16220D01*
X3684D01*
Y16225D01*
X3679D01*
Y16230D01*
X3669D01*
Y16235D01*
X3660D01*
Y16239D01*
X3655D01*
Y16244D01*
X3646D01*
Y16249D01*
X3641D01*
Y16254D01*
X3631D01*
Y16258D01*
X3627D01*
Y16263D01*
X3617D01*
Y16268D01*
X3612D01*
Y16273D01*
X3608D01*
Y16277D01*
X3598D01*
Y16282D01*
X3593D01*
Y16287D01*
X3584D01*
Y16292D01*
X3579D01*
Y16296D01*
X3574D01*
Y16301D01*
X3565D01*
Y16306D01*
X3560D01*
Y16311D01*
X3555D01*
Y16315D01*
X3551D01*
Y16320D01*
X3546D01*
Y16325D01*
X3536D01*
Y16334D01*
X3527D01*
Y16339D01*
X3522D01*
Y16344D01*
X3517D01*
Y16349D01*
X3513D01*
Y16353D01*
X3508D01*
Y16358D01*
X3503D01*
Y16363D01*
X3498D01*
Y16368D01*
X3489D01*
Y16377D01*
X3479D01*
Y16387D01*
X3475D01*
Y16391D01*
X3470D01*
Y16396D01*
X3465D01*
Y16401D01*
X3460D01*
Y16406D01*
X3456D01*
Y16410D01*
X3451D01*
Y16415D01*
X3446D01*
Y16420D01*
X3441D01*
Y16425D01*
X3437D01*
Y16429D01*
X3432D01*
Y16439D01*
X3427D01*
Y16444D01*
X3422D01*
Y16448D01*
X3418D01*
Y16453D01*
X3413D01*
Y16458D01*
X3408D01*
Y16467D01*
X3403D01*
Y16472D01*
X3399D01*
Y16477D01*
X3394D01*
Y16482D01*
X3389D01*
Y16491D01*
X3384D01*
Y16496D01*
X3380D01*
Y16505D01*
X3375D01*
Y16510D01*
X3370D01*
Y16515D01*
X3365D01*
Y16524D01*
X3361D01*
Y16529D01*
X3356D01*
Y16539D01*
X3351D01*
Y16543D01*
X3346D01*
Y16548D01*
X3342D01*
Y16562D01*
X3337D01*
Y16567D01*
X3332D01*
Y16576D01*
X3327D01*
Y16581D01*
X3323D01*
Y16591D01*
X3318D01*
Y16600D01*
X3313D01*
Y16605D01*
X3308D01*
Y16614D01*
X3304D01*
Y16624D01*
X3299D01*
Y16633D01*
X3294D01*
Y16648D01*
X3289D01*
Y16652D01*
X3285D01*
Y16667D01*
X3280D01*
Y16671D01*
X3275D01*
Y16686D01*
X3270D01*
Y16695D01*
X3266D01*
Y16705D01*
X3261D01*
Y16719D01*
X3256D01*
Y16728D01*
X3251D01*
Y16747D01*
X3247D01*
Y16757D01*
X3242D01*
Y16771D01*
X3237D01*
Y16785D01*
X3232D01*
Y16795D01*
X3228D01*
Y16819D01*
X3223D01*
Y16833D01*
X3218D01*
Y16857D01*
X3213D01*
Y16871D01*
X3209D01*
Y16890D01*
X3204D01*
Y16923D01*
X3199D01*
Y16947D01*
X3194D01*
Y16990D01*
X3190D01*
Y17051D01*
X3185D01*
Y20949D01*
X3190D01*
Y21011D01*
X3194D01*
Y21054D01*
X3199D01*
Y21077D01*
X3204D01*
Y21111D01*
X3209D01*
Y21130D01*
X3213D01*
Y21144D01*
X3218D01*
Y21168D01*
X3223D01*
Y21182D01*
X3228D01*
Y21205D01*
X3232D01*
Y21215D01*
X3237D01*
Y21229D01*
X3242D01*
Y21243D01*
X3247D01*
Y21253D01*
X3251D01*
Y21272D01*
X3256D01*
Y21281D01*
X3261D01*
Y21296D01*
X3266D01*
Y21305D01*
X3270D01*
Y21315D01*
X3275D01*
Y21329D01*
X3280D01*
Y21334D01*
X3285D01*
Y21348D01*
X3289D01*
Y21353D01*
X3294D01*
Y21367D01*
X3299D01*
Y21376D01*
X3304D01*
Y21386D01*
X3308D01*
Y21395D01*
X3313D01*
Y21400D01*
X3318D01*
Y21410D01*
X3323D01*
Y21419D01*
X3327D01*
Y21424D01*
X3332D01*
Y21433D01*
X3337D01*
Y21438D01*
X3342D01*
Y21452D01*
X3346D01*
Y21457D01*
X3351D01*
Y21462D01*
X3356D01*
Y21471D01*
X3361D01*
Y21476D01*
X3365D01*
Y21486D01*
X3370D01*
Y21490D01*
X3375D01*
Y21495D01*
X3380D01*
Y21505D01*
X3384D01*
Y21509D01*
X3389D01*
Y21519D01*
X3394D01*
Y21524D01*
X3399D01*
Y21528D01*
X3403D01*
Y21533D01*
X3408D01*
Y21543D01*
X3413D01*
Y21547D01*
X3418D01*
Y21552D01*
X3422D01*
Y21557D01*
X3427D01*
Y21562D01*
X3432D01*
Y21571D01*
X3437D01*
Y21576D01*
X3441D01*
Y21581D01*
X3446D01*
Y21585D01*
X3451D01*
Y21590D01*
X3456D01*
Y21595D01*
X3460D01*
Y21600D01*
X3465D01*
Y21604D01*
X3470D01*
Y21609D01*
X3475D01*
Y21614D01*
X3479D01*
Y21623D01*
X3489D01*
Y21633D01*
X3498D01*
Y21638D01*
X3503D01*
Y21642D01*
X3508D01*
Y21647D01*
X3513D01*
Y21652D01*
X3517D01*
Y21657D01*
X3522D01*
Y21661D01*
X3527D01*
Y21666D01*
X3536D01*
Y21676D01*
X3546D01*
Y21680D01*
X3551D01*
Y21685D01*
X3555D01*
Y21690D01*
X3560D01*
Y21695D01*
X3565D01*
Y21699D01*
X3574D01*
Y21704D01*
X3579D01*
Y21709D01*
X3584D01*
Y21713D01*
X3593D01*
Y21718D01*
X3598D01*
Y21723D01*
X3608D01*
Y21728D01*
X3612D01*
Y21733D01*
X3617D01*
Y21737D01*
X3627D01*
Y21742D01*
X3631D01*
Y21747D01*
X3641D01*
Y21751D01*
X3646D01*
Y21756D01*
X3655D01*
Y21761D01*
X3660D01*
Y21766D01*
X3669D01*
Y21770D01*
X3679D01*
Y21775D01*
X3684D01*
Y21780D01*
X3693D01*
Y21785D01*
X3703D01*
Y21789D01*
X3707D01*
Y21794D01*
X3717D01*
Y21799D01*
X3726D01*
Y21804D01*
X3740D01*
Y21808D01*
X3745D01*
Y21813D01*
X3759D01*
Y21818D01*
X3769D01*
Y21823D01*
X3774D01*
Y21827D01*
X3788D01*
Y21832D01*
X3793D01*
Y21837D01*
X3812D01*
Y21842D01*
X3821D01*
Y21846D01*
X3835D01*
Y21851D01*
X3845D01*
Y21856D01*
X3859D01*
Y21861D01*
X3873D01*
Y21865D01*
X3883D01*
Y21870D01*
X3902D01*
Y21875D01*
X3916D01*
Y21880D01*
X3935D01*
Y21884D01*
X3959D01*
Y21889D01*
X3968D01*
Y21894D01*
X3997D01*
Y21899D01*
X4021D01*
Y21903D01*
X4054D01*
Y21908D01*
X4087D01*
Y21913D01*
X4149D01*
Y21918D01*
X9851D01*
Y21913D01*
D02*
G37*
G36*
X16772Y9864D02*
X18591D01*
Y8956D01*
X18589D01*
Y8955D01*
X17681D01*
Y8046D01*
X18589D01*
Y8045D01*
X18591D01*
Y7137D01*
X19500D01*
Y5319D01*
X18591D01*
Y6228D01*
X17683D01*
Y6229D01*
X17681D01*
Y7137D01*
X16772D01*
Y6229D01*
X16771D01*
Y6228D01*
X15863D01*
Y7137D01*
X13136D01*
Y6228D01*
X14044D01*
Y6227D01*
X14045D01*
Y5319D01*
X13136D01*
Y6228D01*
X12228D01*
Y6229D01*
X12227D01*
Y7137D01*
X11318D01*
Y6229D01*
X11317D01*
Y6228D01*
X10409D01*
Y5319D01*
X9500D01*
Y7137D01*
X10409D01*
Y8045D01*
X10410D01*
Y8046D01*
X11318D01*
Y8955D01*
X10410D01*
Y8956D01*
X10409D01*
Y9864D01*
X9500D01*
Y10517D01*
Y10518D01*
Y10773D01*
X10408D01*
Y10772D01*
X10409D01*
Y9864D01*
X12227D01*
Y8046D01*
X13136D01*
Y9864D01*
X12227D01*
Y11682D01*
X13136D01*
Y10773D01*
X15863D01*
Y11682D01*
X16772D01*
Y9864D01*
D02*
G37*
G36*
X19500D02*
X18591D01*
Y10143D01*
Y10144D01*
Y10772D01*
X18592D01*
Y10773D01*
X19500D01*
Y9864D01*
D02*
G37*
G36*
X15863Y6157D02*
Y6155D01*
Y5319D01*
X14954D01*
Y6227D01*
X14955D01*
Y6228D01*
X15863D01*
Y6157D01*
D02*
G37*
%LPC*%
G36*
X9860Y21467D02*
X4139D01*
Y21462D01*
X4097D01*
Y21457D01*
X4073D01*
Y21452D01*
X4059D01*
Y21448D01*
X4035D01*
Y21443D01*
X4025D01*
Y21438D01*
X4006D01*
Y21433D01*
X3997D01*
Y21429D01*
X3983D01*
Y21424D01*
X3973D01*
Y21419D01*
X3964D01*
Y21414D01*
X3949D01*
Y21410D01*
X3945D01*
Y21405D01*
X3935D01*
Y21400D01*
X3926D01*
Y21395D01*
X3916D01*
Y21391D01*
X3907D01*
Y21386D01*
X3902D01*
Y21381D01*
X3892D01*
Y21376D01*
X3883D01*
Y21372D01*
X3878D01*
Y21367D01*
X3873D01*
Y21362D01*
X3864D01*
Y21357D01*
X3859D01*
Y21353D01*
X3854D01*
Y21348D01*
X3845D01*
Y21343D01*
X3840D01*
Y21338D01*
X3835D01*
Y21334D01*
X3831D01*
Y21329D01*
X3826D01*
Y21324D01*
X3816D01*
Y21319D01*
X3812D01*
Y21315D01*
X3807D01*
Y21310D01*
X3802D01*
Y21305D01*
X3797D01*
Y21300D01*
X3793D01*
Y21296D01*
X3788D01*
Y21291D01*
X3783D01*
Y21286D01*
X3778D01*
Y21277D01*
X3774D01*
Y21272D01*
X3769D01*
Y21267D01*
X3764D01*
Y21262D01*
X3759D01*
Y21258D01*
X3755D01*
Y21253D01*
X3750D01*
Y21243D01*
X3745D01*
Y21239D01*
X3740D01*
Y21229D01*
X3736D01*
Y21224D01*
X3731D01*
Y21220D01*
X3726D01*
Y21210D01*
X3721D01*
Y21201D01*
X3717D01*
Y21196D01*
X3712D01*
Y21187D01*
X3707D01*
Y21177D01*
X3703D01*
Y21172D01*
X3698D01*
Y21163D01*
X3693D01*
Y21149D01*
X3688D01*
Y21144D01*
X3684D01*
Y21130D01*
X3679D01*
Y21125D01*
X3674D01*
Y21106D01*
X3669D01*
Y21096D01*
X3665D01*
Y21082D01*
X3660D01*
Y21063D01*
X3655D01*
Y21049D01*
X3650D01*
Y21025D01*
X3646D01*
Y21006D01*
X3641D01*
Y20973D01*
X3636D01*
Y17028D01*
X3641D01*
Y16994D01*
X3646D01*
Y16975D01*
X3650D01*
Y16952D01*
X3655D01*
Y16937D01*
X3660D01*
Y16918D01*
X3665D01*
Y16904D01*
X3669D01*
Y16895D01*
X3674D01*
Y16876D01*
X3679D01*
Y16871D01*
X3684D01*
Y16857D01*
X3688D01*
Y16852D01*
X3693D01*
Y16838D01*
X3698D01*
Y16828D01*
X3703D01*
Y16823D01*
X3707D01*
Y16814D01*
X3712D01*
Y16804D01*
X3717D01*
Y16800D01*
X3721D01*
Y16790D01*
X3726D01*
Y16781D01*
X3731D01*
Y16776D01*
X3736D01*
Y16771D01*
X3740D01*
Y16762D01*
X3745D01*
Y16757D01*
X3750D01*
Y16747D01*
X3755D01*
Y16743D01*
X3759D01*
Y16738D01*
X3764D01*
Y16733D01*
X3769D01*
Y16728D01*
X3774D01*
Y16719D01*
X3778D01*
Y16714D01*
X3783D01*
Y16709D01*
X3788D01*
Y16705D01*
X3793D01*
Y16700D01*
X3797D01*
Y16695D01*
X3802D01*
Y16690D01*
X3807D01*
Y16686D01*
X3812D01*
Y16681D01*
X3816D01*
Y16676D01*
X3826D01*
Y16671D01*
X3831D01*
Y16667D01*
X3835D01*
Y16662D01*
X3840D01*
Y16657D01*
X3845D01*
Y16652D01*
X3854D01*
Y16648D01*
X3859D01*
Y16643D01*
X3864D01*
Y16638D01*
X3873D01*
Y16633D01*
X3878D01*
Y16629D01*
X3883D01*
Y16624D01*
X3892D01*
Y16619D01*
X3902D01*
Y16614D01*
X3907D01*
Y16610D01*
X3916D01*
Y16605D01*
X3926D01*
Y16600D01*
X3935D01*
Y16595D01*
X3945D01*
Y16591D01*
X3949D01*
Y16586D01*
X3964D01*
Y16581D01*
X3973D01*
Y16576D01*
X3983D01*
Y16572D01*
X3997D01*
Y16567D01*
X4006D01*
Y16562D01*
X4025D01*
Y16558D01*
X4035D01*
Y16553D01*
X4059D01*
Y16548D01*
X4073D01*
Y16543D01*
X4097D01*
Y16539D01*
X4139D01*
Y16534D01*
X9865D01*
Y16539D01*
X9903D01*
Y16543D01*
X9927D01*
Y16548D01*
X9941D01*
Y16553D01*
X9965D01*
Y16558D01*
X9974D01*
Y16562D01*
X9993D01*
Y16567D01*
X10003D01*
Y16572D01*
X10017D01*
Y16576D01*
X10026D01*
Y16581D01*
X10036D01*
Y16586D01*
X10050D01*
Y16591D01*
X10055D01*
Y16595D01*
X10064D01*
Y16600D01*
X10074D01*
Y16605D01*
X10083D01*
Y16610D01*
X10093D01*
Y16614D01*
X10098D01*
Y16619D01*
X10107D01*
Y16624D01*
X10117D01*
Y16629D01*
X10121D01*
Y16633D01*
X10126D01*
Y16638D01*
X10136D01*
Y16643D01*
X10140D01*
Y16648D01*
X10145D01*
Y16652D01*
X10155D01*
Y16657D01*
X10159D01*
Y16662D01*
X10164D01*
Y16667D01*
X10169D01*
Y16671D01*
X10174D01*
Y16676D01*
X10183D01*
Y16681D01*
X10188D01*
Y16686D01*
X10193D01*
Y16690D01*
X10197D01*
Y16695D01*
X10202D01*
Y16700D01*
X10207D01*
Y16705D01*
X10212D01*
Y16709D01*
X10216D01*
Y16714D01*
X10221D01*
Y16719D01*
X10226D01*
Y16728D01*
X10231D01*
Y16733D01*
X10235D01*
Y16738D01*
X10240D01*
Y16743D01*
X10245D01*
Y16747D01*
X10250D01*
Y16757D01*
X10254D01*
Y16762D01*
X10259D01*
Y16771D01*
X10264D01*
Y16776D01*
X10269D01*
Y16781D01*
X10273D01*
Y16790D01*
X10278D01*
Y16800D01*
X10283D01*
Y16804D01*
X10288D01*
Y16809D01*
X10292D01*
Y16823D01*
X10297D01*
Y16828D01*
X10302D01*
Y16838D01*
X10307D01*
Y16852D01*
X10311D01*
Y16857D01*
X10316D01*
Y16871D01*
X10321D01*
Y16876D01*
X10326D01*
Y16895D01*
X10330D01*
Y16904D01*
X10335D01*
Y16918D01*
X10340D01*
Y16937D01*
X10345D01*
Y16952D01*
X10349D01*
Y16975D01*
X10354D01*
Y16994D01*
X10359D01*
Y17028D01*
X10364D01*
Y20973D01*
X10359D01*
Y21006D01*
X10354D01*
Y21025D01*
X10349D01*
Y21049D01*
X10345D01*
Y21063D01*
X10340D01*
Y21082D01*
X10335D01*
Y21096D01*
X10330D01*
Y21106D01*
X10326D01*
Y21125D01*
X10321D01*
Y21130D01*
X10316D01*
Y21144D01*
X10311D01*
Y21149D01*
X10307D01*
Y21163D01*
X10302D01*
Y21172D01*
X10297D01*
Y21177D01*
X10292D01*
Y21187D01*
X10288D01*
Y21196D01*
X10283D01*
Y21201D01*
X10278D01*
Y21210D01*
X10273D01*
Y21220D01*
X10269D01*
Y21224D01*
X10264D01*
Y21229D01*
X10259D01*
Y21239D01*
X10254D01*
Y21243D01*
X10250D01*
Y21253D01*
X10245D01*
Y21258D01*
X10240D01*
Y21262D01*
X10235D01*
Y21267D01*
X10231D01*
Y21272D01*
X10226D01*
Y21281D01*
X10221D01*
Y21286D01*
X10216D01*
Y21291D01*
X10212D01*
Y21296D01*
X10207D01*
Y21300D01*
X10202D01*
Y21305D01*
X10197D01*
Y21310D01*
X10193D01*
Y21315D01*
X10188D01*
Y21319D01*
X10183D01*
Y21324D01*
X10174D01*
Y21329D01*
X10169D01*
Y21334D01*
X10164D01*
Y21338D01*
X10159D01*
Y21343D01*
X10155D01*
Y21348D01*
X10145D01*
Y21353D01*
X10140D01*
Y21357D01*
X10136D01*
Y21362D01*
X10126D01*
Y21367D01*
X10121D01*
Y21372D01*
X10117D01*
Y21376D01*
X10107D01*
Y21381D01*
X10098D01*
Y21386D01*
X10093D01*
Y21391D01*
X10083D01*
Y21395D01*
X10074D01*
Y21400D01*
X10064D01*
Y21405D01*
X10055D01*
Y21410D01*
X10050D01*
Y21414D01*
X10036D01*
Y21419D01*
X10026D01*
Y21424D01*
X10017D01*
Y21429D01*
X10003D01*
Y21433D01*
X9993D01*
Y21438D01*
X9974D01*
Y21443D01*
X9965D01*
Y21448D01*
X9941D01*
Y21452D01*
X9927D01*
Y21457D01*
X9903D01*
Y21462D01*
X9860D01*
Y21467D01*
D02*
G37*
%LPD*%
G36*
X6879Y21130D02*
X6888D01*
Y17213D01*
X6883D01*
Y17208D01*
X6879D01*
Y17203D01*
X6869D01*
Y17208D01*
X6228D01*
Y17203D01*
X6224D01*
Y17208D01*
X6214D01*
Y17426D01*
X6224D01*
Y17431D01*
X6233D01*
Y17426D01*
X6238D01*
Y17431D01*
X6641D01*
Y17426D01*
X6651D01*
Y17431D01*
X6660D01*
Y17436D01*
X6665D01*
Y17906D01*
Y17911D01*
Y18884D01*
X6660D01*
Y18893D01*
X6656D01*
Y18898D01*
X6651D01*
Y18903D01*
X6646D01*
Y18908D01*
X6637D01*
Y18912D01*
X6632D01*
Y18917D01*
X6627D01*
Y18922D01*
X6622D01*
Y18927D01*
X6618D01*
Y18931D01*
X6613D01*
Y18936D01*
X6608D01*
Y18941D01*
X6603D01*
Y18946D01*
X6599D01*
Y18950D01*
X6594D01*
Y18955D01*
X6589D01*
Y18960D01*
X6580D01*
Y18965D01*
X6575D01*
Y18969D01*
X6570D01*
Y18974D01*
X6565D01*
Y18979D01*
X6561D01*
Y18984D01*
X6556D01*
Y18988D01*
X6551D01*
Y18993D01*
X6546D01*
Y18998D01*
X6542D01*
Y19003D01*
X6537D01*
Y19007D01*
X6527D01*
Y19012D01*
X6523D01*
Y19017D01*
X6518D01*
Y19022D01*
X6513D01*
Y19026D01*
X6508D01*
Y19031D01*
X6504D01*
Y19036D01*
X6499D01*
Y19041D01*
X6494D01*
Y19045D01*
X6489D01*
Y19050D01*
X6480D01*
Y19055D01*
X6475D01*
Y19060D01*
X6470D01*
Y19064D01*
X6466D01*
Y19069D01*
X6461D01*
Y19074D01*
X6456D01*
Y19079D01*
X6451D01*
Y19083D01*
X6447D01*
Y19088D01*
X6442D01*
Y19093D01*
X6437D01*
Y19098D01*
X6432D01*
Y19102D01*
X6423D01*
Y19107D01*
X6418D01*
Y19112D01*
X6413D01*
Y19117D01*
X6409D01*
Y19121D01*
X6404D01*
Y19126D01*
X6399D01*
Y19131D01*
X6394D01*
Y19136D01*
X6390D01*
Y19140D01*
X6385D01*
Y19145D01*
X6375D01*
Y19150D01*
X6371D01*
Y19154D01*
X6366D01*
Y19159D01*
X6361D01*
Y19164D01*
X6356D01*
Y19169D01*
X6352D01*
Y19173D01*
X6347D01*
Y19178D01*
X6342D01*
Y19183D01*
X6337D01*
Y19188D01*
X6333D01*
Y19192D01*
X6328D01*
Y19197D01*
X6318D01*
Y19202D01*
X6314D01*
Y19207D01*
X6309D01*
Y19211D01*
X6304D01*
Y19216D01*
X6299D01*
Y19221D01*
X6295D01*
Y19226D01*
X6290D01*
Y19230D01*
X6285D01*
Y19235D01*
X6280D01*
Y19240D01*
X6271D01*
Y19245D01*
X6266D01*
Y19249D01*
X6262D01*
Y19254D01*
X6257D01*
Y19259D01*
X6252D01*
Y19264D01*
X6247D01*
Y19268D01*
X6243D01*
Y19273D01*
X6238D01*
Y19278D01*
X6233D01*
Y19283D01*
X6228D01*
Y19287D01*
X6219D01*
Y19292D01*
X6214D01*
Y19297D01*
X6209D01*
Y19302D01*
X6205D01*
Y19306D01*
X6200D01*
Y19311D01*
X6195D01*
Y19316D01*
X6190D01*
Y19321D01*
X6186D01*
Y19325D01*
X6181D01*
Y19330D01*
X6176D01*
Y19335D01*
X6171D01*
Y19340D01*
X6162D01*
Y19344D01*
X6157D01*
Y19349D01*
X6152D01*
Y19354D01*
X6148D01*
Y19359D01*
X6143D01*
Y19363D01*
X6138D01*
Y19368D01*
X6133D01*
Y19373D01*
X6129D01*
Y19378D01*
X6124D01*
Y19382D01*
X6114D01*
Y19387D01*
X6110D01*
Y19392D01*
X6105D01*
Y19397D01*
X6100D01*
Y19401D01*
X6095D01*
Y19406D01*
X6091D01*
Y19411D01*
X6086D01*
Y19416D01*
X6081D01*
Y19420D01*
X6076D01*
Y19425D01*
X6072D01*
Y19430D01*
X6067D01*
Y19435D01*
X6057D01*
Y19439D01*
X6053D01*
Y19444D01*
X6048D01*
Y19449D01*
X6043D01*
Y19454D01*
X6038D01*
Y19458D01*
X6034D01*
Y19463D01*
X6029D01*
Y19468D01*
X6024D01*
Y19473D01*
X6019D01*
Y19477D01*
X6010D01*
Y19482D01*
X6005D01*
Y19487D01*
X6000D01*
Y19492D01*
X5996D01*
Y19496D01*
X5991D01*
Y19501D01*
X5986D01*
Y19506D01*
X5981D01*
Y19511D01*
X5977D01*
Y19515D01*
X5972D01*
Y19520D01*
X5967D01*
Y19525D01*
X5962D01*
Y19530D01*
X5953D01*
Y19534D01*
X5948D01*
Y19539D01*
X5943D01*
Y19544D01*
X5939D01*
Y19549D01*
X5934D01*
Y19553D01*
X5929D01*
Y19558D01*
X5920D01*
Y19568D01*
X5915D01*
Y19572D01*
X5905D01*
Y19582D01*
X5896D01*
Y19587D01*
X5891D01*
Y19591D01*
X5886D01*
Y19596D01*
X5882D01*
Y19601D01*
X5877D01*
Y19606D01*
X5872D01*
Y19610D01*
X5867D01*
Y19615D01*
X5858D01*
Y19620D01*
X5853D01*
Y19625D01*
X5848D01*
Y19629D01*
X5844D01*
Y19634D01*
X5839D01*
Y19639D01*
X5834D01*
Y19644D01*
X5829D01*
Y19648D01*
X5825D01*
Y19653D01*
X5820D01*
Y19658D01*
X5815D01*
Y19663D01*
X5810D01*
Y19667D01*
X5806D01*
Y19672D01*
X5796D01*
Y19677D01*
X5791D01*
Y19681D01*
X5787D01*
Y19686D01*
X5782D01*
Y19691D01*
X5777D01*
Y19696D01*
X5773D01*
Y19700D01*
X5768D01*
Y19705D01*
X5763D01*
Y19710D01*
X5758D01*
Y19715D01*
X5749D01*
Y19719D01*
X5744D01*
Y19724D01*
X5739D01*
Y19729D01*
X5735D01*
Y19734D01*
X5730D01*
Y19738D01*
X5725D01*
Y19743D01*
X5720D01*
Y19748D01*
X5716D01*
Y19753D01*
X5711D01*
Y19757D01*
X5706D01*
Y19762D01*
X5701D01*
Y19767D01*
X5692D01*
Y19772D01*
X5687D01*
Y19776D01*
X5682D01*
Y19781D01*
X5678D01*
Y19786D01*
X5673D01*
Y19791D01*
X5668D01*
Y19795D01*
X5663D01*
Y19800D01*
X5659D01*
Y19805D01*
X5654D01*
Y19810D01*
X5644D01*
Y19814D01*
X5640D01*
Y19819D01*
X5635D01*
Y19824D01*
X5630D01*
Y19829D01*
X5625D01*
Y19833D01*
X5621D01*
Y19838D01*
X5616D01*
Y19843D01*
X5611D01*
Y19848D01*
X5606D01*
Y19852D01*
X5602D01*
Y19857D01*
X5592D01*
Y19862D01*
X5587D01*
Y19867D01*
X5583D01*
Y19871D01*
X5578D01*
Y19876D01*
X5573D01*
Y19881D01*
X5568D01*
Y19886D01*
X5564D01*
Y19890D01*
X5559D01*
Y19895D01*
X5554D01*
Y19900D01*
X5549D01*
Y19905D01*
X5545D01*
Y19909D01*
X5535D01*
Y19914D01*
X5530D01*
Y19919D01*
X5526D01*
Y19924D01*
X5521D01*
Y19928D01*
X5516D01*
Y19933D01*
X5511D01*
Y19938D01*
X5507D01*
Y19943D01*
X5502D01*
Y19947D01*
X5497D01*
Y19952D01*
X5488D01*
Y19957D01*
X5483D01*
Y19962D01*
X5478D01*
Y19966D01*
X5473D01*
Y19971D01*
X5469D01*
Y19976D01*
X5464D01*
Y19981D01*
X5459D01*
Y19985D01*
X5454D01*
Y19990D01*
X5445D01*
Y20000D01*
X5440D01*
Y20004D01*
X5431D01*
Y20000D01*
X5426D01*
Y19990D01*
X5421D01*
Y19976D01*
X5416D01*
Y19962D01*
X5412D01*
Y19947D01*
X5407D01*
Y19928D01*
X5402D01*
Y19914D01*
X5397D01*
Y19900D01*
X5393D01*
Y19886D01*
X5388D01*
Y19871D01*
X5383D01*
Y19857D01*
X5378D01*
Y19843D01*
X5374D01*
Y19824D01*
X5369D01*
Y19810D01*
X5364D01*
Y19795D01*
X5359D01*
Y19781D01*
X5355D01*
Y19767D01*
X5350D01*
Y19753D01*
X5345D01*
Y19738D01*
X5340D01*
Y19719D01*
X5336D01*
Y19705D01*
X5331D01*
Y19691D01*
X5326D01*
Y19677D01*
X5321D01*
Y19663D01*
X5317D01*
Y19648D01*
X5312D01*
Y19629D01*
X5307D01*
Y19620D01*
X5302D01*
Y19601D01*
X5298D01*
Y19587D01*
X5293D01*
Y19572D01*
X5288D01*
Y19558D01*
X5283D01*
Y19544D01*
X5279D01*
Y19525D01*
X5274D01*
Y19511D01*
X5269D01*
Y19496D01*
X5264D01*
Y19482D01*
X5260D01*
Y19468D01*
X5255D01*
Y19454D01*
X5250D01*
Y19439D01*
X5246D01*
Y19420D01*
X5241D01*
Y19411D01*
X5236D01*
Y19392D01*
X5231D01*
Y19378D01*
X5227D01*
Y19363D01*
X5222D01*
Y19349D01*
X5217D01*
Y19335D01*
X5212D01*
Y19316D01*
X5208D01*
Y19302D01*
X5203D01*
Y19287D01*
X5198D01*
Y19273D01*
X5193D01*
Y19259D01*
X5189D01*
Y19245D01*
X5184D01*
Y19230D01*
X5179D01*
Y19216D01*
X5174D01*
Y19197D01*
X5170D01*
Y19183D01*
X5165D01*
Y19169D01*
X5160D01*
Y19154D01*
X5155D01*
Y19140D01*
X5151D01*
Y19126D01*
X5146D01*
Y19112D01*
X5141D01*
Y19093D01*
X5136D01*
Y19079D01*
X5132D01*
Y19064D01*
X5127D01*
Y19050D01*
X5122D01*
Y19036D01*
X5117D01*
Y19022D01*
X5113D01*
Y19003D01*
X5108D01*
Y18988D01*
X5103D01*
Y18974D01*
X5098D01*
Y18960D01*
X5094D01*
Y18946D01*
X5089D01*
Y18931D01*
X5084D01*
Y18917D01*
X5079D01*
Y18903D01*
X5075D01*
Y18884D01*
X5070D01*
Y18874D01*
X5065D01*
Y18855D01*
X5060D01*
Y18841D01*
X5056D01*
Y18827D01*
X5051D01*
Y18813D01*
X5046D01*
Y18798D01*
X5041D01*
Y18779D01*
X5037D01*
Y18765D01*
X5032D01*
Y18751D01*
X5027D01*
Y18737D01*
X5022D01*
Y18722D01*
X5018D01*
Y18708D01*
X5013D01*
Y18694D01*
X5008D01*
Y18675D01*
X5003D01*
Y18661D01*
X4999D01*
Y18646D01*
X4994D01*
Y18632D01*
X4989D01*
Y18618D01*
X4984D01*
Y18604D01*
X4980D01*
Y18590D01*
X4975D01*
Y18571D01*
X4970D01*
Y18556D01*
X4965D01*
Y18542D01*
X4961D01*
Y18528D01*
X4956D01*
Y18514D01*
X4951D01*
Y18499D01*
X4946D01*
Y18485D01*
X4942D01*
Y18466D01*
X4937D01*
Y18452D01*
X4932D01*
Y18438D01*
X4927D01*
Y18423D01*
X4923D01*
Y18409D01*
X4918D01*
Y18395D01*
X4913D01*
Y18376D01*
X4908D01*
Y18366D01*
X4904D01*
Y18347D01*
X4899D01*
Y18333D01*
X4894D01*
Y18319D01*
X4889D01*
Y18305D01*
X4885D01*
Y18290D01*
X4880D01*
Y18271D01*
X4875D01*
Y18262D01*
X4870D01*
Y18243D01*
X4866D01*
Y18229D01*
X4861D01*
Y18214D01*
X4856D01*
Y18200D01*
X4851D01*
Y18186D01*
X4847D01*
Y18167D01*
X4842D01*
Y18157D01*
X4837D01*
Y18138D01*
X4832D01*
Y18124D01*
X4828D01*
Y18110D01*
X4823D01*
Y18096D01*
X4818D01*
Y18082D01*
X4813D01*
Y18063D01*
X4809D01*
Y18053D01*
X4804D01*
Y18034D01*
X4799D01*
Y18020D01*
X4794D01*
Y18006D01*
X4790D01*
Y17991D01*
X4785D01*
Y17977D01*
X4780D01*
Y17963D01*
X4775D01*
Y17944D01*
X4771D01*
Y17930D01*
X4766D01*
Y17915D01*
X4761D01*
Y17901D01*
X4756D01*
Y17887D01*
X4752D01*
Y17873D01*
X4747D01*
Y17858D01*
X4742D01*
Y17839D01*
X4738D01*
Y17825D01*
X4733D01*
Y17811D01*
X4728D01*
Y17797D01*
X4723D01*
Y17782D01*
X4719D01*
Y17768D01*
X4714D01*
Y17754D01*
X4709D01*
Y17735D01*
X4704D01*
Y17721D01*
X4700D01*
Y17706D01*
X4695D01*
Y17692D01*
X4690D01*
Y17678D01*
X4685D01*
Y17664D01*
X4681D01*
Y17649D01*
X4676D01*
Y17630D01*
X4671D01*
Y17616D01*
X4666D01*
Y17602D01*
X4662D01*
Y17588D01*
X4657D01*
Y17574D01*
X4652D01*
Y17559D01*
X4647D01*
Y17545D01*
X4652D01*
Y17540D01*
X4870D01*
Y17322D01*
X4866D01*
Y17317D01*
X3973D01*
Y17322D01*
X3968D01*
Y17536D01*
X3973D01*
Y17540D01*
X4529D01*
Y17545D01*
X4533D01*
Y17550D01*
X4538D01*
Y17569D01*
X4543D01*
Y17583D01*
X4548D01*
Y17597D01*
X4552D01*
Y17611D01*
X4557D01*
Y17626D01*
X4562D01*
Y17640D01*
X4567D01*
Y17654D01*
X4571D01*
Y17668D01*
X4576D01*
Y17683D01*
X4581D01*
Y17697D01*
X4586D01*
Y17716D01*
X4590D01*
Y17730D01*
X4595D01*
Y17744D01*
X4600D01*
Y17759D01*
X4605D01*
Y17773D01*
X4609D01*
Y17787D01*
X4614D01*
Y17801D01*
X4619D01*
Y17820D01*
X4624D01*
Y17830D01*
X4628D01*
Y17849D01*
X4633D01*
Y17863D01*
X4638D01*
Y17877D01*
X4643D01*
Y17892D01*
X4647D01*
Y17906D01*
X4652D01*
Y17920D01*
X4657D01*
Y17934D01*
X4662D01*
Y17949D01*
X4666D01*
Y17968D01*
X4671D01*
Y17982D01*
X4676D01*
Y17996D01*
X4681D01*
Y18010D01*
X4685D01*
Y18025D01*
X4690D01*
Y18039D01*
X4695D01*
Y18053D01*
X4700D01*
Y18067D01*
X4704D01*
Y18082D01*
X4709D01*
Y18101D01*
X4714D01*
Y18115D01*
X4719D01*
Y18129D01*
X4723D01*
Y18143D01*
X4728D01*
Y18157D01*
X4733D01*
Y18172D01*
X4738D01*
Y18186D01*
X4742D01*
Y18200D01*
X4747D01*
Y18214D01*
X4752D01*
Y18233D01*
X4756D01*
Y18248D01*
X4761D01*
Y18262D01*
X4766D01*
Y18276D01*
X4771D01*
Y18290D01*
X4775D01*
Y18305D01*
X4780D01*
Y18319D01*
X4785D01*
Y18333D01*
X4790D01*
Y18352D01*
X4794D01*
Y18366D01*
X4799D01*
Y18381D01*
X4804D01*
Y18395D01*
X4809D01*
Y18409D01*
X4813D01*
Y18423D01*
X4818D01*
Y18438D01*
X4823D01*
Y18452D01*
X4828D01*
Y18466D01*
X4832D01*
Y18485D01*
X4837D01*
Y18499D01*
X4842D01*
Y18514D01*
X4847D01*
Y18528D01*
X4851D01*
Y18542D01*
X4856D01*
Y18556D01*
X4861D01*
Y18571D01*
X4866D01*
Y18585D01*
X4870D01*
Y18599D01*
X4875D01*
Y18613D01*
X4880D01*
Y18632D01*
X4885D01*
Y18646D01*
X4889D01*
Y18661D01*
X4894D01*
Y18675D01*
X4899D01*
Y18689D01*
X4904D01*
Y18703D01*
X4908D01*
Y18718D01*
X4913D01*
Y18732D01*
X4918D01*
Y18751D01*
X4923D01*
Y18760D01*
X4927D01*
Y18779D01*
X4932D01*
Y18794D01*
X4937D01*
Y18808D01*
X4942D01*
Y18822D01*
X4946D01*
Y18836D01*
X4951D01*
Y18851D01*
X4956D01*
Y18865D01*
X4961D01*
Y18884D01*
X4965D01*
Y18898D01*
X4970D01*
Y18912D01*
X4975D01*
Y18927D01*
X4980D01*
Y18941D01*
X4984D01*
Y18955D01*
X4989D01*
Y18969D01*
X4994D01*
Y18984D01*
X4999D01*
Y18998D01*
X5003D01*
Y19012D01*
X5008D01*
Y19031D01*
X5013D01*
Y19045D01*
X5018D01*
Y19060D01*
X5022D01*
Y19074D01*
X5027D01*
Y19088D01*
X5032D01*
Y19102D01*
X5037D01*
Y19117D01*
X5041D01*
Y19136D01*
X5046D01*
Y19150D01*
X5051D01*
Y19164D01*
X5056D01*
Y19178D01*
X5060D01*
Y19192D01*
X5065D01*
Y19207D01*
X5070D01*
Y19221D01*
X5075D01*
Y19235D01*
X5079D01*
Y19249D01*
X5084D01*
Y19264D01*
X5089D01*
Y19283D01*
X5094D01*
Y19297D01*
X5098D01*
Y19311D01*
X5103D01*
Y19325D01*
X5108D01*
Y19340D01*
X5113D01*
Y19354D01*
X5117D01*
Y19368D01*
X5122D01*
Y19387D01*
X5127D01*
Y19397D01*
X5132D01*
Y19416D01*
X5136D01*
Y19430D01*
X5141D01*
Y19444D01*
X5146D01*
Y19458D01*
X5151D01*
Y19473D01*
X5155D01*
Y19487D01*
X5160D01*
Y19501D01*
X5165D01*
Y19515D01*
X5170D01*
Y19534D01*
X5174D01*
Y19549D01*
X5179D01*
Y19563D01*
X5184D01*
Y19572D01*
X5189D01*
Y19591D01*
X5193D01*
Y19606D01*
X5198D01*
Y19620D01*
X5203D01*
Y19634D01*
X5208D01*
Y19648D01*
X5212D01*
Y19667D01*
X5217D01*
Y19681D01*
X5222D01*
Y19696D01*
X5227D01*
Y19710D01*
X5231D01*
Y19724D01*
X5236D01*
Y19738D01*
X5241D01*
Y19753D01*
X5246D01*
Y19772D01*
X5250D01*
Y19781D01*
X5255D01*
Y19800D01*
X5260D01*
Y19814D01*
X5264D01*
Y19829D01*
X5269D01*
Y19843D01*
X5274D01*
Y19857D01*
X5279D01*
Y19871D01*
X5283D01*
Y19886D01*
X5288D01*
Y19900D01*
X5293D01*
Y19919D01*
X5298D01*
Y19933D01*
X5302D01*
Y19947D01*
X5307D01*
Y19962D01*
X5312D01*
Y19976D01*
X5317D01*
Y19990D01*
X5321D01*
Y20004D01*
X5326D01*
Y20019D01*
X5331D01*
Y20033D01*
X5336D01*
Y20052D01*
X5340D01*
Y20066D01*
X5345D01*
Y20080D01*
X5350D01*
Y20095D01*
X5355D01*
Y20109D01*
X5359D01*
Y20123D01*
X5364D01*
Y20137D01*
X5369D01*
Y20152D01*
X5374D01*
Y20171D01*
X5378D01*
Y20185D01*
X5383D01*
Y20199D01*
X5388D01*
Y20213D01*
X5393D01*
Y20227D01*
X5397D01*
Y20242D01*
X5402D01*
Y20256D01*
X5407D01*
Y20270D01*
X5412D01*
Y20284D01*
X5416D01*
Y20303D01*
X5421D01*
Y20313D01*
X5426D01*
Y20332D01*
X5431D01*
Y20346D01*
X5435D01*
Y20360D01*
X5440D01*
Y20375D01*
X5445D01*
Y20389D01*
X5450D01*
Y20403D01*
X5454D01*
Y20417D01*
X5459D01*
Y20436D01*
X5464D01*
Y20451D01*
X5469D01*
Y20465D01*
X5473D01*
Y20479D01*
X5478D01*
Y20493D01*
X5483D01*
Y20508D01*
X5488D01*
Y20522D01*
X5492D01*
Y20536D01*
X5497D01*
Y20555D01*
X5502D01*
Y20565D01*
X5507D01*
Y20584D01*
X5511D01*
Y20598D01*
X5516D01*
Y20612D01*
X5521D01*
Y20626D01*
X5526D01*
Y20641D01*
X5530D01*
Y20655D01*
X5535D01*
Y20669D01*
X5540D01*
Y20674D01*
X5545D01*
Y20679D01*
X5549D01*
Y20674D01*
X5554D01*
Y20669D01*
X5559D01*
Y20664D01*
X5564D01*
Y20660D01*
X5568D01*
Y20655D01*
X5573D01*
Y20650D01*
X5578D01*
Y20645D01*
X5583D01*
Y20641D01*
X5587D01*
Y20636D01*
X5592D01*
Y20631D01*
X5597D01*
Y20626D01*
X5602D01*
Y20622D01*
X5606D01*
Y20617D01*
X5611D01*
Y20612D01*
X5616D01*
Y20607D01*
X5621D01*
Y20603D01*
X5625D01*
Y20598D01*
X5630D01*
Y20593D01*
X5635D01*
Y20588D01*
X5640D01*
Y20584D01*
X5644D01*
Y20579D01*
X5649D01*
Y20574D01*
X5654D01*
Y20569D01*
X5659D01*
Y20565D01*
X5663D01*
Y20560D01*
X5668D01*
Y20555D01*
X5673D01*
Y20550D01*
X5678D01*
Y20546D01*
X5682D01*
Y20541D01*
X5687D01*
Y20536D01*
X5692D01*
Y20531D01*
X5697D01*
Y20527D01*
X5701D01*
Y20522D01*
X5706D01*
Y20517D01*
X5711D01*
Y20512D01*
X5716D01*
Y20508D01*
X5720D01*
Y20503D01*
X5725D01*
Y20498D01*
X5730D01*
Y20493D01*
X5735D01*
Y20489D01*
X5739D01*
Y20484D01*
X5744D01*
Y20479D01*
X5749D01*
Y20474D01*
X5754D01*
Y20470D01*
X5758D01*
Y20465D01*
X5763D01*
Y20460D01*
X5768D01*
Y20455D01*
X5773D01*
Y20451D01*
X5777D01*
Y20446D01*
X5782D01*
Y20441D01*
X5787D01*
Y20436D01*
X5791D01*
Y20432D01*
X5796D01*
Y20427D01*
X5801D01*
Y20422D01*
X5806D01*
Y20417D01*
X5810D01*
Y20413D01*
X5815D01*
Y20408D01*
X5820D01*
Y20403D01*
X5825D01*
Y20398D01*
X5829D01*
Y20394D01*
X5834D01*
Y20389D01*
X5839D01*
Y20384D01*
X5844D01*
Y20379D01*
X5848D01*
Y20375D01*
X5853D01*
Y20370D01*
X5858D01*
Y20365D01*
X5863D01*
Y20360D01*
X5867D01*
Y20356D01*
X5872D01*
Y20351D01*
X5877D01*
Y20346D01*
X5882D01*
Y20341D01*
X5886D01*
Y20337D01*
X5891D01*
Y20332D01*
X5896D01*
Y20327D01*
X5901D01*
Y20322D01*
X5905D01*
Y20318D01*
X5910D01*
Y20313D01*
X5915D01*
Y20308D01*
X5920D01*
Y20303D01*
X5924D01*
Y20299D01*
X5929D01*
Y20294D01*
X5934D01*
Y20289D01*
X5939D01*
Y20284D01*
X5943D01*
Y20280D01*
X5948D01*
Y20275D01*
X5953D01*
Y20270D01*
X5958D01*
Y20265D01*
X5962D01*
Y20261D01*
X5967D01*
Y20256D01*
X5972D01*
Y20251D01*
X5977D01*
Y20246D01*
X5981D01*
Y20242D01*
X5986D01*
Y20237D01*
X5991D01*
Y20232D01*
X5996D01*
Y20227D01*
X6000D01*
Y20223D01*
X6005D01*
Y20218D01*
X6010D01*
Y20213D01*
X6015D01*
Y20208D01*
X6019D01*
Y20204D01*
X6024D01*
Y20199D01*
X6029D01*
Y20194D01*
X6034D01*
Y20189D01*
X6038D01*
Y20185D01*
X6043D01*
Y20180D01*
X6048D01*
Y20175D01*
X6053D01*
Y20171D01*
X6057D01*
Y20166D01*
X6062D01*
Y20161D01*
X6067D01*
Y20156D01*
X6072D01*
Y20152D01*
X6076D01*
Y20147D01*
X6081D01*
Y20142D01*
X6086D01*
Y20137D01*
X6091D01*
Y20133D01*
X6095D01*
Y20128D01*
X6100D01*
Y20123D01*
X6105D01*
Y20118D01*
X6110D01*
Y20114D01*
X6114D01*
Y20109D01*
X6119D01*
Y20104D01*
X6124D01*
Y20099D01*
X6129D01*
Y20095D01*
X6133D01*
Y20090D01*
X6138D01*
Y20085D01*
X6143D01*
Y20080D01*
X6148D01*
Y20076D01*
X6152D01*
Y20071D01*
X6157D01*
Y20066D01*
X6162D01*
Y20061D01*
X6167D01*
Y20057D01*
X6171D01*
Y20052D01*
X6176D01*
Y20047D01*
X6181D01*
Y20042D01*
X6186D01*
Y20038D01*
X6190D01*
Y20033D01*
X6195D01*
Y20028D01*
X6200D01*
Y20023D01*
X6205D01*
Y20019D01*
X6209D01*
Y20014D01*
X6214D01*
Y20009D01*
X6219D01*
Y20004D01*
X6224D01*
Y20000D01*
X6228D01*
Y19990D01*
X6238D01*
Y19985D01*
X6243D01*
Y19981D01*
X6247D01*
Y19976D01*
X6252D01*
Y19971D01*
X6257D01*
Y19966D01*
X6262D01*
Y19962D01*
X6266D01*
Y19957D01*
X6271D01*
Y19952D01*
X6276D01*
Y19947D01*
X6280D01*
Y19943D01*
X6285D01*
Y19938D01*
X6290D01*
Y19933D01*
X6295D01*
Y19928D01*
X6299D01*
Y19924D01*
X6304D01*
Y19919D01*
X6309D01*
Y19914D01*
X6314D01*
Y19909D01*
X6318D01*
Y19905D01*
X6323D01*
Y19900D01*
X6328D01*
Y19895D01*
X6333D01*
Y19890D01*
X6337D01*
Y19886D01*
X6342D01*
Y19881D01*
X6347D01*
Y19876D01*
X6352D01*
Y19871D01*
X6356D01*
Y19867D01*
X6361D01*
Y19862D01*
X6366D01*
Y19857D01*
X6371D01*
Y19852D01*
X6375D01*
Y19848D01*
X6380D01*
Y19843D01*
X6385D01*
Y19838D01*
X6390D01*
Y19833D01*
X6394D01*
Y19829D01*
X6399D01*
Y19824D01*
X6404D01*
Y19819D01*
X6409D01*
Y19814D01*
X6413D01*
Y19810D01*
X6418D01*
Y19805D01*
X6423D01*
Y19800D01*
X6428D01*
Y19795D01*
X6432D01*
Y19791D01*
X6437D01*
Y19786D01*
X6442D01*
Y19781D01*
X6447D01*
Y19776D01*
X6451D01*
Y19772D01*
X6456D01*
Y19767D01*
X6461D01*
Y19762D01*
X6466D01*
Y19757D01*
X6470D01*
Y19753D01*
X6475D01*
Y19748D01*
X6480D01*
Y19743D01*
X6485D01*
Y19738D01*
X6489D01*
Y19734D01*
X6494D01*
Y19729D01*
X6499D01*
Y19724D01*
X6504D01*
Y19719D01*
X6508D01*
Y19715D01*
X6513D01*
Y19710D01*
X6518D01*
Y19705D01*
X6523D01*
Y19700D01*
X6527D01*
Y19696D01*
X6532D01*
Y19691D01*
X6537D01*
Y19686D01*
X6542D01*
Y19681D01*
X6546D01*
Y19677D01*
X6551D01*
Y19672D01*
X6556D01*
Y19667D01*
X6561D01*
Y19663D01*
X6565D01*
Y19658D01*
X6570D01*
Y19653D01*
X6575D01*
Y19648D01*
X6580D01*
Y19644D01*
X6584D01*
Y19639D01*
X6589D01*
Y19634D01*
X6594D01*
Y19629D01*
X6599D01*
Y19625D01*
X6603D01*
Y19620D01*
X6608D01*
Y19615D01*
X6613D01*
Y19610D01*
X6618D01*
Y19606D01*
X6622D01*
Y19601D01*
X6627D01*
Y19596D01*
X6632D01*
Y19591D01*
X6637D01*
Y19587D01*
X6641D01*
Y19582D01*
X6646D01*
Y19572D01*
X6665D01*
Y20902D01*
X6660D01*
Y20906D01*
X6105D01*
Y20916D01*
X6100D01*
Y21125D01*
X6105D01*
Y21130D01*
X6874D01*
Y21134D01*
X6879D01*
Y21130D01*
D02*
G37*
G36*
X7126D02*
X7899D01*
Y20911D01*
X7895D01*
Y20906D01*
X7339D01*
Y20897D01*
X7334D01*
Y20887D01*
X7339D01*
Y20688D01*
X7334D01*
Y20660D01*
X7339D01*
Y20019D01*
X7334D01*
Y19990D01*
X7339D01*
Y19587D01*
X7334D01*
Y19572D01*
X7339D01*
Y19568D01*
X7344D01*
Y19572D01*
X7353D01*
Y19582D01*
X7358D01*
Y19587D01*
X7363D01*
Y19591D01*
X7368D01*
Y19596D01*
X7372D01*
Y19601D01*
X7377D01*
Y19606D01*
X7382D01*
Y19610D01*
X7387D01*
Y19615D01*
X7391D01*
Y19620D01*
X7396D01*
Y19625D01*
X7401D01*
Y19629D01*
X7406D01*
Y19634D01*
X7410D01*
Y19639D01*
X7415D01*
Y19644D01*
X7420D01*
Y19648D01*
X7425D01*
Y19653D01*
X7429D01*
Y19658D01*
X7434D01*
Y19663D01*
X7439D01*
Y19667D01*
X7444D01*
Y19672D01*
X7448D01*
Y19677D01*
X7453D01*
Y19681D01*
X7458D01*
Y19686D01*
X7463D01*
Y19691D01*
X7467D01*
Y19696D01*
X7472D01*
Y19700D01*
X7477D01*
Y19705D01*
X7482D01*
Y19710D01*
X7486D01*
Y19715D01*
X7491D01*
Y19719D01*
X7496D01*
Y19724D01*
X7501D01*
Y19729D01*
X7505D01*
Y19734D01*
X7510D01*
Y19738D01*
X7515D01*
Y19743D01*
X7520D01*
Y19748D01*
X7524D01*
Y19753D01*
X7529D01*
Y19757D01*
X7534D01*
Y19762D01*
X7539D01*
Y19767D01*
X7543D01*
Y19772D01*
X7548D01*
Y19776D01*
X7553D01*
Y19781D01*
X7558D01*
Y19786D01*
X7562D01*
Y19791D01*
X7567D01*
Y19795D01*
X7572D01*
Y19800D01*
X7577D01*
Y19805D01*
X7581D01*
Y19810D01*
X7586D01*
Y19814D01*
X7591D01*
Y19819D01*
X7596D01*
Y19824D01*
X7600D01*
Y19829D01*
X7605D01*
Y19833D01*
X7610D01*
Y19838D01*
X7615D01*
Y19843D01*
X7619D01*
Y19848D01*
X7624D01*
Y19852D01*
X7629D01*
Y19857D01*
X7634D01*
Y19862D01*
X7638D01*
Y19867D01*
X7643D01*
Y19871D01*
X7648D01*
Y19876D01*
X7653D01*
Y19881D01*
X7657D01*
Y19886D01*
X7662D01*
Y19890D01*
X7667D01*
Y19895D01*
X7672D01*
Y19900D01*
X7676D01*
Y19905D01*
X7681D01*
Y19909D01*
X7686D01*
Y19914D01*
X7691D01*
Y19919D01*
X7695D01*
Y19924D01*
X7700D01*
Y19928D01*
X7705D01*
Y19933D01*
X7710D01*
Y19938D01*
X7714D01*
Y19943D01*
X7719D01*
Y19947D01*
X7724D01*
Y19952D01*
X7729D01*
Y19957D01*
X7733D01*
Y19962D01*
X7738D01*
Y19966D01*
X7743D01*
Y19971D01*
X7748D01*
Y19976D01*
X7752D01*
Y19981D01*
X7757D01*
Y19985D01*
X7762D01*
Y19990D01*
X7771D01*
Y20000D01*
X7776D01*
Y20004D01*
X7781D01*
Y20009D01*
X7786D01*
Y20014D01*
X7790D01*
Y20019D01*
X7795D01*
Y20023D01*
X7800D01*
Y20028D01*
X7805D01*
Y20033D01*
X7809D01*
Y20038D01*
X7814D01*
Y20042D01*
X7819D01*
Y20047D01*
X7824D01*
Y20052D01*
X7828D01*
Y20057D01*
X7833D01*
Y20061D01*
X7838D01*
Y20066D01*
X7842D01*
Y20071D01*
X7847D01*
Y20076D01*
X7852D01*
Y20080D01*
X7857D01*
Y20085D01*
X7861D01*
Y20090D01*
X7866D01*
Y20095D01*
X7871D01*
Y20099D01*
X7876D01*
Y20104D01*
X7880D01*
Y20109D01*
X7885D01*
Y20114D01*
X7890D01*
Y20118D01*
X7895D01*
Y20123D01*
X7899D01*
Y20128D01*
X7904D01*
Y20133D01*
X7909D01*
Y20137D01*
X7914D01*
Y20142D01*
X7918D01*
Y20147D01*
X7923D01*
Y20152D01*
X7928D01*
Y20156D01*
X7933D01*
Y20161D01*
X7937D01*
Y20166D01*
X7942D01*
Y20171D01*
X7947D01*
Y20175D01*
X7952D01*
Y20180D01*
X7956D01*
Y20185D01*
X7961D01*
Y20189D01*
X7966D01*
Y20194D01*
X7971D01*
Y20199D01*
X7975D01*
Y20204D01*
X7980D01*
Y20208D01*
X7985D01*
Y20213D01*
X7990D01*
Y20218D01*
X7994D01*
Y20223D01*
X7999D01*
Y20227D01*
X8004D01*
Y20232D01*
X8009D01*
Y20237D01*
X8013D01*
Y20242D01*
X8018D01*
Y20246D01*
X8023D01*
Y20251D01*
X8028D01*
Y20256D01*
X8032D01*
Y20261D01*
X8037D01*
Y20265D01*
X8042D01*
Y20270D01*
X8047D01*
Y20275D01*
X8051D01*
Y20280D01*
X8056D01*
Y20284D01*
X8061D01*
Y20289D01*
X8066D01*
Y20294D01*
X8070D01*
Y20299D01*
X8075D01*
Y20303D01*
X8080D01*
Y20308D01*
X8085D01*
Y20313D01*
X8089D01*
Y20318D01*
X8094D01*
Y20322D01*
X8099D01*
Y20327D01*
X8104D01*
Y20332D01*
X8108D01*
Y20337D01*
X8113D01*
Y20341D01*
X8118D01*
Y20346D01*
X8123D01*
Y20351D01*
X8127D01*
Y20356D01*
X8132D01*
Y20360D01*
X8137D01*
Y20365D01*
X8142D01*
Y20370D01*
X8146D01*
Y20375D01*
X8151D01*
Y20379D01*
X8156D01*
Y20384D01*
X8161D01*
Y20389D01*
X8165D01*
Y20394D01*
X8170D01*
Y20398D01*
X8175D01*
Y20403D01*
X8180D01*
Y20408D01*
X8184D01*
Y20413D01*
X8189D01*
Y20417D01*
X8194D01*
Y20422D01*
X8199D01*
Y20427D01*
X8203D01*
Y20432D01*
X8208D01*
Y20436D01*
X8213D01*
Y20441D01*
X8218D01*
Y20446D01*
X8222D01*
Y20451D01*
X8227D01*
Y20455D01*
X8232D01*
Y20460D01*
X8237D01*
Y20465D01*
X8241D01*
Y20470D01*
X8246D01*
Y20474D01*
X8251D01*
Y20479D01*
X8256D01*
Y20484D01*
X8260D01*
Y20489D01*
X8265D01*
Y20493D01*
X8270D01*
Y20498D01*
X8275D01*
Y20503D01*
X8279D01*
Y20508D01*
X8284D01*
Y20512D01*
X8289D01*
Y20517D01*
X8294D01*
Y20522D01*
X8298D01*
Y20527D01*
X8303D01*
Y20531D01*
X8308D01*
Y20536D01*
X8313D01*
Y20541D01*
X8317D01*
Y20546D01*
X8322D01*
Y20550D01*
X8327D01*
Y20555D01*
X8332D01*
Y20560D01*
X8336D01*
Y20565D01*
X8341D01*
Y20569D01*
X8346D01*
Y20574D01*
X8350D01*
Y20579D01*
X8355D01*
Y20584D01*
X8360D01*
Y20588D01*
X8365D01*
Y20593D01*
X8369D01*
Y20598D01*
X8374D01*
Y20603D01*
X8379D01*
Y20607D01*
X8384D01*
Y20612D01*
X8388D01*
Y20617D01*
X8393D01*
Y20622D01*
X8398D01*
Y20626D01*
X8403D01*
Y20631D01*
X8407D01*
Y20636D01*
X8412D01*
Y20641D01*
X8417D01*
Y20645D01*
X8422D01*
Y20650D01*
X8426D01*
Y20655D01*
X8431D01*
Y20660D01*
X8436D01*
Y20664D01*
X8441D01*
Y20669D01*
X8445D01*
Y20674D01*
X8450D01*
Y20679D01*
X8455D01*
Y20674D01*
X8460D01*
Y20669D01*
X8464D01*
Y20655D01*
X8469D01*
Y20641D01*
X8474D01*
Y20626D01*
X8479D01*
Y20612D01*
X8483D01*
Y20598D01*
X8488D01*
Y20584D01*
X8493D01*
Y20565D01*
X8498D01*
Y20555D01*
X8502D01*
Y20536D01*
X8507D01*
Y20522D01*
X8512D01*
Y20508D01*
X8517D01*
Y20493D01*
X8521D01*
Y20479D01*
X8526D01*
Y20465D01*
X8531D01*
Y20451D01*
X8536D01*
Y20436D01*
X8540D01*
Y20417D01*
X8545D01*
Y20403D01*
X8550D01*
Y20389D01*
X8555D01*
Y20375D01*
X8559D01*
Y20360D01*
X8564D01*
Y20346D01*
X8569D01*
Y20332D01*
X8574D01*
Y20318D01*
X8578D01*
Y20303D01*
X8583D01*
Y20284D01*
X8588D01*
Y20270D01*
X8593D01*
Y20256D01*
X8597D01*
Y20242D01*
X8602D01*
Y20227D01*
X8607D01*
Y20213D01*
X8612D01*
Y20199D01*
X8616D01*
Y20185D01*
X8621D01*
Y20171D01*
X8626D01*
Y20152D01*
X8631D01*
Y20137D01*
X8635D01*
Y20123D01*
X8640D01*
Y20109D01*
X8645D01*
Y20095D01*
X8650D01*
Y20080D01*
X8654D01*
Y20066D01*
X8659D01*
Y20052D01*
X8664D01*
Y20033D01*
X8669D01*
Y20023D01*
X8673D01*
Y20004D01*
X8678D01*
Y19990D01*
X8683D01*
Y19976D01*
X8688D01*
Y19962D01*
X8692D01*
Y19947D01*
X8697D01*
Y19933D01*
X8702D01*
Y19919D01*
X8707D01*
Y19900D01*
X8711D01*
Y19886D01*
X8716D01*
Y19871D01*
X8721D01*
Y19857D01*
X8726D01*
Y19843D01*
X8730D01*
Y19829D01*
X8735D01*
Y19814D01*
X8740D01*
Y19800D01*
X8745D01*
Y19786D01*
X8749D01*
Y19772D01*
X8754D01*
Y19753D01*
X8759D01*
Y19738D01*
X8764D01*
Y19724D01*
X8768D01*
Y19710D01*
X8773D01*
Y19696D01*
X8778D01*
Y19681D01*
X8783D01*
Y19667D01*
X8787D01*
Y19653D01*
X8792D01*
Y19639D01*
X8797D01*
Y19620D01*
X8802D01*
Y19606D01*
X8806D01*
Y19591D01*
X8811D01*
Y19572D01*
X8816D01*
Y19563D01*
X8821D01*
Y19549D01*
X8825D01*
Y19534D01*
X8830D01*
Y19520D01*
X8835D01*
Y19501D01*
X8840D01*
Y19492D01*
X8844D01*
Y19473D01*
X8849D01*
Y19458D01*
X8854D01*
Y19444D01*
X8858D01*
Y19430D01*
X8863D01*
Y19416D01*
X8868D01*
Y19401D01*
X8873D01*
Y19387D01*
X8877D01*
Y19373D01*
X8882D01*
Y19354D01*
X8887D01*
Y19340D01*
X8892D01*
Y19325D01*
X8896D01*
Y19311D01*
X8901D01*
Y19297D01*
X8906D01*
Y19283D01*
X8911D01*
Y19268D01*
X8915D01*
Y19254D01*
X8920D01*
Y19240D01*
X8925D01*
Y19221D01*
X8930D01*
Y19207D01*
X8934D01*
Y19192D01*
X8939D01*
Y19178D01*
X8944D01*
Y19164D01*
X8949D01*
Y19150D01*
X8953D01*
Y19136D01*
X8958D01*
Y19121D01*
X8963D01*
Y19107D01*
X8968D01*
Y19093D01*
X8972D01*
Y19074D01*
X8977D01*
Y19060D01*
X8982D01*
Y19045D01*
X8987D01*
Y19031D01*
X8991D01*
Y19017D01*
X8996D01*
Y19003D01*
X9001D01*
Y18988D01*
X9006D01*
Y18969D01*
X9010D01*
Y18960D01*
X9015D01*
Y18941D01*
X9020D01*
Y18927D01*
X9025D01*
Y18912D01*
X9029D01*
Y18898D01*
X9034D01*
Y18884D01*
X9039D01*
Y18870D01*
X9044D01*
Y18855D01*
X9048D01*
Y18841D01*
X9053D01*
Y18822D01*
X9058D01*
Y18808D01*
X9063D01*
Y18794D01*
X9067D01*
Y18779D01*
X9072D01*
Y18765D01*
X9077D01*
Y18751D01*
X9082D01*
Y18737D01*
X9086D01*
Y18718D01*
X9091D01*
Y18708D01*
X9096D01*
Y18689D01*
X9101D01*
Y18675D01*
X9105D01*
Y18661D01*
X9110D01*
Y18646D01*
X9115D01*
Y18632D01*
X9120D01*
Y18618D01*
X9124D01*
Y18604D01*
X9129D01*
Y18590D01*
X9134D01*
Y18575D01*
X9139D01*
Y18556D01*
X9143D01*
Y18542D01*
X9148D01*
Y18528D01*
X9153D01*
Y18514D01*
X9158D01*
Y18499D01*
X9162D01*
Y18485D01*
X9167D01*
Y18471D01*
X9172D01*
Y18457D01*
X9177D01*
Y18438D01*
X9181D01*
Y18428D01*
X9186D01*
Y18409D01*
X9191D01*
Y18395D01*
X9196D01*
Y18381D01*
X9200D01*
Y18366D01*
X9205D01*
Y18352D01*
X9210D01*
Y18338D01*
X9215D01*
Y18324D01*
X9219D01*
Y18305D01*
X9224D01*
Y18290D01*
X9229D01*
Y18276D01*
X9234D01*
Y18262D01*
X9238D01*
Y18248D01*
X9243D01*
Y18233D01*
X9248D01*
Y18219D01*
X9253D01*
Y18205D01*
X9257D01*
Y18191D01*
X9262D01*
Y18176D01*
X9267D01*
Y18157D01*
X9272D01*
Y18143D01*
X9276D01*
Y18129D01*
X9281D01*
Y18115D01*
X9286D01*
Y18101D01*
X9291D01*
Y18086D01*
X9295D01*
Y18072D01*
X9300D01*
Y18053D01*
X9305D01*
Y18044D01*
X9310D01*
Y18025D01*
X9314D01*
Y18010D01*
X9319D01*
Y17996D01*
X9324D01*
Y17982D01*
X9329D01*
Y17968D01*
X9333D01*
Y17953D01*
X9338D01*
Y17939D01*
X9343D01*
Y17925D01*
X9348D01*
Y17906D01*
X9352D01*
Y17892D01*
X9357D01*
Y17877D01*
X9362D01*
Y17863D01*
X9366D01*
Y17849D01*
X9371D01*
Y17835D01*
X9376D01*
Y17820D01*
X9381D01*
Y17806D01*
X9385D01*
Y17792D01*
X9390D01*
Y17778D01*
X9395D01*
Y17759D01*
X9400D01*
Y17744D01*
X9404D01*
Y17730D01*
X9409D01*
Y17716D01*
X9414D01*
Y17702D01*
X9419D01*
Y17687D01*
X9423D01*
Y17673D01*
X9428D01*
Y17654D01*
X9433D01*
Y17645D01*
X9438D01*
Y17626D01*
X9442D01*
Y17611D01*
X9447D01*
Y17597D01*
X9452D01*
Y17583D01*
X9457D01*
Y17569D01*
X9461D01*
Y17550D01*
X9466D01*
Y17545D01*
X9471D01*
Y17540D01*
X10031D01*
Y17322D01*
X10026D01*
Y17317D01*
X9134D01*
Y17327D01*
X9129D01*
Y17536D01*
X9134D01*
Y17540D01*
X9348D01*
Y17545D01*
X9352D01*
Y17559D01*
X9348D01*
Y17578D01*
X9343D01*
Y17588D01*
X9338D01*
Y17607D01*
X9333D01*
Y17621D01*
X9329D01*
Y17635D01*
X9324D01*
Y17649D01*
X9319D01*
Y17664D01*
X9314D01*
Y17678D01*
X9310D01*
Y17697D01*
X9305D01*
Y17711D01*
X9300D01*
Y17725D01*
X9295D01*
Y17740D01*
X9291D01*
Y17754D01*
X9286D01*
Y17768D01*
X9281D01*
Y17782D01*
X9276D01*
Y17801D01*
X9272D01*
Y17816D01*
X9267D01*
Y17830D01*
X9262D01*
Y17844D01*
X9257D01*
Y17858D01*
X9253D01*
Y17873D01*
X9248D01*
Y17887D01*
X9243D01*
Y17906D01*
X9238D01*
Y17920D01*
X9234D01*
Y17934D01*
X9229D01*
Y17949D01*
X9224D01*
Y17963D01*
X9219D01*
Y17977D01*
X9215D01*
Y17991D01*
X9210D01*
Y18010D01*
X9205D01*
Y18020D01*
X9200D01*
Y18039D01*
X9196D01*
Y18053D01*
X9191D01*
Y18067D01*
X9186D01*
Y18082D01*
X9181D01*
Y18096D01*
X9177D01*
Y18115D01*
X9172D01*
Y18124D01*
X9167D01*
Y18143D01*
X9162D01*
Y18157D01*
X9158D01*
Y18172D01*
X9153D01*
Y18186D01*
X9148D01*
Y18200D01*
X9143D01*
Y18214D01*
X9139D01*
Y18233D01*
X9134D01*
Y18248D01*
X9129D01*
Y18262D01*
X9124D01*
Y18276D01*
X9120D01*
Y18290D01*
X9115D01*
Y18305D01*
X9110D01*
Y18319D01*
X9105D01*
Y18338D01*
X9101D01*
Y18352D01*
X9096D01*
Y18366D01*
X9091D01*
Y18381D01*
X9086D01*
Y18395D01*
X9082D01*
Y18409D01*
X9077D01*
Y18428D01*
X9072D01*
Y18442D01*
X9067D01*
Y18457D01*
X9063D01*
Y18471D01*
X9058D01*
Y18485D01*
X9053D01*
Y18499D01*
X9048D01*
Y18514D01*
X9044D01*
Y18528D01*
X9039D01*
Y18547D01*
X9034D01*
Y18561D01*
X9029D01*
Y18575D01*
X9025D01*
Y18590D01*
X9020D01*
Y18604D01*
X9015D01*
Y18623D01*
X9010D01*
Y18632D01*
X9006D01*
Y18651D01*
X9001D01*
Y18665D01*
X8996D01*
Y18680D01*
X8991D01*
Y18694D01*
X8987D01*
Y18708D01*
X8982D01*
Y18722D01*
X8977D01*
Y18737D01*
X8972D01*
Y18756D01*
X8968D01*
Y18770D01*
X8963D01*
Y18784D01*
X8958D01*
Y18798D01*
X8953D01*
Y18813D01*
X8949D01*
Y18827D01*
X8944D01*
Y18841D01*
X8939D01*
Y18860D01*
X8934D01*
Y18874D01*
X8930D01*
Y18884D01*
X8925D01*
Y18903D01*
X8920D01*
Y18917D01*
X8915D01*
Y18931D01*
X8911D01*
Y18946D01*
X8906D01*
Y18965D01*
X8901D01*
Y18979D01*
X8896D01*
Y18993D01*
X8892D01*
Y19007D01*
X8887D01*
Y19022D01*
X8882D01*
Y19036D01*
X8877D01*
Y19055D01*
X8873D01*
Y19069D01*
X8868D01*
Y19083D01*
X8863D01*
Y19098D01*
X8858D01*
Y19112D01*
X8854D01*
Y19126D01*
X8849D01*
Y19140D01*
X8844D01*
Y19159D01*
X8840D01*
Y19173D01*
X8835D01*
Y19188D01*
X8830D01*
Y19202D01*
X8825D01*
Y19216D01*
X8821D01*
Y19230D01*
X8816D01*
Y19245D01*
X8811D01*
Y19264D01*
X8806D01*
Y19273D01*
X8802D01*
Y19292D01*
X8797D01*
Y19306D01*
X8792D01*
Y19321D01*
X8787D01*
Y19335D01*
X8783D01*
Y19349D01*
X8778D01*
Y19368D01*
X8773D01*
Y19378D01*
X8768D01*
Y19397D01*
X8764D01*
Y19411D01*
X8759D01*
Y19425D01*
X8754D01*
Y19439D01*
X8749D01*
Y19454D01*
X8745D01*
Y19468D01*
X8740D01*
Y19487D01*
X8735D01*
Y19501D01*
X8730D01*
Y19515D01*
X8726D01*
Y19530D01*
X8721D01*
Y19544D01*
X8716D01*
Y19558D01*
X8711D01*
Y19572D01*
X8707D01*
Y19591D01*
X8702D01*
Y19606D01*
X8697D01*
Y19620D01*
X8692D01*
Y19634D01*
X8688D01*
Y19648D01*
X8683D01*
Y19663D01*
X8678D01*
Y19681D01*
X8673D01*
Y19696D01*
X8669D01*
Y19710D01*
X8664D01*
Y19724D01*
X8659D01*
Y19738D01*
X8654D01*
Y19753D01*
X8650D01*
Y19767D01*
X8645D01*
Y19781D01*
X8640D01*
Y19800D01*
X8635D01*
Y19814D01*
X8631D01*
Y19829D01*
X8626D01*
Y19843D01*
X8621D01*
Y19857D01*
X8616D01*
Y19871D01*
X8612D01*
Y19886D01*
X8607D01*
Y19905D01*
X8602D01*
Y19919D01*
X8597D01*
Y19933D01*
X8593D01*
Y19947D01*
X8588D01*
Y19962D01*
X8583D01*
Y19976D01*
X8578D01*
Y19990D01*
X8574D01*
Y20004D01*
X8559D01*
Y19995D01*
X8555D01*
Y19990D01*
X8545D01*
Y19985D01*
X8540D01*
Y19981D01*
X8536D01*
Y19976D01*
X8531D01*
Y19971D01*
X8526D01*
Y19966D01*
X8521D01*
Y19962D01*
X8517D01*
Y19957D01*
X8512D01*
Y19952D01*
X8507D01*
Y19947D01*
X8502D01*
Y19943D01*
X8493D01*
Y19938D01*
X8488D01*
Y19933D01*
X8483D01*
Y19928D01*
X8479D01*
Y19924D01*
X8474D01*
Y19919D01*
X8469D01*
Y19914D01*
X8464D01*
Y19909D01*
X8460D01*
Y19905D01*
X8455D01*
Y19900D01*
X8445D01*
Y19895D01*
X8441D01*
Y19890D01*
X8436D01*
Y19886D01*
X8431D01*
Y19881D01*
X8426D01*
Y19876D01*
X8422D01*
Y19871D01*
X8417D01*
Y19867D01*
X8412D01*
Y19862D01*
X8407D01*
Y19857D01*
X8403D01*
Y19852D01*
X8398D01*
Y19848D01*
X8388D01*
Y19843D01*
X8384D01*
Y19838D01*
X8379D01*
Y19833D01*
X8374D01*
Y19829D01*
X8369D01*
Y19824D01*
X8365D01*
Y19819D01*
X8360D01*
Y19814D01*
X8355D01*
Y19810D01*
X8350D01*
Y19805D01*
X8346D01*
Y19800D01*
X8336D01*
Y19795D01*
X8332D01*
Y19791D01*
X8327D01*
Y19786D01*
X8322D01*
Y19781D01*
X8317D01*
Y19776D01*
X8313D01*
Y19772D01*
X8308D01*
Y19767D01*
X8303D01*
Y19762D01*
X8298D01*
Y19757D01*
X8289D01*
Y19753D01*
X8284D01*
Y19748D01*
X8279D01*
Y19743D01*
X8275D01*
Y19738D01*
X8270D01*
Y19734D01*
X8265D01*
Y19729D01*
X8260D01*
Y19724D01*
X8256D01*
Y19719D01*
X8251D01*
Y19715D01*
X8246D01*
Y19710D01*
X8241D01*
Y19705D01*
X8232D01*
Y19700D01*
X8227D01*
Y19696D01*
X8222D01*
Y19691D01*
X8218D01*
Y19686D01*
X8213D01*
Y19681D01*
X8208D01*
Y19677D01*
X8203D01*
Y19672D01*
X8199D01*
Y19667D01*
X8194D01*
Y19663D01*
X8184D01*
Y19658D01*
X8180D01*
Y19653D01*
X8175D01*
Y19648D01*
X8170D01*
Y19644D01*
X8165D01*
Y19639D01*
X8161D01*
Y19634D01*
X8156D01*
Y19629D01*
X8151D01*
Y19625D01*
X8146D01*
Y19620D01*
X8142D01*
Y19615D01*
X8137D01*
Y19610D01*
X8127D01*
Y19606D01*
X8123D01*
Y19601D01*
X8118D01*
Y19596D01*
X8113D01*
Y19591D01*
X8108D01*
Y19587D01*
X8104D01*
Y19582D01*
X8099D01*
Y19577D01*
X8094D01*
Y19572D01*
X8089D01*
Y19568D01*
X8080D01*
Y19558D01*
X8070D01*
Y19553D01*
X8066D01*
Y19549D01*
X8061D01*
Y19544D01*
X8056D01*
Y19539D01*
X8051D01*
Y19534D01*
X8047D01*
Y19530D01*
X8042D01*
Y19525D01*
X8037D01*
Y19520D01*
X8028D01*
Y19515D01*
X8023D01*
Y19511D01*
X8018D01*
Y19506D01*
X8013D01*
Y19501D01*
X8009D01*
Y19496D01*
X8004D01*
Y19492D01*
X7999D01*
Y19487D01*
X7994D01*
Y19482D01*
X7990D01*
Y19477D01*
X7985D01*
Y19473D01*
X7980D01*
Y19468D01*
X7971D01*
Y19463D01*
X7966D01*
Y19458D01*
X7961D01*
Y19454D01*
X7956D01*
Y19449D01*
X7952D01*
Y19444D01*
X7947D01*
Y19439D01*
X7942D01*
Y19435D01*
X7937D01*
Y19430D01*
X7933D01*
Y19425D01*
X7923D01*
Y19420D01*
X7918D01*
Y19416D01*
X7914D01*
Y19411D01*
X7909D01*
Y19406D01*
X7904D01*
Y19401D01*
X7899D01*
Y19397D01*
X7895D01*
Y19392D01*
X7890D01*
Y19387D01*
X7885D01*
Y19382D01*
X7880D01*
Y19378D01*
X7876D01*
Y19373D01*
X7866D01*
Y19368D01*
X7861D01*
Y19363D01*
X7857D01*
Y19359D01*
X7852D01*
Y19354D01*
X7847D01*
Y19349D01*
X7842D01*
Y19344D01*
X7838D01*
Y19340D01*
X7833D01*
Y19335D01*
X7828D01*
Y19330D01*
X7819D01*
Y19325D01*
X7814D01*
Y19321D01*
X7809D01*
Y19316D01*
X7805D01*
Y19311D01*
X7800D01*
Y19306D01*
X7795D01*
Y19302D01*
X7790D01*
Y19297D01*
X7786D01*
Y19292D01*
X7781D01*
Y19287D01*
X7776D01*
Y19283D01*
X7767D01*
Y19278D01*
X7762D01*
Y19273D01*
X7757D01*
Y19268D01*
X7752D01*
Y19264D01*
X7748D01*
Y19259D01*
X7743D01*
Y19254D01*
X7738D01*
Y19249D01*
X7733D01*
Y19245D01*
X7729D01*
Y19240D01*
X7724D01*
Y19235D01*
X7714D01*
Y19230D01*
X7710D01*
Y19226D01*
X7705D01*
Y19221D01*
X7700D01*
Y19216D01*
X7695D01*
Y19211D01*
X7691D01*
Y19207D01*
X7686D01*
Y19202D01*
X7681D01*
Y19197D01*
X7676D01*
Y19192D01*
X7672D01*
Y19188D01*
X7662D01*
Y19183D01*
X7657D01*
Y19178D01*
X7653D01*
Y19173D01*
X7648D01*
Y19169D01*
X7643D01*
Y19164D01*
X7638D01*
Y19159D01*
X7634D01*
Y19154D01*
X7629D01*
Y19150D01*
X7624D01*
Y19145D01*
X7619D01*
Y19140D01*
X7615D01*
Y19136D01*
X7605D01*
Y19131D01*
X7600D01*
Y19126D01*
X7596D01*
Y19121D01*
X7591D01*
Y19117D01*
X7586D01*
Y19112D01*
X7581D01*
Y19107D01*
X7577D01*
Y19102D01*
X7572D01*
Y19098D01*
X7562D01*
Y19093D01*
X7558D01*
Y19088D01*
X7553D01*
Y19083D01*
X7548D01*
Y19079D01*
X7543D01*
Y19074D01*
X7539D01*
Y19069D01*
X7534D01*
Y19064D01*
X7529D01*
Y19060D01*
X7524D01*
Y19055D01*
X7520D01*
Y19050D01*
X7515D01*
Y19045D01*
X7505D01*
Y19041D01*
X7501D01*
Y19036D01*
X7496D01*
Y19031D01*
X7491D01*
Y19026D01*
X7486D01*
Y19022D01*
X7482D01*
Y19017D01*
X7477D01*
Y19012D01*
X7472D01*
Y19007D01*
X7467D01*
Y19003D01*
X7458D01*
Y18998D01*
X7453D01*
Y18993D01*
X7448D01*
Y18988D01*
X7444D01*
Y18984D01*
X7439D01*
Y18979D01*
X7434D01*
Y18974D01*
X7429D01*
Y18969D01*
X7425D01*
Y18965D01*
X7420D01*
Y18960D01*
X7415D01*
Y18955D01*
X7410D01*
Y18950D01*
X7401D01*
Y18946D01*
X7396D01*
Y18941D01*
X7391D01*
Y18936D01*
X7387D01*
Y18931D01*
X7382D01*
Y18927D01*
X7377D01*
Y18922D01*
X7372D01*
Y18917D01*
X7368D01*
Y18912D01*
X7363D01*
Y18908D01*
X7358D01*
Y18903D01*
X7349D01*
Y18898D01*
X7344D01*
Y18893D01*
X7339D01*
Y18879D01*
X7334D01*
Y18870D01*
X7339D01*
Y17445D01*
X7334D01*
Y17436D01*
X7339D01*
Y17431D01*
X7349D01*
Y17426D01*
X7358D01*
Y17431D01*
X7762D01*
Y17426D01*
X7767D01*
Y17431D01*
X7781D01*
Y17426D01*
X7786D01*
Y17208D01*
X7776D01*
Y17203D01*
X7771D01*
Y17208D01*
X7130D01*
Y17203D01*
X7121D01*
Y17208D01*
X7116D01*
Y17213D01*
X7111D01*
Y21130D01*
X7121D01*
Y21134D01*
X7126D01*
Y21130D01*
D02*
G37*
G36*
X10026Y17084D02*
X10031D01*
Y16876D01*
X10026D01*
Y16871D01*
X3973D01*
Y16876D01*
X3968D01*
Y17084D01*
X3973D01*
Y17094D01*
X10026D01*
Y17084D01*
D02*
G37*
%LPC*%
G36*
X16772Y9864D02*
X15863D01*
Y8046D01*
X16772D01*
Y9864D01*
D02*
G37*
%LPD*%
D21*
X45300Y11400D02*
Y12600D01*
X45900D01*
X46100Y12400D01*
Y12000D01*
X45900Y11800D01*
X45300D01*
X46500Y12600D02*
Y11400D01*
X46899Y11800D01*
X47299Y11400D01*
Y12600D01*
X47699Y11400D02*
Y12600D01*
X48299D01*
X48499Y12400D01*
Y12000D01*
X48299Y11800D01*
X47699D01*
X48099D02*
X48499Y11400D01*
X23330Y9100D02*
X23130Y8900D01*
Y8500D01*
X23330Y8300D01*
X24130D01*
X24330Y8500D01*
Y8900D01*
X24130Y9100D01*
X23730D01*
Y8700D01*
X24330Y9500D02*
X23130D01*
X24330Y10299D01*
X23130D01*
Y10699D02*
X24330D01*
Y11299D01*
X24130Y11499D01*
X23330D01*
X23130Y11299D01*
Y10699D01*
X26270Y8300D02*
Y9100D01*
X25870Y8700D02*
X26670D01*
X25670Y10299D02*
Y9500D01*
X26270D01*
X26070Y9899D01*
Y10099D01*
X26270Y10299D01*
X26670D01*
X26870Y10099D01*
Y9700D01*
X26670Y9500D01*
X25670Y10699D02*
X26470D01*
X26870Y11099D01*
X26470Y11499D01*
X25670D01*
D33*
X19400Y26390D02*
X21250D01*
X21600Y13600D02*
X28400D01*
X21600D02*
Y26400D01*
X15500Y20600D02*
Y21400D01*
Y26600D02*
Y27400D01*
X15350Y25800D02*
X15650D01*
X34500Y22600D02*
Y23400D01*
X28350Y30250D02*
X29150D01*
X43200Y29470D02*
X45000D01*
X21600Y26400D02*
X28400D01*
Y13600D02*
Y26400D01*
X34500Y24100D02*
Y24900D01*
Y21100D02*
Y21900D01*
X41100Y12000D02*
X41900D01*
X48600Y29470D02*
X49085D01*
X3975Y11000D02*
X5025D01*
X44000Y17600D02*
Y18400D01*
X37250Y10950D02*
Y13050D01*
X36425Y13150D02*
X36900D01*
X48600Y20530D02*
X49085D01*
Y29470D01*
X44000Y31600D02*
Y32400D01*
X43200Y20530D02*
X45000D01*
X37750Y10950D02*
Y13050D01*
X37250Y10950D02*
X37750D01*
X37250Y13050D02*
X37750D01*
X38467Y30000D02*
X39134Y29000D01*
Y30000D02*
X38467Y29000D01*
X39467D02*
X39800D01*
X39633D01*
Y30000D01*
X39467Y29833D01*
X36667Y14450D02*
Y13617D01*
X36834Y13450D01*
X37167D01*
X37333Y13617D01*
Y14450D01*
X38333Y13450D02*
X37667D01*
X38333Y14116D01*
Y14283D01*
X38166Y14450D01*
X37833D01*
X37667Y14283D01*
X19350Y27850D02*
Y27017D01*
X19517Y26850D01*
X19850D01*
X20016Y27017D01*
Y27850D01*
X20350Y26850D02*
X20683D01*
X20516D01*
Y27850D01*
X20350Y27683D01*
X35700Y40550D02*
Y41550D01*
X36200D01*
X36366Y41383D01*
Y41050D01*
X36200Y40883D01*
X35700D01*
X36033D02*
X36366Y40550D01*
X36866Y41217D02*
X37199D01*
X37366Y41050D01*
Y40550D01*
X36866D01*
X36700Y40717D01*
X36866Y40883D01*
X37366D01*
X38366Y41550D02*
Y40550D01*
X37866D01*
X37699Y40717D01*
Y41050D01*
X37866Y41217D01*
X38366D01*
X38699Y40550D02*
X39032D01*
X38866D01*
Y41217D01*
X38699D01*
X39699Y40550D02*
X40032D01*
X40198Y40717D01*
Y41050D01*
X40032Y41217D01*
X39699D01*
X39532Y41050D01*
Y40717D01*
X39699Y40550D01*
X40532D02*
X40865D01*
X40698D01*
Y41550D01*
X40532Y41383D01*
X42000Y13425D02*
X41000D01*
Y13925D01*
X41167Y14091D01*
X41500D01*
X41667Y13925D01*
Y13425D01*
Y13758D02*
X42000Y14091D01*
X41000Y15091D02*
X41167Y14758D01*
X41500Y14425D01*
X41833D01*
X42000Y14591D01*
Y14925D01*
X41833Y15091D01*
X41667D01*
X41500Y14925D01*
Y14425D01*
X45425Y31500D02*
Y32500D01*
X45925D01*
X46091Y32333D01*
Y32000D01*
X45925Y31833D01*
X45425D01*
X45758D02*
X46091Y31500D01*
X46425D02*
X46758D01*
X46591D01*
Y32500D01*
X46425Y32333D01*
X45425Y17500D02*
Y18500D01*
X45925D01*
X46091Y18333D01*
Y18000D01*
X45925Y17833D01*
X45425D01*
X45758D02*
X46091Y17500D01*
X47091Y18500D02*
X46425D01*
Y18000D01*
X46758Y18167D01*
X46925D01*
X47091Y18000D01*
Y17667D01*
X46925Y17500D01*
X46591D01*
X46425Y17667D01*
X37200Y22500D02*
Y23500D01*
X37700D01*
X37866Y23333D01*
Y23000D01*
X37700Y22833D01*
X37200D01*
X37533D02*
X37866Y22500D01*
X38200Y23333D02*
X38366Y23500D01*
X38700D01*
X38866Y23333D01*
Y23167D01*
X38700Y23000D01*
X38533D01*
X38700D01*
X38866Y22833D01*
Y22667D01*
X38700Y22500D01*
X38366D01*
X38200Y22667D01*
X33667Y25300D02*
Y26300D01*
X34167D01*
X34333Y26133D01*
Y25800D01*
X34167Y25633D01*
X33667D01*
X34000D02*
X34333Y25300D01*
X35333D02*
X34667D01*
X35333Y25966D01*
Y26133D01*
X35166Y26300D01*
X34833D01*
X34667Y26133D01*
X14667Y19200D02*
Y20200D01*
X15167D01*
X15333Y20033D01*
Y19700D01*
X15167Y19534D01*
X14667D01*
X15000D02*
X15333Y19200D01*
X16166D02*
Y20200D01*
X15667Y19700D01*
X16333D01*
X13217Y25800D02*
X12884D01*
X12717Y25633D01*
Y24967D01*
X12884Y24800D01*
X13217D01*
X13384Y24967D01*
Y25633D01*
X13217Y25800D01*
X13717Y24800D02*
X14050D01*
X13883D01*
Y25800D01*
X13717Y25633D01*
X5600Y11500D02*
Y10500D01*
X6266D01*
X6600D02*
X6933D01*
X6766D01*
Y11500D01*
X6600Y11333D01*
X19467Y1900D02*
Y900D01*
Y1400D01*
X20134D01*
Y1900D01*
Y900D01*
X20467D02*
X20800D01*
X20633D01*
Y1900D01*
X20467Y1733D01*
X43250Y13650D02*
X44250D01*
Y14150D01*
X44083Y14316D01*
X43417D01*
X43250Y14150D01*
Y13650D01*
X44250Y14650D02*
Y14983D01*
Y14816D01*
X43250D01*
X43417Y14650D01*
X30216Y30583D02*
X30050Y30750D01*
X29717D01*
X29550Y30583D01*
Y29917D01*
X29717Y29750D01*
X30050D01*
X30216Y29917D01*
X30550Y29750D02*
X30883D01*
X30716D01*
Y30750D01*
X30550Y30583D01*
X15333Y28633D02*
X15167Y28800D01*
X14834D01*
X14667Y28633D01*
Y27967D01*
X14834Y27800D01*
X15167D01*
X15333Y27967D01*
X16333Y27800D02*
X15667D01*
X16333Y28466D01*
Y28633D01*
X16166Y28800D01*
X15833D01*
X15667Y28633D01*
X34333Y20533D02*
X34167Y20700D01*
X33834D01*
X33667Y20533D01*
Y19867D01*
X33834Y19700D01*
X34167D01*
X34333Y19867D01*
X34667Y20533D02*
X34833Y20700D01*
X35166D01*
X35333Y20533D01*
Y20367D01*
X35166Y20200D01*
X35000D01*
X35166D01*
X35333Y20034D01*
Y19867D01*
X35166Y19700D01*
X34833D01*
X34667Y19867D01*
D34*
X14850Y25600D02*
X16150D01*
X14850Y22400D02*
X16150D01*
X40250Y22125D02*
Y22625D01*
X44058Y11822D02*
X44248Y11632D01*
Y11832D01*
X43242Y12284D02*
X43750Y11776D01*
X44258Y12284D01*
X44048Y11632D02*
X44248D01*
D35*
X5000Y27500D02*
X9000D01*
X5000Y24500D02*
X9000D01*
X5000D02*
Y27500D01*
X9000Y24500D02*
Y27500D01*
X2002Y35760D02*
Y37259D01*
X2751D01*
X3001Y37009D01*
Y36509D01*
X2751Y36259D01*
X2002D01*
X2501D02*
X3001Y35760D01*
X4501Y37259D02*
X3501D01*
Y36509D01*
X4001D01*
X3501D01*
Y35760D01*
X5001Y37259D02*
Y35760D01*
X5750D01*
X6000Y36010D01*
Y37009D01*
X5750Y37259D01*
X5001D01*
X6500Y36759D02*
X7500Y35760D01*
X7000Y36259D01*
X7500Y36759D01*
X6500Y35760D01*
X8000Y36010D02*
X8250Y35760D01*
X8749D01*
X8999Y36010D01*
Y37009D01*
X8749Y37259D01*
X8250D01*
X8000Y37009D01*
Y36759D01*
X8250Y36509D01*
X8999D01*
X9499Y37009D02*
X9749Y37259D01*
X10249D01*
X10499Y37009D01*
Y36010D01*
X10249Y35760D01*
X9749D01*
X9499Y36010D01*
Y37009D01*
X10999D02*
X11249Y37259D01*
X11748D01*
X11998Y37009D01*
Y36010D01*
X11748Y35760D01*
X11249D01*
X10999Y36010D01*
Y37009D01*
X4626Y33000D02*
Y34500D01*
X5126Y34000D01*
X5625Y34500D01*
Y33000D01*
X6125D02*
X6625D01*
X6375D01*
Y34000D01*
X6125D01*
X7375Y33000D02*
Y34000D01*
X8125D01*
X8375Y33750D01*
Y33000D01*
X8874D02*
X9374D01*
X9124D01*
Y34000D01*
X8874D01*
X3501Y31740D02*
Y30241D01*
X4251D01*
X4501Y30491D01*
Y30741D01*
X4251Y30991D01*
X3501D01*
X4251D01*
X4501Y31241D01*
Y31490D01*
X4251Y31740D01*
X3501D01*
X5251Y30241D02*
X5750D01*
X6000Y30491D01*
Y30991D01*
X5750Y31241D01*
X5251D01*
X5001Y30991D01*
Y30491D01*
X5251Y30241D01*
X6750Y31241D02*
X7250D01*
X7500Y30991D01*
Y30241D01*
X6750D01*
X6500Y30491D01*
X6750Y30741D01*
X7500D01*
X8000Y31241D02*
Y30241D01*
Y30741D01*
X8250Y30991D01*
X8500Y31241D01*
X8749D01*
X10499Y31740D02*
Y30241D01*
X9749D01*
X9499Y30491D01*
Y30991D01*
X9749Y31241D01*
X10499D01*
X6000Y26750D02*
Y25750D01*
X6500Y25250D01*
X7000Y25750D01*
Y26750D01*
X7500Y25250D02*
X8000D01*
X7750D01*
Y26750D01*
X7500Y26500D01*
D36*
X10000Y42895D02*
X11000D01*
X10000D02*
Y43895D01*
X40000Y42895D02*
Y43895D01*
X39000Y42895D02*
X40000D01*
X35160Y32750D02*
Y34750D01*
X14840Y32750D02*
Y34750D01*
Y39250D02*
Y41250D01*
X35160Y39250D02*
Y41250D01*
X33723Y34250D02*
X34057D01*
X33890D01*
Y35250D01*
X33723Y35083D01*
D37*
X28810Y2460D02*
Y3460D01*
Y6540D02*
Y7540D01*
X27810Y2460D02*
X28810D01*
X21190Y7540D02*
X22190D01*
X21190Y2460D02*
X22190D01*
X27810Y7540D02*
X28810D01*
X21190Y6540D02*
Y7540D01*
Y2460D02*
Y3460D01*
%TF.MD5,cb9d943a8dea104f76b4019eb11bf8c1*%
M02*
