%TF.GenerationSoftware,Altium Limited,Altium Designer,25.2.1 (25)*%
G04 Layer_Color=8388736*
%FSLAX43Y43*%
%MOMM*%
%TF.SameCoordinates,D3577A82-B172-4AAC-A9F5-C134510085F9*%
%TF.FilePolarity,Negative*%
%TF.FileFunction,Soldermask,Top*%
%TF.Part,Single*%
G01*
G75*
%TA.AperFunction,SMDPad,CuDef*%
%ADD38R,0.850X0.800*%
%ADD39R,0.800X0.850*%
%ADD40R,2.050X0.550*%
%ADD41R,2.000X0.800*%
%ADD42R,0.950X0.420*%
%ADD43R,1.050X0.420*%
%ADD44R,1.400X0.750*%
%ADD45R,0.625X0.450*%
G04:AMPARAMS|DCode=46|XSize=1.4mm|YSize=0.75mm|CornerRadius=0.135mm|HoleSize=0mm|Usage=FLASHONLY|Rotation=180.000|XOffset=0mm|YOffset=0mm|HoleType=Round|Shape=RoundedRectangle|*
%AMROUNDEDRECTD46*
21,1,1.400,0.480,0,0,180.0*
21,1,1.130,0.750,0,0,180.0*
1,1,0.270,-0.565,0.240*
1,1,0.270,0.565,0.240*
1,1,0.270,0.565,-0.240*
1,1,0.270,-0.565,-0.240*
%
%ADD46ROUNDEDRECTD46*%
%TA.AperFunction,ComponentPad*%
%ADD47C,6.150*%
%ADD48C,1.550*%
%ADD49C,5.150*%
%ADD50C,1.400*%
%ADD51C,2.900*%
%ADD52C,2.400*%
%ADD53C,1.875*%
%TA.AperFunction,ViaPad*%
%ADD54C,0.850*%
D38*
X41500Y12675D02*
D03*
Y11325D02*
D03*
X28750Y30925D02*
D03*
Y29575D02*
D03*
D39*
X16175Y27000D02*
D03*
X14825D02*
D03*
X16175Y21000D02*
D03*
X14825D02*
D03*
X33825Y21500D02*
D03*
X35175D02*
D03*
Y24500D02*
D03*
X33825D02*
D03*
X35175Y23000D02*
D03*
X33825D02*
D03*
X43325Y32000D02*
D03*
X44675D02*
D03*
Y18000D02*
D03*
X43325D02*
D03*
D40*
X15500Y25200D02*
D03*
Y24000D02*
D03*
Y22800D02*
D03*
D41*
X29675Y25715D02*
D03*
Y24445D02*
D03*
Y23175D02*
D03*
Y21905D02*
D03*
Y20635D02*
D03*
Y19365D02*
D03*
Y18095D02*
D03*
Y16825D02*
D03*
Y15555D02*
D03*
Y14285D02*
D03*
X20325D02*
D03*
Y15555D02*
D03*
Y16825D02*
D03*
Y18095D02*
D03*
Y19365D02*
D03*
Y20635D02*
D03*
Y21905D02*
D03*
Y23175D02*
D03*
Y24445D02*
D03*
Y25715D02*
D03*
D42*
X42635Y22125D02*
D03*
Y22625D02*
D03*
Y23125D02*
D03*
Y23625D02*
D03*
Y24125D02*
D03*
Y24625D02*
D03*
Y25125D02*
D03*
Y25625D02*
D03*
Y26125D02*
D03*
Y26625D02*
D03*
Y27125D02*
D03*
Y27625D02*
D03*
D43*
X41035Y27875D02*
D03*
Y27375D02*
D03*
Y26875D02*
D03*
Y26375D02*
D03*
Y25875D02*
D03*
Y25375D02*
D03*
Y24875D02*
D03*
Y24375D02*
D03*
Y23875D02*
D03*
Y23375D02*
D03*
Y22875D02*
D03*
Y22375D02*
D03*
D44*
X4500Y10100D02*
D03*
Y11900D02*
D03*
D45*
X38338Y12750D02*
D03*
Y12250D02*
D03*
Y11750D02*
D03*
Y11250D02*
D03*
X36662D02*
D03*
Y11750D02*
D03*
Y12250D02*
D03*
Y12750D02*
D03*
D46*
X43750Y12900D02*
D03*
Y11100D02*
D03*
D47*
X45500Y4500D02*
D03*
X4500D02*
D03*
X45500Y45500D02*
D03*
X4500D02*
D03*
D48*
X16110Y33190D02*
D03*
X33890D02*
D03*
X31350D02*
D03*
X28810D02*
D03*
X26270D02*
D03*
X23730D02*
D03*
X21190D02*
D03*
X18650D02*
D03*
X33890Y40810D02*
D03*
X31350D02*
D03*
X28810D02*
D03*
X26270D02*
D03*
X23730D02*
D03*
X21190D02*
D03*
X18650D02*
D03*
X16110D02*
D03*
D49*
X37500Y45395D02*
D03*
X12500D02*
D03*
X25000Y82795D02*
D03*
D50*
X43735Y21400D02*
D03*
X43670Y28600D02*
D03*
D51*
X46785Y29320D02*
D03*
Y20680D02*
D03*
D52*
X41735Y29320D02*
D03*
Y20680D02*
D03*
D53*
X26270Y5000D02*
D03*
X23730D02*
D03*
D54*
X36500Y21500D02*
D03*
X22575Y25715D02*
D03*
X13250Y27000D02*
D03*
Y21000D02*
D03*
X4500Y13500D02*
D03*
X13250Y24000D02*
D03*
X39500Y13750D02*
D03*
Y28000D02*
D03*
X47000Y23500D02*
D03*
X39500Y26750D02*
D03*
X44000Y22750D02*
D03*
X44750Y33500D02*
D03*
Y16500D02*
D03*
X44000Y24250D02*
D03*
X36500Y24250D02*
D03*
Y23250D02*
D03*
X44000Y25250D02*
D03*
X39500Y24500D02*
D03*
Y25500D02*
D03*
X27250Y29500D02*
D03*
X22500Y14250D02*
D03*
X43750Y10000D02*
D03*
X41500D02*
D03*
X35250Y13750D02*
D03*
Y12750D02*
D03*
X38500Y10000D02*
D03*
X36500D02*
D03*
%TF.MD5,ee5af66b8fbb0769de97d0a15d4227ac*%
M02*
