%TF.GenerationSoftware,Altium Limited,Altium Designer,25.2.1 (25)*%
G04 Layer_Color=6809061*
%FSLAX43Y43*%
%MOMM*%
%TF.SameCoordinates,D3577A82-B172-4AAC-A9F5-C134510085F9*%
%TF.FilePolarity,Positive*%
%TF.FileFunction,Legend,Bot*%
%TF.Part,Single*%
G01*
G75*
%TA.AperFunction,NonConductor*%
%ADD33C,0.200*%
%ADD36C,0.250*%
%ADD37C,0.254*%
G36*
X11386Y34432D02*
X13295D01*
Y33479D01*
X13294D01*
Y33478D01*
X12341D01*
Y32523D01*
X13294D01*
Y32522D01*
X13295D01*
Y31568D01*
X14250D01*
Y29659D01*
X13295D01*
Y30614D01*
X12342D01*
Y30615D01*
X12341D01*
Y31568D01*
X11386D01*
Y30615D01*
X11385D01*
Y30614D01*
X10432D01*
Y31568D01*
X7568D01*
Y30614D01*
X8521D01*
Y30613D01*
X8523D01*
Y29659D01*
X7568D01*
Y30614D01*
X6615D01*
Y30615D01*
X6613D01*
Y31568D01*
X5659D01*
Y30615D01*
X5658D01*
Y30614D01*
X4704D01*
Y29659D01*
X3750D01*
Y31568D01*
X4704D01*
Y32522D01*
X4706D01*
Y32523D01*
X5659D01*
Y33478D01*
X4706D01*
Y33479D01*
X4704D01*
Y34432D01*
X3750D01*
Y35118D01*
Y35119D01*
Y35387D01*
X4703D01*
Y35385D01*
X4704D01*
Y34432D01*
X6613D01*
Y32523D01*
X7568D01*
Y34432D01*
X6613D01*
Y36341D01*
X7568D01*
Y35387D01*
X10432D01*
Y36341D01*
X11386D01*
Y34432D01*
D02*
G37*
G36*
X14250D02*
X13295D01*
Y34725D01*
Y34726D01*
Y35385D01*
X13296D01*
Y35387D01*
X14250D01*
Y34432D01*
D02*
G37*
G36*
X10432Y30539D02*
Y30538D01*
Y29659D01*
X9477D01*
Y30613D01*
X9478D01*
Y30614D01*
X10432D01*
Y30539D01*
D02*
G37*
%LPC*%
G36*
X11386Y34432D02*
X10432D01*
Y32523D01*
X11386D01*
Y34432D01*
D02*
G37*
%LPD*%
D33*
X14248Y28673D02*
Y27673D01*
X13748D01*
X13582Y27840D01*
Y28506D01*
X13748Y28673D01*
X14248D01*
X12749Y27673D02*
X13082D01*
X13248Y27840D01*
Y28173D01*
X13082Y28340D01*
X12749D01*
X12582Y28173D01*
Y28006D01*
X13248D01*
X12249Y27673D02*
X11749D01*
X11582Y27840D01*
X11749Y28006D01*
X12082D01*
X12249Y28173D01*
X12082Y28340D01*
X11582D01*
X11249Y27673D02*
X10916D01*
X11082D01*
Y28340D01*
X11249D01*
X10083Y27340D02*
X9916D01*
X9750Y27507D01*
Y28340D01*
X10249D01*
X10416Y28173D01*
Y27840D01*
X10249Y27673D01*
X9750D01*
X9416D02*
Y28340D01*
X8917D01*
X8750Y28173D01*
Y27673D01*
X7917D02*
X8250D01*
X8417Y27840D01*
Y28173D01*
X8250Y28340D01*
X7917D01*
X7750Y28173D01*
Y28006D01*
X8417D01*
X6751Y28673D02*
Y27673D01*
X7250D01*
X7417Y27840D01*
Y28173D01*
X7250Y28340D01*
X6751D01*
X5418Y28673D02*
Y27673D01*
X4918D01*
X4751Y27840D01*
Y28006D01*
Y28173D01*
X4918Y28340D01*
X5418D01*
X4418D02*
Y27840D01*
X4251Y27673D01*
X3751D01*
Y27507D01*
X3918Y27340D01*
X4085D01*
X3751Y27673D02*
Y28340D01*
X17081Y25660D02*
Y26660D01*
X16581D01*
X16414Y26493D01*
Y26160D01*
X16581Y25994D01*
X17081D01*
X16747D02*
X16414Y25660D01*
X16081Y26327D02*
Y25827D01*
X15914Y25660D01*
X15414D01*
Y26327D01*
X15081Y25660D02*
X14581D01*
X14415Y25827D01*
X14581Y25994D01*
X14915D01*
X15081Y26160D01*
X14915Y26327D01*
X14415D01*
X14082Y25660D02*
X13582D01*
X13415Y25827D01*
X13582Y25994D01*
X13915D01*
X14082Y26160D01*
X13915Y26327D01*
X13415D01*
X12582Y25660D02*
X12915D01*
X13082Y25827D01*
Y26160D01*
X12915Y26327D01*
X12582D01*
X12415Y26160D01*
Y25994D01*
X13082D01*
X12082Y25660D02*
X11749D01*
X11916D01*
Y26660D01*
X12082D01*
X11249Y25660D02*
X10916D01*
X11082D01*
Y26660D01*
X11249D01*
X9416Y25660D02*
Y26660D01*
X9083Y26327D01*
X8750Y26660D01*
Y25660D01*
X8250Y26327D02*
X7917D01*
X7750Y26160D01*
Y25660D01*
X8250D01*
X8417Y25827D01*
X8250Y25994D01*
X7750D01*
X6751Y26327D02*
X7250D01*
X7417Y26160D01*
Y25827D01*
X7250Y25660D01*
X6751D01*
X5751Y26493D02*
X5917Y26660D01*
X6251D01*
X6417Y26493D01*
Y25827D01*
X6251Y25660D01*
X5917D01*
X5751Y25827D01*
Y26160D01*
X6084D01*
X5418Y26327D02*
Y25660D01*
Y25994D01*
X5251Y26160D01*
X5084Y26327D01*
X4918D01*
X3918Y25660D02*
X4251D01*
X4418Y25827D01*
Y26160D01*
X4251Y26327D01*
X3918D01*
X3751Y26160D01*
Y25994D01*
X4418D01*
X3085Y25327D02*
X2918D01*
X2752Y25494D01*
Y26327D01*
X3252D01*
X3418Y26160D01*
Y25827D01*
X3252Y25660D01*
X2752D01*
X2252D02*
X1919D01*
X1752Y25827D01*
Y26160D01*
X1919Y26327D01*
X2252D01*
X2419Y26160D01*
Y25827D01*
X2252Y25660D01*
X1419Y26327D02*
Y25660D01*
Y25994D01*
X1252Y26160D01*
X1086Y26327D01*
X919D01*
D36*
X11750Y14674D02*
Y13474D01*
X11150D01*
X10950Y13674D01*
Y13874D01*
X11150Y14074D01*
X11750D01*
X11150D01*
X10950Y14274D01*
Y14474D01*
X11150Y14674D01*
X11750D01*
X10350Y13474D02*
X9951D01*
X9751Y13674D01*
Y14074D01*
X9951Y14274D01*
X10350D01*
X10550Y14074D01*
Y13674D01*
X10350Y13474D01*
X9151Y14274D02*
X8751D01*
X8551Y14074D01*
Y13474D01*
X9151D01*
X9351Y13674D01*
X9151Y13874D01*
X8551D01*
X8151Y14274D02*
Y13474D01*
Y13874D01*
X7951Y14074D01*
X7751Y14274D01*
X7551D01*
X6152Y14674D02*
Y13474D01*
X6752D01*
X6952Y13674D01*
Y14074D01*
X6752Y14274D01*
X6152D01*
X10275Y10424D02*
X11074D01*
Y9824D01*
X10674Y10024D01*
X10474D01*
X10275Y9824D01*
Y9424D01*
X10474Y9224D01*
X10874D01*
X11074Y9424D01*
X9875Y10224D02*
X9675Y10424D01*
X9275D01*
X9075Y10224D01*
Y9424D01*
X9275Y9224D01*
X9675D01*
X9875Y9424D01*
Y10224D01*
X8675Y9224D02*
Y10024D01*
X8475D01*
X8275Y9824D01*
Y9224D01*
Y9824D01*
X8075Y10024D01*
X7875Y9824D01*
Y9224D01*
X7475D02*
Y10024D01*
X7276D01*
X7076Y9824D01*
Y9224D01*
Y9824D01*
X6876Y10024D01*
X6676Y9824D01*
Y9224D01*
X11750Y12874D02*
Y11674D01*
X11150D01*
X10950Y11874D01*
Y12674D01*
X11150Y12874D01*
X11750D01*
X10550Y11674D02*
X10151D01*
X10350D01*
Y12474D01*
X10550D01*
X9551Y11674D02*
Y12474D01*
X9351D01*
X9151Y12274D01*
Y11674D01*
Y12274D01*
X8951Y12474D01*
X8751Y12274D01*
Y11674D01*
X14450Y12050D02*
Y11250D01*
X13850D01*
X14050Y11650D01*
Y11850D01*
X13850Y12050D01*
X13450D01*
X13250Y11850D01*
Y11450D01*
X13450Y11250D01*
X14250Y12450D02*
X14450Y12650D01*
Y13049D01*
X14250Y13249D01*
X13450D01*
X13250Y13049D01*
Y12650D01*
X13450Y12450D01*
X14250D01*
X13250Y13649D02*
X14050D01*
Y13849D01*
X13850Y14049D01*
X13250D01*
X13850D01*
X14050Y14249D01*
X13850Y14449D01*
X13250D01*
Y14849D02*
X14050D01*
Y15049D01*
X13850Y15249D01*
X13250D01*
X13850D01*
X14050Y15449D01*
X13850Y15649D01*
X13250D01*
X39250Y3900D02*
Y5100D01*
X38850Y4700D01*
X38450Y5100D01*
Y3900D01*
X38050Y4900D02*
X37850Y5100D01*
X37451D01*
X37251Y4900D01*
Y4700D01*
X37451Y4500D01*
X37651D01*
X37451D01*
X37251Y4300D01*
Y4100D01*
X37451Y3900D01*
X37850D01*
X38050Y4100D01*
D37*
X12000Y17666D02*
X12508Y18174D01*
X39800Y4500D02*
X41500D01*
X12500Y10924D02*
Y18174D01*
X40992Y4000D02*
X41500Y4508D01*
X40992Y5008D02*
X41500Y4500D01*
X5250Y10932D02*
X5758Y10424D01*
X12500Y18174D02*
X13008Y17666D01*
X5250Y10924D02*
X12500D01*
X5250Y10924D02*
X5758Y11432D01*
%TF.MD5,046a44eef9363296db143ca34ef61d3c*%
M02*
