%TF.GenerationSoftware,Altium Limited,Altium Designer,25.2.1 (25)*%
G04 Layer_Color=32768*
%FSLAX43Y43*%
%MOMM*%
%TF.SameCoordinates,D3577A82-B172-4AAC-A9F5-C134510085F9*%
%TF.FilePolarity,Positive*%
%TF.FileFunction,Other,Mechanical_15*%
%TF.Part,Single*%
G01*
G75*
%TA.AperFunction,NonConductor*%
%ADD34C,0.100*%
%ADD55C,0.050*%
D34*
X49000Y4500D02*
G03*
X49000Y4500I-3500J0D01*
G01*
X8000D02*
G03*
X8000Y4500I-3500J0D01*
G01*
X49000Y45500D02*
G03*
X49000Y45500I-3500J0D01*
G01*
X8000D02*
G03*
X8000Y45500I-3500J0D01*
G01*
X14500Y32250D02*
Y41750D01*
Y32250D02*
X35500D01*
X14500Y41750D02*
X35500D01*
Y32250D02*
Y41750D01*
X42100Y10775D02*
Y13225D01*
X40900Y10775D02*
X42100D01*
X40900D02*
Y13225D01*
X42100D01*
X14275Y26400D02*
Y27600D01*
Y26400D02*
X16725D01*
Y27600D01*
X14275D02*
X16725D01*
X14275Y20400D02*
X16725D01*
X14275D02*
Y21600D01*
X16725D01*
Y20400D02*
Y21600D01*
X14250Y22000D02*
Y26000D01*
X16750D01*
Y22000D02*
Y26000D01*
X14250Y22000D02*
X16750D01*
X35725Y20900D02*
Y22100D01*
X33275D02*
X35725D01*
X33275Y20900D02*
Y22100D01*
Y20900D02*
X35725D01*
X33275Y23900D02*
X35725D01*
X33275D02*
Y25100D01*
X35725D01*
Y23900D02*
Y25100D01*
X28150Y29025D02*
X29350D01*
Y31475D01*
X28150D02*
X29350D01*
X28150Y29025D02*
Y31475D01*
X33275Y22400D02*
X35725D01*
X33275D02*
Y23600D01*
X35725D01*
Y22400D02*
Y23600D01*
X40000Y19000D02*
X49500D01*
Y31000D01*
X40000D02*
X49500D01*
X40000Y19000D02*
Y31000D01*
X42775Y32600D02*
X45225D01*
Y31400D02*
Y32600D01*
X42775Y31400D02*
X45225D01*
X42775D02*
Y32600D01*
Y17400D02*
X45225D01*
X42775D02*
Y18600D01*
X45225D01*
Y17400D02*
Y18600D01*
X3600Y12450D02*
X5400D01*
X3600Y9550D02*
X5400D01*
Y12450D01*
X3600Y9550D02*
Y12450D01*
X44650Y10550D02*
Y13450D01*
X42850Y10550D02*
Y13450D01*
X44650D01*
X42850Y10550D02*
X44650D01*
X21000Y7800D02*
X29000D01*
X21000Y700D02*
X29000D01*
Y7800D01*
X21000Y700D02*
Y7800D01*
D55*
X19150Y13350D02*
Y26650D01*
Y13350D02*
X30850D01*
Y26650D01*
X19150D02*
X30850D01*
X36275Y10750D02*
Y13250D01*
Y10750D02*
X38725D01*
Y13250D01*
X36275D02*
X38725D01*
%TF.MD5,543685f324b468d9a0da201d60843d4c*%
M02*
