%TF.GenerationSoftware,Altium Limited,Altium Designer,25.2.1 (25)*%
G04 Layer_Color=8388736*
%FSLAX43Y43*%
%MOMM*%
%TF.SameCoordinates,2CE3D87A-6310-41BA-B934-AA3AA0227215*%
%TF.FilePolarity,Negative*%
%TF.FileFunction,Soldermask,Top*%
%TF.Part,Single*%
G01*
G75*
%TA.AperFunction,SMDPad,CuDef*%
%ADD28R,0.750X1.400*%
%ADD29R,0.650X0.900*%
%TA.AperFunction,ComponentPad*%
%ADD30O,12.650X3.900*%
%ADD31O,3.150X5.650*%
%ADD32C,2.650*%
%ADD33C,6.150*%
%ADD34C,1.550*%
%ADD35C,1.650*%
%ADD36C,2.450*%
%TA.AperFunction,ViaPad*%
%ADD37C,0.850*%
D28*
X64150Y49500D02*
D03*
X62350D02*
D03*
D29*
X58000Y16900D02*
D03*
X57350Y19100D02*
D03*
X58650D02*
D03*
D30*
X41125Y31750D02*
D03*
X20875D02*
D03*
D31*
X47100Y8375D02*
D03*
X14900D02*
D03*
D32*
X68750Y23250D02*
D03*
Y28330D02*
D03*
Y18250D02*
D03*
Y13170D02*
D03*
Y35750D02*
D03*
Y40830D02*
D03*
X55000Y22650D02*
D03*
Y37850D02*
D03*
D33*
X4500Y49500D02*
D03*
X70000D02*
D03*
X4500Y4500D02*
D03*
X70000D02*
D03*
D34*
X60500Y29810D02*
D03*
Y22190D02*
D03*
D35*
X60000Y4500D02*
D03*
X58000D02*
D03*
X56000D02*
D03*
D36*
X18180Y49040D02*
D03*
Y46500D02*
D03*
Y43960D02*
D03*
X13100D02*
D03*
Y46500D02*
D03*
Y49040D02*
D03*
X48900D02*
D03*
Y46500D02*
D03*
Y43960D02*
D03*
X43820D02*
D03*
Y46500D02*
D03*
Y49040D02*
D03*
D37*
X62250Y47750D02*
D03*
X57250Y20500D02*
D03*
%TF.MD5,cab2d50accd99d0147360bc327b515e0*%
M02*
