M48
;Layer_Color=9474304
;FILE_FORMAT=4:3
METRIC,LZ
;TYPE=PLATED
T01F00S00C0.300
T02F00S00C0.850
T03F00S00C0.900
T05F00S00C1.300
T06F00S00C1.500
T07F00S00C1.600
T09F00S00C3.500
%
T01
X005725Y00205
X006225Y004775
T02
X00605Y002219
Y002981
T03
X0056Y00045
X0058
X006
T05
X006875Y001317
Y001825
Y002325
Y002833
Y003575
Y004083
T06
X0055Y002265
Y003785
T07
X001818Y004396
Y00465
Y004904
X004382
Y00465
Y004396
X00489
Y00465
Y004904
X00131
Y00465
Y004396
T09
X00045Y00045
X007
Y00495
X00045
M30
