%TF.GenerationSoftware,Altium Limited,Altium Designer,25.2.1 (25)*%
G04 Layer_Color=6740479*
%FSLAX43Y43*%
%MOMM*%
%TF.SameCoordinates,2CE3D87A-6310-41BA-B934-AA3AA0227215*%
%TF.FilePolarity,Positive*%
%TF.FileFunction,Legend,Bot*%
%TF.Part,Single*%
G01*
G75*
%TA.AperFunction,NonConductor*%
%ADD13C,0.400*%
%ADD24C,0.250*%
%ADD26C,0.300*%
%ADD27C,0.254*%
G36*
X39227Y26905D02*
X39405D01*
Y26892D01*
X39501D01*
Y26878D01*
X39597D01*
Y26864D01*
X39666D01*
Y26850D01*
X39748D01*
Y26837D01*
X39775D01*
Y26823D01*
X39844D01*
Y26809D01*
X39898D01*
Y26796D01*
X39940D01*
Y26782D01*
X39994D01*
Y26768D01*
X40022D01*
Y26754D01*
X40063D01*
Y26741D01*
X40104D01*
Y26727D01*
X40131D01*
Y26713D01*
X40172D01*
Y26700D01*
X40200D01*
Y26686D01*
X40255D01*
Y26672D01*
X40268D01*
Y26659D01*
X40309D01*
Y26645D01*
X40323D01*
Y26631D01*
X40351D01*
Y26617D01*
X40392D01*
Y26604D01*
X40405D01*
Y26590D01*
X40446D01*
Y26576D01*
X40474D01*
Y26563D01*
X40501D01*
Y26549D01*
X40515D01*
Y26535D01*
X40542D01*
Y26522D01*
X40570D01*
Y26508D01*
X40583D01*
Y26494D01*
X40611D01*
Y26480D01*
X40638D01*
Y26467D01*
X40652D01*
Y26453D01*
X40679D01*
Y26439D01*
X40693D01*
Y26426D01*
X40721D01*
Y26412D01*
X40734D01*
Y26398D01*
X40762D01*
Y26385D01*
X40775D01*
Y26371D01*
X40789D01*
Y26357D01*
X40816D01*
Y26343D01*
X40830D01*
Y26330D01*
X40857D01*
Y26316D01*
X40871D01*
Y26302D01*
X40885D01*
Y26289D01*
X40912D01*
Y26275D01*
X40926D01*
Y26261D01*
X40940D01*
Y26248D01*
X40953D01*
Y26234D01*
X40967D01*
Y26220D01*
X40995D01*
Y26193D01*
X41022D01*
Y26179D01*
X41036D01*
Y26165D01*
X41049D01*
Y26152D01*
X41063D01*
Y26138D01*
X41077D01*
Y26124D01*
X41090D01*
Y26111D01*
X41104D01*
Y26097D01*
X41132D01*
Y26069D01*
X41159D01*
Y26042D01*
X41173D01*
Y26028D01*
X41186D01*
Y26015D01*
X41200D01*
Y26001D01*
X41214D01*
Y25987D01*
X41227D01*
Y25974D01*
X41241D01*
Y25960D01*
X41255D01*
Y25946D01*
X41269D01*
Y25932D01*
X41282D01*
Y25919D01*
X41296D01*
Y25891D01*
X41310D01*
Y25878D01*
X41323D01*
Y25864D01*
X41337D01*
Y25850D01*
X41351D01*
Y25837D01*
X41364D01*
Y25809D01*
X41378D01*
Y25795D01*
X41392D01*
Y25782D01*
X41406D01*
Y25768D01*
X41419D01*
Y25741D01*
X41433D01*
Y25727D01*
X41447D01*
Y25700D01*
X41460D01*
Y25686D01*
X41474D01*
Y25672D01*
X41488D01*
Y25645D01*
X41501D01*
Y25631D01*
X41515D01*
Y25604D01*
X41529D01*
Y25590D01*
X41543D01*
Y25576D01*
X41556D01*
Y25535D01*
X41570D01*
Y25521D01*
X41584D01*
Y25494D01*
X41597D01*
Y25480D01*
X41611D01*
Y25453D01*
X41625D01*
Y25426D01*
X41638D01*
Y25412D01*
X41652D01*
Y25384D01*
X41666D01*
Y25357D01*
X41680D01*
Y25330D01*
X41693D01*
Y25289D01*
X41707D01*
Y25275D01*
X41721D01*
Y25234D01*
X41734D01*
Y25220D01*
X41748D01*
Y25179D01*
X41762D01*
Y25152D01*
X41775D01*
Y25124D01*
X41789D01*
Y25083D01*
X41803D01*
Y25056D01*
X41817D01*
Y25001D01*
X41830D01*
Y24973D01*
X41844D01*
Y24932D01*
X41858D01*
Y24891D01*
X41871D01*
Y24864D01*
X41885D01*
Y24795D01*
X41899D01*
Y24754D01*
X41912D01*
Y24686D01*
X41926D01*
Y24645D01*
X41940D01*
Y24590D01*
X41954D01*
Y24494D01*
X41967D01*
Y24425D01*
X41981D01*
Y24302D01*
X41995D01*
Y24124D01*
X42008D01*
Y12876D01*
X41995D01*
Y12698D01*
X41981D01*
Y12574D01*
X41967D01*
Y12506D01*
X41954D01*
Y12410D01*
X41940D01*
Y12355D01*
X41926D01*
Y12314D01*
X41912D01*
Y12246D01*
X41899D01*
Y12205D01*
X41885D01*
Y12136D01*
X41871D01*
Y12109D01*
X41858D01*
Y12068D01*
X41844D01*
Y12026D01*
X41830D01*
Y11999D01*
X41817D01*
Y11944D01*
X41803D01*
Y11917D01*
X41789D01*
Y11876D01*
X41775D01*
Y11848D01*
X41762D01*
Y11821D01*
X41748D01*
Y11780D01*
X41734D01*
Y11766D01*
X41721D01*
Y11725D01*
X41707D01*
Y11711D01*
X41693D01*
Y11670D01*
X41680D01*
Y11643D01*
X41666D01*
Y11615D01*
X41652D01*
Y11588D01*
X41638D01*
Y11574D01*
X41625D01*
Y11547D01*
X41611D01*
Y11520D01*
X41597D01*
Y11506D01*
X41584D01*
Y11478D01*
X41570D01*
Y11465D01*
X41556D01*
Y11424D01*
X41543D01*
Y11410D01*
X41529D01*
Y11396D01*
X41515D01*
Y11369D01*
X41501D01*
Y11355D01*
X41488D01*
Y11328D01*
X41474D01*
Y11314D01*
X41460D01*
Y11300D01*
X41447D01*
Y11273D01*
X41433D01*
Y11259D01*
X41419D01*
Y11232D01*
X41406D01*
Y11218D01*
X41392D01*
Y11204D01*
X41378D01*
Y11191D01*
X41364D01*
Y11163D01*
X41351D01*
Y11150D01*
X41337D01*
Y11136D01*
X41323D01*
Y11122D01*
X41310D01*
Y11109D01*
X41296D01*
Y11081D01*
X41282D01*
Y11067D01*
X41269D01*
Y11054D01*
X41255D01*
Y11040D01*
X41241D01*
Y11026D01*
X41227D01*
Y11013D01*
X41214D01*
Y10999D01*
X41200D01*
Y10985D01*
X41186D01*
Y10972D01*
X41173D01*
Y10958D01*
X41159D01*
Y10930D01*
X41132D01*
Y10903D01*
X41104D01*
Y10889D01*
X41090D01*
Y10876D01*
X41077D01*
Y10862D01*
X41063D01*
Y10848D01*
X41049D01*
Y10835D01*
X41036D01*
Y10821D01*
X41022D01*
Y10807D01*
X40995D01*
Y10780D01*
X40967D01*
Y10766D01*
X40953D01*
Y10752D01*
X40940D01*
Y10739D01*
X40926D01*
Y10725D01*
X40912D01*
Y10711D01*
X40885D01*
Y10698D01*
X40871D01*
Y10684D01*
X40857D01*
Y10670D01*
X40830D01*
Y10656D01*
X40816D01*
Y10643D01*
X40789D01*
Y10629D01*
X40775D01*
Y10615D01*
X40762D01*
Y10602D01*
X40734D01*
Y10588D01*
X40721D01*
Y10574D01*
X40693D01*
Y10561D01*
X40679D01*
Y10547D01*
X40652D01*
Y10533D01*
X40638D01*
Y10519D01*
X40611D01*
Y10506D01*
X40583D01*
Y10492D01*
X40570D01*
Y10478D01*
X40542D01*
Y10465D01*
X40515D01*
Y10451D01*
X40501D01*
Y10437D01*
X40474D01*
Y10424D01*
X40446D01*
Y10410D01*
X40405D01*
Y10396D01*
X40392D01*
Y10382D01*
X40351D01*
Y10369D01*
X40323D01*
Y10355D01*
X40309D01*
Y10341D01*
X40268D01*
Y10328D01*
X40255D01*
Y10314D01*
X40200D01*
Y10300D01*
X40172D01*
Y10286D01*
X40131D01*
Y10273D01*
X40104D01*
Y10259D01*
X40063D01*
Y10245D01*
X40022D01*
Y10232D01*
X39994D01*
Y10218D01*
X39940D01*
Y10204D01*
X39898D01*
Y10191D01*
X39844D01*
Y10177D01*
X39775D01*
Y10163D01*
X39748D01*
Y10149D01*
X39666D01*
Y10136D01*
X39597D01*
Y10122D01*
X39501D01*
Y10108D01*
X39405D01*
Y10095D01*
X39227D01*
Y10081D01*
X22773D01*
Y10095D01*
X22595D01*
Y10108D01*
X22499D01*
Y10122D01*
X22403D01*
Y10136D01*
X22334D01*
Y10149D01*
X22252D01*
Y10163D01*
X22225D01*
Y10177D01*
X22156D01*
Y10191D01*
X22102D01*
Y10204D01*
X22060D01*
Y10218D01*
X22006D01*
Y10232D01*
X21978D01*
Y10245D01*
X21937D01*
Y10259D01*
X21896D01*
Y10273D01*
X21869D01*
Y10286D01*
X21828D01*
Y10300D01*
X21800D01*
Y10314D01*
X21745D01*
Y10328D01*
X21732D01*
Y10341D01*
X21691D01*
Y10355D01*
X21677D01*
Y10369D01*
X21649D01*
Y10382D01*
X21608D01*
Y10396D01*
X21595D01*
Y10410D01*
X21554D01*
Y10424D01*
X21526D01*
Y10437D01*
X21499D01*
Y10451D01*
X21485D01*
Y10465D01*
X21458D01*
Y10478D01*
X21430D01*
Y10492D01*
X21417D01*
Y10506D01*
X21389D01*
Y10519D01*
X21362D01*
Y10533D01*
X21348D01*
Y10547D01*
X21321D01*
Y10561D01*
X21307D01*
Y10574D01*
X21279D01*
Y10588D01*
X21266D01*
Y10602D01*
X21238D01*
Y10615D01*
X21225D01*
Y10629D01*
X21211D01*
Y10643D01*
X21184D01*
Y10656D01*
X21170D01*
Y10670D01*
X21142D01*
Y10684D01*
X21129D01*
Y10698D01*
X21115D01*
Y10711D01*
X21088D01*
Y10725D01*
X21074D01*
Y10739D01*
X21060D01*
Y10752D01*
X21047D01*
Y10766D01*
X21033D01*
Y10780D01*
X21005D01*
Y10807D01*
X20978D01*
Y10821D01*
X20964D01*
Y10835D01*
X20951D01*
Y10848D01*
X20937D01*
Y10862D01*
X20923D01*
Y10876D01*
X20910D01*
Y10889D01*
X20896D01*
Y10903D01*
X20868D01*
Y10930D01*
X20841D01*
Y10958D01*
X20827D01*
Y10972D01*
X20814D01*
Y10985D01*
X20800D01*
Y10999D01*
X20786D01*
Y11013D01*
X20773D01*
Y11026D01*
X20759D01*
Y11040D01*
X20745D01*
Y11054D01*
X20731D01*
Y11067D01*
X20718D01*
Y11081D01*
X20704D01*
Y11109D01*
X20690D01*
Y11122D01*
X20677D01*
Y11136D01*
X20663D01*
Y11150D01*
X20649D01*
Y11163D01*
X20636D01*
Y11191D01*
X20622D01*
Y11204D01*
X20608D01*
Y11218D01*
X20594D01*
Y11232D01*
X20581D01*
Y11259D01*
X20567D01*
Y11273D01*
X20553D01*
Y11300D01*
X20540D01*
Y11314D01*
X20526D01*
Y11328D01*
X20512D01*
Y11355D01*
X20499D01*
Y11369D01*
X20485D01*
Y11396D01*
X20471D01*
Y11410D01*
X20457D01*
Y11424D01*
X20444D01*
Y11465D01*
X20430D01*
Y11478D01*
X20416D01*
Y11506D01*
X20403D01*
Y11520D01*
X20389D01*
Y11547D01*
X20375D01*
Y11574D01*
X20362D01*
Y11588D01*
X20348D01*
Y11615D01*
X20334D01*
Y11643D01*
X20320D01*
Y11670D01*
X20307D01*
Y11711D01*
X20293D01*
Y11725D01*
X20279D01*
Y11766D01*
X20266D01*
Y11780D01*
X20252D01*
Y11821D01*
X20238D01*
Y11848D01*
X20225D01*
Y11876D01*
X20211D01*
Y11917D01*
X20197D01*
Y11944D01*
X20183D01*
Y11999D01*
X20170D01*
Y12026D01*
X20156D01*
Y12068D01*
X20142D01*
Y12109D01*
X20129D01*
Y12136D01*
X20115D01*
Y12205D01*
X20101D01*
Y12246D01*
X20088D01*
Y12314D01*
X20074D01*
Y12355D01*
X20060D01*
Y12410D01*
X20046D01*
Y12506D01*
X20033D01*
Y12574D01*
X20019D01*
Y12698D01*
X20005D01*
Y12876D01*
X19992D01*
Y24124D01*
X20005D01*
Y24302D01*
X20019D01*
Y24425D01*
X20033D01*
Y24494D01*
X20046D01*
Y24590D01*
X20060D01*
Y24645D01*
X20074D01*
Y24686D01*
X20088D01*
Y24754D01*
X20101D01*
Y24795D01*
X20115D01*
Y24864D01*
X20129D01*
Y24891D01*
X20142D01*
Y24932D01*
X20156D01*
Y24973D01*
X20170D01*
Y25001D01*
X20183D01*
Y25056D01*
X20197D01*
Y25083D01*
X20211D01*
Y25124D01*
X20225D01*
Y25152D01*
X20238D01*
Y25179D01*
X20252D01*
Y25220D01*
X20266D01*
Y25234D01*
X20279D01*
Y25275D01*
X20293D01*
Y25289D01*
X20307D01*
Y25330D01*
X20320D01*
Y25357D01*
X20334D01*
Y25384D01*
X20348D01*
Y25412D01*
X20362D01*
Y25426D01*
X20375D01*
Y25453D01*
X20389D01*
Y25480D01*
X20403D01*
Y25494D01*
X20416D01*
Y25521D01*
X20430D01*
Y25535D01*
X20444D01*
Y25576D01*
X20457D01*
Y25590D01*
X20471D01*
Y25604D01*
X20485D01*
Y25631D01*
X20499D01*
Y25645D01*
X20512D01*
Y25672D01*
X20526D01*
Y25686D01*
X20540D01*
Y25700D01*
X20553D01*
Y25727D01*
X20567D01*
Y25741D01*
X20581D01*
Y25768D01*
X20594D01*
Y25782D01*
X20608D01*
Y25795D01*
X20622D01*
Y25809D01*
X20636D01*
Y25837D01*
X20649D01*
Y25850D01*
X20663D01*
Y25864D01*
X20677D01*
Y25878D01*
X20690D01*
Y25891D01*
X20704D01*
Y25919D01*
X20718D01*
Y25932D01*
X20731D01*
Y25946D01*
X20745D01*
Y25960D01*
X20759D01*
Y25974D01*
X20773D01*
Y25987D01*
X20786D01*
Y26001D01*
X20800D01*
Y26015D01*
X20814D01*
Y26028D01*
X20827D01*
Y26042D01*
X20841D01*
Y26069D01*
X20868D01*
Y26097D01*
X20896D01*
Y26111D01*
X20910D01*
Y26124D01*
X20923D01*
Y26138D01*
X20937D01*
Y26152D01*
X20951D01*
Y26165D01*
X20964D01*
Y26179D01*
X20978D01*
Y26193D01*
X21005D01*
Y26220D01*
X21033D01*
Y26234D01*
X21047D01*
Y26248D01*
X21060D01*
Y26261D01*
X21074D01*
Y26275D01*
X21088D01*
Y26289D01*
X21115D01*
Y26302D01*
X21129D01*
Y26316D01*
X21142D01*
Y26330D01*
X21170D01*
Y26343D01*
X21184D01*
Y26357D01*
X21211D01*
Y26371D01*
X21225D01*
Y26385D01*
X21238D01*
Y26398D01*
X21266D01*
Y26412D01*
X21279D01*
Y26426D01*
X21307D01*
Y26439D01*
X21321D01*
Y26453D01*
X21348D01*
Y26467D01*
X21362D01*
Y26480D01*
X21389D01*
Y26494D01*
X21417D01*
Y26508D01*
X21430D01*
Y26522D01*
X21458D01*
Y26535D01*
X21485D01*
Y26549D01*
X21499D01*
Y26563D01*
X21526D01*
Y26576D01*
X21554D01*
Y26590D01*
X21595D01*
Y26604D01*
X21608D01*
Y26617D01*
X21649D01*
Y26631D01*
X21677D01*
Y26645D01*
X21691D01*
Y26659D01*
X21732D01*
Y26672D01*
X21745D01*
Y26686D01*
X21800D01*
Y26700D01*
X21828D01*
Y26713D01*
X21869D01*
Y26727D01*
X21896D01*
Y26741D01*
X21937D01*
Y26754D01*
X21978D01*
Y26768D01*
X22006D01*
Y26782D01*
X22060D01*
Y26796D01*
X22102D01*
Y26809D01*
X22156D01*
Y26823D01*
X22225D01*
Y26837D01*
X22252D01*
Y26850D01*
X22334D01*
Y26864D01*
X22403D01*
Y26878D01*
X22499D01*
Y26892D01*
X22595D01*
Y26905D01*
X22773D01*
Y26919D01*
X39227D01*
Y26905D01*
D02*
G37*
G36*
X35034Y43920D02*
X38261D01*
Y42309D01*
X38259D01*
Y42307D01*
X36647D01*
Y40693D01*
X38259D01*
Y40691D01*
X38261D01*
Y39079D01*
X39875D01*
Y35852D01*
X38261D01*
Y37466D01*
X36649D01*
Y37468D01*
X36647D01*
Y39079D01*
X35034D01*
Y37468D01*
X35032D01*
Y37466D01*
X33420D01*
Y39079D01*
X28579D01*
Y37466D01*
X30191D01*
Y37464D01*
X30193D01*
Y35852D01*
X28579D01*
Y37466D01*
X26967D01*
Y37468D01*
X26965D01*
Y39079D01*
X25352D01*
Y37468D01*
X25350D01*
Y37466D01*
X23738D01*
Y35852D01*
X22125D01*
Y39079D01*
X23738D01*
Y40691D01*
X23740D01*
Y40693D01*
X25352D01*
Y42307D01*
X23740D01*
Y42309D01*
X23738D01*
Y43920D01*
X22125D01*
Y45080D01*
Y45082D01*
Y45534D01*
X23736D01*
Y45532D01*
X23738D01*
Y43920D01*
X26965D01*
Y40693D01*
X28579D01*
Y43920D01*
X26965D01*
Y47148D01*
X28579D01*
Y45534D01*
X33420D01*
Y47148D01*
X35034D01*
Y43920D01*
D02*
G37*
G36*
X39875D02*
X38261D01*
Y44415D01*
Y44417D01*
Y45532D01*
X38263D01*
Y45534D01*
X39875D01*
Y43920D01*
D02*
G37*
G36*
X33420Y37339D02*
Y37337D01*
Y35852D01*
X31806D01*
Y37464D01*
X31808D01*
Y37466D01*
X33420D01*
Y37339D01*
D02*
G37*
%LPC*%
G36*
X39255Y25617D02*
X22745D01*
Y25604D01*
X22622D01*
Y25590D01*
X22554D01*
Y25576D01*
X22513D01*
Y25563D01*
X22444D01*
Y25549D01*
X22417D01*
Y25535D01*
X22362D01*
Y25521D01*
X22334D01*
Y25508D01*
X22293D01*
Y25494D01*
X22266D01*
Y25480D01*
X22239D01*
Y25467D01*
X22197D01*
Y25453D01*
X22184D01*
Y25439D01*
X22156D01*
Y25426D01*
X22129D01*
Y25412D01*
X22102D01*
Y25398D01*
X22074D01*
Y25384D01*
X22060D01*
Y25371D01*
X22033D01*
Y25357D01*
X22006D01*
Y25343D01*
X21992D01*
Y25330D01*
X21978D01*
Y25316D01*
X21951D01*
Y25302D01*
X21937D01*
Y25289D01*
X21923D01*
Y25275D01*
X21896D01*
Y25261D01*
X21882D01*
Y25247D01*
X21869D01*
Y25234D01*
X21855D01*
Y25220D01*
X21841D01*
Y25206D01*
X21814D01*
Y25193D01*
X21800D01*
Y25179D01*
X21786D01*
Y25165D01*
X21773D01*
Y25152D01*
X21759D01*
Y25138D01*
X21745D01*
Y25124D01*
X21732D01*
Y25110D01*
X21718D01*
Y25097D01*
X21704D01*
Y25069D01*
X21691D01*
Y25056D01*
X21677D01*
Y25042D01*
X21663D01*
Y25028D01*
X21649D01*
Y25015D01*
X21636D01*
Y25001D01*
X21622D01*
Y24973D01*
X21608D01*
Y24960D01*
X21595D01*
Y24932D01*
X21581D01*
Y24919D01*
X21567D01*
Y24905D01*
X21554D01*
Y24878D01*
X21540D01*
Y24850D01*
X21526D01*
Y24836D01*
X21512D01*
Y24809D01*
X21499D01*
Y24782D01*
X21485D01*
Y24768D01*
X21471D01*
Y24741D01*
X21458D01*
Y24699D01*
X21444D01*
Y24686D01*
X21430D01*
Y24645D01*
X21417D01*
Y24631D01*
X21403D01*
Y24576D01*
X21389D01*
Y24549D01*
X21375D01*
Y24508D01*
X21362D01*
Y24453D01*
X21348D01*
Y24412D01*
X21334D01*
Y24343D01*
X21321D01*
Y24288D01*
X21307D01*
Y24192D01*
X21293D01*
Y12807D01*
X21307D01*
Y12711D01*
X21321D01*
Y12657D01*
X21334D01*
Y12588D01*
X21348D01*
Y12547D01*
X21362D01*
Y12492D01*
X21375D01*
Y12451D01*
X21389D01*
Y12424D01*
X21403D01*
Y12369D01*
X21417D01*
Y12355D01*
X21430D01*
Y12314D01*
X21444D01*
Y12300D01*
X21458D01*
Y12259D01*
X21471D01*
Y12232D01*
X21485D01*
Y12218D01*
X21499D01*
Y12191D01*
X21512D01*
Y12163D01*
X21526D01*
Y12150D01*
X21540D01*
Y12122D01*
X21554D01*
Y12095D01*
X21567D01*
Y12081D01*
X21581D01*
Y12068D01*
X21595D01*
Y12040D01*
X21608D01*
Y12026D01*
X21622D01*
Y11999D01*
X21636D01*
Y11985D01*
X21649D01*
Y11972D01*
X21663D01*
Y11958D01*
X21677D01*
Y11944D01*
X21691D01*
Y11917D01*
X21704D01*
Y11903D01*
X21718D01*
Y11889D01*
X21732D01*
Y11876D01*
X21745D01*
Y11862D01*
X21759D01*
Y11848D01*
X21773D01*
Y11835D01*
X21786D01*
Y11821D01*
X21800D01*
Y11807D01*
X21814D01*
Y11794D01*
X21841D01*
Y11780D01*
X21855D01*
Y11766D01*
X21869D01*
Y11752D01*
X21882D01*
Y11739D01*
X21896D01*
Y11725D01*
X21923D01*
Y11711D01*
X21937D01*
Y11698D01*
X21951D01*
Y11684D01*
X21978D01*
Y11670D01*
X21992D01*
Y11657D01*
X22006D01*
Y11643D01*
X22033D01*
Y11629D01*
X22060D01*
Y11615D01*
X22074D01*
Y11602D01*
X22102D01*
Y11588D01*
X22129D01*
Y11574D01*
X22156D01*
Y11561D01*
X22184D01*
Y11547D01*
X22197D01*
Y11533D01*
X22239D01*
Y11520D01*
X22266D01*
Y11506D01*
X22293D01*
Y11492D01*
X22334D01*
Y11478D01*
X22362D01*
Y11465D01*
X22417D01*
Y11451D01*
X22444D01*
Y11437D01*
X22513D01*
Y11424D01*
X22554D01*
Y11410D01*
X22622D01*
Y11396D01*
X22745D01*
Y11383D01*
X39268D01*
Y11396D01*
X39378D01*
Y11410D01*
X39446D01*
Y11424D01*
X39487D01*
Y11437D01*
X39556D01*
Y11451D01*
X39583D01*
Y11465D01*
X39638D01*
Y11478D01*
X39666D01*
Y11492D01*
X39707D01*
Y11506D01*
X39734D01*
Y11520D01*
X39761D01*
Y11533D01*
X39803D01*
Y11547D01*
X39816D01*
Y11561D01*
X39844D01*
Y11574D01*
X39871D01*
Y11588D01*
X39898D01*
Y11602D01*
X39926D01*
Y11615D01*
X39940D01*
Y11629D01*
X39967D01*
Y11643D01*
X39994D01*
Y11657D01*
X40008D01*
Y11670D01*
X40022D01*
Y11684D01*
X40049D01*
Y11698D01*
X40063D01*
Y11711D01*
X40077D01*
Y11725D01*
X40104D01*
Y11739D01*
X40118D01*
Y11752D01*
X40131D01*
Y11766D01*
X40145D01*
Y11780D01*
X40159D01*
Y11794D01*
X40186D01*
Y11807D01*
X40200D01*
Y11821D01*
X40214D01*
Y11835D01*
X40227D01*
Y11848D01*
X40241D01*
Y11862D01*
X40255D01*
Y11876D01*
X40268D01*
Y11889D01*
X40282D01*
Y11903D01*
X40296D01*
Y11917D01*
X40309D01*
Y11944D01*
X40323D01*
Y11958D01*
X40337D01*
Y11972D01*
X40351D01*
Y11985D01*
X40364D01*
Y11999D01*
X40378D01*
Y12026D01*
X40392D01*
Y12040D01*
X40405D01*
Y12068D01*
X40419D01*
Y12081D01*
X40433D01*
Y12095D01*
X40446D01*
Y12122D01*
X40460D01*
Y12150D01*
X40474D01*
Y12163D01*
X40488D01*
Y12177D01*
X40501D01*
Y12218D01*
X40515D01*
Y12232D01*
X40529D01*
Y12259D01*
X40542D01*
Y12300D01*
X40556D01*
Y12314D01*
X40570D01*
Y12355D01*
X40583D01*
Y12369D01*
X40597D01*
Y12424D01*
X40611D01*
Y12451D01*
X40625D01*
Y12492D01*
X40638D01*
Y12547D01*
X40652D01*
Y12588D01*
X40666D01*
Y12657D01*
X40679D01*
Y12711D01*
X40693D01*
Y12807D01*
X40707D01*
Y24192D01*
X40693D01*
Y24288D01*
X40679D01*
Y24343D01*
X40666D01*
Y24412D01*
X40652D01*
Y24453D01*
X40638D01*
Y24508D01*
X40625D01*
Y24549D01*
X40611D01*
Y24576D01*
X40597D01*
Y24631D01*
X40583D01*
Y24645D01*
X40570D01*
Y24686D01*
X40556D01*
Y24699D01*
X40542D01*
Y24741D01*
X40529D01*
Y24768D01*
X40515D01*
Y24782D01*
X40501D01*
Y24809D01*
X40488D01*
Y24836D01*
X40474D01*
Y24850D01*
X40460D01*
Y24878D01*
X40446D01*
Y24905D01*
X40433D01*
Y24919D01*
X40419D01*
Y24932D01*
X40405D01*
Y24960D01*
X40392D01*
Y24973D01*
X40378D01*
Y25001D01*
X40364D01*
Y25015D01*
X40351D01*
Y25028D01*
X40337D01*
Y25042D01*
X40323D01*
Y25056D01*
X40309D01*
Y25083D01*
X40296D01*
Y25097D01*
X40282D01*
Y25110D01*
X40268D01*
Y25124D01*
X40255D01*
Y25138D01*
X40241D01*
Y25152D01*
X40227D01*
Y25165D01*
X40214D01*
Y25179D01*
X40200D01*
Y25193D01*
X40186D01*
Y25206D01*
X40159D01*
Y25220D01*
X40145D01*
Y25234D01*
X40131D01*
Y25247D01*
X40118D01*
Y25261D01*
X40104D01*
Y25275D01*
X40077D01*
Y25289D01*
X40063D01*
Y25302D01*
X40049D01*
Y25316D01*
X40022D01*
Y25330D01*
X40008D01*
Y25343D01*
X39994D01*
Y25357D01*
X39967D01*
Y25371D01*
X39940D01*
Y25384D01*
X39926D01*
Y25398D01*
X39898D01*
Y25412D01*
X39871D01*
Y25426D01*
X39844D01*
Y25439D01*
X39816D01*
Y25453D01*
X39803D01*
Y25467D01*
X39761D01*
Y25480D01*
X39734D01*
Y25494D01*
X39707D01*
Y25508D01*
X39666D01*
Y25521D01*
X39638D01*
Y25535D01*
X39583D01*
Y25549D01*
X39556D01*
Y25563D01*
X39487D01*
Y25576D01*
X39446D01*
Y25590D01*
X39378D01*
Y25604D01*
X39255D01*
Y25617D01*
D02*
G37*
%LPD*%
G36*
X30651Y24645D02*
X30678D01*
Y13342D01*
X30664D01*
Y13328D01*
X30651D01*
Y13314D01*
X30623D01*
Y13328D01*
X28774D01*
Y13314D01*
X28760D01*
Y13328D01*
X28733D01*
Y13958D01*
X28760D01*
Y13972D01*
X28787D01*
Y13958D01*
X28801D01*
Y13972D01*
X29966D01*
Y13958D01*
X29993D01*
Y13972D01*
X30020D01*
Y13986D01*
X30034D01*
Y15342D01*
Y15356D01*
Y18164D01*
X30020D01*
Y18192D01*
X30007D01*
Y18205D01*
X29993D01*
Y18219D01*
X29979D01*
Y18233D01*
X29952D01*
Y18246D01*
X29938D01*
Y18260D01*
X29925D01*
Y18274D01*
X29911D01*
Y18288D01*
X29897D01*
Y18301D01*
X29883D01*
Y18315D01*
X29870D01*
Y18329D01*
X29856D01*
Y18342D01*
X29842D01*
Y18356D01*
X29829D01*
Y18370D01*
X29815D01*
Y18383D01*
X29788D01*
Y18397D01*
X29774D01*
Y18411D01*
X29760D01*
Y18425D01*
X29746D01*
Y18438D01*
X29733D01*
Y18452D01*
X29719D01*
Y18466D01*
X29705D01*
Y18479D01*
X29692D01*
Y18493D01*
X29678D01*
Y18507D01*
X29664D01*
Y18521D01*
X29637D01*
Y18534D01*
X29623D01*
Y18548D01*
X29609D01*
Y18562D01*
X29596D01*
Y18575D01*
X29582D01*
Y18589D01*
X29568D01*
Y18603D01*
X29555D01*
Y18616D01*
X29541D01*
Y18630D01*
X29527D01*
Y18644D01*
X29500D01*
Y18657D01*
X29486D01*
Y18671D01*
X29472D01*
Y18685D01*
X29459D01*
Y18699D01*
X29445D01*
Y18712D01*
X29431D01*
Y18726D01*
X29418D01*
Y18740D01*
X29404D01*
Y18753D01*
X29390D01*
Y18767D01*
X29376D01*
Y18781D01*
X29363D01*
Y18795D01*
X29335D01*
Y18808D01*
X29322D01*
Y18822D01*
X29308D01*
Y18836D01*
X29294D01*
Y18849D01*
X29281D01*
Y18863D01*
X29267D01*
Y18877D01*
X29253D01*
Y18890D01*
X29239D01*
Y18904D01*
X29226D01*
Y18918D01*
X29198D01*
Y18932D01*
X29185D01*
Y18945D01*
X29171D01*
Y18959D01*
X29157D01*
Y18973D01*
X29144D01*
Y18986D01*
X29130D01*
Y19000D01*
X29116D01*
Y19014D01*
X29102D01*
Y19027D01*
X29089D01*
Y19041D01*
X29075D01*
Y19055D01*
X29061D01*
Y19069D01*
X29034D01*
Y19082D01*
X29020D01*
Y19096D01*
X29007D01*
Y19110D01*
X28993D01*
Y19123D01*
X28979D01*
Y19137D01*
X28965D01*
Y19151D01*
X28952D01*
Y19164D01*
X28938D01*
Y19178D01*
X28924D01*
Y19192D01*
X28897D01*
Y19206D01*
X28883D01*
Y19219D01*
X28870D01*
Y19233D01*
X28856D01*
Y19247D01*
X28842D01*
Y19260D01*
X28828D01*
Y19274D01*
X28815D01*
Y19288D01*
X28801D01*
Y19301D01*
X28787D01*
Y19315D01*
X28774D01*
Y19329D01*
X28746D01*
Y19343D01*
X28733D01*
Y19356D01*
X28719D01*
Y19370D01*
X28705D01*
Y19384D01*
X28691D01*
Y19397D01*
X28678D01*
Y19411D01*
X28664D01*
Y19425D01*
X28650D01*
Y19438D01*
X28637D01*
Y19452D01*
X28623D01*
Y19466D01*
X28609D01*
Y19480D01*
X28582D01*
Y19493D01*
X28568D01*
Y19507D01*
X28554D01*
Y19521D01*
X28541D01*
Y19534D01*
X28527D01*
Y19548D01*
X28513D01*
Y19562D01*
X28500D01*
Y19575D01*
X28486D01*
Y19589D01*
X28472D01*
Y19603D01*
X28445D01*
Y19617D01*
X28431D01*
Y19630D01*
X28417D01*
Y19644D01*
X28404D01*
Y19658D01*
X28390D01*
Y19671D01*
X28376D01*
Y19685D01*
X28363D01*
Y19699D01*
X28349D01*
Y19712D01*
X28335D01*
Y19726D01*
X28322D01*
Y19740D01*
X28308D01*
Y19754D01*
X28280D01*
Y19767D01*
X28267D01*
Y19781D01*
X28253D01*
Y19795D01*
X28239D01*
Y19808D01*
X28226D01*
Y19822D01*
X28212D01*
Y19836D01*
X28198D01*
Y19849D01*
X28185D01*
Y19863D01*
X28171D01*
Y19877D01*
X28143D01*
Y19891D01*
X28130D01*
Y19904D01*
X28116D01*
Y19918D01*
X28102D01*
Y19932D01*
X28089D01*
Y19945D01*
X28075D01*
Y19959D01*
X28061D01*
Y19973D01*
X28048D01*
Y19986D01*
X28034D01*
Y20000D01*
X28020D01*
Y20014D01*
X28006D01*
Y20028D01*
X27979D01*
Y20041D01*
X27965D01*
Y20055D01*
X27952D01*
Y20069D01*
X27938D01*
Y20082D01*
X27924D01*
Y20096D01*
X27911D01*
Y20110D01*
X27883D01*
Y20137D01*
X27869D01*
Y20151D01*
X27842D01*
Y20178D01*
X27815D01*
Y20192D01*
X27801D01*
Y20206D01*
X27787D01*
Y20219D01*
X27774D01*
Y20233D01*
X27760D01*
Y20247D01*
X27746D01*
Y20260D01*
X27732D01*
Y20274D01*
X27705D01*
Y20288D01*
X27691D01*
Y20302D01*
X27678D01*
Y20315D01*
X27664D01*
Y20329D01*
X27650D01*
Y20343D01*
X27637D01*
Y20356D01*
X27623D01*
Y20370D01*
X27609D01*
Y20384D01*
X27595D01*
Y20397D01*
X27582D01*
Y20411D01*
X27568D01*
Y20425D01*
X27554D01*
Y20439D01*
X27527D01*
Y20452D01*
X27513D01*
Y20466D01*
X27500D01*
Y20480D01*
X27486D01*
Y20493D01*
X27472D01*
Y20507D01*
X27458D01*
Y20521D01*
X27445D01*
Y20534D01*
X27431D01*
Y20548D01*
X27417D01*
Y20562D01*
X27390D01*
Y20576D01*
X27376D01*
Y20589D01*
X27363D01*
Y20603D01*
X27349D01*
Y20617D01*
X27335D01*
Y20630D01*
X27321D01*
Y20644D01*
X27308D01*
Y20658D01*
X27294D01*
Y20671D01*
X27280D01*
Y20685D01*
X27267D01*
Y20699D01*
X27253D01*
Y20713D01*
X27226D01*
Y20726D01*
X27212D01*
Y20740D01*
X27198D01*
Y20754D01*
X27184D01*
Y20767D01*
X27171D01*
Y20781D01*
X27157D01*
Y20795D01*
X27143D01*
Y20808D01*
X27130D01*
Y20822D01*
X27116D01*
Y20836D01*
X27089D01*
Y20850D01*
X27075D01*
Y20863D01*
X27061D01*
Y20877D01*
X27047D01*
Y20891D01*
X27034D01*
Y20904D01*
X27020D01*
Y20918D01*
X27006D01*
Y20932D01*
X26993D01*
Y20945D01*
X26979D01*
Y20959D01*
X26965D01*
Y20973D01*
X26938D01*
Y20987D01*
X26924D01*
Y21000D01*
X26910D01*
Y21014D01*
X26897D01*
Y21028D01*
X26883D01*
Y21041D01*
X26869D01*
Y21055D01*
X26856D01*
Y21069D01*
X26842D01*
Y21082D01*
X26828D01*
Y21096D01*
X26815D01*
Y21110D01*
X26801D01*
Y21124D01*
X26773D01*
Y21137D01*
X26760D01*
Y21151D01*
X26746D01*
Y21165D01*
X26732D01*
Y21178D01*
X26719D01*
Y21192D01*
X26705D01*
Y21206D01*
X26691D01*
Y21219D01*
X26677D01*
Y21233D01*
X26664D01*
Y21247D01*
X26636D01*
Y21261D01*
X26623D01*
Y21274D01*
X26609D01*
Y21288D01*
X26595D01*
Y21302D01*
X26582D01*
Y21315D01*
X26568D01*
Y21329D01*
X26554D01*
Y21343D01*
X26540D01*
Y21357D01*
X26513D01*
Y21384D01*
X26499D01*
Y21398D01*
X26472D01*
Y21384D01*
X26458D01*
Y21357D01*
X26445D01*
Y21315D01*
X26431D01*
Y21274D01*
X26417D01*
Y21233D01*
X26403D01*
Y21178D01*
X26390D01*
Y21137D01*
X26376D01*
Y21096D01*
X26362D01*
Y21055D01*
X26349D01*
Y21014D01*
X26335D01*
Y20973D01*
X26321D01*
Y20932D01*
X26308D01*
Y20877D01*
X26294D01*
Y20836D01*
X26280D01*
Y20795D01*
X26266D01*
Y20754D01*
X26253D01*
Y20713D01*
X26239D01*
Y20671D01*
X26225D01*
Y20630D01*
X26212D01*
Y20576D01*
X26198D01*
Y20534D01*
X26184D01*
Y20493D01*
X26171D01*
Y20452D01*
X26157D01*
Y20411D01*
X26143D01*
Y20370D01*
X26129D01*
Y20315D01*
X26116D01*
Y20288D01*
X26102D01*
Y20233D01*
X26088D01*
Y20192D01*
X26075D01*
Y20151D01*
X26061D01*
Y20110D01*
X26047D01*
Y20069D01*
X26034D01*
Y20014D01*
X26020D01*
Y19973D01*
X26006D01*
Y19932D01*
X25992D01*
Y19891D01*
X25979D01*
Y19849D01*
X25965D01*
Y19808D01*
X25951D01*
Y19767D01*
X25938D01*
Y19712D01*
X25924D01*
Y19685D01*
X25910D01*
Y19630D01*
X25897D01*
Y19589D01*
X25883D01*
Y19548D01*
X25869D01*
Y19507D01*
X25855D01*
Y19466D01*
X25842D01*
Y19411D01*
X25828D01*
Y19370D01*
X25814D01*
Y19329D01*
X25801D01*
Y19288D01*
X25787D01*
Y19247D01*
X25773D01*
Y19206D01*
X25760D01*
Y19164D01*
X25746D01*
Y19123D01*
X25732D01*
Y19069D01*
X25718D01*
Y19027D01*
X25705D01*
Y18986D01*
X25691D01*
Y18945D01*
X25677D01*
Y18904D01*
X25664D01*
Y18863D01*
X25650D01*
Y18822D01*
X25636D01*
Y18767D01*
X25623D01*
Y18726D01*
X25609D01*
Y18685D01*
X25595D01*
Y18644D01*
X25581D01*
Y18603D01*
X25568D01*
Y18562D01*
X25554D01*
Y18507D01*
X25540D01*
Y18466D01*
X25527D01*
Y18425D01*
X25513D01*
Y18383D01*
X25499D01*
Y18342D01*
X25486D01*
Y18301D01*
X25472D01*
Y18260D01*
X25458D01*
Y18219D01*
X25444D01*
Y18164D01*
X25431D01*
Y18137D01*
X25417D01*
Y18082D01*
X25403D01*
Y18041D01*
X25390D01*
Y18000D01*
X25376D01*
Y17959D01*
X25362D01*
Y17918D01*
X25349D01*
Y17863D01*
X25335D01*
Y17822D01*
X25321D01*
Y17781D01*
X25307D01*
Y17740D01*
X25294D01*
Y17698D01*
X25280D01*
Y17657D01*
X25266D01*
Y17616D01*
X25253D01*
Y17561D01*
X25239D01*
Y17520D01*
X25225D01*
Y17479D01*
X25212D01*
Y17438D01*
X25198D01*
Y17397D01*
X25184D01*
Y17356D01*
X25170D01*
Y17315D01*
X25157D01*
Y17260D01*
X25143D01*
Y17219D01*
X25129D01*
Y17178D01*
X25116D01*
Y17137D01*
X25102D01*
Y17096D01*
X25088D01*
Y17055D01*
X25075D01*
Y17013D01*
X25061D01*
Y16959D01*
X25047D01*
Y16918D01*
X25033D01*
Y16876D01*
X25020D01*
Y16835D01*
X25006D01*
Y16794D01*
X24992D01*
Y16753D01*
X24979D01*
Y16698D01*
X24965D01*
Y16671D01*
X24951D01*
Y16616D01*
X24938D01*
Y16575D01*
X24924D01*
Y16534D01*
X24910D01*
Y16493D01*
X24896D01*
Y16452D01*
X24883D01*
Y16397D01*
X24869D01*
Y16370D01*
X24855D01*
Y16315D01*
X24842D01*
Y16274D01*
X24828D01*
Y16233D01*
X24814D01*
Y16191D01*
X24801D01*
Y16150D01*
X24787D01*
Y16096D01*
X24773D01*
Y16068D01*
X24759D01*
Y16013D01*
X24746D01*
Y15972D01*
X24732D01*
Y15931D01*
X24718D01*
Y15890D01*
X24705D01*
Y15849D01*
X24691D01*
Y15794D01*
X24677D01*
Y15767D01*
X24664D01*
Y15712D01*
X24650D01*
Y15671D01*
X24636D01*
Y15630D01*
X24622D01*
Y15589D01*
X24609D01*
Y15547D01*
X24595D01*
Y15506D01*
X24581D01*
Y15452D01*
X24568D01*
Y15410D01*
X24554D01*
Y15369D01*
X24540D01*
Y15328D01*
X24527D01*
Y15287D01*
X24513D01*
Y15246D01*
X24499D01*
Y15205D01*
X24485D01*
Y15150D01*
X24472D01*
Y15109D01*
X24458D01*
Y15068D01*
X24444D01*
Y15027D01*
X24431D01*
Y14986D01*
X24417D01*
Y14945D01*
X24403D01*
Y14904D01*
X24390D01*
Y14849D01*
X24376D01*
Y14808D01*
X24362D01*
Y14767D01*
X24348D01*
Y14725D01*
X24335D01*
Y14684D01*
X24321D01*
Y14643D01*
X24307D01*
Y14602D01*
X24294D01*
Y14547D01*
X24280D01*
Y14506D01*
X24266D01*
Y14465D01*
X24253D01*
Y14424D01*
X24239D01*
Y14383D01*
X24225D01*
Y14342D01*
X24211D01*
Y14301D01*
X24225D01*
Y14287D01*
X24855D01*
Y13657D01*
X24842D01*
Y13643D01*
X22266D01*
Y13657D01*
X22252D01*
Y14273D01*
X22266D01*
Y14287D01*
X23869D01*
Y14301D01*
X23883D01*
Y14314D01*
X23896D01*
Y14369D01*
X23910D01*
Y14410D01*
X23924D01*
Y14451D01*
X23937D01*
Y14493D01*
X23951D01*
Y14534D01*
X23965D01*
Y14575D01*
X23979D01*
Y14616D01*
X23992D01*
Y14657D01*
X24006D01*
Y14698D01*
X24020D01*
Y14739D01*
X24033D01*
Y14794D01*
X24047D01*
Y14835D01*
X24061D01*
Y14876D01*
X24074D01*
Y14917D01*
X24088D01*
Y14958D01*
X24102D01*
Y14999D01*
X24115D01*
Y15041D01*
X24129D01*
Y15095D01*
X24143D01*
Y15123D01*
X24157D01*
Y15178D01*
X24170D01*
Y15219D01*
X24184D01*
Y15260D01*
X24198D01*
Y15301D01*
X24211D01*
Y15342D01*
X24225D01*
Y15383D01*
X24239D01*
Y15424D01*
X24253D01*
Y15465D01*
X24266D01*
Y15520D01*
X24280D01*
Y15561D01*
X24294D01*
Y15602D01*
X24307D01*
Y15643D01*
X24321D01*
Y15684D01*
X24335D01*
Y15726D01*
X24348D01*
Y15767D01*
X24362D01*
Y15808D01*
X24376D01*
Y15849D01*
X24390D01*
Y15904D01*
X24403D01*
Y15945D01*
X24417D01*
Y15986D01*
X24431D01*
Y16027D01*
X24444D01*
Y16068D01*
X24458D01*
Y16109D01*
X24472D01*
Y16150D01*
X24485D01*
Y16191D01*
X24499D01*
Y16233D01*
X24513D01*
Y16287D01*
X24527D01*
Y16328D01*
X24540D01*
Y16370D01*
X24554D01*
Y16411D01*
X24568D01*
Y16452D01*
X24581D01*
Y16493D01*
X24595D01*
Y16534D01*
X24609D01*
Y16575D01*
X24622D01*
Y16630D01*
X24636D01*
Y16671D01*
X24650D01*
Y16712D01*
X24664D01*
Y16753D01*
X24677D01*
Y16794D01*
X24691D01*
Y16835D01*
X24705D01*
Y16876D01*
X24718D01*
Y16918D01*
X24732D01*
Y16959D01*
X24746D01*
Y17013D01*
X24759D01*
Y17055D01*
X24773D01*
Y17096D01*
X24787D01*
Y17137D01*
X24801D01*
Y17178D01*
X24814D01*
Y17219D01*
X24828D01*
Y17260D01*
X24842D01*
Y17301D01*
X24855D01*
Y17342D01*
X24869D01*
Y17383D01*
X24883D01*
Y17438D01*
X24896D01*
Y17479D01*
X24910D01*
Y17520D01*
X24924D01*
Y17561D01*
X24938D01*
Y17603D01*
X24951D01*
Y17644D01*
X24965D01*
Y17685D01*
X24979D01*
Y17726D01*
X24992D01*
Y17781D01*
X25006D01*
Y17808D01*
X25020D01*
Y17863D01*
X25033D01*
Y17904D01*
X25047D01*
Y17945D01*
X25061D01*
Y17986D01*
X25075D01*
Y18027D01*
X25088D01*
Y18068D01*
X25102D01*
Y18109D01*
X25116D01*
Y18164D01*
X25129D01*
Y18205D01*
X25143D01*
Y18246D01*
X25157D01*
Y18288D01*
X25170D01*
Y18329D01*
X25184D01*
Y18370D01*
X25198D01*
Y18411D01*
X25212D01*
Y18452D01*
X25225D01*
Y18493D01*
X25239D01*
Y18534D01*
X25253D01*
Y18589D01*
X25266D01*
Y18630D01*
X25280D01*
Y18671D01*
X25294D01*
Y18712D01*
X25307D01*
Y18753D01*
X25321D01*
Y18795D01*
X25335D01*
Y18836D01*
X25349D01*
Y18890D01*
X25362D01*
Y18932D01*
X25376D01*
Y18973D01*
X25390D01*
Y19014D01*
X25403D01*
Y19055D01*
X25417D01*
Y19096D01*
X25431D01*
Y19137D01*
X25444D01*
Y19178D01*
X25458D01*
Y19219D01*
X25472D01*
Y19260D01*
X25486D01*
Y19315D01*
X25499D01*
Y19356D01*
X25513D01*
Y19397D01*
X25527D01*
Y19438D01*
X25540D01*
Y19480D01*
X25554D01*
Y19521D01*
X25568D01*
Y19562D01*
X25581D01*
Y19617D01*
X25595D01*
Y19644D01*
X25609D01*
Y19699D01*
X25623D01*
Y19740D01*
X25636D01*
Y19781D01*
X25650D01*
Y19822D01*
X25664D01*
Y19863D01*
X25677D01*
Y19904D01*
X25691D01*
Y19945D01*
X25705D01*
Y19986D01*
X25718D01*
Y20041D01*
X25732D01*
Y20082D01*
X25746D01*
Y20123D01*
X25760D01*
Y20151D01*
X25773D01*
Y20206D01*
X25787D01*
Y20247D01*
X25801D01*
Y20288D01*
X25814D01*
Y20329D01*
X25828D01*
Y20370D01*
X25842D01*
Y20425D01*
X25855D01*
Y20466D01*
X25869D01*
Y20507D01*
X25883D01*
Y20548D01*
X25897D01*
Y20589D01*
X25910D01*
Y20630D01*
X25924D01*
Y20671D01*
X25938D01*
Y20726D01*
X25951D01*
Y20754D01*
X25965D01*
Y20808D01*
X25979D01*
Y20850D01*
X25992D01*
Y20891D01*
X26006D01*
Y20932D01*
X26020D01*
Y20973D01*
X26034D01*
Y21014D01*
X26047D01*
Y21055D01*
X26061D01*
Y21096D01*
X26075D01*
Y21151D01*
X26088D01*
Y21192D01*
X26102D01*
Y21233D01*
X26116D01*
Y21274D01*
X26129D01*
Y21315D01*
X26143D01*
Y21357D01*
X26157D01*
Y21398D01*
X26171D01*
Y21439D01*
X26184D01*
Y21480D01*
X26198D01*
Y21535D01*
X26212D01*
Y21576D01*
X26225D01*
Y21617D01*
X26239D01*
Y21658D01*
X26253D01*
Y21699D01*
X26266D01*
Y21740D01*
X26280D01*
Y21781D01*
X26294D01*
Y21822D01*
X26308D01*
Y21877D01*
X26321D01*
Y21918D01*
X26335D01*
Y21959D01*
X26349D01*
Y22000D01*
X26362D01*
Y22042D01*
X26376D01*
Y22083D01*
X26390D01*
Y22124D01*
X26403D01*
Y22165D01*
X26417D01*
Y22206D01*
X26431D01*
Y22261D01*
X26445D01*
Y22288D01*
X26458D01*
Y22343D01*
X26472D01*
Y22384D01*
X26486D01*
Y22425D01*
X26499D01*
Y22466D01*
X26513D01*
Y22507D01*
X26527D01*
Y22548D01*
X26540D01*
Y22590D01*
X26554D01*
Y22644D01*
X26568D01*
Y22685D01*
X26582D01*
Y22727D01*
X26595D01*
Y22768D01*
X26609D01*
Y22809D01*
X26623D01*
Y22850D01*
X26636D01*
Y22891D01*
X26650D01*
Y22932D01*
X26664D01*
Y22987D01*
X26677D01*
Y23014D01*
X26691D01*
Y23069D01*
X26705D01*
Y23110D01*
X26719D01*
Y23151D01*
X26732D01*
Y23192D01*
X26746D01*
Y23233D01*
X26760D01*
Y23275D01*
X26773D01*
Y23316D01*
X26787D01*
Y23329D01*
X26801D01*
Y23343D01*
X26815D01*
Y23329D01*
X26828D01*
Y23316D01*
X26842D01*
Y23302D01*
X26856D01*
Y23288D01*
X26869D01*
Y23275D01*
X26883D01*
Y23261D01*
X26897D01*
Y23247D01*
X26910D01*
Y23233D01*
X26924D01*
Y23220D01*
X26938D01*
Y23206D01*
X26952D01*
Y23192D01*
X26965D01*
Y23179D01*
X26979D01*
Y23165D01*
X26993D01*
Y23151D01*
X27006D01*
Y23138D01*
X27020D01*
Y23124D01*
X27034D01*
Y23110D01*
X27047D01*
Y23096D01*
X27061D01*
Y23083D01*
X27075D01*
Y23069D01*
X27089D01*
Y23055D01*
X27102D01*
Y23042D01*
X27116D01*
Y23028D01*
X27130D01*
Y23014D01*
X27143D01*
Y23001D01*
X27157D01*
Y22987D01*
X27171D01*
Y22973D01*
X27184D01*
Y22959D01*
X27198D01*
Y22946D01*
X27212D01*
Y22932D01*
X27226D01*
Y22918D01*
X27239D01*
Y22905D01*
X27253D01*
Y22891D01*
X27267D01*
Y22877D01*
X27280D01*
Y22864D01*
X27294D01*
Y22850D01*
X27308D01*
Y22836D01*
X27321D01*
Y22822D01*
X27335D01*
Y22809D01*
X27349D01*
Y22795D01*
X27363D01*
Y22781D01*
X27376D01*
Y22768D01*
X27390D01*
Y22754D01*
X27404D01*
Y22740D01*
X27417D01*
Y22727D01*
X27431D01*
Y22713D01*
X27445D01*
Y22699D01*
X27458D01*
Y22685D01*
X27472D01*
Y22672D01*
X27486D01*
Y22658D01*
X27500D01*
Y22644D01*
X27513D01*
Y22631D01*
X27527D01*
Y22617D01*
X27541D01*
Y22603D01*
X27554D01*
Y22590D01*
X27568D01*
Y22576D01*
X27582D01*
Y22562D01*
X27595D01*
Y22548D01*
X27609D01*
Y22535D01*
X27623D01*
Y22521D01*
X27637D01*
Y22507D01*
X27650D01*
Y22494D01*
X27664D01*
Y22480D01*
X27678D01*
Y22466D01*
X27691D01*
Y22453D01*
X27705D01*
Y22439D01*
X27719D01*
Y22425D01*
X27732D01*
Y22411D01*
X27746D01*
Y22398D01*
X27760D01*
Y22384D01*
X27774D01*
Y22370D01*
X27787D01*
Y22357D01*
X27801D01*
Y22343D01*
X27815D01*
Y22329D01*
X27828D01*
Y22316D01*
X27842D01*
Y22302D01*
X27856D01*
Y22288D01*
X27869D01*
Y22274D01*
X27883D01*
Y22261D01*
X27897D01*
Y22247D01*
X27911D01*
Y22233D01*
X27924D01*
Y22220D01*
X27938D01*
Y22206D01*
X27952D01*
Y22192D01*
X27965D01*
Y22179D01*
X27979D01*
Y22165D01*
X27993D01*
Y22151D01*
X28006D01*
Y22137D01*
X28020D01*
Y22124D01*
X28034D01*
Y22110D01*
X28048D01*
Y22096D01*
X28061D01*
Y22083D01*
X28075D01*
Y22069D01*
X28089D01*
Y22055D01*
X28102D01*
Y22042D01*
X28116D01*
Y22028D01*
X28130D01*
Y22014D01*
X28143D01*
Y22000D01*
X28157D01*
Y21987D01*
X28171D01*
Y21973D01*
X28185D01*
Y21959D01*
X28198D01*
Y21946D01*
X28212D01*
Y21932D01*
X28226D01*
Y21918D01*
X28239D01*
Y21905D01*
X28253D01*
Y21891D01*
X28267D01*
Y21877D01*
X28280D01*
Y21863D01*
X28294D01*
Y21850D01*
X28308D01*
Y21836D01*
X28322D01*
Y21822D01*
X28335D01*
Y21809D01*
X28349D01*
Y21795D01*
X28363D01*
Y21781D01*
X28376D01*
Y21768D01*
X28390D01*
Y21754D01*
X28404D01*
Y21740D01*
X28417D01*
Y21726D01*
X28431D01*
Y21713D01*
X28445D01*
Y21699D01*
X28459D01*
Y21685D01*
X28472D01*
Y21672D01*
X28486D01*
Y21658D01*
X28500D01*
Y21644D01*
X28513D01*
Y21631D01*
X28527D01*
Y21617D01*
X28541D01*
Y21603D01*
X28554D01*
Y21589D01*
X28568D01*
Y21576D01*
X28582D01*
Y21562D01*
X28596D01*
Y21548D01*
X28609D01*
Y21535D01*
X28623D01*
Y21521D01*
X28637D01*
Y21507D01*
X28650D01*
Y21493D01*
X28664D01*
Y21480D01*
X28678D01*
Y21466D01*
X28691D01*
Y21452D01*
X28705D01*
Y21439D01*
X28719D01*
Y21425D01*
X28733D01*
Y21411D01*
X28746D01*
Y21398D01*
X28760D01*
Y21384D01*
X28774D01*
Y21357D01*
X28801D01*
Y21343D01*
X28815D01*
Y21329D01*
X28828D01*
Y21315D01*
X28842D01*
Y21302D01*
X28856D01*
Y21288D01*
X28870D01*
Y21274D01*
X28883D01*
Y21261D01*
X28897D01*
Y21247D01*
X28911D01*
Y21233D01*
X28924D01*
Y21219D01*
X28938D01*
Y21206D01*
X28952D01*
Y21192D01*
X28965D01*
Y21178D01*
X28979D01*
Y21165D01*
X28993D01*
Y21151D01*
X29007D01*
Y21137D01*
X29020D01*
Y21124D01*
X29034D01*
Y21110D01*
X29048D01*
Y21096D01*
X29061D01*
Y21082D01*
X29075D01*
Y21069D01*
X29089D01*
Y21055D01*
X29102D01*
Y21041D01*
X29116D01*
Y21028D01*
X29130D01*
Y21014D01*
X29144D01*
Y21000D01*
X29157D01*
Y20987D01*
X29171D01*
Y20973D01*
X29185D01*
Y20959D01*
X29198D01*
Y20945D01*
X29212D01*
Y20932D01*
X29226D01*
Y20918D01*
X29239D01*
Y20904D01*
X29253D01*
Y20891D01*
X29267D01*
Y20877D01*
X29281D01*
Y20863D01*
X29294D01*
Y20850D01*
X29308D01*
Y20836D01*
X29322D01*
Y20822D01*
X29335D01*
Y20808D01*
X29349D01*
Y20795D01*
X29363D01*
Y20781D01*
X29376D01*
Y20767D01*
X29390D01*
Y20754D01*
X29404D01*
Y20740D01*
X29418D01*
Y20726D01*
X29431D01*
Y20713D01*
X29445D01*
Y20699D01*
X29459D01*
Y20685D01*
X29472D01*
Y20671D01*
X29486D01*
Y20658D01*
X29500D01*
Y20644D01*
X29514D01*
Y20630D01*
X29527D01*
Y20617D01*
X29541D01*
Y20603D01*
X29555D01*
Y20589D01*
X29568D01*
Y20576D01*
X29582D01*
Y20562D01*
X29596D01*
Y20548D01*
X29609D01*
Y20534D01*
X29623D01*
Y20521D01*
X29637D01*
Y20507D01*
X29650D01*
Y20493D01*
X29664D01*
Y20480D01*
X29678D01*
Y20466D01*
X29692D01*
Y20452D01*
X29705D01*
Y20439D01*
X29719D01*
Y20425D01*
X29733D01*
Y20411D01*
X29746D01*
Y20397D01*
X29760D01*
Y20384D01*
X29774D01*
Y20370D01*
X29788D01*
Y20356D01*
X29801D01*
Y20343D01*
X29815D01*
Y20329D01*
X29829D01*
Y20315D01*
X29842D01*
Y20302D01*
X29856D01*
Y20288D01*
X29870D01*
Y20274D01*
X29883D01*
Y20260D01*
X29897D01*
Y20247D01*
X29911D01*
Y20233D01*
X29925D01*
Y20219D01*
X29938D01*
Y20206D01*
X29952D01*
Y20192D01*
X29966D01*
Y20178D01*
X29979D01*
Y20151D01*
X30034D01*
Y23987D01*
X30020D01*
Y24001D01*
X28417D01*
Y24028D01*
X28404D01*
Y24631D01*
X28417D01*
Y24645D01*
X30637D01*
Y24658D01*
X30651D01*
Y24645D01*
D02*
G37*
G36*
X31363D02*
X33596D01*
Y24014D01*
X33583D01*
Y24001D01*
X31980D01*
Y23973D01*
X31966D01*
Y23946D01*
X31980D01*
Y23370D01*
X31966D01*
Y23288D01*
X31980D01*
Y21439D01*
X31966D01*
Y21357D01*
X31980D01*
Y20192D01*
X31966D01*
Y20151D01*
X31980D01*
Y20137D01*
X31993D01*
Y20151D01*
X32021D01*
Y20178D01*
X32034D01*
Y20192D01*
X32048D01*
Y20206D01*
X32062D01*
Y20219D01*
X32075D01*
Y20233D01*
X32089D01*
Y20247D01*
X32103D01*
Y20260D01*
X32117D01*
Y20274D01*
X32130D01*
Y20288D01*
X32144D01*
Y20302D01*
X32158D01*
Y20315D01*
X32171D01*
Y20329D01*
X32185D01*
Y20343D01*
X32199D01*
Y20356D01*
X32212D01*
Y20370D01*
X32226D01*
Y20384D01*
X32240D01*
Y20397D01*
X32254D01*
Y20411D01*
X32267D01*
Y20425D01*
X32281D01*
Y20439D01*
X32295D01*
Y20452D01*
X32308D01*
Y20466D01*
X32322D01*
Y20480D01*
X32336D01*
Y20493D01*
X32349D01*
Y20507D01*
X32363D01*
Y20521D01*
X32377D01*
Y20534D01*
X32391D01*
Y20548D01*
X32404D01*
Y20562D01*
X32418D01*
Y20576D01*
X32432D01*
Y20589D01*
X32445D01*
Y20603D01*
X32459D01*
Y20617D01*
X32473D01*
Y20630D01*
X32486D01*
Y20644D01*
X32500D01*
Y20658D01*
X32514D01*
Y20671D01*
X32528D01*
Y20685D01*
X32541D01*
Y20699D01*
X32555D01*
Y20713D01*
X32569D01*
Y20726D01*
X32582D01*
Y20740D01*
X32596D01*
Y20754D01*
X32610D01*
Y20767D01*
X32624D01*
Y20781D01*
X32637D01*
Y20795D01*
X32651D01*
Y20808D01*
X32665D01*
Y20822D01*
X32678D01*
Y20836D01*
X32692D01*
Y20850D01*
X32706D01*
Y20863D01*
X32719D01*
Y20877D01*
X32733D01*
Y20891D01*
X32747D01*
Y20904D01*
X32761D01*
Y20918D01*
X32774D01*
Y20932D01*
X32788D01*
Y20945D01*
X32802D01*
Y20959D01*
X32815D01*
Y20973D01*
X32829D01*
Y20987D01*
X32843D01*
Y21000D01*
X32856D01*
Y21014D01*
X32870D01*
Y21028D01*
X32884D01*
Y21041D01*
X32898D01*
Y21055D01*
X32911D01*
Y21069D01*
X32925D01*
Y21082D01*
X32939D01*
Y21096D01*
X32952D01*
Y21110D01*
X32966D01*
Y21124D01*
X32980D01*
Y21137D01*
X32993D01*
Y21151D01*
X33007D01*
Y21165D01*
X33021D01*
Y21178D01*
X33035D01*
Y21192D01*
X33048D01*
Y21206D01*
X33062D01*
Y21219D01*
X33076D01*
Y21233D01*
X33089D01*
Y21247D01*
X33103D01*
Y21261D01*
X33117D01*
Y21274D01*
X33130D01*
Y21288D01*
X33144D01*
Y21302D01*
X33158D01*
Y21315D01*
X33172D01*
Y21329D01*
X33185D01*
Y21343D01*
X33199D01*
Y21357D01*
X33226D01*
Y21384D01*
X33240D01*
Y21398D01*
X33254D01*
Y21411D01*
X33267D01*
Y21425D01*
X33281D01*
Y21439D01*
X33295D01*
Y21452D01*
X33309D01*
Y21466D01*
X33322D01*
Y21480D01*
X33336D01*
Y21493D01*
X33350D01*
Y21507D01*
X33363D01*
Y21521D01*
X33377D01*
Y21535D01*
X33391D01*
Y21548D01*
X33404D01*
Y21562D01*
X33418D01*
Y21576D01*
X33432D01*
Y21589D01*
X33446D01*
Y21603D01*
X33459D01*
Y21617D01*
X33473D01*
Y21631D01*
X33487D01*
Y21644D01*
X33500D01*
Y21658D01*
X33514D01*
Y21672D01*
X33528D01*
Y21685D01*
X33541D01*
Y21699D01*
X33555D01*
Y21713D01*
X33569D01*
Y21726D01*
X33583D01*
Y21740D01*
X33596D01*
Y21754D01*
X33610D01*
Y21768D01*
X33624D01*
Y21781D01*
X33637D01*
Y21795D01*
X33651D01*
Y21809D01*
X33665D01*
Y21822D01*
X33678D01*
Y21836D01*
X33692D01*
Y21850D01*
X33706D01*
Y21863D01*
X33720D01*
Y21877D01*
X33733D01*
Y21891D01*
X33747D01*
Y21905D01*
X33761D01*
Y21918D01*
X33774D01*
Y21932D01*
X33788D01*
Y21946D01*
X33802D01*
Y21959D01*
X33815D01*
Y21973D01*
X33829D01*
Y21987D01*
X33843D01*
Y22000D01*
X33857D01*
Y22014D01*
X33870D01*
Y22028D01*
X33884D01*
Y22042D01*
X33898D01*
Y22055D01*
X33911D01*
Y22069D01*
X33925D01*
Y22083D01*
X33939D01*
Y22096D01*
X33952D01*
Y22110D01*
X33966D01*
Y22124D01*
X33980D01*
Y22137D01*
X33994D01*
Y22151D01*
X34007D01*
Y22165D01*
X34021D01*
Y22179D01*
X34035D01*
Y22192D01*
X34048D01*
Y22206D01*
X34062D01*
Y22220D01*
X34076D01*
Y22233D01*
X34089D01*
Y22247D01*
X34103D01*
Y22261D01*
X34117D01*
Y22274D01*
X34131D01*
Y22288D01*
X34144D01*
Y22302D01*
X34158D01*
Y22316D01*
X34172D01*
Y22329D01*
X34185D01*
Y22343D01*
X34199D01*
Y22357D01*
X34213D01*
Y22370D01*
X34226D01*
Y22384D01*
X34240D01*
Y22398D01*
X34254D01*
Y22411D01*
X34268D01*
Y22425D01*
X34281D01*
Y22439D01*
X34295D01*
Y22453D01*
X34309D01*
Y22466D01*
X34322D01*
Y22480D01*
X34336D01*
Y22494D01*
X34350D01*
Y22507D01*
X34363D01*
Y22521D01*
X34377D01*
Y22535D01*
X34391D01*
Y22548D01*
X34405D01*
Y22562D01*
X34418D01*
Y22576D01*
X34432D01*
Y22590D01*
X34446D01*
Y22603D01*
X34459D01*
Y22617D01*
X34473D01*
Y22631D01*
X34487D01*
Y22644D01*
X34500D01*
Y22658D01*
X34514D01*
Y22672D01*
X34528D01*
Y22685D01*
X34542D01*
Y22699D01*
X34555D01*
Y22713D01*
X34569D01*
Y22727D01*
X34583D01*
Y22740D01*
X34596D01*
Y22754D01*
X34610D01*
Y22768D01*
X34624D01*
Y22781D01*
X34637D01*
Y22795D01*
X34651D01*
Y22809D01*
X34665D01*
Y22822D01*
X34679D01*
Y22836D01*
X34692D01*
Y22850D01*
X34706D01*
Y22864D01*
X34720D01*
Y22877D01*
X34733D01*
Y22891D01*
X34747D01*
Y22905D01*
X34761D01*
Y22918D01*
X34774D01*
Y22932D01*
X34788D01*
Y22946D01*
X34802D01*
Y22959D01*
X34816D01*
Y22973D01*
X34829D01*
Y22987D01*
X34843D01*
Y23001D01*
X34857D01*
Y23014D01*
X34870D01*
Y23028D01*
X34884D01*
Y23042D01*
X34898D01*
Y23055D01*
X34911D01*
Y23069D01*
X34925D01*
Y23083D01*
X34939D01*
Y23096D01*
X34953D01*
Y23110D01*
X34966D01*
Y23124D01*
X34980D01*
Y23138D01*
X34994D01*
Y23151D01*
X35007D01*
Y23165D01*
X35021D01*
Y23179D01*
X35035D01*
Y23192D01*
X35048D01*
Y23206D01*
X35062D01*
Y23220D01*
X35076D01*
Y23233D01*
X35090D01*
Y23247D01*
X35103D01*
Y23261D01*
X35117D01*
Y23275D01*
X35131D01*
Y23288D01*
X35144D01*
Y23302D01*
X35158D01*
Y23316D01*
X35172D01*
Y23329D01*
X35186D01*
Y23343D01*
X35199D01*
Y23329D01*
X35213D01*
Y23316D01*
X35227D01*
Y23275D01*
X35240D01*
Y23233D01*
X35254D01*
Y23192D01*
X35268D01*
Y23151D01*
X35281D01*
Y23110D01*
X35295D01*
Y23069D01*
X35309D01*
Y23014D01*
X35322D01*
Y22987D01*
X35336D01*
Y22932D01*
X35350D01*
Y22891D01*
X35364D01*
Y22850D01*
X35377D01*
Y22809D01*
X35391D01*
Y22768D01*
X35405D01*
Y22727D01*
X35418D01*
Y22685D01*
X35432D01*
Y22644D01*
X35446D01*
Y22590D01*
X35460D01*
Y22548D01*
X35473D01*
Y22507D01*
X35487D01*
Y22466D01*
X35501D01*
Y22425D01*
X35514D01*
Y22384D01*
X35528D01*
Y22343D01*
X35542D01*
Y22302D01*
X35555D01*
Y22261D01*
X35569D01*
Y22206D01*
X35583D01*
Y22165D01*
X35597D01*
Y22124D01*
X35610D01*
Y22083D01*
X35624D01*
Y22042D01*
X35638D01*
Y22000D01*
X35651D01*
Y21959D01*
X35665D01*
Y21918D01*
X35679D01*
Y21877D01*
X35692D01*
Y21822D01*
X35706D01*
Y21781D01*
X35720D01*
Y21740D01*
X35734D01*
Y21699D01*
X35747D01*
Y21658D01*
X35761D01*
Y21617D01*
X35775D01*
Y21576D01*
X35788D01*
Y21535D01*
X35802D01*
Y21480D01*
X35816D01*
Y21452D01*
X35829D01*
Y21398D01*
X35843D01*
Y21357D01*
X35857D01*
Y21315D01*
X35871D01*
Y21274D01*
X35884D01*
Y21233D01*
X35898D01*
Y21192D01*
X35912D01*
Y21151D01*
X35925D01*
Y21096D01*
X35939D01*
Y21055D01*
X35953D01*
Y21014D01*
X35966D01*
Y20973D01*
X35980D01*
Y20932D01*
X35994D01*
Y20891D01*
X36008D01*
Y20850D01*
X36021D01*
Y20808D01*
X36035D01*
Y20767D01*
X36049D01*
Y20726D01*
X36062D01*
Y20671D01*
X36076D01*
Y20630D01*
X36090D01*
Y20589D01*
X36103D01*
Y20548D01*
X36117D01*
Y20507D01*
X36131D01*
Y20466D01*
X36145D01*
Y20425D01*
X36158D01*
Y20384D01*
X36172D01*
Y20343D01*
X36186D01*
Y20288D01*
X36199D01*
Y20247D01*
X36213D01*
Y20206D01*
X36227D01*
Y20151D01*
X36240D01*
Y20123D01*
X36254D01*
Y20082D01*
X36268D01*
Y20041D01*
X36282D01*
Y20000D01*
X36295D01*
Y19945D01*
X36309D01*
Y19918D01*
X36323D01*
Y19863D01*
X36336D01*
Y19822D01*
X36350D01*
Y19781D01*
X36364D01*
Y19740D01*
X36377D01*
Y19699D01*
X36391D01*
Y19658D01*
X36405D01*
Y19617D01*
X36419D01*
Y19575D01*
X36432D01*
Y19521D01*
X36446D01*
Y19480D01*
X36460D01*
Y19438D01*
X36473D01*
Y19397D01*
X36487D01*
Y19356D01*
X36501D01*
Y19315D01*
X36514D01*
Y19274D01*
X36528D01*
Y19233D01*
X36542D01*
Y19192D01*
X36556D01*
Y19137D01*
X36569D01*
Y19096D01*
X36583D01*
Y19055D01*
X36597D01*
Y19014D01*
X36610D01*
Y18973D01*
X36624D01*
Y18932D01*
X36638D01*
Y18890D01*
X36651D01*
Y18849D01*
X36665D01*
Y18808D01*
X36679D01*
Y18767D01*
X36693D01*
Y18712D01*
X36706D01*
Y18671D01*
X36720D01*
Y18630D01*
X36734D01*
Y18589D01*
X36747D01*
Y18548D01*
X36761D01*
Y18507D01*
X36775D01*
Y18466D01*
X36788D01*
Y18411D01*
X36802D01*
Y18383D01*
X36816D01*
Y18329D01*
X36830D01*
Y18288D01*
X36843D01*
Y18246D01*
X36857D01*
Y18205D01*
X36871D01*
Y18164D01*
X36884D01*
Y18123D01*
X36898D01*
Y18082D01*
X36912D01*
Y18041D01*
X36925D01*
Y17986D01*
X36939D01*
Y17945D01*
X36953D01*
Y17904D01*
X36967D01*
Y17863D01*
X36980D01*
Y17822D01*
X36994D01*
Y17781D01*
X37008D01*
Y17740D01*
X37021D01*
Y17685D01*
X37035D01*
Y17657D01*
X37049D01*
Y17603D01*
X37062D01*
Y17561D01*
X37076D01*
Y17520D01*
X37090D01*
Y17479D01*
X37104D01*
Y17438D01*
X37117D01*
Y17397D01*
X37131D01*
Y17356D01*
X37145D01*
Y17315D01*
X37158D01*
Y17274D01*
X37172D01*
Y17219D01*
X37186D01*
Y17178D01*
X37199D01*
Y17137D01*
X37213D01*
Y17096D01*
X37227D01*
Y17055D01*
X37241D01*
Y17013D01*
X37254D01*
Y16972D01*
X37268D01*
Y16931D01*
X37282D01*
Y16876D01*
X37295D01*
Y16849D01*
X37309D01*
Y16794D01*
X37323D01*
Y16753D01*
X37336D01*
Y16712D01*
X37350D01*
Y16671D01*
X37364D01*
Y16630D01*
X37378D01*
Y16589D01*
X37391D01*
Y16548D01*
X37405D01*
Y16493D01*
X37419D01*
Y16452D01*
X37432D01*
Y16411D01*
X37446D01*
Y16370D01*
X37460D01*
Y16328D01*
X37473D01*
Y16287D01*
X37487D01*
Y16246D01*
X37501D01*
Y16205D01*
X37515D01*
Y16164D01*
X37528D01*
Y16123D01*
X37542D01*
Y16068D01*
X37556D01*
Y16027D01*
X37569D01*
Y15986D01*
X37583D01*
Y15945D01*
X37597D01*
Y15904D01*
X37610D01*
Y15863D01*
X37624D01*
Y15821D01*
X37638D01*
Y15767D01*
X37652D01*
Y15739D01*
X37665D01*
Y15684D01*
X37679D01*
Y15643D01*
X37693D01*
Y15602D01*
X37706D01*
Y15561D01*
X37720D01*
Y15520D01*
X37734D01*
Y15479D01*
X37747D01*
Y15438D01*
X37761D01*
Y15397D01*
X37775D01*
Y15342D01*
X37789D01*
Y15301D01*
X37802D01*
Y15260D01*
X37816D01*
Y15219D01*
X37830D01*
Y15178D01*
X37843D01*
Y15136D01*
X37857D01*
Y15095D01*
X37871D01*
Y15054D01*
X37884D01*
Y15013D01*
X37898D01*
Y14972D01*
X37912D01*
Y14917D01*
X37926D01*
Y14876D01*
X37939D01*
Y14835D01*
X37953D01*
Y14794D01*
X37967D01*
Y14753D01*
X37980D01*
Y14712D01*
X37994D01*
Y14671D01*
X38008D01*
Y14616D01*
X38021D01*
Y14588D01*
X38035D01*
Y14534D01*
X38049D01*
Y14493D01*
X38063D01*
Y14451D01*
X38076D01*
Y14410D01*
X38090D01*
Y14369D01*
X38104D01*
Y14314D01*
X38117D01*
Y14301D01*
X38131D01*
Y14287D01*
X39748D01*
Y13657D01*
X39734D01*
Y13643D01*
X37158D01*
Y13671D01*
X37145D01*
Y14273D01*
X37158D01*
Y14287D01*
X37775D01*
Y14301D01*
X37789D01*
Y14342D01*
X37775D01*
Y14397D01*
X37761D01*
Y14424D01*
X37747D01*
Y14479D01*
X37734D01*
Y14520D01*
X37720D01*
Y14561D01*
X37706D01*
Y14602D01*
X37693D01*
Y14643D01*
X37679D01*
Y14684D01*
X37665D01*
Y14739D01*
X37652D01*
Y14780D01*
X37638D01*
Y14821D01*
X37624D01*
Y14862D01*
X37610D01*
Y14904D01*
X37597D01*
Y14945D01*
X37583D01*
Y14986D01*
X37569D01*
Y15041D01*
X37556D01*
Y15082D01*
X37542D01*
Y15123D01*
X37528D01*
Y15164D01*
X37515D01*
Y15205D01*
X37501D01*
Y15246D01*
X37487D01*
Y15287D01*
X37473D01*
Y15342D01*
X37460D01*
Y15383D01*
X37446D01*
Y15424D01*
X37432D01*
Y15465D01*
X37419D01*
Y15506D01*
X37405D01*
Y15547D01*
X37391D01*
Y15589D01*
X37378D01*
Y15643D01*
X37364D01*
Y15671D01*
X37350D01*
Y15726D01*
X37336D01*
Y15767D01*
X37323D01*
Y15808D01*
X37309D01*
Y15849D01*
X37295D01*
Y15890D01*
X37282D01*
Y15945D01*
X37268D01*
Y15972D01*
X37254D01*
Y16027D01*
X37241D01*
Y16068D01*
X37227D01*
Y16109D01*
X37213D01*
Y16150D01*
X37199D01*
Y16191D01*
X37186D01*
Y16233D01*
X37172D01*
Y16287D01*
X37158D01*
Y16328D01*
X37145D01*
Y16370D01*
X37131D01*
Y16411D01*
X37117D01*
Y16452D01*
X37104D01*
Y16493D01*
X37090D01*
Y16534D01*
X37076D01*
Y16589D01*
X37062D01*
Y16630D01*
X37049D01*
Y16671D01*
X37035D01*
Y16712D01*
X37021D01*
Y16753D01*
X37008D01*
Y16794D01*
X36994D01*
Y16849D01*
X36980D01*
Y16890D01*
X36967D01*
Y16931D01*
X36953D01*
Y16972D01*
X36939D01*
Y17013D01*
X36925D01*
Y17055D01*
X36912D01*
Y17096D01*
X36898D01*
Y17137D01*
X36884D01*
Y17192D01*
X36871D01*
Y17233D01*
X36857D01*
Y17274D01*
X36843D01*
Y17315D01*
X36830D01*
Y17356D01*
X36816D01*
Y17411D01*
X36802D01*
Y17438D01*
X36788D01*
Y17493D01*
X36775D01*
Y17534D01*
X36761D01*
Y17575D01*
X36747D01*
Y17616D01*
X36734D01*
Y17657D01*
X36720D01*
Y17698D01*
X36706D01*
Y17740D01*
X36693D01*
Y17794D01*
X36679D01*
Y17835D01*
X36665D01*
Y17877D01*
X36651D01*
Y17918D01*
X36638D01*
Y17959D01*
X36624D01*
Y18000D01*
X36610D01*
Y18041D01*
X36597D01*
Y18096D01*
X36583D01*
Y18137D01*
X36569D01*
Y18164D01*
X36556D01*
Y18219D01*
X36542D01*
Y18260D01*
X36528D01*
Y18301D01*
X36514D01*
Y18342D01*
X36501D01*
Y18397D01*
X36487D01*
Y18438D01*
X36473D01*
Y18479D01*
X36460D01*
Y18521D01*
X36446D01*
Y18562D01*
X36432D01*
Y18603D01*
X36419D01*
Y18657D01*
X36405D01*
Y18699D01*
X36391D01*
Y18740D01*
X36377D01*
Y18781D01*
X36364D01*
Y18822D01*
X36350D01*
Y18863D01*
X36336D01*
Y18904D01*
X36323D01*
Y18959D01*
X36309D01*
Y19000D01*
X36295D01*
Y19041D01*
X36282D01*
Y19082D01*
X36268D01*
Y19123D01*
X36254D01*
Y19164D01*
X36240D01*
Y19206D01*
X36227D01*
Y19260D01*
X36213D01*
Y19288D01*
X36199D01*
Y19343D01*
X36186D01*
Y19384D01*
X36172D01*
Y19425D01*
X36158D01*
Y19466D01*
X36145D01*
Y19507D01*
X36131D01*
Y19562D01*
X36117D01*
Y19589D01*
X36103D01*
Y19644D01*
X36090D01*
Y19685D01*
X36076D01*
Y19726D01*
X36062D01*
Y19767D01*
X36049D01*
Y19808D01*
X36035D01*
Y19849D01*
X36021D01*
Y19904D01*
X36008D01*
Y19945D01*
X35994D01*
Y19986D01*
X35980D01*
Y20028D01*
X35966D01*
Y20069D01*
X35953D01*
Y20110D01*
X35939D01*
Y20151D01*
X35925D01*
Y20206D01*
X35912D01*
Y20247D01*
X35898D01*
Y20288D01*
X35884D01*
Y20329D01*
X35871D01*
Y20370D01*
X35857D01*
Y20411D01*
X35843D01*
Y20466D01*
X35829D01*
Y20507D01*
X35816D01*
Y20548D01*
X35802D01*
Y20589D01*
X35788D01*
Y20630D01*
X35775D01*
Y20671D01*
X35761D01*
Y20713D01*
X35747D01*
Y20754D01*
X35734D01*
Y20808D01*
X35720D01*
Y20850D01*
X35706D01*
Y20891D01*
X35692D01*
Y20932D01*
X35679D01*
Y20973D01*
X35665D01*
Y21014D01*
X35651D01*
Y21055D01*
X35638D01*
Y21110D01*
X35624D01*
Y21151D01*
X35610D01*
Y21192D01*
X35597D01*
Y21233D01*
X35583D01*
Y21274D01*
X35569D01*
Y21315D01*
X35555D01*
Y21357D01*
X35542D01*
Y21398D01*
X35501D01*
Y21370D01*
X35487D01*
Y21357D01*
X35460D01*
Y21343D01*
X35446D01*
Y21329D01*
X35432D01*
Y21315D01*
X35418D01*
Y21302D01*
X35405D01*
Y21288D01*
X35391D01*
Y21274D01*
X35377D01*
Y21261D01*
X35364D01*
Y21247D01*
X35350D01*
Y21233D01*
X35336D01*
Y21219D01*
X35309D01*
Y21206D01*
X35295D01*
Y21192D01*
X35281D01*
Y21178D01*
X35268D01*
Y21165D01*
X35254D01*
Y21151D01*
X35240D01*
Y21137D01*
X35227D01*
Y21124D01*
X35213D01*
Y21110D01*
X35199D01*
Y21096D01*
X35172D01*
Y21082D01*
X35158D01*
Y21069D01*
X35144D01*
Y21055D01*
X35131D01*
Y21041D01*
X35117D01*
Y21028D01*
X35103D01*
Y21014D01*
X35090D01*
Y21000D01*
X35076D01*
Y20987D01*
X35062D01*
Y20973D01*
X35048D01*
Y20959D01*
X35035D01*
Y20945D01*
X35007D01*
Y20932D01*
X34994D01*
Y20918D01*
X34980D01*
Y20904D01*
X34966D01*
Y20891D01*
X34953D01*
Y20877D01*
X34939D01*
Y20863D01*
X34925D01*
Y20850D01*
X34911D01*
Y20836D01*
X34898D01*
Y20822D01*
X34884D01*
Y20808D01*
X34857D01*
Y20795D01*
X34843D01*
Y20781D01*
X34829D01*
Y20767D01*
X34816D01*
Y20754D01*
X34802D01*
Y20740D01*
X34788D01*
Y20726D01*
X34774D01*
Y20713D01*
X34761D01*
Y20699D01*
X34747D01*
Y20685D01*
X34720D01*
Y20671D01*
X34706D01*
Y20658D01*
X34692D01*
Y20644D01*
X34679D01*
Y20630D01*
X34665D01*
Y20617D01*
X34651D01*
Y20603D01*
X34637D01*
Y20589D01*
X34624D01*
Y20576D01*
X34610D01*
Y20562D01*
X34596D01*
Y20548D01*
X34583D01*
Y20534D01*
X34555D01*
Y20521D01*
X34542D01*
Y20507D01*
X34528D01*
Y20493D01*
X34514D01*
Y20480D01*
X34500D01*
Y20466D01*
X34487D01*
Y20452D01*
X34473D01*
Y20439D01*
X34459D01*
Y20425D01*
X34446D01*
Y20411D01*
X34418D01*
Y20397D01*
X34405D01*
Y20384D01*
X34391D01*
Y20370D01*
X34377D01*
Y20356D01*
X34363D01*
Y20343D01*
X34350D01*
Y20329D01*
X34336D01*
Y20315D01*
X34322D01*
Y20302D01*
X34309D01*
Y20288D01*
X34295D01*
Y20274D01*
X34281D01*
Y20260D01*
X34254D01*
Y20247D01*
X34240D01*
Y20233D01*
X34226D01*
Y20219D01*
X34213D01*
Y20206D01*
X34199D01*
Y20192D01*
X34185D01*
Y20178D01*
X34172D01*
Y20165D01*
X34158D01*
Y20151D01*
X34144D01*
Y20137D01*
X34117D01*
Y20110D01*
X34089D01*
Y20096D01*
X34076D01*
Y20082D01*
X34062D01*
Y20069D01*
X34048D01*
Y20055D01*
X34035D01*
Y20041D01*
X34021D01*
Y20028D01*
X34007D01*
Y20014D01*
X33994D01*
Y20000D01*
X33966D01*
Y19986D01*
X33952D01*
Y19973D01*
X33939D01*
Y19959D01*
X33925D01*
Y19945D01*
X33911D01*
Y19932D01*
X33898D01*
Y19918D01*
X33884D01*
Y19904D01*
X33870D01*
Y19891D01*
X33857D01*
Y19877D01*
X33843D01*
Y19863D01*
X33829D01*
Y19849D01*
X33802D01*
Y19836D01*
X33788D01*
Y19822D01*
X33774D01*
Y19808D01*
X33761D01*
Y19795D01*
X33747D01*
Y19781D01*
X33733D01*
Y19767D01*
X33720D01*
Y19754D01*
X33706D01*
Y19740D01*
X33692D01*
Y19726D01*
X33665D01*
Y19712D01*
X33651D01*
Y19699D01*
X33637D01*
Y19685D01*
X33624D01*
Y19671D01*
X33610D01*
Y19658D01*
X33596D01*
Y19644D01*
X33583D01*
Y19630D01*
X33569D01*
Y19617D01*
X33555D01*
Y19603D01*
X33541D01*
Y19589D01*
X33528D01*
Y19575D01*
X33500D01*
Y19562D01*
X33487D01*
Y19548D01*
X33473D01*
Y19534D01*
X33459D01*
Y19521D01*
X33446D01*
Y19507D01*
X33432D01*
Y19493D01*
X33418D01*
Y19480D01*
X33404D01*
Y19466D01*
X33391D01*
Y19452D01*
X33363D01*
Y19438D01*
X33350D01*
Y19425D01*
X33336D01*
Y19411D01*
X33322D01*
Y19397D01*
X33309D01*
Y19384D01*
X33295D01*
Y19370D01*
X33281D01*
Y19356D01*
X33267D01*
Y19343D01*
X33254D01*
Y19329D01*
X33240D01*
Y19315D01*
X33213D01*
Y19301D01*
X33199D01*
Y19288D01*
X33185D01*
Y19274D01*
X33172D01*
Y19260D01*
X33158D01*
Y19247D01*
X33144D01*
Y19233D01*
X33130D01*
Y19219D01*
X33117D01*
Y19206D01*
X33103D01*
Y19192D01*
X33089D01*
Y19178D01*
X33062D01*
Y19164D01*
X33048D01*
Y19151D01*
X33035D01*
Y19137D01*
X33021D01*
Y19123D01*
X33007D01*
Y19110D01*
X32993D01*
Y19096D01*
X32980D01*
Y19082D01*
X32966D01*
Y19069D01*
X32952D01*
Y19055D01*
X32939D01*
Y19041D01*
X32911D01*
Y19027D01*
X32898D01*
Y19014D01*
X32884D01*
Y19000D01*
X32870D01*
Y18986D01*
X32856D01*
Y18973D01*
X32843D01*
Y18959D01*
X32829D01*
Y18945D01*
X32815D01*
Y18932D01*
X32802D01*
Y18918D01*
X32788D01*
Y18904D01*
X32774D01*
Y18890D01*
X32747D01*
Y18877D01*
X32733D01*
Y18863D01*
X32719D01*
Y18849D01*
X32706D01*
Y18836D01*
X32692D01*
Y18822D01*
X32678D01*
Y18808D01*
X32665D01*
Y18795D01*
X32651D01*
Y18781D01*
X32624D01*
Y18767D01*
X32610D01*
Y18753D01*
X32596D01*
Y18740D01*
X32582D01*
Y18726D01*
X32569D01*
Y18712D01*
X32555D01*
Y18699D01*
X32541D01*
Y18685D01*
X32528D01*
Y18671D01*
X32514D01*
Y18657D01*
X32500D01*
Y18644D01*
X32486D01*
Y18630D01*
X32459D01*
Y18616D01*
X32445D01*
Y18603D01*
X32432D01*
Y18589D01*
X32418D01*
Y18575D01*
X32404D01*
Y18562D01*
X32391D01*
Y18548D01*
X32377D01*
Y18534D01*
X32363D01*
Y18521D01*
X32349D01*
Y18507D01*
X32322D01*
Y18493D01*
X32308D01*
Y18479D01*
X32295D01*
Y18466D01*
X32281D01*
Y18452D01*
X32267D01*
Y18438D01*
X32254D01*
Y18425D01*
X32240D01*
Y18411D01*
X32226D01*
Y18397D01*
X32212D01*
Y18383D01*
X32199D01*
Y18370D01*
X32185D01*
Y18356D01*
X32158D01*
Y18342D01*
X32144D01*
Y18329D01*
X32130D01*
Y18315D01*
X32117D01*
Y18301D01*
X32103D01*
Y18288D01*
X32089D01*
Y18274D01*
X32075D01*
Y18260D01*
X32062D01*
Y18246D01*
X32048D01*
Y18233D01*
X32034D01*
Y18219D01*
X32007D01*
Y18205D01*
X31993D01*
Y18192D01*
X31980D01*
Y18151D01*
X31966D01*
Y18123D01*
X31980D01*
Y14013D01*
X31966D01*
Y13986D01*
X31980D01*
Y13972D01*
X32007D01*
Y13958D01*
X32034D01*
Y13972D01*
X33199D01*
Y13958D01*
X33213D01*
Y13972D01*
X33254D01*
Y13958D01*
X33267D01*
Y13328D01*
X33240D01*
Y13314D01*
X33226D01*
Y13328D01*
X31377D01*
Y13314D01*
X31349D01*
Y13328D01*
X31336D01*
Y13342D01*
X31322D01*
Y24645D01*
X31349D01*
Y24658D01*
X31363D01*
Y24645D01*
D02*
G37*
G36*
X39734Y12972D02*
X39748D01*
Y12369D01*
X39734D01*
Y12355D01*
X22266D01*
Y12369D01*
X22252D01*
Y12972D01*
X22266D01*
Y12999D01*
X39734D01*
Y12972D01*
D02*
G37*
%LPC*%
G36*
X35034Y43920D02*
X33420D01*
Y40693D01*
X35034D01*
Y43920D01*
D02*
G37*
%LPD*%
D13*
X33749Y33250D02*
Y34750D01*
X32999D01*
X32749Y34500D01*
Y34000D01*
X32999Y33750D01*
X33749D01*
X33249D02*
X32749Y33250D01*
X32249D02*
Y34250D01*
X31749Y34750D01*
X31249Y34250D01*
Y33250D01*
Y34000D01*
X32249D01*
X30750Y34750D02*
Y33250D01*
X30000D01*
X29750Y33500D01*
Y34500D01*
X30000Y34750D01*
X30750D01*
X29250Y33250D02*
Y34750D01*
X28750Y34250D01*
X28250Y34750D01*
Y33250D01*
D24*
X59250Y12700D02*
Y11500D01*
X58650D01*
X58450Y11700D01*
Y12500D01*
X58650Y12700D01*
X59250D01*
X58050Y11500D02*
X57651D01*
X57850D01*
Y12300D01*
X58050D01*
X57051Y11500D02*
Y12300D01*
X56851D01*
X56651Y12100D01*
Y11500D01*
Y12100D01*
X56451Y12300D01*
X56251Y12100D01*
Y11500D01*
X59250Y14500D02*
Y13300D01*
X58650D01*
X58450Y13500D01*
Y13700D01*
X58650Y13900D01*
X59250D01*
X58650D01*
X58450Y14100D01*
Y14300D01*
X58650Y14500D01*
X59250D01*
X57850Y13300D02*
X57451D01*
X57251Y13500D01*
Y13900D01*
X57451Y14100D01*
X57850D01*
X58050Y13900D01*
Y13500D01*
X57850Y13300D01*
X56651Y14100D02*
X56251D01*
X56051Y13900D01*
Y13300D01*
X56651D01*
X56851Y13500D01*
X56651Y13700D01*
X56051D01*
X55651Y14100D02*
Y13300D01*
Y13700D01*
X55451Y13900D01*
X55251Y14100D01*
X55051D01*
X53652Y14500D02*
Y13300D01*
X54252D01*
X54452Y13500D01*
Y13900D01*
X54252Y14100D01*
X53652D01*
X61950Y11876D02*
Y11076D01*
X61350D01*
X61550Y11476D01*
Y11676D01*
X61350Y11876D01*
X60950D01*
X60750Y11676D01*
Y11276D01*
X60950Y11076D01*
X60750Y12875D02*
X61950D01*
X61350Y12276D01*
Y13075D01*
X60750Y13475D02*
X61550D01*
Y13675D01*
X61350Y13875D01*
X60750D01*
X61350D01*
X61550Y14075D01*
X61350Y14275D01*
X60750D01*
Y14675D02*
X61550D01*
Y14875D01*
X61350Y15075D01*
X60750D01*
X61350D01*
X61550Y15275D01*
X61350Y15475D01*
X60750D01*
X59674Y10250D02*
X58874D01*
Y10050D01*
X59674Y9250D01*
Y9050D01*
X57875D02*
Y10250D01*
X58474Y9650D01*
X57675D01*
X57275Y9050D02*
Y9250D01*
X57075D01*
Y9050D01*
X57275D01*
X55475Y10250D02*
X56275D01*
Y9650D01*
X55875Y9850D01*
X55675D01*
X55475Y9650D01*
Y9250D01*
X55675Y9050D01*
X56075D01*
X56275Y9250D01*
X55075Y9050D02*
Y9850D01*
X54875D01*
X54676Y9650D01*
Y9050D01*
Y9650D01*
X54476Y9850D01*
X54276Y9650D01*
Y9050D01*
X53876D02*
Y9850D01*
X53676D01*
X53476Y9650D01*
Y9050D01*
Y9650D01*
X53276Y9850D01*
X53076Y9650D01*
Y9050D01*
X63450Y48900D02*
Y50100D01*
X63050Y49700D01*
X62650Y50100D01*
Y48900D01*
X62250Y49900D02*
X62050Y50100D01*
X61651D01*
X61451Y49900D01*
Y49700D01*
X61651Y49500D01*
X61851D01*
X61651D01*
X61451Y49300D01*
Y49100D01*
X61651Y48900D01*
X62050D01*
X62250Y49100D01*
D26*
X35061Y7011D02*
Y8261D01*
X34645Y7844D01*
X34228Y8261D01*
Y7011D01*
X33603Y7844D02*
X33187D01*
X32979Y7636D01*
Y7011D01*
X33603D01*
X33812Y7220D01*
X33603Y7428D01*
X32979D01*
X31729Y7844D02*
X32354D01*
X32562Y7636D01*
Y7220D01*
X32354Y7011D01*
X31729D01*
X31312Y8261D02*
Y7011D01*
Y7636D01*
X31104Y7844D01*
X30688D01*
X30479Y7636D01*
Y7011D01*
X30063D02*
X29646D01*
X29855D01*
Y7844D01*
X30063D01*
X29021Y7011D02*
Y7844D01*
X28397D01*
X28188Y7636D01*
Y7011D01*
X27147D02*
X27564D01*
X27772Y7220D01*
Y7636D01*
X27564Y7844D01*
X27147D01*
X26939Y7636D01*
Y7428D01*
X27772D01*
X37769Y6041D02*
X37352D01*
X37560D01*
Y4792D01*
X37769D01*
X37352D01*
X36727D02*
Y5625D01*
X36103D01*
X35894Y5417D01*
Y4792D01*
X35269Y5833D02*
Y5625D01*
X35478D01*
X35061D01*
X35269D01*
Y5000D01*
X35061Y4792D01*
X33812D02*
X34228D01*
X34436Y5000D01*
Y5417D01*
X34228Y5625D01*
X33812D01*
X33603Y5417D01*
Y5208D01*
X34436D01*
X33187Y4792D02*
X32770D01*
X32979D01*
Y6041D01*
X33187D01*
X32145Y4792D02*
X31729D01*
X31937D01*
Y6041D01*
X32145D01*
X31104Y4792D02*
X30688D01*
X30896D01*
Y5625D01*
X31104D01*
X29646Y4375D02*
X29438D01*
X29230Y4583D01*
Y5625D01*
X29855D01*
X30063Y5417D01*
Y5000D01*
X29855Y4792D01*
X29230D01*
X28188D02*
X28605D01*
X28813Y5000D01*
Y5417D01*
X28605Y5625D01*
X28188D01*
X27980Y5417D01*
Y5208D01*
X28813D01*
X27564Y4792D02*
Y5625D01*
X26939D01*
X26731Y5417D01*
Y4792D01*
X25481Y5625D02*
X26106D01*
X26314Y5417D01*
Y5000D01*
X26106Y4792D01*
X25481D01*
X24440D02*
X24856D01*
X25064Y5000D01*
Y5417D01*
X24856Y5625D01*
X24440D01*
X24231Y5417D01*
Y5208D01*
X25064D01*
X36936Y3405D02*
Y2156D01*
X36103D01*
X35478Y2989D02*
X35061D01*
X34853Y2780D01*
Y2156D01*
X35478D01*
X35686Y2364D01*
X35478Y2572D01*
X34853D01*
X34436Y3405D02*
Y2156D01*
X33812D01*
X33603Y2364D01*
Y2572D01*
Y2780D01*
X33812Y2989D01*
X34436D01*
X32979Y2156D02*
X32562D01*
X32354Y2364D01*
Y2780D01*
X32562Y2989D01*
X32979D01*
X33187Y2780D01*
Y2364D01*
X32979Y2156D01*
X31937Y2989D02*
Y2156D01*
Y2572D01*
X31729Y2780D01*
X31521Y2989D01*
X31312D01*
X30479D02*
X30063D01*
X29855Y2780D01*
Y2156D01*
X30479D01*
X30688Y2364D01*
X30479Y2572D01*
X29855D01*
X29230Y3197D02*
Y2989D01*
X29438D01*
X29021D01*
X29230D01*
Y2364D01*
X29021Y2156D01*
X28188D02*
X27772D01*
X27564Y2364D01*
Y2780D01*
X27772Y2989D01*
X28188D01*
X28397Y2780D01*
Y2364D01*
X28188Y2156D01*
X27147Y2989D02*
Y2156D01*
Y2572D01*
X26939Y2780D01*
X26731Y2989D01*
X26522D01*
X25897D02*
Y2364D01*
X25689Y2156D01*
X25064D01*
Y1947D01*
X25273Y1739D01*
X25481D01*
X25064Y2156D02*
Y2989D01*
D27*
X64000Y49500D02*
X65700D01*
X65192Y49000D02*
X65700Y49508D01*
X59500Y17492D02*
X60008Y18000D01*
X60000D02*
X60508Y17492D01*
X65192Y50008D02*
X65700Y49500D01*
X52750Y10750D02*
X60000D01*
X52750Y10750D02*
X53258Y11258D01*
X52750Y10758D02*
X53258Y10250D01*
X60000Y10750D02*
Y18000D01*
%TF.MD5,41112c83472f68f7a7d78961c71185a0*%
M02*
