%TF.GenerationSoftware,Altium Limited,Altium Designer,25.2.1 (25)*%
G04 Layer_Physical_Order=1*
G04 Layer_Color=255*
%FSLAX43Y43*%
%MOMM*%
%TF.SameCoordinates,2CE3D87A-6310-41BA-B934-AA3AA0227215*%
%TF.FilePolarity,Positive*%
%TF.FileFunction,Copper,L1,Top,Signal*%
%TF.Part,Single*%
G01*
G75*
%TA.AperFunction,NonConductor*%
%ADD10C,0.203*%
%TA.AperFunction,SMDPad,CuDef*%
%ADD11R,0.600X1.250*%
%ADD12R,0.500X0.750*%
%TA.AperFunction,NonConductor*%
%ADD13C,0.400*%
%TA.AperFunction,Conductor*%
%ADD14C,0.400*%
%TA.AperFunction,ComponentPad*%
%ADD15O,12.500X3.750*%
%ADD16O,3.000X5.500*%
%ADD17C,2.500*%
%ADD18C,6.000*%
%ADD19C,1.400*%
%ADD20C,1.500*%
%ADD21C,2.300*%
%TA.AperFunction,ViaPad*%
%ADD22C,0.700*%
G36*
X28000Y28000D02*
X10000D01*
Y51190D01*
X28000D01*
Y28000D01*
D02*
G37*
G36*
X52000D02*
X34000D01*
Y51190D01*
X52000D01*
Y28000D01*
D02*
G37*
%LPC*%
G36*
X18345Y50290D02*
X18015D01*
X17698Y50205D01*
X17444Y50059D01*
X17534Y49969D01*
X17251Y49686D01*
X17161Y49776D01*
X17015Y49522D01*
X16930Y49205D01*
Y48875D01*
X17015Y48558D01*
X17161Y48304D01*
X17251Y48394D01*
X17534Y48111D01*
X17444Y48021D01*
X17698Y47875D01*
X17845Y47836D01*
Y47704D01*
X17698Y47665D01*
X17444Y47519D01*
X17534Y47429D01*
X17251Y47146D01*
X17161Y47236D01*
X17015Y46982D01*
X16930Y46665D01*
Y46335D01*
X17015Y46018D01*
X17161Y45764D01*
X17251Y45854D01*
X17534Y45571D01*
X17444Y45481D01*
X17698Y45335D01*
X17845Y45296D01*
Y45164D01*
X17698Y45125D01*
X17444Y44979D01*
X17534Y44889D01*
X17251Y44606D01*
X17161Y44696D01*
X17015Y44442D01*
X16930Y44125D01*
Y43795D01*
X17015Y43478D01*
X17161Y43224D01*
X17251Y43314D01*
X17534Y43031D01*
X17444Y42941D01*
X17698Y42795D01*
X18015Y42710D01*
X18345D01*
X18662Y42795D01*
X18916Y42941D01*
X18826Y43031D01*
X19109Y43314D01*
X19199Y43224D01*
X19345Y43478D01*
X19430Y43795D01*
Y44125D01*
X19345Y44442D01*
X19199Y44696D01*
X19109Y44606D01*
X18826Y44889D01*
X18916Y44979D01*
X18662Y45125D01*
X18515Y45164D01*
Y45296D01*
X18662Y45335D01*
X18916Y45481D01*
X18826Y45571D01*
X19109Y45854D01*
X19199Y45764D01*
X19345Y46018D01*
X19430Y46335D01*
Y46665D01*
X19345Y46982D01*
X19199Y47236D01*
X19109Y47146D01*
X18826Y47429D01*
X18916Y47519D01*
X18662Y47665D01*
X18515Y47704D01*
Y47836D01*
X18662Y47875D01*
X18916Y48021D01*
X18826Y48111D01*
X19109Y48394D01*
X19199Y48304D01*
X19345Y48558D01*
X19430Y48875D01*
Y49205D01*
X19345Y49522D01*
X19199Y49776D01*
X19109Y49686D01*
X18826Y49969D01*
X18916Y50059D01*
X18662Y50205D01*
X18345Y50290D01*
D02*
G37*
G36*
X13265D02*
X12935D01*
X12618Y50205D01*
X12364Y50059D01*
X12454Y49969D01*
X12171Y49686D01*
X12081Y49776D01*
X11935Y49522D01*
X11850Y49205D01*
Y48875D01*
X11935Y48558D01*
X12081Y48304D01*
X12171Y48394D01*
X12454Y48111D01*
X12364Y48021D01*
X12618Y47875D01*
X12765Y47836D01*
Y47704D01*
X12618Y47665D01*
X12364Y47519D01*
X12454Y47429D01*
X12171Y47146D01*
X12081Y47236D01*
X11935Y46982D01*
X11850Y46665D01*
Y46335D01*
X11935Y46018D01*
X12081Y45764D01*
X12171Y45854D01*
X12454Y45571D01*
X12364Y45481D01*
X12618Y45335D01*
X12765Y45296D01*
Y45164D01*
X12618Y45125D01*
X12364Y44979D01*
X12454Y44889D01*
X12171Y44606D01*
X12081Y44696D01*
X11935Y44442D01*
X11850Y44125D01*
Y43795D01*
X11935Y43478D01*
X12081Y43224D01*
X12171Y43314D01*
X12454Y43031D01*
X12364Y42941D01*
X12618Y42795D01*
X12935Y42710D01*
X13265D01*
X13582Y42795D01*
X13836Y42941D01*
X13746Y43031D01*
X14029Y43314D01*
X14119Y43224D01*
X14265Y43478D01*
X14350Y43795D01*
Y44125D01*
X14265Y44442D01*
X14119Y44696D01*
X14029Y44606D01*
X13746Y44889D01*
X13836Y44979D01*
X13582Y45125D01*
X13435Y45164D01*
Y45296D01*
X13582Y45335D01*
X13836Y45481D01*
X13746Y45571D01*
X14029Y45854D01*
X14119Y45764D01*
X14265Y46018D01*
X14350Y46335D01*
Y46665D01*
X14265Y46982D01*
X14119Y47236D01*
X14029Y47146D01*
X13746Y47429D01*
X13836Y47519D01*
X13582Y47665D01*
X13435Y47704D01*
Y47836D01*
X13582Y47875D01*
X13836Y48021D01*
X13746Y48111D01*
X14029Y48394D01*
X14119Y48304D01*
X14265Y48558D01*
X14350Y48875D01*
Y49205D01*
X14265Y49522D01*
X14119Y49776D01*
X14029Y49686D01*
X13746Y49969D01*
X13836Y50059D01*
X13582Y50205D01*
X13265Y50290D01*
D02*
G37*
G36*
X25250Y33735D02*
X21075D01*
Y33607D01*
X20675D01*
Y33735D01*
X16500D01*
X16113Y33696D01*
X15741Y33583D01*
X15397Y33400D01*
X15252Y33281D01*
X15336Y33197D01*
X15053Y32914D01*
X14969Y32998D01*
X14850Y32853D01*
X14667Y32509D01*
X14554Y32137D01*
X14515Y31750D01*
X14554Y31363D01*
X14667Y30991D01*
X14850Y30647D01*
X14969Y30502D01*
X15053Y30586D01*
X15336Y30303D01*
X15252Y30219D01*
X15397Y30100D01*
X15741Y29917D01*
X16113Y29804D01*
X16500Y29765D01*
X20675D01*
Y29893D01*
X21075D01*
Y29765D01*
X25250D01*
X25637Y29804D01*
X26009Y29917D01*
X26353Y30100D01*
X26498Y30219D01*
X26414Y30303D01*
X26697Y30586D01*
X26781Y30502D01*
X26900Y30647D01*
X27083Y30991D01*
X27196Y31363D01*
X27235Y31750D01*
X27196Y32137D01*
X27083Y32509D01*
X26900Y32853D01*
X26781Y32998D01*
X26697Y32914D01*
X26414Y33197D01*
X26498Y33281D01*
X26353Y33400D01*
X26009Y33583D01*
X25637Y33696D01*
X25250Y33735D01*
D02*
G37*
G36*
X49065Y50290D02*
X48735D01*
X48418Y50205D01*
X48164Y50059D01*
X48254Y49969D01*
X47971Y49686D01*
X47881Y49776D01*
X47735Y49522D01*
X47650Y49205D01*
Y48875D01*
X47735Y48558D01*
X47881Y48304D01*
X47971Y48394D01*
X48254Y48111D01*
X48164Y48021D01*
X48418Y47875D01*
X48565Y47836D01*
Y47704D01*
X48418Y47665D01*
X48164Y47519D01*
X48254Y47429D01*
X47971Y47146D01*
X47881Y47236D01*
X47735Y46982D01*
X47650Y46665D01*
Y46335D01*
X47735Y46018D01*
X47881Y45764D01*
X47971Y45854D01*
X48254Y45571D01*
X48164Y45481D01*
X48418Y45335D01*
X48565Y45296D01*
Y45164D01*
X48418Y45125D01*
X48164Y44979D01*
X48254Y44889D01*
X47971Y44606D01*
X47881Y44696D01*
X47735Y44442D01*
X47650Y44125D01*
Y43795D01*
X47735Y43478D01*
X47881Y43224D01*
X47971Y43314D01*
X48254Y43031D01*
X48164Y42941D01*
X48418Y42795D01*
X48735Y42710D01*
X49065D01*
X49382Y42795D01*
X49636Y42941D01*
X49546Y43031D01*
X49829Y43314D01*
X49919Y43224D01*
X50065Y43478D01*
X50150Y43795D01*
Y44125D01*
X50065Y44442D01*
X49919Y44696D01*
X49829Y44606D01*
X49546Y44889D01*
X49636Y44979D01*
X49382Y45125D01*
X49235Y45164D01*
Y45296D01*
X49382Y45335D01*
X49636Y45481D01*
X49546Y45571D01*
X49829Y45854D01*
X49919Y45764D01*
X50065Y46018D01*
X50150Y46335D01*
Y46665D01*
X50065Y46982D01*
X49919Y47236D01*
X49829Y47146D01*
X49546Y47429D01*
X49636Y47519D01*
X49382Y47665D01*
X49235Y47704D01*
Y47836D01*
X49382Y47875D01*
X49636Y48021D01*
X49546Y48111D01*
X49829Y48394D01*
X49919Y48304D01*
X50065Y48558D01*
X50150Y48875D01*
Y49205D01*
X50065Y49522D01*
X49919Y49776D01*
X49829Y49686D01*
X49546Y49969D01*
X49636Y50059D01*
X49382Y50205D01*
X49065Y50290D01*
D02*
G37*
G36*
X43985D02*
X43655D01*
X43338Y50205D01*
X43084Y50059D01*
X43174Y49969D01*
X42891Y49686D01*
X42801Y49776D01*
X42655Y49522D01*
X42570Y49205D01*
Y48875D01*
X42655Y48558D01*
X42801Y48304D01*
X42891Y48394D01*
X43174Y48111D01*
X43084Y48021D01*
X43338Y47875D01*
X43485Y47836D01*
Y47704D01*
X43338Y47665D01*
X43084Y47519D01*
X43174Y47429D01*
X42891Y47146D01*
X42801Y47236D01*
X42655Y46982D01*
X42570Y46665D01*
Y46335D01*
X42655Y46018D01*
X42801Y45764D01*
X42891Y45854D01*
X43174Y45571D01*
X43084Y45481D01*
X43338Y45335D01*
X43485Y45296D01*
Y45164D01*
X43338Y45125D01*
X43084Y44979D01*
X43174Y44889D01*
X42891Y44606D01*
X42801Y44696D01*
X42655Y44442D01*
X42570Y44125D01*
Y43795D01*
X42655Y43478D01*
X42801Y43224D01*
X42891Y43314D01*
X43174Y43031D01*
X43084Y42941D01*
X43338Y42795D01*
X43655Y42710D01*
X43985D01*
X44302Y42795D01*
X44556Y42941D01*
X44466Y43031D01*
X44749Y43314D01*
X44839Y43224D01*
X44985Y43478D01*
X45070Y43795D01*
Y44125D01*
X44985Y44442D01*
X44839Y44696D01*
X44749Y44606D01*
X44466Y44889D01*
X44556Y44979D01*
X44302Y45125D01*
X44155Y45164D01*
Y45296D01*
X44302Y45335D01*
X44556Y45481D01*
X44466Y45571D01*
X44749Y45854D01*
X44839Y45764D01*
X44985Y46018D01*
X45070Y46335D01*
Y46665D01*
X44985Y46982D01*
X44839Y47236D01*
X44749Y47146D01*
X44466Y47429D01*
X44556Y47519D01*
X44302Y47665D01*
X44155Y47704D01*
Y47836D01*
X44302Y47875D01*
X44556Y48021D01*
X44466Y48111D01*
X44749Y48394D01*
X44839Y48304D01*
X44985Y48558D01*
X45070Y48875D01*
Y49205D01*
X44985Y49522D01*
X44839Y49776D01*
X44749Y49686D01*
X44466Y49969D01*
X44556Y50059D01*
X44302Y50205D01*
X43985Y50290D01*
D02*
G37*
G36*
X45500Y33735D02*
X41325D01*
Y33607D01*
X40925D01*
Y33735D01*
X36750D01*
X36363Y33696D01*
X35991Y33583D01*
X35647Y33400D01*
X35502Y33281D01*
X35586Y33197D01*
X35303Y32914D01*
X35219Y32998D01*
X35100Y32853D01*
X34917Y32509D01*
X34804Y32137D01*
X34765Y31750D01*
X34804Y31363D01*
X34917Y30991D01*
X35100Y30647D01*
X35219Y30502D01*
X35303Y30586D01*
X35586Y30303D01*
X35502Y30219D01*
X35647Y30100D01*
X35991Y29917D01*
X36363Y29804D01*
X36750Y29765D01*
X40925D01*
Y29893D01*
X41325D01*
Y29765D01*
X45500D01*
X45887Y29804D01*
X46259Y29917D01*
X46603Y30100D01*
X46748Y30219D01*
X46664Y30303D01*
X46947Y30586D01*
X47031Y30502D01*
X47150Y30647D01*
X47333Y30991D01*
X47446Y31363D01*
X47485Y31750D01*
X47446Y32137D01*
X47333Y32509D01*
X47150Y32853D01*
X47031Y32998D01*
X46947Y32914D01*
X46664Y33197D01*
X46748Y33281D01*
X46603Y33400D01*
X46259Y33583D01*
X45887Y33696D01*
X45500Y33735D01*
D02*
G37*
%LPD*%
D10*
X73998Y49500D02*
G03*
X70000Y53498I-3998J0D01*
G01*
Y502D02*
G03*
X73998Y4500I0J3998D01*
G01*
X4500Y53498D02*
G03*
X502Y49500I0J-3998D01*
G01*
Y4500D02*
G03*
X4500Y502I3998J0D01*
G01*
X73402Y51093D02*
X73823Y50672D01*
X73402Y50412D02*
X73783Y50794D01*
X73402Y50375D02*
X73988Y49788D01*
X73402Y49694D02*
X73932Y50224D01*
X73402Y51131D02*
X73571Y51300D01*
X73402Y47799D02*
Y51201D01*
Y48257D02*
X73998Y48854D01*
X73402Y48938D02*
X73998Y48341D01*
X73402Y48219D02*
X73998Y47623D01*
X73402Y49656D02*
X73998Y49059D01*
X73402Y48975D02*
X73998Y49571D01*
X73252Y47650D02*
X73998Y46904D01*
X70862Y52902D02*
X71256Y53296D01*
X70288Y53488D02*
X70875Y52902D01*
X71581D02*
X71766Y53087D01*
X71172Y53323D02*
X71593Y52902D01*
X69559Y53498D02*
X70156Y52902D01*
X69425D02*
X70022Y53498D01*
X70144Y52902D02*
X70682Y53440D01*
X72718Y51884D02*
X72989Y52155D01*
X72359Y52243D02*
X72629Y52513D01*
X73078Y51525D02*
X73304Y51752D01*
X71701Y52902D02*
X73402Y51201D01*
X72000Y52603D02*
X72222Y52824D01*
X71593Y52902D02*
X73402Y51093D01*
X69888Y41869D02*
X73998Y45980D01*
X69775Y46098D02*
X73998Y41875D01*
X70202Y40746D02*
X73998Y44543D01*
X70202Y41465D02*
X73998Y45262D01*
X69057Y46098D02*
X73998Y41157D01*
X69529Y42229D02*
X73998Y46698D01*
X69653Y37324D02*
X73998Y41669D01*
X70202Y40643D02*
X73998Y36846D01*
X70202Y41361D02*
X73998Y37565D01*
X70372Y36606D02*
X73998Y40233D01*
X70112Y40014D02*
X73998Y36128D01*
X70012Y36965D02*
X73998Y40951D01*
X69753Y39655D02*
X73998Y35409D01*
X72534Y46932D02*
X73998Y45467D01*
X72893Y47291D02*
X73998Y46186D01*
X72175Y46572D02*
X73998Y44749D01*
X71816Y46213D02*
X73998Y44030D01*
X71701Y46098D02*
X73402Y47799D01*
X71212Y46098D02*
X73998Y43312D01*
X70494Y46098D02*
X73998Y42594D01*
X70202Y40104D02*
Y41556D01*
X69476Y42282D02*
X70202Y41556D01*
X69476Y39378D02*
X70202Y40104D01*
X68299Y52902D02*
X71701D01*
X68707D02*
X69304Y53498D01*
X68145Y42282D02*
X73998Y48135D01*
X68841Y53498D02*
X69438Y52902D01*
X68123Y53498D02*
X68719Y52902D01*
X65188Y50102D02*
X68585Y53498D01*
X62952Y48611D02*
X69281Y42282D01*
X68299Y46098D02*
X71701D01*
X68024Y42282D02*
X69476D01*
X68863D02*
X73998Y47417D01*
X66598Y47838D02*
X68338Y46098D01*
X66598Y47799D02*
X68299Y46098D01*
X62952Y47893D02*
X68563Y42282D01*
X67404Y53498D02*
X68150Y52752D01*
X66686Y53498D02*
X67791Y52393D01*
X65967Y53498D02*
X67432Y52034D01*
X64852Y50483D02*
X67867Y53498D01*
X64177Y50527D02*
X67148Y53498D01*
X55191D02*
X67298Y41391D01*
Y41556D02*
X68024Y42282D01*
X67298Y41435D02*
X68145Y42282D01*
X66598Y51201D02*
X68299Y52902D01*
X62764Y47362D02*
X67934Y42192D01*
X62259Y47148D02*
X67575Y41833D01*
X64527Y48473D02*
X73998Y39002D01*
X64852Y48867D02*
X73998Y39720D01*
X63808Y48473D02*
X73998Y38283D01*
X62160Y38452D02*
X69806Y46098D01*
X53036Y53498D02*
X69133Y37402D01*
X61441Y38452D02*
X69088Y46098D01*
X53754Y53498D02*
X73998Y33254D01*
X68294Y37402D02*
X73998Y43106D01*
X68338Y46098D02*
X73998Y40438D01*
X69012Y37402D02*
X73998Y42388D01*
X63596Y38452D02*
X71243Y46098D01*
X62878Y38452D02*
X70525Y46098D01*
X67788Y37614D02*
X73998Y43825D01*
X60004Y38452D02*
X67975Y46422D01*
X67298Y40104D02*
Y41556D01*
X60723Y38452D02*
X68369Y46098D01*
X54473Y53498D02*
X67298Y40673D01*
X58567Y38452D02*
X67257Y47141D01*
X59286Y38452D02*
X67616Y46782D01*
X67298Y40104D02*
X68024Y39378D01*
X66470Y38452D02*
X67711Y39692D01*
X65033Y38452D02*
X67298Y40717D01*
X64315Y38452D02*
X67298Y41435D01*
X65752Y38452D02*
X67351Y40051D01*
X70402Y35414D02*
X73998Y31817D01*
X70402Y36133D02*
X73998Y32536D01*
X69495Y29982D02*
X73998Y34485D01*
X70287Y34810D02*
X73998Y31099D01*
X68058Y29982D02*
X73998Y35922D01*
X68593Y39378D02*
X73998Y33973D01*
X68776Y29982D02*
X73998Y35204D01*
X70254Y29304D02*
X73998Y33048D01*
X69928Y34451D02*
X73998Y30380D01*
X70402Y28733D02*
X73998Y32330D01*
X69562Y34098D02*
X73998Y29662D01*
X69894Y29663D02*
X73998Y33767D01*
X68844Y34098D02*
X73998Y28944D01*
X70402Y35199D02*
X73998Y38796D01*
X70402Y35917D02*
X73998Y39514D01*
X69311Y39378D02*
X73998Y34691D01*
X68024Y39378D02*
X69476D01*
X67429Y37974D02*
X68834Y39378D01*
X68001Y37402D02*
X69576D01*
Y34098D02*
X70402Y34924D01*
Y36576D01*
X69576Y29982D02*
X70402Y29156D01*
X69576Y37402D02*
X70402Y36576D01*
X67924Y34098D02*
X69576D01*
X67924Y29982D02*
X69576D01*
X69869Y24608D02*
X73998Y28738D01*
X70402Y28230D02*
X73998Y24633D01*
X70402Y27511D02*
X73998Y23915D01*
X70228Y24249D02*
X73998Y28019D01*
X68725Y24902D02*
X73998Y30175D01*
X68007Y24902D02*
X73998Y30893D01*
X69444Y24902D02*
X73998Y29456D01*
X70046Y27149D02*
X73998Y23196D01*
X70402Y23704D02*
X73998Y27301D01*
X70402Y22986D02*
X73998Y26583D01*
X69079Y26678D02*
X73998Y21759D01*
X69687Y26789D02*
X73998Y22478D01*
X69352Y21217D02*
X73998Y25864D01*
X70402Y28015D02*
X73998Y31612D01*
X70402Y27504D02*
Y29156D01*
Y28948D02*
X73998Y25352D01*
X68125Y34098D02*
X73998Y28225D01*
X67924Y26678D02*
X69576D01*
X70402Y27504D01*
Y22424D02*
Y24076D01*
X69576Y24902D02*
X70402Y24076D01*
X69576Y21598D02*
X70402Y22424D01*
X67924Y24902D02*
X69576D01*
X67924Y21598D02*
X68148D01*
X69352D02*
X69576D01*
X67070Y38333D02*
X68115Y39378D01*
X67252Y38151D02*
X68001Y37402D01*
X65571Y28932D02*
X73998Y37359D01*
X64853Y28932D02*
X73998Y38077D01*
X61383Y37248D02*
X68650Y29982D01*
X60665Y37248D02*
X67931Y29982D01*
X62102Y37248D02*
X69368Y29982D01*
X67098Y29156D02*
X67924Y29982D01*
X67098Y34924D02*
X67924Y34098D01*
X67098Y29022D02*
X68058Y29982D01*
X66289Y28932D02*
X73998Y36640D01*
X64134Y28932D02*
X69301Y34098D01*
X64257Y37248D02*
X73998Y27507D01*
X66951Y38452D02*
X67252Y38151D01*
X66951Y38452D02*
X67252Y38151D01*
X66349Y37248D02*
X67098Y36499D01*
X64975Y37248D02*
X67098Y35125D01*
X65694Y37248D02*
X67098Y35844D01*
X59228Y37248D02*
X67209Y29267D01*
X67098Y28932D02*
Y29156D01*
Y34924D02*
Y36499D01*
Y27504D02*
Y27728D01*
X59946Y37248D02*
X67569Y29626D01*
X61277Y30385D02*
X67098Y36206D01*
X67008Y28932D02*
X67098Y29022D01*
X65156Y27728D02*
X67983Y24902D01*
X67098Y27504D02*
X67924Y26678D01*
X66593Y27728D02*
X69419Y24902D01*
X65874Y27728D02*
X68701Y24902D01*
X62820Y37248D02*
X73998Y26070D01*
X63538Y37248D02*
X73998Y26788D01*
X56652Y22167D02*
X68583Y34098D01*
X67098Y23993D02*
X68007Y24902D01*
X67098Y24076D02*
X67924Y24902D01*
X67098Y22424D02*
X67924Y21598D01*
X63895Y21508D02*
X69065Y26678D01*
X63535Y21867D02*
X68347Y26678D01*
X62847Y26445D02*
X68148Y21144D01*
X64437Y27728D02*
X67594Y24572D01*
X63925Y27522D02*
X67235Y24212D01*
X62236Y22723D02*
X67098Y27585D01*
X56587Y23540D02*
X67535Y34488D01*
X56228Y23899D02*
X67176Y34847D01*
X56652Y22886D02*
X67894Y34128D01*
X67098Y22424D02*
Y24076D01*
X63566Y27163D02*
X67098Y23630D01*
X64254Y21149D02*
X67098Y23993D01*
X62817Y22585D02*
X67417Y27186D01*
X63206Y26804D02*
X67098Y22912D01*
X63176Y22226D02*
X67776Y26826D01*
X65249Y53498D02*
X67072Y51675D01*
X64530Y53498D02*
X66713Y51316D01*
X63812Y53498D02*
X66598Y50712D01*
X63458Y50527D02*
X66430Y53498D01*
X62375D02*
X65772Y50102D01*
X62315D02*
X65712Y53498D01*
X63094D02*
X66490Y50102D01*
X66598D02*
Y51201D01*
X65907Y50102D02*
X66598Y50793D01*
X64852Y48898D02*
X66598D01*
X64852Y50304D02*
X65054Y50102D01*
X64852D02*
Y50527D01*
Y50102D02*
X66598D01*
X64629Y50527D02*
X64852Y50304D01*
X63448Y50527D02*
X64852D01*
X62842Y49910D02*
X63448Y50517D01*
X61657Y53498D02*
X64629Y50527D01*
X60938Y53498D02*
X63910Y50527D01*
X60220Y53498D02*
X63448Y50270D01*
X62952Y49330D02*
X63448Y48833D01*
X62952Y49302D02*
X63448Y49798D01*
X62952Y48583D02*
X63448Y49080D01*
X62049Y50102D02*
X62651D01*
X61748Y49801D02*
X62049Y50102D01*
X62651D02*
X62952Y49801D01*
X66257Y48898D02*
X66598Y48557D01*
X64852Y48473D02*
Y48898D01*
X66598Y47799D02*
Y48898D01*
X65538D02*
X66598Y47838D01*
X63448Y48473D02*
X64852D01*
X63448D02*
Y50527D01*
X62952Y47865D02*
X63560Y48473D01*
X66349Y38452D02*
X66951D01*
X62952Y47630D02*
Y48232D01*
X66349Y38452D02*
X66951D01*
X62852Y47530D02*
X62952Y47630D01*
X62852Y47530D02*
X62952Y47630D01*
X60167Y30712D02*
X66526Y37071D01*
X62952Y48232D02*
Y49801D01*
X61748Y48232D02*
Y49801D01*
X62952Y47630D02*
Y48232D01*
X61648Y48132D02*
X61748Y48232D01*
X61648Y48132D02*
X61748Y48232D01*
X61648Y47530D02*
Y48132D01*
X62852Y47449D02*
Y47530D01*
X61949Y47148D02*
X62551D01*
X62852Y47449D01*
X61648D02*
Y47530D01*
Y48132D01*
Y47449D02*
X61949Y47148D01*
X58783Y53498D02*
X62180Y50102D01*
X58065Y53498D02*
X61755Y49808D01*
X59502Y53498D02*
X63448Y49552D01*
X56628Y53498D02*
X61748Y48378D01*
X52409Y40915D02*
X64993Y53498D01*
X52409Y42352D02*
X63556Y53498D01*
X55926Y39402D02*
X65422Y48898D01*
X56644Y38683D02*
X66598Y48638D01*
X56285Y39043D02*
X66141Y48898D01*
X56652Y38452D02*
X66349D01*
X55307Y39502D02*
X64279Y48473D01*
X54588Y39502D02*
X62235Y47148D01*
X52409Y48377D02*
X62335Y38452D01*
X57346Y53498D02*
X61748Y49096D01*
X55909Y53498D02*
X61648Y47759D01*
X52409Y41911D02*
X54819Y39502D01*
X52409Y49536D02*
X56372Y53498D01*
X52409Y50973D02*
X54935Y53498D01*
X52409Y48817D02*
X57091Y53498D01*
X54174Y39502D02*
X55826D01*
X53348Y38676D02*
X54174Y39502D01*
X55826D02*
X56652Y38676D01*
X52409Y41193D02*
X54138Y39465D01*
X52409Y40475D02*
X53778Y39106D01*
X52409Y39756D02*
X53419Y38747D01*
X57849Y38452D02*
X66897Y47500D01*
X57131Y38452D02*
X66598Y47919D01*
X55602Y29738D02*
X63112Y37248D01*
X55602Y30457D02*
X62393Y37248D01*
X55602Y31894D02*
X60956Y37248D01*
X52409Y46940D02*
X60898Y38452D01*
X55602Y31175D02*
X61675Y37248D01*
X57791D02*
X66108Y28932D01*
X57073Y37248D02*
X65389Y28932D01*
X58509Y37248D02*
X66826Y28932D01*
X56652Y37248D02*
X66349D01*
X55602Y29020D02*
X63830Y37248D01*
X55602Y28302D02*
X64548Y37248D01*
X56652Y37024D02*
Y37248D01*
Y38452D02*
Y38676D01*
X55602Y35486D02*
X57364Y37248D01*
X53348Y37024D02*
Y38676D01*
X52409Y37323D02*
X53348Y38262D01*
X52409Y36604D02*
X53348Y37543D01*
X55602Y33331D02*
X59519Y37248D01*
X55826Y36198D02*
X56652Y37024D01*
X55602Y32612D02*
X60238Y37248D01*
X55602Y34767D02*
X58083Y37248D01*
X53348Y37024D02*
X54174Y36198D01*
X55602Y34049D02*
X58801Y37248D01*
X61402Y29791D02*
X67098Y35488D01*
X63228Y28631D02*
X63529Y28932D01*
X63228Y28631D02*
X63529Y28932D01*
X61402Y30046D02*
X63022Y28425D01*
X60885Y30712D02*
X66886Y36712D01*
X61386Y29343D02*
X62663Y28066D01*
X61027Y28984D02*
X62304Y27706D01*
X64131Y28932D02*
X67098D01*
X63529D02*
X64131D01*
Y27728D02*
X67098D01*
X63529Y28932D02*
X64131D01*
X60384Y28908D02*
X61945Y27347D01*
X60199Y25602D02*
X63228Y28631D01*
X60951Y30712D02*
X61402Y30261D01*
X60049Y30712D02*
X60951D01*
X59598Y30261D02*
X60049Y30712D01*
X59598Y29359D02*
Y30261D01*
X61402Y29359D02*
Y30261D01*
X60951Y28908D02*
X61402Y29359D01*
X59598D02*
X60049Y28908D01*
X60951D01*
X61569Y22774D02*
X66523Y27728D01*
X61209Y23133D02*
X65805Y27728D01*
X61102Y23880D02*
X62259Y22723D01*
X61602D02*
X62078D01*
X61102Y24462D02*
X64368Y27728D01*
X61102Y24699D02*
X64131Y27728D01*
X61102Y23744D02*
X65086Y27728D01*
X62680Y22723D02*
X62980Y22422D01*
X62680Y22723D02*
X62980Y22422D01*
X64051Y21352D01*
X62078Y22723D02*
X62680D01*
X62078D02*
X62680D01*
X61482Y21520D02*
X62078D01*
X59898Y23241D02*
Y24699D01*
Y25301D01*
X61102Y23241D02*
Y24699D01*
X59898Y25301D02*
X60199Y25602D01*
X59898Y25301D02*
X60199Y25602D01*
X59898Y24699D02*
Y25301D01*
X61102Y23241D02*
X61602Y22741D01*
X60301Y21088D02*
X61051D01*
X61482Y21520D01*
X59398Y22741D02*
X59898Y23241D01*
X59398Y21991D02*
Y22741D01*
X57023Y21102D02*
X59898Y23977D01*
X56256Y36628D02*
X63953Y28932D01*
X55602Y34409D02*
X59674Y30336D01*
X56615Y36988D02*
X64671Y28932D01*
X55897Y36269D02*
X63382Y28784D01*
X55602Y35846D02*
X60736Y30712D01*
X55602Y36198D02*
X55826D01*
X55602Y35127D02*
X60033Y30696D01*
X55602Y32972D02*
X61586Y26988D01*
X55602Y32254D02*
X61226Y26629D01*
X55602Y31535D02*
X60867Y26270D01*
X55602Y33690D02*
X59598Y29694D01*
X55301Y27548D02*
X55602Y27849D01*
X55301Y27548D02*
X55602Y27849D01*
X54398Y28451D02*
Y36198D01*
X54174D02*
X54398D01*
X55602Y28451D02*
Y36198D01*
X52409Y36883D02*
X54398Y34894D01*
X52409Y35167D02*
X53807Y36565D01*
X52409Y33012D02*
X54398Y35001D01*
X55602Y27849D02*
Y28451D01*
X52409Y29420D02*
X54398Y31409D01*
X55602Y27849D02*
Y28451D01*
X52409Y34009D02*
X54398Y32020D01*
X52409Y32294D02*
X54398Y34283D01*
X52409Y31854D02*
X54398Y29865D01*
X55602Y30098D02*
X60149Y25551D01*
X55602Y29380D02*
X59898Y25083D01*
X55869Y24258D02*
X60519Y28908D01*
X55602Y28661D02*
X59898Y24365D01*
X55602Y30817D02*
X60508Y25910D01*
X54475Y24302D02*
X59598Y29425D01*
X55194Y24302D02*
X59925Y29033D01*
X55602Y27943D02*
X59898Y23646D01*
X55289Y27537D02*
X59742Y23084D01*
X56652Y23301D02*
X58680Y21272D01*
X54571Y26818D02*
X59398Y21991D01*
X54930Y27178D02*
X59398Y22709D01*
X54212Y26459D02*
X59039Y21632D01*
X53852Y26100D02*
X55651Y24302D01*
X53493Y25741D02*
X54933Y24302D01*
X53348Y23476D02*
X54174Y24302D01*
X53134Y25382D02*
X54214Y24302D01*
X52775Y25022D02*
X53835Y23962D01*
X52416Y24663D02*
X53476Y23603D01*
X56652Y21864D02*
X57414Y21102D01*
X56652Y21824D02*
Y23476D01*
X56949Y21102D02*
X57551D01*
X55826Y24302D02*
X56652Y23476D01*
X54174Y24302D02*
X55826D01*
X53348Y21824D02*
Y23476D01*
X70402Y23201D02*
X73998Y19604D01*
X70402Y23919D02*
X73998Y20323D01*
X70243Y19235D02*
X73998Y22990D01*
X69883Y19594D02*
X73998Y23709D01*
X69352Y20499D02*
X73998Y25146D01*
X68361Y26678D02*
X73998Y21041D01*
X69473Y19902D02*
X73998Y24427D01*
X70402Y18675D02*
X73998Y22272D01*
X70402Y22483D02*
X73998Y18886D01*
X70402Y17957D02*
X73998Y21554D01*
X69712Y21735D02*
X73998Y17449D01*
X70072Y22094D02*
X73998Y18167D01*
X69352Y21377D02*
X73998Y16730D01*
X68148Y19902D02*
Y21598D01*
X68036Y19902D02*
X68148Y20014D01*
X69352Y19902D02*
X69576D01*
X69352D02*
Y21598D01*
X67924Y19902D02*
X68148D01*
X67098Y19076D02*
X67924Y19902D01*
X67098Y18964D02*
X68036Y19902D01*
X70402Y17424D02*
Y19076D01*
X69576Y19902D02*
X70402Y19076D01*
X69576Y16598D02*
X70402Y17424D01*
X67098D02*
X67924Y16598D01*
X67098Y17424D02*
Y19076D01*
X67924Y16598D02*
X69576D01*
X70402Y17454D02*
X73998Y13857D01*
X70402Y18172D02*
X73998Y14575D01*
Y4500D02*
Y49500D01*
X70402Y13646D02*
X73998Y17243D01*
X69858Y14539D02*
X73998Y18680D01*
X67985Y14822D02*
X73998Y20835D01*
X70217Y14180D02*
X73998Y17962D01*
X70402Y12928D02*
X73998Y16525D01*
X70057Y17080D02*
X73998Y13138D01*
X70402Y13861D02*
X73998Y10265D01*
X69102Y16598D02*
X73998Y11701D01*
X69698Y16720D02*
X73998Y12420D01*
X68383Y16598D02*
X73998Y10983D01*
X70402Y18890D02*
X73998Y15294D01*
X69352Y20659D02*
X73998Y16012D01*
X69422Y14822D02*
X73998Y19398D01*
X68703Y14822D02*
X73998Y20117D01*
X67098Y13996D02*
X67924Y14822D01*
X67098Y13935D02*
X67985Y14822D01*
X69441D02*
X70402Y13861D01*
X69576Y14822D02*
X70402Y13996D01*
Y12344D02*
Y13996D01*
X67924Y14822D02*
X69576D01*
X66935Y13772D02*
X67098Y13935D01*
Y13772D02*
Y13996D01*
X62488Y26086D02*
X68148Y20425D01*
X62129Y25726D02*
X67954Y19902D01*
X64352Y19091D02*
X67392Y22131D01*
X64352Y19809D02*
X67098Y22556D01*
X61770Y25367D02*
X67580Y19557D01*
X61410Y25008D02*
X67220Y19198D01*
X61102Y24598D02*
X67098Y18601D01*
X64352Y16217D02*
X67098Y18964D01*
X64352Y20630D02*
X67098Y17883D01*
X64352Y15499D02*
X67098Y18246D01*
X64352Y17654D02*
X68148Y21451D01*
X64352Y18373D02*
X67751Y21772D01*
X64352Y16936D02*
X68148Y20733D01*
X64352Y20528D02*
X67098Y23275D01*
X64352Y20449D02*
Y21051D01*
Y20449D02*
Y21051D01*
X64051Y21352D02*
X64352Y21051D01*
X64051Y21352D02*
X64352Y21051D01*
X61019Y21088D02*
X63148Y18959D01*
X64352Y15449D02*
Y16051D01*
Y20449D01*
Y15449D02*
Y16051D01*
X63148D02*
Y20449D01*
X59252Y19983D02*
X63148Y16086D01*
X64051Y15148D02*
X64352Y15449D01*
Y19193D02*
X68723Y14822D01*
X64352Y18475D02*
X68005Y14822D01*
X64352Y17756D02*
X67605Y14503D01*
X64352Y17038D02*
X67246Y14143D01*
X64352Y19911D02*
X69441Y14822D01*
X64061Y13772D02*
X67406Y17117D01*
X58602Y9031D02*
X67098Y17527D01*
X65498Y13772D02*
X68325Y16598D01*
X64780Y13772D02*
X67765Y16757D01*
X66216Y13772D02*
X69043Y16598D01*
X59412Y502D02*
X73998Y15088D01*
X58694Y502D02*
X73998Y15806D01*
X60131Y502D02*
X73998Y14369D01*
X64352Y16319D02*
X66899Y13772D01*
X64068Y15166D02*
X65463Y13772D01*
X64352Y15601D02*
X66181Y13772D01*
X64051Y15148D02*
X64352Y15449D01*
X58602Y14778D02*
X63148Y19325D01*
X58602Y9699D02*
X64051Y15148D01*
X63709Y14807D02*
X64744Y13772D01*
X63869D02*
X64471D01*
X63568Y13471D02*
X63869Y13772D01*
X63350Y14447D02*
X64026Y13772D01*
X62991Y14088D02*
X63588Y13491D01*
X63568Y13471D02*
X63869Y13772D01*
X72130Y7472D02*
X73998Y9340D01*
X71771Y7831D02*
X73998Y10059D01*
X72849Y6754D02*
X73998Y7904D01*
X72489Y7113D02*
X73998Y8622D01*
X69153Y11518D02*
X73998Y6673D01*
X69723Y11666D02*
X73998Y7391D01*
X68434Y11518D02*
X73998Y5954D01*
X73402Y5114D02*
X73998Y4517D01*
X73402Y5152D02*
X73998Y5748D01*
X73402Y4433D02*
X73998Y5030D01*
X73402Y5870D02*
X73998Y6467D01*
X73208Y6395D02*
X73998Y7185D01*
X73402Y5833D02*
X73998Y5236D01*
X70402Y12425D02*
X73998Y8828D01*
X70402Y13143D02*
X73998Y9546D01*
X70083Y12025D02*
X73998Y8109D01*
X68967Y7902D02*
X73998Y12933D01*
X69576Y11518D02*
X70402Y12344D01*
X69686Y7902D02*
X73998Y12214D01*
X71123Y7902D02*
X73998Y10777D01*
X71701Y7902D02*
X73402Y6201D01*
Y4396D02*
X73946Y3852D01*
X68299Y7902D02*
X71701D01*
X67924Y11518D02*
X69576D01*
X70404Y7902D02*
X73998Y11496D01*
X73402Y3715D02*
X73994Y4307D01*
X73402Y3677D02*
X73806Y3273D01*
X73402Y2996D02*
X73859Y3454D01*
X73402Y2959D02*
X73600Y2760D01*
X71504Y1098D02*
X73402Y2996D01*
Y2799D02*
Y6201D01*
X73122Y2520D02*
X73340Y2302D01*
X72763Y2161D02*
X73031Y1892D01*
X72517Y1393D02*
X73107Y1983D01*
X72404Y1801D02*
X72676Y1529D01*
X72045Y1442D02*
X72275Y1212D01*
X71701Y1098D02*
X73402Y2799D01*
X69515Y1098D02*
X70110Y503D01*
X68796Y1098D02*
X69393Y502D01*
X69470D02*
X70067Y1098D01*
X68033Y502D02*
X68630Y1098D01*
X67315Y502D02*
X68105Y1292D01*
X68752Y502D02*
X69348Y1098D01*
X71670D02*
X71826Y943D01*
X70952Y1098D02*
X71323Y727D01*
X71046Y641D02*
X71504Y1098D01*
X68299D02*
X71701D01*
X70233D02*
X70758Y574D01*
X70193Y506D02*
X70785Y1098D01*
X67098Y12344D02*
X67924Y11518D01*
X67098Y12344D02*
Y12568D01*
X66666D02*
X71333Y7902D01*
X65947Y12568D02*
X70614Y7902D01*
X65229Y12568D02*
X69896Y7902D01*
X64510Y12568D02*
X69177Y7902D01*
X60602Y6002D02*
X67098Y12498D01*
X64131Y12229D02*
X68459Y7902D01*
X63772Y11870D02*
X68020Y7622D01*
X66598Y6201D02*
X68299Y7902D01*
X63413Y11511D02*
X67661Y7263D01*
X63054Y11151D02*
X67301Y6904D01*
X60773Y5454D02*
X67381Y12062D01*
X64471Y13772D02*
X67098D01*
X63869D02*
X64471D01*
X62631Y13729D02*
X63229Y13131D01*
X60602Y8699D02*
X64471Y12568D01*
X59699Y9602D02*
X63568Y13471D01*
X60602Y8157D02*
X65013Y12568D01*
X64471D02*
X67098D01*
X62695Y10792D02*
X66942Y6545D01*
X62335Y10433D02*
X66598Y6170D01*
X60602Y6720D02*
X66450Y12568D01*
X60602Y7438D02*
X65732Y12568D01*
X61976Y10074D02*
X66598Y5452D01*
X61152Y4396D02*
X68274Y11518D01*
X61132Y5095D02*
X67740Y11703D01*
X60849Y502D02*
X73998Y13651D01*
X60602Y7138D02*
X67238Y502D01*
X57975D02*
X68992Y11518D01*
X60602Y8575D02*
X68675Y502D01*
X60602Y7856D02*
X67956Y502D01*
X66598Y2799D02*
X68299Y1098D01*
X65878Y502D02*
X67387Y2011D01*
X66596Y502D02*
X67746Y1651D01*
X64441Y502D02*
X66669Y2729D01*
X61567Y502D02*
X66598Y5533D01*
X65160Y502D02*
X67028Y2370D01*
X61258Y9355D02*
X66598Y4015D01*
X61617Y9715D02*
X66598Y4733D01*
Y2799D02*
Y6201D01*
X60899Y8996D02*
X66598Y3296D01*
X60602Y6419D02*
X66519Y502D01*
X60602Y5701D02*
X65801Y502D01*
X63004D02*
X66598Y4096D01*
X62286Y502D02*
X66598Y4814D01*
X63723Y502D02*
X66598Y3377D01*
X61047Y3819D02*
X64364Y502D01*
X60687Y3460D02*
X63646Y502D01*
X61152Y4433D02*
X65083Y502D01*
X62025Y21520D02*
X63148Y20396D01*
X62078Y21520D02*
X63148Y20449D01*
X61394Y21432D02*
X63148Y19678D01*
X59302Y19070D02*
X61751Y21520D01*
X57646Y21006D02*
X59898Y23259D01*
X58349Y20941D02*
X59398Y21991D01*
X57952Y20594D02*
X59398Y22041D01*
X59252Y20039D02*
X60301Y21088D01*
X59252Y19877D02*
Y20039D01*
X59302Y19788D02*
X60601Y21088D01*
X58048Y20641D02*
X58349Y20941D01*
X58048Y20641D02*
X58349Y20941D01*
X57952Y19875D02*
X58048Y19972D01*
Y20039D02*
Y20641D01*
X57852Y20720D02*
X57952Y20620D01*
X58048Y20039D02*
Y20641D01*
X57852Y20720D02*
Y20801D01*
X57551Y21102D02*
X57852Y20801D01*
Y20720D02*
X57952Y20620D01*
X58048Y19877D02*
Y20039D01*
X57952Y20564D02*
X58048Y20467D01*
X57952Y18799D02*
Y20018D01*
Y20620D01*
Y20018D02*
Y20620D01*
X57651Y18498D02*
X57952Y18799D01*
X60301Y21088D02*
X63148Y18241D01*
X59302Y18352D02*
X62274Y21324D01*
X59583Y20370D02*
X63148Y16804D01*
X59942Y20729D02*
X63148Y17523D01*
X58652Y16265D02*
X62992Y20605D01*
X58652Y16983D02*
X62633Y20965D01*
X58602Y15496D02*
X63148Y20043D01*
X59302Y19214D02*
X62807Y15709D01*
X59302Y18496D02*
X62447Y15350D01*
X58755Y18323D02*
X62088Y14991D01*
X58602Y14059D02*
X63148Y18606D01*
X58037Y18323D02*
X61729Y14631D01*
X57699Y10602D02*
X63148Y16051D01*
X59302Y18323D02*
Y19877D01*
X57998Y18323D02*
X59302D01*
X58627Y17677D02*
X59273Y18323D01*
X57998D02*
Y19877D01*
X57756Y18604D02*
X57998Y18362D01*
X57908Y17677D02*
X58555Y18323D01*
X58652Y16990D02*
X61370Y14272D01*
X58652Y16123D02*
Y17677D01*
Y16272D02*
X61011Y13913D01*
X58602Y14301D02*
Y16123D01*
X57398D02*
Y16298D01*
X58602Y15604D02*
X60651Y13554D01*
X56652Y22583D02*
X58321Y20913D01*
X56648Y20801D02*
X56949Y21102D01*
X56648Y20118D02*
X56748Y20018D01*
X56648Y20118D02*
X56748Y20018D01*
X55602Y20399D02*
X59898Y24696D01*
X56312Y21485D02*
X56822Y20975D01*
X55602Y20759D02*
X56748Y19612D01*
Y18799D02*
X57049Y18498D01*
X56748Y18799D02*
Y20018D01*
X57049Y18498D02*
X57651D01*
X55602Y18244D02*
X56748Y19390D01*
X55602Y20040D02*
X56748Y18894D01*
X55864Y17788D02*
X56812Y18736D01*
X55826Y20998D02*
X56652Y21824D01*
X55953Y21126D02*
X56648Y20430D01*
X55602Y18051D02*
Y20998D01*
X54174D02*
X54398D01*
X53348Y21824D02*
X54174Y20998D01*
X54398Y18051D02*
Y20998D01*
X56648Y20118D02*
Y20720D01*
Y20801D01*
Y20118D02*
Y20720D01*
X55602Y19681D02*
X56648Y20727D01*
X55602Y20998D02*
X55826D01*
X55602Y18962D02*
X56703Y20063D01*
X57348Y17677D02*
X58652D01*
X57144Y18498D02*
X57965Y17677D01*
X57015Y17502D02*
X57998Y18485D01*
X57348Y17502D02*
Y17677D01*
X56151Y17502D02*
X57348D01*
X55602Y19322D02*
X57348Y17575D01*
X56151Y16298D02*
X57348D01*
Y16123D02*
Y16298D01*
X57188D02*
X57348Y16138D01*
X57398Y14301D02*
Y16123D01*
X55752Y16298D02*
X57398Y14652D01*
X56470Y16298D02*
X57398Y15370D01*
X52463Y10077D02*
X57398Y15012D01*
X55602Y18604D02*
X56704Y17502D01*
X55602Y18051D02*
X56151Y17502D01*
X56296D02*
X57293Y18498D01*
X54398Y17449D02*
Y18051D01*
Y17449D02*
Y18051D01*
Y17449D02*
X54699Y17148D01*
X55549Y16298D02*
X56151D01*
X55248Y16599D02*
X55549Y16298D01*
X56151D01*
X54699Y17148D02*
X55248Y16599D01*
X54398Y17449D02*
X54699Y17148D01*
X55248Y16599D02*
X55549Y16298D01*
X62272Y13370D02*
X62870Y12772D01*
X61913Y13011D02*
X62511Y12413D01*
X61554Y12651D02*
X62151Y12054D01*
X61195Y12292D02*
X61792Y11695D01*
X58602Y14885D02*
X60292Y13195D01*
X58602Y14167D02*
X59933Y12835D01*
X60835Y11933D02*
X61433Y11335D01*
X60476Y11574D02*
X61074Y10976D01*
X60117Y11215D02*
X60715Y10617D01*
X59758Y10855D02*
X60355Y10258D01*
X59399Y10496D02*
X59996Y9899D01*
X59398Y9301D02*
X59699Y9602D01*
X59398Y9301D02*
X59699Y9602D01*
X58602Y13699D02*
Y14301D01*
Y13699D02*
Y14301D01*
X58476Y13574D02*
X59574Y12476D01*
X58301Y13398D02*
X58602Y13699D01*
X58301Y13398D02*
X58602Y13699D01*
X58117Y13215D02*
X59215Y12117D01*
X59039Y10137D02*
X59637Y9539D01*
X59398Y8699D02*
Y9301D01*
Y8699D02*
Y9301D01*
X58680Y9778D02*
X59398Y9059D01*
X57758Y12855D02*
X58855Y11758D01*
X58602Y9138D02*
X59398Y8341D01*
X60602Y5626D02*
X61152Y5076D01*
X60602Y5626D02*
Y8699D01*
X60576Y3348D02*
X61152Y3924D01*
Y5076D01*
X58695Y5532D02*
X59398Y6235D01*
Y5626D02*
Y8699D01*
X59000Y5227D02*
X59398Y5626D01*
X59424Y3348D02*
X60576D01*
X59000Y3773D02*
X59424Y3348D01*
X60081D02*
X62927Y502D01*
X58610Y3382D02*
X61490Y502D01*
X57925Y3348D02*
X60772Y502D01*
X58969Y3742D02*
X62209Y502D01*
X58602Y7701D02*
X59398Y6904D01*
X58602Y7594D02*
X59398Y8390D01*
X58602Y6875D02*
X59398Y7672D01*
X58602Y8419D02*
X59398Y7623D01*
X58602Y8312D02*
X59398Y9109D01*
X58602Y5626D02*
Y9699D01*
Y6157D02*
X59398Y6954D01*
X58602Y6264D02*
X59319Y5547D01*
X58602Y5626D02*
X59000Y5227D01*
X58602Y6983D02*
X59398Y6186D01*
X57424Y3348D02*
X58576D01*
X59000Y3773D01*
X57399Y12496D02*
X58496Y11399D01*
X57039Y12137D02*
X58137Y11039D01*
X56680Y11778D02*
X57778Y10680D01*
X57398Y10301D02*
X57699Y10602D01*
X56321Y11419D02*
X57419Y10321D01*
X53174Y10077D02*
X57398Y14301D01*
X54077Y9174D02*
X58301Y13398D01*
X57398Y10301D02*
X57699Y10602D01*
X57398Y5626D02*
Y9699D01*
X56460Y5452D02*
X57398Y6390D01*
X54166Y9263D02*
X57398Y6031D01*
X54525Y9622D02*
X57398Y6749D01*
X55741Y5452D02*
X57398Y7109D01*
Y9699D02*
Y10301D01*
Y9699D02*
Y10301D01*
X55962Y11059D02*
X57398Y9623D01*
X55243Y10341D02*
X57398Y8186D01*
X55603Y10700D02*
X57398Y8904D01*
X54884Y9982D02*
X57398Y7467D01*
X53806Y8904D02*
X57242Y5469D01*
X53776Y8873D02*
X54077Y9174D01*
X55524Y5452D02*
X56476D01*
X53174Y8873D02*
X53776D01*
X53174D02*
X53776D01*
X54077Y9174D01*
X56850Y5077D02*
X57398Y5626D01*
X56827Y5101D02*
X57398Y5672D01*
X56741Y3814D02*
X60054Y502D01*
X56850Y3923D02*
X57424Y3348D01*
X53665Y502D02*
X56968Y3805D01*
X53119Y8873D02*
X56882Y5110D01*
X55820Y502D02*
X59046Y3727D01*
X56538Y502D02*
X59405Y3368D01*
X56288Y3548D02*
X59335Y502D01*
X57257D02*
X60104Y3348D01*
X55102Y502D02*
X57948Y3348D01*
X54383Y502D02*
X57327Y3445D01*
X55570Y3548D02*
X58617Y502D01*
X56476Y5452D02*
X56850Y5077D01*
X55048Y4976D02*
X55524Y5452D01*
X55048Y4024D02*
Y4976D01*
Y4070D02*
X55570Y3548D01*
X55524D02*
X56476D01*
X56850Y3923D01*
X55048Y4024D02*
X55524Y3548D01*
X52946Y502D02*
X55993Y3548D01*
X48725Y53498D02*
X50624Y51599D01*
X48007D02*
X49906Y53498D01*
X49444D02*
X51343Y51599D01*
X48726D02*
X50625Y53498D01*
X47289Y51599D02*
X49188Y53498D01*
X47288D02*
X49187Y51599D01*
X48007Y53498D02*
X49906Y51599D01*
X51599D02*
X53498Y53498D01*
X50881Y51599D02*
X52780Y53498D01*
X51599Y51599D02*
X53498Y53498D01*
X50163Y51599D02*
X52062Y53498D01*
X49444Y51599D02*
X51343Y53498D01*
X50162D02*
X52076Y51584D01*
X43697Y51599D02*
X45596Y53498D01*
X43696D02*
X45595Y51599D01*
X44415D02*
X46314Y53498D01*
X44415D02*
X46314Y51599D01*
X42978Y53498D02*
X44877Y51599D01*
X42260D02*
X44159Y53498D01*
X42978Y51599D02*
X44877Y53498D01*
X46570D02*
X48469Y51599D01*
X45852D02*
X47751Y53498D01*
X46571Y51599D02*
X48469Y53498D01*
X45134Y51599D02*
X47033Y53498D01*
X45133D02*
X47032Y51599D01*
X45852Y53498D02*
X47750Y51599D01*
X52409Y43788D02*
X62119Y53498D01*
X52409Y44507D02*
X61401Y53498D01*
X52409Y41633D02*
X64275Y53498D01*
X52409Y43070D02*
X62838Y53498D01*
X51599D02*
X66646Y38452D01*
X50880Y53498D02*
X65927Y38452D01*
X52317Y53498D02*
X68414Y37402D01*
X52409Y39478D02*
X61748Y48817D01*
X52409Y40196D02*
X61748Y49535D01*
X52409Y49096D02*
X63054Y38452D01*
X52394Y51266D02*
X65209Y38452D01*
X52409Y50533D02*
X64490Y38452D01*
X52409Y49814D02*
X63772Y38452D01*
X52409Y46662D02*
X59246Y53498D01*
X52409Y47381D02*
X58527Y53498D01*
X52409Y45944D02*
X59964Y53498D01*
X52409Y50254D02*
X55654Y53498D01*
X52235Y51516D02*
X54217Y53498D01*
X52409Y48099D02*
X57809Y53498D01*
X52409Y45225D02*
X60683Y53498D01*
X52378Y51347D02*
X52409Y51190D01*
Y28000D02*
Y51190D01*
X52157Y51568D02*
X52290Y51480D01*
X52000Y51599D02*
X52157Y51568D01*
X52290Y51480D02*
X52378Y51347D01*
X39386Y51599D02*
X41285Y53498D01*
X39386D02*
X41285Y51599D01*
X40105D02*
X42004Y53498D01*
X40104D02*
X42003Y51599D01*
X38667Y53498D02*
X40566Y51599D01*
X37949D02*
X39848Y53498D01*
X38668Y51599D02*
X40567Y53498D01*
X41542Y51599D02*
X43440Y53498D01*
X41541D02*
X43440Y51599D01*
X42259Y53498D02*
X44158Y51599D01*
X4500Y53498D02*
X70000D01*
X40823D02*
X42721Y51599D01*
X40823D02*
X42722Y53498D01*
X35076Y51599D02*
X36975Y53498D01*
X35075D02*
X36974Y51599D01*
X35794Y53498D02*
X37693Y51599D01*
X32920Y53498D02*
X34819Y51599D01*
X32201Y53498D02*
X34100Y51599D01*
X33638Y53498D02*
X35537Y51599D01*
X37231D02*
X39130Y53498D01*
X37230D02*
X39129Y51599D01*
X37949Y53498D02*
X39848Y51599D01*
X36512Y53498D02*
X38411Y51599D01*
X35794D02*
X37693Y53498D01*
X36513Y51599D02*
X38412Y53498D01*
X34357Y51599D02*
X36256Y53498D01*
X34357D02*
X36256Y51599D01*
X33843Y51568D02*
X34000Y51599D01*
X31483Y53498D02*
X33627Y51355D01*
X28409Y47088D02*
X34819Y53498D01*
X28409Y47807D02*
X34101Y53498D01*
X28409Y46370D02*
X35538Y53498D01*
X34000Y51599D02*
X52000D01*
X33710Y51480D02*
X33843Y51568D01*
X33622Y51347D02*
X33710Y51480D01*
X33591Y51190D02*
X33622Y51347D01*
X28409Y43496D02*
X33591Y48677D01*
Y28000D02*
Y51190D01*
X30046Y53498D02*
X33591Y49954D01*
X30765Y53498D02*
X33591Y50673D01*
X29328Y53498D02*
X33591Y49236D01*
X27173Y53498D02*
X33591Y47080D01*
X28609Y53498D02*
X33591Y48517D01*
X26454Y53498D02*
X33591Y46362D01*
X28409Y44215D02*
X33591Y49396D01*
X28409Y50106D02*
X33591Y44925D01*
X28409Y49388D02*
X33591Y44207D01*
X28409Y50825D02*
X33591Y45644D01*
X28409Y45652D02*
X33591Y50833D01*
X28409Y44933D02*
X33591Y50114D01*
X52409Y46222D02*
X60180Y38452D01*
X52409Y45504D02*
X59461Y38452D01*
X52409Y44785D02*
X58743Y38452D01*
X52409Y44067D02*
X58025Y38452D01*
X52409Y38759D02*
X61648Y47998D01*
X52409Y47659D02*
X61617Y38452D01*
X52409Y38041D02*
X61733Y47365D01*
X52409Y31135D02*
X54398Y29146D01*
X52409Y30138D02*
X54398Y32127D01*
X52409Y28702D02*
X54398Y30691D01*
X52409Y43348D02*
X57306Y38452D01*
X52409Y42630D02*
X55538Y39502D01*
X52409Y32572D02*
X54398Y30583D01*
X52409Y34449D02*
X54167Y36206D01*
X52409Y35886D02*
X53448Y36924D01*
X52409Y36164D02*
X54398Y34175D01*
X52409Y38319D02*
X53348Y37380D01*
X52409Y39038D02*
X53348Y38099D01*
X52409Y37601D02*
X54398Y35612D01*
X52409Y33290D02*
X54398Y31302D01*
X52409Y31575D02*
X54398Y33564D01*
X52409Y30857D02*
X54398Y32846D01*
X52409Y35446D02*
X54398Y33457D01*
X52409Y33731D02*
X54398Y35719D01*
X52409Y34727D02*
X54398Y32738D01*
X52409Y30417D02*
X54387Y28439D01*
X52409Y29698D02*
X54028Y28080D01*
X52409Y28980D02*
X53668Y27721D01*
X52409Y28261D02*
X53309Y27362D01*
X52405Y27979D02*
X54398Y29972D01*
X52378Y27843D02*
X52409Y28000D01*
X52290Y27710D02*
X52378Y27843D01*
X52261Y27691D02*
X52950Y27002D01*
X52157Y27622D02*
X52290Y27710D01*
X52056Y24304D02*
X53348Y23012D01*
X51697Y23945D02*
X53348Y22294D01*
X51644Y27591D02*
X52591Y26643D01*
X51338Y23586D02*
X54398Y20525D01*
X52000Y27591D02*
X52157Y27622D01*
X46615Y27591D02*
X50076Y24129D01*
X45896Y27591D02*
X49717Y23770D01*
X45178Y27591D02*
X49358Y23410D01*
X44459Y27591D02*
X48999Y23051D01*
X43741Y27591D02*
X48640Y22692D01*
X50925Y27591D02*
X52232Y26284D01*
X50207Y27591D02*
X51872Y25925D01*
X49488Y27591D02*
X51513Y25566D01*
X48770Y27591D02*
X51154Y25206D01*
X48051Y27591D02*
X50795Y24847D01*
X47333Y27591D02*
X50436Y24488D01*
X28409Y34875D02*
X33591Y40056D01*
X28409Y40767D02*
X33591Y35586D01*
X28409Y34157D02*
X33591Y39338D01*
X28409Y40048D02*
X33591Y34867D01*
X28409Y41485D02*
X33591Y36304D01*
X28409Y36312D02*
X33591Y41493D01*
X28409Y35594D02*
X33591Y40775D01*
X28409Y37893D02*
X33591Y32712D01*
X28409Y32720D02*
X33591Y37901D01*
X28409Y32002D02*
X33591Y37183D01*
X28409Y33438D02*
X33591Y38619D01*
X28409Y39330D02*
X33591Y34149D01*
X28409Y38612D02*
X33591Y33431D01*
X28409Y39186D02*
X33591Y44367D01*
X28409Y45077D02*
X33591Y39896D01*
X28409Y44359D02*
X33591Y39178D01*
X28409Y45796D02*
X33591Y40615D01*
X28409Y48669D02*
X33591Y43488D01*
X28409Y39904D02*
X33591Y45085D01*
X28409Y37031D02*
X33591Y42212D01*
X28409Y42922D02*
X33591Y37741D01*
X28409Y42204D02*
X33591Y37023D01*
X28409Y43641D02*
X33591Y38459D01*
X28409Y38467D02*
X33591Y43648D01*
X28409Y37749D02*
X33591Y42930D01*
X39431Y27591D02*
X46484Y20537D01*
X33843Y27622D02*
X34000Y27591D01*
X38712D02*
X46125Y20177D01*
X37994Y27591D02*
X45766Y19818D01*
X33622Y27843D02*
X33710Y27710D01*
X33591Y28000D02*
X33622Y27843D01*
X33710Y27710D02*
X33843Y27622D01*
X43023Y27591D02*
X48280Y22333D01*
X42304Y27591D02*
X47921Y21974D01*
X41586Y27591D02*
X47562Y21614D01*
X34000Y27591D02*
X52000D01*
X40867D02*
X47203Y21255D01*
X40149Y27591D02*
X46844Y20896D01*
X28409Y35738D02*
X33591Y30557D01*
X28409Y30565D02*
X33591Y35746D01*
X28409Y29846D02*
X33591Y35027D01*
X28409Y31283D02*
X33591Y36464D01*
X28409Y37175D02*
X33591Y31994D01*
X28409Y36456D02*
X33591Y31275D01*
X28409Y28409D02*
X33591Y33591D01*
X28409Y28409D02*
X33591Y33591D01*
X28409Y33583D02*
X33591Y28402D01*
X28409Y29128D02*
X33591Y34309D01*
X28409Y35019D02*
X33591Y29838D01*
X28409Y34301D02*
X33591Y29120D01*
X19270Y53498D02*
X21169Y51599D01*
X18552D02*
X20451Y53498D01*
X19988D02*
X21887Y51599D01*
X19271D02*
X21169Y53498D01*
X17834Y51599D02*
X19733Y53498D01*
X17833D02*
X19732Y51599D01*
X18552Y53498D02*
X20451Y51599D01*
X21426D02*
X23325Y53498D01*
X21425D02*
X23324Y51599D01*
X22144Y53498D02*
X24043Y51599D01*
X20707Y53498D02*
X22606Y51599D01*
X19989D02*
X21888Y53498D01*
X20707Y51599D02*
X22606Y53498D01*
X14959D02*
X16858Y51599D01*
X14242D02*
X16140Y53498D01*
X14960Y51599D02*
X16859Y53498D01*
X13523Y51599D02*
X15422Y53498D01*
X13523D02*
X15422Y51599D01*
X14241Y53498D02*
X16140Y51599D01*
X17115Y53498D02*
X19014Y51599D01*
X16397D02*
X18296Y53498D01*
X17115Y51599D02*
X19014Y53498D01*
X15678Y51599D02*
X17577Y53498D01*
X15678D02*
X17577Y51599D01*
X16396Y53498D02*
X18295Y51599D01*
X28409Y50681D02*
X31227Y53498D01*
X28370Y51359D02*
X30509Y53498D01*
X28409Y49244D02*
X32664Y53498D01*
X28409Y49962D02*
X31946Y53498D01*
X27173Y51599D02*
X29072Y53498D01*
X26455Y51599D02*
X28354Y53498D01*
X27892Y51599D02*
X29791Y53498D01*
X28409Y48525D02*
X33383Y53498D01*
X28378Y51347D02*
X28409Y51190D01*
Y28000D02*
Y51190D01*
X28290Y51480D02*
X28378Y51347D01*
X28157Y51568D02*
X28290Y51480D01*
X27891Y53498D02*
X33591Y47799D01*
X23581Y51599D02*
X25480Y53498D01*
X23580D02*
X25479Y51599D01*
X24299Y53498D02*
X26198Y51599D01*
X22862Y53498D02*
X24761Y51599D01*
X22144D02*
X24043Y53498D01*
X22863Y51599D02*
X24762Y53498D01*
X25736Y51599D02*
X27635Y53498D01*
X25736D02*
X27635Y51599D01*
X28000D02*
X28157Y51568D01*
X25017Y53498D02*
X26916Y51599D01*
X24299D02*
X26198Y53498D01*
X25018Y51599D02*
X26917Y53498D01*
X10649D02*
X12548Y51599D01*
X7280Y51822D02*
X8956Y53498D01*
X11368Y51599D02*
X13267Y53498D01*
X11367D02*
X13266Y51599D01*
X6562Y52541D02*
X7519Y53498D01*
X6203Y52900D02*
X6801Y53498D01*
X6921Y52181D02*
X8238Y53498D01*
X12804D02*
X14703Y51599D01*
X12086D02*
X13985Y53498D01*
X12805Y51599D02*
X14704Y53498D01*
X10000Y51599D02*
X28000D01*
X2799Y52902D02*
X6201D01*
X12086Y53498D02*
X13985Y51599D01*
X4902Y53498D02*
X5498Y52902D01*
X4767D02*
X5364Y53498D01*
X5486Y52902D02*
X6083Y53498D01*
X4049Y52902D02*
X4646Y53498D01*
X3331Y52902D02*
X3879Y53450D01*
X4195Y53487D02*
X4780Y52902D01*
X3574Y53390D02*
X4062Y52902D01*
X3027Y53217D02*
X3343Y52902D01*
X2541Y52986D02*
X2712Y52814D01*
X2106Y52702D02*
X2353Y52455D01*
X1718Y52372D02*
X1994Y52096D01*
X1376Y51995D02*
X1634Y51737D01*
X9212Y53498D02*
X11111Y51599D01*
X8494Y53498D02*
X10393Y51599D01*
X9931Y53498D02*
X11829Y51599D01*
X7902Y50288D02*
X11112Y53498D01*
X7775D02*
X9761Y51513D01*
X7639Y51463D02*
X9675Y53498D01*
X7902Y51007D02*
X10393Y53498D01*
X10649Y51599D02*
X12548Y53498D01*
X9914Y51582D02*
X11830Y53498D01*
X9843Y51568D02*
X10000Y51599D01*
X9710Y51480D02*
X9843Y51568D01*
X9622Y51347D02*
X9710Y51480D01*
X9591Y51190D02*
X9622Y51347D01*
X6338Y53498D02*
X9591Y50246D01*
X7057Y53498D02*
X9591Y50965D01*
X5620Y53498D02*
X9591Y49528D01*
X856Y51145D02*
X2855Y53144D01*
X1098Y51201D02*
X2799Y52902D01*
X7902Y49570D02*
X9608Y51276D01*
X7902Y47799D02*
Y51201D01*
X9591Y28000D02*
Y51190D01*
X6201Y52902D02*
X7902Y51201D01*
X1080Y51572D02*
X1275Y51377D01*
X1098Y47799D02*
Y51201D01*
X7902Y48343D02*
X9591Y46654D01*
X7902Y49062D02*
X9591Y47373D01*
X28409Y47951D02*
X33591Y42770D01*
X28409Y42778D02*
X33591Y47959D01*
X7814Y47712D02*
X9591Y45936D01*
X7902Y49780D02*
X9591Y48091D01*
X7455Y47353D02*
X9591Y45217D01*
X28409Y42059D02*
X33591Y47241D01*
X7096Y46994D02*
X9591Y44499D01*
X28409Y47233D02*
X33591Y42051D01*
X6378Y46275D02*
X9591Y43062D01*
X6737Y46634D02*
X9591Y43780D01*
X5836Y46098D02*
X9591Y42344D01*
X7902Y48852D02*
X9591Y50541D01*
X835Y51099D02*
X1098Y50836D01*
X7902Y50498D02*
X9591Y48809D01*
X647Y50569D02*
X1098Y50117D01*
X550Y50121D02*
X1098Y50669D01*
X529Y49968D02*
X1098Y49399D01*
X7902Y48133D02*
X9591Y49822D01*
X2799Y46098D02*
X6201D01*
X7902Y47799D01*
X1098Y47962D02*
X2962Y46098D01*
X1098Y47799D02*
X2799Y46098D01*
X502Y43607D02*
X2993Y46098D01*
X28409Y46514D02*
X33591Y41333D01*
X28409Y41341D02*
X33591Y46522D01*
X28409Y40623D02*
X33591Y45804D01*
X28378Y27843D02*
X28409Y28000D01*
X9622Y27843D02*
X9710Y27710D01*
X9591Y28000D02*
X9622Y27843D01*
X502Y22054D02*
X9591Y31143D01*
X28290Y27710D02*
X28378Y27843D01*
X28157Y27622D02*
X28290Y27710D01*
X28000Y27591D02*
X28157Y27622D01*
X9843D02*
X10000Y27591D01*
X9710Y27710D02*
X9843Y27622D01*
X10000Y27591D02*
X28000D01*
X4399Y46098D02*
X9591Y40907D01*
X5117Y46098D02*
X9591Y41625D01*
X3681Y46098D02*
X9591Y40188D01*
X502Y45685D02*
X9591Y36596D01*
X2962Y46098D02*
X9591Y39470D01*
X502Y36423D02*
X9591Y45512D01*
X502Y43530D02*
X9591Y34441D01*
X502Y34986D02*
X9591Y44075D01*
X502Y34267D02*
X9591Y43356D01*
X502Y35704D02*
X9591Y44793D01*
X502Y44967D02*
X9591Y35878D01*
X502Y44248D02*
X9591Y35159D01*
X502Y47122D02*
X9591Y38033D01*
X502Y38578D02*
X9591Y47667D01*
X502Y46404D02*
X9591Y37315D01*
X502Y37860D02*
X9591Y46948D01*
X502Y39296D02*
X9591Y48385D01*
X502Y40015D02*
X9591Y49104D01*
X502Y47840D02*
X9591Y38752D01*
X502Y33549D02*
X9591Y42638D01*
X502Y42812D02*
X9591Y33723D01*
X502Y42093D02*
X9591Y33004D01*
X502Y40733D02*
X5867Y46098D01*
X502Y41452D02*
X5148Y46098D01*
X502Y37141D02*
X9591Y46230D01*
X502Y47917D02*
X1098Y48514D01*
X502Y48559D02*
X1098Y47962D01*
X502Y47199D02*
X1100Y47797D01*
X502Y49277D02*
X1098Y48681D01*
X502Y49354D02*
X1098Y49951D01*
X502Y48636D02*
X1098Y49233D01*
X502Y42888D02*
X3712Y46098D01*
X502Y44325D02*
X2537Y46361D01*
X502Y42170D02*
X4430Y46098D01*
X502Y45762D02*
X1819Y47079D01*
X502Y46481D02*
X1459Y47438D01*
X502Y45044D02*
X2178Y46720D01*
X502Y26365D02*
X9591Y35454D01*
X502Y27083D02*
X9591Y36172D01*
X502Y24928D02*
X9591Y34017D01*
X502Y25646D02*
X9591Y34735D01*
X502Y37064D02*
X9597Y27969D01*
X502Y28520D02*
X9591Y37609D01*
X502Y27802D02*
X9591Y36891D01*
X502Y20617D02*
X9591Y29706D01*
X502Y21336D02*
X9591Y30425D01*
X502Y19899D02*
X9591Y28988D01*
X502Y23491D02*
X9591Y32580D01*
X502Y24209D02*
X9591Y33298D01*
X502Y22773D02*
X9591Y31862D01*
X502Y31394D02*
X9591Y40483D01*
X502Y40656D02*
X9591Y31567D01*
X502Y39938D02*
X9591Y30849D01*
X502Y41375D02*
X9591Y32286D01*
X502Y32831D02*
X9591Y41919D01*
X502Y32112D02*
X9591Y41201D01*
X502Y29238D02*
X9591Y38327D01*
X502Y38501D02*
X9591Y29412D01*
X502Y37783D02*
X9591Y28694D01*
X502Y39219D02*
X9591Y30130D01*
X502Y30675D02*
X9591Y39764D01*
X502Y29957D02*
X9591Y39046D01*
X49542Y21790D02*
X57215Y14117D01*
X49183Y21430D02*
X56855Y13758D01*
X48824Y21071D02*
X56496Y13399D01*
X48464Y20712D02*
X56137Y13039D01*
X48105Y20353D02*
X55778Y12680D01*
X47746Y19994D02*
X55419Y12321D01*
X47387Y19634D02*
X55059Y11962D01*
X48468Y11110D02*
X54603Y17245D01*
X48108Y11469D02*
X54398Y17759D01*
X48827Y10751D02*
X54962Y16886D01*
X47028Y19275D02*
X54700Y11602D01*
X46729Y11527D02*
X54398Y19196D01*
X47448Y11527D02*
X54398Y18477D01*
X50979Y23226D02*
X54398Y19807D01*
X37275Y27591D02*
X45407Y19459D01*
X36557Y27591D02*
X45047Y19100D01*
X35838Y27591D02*
X44688Y18741D01*
X35120Y27591D02*
X44329Y18381D01*
X34402Y27591D02*
X43970Y18022D01*
X50260Y22508D02*
X54398Y18370D01*
X50620Y22867D02*
X54398Y19088D01*
X49901Y22149D02*
X54398Y17652D01*
X46668Y18916D02*
X54341Y11243D01*
X46309Y18557D02*
X53982Y10884D01*
X45950Y18197D02*
X53622Y10525D01*
X34840Y8977D02*
X54398Y28535D01*
X34121Y8977D02*
X54398Y29254D01*
X35827Y8074D02*
X55301Y27548D01*
X34924Y8977D02*
X54398Y28451D01*
X32831Y502D02*
X53751Y21422D01*
X32112Y502D02*
X53392Y21781D01*
X33549Y502D02*
X54110Y21063D01*
X46481Y502D02*
X63148Y17169D01*
X49002Y10207D02*
X55321Y16526D01*
X47199Y502D02*
X63148Y16451D01*
X34986Y502D02*
X54398Y19914D01*
X34267Y502D02*
X54398Y20633D01*
X45762Y502D02*
X63148Y17888D01*
X32685Y8977D02*
X51298Y27591D01*
X31966Y8977D02*
X50580Y27591D01*
X33403Y8977D02*
X52021Y27595D01*
X31248Y8977D02*
X49862Y27591D01*
X30529Y8977D02*
X49143Y27591D01*
X30675Y502D02*
X53348Y23175D01*
X45591Y17838D02*
X53263Y10166D01*
X44872Y17120D02*
X51915Y10077D01*
X45231Y17479D02*
X52634Y10077D01*
X44513Y16761D02*
X51197Y10077D01*
X44154Y16401D02*
X50479Y10077D01*
X31394Y502D02*
X53348Y22456D01*
X28409Y30709D02*
X42533Y16585D01*
X28409Y29991D02*
X42174Y16226D01*
X28409Y29272D02*
X41815Y15867D01*
X28409Y28554D02*
X41455Y15508D01*
X28409Y32864D02*
X43611Y17663D01*
X28409Y32146D02*
X43251Y17304D01*
X28409Y31427D02*
X42892Y16945D01*
X28382Y27863D02*
X41096Y15149D01*
X27936Y27591D02*
X40737Y14789D01*
X27217Y27591D02*
X40378Y14430D01*
X26499Y27591D02*
X40019Y14071D01*
X25780Y27591D02*
X39659Y13712D01*
X25062Y27591D02*
X39300Y13352D01*
X20033Y27591D02*
X36786Y10838D01*
X19315Y27591D02*
X36426Y10479D01*
X18596Y27591D02*
X36067Y10120D01*
X17878Y27591D02*
X35708Y9760D01*
X16802Y10336D02*
X34056Y27591D01*
X16802Y9617D02*
X34775Y27591D01*
X24344D02*
X38941Y12993D01*
X23625Y27591D02*
X38582Y12634D01*
X22907Y27591D02*
X38222Y12275D01*
X22188Y27591D02*
X37863Y11916D01*
X21470Y27591D02*
X37504Y11556D01*
X20752Y27591D02*
X37145Y11197D01*
X28520Y502D02*
X65267Y37248D01*
X25500Y8977D02*
X44114Y27591D01*
X29238Y502D02*
X65985Y37248D01*
X29957Y502D02*
X59598Y30143D01*
X24063Y8977D02*
X42677Y27591D01*
X23345Y8977D02*
X41959Y27591D01*
X24782Y8977D02*
X43396Y27591D01*
X29092Y8977D02*
X47706Y27591D01*
X28374Y8977D02*
X46988Y27591D01*
X29811Y8977D02*
X48425Y27591D01*
X26937Y8977D02*
X45551Y27591D01*
X26219Y8977D02*
X44833Y27591D01*
X27656Y8977D02*
X46269Y27591D01*
X17598Y8977D02*
X36212Y27591D01*
X17159D02*
X35349Y9401D01*
X18316Y8977D02*
X36930Y27591D01*
X16441D02*
X34990Y9042D01*
X15723Y27591D02*
X34337Y8977D01*
X16879D02*
X35493Y27591D01*
X21908Y8977D02*
X40522Y27591D01*
X21190Y8977D02*
X39804Y27591D01*
X22627Y8977D02*
X41241Y27591D01*
X19753Y8977D02*
X38367Y27591D01*
X19035Y8977D02*
X37648Y27591D01*
X20471Y8977D02*
X39085Y27591D01*
X50308Y10077D02*
X56530Y16298D01*
X49590Y10077D02*
X55812Y16298D01*
X51745Y10077D02*
X57398Y15730D01*
X51027Y10077D02*
X57248Y16298D01*
X49002Y10077D02*
X53174D01*
X43795Y16042D02*
X49760Y10077D01*
X49002Y8770D02*
X49105Y8873D01*
X52400D02*
X55822Y5452D01*
X49002Y8873D02*
X53174D01*
X51682D02*
X55314Y5241D01*
X49002Y7333D02*
X50542Y8873D01*
X49002Y8052D02*
X49823Y8873D01*
X49002Y6615D02*
X51260Y8873D01*
X46149Y11527D02*
X48051D01*
X43435Y15683D02*
X47592Y11527D01*
X45198Y10576D02*
X46149Y11527D01*
X43076Y15324D02*
X46873Y11527D01*
X42717Y14965D02*
X46155Y11527D01*
X42358Y14605D02*
X45793Y11170D01*
X49002Y10077D02*
Y10576D01*
X48051Y11527D02*
X49002Y10576D01*
Y6174D02*
Y8873D01*
X45198Y6174D02*
X46149Y5223D01*
X45198Y6174D02*
Y10576D01*
X46149Y5223D02*
X48051D01*
X50245Y8873D02*
X55048Y4070D01*
X50963Y8873D02*
X55048Y4788D01*
X49527Y8873D02*
X57898Y502D01*
X49354D02*
X57398Y8546D01*
X48636Y502D02*
X57398Y9264D01*
X47917Y502D02*
X57398Y9983D01*
X49002Y8680D02*
X57180Y502D01*
X51510D02*
X55048Y4040D01*
X50791Y502D02*
X55048Y4759D01*
X52228Y502D02*
X55399Y3673D01*
X49002Y7962D02*
X56462Y502D01*
X49002Y7243D02*
X55743Y502D01*
X50073D02*
X57398Y7827D01*
X48818Y5990D02*
X54306Y502D01*
X48051Y5223D02*
X49002Y6174D01*
Y6525D02*
X55025Y502D01*
X44325D02*
X52697Y8873D01*
X43607Y502D02*
X51979Y8873D01*
X45044Y502D02*
X53416Y8873D01*
X48099Y5272D02*
X52869Y502D01*
X47429Y5223D02*
X52151Y502D01*
X48458Y5631D02*
X53588Y502D01*
X42888D02*
X47610Y5223D01*
X42170Y502D02*
X46892Y5223D01*
X46711D02*
X51433Y502D01*
X41999Y14246D02*
X45434Y10811D01*
X41639Y13887D02*
X45198Y10328D01*
X40921Y13169D02*
X45198Y8891D01*
X41280Y13528D02*
X45198Y9609D01*
X40202Y12450D02*
X45198Y7454D01*
X40562Y12809D02*
X45198Y8173D01*
X39843Y12091D02*
X45198Y6736D01*
X35533Y7780D02*
X42812Y502D01*
X34821Y7773D02*
X42093Y502D01*
X35704D02*
X45198Y9996D01*
X33384Y7773D02*
X40656Y502D01*
X32666Y7773D02*
X39938Y502D01*
X34103Y7773D02*
X41375Y502D01*
X35526Y7773D02*
X35827Y8074D01*
X34924Y7773D02*
X35526D01*
X35827Y8074D01*
X16802Y7773D02*
X34924D01*
X16802Y8977D02*
X34924D01*
X27637Y7773D02*
X34909Y502D01*
X31229Y7773D02*
X38501Y502D01*
X34924Y7773D02*
X35526D01*
X31948D02*
X39219Y502D01*
X29792Y7773D02*
X37064Y502D01*
X29074Y7773D02*
X36346Y502D01*
X30511Y7773D02*
X37783Y502D01*
X38766Y11013D02*
X49277Y502D01*
X38406Y10654D02*
X48559Y502D01*
X39484Y11732D02*
X50714Y502D01*
X39125Y11372D02*
X49996Y502D01*
X37688Y9936D02*
X47122Y502D01*
X37329Y9576D02*
X46404Y502D01*
X38047Y10295D02*
X47840Y502D01*
X40733D02*
X45802Y5570D01*
X40015Y502D02*
X45443Y5930D01*
X41452Y502D02*
X46173Y5223D01*
X4500Y502D02*
X70000D01*
X36970Y9217D02*
X45685Y502D01*
X39296D02*
X45198Y6404D01*
X37141Y502D02*
X45198Y8559D01*
X36610Y8858D02*
X44967Y502D01*
X37860D02*
X45198Y7840D01*
X36251Y8499D02*
X44248Y502D01*
X35892Y8140D02*
X43530Y502D01*
X36423D02*
X45198Y9277D01*
X28356Y7773D02*
X35627Y502D01*
X27802D02*
X35073Y7773D01*
X38578Y502D02*
X45198Y7122D01*
X26919Y7773D02*
X34190Y502D01*
X26365D02*
X33637Y7773D01*
X27083Y502D02*
X34355Y7773D01*
X15837Y11527D02*
X33591Y29280D01*
X15119Y11527D02*
X33591Y29998D01*
X16562Y10815D02*
X33617Y27869D01*
X16203Y11174D02*
X33591Y28562D01*
X14400Y11527D02*
X33591Y30717D01*
X9969Y27597D02*
X28589Y8977D01*
X10694Y27591D02*
X29308Y8977D01*
X14286Y27591D02*
X32900Y8977D01*
X13567Y27591D02*
X32181Y8977D01*
X15004Y27591D02*
X33618Y8977D01*
X12130Y27591D02*
X30744Y8977D01*
X11412Y27591D02*
X30026Y8977D01*
X12849Y27591D02*
X31463Y8977D01*
X5028Y7902D02*
X24717Y27591D01*
X12998Y10576D02*
X13949Y11527D01*
X5746Y7902D02*
X25435Y27591D01*
X3591Y7902D02*
X23280Y27591D01*
X2873Y7902D02*
X22562Y27591D01*
X4310Y7902D02*
X23998Y27591D01*
X16802Y9988D02*
X17813Y8977D01*
X16802D02*
Y10576D01*
Y9269D02*
X17094Y8977D01*
X15851Y11527D02*
X16802Y10576D01*
X13949Y11527D02*
X15851D01*
X502Y10483D02*
X3083Y7902D01*
X7410Y6692D02*
X33591Y32872D01*
X7051Y7051D02*
X27591Y27591D01*
X7902Y5746D02*
X33591Y31435D01*
X7770Y6333D02*
X33591Y32154D01*
X6692Y7410D02*
X26872Y27591D01*
X6333Y7770D02*
X26154Y27591D01*
X7051Y7051D02*
X27591Y27591D01*
X7902Y2873D02*
X12998Y7969D01*
X7902Y3591D02*
X12998Y8688D01*
X502Y14075D02*
X14075Y502D01*
X502Y16230D02*
X16230Y502D01*
X502Y15512D02*
X15512Y502D01*
X502Y14793D02*
X14793Y502D01*
X12998Y6174D02*
Y10576D01*
X502Y11201D02*
X3801Y7902D01*
X7902Y5028D02*
X12998Y10125D01*
X502Y13356D02*
X5956Y7902D01*
X502Y12638D02*
X5238Y7902D01*
X502Y11919D02*
X4519Y7902D01*
X5956D02*
X7902Y5956D01*
X6201Y7902D02*
X7902Y6201D01*
Y4310D02*
X12998Y9406D01*
X1098Y6201D02*
X2799Y7902D01*
X502Y9764D02*
X2582Y7684D01*
X1098Y6127D02*
X2873Y7902D01*
X502Y13433D02*
X14659Y27591D01*
X502Y14152D02*
X13941Y27591D01*
X502Y11996D02*
X16096Y27591D01*
X502Y12715D02*
X15377Y27591D01*
X502Y36346D02*
X27871Y8977D01*
X502Y35627D02*
X27152Y8977D01*
X502Y34909D02*
X26434Y8977D01*
X502Y26288D02*
X15263Y11527D01*
X502Y25569D02*
X14544Y11527D01*
X502Y9123D02*
X18969Y27591D01*
X502Y10559D02*
X17533Y27591D01*
X502Y11278D02*
X16814Y27591D01*
X502Y9841D02*
X18251Y27591D01*
X502Y16307D02*
X11785Y27591D01*
X502Y17025D02*
X11067Y27591D01*
X502Y15588D02*
X12504Y27591D01*
X502Y18462D02*
X9734Y27695D01*
X502Y19181D02*
X9591Y28269D01*
X502Y17744D02*
X10348Y27591D01*
X502Y23414D02*
X13169Y10747D01*
X502Y22696D02*
X12998Y10199D01*
X502Y21977D02*
X12998Y9481D01*
X502Y24851D02*
X13888Y11465D01*
X502Y14870D02*
X13222Y27591D01*
X502Y24133D02*
X13528Y11106D01*
X502Y32035D02*
X23560Y8977D01*
X502Y31317D02*
X22842Y8977D01*
X502Y30598D02*
X22123Y8977D01*
X502Y29880D02*
X21405Y8977D01*
X502Y34190D02*
X25715Y8977D01*
X502Y33472D02*
X24997Y8977D01*
X502Y32754D02*
X24279Y8977D01*
X502Y6967D02*
X21125Y27591D01*
X502Y7686D02*
X20406Y27591D01*
X502Y6249D02*
X21843Y27591D01*
X502Y29162D02*
X20687Y8977D01*
X502Y28443D02*
X19968Y8977D01*
X502Y8404D02*
X19688Y27591D01*
X502Y20540D02*
X12998Y8044D01*
X502Y21259D02*
X12998Y8762D01*
X502Y19822D02*
X12998Y7325D01*
X502Y27725D02*
X19250Y8977D01*
X502Y27006D02*
X18531Y8977D01*
X502Y4500D02*
Y49500D01*
Y9046D02*
X2222Y7325D01*
X502Y8327D02*
X1863Y6966D01*
X502Y16948D02*
X16948Y502D01*
X502Y18385D02*
X18385Y502D01*
X502Y19104D02*
X12998Y6607D01*
X502Y17667D02*
X17667Y502D01*
X15588D02*
X22860Y7773D01*
X14870Y502D02*
X22142Y7773D01*
X16861D02*
X24133Y502D01*
X16307D02*
X23579Y7773D01*
X13433Y502D02*
X20705Y7773D01*
X12715Y502D02*
X19987Y7773D01*
X14152Y502D02*
X21423Y7773D01*
X16802Y7114D02*
X23414Y502D01*
X16802Y6396D02*
X22696Y502D01*
X17025D02*
X24297Y7773D01*
X16194Y5567D02*
X21259Y502D01*
X15819Y5223D02*
X20540Y502D01*
X16553Y5926D02*
X21977Y502D01*
X16802Y6744D02*
X17831Y7773D01*
X16802Y7462D02*
X17113Y7773D01*
X16802Y6174D02*
Y7773D01*
X11278Y502D02*
X18550Y7773D01*
X12998Y6174D02*
X13949Y5223D01*
X11996Y502D02*
X19268Y7773D01*
X14382Y5223D02*
X19104Y502D01*
X15851Y5223D02*
X16802Y6174D01*
X15100Y5223D02*
X19822Y502D01*
X13949Y5223D02*
X15851D01*
X9841Y502D02*
X14563Y5223D01*
X10559Y502D02*
X15281Y5223D01*
X23327Y7773D02*
X30598Y502D01*
X22773D02*
X30044Y7773D01*
X24045D02*
X31317Y502D01*
X23491D02*
X30763Y7773D01*
X22054Y502D02*
X29326Y7773D01*
X21890D02*
X29162Y502D01*
X22608Y7773D02*
X29880Y502D01*
X25646D02*
X32918Y7773D01*
X25482D02*
X32754Y502D01*
X26200Y7773D02*
X33472Y502D01*
X24763Y7773D02*
X32035Y502D01*
X24209D02*
X31481Y7773D01*
X24928Y502D02*
X32200Y7773D01*
X19016D02*
X26288Y502D01*
X18462D02*
X25734Y7773D01*
X19181Y502D02*
X26452Y7773D01*
X17744Y502D02*
X25016Y7773D01*
X17579D02*
X24851Y502D01*
X18298Y7773D02*
X25569Y502D01*
X21171Y7773D02*
X28443Y502D01*
X20617D02*
X27889Y7773D01*
X21336Y502D02*
X28608Y7773D01*
X19899Y502D02*
X27171Y7773D01*
X19734D02*
X27006Y502D01*
X20453Y7773D02*
X27725Y502D01*
X7902Y2799D02*
Y6201D01*
X2799Y7902D02*
X6201D01*
Y1098D02*
X7902Y2799D01*
X6127Y1098D02*
X7902Y2873D01*
X1336Y2055D02*
X1590Y2308D01*
X502Y7609D02*
X1504Y6606D01*
X1098Y2799D02*
X2799Y1098D01*
X6201D01*
X2484Y1047D02*
X2667Y1230D01*
X2964Y808D02*
X3254Y1098D01*
X1673Y1673D02*
X1949Y1949D01*
X1673Y1673D02*
X1949Y1949D01*
X2055Y1336D02*
X2308Y1590D01*
X502Y4812D02*
X1098Y5409D01*
X502Y5454D02*
X1098Y4857D01*
Y2799D02*
Y6201D01*
X502Y6890D02*
X1145Y6247D01*
X502Y6172D02*
X1098Y5575D01*
X502Y5531D02*
X1098Y6127D01*
X808Y2964D02*
X1098Y3254D01*
X628Y3502D02*
X1098Y3972D01*
X1047Y2484D02*
X1230Y2667D01*
X520Y4113D02*
X1098Y4691D01*
X502Y4735D02*
X1098Y4138D01*
X535Y3983D02*
X1098Y3420D01*
X7902Y5956D02*
X13356Y502D01*
X7902Y5238D02*
X12638Y502D01*
X9123D02*
X13897Y5276D01*
X8404Y502D02*
X13538Y5635D01*
X6967Y502D02*
X12998Y6533D01*
X6249Y502D02*
X12998Y7251D01*
X7686Y502D02*
X13178Y5994D01*
X7902Y4519D02*
X11919Y502D01*
X7902Y3801D02*
X11201Y502D01*
X7902Y3083D02*
X10483Y502D01*
X7325Y2222D02*
X9046Y502D01*
X6966Y1863D02*
X8327Y502D01*
X7684Y2582D02*
X9764Y502D01*
X6247Y1145D02*
X6890Y502D01*
X3502Y628D02*
X3972Y1098D01*
X6606Y1504D02*
X7609Y502D01*
X3420Y1098D02*
X3983Y535D01*
X789Y3011D02*
X3011Y789D01*
X5531Y502D02*
X6127Y1098D01*
X4857D02*
X5454Y502D01*
X5575Y1098D02*
X6172Y502D01*
X4138Y1098D02*
X4735Y502D01*
X4113Y520D02*
X4691Y1098D01*
X4812Y502D02*
X5409Y1098D01*
D11*
X64150Y49500D02*
D03*
X62350D02*
D03*
D12*
X58000Y16900D02*
D03*
X57350Y19100D02*
D03*
X58650D02*
D03*
D13*
X69634Y39946D02*
X69705Y39875D01*
X69634Y41714D02*
X69705Y41785D01*
X67795D02*
X67866Y41714D01*
X67795Y39875D02*
X67866Y39946D01*
X60995Y30305D02*
X61066Y30376D01*
X59934D02*
X60005Y30305D01*
X60995Y29315D02*
X61066Y29244D01*
X59934D02*
X60005Y29315D01*
X55399Y5101D02*
X55470Y5030D01*
X56530D02*
X56601Y5101D01*
X56530Y3970D02*
X56601Y3899D01*
X55399D02*
X55470Y3970D01*
D14*
X62250Y47750D02*
Y47831D01*
X62350Y47931D01*
Y49500D01*
X57250Y20419D02*
X57350Y20319D01*
X57250Y20419D02*
Y20500D01*
X57350Y19100D02*
Y20319D01*
X53475Y9475D02*
X58000Y14000D01*
Y16900D01*
X48200Y9475D02*
X53475D01*
X64150Y49500D02*
X70000D01*
X58650Y19100D02*
Y20340D01*
X60500Y22190D01*
X60569Y22121D02*
X62379D01*
X63750Y15750D02*
Y20750D01*
X62379Y22121D02*
X63750Y20750D01*
X60500Y22190D02*
X60569Y22121D01*
X58000Y10000D02*
X63750Y15750D01*
X58000Y4500D02*
Y10000D01*
X63830Y28330D02*
X68750D01*
X60500Y25000D02*
X63830Y28330D01*
X60500Y22190D02*
Y25000D01*
X64170Y13170D02*
X68750D01*
X60000Y9000D02*
X64170Y13170D01*
X60000Y4500D02*
Y9000D01*
X68750Y18250D02*
Y23250D01*
X55000Y17750D02*
X55850Y16900D01*
X58000D01*
X55000Y17750D02*
Y22650D01*
X47100Y8375D02*
X48200Y9475D01*
X14900Y8375D02*
X35225D01*
X55000Y28150D01*
Y37850D01*
X66650D02*
X68750Y35750D01*
X55000Y37850D02*
X66650D01*
D15*
X41125Y31750D02*
D03*
X20875D02*
D03*
D16*
X47100Y8375D02*
D03*
X14900D02*
D03*
D17*
X68750Y23250D02*
D03*
Y28330D02*
D03*
Y18250D02*
D03*
Y13170D02*
D03*
Y35750D02*
D03*
Y40830D02*
D03*
X55000Y22650D02*
D03*
Y37850D02*
D03*
D18*
X4500Y49500D02*
D03*
X70000D02*
D03*
X4500Y4500D02*
D03*
X70000D02*
D03*
D19*
X60500Y29810D02*
D03*
Y22190D02*
D03*
D20*
X60000Y4500D02*
D03*
X58000D02*
D03*
X56000D02*
D03*
D21*
X18180Y49040D02*
D03*
Y46500D02*
D03*
Y43960D02*
D03*
X13100D02*
D03*
Y46500D02*
D03*
Y49040D02*
D03*
X48900D02*
D03*
Y46500D02*
D03*
Y43960D02*
D03*
X43820D02*
D03*
Y46500D02*
D03*
Y49040D02*
D03*
D22*
X62250Y47750D02*
D03*
X57250Y20500D02*
D03*
%TF.MD5,9d3d07053e44187270b3394b75927266*%
M02*
