%TF.GenerationSoftware,Altium Limited,Altium Designer,25.2.1 (25)*%
G04 Layer_Physical_Order=2*
G04 Layer_Color=16711680*
%FSLAX43Y43*%
%MOMM*%
%TF.SameCoordinates,2CE3D87A-6310-41BA-B934-AA3AA0227215*%
%TF.FilePolarity,Positive*%
%TF.FileFunction,Copper,L2,Bot,Signal*%
%TF.Part,Single*%
G01*
G75*
%TA.AperFunction,ComponentPad*%
%ADD15O,12.500X3.750*%
%ADD16O,3.000X5.500*%
%ADD17C,2.500*%
%ADD18C,6.000*%
%ADD19C,1.400*%
%ADD20C,1.500*%
%ADD21C,2.300*%
%TA.AperFunction,ViaPad*%
%ADD22C,0.700*%
G36*
X70641Y53549D02*
X71267Y53399D01*
X71861Y53153D01*
X72410Y52817D01*
X72899Y52399D01*
X73317Y51910D01*
X73653Y51361D01*
X73899Y50767D01*
X74049Y50141D01*
X74098Y49528D01*
X74092Y49500D01*
Y4500D01*
X74098Y4472D01*
X74049Y3859D01*
X73899Y3233D01*
X73653Y2639D01*
X73317Y2090D01*
X72899Y1601D01*
X72410Y1183D01*
X71861Y847D01*
X71267Y601D01*
X70641Y451D01*
X70028Y402D01*
X70000Y408D01*
X4500D01*
X4472Y402D01*
X3859Y451D01*
X3233Y601D01*
X2639Y847D01*
X2090Y1183D01*
X1601Y1601D01*
X1183Y2090D01*
X847Y2639D01*
X601Y3233D01*
X451Y3859D01*
X402Y4472D01*
X408Y4500D01*
Y49500D01*
X402Y49528D01*
X451Y50141D01*
X601Y50767D01*
X847Y51361D01*
X1183Y51910D01*
X1601Y52399D01*
X2090Y52817D01*
X2639Y53153D01*
X3233Y53399D01*
X3859Y53549D01*
X4373Y53590D01*
X4500Y53480D01*
Y52754D01*
X4244D01*
X3738Y52674D01*
X3251Y52516D01*
X2795Y52283D01*
X2380Y51982D01*
X2305Y51907D01*
X2507Y51705D01*
X2295Y51493D01*
X2093Y51695D01*
X2018Y51620D01*
X1717Y51205D01*
X1484Y50749D01*
X1326Y50262D01*
X1246Y49756D01*
Y49244D01*
X1326Y48738D01*
X1484Y48251D01*
X1717Y47795D01*
X2018Y47380D01*
X2093Y47305D01*
X2295Y47507D01*
X2507Y47295D01*
X2305Y47093D01*
X2380Y47018D01*
X2795Y46717D01*
X3251Y46484D01*
X3738Y46326D01*
X4244Y46246D01*
X4500D01*
Y7754D01*
X4244D01*
X3738Y7674D01*
X3251Y7516D01*
X2795Y7283D01*
X2380Y6982D01*
X2305Y6907D01*
X2507Y6705D01*
X2295Y6492D01*
X2093Y6695D01*
X2018Y6620D01*
X1717Y6205D01*
X1484Y5749D01*
X1326Y5262D01*
X1246Y4756D01*
Y4244D01*
X1326Y3738D01*
X1484Y3251D01*
X1717Y2795D01*
X2018Y2380D01*
X2093Y2305D01*
X2295Y2507D01*
X2507Y2295D01*
X2305Y2093D01*
X2380Y2018D01*
X2795Y1717D01*
X3251Y1484D01*
X3738Y1326D01*
X4244Y1246D01*
X4756D01*
X5262Y1326D01*
X5749Y1484D01*
X6205Y1717D01*
X6620Y2018D01*
X6695Y2093D01*
X6492Y2295D01*
X6705Y2507D01*
X6907Y2305D01*
X6982Y2380D01*
X7283Y2795D01*
X7516Y3251D01*
X7674Y3738D01*
X7754Y4244D01*
Y4500D01*
X54950D01*
Y4362D01*
X55022Y4095D01*
X55160Y3855D01*
X55355Y3660D01*
X55595Y3522D01*
X55862Y3450D01*
X56138D01*
X56405Y3522D01*
X56645Y3660D01*
X56840Y3855D01*
X56927Y4005D01*
X57073D01*
X57160Y3855D01*
X57355Y3660D01*
X57595Y3522D01*
X57862Y3450D01*
X58138D01*
X58405Y3522D01*
X58645Y3660D01*
X58840Y3855D01*
X58927Y4005D01*
X59073D01*
X59160Y3855D01*
X59355Y3660D01*
X59595Y3522D01*
X59862Y3450D01*
X60138D01*
X60405Y3522D01*
X60645Y3660D01*
X60840Y3855D01*
X60978Y4095D01*
X61050Y4362D01*
Y4500D01*
X66746D01*
Y4244D01*
X66826Y3738D01*
X66984Y3251D01*
X67217Y2795D01*
X67518Y2380D01*
X67593Y2305D01*
X67795Y2507D01*
X68007Y2295D01*
X67805Y2093D01*
X67880Y2018D01*
X68295Y1717D01*
X68751Y1484D01*
X69238Y1326D01*
X69744Y1246D01*
X70256D01*
X70762Y1326D01*
X71249Y1484D01*
X71705Y1717D01*
X72120Y2018D01*
X72195Y2093D01*
X71993Y2295D01*
X72205Y2507D01*
X72407Y2305D01*
X72482Y2380D01*
X72783Y2795D01*
X73016Y3251D01*
X73174Y3738D01*
X73254Y4244D01*
Y4756D01*
X73174Y5262D01*
X73016Y5749D01*
X72783Y6205D01*
X72482Y6620D01*
X72407Y6695D01*
X72205Y6492D01*
X71993Y6705D01*
X72195Y6907D01*
X72120Y6982D01*
X71705Y7283D01*
X71249Y7516D01*
X70762Y7674D01*
X70256Y7754D01*
X70000D01*
Y12251D01*
X70124Y12436D01*
X70240Y12718D01*
X70300Y13017D01*
Y13323D01*
X70240Y13622D01*
X70124Y13904D01*
X70000Y14089D01*
Y17331D01*
X70124Y17516D01*
X70240Y17798D01*
X70300Y18097D01*
Y18403D01*
X70240Y18702D01*
X70124Y18984D01*
X70000Y19169D01*
Y22331D01*
X70124Y22516D01*
X70240Y22798D01*
X70300Y23097D01*
Y23403D01*
X70240Y23702D01*
X70124Y23984D01*
X70000Y24169D01*
Y27411D01*
X70124Y27596D01*
X70240Y27878D01*
X70300Y28177D01*
Y28483D01*
X70240Y28782D01*
X70124Y29064D01*
X70000Y29249D01*
Y34831D01*
X70124Y35016D01*
X70240Y35298D01*
X70300Y35597D01*
Y35903D01*
X70240Y36202D01*
X70124Y36484D01*
X70000Y36669D01*
Y39911D01*
X70124Y40096D01*
X70240Y40378D01*
X70300Y40677D01*
Y40983D01*
X70240Y41282D01*
X70124Y41564D01*
X70000Y41749D01*
Y46246D01*
X70256D01*
X70762Y46326D01*
X71249Y46484D01*
X71705Y46717D01*
X72120Y47018D01*
X72195Y47093D01*
X71993Y47295D01*
X72205Y47507D01*
X72407Y47305D01*
X72482Y47380D01*
X72783Y47795D01*
X73016Y48251D01*
X73174Y48738D01*
X73254Y49244D01*
Y49756D01*
X73174Y50262D01*
X73016Y50749D01*
X72783Y51205D01*
X72482Y51620D01*
X72407Y51695D01*
X72205Y51493D01*
X71993Y51705D01*
X72195Y51907D01*
X72120Y51982D01*
X71705Y52283D01*
X71249Y52516D01*
X70762Y52674D01*
X70256Y52754D01*
X70000D01*
Y53480D01*
X70127Y53590D01*
X70641Y53549D01*
D02*
G37*
G36*
X69661Y53533D02*
X69694Y53480D01*
Y52793D01*
X69227Y52719D01*
X68733Y52558D01*
X68270Y52322D01*
X67850Y52017D01*
X67483Y51650D01*
X67178Y51230D01*
X66942Y50767D01*
X66781Y50273D01*
X66700Y49760D01*
Y49240D01*
X66781Y48727D01*
X66942Y48233D01*
X67178Y47770D01*
X67483Y47350D01*
X67850Y46983D01*
X68270Y46678D01*
X68733Y46442D01*
X69227Y46281D01*
X69694Y46207D01*
Y41958D01*
X69655Y41942D01*
X69567Y41917D01*
X69271Y42088D01*
X68928Y42180D01*
X68572D01*
X68229Y42088D01*
X67941Y41922D01*
X68032Y41831D01*
X67749Y41548D01*
X67658Y41639D01*
X67492Y41351D01*
X67400Y41008D01*
Y40652D01*
X67492Y40309D01*
X67658Y40021D01*
X67749Y40112D01*
X68032Y39829D01*
X67941Y39738D01*
X68229Y39572D01*
X68572Y39480D01*
X68928D01*
X69271Y39572D01*
X69567Y39743D01*
X69655Y39718D01*
X69694Y39702D01*
Y37118D01*
X69582Y37058D01*
X69484Y37124D01*
X69202Y37240D01*
X68903Y37300D01*
X68597D01*
X68298Y37240D01*
X68016Y37124D01*
X67762Y36954D01*
X67546Y36738D01*
X67376Y36484D01*
X67260Y36202D01*
X67200Y35903D01*
Y35597D01*
X67260Y35298D01*
X67376Y35016D01*
X67546Y34762D01*
X67762Y34546D01*
X68016Y34376D01*
X68298Y34260D01*
X68597Y34200D01*
X68903D01*
X69202Y34260D01*
X69484Y34376D01*
X69582Y34442D01*
X69694Y34382D01*
Y29698D01*
X69582Y29638D01*
X69484Y29704D01*
X69202Y29820D01*
X68903Y29880D01*
X68597D01*
X68298Y29820D01*
X68016Y29704D01*
X67762Y29534D01*
X67546Y29318D01*
X67376Y29064D01*
X67260Y28782D01*
X67200Y28483D01*
Y28177D01*
X67260Y27878D01*
X67376Y27596D01*
X67546Y27342D01*
X67762Y27126D01*
X68016Y26956D01*
X68298Y26840D01*
X68597Y26780D01*
X68903D01*
X69202Y26840D01*
X69484Y26956D01*
X69582Y27022D01*
X69694Y26962D01*
Y24618D01*
X69582Y24558D01*
X69484Y24624D01*
X69202Y24740D01*
X68903Y24800D01*
X68597D01*
X68298Y24740D01*
X68016Y24624D01*
X67762Y24454D01*
X67546Y24238D01*
X67376Y23984D01*
X67260Y23702D01*
X67200Y23403D01*
Y23097D01*
X67260Y22798D01*
X67376Y22516D01*
X67546Y22262D01*
X67762Y22046D01*
X68016Y21876D01*
X68298Y21760D01*
X68597Y21700D01*
X68903D01*
X69202Y21760D01*
X69484Y21876D01*
X69582Y21942D01*
X69694Y21882D01*
Y19618D01*
X69582Y19558D01*
X69484Y19624D01*
X69202Y19740D01*
X68903Y19800D01*
X68597D01*
X68298Y19740D01*
X68016Y19624D01*
X67762Y19454D01*
X67546Y19238D01*
X67376Y18984D01*
X67260Y18702D01*
X67200Y18403D01*
Y18097D01*
X67260Y17798D01*
X67376Y17516D01*
X67546Y17262D01*
X67762Y17046D01*
X68016Y16876D01*
X68298Y16760D01*
X68597Y16700D01*
X68903D01*
X69202Y16760D01*
X69484Y16876D01*
X69582Y16942D01*
X69694Y16882D01*
Y14538D01*
X69582Y14478D01*
X69484Y14544D01*
X69202Y14660D01*
X68903Y14720D01*
X68597D01*
X68298Y14660D01*
X68016Y14544D01*
X67762Y14374D01*
X67546Y14158D01*
X67376Y13904D01*
X67260Y13622D01*
X67200Y13323D01*
Y13017D01*
X67260Y12718D01*
X67376Y12436D01*
X67546Y12182D01*
X67762Y11966D01*
X68016Y11796D01*
X68298Y11680D01*
X68597Y11620D01*
X68903D01*
X69202Y11680D01*
X69484Y11796D01*
X69582Y11862D01*
X69694Y11802D01*
Y7793D01*
X69227Y7719D01*
X68733Y7558D01*
X68270Y7322D01*
X67850Y7017D01*
X67483Y6650D01*
X67178Y6230D01*
X66942Y5767D01*
X66781Y5273D01*
X66707Y4806D01*
X61050D01*
X61007Y4797D01*
X60978Y4905D01*
X60840Y5145D01*
X60645Y5340D01*
X60405Y5478D01*
X60138Y5550D01*
X59862D01*
X59595Y5478D01*
X59355Y5340D01*
X59160Y5145D01*
X59073Y4995D01*
X58927D01*
X58840Y5145D01*
X58645Y5340D01*
X58405Y5478D01*
X58138Y5550D01*
X57862D01*
X57595Y5478D01*
X57355Y5340D01*
X57160Y5145D01*
X57022Y4905D01*
X56962Y4684D01*
X56831D01*
X56792Y4828D01*
X56726Y4943D01*
X56640Y4857D01*
X56357Y5140D01*
X56443Y5226D01*
X56328Y5292D01*
X56112Y5350D01*
X55888D01*
X55672Y5292D01*
X55557Y5226D01*
X55643Y5140D01*
X55360Y4857D01*
X55274Y4943D01*
X55213Y4838D01*
X55203Y4826D01*
X55067Y4783D01*
X54950Y4806D01*
X7793D01*
X7719Y5273D01*
X7558Y5767D01*
X7322Y6230D01*
X7017Y6650D01*
X6650Y7017D01*
X6230Y7322D01*
X5767Y7558D01*
X5273Y7719D01*
X4806Y7793D01*
Y46207D01*
X5273Y46281D01*
X5767Y46442D01*
X6230Y46678D01*
X6650Y46983D01*
X7017Y47350D01*
X7322Y47770D01*
X7558Y48233D01*
X7719Y48727D01*
X7800Y49240D01*
Y49760D01*
X7719Y50273D01*
X7558Y50767D01*
X7322Y51230D01*
X7017Y51650D01*
X6650Y52017D01*
X6230Y52322D01*
X5767Y52558D01*
X5273Y52719D01*
X4806Y52793D01*
Y53480D01*
X4839Y53533D01*
X4908Y53592D01*
X69592D01*
X69661Y53533D01*
D02*
G37*
%LPC*%
G36*
X55153Y39400D02*
X54847D01*
X54548Y39340D01*
X54266Y39224D01*
X54012Y39054D01*
X53796Y38838D01*
X53626Y38584D01*
X53510Y38302D01*
X53450Y38003D01*
Y37697D01*
X53510Y37398D01*
X53626Y37116D01*
X53796Y36862D01*
X54012Y36646D01*
X54266Y36476D01*
X54548Y36360D01*
X54847Y36300D01*
X55153D01*
X55452Y36360D01*
X55734Y36476D01*
X55988Y36646D01*
X56204Y36862D01*
X56374Y37116D01*
X56490Y37398D01*
X56550Y37697D01*
Y38003D01*
X56490Y38302D01*
X56374Y38584D01*
X56204Y38838D01*
X55988Y39054D01*
X55734Y39224D01*
X55452Y39340D01*
X55153Y39400D01*
D02*
G37*
G36*
X60605Y30610D02*
X60395D01*
X60191Y30555D01*
X60094Y30499D01*
X60180Y30413D01*
X59897Y30130D01*
X59811Y30216D01*
X59755Y30119D01*
X59700Y29915D01*
Y29705D01*
X59755Y29501D01*
X59811Y29404D01*
X59897Y29490D01*
X60180Y29207D01*
X60094Y29121D01*
X60191Y29064D01*
X60395Y29010D01*
X60605D01*
X60809Y29064D01*
X60906Y29121D01*
X60820Y29207D01*
X61103Y29490D01*
X61189Y29404D01*
X61246Y29501D01*
X61300Y29705D01*
Y29915D01*
X61246Y30119D01*
X61189Y30216D01*
X61103Y30130D01*
X60820Y30413D01*
X60906Y30499D01*
X60809Y30555D01*
X60605Y30610D01*
D02*
G37*
G36*
X52000Y51496D02*
X34000D01*
X33883Y51473D01*
X33784Y51406D01*
X33717Y51307D01*
X33694Y51190D01*
Y28000D01*
X33717Y27883D01*
X33784Y27784D01*
X33883Y27717D01*
X34000Y27694D01*
X52000D01*
X52117Y27717D01*
X52216Y27784D01*
X52283Y27883D01*
X52306Y28000D01*
Y51190D01*
X52283Y51307D01*
X52216Y51406D01*
X52117Y51473D01*
X52000Y51496D01*
D02*
G37*
G36*
X28000D02*
X10000D01*
X9883Y51473D01*
X9784Y51406D01*
X9717Y51307D01*
X9694Y51190D01*
Y28000D01*
X9717Y27883D01*
X9784Y27784D01*
X9883Y27717D01*
X10000Y27694D01*
X28000D01*
X28117Y27717D01*
X28216Y27784D01*
X28283Y27883D01*
X28306Y28000D01*
Y51190D01*
X28283Y51307D01*
X28216Y51406D01*
X28117Y51473D01*
X28000Y51496D01*
D02*
G37*
G36*
X60632Y23190D02*
X60368D01*
X60114Y23122D01*
X59886Y22990D01*
X59700Y22804D01*
X59568Y22576D01*
X59500Y22322D01*
Y22058D01*
X59568Y21804D01*
X59700Y21576D01*
X59886Y21390D01*
X60114Y21258D01*
X60368Y21190D01*
X60632D01*
X60886Y21258D01*
X61114Y21390D01*
X61300Y21576D01*
X61432Y21804D01*
X61500Y22058D01*
Y22322D01*
X61432Y22576D01*
X61300Y22804D01*
X61114Y22990D01*
X60886Y23122D01*
X60632Y23190D01*
D02*
G37*
G36*
X55153Y24200D02*
X54847D01*
X54548Y24140D01*
X54266Y24024D01*
X54012Y23854D01*
X53796Y23638D01*
X53626Y23384D01*
X53510Y23102D01*
X53450Y22803D01*
Y22497D01*
X53510Y22198D01*
X53626Y21916D01*
X53796Y21662D01*
X54012Y21446D01*
X54266Y21276D01*
X54548Y21160D01*
X54847Y21100D01*
X55153D01*
X55452Y21160D01*
X55734Y21276D01*
X55988Y21446D01*
X56204Y21662D01*
X56374Y21916D01*
X56490Y22198D01*
X56550Y22497D01*
Y22803D01*
X56490Y23102D01*
X56374Y23384D01*
X56204Y23638D01*
X55988Y23854D01*
X55734Y24024D01*
X55452Y24140D01*
X55153Y24200D01*
D02*
G37*
G36*
X47100Y11434D02*
X46747Y11399D01*
X46408Y11296D01*
X46095Y11129D01*
X45821Y10904D01*
X45596Y10630D01*
X45429Y10317D01*
X45326Y9978D01*
X45291Y9625D01*
Y7125D01*
X45326Y6772D01*
X45429Y6433D01*
X45596Y6120D01*
X45821Y5846D01*
X46095Y5621D01*
X46408Y5454D01*
X46747Y5351D01*
X47100Y5316D01*
X47453Y5351D01*
X47792Y5454D01*
X48105Y5621D01*
X48379Y5846D01*
X48604Y6120D01*
X48771Y6433D01*
X48874Y6772D01*
X48909Y7125D01*
Y9625D01*
X48874Y9978D01*
X48771Y10317D01*
X48604Y10630D01*
X48379Y10904D01*
X48105Y11129D01*
X47792Y11296D01*
X47453Y11399D01*
X47100Y11434D01*
D02*
G37*
G36*
X14900D02*
X14547Y11399D01*
X14208Y11296D01*
X13895Y11129D01*
X13621Y10904D01*
X13396Y10630D01*
X13229Y10317D01*
X13126Y9978D01*
X13091Y9625D01*
Y7125D01*
X13126Y6772D01*
X13229Y6433D01*
X13396Y6120D01*
X13621Y5846D01*
X13895Y5621D01*
X14208Y5454D01*
X14547Y5351D01*
X14900Y5316D01*
X15253Y5351D01*
X15592Y5454D01*
X15905Y5621D01*
X16179Y5846D01*
X16404Y6120D01*
X16571Y6433D01*
X16674Y6772D01*
X16709Y7125D01*
Y9625D01*
X16674Y9978D01*
X16571Y10317D01*
X16404Y10630D01*
X16179Y10904D01*
X15905Y11129D01*
X15592Y11296D01*
X15253Y11399D01*
X14900Y11434D01*
D02*
G37*
%LPD*%
G36*
X52000Y28000D02*
X34000D01*
Y51190D01*
X52000D01*
Y28000D01*
D02*
G37*
%LPC*%
G36*
X49065Y50290D02*
X48735D01*
X48418Y50205D01*
X48164Y50059D01*
X48254Y49969D01*
X47971Y49686D01*
X47881Y49776D01*
X47735Y49522D01*
X47650Y49205D01*
Y48875D01*
X47735Y48558D01*
X47881Y48304D01*
X47971Y48394D01*
X48254Y48111D01*
X48164Y48021D01*
X48418Y47875D01*
X48565Y47836D01*
Y47704D01*
X48418Y47665D01*
X48164Y47519D01*
X48254Y47429D01*
X47971Y47146D01*
X47881Y47236D01*
X47735Y46982D01*
X47650Y46665D01*
Y46335D01*
X47735Y46018D01*
X47881Y45764D01*
X47971Y45854D01*
X48254Y45571D01*
X48164Y45481D01*
X48418Y45335D01*
X48565Y45296D01*
Y45164D01*
X48418Y45125D01*
X48164Y44979D01*
X48254Y44889D01*
X47971Y44606D01*
X47881Y44696D01*
X47735Y44442D01*
X47650Y44125D01*
Y43795D01*
X47735Y43478D01*
X47881Y43224D01*
X47971Y43314D01*
X48254Y43031D01*
X48164Y42941D01*
X48418Y42795D01*
X48735Y42710D01*
X49065D01*
X49382Y42795D01*
X49636Y42941D01*
X49546Y43031D01*
X49829Y43314D01*
X49919Y43224D01*
X50065Y43478D01*
X50150Y43795D01*
Y44125D01*
X50065Y44442D01*
X49919Y44696D01*
X49829Y44606D01*
X49546Y44889D01*
X49636Y44979D01*
X49382Y45125D01*
X49235Y45164D01*
Y45296D01*
X49382Y45335D01*
X49636Y45481D01*
X49546Y45571D01*
X49829Y45854D01*
X49919Y45764D01*
X50065Y46018D01*
X50150Y46335D01*
Y46665D01*
X50065Y46982D01*
X49919Y47236D01*
X49829Y47146D01*
X49546Y47429D01*
X49636Y47519D01*
X49382Y47665D01*
X49235Y47704D01*
Y47836D01*
X49382Y47875D01*
X49636Y48021D01*
X49546Y48111D01*
X49829Y48394D01*
X49919Y48304D01*
X50065Y48558D01*
X50150Y48875D01*
Y49205D01*
X50065Y49522D01*
X49919Y49776D01*
X49829Y49686D01*
X49546Y49969D01*
X49636Y50059D01*
X49382Y50205D01*
X49065Y50290D01*
D02*
G37*
G36*
X43985D02*
X43655D01*
X43338Y50205D01*
X43084Y50059D01*
X43174Y49969D01*
X42891Y49686D01*
X42801Y49776D01*
X42655Y49522D01*
X42570Y49205D01*
Y48875D01*
X42655Y48558D01*
X42801Y48304D01*
X42891Y48394D01*
X43174Y48111D01*
X43084Y48021D01*
X43338Y47875D01*
X43485Y47836D01*
Y47704D01*
X43338Y47665D01*
X43084Y47519D01*
X43174Y47429D01*
X42891Y47146D01*
X42801Y47236D01*
X42655Y46982D01*
X42570Y46665D01*
Y46335D01*
X42655Y46018D01*
X42801Y45764D01*
X42891Y45854D01*
X43174Y45571D01*
X43084Y45481D01*
X43338Y45335D01*
X43485Y45296D01*
Y45164D01*
X43338Y45125D01*
X43084Y44979D01*
X43174Y44889D01*
X42891Y44606D01*
X42801Y44696D01*
X42655Y44442D01*
X42570Y44125D01*
Y43795D01*
X42655Y43478D01*
X42801Y43224D01*
X42891Y43314D01*
X43174Y43031D01*
X43084Y42941D01*
X43338Y42795D01*
X43655Y42710D01*
X43985D01*
X44302Y42795D01*
X44556Y42941D01*
X44466Y43031D01*
X44749Y43314D01*
X44839Y43224D01*
X44985Y43478D01*
X45070Y43795D01*
Y44125D01*
X44985Y44442D01*
X44839Y44696D01*
X44749Y44606D01*
X44466Y44889D01*
X44556Y44979D01*
X44302Y45125D01*
X44155Y45164D01*
Y45296D01*
X44302Y45335D01*
X44556Y45481D01*
X44466Y45571D01*
X44749Y45854D01*
X44839Y45764D01*
X44985Y46018D01*
X45070Y46335D01*
Y46665D01*
X44985Y46982D01*
X44839Y47236D01*
X44749Y47146D01*
X44466Y47429D01*
X44556Y47519D01*
X44302Y47665D01*
X44155Y47704D01*
Y47836D01*
X44302Y47875D01*
X44556Y48021D01*
X44466Y48111D01*
X44749Y48394D01*
X44839Y48304D01*
X44985Y48558D01*
X45070Y48875D01*
Y49205D01*
X44985Y49522D01*
X44839Y49776D01*
X44749Y49686D01*
X44466Y49969D01*
X44556Y50059D01*
X44302Y50205D01*
X43985Y50290D01*
D02*
G37*
G36*
X45500Y33735D02*
X41325D01*
Y33607D01*
X40925D01*
Y33735D01*
X36750D01*
X36363Y33696D01*
X35991Y33583D01*
X35647Y33400D01*
X35502Y33281D01*
X35586Y33197D01*
X35303Y32914D01*
X35219Y32998D01*
X35100Y32853D01*
X34917Y32509D01*
X34804Y32137D01*
X34765Y31750D01*
X34804Y31363D01*
X34917Y30991D01*
X35100Y30647D01*
X35219Y30502D01*
X35303Y30586D01*
X35586Y30303D01*
X35502Y30219D01*
X35647Y30100D01*
X35991Y29917D01*
X36363Y29804D01*
X36750Y29765D01*
X40925D01*
Y29893D01*
X41325D01*
Y29765D01*
X45500D01*
X45887Y29804D01*
X46259Y29917D01*
X46603Y30100D01*
X46748Y30219D01*
X46664Y30303D01*
X46947Y30586D01*
X47031Y30502D01*
X47150Y30647D01*
X47333Y30991D01*
X47446Y31363D01*
X47485Y31750D01*
X47446Y32137D01*
X47333Y32509D01*
X47150Y32853D01*
X47031Y32998D01*
X46947Y32914D01*
X46664Y33197D01*
X46748Y33281D01*
X46603Y33400D01*
X46259Y33583D01*
X45887Y33696D01*
X45500Y33735D01*
D02*
G37*
%LPD*%
G36*
X28000Y28000D02*
X10000D01*
Y51190D01*
X28000D01*
Y28000D01*
D02*
G37*
%LPC*%
G36*
X18345Y50290D02*
X18015D01*
X17698Y50205D01*
X17444Y50059D01*
X17534Y49969D01*
X17251Y49686D01*
X17161Y49776D01*
X17015Y49522D01*
X16930Y49205D01*
Y48875D01*
X17015Y48558D01*
X17161Y48304D01*
X17251Y48394D01*
X17534Y48111D01*
X17444Y48021D01*
X17698Y47875D01*
X17845Y47836D01*
Y47704D01*
X17698Y47665D01*
X17444Y47519D01*
X17534Y47429D01*
X17251Y47146D01*
X17161Y47236D01*
X17015Y46982D01*
X16930Y46665D01*
Y46335D01*
X17015Y46018D01*
X17161Y45764D01*
X17251Y45854D01*
X17534Y45571D01*
X17444Y45481D01*
X17698Y45335D01*
X17845Y45296D01*
Y45164D01*
X17698Y45125D01*
X17444Y44979D01*
X17534Y44889D01*
X17251Y44606D01*
X17161Y44696D01*
X17015Y44442D01*
X16930Y44125D01*
Y43795D01*
X17015Y43478D01*
X17161Y43224D01*
X17251Y43314D01*
X17534Y43031D01*
X17444Y42941D01*
X17698Y42795D01*
X18015Y42710D01*
X18345D01*
X18662Y42795D01*
X18916Y42941D01*
X18826Y43031D01*
X19109Y43314D01*
X19199Y43224D01*
X19345Y43478D01*
X19430Y43795D01*
Y44125D01*
X19345Y44442D01*
X19199Y44696D01*
X19109Y44606D01*
X18826Y44889D01*
X18916Y44979D01*
X18662Y45125D01*
X18515Y45164D01*
Y45296D01*
X18662Y45335D01*
X18916Y45481D01*
X18826Y45571D01*
X19109Y45854D01*
X19199Y45764D01*
X19345Y46018D01*
X19430Y46335D01*
Y46665D01*
X19345Y46982D01*
X19199Y47236D01*
X19109Y47146D01*
X18826Y47429D01*
X18916Y47519D01*
X18662Y47665D01*
X18515Y47704D01*
Y47836D01*
X18662Y47875D01*
X18916Y48021D01*
X18826Y48111D01*
X19109Y48394D01*
X19199Y48304D01*
X19345Y48558D01*
X19430Y48875D01*
Y49205D01*
X19345Y49522D01*
X19199Y49776D01*
X19109Y49686D01*
X18826Y49969D01*
X18916Y50059D01*
X18662Y50205D01*
X18345Y50290D01*
D02*
G37*
G36*
X13265D02*
X12935D01*
X12618Y50205D01*
X12364Y50059D01*
X12454Y49969D01*
X12171Y49686D01*
X12081Y49776D01*
X11935Y49522D01*
X11850Y49205D01*
Y48875D01*
X11935Y48558D01*
X12081Y48304D01*
X12171Y48394D01*
X12454Y48111D01*
X12364Y48021D01*
X12618Y47875D01*
X12765Y47836D01*
Y47704D01*
X12618Y47665D01*
X12364Y47519D01*
X12454Y47429D01*
X12171Y47146D01*
X12081Y47236D01*
X11935Y46982D01*
X11850Y46665D01*
Y46335D01*
X11935Y46018D01*
X12081Y45764D01*
X12171Y45854D01*
X12454Y45571D01*
X12364Y45481D01*
X12618Y45335D01*
X12765Y45296D01*
Y45164D01*
X12618Y45125D01*
X12364Y44979D01*
X12454Y44889D01*
X12171Y44606D01*
X12081Y44696D01*
X11935Y44442D01*
X11850Y44125D01*
Y43795D01*
X11935Y43478D01*
X12081Y43224D01*
X12171Y43314D01*
X12454Y43031D01*
X12364Y42941D01*
X12618Y42795D01*
X12935Y42710D01*
X13265D01*
X13582Y42795D01*
X13836Y42941D01*
X13746Y43031D01*
X14029Y43314D01*
X14119Y43224D01*
X14265Y43478D01*
X14350Y43795D01*
Y44125D01*
X14265Y44442D01*
X14119Y44696D01*
X14029Y44606D01*
X13746Y44889D01*
X13836Y44979D01*
X13582Y45125D01*
X13435Y45164D01*
Y45296D01*
X13582Y45335D01*
X13836Y45481D01*
X13746Y45571D01*
X14029Y45854D01*
X14119Y45764D01*
X14265Y46018D01*
X14350Y46335D01*
Y46665D01*
X14265Y46982D01*
X14119Y47236D01*
X14029Y47146D01*
X13746Y47429D01*
X13836Y47519D01*
X13582Y47665D01*
X13435Y47704D01*
Y47836D01*
X13582Y47875D01*
X13836Y48021D01*
X13746Y48111D01*
X14029Y48394D01*
X14119Y48304D01*
X14265Y48558D01*
X14350Y48875D01*
Y49205D01*
X14265Y49522D01*
X14119Y49776D01*
X14029Y49686D01*
X13746Y49969D01*
X13836Y50059D01*
X13582Y50205D01*
X13265Y50290D01*
D02*
G37*
G36*
X25250Y33735D02*
X21075D01*
Y33607D01*
X20675D01*
Y33735D01*
X16500D01*
X16113Y33696D01*
X15741Y33583D01*
X15397Y33400D01*
X15252Y33281D01*
X15336Y33197D01*
X15053Y32914D01*
X14969Y32998D01*
X14850Y32853D01*
X14667Y32509D01*
X14554Y32137D01*
X14515Y31750D01*
X14554Y31363D01*
X14667Y30991D01*
X14850Y30647D01*
X14969Y30502D01*
X15053Y30586D01*
X15336Y30303D01*
X15252Y30219D01*
X15397Y30100D01*
X15741Y29917D01*
X16113Y29804D01*
X16500Y29765D01*
X20675D01*
Y29893D01*
X21075D01*
Y29765D01*
X25250D01*
X25637Y29804D01*
X26009Y29917D01*
X26353Y30100D01*
X26498Y30219D01*
X26414Y30303D01*
X26697Y30586D01*
X26781Y30502D01*
X26900Y30647D01*
X27083Y30991D01*
X27196Y31363D01*
X27235Y31750D01*
X27196Y32137D01*
X27083Y32509D01*
X26900Y32853D01*
X26781Y32998D01*
X26697Y32914D01*
X26414Y33197D01*
X26498Y33281D01*
X26353Y33400D01*
X26009Y33583D01*
X25637Y33696D01*
X25250Y33735D01*
D02*
G37*
%LPD*%
D15*
X41125Y31750D02*
D03*
X20875D02*
D03*
D16*
X47100Y8375D02*
D03*
X14900D02*
D03*
D17*
X68750Y23250D02*
D03*
Y28330D02*
D03*
Y18250D02*
D03*
Y13170D02*
D03*
Y35750D02*
D03*
Y40830D02*
D03*
X55000Y22650D02*
D03*
Y37850D02*
D03*
D18*
X4500Y49500D02*
D03*
X70000D02*
D03*
X4500Y4500D02*
D03*
X70000D02*
D03*
D19*
X60500Y29810D02*
D03*
Y22190D02*
D03*
D20*
X60000Y4500D02*
D03*
X58000D02*
D03*
X56000D02*
D03*
D21*
X18180Y49040D02*
D03*
Y46500D02*
D03*
Y43960D02*
D03*
X13100D02*
D03*
Y46500D02*
D03*
Y49040D02*
D03*
X48900D02*
D03*
Y46500D02*
D03*
Y43960D02*
D03*
X43820D02*
D03*
Y46500D02*
D03*
Y49040D02*
D03*
D22*
X62250Y47750D02*
D03*
X57250Y20500D02*
D03*
%TF.MD5,0f709f2daa4f76813161d1b10a3a20ab*%
M02*
