%TF.GenerationSoftware,Altium Limited,Altium Designer,25.2.1 (25)*%
G04 Layer_Color=65535*
%FSLAX43Y43*%
%MOMM*%
%TF.SameCoordinates,2CE3D87A-6310-41BA-B934-AA3AA0227215*%
%TF.FilePolarity,Positive*%
%TF.FileFunction,Legend,Top*%
%TF.Part,Single*%
G01*
G75*
%TA.AperFunction,NonConductor*%
%ADD13C,0.400*%
%ADD23C,0.200*%
%ADD24C,0.250*%
%ADD25C,0.100*%
%ADD26C,0.300*%
G36*
X57284Y50920D02*
X58511D01*
Y50307D01*
X57898D01*
Y49693D01*
X58511D01*
Y49079D01*
X59125D01*
Y47852D01*
X58511D01*
Y48466D01*
X57898D01*
Y49079D01*
X57284D01*
Y48466D01*
X56670D01*
Y49079D01*
X54830D01*
Y48466D01*
X55443D01*
Y47852D01*
X54830D01*
Y48466D01*
X54216D01*
Y49079D01*
X53602D01*
Y48466D01*
X52989D01*
Y47852D01*
X52375D01*
Y49079D01*
X52989D01*
Y49305D01*
Y49306D01*
Y49693D01*
X53602D01*
Y50307D01*
X52989D01*
Y50920D01*
X52375D01*
Y50968D01*
Y50969D01*
Y51534D01*
X52989D01*
Y50920D01*
X54216D01*
Y49693D01*
X54830D01*
Y50920D01*
X54216D01*
Y52148D01*
X54830D01*
Y51534D01*
X56670D01*
Y52148D01*
X57284D01*
Y50920D01*
D02*
G37*
G36*
X59125Y51076D02*
Y51075D01*
Y50920D01*
X58511D01*
Y51534D01*
X59125D01*
Y51076D01*
D02*
G37*
G36*
X56670Y47852D02*
X56057D01*
Y48466D01*
X56670D01*
Y47852D01*
D02*
G37*
G36*
X58211Y46908D02*
X58254D01*
Y46902D01*
X58284D01*
Y46896D01*
X58315D01*
Y46890D01*
X58339D01*
Y46884D01*
X58357D01*
Y46877D01*
X58382D01*
Y46871D01*
X58394D01*
Y46865D01*
X58412D01*
Y46859D01*
X58431D01*
Y46853D01*
X58449D01*
Y46847D01*
X58461D01*
Y46841D01*
X58474D01*
Y46835D01*
X58486D01*
Y46829D01*
X58504D01*
Y46822D01*
X58510D01*
Y46816D01*
X58528D01*
Y46810D01*
X58535D01*
Y46804D01*
X58547D01*
Y46798D01*
X58559D01*
Y46792D01*
X58565D01*
Y46786D01*
X58577D01*
Y46780D01*
X58590D01*
Y46774D01*
X58596D01*
Y46768D01*
X58608D01*
Y46761D01*
X58614D01*
Y46755D01*
X58620D01*
Y46749D01*
X58632D01*
Y46743D01*
X58638D01*
Y46737D01*
X58645D01*
Y46731D01*
X58657D01*
Y46725D01*
X58663D01*
Y46719D01*
X58669D01*
Y46713D01*
X58675D01*
Y46706D01*
X58681D01*
Y46700D01*
X58693D01*
Y46694D01*
X58700D01*
Y46688D01*
X58706D01*
Y46682D01*
X58712D01*
Y46676D01*
X58718D01*
Y46670D01*
X58724D01*
Y46664D01*
X58730D01*
Y46658D01*
X58736D01*
Y46651D01*
X58742D01*
Y46645D01*
X58748D01*
Y46639D01*
X58754D01*
Y46633D01*
X58761D01*
Y46621D01*
X58767D01*
Y46615D01*
X58773D01*
Y46609D01*
X58779D01*
Y46603D01*
X58785D01*
Y46597D01*
X58791D01*
Y46590D01*
X58797D01*
Y46578D01*
X58803D01*
Y46572D01*
X58809D01*
Y46566D01*
X58816D01*
Y46554D01*
X58822D01*
Y46548D01*
X58828D01*
Y46542D01*
X58834D01*
Y46529D01*
X58840D01*
Y46523D01*
X58846D01*
Y46511D01*
X58852D01*
Y46499D01*
X58858D01*
Y46493D01*
X58864D01*
Y46480D01*
X58871D01*
Y46468D01*
X58877D01*
Y46456D01*
X58883D01*
Y46450D01*
X58889D01*
Y46432D01*
X58895D01*
Y46419D01*
X58901D01*
Y46407D01*
X58907D01*
Y46395D01*
X58913D01*
Y46383D01*
X58919D01*
Y46364D01*
X58925D01*
Y46346D01*
X58932D01*
Y46334D01*
X58938D01*
Y46316D01*
X58944D01*
Y46291D01*
X58950D01*
Y46273D01*
X58956D01*
Y46242D01*
X58962D01*
Y46218D01*
X58968D01*
Y46181D01*
X58974D01*
Y46132D01*
X58980D01*
Y42700D01*
X58974D01*
Y42651D01*
X58968D01*
Y42614D01*
X58962D01*
Y42590D01*
X58956D01*
Y42559D01*
X58950D01*
Y42541D01*
X58944D01*
Y42517D01*
X58938D01*
Y42498D01*
X58932D01*
Y42486D01*
X58925D01*
Y42468D01*
X58919D01*
Y42450D01*
X58913D01*
Y42437D01*
X58907D01*
Y42425D01*
X58901D01*
Y42413D01*
X58895D01*
Y42401D01*
X58889D01*
Y42382D01*
X58883D01*
Y42376D01*
X58877D01*
Y42364D01*
X58871D01*
Y42352D01*
X58864D01*
Y42340D01*
X58858D01*
Y42333D01*
X58852D01*
Y42321D01*
X58846D01*
Y42309D01*
X58840D01*
Y42303D01*
X58834D01*
Y42291D01*
X58828D01*
Y42285D01*
X58822D01*
Y42278D01*
X58816D01*
Y42266D01*
X58809D01*
Y42260D01*
X58803D01*
Y42254D01*
X58797D01*
Y42242D01*
X58791D01*
Y42236D01*
X58785D01*
Y42230D01*
X58779D01*
Y42224D01*
X58773D01*
Y42217D01*
X58767D01*
Y42211D01*
X58761D01*
Y42199D01*
X58754D01*
Y42193D01*
X58748D01*
Y42187D01*
X58742D01*
Y42181D01*
X58736D01*
Y42175D01*
X58730D01*
Y42169D01*
X58724D01*
Y42162D01*
X58718D01*
Y42156D01*
X58712D01*
Y42150D01*
X58706D01*
Y42144D01*
X58700D01*
Y42138D01*
X58693D01*
Y42132D01*
X58681D01*
Y42126D01*
X58675D01*
Y42120D01*
X58669D01*
Y42114D01*
X58663D01*
Y42107D01*
X58657D01*
Y42101D01*
X58645D01*
Y42095D01*
X58638D01*
Y42089D01*
X58632D01*
Y42083D01*
X58620D01*
Y42077D01*
X58614D01*
Y42071D01*
X58608D01*
Y42065D01*
X58596D01*
Y42059D01*
X58590D01*
Y42053D01*
X58577D01*
Y42046D01*
X58565D01*
Y42040D01*
X58559D01*
Y42034D01*
X58547D01*
Y42028D01*
X58535D01*
Y42022D01*
X58528D01*
Y42016D01*
X58510D01*
Y42010D01*
X58504D01*
Y42004D01*
X58486D01*
Y41998D01*
X58474D01*
Y41991D01*
X58461D01*
Y41985D01*
X58449D01*
Y41979D01*
X58431D01*
Y41973D01*
X58412D01*
Y41967D01*
X58394D01*
Y41961D01*
X58382D01*
Y41955D01*
X58357D01*
Y41949D01*
X58339D01*
Y41943D01*
X58315D01*
Y41936D01*
X58284D01*
Y41930D01*
X58254D01*
Y41924D01*
X58211D01*
Y41918D01*
X53215D01*
Y41924D01*
X53172D01*
Y41930D01*
X53142D01*
Y41936D01*
X53111D01*
Y41943D01*
X53087D01*
Y41949D01*
X53068D01*
Y41955D01*
X53044D01*
Y41961D01*
X53032D01*
Y41967D01*
X53013D01*
Y41973D01*
X52995D01*
Y41979D01*
X52977D01*
Y41985D01*
X52965D01*
Y41991D01*
X52952D01*
Y41998D01*
X52940D01*
Y42004D01*
X52922D01*
Y42010D01*
X52916D01*
Y42016D01*
X52903D01*
Y42022D01*
X52891D01*
Y42028D01*
X52879D01*
Y42034D01*
X52867D01*
Y42040D01*
X52861D01*
Y42046D01*
X52849D01*
Y42053D01*
X52836D01*
Y42059D01*
X52830D01*
Y42065D01*
X52818D01*
Y42071D01*
X52812D01*
Y42077D01*
X52806D01*
Y42083D01*
X52794D01*
Y42089D01*
X52787D01*
Y42095D01*
X52781D01*
Y42101D01*
X52769D01*
Y42107D01*
X52763D01*
Y42114D01*
X52757D01*
Y42120D01*
X52751D01*
Y42126D01*
X52745D01*
Y42132D01*
X52732D01*
Y42138D01*
X52726D01*
Y42144D01*
X52720D01*
Y42150D01*
X52714D01*
Y42156D01*
X52708D01*
Y42162D01*
X52702D01*
Y42169D01*
X52696D01*
Y42175D01*
X52690D01*
Y42181D01*
X52684D01*
Y42187D01*
X52678D01*
Y42193D01*
X52671D01*
Y42199D01*
X52665D01*
Y42211D01*
X52659D01*
Y42217D01*
X52653D01*
Y42224D01*
X52647D01*
Y42230D01*
X52641D01*
Y42236D01*
X52635D01*
Y42242D01*
X52629D01*
Y42254D01*
X52623D01*
Y42260D01*
X52616D01*
Y42266D01*
X52610D01*
Y42278D01*
X52604D01*
Y42285D01*
X52598D01*
Y42291D01*
X52592D01*
Y42303D01*
X52586D01*
Y42309D01*
X52580D01*
Y42321D01*
X52574D01*
Y42333D01*
X52568D01*
Y42340D01*
X52561D01*
Y42352D01*
X52555D01*
Y42364D01*
X52549D01*
Y42376D01*
X52543D01*
Y42382D01*
X52537D01*
Y42401D01*
X52531D01*
Y42413D01*
X52525D01*
Y42425D01*
X52519D01*
Y42437D01*
X52513D01*
Y42450D01*
X52507D01*
Y42468D01*
X52500D01*
Y42486D01*
X52494D01*
Y42498D01*
X52488D01*
Y42517D01*
X52482D01*
Y42541D01*
X52476D01*
Y42559D01*
X52470D01*
Y42590D01*
X52464D01*
Y42614D01*
X52458D01*
Y42651D01*
X52452D01*
Y42700D01*
X52445D01*
Y46132D01*
X52452D01*
Y46181D01*
X52458D01*
Y46218D01*
X52464D01*
Y46242D01*
X52470D01*
Y46273D01*
X52476D01*
Y46291D01*
X52482D01*
Y46316D01*
X52488D01*
Y46334D01*
X52494D01*
Y46346D01*
X52500D01*
Y46364D01*
X52507D01*
Y46383D01*
X52513D01*
Y46395D01*
X52519D01*
Y46407D01*
X52525D01*
Y46419D01*
X52531D01*
Y46432D01*
X52537D01*
Y46450D01*
X52543D01*
Y46456D01*
X52549D01*
Y46468D01*
X52555D01*
Y46480D01*
X52561D01*
Y46493D01*
X52568D01*
Y46499D01*
X52574D01*
Y46511D01*
X52580D01*
Y46523D01*
X52586D01*
Y46529D01*
X52592D01*
Y46542D01*
X52598D01*
Y46548D01*
X52604D01*
Y46554D01*
X52610D01*
Y46566D01*
X52616D01*
Y46572D01*
X52623D01*
Y46578D01*
X52629D01*
Y46590D01*
X52635D01*
Y46597D01*
X52641D01*
Y46603D01*
X52647D01*
Y46609D01*
X52653D01*
Y46615D01*
X52659D01*
Y46621D01*
X52665D01*
Y46633D01*
X52671D01*
Y46639D01*
X52678D01*
Y46645D01*
X52684D01*
Y46651D01*
X52690D01*
Y46658D01*
X52696D01*
Y46664D01*
X52702D01*
Y46670D01*
X52708D01*
Y46676D01*
X52714D01*
Y46682D01*
X52720D01*
Y46688D01*
X52726D01*
Y46694D01*
X52732D01*
Y46700D01*
X52745D01*
Y46706D01*
X52751D01*
Y46713D01*
X52757D01*
Y46719D01*
X52763D01*
Y46725D01*
X52769D01*
Y46731D01*
X52781D01*
Y46737D01*
X52787D01*
Y46743D01*
X52794D01*
Y46749D01*
X52806D01*
Y46755D01*
X52812D01*
Y46761D01*
X52818D01*
Y46768D01*
X52830D01*
Y46774D01*
X52836D01*
Y46780D01*
X52849D01*
Y46786D01*
X52861D01*
Y46792D01*
X52867D01*
Y46798D01*
X52879D01*
Y46804D01*
X52891D01*
Y46810D01*
X52903D01*
Y46816D01*
X52916D01*
Y46822D01*
X52922D01*
Y46829D01*
X52940D01*
Y46835D01*
X52952D01*
Y46841D01*
X52965D01*
Y46847D01*
X52977D01*
Y46853D01*
X52995D01*
Y46859D01*
X53013D01*
Y46865D01*
X53032D01*
Y46871D01*
X53044D01*
Y46877D01*
X53068D01*
Y46884D01*
X53087D01*
Y46890D01*
X53111D01*
Y46896D01*
X53142D01*
Y46902D01*
X53172D01*
Y46908D01*
X53215D01*
Y46914D01*
X58211D01*
Y46908D01*
D02*
G37*
%LPC*%
G36*
X57284Y50920D02*
X56670D01*
Y49693D01*
X57284D01*
Y50920D01*
D02*
G37*
G36*
X58180Y46529D02*
X53246D01*
Y46523D01*
X53209D01*
Y46517D01*
X53178D01*
Y46511D01*
X53160D01*
Y46505D01*
X53142D01*
Y46499D01*
X53123D01*
Y46493D01*
X53117D01*
Y46487D01*
X53099D01*
Y46480D01*
X53087D01*
Y46474D01*
X53081D01*
Y46468D01*
X53062D01*
Y46462D01*
X53056D01*
Y46456D01*
X53044D01*
Y46450D01*
X53038D01*
Y46444D01*
X53032D01*
Y46438D01*
X53020D01*
Y46432D01*
X53013D01*
Y46425D01*
X53001D01*
Y46419D01*
X52995D01*
Y46413D01*
X52989D01*
Y46407D01*
X52983D01*
Y46401D01*
X52977D01*
Y46395D01*
X52971D01*
Y46389D01*
X52965D01*
Y46383D01*
X52958D01*
Y46377D01*
X52952D01*
Y46371D01*
X52946D01*
Y46364D01*
X52940D01*
Y46352D01*
X52934D01*
Y46346D01*
X52928D01*
Y46340D01*
X52922D01*
Y46328D01*
X52916D01*
Y46322D01*
X52910D01*
Y46316D01*
X52903D01*
Y46303D01*
X52897D01*
Y46291D01*
X52891D01*
Y46279D01*
X52885D01*
Y46273D01*
X52879D01*
Y46261D01*
X52873D01*
Y46242D01*
X52867D01*
Y46236D01*
X52861D01*
Y46212D01*
X52855D01*
Y46200D01*
X52849D01*
Y46181D01*
X52842D01*
Y46151D01*
X52836D01*
Y46120D01*
X52830D01*
Y45552D01*
Y45546D01*
Y42712D01*
X52836D01*
Y42682D01*
X52842D01*
Y42651D01*
X52849D01*
Y42633D01*
X52855D01*
Y42621D01*
X52861D01*
Y42596D01*
X52867D01*
Y42590D01*
X52873D01*
Y42572D01*
X52879D01*
Y42559D01*
X52885D01*
Y42553D01*
X52891D01*
Y42541D01*
X52897D01*
Y42529D01*
X52903D01*
Y42517D01*
X52910D01*
Y42511D01*
X52916D01*
Y42504D01*
X52922D01*
Y42492D01*
X52928D01*
Y42486D01*
X52934D01*
Y42480D01*
X52940D01*
Y42468D01*
X52946D01*
Y42462D01*
X52952D01*
Y42456D01*
X52958D01*
Y42450D01*
X52965D01*
Y42443D01*
X52971D01*
Y42437D01*
X52977D01*
Y42431D01*
X52983D01*
Y42425D01*
X52989D01*
Y42419D01*
X52995D01*
Y42413D01*
X53001D01*
Y42407D01*
X53013D01*
Y42401D01*
X53020D01*
Y42395D01*
X53032D01*
Y42388D01*
X53038D01*
Y42382D01*
X53044D01*
Y42376D01*
X53056D01*
Y42370D01*
X53062D01*
Y42364D01*
X53081D01*
Y42358D01*
X53087D01*
Y42352D01*
X53099D01*
Y42346D01*
X53117D01*
Y42340D01*
X53123D01*
Y42333D01*
X53142D01*
Y42327D01*
X53160D01*
Y42321D01*
X53178D01*
Y42315D01*
X53209D01*
Y42309D01*
X53246D01*
Y42303D01*
X58180D01*
Y42309D01*
X58217D01*
Y42315D01*
X58248D01*
Y42321D01*
X58266D01*
Y42327D01*
X58284D01*
Y42333D01*
X58303D01*
Y42340D01*
X58309D01*
Y42346D01*
X58327D01*
Y42352D01*
X58339D01*
Y42358D01*
X58345D01*
Y42364D01*
X58364D01*
Y42370D01*
X58370D01*
Y42376D01*
X58382D01*
Y42382D01*
X58388D01*
Y42388D01*
X58394D01*
Y42395D01*
X58406D01*
Y42401D01*
X58412D01*
Y42407D01*
X58425D01*
Y42413D01*
X58431D01*
Y42419D01*
X58437D01*
Y42425D01*
X58443D01*
Y42431D01*
X58449D01*
Y42437D01*
X58455D01*
Y42443D01*
X58461D01*
Y42450D01*
X58467D01*
Y42456D01*
X58474D01*
Y42462D01*
X58480D01*
Y42468D01*
X58486D01*
Y42480D01*
X58492D01*
Y42486D01*
X58498D01*
Y42492D01*
X58504D01*
Y42504D01*
X58510D01*
Y42511D01*
X58516D01*
Y42517D01*
X58522D01*
Y42529D01*
X58528D01*
Y42541D01*
X58535D01*
Y42553D01*
X58541D01*
Y42559D01*
X58547D01*
Y42572D01*
X58553D01*
Y42590D01*
X58559D01*
Y42596D01*
X58565D01*
Y42621D01*
X58571D01*
Y42633D01*
X58577D01*
Y42651D01*
X58583D01*
Y42682D01*
X58590D01*
Y42712D01*
X58596D01*
Y46120D01*
X58590D01*
Y46151D01*
X58583D01*
Y46181D01*
X58577D01*
Y46200D01*
X58571D01*
Y46212D01*
X58565D01*
Y46236D01*
X58559D01*
Y46242D01*
X58553D01*
Y46261D01*
X58547D01*
Y46273D01*
X58541D01*
Y46279D01*
X58535D01*
Y46291D01*
X58528D01*
Y46303D01*
X58522D01*
Y46316D01*
X58516D01*
Y46322D01*
X58510D01*
Y46328D01*
X58504D01*
Y46340D01*
X58498D01*
Y46346D01*
X58492D01*
Y46352D01*
X58486D01*
Y46364D01*
X58480D01*
Y46371D01*
X58474D01*
Y46377D01*
X58467D01*
Y46383D01*
X58461D01*
Y46389D01*
X58455D01*
Y46395D01*
X58449D01*
Y46401D01*
X58443D01*
Y46407D01*
X58437D01*
Y46413D01*
X58431D01*
Y46419D01*
X58425D01*
Y46425D01*
X58412D01*
Y46432D01*
X58406D01*
Y46438D01*
X58394D01*
Y46444D01*
X58388D01*
Y46450D01*
X58382D01*
Y46456D01*
X58370D01*
Y46462D01*
X58364D01*
Y46468D01*
X58345D01*
Y46474D01*
X58339D01*
Y46480D01*
X58327D01*
Y46487D01*
X58309D01*
Y46493D01*
X58303D01*
Y46499D01*
X58284D01*
Y46505D01*
X58266D01*
Y46511D01*
X58248D01*
Y46517D01*
X58217D01*
Y46523D01*
X58180D01*
Y46529D01*
D02*
G37*
%LPD*%
G36*
X55615Y42877D02*
X55041D01*
Y43066D01*
X55420D01*
Y43072D01*
X55426D01*
Y44318D01*
X55420D01*
Y44331D01*
X55408D01*
Y44337D01*
X55401D01*
Y44343D01*
X55395D01*
Y44349D01*
X55389D01*
Y44355D01*
X55383D01*
Y44361D01*
X55377D01*
Y44367D01*
X55371D01*
Y44373D01*
X55365D01*
Y44379D01*
X55359D01*
Y44386D01*
X55347D01*
Y44392D01*
X55340D01*
Y44398D01*
X55334D01*
Y44404D01*
X55328D01*
Y44410D01*
X55322D01*
Y44416D01*
X55316D01*
Y44422D01*
X55310D01*
Y44428D01*
X55304D01*
Y44434D01*
X55298D01*
Y44441D01*
X55285D01*
Y44447D01*
X55279D01*
Y44453D01*
X55273D01*
Y44459D01*
X55267D01*
Y44465D01*
X55261D01*
Y44471D01*
X55255D01*
Y44477D01*
X55249D01*
Y44483D01*
X55243D01*
Y44489D01*
X55237D01*
Y44496D01*
X55230D01*
Y44502D01*
X55224D01*
Y44508D01*
X55212D01*
Y44514D01*
X55206D01*
Y44520D01*
X55200D01*
Y44526D01*
X55194D01*
Y44532D01*
X55188D01*
Y44538D01*
X55182D01*
Y44544D01*
X55175D01*
Y44550D01*
X55169D01*
Y44557D01*
X55163D01*
Y44563D01*
X55151D01*
Y44569D01*
X55145D01*
Y44575D01*
X55139D01*
Y44581D01*
X55133D01*
Y44587D01*
X55127D01*
Y44593D01*
X55121D01*
Y44599D01*
X55114D01*
Y44605D01*
X55108D01*
Y44612D01*
X55102D01*
Y44618D01*
X55096D01*
Y44624D01*
X55090D01*
Y44630D01*
X55078D01*
Y44636D01*
X55072D01*
Y44642D01*
X55066D01*
Y44648D01*
X55059D01*
Y44654D01*
X55053D01*
Y44660D01*
X55047D01*
Y44667D01*
X55041D01*
Y44673D01*
X55035D01*
Y44679D01*
X55029D01*
Y44685D01*
X55023D01*
Y44691D01*
X55011D01*
Y44697D01*
X55004D01*
Y44703D01*
X54998D01*
Y44709D01*
X54992D01*
Y44715D01*
X54986D01*
Y44722D01*
X54980D01*
Y44728D01*
X54974D01*
Y44734D01*
X54968D01*
Y44740D01*
X54962D01*
Y44746D01*
X54950D01*
Y44752D01*
X54943D01*
Y44758D01*
X54937D01*
Y44764D01*
X54931D01*
Y44770D01*
X54925D01*
Y44776D01*
X54919D01*
Y44783D01*
X54913D01*
Y44789D01*
X54907D01*
Y44795D01*
X54901D01*
Y44801D01*
X54895D01*
Y44807D01*
X54882D01*
Y44813D01*
X54876D01*
Y44819D01*
X54870D01*
Y44825D01*
X54864D01*
Y44831D01*
X54858D01*
Y44838D01*
X54852D01*
Y44844D01*
X54846D01*
Y44850D01*
X54840D01*
Y44856D01*
X54833D01*
Y44862D01*
X54827D01*
Y44868D01*
X54815D01*
Y44874D01*
X54809D01*
Y44880D01*
X54803D01*
Y44886D01*
X54797D01*
Y44893D01*
X54791D01*
Y44899D01*
X54785D01*
Y44905D01*
X54778D01*
Y44911D01*
X54772D01*
Y44917D01*
X54766D01*
Y44923D01*
X54760D01*
Y44929D01*
X54748D01*
Y44935D01*
X54742D01*
Y44941D01*
X54736D01*
Y44947D01*
X54730D01*
Y44954D01*
X54724D01*
Y44960D01*
X54717D01*
Y44966D01*
X54711D01*
Y44972D01*
X54705D01*
Y44978D01*
X54699D01*
Y44984D01*
X54693D01*
Y44990D01*
X54687D01*
Y44996D01*
X54675D01*
Y45002D01*
X54669D01*
Y45009D01*
X54662D01*
Y45015D01*
X54656D01*
Y45021D01*
X54650D01*
Y45027D01*
X54644D01*
Y45033D01*
X54638D01*
Y45039D01*
X54632D01*
Y45045D01*
X54626D01*
Y45051D01*
X54614D01*
Y45057D01*
X54607D01*
Y45064D01*
X54601D01*
Y45070D01*
X54595D01*
Y45076D01*
X54589D01*
Y45082D01*
X54583D01*
Y45088D01*
X54577D01*
Y45094D01*
X54571D01*
Y45100D01*
X54565D01*
Y45106D01*
X54559D01*
Y45112D01*
X54546D01*
Y45118D01*
X54540D01*
Y45125D01*
X54534D01*
Y45131D01*
X54528D01*
Y45137D01*
X54522D01*
Y45143D01*
X54516D01*
Y45149D01*
X54510D01*
Y45155D01*
X54504D01*
Y45161D01*
X54498D01*
Y45167D01*
X54491D01*
Y45173D01*
X54485D01*
Y45180D01*
X54473D01*
Y45186D01*
X54467D01*
Y45192D01*
X54461D01*
Y45198D01*
X54455D01*
Y45204D01*
X54449D01*
Y45210D01*
X54443D01*
Y45216D01*
X54436D01*
Y45222D01*
X54430D01*
Y45228D01*
X54424D01*
Y45235D01*
X54412D01*
Y45241D01*
X54406D01*
Y45247D01*
X54400D01*
Y45253D01*
X54394D01*
Y45259D01*
X54388D01*
Y45265D01*
X54382D01*
Y45271D01*
X54375D01*
Y45277D01*
X54363D01*
Y45259D01*
X54357D01*
Y45241D01*
X54351D01*
Y45222D01*
X54345D01*
Y45198D01*
X54339D01*
Y45180D01*
X54333D01*
Y45161D01*
X54327D01*
Y45143D01*
X54320D01*
Y45125D01*
X54314D01*
Y45106D01*
X54308D01*
Y45088D01*
X54302D01*
Y45070D01*
X54296D01*
Y45045D01*
X54290D01*
Y45027D01*
X54284D01*
Y45009D01*
X54278D01*
Y44990D01*
X54272D01*
Y44972D01*
X54265D01*
Y44954D01*
X54259D01*
Y44929D01*
X54253D01*
Y44917D01*
X54247D01*
Y44893D01*
X54241D01*
Y44874D01*
X54235D01*
Y44856D01*
X54229D01*
Y44838D01*
X54223D01*
Y44819D01*
X54217D01*
Y44801D01*
X54210D01*
Y44776D01*
X54204D01*
Y44758D01*
X54198D01*
Y44740D01*
X54192D01*
Y44722D01*
X54186D01*
Y44703D01*
X54180D01*
Y44685D01*
X54174D01*
Y44667D01*
X54168D01*
Y44642D01*
X54162D01*
Y44624D01*
X54156D01*
Y44605D01*
X54149D01*
Y44587D01*
X54143D01*
Y44569D01*
X54137D01*
Y44550D01*
X54131D01*
Y44526D01*
X54125D01*
Y44508D01*
X54119D01*
Y44489D01*
X54113D01*
Y44471D01*
X54107D01*
Y44453D01*
X54101D01*
Y44434D01*
X54094D01*
Y44416D01*
X54088D01*
Y44398D01*
X54082D01*
Y44373D01*
X54076D01*
Y44355D01*
X54070D01*
Y44337D01*
X54064D01*
Y44318D01*
X54058D01*
Y44300D01*
X54052D01*
Y44282D01*
X54046D01*
Y44263D01*
X54039D01*
Y44245D01*
X54033D01*
Y44221D01*
X54027D01*
Y44202D01*
X54021D01*
Y44184D01*
X54015D01*
Y44166D01*
X54009D01*
Y44147D01*
X54003D01*
Y44129D01*
X53997D01*
Y44105D01*
X53991D01*
Y44086D01*
X53985D01*
Y44068D01*
X53978D01*
Y44050D01*
X53972D01*
Y44031D01*
X53966D01*
Y44013D01*
X53960D01*
Y43995D01*
X53954D01*
Y43970D01*
X53948D01*
Y43952D01*
X53942D01*
Y43934D01*
X53936D01*
Y43915D01*
X53930D01*
Y43897D01*
X53923D01*
Y43879D01*
X53917D01*
Y43860D01*
X53911D01*
Y43842D01*
X53905D01*
Y43818D01*
X53899D01*
Y43799D01*
X53893D01*
Y43781D01*
X53887D01*
Y43763D01*
X53881D01*
Y43744D01*
X53875D01*
Y43726D01*
X53868D01*
Y43702D01*
X53862D01*
Y43683D01*
X53856D01*
Y43665D01*
X53850D01*
Y43647D01*
X53844D01*
Y43628D01*
X53838D01*
Y43610D01*
X53832D01*
Y43592D01*
X53826D01*
Y43573D01*
X53820D01*
Y43549D01*
X53814D01*
Y43531D01*
X53807D01*
Y43512D01*
X53801D01*
Y43494D01*
X53795D01*
Y43476D01*
X53789D01*
Y43457D01*
X53783D01*
Y43439D01*
X53777D01*
Y43415D01*
X53771D01*
Y43396D01*
X53765D01*
Y43378D01*
X53759D01*
Y43360D01*
X53752D01*
Y43341D01*
X53746D01*
Y43323D01*
X53740D01*
Y43298D01*
X53734D01*
Y43280D01*
X53728D01*
Y43262D01*
X53722D01*
Y43243D01*
X53716D01*
Y43225D01*
X53710D01*
Y43207D01*
X53704D01*
Y43182D01*
X53697D01*
Y43164D01*
X53887D01*
Y42975D01*
X53117D01*
Y43164D01*
X53594D01*
Y43170D01*
X53600D01*
Y43182D01*
X53606D01*
Y43201D01*
X53612D01*
Y43219D01*
X53618D01*
Y43237D01*
X53624D01*
Y43256D01*
X53630D01*
Y43274D01*
X53636D01*
Y43292D01*
X53643D01*
Y43317D01*
X53649D01*
Y43329D01*
X53655D01*
Y43353D01*
X53661D01*
Y43372D01*
X53667D01*
Y43390D01*
X53673D01*
Y43408D01*
X53679D01*
Y43427D01*
X53685D01*
Y43445D01*
X53691D01*
Y43463D01*
X53697D01*
Y43488D01*
X53704D01*
Y43506D01*
X53710D01*
Y43524D01*
X53716D01*
Y43543D01*
X53722D01*
Y43561D01*
X53728D01*
Y43579D01*
X53734D01*
Y43598D01*
X53740D01*
Y43616D01*
X53746D01*
Y43634D01*
X53752D01*
Y43653D01*
X53759D01*
Y43677D01*
X53765D01*
Y43695D01*
X53771D01*
Y43714D01*
X53777D01*
Y43732D01*
X53783D01*
Y43750D01*
X53789D01*
Y43769D01*
X53795D01*
Y43787D01*
X53801D01*
Y43805D01*
X53807D01*
Y43830D01*
X53814D01*
Y43848D01*
X53820D01*
Y43866D01*
X53826D01*
Y43885D01*
X53832D01*
Y43903D01*
X53838D01*
Y43921D01*
X53844D01*
Y43940D01*
X53850D01*
Y43958D01*
X53856D01*
Y43976D01*
X53862D01*
Y43995D01*
X53868D01*
Y44019D01*
X53875D01*
Y44037D01*
X53881D01*
Y44056D01*
X53887D01*
Y44074D01*
X53893D01*
Y44092D01*
X53899D01*
Y44111D01*
X53905D01*
Y44129D01*
X53911D01*
Y44147D01*
X53917D01*
Y44172D01*
X53923D01*
Y44190D01*
X53930D01*
Y44208D01*
X53936D01*
Y44227D01*
X53942D01*
Y44245D01*
X53948D01*
Y44263D01*
X53954D01*
Y44282D01*
X53960D01*
Y44300D01*
X53966D01*
Y44318D01*
X53972D01*
Y44343D01*
X53978D01*
Y44361D01*
X53985D01*
Y44379D01*
X53991D01*
Y44398D01*
X53997D01*
Y44416D01*
X54003D01*
Y44434D01*
X54009D01*
Y44453D01*
X54015D01*
Y44471D01*
X54021D01*
Y44496D01*
X54027D01*
Y44514D01*
X54033D01*
Y44532D01*
X54039D01*
Y44550D01*
X54046D01*
Y44569D01*
X54052D01*
Y44587D01*
X54058D01*
Y44605D01*
X54064D01*
Y44624D01*
X54070D01*
Y44642D01*
X54076D01*
Y44660D01*
X54082D01*
Y44685D01*
X54088D01*
Y44703D01*
X54094D01*
Y44722D01*
X54101D01*
Y44740D01*
X54107D01*
Y44758D01*
X54113D01*
Y44776D01*
X54119D01*
Y44795D01*
X54125D01*
Y44813D01*
X54131D01*
Y44838D01*
X54137D01*
Y44856D01*
X54143D01*
Y44874D01*
X54149D01*
Y44893D01*
X54156D01*
Y44911D01*
X54162D01*
Y44929D01*
X54168D01*
Y44947D01*
X54174D01*
Y44966D01*
X54180D01*
Y44990D01*
X54186D01*
Y45002D01*
X54192D01*
Y45027D01*
X54198D01*
Y45045D01*
X54204D01*
Y45064D01*
X54210D01*
Y45082D01*
X54217D01*
Y45100D01*
X54223D01*
Y45118D01*
X54229D01*
Y45137D01*
X54235D01*
Y45155D01*
X54241D01*
Y45180D01*
X54247D01*
Y45198D01*
X54253D01*
Y45216D01*
X54259D01*
Y45235D01*
X54265D01*
Y45253D01*
X54272D01*
Y45271D01*
X54278D01*
Y45290D01*
X54284D01*
Y45308D01*
X54290D01*
Y45326D01*
X54296D01*
Y45351D01*
X54302D01*
Y45369D01*
X54308D01*
Y45387D01*
X54314D01*
Y45406D01*
X54320D01*
Y45424D01*
X54327D01*
Y45442D01*
X54333D01*
Y45461D01*
X54339D01*
Y45479D01*
X54345D01*
Y45503D01*
X54351D01*
Y45522D01*
X54357D01*
Y45540D01*
X54363D01*
Y45558D01*
X54369D01*
Y45577D01*
X54375D01*
Y45595D01*
X54382D01*
Y45613D01*
X54388D01*
Y45632D01*
X54394D01*
Y45650D01*
X54400D01*
Y45674D01*
X54406D01*
Y45693D01*
X54412D01*
Y45711D01*
X54418D01*
Y45729D01*
X54424D01*
Y45748D01*
X54430D01*
Y45766D01*
X54436D01*
Y45784D01*
X54443D01*
Y45803D01*
X54449D01*
Y45821D01*
X54455D01*
Y45845D01*
X54461D01*
Y45851D01*
X54473D01*
Y45845D01*
X54479D01*
Y45839D01*
X54485D01*
Y45833D01*
X54491D01*
Y45827D01*
X54498D01*
Y45821D01*
X54504D01*
Y45815D01*
X54510D01*
Y45809D01*
X54516D01*
Y45803D01*
X54522D01*
Y45796D01*
X54528D01*
Y45790D01*
X54534D01*
Y45784D01*
X54540D01*
Y45778D01*
X54546D01*
Y45772D01*
X54553D01*
Y45766D01*
X54559D01*
Y45760D01*
X54565D01*
Y45754D01*
X54571D01*
Y45748D01*
X54577D01*
Y45741D01*
X54583D01*
Y45735D01*
X54589D01*
Y45729D01*
X54595D01*
Y45723D01*
X54601D01*
Y45717D01*
X54607D01*
Y45711D01*
X54614D01*
Y45705D01*
X54620D01*
Y45699D01*
X54626D01*
Y45693D01*
X54632D01*
Y45686D01*
X54638D01*
Y45680D01*
X54644D01*
Y45674D01*
X54650D01*
Y45668D01*
X54656D01*
Y45662D01*
X54662D01*
Y45656D01*
X54669D01*
Y45650D01*
X54675D01*
Y45644D01*
X54681D01*
Y45638D01*
X54687D01*
Y45632D01*
X54693D01*
Y45625D01*
X54699D01*
Y45619D01*
X54705D01*
Y45613D01*
X54711D01*
Y45607D01*
X54717D01*
Y45601D01*
X54724D01*
Y45595D01*
X54730D01*
Y45589D01*
X54736D01*
Y45583D01*
X54742D01*
Y45577D01*
X54748D01*
Y45570D01*
X54754D01*
Y45564D01*
X54760D01*
Y45558D01*
X54766D01*
Y45552D01*
X54772D01*
Y45546D01*
X54778D01*
Y45540D01*
X54785D01*
Y45534D01*
X54791D01*
Y45528D01*
X54797D01*
Y45522D01*
X54803D01*
Y45515D01*
X54809D01*
Y45509D01*
X54815D01*
Y45503D01*
X54821D01*
Y45497D01*
X54827D01*
Y45491D01*
X54833D01*
Y45485D01*
X54840D01*
Y45479D01*
X54846D01*
Y45473D01*
X54852D01*
Y45467D01*
X54858D01*
Y45461D01*
X54864D01*
Y45454D01*
X54870D01*
Y45448D01*
X54876D01*
Y45442D01*
X54882D01*
Y45436D01*
X54888D01*
Y45430D01*
X54895D01*
Y45424D01*
X54901D01*
Y45418D01*
X54907D01*
Y45412D01*
X54913D01*
Y45406D01*
X54919D01*
Y45399D01*
X54925D01*
Y45393D01*
X54931D01*
Y45387D01*
X54937D01*
Y45381D01*
X54943D01*
Y45375D01*
X54950D01*
Y45369D01*
X54956D01*
Y45363D01*
X54962D01*
Y45357D01*
X54968D01*
Y45351D01*
X54974D01*
Y45344D01*
X54980D01*
Y45338D01*
X54986D01*
Y45332D01*
X54992D01*
Y45326D01*
X54998D01*
Y45320D01*
X55004D01*
Y45314D01*
X55011D01*
Y45308D01*
X55017D01*
Y45302D01*
X55023D01*
Y45296D01*
X55029D01*
Y45290D01*
X55035D01*
Y45283D01*
X55041D01*
Y45277D01*
X55047D01*
Y45271D01*
X55053D01*
Y45265D01*
X55059D01*
Y45259D01*
X55066D01*
Y45253D01*
X55072D01*
Y45247D01*
X55078D01*
Y45241D01*
X55084D01*
Y45235D01*
X55090D01*
Y45228D01*
X55096D01*
Y45222D01*
X55102D01*
Y45216D01*
X55108D01*
Y45210D01*
X55114D01*
Y45204D01*
X55121D01*
Y45198D01*
X55127D01*
Y45192D01*
X55133D01*
Y45186D01*
X55139D01*
Y45180D01*
X55145D01*
Y45173D01*
X55151D01*
Y45167D01*
X55157D01*
Y45161D01*
X55163D01*
Y45155D01*
X55169D01*
Y45149D01*
X55175D01*
Y45143D01*
X55182D01*
Y45137D01*
X55188D01*
Y45131D01*
X55194D01*
Y45125D01*
X55200D01*
Y45118D01*
X55206D01*
Y45112D01*
X55212D01*
Y45106D01*
X55218D01*
Y45100D01*
X55224D01*
Y45094D01*
X55230D01*
Y45088D01*
X55237D01*
Y45082D01*
X55243D01*
Y45076D01*
X55249D01*
Y45070D01*
X55255D01*
Y45064D01*
X55261D01*
Y45057D01*
X55267D01*
Y45051D01*
X55273D01*
Y45045D01*
X55279D01*
Y45039D01*
X55285D01*
Y45033D01*
X55292D01*
Y45027D01*
X55298D01*
Y45021D01*
X55304D01*
Y45015D01*
X55310D01*
Y45009D01*
X55316D01*
Y45002D01*
X55322D01*
Y44996D01*
X55328D01*
Y44990D01*
X55334D01*
Y44984D01*
X55340D01*
Y44978D01*
X55347D01*
Y44972D01*
X55353D01*
Y44966D01*
X55359D01*
Y44960D01*
X55365D01*
Y44954D01*
X55371D01*
Y44947D01*
X55377D01*
Y44941D01*
X55383D01*
Y44935D01*
X55389D01*
Y44929D01*
X55395D01*
Y44923D01*
X55401D01*
Y44917D01*
X55408D01*
Y44911D01*
X55414D01*
Y44905D01*
X55426D01*
Y46047D01*
X55414D01*
Y46053D01*
X54943D01*
Y46242D01*
X55615D01*
Y42877D01*
D02*
G37*
G36*
X56482Y46053D02*
X56012D01*
Y46047D01*
X56000D01*
Y44905D01*
X56012D01*
Y44911D01*
X56018D01*
Y44917D01*
X56024D01*
Y44923D01*
X56031D01*
Y44929D01*
X56037D01*
Y44935D01*
X56043D01*
Y44941D01*
X56049D01*
Y44947D01*
X56055D01*
Y44954D01*
X56061D01*
Y44960D01*
X56067D01*
Y44966D01*
X56073D01*
Y44972D01*
X56079D01*
Y44978D01*
X56085D01*
Y44984D01*
X56092D01*
Y44990D01*
X56098D01*
Y44996D01*
X56104D01*
Y45002D01*
X56110D01*
Y45009D01*
X56116D01*
Y45015D01*
X56122D01*
Y45021D01*
X56128D01*
Y45027D01*
X56134D01*
Y45033D01*
X56140D01*
Y45039D01*
X56147D01*
Y45045D01*
X56153D01*
Y45051D01*
X56159D01*
Y45057D01*
X56165D01*
Y45064D01*
X56171D01*
Y45070D01*
X56177D01*
Y45076D01*
X56183D01*
Y45082D01*
X56189D01*
Y45088D01*
X56195D01*
Y45094D01*
X56202D01*
Y45100D01*
X56208D01*
Y45106D01*
X56214D01*
Y45112D01*
X56220D01*
Y45118D01*
X56226D01*
Y45125D01*
X56232D01*
Y45131D01*
X56238D01*
Y45137D01*
X56244D01*
Y45143D01*
X56250D01*
Y45149D01*
X56257D01*
Y45155D01*
X56263D01*
Y45161D01*
X56269D01*
Y45167D01*
X56275D01*
Y45173D01*
X56281D01*
Y45180D01*
X56287D01*
Y45186D01*
X56293D01*
Y45192D01*
X56299D01*
Y45198D01*
X56305D01*
Y45204D01*
X56311D01*
Y45210D01*
X56318D01*
Y45216D01*
X56324D01*
Y45222D01*
X56330D01*
Y45228D01*
X56336D01*
Y45235D01*
X56342D01*
Y45241D01*
X56348D01*
Y45247D01*
X56354D01*
Y45253D01*
X56360D01*
Y45259D01*
X56366D01*
Y45265D01*
X56373D01*
Y45271D01*
X56379D01*
Y45277D01*
X56385D01*
Y45283D01*
X56391D01*
Y45290D01*
X56397D01*
Y45296D01*
X56403D01*
Y45302D01*
X56409D01*
Y45308D01*
X56415D01*
Y45314D01*
X56421D01*
Y45320D01*
X56428D01*
Y45326D01*
X56434D01*
Y45332D01*
X56440D01*
Y45338D01*
X56446D01*
Y45344D01*
X56452D01*
Y45351D01*
X56458D01*
Y45357D01*
X56464D01*
Y45363D01*
X56470D01*
Y45369D01*
X56476D01*
Y45375D01*
X56482D01*
Y45381D01*
X56489D01*
Y45387D01*
X56495D01*
Y45393D01*
X56501D01*
Y45399D01*
X56507D01*
Y45406D01*
X56513D01*
Y45412D01*
X56519D01*
Y45418D01*
X56525D01*
Y45424D01*
X56531D01*
Y45430D01*
X56537D01*
Y45436D01*
X56544D01*
Y45442D01*
X56550D01*
Y45448D01*
X56556D01*
Y45454D01*
X56562D01*
Y45461D01*
X56568D01*
Y45467D01*
X56574D01*
Y45473D01*
X56580D01*
Y45479D01*
X56586D01*
Y45485D01*
X56592D01*
Y45491D01*
X56599D01*
Y45497D01*
X56605D01*
Y45503D01*
X56611D01*
Y45509D01*
X56617D01*
Y45515D01*
X56623D01*
Y45522D01*
X56629D01*
Y45528D01*
X56635D01*
Y45534D01*
X56641D01*
Y45540D01*
X56647D01*
Y45546D01*
X56653D01*
Y45552D01*
X56660D01*
Y45558D01*
X56666D01*
Y45564D01*
X56672D01*
Y45570D01*
X56678D01*
Y45577D01*
X56684D01*
Y45583D01*
X56690D01*
Y45589D01*
X56696D01*
Y45595D01*
X56702D01*
Y45601D01*
X56708D01*
Y45607D01*
X56715D01*
Y45613D01*
X56721D01*
Y45619D01*
X56727D01*
Y45625D01*
X56733D01*
Y45632D01*
X56739D01*
Y45638D01*
X56745D01*
Y45644D01*
X56751D01*
Y45650D01*
X56757D01*
Y45656D01*
X56763D01*
Y45662D01*
X56770D01*
Y45668D01*
X56776D01*
Y45674D01*
X56782D01*
Y45680D01*
X56788D01*
Y45686D01*
X56794D01*
Y45693D01*
X56800D01*
Y45699D01*
X56806D01*
Y45705D01*
X56812D01*
Y45711D01*
X56818D01*
Y45717D01*
X56825D01*
Y45723D01*
X56831D01*
Y45729D01*
X56837D01*
Y45735D01*
X56843D01*
Y45741D01*
X56849D01*
Y45748D01*
X56855D01*
Y45754D01*
X56861D01*
Y45760D01*
X56867D01*
Y45766D01*
X56873D01*
Y45772D01*
X56879D01*
Y45778D01*
X56886D01*
Y45784D01*
X56892D01*
Y45790D01*
X56898D01*
Y45796D01*
X56904D01*
Y45803D01*
X56910D01*
Y45809D01*
X56916D01*
Y45815D01*
X56922D01*
Y45821D01*
X56928D01*
Y45827D01*
X56934D01*
Y45833D01*
X56941D01*
Y45839D01*
X56947D01*
Y45845D01*
X56953D01*
Y45851D01*
X56965D01*
Y45845D01*
X56971D01*
Y45821D01*
X56977D01*
Y45803D01*
X56983D01*
Y45784D01*
X56989D01*
Y45766D01*
X56996D01*
Y45748D01*
X57002D01*
Y45729D01*
X57008D01*
Y45711D01*
X57014D01*
Y45693D01*
X57020D01*
Y45674D01*
X57026D01*
Y45650D01*
X57032D01*
Y45632D01*
X57038D01*
Y45613D01*
X57044D01*
Y45595D01*
X57050D01*
Y45577D01*
X57057D01*
Y45558D01*
X57063D01*
Y45540D01*
X57069D01*
Y45522D01*
X57075D01*
Y45503D01*
X57081D01*
Y45479D01*
X57087D01*
Y45461D01*
X57093D01*
Y45442D01*
X57099D01*
Y45424D01*
X57105D01*
Y45406D01*
X57112D01*
Y45387D01*
X57118D01*
Y45369D01*
X57124D01*
Y45351D01*
X57130D01*
Y45326D01*
X57136D01*
Y45308D01*
X57142D01*
Y45290D01*
X57148D01*
Y45271D01*
X57154D01*
Y45253D01*
X57160D01*
Y45235D01*
X57167D01*
Y45216D01*
X57173D01*
Y45198D01*
X57179D01*
Y45180D01*
X57185D01*
Y45161D01*
X57191D01*
Y45137D01*
X57197D01*
Y45118D01*
X57203D01*
Y45100D01*
X57209D01*
Y45082D01*
X57215D01*
Y45064D01*
X57222D01*
Y45045D01*
X57228D01*
Y45027D01*
X57234D01*
Y45009D01*
X57240D01*
Y44990D01*
X57246D01*
Y44966D01*
X57252D01*
Y44947D01*
X57258D01*
Y44929D01*
X57264D01*
Y44911D01*
X57270D01*
Y44893D01*
X57276D01*
Y44874D01*
X57283D01*
Y44856D01*
X57289D01*
Y44838D01*
X57295D01*
Y44819D01*
X57301D01*
Y44801D01*
X57307D01*
Y44776D01*
X57313D01*
Y44758D01*
X57319D01*
Y44740D01*
X57325D01*
Y44722D01*
X57331D01*
Y44703D01*
X57338D01*
Y44685D01*
X57344D01*
Y44667D01*
X57350D01*
Y44648D01*
X57356D01*
Y44624D01*
X57362D01*
Y44605D01*
X57368D01*
Y44587D01*
X57374D01*
Y44569D01*
X57380D01*
Y44550D01*
X57386D01*
Y44532D01*
X57393D01*
Y44514D01*
X57399D01*
Y44496D01*
X57405D01*
Y44477D01*
X57411D01*
Y44453D01*
X57417D01*
Y44434D01*
X57423D01*
Y44416D01*
X57429D01*
Y44398D01*
X57435D01*
Y44379D01*
X57441D01*
Y44361D01*
X57447D01*
Y44343D01*
X57454D01*
Y44325D01*
X57460D01*
Y44306D01*
X57466D01*
Y44282D01*
X57472D01*
Y44263D01*
X57478D01*
Y44245D01*
X57484D01*
Y44227D01*
X57490D01*
Y44208D01*
X57496D01*
Y44190D01*
X57502D01*
Y44172D01*
X57509D01*
Y44153D01*
X57515D01*
Y44135D01*
X57521D01*
Y44111D01*
X57527D01*
Y44092D01*
X57533D01*
Y44074D01*
X57539D01*
Y44056D01*
X57545D01*
Y44037D01*
X57551D01*
Y44019D01*
X57557D01*
Y44001D01*
X57564D01*
Y43982D01*
X57570D01*
Y43958D01*
X57576D01*
Y43940D01*
X57582D01*
Y43921D01*
X57588D01*
Y43903D01*
X57594D01*
Y43885D01*
X57600D01*
Y43866D01*
X57606D01*
Y43848D01*
X57612D01*
Y43830D01*
X57618D01*
Y43811D01*
X57625D01*
Y43793D01*
X57631D01*
Y43769D01*
X57637D01*
Y43750D01*
X57643D01*
Y43732D01*
X57649D01*
Y43714D01*
X57655D01*
Y43695D01*
X57661D01*
Y43677D01*
X57667D01*
Y43659D01*
X57673D01*
Y43640D01*
X57680D01*
Y43622D01*
X57686D01*
Y43598D01*
X57692D01*
Y43579D01*
X57698D01*
Y43561D01*
X57704D01*
Y43543D01*
X57710D01*
Y43524D01*
X57716D01*
Y43506D01*
X57722D01*
Y43488D01*
X57728D01*
Y43469D01*
X57735D01*
Y43445D01*
X57741D01*
Y43427D01*
X57747D01*
Y43408D01*
X57753D01*
Y43390D01*
X57759D01*
Y43372D01*
X57765D01*
Y43353D01*
X57771D01*
Y43335D01*
X57777D01*
Y43317D01*
X57783D01*
Y43298D01*
X57789D01*
Y43274D01*
X57796D01*
Y43256D01*
X57802D01*
Y43237D01*
X57808D01*
Y43219D01*
X57814D01*
Y43201D01*
X57820D01*
Y43182D01*
X57826D01*
Y43170D01*
X57832D01*
Y43164D01*
X58309D01*
Y42975D01*
X57539D01*
Y43164D01*
X57728D01*
Y43189D01*
X57722D01*
Y43207D01*
X57716D01*
Y43225D01*
X57710D01*
Y43243D01*
X57704D01*
Y43268D01*
X57698D01*
Y43286D01*
X57692D01*
Y43305D01*
X57686D01*
Y43323D01*
X57680D01*
Y43341D01*
X57673D01*
Y43360D01*
X57667D01*
Y43378D01*
X57661D01*
Y43396D01*
X57655D01*
Y43421D01*
X57649D01*
Y43439D01*
X57643D01*
Y43457D01*
X57637D01*
Y43476D01*
X57631D01*
Y43494D01*
X57625D01*
Y43512D01*
X57618D01*
Y43537D01*
X57612D01*
Y43555D01*
X57606D01*
Y43573D01*
X57600D01*
Y43592D01*
X57594D01*
Y43610D01*
X57588D01*
Y43628D01*
X57582D01*
Y43647D01*
X57576D01*
Y43665D01*
X57570D01*
Y43689D01*
X57564D01*
Y43708D01*
X57557D01*
Y43726D01*
X57551D01*
Y43744D01*
X57545D01*
Y43763D01*
X57539D01*
Y43781D01*
X57533D01*
Y43799D01*
X57527D01*
Y43824D01*
X57521D01*
Y43842D01*
X57515D01*
Y43860D01*
X57509D01*
Y43879D01*
X57502D01*
Y43897D01*
X57496D01*
Y43915D01*
X57490D01*
Y43940D01*
X57484D01*
Y43958D01*
X57478D01*
Y43976D01*
X57472D01*
Y43995D01*
X57466D01*
Y44013D01*
X57460D01*
Y44031D01*
X57454D01*
Y44050D01*
X57447D01*
Y44068D01*
X57441D01*
Y44092D01*
X57435D01*
Y44111D01*
X57429D01*
Y44129D01*
X57423D01*
Y44147D01*
X57417D01*
Y44166D01*
X57411D01*
Y44184D01*
X57405D01*
Y44202D01*
X57399D01*
Y44227D01*
X57393D01*
Y44245D01*
X57386D01*
Y44263D01*
X57380D01*
Y44282D01*
X57374D01*
Y44300D01*
X57368D01*
Y44318D01*
X57362D01*
Y44337D01*
X57356D01*
Y44361D01*
X57350D01*
Y44379D01*
X57344D01*
Y44398D01*
X57338D01*
Y44416D01*
X57331D01*
Y44434D01*
X57325D01*
Y44453D01*
X57319D01*
Y44471D01*
X57313D01*
Y44496D01*
X57307D01*
Y44514D01*
X57301D01*
Y44532D01*
X57295D01*
Y44550D01*
X57289D01*
Y44569D01*
X57283D01*
Y44587D01*
X57276D01*
Y44612D01*
X57270D01*
Y44630D01*
X57264D01*
Y44648D01*
X57258D01*
Y44667D01*
X57252D01*
Y44685D01*
X57246D01*
Y44703D01*
X57240D01*
Y44722D01*
X57234D01*
Y44740D01*
X57228D01*
Y44764D01*
X57222D01*
Y44783D01*
X57215D01*
Y44801D01*
X57209D01*
Y44819D01*
X57203D01*
Y44838D01*
X57197D01*
Y44856D01*
X57191D01*
Y44874D01*
X57185D01*
Y44893D01*
X57179D01*
Y44917D01*
X57173D01*
Y44935D01*
X57167D01*
Y44954D01*
X57160D01*
Y44972D01*
X57154D01*
Y44990D01*
X57148D01*
Y45015D01*
X57142D01*
Y45033D01*
X57136D01*
Y45051D01*
X57130D01*
Y45070D01*
X57124D01*
Y45088D01*
X57118D01*
Y45106D01*
X57112D01*
Y45125D01*
X57105D01*
Y45143D01*
X57099D01*
Y45167D01*
X57093D01*
Y45186D01*
X57087D01*
Y45204D01*
X57081D01*
Y45222D01*
X57075D01*
Y45241D01*
X57069D01*
Y45259D01*
X57063D01*
Y45277D01*
X57050D01*
Y45271D01*
X57044D01*
Y45265D01*
X57038D01*
Y45259D01*
X57032D01*
Y45253D01*
X57026D01*
Y45247D01*
X57020D01*
Y45241D01*
X57014D01*
Y45235D01*
X57008D01*
Y45228D01*
X57002D01*
Y45222D01*
X56989D01*
Y45216D01*
X56983D01*
Y45210D01*
X56977D01*
Y45204D01*
X56971D01*
Y45198D01*
X56965D01*
Y45192D01*
X56959D01*
Y45186D01*
X56953D01*
Y45180D01*
X56947D01*
Y45173D01*
X56941D01*
Y45167D01*
X56928D01*
Y45161D01*
X56922D01*
Y45155D01*
X56916D01*
Y45149D01*
X56910D01*
Y45143D01*
X56904D01*
Y45137D01*
X56898D01*
Y45131D01*
X56892D01*
Y45125D01*
X56886D01*
Y45118D01*
X56879D01*
Y45112D01*
X56873D01*
Y45106D01*
X56861D01*
Y45100D01*
X56855D01*
Y45094D01*
X56849D01*
Y45088D01*
X56843D01*
Y45082D01*
X56837D01*
Y45076D01*
X56831D01*
Y45070D01*
X56825D01*
Y45064D01*
X56818D01*
Y45057D01*
X56812D01*
Y45051D01*
X56806D01*
Y45045D01*
X56794D01*
Y45039D01*
X56788D01*
Y45033D01*
X56782D01*
Y45027D01*
X56776D01*
Y45021D01*
X56770D01*
Y45015D01*
X56763D01*
Y45009D01*
X56757D01*
Y45002D01*
X56751D01*
Y44996D01*
X56745D01*
Y44990D01*
X56739D01*
Y44984D01*
X56727D01*
Y44978D01*
X56721D01*
Y44972D01*
X56715D01*
Y44966D01*
X56708D01*
Y44960D01*
X56702D01*
Y44954D01*
X56696D01*
Y44947D01*
X56690D01*
Y44941D01*
X56684D01*
Y44935D01*
X56678D01*
Y44929D01*
X56672D01*
Y44923D01*
X56660D01*
Y44917D01*
X56653D01*
Y44911D01*
X56647D01*
Y44905D01*
X56641D01*
Y44899D01*
X56635D01*
Y44893D01*
X56629D01*
Y44886D01*
X56623D01*
Y44880D01*
X56617D01*
Y44874D01*
X56611D01*
Y44868D01*
X56605D01*
Y44862D01*
X56592D01*
Y44856D01*
X56586D01*
Y44850D01*
X56580D01*
Y44844D01*
X56574D01*
Y44838D01*
X56568D01*
Y44831D01*
X56562D01*
Y44825D01*
X56556D01*
Y44819D01*
X56550D01*
Y44813D01*
X56544D01*
Y44807D01*
X56531D01*
Y44801D01*
X56525D01*
Y44795D01*
X56519D01*
Y44789D01*
X56513D01*
Y44783D01*
X56507D01*
Y44776D01*
X56501D01*
Y44770D01*
X56495D01*
Y44764D01*
X56489D01*
Y44758D01*
X56482D01*
Y44752D01*
X56476D01*
Y44746D01*
X56470D01*
Y44740D01*
X56458D01*
Y44734D01*
X56452D01*
Y44728D01*
X56446D01*
Y44722D01*
X56440D01*
Y44715D01*
X56434D01*
Y44709D01*
X56428D01*
Y44703D01*
X56421D01*
Y44697D01*
X56415D01*
Y44691D01*
X56409D01*
Y44685D01*
X56397D01*
Y44679D01*
X56391D01*
Y44673D01*
X56385D01*
Y44667D01*
X56379D01*
Y44660D01*
X56373D01*
Y44654D01*
X56366D01*
Y44648D01*
X56360D01*
Y44642D01*
X56354D01*
Y44636D01*
X56348D01*
Y44630D01*
X56342D01*
Y44624D01*
X56336D01*
Y44618D01*
X56324D01*
Y44612D01*
X56318D01*
Y44605D01*
X56311D01*
Y44599D01*
X56305D01*
Y44593D01*
X56299D01*
Y44587D01*
X56293D01*
Y44581D01*
X56287D01*
Y44575D01*
X56281D01*
Y44569D01*
X56275D01*
Y44563D01*
X56269D01*
Y44557D01*
X56257D01*
Y44550D01*
X56250D01*
Y44544D01*
X56244D01*
Y44538D01*
X56238D01*
Y44532D01*
X56232D01*
Y44526D01*
X56226D01*
Y44520D01*
X56220D01*
Y44514D01*
X56214D01*
Y44508D01*
X56208D01*
Y44502D01*
X56195D01*
Y44496D01*
X56189D01*
Y44489D01*
X56183D01*
Y44483D01*
X56177D01*
Y44477D01*
X56171D01*
Y44471D01*
X56165D01*
Y44465D01*
X56159D01*
Y44459D01*
X56153D01*
Y44453D01*
X56147D01*
Y44447D01*
X56140D01*
Y44441D01*
X56134D01*
Y44434D01*
X56122D01*
Y44428D01*
X56116D01*
Y44422D01*
X56110D01*
Y44416D01*
X56104D01*
Y44410D01*
X56098D01*
Y44404D01*
X56092D01*
Y44398D01*
X56085D01*
Y44392D01*
X56079D01*
Y44386D01*
X56073D01*
Y44379D01*
X56061D01*
Y44373D01*
X56055D01*
Y44367D01*
X56049D01*
Y44361D01*
X56043D01*
Y44355D01*
X56037D01*
Y44349D01*
X56031D01*
Y44343D01*
X56024D01*
Y44337D01*
X56018D01*
Y44331D01*
X56006D01*
Y44318D01*
X56000D01*
Y43506D01*
Y43500D01*
Y43072D01*
X56006D01*
Y43066D01*
X56385D01*
Y42877D01*
X55811D01*
Y46242D01*
X56482D01*
Y46053D01*
D02*
G37*
D13*
X29000Y40375D02*
X33000D01*
X29000Y43625D02*
X33000D01*
Y40375D02*
Y43625D01*
X29000Y40375D02*
Y43625D01*
X27626Y48659D02*
Y50159D01*
X28376D01*
X28626Y49909D01*
Y49409D01*
X28376Y49159D01*
X27626D01*
X28126D02*
X28626Y48659D01*
X29875D02*
X29376D01*
X29126Y48909D01*
Y49409D01*
X29376Y49659D01*
X29875D01*
X30125Y49409D01*
Y49159D01*
X29126D01*
X30625Y48659D02*
X31125D01*
X30875D01*
Y50159D01*
X30625D01*
X32125Y49659D02*
X32624D01*
X32874Y49409D01*
Y48659D01*
X32125D01*
X31875Y48909D01*
X32125Y49159D01*
X32874D01*
X33374Y49659D02*
Y48909D01*
X33624Y48659D01*
X34374D01*
Y48409D01*
X34124Y48159D01*
X33874D01*
X34374Y48659D02*
Y49659D01*
X24127Y46900D02*
Y45400D01*
Y45900D01*
X25127Y46900D01*
X24377Y46150D01*
X25127Y45400D01*
X25627D02*
X26127D01*
X25877D01*
Y46400D01*
X25627D01*
X26876Y45400D02*
X27376D01*
X27126D01*
Y46900D01*
X26876D01*
X28126Y45400D02*
X28626D01*
X28376D01*
Y46900D01*
X28126D01*
X30875D02*
Y45400D01*
X31625D01*
X31875Y45650D01*
Y45900D01*
X31625Y46150D01*
X30875D01*
X31625D01*
X31875Y46400D01*
Y46650D01*
X31625Y46900D01*
X30875D01*
X32624Y45400D02*
X33124D01*
X33374Y45650D01*
Y46150D01*
X33124Y46400D01*
X32624D01*
X32375Y46150D01*
Y45650D01*
X32624Y45400D01*
X34124Y46400D02*
X34624D01*
X34874Y46150D01*
Y45400D01*
X34124D01*
X33874Y45650D01*
X34124Y45900D01*
X34874D01*
X35374Y46400D02*
Y45400D01*
Y45900D01*
X35624Y46150D01*
X35873Y46400D01*
X36123D01*
X37873Y46900D02*
Y45400D01*
X37123D01*
X36873Y45650D01*
Y46150D01*
X37123Y46400D01*
X37873D01*
X29750Y42750D02*
Y41750D01*
X30250Y41250D01*
X30750Y41750D01*
Y42750D01*
X32250Y41250D02*
X31250D01*
X32250Y42250D01*
Y42500D01*
X32000Y42750D01*
X31500D01*
X31250Y42500D01*
D23*
X63250Y48975D02*
Y50025D01*
X64650Y29340D02*
Y30840D01*
X66150D01*
X70750D02*
X72250D01*
Y29340D02*
Y30840D01*
X64650Y10660D02*
X66150D01*
X64650D02*
Y12160D01*
X72250Y10660D02*
Y12160D01*
X70750Y10660D02*
X72250D01*
X59250Y30750D02*
X59750D01*
X59250Y30250D02*
Y30750D01*
X61750Y30250D02*
Y30750D01*
X61250D02*
X61750D01*
X61250Y21250D02*
X61750D01*
Y21750D01*
X59250Y21250D02*
Y21750D01*
Y21250D02*
X59750D01*
X72250Y41840D02*
Y43340D01*
X70750D02*
X72250D01*
X70750Y33240D02*
X72250D01*
Y34740D01*
X64650Y33240D02*
Y34740D01*
Y33240D02*
X66150D01*
X64650Y43340D02*
X66150D01*
X64650Y41840D02*
Y43340D01*
X62260Y6600D02*
Y7600D01*
X61260D02*
X62260D01*
X53660D02*
X54660D01*
X53660Y6600D02*
Y7600D01*
X63000Y1800D02*
Y2800D01*
X61000Y1800D02*
X63000D01*
X61000D02*
Y2500D01*
X53000Y1800D02*
Y2800D01*
Y1800D02*
X55000D01*
Y2500D01*
X52345Y28923D02*
X55000Y31578D01*
Y31578D02*
X57655Y28923D01*
X57650Y25500D02*
Y35000D01*
X52350Y25500D02*
X57650D01*
X52350D02*
Y35000D01*
X57650D01*
X55000D02*
Y37850D01*
Y22650D02*
Y25500D01*
X60267Y50000D02*
Y49000D01*
X60934D01*
X61267D02*
X61600D01*
X61433D01*
Y50000D01*
X61267Y49833D01*
X29834Y35325D02*
Y36325D01*
X30334D01*
X30500Y36158D01*
Y35825D01*
X30334Y35658D01*
X29834D01*
X30167D02*
X30500Y35325D01*
X30833Y36325D02*
Y35325D01*
X31500D01*
X31833D02*
X32166D01*
X32000D01*
Y36325D01*
X31833Y36158D01*
X59834Y31250D02*
Y32250D01*
X60333D01*
X60500Y32083D01*
Y31750D01*
X60333Y31583D01*
X59834D01*
X60167D02*
X60500Y31250D01*
X60833D02*
X61166D01*
X61000D01*
Y32250D01*
X60833Y32083D01*
X64417Y45000D02*
X65083Y44000D01*
Y45000D02*
X64417Y44000D01*
X66083Y45000D02*
X65417D01*
Y44500D01*
X65750Y44667D01*
X65916D01*
X66083Y44500D01*
Y44167D01*
X65916Y44000D01*
X65583D01*
X65417Y44167D01*
X63950Y2950D02*
X64616Y1950D01*
Y2950D02*
X63950Y1950D01*
X65450D02*
Y2950D01*
X64950Y2450D01*
X65616D01*
X58116Y14867D02*
Y15533D01*
X57950Y15700D01*
X57617D01*
X57450Y15533D01*
Y14867D01*
X57617Y14700D01*
X57950D01*
X57783Y15033D02*
X58116Y14700D01*
X57950D02*
X58116Y14867D01*
X58450Y14700D02*
X58783D01*
X58616D01*
Y15700D01*
X58450Y15533D01*
X54334Y40700D02*
Y39700D01*
X54833D01*
X55000Y39867D01*
Y40533D01*
X54833Y40700D01*
X54334D01*
X55333Y39700D02*
X55666D01*
X55500D01*
Y40700D01*
X55333Y40533D01*
X64700Y9700D02*
X65366Y8700D01*
Y9700D02*
X64700Y8700D01*
X65700Y9533D02*
X65866Y9700D01*
X66200D01*
X66366Y9533D01*
Y9366D01*
X66200Y9200D01*
X66033D01*
X66200D01*
X66366Y9033D01*
Y8867D01*
X66200Y8700D01*
X65866D01*
X65700Y8867D01*
X45527Y42300D02*
X46193Y41300D01*
Y42300D02*
X45527Y41300D01*
X47193D02*
X46527D01*
X47193Y41967D01*
Y42133D01*
X47026Y42300D01*
X46693D01*
X46527Y42133D01*
X14974Y42300D02*
X15640Y41300D01*
Y42300D02*
X14974Y41300D01*
X15973D02*
X16306D01*
X16140D01*
Y42300D01*
X15973Y42133D01*
D24*
X50000Y17000D02*
Y20000D01*
Y32875D02*
Y34875D01*
Y2125D02*
Y4125D01*
X48000Y34875D02*
X50000D01*
X48000Y2125D02*
X50000D01*
X29500Y2125D02*
X32500D01*
X29500Y34875D02*
X32500D01*
X12000D02*
X14000D01*
X12000Y2125D02*
X14000D01*
X12000Y17000D02*
Y20000D01*
X12000Y32875D02*
Y34875D01*
Y2125D02*
Y4125D01*
X73167Y35750D02*
X73833D01*
X73500Y36083D02*
Y35417D01*
X73167Y40830D02*
X73833D01*
X55667Y8750D02*
X56333D01*
X58167Y9250D02*
X57833D01*
X57667Y9083D01*
Y8417D01*
X57833Y8250D01*
X58167D01*
X58333Y8417D01*
Y9083D01*
X58167Y9250D01*
X59833D02*
X60167D01*
X60000D01*
Y8250D01*
X59833D01*
X60167D01*
D25*
X59250Y18700D02*
Y19700D01*
X58750D02*
X59250D01*
X58750Y16300D02*
X59250D01*
Y16800D01*
X56750Y19700D02*
X57250D01*
X56750Y19200D02*
Y19700D01*
Y16300D02*
Y16800D01*
Y16300D02*
X57250D01*
X14140Y43000D02*
X17140D01*
X14140Y50000D02*
X17140D01*
X44860Y43000D02*
X47860D01*
X44860Y50000D02*
X47860D01*
D26*
X63050Y36990D02*
X62850Y36790D01*
Y36391D01*
X63050Y36191D01*
X63850D01*
X64050Y36391D01*
Y36790D01*
X63850Y36990D01*
X62850Y37990D02*
Y37590D01*
X63050Y37390D01*
X63850D01*
X64050Y37590D01*
Y37990D01*
X63850Y38190D01*
X63050D01*
X62850Y37990D01*
Y38590D02*
Y38990D01*
Y38790D01*
X64050D01*
Y38590D01*
Y38990D01*
X62850Y39590D02*
X64050D01*
Y40389D01*
X62850Y22491D02*
X64050D01*
X63650D01*
X62850Y23291D01*
X63450Y22691D01*
X64050Y23291D01*
X62850Y23691D02*
Y24091D01*
Y23891D01*
X64050D01*
Y23691D01*
Y24091D01*
X62850Y24690D02*
X64050D01*
Y25490D01*
X62850Y25890D02*
X64050D01*
Y26690D01*
Y29089D02*
Y28289D01*
X63250Y29089D01*
X63050D01*
X62850Y28889D01*
Y28489D01*
X63050Y28289D01*
X62850Y12611D02*
X64050D01*
X63650D01*
X62850Y13411D01*
X63450Y12811D01*
X64050Y13411D01*
X62850Y13811D02*
Y14210D01*
Y14011D01*
X64050D01*
Y13811D01*
Y14210D01*
X62850Y14810D02*
X64050D01*
Y15610D01*
X62850Y16010D02*
X64050D01*
Y16810D01*
Y18409D02*
Y18809D01*
Y18609D01*
X62850D01*
X63050Y18409D01*
X42195Y50800D02*
Y52050D01*
X42819D01*
X43028Y51841D01*
Y51425D01*
X42819Y51217D01*
X42195D01*
X43444Y52050D02*
Y50800D01*
X43861Y51217D01*
X44277Y50800D01*
Y52050D01*
X44694Y50800D02*
Y52050D01*
X45319D01*
X45527Y51841D01*
Y51425D01*
X45319Y51217D01*
X44694D01*
X45110D02*
X45527Y50800D01*
X47818Y52050D02*
X47401D01*
X47193Y51841D01*
Y51008D01*
X47401Y50800D01*
X47818D01*
X48026Y51008D01*
Y51841D01*
X47818Y52050D01*
X48443D02*
Y51008D01*
X48651Y50800D01*
X49067D01*
X49276Y51008D01*
Y52050D01*
X49692D02*
X50525D01*
X50109D01*
Y50800D01*
X12204D02*
Y52050D01*
X12828D01*
X13037Y51841D01*
Y51425D01*
X12828Y51217D01*
X12204D01*
X13453Y52050D02*
Y50800D01*
X13870Y51217D01*
X14286Y50800D01*
Y52050D01*
X14703Y50800D02*
Y52050D01*
X15328D01*
X15536Y51841D01*
Y51425D01*
X15328Y51217D01*
X14703D01*
X15119D02*
X15536Y50800D01*
X17202Y52050D02*
X17619D01*
X17410D01*
Y50800D01*
X17202D01*
X17619D01*
X18243D02*
Y52050D01*
X19076Y50800D01*
Y52050D01*
%TF.MD5,bf56f50b512d75779ba0cdfe285093f7*%
M02*
