%TF.GenerationSoftware,Altium Limited,Altium Designer,25.2.1 (25)*%
G04 Layer_Color=255*
%FSLAX43Y43*%
%MOMM*%
%TF.SameCoordinates,2CE3D87A-6310-41BA-B934-AA3AA0227215*%
%TF.FilePolarity,Positive*%
%TF.FileFunction,Pads,Bot*%
%TF.Part,Single*%
G01*
G75*
%TA.AperFunction,ComponentPad*%
%ADD15O,12.500X3.750*%
%ADD16O,3.000X5.500*%
%ADD17C,2.500*%
%ADD18C,6.000*%
%ADD19C,1.400*%
%ADD20C,1.500*%
%ADD21C,2.300*%
D15*
X41125Y31750D02*
D03*
X20875D02*
D03*
D16*
X47100Y8375D02*
D03*
X14900D02*
D03*
D17*
X68750Y23250D02*
D03*
Y28330D02*
D03*
Y18250D02*
D03*
Y13170D02*
D03*
Y35750D02*
D03*
Y40830D02*
D03*
X55000Y22650D02*
D03*
Y37850D02*
D03*
D18*
X4500Y49500D02*
D03*
X70000D02*
D03*
X4500Y4500D02*
D03*
X70000D02*
D03*
D19*
X60500Y29810D02*
D03*
Y22190D02*
D03*
D20*
X60000Y4500D02*
D03*
X58000D02*
D03*
X56000D02*
D03*
D21*
X18180Y49040D02*
D03*
Y46500D02*
D03*
Y43960D02*
D03*
X13100D02*
D03*
Y46500D02*
D03*
Y49040D02*
D03*
X48900D02*
D03*
Y46500D02*
D03*
Y43960D02*
D03*
X43820D02*
D03*
Y46500D02*
D03*
Y49040D02*
D03*
%TF.MD5,f9642d43426e9f56f36344952ef3b3a6*%
M02*
