%TF.GenerationSoftware,Altium Limited,Altium Designer,25.2.1 (25)*%
G04 Layer_Color=16711833*
%FSLAX43Y43*%
%MOMM*%
%TF.SameCoordinates,BEECB501-CD99-4A52-AAD6-2C5E1F68F19C*%
%TF.FilePolarity,Positive*%
%TF.FileFunction,Other,Mechanical_13*%
%TF.Part,Single*%
G01*
G75*
%TA.AperFunction,NonConductor*%
%ADD25C,0.200*%
%ADD27C,0.100*%
%ADD40C,0.127*%
D25*
X9990Y1000D02*
Y8600D01*
X20090Y1000D02*
Y8600D01*
X9990D02*
X20090D01*
X9990Y1000D02*
X20090D01*
D27*
X5125Y54000D02*
Y56000D01*
X3875Y54000D02*
X5125D01*
X3875D02*
Y56000D01*
X5125D01*
X6310Y11352D02*
Y16648D01*
X2690Y11352D02*
X6310D01*
X2690D02*
Y16648D01*
X6310D01*
X5235D02*
X6310Y15572D01*
X24915Y8040D02*
X35080D01*
X27450Y1441D02*
X27455Y1436D01*
X27450Y1441D02*
Y2960D01*
Y1441D02*
X27455Y1436D01*
X32545D01*
X24915Y2960D02*
Y8040D01*
Y2960D02*
X27450D01*
X32545Y1436D02*
Y2960D01*
X35080Y2960D02*
Y8040D01*
X32545Y2960D02*
X35080D01*
X39000Y33375D02*
Y34625D01*
Y33375D02*
X41000D01*
Y34625D01*
X39000D02*
X41000D01*
X39200Y39600D02*
X40800D01*
X39200D02*
Y40400D01*
X40800D01*
Y39600D02*
Y40400D01*
X8400Y64855D02*
X36600D01*
Y12405D02*
Y64855D01*
X8400Y12405D02*
X36600D01*
X8400D02*
Y64855D01*
X39000Y31375D02*
Y32625D01*
Y31375D02*
X41000D01*
Y32625D01*
X39000D02*
X41000D01*
X39200Y38100D02*
X40800D01*
X39200D02*
Y38900D01*
X40800D01*
Y38100D02*
Y38900D01*
X39000Y29375D02*
Y30625D01*
Y29375D02*
X41000D01*
Y30625D01*
X39000D02*
X41000D01*
X39200Y36600D02*
X40800D01*
X39200D02*
Y37400D01*
X40800D01*
Y36600D02*
Y37400D01*
X39000Y21375D02*
Y22625D01*
Y21375D02*
X41000D01*
Y22625D01*
X39000D02*
X41000D01*
X39200Y20650D02*
X40800D01*
Y19850D02*
Y20650D01*
X39200Y19850D02*
X40800D01*
X39200D02*
Y20650D01*
D40*
X19145Y16295D02*
X25855D01*
X25856Y12405D02*
Y16295D01*
X19144Y12405D02*
Y16295D01*
X13655Y58365D02*
X31345D01*
X13655D02*
Y64855D01*
Y45735D02*
Y58365D01*
Y45735D02*
X31345D01*
X31345D02*
Y58365D01*
Y64855D01*
%TF.MD5,d88af65bca192b643e738cd69690acf5*%
M02*
