M48
;Layer_Color=9474304
;FILE_FORMAT=4:3
METRIC,LZ
;TYPE=PLATED
T01F00S00C0.300
T02F00S00C0.762
T03F00S00C1.150
T04F00S00C1.300
T05F00S00C3.500
;TYPE=NON_PLATED
T06F00S00C3.000
%
T01
X004075Y0019
X0041Y002375
Y002825
X00045Y00162
Y005275
T02
X00352Y002344
Y002598
Y002852
Y003106
Y00336
Y003614
Y003868
Y004122
Y004376
Y00463
Y004884
Y005138
Y005392
X00098
Y005138
Y004884
Y00463
Y004376
Y004122
Y003868
Y003614
Y00336
Y003106
Y002852
Y002598
Y002344
Y005646
Y0059
X00352
Y005646
T03
X002746Y00055
X003
X003254
T04
X00125Y00045
X001758
T05
X00045Y00045
X00405
X00045Y00625
X00405
T06
X003478Y001548
X001027
Y006243
X003478
M30
