%TF.GenerationSoftware,Altium Limited,Altium Designer,25.2.1 (25)*%
G04 Layer_Color=8421504*
%FSLAX43Y43*%
%MOMM*%
%TF.SameCoordinates,BEECB501-CD99-4A52-AAD6-2C5E1F68F19C*%
%TF.FilePolarity,Positive*%
%TF.FileFunction,Paste,Top*%
%TF.Part,Single*%
G01*
G75*
%TA.AperFunction,SMDPad,CuDef*%
%ADD11R,1.250X0.600*%
%ADD12R,2.150X2.250*%
G04:AMPARAMS|DCode=13|XSize=1.25mm|YSize=0.6mm|CornerRadius=0.06mm|HoleSize=0mm|Usage=FLASHONLY|Rotation=270.000|XOffset=0mm|YOffset=0mm|HoleType=Round|Shape=RoundedRectangle|*
%AMROUNDEDRECTD13*
21,1,1.250,0.480,0,0,270.0*
21,1,1.130,0.600,0,0,270.0*
1,1,0.120,-0.240,-0.565*
1,1,0.120,-0.240,0.565*
1,1,0.120,0.240,0.565*
1,1,0.120,0.240,-0.565*
%
%ADD13ROUNDEDRECTD13*%
%ADD14R,0.650X0.700*%
D11*
X4500Y55900D02*
D03*
Y54100D02*
D03*
D12*
Y16200D02*
D03*
Y11800D02*
D03*
D13*
X39100Y34000D02*
D03*
X40900D02*
D03*
X39100Y32000D02*
D03*
X40900D02*
D03*
X39100Y30000D02*
D03*
X40900D02*
D03*
X39100Y22000D02*
D03*
X40900D02*
D03*
D14*
X40675Y40000D02*
D03*
X39325D02*
D03*
X40675Y38500D02*
D03*
X39325D02*
D03*
X40675Y37000D02*
D03*
X39325D02*
D03*
X39325Y20250D02*
D03*
X40675D02*
D03*
%TF.MD5,b4c431daa321d3afbde5386096e6cb92*%
M02*
