%TF.GenerationSoftware,Altium Limited,Altium Designer,25.2.1 (25)*%
G04 Layer_Color=16711935*
%FSLAX43Y43*%
%MOMM*%
%TF.SameCoordinates,BEECB501-CD99-4A52-AAD6-2C5E1F68F19C*%
%TF.FilePolarity,Negative*%
%TF.FileFunction,Soldermask,Bot*%
%TF.Part,Single*%
G01*
G75*
%TA.AperFunction,ComponentPad*%
%ADD34C,6.150*%
%ADD35C,2.650*%
%ADD36C,1.875*%
%ADD37C,1.674*%
%ADD38C,3.150*%
%TA.AperFunction,ViaPad*%
%ADD39C,0.850*%
D34*
X4500Y62500D02*
D03*
X40500D02*
D03*
X4500Y4500D02*
D03*
X40500D02*
D03*
D35*
X17580D02*
D03*
X12500D02*
D03*
D36*
X27460Y5500D02*
D03*
X30000D02*
D03*
X32540D02*
D03*
D37*
X9800Y28520D02*
D03*
Y25980D02*
D03*
Y59000D02*
D03*
Y56460D02*
D03*
Y53920D02*
D03*
Y51380D02*
D03*
Y48840D02*
D03*
Y46300D02*
D03*
Y43760D02*
D03*
Y41220D02*
D03*
Y38680D02*
D03*
Y36140D02*
D03*
Y33600D02*
D03*
Y31060D02*
D03*
Y23440D02*
D03*
X35200Y51380D02*
D03*
Y48840D02*
D03*
Y46300D02*
D03*
Y43760D02*
D03*
Y41220D02*
D03*
Y38680D02*
D03*
Y36140D02*
D03*
Y33600D02*
D03*
Y31060D02*
D03*
Y28520D02*
D03*
Y25980D02*
D03*
Y23440D02*
D03*
Y59000D02*
D03*
Y53920D02*
D03*
Y56460D02*
D03*
D38*
X10270Y15480D02*
D03*
Y62430D02*
D03*
X34780Y15480D02*
D03*
Y62430D02*
D03*
D39*
X4500Y52750D02*
D03*
X41000Y23750D02*
D03*
X40750Y19000D02*
D03*
X41000Y28250D02*
D03*
X4500Y16200D02*
D03*
%TF.MD5,f08bb3a4de0f01dca08e2bc880d03654*%
M02*
