%TF.GenerationSoftware,Altium Limited,Altium Designer,25.2.1 (25)*%
G04 Layer_Color=65535*
%FSLAX43Y43*%
%MOMM*%
%TF.SameCoordinates,BEECB501-CD99-4A52-AAD6-2C5E1F68F19C*%
%TF.FilePolarity,Positive*%
%TF.FileFunction,Legend,Top*%
%TF.Part,Single*%
G01*
G75*
%TA.AperFunction,NonConductor*%
%ADD25C,0.200*%
%ADD26C,0.254*%
%ADD27C,0.100*%
%ADD28C,0.500*%
%ADD29C,0.250*%
D25*
X3975Y55000D02*
X5025D01*
X6310Y11352D02*
Y16648D01*
X2690Y11352D02*
Y16648D01*
X18590Y8600D02*
X20090D01*
Y7100D02*
Y8600D01*
X9990Y7100D02*
Y8600D01*
X11490D01*
X9990Y1000D02*
X11490D01*
X9990D02*
Y2500D01*
X20090Y1000D02*
Y2500D01*
X18590Y1000D02*
X20090D01*
X40000Y39600D02*
Y40400D01*
Y38100D02*
Y38900D01*
Y36600D02*
Y37400D01*
X40000Y19850D02*
Y20650D01*
X7334Y8750D02*
X8000Y7750D01*
Y8750D02*
X7334Y7750D01*
X8333D02*
X8666D01*
X8500D01*
Y8750D01*
X8333Y8583D01*
X41425Y19750D02*
Y20750D01*
X41925D01*
X42092Y20583D01*
Y20250D01*
X41925Y20083D01*
X41425D01*
X41758D02*
X42092Y19750D01*
X42925D02*
Y20750D01*
X42425Y20250D01*
X43091D01*
X41425Y36500D02*
Y37500D01*
X41925D01*
X42091Y37333D01*
Y37000D01*
X41925Y36833D01*
X41425D01*
X41758D02*
X42091Y36500D01*
X42425Y37333D02*
X42591Y37500D01*
X42925D01*
X43091Y37333D01*
Y37167D01*
X42925Y37000D01*
X42758D01*
X42925D01*
X43091Y36833D01*
Y36667D01*
X42925Y36500D01*
X42591D01*
X42425Y36667D01*
X41425Y38000D02*
Y39000D01*
X41925D01*
X42091Y38833D01*
Y38500D01*
X41925Y38333D01*
X41425D01*
X41758D02*
X42091Y38000D01*
X43091D02*
X42425D01*
X43091Y38667D01*
Y38833D01*
X42925Y39000D01*
X42591D01*
X42425Y38833D01*
X41425Y39500D02*
Y40500D01*
X41925D01*
X42091Y40333D01*
Y40000D01*
X41925Y39833D01*
X41425D01*
X41758D02*
X42091Y39500D01*
X42425D02*
X42758D01*
X42591D01*
Y40500D01*
X42425Y40333D01*
X1584Y55750D02*
Y54750D01*
X2250D01*
X2583D02*
X2916D01*
X2750D01*
Y55750D01*
X2583Y55583D01*
X22084Y7250D02*
Y6250D01*
Y6750D01*
X22750D01*
Y7250D01*
Y6250D01*
X23083D02*
X23416D01*
X23250D01*
Y7250D01*
X23083Y7083D01*
X21500Y11805D02*
X20834D01*
Y10805D01*
X21500D01*
X20834Y11305D02*
X21167D01*
X22500Y11638D02*
X22333Y11805D01*
X22000D01*
X21834Y11638D01*
Y11472D01*
X22000Y11305D01*
X22333D01*
X22500Y11139D01*
Y10972D01*
X22333Y10805D01*
X22000D01*
X21834Y10972D01*
X22833Y10805D02*
Y11805D01*
X23333D01*
X23500Y11638D01*
Y11305D01*
X23333Y11139D01*
X22833D01*
X23833Y10805D02*
X24166D01*
X24000D01*
Y11805D01*
X23833Y11638D01*
X41650Y22500D02*
Y21500D01*
X42150D01*
X42317Y21667D01*
Y22333D01*
X42150Y22500D01*
X41650D01*
X43316D02*
X42650D01*
Y22000D01*
X42983Y22167D01*
X43150D01*
X43316Y22000D01*
Y21667D01*
X43150Y21500D01*
X42816D01*
X42650Y21667D01*
X41650Y30500D02*
Y29500D01*
X42150D01*
X42317Y29667D01*
Y30333D01*
X42150Y30500D01*
X41650D01*
X43150Y29500D02*
Y30500D01*
X42650Y30000D01*
X43316D01*
X41650Y32500D02*
Y31500D01*
X42150D01*
X42317Y31667D01*
Y32333D01*
X42150Y32500D01*
X41650D01*
X42650Y32333D02*
X42816Y32500D01*
X43150D01*
X43316Y32333D01*
Y32167D01*
X43150Y32000D01*
X42983D01*
X43150D01*
X43316Y31833D01*
Y31667D01*
X43150Y31500D01*
X42816D01*
X42650Y31667D01*
X41650Y34500D02*
Y33500D01*
X42150D01*
X42317Y33667D01*
Y34333D01*
X42150Y34500D01*
X41650D01*
X43316Y33500D02*
X42650D01*
X43316Y34167D01*
Y34333D01*
X43150Y34500D01*
X42816D01*
X42650Y34333D01*
X2334Y10000D02*
Y9000D01*
X2833D01*
X3000Y9167D01*
Y9833D01*
X2833Y10000D01*
X2334D01*
X3333Y9000D02*
X3666D01*
X3500D01*
Y10000D01*
X3333Y9833D01*
D26*
X3612Y13555D02*
X4500Y14444D01*
X4500Y14444D02*
X5390Y13556D01*
X27455Y1436D02*
Y2436D01*
Y1436D02*
X28455D01*
X24920Y2960D02*
Y3960D01*
Y2960D02*
X25920D01*
X24915Y8040D02*
X25915D01*
X24915Y7040D02*
Y8040D01*
X31545Y1436D02*
X32545D01*
Y2436D01*
X34080Y2960D02*
X35080D01*
Y3960D01*
Y7040D02*
Y8040D01*
X34080D02*
X35080D01*
X36600Y62855D02*
Y64855D01*
X34600D02*
X36600D01*
X8400D02*
X10400D01*
X8400Y62855D02*
Y64855D01*
X36600Y12405D02*
Y14405D01*
X8400Y12405D02*
Y14405D01*
X34600Y12405D02*
X36600D01*
X8400D02*
X10400D01*
D27*
X40368Y34298D02*
Y34498D01*
X40168D02*
X40368D01*
X40178Y34308D02*
X40368Y34498D01*
X39716Y34508D02*
X40224Y34000D01*
X39716Y33492D02*
X40224Y34000D01*
X40368Y32298D02*
Y32498D01*
X40168D02*
X40368D01*
X40178Y32308D02*
X40368Y32498D01*
X39716Y32508D02*
X40224Y32000D01*
X39716Y31492D02*
X40224Y32000D01*
X40368Y30298D02*
Y30498D01*
X40168D02*
X40368D01*
X40178Y30308D02*
X40368Y30498D01*
X39716Y30508D02*
X40224Y30000D01*
X39716Y29492D02*
X40224Y30000D01*
X40368Y22298D02*
Y22498D01*
X40168D02*
X40368D01*
X40178Y22308D02*
X40368Y22498D01*
X39716Y22508D02*
X40224Y22000D01*
X39716Y21492D02*
X40224Y22000D01*
D28*
X19168Y43226D02*
X17835D01*
Y41227D01*
X19168D01*
X17835Y42227D02*
X18501D01*
X21167Y42893D02*
X20834Y43226D01*
X20167D01*
X19834Y42893D01*
Y42560D01*
X20167Y42227D01*
X20834D01*
X21167Y41894D01*
Y41560D01*
X20834Y41227D01*
X20167D01*
X19834Y41560D01*
X21834Y41227D02*
Y43226D01*
X22833D01*
X23166Y42893D01*
Y42227D01*
X22833Y41894D01*
X21834D01*
X23833Y42893D02*
X24166Y43226D01*
X24833D01*
X25166Y42893D01*
Y42560D01*
X24833Y42227D01*
X24499D01*
X24833D01*
X25166Y41894D01*
Y41560D01*
X24833Y41227D01*
X24166D01*
X23833Y41560D01*
X27165Y41227D02*
X25832D01*
X27165Y42560D01*
Y42893D01*
X26832Y43226D01*
X26165D01*
X25832Y42893D01*
X17835Y39627D02*
Y37628D01*
X18501Y38294D01*
X19168Y37628D01*
Y39627D01*
X19834Y37628D02*
Y39627D01*
X20834D01*
X21167Y39294D01*
Y38627D01*
X20834Y38294D01*
X19834D01*
X20501D02*
X21167Y37628D01*
X22833Y39627D02*
X22167D01*
X21834Y39294D01*
Y37961D01*
X22167Y37628D01*
X22833D01*
X23166Y37961D01*
Y39294D01*
X22833Y39627D01*
X24833D02*
X24166D01*
X23833Y39294D01*
Y37961D01*
X24166Y37628D01*
X24833D01*
X25166Y37961D01*
Y39294D01*
X24833Y39627D01*
X25832Y37628D02*
Y39627D01*
X26499Y38961D01*
X27165Y39627D01*
Y37628D01*
X19834Y35695D02*
X20167Y36028D01*
X20834D01*
X21167Y35695D01*
Y35361D01*
X20834Y35028D01*
X20501D01*
X20834D01*
X21167Y34695D01*
Y34362D01*
X20834Y34029D01*
X20167D01*
X19834Y34362D01*
X23166Y34029D02*
X21834D01*
X23166Y35361D01*
Y35695D01*
X22833Y36028D01*
X22167D01*
X21834Y35695D01*
X23833Y36028D02*
Y34029D01*
X24833D01*
X25166Y34362D01*
Y35695D01*
X24833Y36028D01*
X23833D01*
D29*
X38050Y26380D02*
X37850Y26580D01*
X37450D01*
X37250Y26380D01*
Y25580D01*
X37450Y25380D01*
X37850D01*
X38050Y25580D01*
Y25980D01*
X37650D01*
X38450Y25380D02*
Y26580D01*
X39249Y25380D01*
Y26580D01*
X39649D02*
Y25380D01*
X40249D01*
X40449Y25580D01*
Y26380D01*
X40249Y26580D01*
X39649D01*
X5351Y26380D02*
X5151Y26580D01*
X4751D01*
X4551Y26380D01*
Y25580D01*
X4751Y25380D01*
X5151D01*
X5351Y25580D01*
Y25980D01*
X4951D01*
X5751Y25380D02*
Y26580D01*
X6550Y25380D01*
Y26580D01*
X6950D02*
Y25380D01*
X7550D01*
X7750Y25580D01*
Y26380D01*
X7550Y26580D01*
X6950D01*
X4551Y23440D02*
X5351D01*
X4951Y23840D02*
Y23040D01*
X6550Y24040D02*
X5751D01*
Y23440D01*
X6151Y23640D01*
X6350D01*
X6550Y23440D01*
Y23040D01*
X6350Y22840D01*
X5951D01*
X5751Y23040D01*
X6950Y24040D02*
Y23240D01*
X7350Y22840D01*
X7750Y23240D01*
Y24040D01*
X38050Y49240D02*
X37850Y49440D01*
X37450D01*
X37250Y49240D01*
Y49040D01*
X37450Y48840D01*
X37850D01*
X38050Y48640D01*
Y48440D01*
X37850Y48240D01*
X37450D01*
X37250Y48440D01*
X38450Y49440D02*
Y48240D01*
X39049D01*
X39249Y48440D01*
Y49240D01*
X39049Y49440D01*
X38450D01*
X39649Y48240D02*
Y49040D01*
X40049Y49440D01*
X40449Y49040D01*
Y48240D01*
Y48840D01*
X39649D01*
X38050Y56860D02*
X37850Y57060D01*
X37450D01*
X37250Y56860D01*
Y56660D01*
X37450Y56460D01*
X37850D01*
X38050Y56260D01*
Y56060D01*
X37850Y55860D01*
X37450D01*
X37250Y56060D01*
X39249Y56860D02*
X39049Y57060D01*
X38650D01*
X38450Y56860D01*
Y56060D01*
X38650Y55860D01*
X39049D01*
X39249Y56060D01*
X39649Y57060D02*
Y55860D01*
X40449D01*
X19876Y14730D02*
X19376D01*
Y16230D01*
X19876D01*
X20626D02*
Y14980D01*
X20876Y14730D01*
X21375D01*
X21625Y14980D01*
Y16230D01*
X23125Y15980D02*
X22875Y16230D01*
X22375D01*
X22125Y15980D01*
Y15730D01*
X22375Y15480D01*
X22875D01*
X23125Y15230D01*
Y14980D01*
X22875Y14730D01*
X22375D01*
X22125Y14980D01*
X23625Y16230D02*
Y14730D01*
X24374D01*
X24624Y14980D01*
Y15230D01*
X24374Y15480D01*
X23625D01*
X24374D01*
X24624Y15730D01*
Y15980D01*
X24374Y16230D01*
X23625D01*
X25124Y14730D02*
X25624D01*
Y16230D01*
X25124D01*
%TF.MD5,f356fc498211ed79cdef44d718fa4eaf*%
M02*
