%TF.GenerationSoftware,Altium Limited,Altium Designer,25.2.1 (25)*%
G04 Layer_Color=128*
%FSLAX43Y43*%
%MOMM*%
%TF.SameCoordinates,BEECB501-CD99-4A52-AAD6-2C5E1F68F19C*%
%TF.FilePolarity,Positive*%
%TF.FileFunction,Drillmap*%
%TF.Part,Single*%
G01*
G75*
%TA.AperFunction,NonConductor*%
%ADD40C,0.127*%
D40*
X2750Y62500D02*
X6250D01*
X4500Y60750D02*
Y64250D01*
X38750Y62500D02*
X42250D01*
X40500Y60750D02*
Y64250D01*
X2750Y4500D02*
X6250D01*
X4500Y2750D02*
Y6250D01*
X38750Y4500D02*
X42250D01*
X40500Y2750D02*
Y6250D01*
X16930Y4500D02*
X18230D01*
X17580Y3850D02*
Y5150D01*
X11850Y4500D02*
X13150D01*
X12500Y3850D02*
Y5150D01*
X26885Y5500D02*
X28035D01*
X27460Y4925D02*
Y6075D01*
X29425Y5500D02*
X30575D01*
X30000Y4925D02*
Y6075D01*
X31965Y5500D02*
X33115D01*
X32540Y4925D02*
Y6075D01*
X9419Y28520D02*
X10181D01*
X9800Y28139D02*
Y28901D01*
X9419Y25980D02*
X10181D01*
X9800Y25599D02*
Y26361D01*
X8770Y15480D02*
X11770D01*
X10270Y13980D02*
Y16980D01*
X8770Y62430D02*
X11770D01*
X10270Y60930D02*
Y63930D01*
X9419Y59000D02*
X10181D01*
X9800Y58619D02*
Y59381D01*
X9419Y56460D02*
X10181D01*
X9800Y56079D02*
Y56841D01*
X9419Y53920D02*
X10181D01*
X9800Y53539D02*
Y54301D01*
X9419Y51380D02*
X10181D01*
X9800Y50999D02*
Y51761D01*
X9419Y48840D02*
X10181D01*
X9800Y48459D02*
Y49221D01*
X9419Y46300D02*
X10181D01*
X9800Y45919D02*
Y46681D01*
X9419Y43760D02*
X10181D01*
X9800Y43379D02*
Y44141D01*
X9419Y41220D02*
X10181D01*
X9800Y40839D02*
Y41601D01*
X9419Y38680D02*
X10181D01*
X9800Y38299D02*
Y39061D01*
X9419Y36140D02*
X10181D01*
X9800Y35759D02*
Y36521D01*
X9419Y33600D02*
X10181D01*
X9800Y33219D02*
Y33981D01*
X9419Y31060D02*
X10181D01*
X9800Y30679D02*
Y31441D01*
X9419Y23440D02*
X10181D01*
X9800Y23059D02*
Y23821D01*
X34819Y51380D02*
X35581D01*
X35200Y50999D02*
Y51761D01*
X34819Y48840D02*
X35581D01*
X35200Y48459D02*
Y49221D01*
X34819Y46300D02*
X35581D01*
X35200Y45919D02*
Y46681D01*
X34819Y43760D02*
X35581D01*
X35200Y43379D02*
Y44141D01*
X34819Y41220D02*
X35581D01*
X35200Y40839D02*
Y41601D01*
X34819Y38680D02*
X35581D01*
X35200Y38299D02*
Y39061D01*
X34819Y36140D02*
X35581D01*
X35200Y35759D02*
Y36521D01*
X34819Y33600D02*
X35581D01*
X35200Y33219D02*
Y33981D01*
X34819Y31060D02*
X35581D01*
X35200Y30679D02*
Y31441D01*
X34819Y28520D02*
X35581D01*
X35200Y28139D02*
Y28901D01*
X34819Y25980D02*
X35581D01*
X35200Y25599D02*
Y26361D01*
X34819Y23440D02*
X35581D01*
X35200Y23059D02*
Y23821D01*
X33280Y15480D02*
X36280D01*
X34780Y13980D02*
Y16980D01*
X34819Y59000D02*
X35581D01*
X35200Y58619D02*
Y59381D01*
X34819Y53920D02*
X35581D01*
X35200Y53539D02*
Y54301D01*
X34819Y56460D02*
X35581D01*
X35200Y56079D02*
Y56841D01*
X33280Y62430D02*
X36280D01*
X34780Y60930D02*
Y63930D01*
X4350Y52750D02*
X4650D01*
X4500Y52600D02*
Y52900D01*
X40850Y23750D02*
X41150D01*
X41000Y23600D02*
Y23900D01*
X40600Y19000D02*
X40900D01*
X40750Y18850D02*
Y19150D01*
X40850Y28250D02*
X41150D01*
X41000Y28100D02*
Y28400D01*
X4350Y16200D02*
X4650D01*
X4500Y16050D02*
Y16350D01*
%TF.MD5,f178ccf26dd633f360e678296802ea0f*%
M02*
