%TF.GenerationSoftware,Altium Limited,Altium Designer,25.2.1 (25)*%
G04 Layer_Color=6809061*
%FSLAX43Y43*%
%MOMM*%
%TF.SameCoordinates,BEECB501-CD99-4A52-AAD6-2C5E1F68F19C*%
%TF.FilePolarity,Positive*%
%TF.FileFunction,Legend,Bot*%
%TF.Part,Single*%
G01*
G75*
%TA.AperFunction,NonConductor*%
%ADD25C,0.200*%
%ADD26C,0.254*%
%ADD29C,0.250*%
G36*
X26736Y60453D02*
X26828D01*
Y60446D01*
X26877D01*
Y60439D01*
X26927D01*
Y60432D01*
X26962D01*
Y60425D01*
X27004D01*
Y60418D01*
X27018D01*
Y60411D01*
X27054D01*
Y60403D01*
X27082D01*
Y60396D01*
X27103D01*
Y60389D01*
X27131D01*
Y60382D01*
X27145D01*
Y60375D01*
X27167D01*
Y60368D01*
X27188D01*
Y60361D01*
X27202D01*
Y60354D01*
X27223D01*
Y60347D01*
X27237D01*
Y60340D01*
X27265D01*
Y60333D01*
X27272D01*
Y60326D01*
X27293D01*
Y60319D01*
X27301D01*
Y60312D01*
X27315D01*
Y60305D01*
X27336D01*
Y60298D01*
X27343D01*
Y60291D01*
X27364D01*
Y60284D01*
X27378D01*
Y60277D01*
X27392D01*
Y60269D01*
X27399D01*
Y60262D01*
X27413D01*
Y60255D01*
X27427D01*
Y60248D01*
X27435D01*
Y60241D01*
X27449D01*
Y60234D01*
X27463D01*
Y60227D01*
X27470D01*
Y60220D01*
X27484D01*
Y60213D01*
X27491D01*
Y60206D01*
X27505D01*
Y60199D01*
X27512D01*
Y60192D01*
X27526D01*
Y60185D01*
X27533D01*
Y60178D01*
X27540D01*
Y60171D01*
X27554D01*
Y60164D01*
X27562D01*
Y60157D01*
X27576D01*
Y60150D01*
X27583D01*
Y60143D01*
X27590D01*
Y60135D01*
X27604D01*
Y60128D01*
X27611D01*
Y60121D01*
X27618D01*
Y60114D01*
X27625D01*
Y60107D01*
X27632D01*
Y60100D01*
X27646D01*
Y60086D01*
X27660D01*
Y60079D01*
X27667D01*
Y60072D01*
X27674D01*
Y60065D01*
X27681D01*
Y60058D01*
X27688D01*
Y60051D01*
X27696D01*
Y60044D01*
X27703D01*
Y60037D01*
X27717D01*
Y60023D01*
X27731D01*
Y60008D01*
X27738D01*
Y60001D01*
X27745D01*
Y59994D01*
X27752D01*
Y59987D01*
X27759D01*
Y59980D01*
X27766D01*
Y59973D01*
X27773D01*
Y59966D01*
X27780D01*
Y59959D01*
X27787D01*
Y59952D01*
X27794D01*
Y59945D01*
X27801D01*
Y59931D01*
X27808D01*
Y59924D01*
X27815D01*
Y59917D01*
X27823D01*
Y59910D01*
X27830D01*
Y59903D01*
X27837D01*
Y59889D01*
X27844D01*
Y59882D01*
X27851D01*
Y59874D01*
X27858D01*
Y59867D01*
X27865D01*
Y59853D01*
X27872D01*
Y59846D01*
X27879D01*
Y59832D01*
X27886D01*
Y59825D01*
X27893D01*
Y59818D01*
X27900D01*
Y59804D01*
X27907D01*
Y59797D01*
X27914D01*
Y59783D01*
X27921D01*
Y59776D01*
X27928D01*
Y59769D01*
X27935D01*
Y59747D01*
X27942D01*
Y59740D01*
X27949D01*
Y59726D01*
X27957D01*
Y59719D01*
X27964D01*
Y59705D01*
X27971D01*
Y59691D01*
X27978D01*
Y59684D01*
X27985D01*
Y59670D01*
X27992D01*
Y59656D01*
X27999D01*
Y59642D01*
X28006D01*
Y59621D01*
X28013D01*
Y59613D01*
X28020D01*
Y59592D01*
X28027D01*
Y59585D01*
X28034D01*
Y59564D01*
X28041D01*
Y59550D01*
X28048D01*
Y59536D01*
X28055D01*
Y59515D01*
X28062D01*
Y59501D01*
X28069D01*
Y59472D01*
X28076D01*
Y59458D01*
X28083D01*
Y59437D01*
X28091D01*
Y59416D01*
X28098D01*
Y59402D01*
X28105D01*
Y59367D01*
X28112D01*
Y59345D01*
X28119D01*
Y59310D01*
X28126D01*
Y59289D01*
X28133D01*
Y59261D01*
X28140D01*
Y59211D01*
X28147D01*
Y59176D01*
X28154D01*
Y59113D01*
X28161D01*
Y59021D01*
X28168D01*
Y53230D01*
X28161D01*
Y53138D01*
X28154D01*
Y53075D01*
X28147D01*
Y53039D01*
X28140D01*
Y52990D01*
X28133D01*
Y52962D01*
X28126D01*
Y52941D01*
X28119D01*
Y52905D01*
X28112D01*
Y52884D01*
X28105D01*
Y52849D01*
X28098D01*
Y52835D01*
X28091D01*
Y52814D01*
X28083D01*
Y52793D01*
X28076D01*
Y52778D01*
X28069D01*
Y52750D01*
X28062D01*
Y52736D01*
X28055D01*
Y52715D01*
X28048D01*
Y52701D01*
X28041D01*
Y52687D01*
X28034D01*
Y52666D01*
X28027D01*
Y52659D01*
X28020D01*
Y52637D01*
X28013D01*
Y52630D01*
X28006D01*
Y52609D01*
X27999D01*
Y52595D01*
X27992D01*
Y52581D01*
X27985D01*
Y52567D01*
X27978D01*
Y52560D01*
X27971D01*
Y52546D01*
X27964D01*
Y52532D01*
X27957D01*
Y52524D01*
X27949D01*
Y52510D01*
X27942D01*
Y52503D01*
X27935D01*
Y52482D01*
X27928D01*
Y52475D01*
X27921D01*
Y52468D01*
X27914D01*
Y52454D01*
X27907D01*
Y52447D01*
X27900D01*
Y52433D01*
X27893D01*
Y52426D01*
X27886D01*
Y52419D01*
X27879D01*
Y52405D01*
X27872D01*
Y52398D01*
X27865D01*
Y52383D01*
X27858D01*
Y52376D01*
X27851D01*
Y52369D01*
X27844D01*
Y52362D01*
X27837D01*
Y52348D01*
X27830D01*
Y52341D01*
X27823D01*
Y52334D01*
X27815D01*
Y52327D01*
X27808D01*
Y52320D01*
X27801D01*
Y52306D01*
X27794D01*
Y52299D01*
X27787D01*
Y52292D01*
X27780D01*
Y52285D01*
X27773D01*
Y52278D01*
X27766D01*
Y52271D01*
X27759D01*
Y52263D01*
X27752D01*
Y52256D01*
X27745D01*
Y52249D01*
X27738D01*
Y52242D01*
X27731D01*
Y52228D01*
X27717D01*
Y52214D01*
X27703D01*
Y52207D01*
X27696D01*
Y52200D01*
X27688D01*
Y52193D01*
X27681D01*
Y52186D01*
X27674D01*
Y52179D01*
X27667D01*
Y52172D01*
X27660D01*
Y52165D01*
X27646D01*
Y52151D01*
X27632D01*
Y52144D01*
X27625D01*
Y52137D01*
X27618D01*
Y52129D01*
X27611D01*
Y52122D01*
X27604D01*
Y52115D01*
X27590D01*
Y52108D01*
X27583D01*
Y52101D01*
X27576D01*
Y52094D01*
X27562D01*
Y52087D01*
X27554D01*
Y52080D01*
X27540D01*
Y52073D01*
X27533D01*
Y52066D01*
X27526D01*
Y52059D01*
X27512D01*
Y52052D01*
X27505D01*
Y52045D01*
X27491D01*
Y52038D01*
X27484D01*
Y52031D01*
X27470D01*
Y52024D01*
X27463D01*
Y52017D01*
X27449D01*
Y52010D01*
X27435D01*
Y52003D01*
X27427D01*
Y51995D01*
X27413D01*
Y51988D01*
X27399D01*
Y51981D01*
X27392D01*
Y51974D01*
X27378D01*
Y51967D01*
X27364D01*
Y51960D01*
X27343D01*
Y51953D01*
X27336D01*
Y51946D01*
X27315D01*
Y51939D01*
X27301D01*
Y51932D01*
X27293D01*
Y51925D01*
X27272D01*
Y51918D01*
X27265D01*
Y51911D01*
X27237D01*
Y51904D01*
X27223D01*
Y51897D01*
X27202D01*
Y51890D01*
X27188D01*
Y51883D01*
X27167D01*
Y51876D01*
X27145D01*
Y51868D01*
X27131D01*
Y51861D01*
X27103D01*
Y51854D01*
X27082D01*
Y51847D01*
X27054D01*
Y51840D01*
X27018D01*
Y51833D01*
X27004D01*
Y51826D01*
X26962D01*
Y51819D01*
X26927D01*
Y51812D01*
X26877D01*
Y51805D01*
X26828D01*
Y51798D01*
X26736D01*
Y51791D01*
X18265D01*
Y51798D01*
X18173D01*
Y51805D01*
X18124D01*
Y51812D01*
X18074D01*
Y51819D01*
X18039D01*
Y51826D01*
X17997D01*
Y51833D01*
X17983D01*
Y51840D01*
X17947D01*
Y51847D01*
X17919D01*
Y51854D01*
X17898D01*
Y51861D01*
X17870D01*
Y51868D01*
X17856D01*
Y51876D01*
X17834D01*
Y51883D01*
X17813D01*
Y51890D01*
X17799D01*
Y51897D01*
X17778D01*
Y51904D01*
X17764D01*
Y51911D01*
X17736D01*
Y51918D01*
X17729D01*
Y51925D01*
X17707D01*
Y51932D01*
X17700D01*
Y51939D01*
X17686D01*
Y51946D01*
X17665D01*
Y51953D01*
X17658D01*
Y51960D01*
X17637D01*
Y51967D01*
X17623D01*
Y51974D01*
X17609D01*
Y51981D01*
X17602D01*
Y51988D01*
X17588D01*
Y51995D01*
X17573D01*
Y52003D01*
X17566D01*
Y52010D01*
X17552D01*
Y52017D01*
X17538D01*
Y52024D01*
X17531D01*
Y52031D01*
X17517D01*
Y52038D01*
X17510D01*
Y52045D01*
X17496D01*
Y52052D01*
X17489D01*
Y52059D01*
X17475D01*
Y52066D01*
X17468D01*
Y52073D01*
X17461D01*
Y52080D01*
X17446D01*
Y52087D01*
X17439D01*
Y52094D01*
X17425D01*
Y52101D01*
X17418D01*
Y52108D01*
X17411D01*
Y52115D01*
X17397D01*
Y52122D01*
X17390D01*
Y52129D01*
X17383D01*
Y52137D01*
X17376D01*
Y52144D01*
X17369D01*
Y52151D01*
X17355D01*
Y52165D01*
X17341D01*
Y52172D01*
X17334D01*
Y52179D01*
X17327D01*
Y52186D01*
X17320D01*
Y52193D01*
X17312D01*
Y52200D01*
X17305D01*
Y52207D01*
X17298D01*
Y52214D01*
X17284D01*
Y52228D01*
X17270D01*
Y52242D01*
X17263D01*
Y52249D01*
X17256D01*
Y52256D01*
X17249D01*
Y52263D01*
X17242D01*
Y52271D01*
X17235D01*
Y52278D01*
X17228D01*
Y52285D01*
X17221D01*
Y52292D01*
X17214D01*
Y52299D01*
X17207D01*
Y52306D01*
X17200D01*
Y52320D01*
X17193D01*
Y52327D01*
X17185D01*
Y52334D01*
X17178D01*
Y52341D01*
X17171D01*
Y52348D01*
X17164D01*
Y52362D01*
X17157D01*
Y52369D01*
X17150D01*
Y52376D01*
X17143D01*
Y52383D01*
X17136D01*
Y52398D01*
X17129D01*
Y52405D01*
X17122D01*
Y52419D01*
X17115D01*
Y52426D01*
X17108D01*
Y52433D01*
X17101D01*
Y52447D01*
X17094D01*
Y52454D01*
X17087D01*
Y52468D01*
X17080D01*
Y52475D01*
X17073D01*
Y52482D01*
X17066D01*
Y52503D01*
X17059D01*
Y52510D01*
X17051D01*
Y52524D01*
X17044D01*
Y52532D01*
X17037D01*
Y52546D01*
X17030D01*
Y52560D01*
X17023D01*
Y52567D01*
X17016D01*
Y52581D01*
X17009D01*
Y52595D01*
X17002D01*
Y52609D01*
X16995D01*
Y52630D01*
X16988D01*
Y52637D01*
X16981D01*
Y52659D01*
X16974D01*
Y52666D01*
X16967D01*
Y52687D01*
X16960D01*
Y52701D01*
X16953D01*
Y52715D01*
X16946D01*
Y52736D01*
X16939D01*
Y52750D01*
X16932D01*
Y52778D01*
X16925D01*
Y52793D01*
X16917D01*
Y52814D01*
X16910D01*
Y52835D01*
X16903D01*
Y52849D01*
X16896D01*
Y52884D01*
X16889D01*
Y52905D01*
X16882D01*
Y52941D01*
X16875D01*
Y52962D01*
X16868D01*
Y52990D01*
X16861D01*
Y53039D01*
X16854D01*
Y53075D01*
X16847D01*
Y53138D01*
X16840D01*
Y53230D01*
X16833D01*
Y59021D01*
X16840D01*
Y59113D01*
X16847D01*
Y59176D01*
X16854D01*
Y59211D01*
X16861D01*
Y59261D01*
X16868D01*
Y59289D01*
X16875D01*
Y59310D01*
X16882D01*
Y59345D01*
X16889D01*
Y59367D01*
X16896D01*
Y59402D01*
X16903D01*
Y59416D01*
X16910D01*
Y59437D01*
X16917D01*
Y59458D01*
X16925D01*
Y59472D01*
X16932D01*
Y59501D01*
X16939D01*
Y59515D01*
X16946D01*
Y59536D01*
X16953D01*
Y59550D01*
X16960D01*
Y59564D01*
X16967D01*
Y59585D01*
X16974D01*
Y59592D01*
X16981D01*
Y59613D01*
X16988D01*
Y59621D01*
X16995D01*
Y59642D01*
X17002D01*
Y59656D01*
X17009D01*
Y59670D01*
X17016D01*
Y59684D01*
X17023D01*
Y59691D01*
X17030D01*
Y59705D01*
X17037D01*
Y59719D01*
X17044D01*
Y59726D01*
X17051D01*
Y59740D01*
X17059D01*
Y59747D01*
X17066D01*
Y59769D01*
X17073D01*
Y59776D01*
X17080D01*
Y59783D01*
X17087D01*
Y59797D01*
X17094D01*
Y59804D01*
X17101D01*
Y59818D01*
X17108D01*
Y59825D01*
X17115D01*
Y59832D01*
X17122D01*
Y59846D01*
X17129D01*
Y59853D01*
X17136D01*
Y59867D01*
X17143D01*
Y59874D01*
X17150D01*
Y59882D01*
X17157D01*
Y59889D01*
X17164D01*
Y59903D01*
X17171D01*
Y59910D01*
X17178D01*
Y59917D01*
X17185D01*
Y59924D01*
X17193D01*
Y59931D01*
X17200D01*
Y59945D01*
X17207D01*
Y59952D01*
X17214D01*
Y59959D01*
X17221D01*
Y59966D01*
X17228D01*
Y59973D01*
X17235D01*
Y59980D01*
X17242D01*
Y59987D01*
X17249D01*
Y59994D01*
X17256D01*
Y60001D01*
X17263D01*
Y60008D01*
X17270D01*
Y60023D01*
X17284D01*
Y60037D01*
X17298D01*
Y60044D01*
X17305D01*
Y60051D01*
X17312D01*
Y60058D01*
X17320D01*
Y60065D01*
X17327D01*
Y60072D01*
X17334D01*
Y60079D01*
X17341D01*
Y60086D01*
X17355D01*
Y60100D01*
X17369D01*
Y60107D01*
X17376D01*
Y60114D01*
X17383D01*
Y60121D01*
X17390D01*
Y60128D01*
X17397D01*
Y60135D01*
X17411D01*
Y60143D01*
X17418D01*
Y60150D01*
X17425D01*
Y60157D01*
X17439D01*
Y60164D01*
X17446D01*
Y60171D01*
X17461D01*
Y60178D01*
X17468D01*
Y60185D01*
X17475D01*
Y60192D01*
X17489D01*
Y60199D01*
X17496D01*
Y60206D01*
X17510D01*
Y60213D01*
X17517D01*
Y60220D01*
X17531D01*
Y60227D01*
X17538D01*
Y60234D01*
X17552D01*
Y60241D01*
X17566D01*
Y60248D01*
X17573D01*
Y60255D01*
X17588D01*
Y60262D01*
X17602D01*
Y60269D01*
X17609D01*
Y60277D01*
X17623D01*
Y60284D01*
X17637D01*
Y60291D01*
X17658D01*
Y60298D01*
X17665D01*
Y60305D01*
X17686D01*
Y60312D01*
X17700D01*
Y60319D01*
X17707D01*
Y60326D01*
X17729D01*
Y60333D01*
X17736D01*
Y60340D01*
X17764D01*
Y60347D01*
X17778D01*
Y60354D01*
X17799D01*
Y60361D01*
X17813D01*
Y60368D01*
X17834D01*
Y60375D01*
X17856D01*
Y60382D01*
X17870D01*
Y60389D01*
X17898D01*
Y60396D01*
X17919D01*
Y60403D01*
X17947D01*
Y60411D01*
X17983D01*
Y60418D01*
X17997D01*
Y60425D01*
X18039D01*
Y60432D01*
X18074D01*
Y60439D01*
X18124D01*
Y60446D01*
X18173D01*
Y60453D01*
X18265D01*
Y60460D01*
X26736D01*
Y60453D01*
D02*
G37*
G36*
X24886Y29932D02*
X26795D01*
Y28979D01*
X26794D01*
Y28978D01*
X25841D01*
Y28023D01*
X26794D01*
Y28022D01*
X26795D01*
Y27068D01*
X27750D01*
Y25159D01*
X26795D01*
Y26114D01*
X25842D01*
Y26115D01*
X25841D01*
Y27068D01*
X24886D01*
Y26115D01*
X24885D01*
Y26114D01*
X23932D01*
Y27068D01*
X21068D01*
Y26114D01*
X22021D01*
Y26113D01*
X22023D01*
Y25159D01*
X21068D01*
Y26114D01*
X20115D01*
Y26115D01*
X20113D01*
Y27068D01*
X19159D01*
Y26115D01*
X19158D01*
Y26114D01*
X18204D01*
Y25159D01*
X17250D01*
Y27068D01*
X18204D01*
Y28022D01*
X18206D01*
Y28023D01*
X19159D01*
Y28978D01*
X18206D01*
Y28979D01*
X18204D01*
Y29932D01*
X17250D01*
Y30618D01*
Y30619D01*
Y30887D01*
X18203D01*
Y30885D01*
X18204D01*
Y29932D01*
X20113D01*
Y28023D01*
X21068D01*
Y29932D01*
X20113D01*
Y31841D01*
X21068D01*
Y30887D01*
X23932D01*
Y31841D01*
X24886D01*
Y29932D01*
D02*
G37*
G36*
X27750D02*
X26795D01*
Y30225D01*
Y30226D01*
Y30885D01*
X26796D01*
Y30887D01*
X27750D01*
Y29932D01*
D02*
G37*
G36*
X23932Y26039D02*
Y26038D01*
Y25159D01*
X22977D01*
Y26113D01*
X22978D01*
Y26114D01*
X23932D01*
Y26039D01*
D02*
G37*
%LPC*%
G36*
X26750Y59790D02*
X18251D01*
Y59783D01*
X18187D01*
Y59776D01*
X18152D01*
Y59769D01*
X18131D01*
Y59762D01*
X18095D01*
Y59755D01*
X18081D01*
Y59747D01*
X18053D01*
Y59740D01*
X18039D01*
Y59733D01*
X18018D01*
Y59726D01*
X18004D01*
Y59719D01*
X17990D01*
Y59712D01*
X17968D01*
Y59705D01*
X17961D01*
Y59698D01*
X17947D01*
Y59691D01*
X17933D01*
Y59684D01*
X17919D01*
Y59677D01*
X17905D01*
Y59670D01*
X17898D01*
Y59663D01*
X17884D01*
Y59656D01*
X17870D01*
Y59649D01*
X17863D01*
Y59642D01*
X17856D01*
Y59635D01*
X17841D01*
Y59628D01*
X17834D01*
Y59621D01*
X17827D01*
Y59613D01*
X17813D01*
Y59606D01*
X17806D01*
Y59599D01*
X17799D01*
Y59592D01*
X17792D01*
Y59585D01*
X17785D01*
Y59578D01*
X17771D01*
Y59571D01*
X17764D01*
Y59564D01*
X17757D01*
Y59557D01*
X17750D01*
Y59550D01*
X17743D01*
Y59543D01*
X17736D01*
Y59536D01*
X17729D01*
Y59529D01*
X17722D01*
Y59522D01*
X17715D01*
Y59508D01*
X17707D01*
Y59501D01*
X17700D01*
Y59494D01*
X17693D01*
Y59486D01*
X17686D01*
Y59479D01*
X17679D01*
Y59472D01*
X17672D01*
Y59458D01*
X17665D01*
Y59451D01*
X17658D01*
Y59437D01*
X17651D01*
Y59430D01*
X17644D01*
Y59423D01*
X17637D01*
Y59409D01*
X17630D01*
Y59395D01*
X17623D01*
Y59388D01*
X17616D01*
Y59374D01*
X17609D01*
Y59360D01*
X17602D01*
Y59352D01*
X17595D01*
Y59338D01*
X17588D01*
Y59317D01*
X17581D01*
Y59310D01*
X17573D01*
Y59289D01*
X17566D01*
Y59282D01*
X17559D01*
Y59254D01*
X17552D01*
Y59240D01*
X17545D01*
Y59218D01*
X17538D01*
Y59190D01*
X17531D01*
Y59169D01*
X17524D01*
Y59134D01*
X17517D01*
Y59106D01*
X17510D01*
Y59056D01*
X17503D01*
Y53195D01*
X17510D01*
Y53145D01*
X17517D01*
Y53117D01*
X17524D01*
Y53082D01*
X17531D01*
Y53061D01*
X17538D01*
Y53032D01*
X17545D01*
Y53011D01*
X17552D01*
Y52997D01*
X17559D01*
Y52969D01*
X17566D01*
Y52962D01*
X17573D01*
Y52941D01*
X17581D01*
Y52934D01*
X17588D01*
Y52912D01*
X17595D01*
Y52898D01*
X17602D01*
Y52891D01*
X17609D01*
Y52877D01*
X17616D01*
Y52863D01*
X17623D01*
Y52856D01*
X17630D01*
Y52842D01*
X17637D01*
Y52828D01*
X17644D01*
Y52821D01*
X17651D01*
Y52814D01*
X17658D01*
Y52800D01*
X17665D01*
Y52793D01*
X17672D01*
Y52778D01*
X17679D01*
Y52771D01*
X17686D01*
Y52764D01*
X17693D01*
Y52757D01*
X17700D01*
Y52750D01*
X17707D01*
Y52736D01*
X17715D01*
Y52729D01*
X17722D01*
Y52722D01*
X17729D01*
Y52715D01*
X17736D01*
Y52708D01*
X17743D01*
Y52701D01*
X17750D01*
Y52694D01*
X17757D01*
Y52687D01*
X17764D01*
Y52680D01*
X17771D01*
Y52673D01*
X17785D01*
Y52666D01*
X17792D01*
Y52659D01*
X17799D01*
Y52651D01*
X17806D01*
Y52644D01*
X17813D01*
Y52637D01*
X17827D01*
Y52630D01*
X17834D01*
Y52623D01*
X17841D01*
Y52616D01*
X17856D01*
Y52609D01*
X17863D01*
Y52602D01*
X17870D01*
Y52595D01*
X17884D01*
Y52588D01*
X17898D01*
Y52581D01*
X17905D01*
Y52574D01*
X17919D01*
Y52567D01*
X17933D01*
Y52560D01*
X17947D01*
Y52553D01*
X17961D01*
Y52546D01*
X17968D01*
Y52539D01*
X17990D01*
Y52532D01*
X18004D01*
Y52524D01*
X18018D01*
Y52517D01*
X18039D01*
Y52510D01*
X18053D01*
Y52503D01*
X18081D01*
Y52496D01*
X18095D01*
Y52489D01*
X18131D01*
Y52482D01*
X18152D01*
Y52475D01*
X18187D01*
Y52468D01*
X18251D01*
Y52461D01*
X26757D01*
Y52468D01*
X26814D01*
Y52475D01*
X26849D01*
Y52482D01*
X26870D01*
Y52489D01*
X26906D01*
Y52496D01*
X26920D01*
Y52503D01*
X26948D01*
Y52510D01*
X26962D01*
Y52517D01*
X26983D01*
Y52524D01*
X26997D01*
Y52532D01*
X27011D01*
Y52539D01*
X27032D01*
Y52546D01*
X27040D01*
Y52553D01*
X27054D01*
Y52560D01*
X27068D01*
Y52567D01*
X27082D01*
Y52574D01*
X27096D01*
Y52581D01*
X27103D01*
Y52588D01*
X27117D01*
Y52595D01*
X27131D01*
Y52602D01*
X27138D01*
Y52609D01*
X27145D01*
Y52616D01*
X27159D01*
Y52623D01*
X27167D01*
Y52630D01*
X27174D01*
Y52637D01*
X27188D01*
Y52644D01*
X27195D01*
Y52651D01*
X27202D01*
Y52659D01*
X27209D01*
Y52666D01*
X27216D01*
Y52673D01*
X27230D01*
Y52680D01*
X27237D01*
Y52687D01*
X27244D01*
Y52694D01*
X27251D01*
Y52701D01*
X27258D01*
Y52708D01*
X27265D01*
Y52715D01*
X27272D01*
Y52722D01*
X27279D01*
Y52729D01*
X27286D01*
Y52736D01*
X27293D01*
Y52750D01*
X27301D01*
Y52757D01*
X27308D01*
Y52764D01*
X27315D01*
Y52771D01*
X27322D01*
Y52778D01*
X27329D01*
Y52793D01*
X27336D01*
Y52800D01*
X27343D01*
Y52814D01*
X27350D01*
Y52821D01*
X27357D01*
Y52828D01*
X27364D01*
Y52842D01*
X27371D01*
Y52856D01*
X27378D01*
Y52863D01*
X27385D01*
Y52870D01*
X27392D01*
Y52891D01*
X27399D01*
Y52898D01*
X27406D01*
Y52912D01*
X27413D01*
Y52934D01*
X27420D01*
Y52941D01*
X27427D01*
Y52962D01*
X27435D01*
Y52969D01*
X27442D01*
Y52997D01*
X27449D01*
Y53011D01*
X27456D01*
Y53032D01*
X27463D01*
Y53061D01*
X27470D01*
Y53082D01*
X27477D01*
Y53117D01*
X27484D01*
Y53145D01*
X27491D01*
Y53195D01*
X27498D01*
Y59056D01*
X27491D01*
Y59106D01*
X27484D01*
Y59134D01*
X27477D01*
Y59169D01*
X27470D01*
Y59190D01*
X27463D01*
Y59218D01*
X27456D01*
Y59240D01*
X27449D01*
Y59254D01*
X27442D01*
Y59282D01*
X27435D01*
Y59289D01*
X27427D01*
Y59310D01*
X27420D01*
Y59317D01*
X27413D01*
Y59338D01*
X27406D01*
Y59352D01*
X27399D01*
Y59360D01*
X27392D01*
Y59374D01*
X27385D01*
Y59388D01*
X27378D01*
Y59395D01*
X27371D01*
Y59409D01*
X27364D01*
Y59423D01*
X27357D01*
Y59430D01*
X27350D01*
Y59437D01*
X27343D01*
Y59451D01*
X27336D01*
Y59458D01*
X27329D01*
Y59472D01*
X27322D01*
Y59479D01*
X27315D01*
Y59486D01*
X27308D01*
Y59494D01*
X27301D01*
Y59501D01*
X27293D01*
Y59515D01*
X27286D01*
Y59522D01*
X27279D01*
Y59529D01*
X27272D01*
Y59536D01*
X27265D01*
Y59543D01*
X27258D01*
Y59550D01*
X27251D01*
Y59557D01*
X27244D01*
Y59564D01*
X27237D01*
Y59571D01*
X27230D01*
Y59578D01*
X27216D01*
Y59585D01*
X27209D01*
Y59592D01*
X27202D01*
Y59599D01*
X27195D01*
Y59606D01*
X27188D01*
Y59613D01*
X27174D01*
Y59621D01*
X27167D01*
Y59628D01*
X27159D01*
Y59635D01*
X27145D01*
Y59642D01*
X27138D01*
Y59649D01*
X27131D01*
Y59656D01*
X27117D01*
Y59663D01*
X27103D01*
Y59670D01*
X27096D01*
Y59677D01*
X27082D01*
Y59684D01*
X27068D01*
Y59691D01*
X27054D01*
Y59698D01*
X27040D01*
Y59705D01*
X27032D01*
Y59712D01*
X27011D01*
Y59719D01*
X26997D01*
Y59726D01*
X26983D01*
Y59733D01*
X26962D01*
Y59740D01*
X26948D01*
Y59747D01*
X26920D01*
Y59755D01*
X26906D01*
Y59762D01*
X26870D01*
Y59769D01*
X26849D01*
Y59776D01*
X26814D01*
Y59783D01*
X26750D01*
Y59790D01*
D02*
G37*
%LPD*%
G36*
X22321Y59289D02*
X22335D01*
Y53470D01*
X22328D01*
Y53463D01*
X22321D01*
Y53456D01*
X22306D01*
Y53463D01*
X21354D01*
Y53456D01*
X21347D01*
Y53463D01*
X21333D01*
Y53787D01*
X21347D01*
Y53794D01*
X21361D01*
Y53787D01*
X21368D01*
Y53794D01*
X21968D01*
Y53787D01*
X21982D01*
Y53794D01*
X21996D01*
Y53801D01*
X22003D01*
Y54500D01*
Y54507D01*
Y55953D01*
X21996D01*
Y55967D01*
X21989D01*
Y55974D01*
X21982D01*
Y55981D01*
X21975D01*
Y55988D01*
X21961D01*
Y55995D01*
X21954D01*
Y56002D01*
X21947D01*
Y56009D01*
X21940D01*
Y56016D01*
X21933D01*
Y56023D01*
X21926D01*
Y56030D01*
X21919D01*
Y56037D01*
X21911D01*
Y56044D01*
X21904D01*
Y56051D01*
X21897D01*
Y56058D01*
X21890D01*
Y56065D01*
X21876D01*
Y56072D01*
X21869D01*
Y56080D01*
X21862D01*
Y56087D01*
X21855D01*
Y56094D01*
X21848D01*
Y56101D01*
X21841D01*
Y56108D01*
X21834D01*
Y56115D01*
X21827D01*
Y56122D01*
X21820D01*
Y56129D01*
X21813D01*
Y56136D01*
X21799D01*
Y56143D01*
X21792D01*
Y56150D01*
X21785D01*
Y56157D01*
X21777D01*
Y56164D01*
X21770D01*
Y56171D01*
X21763D01*
Y56178D01*
X21756D01*
Y56185D01*
X21749D01*
Y56192D01*
X21742D01*
Y56199D01*
X21728D01*
Y56207D01*
X21721D01*
Y56214D01*
X21714D01*
Y56221D01*
X21707D01*
Y56228D01*
X21700D01*
Y56235D01*
X21693D01*
Y56242D01*
X21686D01*
Y56249D01*
X21679D01*
Y56256D01*
X21672D01*
Y56263D01*
X21665D01*
Y56270D01*
X21658D01*
Y56277D01*
X21643D01*
Y56284D01*
X21636D01*
Y56291D01*
X21629D01*
Y56298D01*
X21622D01*
Y56305D01*
X21615D01*
Y56312D01*
X21608D01*
Y56319D01*
X21601D01*
Y56326D01*
X21594D01*
Y56333D01*
X21587D01*
Y56341D01*
X21573D01*
Y56348D01*
X21566D01*
Y56355D01*
X21559D01*
Y56362D01*
X21552D01*
Y56369D01*
X21545D01*
Y56376D01*
X21538D01*
Y56383D01*
X21531D01*
Y56390D01*
X21524D01*
Y56397D01*
X21516D01*
Y56404D01*
X21509D01*
Y56411D01*
X21502D01*
Y56418D01*
X21488D01*
Y56425D01*
X21481D01*
Y56432D01*
X21474D01*
Y56439D01*
X21467D01*
Y56446D01*
X21460D01*
Y56453D01*
X21453D01*
Y56460D01*
X21446D01*
Y56468D01*
X21439D01*
Y56475D01*
X21432D01*
Y56482D01*
X21418D01*
Y56489D01*
X21411D01*
Y56496D01*
X21404D01*
Y56503D01*
X21397D01*
Y56510D01*
X21390D01*
Y56517D01*
X21382D01*
Y56524D01*
X21375D01*
Y56531D01*
X21368D01*
Y56538D01*
X21361D01*
Y56545D01*
X21354D01*
Y56552D01*
X21340D01*
Y56559D01*
X21333D01*
Y56566D01*
X21326D01*
Y56573D01*
X21319D01*
Y56580D01*
X21312D01*
Y56587D01*
X21305D01*
Y56594D01*
X21298D01*
Y56602D01*
X21291D01*
Y56609D01*
X21284D01*
Y56616D01*
X21277D01*
Y56623D01*
X21270D01*
Y56630D01*
X21255D01*
Y56637D01*
X21248D01*
Y56644D01*
X21241D01*
Y56651D01*
X21234D01*
Y56658D01*
X21227D01*
Y56665D01*
X21220D01*
Y56672D01*
X21213D01*
Y56679D01*
X21206D01*
Y56686D01*
X21199D01*
Y56693D01*
X21185D01*
Y56700D01*
X21178D01*
Y56707D01*
X21171D01*
Y56714D01*
X21164D01*
Y56721D01*
X21157D01*
Y56729D01*
X21150D01*
Y56736D01*
X21143D01*
Y56743D01*
X21136D01*
Y56750D01*
X21129D01*
Y56757D01*
X21121D01*
Y56764D01*
X21114D01*
Y56771D01*
X21100D01*
Y56778D01*
X21093D01*
Y56785D01*
X21086D01*
Y56792D01*
X21079D01*
Y56799D01*
X21072D01*
Y56806D01*
X21065D01*
Y56813D01*
X21058D01*
Y56820D01*
X21051D01*
Y56827D01*
X21044D01*
Y56834D01*
X21030D01*
Y56841D01*
X21023D01*
Y56848D01*
X21016D01*
Y56855D01*
X21009D01*
Y56863D01*
X21002D01*
Y56870D01*
X20994D01*
Y56877D01*
X20987D01*
Y56884D01*
X20980D01*
Y56891D01*
X20973D01*
Y56898D01*
X20966D01*
Y56905D01*
X20959D01*
Y56912D01*
X20945D01*
Y56919D01*
X20938D01*
Y56926D01*
X20931D01*
Y56933D01*
X20924D01*
Y56940D01*
X20917D01*
Y56947D01*
X20910D01*
Y56954D01*
X20896D01*
Y56968D01*
X20889D01*
Y56975D01*
X20875D01*
Y56989D01*
X20860D01*
Y56997D01*
X20853D01*
Y57004D01*
X20846D01*
Y57011D01*
X20839D01*
Y57018D01*
X20832D01*
Y57025D01*
X20825D01*
Y57032D01*
X20818D01*
Y57039D01*
X20804D01*
Y57046D01*
X20797D01*
Y57053D01*
X20790D01*
Y57060D01*
X20783D01*
Y57067D01*
X20776D01*
Y57074D01*
X20769D01*
Y57081D01*
X20762D01*
Y57088D01*
X20755D01*
Y57095D01*
X20748D01*
Y57102D01*
X20741D01*
Y57109D01*
X20734D01*
Y57116D01*
X20726D01*
Y57124D01*
X20712D01*
Y57131D01*
X20705D01*
Y57138D01*
X20698D01*
Y57145D01*
X20691D01*
Y57152D01*
X20684D01*
Y57159D01*
X20677D01*
Y57166D01*
X20670D01*
Y57173D01*
X20663D01*
Y57180D01*
X20656D01*
Y57187D01*
X20642D01*
Y57194D01*
X20635D01*
Y57201D01*
X20628D01*
Y57208D01*
X20621D01*
Y57215D01*
X20614D01*
Y57222D01*
X20607D01*
Y57229D01*
X20600D01*
Y57236D01*
X20592D01*
Y57243D01*
X20585D01*
Y57250D01*
X20578D01*
Y57258D01*
X20571D01*
Y57265D01*
X20557D01*
Y57272D01*
X20550D01*
Y57279D01*
X20543D01*
Y57286D01*
X20536D01*
Y57293D01*
X20529D01*
Y57300D01*
X20522D01*
Y57307D01*
X20515D01*
Y57314D01*
X20508D01*
Y57321D01*
X20501D01*
Y57328D01*
X20487D01*
Y57335D01*
X20480D01*
Y57342D01*
X20473D01*
Y57349D01*
X20465D01*
Y57356D01*
X20458D01*
Y57363D01*
X20451D01*
Y57370D01*
X20444D01*
Y57377D01*
X20437D01*
Y57384D01*
X20430D01*
Y57392D01*
X20423D01*
Y57399D01*
X20409D01*
Y57406D01*
X20402D01*
Y57413D01*
X20395D01*
Y57420D01*
X20388D01*
Y57427D01*
X20381D01*
Y57434D01*
X20374D01*
Y57441D01*
X20367D01*
Y57448D01*
X20360D01*
Y57455D01*
X20353D01*
Y57462D01*
X20346D01*
Y57469D01*
X20339D01*
Y57476D01*
X20324D01*
Y57483D01*
X20317D01*
Y57490D01*
X20310D01*
Y57497D01*
X20303D01*
Y57504D01*
X20296D01*
Y57511D01*
X20289D01*
Y57519D01*
X20282D01*
Y57526D01*
X20275D01*
Y57533D01*
X20268D01*
Y57540D01*
X20254D01*
Y57547D01*
X20247D01*
Y57554D01*
X20240D01*
Y57561D01*
X20233D01*
Y57568D01*
X20226D01*
Y57575D01*
X20219D01*
Y57582D01*
X20212D01*
Y57589D01*
X20204D01*
Y57596D01*
X20190D01*
Y57610D01*
X20183D01*
Y57617D01*
X20169D01*
Y57610D01*
X20162D01*
Y57596D01*
X20155D01*
Y57575D01*
X20148D01*
Y57554D01*
X20141D01*
Y57533D01*
X20134D01*
Y57504D01*
X20127D01*
Y57483D01*
X20120D01*
Y57462D01*
X20113D01*
Y57441D01*
X20106D01*
Y57420D01*
X20099D01*
Y57399D01*
X20092D01*
Y57377D01*
X20085D01*
Y57349D01*
X20078D01*
Y57328D01*
X20070D01*
Y57307D01*
X20063D01*
Y57286D01*
X20056D01*
Y57265D01*
X20049D01*
Y57243D01*
X20042D01*
Y57222D01*
X20035D01*
Y57194D01*
X20028D01*
Y57173D01*
X20021D01*
Y57152D01*
X20014D01*
Y57131D01*
X20007D01*
Y57109D01*
X20000D01*
Y57088D01*
X19993D01*
Y57060D01*
X19986D01*
Y57046D01*
X19979D01*
Y57018D01*
X19972D01*
Y56997D01*
X19965D01*
Y56975D01*
X19958D01*
Y56954D01*
X19951D01*
Y56933D01*
X19944D01*
Y56905D01*
X19936D01*
Y56884D01*
X19929D01*
Y56863D01*
X19922D01*
Y56841D01*
X19915D01*
Y56820D01*
X19908D01*
Y56799D01*
X19901D01*
Y56778D01*
X19894D01*
Y56750D01*
X19887D01*
Y56736D01*
X19880D01*
Y56707D01*
X19873D01*
Y56686D01*
X19866D01*
Y56665D01*
X19859D01*
Y56644D01*
X19852D01*
Y56623D01*
X19845D01*
Y56594D01*
X19838D01*
Y56573D01*
X19831D01*
Y56552D01*
X19824D01*
Y56531D01*
X19817D01*
Y56510D01*
X19809D01*
Y56489D01*
X19802D01*
Y56468D01*
X19795D01*
Y56446D01*
X19788D01*
Y56418D01*
X19781D01*
Y56397D01*
X19774D01*
Y56376D01*
X19767D01*
Y56355D01*
X19760D01*
Y56333D01*
X19753D01*
Y56312D01*
X19746D01*
Y56291D01*
X19739D01*
Y56263D01*
X19732D01*
Y56242D01*
X19725D01*
Y56221D01*
X19718D01*
Y56199D01*
X19711D01*
Y56178D01*
X19704D01*
Y56157D01*
X19697D01*
Y56129D01*
X19690D01*
Y56108D01*
X19683D01*
Y56087D01*
X19675D01*
Y56065D01*
X19668D01*
Y56044D01*
X19661D01*
Y56023D01*
X19654D01*
Y56002D01*
X19647D01*
Y55981D01*
X19640D01*
Y55953D01*
X19633D01*
Y55938D01*
X19626D01*
Y55910D01*
X19619D01*
Y55889D01*
X19612D01*
Y55868D01*
X19605D01*
Y55847D01*
X19598D01*
Y55826D01*
X19591D01*
Y55797D01*
X19584D01*
Y55776D01*
X19577D01*
Y55755D01*
X19570D01*
Y55734D01*
X19563D01*
Y55713D01*
X19556D01*
Y55692D01*
X19548D01*
Y55670D01*
X19541D01*
Y55642D01*
X19534D01*
Y55621D01*
X19527D01*
Y55600D01*
X19520D01*
Y55579D01*
X19513D01*
Y55558D01*
X19506D01*
Y55536D01*
X19499D01*
Y55515D01*
X19492D01*
Y55487D01*
X19485D01*
Y55466D01*
X19478D01*
Y55445D01*
X19471D01*
Y55424D01*
X19464D01*
Y55402D01*
X19457D01*
Y55381D01*
X19450D01*
Y55360D01*
X19443D01*
Y55332D01*
X19436D01*
Y55311D01*
X19429D01*
Y55290D01*
X19422D01*
Y55268D01*
X19414D01*
Y55247D01*
X19407D01*
Y55226D01*
X19400D01*
Y55198D01*
X19393D01*
Y55184D01*
X19386D01*
Y55156D01*
X19379D01*
Y55134D01*
X19372D01*
Y55113D01*
X19365D01*
Y55092D01*
X19358D01*
Y55071D01*
X19351D01*
Y55043D01*
X19344D01*
Y55029D01*
X19337D01*
Y55000D01*
X19330D01*
Y54979D01*
X19323D01*
Y54958D01*
X19316D01*
Y54937D01*
X19309D01*
Y54916D01*
X19302D01*
Y54887D01*
X19295D01*
Y54873D01*
X19288D01*
Y54845D01*
X19280D01*
Y54824D01*
X19273D01*
Y54803D01*
X19266D01*
Y54782D01*
X19259D01*
Y54761D01*
X19252D01*
Y54732D01*
X19245D01*
Y54718D01*
X19238D01*
Y54690D01*
X19231D01*
Y54669D01*
X19224D01*
Y54648D01*
X19217D01*
Y54626D01*
X19210D01*
Y54605D01*
X19203D01*
Y54584D01*
X19196D01*
Y54556D01*
X19189D01*
Y54535D01*
X19182D01*
Y54514D01*
X19175D01*
Y54492D01*
X19168D01*
Y54471D01*
X19161D01*
Y54450D01*
X19153D01*
Y54429D01*
X19146D01*
Y54401D01*
X19139D01*
Y54380D01*
X19132D01*
Y54358D01*
X19125D01*
Y54337D01*
X19118D01*
Y54316D01*
X19111D01*
Y54295D01*
X19104D01*
Y54274D01*
X19097D01*
Y54246D01*
X19090D01*
Y54224D01*
X19083D01*
Y54203D01*
X19076D01*
Y54182D01*
X19069D01*
Y54161D01*
X19062D01*
Y54140D01*
X19055D01*
Y54119D01*
X19048D01*
Y54090D01*
X19041D01*
Y54069D01*
X19034D01*
Y54048D01*
X19027D01*
Y54027D01*
X19019D01*
Y54006D01*
X19012D01*
Y53985D01*
X19005D01*
Y53963D01*
X19012D01*
Y53956D01*
X19337D01*
Y53632D01*
X19330D01*
Y53625D01*
X18004D01*
Y53632D01*
X17997D01*
Y53949D01*
X18004D01*
Y53956D01*
X18829D01*
Y53963D01*
X18836D01*
Y53970D01*
X18843D01*
Y53999D01*
X18850D01*
Y54020D01*
X18857D01*
Y54041D01*
X18864D01*
Y54062D01*
X18871D01*
Y54083D01*
X18878D01*
Y54105D01*
X18885D01*
Y54126D01*
X18892D01*
Y54147D01*
X18900D01*
Y54168D01*
X18907D01*
Y54189D01*
X18914D01*
Y54217D01*
X18921D01*
Y54239D01*
X18928D01*
Y54260D01*
X18935D01*
Y54281D01*
X18942D01*
Y54302D01*
X18949D01*
Y54323D01*
X18956D01*
Y54344D01*
X18963D01*
Y54373D01*
X18970D01*
Y54387D01*
X18977D01*
Y54415D01*
X18984D01*
Y54436D01*
X18991D01*
Y54457D01*
X18998D01*
Y54478D01*
X19005D01*
Y54500D01*
X19012D01*
Y54521D01*
X19019D01*
Y54542D01*
X19027D01*
Y54563D01*
X19034D01*
Y54591D01*
X19041D01*
Y54612D01*
X19048D01*
Y54634D01*
X19055D01*
Y54655D01*
X19062D01*
Y54676D01*
X19069D01*
Y54697D01*
X19076D01*
Y54718D01*
X19083D01*
Y54739D01*
X19090D01*
Y54761D01*
X19097D01*
Y54789D01*
X19104D01*
Y54810D01*
X19111D01*
Y54831D01*
X19118D01*
Y54852D01*
X19125D01*
Y54873D01*
X19132D01*
Y54895D01*
X19139D01*
Y54916D01*
X19146D01*
Y54937D01*
X19153D01*
Y54958D01*
X19161D01*
Y54986D01*
X19168D01*
Y55007D01*
X19175D01*
Y55029D01*
X19182D01*
Y55050D01*
X19189D01*
Y55071D01*
X19196D01*
Y55092D01*
X19203D01*
Y55113D01*
X19210D01*
Y55134D01*
X19217D01*
Y55163D01*
X19224D01*
Y55184D01*
X19231D01*
Y55205D01*
X19238D01*
Y55226D01*
X19245D01*
Y55247D01*
X19252D01*
Y55268D01*
X19259D01*
Y55290D01*
X19266D01*
Y55311D01*
X19273D01*
Y55332D01*
X19280D01*
Y55360D01*
X19288D01*
Y55381D01*
X19295D01*
Y55402D01*
X19302D01*
Y55424D01*
X19309D01*
Y55445D01*
X19316D01*
Y55466D01*
X19323D01*
Y55487D01*
X19330D01*
Y55508D01*
X19337D01*
Y55529D01*
X19344D01*
Y55551D01*
X19351D01*
Y55579D01*
X19358D01*
Y55600D01*
X19365D01*
Y55621D01*
X19372D01*
Y55642D01*
X19379D01*
Y55663D01*
X19386D01*
Y55685D01*
X19393D01*
Y55706D01*
X19400D01*
Y55727D01*
X19407D01*
Y55755D01*
X19414D01*
Y55769D01*
X19422D01*
Y55797D01*
X19429D01*
Y55819D01*
X19436D01*
Y55840D01*
X19443D01*
Y55861D01*
X19450D01*
Y55882D01*
X19457D01*
Y55903D01*
X19464D01*
Y55924D01*
X19471D01*
Y55953D01*
X19478D01*
Y55974D01*
X19485D01*
Y55995D01*
X19492D01*
Y56016D01*
X19499D01*
Y56037D01*
X19506D01*
Y56058D01*
X19513D01*
Y56080D01*
X19520D01*
Y56101D01*
X19527D01*
Y56122D01*
X19534D01*
Y56143D01*
X19541D01*
Y56171D01*
X19548D01*
Y56192D01*
X19556D01*
Y56214D01*
X19563D01*
Y56235D01*
X19570D01*
Y56256D01*
X19577D01*
Y56277D01*
X19584D01*
Y56298D01*
X19591D01*
Y56326D01*
X19598D01*
Y56348D01*
X19605D01*
Y56369D01*
X19612D01*
Y56390D01*
X19619D01*
Y56411D01*
X19626D01*
Y56432D01*
X19633D01*
Y56453D01*
X19640D01*
Y56475D01*
X19647D01*
Y56496D01*
X19654D01*
Y56517D01*
X19661D01*
Y56545D01*
X19668D01*
Y56566D01*
X19675D01*
Y56587D01*
X19683D01*
Y56609D01*
X19690D01*
Y56630D01*
X19697D01*
Y56651D01*
X19704D01*
Y56672D01*
X19711D01*
Y56700D01*
X19718D01*
Y56714D01*
X19725D01*
Y56743D01*
X19732D01*
Y56764D01*
X19739D01*
Y56785D01*
X19746D01*
Y56806D01*
X19753D01*
Y56827D01*
X19760D01*
Y56848D01*
X19767D01*
Y56870D01*
X19774D01*
Y56891D01*
X19781D01*
Y56919D01*
X19788D01*
Y56940D01*
X19795D01*
Y56961D01*
X19802D01*
Y56975D01*
X19809D01*
Y57004D01*
X19817D01*
Y57025D01*
X19824D01*
Y57046D01*
X19831D01*
Y57067D01*
X19838D01*
Y57088D01*
X19845D01*
Y57116D01*
X19852D01*
Y57138D01*
X19859D01*
Y57159D01*
X19866D01*
Y57180D01*
X19873D01*
Y57201D01*
X19880D01*
Y57222D01*
X19887D01*
Y57243D01*
X19894D01*
Y57272D01*
X19901D01*
Y57286D01*
X19908D01*
Y57314D01*
X19915D01*
Y57335D01*
X19922D01*
Y57356D01*
X19929D01*
Y57377D01*
X19936D01*
Y57399D01*
X19944D01*
Y57420D01*
X19951D01*
Y57441D01*
X19958D01*
Y57462D01*
X19965D01*
Y57490D01*
X19972D01*
Y57511D01*
X19979D01*
Y57533D01*
X19986D01*
Y57554D01*
X19993D01*
Y57575D01*
X20000D01*
Y57596D01*
X20007D01*
Y57617D01*
X20014D01*
Y57638D01*
X20021D01*
Y57660D01*
X20028D01*
Y57688D01*
X20035D01*
Y57709D01*
X20042D01*
Y57730D01*
X20049D01*
Y57751D01*
X20056D01*
Y57772D01*
X20063D01*
Y57794D01*
X20070D01*
Y57815D01*
X20078D01*
Y57836D01*
X20085D01*
Y57864D01*
X20092D01*
Y57885D01*
X20099D01*
Y57906D01*
X20106D01*
Y57928D01*
X20113D01*
Y57949D01*
X20120D01*
Y57970D01*
X20127D01*
Y57991D01*
X20134D01*
Y58012D01*
X20141D01*
Y58033D01*
X20148D01*
Y58062D01*
X20155D01*
Y58076D01*
X20162D01*
Y58104D01*
X20169D01*
Y58125D01*
X20176D01*
Y58146D01*
X20183D01*
Y58167D01*
X20190D01*
Y58189D01*
X20197D01*
Y58210D01*
X20204D01*
Y58231D01*
X20212D01*
Y58259D01*
X20219D01*
Y58280D01*
X20226D01*
Y58301D01*
X20233D01*
Y58323D01*
X20240D01*
Y58344D01*
X20247D01*
Y58365D01*
X20254D01*
Y58386D01*
X20261D01*
Y58407D01*
X20268D01*
Y58436D01*
X20275D01*
Y58450D01*
X20282D01*
Y58478D01*
X20289D01*
Y58499D01*
X20296D01*
Y58520D01*
X20303D01*
Y58541D01*
X20310D01*
Y58562D01*
X20317D01*
Y58584D01*
X20324D01*
Y58605D01*
X20331D01*
Y58612D01*
X20339D01*
Y58619D01*
X20346D01*
Y58612D01*
X20353D01*
Y58605D01*
X20360D01*
Y58598D01*
X20367D01*
Y58591D01*
X20374D01*
Y58584D01*
X20381D01*
Y58577D01*
X20388D01*
Y58570D01*
X20395D01*
Y58562D01*
X20402D01*
Y58555D01*
X20409D01*
Y58548D01*
X20416D01*
Y58541D01*
X20423D01*
Y58534D01*
X20430D01*
Y58527D01*
X20437D01*
Y58520D01*
X20444D01*
Y58513D01*
X20451D01*
Y58506D01*
X20458D01*
Y58499D01*
X20465D01*
Y58492D01*
X20473D01*
Y58485D01*
X20480D01*
Y58478D01*
X20487D01*
Y58471D01*
X20494D01*
Y58464D01*
X20501D01*
Y58457D01*
X20508D01*
Y58450D01*
X20515D01*
Y58443D01*
X20522D01*
Y58436D01*
X20529D01*
Y58428D01*
X20536D01*
Y58421D01*
X20543D01*
Y58414D01*
X20550D01*
Y58407D01*
X20557D01*
Y58400D01*
X20564D01*
Y58393D01*
X20571D01*
Y58386D01*
X20578D01*
Y58379D01*
X20585D01*
Y58372D01*
X20592D01*
Y58365D01*
X20600D01*
Y58358D01*
X20607D01*
Y58351D01*
X20614D01*
Y58344D01*
X20621D01*
Y58337D01*
X20628D01*
Y58330D01*
X20635D01*
Y58323D01*
X20642D01*
Y58316D01*
X20649D01*
Y58309D01*
X20656D01*
Y58301D01*
X20663D01*
Y58294D01*
X20670D01*
Y58287D01*
X20677D01*
Y58280D01*
X20684D01*
Y58273D01*
X20691D01*
Y58266D01*
X20698D01*
Y58259D01*
X20705D01*
Y58252D01*
X20712D01*
Y58245D01*
X20719D01*
Y58238D01*
X20726D01*
Y58231D01*
X20734D01*
Y58224D01*
X20741D01*
Y58217D01*
X20748D01*
Y58210D01*
X20755D01*
Y58203D01*
X20762D01*
Y58196D01*
X20769D01*
Y58189D01*
X20776D01*
Y58182D01*
X20783D01*
Y58175D01*
X20790D01*
Y58167D01*
X20797D01*
Y58160D01*
X20804D01*
Y58153D01*
X20811D01*
Y58146D01*
X20818D01*
Y58139D01*
X20825D01*
Y58132D01*
X20832D01*
Y58125D01*
X20839D01*
Y58118D01*
X20846D01*
Y58111D01*
X20853D01*
Y58104D01*
X20860D01*
Y58097D01*
X20868D01*
Y58090D01*
X20875D01*
Y58083D01*
X20882D01*
Y58076D01*
X20889D01*
Y58069D01*
X20896D01*
Y58062D01*
X20903D01*
Y58055D01*
X20910D01*
Y58048D01*
X20917D01*
Y58040D01*
X20924D01*
Y58033D01*
X20931D01*
Y58026D01*
X20938D01*
Y58019D01*
X20945D01*
Y58012D01*
X20952D01*
Y58005D01*
X20959D01*
Y57998D01*
X20966D01*
Y57991D01*
X20973D01*
Y57984D01*
X20980D01*
Y57977D01*
X20987D01*
Y57970D01*
X20994D01*
Y57963D01*
X21002D01*
Y57956D01*
X21009D01*
Y57949D01*
X21016D01*
Y57942D01*
X21023D01*
Y57935D01*
X21030D01*
Y57928D01*
X21037D01*
Y57921D01*
X21044D01*
Y57914D01*
X21051D01*
Y57906D01*
X21058D01*
Y57899D01*
X21065D01*
Y57892D01*
X21072D01*
Y57885D01*
X21079D01*
Y57878D01*
X21086D01*
Y57871D01*
X21093D01*
Y57864D01*
X21100D01*
Y57857D01*
X21107D01*
Y57850D01*
X21114D01*
Y57843D01*
X21121D01*
Y57836D01*
X21129D01*
Y57829D01*
X21136D01*
Y57822D01*
X21143D01*
Y57815D01*
X21150D01*
Y57808D01*
X21157D01*
Y57801D01*
X21164D01*
Y57794D01*
X21171D01*
Y57787D01*
X21178D01*
Y57779D01*
X21185D01*
Y57772D01*
X21192D01*
Y57765D01*
X21199D01*
Y57758D01*
X21206D01*
Y57751D01*
X21213D01*
Y57744D01*
X21220D01*
Y57737D01*
X21227D01*
Y57730D01*
X21234D01*
Y57723D01*
X21241D01*
Y57716D01*
X21248D01*
Y57709D01*
X21255D01*
Y57702D01*
X21263D01*
Y57695D01*
X21270D01*
Y57688D01*
X21277D01*
Y57681D01*
X21284D01*
Y57674D01*
X21291D01*
Y57667D01*
X21298D01*
Y57660D01*
X21305D01*
Y57653D01*
X21312D01*
Y57645D01*
X21319D01*
Y57638D01*
X21326D01*
Y57631D01*
X21333D01*
Y57624D01*
X21340D01*
Y57617D01*
X21347D01*
Y57610D01*
X21354D01*
Y57596D01*
X21368D01*
Y57589D01*
X21375D01*
Y57582D01*
X21382D01*
Y57575D01*
X21390D01*
Y57568D01*
X21397D01*
Y57561D01*
X21404D01*
Y57554D01*
X21411D01*
Y57547D01*
X21418D01*
Y57540D01*
X21425D01*
Y57533D01*
X21432D01*
Y57526D01*
X21439D01*
Y57519D01*
X21446D01*
Y57511D01*
X21453D01*
Y57504D01*
X21460D01*
Y57497D01*
X21467D01*
Y57490D01*
X21474D01*
Y57483D01*
X21481D01*
Y57476D01*
X21488D01*
Y57469D01*
X21495D01*
Y57462D01*
X21502D01*
Y57455D01*
X21509D01*
Y57448D01*
X21516D01*
Y57441D01*
X21524D01*
Y57434D01*
X21531D01*
Y57427D01*
X21538D01*
Y57420D01*
X21545D01*
Y57413D01*
X21552D01*
Y57406D01*
X21559D01*
Y57399D01*
X21566D01*
Y57392D01*
X21573D01*
Y57384D01*
X21580D01*
Y57377D01*
X21587D01*
Y57370D01*
X21594D01*
Y57363D01*
X21601D01*
Y57356D01*
X21608D01*
Y57349D01*
X21615D01*
Y57342D01*
X21622D01*
Y57335D01*
X21629D01*
Y57328D01*
X21636D01*
Y57321D01*
X21643D01*
Y57314D01*
X21650D01*
Y57307D01*
X21658D01*
Y57300D01*
X21665D01*
Y57293D01*
X21672D01*
Y57286D01*
X21679D01*
Y57279D01*
X21686D01*
Y57272D01*
X21693D01*
Y57265D01*
X21700D01*
Y57258D01*
X21707D01*
Y57250D01*
X21714D01*
Y57243D01*
X21721D01*
Y57236D01*
X21728D01*
Y57229D01*
X21735D01*
Y57222D01*
X21742D01*
Y57215D01*
X21749D01*
Y57208D01*
X21756D01*
Y57201D01*
X21763D01*
Y57194D01*
X21770D01*
Y57187D01*
X21777D01*
Y57180D01*
X21785D01*
Y57173D01*
X21792D01*
Y57166D01*
X21799D01*
Y57159D01*
X21806D01*
Y57152D01*
X21813D01*
Y57145D01*
X21820D01*
Y57138D01*
X21827D01*
Y57131D01*
X21834D01*
Y57124D01*
X21841D01*
Y57116D01*
X21848D01*
Y57109D01*
X21855D01*
Y57102D01*
X21862D01*
Y57095D01*
X21869D01*
Y57088D01*
X21876D01*
Y57081D01*
X21883D01*
Y57074D01*
X21890D01*
Y57067D01*
X21897D01*
Y57060D01*
X21904D01*
Y57053D01*
X21911D01*
Y57046D01*
X21919D01*
Y57039D01*
X21926D01*
Y57032D01*
X21933D01*
Y57025D01*
X21940D01*
Y57018D01*
X21947D01*
Y57011D01*
X21954D01*
Y57004D01*
X21961D01*
Y56997D01*
X21968D01*
Y56989D01*
X21975D01*
Y56975D01*
X22003D01*
Y58950D01*
X21996D01*
Y58957D01*
X21171D01*
Y58972D01*
X21164D01*
Y59282D01*
X21171D01*
Y59289D01*
X22314D01*
Y59296D01*
X22321D01*
Y59289D01*
D02*
G37*
G36*
X22687D02*
X23837D01*
Y58965D01*
X23830D01*
Y58957D01*
X23005D01*
Y58943D01*
X22998D01*
Y58929D01*
X23005D01*
Y58633D01*
X22998D01*
Y58591D01*
X23005D01*
Y57638D01*
X22998D01*
Y57596D01*
X23005D01*
Y56997D01*
X22998D01*
Y56975D01*
X23005D01*
Y56968D01*
X23012D01*
Y56975D01*
X23026D01*
Y56989D01*
X23033D01*
Y56997D01*
X23040D01*
Y57004D01*
X23047D01*
Y57011D01*
X23054D01*
Y57018D01*
X23061D01*
Y57025D01*
X23068D01*
Y57032D01*
X23075D01*
Y57039D01*
X23082D01*
Y57046D01*
X23089D01*
Y57053D01*
X23097D01*
Y57060D01*
X23104D01*
Y57067D01*
X23111D01*
Y57074D01*
X23118D01*
Y57081D01*
X23125D01*
Y57088D01*
X23132D01*
Y57095D01*
X23139D01*
Y57102D01*
X23146D01*
Y57109D01*
X23153D01*
Y57116D01*
X23160D01*
Y57124D01*
X23167D01*
Y57131D01*
X23174D01*
Y57138D01*
X23181D01*
Y57145D01*
X23188D01*
Y57152D01*
X23195D01*
Y57159D01*
X23202D01*
Y57166D01*
X23209D01*
Y57173D01*
X23216D01*
Y57180D01*
X23223D01*
Y57187D01*
X23231D01*
Y57194D01*
X23238D01*
Y57201D01*
X23245D01*
Y57208D01*
X23252D01*
Y57215D01*
X23259D01*
Y57222D01*
X23266D01*
Y57229D01*
X23273D01*
Y57236D01*
X23280D01*
Y57243D01*
X23287D01*
Y57250D01*
X23294D01*
Y57258D01*
X23301D01*
Y57265D01*
X23308D01*
Y57272D01*
X23315D01*
Y57279D01*
X23322D01*
Y57286D01*
X23329D01*
Y57293D01*
X23336D01*
Y57300D01*
X23343D01*
Y57307D01*
X23350D01*
Y57314D01*
X23358D01*
Y57321D01*
X23365D01*
Y57328D01*
X23372D01*
Y57335D01*
X23379D01*
Y57342D01*
X23386D01*
Y57349D01*
X23393D01*
Y57356D01*
X23400D01*
Y57363D01*
X23407D01*
Y57370D01*
X23414D01*
Y57377D01*
X23421D01*
Y57384D01*
X23428D01*
Y57392D01*
X23435D01*
Y57399D01*
X23442D01*
Y57406D01*
X23449D01*
Y57413D01*
X23456D01*
Y57420D01*
X23463D01*
Y57427D01*
X23470D01*
Y57434D01*
X23477D01*
Y57441D01*
X23484D01*
Y57448D01*
X23492D01*
Y57455D01*
X23499D01*
Y57462D01*
X23506D01*
Y57469D01*
X23513D01*
Y57476D01*
X23520D01*
Y57483D01*
X23527D01*
Y57490D01*
X23534D01*
Y57497D01*
X23541D01*
Y57504D01*
X23548D01*
Y57511D01*
X23555D01*
Y57519D01*
X23562D01*
Y57526D01*
X23569D01*
Y57533D01*
X23576D01*
Y57540D01*
X23583D01*
Y57547D01*
X23590D01*
Y57554D01*
X23597D01*
Y57561D01*
X23604D01*
Y57568D01*
X23611D01*
Y57575D01*
X23618D01*
Y57582D01*
X23626D01*
Y57589D01*
X23633D01*
Y57596D01*
X23647D01*
Y57610D01*
X23654D01*
Y57617D01*
X23661D01*
Y57624D01*
X23668D01*
Y57631D01*
X23675D01*
Y57638D01*
X23682D01*
Y57645D01*
X23689D01*
Y57653D01*
X23696D01*
Y57660D01*
X23703D01*
Y57667D01*
X23710D01*
Y57674D01*
X23717D01*
Y57681D01*
X23724D01*
Y57688D01*
X23731D01*
Y57695D01*
X23738D01*
Y57702D01*
X23745D01*
Y57709D01*
X23753D01*
Y57716D01*
X23760D01*
Y57723D01*
X23767D01*
Y57730D01*
X23774D01*
Y57737D01*
X23781D01*
Y57744D01*
X23788D01*
Y57751D01*
X23795D01*
Y57758D01*
X23802D01*
Y57765D01*
X23809D01*
Y57772D01*
X23816D01*
Y57779D01*
X23823D01*
Y57787D01*
X23830D01*
Y57794D01*
X23837D01*
Y57801D01*
X23844D01*
Y57808D01*
X23851D01*
Y57815D01*
X23858D01*
Y57822D01*
X23865D01*
Y57829D01*
X23872D01*
Y57836D01*
X23879D01*
Y57843D01*
X23887D01*
Y57850D01*
X23894D01*
Y57857D01*
X23901D01*
Y57864D01*
X23908D01*
Y57871D01*
X23915D01*
Y57878D01*
X23922D01*
Y57885D01*
X23929D01*
Y57892D01*
X23936D01*
Y57899D01*
X23943D01*
Y57906D01*
X23950D01*
Y57914D01*
X23957D01*
Y57921D01*
X23964D01*
Y57928D01*
X23971D01*
Y57935D01*
X23978D01*
Y57942D01*
X23985D01*
Y57949D01*
X23992D01*
Y57956D01*
X23999D01*
Y57963D01*
X24006D01*
Y57970D01*
X24014D01*
Y57977D01*
X24021D01*
Y57984D01*
X24028D01*
Y57991D01*
X24035D01*
Y57998D01*
X24042D01*
Y58005D01*
X24049D01*
Y58012D01*
X24056D01*
Y58019D01*
X24063D01*
Y58026D01*
X24070D01*
Y58033D01*
X24077D01*
Y58040D01*
X24084D01*
Y58048D01*
X24091D01*
Y58055D01*
X24098D01*
Y58062D01*
X24105D01*
Y58069D01*
X24112D01*
Y58076D01*
X24119D01*
Y58083D01*
X24126D01*
Y58090D01*
X24133D01*
Y58097D01*
X24140D01*
Y58104D01*
X24148D01*
Y58111D01*
X24155D01*
Y58118D01*
X24162D01*
Y58125D01*
X24169D01*
Y58132D01*
X24176D01*
Y58139D01*
X24183D01*
Y58146D01*
X24190D01*
Y58153D01*
X24197D01*
Y58160D01*
X24204D01*
Y58167D01*
X24211D01*
Y58175D01*
X24218D01*
Y58182D01*
X24225D01*
Y58189D01*
X24232D01*
Y58196D01*
X24239D01*
Y58203D01*
X24246D01*
Y58210D01*
X24253D01*
Y58217D01*
X24260D01*
Y58224D01*
X24267D01*
Y58231D01*
X24274D01*
Y58238D01*
X24282D01*
Y58245D01*
X24289D01*
Y58252D01*
X24296D01*
Y58259D01*
X24303D01*
Y58266D01*
X24310D01*
Y58273D01*
X24317D01*
Y58280D01*
X24324D01*
Y58287D01*
X24331D01*
Y58294D01*
X24338D01*
Y58301D01*
X24345D01*
Y58309D01*
X24352D01*
Y58316D01*
X24359D01*
Y58323D01*
X24366D01*
Y58330D01*
X24373D01*
Y58337D01*
X24380D01*
Y58344D01*
X24387D01*
Y58351D01*
X24394D01*
Y58358D01*
X24401D01*
Y58365D01*
X24409D01*
Y58372D01*
X24416D01*
Y58379D01*
X24423D01*
Y58386D01*
X24430D01*
Y58393D01*
X24437D01*
Y58400D01*
X24444D01*
Y58407D01*
X24451D01*
Y58414D01*
X24458D01*
Y58421D01*
X24465D01*
Y58428D01*
X24472D01*
Y58436D01*
X24479D01*
Y58443D01*
X24486D01*
Y58450D01*
X24493D01*
Y58457D01*
X24500D01*
Y58464D01*
X24507D01*
Y58471D01*
X24514D01*
Y58478D01*
X24521D01*
Y58485D01*
X24528D01*
Y58492D01*
X24535D01*
Y58499D01*
X24543D01*
Y58506D01*
X24550D01*
Y58513D01*
X24557D01*
Y58520D01*
X24564D01*
Y58527D01*
X24571D01*
Y58534D01*
X24578D01*
Y58541D01*
X24585D01*
Y58548D01*
X24592D01*
Y58555D01*
X24599D01*
Y58562D01*
X24606D01*
Y58570D01*
X24613D01*
Y58577D01*
X24620D01*
Y58584D01*
X24627D01*
Y58591D01*
X24634D01*
Y58598D01*
X24641D01*
Y58605D01*
X24648D01*
Y58612D01*
X24655D01*
Y58619D01*
X24662D01*
Y58612D01*
X24669D01*
Y58605D01*
X24677D01*
Y58584D01*
X24684D01*
Y58562D01*
X24691D01*
Y58541D01*
X24698D01*
Y58520D01*
X24705D01*
Y58499D01*
X24712D01*
Y58478D01*
X24719D01*
Y58450D01*
X24726D01*
Y58436D01*
X24733D01*
Y58407D01*
X24740D01*
Y58386D01*
X24747D01*
Y58365D01*
X24754D01*
Y58344D01*
X24761D01*
Y58323D01*
X24768D01*
Y58301D01*
X24775D01*
Y58280D01*
X24782D01*
Y58259D01*
X24789D01*
Y58231D01*
X24796D01*
Y58210D01*
X24804D01*
Y58189D01*
X24811D01*
Y58167D01*
X24818D01*
Y58146D01*
X24825D01*
Y58125D01*
X24832D01*
Y58104D01*
X24839D01*
Y58083D01*
X24846D01*
Y58062D01*
X24853D01*
Y58033D01*
X24860D01*
Y58012D01*
X24867D01*
Y57991D01*
X24874D01*
Y57970D01*
X24881D01*
Y57949D01*
X24888D01*
Y57928D01*
X24895D01*
Y57906D01*
X24902D01*
Y57885D01*
X24909D01*
Y57864D01*
X24916D01*
Y57836D01*
X24923D01*
Y57815D01*
X24930D01*
Y57794D01*
X24938D01*
Y57772D01*
X24945D01*
Y57751D01*
X24952D01*
Y57730D01*
X24959D01*
Y57709D01*
X24966D01*
Y57688D01*
X24973D01*
Y57660D01*
X24980D01*
Y57645D01*
X24987D01*
Y57617D01*
X24994D01*
Y57596D01*
X25001D01*
Y57575D01*
X25008D01*
Y57554D01*
X25015D01*
Y57533D01*
X25022D01*
Y57511D01*
X25029D01*
Y57490D01*
X25036D01*
Y57462D01*
X25043D01*
Y57441D01*
X25050D01*
Y57420D01*
X25057D01*
Y57399D01*
X25065D01*
Y57377D01*
X25072D01*
Y57356D01*
X25079D01*
Y57335D01*
X25086D01*
Y57314D01*
X25093D01*
Y57293D01*
X25100D01*
Y57272D01*
X25107D01*
Y57243D01*
X25114D01*
Y57222D01*
X25121D01*
Y57201D01*
X25128D01*
Y57180D01*
X25135D01*
Y57159D01*
X25142D01*
Y57138D01*
X25149D01*
Y57116D01*
X25156D01*
Y57095D01*
X25163D01*
Y57074D01*
X25170D01*
Y57046D01*
X25177D01*
Y57025D01*
X25184D01*
Y57004D01*
X25191D01*
Y56975D01*
X25199D01*
Y56961D01*
X25206D01*
Y56940D01*
X25213D01*
Y56919D01*
X25220D01*
Y56898D01*
X25227D01*
Y56870D01*
X25234D01*
Y56855D01*
X25241D01*
Y56827D01*
X25248D01*
Y56806D01*
X25255D01*
Y56785D01*
X25262D01*
Y56764D01*
X25269D01*
Y56743D01*
X25276D01*
Y56721D01*
X25283D01*
Y56700D01*
X25290D01*
Y56679D01*
X25297D01*
Y56651D01*
X25304D01*
Y56630D01*
X25311D01*
Y56609D01*
X25318D01*
Y56587D01*
X25325D01*
Y56566D01*
X25333D01*
Y56545D01*
X25340D01*
Y56524D01*
X25347D01*
Y56503D01*
X25354D01*
Y56482D01*
X25361D01*
Y56453D01*
X25368D01*
Y56432D01*
X25375D01*
Y56411D01*
X25382D01*
Y56390D01*
X25389D01*
Y56369D01*
X25396D01*
Y56348D01*
X25403D01*
Y56326D01*
X25410D01*
Y56305D01*
X25417D01*
Y56284D01*
X25424D01*
Y56263D01*
X25431D01*
Y56235D01*
X25438D01*
Y56214D01*
X25445D01*
Y56192D01*
X25452D01*
Y56171D01*
X25460D01*
Y56150D01*
X25467D01*
Y56129D01*
X25474D01*
Y56108D01*
X25481D01*
Y56080D01*
X25488D01*
Y56065D01*
X25495D01*
Y56037D01*
X25502D01*
Y56016D01*
X25509D01*
Y55995D01*
X25516D01*
Y55974D01*
X25523D01*
Y55953D01*
X25530D01*
Y55931D01*
X25537D01*
Y55910D01*
X25544D01*
Y55889D01*
X25551D01*
Y55861D01*
X25558D01*
Y55840D01*
X25565D01*
Y55819D01*
X25572D01*
Y55797D01*
X25579D01*
Y55776D01*
X25586D01*
Y55755D01*
X25594D01*
Y55734D01*
X25601D01*
Y55706D01*
X25608D01*
Y55692D01*
X25615D01*
Y55663D01*
X25622D01*
Y55642D01*
X25629D01*
Y55621D01*
X25636D01*
Y55600D01*
X25643D01*
Y55579D01*
X25650D01*
Y55558D01*
X25657D01*
Y55536D01*
X25664D01*
Y55515D01*
X25671D01*
Y55494D01*
X25678D01*
Y55466D01*
X25685D01*
Y55445D01*
X25692D01*
Y55424D01*
X25699D01*
Y55402D01*
X25706D01*
Y55381D01*
X25713D01*
Y55360D01*
X25720D01*
Y55339D01*
X25728D01*
Y55318D01*
X25735D01*
Y55290D01*
X25742D01*
Y55275D01*
X25749D01*
Y55247D01*
X25756D01*
Y55226D01*
X25763D01*
Y55205D01*
X25770D01*
Y55184D01*
X25777D01*
Y55163D01*
X25784D01*
Y55141D01*
X25791D01*
Y55120D01*
X25798D01*
Y55092D01*
X25805D01*
Y55071D01*
X25812D01*
Y55050D01*
X25819D01*
Y55029D01*
X25826D01*
Y55007D01*
X25833D01*
Y54986D01*
X25840D01*
Y54965D01*
X25847D01*
Y54944D01*
X25855D01*
Y54923D01*
X25862D01*
Y54902D01*
X25869D01*
Y54873D01*
X25876D01*
Y54852D01*
X25883D01*
Y54831D01*
X25890D01*
Y54810D01*
X25897D01*
Y54789D01*
X25904D01*
Y54768D01*
X25911D01*
Y54746D01*
X25918D01*
Y54718D01*
X25925D01*
Y54704D01*
X25932D01*
Y54676D01*
X25939D01*
Y54655D01*
X25946D01*
Y54634D01*
X25953D01*
Y54612D01*
X25960D01*
Y54591D01*
X25967D01*
Y54570D01*
X25974D01*
Y54549D01*
X25981D01*
Y54528D01*
X25989D01*
Y54500D01*
X25996D01*
Y54478D01*
X26003D01*
Y54457D01*
X26010D01*
Y54436D01*
X26017D01*
Y54415D01*
X26024D01*
Y54394D01*
X26031D01*
Y54373D01*
X26038D01*
Y54351D01*
X26045D01*
Y54330D01*
X26052D01*
Y54309D01*
X26059D01*
Y54281D01*
X26066D01*
Y54260D01*
X26073D01*
Y54239D01*
X26080D01*
Y54217D01*
X26087D01*
Y54196D01*
X26094D01*
Y54175D01*
X26101D01*
Y54154D01*
X26108D01*
Y54126D01*
X26115D01*
Y54112D01*
X26123D01*
Y54083D01*
X26130D01*
Y54062D01*
X26137D01*
Y54041D01*
X26144D01*
Y54020D01*
X26151D01*
Y53999D01*
X26158D01*
Y53970D01*
X26165D01*
Y53963D01*
X26172D01*
Y53956D01*
X27004D01*
Y53632D01*
X26997D01*
Y53625D01*
X25671D01*
Y53639D01*
X25664D01*
Y53949D01*
X25671D01*
Y53956D01*
X25989D01*
Y53963D01*
X25996D01*
Y53985D01*
X25989D01*
Y54013D01*
X25981D01*
Y54027D01*
X25974D01*
Y54055D01*
X25967D01*
Y54076D01*
X25960D01*
Y54097D01*
X25953D01*
Y54119D01*
X25946D01*
Y54140D01*
X25939D01*
Y54161D01*
X25932D01*
Y54189D01*
X25925D01*
Y54210D01*
X25918D01*
Y54231D01*
X25911D01*
Y54253D01*
X25904D01*
Y54274D01*
X25897D01*
Y54295D01*
X25890D01*
Y54316D01*
X25883D01*
Y54344D01*
X25876D01*
Y54366D01*
X25869D01*
Y54387D01*
X25862D01*
Y54408D01*
X25855D01*
Y54429D01*
X25847D01*
Y54450D01*
X25840D01*
Y54471D01*
X25833D01*
Y54500D01*
X25826D01*
Y54521D01*
X25819D01*
Y54542D01*
X25812D01*
Y54563D01*
X25805D01*
Y54584D01*
X25798D01*
Y54605D01*
X25791D01*
Y54626D01*
X25784D01*
Y54655D01*
X25777D01*
Y54669D01*
X25770D01*
Y54697D01*
X25763D01*
Y54718D01*
X25756D01*
Y54739D01*
X25749D01*
Y54761D01*
X25742D01*
Y54782D01*
X25735D01*
Y54810D01*
X25728D01*
Y54824D01*
X25720D01*
Y54852D01*
X25713D01*
Y54873D01*
X25706D01*
Y54895D01*
X25699D01*
Y54916D01*
X25692D01*
Y54937D01*
X25685D01*
Y54958D01*
X25678D01*
Y54986D01*
X25671D01*
Y55007D01*
X25664D01*
Y55029D01*
X25657D01*
Y55050D01*
X25650D01*
Y55071D01*
X25643D01*
Y55092D01*
X25636D01*
Y55113D01*
X25629D01*
Y55141D01*
X25622D01*
Y55163D01*
X25615D01*
Y55184D01*
X25608D01*
Y55205D01*
X25601D01*
Y55226D01*
X25594D01*
Y55247D01*
X25586D01*
Y55275D01*
X25579D01*
Y55297D01*
X25572D01*
Y55318D01*
X25565D01*
Y55339D01*
X25558D01*
Y55360D01*
X25551D01*
Y55381D01*
X25544D01*
Y55402D01*
X25537D01*
Y55424D01*
X25530D01*
Y55452D01*
X25523D01*
Y55473D01*
X25516D01*
Y55494D01*
X25509D01*
Y55515D01*
X25502D01*
Y55536D01*
X25495D01*
Y55565D01*
X25488D01*
Y55579D01*
X25481D01*
Y55607D01*
X25474D01*
Y55628D01*
X25467D01*
Y55649D01*
X25460D01*
Y55670D01*
X25452D01*
Y55692D01*
X25445D01*
Y55713D01*
X25438D01*
Y55734D01*
X25431D01*
Y55762D01*
X25424D01*
Y55783D01*
X25417D01*
Y55804D01*
X25410D01*
Y55826D01*
X25403D01*
Y55847D01*
X25396D01*
Y55868D01*
X25389D01*
Y55889D01*
X25382D01*
Y55917D01*
X25375D01*
Y55938D01*
X25368D01*
Y55953D01*
X25361D01*
Y55981D01*
X25354D01*
Y56002D01*
X25347D01*
Y56023D01*
X25340D01*
Y56044D01*
X25333D01*
Y56072D01*
X25325D01*
Y56094D01*
X25318D01*
Y56115D01*
X25311D01*
Y56136D01*
X25304D01*
Y56157D01*
X25297D01*
Y56178D01*
X25290D01*
Y56207D01*
X25283D01*
Y56228D01*
X25276D01*
Y56249D01*
X25269D01*
Y56270D01*
X25262D01*
Y56291D01*
X25255D01*
Y56312D01*
X25248D01*
Y56333D01*
X25241D01*
Y56362D01*
X25234D01*
Y56383D01*
X25227D01*
Y56404D01*
X25220D01*
Y56425D01*
X25213D01*
Y56446D01*
X25206D01*
Y56468D01*
X25199D01*
Y56489D01*
X25191D01*
Y56517D01*
X25184D01*
Y56531D01*
X25177D01*
Y56559D01*
X25170D01*
Y56580D01*
X25163D01*
Y56602D01*
X25156D01*
Y56623D01*
X25149D01*
Y56644D01*
X25142D01*
Y56672D01*
X25135D01*
Y56686D01*
X25128D01*
Y56714D01*
X25121D01*
Y56736D01*
X25114D01*
Y56757D01*
X25107D01*
Y56778D01*
X25100D01*
Y56799D01*
X25093D01*
Y56820D01*
X25086D01*
Y56848D01*
X25079D01*
Y56870D01*
X25072D01*
Y56891D01*
X25065D01*
Y56912D01*
X25057D01*
Y56933D01*
X25050D01*
Y56954D01*
X25043D01*
Y56975D01*
X25036D01*
Y57004D01*
X25029D01*
Y57025D01*
X25022D01*
Y57046D01*
X25015D01*
Y57067D01*
X25008D01*
Y57088D01*
X25001D01*
Y57109D01*
X24994D01*
Y57138D01*
X24987D01*
Y57159D01*
X24980D01*
Y57180D01*
X24973D01*
Y57201D01*
X24966D01*
Y57222D01*
X24959D01*
Y57243D01*
X24952D01*
Y57265D01*
X24945D01*
Y57286D01*
X24938D01*
Y57314D01*
X24930D01*
Y57335D01*
X24923D01*
Y57356D01*
X24916D01*
Y57377D01*
X24909D01*
Y57399D01*
X24902D01*
Y57420D01*
X24895D01*
Y57441D01*
X24888D01*
Y57469D01*
X24881D01*
Y57490D01*
X24874D01*
Y57511D01*
X24867D01*
Y57533D01*
X24860D01*
Y57554D01*
X24853D01*
Y57575D01*
X24846D01*
Y57596D01*
X24839D01*
Y57617D01*
X24818D01*
Y57603D01*
X24811D01*
Y57596D01*
X24796D01*
Y57589D01*
X24789D01*
Y57582D01*
X24782D01*
Y57575D01*
X24775D01*
Y57568D01*
X24768D01*
Y57561D01*
X24761D01*
Y57554D01*
X24754D01*
Y57547D01*
X24747D01*
Y57540D01*
X24740D01*
Y57533D01*
X24733D01*
Y57526D01*
X24719D01*
Y57519D01*
X24712D01*
Y57511D01*
X24705D01*
Y57504D01*
X24698D01*
Y57497D01*
X24691D01*
Y57490D01*
X24684D01*
Y57483D01*
X24677D01*
Y57476D01*
X24669D01*
Y57469D01*
X24662D01*
Y57462D01*
X24648D01*
Y57455D01*
X24641D01*
Y57448D01*
X24634D01*
Y57441D01*
X24627D01*
Y57434D01*
X24620D01*
Y57427D01*
X24613D01*
Y57420D01*
X24606D01*
Y57413D01*
X24599D01*
Y57406D01*
X24592D01*
Y57399D01*
X24585D01*
Y57392D01*
X24578D01*
Y57384D01*
X24564D01*
Y57377D01*
X24557D01*
Y57370D01*
X24550D01*
Y57363D01*
X24543D01*
Y57356D01*
X24535D01*
Y57349D01*
X24528D01*
Y57342D01*
X24521D01*
Y57335D01*
X24514D01*
Y57328D01*
X24507D01*
Y57321D01*
X24500D01*
Y57314D01*
X24486D01*
Y57307D01*
X24479D01*
Y57300D01*
X24472D01*
Y57293D01*
X24465D01*
Y57286D01*
X24458D01*
Y57279D01*
X24451D01*
Y57272D01*
X24444D01*
Y57265D01*
X24437D01*
Y57258D01*
X24430D01*
Y57250D01*
X24416D01*
Y57243D01*
X24409D01*
Y57236D01*
X24401D01*
Y57229D01*
X24394D01*
Y57222D01*
X24387D01*
Y57215D01*
X24380D01*
Y57208D01*
X24373D01*
Y57201D01*
X24366D01*
Y57194D01*
X24359D01*
Y57187D01*
X24352D01*
Y57180D01*
X24345D01*
Y57173D01*
X24331D01*
Y57166D01*
X24324D01*
Y57159D01*
X24317D01*
Y57152D01*
X24310D01*
Y57145D01*
X24303D01*
Y57138D01*
X24296D01*
Y57131D01*
X24289D01*
Y57124D01*
X24282D01*
Y57116D01*
X24274D01*
Y57109D01*
X24260D01*
Y57102D01*
X24253D01*
Y57095D01*
X24246D01*
Y57088D01*
X24239D01*
Y57081D01*
X24232D01*
Y57074D01*
X24225D01*
Y57067D01*
X24218D01*
Y57060D01*
X24211D01*
Y57053D01*
X24204D01*
Y57046D01*
X24197D01*
Y57039D01*
X24190D01*
Y57032D01*
X24176D01*
Y57025D01*
X24169D01*
Y57018D01*
X24162D01*
Y57011D01*
X24155D01*
Y57004D01*
X24148D01*
Y56997D01*
X24140D01*
Y56989D01*
X24133D01*
Y56982D01*
X24126D01*
Y56975D01*
X24119D01*
Y56968D01*
X24105D01*
Y56954D01*
X24091D01*
Y56947D01*
X24084D01*
Y56940D01*
X24077D01*
Y56933D01*
X24070D01*
Y56926D01*
X24063D01*
Y56919D01*
X24056D01*
Y56912D01*
X24049D01*
Y56905D01*
X24042D01*
Y56898D01*
X24028D01*
Y56891D01*
X24021D01*
Y56884D01*
X24014D01*
Y56877D01*
X24006D01*
Y56870D01*
X23999D01*
Y56863D01*
X23992D01*
Y56855D01*
X23985D01*
Y56848D01*
X23978D01*
Y56841D01*
X23971D01*
Y56834D01*
X23964D01*
Y56827D01*
X23957D01*
Y56820D01*
X23943D01*
Y56813D01*
X23936D01*
Y56806D01*
X23929D01*
Y56799D01*
X23922D01*
Y56792D01*
X23915D01*
Y56785D01*
X23908D01*
Y56778D01*
X23901D01*
Y56771D01*
X23894D01*
Y56764D01*
X23887D01*
Y56757D01*
X23872D01*
Y56750D01*
X23865D01*
Y56743D01*
X23858D01*
Y56736D01*
X23851D01*
Y56729D01*
X23844D01*
Y56721D01*
X23837D01*
Y56714D01*
X23830D01*
Y56707D01*
X23823D01*
Y56700D01*
X23816D01*
Y56693D01*
X23809D01*
Y56686D01*
X23802D01*
Y56679D01*
X23788D01*
Y56672D01*
X23781D01*
Y56665D01*
X23774D01*
Y56658D01*
X23767D01*
Y56651D01*
X23760D01*
Y56644D01*
X23753D01*
Y56637D01*
X23745D01*
Y56630D01*
X23738D01*
Y56623D01*
X23731D01*
Y56616D01*
X23717D01*
Y56609D01*
X23710D01*
Y56602D01*
X23703D01*
Y56594D01*
X23696D01*
Y56587D01*
X23689D01*
Y56580D01*
X23682D01*
Y56573D01*
X23675D01*
Y56566D01*
X23668D01*
Y56559D01*
X23661D01*
Y56552D01*
X23654D01*
Y56545D01*
X23640D01*
Y56538D01*
X23633D01*
Y56531D01*
X23626D01*
Y56524D01*
X23618D01*
Y56517D01*
X23611D01*
Y56510D01*
X23604D01*
Y56503D01*
X23597D01*
Y56496D01*
X23590D01*
Y56489D01*
X23583D01*
Y56482D01*
X23576D01*
Y56475D01*
X23562D01*
Y56468D01*
X23555D01*
Y56460D01*
X23548D01*
Y56453D01*
X23541D01*
Y56446D01*
X23534D01*
Y56439D01*
X23527D01*
Y56432D01*
X23520D01*
Y56425D01*
X23513D01*
Y56418D01*
X23506D01*
Y56411D01*
X23499D01*
Y56404D01*
X23484D01*
Y56397D01*
X23477D01*
Y56390D01*
X23470D01*
Y56383D01*
X23463D01*
Y56376D01*
X23456D01*
Y56369D01*
X23449D01*
Y56362D01*
X23442D01*
Y56355D01*
X23435D01*
Y56348D01*
X23428D01*
Y56341D01*
X23421D01*
Y56333D01*
X23414D01*
Y56326D01*
X23400D01*
Y56319D01*
X23393D01*
Y56312D01*
X23386D01*
Y56305D01*
X23379D01*
Y56298D01*
X23372D01*
Y56291D01*
X23365D01*
Y56284D01*
X23358D01*
Y56277D01*
X23350D01*
Y56270D01*
X23336D01*
Y56263D01*
X23329D01*
Y56256D01*
X23322D01*
Y56249D01*
X23315D01*
Y56242D01*
X23308D01*
Y56235D01*
X23301D01*
Y56228D01*
X23294D01*
Y56221D01*
X23287D01*
Y56214D01*
X23280D01*
Y56207D01*
X23273D01*
Y56199D01*
X23266D01*
Y56192D01*
X23252D01*
Y56185D01*
X23245D01*
Y56178D01*
X23238D01*
Y56171D01*
X23231D01*
Y56164D01*
X23223D01*
Y56157D01*
X23216D01*
Y56150D01*
X23209D01*
Y56143D01*
X23202D01*
Y56136D01*
X23195D01*
Y56129D01*
X23181D01*
Y56122D01*
X23174D01*
Y56115D01*
X23167D01*
Y56108D01*
X23160D01*
Y56101D01*
X23153D01*
Y56094D01*
X23146D01*
Y56087D01*
X23139D01*
Y56080D01*
X23132D01*
Y56072D01*
X23125D01*
Y56065D01*
X23118D01*
Y56058D01*
X23111D01*
Y56051D01*
X23097D01*
Y56044D01*
X23089D01*
Y56037D01*
X23082D01*
Y56030D01*
X23075D01*
Y56023D01*
X23068D01*
Y56016D01*
X23061D01*
Y56009D01*
X23054D01*
Y56002D01*
X23047D01*
Y55995D01*
X23040D01*
Y55988D01*
X23033D01*
Y55981D01*
X23019D01*
Y55974D01*
X23012D01*
Y55967D01*
X23005D01*
Y55946D01*
X22998D01*
Y55931D01*
X23005D01*
Y53815D01*
X22998D01*
Y53801D01*
X23005D01*
Y53794D01*
X23019D01*
Y53787D01*
X23033D01*
Y53794D01*
X23633D01*
Y53787D01*
X23640D01*
Y53794D01*
X23661D01*
Y53787D01*
X23668D01*
Y53463D01*
X23654D01*
Y53456D01*
X23647D01*
Y53463D01*
X22694D01*
Y53456D01*
X22680D01*
Y53463D01*
X22673D01*
Y53470D01*
X22666D01*
Y59289D01*
X22680D01*
Y59296D01*
X22687D01*
Y59289D01*
D02*
G37*
G36*
X26997Y53279D02*
X27004D01*
Y52969D01*
X26997D01*
Y52962D01*
X18004D01*
Y52969D01*
X17997D01*
Y53279D01*
X18004D01*
Y53293D01*
X26997D01*
Y53279D01*
D02*
G37*
%LPC*%
G36*
X24886Y29932D02*
X23932D01*
Y28023D01*
X24886D01*
Y29932D01*
D02*
G37*
%LPD*%
D25*
X27748Y24173D02*
Y23173D01*
X27248D01*
X27082Y23340D01*
Y24006D01*
X27248Y24173D01*
X27748D01*
X26249Y23173D02*
X26582D01*
X26748Y23340D01*
Y23673D01*
X26582Y23840D01*
X26249D01*
X26082Y23673D01*
Y23506D01*
X26748D01*
X25749Y23173D02*
X25249D01*
X25082Y23340D01*
X25249Y23506D01*
X25582D01*
X25749Y23673D01*
X25582Y23840D01*
X25082D01*
X24749Y23173D02*
X24416D01*
X24582D01*
Y23840D01*
X24749D01*
X23583Y22840D02*
X23416D01*
X23250Y23007D01*
Y23840D01*
X23749D01*
X23916Y23673D01*
Y23340D01*
X23749Y23173D01*
X23250D01*
X22916D02*
Y23840D01*
X22417D01*
X22250Y23673D01*
Y23173D01*
X21417D02*
X21750D01*
X21917Y23340D01*
Y23673D01*
X21750Y23840D01*
X21417D01*
X21250Y23673D01*
Y23506D01*
X21917D01*
X20251Y24173D02*
Y23173D01*
X20750D01*
X20917Y23340D01*
Y23673D01*
X20750Y23840D01*
X20251D01*
X18918Y24173D02*
Y23173D01*
X18418D01*
X18251Y23340D01*
Y23506D01*
Y23673D01*
X18418Y23840D01*
X18918D01*
X17918D02*
Y23340D01*
X17751Y23173D01*
X17252D01*
Y23007D01*
X17418Y22840D01*
X17585D01*
X17252Y23173D02*
Y23840D01*
X30581Y21160D02*
Y22160D01*
X30081D01*
X29914Y21993D01*
Y21660D01*
X30081Y21494D01*
X30581D01*
X30247D02*
X29914Y21160D01*
X29581Y21827D02*
Y21327D01*
X29414Y21160D01*
X28914D01*
Y21827D01*
X28581Y21160D02*
X28081D01*
X27915Y21327D01*
X28081Y21494D01*
X28415D01*
X28581Y21660D01*
X28415Y21827D01*
X27915D01*
X27582Y21160D02*
X27082D01*
X26915Y21327D01*
X27082Y21494D01*
X27415D01*
X27582Y21660D01*
X27415Y21827D01*
X26915D01*
X26082Y21160D02*
X26415D01*
X26582Y21327D01*
Y21660D01*
X26415Y21827D01*
X26082D01*
X25915Y21660D01*
Y21494D01*
X26582D01*
X25582Y21160D02*
X25249D01*
X25416D01*
Y22160D01*
X25582D01*
X24749Y21160D02*
X24416D01*
X24582D01*
Y22160D01*
X24749D01*
X22916Y21160D02*
Y22160D01*
X22583Y21827D01*
X22250Y22160D01*
Y21160D01*
X21750Y21827D02*
X21417D01*
X21250Y21660D01*
Y21160D01*
X21750D01*
X21917Y21327D01*
X21750Y21494D01*
X21250D01*
X20251Y21827D02*
X20750D01*
X20917Y21660D01*
Y21327D01*
X20750Y21160D01*
X20251D01*
X19251Y21993D02*
X19417Y22160D01*
X19751D01*
X19917Y21993D01*
Y21327D01*
X19751Y21160D01*
X19417D01*
X19251Y21327D01*
Y21660D01*
X19584D01*
X18918Y21827D02*
Y21160D01*
Y21494D01*
X18751Y21660D01*
X18584Y21827D01*
X18418D01*
X17418Y21160D02*
X17751D01*
X17918Y21327D01*
Y21660D01*
X17751Y21827D01*
X17418D01*
X17252Y21660D01*
Y21494D01*
X17918D01*
X16585Y20827D02*
X16418D01*
X16252Y20994D01*
Y21827D01*
X16752D01*
X16918Y21660D01*
Y21327D01*
X16752Y21160D01*
X16252D01*
X15752D02*
X15419D01*
X15252Y21327D01*
Y21660D01*
X15419Y21827D01*
X15752D01*
X15919Y21660D01*
Y21327D01*
X15752Y21160D01*
X14919Y21827D02*
Y21160D01*
Y21494D01*
X14752Y21660D01*
X14586Y21827D01*
X14419D01*
D26*
X36492Y3108D02*
X37000Y2600D01*
X35300D02*
X37000D01*
X36492Y2100D02*
X37000Y2608D01*
X26125Y38424D02*
Y45674D01*
X26125D02*
X26633Y45166D01*
X25625D02*
X26133Y45674D01*
X18875Y38424D02*
X26125D01*
X18875Y38424D02*
X19383Y38932D01*
X18875Y38432D02*
X19383Y37924D01*
D29*
X34750Y2000D02*
Y3200D01*
X34350Y2800D01*
X33950Y3200D01*
Y2000D01*
X33550Y3000D02*
X33350Y3200D01*
X32951D01*
X32751Y3000D01*
Y2800D01*
X32951Y2600D01*
X33151D01*
X32951D01*
X32751Y2400D01*
Y2200D01*
X32951Y2000D01*
X33350D01*
X33550Y2200D01*
X28075Y39550D02*
X27875Y39150D01*
X27475Y38750D01*
X27075D01*
X26875Y38950D01*
Y39350D01*
X27075Y39550D01*
X27275D01*
X27475Y39350D01*
Y38750D01*
X28075Y39950D02*
Y40749D01*
X27875D01*
X27075Y39950D01*
X26875D01*
Y41149D02*
X27675D01*
Y41349D01*
X27475Y41549D01*
X26875D01*
X27475D01*
X27675Y41749D01*
X27475Y41949D01*
X26875D01*
Y42349D02*
X27675D01*
Y42549D01*
X27475Y42749D01*
X26875D01*
X27475D01*
X27675Y42949D01*
X27475Y43149D01*
X26875D01*
X25375Y42174D02*
Y40974D01*
X24775D01*
X24575Y41174D01*
Y41374D01*
X24775Y41574D01*
X25375D01*
X24775D01*
X24575Y41774D01*
Y41974D01*
X24775Y42174D01*
X25375D01*
X23975Y40974D02*
X23576D01*
X23376Y41174D01*
Y41574D01*
X23576Y41774D01*
X23975D01*
X24175Y41574D01*
Y41174D01*
X23975Y40974D01*
X22776Y41774D02*
X22376D01*
X22176Y41574D01*
Y40974D01*
X22776D01*
X22976Y41174D01*
X22776Y41374D01*
X22176D01*
X21776Y41774D02*
Y40974D01*
Y41374D01*
X21576Y41574D01*
X21376Y41774D01*
X21176D01*
X19777Y42174D02*
Y40974D01*
X20377D01*
X20577Y41174D01*
Y41574D01*
X20377Y41774D01*
X19777D01*
X25375Y40374D02*
Y39174D01*
X24775D01*
X24575Y39374D01*
Y40174D01*
X24775Y40374D01*
X25375D01*
X24175Y39174D02*
X23776D01*
X23975D01*
Y39974D01*
X24175D01*
X23176Y39174D02*
Y39974D01*
X22976D01*
X22776Y39774D01*
Y39174D01*
Y39774D01*
X22576Y39974D01*
X22376Y39774D01*
Y39174D01*
X24099Y36724D02*
Y37924D01*
X24699Y37324D01*
X23900D01*
X22700Y37924D02*
X23500D01*
Y37324D01*
X23100Y37524D01*
X22900D01*
X22700Y37324D01*
Y36924D01*
X22900Y36724D01*
X23300D01*
X23500Y36924D01*
X22300Y36724D02*
Y37524D01*
X22100D01*
X21900Y37324D01*
Y36724D01*
Y37324D01*
X21700Y37524D01*
X21500Y37324D01*
Y36724D01*
X21100D02*
Y37524D01*
X20901D01*
X20701Y37324D01*
Y36724D01*
Y37324D01*
X20501Y37524D01*
X20301Y37324D01*
Y36724D01*
X32940Y8050D02*
X33140Y7850D01*
Y7450D01*
X32940Y7250D01*
X32740D01*
X32540Y7450D01*
Y7850D01*
X32340Y8050D01*
X32140D01*
X31940Y7850D01*
Y7450D01*
X32140Y7250D01*
X33140Y8450D02*
X31940D01*
Y9049D01*
X32140Y9249D01*
X32940D01*
X33140Y9049D01*
Y8450D01*
X31940Y9649D02*
X32740D01*
X33140Y10049D01*
X32740Y10449D01*
X31940D01*
X32540D01*
Y9649D01*
X30400Y8050D02*
X30600Y7850D01*
Y7450D01*
X30400Y7250D01*
X30200D01*
X30000Y7450D01*
Y7850D01*
X29800Y8050D01*
X29600D01*
X29400Y7850D01*
Y7450D01*
X29600Y7250D01*
X30400Y9249D02*
X30600Y9049D01*
Y8650D01*
X30400Y8450D01*
X29600D01*
X29400Y8650D01*
Y9049D01*
X29600Y9249D01*
X30600Y9649D02*
X29400D01*
Y10449D01*
X27860Y8050D02*
X28060Y7850D01*
Y7450D01*
X27860Y7250D01*
X27060D01*
X26860Y7450D01*
Y7850D01*
X27060Y8050D01*
X27460D01*
Y7650D01*
X26860Y8450D02*
X28060D01*
X26860Y9249D01*
X28060D01*
Y9649D02*
X26860D01*
Y10249D01*
X27060Y10449D01*
X27860D01*
X28060Y10249D01*
Y9649D01*
X12500Y7250D02*
Y8050D01*
X12900Y7650D02*
X12100D01*
X13100Y9249D02*
Y8450D01*
X12500D01*
X12700Y8849D01*
Y9049D01*
X12500Y9249D01*
X12100D01*
X11900Y9049D01*
Y8650D01*
X12100Y8450D01*
X13100Y9649D02*
X12300D01*
X11900Y10049D01*
X12300Y10449D01*
X13100D01*
X17980Y8050D02*
X18180Y7850D01*
Y7450D01*
X17980Y7250D01*
X17180D01*
X16980Y7450D01*
Y7850D01*
X17180Y8050D01*
X17580D01*
Y7650D01*
X16980Y8450D02*
X18180D01*
X16980Y9249D01*
X18180D01*
Y9649D02*
X16980D01*
Y10249D01*
X17180Y10449D01*
X17980D01*
X18180Y10249D01*
Y9649D01*
%TF.MD5,05589789c09e7456e73059009bcaba69*%
M02*
