%TF.GenerationSoftware,Altium Limited,Altium Designer,25.2.1 (25)*%
G04 Layer_Color=255*
%FSLAX43Y43*%
%MOMM*%
%TF.SameCoordinates,BEECB501-CD99-4A52-AAD6-2C5E1F68F19C*%
%TF.FilePolarity,Positive*%
%TF.FileFunction,Pads,Top*%
%TF.Part,Single*%
G01*
G75*
%TA.AperFunction,SMDPad,CuDef*%
%ADD11R,1.250X0.600*%
%ADD12R,2.150X2.250*%
G04:AMPARAMS|DCode=13|XSize=1.25mm|YSize=0.6mm|CornerRadius=0.06mm|HoleSize=0mm|Usage=FLASHONLY|Rotation=270.000|XOffset=0mm|YOffset=0mm|HoleType=Round|Shape=RoundedRectangle|*
%AMROUNDEDRECTD13*
21,1,1.250,0.480,0,0,270.0*
21,1,1.130,0.600,0,0,270.0*
1,1,0.120,-0.240,-0.565*
1,1,0.120,-0.240,0.565*
1,1,0.120,0.240,0.565*
1,1,0.120,0.240,-0.565*
%
%ADD13ROUNDEDRECTD13*%
%ADD14R,0.650X0.700*%
%TA.AperFunction,ComponentPad*%
%ADD18C,6.000*%
%ADD19C,2.500*%
%ADD20C,1.725*%
%ADD21C,1.524*%
%ADD22C,3.000*%
D11*
X4500Y55900D02*
D03*
Y54100D02*
D03*
D12*
Y16200D02*
D03*
Y11800D02*
D03*
D13*
X39100Y34000D02*
D03*
X40900D02*
D03*
X39100Y32000D02*
D03*
X40900D02*
D03*
X39100Y30000D02*
D03*
X40900D02*
D03*
X39100Y22000D02*
D03*
X40900D02*
D03*
D14*
X40675Y40000D02*
D03*
X39325D02*
D03*
X40675Y38500D02*
D03*
X39325D02*
D03*
X40675Y37000D02*
D03*
X39325D02*
D03*
X39325Y20250D02*
D03*
X40675D02*
D03*
D18*
X4500Y62500D02*
D03*
X40500D02*
D03*
X4500Y4500D02*
D03*
X40500D02*
D03*
D19*
X17580D02*
D03*
X12500D02*
D03*
D20*
X27460Y5500D02*
D03*
X30000D02*
D03*
X32540D02*
D03*
D21*
X9800Y28520D02*
D03*
Y25980D02*
D03*
Y59000D02*
D03*
Y56460D02*
D03*
Y53920D02*
D03*
Y51380D02*
D03*
Y48840D02*
D03*
Y46300D02*
D03*
Y43760D02*
D03*
Y41220D02*
D03*
Y38680D02*
D03*
Y36140D02*
D03*
Y33600D02*
D03*
Y31060D02*
D03*
Y23440D02*
D03*
X35200Y51380D02*
D03*
Y48840D02*
D03*
Y46300D02*
D03*
Y43760D02*
D03*
Y41220D02*
D03*
Y38680D02*
D03*
Y36140D02*
D03*
Y33600D02*
D03*
Y31060D02*
D03*
Y28520D02*
D03*
Y25980D02*
D03*
Y23440D02*
D03*
Y59000D02*
D03*
Y53920D02*
D03*
Y56460D02*
D03*
D22*
X10270Y15480D02*
D03*
Y62430D02*
D03*
X34780Y15480D02*
D03*
Y62430D02*
D03*
%TF.MD5,40dd23f3378e5bab02006cb68d86aa92*%
M02*
