%TF.GenerationSoftware,Altium Limited,Altium Designer,25.2.1 (25)*%
G04 Layer_Color=32768*
%FSLAX43Y43*%
%MOMM*%
%TF.SameCoordinates,BEECB501-CD99-4A52-AAD6-2C5E1F68F19C*%
%TF.FilePolarity,Positive*%
%TF.FileFunction,Other,Mechanical_15*%
%TF.Part,Single*%
G01*
G75*
%TA.AperFunction,NonConductor*%
%ADD27C,0.100*%
%ADD41C,0.050*%
D27*
X8000Y62500D02*
G03*
X8000Y62500I-3500J0D01*
G01*
X44000D02*
G03*
X44000Y62500I-3500J0D01*
G01*
X8000Y4500D02*
G03*
X8000Y4500I-3500J0D01*
G01*
X44000D02*
G03*
X44000Y4500I-3500J0D01*
G01*
X3600Y53550D02*
X5400D01*
X3600Y56450D02*
X5400D01*
X3600Y53550D02*
Y56450D01*
X5400Y53550D02*
Y56450D01*
X9400Y750D02*
Y8900D01*
X20400Y750D02*
Y8900D01*
X9400Y750D02*
X20400D01*
X9400Y8900D02*
X20400D01*
X24665Y1190D02*
Y8290D01*
X35335Y1190D02*
Y8290D01*
X24665Y1190D02*
X35335D01*
X24665Y8290D02*
X35335D01*
X38550Y34900D02*
X41450D01*
X38550Y33100D02*
X41450D01*
X38550D02*
Y34900D01*
X41450Y33100D02*
Y34900D01*
X38775Y39400D02*
X41225D01*
X38775D02*
Y40600D01*
X41225D01*
Y39400D02*
Y40600D01*
X8000Y65250D02*
X37000D01*
X8000Y12005D02*
Y65250D01*
Y12005D02*
X37000D01*
Y65250D01*
X38550Y32900D02*
X41450D01*
X38550Y31100D02*
X41450D01*
X38550D02*
Y32900D01*
X41450Y31100D02*
Y32900D01*
X38775Y37900D02*
X41225D01*
X38775D02*
Y39100D01*
X41225D01*
Y37900D02*
Y39100D01*
X38550Y30900D02*
X41450D01*
X38550Y29100D02*
X41450D01*
X38550D02*
Y30900D01*
X41450Y29100D02*
Y30900D01*
X38775Y36400D02*
X41225D01*
X38775D02*
Y37600D01*
X41225D01*
Y36400D02*
Y37600D01*
X38550Y22900D02*
X41450D01*
X38550Y21100D02*
X41450D01*
X38550D02*
Y22900D01*
X41450Y21100D02*
Y22900D01*
X38775Y20850D02*
X41225D01*
Y19650D02*
Y20850D01*
X38775Y19650D02*
X41225D01*
X38775D02*
Y20850D01*
D41*
X6720Y10425D02*
Y17575D01*
X2280Y10425D02*
X6720D01*
X2280D02*
Y17575D01*
X6720D01*
%TF.MD5,a09003529ea17bc129491dc3af2b1eef*%
M02*
