%TF.GenerationSoftware,Altium Limited,Altium Designer,25.2.1 (25)*%
G04 Layer_Physical_Order=2*
G04 Layer_Color=36540*
%FSLAX43Y43*%
%MOMM*%
%TF.SameCoordinates,BEECB501-CD99-4A52-AAD6-2C5E1F68F19C*%
%TF.FilePolarity,Positive*%
%TF.FileFunction,Copper,L2,Inr,Signal*%
%TF.Part,Single*%
G01*
G75*
%TA.AperFunction,ComponentPad*%
%ADD18C,6.000*%
%ADD19C,2.500*%
%ADD20C,1.725*%
%ADD21C,1.524*%
%ADD22C,3.000*%
%TA.AperFunction,ViaPad*%
%ADD23C,0.700*%
G36*
X41141Y66549D02*
X41767Y66399D01*
X42361Y66153D01*
X42910Y65817D01*
X43399Y65399D01*
X43817Y64910D01*
X44153Y64361D01*
X44399Y63767D01*
X44549Y63141D01*
X44598Y62528D01*
X44592Y62500D01*
Y4500D01*
X44598Y4472D01*
X44549Y3859D01*
X44399Y3233D01*
X44153Y2639D01*
X43817Y2090D01*
X43399Y1601D01*
X42910Y1183D01*
X42361Y847D01*
X41767Y601D01*
X41141Y451D01*
X40528Y402D01*
X40500Y408D01*
X4500D01*
X4472Y402D01*
X3859Y451D01*
X3233Y601D01*
X2639Y847D01*
X2090Y1183D01*
X1601Y1601D01*
X1183Y2090D01*
X847Y2639D01*
X601Y3233D01*
X451Y3859D01*
X402Y4472D01*
X408Y4500D01*
Y62500D01*
X402Y62528D01*
X451Y63141D01*
X601Y63767D01*
X847Y64361D01*
X1183Y64910D01*
X1601Y65399D01*
X2090Y65817D01*
X2639Y66153D01*
X3233Y66399D01*
X3859Y66549D01*
X4472Y66598D01*
X4500Y66592D01*
X40500D01*
X40528Y66598D01*
X41141Y66549D01*
D02*
G37*
%LPC*%
G36*
X34957Y64230D02*
X34603D01*
X34255Y64161D01*
X33927Y64025D01*
X33633Y63828D01*
X33382Y63577D01*
X33185Y63283D01*
X33049Y62955D01*
X32980Y62607D01*
Y62253D01*
X33049Y61905D01*
X33185Y61577D01*
X33382Y61283D01*
X33633Y61032D01*
X33927Y60835D01*
X34255Y60699D01*
X34603Y60630D01*
X34957D01*
X35305Y60699D01*
X35633Y60835D01*
X35927Y61032D01*
X36178Y61283D01*
X36375Y61577D01*
X36511Y61905D01*
X36580Y62253D01*
Y62607D01*
X36511Y62955D01*
X36375Y63283D01*
X36178Y63577D01*
X35927Y63828D01*
X35633Y64025D01*
X35305Y64161D01*
X34957Y64230D01*
D02*
G37*
G36*
X10447D02*
X10093D01*
X9745Y64161D01*
X9417Y64025D01*
X9123Y63828D01*
X8872Y63577D01*
X8675Y63283D01*
X8539Y62955D01*
X8470Y62607D01*
Y62253D01*
X8539Y61905D01*
X8675Y61577D01*
X8872Y61283D01*
X9123Y61032D01*
X9417Y60835D01*
X9745Y60699D01*
X10093Y60630D01*
X10447D01*
X10795Y60699D01*
X11123Y60835D01*
X11417Y61032D01*
X11668Y61283D01*
X11865Y61577D01*
X12001Y61905D01*
X12070Y62253D01*
Y62607D01*
X12001Y62955D01*
X11865Y63283D01*
X11668Y63577D01*
X11417Y63828D01*
X11123Y64025D01*
X10795Y64161D01*
X10447Y64230D01*
D02*
G37*
G36*
X40760Y65800D02*
X40240D01*
X39727Y65719D01*
X39233Y65558D01*
X38770Y65322D01*
X38350Y65017D01*
X37983Y64650D01*
X37678Y64230D01*
X37442Y63767D01*
X37281Y63273D01*
X37200Y62760D01*
Y62240D01*
X37281Y61727D01*
X37442Y61233D01*
X37678Y60770D01*
X37983Y60350D01*
X38350Y59983D01*
X38770Y59678D01*
X39233Y59442D01*
X39727Y59281D01*
X40240Y59200D01*
X40760D01*
X41273Y59281D01*
X41767Y59442D01*
X42230Y59678D01*
X42650Y59983D01*
X43017Y60350D01*
X43322Y60770D01*
X43558Y61233D01*
X43719Y61727D01*
X43800Y62240D01*
Y62760D01*
X43719Y63273D01*
X43558Y63767D01*
X43322Y64230D01*
X43017Y64650D01*
X42650Y65017D01*
X42230Y65322D01*
X41767Y65558D01*
X41273Y65719D01*
X40760Y65800D01*
D02*
G37*
G36*
X4760D02*
X4240D01*
X3727Y65719D01*
X3233Y65558D01*
X2770Y65322D01*
X2350Y65017D01*
X1983Y64650D01*
X1678Y64230D01*
X1442Y63767D01*
X1281Y63273D01*
X1200Y62760D01*
Y62240D01*
X1281Y61727D01*
X1442Y61233D01*
X1678Y60770D01*
X1983Y60350D01*
X2350Y59983D01*
X2770Y59678D01*
X3233Y59442D01*
X3727Y59281D01*
X4240Y59200D01*
X4760D01*
X5273Y59281D01*
X5767Y59442D01*
X6230Y59678D01*
X6650Y59983D01*
X7017Y60350D01*
X7322Y60770D01*
X7558Y61233D01*
X7719Y61727D01*
X7800Y62240D01*
Y62760D01*
X7719Y63273D01*
X7558Y63767D01*
X7322Y64230D01*
X7017Y64650D01*
X6650Y65017D01*
X6230Y65322D01*
X5767Y65558D01*
X5273Y65719D01*
X4760Y65800D01*
D02*
G37*
G36*
X35340Y60062D02*
X35060D01*
X34790Y59990D01*
X34548Y59850D01*
X34350Y59652D01*
X34210Y59410D01*
X34138Y59140D01*
Y58860D01*
X34210Y58590D01*
X34350Y58348D01*
X34548Y58150D01*
X34790Y58010D01*
X35060Y57938D01*
X35340D01*
X35610Y58010D01*
X35852Y58150D01*
X36050Y58348D01*
X36190Y58590D01*
X36262Y58860D01*
Y59140D01*
X36190Y59410D01*
X36050Y59652D01*
X35852Y59850D01*
X35610Y59990D01*
X35340Y60062D01*
D02*
G37*
G36*
X9940D02*
X9660D01*
X9390Y59990D01*
X9148Y59850D01*
X8950Y59652D01*
X8810Y59410D01*
X8738Y59140D01*
Y58860D01*
X8810Y58590D01*
X8950Y58348D01*
X9148Y58150D01*
X9390Y58010D01*
X9660Y57938D01*
X9940D01*
X10210Y58010D01*
X10452Y58150D01*
X10650Y58348D01*
X10790Y58590D01*
X10862Y58860D01*
Y59140D01*
X10790Y59410D01*
X10650Y59652D01*
X10452Y59850D01*
X10210Y59990D01*
X9940Y60062D01*
D02*
G37*
G36*
X35340Y57522D02*
X35060D01*
X34790Y57450D01*
X34548Y57310D01*
X34350Y57112D01*
X34210Y56870D01*
X34138Y56600D01*
Y56320D01*
X34210Y56050D01*
X34350Y55808D01*
X34548Y55610D01*
X34790Y55470D01*
X35060Y55398D01*
X35340D01*
X35610Y55470D01*
X35852Y55610D01*
X36050Y55808D01*
X36190Y56050D01*
X36262Y56320D01*
Y56600D01*
X36190Y56870D01*
X36050Y57112D01*
X35852Y57310D01*
X35610Y57450D01*
X35340Y57522D01*
D02*
G37*
G36*
X9940D02*
X9660D01*
X9390Y57450D01*
X9148Y57310D01*
X8950Y57112D01*
X8810Y56870D01*
X8738Y56600D01*
Y56320D01*
X8810Y56050D01*
X8950Y55808D01*
X9148Y55610D01*
X9390Y55470D01*
X9660Y55398D01*
X9940D01*
X10210Y55470D01*
X10452Y55610D01*
X10650Y55808D01*
X10790Y56050D01*
X10862Y56320D01*
Y56600D01*
X10790Y56870D01*
X10650Y57112D01*
X10452Y57310D01*
X10210Y57450D01*
X9940Y57522D01*
D02*
G37*
G36*
X35340Y54982D02*
X35060D01*
X34790Y54910D01*
X34548Y54770D01*
X34350Y54572D01*
X34210Y54330D01*
X34138Y54060D01*
Y53780D01*
X34210Y53510D01*
X34350Y53268D01*
X34548Y53070D01*
X34790Y52930D01*
X35060Y52858D01*
X35340D01*
X35610Y52930D01*
X35852Y53070D01*
X36050Y53268D01*
X36190Y53510D01*
X36262Y53780D01*
Y54060D01*
X36190Y54330D01*
X36050Y54572D01*
X35852Y54770D01*
X35610Y54910D01*
X35340Y54982D01*
D02*
G37*
G36*
X9940D02*
X9660D01*
X9390Y54910D01*
X9148Y54770D01*
X8950Y54572D01*
X8810Y54330D01*
X8738Y54060D01*
Y53780D01*
X8810Y53510D01*
X8950Y53268D01*
X9148Y53070D01*
X9390Y52930D01*
X9660Y52858D01*
X9940D01*
X10210Y52930D01*
X10452Y53070D01*
X10650Y53268D01*
X10790Y53510D01*
X10862Y53780D01*
Y54060D01*
X10790Y54330D01*
X10650Y54572D01*
X10452Y54770D01*
X10210Y54910D01*
X9940Y54982D01*
D02*
G37*
G36*
X35340Y52442D02*
X35060D01*
X34790Y52370D01*
X34548Y52230D01*
X34350Y52032D01*
X34210Y51790D01*
X34138Y51520D01*
Y51240D01*
X34210Y50970D01*
X34350Y50728D01*
X34548Y50530D01*
X34790Y50390D01*
X35060Y50318D01*
X35340D01*
X35610Y50390D01*
X35852Y50530D01*
X36050Y50728D01*
X36190Y50970D01*
X36262Y51240D01*
Y51520D01*
X36190Y51790D01*
X36050Y52032D01*
X35852Y52230D01*
X35610Y52370D01*
X35340Y52442D01*
D02*
G37*
G36*
X9940D02*
X9660D01*
X9390Y52370D01*
X9148Y52230D01*
X8950Y52032D01*
X8810Y51790D01*
X8738Y51520D01*
Y51240D01*
X8810Y50970D01*
X8950Y50728D01*
X9148Y50530D01*
X9390Y50390D01*
X9660Y50318D01*
X9940D01*
X10210Y50390D01*
X10452Y50530D01*
X10650Y50728D01*
X10790Y50970D01*
X10862Y51240D01*
Y51520D01*
X10790Y51790D01*
X10650Y52032D01*
X10452Y52230D01*
X10210Y52370D01*
X9940Y52442D01*
D02*
G37*
G36*
X35340Y49902D02*
X35060D01*
X34790Y49830D01*
X34548Y49690D01*
X34350Y49492D01*
X34210Y49250D01*
X34138Y48980D01*
Y48700D01*
X34210Y48430D01*
X34350Y48188D01*
X34548Y47990D01*
X34790Y47850D01*
X35060Y47778D01*
X35340D01*
X35610Y47850D01*
X35852Y47990D01*
X36050Y48188D01*
X36190Y48430D01*
X36262Y48700D01*
Y48980D01*
X36190Y49250D01*
X36050Y49492D01*
X35852Y49690D01*
X35610Y49830D01*
X35340Y49902D01*
D02*
G37*
G36*
X9940D02*
X9660D01*
X9390Y49830D01*
X9148Y49690D01*
X8950Y49492D01*
X8810Y49250D01*
X8738Y48980D01*
Y48700D01*
X8810Y48430D01*
X8950Y48188D01*
X9148Y47990D01*
X9390Y47850D01*
X9660Y47778D01*
X9940D01*
X10210Y47850D01*
X10452Y47990D01*
X10650Y48188D01*
X10790Y48430D01*
X10862Y48700D01*
Y48980D01*
X10790Y49250D01*
X10650Y49492D01*
X10452Y49690D01*
X10210Y49830D01*
X9940Y49902D01*
D02*
G37*
G36*
X35340Y47362D02*
X35060D01*
X34790Y47290D01*
X34548Y47150D01*
X34350Y46952D01*
X34210Y46710D01*
X34138Y46440D01*
Y46160D01*
X34210Y45890D01*
X34350Y45648D01*
X34548Y45450D01*
X34790Y45310D01*
X35060Y45238D01*
X35340D01*
X35610Y45310D01*
X35852Y45450D01*
X36050Y45648D01*
X36190Y45890D01*
X36262Y46160D01*
Y46440D01*
X36190Y46710D01*
X36050Y46952D01*
X35852Y47150D01*
X35610Y47290D01*
X35340Y47362D01*
D02*
G37*
G36*
X9940D02*
X9660D01*
X9390Y47290D01*
X9148Y47150D01*
X8950Y46952D01*
X8810Y46710D01*
X8738Y46440D01*
Y46160D01*
X8810Y45890D01*
X8950Y45648D01*
X9148Y45450D01*
X9390Y45310D01*
X9660Y45238D01*
X9940D01*
X10210Y45310D01*
X10452Y45450D01*
X10650Y45648D01*
X10790Y45890D01*
X10862Y46160D01*
Y46440D01*
X10790Y46710D01*
X10650Y46952D01*
X10452Y47150D01*
X10210Y47290D01*
X9940Y47362D01*
D02*
G37*
G36*
X35340Y44822D02*
X35060D01*
X34790Y44750D01*
X34548Y44610D01*
X34350Y44412D01*
X34210Y44170D01*
X34138Y43900D01*
Y43620D01*
X34210Y43350D01*
X34350Y43108D01*
X34548Y42910D01*
X34790Y42770D01*
X35060Y42698D01*
X35340D01*
X35610Y42770D01*
X35852Y42910D01*
X36050Y43108D01*
X36190Y43350D01*
X36262Y43620D01*
Y43900D01*
X36190Y44170D01*
X36050Y44412D01*
X35852Y44610D01*
X35610Y44750D01*
X35340Y44822D01*
D02*
G37*
G36*
X9940D02*
X9660D01*
X9390Y44750D01*
X9148Y44610D01*
X8950Y44412D01*
X8810Y44170D01*
X8738Y43900D01*
Y43620D01*
X8810Y43350D01*
X8950Y43108D01*
X9148Y42910D01*
X9390Y42770D01*
X9660Y42698D01*
X9940D01*
X10210Y42770D01*
X10452Y42910D01*
X10650Y43108D01*
X10790Y43350D01*
X10862Y43620D01*
Y43900D01*
X10790Y44170D01*
X10650Y44412D01*
X10452Y44610D01*
X10210Y44750D01*
X9940Y44822D01*
D02*
G37*
G36*
X35340Y42282D02*
X35060D01*
X34790Y42210D01*
X34548Y42070D01*
X34350Y41872D01*
X34210Y41630D01*
X34138Y41360D01*
Y41080D01*
X34210Y40810D01*
X34350Y40568D01*
X34548Y40370D01*
X34790Y40230D01*
X35060Y40158D01*
X35340D01*
X35610Y40230D01*
X35852Y40370D01*
X36050Y40568D01*
X36190Y40810D01*
X36262Y41080D01*
Y41360D01*
X36190Y41630D01*
X36050Y41872D01*
X35852Y42070D01*
X35610Y42210D01*
X35340Y42282D01*
D02*
G37*
G36*
X9940D02*
X9660D01*
X9390Y42210D01*
X9148Y42070D01*
X8950Y41872D01*
X8810Y41630D01*
X8738Y41360D01*
Y41080D01*
X8810Y40810D01*
X8950Y40568D01*
X9148Y40370D01*
X9390Y40230D01*
X9660Y40158D01*
X9940D01*
X10210Y40230D01*
X10452Y40370D01*
X10650Y40568D01*
X10790Y40810D01*
X10862Y41080D01*
Y41360D01*
X10790Y41630D01*
X10650Y41872D01*
X10452Y42070D01*
X10210Y42210D01*
X9940Y42282D01*
D02*
G37*
G36*
X35340Y39742D02*
X35060D01*
X34790Y39670D01*
X34548Y39530D01*
X34350Y39332D01*
X34210Y39090D01*
X34138Y38820D01*
Y38540D01*
X34210Y38270D01*
X34350Y38028D01*
X34548Y37830D01*
X34790Y37690D01*
X35060Y37618D01*
X35340D01*
X35610Y37690D01*
X35852Y37830D01*
X36050Y38028D01*
X36190Y38270D01*
X36262Y38540D01*
Y38820D01*
X36190Y39090D01*
X36050Y39332D01*
X35852Y39530D01*
X35610Y39670D01*
X35340Y39742D01*
D02*
G37*
G36*
X9940D02*
X9660D01*
X9390Y39670D01*
X9148Y39530D01*
X8950Y39332D01*
X8810Y39090D01*
X8738Y38820D01*
Y38540D01*
X8810Y38270D01*
X8950Y38028D01*
X9148Y37830D01*
X9390Y37690D01*
X9660Y37618D01*
X9940D01*
X10210Y37690D01*
X10452Y37830D01*
X10650Y38028D01*
X10790Y38270D01*
X10862Y38540D01*
Y38820D01*
X10790Y39090D01*
X10650Y39332D01*
X10452Y39530D01*
X10210Y39670D01*
X9940Y39742D01*
D02*
G37*
G36*
X35340Y37202D02*
X35060D01*
X34790Y37130D01*
X34548Y36990D01*
X34350Y36792D01*
X34210Y36550D01*
X34138Y36280D01*
Y36000D01*
X34210Y35730D01*
X34350Y35488D01*
X34548Y35290D01*
X34790Y35150D01*
X35060Y35078D01*
X35340D01*
X35610Y35150D01*
X35852Y35290D01*
X36050Y35488D01*
X36190Y35730D01*
X36262Y36000D01*
Y36280D01*
X36190Y36550D01*
X36050Y36792D01*
X35852Y36990D01*
X35610Y37130D01*
X35340Y37202D01*
D02*
G37*
G36*
X9940D02*
X9660D01*
X9390Y37130D01*
X9148Y36990D01*
X8950Y36792D01*
X8810Y36550D01*
X8738Y36280D01*
Y36000D01*
X8810Y35730D01*
X8950Y35488D01*
X9148Y35290D01*
X9390Y35150D01*
X9660Y35078D01*
X9940D01*
X10210Y35150D01*
X10452Y35290D01*
X10650Y35488D01*
X10790Y35730D01*
X10862Y36000D01*
Y36280D01*
X10790Y36550D01*
X10650Y36792D01*
X10452Y36990D01*
X10210Y37130D01*
X9940Y37202D01*
D02*
G37*
G36*
X35340Y34662D02*
X35060D01*
X34790Y34590D01*
X34548Y34450D01*
X34350Y34252D01*
X34210Y34010D01*
X34138Y33740D01*
Y33460D01*
X34210Y33190D01*
X34350Y32948D01*
X34548Y32750D01*
X34790Y32610D01*
X35060Y32538D01*
X35340D01*
X35610Y32610D01*
X35852Y32750D01*
X36050Y32948D01*
X36190Y33190D01*
X36262Y33460D01*
Y33740D01*
X36190Y34010D01*
X36050Y34252D01*
X35852Y34450D01*
X35610Y34590D01*
X35340Y34662D01*
D02*
G37*
G36*
X9940D02*
X9660D01*
X9390Y34590D01*
X9148Y34450D01*
X8950Y34252D01*
X8810Y34010D01*
X8738Y33740D01*
Y33460D01*
X8810Y33190D01*
X8950Y32948D01*
X9148Y32750D01*
X9390Y32610D01*
X9660Y32538D01*
X9940D01*
X10210Y32610D01*
X10452Y32750D01*
X10650Y32948D01*
X10790Y33190D01*
X10862Y33460D01*
Y33740D01*
X10790Y34010D01*
X10650Y34252D01*
X10452Y34450D01*
X10210Y34590D01*
X9940Y34662D01*
D02*
G37*
G36*
X35340Y32122D02*
X35060D01*
X34790Y32050D01*
X34548Y31910D01*
X34350Y31712D01*
X34210Y31470D01*
X34138Y31200D01*
Y30920D01*
X34210Y30650D01*
X34350Y30408D01*
X34548Y30210D01*
X34790Y30070D01*
X35060Y29998D01*
X35340D01*
X35610Y30070D01*
X35852Y30210D01*
X36050Y30408D01*
X36190Y30650D01*
X36262Y30920D01*
Y31200D01*
X36190Y31470D01*
X36050Y31712D01*
X35852Y31910D01*
X35610Y32050D01*
X35340Y32122D01*
D02*
G37*
G36*
X9940D02*
X9660D01*
X9390Y32050D01*
X9148Y31910D01*
X8950Y31712D01*
X8810Y31470D01*
X8738Y31200D01*
Y30920D01*
X8810Y30650D01*
X8950Y30408D01*
X9148Y30210D01*
X9390Y30070D01*
X9660Y29998D01*
X9940D01*
X10210Y30070D01*
X10452Y30210D01*
X10650Y30408D01*
X10790Y30650D01*
X10862Y30920D01*
Y31200D01*
X10790Y31470D01*
X10650Y31712D01*
X10452Y31910D01*
X10210Y32050D01*
X9940Y32122D01*
D02*
G37*
G36*
X35340Y29582D02*
X35060D01*
X34790Y29510D01*
X34548Y29370D01*
X34350Y29172D01*
X34210Y28930D01*
X34138Y28660D01*
Y28380D01*
X34210Y28110D01*
X34350Y27868D01*
X34548Y27670D01*
X34790Y27530D01*
X35060Y27458D01*
X35340D01*
X35610Y27530D01*
X35852Y27670D01*
X36050Y27868D01*
X36190Y28110D01*
X36262Y28380D01*
Y28660D01*
X36190Y28930D01*
X36050Y29172D01*
X35852Y29370D01*
X35610Y29510D01*
X35340Y29582D01*
D02*
G37*
G36*
X9940D02*
X9660D01*
X9390Y29510D01*
X9148Y29370D01*
X8950Y29172D01*
X8810Y28930D01*
X8738Y28660D01*
Y28380D01*
X8810Y28110D01*
X8950Y27868D01*
X9148Y27670D01*
X9390Y27530D01*
X9660Y27458D01*
X9940D01*
X10210Y27530D01*
X10452Y27670D01*
X10650Y27868D01*
X10790Y28110D01*
X10862Y28380D01*
Y28660D01*
X10790Y28930D01*
X10650Y29172D01*
X10452Y29370D01*
X10210Y29510D01*
X9940Y29582D01*
D02*
G37*
G36*
X35340Y24502D02*
X35060D01*
X34790Y24430D01*
X34548Y24290D01*
X34350Y24092D01*
X34210Y23850D01*
X34138Y23580D01*
Y23300D01*
X34210Y23030D01*
X34350Y22788D01*
X34548Y22590D01*
X34790Y22450D01*
X35060Y22378D01*
X35340D01*
X35610Y22450D01*
X35852Y22590D01*
X36050Y22788D01*
X36190Y23030D01*
X36262Y23300D01*
Y23580D01*
X36190Y23850D01*
X36050Y24092D01*
X35852Y24290D01*
X35610Y24430D01*
X35340Y24502D01*
D02*
G37*
G36*
X9940D02*
X9660D01*
X9390Y24430D01*
X9148Y24290D01*
X8950Y24092D01*
X8810Y23850D01*
X8738Y23580D01*
Y23300D01*
X8810Y23030D01*
X8950Y22788D01*
X9148Y22590D01*
X9390Y22450D01*
X9660Y22378D01*
X9940D01*
X10210Y22450D01*
X10452Y22590D01*
X10650Y22788D01*
X10790Y23030D01*
X10862Y23300D01*
Y23580D01*
X10790Y23850D01*
X10650Y24092D01*
X10452Y24290D01*
X10210Y24430D01*
X9940Y24502D01*
D02*
G37*
G36*
X40836Y19650D02*
X40664D01*
X40499Y19606D01*
X40351Y19520D01*
X40230Y19399D01*
X40144Y19251D01*
X40100Y19086D01*
Y18914D01*
X40144Y18749D01*
X40230Y18601D01*
X40351Y18480D01*
X40499Y18394D01*
X40664Y18350D01*
X40836D01*
X41001Y18394D01*
X41149Y18480D01*
X41270Y18601D01*
X41356Y18749D01*
X41400Y18914D01*
Y19086D01*
X41356Y19251D01*
X41270Y19399D01*
X41149Y19520D01*
X41001Y19606D01*
X40836Y19650D01*
D02*
G37*
G36*
X4586Y16850D02*
X4414D01*
X4249Y16806D01*
X4101Y16720D01*
X3980Y16599D01*
X3894Y16451D01*
X3850Y16286D01*
Y16114D01*
X3894Y15949D01*
X3980Y15801D01*
X4101Y15680D01*
X4249Y15594D01*
X4414Y15550D01*
X4586D01*
X4751Y15594D01*
X4899Y15680D01*
X5020Y15801D01*
X5106Y15949D01*
X5150Y16114D01*
Y16286D01*
X5106Y16451D01*
X5020Y16599D01*
X4899Y16720D01*
X4751Y16806D01*
X4586Y16850D01*
D02*
G37*
G36*
X34957Y17280D02*
X34603D01*
X34255Y17211D01*
X33927Y17075D01*
X33633Y16878D01*
X33382Y16627D01*
X33185Y16333D01*
X33049Y16005D01*
X32980Y15657D01*
Y15303D01*
X33049Y14955D01*
X33185Y14627D01*
X33382Y14333D01*
X33633Y14082D01*
X33927Y13885D01*
X34255Y13749D01*
X34603Y13680D01*
X34957D01*
X35305Y13749D01*
X35633Y13885D01*
X35927Y14082D01*
X36178Y14333D01*
X36375Y14627D01*
X36511Y14955D01*
X36580Y15303D01*
Y15657D01*
X36511Y16005D01*
X36375Y16333D01*
X36178Y16627D01*
X35927Y16878D01*
X35633Y17075D01*
X35305Y17211D01*
X34957Y17280D01*
D02*
G37*
G36*
X10447D02*
X10093D01*
X9745Y17211D01*
X9417Y17075D01*
X9123Y16878D01*
X8872Y16627D01*
X8675Y16333D01*
X8539Y16005D01*
X8470Y15657D01*
Y15303D01*
X8539Y14955D01*
X8675Y14627D01*
X8872Y14333D01*
X9123Y14082D01*
X9417Y13885D01*
X9745Y13749D01*
X10093Y13680D01*
X10447D01*
X10795Y13749D01*
X11123Y13885D01*
X11417Y14082D01*
X11668Y14333D01*
X11865Y14627D01*
X12001Y14955D01*
X12070Y15303D01*
Y15657D01*
X12001Y16005D01*
X11865Y16333D01*
X11668Y16627D01*
X11417Y16878D01*
X11123Y17075D01*
X10795Y17211D01*
X10447Y17280D01*
D02*
G37*
G36*
X32693Y6662D02*
X32387D01*
X32091Y6583D01*
X31826Y6430D01*
X31610Y6214D01*
X31457Y5949D01*
X31378Y5653D01*
Y5347D01*
X31457Y5051D01*
X31610Y4786D01*
X31826Y4570D01*
X32091Y4417D01*
X32387Y4338D01*
X32693D01*
X32989Y4417D01*
X33254Y4570D01*
X33470Y4786D01*
X33623Y5051D01*
X33702Y5347D01*
Y5653D01*
X33623Y5949D01*
X33470Y6214D01*
X33254Y6430D01*
X32989Y6583D01*
X32693Y6662D01*
D02*
G37*
G36*
X30153D02*
X29847D01*
X29551Y6583D01*
X29286Y6430D01*
X29070Y6214D01*
X28917Y5949D01*
X28837Y5653D01*
Y5347D01*
X28917Y5051D01*
X29070Y4786D01*
X29286Y4570D01*
X29551Y4417D01*
X29847Y4338D01*
X30153D01*
X30449Y4417D01*
X30714Y4570D01*
X30930Y4786D01*
X31083Y5051D01*
X31163Y5347D01*
Y5653D01*
X31083Y5949D01*
X30930Y6214D01*
X30714Y6430D01*
X30449Y6583D01*
X30153Y6662D01*
D02*
G37*
G36*
X12653Y6050D02*
X12347D01*
X12048Y5990D01*
X11766Y5874D01*
X11512Y5704D01*
X11296Y5488D01*
X11126Y5234D01*
X11010Y4952D01*
X10950Y4653D01*
Y4347D01*
X11010Y4048D01*
X11126Y3766D01*
X11296Y3512D01*
X11512Y3296D01*
X11766Y3126D01*
X12048Y3010D01*
X12347Y2950D01*
X12653D01*
X12952Y3010D01*
X13234Y3126D01*
X13488Y3296D01*
X13704Y3512D01*
X13874Y3766D01*
X13990Y4048D01*
X14050Y4347D01*
Y4653D01*
X13990Y4952D01*
X13874Y5234D01*
X13704Y5488D01*
X13488Y5704D01*
X13234Y5874D01*
X12952Y5990D01*
X12653Y6050D01*
D02*
G37*
G36*
X40760Y7800D02*
X40240D01*
X39727Y7719D01*
X39233Y7558D01*
X38770Y7322D01*
X38350Y7017D01*
X37983Y6650D01*
X37678Y6230D01*
X37442Y5767D01*
X37281Y5273D01*
X37200Y4760D01*
Y4240D01*
X37281Y3727D01*
X37442Y3233D01*
X37678Y2770D01*
X37983Y2350D01*
X38350Y1983D01*
X38770Y1678D01*
X39233Y1442D01*
X39727Y1281D01*
X40240Y1200D01*
X40760D01*
X41273Y1281D01*
X41767Y1442D01*
X42230Y1678D01*
X42650Y1983D01*
X43017Y2350D01*
X43322Y2770D01*
X43558Y3233D01*
X43719Y3727D01*
X43800Y4240D01*
Y4760D01*
X43719Y5273D01*
X43558Y5767D01*
X43322Y6230D01*
X43017Y6650D01*
X42650Y7017D01*
X42230Y7322D01*
X41767Y7558D01*
X41273Y7719D01*
X40760Y7800D01*
D02*
G37*
G36*
X4760D02*
X4240D01*
X3727Y7719D01*
X3233Y7558D01*
X2770Y7322D01*
X2350Y7017D01*
X1983Y6650D01*
X1678Y6230D01*
X1442Y5767D01*
X1281Y5273D01*
X1200Y4760D01*
Y4240D01*
X1281Y3727D01*
X1442Y3233D01*
X1678Y2770D01*
X1983Y2350D01*
X2350Y1983D01*
X2770Y1678D01*
X3233Y1442D01*
X3727Y1281D01*
X4240Y1200D01*
X4760D01*
X5273Y1281D01*
X5767Y1442D01*
X6230Y1678D01*
X6650Y1983D01*
X7017Y2350D01*
X7322Y2770D01*
X7558Y3233D01*
X7719Y3727D01*
X7800Y4240D01*
Y4760D01*
X7719Y5273D01*
X7558Y5767D01*
X7322Y6230D01*
X7017Y6650D01*
X6650Y7017D01*
X6230Y7322D01*
X5767Y7558D01*
X5273Y7719D01*
X4760Y7800D01*
D02*
G37*
%LPD*%
D18*
X4500Y62500D02*
D03*
X40500D02*
D03*
X4500Y4500D02*
D03*
X40500D02*
D03*
D19*
X17580D02*
D03*
X12500D02*
D03*
D20*
X27460Y5500D02*
D03*
X30000D02*
D03*
X32540D02*
D03*
D21*
X9800Y28520D02*
D03*
Y25980D02*
D03*
Y59000D02*
D03*
Y56460D02*
D03*
Y53920D02*
D03*
Y51380D02*
D03*
Y48840D02*
D03*
Y46300D02*
D03*
Y43760D02*
D03*
Y41220D02*
D03*
Y38680D02*
D03*
Y36140D02*
D03*
Y33600D02*
D03*
Y31060D02*
D03*
Y23440D02*
D03*
X35200Y51380D02*
D03*
Y48840D02*
D03*
Y46300D02*
D03*
Y43760D02*
D03*
Y41220D02*
D03*
Y38680D02*
D03*
Y36140D02*
D03*
Y33600D02*
D03*
Y31060D02*
D03*
Y28520D02*
D03*
Y25980D02*
D03*
Y23440D02*
D03*
Y59000D02*
D03*
Y53920D02*
D03*
Y56460D02*
D03*
D22*
X10270Y15480D02*
D03*
Y62430D02*
D03*
X34780Y15480D02*
D03*
Y62430D02*
D03*
D23*
X4500Y52750D02*
D03*
X41000Y23750D02*
D03*
X40750Y19000D02*
D03*
X41000Y28250D02*
D03*
X4500Y16200D02*
D03*
%TF.MD5,8f984b5a8a7ab776abbc3ba80b1f244d*%
M02*
