%TF.GenerationSoftware,Altium Limited,Altium Designer,25.2.1 (25)*%
G04 Layer_Color=6809061*
%FSLAX43Y43*%
%MOMM*%
%TF.SameCoordinates,27D013C5-8E9A-4B1D-A81B-7FE8227930E9*%
%TF.FilePolarity,Positive*%
%TF.FileFunction,Legend,Bot*%
%TF.Part,Single*%
G01*
G75*
%TA.AperFunction,NonConductor*%
%ADD24C,0.254*%
%ADD25C,0.200*%
%ADD28C,0.250*%
G36*
X12386Y24682D02*
X14295D01*
Y23728D01*
X14294D01*
Y23727D01*
X13341D01*
Y22773D01*
X14294D01*
Y22771D01*
X14295D01*
Y21818D01*
X15250D01*
Y19909D01*
X14295D01*
Y20864D01*
X13342D01*
Y20865D01*
X13341D01*
Y21818D01*
X12386D01*
Y20865D01*
X12385D01*
Y20864D01*
X11432D01*
Y21818D01*
X8568D01*
Y20864D01*
X9522D01*
Y20862D01*
X9523D01*
Y19909D01*
X8568D01*
Y20864D01*
X7615D01*
Y20865D01*
X7614D01*
Y21818D01*
X6659D01*
Y20865D01*
X6658D01*
Y20864D01*
X5705D01*
Y19909D01*
X4750D01*
Y21818D01*
X5705D01*
Y22771D01*
X5706D01*
Y22773D01*
X6659D01*
Y23727D01*
X5706D01*
Y23728D01*
X5705D01*
Y24682D01*
X4750D01*
Y25368D01*
Y25369D01*
Y25636D01*
X5703D01*
Y25635D01*
X5705D01*
Y24682D01*
X7614D01*
Y22773D01*
X8568D01*
Y24682D01*
X7614D01*
Y26591D01*
X8568D01*
Y25636D01*
X11432D01*
Y26591D01*
X12386D01*
Y24682D01*
D02*
G37*
G36*
X15250D02*
X14295D01*
Y24975D01*
Y24976D01*
Y25635D01*
X14297D01*
Y25636D01*
X15250D01*
Y24682D01*
D02*
G37*
G36*
X11432Y20789D02*
Y20788D01*
Y19909D01*
X10477D01*
Y20862D01*
X10478D01*
Y20864D01*
X11432D01*
Y20789D01*
D02*
G37*
%LPC*%
G36*
X12386Y24682D02*
X11432D01*
Y22773D01*
X12386D01*
Y24682D01*
D02*
G37*
%LPD*%
D24*
X29000Y18750D02*
Y26000D01*
X89050Y36000D02*
X90750D01*
X90242Y35500D02*
X90750Y36008D01*
X90242Y36508D02*
X90750Y36000D01*
X28500Y25492D02*
X29008Y26000D01*
X29000D02*
X29508Y25492D01*
X21750Y18750D02*
X22258Y19258D01*
X21750Y18750D02*
X29000D01*
X21750Y18758D02*
X22258Y18250D01*
D25*
X15248Y19173D02*
Y18173D01*
X14748D01*
X14582Y18340D01*
Y19006D01*
X14748Y19173D01*
X15248D01*
X13749Y18173D02*
X14082D01*
X14249Y18340D01*
Y18673D01*
X14082Y18840D01*
X13749D01*
X13582Y18673D01*
Y18506D01*
X14249D01*
X13249Y18173D02*
X12749D01*
X12583Y18340D01*
X12749Y18506D01*
X13082D01*
X13249Y18673D01*
X13082Y18840D01*
X12583D01*
X12249Y18173D02*
X11916D01*
X12083D01*
Y18840D01*
X12249D01*
X11083Y17840D02*
X10916D01*
X10750Y18007D01*
Y18840D01*
X11250D01*
X11416Y18673D01*
Y18340D01*
X11250Y18173D01*
X10750D01*
X10417D02*
Y18840D01*
X9917D01*
X9750Y18673D01*
Y18173D01*
X8917D02*
X9250D01*
X9417Y18340D01*
Y18673D01*
X9250Y18840D01*
X8917D01*
X8750Y18673D01*
Y18506D01*
X9417D01*
X7751Y19173D02*
Y18173D01*
X8251D01*
X8417Y18340D01*
Y18673D01*
X8251Y18840D01*
X7751D01*
X6418Y19173D02*
Y18173D01*
X5918D01*
X5751Y18340D01*
Y18506D01*
Y18673D01*
X5918Y18840D01*
X6418D01*
X5418D02*
Y18340D01*
X5252Y18173D01*
X4752D01*
Y18007D01*
X4918Y17840D01*
X5085D01*
X4752Y18173D02*
Y18840D01*
X18081Y16160D02*
Y17160D01*
X17581D01*
X17414Y16993D01*
Y16660D01*
X17581Y16494D01*
X18081D01*
X17747D02*
X17414Y16160D01*
X17081Y16827D02*
Y16327D01*
X16914Y16160D01*
X16415D01*
Y16827D01*
X16081Y16160D02*
X15582D01*
X15415Y16327D01*
X15582Y16494D01*
X15915D01*
X16081Y16660D01*
X15915Y16827D01*
X15415D01*
X15082Y16160D02*
X14582D01*
X14415Y16327D01*
X14582Y16494D01*
X14915D01*
X15082Y16660D01*
X14915Y16827D01*
X14415D01*
X13582Y16160D02*
X13915D01*
X14082Y16327D01*
Y16660D01*
X13915Y16827D01*
X13582D01*
X13416Y16660D01*
Y16494D01*
X14082D01*
X13082Y16160D02*
X12749D01*
X12916D01*
Y17160D01*
X13082D01*
X12249Y16160D02*
X11916D01*
X12083D01*
Y17160D01*
X12249D01*
X10417Y16160D02*
Y17160D01*
X10083Y16827D01*
X9750Y17160D01*
Y16160D01*
X9250Y16827D02*
X8917D01*
X8750Y16660D01*
Y16160D01*
X9250D01*
X9417Y16327D01*
X9250Y16494D01*
X8750D01*
X7751Y16827D02*
X8251D01*
X8417Y16660D01*
Y16327D01*
X8251Y16160D01*
X7751D01*
X6751Y16993D02*
X6918Y17160D01*
X7251D01*
X7418Y16993D01*
Y16327D01*
X7251Y16160D01*
X6918D01*
X6751Y16327D01*
Y16660D01*
X7084D01*
X6418Y16827D02*
Y16160D01*
Y16494D01*
X6251Y16660D01*
X6085Y16827D01*
X5918D01*
X4918Y16160D02*
X5252D01*
X5418Y16327D01*
Y16660D01*
X5252Y16827D01*
X4918D01*
X4752Y16660D01*
Y16494D01*
X5418D01*
X4085Y15827D02*
X3919D01*
X3752Y15994D01*
Y16827D01*
X4252D01*
X4418Y16660D01*
Y16327D01*
X4252Y16160D01*
X3752D01*
X3252D02*
X2919D01*
X2752Y16327D01*
Y16660D01*
X2919Y16827D01*
X3252D01*
X3419Y16660D01*
Y16327D01*
X3252Y16160D01*
X2419Y16827D02*
Y16160D01*
Y16494D01*
X2252Y16660D01*
X2086Y16827D01*
X1919D01*
D28*
X88500Y35400D02*
Y36600D01*
X88100Y36200D01*
X87700Y36600D01*
Y35400D01*
X87300Y36400D02*
X87100Y36600D01*
X86701D01*
X86501Y36400D01*
Y36200D01*
X86701Y36000D01*
X86901D01*
X86701D01*
X86501Y35800D01*
Y35600D01*
X86701Y35400D01*
X87100D01*
X87300Y35600D01*
X29750Y19676D02*
X30950D01*
X30350Y19076D01*
Y19876D01*
X30750Y20276D02*
X30950Y20476D01*
Y20875D01*
X30750Y21075D01*
X29950D01*
X29750Y20875D01*
Y20476D01*
X29950Y20276D01*
X30750D01*
X29750Y21475D02*
X29950D01*
Y21675D01*
X29750D01*
Y21475D01*
X30950Y23275D02*
Y22475D01*
X30350D01*
X30550Y22875D01*
Y23075D01*
X30350Y23275D01*
X29950D01*
X29750Y23075D01*
Y22675D01*
X29950Y22475D01*
X29750Y23675D02*
X30550D01*
Y23875D01*
X30350Y24074D01*
X29750D01*
X30350D01*
X30550Y24274D01*
X30350Y24474D01*
X29750D01*
Y24874D02*
X30550D01*
Y25074D01*
X30350Y25274D01*
X29750D01*
X30350D01*
X30550Y25474D01*
X30350Y25674D01*
X29750D01*
X28250Y22500D02*
Y21300D01*
X27650D01*
X27450Y21500D01*
Y21700D01*
X27650Y21900D01*
X28250D01*
X27650D01*
X27450Y22100D01*
Y22300D01*
X27650Y22500D01*
X28250D01*
X26850Y21300D02*
X26451D01*
X26251Y21500D01*
Y21900D01*
X26451Y22100D01*
X26850D01*
X27050Y21900D01*
Y21500D01*
X26850Y21300D01*
X25651Y22100D02*
X25251D01*
X25051Y21900D01*
Y21300D01*
X25651D01*
X25851Y21500D01*
X25651Y21700D01*
X25051D01*
X24651Y22100D02*
Y21300D01*
Y21700D01*
X24451Y21900D01*
X24251Y22100D01*
X24051D01*
X22652Y22500D02*
Y21300D01*
X23252D01*
X23452Y21500D01*
Y21900D01*
X23252Y22100D01*
X22652D01*
X28250Y20700D02*
Y19500D01*
X27650D01*
X27450Y19700D01*
Y20500D01*
X27650Y20700D01*
X28250D01*
X27050Y19500D02*
X26651D01*
X26850D01*
Y20300D01*
X27050D01*
X26051Y19500D02*
Y20300D01*
X25851D01*
X25651Y20100D01*
Y19500D01*
Y20100D01*
X25451Y20300D01*
X25251Y20100D01*
Y19500D01*
X27574Y17250D02*
X27374Y17050D01*
X26974D01*
X26775Y17250D01*
Y18050D01*
X26974Y18250D01*
X27374D01*
X27574Y18050D01*
Y17850D01*
X27374Y17650D01*
X26775D01*
X26375Y17250D02*
X26175Y17050D01*
X25775D01*
X25575Y17250D01*
Y18050D01*
X25775Y18250D01*
X26175D01*
X26375Y18050D01*
Y17850D01*
X26175Y17650D01*
X25575D01*
X25175Y17050D02*
Y17850D01*
X24975D01*
X24775Y17650D01*
Y17050D01*
Y17650D01*
X24575Y17850D01*
X24375Y17650D01*
Y17050D01*
X23975D02*
Y17850D01*
X23776D01*
X23576Y17650D01*
Y17050D01*
Y17650D01*
X23376Y17850D01*
X23176Y17650D01*
Y17050D01*
%TF.MD5,6a0ed1f8fc70e9fb192b70081088ff3c*%
M02*
