%TF.GenerationSoftware,Altium Limited,Altium Designer,25.2.1 (25)*%
G04 Layer_Color=128*
%FSLAX43Y43*%
%MOMM*%
%TF.SameCoordinates,27D013C5-8E9A-4B1D-A81B-7FE8227930E9*%
%TF.FilePolarity,Positive*%
%TF.FileFunction,Drillmap*%
%TF.Part,Single*%
G01*
G75*
%TA.AperFunction,NonConductor*%
%ADD45C,0.127*%
D45*
X92750Y4500D02*
X96250D01*
X94500Y2750D02*
Y6250D01*
X2750Y4500D02*
X6250D01*
X4500Y2750D02*
Y6250D01*
X92750Y36000D02*
X96250D01*
X94500Y34250D02*
Y37750D01*
X2750Y36000D02*
X6250D01*
X4500Y34250D02*
Y37750D01*
X82810Y27620D02*
X83710D01*
X83260Y27170D02*
Y28070D01*
X82810Y20000D02*
X83710D01*
X83260Y19550D02*
Y20450D01*
X80270Y27620D02*
X81170D01*
X80720Y27170D02*
Y28070D01*
X80270Y20000D02*
X81170D01*
X80720Y19550D02*
Y20450D01*
X77730Y27620D02*
X78630D01*
X78180Y27170D02*
Y28070D01*
X77730Y20000D02*
X78630D01*
X78180Y19550D02*
Y20450D01*
X75190Y27620D02*
X76090D01*
X75640Y27170D02*
Y28070D01*
X75190Y20000D02*
X76090D01*
X75640Y19550D02*
Y20450D01*
X72650Y27620D02*
X73550D01*
X73100Y27170D02*
Y28070D01*
X72650Y20000D02*
X73550D01*
X73100Y19550D02*
Y20450D01*
X70110Y27620D02*
X71010D01*
X70560Y27170D02*
Y28070D01*
X70110Y20000D02*
X71010D01*
X70560Y19550D02*
Y20450D01*
X67570Y27620D02*
X68470D01*
X68020Y27170D02*
Y28070D01*
X67570Y20000D02*
X68470D01*
X68020Y19550D02*
Y20450D01*
X65030Y27620D02*
X65930D01*
X65480Y27170D02*
Y28070D01*
X65030Y20000D02*
X65930D01*
X65480Y19550D02*
Y20450D01*
X62490Y27620D02*
X63390D01*
X62940Y27170D02*
Y28070D01*
X62490Y20000D02*
X63390D01*
X62940Y19550D02*
Y20450D01*
X59950Y27620D02*
X60850D01*
X60400Y27170D02*
Y28070D01*
X59950Y20000D02*
X60850D01*
X60400Y19550D02*
Y20450D01*
X57410Y27620D02*
X58310D01*
X57860Y27170D02*
Y28070D01*
X57410Y20000D02*
X58310D01*
X57860Y19550D02*
Y20450D01*
X54870Y27620D02*
X55770D01*
X55320Y27170D02*
Y28070D01*
X54870Y20000D02*
X55770D01*
X55320Y19550D02*
Y20450D01*
X52330Y27620D02*
X53230D01*
X52780Y27170D02*
Y28070D01*
X52330Y20000D02*
X53230D01*
X52780Y19550D02*
Y20450D01*
X49790Y27620D02*
X50690D01*
X50240Y27170D02*
Y28070D01*
X49790Y20000D02*
X50690D01*
X50240Y19550D02*
Y20450D01*
X47250Y27620D02*
X48150D01*
X47700Y27170D02*
Y28070D01*
X47250Y20000D02*
X48150D01*
X47700Y19550D02*
Y20450D01*
X44710Y27620D02*
X45610D01*
X45160Y27170D02*
Y28070D01*
X44710Y20000D02*
X45610D01*
X45160Y19550D02*
Y20450D01*
X42170Y27620D02*
X43070D01*
X42620Y27170D02*
Y28070D01*
X42170Y20000D02*
X43070D01*
X42620Y19550D02*
Y20450D01*
X39630Y27620D02*
X40530D01*
X40080Y27170D02*
Y28070D01*
X39630Y20000D02*
X40530D01*
X40080Y19550D02*
Y20450D01*
X37090Y27620D02*
X37990D01*
X37540Y27170D02*
Y28070D01*
X37090Y20000D02*
X37990D01*
X37540Y19550D02*
Y20450D01*
X34550Y27620D02*
X35450D01*
X35000Y27170D02*
Y28070D01*
X34550Y20000D02*
X35450D01*
X35000Y19550D02*
Y20450D01*
X31850Y6500D02*
X33150D01*
X32500Y5850D02*
Y7150D01*
X36930Y6500D02*
X38230D01*
X37580Y5850D02*
Y7150D01*
X26850Y6500D02*
X28150D01*
X27500Y5850D02*
Y7150D01*
X21770Y6500D02*
X23070D01*
X22420Y5850D02*
Y7150D01*
X79885Y5500D02*
X81035D01*
X80460Y4925D02*
Y6075D01*
X82425Y5500D02*
X83575D01*
X83000Y4925D02*
Y6075D01*
X84965Y5500D02*
X86115D01*
X85540Y4925D02*
Y6075D01*
X71850Y3500D02*
X72150D01*
X72000Y3350D02*
Y3650D01*
X13350Y4500D02*
X13650D01*
X13500Y4350D02*
Y4650D01*
%TF.MD5,4df359c77eb3fa25fa6dbbde53fd8688*%
M02*
