%TF.GenerationSoftware,Altium Limited,Altium Designer,25.2.1 (25)*%
G04 Layer_Physical_Order=1*
G04 Layer_Color=255*
%FSLAX43Y43*%
%MOMM*%
%TF.SameCoordinates,27D013C5-8E9A-4B1D-A81B-7FE8227930E9*%
%TF.FilePolarity,Positive*%
%TF.FileFunction,Copper,L1,Top,Signal*%
%TF.Part,Single*%
G01*
G75*
%TA.AperFunction,NonConductor*%
%ADD10C,0.203*%
%TA.AperFunction,SMDPad,CuDef*%
G04:AMPARAMS|DCode=11|XSize=1.25mm|YSize=0.6mm|CornerRadius=0.06mm|HoleSize=0mm|Usage=FLASHONLY|Rotation=180.000|XOffset=0mm|YOffset=0mm|HoleType=Round|Shape=RoundedRectangle|*
%AMROUNDEDRECTD11*
21,1,1.250,0.480,0,0,180.0*
21,1,1.130,0.600,0,0,180.0*
1,1,0.120,-0.565,0.240*
1,1,0.120,0.565,0.240*
1,1,0.120,0.565,-0.240*
1,1,0.120,-0.565,-0.240*
%
%ADD11ROUNDEDRECTD11*%
%ADD12R,0.700X0.650*%
%ADD13R,0.600X1.250*%
%TA.AperFunction,Conductor*%
%ADD14C,0.200*%
%ADD15C,0.500*%
%ADD16C,2.000*%
%TA.AperFunction,ComponentPad*%
%ADD17C,6.000*%
%ADD18C,1.400*%
%ADD19C,2.500*%
%ADD20C,1.725*%
%TA.AperFunction,ViaPad*%
%ADD21C,0.700*%
D10*
X98498Y36000D02*
G03*
X94500Y39998I-3998J0D01*
G01*
Y502D02*
G03*
X98498Y4500I0J3998D01*
G01*
X69382Y6098D02*
G03*
X69000Y5794I54J-458D01*
G01*
X71027Y5640D02*
G03*
X70619Y6098I-462J0D01*
G01*
X70565Y4698D02*
G03*
X71027Y5160I0J462D01*
G01*
X69000Y5005D02*
G03*
X69435Y4698I435J154D01*
G01*
X69000Y5794D02*
G03*
X68619Y6098I-435J-154D01*
G01*
X68565Y4698D02*
G03*
X69000Y5005I0J462D01*
G01*
X67382Y6098D02*
G03*
X67000Y5794I54J-458D01*
G01*
D02*
G03*
X66619Y6098I-435J-154D01*
G01*
X65382D02*
G03*
X64973Y5640I54J-458D01*
G01*
X66565Y4698D02*
G03*
X67000Y5005I0J462D01*
G01*
D02*
G03*
X67435Y4698I435J154D01*
G01*
X64973Y5160D02*
G03*
X65435Y4698I462J0D01*
G01*
X4500Y39998D02*
G03*
X502Y36000I0J-3998D01*
G01*
Y4500D02*
G03*
X4500Y502I3998J0D01*
G01*
X96157Y39402D02*
X96317Y39562D01*
X95438Y39402D02*
X95813Y39777D01*
X96566Y39423D02*
X97923Y38066D01*
X96201Y39402D02*
X97902Y37701D01*
X92799Y39402D02*
X96201D01*
X94720D02*
X95247Y39928D01*
X95368Y39903D02*
X95869Y39402D01*
X97902Y37554D02*
X98096Y37748D01*
X97616Y37987D02*
X97835Y38206D01*
X97902Y37369D02*
X98403Y36868D01*
X96897Y38705D02*
X97169Y38977D01*
X96538Y39064D02*
X96767Y39293D01*
X97256Y38346D02*
X97525Y38615D01*
X92399Y39998D02*
X92996Y39402D01*
X91680Y39998D02*
X92538Y39141D01*
X90962Y39998D02*
X92179Y38781D01*
X90244Y39998D02*
X91820Y38422D01*
X89525Y39998D02*
X91461Y38063D01*
X88807Y39998D02*
X91101Y37704D01*
X88088Y39998D02*
X91098Y36988D01*
X94002Y39402D02*
X94597Y39997D01*
X93836Y39998D02*
X94433Y39402D01*
X94554Y39998D02*
X95151Y39402D01*
X93283D02*
X93880Y39998D01*
X93117D02*
X93714Y39402D01*
X91098Y37701D02*
X92799Y39402D01*
X97902Y34681D02*
X98498Y35277D01*
X97902Y35932D02*
X98498Y35336D01*
X97902Y34496D02*
X98498Y33899D01*
X97902Y35214D02*
X98498Y34617D01*
X97281Y33679D02*
X98498Y32462D01*
X97641Y34038D02*
X98498Y33180D01*
X86752Y22094D02*
X98498Y33840D01*
X96563Y32961D02*
X98498Y31025D01*
X96922Y33320D02*
X98498Y31744D01*
X96204Y32601D02*
X98498Y30307D01*
X93333Y32598D02*
X98498Y27433D01*
X94051Y32598D02*
X98498Y28151D01*
X86752Y21375D02*
X98498Y33122D01*
X97902Y36836D02*
X98302Y37237D01*
X97902Y34299D02*
Y37701D01*
X86651Y39998D02*
X91098Y35551D01*
X87370Y39998D02*
X91098Y36270D01*
Y34299D02*
Y37701D01*
X97902Y36651D02*
X98498Y36054D01*
X97902Y36117D02*
X98444Y36659D01*
X97902Y35399D02*
X98498Y35996D01*
X92799Y32598D02*
X96201D01*
X91098Y34299D02*
X92799Y32598D01*
X96201D02*
X97902Y34299D01*
X80448Y28722D02*
X91725Y39998D01*
X85933D02*
X91098Y34833D01*
X81578Y28415D02*
X93162Y39998D01*
X81166Y28722D02*
X92443Y39998D01*
X78871Y28581D02*
X90288Y39998D01*
X78293Y28722D02*
X89569Y39998D01*
X79230Y28222D02*
X91006Y39998D01*
X84362Y27606D02*
X91098Y34343D01*
X84285Y28248D02*
X91098Y35062D01*
X85215Y39998D02*
X98498Y26715D01*
X83925Y28607D02*
X91098Y35780D01*
X83322Y28722D02*
X91098Y36498D01*
X81822Y27940D02*
X91098Y37217D01*
X72283Y39998D02*
X83560Y28722D01*
X71565Y39998D02*
X82841Y28722D01*
X71469Y28364D02*
X83104Y39998D01*
X70846D02*
X82416Y28429D01*
X71108Y28722D02*
X82385Y39998D01*
X70128D02*
X82158Y27968D01*
X76523Y28389D02*
X88133Y39998D01*
X76137Y28722D02*
X87414Y39998D01*
X76742Y27889D02*
X88851Y39998D01*
X75419Y28722D02*
X86696Y39998D01*
X71662Y27838D02*
X83822Y39998D01*
X71662Y27119D02*
X84541Y39998D01*
X81623D02*
X98498Y23123D01*
X82341Y39998D02*
X98498Y23841D01*
X80186Y39998D02*
X98498Y21686D01*
X80904Y39998D02*
X98498Y22404D01*
X78749Y39998D02*
X98498Y20249D01*
X79467Y39998D02*
X98498Y20967D01*
X78030Y39998D02*
X98498Y19530D01*
X77312Y39998D02*
X98498Y18812D01*
X86516Y22576D02*
X98498Y34559D01*
X76594Y39998D02*
X98498Y18094D01*
X75157Y39998D02*
X98498Y16657D01*
X75875Y39998D02*
X98498Y17375D01*
X74438Y39998D02*
X98498Y15938D01*
X84496Y39998D02*
X98498Y25996D01*
X83283Y25809D02*
X91436Y33962D01*
X83778Y39998D02*
X98498Y25278D01*
X83059Y39998D02*
X98498Y24559D01*
X66196Y20936D02*
X85259Y39998D01*
X66556Y20577D02*
X85977Y39998D01*
X85798Y23295D02*
X95101Y32598D01*
X85438Y23654D02*
X94383Y32598D01*
X86157Y22936D02*
X95819Y32598D01*
X84001Y25091D02*
X92154Y33244D01*
X83642Y25450D02*
X91795Y33603D01*
X84361Y24732D02*
X92513Y32884D01*
X94770Y32598D02*
X98498Y28870D01*
X95488Y32598D02*
X98498Y29588D01*
X86752Y20657D02*
X98498Y32404D01*
X86501Y22592D02*
X86752Y22341D01*
X85079Y24013D02*
X93664Y32598D01*
X84720Y24373D02*
X92946Y32598D01*
X86501Y22592D02*
X86752Y22341D01*
Y21839D02*
Y22341D01*
Y21839D02*
Y22341D01*
X85502Y20314D02*
X85748Y20067D01*
X85502Y21032D02*
X85748Y20786D01*
X85502Y20844D02*
X85748Y21090D01*
X85502Y20125D02*
X85748Y20372D01*
X84528Y22025D02*
X85045Y22542D01*
X84362Y27069D02*
Y28171D01*
X85246Y21306D02*
X85748Y21809D01*
X84887Y21666D02*
X85404Y22183D01*
X84168Y22384D02*
X84686Y22902D01*
X83811Y28722D02*
X84362Y28171D01*
X84052Y22501D02*
X85251Y21302D01*
X85502Y20549D02*
Y21051D01*
X85251Y21302D02*
X85502Y21051D01*
Y20549D02*
Y21051D01*
X85251Y21302D02*
X85502Y21051D01*
X84067Y20846D02*
X84134Y20913D01*
X84362Y20422D02*
X84494Y20554D01*
X86752Y17065D02*
X98498Y28812D01*
X86752Y17783D02*
X98498Y29530D01*
X86752Y15628D02*
X98498Y27375D01*
X86752Y16346D02*
X98498Y28093D01*
X86752Y19220D02*
X98498Y30967D01*
X86752Y19938D02*
X98498Y31685D01*
X86752Y18502D02*
X98498Y30248D01*
X85502Y15815D02*
X85748Y16062D01*
X85502Y16722D02*
X85748Y16475D01*
X85502Y16004D02*
X85748Y15757D01*
X85502Y17440D02*
X85748Y17194D01*
X85502Y17252D02*
X85748Y17498D01*
X85502Y16533D02*
X85748Y16780D01*
X85502Y19407D02*
X85748Y19654D01*
X84362Y19704D02*
X84498Y19840D01*
X85502Y19596D02*
X85748Y19349D01*
X84362Y20017D02*
X84498Y19880D01*
X84362Y19449D02*
Y20551D01*
X83811Y18898D02*
X84362Y19449D01*
X85502Y17970D02*
X85748Y18217D01*
X85502Y18877D02*
X85748Y18630D01*
X85502Y18159D02*
X85748Y17912D01*
X85502Y18688D02*
X85748Y18935D01*
X84286Y19374D02*
X84498Y19162D01*
X83927Y19015D02*
X84498Y18444D01*
X82709Y26518D02*
X83811D01*
X82709Y28722D02*
X83811D01*
Y26518D02*
X84362Y27069D01*
X82924Y26169D02*
X83274Y26518D01*
X81822Y27271D02*
X86501Y22592D01*
X79282Y27271D02*
X83801Y22752D01*
X81069Y26518D02*
X85748Y21839D01*
X83809Y22743D02*
X84327Y23261D01*
X83801Y22752D02*
X84052Y22501D01*
X83801Y22752D02*
X84052Y22501D01*
X83450Y23103D02*
X83967Y23620D01*
X83091Y23462D02*
X83608Y23979D01*
X83801Y22752D02*
X84052Y22501D01*
X82205Y26887D02*
X82273Y26955D01*
X82158Y27069D02*
Y28171D01*
Y27069D02*
X82709Y26518D01*
X82158Y28171D02*
X82709Y28722D01*
X81822Y27586D02*
X82158Y27249D01*
X81846Y27246D02*
X82158Y27558D01*
X82372Y24180D02*
X82890Y24698D01*
X82565Y26528D02*
X82632Y26595D01*
X82731Y23821D02*
X83249Y24339D01*
X82013Y24539D02*
X82531Y25057D01*
X81654Y24899D02*
X82171Y25416D01*
X78529Y26518D02*
X83048Y21999D01*
X83048D02*
X83299Y21748D01*
X83048Y21999D02*
X83299Y21748D01*
X83299D02*
X84498Y20549D01*
X83604Y21102D02*
X83775Y21272D01*
X80734Y26518D02*
X85748Y21504D01*
X83048Y21999D02*
X83299Y21748D01*
X82886Y21102D02*
X83416Y21632D01*
X83811Y21102D02*
X84362Y20551D01*
X82709Y18898D02*
X83811D01*
X83325D02*
X84498Y17725D01*
X81822Y19684D02*
X84498Y17007D01*
X82709Y21102D02*
X83811D01*
X81580Y19207D02*
X84498Y16288D01*
X81360Y21013D02*
X82697Y22350D01*
X80731Y21102D02*
X82338Y22709D01*
X81719Y20653D02*
X83057Y21991D01*
X77860Y26518D02*
X83277Y21102D01*
X76666Y26994D02*
X82634Y21026D01*
X76307Y26635D02*
X82275Y20667D01*
X82158Y20551D02*
X82709Y21102D01*
X82158Y19449D02*
Y20551D01*
Y19449D02*
X82709Y18898D01*
X81822Y20037D02*
X82158Y20374D01*
X81822Y20402D02*
X82158Y20065D01*
X81271Y18898D02*
X81822Y19449D01*
X70390Y28722D02*
X81667Y39998D01*
X69409D02*
X80686Y28722D01*
X79618Y28171D02*
X80169Y28722D01*
X78731D02*
X79282Y28171D01*
X68762Y28530D02*
X80230Y39998D01*
X68691D02*
X80068Y28621D01*
X69121Y28171D02*
X80948Y39998D01*
X81271Y28722D02*
X81822Y28171D01*
X80169Y28722D02*
X81271D01*
X81822Y27271D02*
Y28171D01*
X79282Y27555D02*
X79618Y27892D01*
X79282Y27971D02*
X79618Y27634D01*
X79282Y27271D02*
Y28171D01*
X75089Y28722D02*
X76191D01*
X71111D02*
X71662Y28171D01*
X76191Y28722D02*
X76742Y28171D01*
X74538D02*
X75089Y28722D01*
X70009D02*
X71111D01*
X68571D02*
X69122Y28171D01*
X69458D02*
X70009Y28722D01*
X77629D02*
X78731D01*
X77078Y28171D02*
X77629Y28722D01*
X76742Y27171D02*
X77078Y27507D01*
X69122Y27453D02*
X69458Y27790D01*
X69122Y28073D02*
X69458Y27736D01*
X76742Y27637D02*
X77078Y27300D01*
X79618Y27069D02*
Y28171D01*
X77078Y27069D02*
Y28171D01*
X79499Y27054D02*
X79618Y27174D01*
X77078Y27069D02*
X77629Y26518D01*
X76191D02*
X76742Y27069D01*
Y28171D01*
X71662Y27688D02*
X79618Y19731D01*
X80169Y26518D02*
X81069D01*
X79858Y26695D02*
X79925Y26762D01*
X80217Y26335D02*
X80400Y26518D01*
X79618Y27069D02*
X80169Y26518D01*
X71251Y20961D02*
X77219Y26929D01*
X71610Y20602D02*
X77578Y26570D01*
X74538Y27069D02*
Y28171D01*
X71662Y27069D02*
Y28171D01*
X71061Y26518D02*
X71662Y27119D01*
X69458Y27069D02*
Y28171D01*
X69122Y27069D02*
Y28171D01*
Y27355D02*
X75375Y21102D01*
X74538Y27069D02*
X75089Y26518D01*
X71111D02*
X71662Y27069D01*
X70673Y21102D02*
X76089Y26518D01*
X69458Y27069D02*
X70009Y26518D01*
X68571D02*
X69122Y27069D01*
X68905Y26853D02*
X74873Y20885D01*
X65361Y28722D02*
X76638Y39998D01*
X64380D02*
X75657Y28722D01*
X65817Y39998D02*
X77362Y28454D01*
X66055Y28697D02*
X77356Y39998D01*
X63708Y28505D02*
X75201Y39998D01*
X63662D02*
X75014Y28646D01*
X64042Y28121D02*
X75919Y39998D01*
X68235Y28722D02*
X79512Y39998D01*
X67516Y28722D02*
X78793Y39998D01*
X67973D02*
X79709Y28262D01*
X67254Y39998D02*
X78531Y28722D01*
X66536Y39998D02*
X77812Y28722D01*
X66414Y28338D02*
X78075Y39998D01*
X63206Y28722D02*
X74483Y39998D01*
X63491Y28722D02*
X64042Y28171D01*
X63444Y28722D02*
X64042Y28124D01*
X62487Y28722D02*
X73764Y39998D01*
X62389Y28722D02*
X63491D01*
X62944Y39998D02*
X74655Y28287D01*
X67469Y28722D02*
X68571D01*
X66918Y28171D02*
X67469Y28722D01*
X66918Y28124D02*
X67516Y28722D01*
X64929D02*
X66031D01*
X64378Y28171D02*
X64929Y28722D01*
X66031D02*
X66582Y28171D01*
X65099Y39998D02*
X77078Y28019D01*
X66558Y27045D02*
X72525Y21078D01*
X65982Y18566D02*
X74538Y27123D01*
X66582Y19884D02*
X74538Y27841D01*
X64042Y27406D02*
X70346Y21102D01*
X63488D02*
X69458Y27072D01*
X63851Y26878D02*
X69818Y20911D01*
X67803Y26518D02*
X73219Y21102D01*
X66198Y26686D02*
X72166Y20718D01*
X65982Y17847D02*
X74871Y26737D01*
X65644Y21102D02*
X71061Y26518D01*
X63849Y20744D02*
X69816Y26711D01*
X63491Y26519D02*
X69459Y20551D01*
X66582Y27787D02*
X66918Y28124D01*
X66582Y27069D02*
Y28171D01*
X66918Y27069D02*
Y28171D01*
X64042Y28124D02*
X64378Y27787D01*
X64042Y27069D02*
Y28171D01*
X64378Y27069D02*
Y28171D01*
X66582Y27739D02*
X66918Y27403D01*
X66031Y26518D02*
X66582Y27069D01*
X66918D02*
X67469Y26518D01*
X64042Y27402D02*
X64378Y27739D01*
X63491Y26518D02*
X64042Y27069D01*
X64378D02*
X64929Y26518D01*
X80576Y25976D02*
X81094Y26494D01*
X77629Y26518D02*
X78529D01*
X81295Y25258D02*
X81812Y25775D01*
X80935Y25617D02*
X81453Y26135D01*
X75705Y26518D02*
X81122Y21102D01*
X73546D02*
X78746Y26301D01*
X73958Y20795D02*
X79105Y25942D01*
X80169Y21102D02*
X81271D01*
X79618Y20551D02*
X80169Y21102D01*
X81271D02*
X81822Y20551D01*
X76305Y20987D02*
X80183Y24865D01*
X75702Y21102D02*
X79824Y25224D01*
X76665Y20628D02*
X80542Y24505D01*
X75089Y26518D02*
X76191D01*
X70676D02*
X76093Y21102D01*
X72828D02*
X78245Y26518D01*
X71111Y21102D02*
X71662Y20551D01*
X70009Y21102D02*
X71111D01*
X70009Y26518D02*
X71111D01*
X69458Y20551D02*
X70009Y21102D01*
X75089D02*
X76191D01*
X74538Y20551D02*
X75089Y21102D01*
X76191D02*
X76742Y20551D01*
X72549Y21102D02*
X73651D01*
X71998Y20551D02*
X72549Y21102D01*
X73651D02*
X74202Y20551D01*
X76742Y19986D02*
X80901Y24146D01*
X76742Y19449D02*
Y20551D01*
X81822Y19449D02*
Y20551D01*
X79618Y19449D02*
Y20551D01*
X74202Y20320D02*
X79465Y25583D01*
X74202Y20119D02*
X74538Y19783D01*
Y19449D02*
Y20551D01*
X79618Y19449D02*
X80169Y18898D01*
X76191D02*
X76742Y19449D01*
X80169Y18898D02*
X81271D01*
X74538Y19449D02*
X75089Y18898D01*
X74202Y19602D02*
X74538Y19938D01*
X75089Y18898D02*
X76191D01*
X71998Y19449D02*
Y20551D01*
X71662Y19935D02*
X71998Y20272D01*
X74202Y19449D02*
Y20551D01*
X71662Y20504D02*
X71998Y20167D01*
X71064Y21102D02*
X71662Y20504D01*
Y19449D02*
Y20551D01*
X72549Y18898D02*
X73651D01*
X71998Y19449D02*
X72549Y18898D01*
X73651D02*
X74202Y19449D01*
X70009Y18898D02*
X71111D01*
X69458Y19449D02*
X70009Y18898D01*
X71111D02*
X71662Y19449D01*
X67469Y26518D02*
X68571D01*
X64929D02*
X66031D01*
X68521D02*
X74538Y20501D01*
X65647Y26518D02*
X71064Y21102D01*
X64042Y20218D02*
X70342Y26518D01*
X62770Y21102D02*
X68187Y26518D01*
X62774D02*
X69458Y19834D01*
Y19449D02*
Y20551D01*
X66582Y19449D02*
Y20551D01*
X66031Y18898D02*
X66582Y19449D01*
X66031Y21102D02*
X66582Y20551D01*
X64929Y21102D02*
X66031D01*
X63709Y19117D02*
X64978Y17848D01*
X64378Y20551D02*
X64929Y21102D01*
X64042Y19449D02*
Y20551D01*
X64378Y19449D02*
Y20551D01*
X62389Y21102D02*
X63491D01*
X62389Y26518D02*
X63491D01*
Y21102D02*
X64042Y20551D01*
X64378Y19449D02*
X64929Y18898D01*
X64042Y19499D02*
X64378Y19836D01*
X64042Y19503D02*
X64978Y18566D01*
X64042Y20222D02*
X64378Y19885D01*
X63491Y18898D02*
X64042Y19449D01*
X63442Y18181D02*
X64544Y19284D01*
X66771Y16481D02*
X69599Y19309D01*
X66412Y16841D02*
X69458Y19887D01*
X67489Y15763D02*
X70625Y18898D01*
X67130Y16122D02*
X69958Y18950D01*
X66053Y17200D02*
X75371Y26518D01*
X65982Y17271D02*
Y18898D01*
X64978Y16769D02*
Y17271D01*
Y16769D02*
X65229Y16518D01*
X64978Y16769D02*
X65229Y16518D01*
X65287Y15716D02*
X65659Y16088D01*
X64568Y16434D02*
X64978Y16844D01*
Y16769D02*
Y17271D01*
X64928Y16075D02*
X65300Y16447D01*
X64978Y17271D02*
Y18898D01*
X63491Y17512D02*
X64903Y18924D01*
X63850Y17153D02*
X64978Y18281D01*
X63442Y17561D02*
Y18898D01*
X62438Y17561D02*
Y18898D01*
X63442Y18666D02*
X64978Y17129D01*
X64209Y16793D02*
X64978Y17563D01*
X62438Y17059D02*
X62689Y16808D01*
X62600Y15903D02*
X63097Y16400D01*
X62438Y17059D02*
Y17561D01*
Y17059D02*
Y17561D01*
Y17059D02*
X62689Y16808D01*
X86752Y11317D02*
X98498Y23064D01*
X86752Y12036D02*
X98498Y23783D01*
X86752Y21938D02*
X98498Y10191D01*
X86752Y10599D02*
X98498Y22346D01*
X86752Y13473D02*
X98498Y25219D01*
X86752Y14191D02*
X98498Y25938D01*
X86752Y12754D02*
X98498Y24501D01*
X86752Y8444D02*
X98498Y20190D01*
X86752Y20501D02*
X98498Y8754D01*
X86752Y19782D02*
X98498Y8036D01*
X86752Y21219D02*
X98498Y9473D01*
X86752Y9881D02*
X98498Y21627D01*
X86752Y9162D02*
X98498Y20909D01*
X86752Y14909D02*
X98498Y26656D01*
X85502Y14567D02*
X85748Y14320D01*
X86752Y8001D02*
Y21839D01*
X85748Y8001D02*
Y21839D01*
X85502Y15285D02*
X85748Y15038D01*
X85502Y15096D02*
X85748Y15343D01*
X85502Y14378D02*
X85748Y14625D01*
X85502Y12223D02*
X85748Y12469D01*
X85502Y13130D02*
X85748Y12883D01*
X85502Y12412D02*
X85748Y12165D01*
X85502Y13848D02*
X85748Y13601D01*
X85502Y13659D02*
X85748Y13906D01*
X85502Y12941D02*
X85748Y13188D01*
X86752Y18346D02*
X98498Y6599D01*
X86752Y19064D02*
X98498Y7317D01*
Y4500D02*
Y36000D01*
X86752Y17627D02*
X98498Y5880D01*
X86340Y6596D02*
X98498Y18754D01*
X86752Y7725D02*
X98498Y19472D01*
X86700Y6236D02*
X98498Y18035D01*
X95549Y7902D02*
X98498Y10851D01*
X94831Y7902D02*
X98498Y11569D01*
X96234Y7868D02*
X98498Y10133D01*
X86804Y5622D02*
X98498Y17317D01*
X94112Y7902D02*
X98498Y12288D01*
X86804Y4904D02*
X98498Y16598D01*
X86752Y14754D02*
X93604Y7902D01*
X86752Y14035D02*
X92885Y7902D01*
X86752Y13317D02*
X92483Y7585D01*
X86752Y16909D02*
X95759Y7902D01*
X86752Y16190D02*
X95040Y7902D01*
X86752Y15472D02*
X94322Y7902D01*
X93394D02*
X98498Y13006D01*
X86752Y10443D02*
X91098Y6096D01*
X86752Y9725D02*
X91098Y5378D01*
X86752Y12598D02*
X92124Y7226D01*
X86752Y11880D02*
X91765Y6867D01*
X86752Y11162D02*
X91405Y6508D01*
X84362Y27201D02*
X98498Y13065D01*
X84362Y27920D02*
X98498Y13783D01*
X83608Y26518D02*
X98498Y11628D01*
X84069Y26776D02*
X98498Y12346D01*
X73001Y39998D02*
X98498Y14501D01*
X73720Y39998D02*
X98498Y15220D01*
X82889Y26518D02*
X98498Y10909D01*
X85502Y10256D02*
X85748Y10009D01*
X85502Y10067D02*
X85748Y10314D01*
X85502Y9349D02*
X85748Y9596D01*
X85502Y10786D02*
X85748Y11033D01*
X85502Y11693D02*
X85748Y11446D01*
X85502Y10975D02*
X85748Y10728D01*
X84498Y9501D02*
Y20549D01*
X76742Y19735D02*
X84498Y11978D01*
X85502Y9501D02*
Y20549D01*
X71253Y26660D02*
X84498Y13415D01*
X71612Y27020D02*
X84498Y14133D01*
X76742Y20453D02*
X84498Y12696D01*
X80451Y18898D02*
X84498Y14851D01*
X81170Y18898D02*
X84498Y15570D01*
X85502Y11504D02*
X85748Y11751D01*
X76141Y18898D02*
X84498Y10541D01*
X76525Y19233D02*
X84498Y11259D01*
X75423Y18898D02*
X84498Y9823D01*
X68033Y502D02*
X84498Y16967D01*
X67315Y502D02*
X84498Y17685D01*
X83120Y502D02*
X98498Y15880D01*
X69470Y502D02*
X84498Y15530D01*
X66582Y19837D02*
X85917Y502D01*
X66416Y19284D02*
X85198Y502D01*
X66596D02*
X84498Y18404D01*
X85502Y9538D02*
X85748Y9291D01*
X85502Y8999D02*
Y9501D01*
X85275Y502D02*
X98498Y13725D01*
X83838Y502D02*
X98498Y15162D01*
X70188Y502D02*
X84498Y14812D01*
X84557Y502D02*
X98498Y14443D01*
X71027Y5650D02*
X84498Y19122D01*
X74178Y19425D02*
X84300Y9303D01*
X71625Y502D02*
X84498Y13375D01*
X68752Y502D02*
X84498Y16248D01*
X66057Y18925D02*
X84480Y502D01*
X70907D02*
X84498Y14093D01*
X74499Y502D02*
X84498Y10501D01*
X82749Y7752D02*
X84498Y9501D01*
X75217Y502D02*
X84498Y9783D01*
X73062Y502D02*
X84498Y11938D01*
X72344Y502D02*
X84498Y12656D01*
X73781Y502D02*
X84498Y11219D01*
X97902Y5944D02*
X98498Y6540D01*
X97671Y6431D02*
X98498Y7259D01*
X97902Y5759D02*
X98498Y5162D01*
X97902Y5225D02*
X98498Y5822D01*
X96953Y7150D02*
X98498Y8696D01*
X96593Y7509D02*
X98498Y9414D01*
X97312Y6791D02*
X98498Y7977D01*
X97902Y4322D02*
X98435Y3789D01*
X97902Y3604D02*
X98287Y3218D01*
X97902Y3070D02*
X98385Y3553D01*
X97902Y4507D02*
X98498Y5104D01*
X97902Y5040D02*
X98498Y4444D01*
X97902Y3788D02*
X98497Y4384D01*
X96201Y7902D02*
X97902Y6201D01*
X92799Y7902D02*
X96201D01*
X97902Y2799D02*
Y6201D01*
X91098Y2799D02*
Y6201D01*
X92799Y7902D01*
X86752Y9006D02*
X91098Y4659D01*
X86752Y8288D02*
X91098Y3941D01*
X97902Y2885D02*
X98076Y2711D01*
X97585Y2483D02*
X97811Y2258D01*
X97226Y2124D02*
X97497Y1853D01*
X96867Y1765D02*
X97137Y1494D01*
X86804Y4868D02*
Y6132D01*
X96734Y1184D02*
X97816Y2266D01*
X95930Y1098D02*
X97902Y3070D01*
X96508Y1405D02*
X96731Y1182D01*
X96201Y1098D02*
X97902Y2799D01*
X93941Y1098D02*
X94538Y502D01*
X93223Y1098D02*
X93819Y502D01*
X93896D02*
X94493Y1098D01*
X96096D02*
X96277Y918D01*
X95378Y1098D02*
X95768Y708D01*
X95447Y615D02*
X95930Y1098D01*
X92799D02*
X96201D01*
X94659D02*
X95195Y563D01*
X94616Y503D02*
X95212Y1098D01*
X91098Y2799D02*
X92799Y1098D01*
X88149Y502D02*
X91098Y3451D01*
X88867Y502D02*
X91132Y2766D01*
X86804Y6080D02*
X92383Y502D01*
X86804Y5362D02*
X91664Y502D01*
X87431D02*
X91098Y4169D01*
X92460Y502D02*
X93056Y1098D01*
X91741Y502D02*
X92569Y1329D01*
X93178Y502D02*
X93775Y1098D01*
X90304Y502D02*
X91850Y2047D01*
X89586Y502D02*
X91491Y2407D01*
X91023Y502D02*
X92209Y1688D01*
X85251Y8748D02*
X85502Y8999D01*
X85251Y8748D02*
X85502Y8999D01*
X85289Y7542D02*
X85748Y8001D01*
X85412Y8909D02*
X85748Y8573D01*
X83634Y6763D02*
X85748Y8877D01*
X85053Y8550D02*
X85675Y7928D01*
X83993Y6403D02*
X85748Y8159D01*
X86752Y7499D02*
Y8001D01*
Y7499D02*
Y8001D01*
X86501Y7248D02*
X86752Y7499D01*
X86501Y7248D02*
X86752Y7499D01*
X86042Y6789D02*
X86501Y7248D01*
X86042Y6764D02*
X86172D01*
X85502Y8999D02*
Y9501D01*
X85038Y7291D02*
X85289Y7542D01*
X85038Y7291D02*
X85289Y7542D01*
X84693Y8191D02*
X85316Y7568D01*
X84334Y7832D02*
X85038Y7127D01*
X83502Y6999D02*
X85251Y8748D01*
X85038Y6789D02*
Y7291D01*
Y6789D02*
Y7291D01*
X84908Y6764D02*
X85038D01*
X83975Y7472D02*
X84796Y6652D01*
X83616Y7113D02*
X84436Y6293D01*
X84276Y6132D02*
X84908Y6764D01*
X86752Y7569D02*
X91098Y3223D01*
X86172Y4236D02*
X86804Y4868D01*
X86428Y7175D02*
X93101Y502D01*
X86712D02*
X91098Y4888D01*
X86136Y4236D02*
X86804Y4904D01*
X86120Y6764D02*
X86804Y6080D01*
X85994Y502D02*
X91098Y5606D01*
X86333Y4396D02*
X90227Y502D01*
X85775Y4236D02*
X89509Y502D01*
X86692Y4756D02*
X90946Y502D01*
X83985Y4589D02*
X88072Y502D01*
X83619Y4236D02*
X87354Y502D01*
X85056Y4236D02*
X88790Y502D01*
X86172Y6764D02*
X86804Y6132D01*
X84276Y4868D02*
Y6132D01*
Y4868D02*
X84908Y4236D01*
X84264Y4868D02*
Y6132D01*
X83632Y6764D02*
X84264Y6132D01*
X83632Y4236D02*
X84264Y4868D01*
X84908Y4236D02*
X86172D01*
X82402Y502D02*
X86136Y4236D01*
X82901D02*
X86635Y502D01*
X80965D02*
X84804Y4340D01*
X80246Y502D02*
X84444Y4700D01*
X81683Y502D02*
X85418Y4236D01*
X70502Y11591D02*
X81979Y23069D01*
X70502Y10873D02*
X79618Y19989D01*
X73818Y19066D02*
X83941Y8943D01*
X70502Y10154D02*
X79707Y19360D01*
X70363Y12889D02*
X81261Y23787D01*
X69285Y13967D02*
X74653Y19335D01*
X70502Y12310D02*
X81620Y23428D01*
X70004Y13249D02*
X75654Y18898D01*
X70502Y12249D02*
Y12751D01*
Y9436D02*
X80067Y19001D01*
X68926Y14326D02*
X73498Y18898D01*
X68567Y14685D02*
X72780Y18898D01*
X69645Y13608D02*
X75012Y18975D01*
X70251Y13002D02*
X70502Y12751D01*
X70251Y13002D02*
X70502Y12751D01*
Y12249D02*
Y12751D01*
X68502Y12169D02*
X69498Y11173D01*
X68502Y12465D02*
X68892Y12855D01*
X68502Y11999D02*
Y12501D01*
Y11999D02*
Y12501D01*
Y9591D02*
X69498Y10588D01*
X68502Y10733D02*
X69498Y9736D01*
X68502Y10014D02*
X69498Y9017D01*
X68502Y11451D02*
X69498Y10454D01*
X68502Y11028D02*
X69498Y12025D01*
X68502Y10310D02*
X69498Y11306D01*
X71662Y19786D02*
X83222Y8225D01*
X71471Y19258D02*
X82863Y7866D01*
X71111Y18899D02*
X82504Y7506D01*
X70752Y7531D02*
X82414Y19193D01*
X70752Y8249D02*
X82158Y19656D01*
X70686Y8902D02*
X80683Y18898D01*
X70394D02*
X82498Y6794D01*
X73267Y18898D02*
X83582Y8584D01*
X70752Y6812D02*
X82838Y18898D01*
X70729Y6071D02*
X83556Y18898D01*
X70502Y12325D02*
X82325Y502D01*
X70502Y11606D02*
X81606Y502D01*
X70502Y10888D02*
X80888Y502D01*
X70502Y10169D02*
X80169Y502D01*
X70502Y8902D02*
Y12249D01*
Y9451D02*
X79451Y502D01*
X68531Y8902D02*
X69498Y9870D01*
X68502Y8902D02*
Y11999D01*
X69498Y8902D02*
Y12249D01*
X69249Y8902D02*
X69498Y9151D01*
X69248Y8902D02*
X69498D01*
X70752Y7552D02*
Y8902D01*
X68502Y9296D02*
X69248Y8549D01*
X68502Y8902D02*
X68752D01*
X69248Y7552D02*
Y8902D01*
X68208Y15045D02*
X72305Y19142D01*
X67849Y15404D02*
X71998Y19554D01*
X66724Y14279D02*
X67096Y14651D01*
X66364Y14638D02*
X66737Y15011D01*
X65982Y17271D02*
X70251Y13002D01*
X63442Y17561D02*
X68251Y12752D01*
X65229Y16518D02*
X69498Y12249D01*
X68160Y12842D02*
X68533Y13215D01*
X68251Y12752D02*
X68502Y12501D01*
X68251Y12752D02*
X68502Y12501D01*
X67442Y13560D02*
X67815Y13933D01*
X67083Y13920D02*
X67455Y14292D01*
X67801Y13201D02*
X68174Y13574D01*
X66005Y14997D02*
X66378Y15370D01*
X65646Y15356D02*
X66019Y15729D01*
X64037Y14466D02*
X64534Y14963D01*
X63318Y15184D02*
X63816Y15682D01*
X62959Y15543D02*
X63457Y16041D01*
X63678Y14825D02*
X64175Y15322D01*
X65833Y12670D02*
X66330Y13167D01*
X65474Y13029D02*
X65971Y13526D01*
X66192Y12310D02*
X66690Y12808D01*
X64755Y13747D02*
X65253Y14245D01*
X64396Y14106D02*
X64894Y14604D01*
X65114Y13388D02*
X65612Y13886D01*
X68502Y11746D02*
X69251Y12496D01*
X66502Y10465D02*
X67498Y11462D01*
X65982Y17563D02*
X83043Y502D01*
X67498Y8902D02*
Y11999D01*
X63442Y17948D02*
X69498Y11891D01*
X62689Y16808D02*
X67498Y11999D01*
X65982Y18282D02*
X83762Y502D01*
X66502Y9028D02*
X67498Y10025D01*
X66502Y9859D02*
X67459Y8902D01*
X66752Y8560D02*
X67498Y9306D01*
X66502Y9746D02*
X67498Y10743D01*
X66502Y11296D02*
X67498Y10299D01*
X66502Y10577D02*
X67498Y9580D01*
X66502Y11499D02*
Y12001D01*
Y11499D02*
Y12001D01*
Y11183D02*
X67408Y12090D01*
X66251Y12252D02*
X66502Y12001D01*
X66251Y12252D02*
X66502Y12001D01*
Y11902D02*
X67049Y12449D01*
X66502Y9140D02*
X66740Y8902D01*
X66502D02*
Y11499D01*
X67248Y7552D02*
Y8902D01*
X65498D02*
Y11499D01*
X65248Y8902D02*
X65498D01*
X65248Y7552D02*
Y8902D01*
X82498Y7501D02*
X82749Y7752D01*
X82498Y7501D02*
X82749Y7752D01*
X82498Y6999D02*
Y7501D01*
Y6999D02*
Y7501D01*
X70752Y7448D02*
Y7552D01*
X70502Y8902D02*
X70752D01*
Y7448D02*
Y7552D01*
X83502Y6764D02*
Y6999D01*
X82498Y6764D02*
Y6999D01*
X83502Y6764D02*
X83632D01*
X82368D02*
X82498D01*
X81736Y6132D02*
X82368Y6764D01*
X69248Y6098D02*
X69382D01*
X68752Y7448D02*
Y7552D01*
Y7448D02*
Y7552D01*
X69248Y7448D02*
Y7552D01*
X68752Y7686D02*
X69248Y8183D01*
X68752Y8327D02*
X69248Y7830D01*
X68752Y7609D02*
X69248Y7112D01*
X68752Y6249D02*
X69248Y6746D01*
Y7448D02*
Y7552D01*
Y6098D02*
Y7448D01*
X68752Y6890D02*
X69248Y6394D01*
X68752Y6967D02*
X69248Y7464D01*
X68752Y6098D02*
Y7448D01*
X81736Y4868D02*
Y6132D01*
X70752Y6327D02*
X76577Y502D01*
X75936D02*
X82498Y7064D01*
X76654Y502D02*
X81736Y5583D01*
X70752Y8483D02*
X78733Y502D01*
X70752Y7764D02*
X78014Y502D01*
X70752Y7046D02*
X77296Y502D01*
X82368Y4236D02*
X83632D01*
X81736Y4868D02*
X82368Y4236D01*
X79528Y502D02*
X83262Y4236D01*
X78091Y502D02*
X82097Y4507D01*
X77373Y502D02*
X81737Y4866D01*
X78810Y502D02*
X82544Y4236D01*
X71027Y5160D02*
Y5640D01*
X70752Y6098D02*
Y7448D01*
X71027Y5334D02*
X75859Y502D01*
X70619Y6098D02*
X70752D01*
X70225Y4698D02*
X74422Y502D01*
X70847Y4795D02*
X75140Y502D01*
X69435Y4698D02*
X70565D01*
X69507D02*
X73704Y502D01*
X68752Y8404D02*
X69248Y8901D01*
X68752Y7552D02*
Y8902D01*
X67248Y7448D02*
Y7552D01*
Y7448D02*
Y7552D01*
Y8902D02*
X67498D01*
X66752Y7123D02*
X67248Y7620D01*
X66752Y7454D02*
X67248Y6957D01*
X68603Y6100D02*
X68752Y6249D01*
X67248Y6238D02*
X67388Y6099D01*
X67248Y6098D02*
X67382D01*
X66752Y6735D02*
X67248Y6238D01*
X66752Y6404D02*
X67248Y6901D01*
Y6098D02*
Y7448D01*
X66752Y7841D02*
X67248Y8338D01*
X66752Y8890D02*
X67248Y8394D01*
X66752Y8172D02*
X67248Y7675D01*
X66752Y7552D02*
Y8902D01*
X66502D02*
X66752D01*
X65248Y7448D02*
Y7552D01*
X66752Y7448D02*
Y7552D01*
Y7448D02*
Y7552D01*
X66619Y6098D02*
X66752D01*
X65248D02*
Y7448D01*
Y7552D01*
Y6098D02*
X65382D01*
X68752Y6172D02*
X69042Y5882D01*
X68619Y6098D02*
X68752D01*
X68750Y4737D02*
X72985Y502D01*
X64441D02*
X68645Y4705D01*
X67342Y4708D02*
X71548Y502D01*
X66629Y4703D02*
X70830Y502D01*
X67435Y4698D02*
X68565D01*
X68070D02*
X72267Y502D01*
X65878D02*
X70075Y4698D01*
X65160Y502D02*
X69362Y4704D01*
X65915Y4698D02*
X70112Y502D01*
X66954Y5888D02*
X67248Y6183D01*
X66752Y6098D02*
Y7448D01*
X64973Y5160D02*
Y5640D01*
X65435Y4698D02*
X66565D01*
X63004Y502D02*
X67243Y4740D01*
X63723Y502D02*
X67919Y4698D01*
X57458Y28722D02*
X68735Y39998D01*
X57196D02*
X68473Y28722D01*
X57915Y39998D02*
X69600Y28313D01*
X58177Y28722D02*
X69454Y39998D01*
X56478D02*
X67755Y28722D01*
X55946Y28646D02*
X67298Y39998D01*
X56305Y28287D02*
X68017Y39998D01*
X61001Y28672D02*
X72327Y39998D01*
X60332Y28722D02*
X71609Y39998D01*
X61360Y28313D02*
X73046Y39998D01*
X59351D02*
X70628Y28722D01*
X58633Y39998D02*
X69960Y28672D01*
X58653Y28479D02*
X70172Y39998D01*
X55303Y28722D02*
X66580Y39998D01*
X54323D02*
X65599Y28722D01*
X55759Y39998D02*
X67253Y28505D01*
X53604Y39998D02*
X64905Y28698D01*
X52167Y39998D02*
X63444Y28722D01*
X51449Y39998D02*
X62726Y28722D01*
X52886Y39998D02*
X64546Y28338D01*
X59849Y28722D02*
X60951D01*
X57309D02*
X58411D01*
X56758Y28171D02*
X57309Y28722D01*
X54769D02*
X55871D01*
X54218Y28171D02*
X54769Y28722D01*
X55871D02*
X56422Y28171D01*
X62225Y39998D02*
X74538Y27685D01*
X60951Y28722D02*
X61502Y28171D01*
X61507Y39998D02*
X80404Y21102D01*
X60788Y39998D02*
X79927Y20860D01*
X58962Y28069D02*
X70891Y39998D01*
X55041D02*
X66918Y28121D01*
X60070Y39998D02*
X79618Y20450D01*
X61838Y28171D02*
X62389Y28722D01*
X61502Y27790D02*
X61838Y27454D01*
Y27069D02*
Y28171D01*
X61502Y27736D02*
X61838Y28073D01*
X61502Y27069D02*
Y28171D01*
X60615Y21102D02*
X66918Y27405D01*
X59298Y28171D02*
X59849Y28722D01*
X58411D02*
X58962Y28171D01*
Y27069D02*
Y28171D01*
X56422Y27069D02*
Y28171D01*
X54218Y27069D02*
Y28171D01*
X56758Y27069D02*
Y28171D01*
X58962Y27457D02*
X59298Y27120D01*
X58962Y27351D02*
X59298Y27688D01*
Y27069D02*
Y28171D01*
X56422Y27842D02*
X56758Y27505D01*
X56422Y27685D02*
X56758Y28022D01*
X51342Y27893D02*
X58133Y21102D01*
X47401Y28722D02*
X58677Y39998D01*
X46420D02*
X57697Y28722D01*
X48575Y39998D02*
X59852Y28722D01*
X48119D02*
X59396Y39998D01*
X45837Y28595D02*
X57241Y39998D01*
X45245Y28722D02*
X56522Y39998D01*
X45702D02*
X57144Y28556D01*
X50892Y28621D02*
X62269Y39998D01*
X50274Y28722D02*
X61551Y39998D01*
X50731D02*
X62198Y28531D01*
X4500Y39998D02*
X94500D01*
X49294D02*
X60570Y28722D01*
X48544Y28428D02*
X60114Y39998D01*
X40216Y28722D02*
X51493Y39998D01*
X39236D02*
X50513Y28722D01*
X40783Y28570D02*
X52212Y39998D01*
X38517D02*
X49794Y28722D01*
X38061D02*
X49338Y39998D01*
X37799D02*
X49382Y28415D01*
X44265Y39998D02*
X55542Y28722D01*
X43546Y39998D02*
X54823Y28722D01*
X49689D02*
X50791D01*
X43090D02*
X54367Y39998D01*
X42372Y28722D02*
X53648Y39998D01*
X43490Y28403D02*
X55085Y39998D01*
X47857D02*
X59491Y28364D01*
X46196Y28236D02*
X57959Y39998D01*
X48802Y27967D02*
X60833Y39998D01*
X47138D02*
X59298Y27838D01*
X40673Y39998D02*
X59709Y20962D01*
X44983Y39998D02*
X56785Y28197D01*
X39954Y39998D02*
X59350Y20603D01*
X51251Y28261D02*
X62988Y39998D01*
X50012D02*
X61839Y28171D01*
X51342Y27634D02*
X63706Y39998D01*
X45979Y20834D02*
X65143Y39998D01*
X45528Y21102D02*
X64425Y39998D01*
X46262Y20398D02*
X65862Y39998D01*
X42828D02*
X54437Y28389D01*
X42109Y39998D02*
X54218Y27889D01*
X41391Y39998D02*
X54218Y27171D01*
X41142Y28210D02*
X52930Y39998D01*
X38435Y28377D02*
X50056Y39998D01*
X38642Y27865D02*
X50775Y39998D01*
X50791Y28722D02*
X51342Y28171D01*
X49138D02*
X49689Y28722D01*
X51342Y27069D02*
Y28171D01*
X43722Y27916D02*
X55804Y39998D01*
X48802Y27249D02*
X49138Y27586D01*
X46262Y19680D02*
X54218Y27637D01*
X58796Y26904D02*
X64764Y20936D01*
X61838Y27069D02*
X62389Y26518D01*
X61142Y20910D02*
X67110Y26878D01*
X58794Y20718D02*
X64762Y26686D01*
X58435Y21077D02*
X64403Y27045D01*
X56422Y27123D02*
X62443Y21102D01*
X58437Y26545D02*
X64405Y20577D01*
X61501Y20551D02*
X67469Y26519D01*
X59900Y26518D02*
X65317Y21102D01*
X61838Y20551D02*
X62389Y21102D01*
X57745Y26518D02*
X63162Y21102D01*
X57741D02*
X63158Y26518D01*
X59896Y21102D02*
X65313Y26518D01*
X59298Y27120D02*
X59900Y26518D01*
X58411D02*
X58962Y27069D01*
X60951Y26518D02*
X61502Y27069D01*
X59298D02*
X59849Y26518D01*
X56758Y27069D02*
X57309Y26518D01*
X55871D02*
X56422Y27069D01*
X56088Y20885D02*
X62055Y26852D01*
X59849Y26518D02*
X60951D01*
X57309Y21102D02*
X58411D01*
X59849D02*
X60951D01*
X56089Y26737D02*
X62057Y20769D01*
X57309Y26518D02*
X58411D01*
X55871Y21102D02*
X56422Y20551D01*
X60951Y21102D02*
X61502Y20551D01*
X59298Y20504D02*
X59896Y21102D01*
X61502Y19449D02*
Y20551D01*
X59298Y19449D02*
Y20551D01*
X56422Y20501D02*
X62439Y26518D01*
X59298Y20551D02*
X59849Y21102D01*
X55589Y26518D02*
X61838Y20269D01*
X61502Y19888D02*
X61838Y19551D01*
X61502Y19833D02*
X61838Y20170D01*
Y19449D02*
Y20551D01*
X59298Y19449D02*
X59849Y18898D01*
X59367Y19135D02*
X59490Y19258D01*
X59849Y18898D02*
X60951D01*
X58962Y20167D02*
X59298Y20504D01*
X58411Y21102D02*
X58962Y20551D01*
Y19541D02*
Y20551D01*
X56758D02*
X57309Y21102D01*
X56422Y19449D02*
Y20551D01*
X56758Y19449D02*
Y20551D01*
X59008Y19495D02*
X59298Y19785D01*
X58962Y20273D02*
X59298Y19936D01*
X57309Y18898D02*
X58099D01*
X56422Y19939D02*
X56758Y19602D01*
X56422Y19782D02*
X56758Y20119D01*
Y19449D02*
X57309Y18898D01*
X51342Y27174D02*
X57414Y21102D01*
X54218Y27069D02*
X54769Y26518D01*
X55586Y21102D02*
X61838Y27354D01*
X53381Y21052D02*
X59348Y27019D01*
X50557Y21102D02*
X56758Y27303D01*
X49838Y21102D02*
X55255Y26518D01*
X51033Y20859D02*
X57001Y26827D01*
X54867Y21102D02*
X60284Y26518D01*
X54769Y21102D02*
X55871D01*
X54871Y26518D02*
X60288Y21102D01*
X54769Y26518D02*
X55871D01*
X49842D02*
X55259Y21102D01*
X52712D02*
X58129Y26518D01*
X50791D02*
X51342Y27069D01*
X49138D02*
X49689Y26518D01*
X48687Y26955D02*
X54655Y20987D01*
X46262Y27225D02*
X52385Y21102D01*
X43633Y26980D02*
X49600Y21013D01*
X45980Y26788D02*
X51948Y20820D01*
X49689Y21102D02*
X50791D01*
X49689Y26518D02*
X50791D01*
X52229Y21102D02*
X53331D01*
X44813Y26518D02*
X50230Y21102D01*
X44810D02*
X50226Y26518D01*
X47687D02*
X53104Y21102D01*
X53740Y20693D02*
X59707Y26660D01*
X53331Y21102D02*
X53882Y20551D01*
X51342Y20449D02*
X57411Y26518D01*
X54218Y20551D02*
X54769Y21102D01*
X51035Y26762D02*
X57002Y20795D01*
X48328Y26596D02*
X54296Y20628D01*
X50561Y26518D02*
X56758Y20321D01*
X54218Y19449D02*
Y20551D01*
X53882Y20324D02*
X54218Y19987D01*
X54769Y18898D02*
X55871D01*
X53882Y20116D02*
X54218Y20453D01*
X53882Y19449D02*
Y20551D01*
X51678Y19449D02*
X52229Y18898D01*
X50791Y21102D02*
X51342Y20551D01*
X49138D02*
X49689Y21102D01*
X51678Y20551D02*
X52229Y21102D01*
X45532Y26518D02*
X51678Y20372D01*
X43274Y26621D02*
X49241Y20654D01*
X42658Y26518D02*
X49138Y20038D01*
X51342Y19990D02*
X51678Y19653D01*
X51342Y19731D02*
X51678Y20068D01*
Y19449D02*
Y20551D01*
X51342Y19449D02*
Y20551D01*
X49138Y19449D02*
X49689Y18898D01*
X50791D02*
X51342Y19449D01*
X26304Y39998D02*
X37581Y28722D01*
X7902Y34483D02*
X13417Y39998D01*
X28459D02*
X39736Y28722D01*
X25586Y39998D02*
X36926Y28658D01*
X7902Y35920D02*
X11980Y39998D01*
X7902Y36638D02*
X11262Y39998D01*
X7902Y35202D02*
X12698Y39998D01*
X36362D02*
X47639Y28722D01*
X34207Y39998D02*
X45484Y28722D01*
X37343D02*
X48619Y39998D01*
X31333D02*
X42610Y28722D01*
X29178Y39998D02*
X40455Y28722D01*
X33488Y39998D02*
X44765Y28722D01*
X6996Y38606D02*
X8388Y39998D01*
X6637Y38966D02*
X7669Y39998D01*
X7714Y37888D02*
X9825Y39998D01*
X7355Y38247D02*
X9106Y39998D01*
X5636Y39402D02*
X6233Y39998D01*
X5470D02*
X6067Y39402D01*
X6278Y39325D02*
X6951Y39998D01*
X7902Y37357D02*
X10543Y39998D01*
X7902Y34299D02*
Y37701D01*
X6201Y32598D02*
X7902Y34299D01*
X6067Y39402D02*
X7902Y37567D01*
X6201Y39402D02*
X7902Y37701D01*
X6017Y32598D02*
X7902Y34483D01*
X30615Y39998D02*
X41980Y28633D01*
X27741Y39998D02*
X39274Y28466D01*
X29896Y39998D02*
X41621Y28274D01*
X27023Y39998D02*
X38978Y28043D01*
X21275Y39998D02*
X40172Y21102D01*
X20557Y39998D02*
X39491Y21064D01*
X19838Y39998D02*
X39132Y20705D01*
X35644Y39998D02*
X47035Y28607D01*
X38978Y28171D02*
X39529Y28722D01*
X37081Y39998D02*
X49138Y27941D01*
X34925Y39998D02*
X46676Y28248D01*
X32770Y39998D02*
X44328Y28440D01*
X32052Y39998D02*
X44058Y27992D01*
X24149Y39998D02*
X36438Y27709D01*
X16246Y39998D02*
X35143Y21102D01*
X15528Y39998D02*
X34437Y21089D01*
X14809Y39998D02*
X34078Y20730D01*
X14091Y39998D02*
X33898Y20191D01*
X13373Y39998D02*
X33898Y19473D01*
X36438Y28171D02*
X36989Y28722D01*
X24867Y39998D02*
X36567Y28299D01*
X19120Y39998D02*
X38017Y21102D01*
X18402Y39998D02*
X37298Y21102D01*
X17683Y39998D02*
X36785Y20897D01*
X16965Y39998D02*
X36438Y20525D01*
X4199Y39402D02*
X4796Y39998D01*
X4058Y39974D02*
X4630Y39402D01*
X4917D02*
X5514Y39998D01*
X4752D02*
X5348Y39402D01*
X3481D02*
X4052Y39973D01*
X3454Y39859D02*
X3912Y39402D01*
X2799D02*
X6201D01*
X2921Y39674D02*
X3193Y39402D01*
X2446Y39430D02*
X2637Y39239D01*
X1098Y37701D02*
X2799Y39402D01*
X2021Y39137D02*
X2278Y38880D01*
X751Y37391D02*
X3109Y39749D01*
X1643Y38797D02*
X1919Y38521D01*
X1310Y38411D02*
X1559Y38162D01*
X1098Y34299D02*
Y37701D01*
X1025Y37978D02*
X1200Y37803D01*
X791Y37493D02*
X1098Y37186D01*
X527Y36448D02*
X1098Y37019D01*
X515Y36332D02*
X1098Y35749D01*
X616Y36950D02*
X1098Y36467D01*
X502Y34909D02*
X1098Y34312D01*
X502Y35627D02*
X1098Y35031D01*
X502Y35704D02*
X1098Y36301D01*
X502Y34986D02*
X1098Y35583D01*
X502Y23491D02*
X17009Y39998D01*
X502Y24209D02*
X16291Y39998D01*
X502Y22054D02*
X18446Y39998D01*
X502Y22773D02*
X17727Y39998D01*
X502Y25646D02*
X14854Y39998D01*
X502Y26365D02*
X14135Y39998D01*
X502Y24928D02*
X15572Y39998D01*
X2799Y32598D02*
X6201D01*
X502Y27083D02*
X6017Y32598D01*
X502Y19181D02*
X21319Y39998D01*
X502Y20617D02*
X19883Y39998D01*
X502Y21336D02*
X19164Y39998D01*
X502Y19899D02*
X20601Y39998D01*
X1098Y34312D02*
X2812Y32598D01*
X1098Y34299D02*
X2799Y32598D01*
X502Y32112D02*
X1894Y33504D01*
X502Y33549D02*
X1175Y34222D01*
X502Y34267D02*
X1098Y34864D01*
X502Y32831D02*
X1534Y33863D01*
X502Y28520D02*
X4580Y32598D01*
X502Y29238D02*
X3862Y32598D01*
X502Y27802D02*
X5298Y32598D01*
X502Y30675D02*
X2612Y32786D01*
X502Y31394D02*
X2253Y33145D01*
X502Y29957D02*
X3143Y32598D01*
X47149Y28722D02*
X48251D01*
X46598Y28171D02*
X47149Y28722D01*
X48251D02*
X48802Y28171D01*
X46262Y27069D02*
Y28171D01*
X44609Y28722D02*
X45711D01*
X44058Y28171D02*
X44609Y28722D01*
X45711D02*
X46262Y28171D01*
X48802Y27559D02*
X49138Y27222D01*
X48802Y27069D02*
Y28171D01*
X49138Y27069D02*
Y28171D01*
X46262Y27583D02*
X46598Y27919D01*
X46262Y27944D02*
X46598Y27607D01*
Y27069D02*
Y28171D01*
X43171Y28722D02*
X43722Y28171D01*
X42069Y28722D02*
X43171D01*
X41518Y27069D02*
Y28171D01*
X42069Y28722D01*
X40631D02*
X41182Y28171D01*
Y27069D02*
Y28171D01*
X43722Y27198D02*
X44058Y27535D01*
X43722Y27610D02*
X44058Y27273D01*
Y27069D02*
Y28171D01*
X41182Y27532D02*
X41518Y27868D01*
X41182Y27995D02*
X41518Y27658D01*
X43722Y27069D02*
Y28171D01*
X46598Y27069D02*
X47149Y26518D01*
X45711D02*
X46262Y27069D01*
X48251Y26518D02*
X48802Y27069D01*
X41182Y19629D02*
X48071Y26518D01*
X40924Y20808D02*
X46892Y26776D01*
X40499Y21102D02*
X46598Y27201D01*
X41182Y20347D02*
X47353Y26518D01*
X47149D02*
X48251D01*
X46262Y19449D02*
Y20551D01*
X49138Y19449D02*
Y20551D01*
X45711Y21102D02*
X46262Y20551D01*
X44609Y21102D02*
X45711D01*
X44609Y18898D02*
X45711D01*
X43171Y26518D02*
X43722Y27069D01*
X42069Y26518D02*
X43171D01*
X44058Y27069D02*
X44609Y26518D01*
X41518Y27069D02*
X42069Y26518D01*
X40631D02*
X41182Y27069D01*
X39784Y26518D02*
X45201Y21102D01*
X44609Y26518D02*
X45711D01*
X44058Y19449D02*
Y20551D01*
Y19449D02*
X44609Y18898D01*
X44058Y20551D02*
X44609Y21102D01*
X40631D02*
X41182Y20551D01*
Y19449D02*
Y20551D01*
X39529Y28722D02*
X40631D01*
X38978Y27069D02*
Y28171D01*
X38578Y27006D02*
X44546Y21038D01*
X38978Y27069D02*
X39529Y26518D01*
X38217Y20975D02*
X44185Y26943D01*
X35470Y21102D02*
X41518Y27150D01*
X35870Y20783D02*
X41837Y26750D01*
X39529Y21102D02*
X40631D01*
X39529Y26518D02*
X40631D01*
X39781Y21102D02*
X45197Y26518D01*
X37625Y21102D02*
X43042Y26518D01*
X34752Y21102D02*
X40168Y26518D01*
X38219Y26647D02*
X44187Y20679D01*
X38642Y27147D02*
X38978Y27484D01*
X38642Y27661D02*
X38978Y27324D01*
X38642Y27069D02*
Y28171D01*
X38091Y28722D02*
X38642Y28171D01*
X36989Y28722D02*
X38091D01*
X36438Y27069D02*
Y28171D01*
X38091Y26518D02*
X38642Y27069D01*
X38013Y26518D02*
X38642Y27147D01*
X36989Y21102D02*
X38091D01*
X36989Y26518D02*
X38091D01*
X36438Y27069D02*
X36989Y26518D01*
X34449Y21102D02*
X35551D01*
X38576Y20616D02*
X44544Y26584D01*
X38091Y21102D02*
X38642Y20551D01*
X38978D02*
X39529Y21102D01*
X38642Y19449D02*
Y20551D01*
X36102Y20296D02*
X42324Y26518D01*
X38017Y21102D02*
X38642Y20477D01*
X37629Y26518D02*
X44058Y20089D01*
X38978Y19449D02*
Y20551D01*
X38642Y19963D02*
X38978Y20299D01*
X39529Y18898D02*
X40631D01*
X38642Y20477D02*
X38978Y20140D01*
X36989Y18898D02*
X38091D01*
X38642Y19449D01*
X36438Y20551D02*
X36989Y21102D01*
X36102Y19449D02*
Y20551D01*
X36438Y19449D02*
Y20551D01*
X35551Y21102D02*
X36102Y20551D01*
X33898D02*
X34449Y21102D01*
X33898Y19449D02*
Y20551D01*
X36102Y19578D02*
X36438Y19915D01*
X36102Y20143D02*
X36438Y19806D01*
Y19449D02*
X36989Y18898D01*
X33898Y19473D02*
X34473Y18898D01*
X33898Y19449D02*
X34449Y18898D01*
X35551D02*
X36102Y19449D01*
X58962Y19541D02*
X66251Y12252D01*
X60445Y18058D02*
X61838Y19452D01*
X61502Y27072D02*
X82089Y6485D01*
X58962Y19554D02*
X67498Y11017D01*
X55871Y18898D02*
X56422Y19449D01*
X54218D02*
X54769Y18898D01*
X53882Y19605D02*
X65248Y8238D01*
X61838Y19449D02*
X62389Y18898D01*
X60951D02*
X61502Y19449D01*
X61362Y19309D02*
X62438Y18233D01*
X56307Y19335D02*
X65498Y10144D01*
X60804Y17699D02*
X62196Y19091D01*
X53600Y19168D02*
X65248Y7520D01*
X33902Y9475D02*
X44058Y19632D01*
X33543Y9835D02*
X44058Y20351D01*
X34152Y6133D02*
X54653Y26635D01*
X34152Y6852D02*
X54294Y26994D01*
X32824Y10553D02*
X49239Y26968D01*
X30324Y10927D02*
X38978Y19581D01*
X33183Y10194D02*
X49599Y26609D01*
X45711Y18898D02*
X46262Y19449D01*
X40631Y18898D02*
X41182Y19449D01*
X53331Y18898D02*
X53882Y19449D01*
X38978D02*
X39529Y18898D01*
X31042Y10927D02*
X39272Y19156D01*
X33902Y8757D02*
X44326Y19181D01*
X60618Y26518D02*
X81736Y5401D01*
X61144Y26711D02*
X81736Y6119D01*
X46262Y20041D02*
X65801Y502D01*
X41182Y20092D02*
X60772Y502D01*
X40926Y26814D02*
X67238Y502D01*
X40503Y26518D02*
X66519Y502D01*
X41182Y27276D02*
X67956Y502D01*
X51253Y19360D02*
X64973Y5640D01*
X45839Y19027D02*
X64364Y502D01*
X46198Y19386D02*
X65083Y502D01*
X40785Y19052D02*
X59335Y502D01*
X38642Y19758D02*
X57898Y502D01*
X41144Y19411D02*
X60054Y502D01*
X36089Y19437D02*
X55025Y502D01*
X34986D02*
X54218Y19734D01*
X37860Y502D02*
X56783Y19425D01*
X29957Y502D02*
X49138Y19683D01*
X29238Y502D02*
X49138Y20402D01*
X32831Y502D02*
X51728Y19399D01*
X38437Y19245D02*
X57180Y502D01*
X35730Y19078D02*
X54306Y502D01*
X38578D02*
X57142Y19066D01*
X33549Y502D02*
X52087Y19040D01*
X30675Y502D02*
X49381Y19207D01*
X35704Y502D02*
X54435Y19232D01*
X7410Y6692D02*
X40717Y39998D01*
X7051Y7051D02*
X39998Y39998D01*
X7902Y5746D02*
X42154Y39998D01*
X7770Y6333D02*
X41435Y39998D01*
X6692Y7410D02*
X39280Y39998D01*
X6333Y7770D02*
X38562Y39998D01*
X7051Y7051D02*
X39998Y39998D01*
X23140Y10927D02*
X39130Y26917D01*
X22421Y10927D02*
X38013Y26518D01*
X23858Y10927D02*
X39490Y26558D01*
X10556Y5527D02*
X45027Y39998D01*
X9837Y5527D02*
X44309Y39998D01*
X8025Y5152D02*
X42872Y39998D01*
X3591Y7902D02*
X35688Y39998D01*
X2873Y7902D02*
X34969Y39998D01*
X4310Y7902D02*
X36406Y39998D01*
X502Y6967D02*
X33533Y39998D01*
X502Y7686D02*
X32814Y39998D01*
X502Y6249D02*
X34251Y39998D01*
X26013Y10927D02*
X34217Y19130D01*
X25295Y10927D02*
X33898Y19530D01*
X28169Y10927D02*
X36565Y19323D01*
X5028Y7902D02*
X37125Y39998D01*
X24577Y10927D02*
X33898Y20248D01*
X5746Y7902D02*
X37843Y39998D01*
X9062D02*
X48559Y502D01*
X10802Y3617D02*
X47183Y39998D01*
X10499D02*
X49996Y502D01*
X9781Y39998D02*
X49277Y502D01*
X8344Y39998D02*
X47840Y502D01*
X7625Y39998D02*
X47122Y502D01*
X8404D02*
X47901Y39998D01*
X22712D02*
X62209Y502D01*
X21994Y39998D02*
X61490Y502D01*
X23431Y39998D02*
X62927Y502D01*
X11936Y39998D02*
X51433Y502D01*
X11217Y39998D02*
X50714Y502D01*
X12654Y39998D02*
X52151Y502D01*
X10802Y5054D02*
X45746Y39998D01*
X8744Y5152D02*
X43591Y39998D01*
X10802Y4336D02*
X46464Y39998D01*
X6907D02*
X46404Y502D01*
X6188Y39998D02*
X45685Y502D01*
X7902Y37567D02*
X44967Y502D01*
X10559D02*
X36783Y26725D01*
X9841Y502D02*
X36438Y27099D01*
X11278Y502D02*
X37295Y26518D01*
X7902Y36848D02*
X44248Y502D01*
X7902Y36130D02*
X43530Y502D01*
X9123D02*
X36438Y27817D01*
X60336Y18898D02*
X67498Y11736D01*
X58099Y18898D02*
X65498Y11499D01*
X55948Y18976D02*
X65498Y9425D01*
X57462Y18898D02*
X65498Y10862D01*
X55307Y18898D02*
X65304Y8902D01*
X53152Y18898D02*
X65248Y6801D01*
X52433Y18898D02*
X65263Y6068D01*
X52228Y502D02*
X64362Y12636D01*
X51510Y502D02*
X64003Y12995D01*
X52946Y502D02*
X64721Y12276D01*
X50278Y18898D02*
X68675Y502D01*
X50073D02*
X63284Y13713D01*
X50791Y502D02*
X63644Y13354D01*
X61003Y18950D02*
X62438Y17514D01*
X60085Y18417D02*
X60567Y18898D01*
X61522Y16980D02*
X62438Y17896D01*
X61163Y17339D02*
X62438Y18615D01*
X52229Y18898D02*
X53331D01*
X49689D02*
X50791D01*
X59726Y18776D02*
X59849Y18899D01*
X62241Y16262D02*
X62738Y16759D01*
X61881Y16621D02*
X62438Y17178D01*
X49354Y502D02*
X62925Y14072D01*
X47917Y502D02*
X62207Y14791D01*
X44325Y502D02*
X60411Y16587D01*
X48636Y502D02*
X62566Y14432D01*
X55820Y502D02*
X65498Y10180D01*
X55102Y502D02*
X65498Y10898D01*
X56538Y502D02*
X65498Y9462D01*
X57257Y502D02*
X65248Y8493D01*
X50894Y19001D02*
X69393Y502D01*
X53665D02*
X65080Y11917D01*
X54383Y502D02*
X65440Y11558D01*
X61567Y502D02*
X65764Y4698D01*
X60849Y502D02*
X65147Y4799D01*
X62286Y502D02*
X66483Y4698D01*
X58694Y502D02*
X65248Y7056D01*
X57975Y502D02*
X65248Y7775D01*
X59412Y502D02*
X65248Y6338D01*
X42888Y502D02*
X59692Y17305D01*
X42170Y502D02*
X59333Y17665D01*
X45249Y18898D02*
X63646Y502D01*
X40220Y18898D02*
X58617Y502D01*
X40733D02*
X58615Y18383D01*
X41452Y502D02*
X58974Y18024D01*
X47199Y502D02*
X61847Y15150D01*
X46481Y502D02*
X61488Y15509D01*
X60131Y502D02*
X64973Y5345D01*
X45044Y502D02*
X60770Y16228D01*
X43607Y502D02*
X60051Y16946D01*
X45762Y502D02*
X61129Y15869D01*
X29606Y10927D02*
X37577Y18898D01*
X34449D02*
X35551D01*
X32465Y10912D02*
X40451Y18898D01*
X31761Y10927D02*
X39733Y18898D01*
X27450Y10927D02*
X35422Y18898D01*
X26732Y10927D02*
X34704Y18898D01*
X28887Y10927D02*
X36924Y18964D01*
X34029Y7448D02*
X45480Y18898D01*
X33902Y8038D02*
X44762Y18898D01*
X33326Y4848D02*
X34152Y5674D01*
X4500Y502D02*
X94500D01*
X32112D02*
X50509Y18898D01*
X32717Y4848D02*
X37064Y502D01*
X33201Y10177D02*
X33902Y9476D01*
X32451Y10927D02*
X33152Y10226D01*
X33201Y10177D02*
X33902Y9476D01*
X32451Y10927D02*
X33152Y10226D01*
X31049Y10927D02*
X32451D01*
X32387D02*
X33902Y9412D01*
Y7576D02*
X34152Y7326D01*
X33902Y7576D02*
Y8074D01*
X34152Y5674D02*
Y7326D01*
X33902Y8074D02*
Y9476D01*
Y8074D02*
Y9476D01*
X31674Y4848D02*
X33326D01*
X36423Y502D02*
X54819Y18898D01*
X35191D02*
X53588Y502D01*
X37346Y18898D02*
X55743Y502D01*
X37141D02*
X55538Y18898D01*
X34267Y502D02*
X52664Y18898D01*
X31394Y502D02*
X49791Y18898D01*
X34473D02*
X52869Y502D01*
X39296D02*
X57693Y18898D01*
X38065D02*
X56462Y502D01*
X40015D02*
X58255Y18742D01*
X33902Y9412D02*
X42812Y502D01*
X33902Y8693D02*
X42093Y502D01*
X33902Y7975D02*
X41375Y502D01*
X28006Y8123D02*
X35627Y502D01*
X27287Y8123D02*
X34909Y502D01*
X34152Y7006D02*
X40656Y502D01*
X25850Y8123D02*
X33472Y502D01*
X25132Y8123D02*
X32754Y502D01*
X26569Y8123D02*
X34190Y502D01*
X34099Y5622D02*
X39219Y502D01*
X33740Y5263D02*
X38501Y502D01*
X34152Y6288D02*
X39938Y502D01*
X31999Y4848D02*
X36346Y502D01*
X28520D02*
X32867Y4848D01*
X33381Y4903D02*
X37783Y502D01*
X7739Y34137D02*
X30950Y10927D01*
X7380Y33778D02*
X30231Y10927D01*
X7902Y35412D02*
X32387Y10927D01*
X7902Y34693D02*
X31668Y10927D01*
X6662Y33059D02*
X28794Y10927D01*
X6302Y32700D02*
X28076Y10927D01*
X7021Y33419D02*
X29513Y10927D01*
X31049D02*
X32451D01*
X23688D02*
X31049D01*
X23822Y8123D02*
X31049D01*
X4967Y32598D02*
X26639Y10927D01*
X4249Y32598D02*
X25921Y10927D01*
X5686Y32598D02*
X27358Y10927D01*
X22286D02*
X23688D01*
X22286D02*
X23688D01*
X21719Y10360D02*
X22286Y10927D01*
X21719Y10360D02*
X22286Y10927D01*
X3531Y32598D02*
X25202Y10927D01*
X2812Y32598D02*
X24484Y10927D01*
X21585Y10226D02*
X21719Y10360D01*
X21585Y10226D02*
X21719Y10360D01*
X21585Y10226D02*
X21719Y10360D01*
X21018Y8257D02*
Y9659D01*
X21585Y10226D01*
X21018Y9659D02*
X21585Y10226D01*
X21018Y8257D02*
Y9659D01*
X29442Y8123D02*
X30848Y6717D01*
X21336Y502D02*
X28958Y8123D01*
X22773Y502D02*
X30394Y8123D01*
X22054Y502D02*
X29676Y8123D01*
X19899Y502D02*
X27521Y8123D01*
X19181Y502D02*
X26802Y8123D01*
X20617Y502D02*
X28239Y8123D01*
X31098Y7576D02*
Y8074D01*
X30879Y8123D02*
X31098Y7904D01*
X30161Y8123D02*
X30903Y7381D01*
X23491Y502D02*
X31081Y8092D01*
X28724Y8123D02*
X30848Y5999D01*
X24413Y8123D02*
X32035Y502D01*
X11996D02*
X21018Y9524D01*
Y7576D02*
Y8257D01*
X12715Y502D02*
X21018Y8805D01*
X502Y18385D02*
X18385Y502D01*
X502Y17667D02*
X17667Y502D01*
X502Y16948D02*
X16948Y502D01*
X24072Y6829D02*
X25366Y8123D01*
X23961Y7437D02*
X24647Y8123D01*
X24072Y6111D02*
X26084Y8123D01*
X23822Y8016D02*
X23929Y8123D01*
X23822Y7576D02*
Y8123D01*
X13433Y502D02*
X21018Y8087D01*
X502Y13433D02*
X27067Y39998D01*
X502Y14152D02*
X26348Y39998D01*
X502Y11996D02*
X28504Y39998D01*
X502Y12715D02*
X27785Y39998D01*
X502Y15588D02*
X24912Y39998D01*
X502Y16307D02*
X24193Y39998D01*
X502Y14870D02*
X25630Y39998D01*
X502Y9123D02*
X31377Y39998D01*
X502Y34190D02*
X23765Y10927D01*
X502Y8404D02*
X32096Y39998D01*
X502Y10559D02*
X29941Y39998D01*
X502Y11278D02*
X29222Y39998D01*
X502Y9841D02*
X30659Y39998D01*
X502Y33472D02*
X23047Y10927D01*
X502Y32754D02*
X22329Y10927D01*
X502Y32035D02*
X21948Y10589D01*
X502Y17744D02*
X22756Y39998D01*
X502Y18462D02*
X22038Y39998D01*
X502Y17025D02*
X23475Y39998D01*
X502Y28443D02*
X21018Y7926D01*
X502Y29162D02*
X21018Y8645D01*
X502Y13356D02*
X5956Y7902D01*
X502Y31317D02*
X21589Y10229D01*
X502Y30598D02*
X21230Y9870D01*
X502Y29880D02*
X21018Y9363D01*
X502Y25569D02*
X25569Y502D01*
X502Y24851D02*
X24851Y502D01*
X502Y24133D02*
X24133Y502D01*
X502Y23414D02*
X23414Y502D01*
X502Y27725D02*
X20834Y7392D01*
X502Y27006D02*
X20768Y6739D01*
X502Y26288D02*
X20768Y6021D01*
X502Y20540D02*
X20540Y502D01*
X502Y19822D02*
X19822Y502D01*
X502Y19104D02*
X19104Y502D01*
X502Y22696D02*
X22696Y502D01*
X502Y21977D02*
X21977Y502D01*
X502Y21259D02*
X21259Y502D01*
X502Y14793D02*
X9768Y5527D01*
X502Y12638D02*
X5238Y7902D01*
X502Y14075D02*
X9398Y5178D01*
X502Y15512D02*
X10487Y5527D01*
X502Y4500D02*
Y36000D01*
Y16230D02*
X16230Y502D01*
X502Y9764D02*
X2582Y7684D01*
X502Y9046D02*
X2222Y7325D01*
X502Y8327D02*
X1863Y6966D01*
X502Y11919D02*
X4519Y7902D01*
X502Y11201D02*
X3801Y7902D01*
X502Y10483D02*
X3083Y7902D01*
X30848Y7326D02*
X31098Y7576D01*
X23822D02*
X24072Y7326D01*
X30848Y5674D02*
Y7326D01*
X24072Y5674D02*
Y7326D01*
X20768Y5674D02*
X21594Y4848D01*
X20768Y7326D02*
X21018Y7576D01*
X15588Y502D02*
X20768Y5682D01*
X23246Y4848D02*
X24072Y5674D01*
X21594Y4848D02*
X23246D01*
X30848Y5674D02*
X31674Y4848D01*
X17025Y502D02*
X21483Y4959D01*
X16307Y502D02*
X21124Y5319D01*
X17744Y502D02*
X22091Y4848D01*
X20768Y5674D02*
Y7326D01*
X9398Y5527D02*
X10802D01*
Y3473D02*
Y5527D01*
X7902Y5956D02*
X8706Y5152D01*
X7902Y5238D02*
X7988Y5152D01*
X9398D02*
Y5527D01*
Y3473D02*
X10802D01*
X9398D02*
Y3848D01*
X10658Y3473D02*
X10802Y3617D01*
X9291Y3848D02*
X9398Y3741D01*
X7902Y5152D02*
X9398D01*
X7902Y2873D02*
X8877Y3848D01*
X24209Y502D02*
X30848Y7141D01*
X24072Y6310D02*
X29880Y502D01*
X25646D02*
X30848Y5704D01*
X24928Y502D02*
X30848Y6422D01*
X23822Y7997D02*
X31317Y502D01*
X24030Y5633D02*
X29162Y502D01*
X24072Y7028D02*
X30598Y502D01*
X27083D02*
X31552Y4971D01*
X26365Y502D02*
X31193Y5330D01*
X27802Y502D02*
X32148Y4848D01*
X23312Y4914D02*
X27725Y502D01*
X22659Y4848D02*
X27006Y502D01*
X23671Y5274D02*
X28443Y502D01*
X18462D02*
X22809Y4848D01*
X14870Y502D02*
X20768Y6400D01*
X21941Y4848D02*
X26288Y502D01*
X10802Y5212D02*
X15512Y502D01*
X10802Y4493D02*
X14793Y502D01*
X14152D02*
X20768Y7118D01*
X10384Y3473D02*
X13356Y502D01*
X9666Y3473D02*
X12638Y502D01*
X10802Y3775D02*
X14075Y502D01*
X7902Y3801D02*
X11201Y502D01*
X7902Y3083D02*
X10483Y502D01*
X8573Y3848D02*
X11919Y502D01*
X6201Y7902D02*
X7902Y6201D01*
X2799Y7902D02*
X6201D01*
X7902Y5152D02*
Y6201D01*
X5956Y7902D02*
X7902Y5956D01*
X1098Y6201D02*
X2799Y7902D01*
X502Y7609D02*
X1504Y6606D01*
X1098Y6127D02*
X2873Y7902D01*
X7902Y3848D02*
X9398D01*
X7902Y3591D02*
X8159Y3848D01*
X7902Y2799D02*
Y3848D01*
X1673Y1673D02*
X1949Y1949D01*
X1336Y2055D02*
X1590Y2308D01*
X1673Y1673D02*
X1949Y1949D01*
X502Y4812D02*
X1098Y5409D01*
X502Y5454D02*
X1098Y4857D01*
Y2799D02*
Y6201D01*
X502Y6890D02*
X1145Y6247D01*
X502Y6172D02*
X1098Y5575D01*
X502Y5531D02*
X1098Y6127D01*
X808Y2964D02*
X1098Y3254D01*
X628Y3502D02*
X1098Y3972D01*
X1047Y2484D02*
X1230Y2667D01*
X520Y4113D02*
X1098Y4691D01*
X502Y4735D02*
X1098Y4138D01*
X535Y3983D02*
X1098Y3420D01*
X6967Y502D02*
X9939Y3473D01*
X7325Y2222D02*
X9046Y502D01*
X7686D02*
X10658Y3473D01*
X7684Y2582D02*
X9764Y502D01*
X6201Y1098D02*
X7902Y2799D01*
X6127Y1098D02*
X7902Y2873D01*
X6249Y502D02*
X9398Y3651D01*
X6606Y1504D02*
X7609Y502D01*
X6247Y1145D02*
X6890Y502D01*
X6966Y1863D02*
X8327Y502D01*
X2799Y1098D02*
X6201D01*
X5531Y502D02*
X6127Y1098D01*
X5575D02*
X6172Y502D01*
X2484Y1047D02*
X2667Y1230D01*
X2055Y1336D02*
X2308Y1590D01*
X2964Y808D02*
X3254Y1098D01*
X789Y3011D02*
X3011Y789D01*
X1098Y2799D02*
X2799Y1098D01*
X4812Y502D02*
X5409Y1098D01*
X4138D02*
X4735Y502D01*
X4857Y1098D02*
X5454Y502D01*
X3420Y1098D02*
X3983Y535D01*
X3502Y628D02*
X3972Y1098D01*
X4113Y520D02*
X4691Y1098D01*
D11*
X66000Y5400D02*
D03*
Y3600D02*
D03*
X68000Y5400D02*
D03*
Y3600D02*
D03*
X70000Y5400D02*
D03*
Y3600D02*
D03*
D12*
X66000Y6825D02*
D03*
Y8175D02*
D03*
X68000Y6825D02*
D03*
Y8175D02*
D03*
X70000Y6825D02*
D03*
Y8175D02*
D03*
D13*
X10100Y4500D02*
D03*
X11900D02*
D03*
D14*
X86250Y7750D02*
Y22090D01*
X85540Y7040D02*
X86250Y7750D01*
X85540Y5500D02*
Y7040D01*
X83000Y5500D02*
Y7250D01*
X85000Y9250D01*
Y20800D01*
X80720Y27620D02*
X86250Y22090D01*
X83550Y22250D02*
X83550D01*
X85000Y20800D01*
X78180Y27620D02*
X83550Y22250D01*
X71950Y3550D02*
X72000Y3500D01*
X70050Y3550D02*
X71950D01*
X70000Y3600D02*
X70050Y3550D01*
X68000Y3600D02*
X70000D01*
X66000D02*
X68000D01*
X57860Y19890D02*
Y20000D01*
Y19890D02*
X66000Y11750D01*
Y8175D02*
Y11750D01*
X68000Y8175D02*
Y12250D01*
X62940Y17310D02*
X68000Y12250D01*
X62940Y17310D02*
Y20000D01*
X70000Y8175D02*
Y12500D01*
X65480Y17020D02*
X70000Y12500D01*
X65480Y17020D02*
Y20000D01*
X66000Y5400D02*
Y6825D01*
X70000Y5400D02*
Y6825D01*
X68000Y5400D02*
Y6825D01*
D15*
X11900Y4500D02*
X13500D01*
X4500D02*
X10100D01*
D16*
X32500Y6500D02*
Y8775D01*
X31750Y9525D02*
X32500Y8775D01*
X22987Y9525D02*
X31750D01*
X22420Y8958D02*
X22987Y9525D01*
X22420Y6500D02*
Y8958D01*
D17*
X94500Y4500D02*
D03*
X4500D02*
D03*
X94500Y36000D02*
D03*
X4500D02*
D03*
D18*
X83260Y27620D02*
D03*
Y20000D02*
D03*
X80720Y27620D02*
D03*
Y20000D02*
D03*
X78180Y27620D02*
D03*
Y20000D02*
D03*
X75640Y27620D02*
D03*
Y20000D02*
D03*
X73100Y27620D02*
D03*
Y20000D02*
D03*
X70560Y27620D02*
D03*
Y20000D02*
D03*
X68020Y27620D02*
D03*
Y20000D02*
D03*
X65480Y27620D02*
D03*
Y20000D02*
D03*
X62940Y27620D02*
D03*
Y20000D02*
D03*
X60400Y27620D02*
D03*
Y20000D02*
D03*
X57860Y27620D02*
D03*
Y20000D02*
D03*
X55320Y27620D02*
D03*
Y20000D02*
D03*
X52780Y27620D02*
D03*
Y20000D02*
D03*
X50240Y27620D02*
D03*
Y20000D02*
D03*
X47700Y27620D02*
D03*
Y20000D02*
D03*
X45160Y27620D02*
D03*
Y20000D02*
D03*
X42620Y27620D02*
D03*
Y20000D02*
D03*
X40080Y27620D02*
D03*
Y20000D02*
D03*
X37540Y27620D02*
D03*
Y20000D02*
D03*
X35000Y27620D02*
D03*
Y20000D02*
D03*
D19*
X32500Y6500D02*
D03*
X37580D02*
D03*
X27500D02*
D03*
X22420D02*
D03*
D20*
X80460Y5500D02*
D03*
X83000D02*
D03*
X85540D02*
D03*
D21*
X72000Y3500D02*
D03*
X13500Y4500D02*
D03*
%TF.MD5,5c8a84934cbdef917edde3624efe2b78*%
M02*
