%TF.GenerationSoftware,Altium Limited,Altium Designer,25.2.1 (25)*%
G04 Layer_Color=255*
%FSLAX43Y43*%
%MOMM*%
%TF.SameCoordinates,27D013C5-8E9A-4B1D-A81B-7FE8227930E9*%
%TF.FilePolarity,Positive*%
%TF.FileFunction,Pads,Bot*%
%TF.Part,Single*%
G01*
G75*
%TA.AperFunction,ComponentPad*%
%ADD17C,6.000*%
%ADD18C,1.400*%
%ADD19C,2.500*%
%ADD20C,1.725*%
D17*
X94500Y4500D02*
D03*
X4500D02*
D03*
X94500Y36000D02*
D03*
X4500D02*
D03*
D18*
X83260Y27620D02*
D03*
Y20000D02*
D03*
X80720Y27620D02*
D03*
Y20000D02*
D03*
X78180Y27620D02*
D03*
Y20000D02*
D03*
X75640Y27620D02*
D03*
Y20000D02*
D03*
X73100Y27620D02*
D03*
Y20000D02*
D03*
X70560Y27620D02*
D03*
Y20000D02*
D03*
X68020Y27620D02*
D03*
Y20000D02*
D03*
X65480Y27620D02*
D03*
Y20000D02*
D03*
X62940Y27620D02*
D03*
Y20000D02*
D03*
X60400Y27620D02*
D03*
Y20000D02*
D03*
X57860Y27620D02*
D03*
Y20000D02*
D03*
X55320Y27620D02*
D03*
Y20000D02*
D03*
X52780Y27620D02*
D03*
Y20000D02*
D03*
X50240Y27620D02*
D03*
Y20000D02*
D03*
X47700Y27620D02*
D03*
Y20000D02*
D03*
X45160Y27620D02*
D03*
Y20000D02*
D03*
X42620Y27620D02*
D03*
Y20000D02*
D03*
X40080Y27620D02*
D03*
Y20000D02*
D03*
X37540Y27620D02*
D03*
Y20000D02*
D03*
X35000Y27620D02*
D03*
Y20000D02*
D03*
D19*
X32500Y6500D02*
D03*
X37580D02*
D03*
X27500D02*
D03*
X22420D02*
D03*
D20*
X80460Y5500D02*
D03*
X83000D02*
D03*
X85540D02*
D03*
%TF.MD5,2362db7442d944c589b113e2604a55c8*%
M02*
