%TF.GenerationSoftware,Altium Limited,Altium Designer,25.2.1 (25)*%
G04 Layer_Color=65535*
%FSLAX43Y43*%
%MOMM*%
%TF.SameCoordinates,EC6566CF-20FD-4289-836C-F72492794835*%
%TF.FilePolarity,Positive*%
%TF.FileFunction,Legend,Top*%
%TF.Part,Single*%
G01*
G75*
%TA.AperFunction,NonConductor*%
%ADD35C,0.000*%
%ADD36C,0.200*%
%ADD37C,0.250*%
%ADD38C,0.254*%
%ADD39C,0.127*%
%ADD40C,0.400*%
%ADD41C,0.300*%
G36*
X48046Y27583D02*
X48101D01*
Y27578D01*
X48130D01*
Y27574D01*
X48159D01*
Y27570D01*
X48180D01*
Y27566D01*
X48206D01*
Y27562D01*
X48214D01*
Y27557D01*
X48235D01*
Y27553D01*
X48252D01*
Y27549D01*
X48265D01*
Y27545D01*
X48281D01*
Y27541D01*
X48290D01*
Y27536D01*
X48302D01*
Y27532D01*
X48315D01*
Y27528D01*
X48323D01*
Y27524D01*
X48336D01*
Y27520D01*
X48344D01*
Y27515D01*
X48361D01*
Y27511D01*
X48365D01*
Y27507D01*
X48378D01*
Y27503D01*
X48382D01*
Y27499D01*
X48391D01*
Y27494D01*
X48403D01*
Y27490D01*
X48407D01*
Y27486D01*
X48420D01*
Y27482D01*
X48429D01*
Y27477D01*
X48437D01*
Y27473D01*
X48441D01*
Y27469D01*
X48450D01*
Y27465D01*
X48458D01*
Y27461D01*
X48462D01*
Y27456D01*
X48471D01*
Y27452D01*
X48479D01*
Y27448D01*
X48483D01*
Y27444D01*
X48492D01*
Y27440D01*
X48496D01*
Y27435D01*
X48504D01*
Y27431D01*
X48508D01*
Y27427D01*
X48517D01*
Y27423D01*
X48521D01*
Y27419D01*
X48525D01*
Y27414D01*
X48534D01*
Y27410D01*
X48538D01*
Y27406D01*
X48546D01*
Y27402D01*
X48550D01*
Y27398D01*
X48555D01*
Y27393D01*
X48563D01*
Y27389D01*
X48567D01*
Y27385D01*
X48571D01*
Y27381D01*
X48576D01*
Y27377D01*
X48580D01*
Y27372D01*
X48588D01*
Y27364D01*
X48597D01*
Y27360D01*
X48601D01*
Y27356D01*
X48605D01*
Y27351D01*
X48609D01*
Y27347D01*
X48614D01*
Y27343D01*
X48618D01*
Y27339D01*
X48622D01*
Y27335D01*
X48630D01*
Y27326D01*
X48639D01*
Y27318D01*
X48643D01*
Y27313D01*
X48647D01*
Y27309D01*
X48651D01*
Y27305D01*
X48656D01*
Y27301D01*
X48660D01*
Y27297D01*
X48664D01*
Y27292D01*
X48668D01*
Y27288D01*
X48672D01*
Y27284D01*
X48677D01*
Y27280D01*
X48681D01*
Y27271D01*
X48685D01*
Y27267D01*
X48689D01*
Y27263D01*
X48693D01*
Y27259D01*
X48698D01*
Y27255D01*
X48702D01*
Y27246D01*
X48706D01*
Y27242D01*
X48710D01*
Y27238D01*
X48714D01*
Y27234D01*
X48719D01*
Y27225D01*
X48723D01*
Y27221D01*
X48727D01*
Y27213D01*
X48731D01*
Y27208D01*
X48735D01*
Y27204D01*
X48740D01*
Y27196D01*
X48744D01*
Y27192D01*
X48748D01*
Y27183D01*
X48752D01*
Y27179D01*
X48757D01*
Y27175D01*
X48761D01*
Y27162D01*
X48765D01*
Y27158D01*
X48769D01*
Y27149D01*
X48773D01*
Y27145D01*
X48778D01*
Y27137D01*
X48782D01*
Y27128D01*
X48786D01*
Y27124D01*
X48790D01*
Y27116D01*
X48794D01*
Y27107D01*
X48799D01*
Y27099D01*
X48803D01*
Y27086D01*
X48807D01*
Y27082D01*
X48811D01*
Y27070D01*
X48815D01*
Y27065D01*
X48820D01*
Y27053D01*
X48824D01*
Y27044D01*
X48828D01*
Y27036D01*
X48832D01*
Y27023D01*
X48836D01*
Y27015D01*
X48841D01*
Y26998D01*
X48845D01*
Y26990D01*
X48849D01*
Y26977D01*
X48853D01*
Y26964D01*
X48857D01*
Y26956D01*
X48862D01*
Y26935D01*
X48866D01*
Y26922D01*
X48870D01*
Y26901D01*
X48874D01*
Y26889D01*
X48878D01*
Y26872D01*
X48883D01*
Y26843D01*
X48887D01*
Y26821D01*
X48891D01*
Y26784D01*
X48895D01*
Y26729D01*
X48899D01*
Y23277D01*
X48895D01*
Y23222D01*
X48891D01*
Y23184D01*
X48887D01*
Y23163D01*
X48883D01*
Y23134D01*
X48878D01*
Y23117D01*
X48874D01*
Y23104D01*
X48870D01*
Y23083D01*
X48866D01*
Y23071D01*
X48862D01*
Y23050D01*
X48857D01*
Y23041D01*
X48853D01*
Y23028D01*
X48849D01*
Y23016D01*
X48845D01*
Y23007D01*
X48841D01*
Y22991D01*
X48836D01*
Y22982D01*
X48832D01*
Y22970D01*
X48828D01*
Y22961D01*
X48824D01*
Y22953D01*
X48820D01*
Y22940D01*
X48815D01*
Y22936D01*
X48811D01*
Y22923D01*
X48807D01*
Y22919D01*
X48803D01*
Y22907D01*
X48799D01*
Y22898D01*
X48794D01*
Y22890D01*
X48790D01*
Y22881D01*
X48786D01*
Y22877D01*
X48782D01*
Y22869D01*
X48778D01*
Y22860D01*
X48773D01*
Y22856D01*
X48769D01*
Y22848D01*
X48765D01*
Y22843D01*
X48761D01*
Y22831D01*
X48757D01*
Y22827D01*
X48752D01*
Y22822D01*
X48748D01*
Y22814D01*
X48744D01*
Y22810D01*
X48740D01*
Y22801D01*
X48735D01*
Y22797D01*
X48731D01*
Y22793D01*
X48727D01*
Y22785D01*
X48723D01*
Y22780D01*
X48719D01*
Y22772D01*
X48714D01*
Y22768D01*
X48710D01*
Y22764D01*
X48706D01*
Y22759D01*
X48702D01*
Y22751D01*
X48698D01*
Y22747D01*
X48693D01*
Y22743D01*
X48689D01*
Y22738D01*
X48685D01*
Y22734D01*
X48681D01*
Y22726D01*
X48677D01*
Y22722D01*
X48672D01*
Y22717D01*
X48668D01*
Y22713D01*
X48664D01*
Y22709D01*
X48660D01*
Y22705D01*
X48656D01*
Y22700D01*
X48651D01*
Y22696D01*
X48647D01*
Y22692D01*
X48643D01*
Y22688D01*
X48639D01*
Y22679D01*
X48630D01*
Y22671D01*
X48622D01*
Y22667D01*
X48618D01*
Y22663D01*
X48614D01*
Y22658D01*
X48609D01*
Y22654D01*
X48605D01*
Y22650D01*
X48601D01*
Y22646D01*
X48597D01*
Y22642D01*
X48588D01*
Y22633D01*
X48580D01*
Y22629D01*
X48576D01*
Y22625D01*
X48571D01*
Y22621D01*
X48567D01*
Y22616D01*
X48563D01*
Y22612D01*
X48555D01*
Y22608D01*
X48550D01*
Y22604D01*
X48546D01*
Y22600D01*
X48538D01*
Y22595D01*
X48534D01*
Y22591D01*
X48525D01*
Y22587D01*
X48521D01*
Y22583D01*
X48517D01*
Y22579D01*
X48508D01*
Y22574D01*
X48504D01*
Y22570D01*
X48496D01*
Y22566D01*
X48492D01*
Y22562D01*
X48483D01*
Y22558D01*
X48479D01*
Y22553D01*
X48471D01*
Y22549D01*
X48462D01*
Y22545D01*
X48458D01*
Y22541D01*
X48450D01*
Y22536D01*
X48441D01*
Y22532D01*
X48437D01*
Y22528D01*
X48429D01*
Y22524D01*
X48420D01*
Y22520D01*
X48407D01*
Y22515D01*
X48403D01*
Y22511D01*
X48391D01*
Y22507D01*
X48382D01*
Y22503D01*
X48378D01*
Y22499D01*
X48365D01*
Y22494D01*
X48361D01*
Y22490D01*
X48344D01*
Y22486D01*
X48336D01*
Y22482D01*
X48323D01*
Y22478D01*
X48315D01*
Y22473D01*
X48302D01*
Y22469D01*
X48290D01*
Y22465D01*
X48281D01*
Y22461D01*
X48265D01*
Y22457D01*
X48252D01*
Y22452D01*
X48235D01*
Y22448D01*
X48214D01*
Y22444D01*
X48206D01*
Y22440D01*
X48180D01*
Y22436D01*
X48159D01*
Y22431D01*
X48130D01*
Y22427D01*
X48101D01*
Y22423D01*
X48046D01*
Y22419D01*
X42996D01*
Y22423D01*
X42941D01*
Y22427D01*
X42911D01*
Y22431D01*
X42882D01*
Y22436D01*
X42861D01*
Y22440D01*
X42836D01*
Y22444D01*
X42827D01*
Y22448D01*
X42806D01*
Y22452D01*
X42789D01*
Y22457D01*
X42777D01*
Y22461D01*
X42760D01*
Y22465D01*
X42752D01*
Y22469D01*
X42739D01*
Y22473D01*
X42726D01*
Y22478D01*
X42718D01*
Y22482D01*
X42705D01*
Y22486D01*
X42697D01*
Y22490D01*
X42680D01*
Y22494D01*
X42676D01*
Y22499D01*
X42663D01*
Y22503D01*
X42659D01*
Y22507D01*
X42651D01*
Y22511D01*
X42638D01*
Y22515D01*
X42634D01*
Y22520D01*
X42621D01*
Y22524D01*
X42613D01*
Y22528D01*
X42604D01*
Y22532D01*
X42600D01*
Y22536D01*
X42592D01*
Y22541D01*
X42583D01*
Y22545D01*
X42579D01*
Y22549D01*
X42571D01*
Y22553D01*
X42562D01*
Y22558D01*
X42558D01*
Y22562D01*
X42550D01*
Y22566D01*
X42546D01*
Y22570D01*
X42537D01*
Y22574D01*
X42533D01*
Y22579D01*
X42525D01*
Y22583D01*
X42520D01*
Y22587D01*
X42516D01*
Y22591D01*
X42508D01*
Y22595D01*
X42504D01*
Y22600D01*
X42495D01*
Y22604D01*
X42491D01*
Y22608D01*
X42487D01*
Y22612D01*
X42478D01*
Y22616D01*
X42474D01*
Y22621D01*
X42470D01*
Y22625D01*
X42466D01*
Y22629D01*
X42461D01*
Y22633D01*
X42453D01*
Y22642D01*
X42445D01*
Y22646D01*
X42440D01*
Y22650D01*
X42436D01*
Y22654D01*
X42432D01*
Y22658D01*
X42428D01*
Y22663D01*
X42424D01*
Y22667D01*
X42419D01*
Y22671D01*
X42411D01*
Y22679D01*
X42403D01*
Y22688D01*
X42398D01*
Y22692D01*
X42394D01*
Y22696D01*
X42390D01*
Y22700D01*
X42386D01*
Y22705D01*
X42382D01*
Y22709D01*
X42377D01*
Y22713D01*
X42373D01*
Y22717D01*
X42369D01*
Y22722D01*
X42365D01*
Y22726D01*
X42361D01*
Y22734D01*
X42356D01*
Y22738D01*
X42352D01*
Y22743D01*
X42348D01*
Y22747D01*
X42344D01*
Y22751D01*
X42340D01*
Y22759D01*
X42335D01*
Y22764D01*
X42331D01*
Y22768D01*
X42327D01*
Y22772D01*
X42323D01*
Y22780D01*
X42319D01*
Y22785D01*
X42314D01*
Y22793D01*
X42310D01*
Y22797D01*
X42306D01*
Y22801D01*
X42302D01*
Y22810D01*
X42297D01*
Y22814D01*
X42293D01*
Y22822D01*
X42289D01*
Y22827D01*
X42285D01*
Y22831D01*
X42281D01*
Y22843D01*
X42276D01*
Y22848D01*
X42272D01*
Y22856D01*
X42268D01*
Y22860D01*
X42264D01*
Y22869D01*
X42260D01*
Y22877D01*
X42255D01*
Y22881D01*
X42251D01*
Y22890D01*
X42247D01*
Y22898D01*
X42243D01*
Y22907D01*
X42239D01*
Y22919D01*
X42234D01*
Y22923D01*
X42230D01*
Y22936D01*
X42226D01*
Y22940D01*
X42222D01*
Y22953D01*
X42218D01*
Y22961D01*
X42213D01*
Y22970D01*
X42209D01*
Y22982D01*
X42205D01*
Y22991D01*
X42201D01*
Y23007D01*
X42197D01*
Y23016D01*
X42192D01*
Y23028D01*
X42188D01*
Y23041D01*
X42184D01*
Y23050D01*
X42180D01*
Y23071D01*
X42176D01*
Y23083D01*
X42171D01*
Y23104D01*
X42167D01*
Y23117D01*
X42163D01*
Y23134D01*
X42159D01*
Y23163D01*
X42154D01*
Y23184D01*
X42150D01*
Y23222D01*
X42146D01*
Y23277D01*
X42142D01*
Y26729D01*
X42146D01*
Y26784D01*
X42150D01*
Y26821D01*
X42154D01*
Y26843D01*
X42159D01*
Y26872D01*
X42163D01*
Y26889D01*
X42167D01*
Y26901D01*
X42171D01*
Y26922D01*
X42176D01*
Y26935D01*
X42180D01*
Y26956D01*
X42184D01*
Y26964D01*
X42188D01*
Y26977D01*
X42192D01*
Y26990D01*
X42197D01*
Y26998D01*
X42201D01*
Y27015D01*
X42205D01*
Y27023D01*
X42209D01*
Y27036D01*
X42213D01*
Y27044D01*
X42218D01*
Y27053D01*
X42222D01*
Y27065D01*
X42226D01*
Y27070D01*
X42230D01*
Y27082D01*
X42234D01*
Y27086D01*
X42239D01*
Y27099D01*
X42243D01*
Y27107D01*
X42247D01*
Y27116D01*
X42251D01*
Y27124D01*
X42255D01*
Y27128D01*
X42260D01*
Y27137D01*
X42264D01*
Y27145D01*
X42268D01*
Y27149D01*
X42272D01*
Y27158D01*
X42276D01*
Y27162D01*
X42281D01*
Y27175D01*
X42285D01*
Y27179D01*
X42289D01*
Y27183D01*
X42293D01*
Y27192D01*
X42297D01*
Y27196D01*
X42302D01*
Y27204D01*
X42306D01*
Y27208D01*
X42310D01*
Y27213D01*
X42314D01*
Y27221D01*
X42319D01*
Y27225D01*
X42323D01*
Y27234D01*
X42327D01*
Y27238D01*
X42331D01*
Y27242D01*
X42335D01*
Y27246D01*
X42340D01*
Y27255D01*
X42344D01*
Y27259D01*
X42348D01*
Y27263D01*
X42352D01*
Y27267D01*
X42356D01*
Y27271D01*
X42361D01*
Y27280D01*
X42365D01*
Y27284D01*
X42369D01*
Y27288D01*
X42373D01*
Y27292D01*
X42377D01*
Y27297D01*
X42382D01*
Y27301D01*
X42386D01*
Y27305D01*
X42390D01*
Y27309D01*
X42394D01*
Y27313D01*
X42398D01*
Y27318D01*
X42403D01*
Y27326D01*
X42411D01*
Y27335D01*
X42419D01*
Y27339D01*
X42424D01*
Y27343D01*
X42428D01*
Y27347D01*
X42432D01*
Y27351D01*
X42436D01*
Y27356D01*
X42440D01*
Y27360D01*
X42445D01*
Y27364D01*
X42453D01*
Y27372D01*
X42461D01*
Y27377D01*
X42466D01*
Y27381D01*
X42470D01*
Y27385D01*
X42474D01*
Y27389D01*
X42478D01*
Y27393D01*
X42487D01*
Y27398D01*
X42491D01*
Y27402D01*
X42495D01*
Y27406D01*
X42504D01*
Y27410D01*
X42508D01*
Y27414D01*
X42516D01*
Y27419D01*
X42520D01*
Y27423D01*
X42525D01*
Y27427D01*
X42533D01*
Y27431D01*
X42537D01*
Y27435D01*
X42546D01*
Y27440D01*
X42550D01*
Y27444D01*
X42558D01*
Y27448D01*
X42562D01*
Y27452D01*
X42571D01*
Y27456D01*
X42579D01*
Y27461D01*
X42583D01*
Y27465D01*
X42592D01*
Y27469D01*
X42600D01*
Y27473D01*
X42604D01*
Y27477D01*
X42613D01*
Y27482D01*
X42621D01*
Y27486D01*
X42634D01*
Y27490D01*
X42638D01*
Y27494D01*
X42651D01*
Y27499D01*
X42659D01*
Y27503D01*
X42663D01*
Y27507D01*
X42676D01*
Y27511D01*
X42680D01*
Y27515D01*
X42697D01*
Y27520D01*
X42705D01*
Y27524D01*
X42718D01*
Y27528D01*
X42726D01*
Y27532D01*
X42739D01*
Y27536D01*
X42752D01*
Y27541D01*
X42760D01*
Y27545D01*
X42777D01*
Y27549D01*
X42789D01*
Y27553D01*
X42806D01*
Y27557D01*
X42827D01*
Y27562D01*
X42836D01*
Y27566D01*
X42861D01*
Y27570D01*
X42882D01*
Y27574D01*
X42911D01*
Y27578D01*
X42941D01*
Y27583D01*
X42996D01*
Y27587D01*
X48046D01*
Y27583D01*
D02*
G37*
%LPC*%
G36*
X48054Y27187D02*
X42987D01*
Y27183D01*
X42949D01*
Y27179D01*
X42928D01*
Y27175D01*
X42916D01*
Y27171D01*
X42895D01*
Y27166D01*
X42886D01*
Y27162D01*
X42869D01*
Y27158D01*
X42861D01*
Y27154D01*
X42848D01*
Y27149D01*
X42840D01*
Y27145D01*
X42832D01*
Y27141D01*
X42819D01*
Y27137D01*
X42815D01*
Y27133D01*
X42806D01*
Y27128D01*
X42798D01*
Y27124D01*
X42789D01*
Y27120D01*
X42781D01*
Y27116D01*
X42777D01*
Y27112D01*
X42768D01*
Y27107D01*
X42760D01*
Y27103D01*
X42756D01*
Y27099D01*
X42752D01*
Y27095D01*
X42743D01*
Y27091D01*
X42739D01*
Y27086D01*
X42735D01*
Y27082D01*
X42726D01*
Y27078D01*
X42722D01*
Y27074D01*
X42718D01*
Y27070D01*
X42714D01*
Y27065D01*
X42710D01*
Y27061D01*
X42701D01*
Y27057D01*
X42697D01*
Y27053D01*
X42693D01*
Y27049D01*
X42689D01*
Y27044D01*
X42684D01*
Y27040D01*
X42680D01*
Y27036D01*
X42676D01*
Y27032D01*
X42672D01*
Y27028D01*
X42668D01*
Y27019D01*
X42663D01*
Y27015D01*
X42659D01*
Y27011D01*
X42655D01*
Y27007D01*
X42651D01*
Y27002D01*
X42646D01*
Y26998D01*
X42642D01*
Y26990D01*
X42638D01*
Y26985D01*
X42634D01*
Y26977D01*
X42630D01*
Y26973D01*
X42625D01*
Y26969D01*
X42621D01*
Y26960D01*
X42617D01*
Y26952D01*
X42613D01*
Y26948D01*
X42609D01*
Y26939D01*
X42604D01*
Y26931D01*
X42600D01*
Y26927D01*
X42596D01*
Y26918D01*
X42592D01*
Y26906D01*
X42588D01*
Y26901D01*
X42583D01*
Y26889D01*
X42579D01*
Y26885D01*
X42575D01*
Y26868D01*
X42571D01*
Y26859D01*
X42567D01*
Y26847D01*
X42562D01*
Y26830D01*
X42558D01*
Y26817D01*
X42554D01*
Y26796D01*
X42550D01*
Y26779D01*
X42546D01*
Y26750D01*
X42541D01*
Y23256D01*
X42546D01*
Y23226D01*
X42550D01*
Y23209D01*
X42554D01*
Y23188D01*
X42558D01*
Y23176D01*
X42562D01*
Y23159D01*
X42567D01*
Y23146D01*
X42571D01*
Y23138D01*
X42575D01*
Y23121D01*
X42579D01*
Y23117D01*
X42583D01*
Y23104D01*
X42588D01*
Y23100D01*
X42592D01*
Y23087D01*
X42596D01*
Y23079D01*
X42600D01*
Y23075D01*
X42604D01*
Y23066D01*
X42609D01*
Y23058D01*
X42613D01*
Y23054D01*
X42617D01*
Y23045D01*
X42621D01*
Y23037D01*
X42625D01*
Y23033D01*
X42630D01*
Y23028D01*
X42634D01*
Y23020D01*
X42638D01*
Y23016D01*
X42642D01*
Y23007D01*
X42646D01*
Y23003D01*
X42651D01*
Y22999D01*
X42655D01*
Y22995D01*
X42659D01*
Y22991D01*
X42663D01*
Y22982D01*
X42668D01*
Y22978D01*
X42672D01*
Y22974D01*
X42676D01*
Y22970D01*
X42680D01*
Y22965D01*
X42684D01*
Y22961D01*
X42689D01*
Y22957D01*
X42693D01*
Y22953D01*
X42697D01*
Y22949D01*
X42701D01*
Y22944D01*
X42710D01*
Y22940D01*
X42714D01*
Y22936D01*
X42718D01*
Y22932D01*
X42722D01*
Y22928D01*
X42726D01*
Y22923D01*
X42735D01*
Y22919D01*
X42739D01*
Y22915D01*
X42743D01*
Y22911D01*
X42752D01*
Y22907D01*
X42756D01*
Y22902D01*
X42760D01*
Y22898D01*
X42768D01*
Y22894D01*
X42777D01*
Y22890D01*
X42781D01*
Y22886D01*
X42789D01*
Y22881D01*
X42798D01*
Y22877D01*
X42806D01*
Y22873D01*
X42815D01*
Y22869D01*
X42819D01*
Y22864D01*
X42832D01*
Y22860D01*
X42840D01*
Y22856D01*
X42848D01*
Y22852D01*
X42861D01*
Y22848D01*
X42869D01*
Y22843D01*
X42886D01*
Y22839D01*
X42895D01*
Y22835D01*
X42916D01*
Y22831D01*
X42928D01*
Y22827D01*
X42949D01*
Y22822D01*
X42987D01*
Y22818D01*
X48058D01*
Y22822D01*
X48092D01*
Y22827D01*
X48113D01*
Y22831D01*
X48126D01*
Y22835D01*
X48147D01*
Y22839D01*
X48155D01*
Y22843D01*
X48172D01*
Y22848D01*
X48180D01*
Y22852D01*
X48193D01*
Y22856D01*
X48201D01*
Y22860D01*
X48210D01*
Y22864D01*
X48222D01*
Y22869D01*
X48227D01*
Y22873D01*
X48235D01*
Y22877D01*
X48243D01*
Y22881D01*
X48252D01*
Y22886D01*
X48260D01*
Y22890D01*
X48265D01*
Y22894D01*
X48273D01*
Y22898D01*
X48281D01*
Y22902D01*
X48286D01*
Y22907D01*
X48290D01*
Y22911D01*
X48298D01*
Y22915D01*
X48302D01*
Y22919D01*
X48307D01*
Y22923D01*
X48315D01*
Y22928D01*
X48319D01*
Y22932D01*
X48323D01*
Y22936D01*
X48328D01*
Y22940D01*
X48332D01*
Y22944D01*
X48340D01*
Y22949D01*
X48344D01*
Y22953D01*
X48349D01*
Y22957D01*
X48353D01*
Y22961D01*
X48357D01*
Y22965D01*
X48361D01*
Y22970D01*
X48365D01*
Y22974D01*
X48370D01*
Y22978D01*
X48374D01*
Y22982D01*
X48378D01*
Y22991D01*
X48382D01*
Y22995D01*
X48386D01*
Y22999D01*
X48391D01*
Y23003D01*
X48395D01*
Y23007D01*
X48399D01*
Y23016D01*
X48403D01*
Y23020D01*
X48407D01*
Y23028D01*
X48412D01*
Y23033D01*
X48416D01*
Y23037D01*
X48420D01*
Y23045D01*
X48424D01*
Y23054D01*
X48429D01*
Y23058D01*
X48433D01*
Y23062D01*
X48437D01*
Y23075D01*
X48441D01*
Y23079D01*
X48445D01*
Y23087D01*
X48450D01*
Y23100D01*
X48454D01*
Y23104D01*
X48458D01*
Y23117D01*
X48462D01*
Y23121D01*
X48466D01*
Y23138D01*
X48471D01*
Y23146D01*
X48475D01*
Y23159D01*
X48479D01*
Y23176D01*
X48483D01*
Y23188D01*
X48487D01*
Y23209D01*
X48492D01*
Y23226D01*
X48496D01*
Y23256D01*
X48500D01*
Y26750D01*
X48496D01*
Y26779D01*
X48492D01*
Y26796D01*
X48487D01*
Y26817D01*
X48483D01*
Y26830D01*
X48479D01*
Y26847D01*
X48475D01*
Y26859D01*
X48471D01*
Y26868D01*
X48466D01*
Y26885D01*
X48462D01*
Y26889D01*
X48458D01*
Y26901D01*
X48454D01*
Y26906D01*
X48450D01*
Y26918D01*
X48445D01*
Y26927D01*
X48441D01*
Y26931D01*
X48437D01*
Y26939D01*
X48433D01*
Y26948D01*
X48429D01*
Y26952D01*
X48424D01*
Y26960D01*
X48420D01*
Y26969D01*
X48416D01*
Y26973D01*
X48412D01*
Y26977D01*
X48407D01*
Y26985D01*
X48403D01*
Y26990D01*
X48399D01*
Y26998D01*
X48395D01*
Y27002D01*
X48391D01*
Y27007D01*
X48386D01*
Y27011D01*
X48382D01*
Y27015D01*
X48378D01*
Y27023D01*
X48374D01*
Y27028D01*
X48370D01*
Y27032D01*
X48365D01*
Y27036D01*
X48361D01*
Y27040D01*
X48357D01*
Y27044D01*
X48353D01*
Y27049D01*
X48349D01*
Y27053D01*
X48344D01*
Y27057D01*
X48340D01*
Y27061D01*
X48332D01*
Y27065D01*
X48328D01*
Y27070D01*
X48323D01*
Y27074D01*
X48319D01*
Y27078D01*
X48315D01*
Y27082D01*
X48307D01*
Y27086D01*
X48302D01*
Y27091D01*
X48298D01*
Y27095D01*
X48290D01*
Y27099D01*
X48286D01*
Y27103D01*
X48281D01*
Y27107D01*
X48273D01*
Y27112D01*
X48265D01*
Y27116D01*
X48260D01*
Y27120D01*
X48252D01*
Y27124D01*
X48243D01*
Y27128D01*
X48235D01*
Y27133D01*
X48227D01*
Y27137D01*
X48222D01*
Y27141D01*
X48210D01*
Y27145D01*
X48201D01*
Y27149D01*
X48193D01*
Y27154D01*
X48180D01*
Y27158D01*
X48172D01*
Y27162D01*
X48155D01*
Y27166D01*
X48147D01*
Y27171D01*
X48126D01*
Y27175D01*
X48113D01*
Y27179D01*
X48092D01*
Y27183D01*
X48054D01*
Y27187D01*
D02*
G37*
%LPD*%
G36*
X45413Y26889D02*
X45422D01*
Y23420D01*
X45418D01*
Y23415D01*
X45413D01*
Y23411D01*
X45405D01*
Y23415D01*
X44837D01*
Y23411D01*
X44833D01*
Y23415D01*
X44825D01*
Y23609D01*
X44833D01*
Y23613D01*
X44842D01*
Y23609D01*
X44846D01*
Y23613D01*
X45203D01*
Y23609D01*
X45212D01*
Y23613D01*
X45220D01*
Y23617D01*
X45224D01*
Y24034D01*
Y24038D01*
Y24900D01*
X45220D01*
Y24908D01*
X45216D01*
Y24912D01*
X45212D01*
Y24917D01*
X45207D01*
Y24921D01*
X45199D01*
Y24925D01*
X45195D01*
Y24929D01*
X45191D01*
Y24933D01*
X45186D01*
Y24938D01*
X45182D01*
Y24942D01*
X45178D01*
Y24946D01*
X45174D01*
Y24950D01*
X45170D01*
Y24954D01*
X45165D01*
Y24959D01*
X45161D01*
Y24963D01*
X45157D01*
Y24967D01*
X45149D01*
Y24971D01*
X45144D01*
Y24975D01*
X45140D01*
Y24980D01*
X45136D01*
Y24984D01*
X45132D01*
Y24988D01*
X45128D01*
Y24992D01*
X45123D01*
Y24996D01*
X45119D01*
Y25001D01*
X45115D01*
Y25005D01*
X45111D01*
Y25009D01*
X45102D01*
Y25013D01*
X45098D01*
Y25017D01*
X45094D01*
Y25022D01*
X45090D01*
Y25026D01*
X45085D01*
Y25030D01*
X45081D01*
Y25034D01*
X45077D01*
Y25039D01*
X45073D01*
Y25043D01*
X45069D01*
Y25047D01*
X45060D01*
Y25051D01*
X45056D01*
Y25055D01*
X45052D01*
Y25060D01*
X45048D01*
Y25064D01*
X45043D01*
Y25068D01*
X45039D01*
Y25072D01*
X45035D01*
Y25076D01*
X45031D01*
Y25081D01*
X45027D01*
Y25085D01*
X45022D01*
Y25089D01*
X45018D01*
Y25093D01*
X45010D01*
Y25097D01*
X45006D01*
Y25102D01*
X45001D01*
Y25106D01*
X44997D01*
Y25110D01*
X44993D01*
Y25114D01*
X44989D01*
Y25118D01*
X44985D01*
Y25123D01*
X44980D01*
Y25127D01*
X44976D01*
Y25131D01*
X44968D01*
Y25135D01*
X44964D01*
Y25139D01*
X44959D01*
Y25144D01*
X44955D01*
Y25148D01*
X44951D01*
Y25152D01*
X44947D01*
Y25156D01*
X44942D01*
Y25160D01*
X44938D01*
Y25165D01*
X44934D01*
Y25169D01*
X44930D01*
Y25173D01*
X44926D01*
Y25177D01*
X44917D01*
Y25181D01*
X44913D01*
Y25186D01*
X44909D01*
Y25190D01*
X44905D01*
Y25194D01*
X44900D01*
Y25198D01*
X44896D01*
Y25203D01*
X44892D01*
Y25207D01*
X44888D01*
Y25211D01*
X44884D01*
Y25215D01*
X44875D01*
Y25219D01*
X44871D01*
Y25224D01*
X44867D01*
Y25228D01*
X44863D01*
Y25232D01*
X44858D01*
Y25236D01*
X44854D01*
Y25240D01*
X44850D01*
Y25245D01*
X44846D01*
Y25249D01*
X44842D01*
Y25253D01*
X44837D01*
Y25257D01*
X44829D01*
Y25261D01*
X44825D01*
Y25266D01*
X44821D01*
Y25270D01*
X44816D01*
Y25274D01*
X44812D01*
Y25278D01*
X44808D01*
Y25282D01*
X44804D01*
Y25287D01*
X44800D01*
Y25291D01*
X44795D01*
Y25295D01*
X44791D01*
Y25299D01*
X44787D01*
Y25303D01*
X44778D01*
Y25308D01*
X44774D01*
Y25312D01*
X44770D01*
Y25316D01*
X44766D01*
Y25320D01*
X44762D01*
Y25324D01*
X44757D01*
Y25329D01*
X44753D01*
Y25333D01*
X44749D01*
Y25337D01*
X44745D01*
Y25341D01*
X44736D01*
Y25346D01*
X44732D01*
Y25350D01*
X44728D01*
Y25354D01*
X44724D01*
Y25358D01*
X44720D01*
Y25362D01*
X44715D01*
Y25367D01*
X44711D01*
Y25371D01*
X44707D01*
Y25375D01*
X44703D01*
Y25379D01*
X44699D01*
Y25383D01*
X44694D01*
Y25388D01*
X44686D01*
Y25392D01*
X44682D01*
Y25396D01*
X44678D01*
Y25400D01*
X44673D01*
Y25404D01*
X44669D01*
Y25409D01*
X44665D01*
Y25413D01*
X44661D01*
Y25417D01*
X44657D01*
Y25421D01*
X44652D01*
Y25425D01*
X44644D01*
Y25430D01*
X44640D01*
Y25434D01*
X44636D01*
Y25438D01*
X44631D01*
Y25442D01*
X44627D01*
Y25446D01*
X44623D01*
Y25451D01*
X44619D01*
Y25455D01*
X44614D01*
Y25459D01*
X44610D01*
Y25463D01*
X44606D01*
Y25467D01*
X44602D01*
Y25472D01*
X44593D01*
Y25476D01*
X44589D01*
Y25480D01*
X44585D01*
Y25484D01*
X44581D01*
Y25488D01*
X44577D01*
Y25493D01*
X44572D01*
Y25497D01*
X44564D01*
Y25505D01*
X44560D01*
Y25509D01*
X44551D01*
Y25518D01*
X44543D01*
Y25522D01*
X44539D01*
Y25526D01*
X44535D01*
Y25531D01*
X44530D01*
Y25535D01*
X44526D01*
Y25539D01*
X44522D01*
Y25543D01*
X44518D01*
Y25547D01*
X44509D01*
Y25552D01*
X44505D01*
Y25556D01*
X44501D01*
Y25560D01*
X44497D01*
Y25564D01*
X44493D01*
Y25568D01*
X44488D01*
Y25573D01*
X44484D01*
Y25577D01*
X44480D01*
Y25581D01*
X44476D01*
Y25585D01*
X44472D01*
Y25589D01*
X44467D01*
Y25594D01*
X44463D01*
Y25598D01*
X44455D01*
Y25602D01*
X44450D01*
Y25606D01*
X44446D01*
Y25610D01*
X44442D01*
Y25615D01*
X44438D01*
Y25619D01*
X44434D01*
Y25623D01*
X44429D01*
Y25627D01*
X44425D01*
Y25631D01*
X44421D01*
Y25636D01*
X44413D01*
Y25640D01*
X44408D01*
Y25644D01*
X44404D01*
Y25648D01*
X44400D01*
Y25652D01*
X44396D01*
Y25657D01*
X44392D01*
Y25661D01*
X44387D01*
Y25665D01*
X44383D01*
Y25669D01*
X44379D01*
Y25673D01*
X44375D01*
Y25678D01*
X44371D01*
Y25682D01*
X44362D01*
Y25686D01*
X44358D01*
Y25690D01*
X44354D01*
Y25695D01*
X44350D01*
Y25699D01*
X44345D01*
Y25703D01*
X44341D01*
Y25707D01*
X44337D01*
Y25711D01*
X44333D01*
Y25716D01*
X44329D01*
Y25720D01*
X44320D01*
Y25724D01*
X44316D01*
Y25728D01*
X44312D01*
Y25732D01*
X44308D01*
Y25737D01*
X44303D01*
Y25741D01*
X44299D01*
Y25745D01*
X44295D01*
Y25749D01*
X44291D01*
Y25753D01*
X44286D01*
Y25758D01*
X44282D01*
Y25762D01*
X44274D01*
Y25766D01*
X44270D01*
Y25770D01*
X44265D01*
Y25774D01*
X44261D01*
Y25779D01*
X44257D01*
Y25783D01*
X44253D01*
Y25787D01*
X44249D01*
Y25791D01*
X44244D01*
Y25795D01*
X44240D01*
Y25800D01*
X44236D01*
Y25804D01*
X44232D01*
Y25808D01*
X44223D01*
Y25812D01*
X44219D01*
Y25816D01*
X44215D01*
Y25821D01*
X44211D01*
Y25825D01*
X44207D01*
Y25829D01*
X44202D01*
Y25833D01*
X44198D01*
Y25837D01*
X44194D01*
Y25842D01*
X44190D01*
Y25846D01*
X44181D01*
Y25850D01*
X44177D01*
Y25854D01*
X44173D01*
Y25859D01*
X44169D01*
Y25863D01*
X44165D01*
Y25867D01*
X44160D01*
Y25871D01*
X44156D01*
Y25875D01*
X44152D01*
Y25880D01*
X44144D01*
Y25888D01*
X44139D01*
Y25892D01*
X44131D01*
Y25888D01*
X44127D01*
Y25880D01*
X44122D01*
Y25867D01*
X44118D01*
Y25854D01*
X44114D01*
Y25842D01*
X44110D01*
Y25825D01*
X44106D01*
Y25812D01*
X44101D01*
Y25800D01*
X44097D01*
Y25787D01*
X44093D01*
Y25774D01*
X44089D01*
Y25762D01*
X44085D01*
Y25749D01*
X44080D01*
Y25732D01*
X44076D01*
Y25720D01*
X44072D01*
Y25707D01*
X44068D01*
Y25695D01*
X44064D01*
Y25682D01*
X44059D01*
Y25669D01*
X44055D01*
Y25657D01*
X44051D01*
Y25640D01*
X44047D01*
Y25627D01*
X44043D01*
Y25615D01*
X44038D01*
Y25602D01*
X44034D01*
Y25589D01*
X44030D01*
Y25577D01*
X44026D01*
Y25560D01*
X44022D01*
Y25552D01*
X44017D01*
Y25535D01*
X44013D01*
Y25522D01*
X44009D01*
Y25509D01*
X44005D01*
Y25497D01*
X44001D01*
Y25484D01*
X43996D01*
Y25467D01*
X43992D01*
Y25455D01*
X43988D01*
Y25442D01*
X43984D01*
Y25430D01*
X43980D01*
Y25417D01*
X43975D01*
Y25404D01*
X43971D01*
Y25392D01*
X43967D01*
Y25375D01*
X43963D01*
Y25367D01*
X43958D01*
Y25350D01*
X43954D01*
Y25337D01*
X43950D01*
Y25324D01*
X43946D01*
Y25312D01*
X43942D01*
Y25299D01*
X43937D01*
Y25282D01*
X43933D01*
Y25270D01*
X43929D01*
Y25257D01*
X43925D01*
Y25245D01*
X43921D01*
Y25232D01*
X43916D01*
Y25219D01*
X43912D01*
Y25207D01*
X43908D01*
Y25194D01*
X43904D01*
Y25177D01*
X43900D01*
Y25165D01*
X43895D01*
Y25152D01*
X43891D01*
Y25139D01*
X43887D01*
Y25127D01*
X43883D01*
Y25114D01*
X43879D01*
Y25102D01*
X43874D01*
Y25085D01*
X43870D01*
Y25072D01*
X43866D01*
Y25060D01*
X43862D01*
Y25047D01*
X43858D01*
Y25034D01*
X43853D01*
Y25022D01*
X43849D01*
Y25005D01*
X43845D01*
Y24992D01*
X43841D01*
Y24980D01*
X43837D01*
Y24967D01*
X43832D01*
Y24954D01*
X43828D01*
Y24942D01*
X43824D01*
Y24929D01*
X43820D01*
Y24917D01*
X43816D01*
Y24900D01*
X43811D01*
Y24891D01*
X43807D01*
Y24875D01*
X43803D01*
Y24862D01*
X43799D01*
Y24849D01*
X43794D01*
Y24837D01*
X43790D01*
Y24824D01*
X43786D01*
Y24807D01*
X43782D01*
Y24795D01*
X43778D01*
Y24782D01*
X43773D01*
Y24769D01*
X43769D01*
Y24757D01*
X43765D01*
Y24744D01*
X43761D01*
Y24732D01*
X43757D01*
Y24715D01*
X43752D01*
Y24702D01*
X43748D01*
Y24690D01*
X43744D01*
Y24677D01*
X43740D01*
Y24664D01*
X43736D01*
Y24652D01*
X43731D01*
Y24639D01*
X43727D01*
Y24622D01*
X43723D01*
Y24610D01*
X43719D01*
Y24597D01*
X43715D01*
Y24584D01*
X43710D01*
Y24572D01*
X43706D01*
Y24559D01*
X43702D01*
Y24547D01*
X43698D01*
Y24530D01*
X43694D01*
Y24517D01*
X43689D01*
Y24504D01*
X43685D01*
Y24492D01*
X43681D01*
Y24479D01*
X43677D01*
Y24467D01*
X43673D01*
Y24450D01*
X43668D01*
Y24441D01*
X43664D01*
Y24425D01*
X43660D01*
Y24412D01*
X43656D01*
Y24399D01*
X43652D01*
Y24387D01*
X43647D01*
Y24374D01*
X43643D01*
Y24357D01*
X43639D01*
Y24349D01*
X43635D01*
Y24332D01*
X43630D01*
Y24319D01*
X43626D01*
Y24307D01*
X43622D01*
Y24294D01*
X43618D01*
Y24282D01*
X43614D01*
Y24265D01*
X43609D01*
Y24256D01*
X43605D01*
Y24240D01*
X43601D01*
Y24227D01*
X43597D01*
Y24214D01*
X43593D01*
Y24202D01*
X43588D01*
Y24189D01*
X43584D01*
Y24172D01*
X43580D01*
Y24164D01*
X43576D01*
Y24147D01*
X43572D01*
Y24134D01*
X43567D01*
Y24122D01*
X43563D01*
Y24109D01*
X43559D01*
Y24097D01*
X43555D01*
Y24084D01*
X43551D01*
Y24067D01*
X43546D01*
Y24055D01*
X43542D01*
Y24042D01*
X43538D01*
Y24029D01*
X43534D01*
Y24017D01*
X43530D01*
Y24004D01*
X43525D01*
Y23991D01*
X43521D01*
Y23975D01*
X43517D01*
Y23962D01*
X43513D01*
Y23949D01*
X43509D01*
Y23937D01*
X43504D01*
Y23924D01*
X43500D01*
Y23912D01*
X43496D01*
Y23899D01*
X43492D01*
Y23882D01*
X43488D01*
Y23870D01*
X43483D01*
Y23857D01*
X43479D01*
Y23844D01*
X43475D01*
Y23832D01*
X43471D01*
Y23819D01*
X43466D01*
Y23806D01*
X43462D01*
Y23790D01*
X43458D01*
Y23777D01*
X43454D01*
Y23764D01*
X43450D01*
Y23752D01*
X43445D01*
Y23739D01*
X43441D01*
Y23727D01*
X43437D01*
Y23714D01*
X43441D01*
Y23710D01*
X43635D01*
Y23516D01*
X43630D01*
Y23512D01*
X42840D01*
Y23516D01*
X42836D01*
Y23706D01*
X42840D01*
Y23710D01*
X43332D01*
Y23714D01*
X43336D01*
Y23718D01*
X43340D01*
Y23735D01*
X43345D01*
Y23748D01*
X43349D01*
Y23760D01*
X43353D01*
Y23773D01*
X43357D01*
Y23785D01*
X43361D01*
Y23798D01*
X43366D01*
Y23811D01*
X43370D01*
Y23823D01*
X43374D01*
Y23836D01*
X43378D01*
Y23848D01*
X43382D01*
Y23865D01*
X43387D01*
Y23878D01*
X43391D01*
Y23891D01*
X43395D01*
Y23903D01*
X43399D01*
Y23916D01*
X43403D01*
Y23928D01*
X43408D01*
Y23941D01*
X43412D01*
Y23958D01*
X43416D01*
Y23966D01*
X43420D01*
Y23983D01*
X43424D01*
Y23996D01*
X43429D01*
Y24008D01*
X43433D01*
Y24021D01*
X43437D01*
Y24034D01*
X43441D01*
Y24046D01*
X43445D01*
Y24059D01*
X43450D01*
Y24071D01*
X43454D01*
Y24088D01*
X43458D01*
Y24101D01*
X43462D01*
Y24113D01*
X43466D01*
Y24126D01*
X43471D01*
Y24139D01*
X43475D01*
Y24151D01*
X43479D01*
Y24164D01*
X43483D01*
Y24176D01*
X43488D01*
Y24189D01*
X43492D01*
Y24206D01*
X43496D01*
Y24219D01*
X43500D01*
Y24231D01*
X43504D01*
Y24244D01*
X43509D01*
Y24256D01*
X43513D01*
Y24269D01*
X43517D01*
Y24282D01*
X43521D01*
Y24294D01*
X43525D01*
Y24307D01*
X43530D01*
Y24324D01*
X43534D01*
Y24336D01*
X43538D01*
Y24349D01*
X43542D01*
Y24361D01*
X43546D01*
Y24374D01*
X43551D01*
Y24387D01*
X43555D01*
Y24399D01*
X43559D01*
Y24412D01*
X43563D01*
Y24429D01*
X43567D01*
Y24441D01*
X43572D01*
Y24454D01*
X43576D01*
Y24467D01*
X43580D01*
Y24479D01*
X43584D01*
Y24492D01*
X43588D01*
Y24504D01*
X43593D01*
Y24517D01*
X43597D01*
Y24530D01*
X43601D01*
Y24547D01*
X43605D01*
Y24559D01*
X43609D01*
Y24572D01*
X43614D01*
Y24584D01*
X43618D01*
Y24597D01*
X43622D01*
Y24610D01*
X43626D01*
Y24622D01*
X43630D01*
Y24635D01*
X43635D01*
Y24647D01*
X43639D01*
Y24660D01*
X43643D01*
Y24677D01*
X43647D01*
Y24690D01*
X43652D01*
Y24702D01*
X43656D01*
Y24715D01*
X43660D01*
Y24727D01*
X43664D01*
Y24740D01*
X43668D01*
Y24753D01*
X43673D01*
Y24765D01*
X43677D01*
Y24782D01*
X43681D01*
Y24790D01*
X43685D01*
Y24807D01*
X43689D01*
Y24820D01*
X43694D01*
Y24832D01*
X43698D01*
Y24845D01*
X43702D01*
Y24858D01*
X43706D01*
Y24870D01*
X43710D01*
Y24883D01*
X43715D01*
Y24900D01*
X43719D01*
Y24912D01*
X43723D01*
Y24925D01*
X43727D01*
Y24938D01*
X43731D01*
Y24950D01*
X43736D01*
Y24963D01*
X43740D01*
Y24975D01*
X43744D01*
Y24988D01*
X43748D01*
Y25001D01*
X43752D01*
Y25013D01*
X43757D01*
Y25030D01*
X43761D01*
Y25043D01*
X43765D01*
Y25055D01*
X43769D01*
Y25068D01*
X43773D01*
Y25081D01*
X43778D01*
Y25093D01*
X43782D01*
Y25106D01*
X43786D01*
Y25123D01*
X43790D01*
Y25135D01*
X43794D01*
Y25148D01*
X43799D01*
Y25160D01*
X43803D01*
Y25173D01*
X43807D01*
Y25186D01*
X43811D01*
Y25198D01*
X43816D01*
Y25211D01*
X43820D01*
Y25224D01*
X43824D01*
Y25236D01*
X43828D01*
Y25253D01*
X43832D01*
Y25266D01*
X43837D01*
Y25278D01*
X43841D01*
Y25291D01*
X43845D01*
Y25303D01*
X43849D01*
Y25316D01*
X43853D01*
Y25329D01*
X43858D01*
Y25346D01*
X43862D01*
Y25354D01*
X43866D01*
Y25371D01*
X43870D01*
Y25383D01*
X43874D01*
Y25396D01*
X43879D01*
Y25409D01*
X43883D01*
Y25421D01*
X43887D01*
Y25434D01*
X43891D01*
Y25446D01*
X43895D01*
Y25459D01*
X43900D01*
Y25476D01*
X43904D01*
Y25488D01*
X43908D01*
Y25501D01*
X43912D01*
Y25509D01*
X43916D01*
Y25526D01*
X43921D01*
Y25539D01*
X43925D01*
Y25552D01*
X43929D01*
Y25564D01*
X43933D01*
Y25577D01*
X43937D01*
Y25594D01*
X43942D01*
Y25606D01*
X43946D01*
Y25619D01*
X43950D01*
Y25631D01*
X43954D01*
Y25644D01*
X43958D01*
Y25657D01*
X43963D01*
Y25669D01*
X43967D01*
Y25686D01*
X43971D01*
Y25695D01*
X43975D01*
Y25711D01*
X43980D01*
Y25724D01*
X43984D01*
Y25737D01*
X43988D01*
Y25749D01*
X43992D01*
Y25762D01*
X43996D01*
Y25774D01*
X44001D01*
Y25787D01*
X44005D01*
Y25800D01*
X44009D01*
Y25816D01*
X44013D01*
Y25829D01*
X44017D01*
Y25842D01*
X44022D01*
Y25854D01*
X44026D01*
Y25867D01*
X44030D01*
Y25880D01*
X44034D01*
Y25892D01*
X44038D01*
Y25905D01*
X44043D01*
Y25917D01*
X44047D01*
Y25934D01*
X44051D01*
Y25947D01*
X44055D01*
Y25959D01*
X44059D01*
Y25972D01*
X44064D01*
Y25985D01*
X44068D01*
Y25997D01*
X44072D01*
Y26010D01*
X44076D01*
Y26023D01*
X44080D01*
Y26039D01*
X44085D01*
Y26052D01*
X44089D01*
Y26065D01*
X44093D01*
Y26077D01*
X44097D01*
Y26090D01*
X44101D01*
Y26102D01*
X44106D01*
Y26115D01*
X44110D01*
Y26128D01*
X44114D01*
Y26140D01*
X44118D01*
Y26157D01*
X44122D01*
Y26165D01*
X44127D01*
Y26182D01*
X44131D01*
Y26195D01*
X44135D01*
Y26208D01*
X44139D01*
Y26220D01*
X44144D01*
Y26233D01*
X44148D01*
Y26245D01*
X44152D01*
Y26258D01*
X44156D01*
Y26275D01*
X44160D01*
Y26287D01*
X44165D01*
Y26300D01*
X44169D01*
Y26313D01*
X44173D01*
Y26325D01*
X44177D01*
Y26338D01*
X44181D01*
Y26351D01*
X44186D01*
Y26363D01*
X44190D01*
Y26380D01*
X44194D01*
Y26388D01*
X44198D01*
Y26405D01*
X44202D01*
Y26418D01*
X44207D01*
Y26430D01*
X44211D01*
Y26443D01*
X44215D01*
Y26456D01*
X44219D01*
Y26468D01*
X44223D01*
Y26481D01*
X44228D01*
Y26485D01*
X44232D01*
Y26489D01*
X44236D01*
Y26485D01*
X44240D01*
Y26481D01*
X44244D01*
Y26477D01*
X44249D01*
Y26472D01*
X44253D01*
Y26468D01*
X44257D01*
Y26464D01*
X44261D01*
Y26460D01*
X44265D01*
Y26456D01*
X44270D01*
Y26451D01*
X44274D01*
Y26447D01*
X44278D01*
Y26443D01*
X44282D01*
Y26439D01*
X44286D01*
Y26435D01*
X44291D01*
Y26430D01*
X44295D01*
Y26426D01*
X44299D01*
Y26422D01*
X44303D01*
Y26418D01*
X44308D01*
Y26414D01*
X44312D01*
Y26409D01*
X44316D01*
Y26405D01*
X44320D01*
Y26401D01*
X44324D01*
Y26397D01*
X44329D01*
Y26393D01*
X44333D01*
Y26388D01*
X44337D01*
Y26384D01*
X44341D01*
Y26380D01*
X44345D01*
Y26376D01*
X44350D01*
Y26372D01*
X44354D01*
Y26367D01*
X44358D01*
Y26363D01*
X44362D01*
Y26359D01*
X44366D01*
Y26355D01*
X44371D01*
Y26351D01*
X44375D01*
Y26346D01*
X44379D01*
Y26342D01*
X44383D01*
Y26338D01*
X44387D01*
Y26334D01*
X44392D01*
Y26329D01*
X44396D01*
Y26325D01*
X44400D01*
Y26321D01*
X44404D01*
Y26317D01*
X44408D01*
Y26313D01*
X44413D01*
Y26308D01*
X44417D01*
Y26304D01*
X44421D01*
Y26300D01*
X44425D01*
Y26296D01*
X44429D01*
Y26292D01*
X44434D01*
Y26287D01*
X44438D01*
Y26283D01*
X44442D01*
Y26279D01*
X44446D01*
Y26275D01*
X44450D01*
Y26271D01*
X44455D01*
Y26266D01*
X44459D01*
Y26262D01*
X44463D01*
Y26258D01*
X44467D01*
Y26254D01*
X44472D01*
Y26250D01*
X44476D01*
Y26245D01*
X44480D01*
Y26241D01*
X44484D01*
Y26237D01*
X44488D01*
Y26233D01*
X44493D01*
Y26229D01*
X44497D01*
Y26224D01*
X44501D01*
Y26220D01*
X44505D01*
Y26216D01*
X44509D01*
Y26212D01*
X44514D01*
Y26208D01*
X44518D01*
Y26203D01*
X44522D01*
Y26199D01*
X44526D01*
Y26195D01*
X44530D01*
Y26191D01*
X44535D01*
Y26187D01*
X44539D01*
Y26182D01*
X44543D01*
Y26178D01*
X44547D01*
Y26174D01*
X44551D01*
Y26170D01*
X44556D01*
Y26165D01*
X44560D01*
Y26161D01*
X44564D01*
Y26157D01*
X44568D01*
Y26153D01*
X44572D01*
Y26149D01*
X44577D01*
Y26144D01*
X44581D01*
Y26140D01*
X44585D01*
Y26136D01*
X44589D01*
Y26132D01*
X44593D01*
Y26128D01*
X44598D01*
Y26123D01*
X44602D01*
Y26119D01*
X44606D01*
Y26115D01*
X44610D01*
Y26111D01*
X44614D01*
Y26107D01*
X44619D01*
Y26102D01*
X44623D01*
Y26098D01*
X44627D01*
Y26094D01*
X44631D01*
Y26090D01*
X44636D01*
Y26086D01*
X44640D01*
Y26081D01*
X44644D01*
Y26077D01*
X44648D01*
Y26073D01*
X44652D01*
Y26069D01*
X44657D01*
Y26065D01*
X44661D01*
Y26060D01*
X44665D01*
Y26056D01*
X44669D01*
Y26052D01*
X44673D01*
Y26048D01*
X44678D01*
Y26044D01*
X44682D01*
Y26039D01*
X44686D01*
Y26035D01*
X44690D01*
Y26031D01*
X44694D01*
Y26027D01*
X44699D01*
Y26023D01*
X44703D01*
Y26018D01*
X44707D01*
Y26014D01*
X44711D01*
Y26010D01*
X44715D01*
Y26006D01*
X44720D01*
Y26001D01*
X44724D01*
Y25997D01*
X44728D01*
Y25993D01*
X44732D01*
Y25989D01*
X44736D01*
Y25985D01*
X44741D01*
Y25980D01*
X44745D01*
Y25976D01*
X44749D01*
Y25972D01*
X44753D01*
Y25968D01*
X44757D01*
Y25964D01*
X44762D01*
Y25959D01*
X44766D01*
Y25955D01*
X44770D01*
Y25951D01*
X44774D01*
Y25947D01*
X44778D01*
Y25943D01*
X44783D01*
Y25938D01*
X44787D01*
Y25934D01*
X44791D01*
Y25930D01*
X44795D01*
Y25926D01*
X44800D01*
Y25922D01*
X44804D01*
Y25917D01*
X44808D01*
Y25913D01*
X44812D01*
Y25909D01*
X44816D01*
Y25905D01*
X44821D01*
Y25901D01*
X44825D01*
Y25896D01*
X44829D01*
Y25892D01*
X44833D01*
Y25888D01*
X44837D01*
Y25880D01*
X44846D01*
Y25875D01*
X44850D01*
Y25871D01*
X44854D01*
Y25867D01*
X44858D01*
Y25863D01*
X44863D01*
Y25859D01*
X44867D01*
Y25854D01*
X44871D01*
Y25850D01*
X44875D01*
Y25846D01*
X44879D01*
Y25842D01*
X44884D01*
Y25837D01*
X44888D01*
Y25833D01*
X44892D01*
Y25829D01*
X44896D01*
Y25825D01*
X44900D01*
Y25821D01*
X44905D01*
Y25816D01*
X44909D01*
Y25812D01*
X44913D01*
Y25808D01*
X44917D01*
Y25804D01*
X44921D01*
Y25800D01*
X44926D01*
Y25795D01*
X44930D01*
Y25791D01*
X44934D01*
Y25787D01*
X44938D01*
Y25783D01*
X44942D01*
Y25779D01*
X44947D01*
Y25774D01*
X44951D01*
Y25770D01*
X44955D01*
Y25766D01*
X44959D01*
Y25762D01*
X44964D01*
Y25758D01*
X44968D01*
Y25753D01*
X44972D01*
Y25749D01*
X44976D01*
Y25745D01*
X44980D01*
Y25741D01*
X44985D01*
Y25737D01*
X44989D01*
Y25732D01*
X44993D01*
Y25728D01*
X44997D01*
Y25724D01*
X45001D01*
Y25720D01*
X45006D01*
Y25716D01*
X45010D01*
Y25711D01*
X45014D01*
Y25707D01*
X45018D01*
Y25703D01*
X45022D01*
Y25699D01*
X45027D01*
Y25695D01*
X45031D01*
Y25690D01*
X45035D01*
Y25686D01*
X45039D01*
Y25682D01*
X45043D01*
Y25678D01*
X45048D01*
Y25673D01*
X45052D01*
Y25669D01*
X45056D01*
Y25665D01*
X45060D01*
Y25661D01*
X45064D01*
Y25657D01*
X45069D01*
Y25652D01*
X45073D01*
Y25648D01*
X45077D01*
Y25644D01*
X45081D01*
Y25640D01*
X45085D01*
Y25636D01*
X45090D01*
Y25631D01*
X45094D01*
Y25627D01*
X45098D01*
Y25623D01*
X45102D01*
Y25619D01*
X45106D01*
Y25615D01*
X45111D01*
Y25610D01*
X45115D01*
Y25606D01*
X45119D01*
Y25602D01*
X45123D01*
Y25598D01*
X45128D01*
Y25594D01*
X45132D01*
Y25589D01*
X45136D01*
Y25585D01*
X45140D01*
Y25581D01*
X45144D01*
Y25577D01*
X45149D01*
Y25573D01*
X45153D01*
Y25568D01*
X45157D01*
Y25564D01*
X45161D01*
Y25560D01*
X45165D01*
Y25556D01*
X45170D01*
Y25552D01*
X45174D01*
Y25547D01*
X45178D01*
Y25543D01*
X45182D01*
Y25539D01*
X45186D01*
Y25535D01*
X45191D01*
Y25531D01*
X45195D01*
Y25526D01*
X45199D01*
Y25522D01*
X45203D01*
Y25518D01*
X45207D01*
Y25509D01*
X45224D01*
Y26687D01*
X45220D01*
Y26691D01*
X44728D01*
Y26700D01*
X44724D01*
Y26885D01*
X44728D01*
Y26889D01*
X45409D01*
Y26893D01*
X45413D01*
Y26889D01*
D02*
G37*
G36*
X45632D02*
X46318D01*
Y26695D01*
X46313D01*
Y26691D01*
X45821D01*
Y26683D01*
X45817D01*
Y26674D01*
X45821D01*
Y26498D01*
X45817D01*
Y26472D01*
X45821D01*
Y25905D01*
X45817D01*
Y25880D01*
X45821D01*
Y25522D01*
X45817D01*
Y25509D01*
X45821D01*
Y25505D01*
X45826D01*
Y25509D01*
X45834D01*
Y25518D01*
X45838D01*
Y25522D01*
X45842D01*
Y25526D01*
X45847D01*
Y25531D01*
X45851D01*
Y25535D01*
X45855D01*
Y25539D01*
X45859D01*
Y25543D01*
X45863D01*
Y25547D01*
X45868D01*
Y25552D01*
X45872D01*
Y25556D01*
X45876D01*
Y25560D01*
X45880D01*
Y25564D01*
X45884D01*
Y25568D01*
X45889D01*
Y25573D01*
X45893D01*
Y25577D01*
X45897D01*
Y25581D01*
X45901D01*
Y25585D01*
X45905D01*
Y25589D01*
X45910D01*
Y25594D01*
X45914D01*
Y25598D01*
X45918D01*
Y25602D01*
X45922D01*
Y25606D01*
X45926D01*
Y25610D01*
X45931D01*
Y25615D01*
X45935D01*
Y25619D01*
X45939D01*
Y25623D01*
X45943D01*
Y25627D01*
X45947D01*
Y25631D01*
X45952D01*
Y25636D01*
X45956D01*
Y25640D01*
X45960D01*
Y25644D01*
X45964D01*
Y25648D01*
X45969D01*
Y25652D01*
X45973D01*
Y25657D01*
X45977D01*
Y25661D01*
X45981D01*
Y25665D01*
X45985D01*
Y25669D01*
X45990D01*
Y25673D01*
X45994D01*
Y25678D01*
X45998D01*
Y25682D01*
X46002D01*
Y25686D01*
X46006D01*
Y25690D01*
X46011D01*
Y25695D01*
X46015D01*
Y25699D01*
X46019D01*
Y25703D01*
X46023D01*
Y25707D01*
X46027D01*
Y25711D01*
X46032D01*
Y25716D01*
X46036D01*
Y25720D01*
X46040D01*
Y25724D01*
X46044D01*
Y25728D01*
X46048D01*
Y25732D01*
X46053D01*
Y25737D01*
X46057D01*
Y25741D01*
X46061D01*
Y25745D01*
X46065D01*
Y25749D01*
X46069D01*
Y25753D01*
X46074D01*
Y25758D01*
X46078D01*
Y25762D01*
X46082D01*
Y25766D01*
X46086D01*
Y25770D01*
X46090D01*
Y25774D01*
X46095D01*
Y25779D01*
X46099D01*
Y25783D01*
X46103D01*
Y25787D01*
X46107D01*
Y25791D01*
X46111D01*
Y25795D01*
X46116D01*
Y25800D01*
X46120D01*
Y25804D01*
X46124D01*
Y25808D01*
X46128D01*
Y25812D01*
X46133D01*
Y25816D01*
X46137D01*
Y25821D01*
X46141D01*
Y25825D01*
X46145D01*
Y25829D01*
X46149D01*
Y25833D01*
X46154D01*
Y25837D01*
X46158D01*
Y25842D01*
X46162D01*
Y25846D01*
X46166D01*
Y25850D01*
X46170D01*
Y25854D01*
X46175D01*
Y25859D01*
X46179D01*
Y25863D01*
X46183D01*
Y25867D01*
X46187D01*
Y25871D01*
X46191D01*
Y25875D01*
X46196D01*
Y25880D01*
X46204D01*
Y25888D01*
X46208D01*
Y25892D01*
X46212D01*
Y25896D01*
X46217D01*
Y25901D01*
X46221D01*
Y25905D01*
X46225D01*
Y25909D01*
X46229D01*
Y25913D01*
X46233D01*
Y25917D01*
X46238D01*
Y25922D01*
X46242D01*
Y25926D01*
X46246D01*
Y25930D01*
X46250D01*
Y25934D01*
X46254D01*
Y25938D01*
X46259D01*
Y25943D01*
X46263D01*
Y25947D01*
X46267D01*
Y25951D01*
X46271D01*
Y25955D01*
X46276D01*
Y25959D01*
X46280D01*
Y25964D01*
X46284D01*
Y25968D01*
X46288D01*
Y25972D01*
X46292D01*
Y25976D01*
X46297D01*
Y25980D01*
X46301D01*
Y25985D01*
X46305D01*
Y25989D01*
X46309D01*
Y25993D01*
X46313D01*
Y25997D01*
X46318D01*
Y26001D01*
X46322D01*
Y26006D01*
X46326D01*
Y26010D01*
X46330D01*
Y26014D01*
X46334D01*
Y26018D01*
X46339D01*
Y26023D01*
X46343D01*
Y26027D01*
X46347D01*
Y26031D01*
X46351D01*
Y26035D01*
X46355D01*
Y26039D01*
X46360D01*
Y26044D01*
X46364D01*
Y26048D01*
X46368D01*
Y26052D01*
X46372D01*
Y26056D01*
X46376D01*
Y26060D01*
X46381D01*
Y26065D01*
X46385D01*
Y26069D01*
X46389D01*
Y26073D01*
X46393D01*
Y26077D01*
X46397D01*
Y26081D01*
X46402D01*
Y26086D01*
X46406D01*
Y26090D01*
X46410D01*
Y26094D01*
X46414D01*
Y26098D01*
X46418D01*
Y26102D01*
X46423D01*
Y26107D01*
X46427D01*
Y26111D01*
X46431D01*
Y26115D01*
X46435D01*
Y26119D01*
X46439D01*
Y26123D01*
X46444D01*
Y26128D01*
X46448D01*
Y26132D01*
X46452D01*
Y26136D01*
X46456D01*
Y26140D01*
X46461D01*
Y26144D01*
X46465D01*
Y26149D01*
X46469D01*
Y26153D01*
X46473D01*
Y26157D01*
X46477D01*
Y26161D01*
X46482D01*
Y26165D01*
X46486D01*
Y26170D01*
X46490D01*
Y26174D01*
X46494D01*
Y26178D01*
X46498D01*
Y26182D01*
X46503D01*
Y26187D01*
X46507D01*
Y26191D01*
X46511D01*
Y26195D01*
X46515D01*
Y26199D01*
X46519D01*
Y26203D01*
X46524D01*
Y26208D01*
X46528D01*
Y26212D01*
X46532D01*
Y26216D01*
X46536D01*
Y26220D01*
X46540D01*
Y26224D01*
X46545D01*
Y26229D01*
X46549D01*
Y26233D01*
X46553D01*
Y26237D01*
X46557D01*
Y26241D01*
X46561D01*
Y26245D01*
X46566D01*
Y26250D01*
X46570D01*
Y26254D01*
X46574D01*
Y26258D01*
X46578D01*
Y26262D01*
X46582D01*
Y26266D01*
X46587D01*
Y26271D01*
X46591D01*
Y26275D01*
X46595D01*
Y26279D01*
X46599D01*
Y26283D01*
X46604D01*
Y26287D01*
X46608D01*
Y26292D01*
X46612D01*
Y26296D01*
X46616D01*
Y26300D01*
X46620D01*
Y26304D01*
X46625D01*
Y26308D01*
X46629D01*
Y26313D01*
X46633D01*
Y26317D01*
X46637D01*
Y26321D01*
X46641D01*
Y26325D01*
X46646D01*
Y26329D01*
X46650D01*
Y26334D01*
X46654D01*
Y26338D01*
X46658D01*
Y26342D01*
X46662D01*
Y26346D01*
X46667D01*
Y26351D01*
X46671D01*
Y26355D01*
X46675D01*
Y26359D01*
X46679D01*
Y26363D01*
X46683D01*
Y26367D01*
X46688D01*
Y26372D01*
X46692D01*
Y26376D01*
X46696D01*
Y26380D01*
X46700D01*
Y26384D01*
X46704D01*
Y26388D01*
X46709D01*
Y26393D01*
X46713D01*
Y26397D01*
X46717D01*
Y26401D01*
X46721D01*
Y26405D01*
X46725D01*
Y26409D01*
X46730D01*
Y26414D01*
X46734D01*
Y26418D01*
X46738D01*
Y26422D01*
X46742D01*
Y26426D01*
X46746D01*
Y26430D01*
X46751D01*
Y26435D01*
X46755D01*
Y26439D01*
X46759D01*
Y26443D01*
X46763D01*
Y26447D01*
X46768D01*
Y26451D01*
X46772D01*
Y26456D01*
X46776D01*
Y26460D01*
X46780D01*
Y26464D01*
X46784D01*
Y26468D01*
X46789D01*
Y26472D01*
X46793D01*
Y26477D01*
X46797D01*
Y26481D01*
X46801D01*
Y26485D01*
X46805D01*
Y26489D01*
X46810D01*
Y26485D01*
X46814D01*
Y26481D01*
X46818D01*
Y26468D01*
X46822D01*
Y26456D01*
X46826D01*
Y26443D01*
X46831D01*
Y26430D01*
X46835D01*
Y26418D01*
X46839D01*
Y26405D01*
X46843D01*
Y26388D01*
X46847D01*
Y26380D01*
X46852D01*
Y26363D01*
X46856D01*
Y26351D01*
X46860D01*
Y26338D01*
X46864D01*
Y26325D01*
X46868D01*
Y26313D01*
X46873D01*
Y26300D01*
X46877D01*
Y26287D01*
X46881D01*
Y26275D01*
X46885D01*
Y26258D01*
X46889D01*
Y26245D01*
X46894D01*
Y26233D01*
X46898D01*
Y26220D01*
X46902D01*
Y26208D01*
X46906D01*
Y26195D01*
X46910D01*
Y26182D01*
X46915D01*
Y26170D01*
X46919D01*
Y26157D01*
X46923D01*
Y26140D01*
X46927D01*
Y26128D01*
X46931D01*
Y26115D01*
X46936D01*
Y26102D01*
X46940D01*
Y26090D01*
X46944D01*
Y26077D01*
X46948D01*
Y26065D01*
X46953D01*
Y26052D01*
X46957D01*
Y26039D01*
X46961D01*
Y26023D01*
X46965D01*
Y26010D01*
X46969D01*
Y25997D01*
X46974D01*
Y25985D01*
X46978D01*
Y25972D01*
X46982D01*
Y25959D01*
X46986D01*
Y25947D01*
X46990D01*
Y25934D01*
X46995D01*
Y25917D01*
X46999D01*
Y25909D01*
X47003D01*
Y25892D01*
X47007D01*
Y25880D01*
X47011D01*
Y25867D01*
X47016D01*
Y25854D01*
X47020D01*
Y25842D01*
X47024D01*
Y25829D01*
X47028D01*
Y25816D01*
X47032D01*
Y25800D01*
X47037D01*
Y25787D01*
X47041D01*
Y25774D01*
X47045D01*
Y25762D01*
X47049D01*
Y25749D01*
X47053D01*
Y25737D01*
X47058D01*
Y25724D01*
X47062D01*
Y25711D01*
X47066D01*
Y25699D01*
X47070D01*
Y25686D01*
X47074D01*
Y25669D01*
X47079D01*
Y25657D01*
X47083D01*
Y25644D01*
X47087D01*
Y25631D01*
X47091D01*
Y25619D01*
X47095D01*
Y25606D01*
X47100D01*
Y25594D01*
X47104D01*
Y25581D01*
X47108D01*
Y25568D01*
X47112D01*
Y25552D01*
X47117D01*
Y25539D01*
X47121D01*
Y25526D01*
X47125D01*
Y25509D01*
X47129D01*
Y25501D01*
X47133D01*
Y25488D01*
X47138D01*
Y25476D01*
X47142D01*
Y25463D01*
X47146D01*
Y25446D01*
X47150D01*
Y25438D01*
X47154D01*
Y25421D01*
X47159D01*
Y25409D01*
X47163D01*
Y25396D01*
X47167D01*
Y25383D01*
X47171D01*
Y25371D01*
X47175D01*
Y25358D01*
X47180D01*
Y25346D01*
X47184D01*
Y25333D01*
X47188D01*
Y25316D01*
X47192D01*
Y25303D01*
X47196D01*
Y25291D01*
X47201D01*
Y25278D01*
X47205D01*
Y25266D01*
X47209D01*
Y25253D01*
X47213D01*
Y25240D01*
X47217D01*
Y25228D01*
X47222D01*
Y25215D01*
X47226D01*
Y25198D01*
X47230D01*
Y25186D01*
X47234D01*
Y25173D01*
X47238D01*
Y25160D01*
X47243D01*
Y25148D01*
X47247D01*
Y25135D01*
X47251D01*
Y25123D01*
X47255D01*
Y25110D01*
X47259D01*
Y25097D01*
X47264D01*
Y25085D01*
X47268D01*
Y25068D01*
X47272D01*
Y25055D01*
X47276D01*
Y25043D01*
X47281D01*
Y25030D01*
X47285D01*
Y25017D01*
X47289D01*
Y25005D01*
X47293D01*
Y24992D01*
X47297D01*
Y24975D01*
X47302D01*
Y24967D01*
X47306D01*
Y24950D01*
X47310D01*
Y24938D01*
X47314D01*
Y24925D01*
X47318D01*
Y24912D01*
X47323D01*
Y24900D01*
X47327D01*
Y24887D01*
X47331D01*
Y24875D01*
X47335D01*
Y24862D01*
X47339D01*
Y24845D01*
X47344D01*
Y24832D01*
X47348D01*
Y24820D01*
X47352D01*
Y24807D01*
X47356D01*
Y24795D01*
X47360D01*
Y24782D01*
X47365D01*
Y24769D01*
X47369D01*
Y24753D01*
X47373D01*
Y24744D01*
X47377D01*
Y24727D01*
X47381D01*
Y24715D01*
X47386D01*
Y24702D01*
X47390D01*
Y24690D01*
X47394D01*
Y24677D01*
X47398D01*
Y24664D01*
X47402D01*
Y24652D01*
X47407D01*
Y24639D01*
X47411D01*
Y24626D01*
X47415D01*
Y24610D01*
X47419D01*
Y24597D01*
X47423D01*
Y24584D01*
X47428D01*
Y24572D01*
X47432D01*
Y24559D01*
X47436D01*
Y24547D01*
X47440D01*
Y24534D01*
X47445D01*
Y24521D01*
X47449D01*
Y24504D01*
X47453D01*
Y24496D01*
X47457D01*
Y24479D01*
X47461D01*
Y24467D01*
X47466D01*
Y24454D01*
X47470D01*
Y24441D01*
X47474D01*
Y24429D01*
X47478D01*
Y24416D01*
X47482D01*
Y24404D01*
X47487D01*
Y24387D01*
X47491D01*
Y24374D01*
X47495D01*
Y24361D01*
X47499D01*
Y24349D01*
X47503D01*
Y24336D01*
X47508D01*
Y24324D01*
X47512D01*
Y24311D01*
X47516D01*
Y24298D01*
X47520D01*
Y24286D01*
X47524D01*
Y24273D01*
X47529D01*
Y24256D01*
X47533D01*
Y24244D01*
X47537D01*
Y24231D01*
X47541D01*
Y24219D01*
X47545D01*
Y24206D01*
X47550D01*
Y24193D01*
X47554D01*
Y24181D01*
X47558D01*
Y24164D01*
X47562D01*
Y24155D01*
X47566D01*
Y24139D01*
X47571D01*
Y24126D01*
X47575D01*
Y24113D01*
X47579D01*
Y24101D01*
X47583D01*
Y24088D01*
X47587D01*
Y24076D01*
X47592D01*
Y24063D01*
X47596D01*
Y24050D01*
X47600D01*
Y24034D01*
X47604D01*
Y24021D01*
X47609D01*
Y24008D01*
X47613D01*
Y23996D01*
X47617D01*
Y23983D01*
X47621D01*
Y23970D01*
X47625D01*
Y23958D01*
X47630D01*
Y23945D01*
X47634D01*
Y23933D01*
X47638D01*
Y23920D01*
X47642D01*
Y23903D01*
X47646D01*
Y23891D01*
X47651D01*
Y23878D01*
X47655D01*
Y23865D01*
X47659D01*
Y23853D01*
X47663D01*
Y23840D01*
X47667D01*
Y23827D01*
X47672D01*
Y23811D01*
X47676D01*
Y23802D01*
X47680D01*
Y23785D01*
X47684D01*
Y23773D01*
X47688D01*
Y23760D01*
X47693D01*
Y23748D01*
X47697D01*
Y23735D01*
X47701D01*
Y23718D01*
X47705D01*
Y23714D01*
X47709D01*
Y23710D01*
X48206D01*
Y23516D01*
X48201D01*
Y23512D01*
X47411D01*
Y23520D01*
X47407D01*
Y23706D01*
X47411D01*
Y23710D01*
X47600D01*
Y23714D01*
X47604D01*
Y23727D01*
X47600D01*
Y23743D01*
X47596D01*
Y23752D01*
X47592D01*
Y23769D01*
X47587D01*
Y23781D01*
X47583D01*
Y23794D01*
X47579D01*
Y23806D01*
X47575D01*
Y23819D01*
X47571D01*
Y23832D01*
X47566D01*
Y23848D01*
X47562D01*
Y23861D01*
X47558D01*
Y23874D01*
X47554D01*
Y23886D01*
X47550D01*
Y23899D01*
X47545D01*
Y23912D01*
X47541D01*
Y23924D01*
X47537D01*
Y23941D01*
X47533D01*
Y23954D01*
X47529D01*
Y23966D01*
X47524D01*
Y23979D01*
X47520D01*
Y23991D01*
X47516D01*
Y24004D01*
X47512D01*
Y24017D01*
X47508D01*
Y24034D01*
X47503D01*
Y24046D01*
X47499D01*
Y24059D01*
X47495D01*
Y24071D01*
X47491D01*
Y24084D01*
X47487D01*
Y24097D01*
X47482D01*
Y24109D01*
X47478D01*
Y24126D01*
X47474D01*
Y24134D01*
X47470D01*
Y24151D01*
X47466D01*
Y24164D01*
X47461D01*
Y24176D01*
X47457D01*
Y24189D01*
X47453D01*
Y24202D01*
X47449D01*
Y24219D01*
X47445D01*
Y24227D01*
X47440D01*
Y24244D01*
X47436D01*
Y24256D01*
X47432D01*
Y24269D01*
X47428D01*
Y24282D01*
X47423D01*
Y24294D01*
X47419D01*
Y24307D01*
X47415D01*
Y24324D01*
X47411D01*
Y24336D01*
X47407D01*
Y24349D01*
X47402D01*
Y24361D01*
X47398D01*
Y24374D01*
X47394D01*
Y24387D01*
X47390D01*
Y24399D01*
X47386D01*
Y24416D01*
X47381D01*
Y24429D01*
X47377D01*
Y24441D01*
X47373D01*
Y24454D01*
X47369D01*
Y24467D01*
X47365D01*
Y24479D01*
X47360D01*
Y24496D01*
X47356D01*
Y24509D01*
X47352D01*
Y24521D01*
X47348D01*
Y24534D01*
X47344D01*
Y24547D01*
X47339D01*
Y24559D01*
X47335D01*
Y24572D01*
X47331D01*
Y24584D01*
X47327D01*
Y24601D01*
X47323D01*
Y24614D01*
X47318D01*
Y24626D01*
X47314D01*
Y24639D01*
X47310D01*
Y24652D01*
X47306D01*
Y24668D01*
X47302D01*
Y24677D01*
X47297D01*
Y24694D01*
X47293D01*
Y24706D01*
X47289D01*
Y24719D01*
X47285D01*
Y24732D01*
X47281D01*
Y24744D01*
X47276D01*
Y24757D01*
X47272D01*
Y24769D01*
X47268D01*
Y24786D01*
X47264D01*
Y24799D01*
X47259D01*
Y24811D01*
X47255D01*
Y24824D01*
X47251D01*
Y24837D01*
X47247D01*
Y24849D01*
X47243D01*
Y24862D01*
X47238D01*
Y24879D01*
X47234D01*
Y24891D01*
X47230D01*
Y24900D01*
X47226D01*
Y24917D01*
X47222D01*
Y24929D01*
X47217D01*
Y24942D01*
X47213D01*
Y24954D01*
X47209D01*
Y24971D01*
X47205D01*
Y24984D01*
X47201D01*
Y24996D01*
X47196D01*
Y25009D01*
X47192D01*
Y25022D01*
X47188D01*
Y25034D01*
X47184D01*
Y25051D01*
X47180D01*
Y25064D01*
X47175D01*
Y25076D01*
X47171D01*
Y25089D01*
X47167D01*
Y25102D01*
X47163D01*
Y25114D01*
X47159D01*
Y25127D01*
X47154D01*
Y25144D01*
X47150D01*
Y25156D01*
X47146D01*
Y25169D01*
X47142D01*
Y25181D01*
X47138D01*
Y25194D01*
X47133D01*
Y25207D01*
X47129D01*
Y25219D01*
X47125D01*
Y25236D01*
X47121D01*
Y25245D01*
X47117D01*
Y25261D01*
X47112D01*
Y25274D01*
X47108D01*
Y25287D01*
X47104D01*
Y25299D01*
X47100D01*
Y25312D01*
X47095D01*
Y25329D01*
X47091D01*
Y25337D01*
X47087D01*
Y25354D01*
X47083D01*
Y25367D01*
X47079D01*
Y25379D01*
X47074D01*
Y25392D01*
X47070D01*
Y25404D01*
X47066D01*
Y25417D01*
X47062D01*
Y25434D01*
X47058D01*
Y25446D01*
X47053D01*
Y25459D01*
X47049D01*
Y25472D01*
X47045D01*
Y25484D01*
X47041D01*
Y25497D01*
X47037D01*
Y25509D01*
X47032D01*
Y25526D01*
X47028D01*
Y25539D01*
X47024D01*
Y25552D01*
X47020D01*
Y25564D01*
X47016D01*
Y25577D01*
X47011D01*
Y25589D01*
X47007D01*
Y25606D01*
X47003D01*
Y25619D01*
X46999D01*
Y25631D01*
X46995D01*
Y25644D01*
X46990D01*
Y25657D01*
X46986D01*
Y25669D01*
X46982D01*
Y25682D01*
X46978D01*
Y25695D01*
X46974D01*
Y25711D01*
X46969D01*
Y25724D01*
X46965D01*
Y25737D01*
X46961D01*
Y25749D01*
X46957D01*
Y25762D01*
X46953D01*
Y25774D01*
X46948D01*
Y25787D01*
X46944D01*
Y25804D01*
X46940D01*
Y25816D01*
X46936D01*
Y25829D01*
X46931D01*
Y25842D01*
X46927D01*
Y25854D01*
X46923D01*
Y25867D01*
X46919D01*
Y25880D01*
X46915D01*
Y25892D01*
X46902D01*
Y25884D01*
X46898D01*
Y25880D01*
X46889D01*
Y25875D01*
X46885D01*
Y25871D01*
X46881D01*
Y25867D01*
X46877D01*
Y25863D01*
X46873D01*
Y25859D01*
X46868D01*
Y25854D01*
X46864D01*
Y25850D01*
X46860D01*
Y25846D01*
X46856D01*
Y25842D01*
X46852D01*
Y25837D01*
X46843D01*
Y25833D01*
X46839D01*
Y25829D01*
X46835D01*
Y25825D01*
X46831D01*
Y25821D01*
X46826D01*
Y25816D01*
X46822D01*
Y25812D01*
X46818D01*
Y25808D01*
X46814D01*
Y25804D01*
X46810D01*
Y25800D01*
X46801D01*
Y25795D01*
X46797D01*
Y25791D01*
X46793D01*
Y25787D01*
X46789D01*
Y25783D01*
X46784D01*
Y25779D01*
X46780D01*
Y25774D01*
X46776D01*
Y25770D01*
X46772D01*
Y25766D01*
X46768D01*
Y25762D01*
X46763D01*
Y25758D01*
X46759D01*
Y25753D01*
X46751D01*
Y25749D01*
X46746D01*
Y25745D01*
X46742D01*
Y25741D01*
X46738D01*
Y25737D01*
X46734D01*
Y25732D01*
X46730D01*
Y25728D01*
X46725D01*
Y25724D01*
X46721D01*
Y25720D01*
X46717D01*
Y25716D01*
X46713D01*
Y25711D01*
X46704D01*
Y25707D01*
X46700D01*
Y25703D01*
X46696D01*
Y25699D01*
X46692D01*
Y25695D01*
X46688D01*
Y25690D01*
X46683D01*
Y25686D01*
X46679D01*
Y25682D01*
X46675D01*
Y25678D01*
X46671D01*
Y25673D01*
X46662D01*
Y25669D01*
X46658D01*
Y25665D01*
X46654D01*
Y25661D01*
X46650D01*
Y25657D01*
X46646D01*
Y25652D01*
X46641D01*
Y25648D01*
X46637D01*
Y25644D01*
X46633D01*
Y25640D01*
X46629D01*
Y25636D01*
X46625D01*
Y25631D01*
X46620D01*
Y25627D01*
X46612D01*
Y25623D01*
X46608D01*
Y25619D01*
X46604D01*
Y25615D01*
X46599D01*
Y25610D01*
X46595D01*
Y25606D01*
X46591D01*
Y25602D01*
X46587D01*
Y25598D01*
X46582D01*
Y25594D01*
X46578D01*
Y25589D01*
X46570D01*
Y25585D01*
X46566D01*
Y25581D01*
X46561D01*
Y25577D01*
X46557D01*
Y25573D01*
X46553D01*
Y25568D01*
X46549D01*
Y25564D01*
X46545D01*
Y25560D01*
X46540D01*
Y25556D01*
X46536D01*
Y25552D01*
X46532D01*
Y25547D01*
X46528D01*
Y25543D01*
X46519D01*
Y25539D01*
X46515D01*
Y25535D01*
X46511D01*
Y25531D01*
X46507D01*
Y25526D01*
X46503D01*
Y25522D01*
X46498D01*
Y25518D01*
X46494D01*
Y25514D01*
X46490D01*
Y25509D01*
X46486D01*
Y25505D01*
X46477D01*
Y25497D01*
X46469D01*
Y25493D01*
X46465D01*
Y25488D01*
X46461D01*
Y25484D01*
X46456D01*
Y25480D01*
X46452D01*
Y25476D01*
X46448D01*
Y25472D01*
X46444D01*
Y25467D01*
X46439D01*
Y25463D01*
X46431D01*
Y25459D01*
X46427D01*
Y25455D01*
X46423D01*
Y25451D01*
X46418D01*
Y25446D01*
X46414D01*
Y25442D01*
X46410D01*
Y25438D01*
X46406D01*
Y25434D01*
X46402D01*
Y25430D01*
X46397D01*
Y25425D01*
X46393D01*
Y25421D01*
X46389D01*
Y25417D01*
X46381D01*
Y25413D01*
X46376D01*
Y25409D01*
X46372D01*
Y25404D01*
X46368D01*
Y25400D01*
X46364D01*
Y25396D01*
X46360D01*
Y25392D01*
X46355D01*
Y25388D01*
X46351D01*
Y25383D01*
X46347D01*
Y25379D01*
X46339D01*
Y25375D01*
X46334D01*
Y25371D01*
X46330D01*
Y25367D01*
X46326D01*
Y25362D01*
X46322D01*
Y25358D01*
X46318D01*
Y25354D01*
X46313D01*
Y25350D01*
X46309D01*
Y25346D01*
X46305D01*
Y25341D01*
X46301D01*
Y25337D01*
X46297D01*
Y25333D01*
X46288D01*
Y25329D01*
X46284D01*
Y25324D01*
X46280D01*
Y25320D01*
X46276D01*
Y25316D01*
X46271D01*
Y25312D01*
X46267D01*
Y25308D01*
X46263D01*
Y25303D01*
X46259D01*
Y25299D01*
X46254D01*
Y25295D01*
X46246D01*
Y25291D01*
X46242D01*
Y25287D01*
X46238D01*
Y25282D01*
X46233D01*
Y25278D01*
X46229D01*
Y25274D01*
X46225D01*
Y25270D01*
X46221D01*
Y25266D01*
X46217D01*
Y25261D01*
X46212D01*
Y25257D01*
X46208D01*
Y25253D01*
X46200D01*
Y25249D01*
X46196D01*
Y25245D01*
X46191D01*
Y25240D01*
X46187D01*
Y25236D01*
X46183D01*
Y25232D01*
X46179D01*
Y25228D01*
X46175D01*
Y25224D01*
X46170D01*
Y25219D01*
X46166D01*
Y25215D01*
X46162D01*
Y25211D01*
X46154D01*
Y25207D01*
X46149D01*
Y25203D01*
X46145D01*
Y25198D01*
X46141D01*
Y25194D01*
X46137D01*
Y25190D01*
X46133D01*
Y25186D01*
X46128D01*
Y25181D01*
X46124D01*
Y25177D01*
X46120D01*
Y25173D01*
X46116D01*
Y25169D01*
X46107D01*
Y25165D01*
X46103D01*
Y25160D01*
X46099D01*
Y25156D01*
X46095D01*
Y25152D01*
X46090D01*
Y25148D01*
X46086D01*
Y25144D01*
X46082D01*
Y25139D01*
X46078D01*
Y25135D01*
X46074D01*
Y25131D01*
X46069D01*
Y25127D01*
X46065D01*
Y25123D01*
X46057D01*
Y25118D01*
X46053D01*
Y25114D01*
X46048D01*
Y25110D01*
X46044D01*
Y25106D01*
X46040D01*
Y25102D01*
X46036D01*
Y25097D01*
X46032D01*
Y25093D01*
X46027D01*
Y25089D01*
X46019D01*
Y25085D01*
X46015D01*
Y25081D01*
X46011D01*
Y25076D01*
X46006D01*
Y25072D01*
X46002D01*
Y25068D01*
X45998D01*
Y25064D01*
X45994D01*
Y25060D01*
X45990D01*
Y25055D01*
X45985D01*
Y25051D01*
X45981D01*
Y25047D01*
X45977D01*
Y25043D01*
X45969D01*
Y25039D01*
X45964D01*
Y25034D01*
X45960D01*
Y25030D01*
X45956D01*
Y25026D01*
X45952D01*
Y25022D01*
X45947D01*
Y25017D01*
X45943D01*
Y25013D01*
X45939D01*
Y25009D01*
X45935D01*
Y25005D01*
X45926D01*
Y25001D01*
X45922D01*
Y24996D01*
X45918D01*
Y24992D01*
X45914D01*
Y24988D01*
X45910D01*
Y24984D01*
X45905D01*
Y24980D01*
X45901D01*
Y24975D01*
X45897D01*
Y24971D01*
X45893D01*
Y24967D01*
X45889D01*
Y24963D01*
X45884D01*
Y24959D01*
X45876D01*
Y24954D01*
X45872D01*
Y24950D01*
X45868D01*
Y24946D01*
X45863D01*
Y24942D01*
X45859D01*
Y24938D01*
X45855D01*
Y24933D01*
X45851D01*
Y24929D01*
X45847D01*
Y24925D01*
X45842D01*
Y24921D01*
X45838D01*
Y24917D01*
X45830D01*
Y24912D01*
X45826D01*
Y24908D01*
X45821D01*
Y24896D01*
X45817D01*
Y24887D01*
X45821D01*
Y23626D01*
X45817D01*
Y23617D01*
X45821D01*
Y23613D01*
X45830D01*
Y23609D01*
X45838D01*
Y23613D01*
X46196D01*
Y23609D01*
X46200D01*
Y23613D01*
X46212D01*
Y23609D01*
X46217D01*
Y23415D01*
X46208D01*
Y23411D01*
X46204D01*
Y23415D01*
X45636D01*
Y23411D01*
X45628D01*
Y23415D01*
X45624D01*
Y23420D01*
X45619D01*
Y26889D01*
X45628D01*
Y26893D01*
X45632D01*
Y26889D01*
D02*
G37*
G36*
X48201Y23306D02*
X48206D01*
Y23121D01*
X48201D01*
Y23117D01*
X42840D01*
Y23121D01*
X42836D01*
Y23306D01*
X42840D01*
Y23314D01*
X48201D01*
Y23306D01*
D02*
G37*
D35*
X10277Y32800D02*
G03*
X10277Y32800I-127J0D01*
G01*
D36*
X21720Y32045D02*
G03*
X21720Y32045I-100J0D01*
G01*
X21400Y36250D02*
G03*
X21400Y36250I-100J0D01*
G01*
X27600Y26680D02*
G03*
X27600Y26680I-100J0D01*
G01*
X15100Y18850D02*
Y25000D01*
X17250Y27150D01*
X15100Y18850D02*
X17250D01*
X21250D02*
X23400D01*
Y25000D01*
X21250Y27150D02*
X23400Y25000D01*
X10010Y3000D02*
X11510D01*
X10010Y10600D02*
X11510D01*
X20090Y3000D02*
Y4500D01*
X10010Y3000D02*
Y4500D01*
Y9100D02*
Y10600D01*
X18000Y37250D02*
X18800D01*
X20090Y9100D02*
Y10600D01*
X18590D02*
X20090D01*
X1730Y32230D02*
Y39850D01*
X4270D01*
X18590Y3000D02*
X20090D01*
X1730Y32230D02*
X4270D01*
Y39850D01*
X24600Y17350D02*
Y21500D01*
Y17350D02*
X25750D01*
X16500Y37250D02*
X17300D01*
X15000Y37250D02*
X15800D01*
X28750Y17350D02*
X29900D01*
X24600Y21500D02*
X25750Y22650D01*
X28750D02*
X29900Y21500D01*
Y17350D02*
Y21500D01*
X26700Y29451D02*
Y30795D01*
Y29451D02*
X28044D01*
X26700Y39205D02*
Y40549D01*
X28044D01*
X16500Y30100D02*
Y30900D01*
X38300Y39205D02*
Y40549D01*
X36956D02*
X38300D01*
Y29451D02*
Y30795D01*
X36956Y29451D02*
X38300D01*
X38225Y22250D02*
X39275D01*
X39500Y3975D02*
Y5025D01*
X7867Y10700D02*
X8534Y9700D01*
Y10700D02*
X7867Y9700D01*
X8867D02*
X9200D01*
X9033D01*
Y10700D01*
X8867Y10533D01*
X25584Y28750D02*
Y27917D01*
X25750Y27750D01*
X26083D01*
X26250Y27917D01*
Y28750D01*
X26583Y27750D02*
X26916D01*
X26750D01*
Y28750D01*
X26583Y28583D01*
X21167Y33750D02*
Y32917D01*
X21334Y32750D01*
X21667D01*
X21833Y32917D01*
Y33750D01*
X22833Y32750D02*
X22167D01*
X22833Y33417D01*
Y33583D01*
X22666Y33750D01*
X22333D01*
X22167Y33583D01*
X3000Y41533D02*
X2833Y41700D01*
X2500D01*
X2334Y41533D01*
Y41366D01*
X2500Y41200D01*
X2833D01*
X3000Y41033D01*
Y40867D01*
X2833Y40700D01*
X2500D01*
X2334Y40867D01*
X3333Y40700D02*
X3666D01*
X3500D01*
Y41700D01*
X3333Y41533D01*
X18900Y38675D02*
X17900D01*
Y39175D01*
X18067Y39341D01*
X18400D01*
X18567Y39175D01*
Y38675D01*
Y39008D02*
X18900Y39341D01*
Y40341D02*
Y39675D01*
X18233Y40341D01*
X18067D01*
X17900Y40175D01*
Y39841D01*
X18067Y39675D01*
X15900Y38675D02*
X14900D01*
Y39175D01*
X15067Y39341D01*
X15400D01*
X15567Y39175D01*
Y38675D01*
Y39008D02*
X15900Y39341D01*
Y39675D02*
Y40008D01*
Y39841D01*
X14900D01*
X15067Y39675D01*
X23084Y35517D02*
Y36183D01*
X22917Y36350D01*
X22584D01*
X22417Y36183D01*
Y35517D01*
X22584Y35350D01*
X22917D01*
X22750Y35684D02*
X23084Y35350D01*
X22917D02*
X23084Y35517D01*
X23417Y35350D02*
X23750D01*
X23583D01*
Y36350D01*
X23417Y36183D01*
X38667Y3400D02*
Y2400D01*
X39333D01*
X40333D02*
X39667D01*
X40333Y3067D01*
Y3233D01*
X40166Y3400D01*
X39833D01*
X39667Y3233D01*
X38250Y19267D02*
X39250D01*
Y19934D01*
Y20267D02*
Y20600D01*
Y20433D01*
X38250D01*
X38417Y20267D01*
X47684Y8820D02*
Y7820D01*
Y8320D01*
X48350D01*
Y8820D01*
Y7820D01*
X49183D02*
Y8820D01*
X48684Y8320D01*
X49350D01*
X39739Y48610D02*
Y47610D01*
Y48110D01*
X40405D01*
Y48610D01*
Y47610D01*
X41405D02*
X40739D01*
X41405Y48277D01*
Y48443D01*
X41238Y48610D01*
X40905D01*
X40739Y48443D01*
X47613Y41951D02*
Y40951D01*
Y41451D01*
X48279D01*
Y41951D01*
Y40951D01*
X48613Y41784D02*
X48779Y41951D01*
X49112D01*
X49279Y41784D01*
Y41617D01*
X49112Y41451D01*
X48946D01*
X49112D01*
X49279Y41284D01*
Y41118D01*
X49112Y40951D01*
X48779D01*
X48613Y41118D01*
X8595Y48610D02*
Y47610D01*
Y48110D01*
X9261D01*
Y48610D01*
Y47610D01*
X9595D02*
X9928D01*
X9761D01*
Y48610D01*
X9595Y48443D01*
X1583Y10750D02*
X917D01*
Y10250D01*
X1250D01*
X917D01*
Y9750D01*
X2583D02*
X1917D01*
X2583Y10417D01*
Y10583D01*
X2416Y10750D01*
X2083D01*
X1917Y10583D01*
X10616Y40650D02*
X9950D01*
Y40150D01*
X10283D01*
X9950D01*
Y39650D01*
X10950D02*
X11283D01*
X11116D01*
Y40650D01*
X10950Y40483D01*
X33334Y13950D02*
Y12950D01*
X33833D01*
X34000Y13117D01*
Y13783D01*
X33833Y13950D01*
X33334D01*
X34333Y12950D02*
X34666D01*
X34500D01*
Y13950D01*
X34333Y13783D01*
X27083Y15884D02*
X26917Y16050D01*
X26584D01*
X26417Y15884D01*
Y15217D01*
X26584Y15050D01*
X26917D01*
X27083Y15217D01*
X27916Y15050D02*
Y16050D01*
X27417Y15550D01*
X28083D01*
X19083Y16633D02*
X18917Y16800D01*
X18584D01*
X18417Y16633D01*
Y15967D01*
X18584Y15800D01*
X18917D01*
X19083Y15967D01*
X19417Y16633D02*
X19583Y16800D01*
X19916D01*
X20083Y16633D01*
Y16467D01*
X19916Y16300D01*
X19750D01*
X19916D01*
X20083Y16134D01*
Y15967D01*
X19916Y15800D01*
X19583D01*
X19417Y15967D01*
X18591Y30833D02*
X18425Y31000D01*
X18092D01*
X17925Y30833D01*
Y30167D01*
X18092Y30000D01*
X18425D01*
X18591Y30167D01*
X19591Y30000D02*
X18925D01*
X19591Y30667D01*
Y30833D01*
X19425Y31000D01*
X19091D01*
X18925Y30833D01*
X16567Y39341D02*
X16400Y39175D01*
Y38842D01*
X16567Y38675D01*
X17233D01*
X17400Y38842D01*
Y39175D01*
X17233Y39341D01*
X17400Y39675D02*
Y40008D01*
Y39841D01*
X16400D01*
X16567Y39675D01*
D37*
X31048Y21970D02*
Y22970D01*
X31798D01*
X36952Y21970D02*
Y22970D01*
X36202D02*
X36952D01*
X31048Y15030D02*
Y16030D01*
X34000Y19444D02*
X34889Y18556D01*
X31048Y15030D02*
X31798D01*
X33111Y18555D02*
X34000Y19445D01*
X12696Y11851D02*
Y14351D01*
X36952Y15030D02*
Y16030D01*
X36202Y15030D02*
X36952D01*
X12696Y27385D02*
Y29885D01*
X10196D02*
X12696D01*
X2231D02*
X4731D01*
X2231Y11851D02*
X4731D01*
X10196D02*
X12696D01*
X2231Y27385D02*
Y29885D01*
Y11851D02*
Y14351D01*
D38*
X31185Y48564D02*
X32185D01*
X11185D02*
X12185D01*
X11185Y47564D02*
Y48564D01*
X40355Y41960D02*
X41355D01*
Y42960D01*
X18815Y47564D02*
Y48564D01*
X20350Y47040D02*
X21350D01*
X8650D02*
X9650D01*
X17815Y48564D02*
X18815D01*
X21350Y46040D02*
Y47040D01*
X37815Y48564D02*
X38815D01*
X41350Y46040D02*
Y47040D01*
X31185Y47564D02*
Y48564D01*
X38815Y47564D02*
Y48564D01*
X40350Y47040D02*
X41350D01*
X28650Y41960D02*
Y42960D01*
Y41960D02*
X29650D01*
X28650Y47040D02*
X29650D01*
X28650Y46040D02*
Y47040D01*
X8650Y41960D02*
X9650D01*
X20355D02*
X21355D01*
X8650Y46040D02*
Y47040D01*
Y41960D02*
Y42960D01*
X21355Y41960D02*
Y42960D01*
X47719Y32941D02*
Y33941D01*
X42639Y32941D02*
Y33941D01*
X47790Y15830D02*
Y16830D01*
X46719Y32941D02*
X47719D01*
X42639D02*
X43639D01*
X46719Y40561D02*
X47719D01*
Y39561D02*
Y40561D01*
X42639Y39561D02*
Y40561D01*
X43639D01*
X46790Y9210D02*
X47790D01*
Y10210D01*
X42710Y9210D02*
Y10210D01*
Y16830D02*
X43710D01*
X46790D02*
X47790D01*
X42710Y9210D02*
X43710D01*
X42710Y15830D02*
Y16830D01*
D39*
X16450Y35050D02*
X19550D01*
X10150Y34900D02*
Y37100D01*
X17488Y31950D02*
X19550D01*
X16450D02*
X16862D01*
X13350Y34900D02*
Y37100D01*
X20800Y38900D02*
X21530D01*
X23700Y38215D02*
Y38900D01*
X20800Y38215D02*
Y38900D01*
X22970D02*
X23700D01*
D40*
X32000Y2000D02*
Y5000D01*
X28000Y2000D02*
Y5000D01*
Y2000D02*
X32000D01*
X28000Y5000D02*
X32000D01*
X21878Y10629D02*
Y9130D01*
X22627D01*
X22877Y9380D01*
Y10380D01*
X22627Y10629D01*
X21878D01*
X23377Y9130D02*
X23877D01*
X23627D01*
Y10130D01*
X23377D01*
X24627Y9130D02*
X25376D01*
X25626Y9380D01*
X25376Y9630D01*
X24877D01*
X24627Y9880D01*
X24877Y10130D01*
X25626D01*
X26376Y10380D02*
Y10130D01*
X26126D01*
X26626D01*
X26376D01*
Y9380D01*
X26626Y9130D01*
X27376Y10130D02*
Y9130D01*
Y9630D01*
X27626Y9880D01*
X27876Y10130D01*
X28126D01*
X28875Y9130D02*
X29375D01*
X29125D01*
Y10130D01*
X28875D01*
X30125Y10629D02*
Y9130D01*
X30875D01*
X31125Y9380D01*
Y9630D01*
Y9880D01*
X30875Y10130D01*
X30125D01*
X31624D02*
Y9380D01*
X31874Y9130D01*
X32624D01*
Y10130D01*
X33374Y10380D02*
Y10130D01*
X33124D01*
X33624D01*
X33374D01*
Y9380D01*
X33624Y9130D01*
X34374D02*
X34873D01*
X34624D01*
Y10130D01*
X34374D01*
X35873Y9130D02*
X36373D01*
X36623Y9380D01*
Y9880D01*
X36373Y10130D01*
X35873D01*
X35623Y9880D01*
Y9380D01*
X35873Y9130D01*
X37123D02*
Y10130D01*
X37872D01*
X38122Y9880D01*
Y9130D01*
X23127Y7870D02*
Y6371D01*
X23877D01*
X24127Y6620D01*
Y6870D01*
X23877Y7120D01*
X23127D01*
X23877D01*
X24127Y7370D01*
Y7620D01*
X23877Y7870D01*
X23127D01*
X24877Y6371D02*
X25376D01*
X25626Y6620D01*
Y7120D01*
X25376Y7370D01*
X24877D01*
X24627Y7120D01*
Y6620D01*
X24877Y6371D01*
X26376Y7370D02*
X26876D01*
X27126Y7120D01*
Y6371D01*
X26376D01*
X26126Y6620D01*
X26376Y6870D01*
X27126D01*
X27626Y7370D02*
Y6371D01*
Y6870D01*
X27876Y7120D01*
X28126Y7370D01*
X28376D01*
X30125Y7870D02*
Y6371D01*
X29375D01*
X29125Y6620D01*
Y7120D01*
X29375Y7370D01*
X30125D01*
X32124Y6371D02*
Y7870D01*
X32624Y7370D01*
X33124Y7870D01*
Y6371D01*
X33624D02*
X34124D01*
X33874D01*
Y7370D01*
X33624D01*
X34873Y6371D02*
Y7370D01*
X35623D01*
X35873Y7120D01*
Y6371D01*
X36373D02*
X36873D01*
X36623D01*
Y7370D01*
X36373D01*
X28750Y4250D02*
Y3250D01*
X29250Y2750D01*
X29750Y3250D01*
Y4250D01*
X30250Y4000D02*
X30500Y4250D01*
X31000D01*
X31250Y4000D01*
Y3000D01*
X31000Y2750D01*
X30500D01*
X30250Y3000D01*
Y4000D01*
X42850Y17650D02*
Y19150D01*
X43600D01*
X43850Y18900D01*
Y18400D01*
X43600Y18150D01*
X42850D01*
X43350D02*
X43850Y17650D01*
X45349Y19150D02*
X44350D01*
Y18400D01*
X44849D01*
X44350D01*
Y17650D01*
X45849Y19150D02*
Y17650D01*
X46599D01*
X46849Y17900D01*
Y18900D01*
X46599Y19150D01*
X45849D01*
X42779Y30600D02*
Y31600D01*
X43529D01*
X43779Y31350D01*
Y30600D01*
X44279D02*
Y32100D01*
X45028D01*
X45278Y31850D01*
Y31350D01*
X45028Y31100D01*
X44279D01*
X44778D02*
X45278Y30600D01*
X46778Y32100D02*
X45778D01*
Y31350D01*
X46278D01*
X45778D01*
Y30600D01*
X16001Y12050D02*
X17001D01*
X16501Y12550D02*
Y11550D01*
X18500Y12800D02*
X17501D01*
Y12050D01*
X18001Y12300D01*
X18251D01*
X18500Y12050D01*
Y11550D01*
X18251Y11300D01*
X17751D01*
X17501Y11550D01*
X19000Y12800D02*
Y11800D01*
X19500Y11300D01*
X20000Y11800D01*
Y12800D01*
X21900Y45140D02*
Y46640D01*
X22650D01*
X22900Y46390D01*
Y45890D01*
X22650Y45640D01*
X21900D01*
X22400D02*
X22900Y45140D01*
X23400D02*
Y46640D01*
X24149D01*
X24399Y46390D01*
Y45890D01*
X24149Y45640D01*
X23400D01*
X25101Y43860D02*
X24101D01*
Y42360D01*
X25101D01*
X24101Y43110D02*
X24601D01*
X26600Y43610D02*
X26351Y43860D01*
X25851D01*
X25601Y43610D01*
Y43360D01*
X25851Y43110D01*
X26351D01*
X26600Y42860D01*
Y42610D01*
X26351Y42360D01*
X25851D01*
X25601Y42610D01*
X27100Y42360D02*
Y43860D01*
X27850D01*
X28100Y43610D01*
Y43110D01*
X27850Y42860D01*
X27100D01*
X12000Y1500D02*
X13000D01*
X12500Y2000D02*
Y1000D01*
X17080Y1500D02*
X18080D01*
D41*
X6133Y34125D02*
X5300D01*
Y32875D01*
X6133D01*
X5300Y33500D02*
X5717D01*
X7383Y33917D02*
X7174Y34125D01*
X6758D01*
X6550Y33917D01*
Y33708D01*
X6758Y33500D01*
X7174D01*
X7383Y33292D01*
Y33083D01*
X7174Y32875D01*
X6758D01*
X6550Y33083D01*
X7799Y32875D02*
Y34125D01*
X8424D01*
X8632Y33917D01*
Y33500D01*
X8424Y33292D01*
X7799D01*
X5300Y37955D02*
Y39205D01*
X5925D01*
X6133Y38997D01*
Y38580D01*
X5925Y38372D01*
X5300D01*
X5717D02*
X6133Y37955D01*
X6550D02*
Y39205D01*
X7174D01*
X7383Y38997D01*
Y38580D01*
X7174Y38372D01*
X6550D01*
X29450Y23400D02*
Y22400D01*
X29950Y22900D02*
X28950D01*
X22750Y28000D02*
Y27000D01*
X23250Y27500D02*
X22250D01*
%TF.MD5,e7cbc1e1ba75747e32e41ea7cfdc2499*%
M02*
