%TF.GenerationSoftware,Altium Limited,Altium Designer,25.2.1 (25)*%
G04 Layer_Physical_Order=1*
G04 Layer_Color=255*
%FSLAX43Y43*%
%MOMM*%
%TF.SameCoordinates,EC6566CF-20FD-4289-836C-F72492794835*%
%TF.FilePolarity,Positive*%
%TF.FileFunction,Copper,L1,Top,Signal*%
%TF.Part,Single*%
G01*
G75*
%TA.AperFunction,NonConductor*%
%ADD10C,0.203*%
%TA.AperFunction,SMDPad,CuDef*%
%ADD11R,0.700X0.650*%
G04:AMPARAMS|DCode=12|XSize=1.47mm|YSize=0.4mm|CornerRadius=0.05mm|HoleSize=0mm|Usage=FLASHONLY|Rotation=180.000|XOffset=0mm|YOffset=0mm|HoleType=Round|Shape=RoundedRectangle|*
%AMROUNDEDRECTD12*
21,1,1.470,0.300,0,0,180.0*
21,1,1.370,0.400,0,0,180.0*
1,1,0.100,-0.685,0.150*
1,1,0.100,0.685,0.150*
1,1,0.100,0.685,-0.150*
1,1,0.100,-0.685,-0.150*
%
%ADD12ROUNDEDRECTD12*%
%ADD13R,3.200X1.500*%
%ADD14R,1.600X2.800*%
%ADD15R,2.000X4.000*%
%ADD16R,3.100X2.200*%
%ADD17R,10.800X10.410*%
%ADD18R,1.020X2.160*%
%ADD19R,0.650X0.700*%
%ADD20R,0.800X0.900*%
%ADD21R,1.250X0.600*%
%ADD22R,0.600X1.250*%
%TA.AperFunction,Conductor*%
%ADD23C,0.300*%
%ADD24C,0.400*%
%ADD25C,1.000*%
%ADD26C,2.000*%
%TA.AperFunction,ComponentPad*%
%ADD27C,6.000*%
%ADD28C,1.500*%
%ADD29R,1.500X1.500*%
%ADD30C,2.500*%
%ADD31C,2.000*%
%ADD32C,3.000*%
%ADD33C,1.725*%
%TA.AperFunction,ViaPad*%
%ADD34C,0.700*%
D10*
X49548Y45505D02*
G03*
X45505Y49548I-4048J-5D01*
G01*
X21287Y33975D02*
G03*
X20835Y34427I-452J0D01*
G01*
X19465D02*
G03*
X19285Y34389I0J-452D01*
G01*
X21287Y33325D02*
G03*
X21251Y33500I-452J0D01*
G01*
D02*
G03*
X21287Y33675I-416J175D01*
G01*
Y32675D02*
G03*
X21251Y32850I-452J0D01*
G01*
Y32850D02*
G03*
X21287Y33025I-416J175D01*
G01*
X20835Y31923D02*
G03*
X21287Y32375I0J452D01*
G01*
X19285Y34389D02*
G03*
X19051Y34155I180J-414D01*
G01*
X19013Y33675D02*
G03*
X19049Y33500I452J0D01*
G01*
D02*
G03*
X19013Y33325I416J-175D01*
G01*
X19051Y34155D02*
G03*
X19013Y33975I414J-180D01*
G01*
X19049Y32850D02*
G03*
X19013Y32675I416J-175D01*
G01*
Y33025D02*
G03*
X19049Y32850I452J0D01*
G01*
X19013Y32375D02*
G03*
X19465Y31923I452J0D01*
G01*
X45505Y452D02*
G03*
X49548Y4495I-5J4048D01*
G01*
X16835Y34962D02*
G03*
X16535Y35077I-300J-337D01*
G01*
X14848Y34947D02*
G03*
X14713Y34625I317J-322D01*
G01*
X14749Y34150D02*
G03*
X14713Y33975I416J-175D01*
G01*
Y33675D02*
G03*
X14749Y33500I452J0D01*
G01*
X14713Y34325D02*
G03*
X14749Y34150I452J0D01*
G01*
Y32850D02*
G03*
X14713Y32675I416J-175D01*
G01*
Y33025D02*
G03*
X14749Y32850I452J0D01*
G01*
Y33500D02*
G03*
X14713Y33325I416J-175D01*
G01*
X4495Y49548D02*
G03*
X452Y45505I5J-4048D01*
G01*
X16535Y31923D02*
G03*
X16987Y32375I0J452D01*
G01*
X14713D02*
G03*
X15165Y31923I452J0D01*
G01*
X452Y4495D02*
G03*
X4495Y452I4048J5D01*
G01*
X47333Y48770D02*
X47553Y48989D01*
X46746Y48902D02*
X47074Y49230D01*
X47403Y49073D02*
X49073Y47403D01*
X43799Y48902D02*
X47201D01*
X46028D02*
X46539Y49413D01*
X46287Y49471D02*
X46856Y48902D01*
X48410Y47692D02*
X48699Y47981D01*
X48051Y48051D02*
X48363Y48363D01*
X48770Y47333D02*
X48989Y47553D01*
X47692Y48410D02*
X47981Y48699D01*
X48051Y48051D02*
X48363Y48363D01*
X43873Y48902D02*
X44519Y49548D01*
X43336D02*
X43983Y48902D01*
X42617Y49548D02*
X43532Y48634D01*
X41899Y49548D02*
X43172Y48275D01*
X41180Y49548D02*
X42813Y47916D01*
X40462Y49548D02*
X42454Y47556D01*
X45310Y48902D02*
X45933Y49525D01*
X44773Y49548D02*
X45419Y48902D01*
X45491Y49548D02*
X46138Y48902D01*
X44054Y49548D02*
X44701Y48902D01*
X44591D02*
X45238Y49548D01*
X48902Y46138D02*
X49548Y45491D01*
X48902Y46028D02*
X49413Y46539D01*
X48902Y45310D02*
X49525Y45933D01*
X48902Y46856D02*
X49471Y46287D01*
X48902Y46746D02*
X49230Y47074D01*
X48902Y43873D02*
X49548Y44519D01*
X48902Y44701D02*
X49548Y44054D01*
X48902Y43983D02*
X49548Y43336D01*
X48902Y45419D02*
X49548Y44773D01*
X48902Y44591D02*
X49548Y45238D01*
X47201Y48902D02*
X48902Y47201D01*
X42098Y47127D02*
X43873Y48902D01*
X42098Y43799D02*
Y47201D01*
X43799Y48902D01*
X39744Y49548D02*
X42098Y47194D01*
X48902Y43799D02*
Y47201D01*
X40496Y42652D02*
X42098Y44254D01*
X47127Y42098D02*
X48902Y43873D01*
X39059Y42652D02*
X42098Y45691D01*
X39778Y42652D02*
X42098Y44972D01*
X36425Y45764D02*
X40209Y49548D01*
X35706Y45764D02*
X39491Y49548D01*
X34675Y45451D02*
X38772Y49548D01*
X34269Y45764D02*
X38054Y49548D01*
X33551Y45764D02*
X37335Y49548D01*
X32327Y45259D02*
X36617Y49548D01*
X38307D02*
X42098Y45757D01*
X39025Y49548D02*
X42098Y46475D01*
X37382Y45284D02*
X41646Y49548D01*
X35638Y45764D02*
X36902D01*
X37023Y45644D02*
X40927Y49548D01*
X31841D02*
X35632Y45758D01*
X31396Y45764D02*
X35180Y49548D01*
X31123D02*
X35272Y45399D01*
X30404Y49548D02*
X34188Y45764D01*
X29686Y49548D02*
X33470Y45764D01*
X30677D02*
X34462Y49548D01*
X34362Y45764D02*
X34994Y45132D01*
X33098Y45764D02*
X34362D01*
X35006Y45132D02*
X35638Y45764D01*
X32559Y49548D02*
X36344Y45764D01*
X31968Y45618D02*
X35898Y49548D01*
X37534Y44718D02*
X42364Y49548D01*
X37588D02*
X42098Y45038D01*
X36870Y49548D02*
X42098Y44320D01*
X34715Y49548D02*
X41611Y42652D01*
X33996Y49548D02*
X40893Y42652D01*
X35433Y49548D02*
X42330Y42652D01*
X37534Y44000D02*
X43083Y49548D01*
X37623Y42652D02*
X42098Y47127D01*
X38341Y42652D02*
X42098Y46409D01*
X36904Y42652D02*
X43801Y49548D01*
X36152D02*
X49548Y36152D01*
X36902Y45764D02*
X37534Y45132D01*
X35006Y45064D02*
X35706Y45764D01*
X34994Y43868D02*
Y45132D01*
X33278Y49548D02*
X40175Y42652D01*
X24002Y39807D02*
X33743Y49548D01*
X37534Y43868D02*
Y45132D01*
X35006Y43868D02*
X35638Y43236D01*
X37534Y44574D02*
X39456Y42652D01*
X35006Y43868D02*
Y45132D01*
X34864Y43738D02*
X34994Y43868D01*
X48275Y43172D02*
X49548Y41899D01*
X48634Y43532D02*
X49548Y42617D01*
X47916Y42813D02*
X49548Y41180D01*
X45650Y39903D02*
X49548Y43801D01*
X47201Y42098D02*
X48902Y43799D01*
X46009Y39543D02*
X49548Y43083D01*
X47194Y42098D02*
X49548Y39744D01*
X47556Y42454D02*
X49548Y40462D01*
X46475Y42098D02*
X49548Y39025D01*
X43799Y42098D02*
X47201D01*
X45291Y40262D02*
X47127Y42098D01*
X43854Y41699D02*
X44254Y42098D01*
X43495Y42058D02*
X43667Y42230D01*
X44213Y41339D02*
X44972Y42098D01*
X42901Y42652D02*
X43352Y42201D01*
X43135Y42417D02*
X43308Y42590D01*
X43352Y42201D02*
X45629Y39923D01*
X46080Y39473D01*
X45629Y39923D02*
X46080Y39473D01*
Y39016D02*
Y39473D01*
X44572Y40980D02*
X45691Y42098D01*
X44931Y40621D02*
X46409Y42098D01*
X46443Y37822D02*
X49548Y40927D01*
X46443Y38540D02*
X49548Y41646D01*
X46443Y38538D02*
X49548Y35433D01*
X45038Y42098D02*
X49548Y37588D01*
X45757Y42098D02*
X49548Y38307D01*
X44320Y42098D02*
X49548Y36870D01*
X46299Y37245D02*
X49548Y33996D01*
X46443Y37820D02*
X49548Y34715D01*
X45940Y36886D02*
X49548Y33278D01*
X45351Y36757D02*
X49548Y32559D01*
X44632Y36757D02*
X49548Y31841D01*
X46140Y38956D02*
X49548Y42364D01*
X46080Y39016D02*
Y39473D01*
Y39016D02*
X46443Y38653D01*
X43915D02*
X44055Y38793D01*
X43915Y37389D02*
Y38653D01*
X46443Y37389D02*
Y38653D01*
X44547Y36757D02*
X45811D01*
X46443Y37389D01*
X43915Y37474D02*
X44632Y36757D01*
X43915Y37389D02*
X44547Y36757D01*
X42652Y42652D02*
X42949Y42949D01*
X41933Y42652D02*
X42590Y43308D01*
X42098Y43799D02*
X43799Y42098D01*
X37528Y43862D02*
X38738Y42652D01*
X37169Y43502D02*
X38019Y42652D01*
X41215D02*
X42230Y43667D01*
X42652Y42652D02*
X42949Y42949D01*
X41999Y42652D02*
X42901D01*
X43352Y42201D01*
X35951Y42652D02*
X41999D01*
X42901D01*
X36902Y43236D02*
X37534Y43868D01*
X35709Y42893D02*
X36052Y43236D01*
X35998D02*
X36583Y42652D01*
X35350Y43253D02*
X35486Y43388D01*
X34991Y43612D02*
X35126Y43747D01*
X34864Y43738D02*
X35951Y42652D01*
X35638Y43236D02*
X36902D01*
X36186Y42652D02*
X36770Y43236D01*
X36717D02*
X37301Y42652D01*
X32839Y43058D02*
X33290Y42608D01*
X34598Y41299D01*
X41999Y40848D02*
X44055Y38793D01*
X41978Y40848D02*
X44044Y38782D01*
X41259Y40848D02*
X43915Y38193D01*
X39823Y40848D02*
X49548Y31123D01*
X40541Y40848D02*
X43915Y37474D01*
X39104Y40848D02*
X49548Y30404D01*
X37667Y40848D02*
X49548Y28967D01*
X38386Y40848D02*
X49548Y29686D01*
X31702Y28828D02*
X42861Y39987D01*
X30838Y29402D02*
X42142Y40705D01*
X31404Y29249D02*
X42501Y40346D01*
X35049Y40848D02*
X35951D01*
X34598Y41299D02*
X35049Y40848D01*
X35951D01*
X34598Y41299D02*
X35049Y40848D01*
X20331Y28952D02*
X33638Y42259D01*
X35951Y40848D02*
X41999D01*
X29402Y29402D02*
X40848Y40848D01*
X29835Y29117D02*
X41567Y40848D01*
X28683Y29402D02*
X40130Y40848D01*
X29402Y29402D02*
X40848Y40848D01*
X32466Y45132D02*
X33098Y45764D01*
X32454Y43868D02*
Y45132D01*
X32466Y43868D02*
Y45132D01*
X28967Y49548D02*
X32925Y45591D01*
X28249Y49548D02*
X32566Y45232D01*
X31741Y43236D02*
X32454Y43949D01*
X32839Y43058D02*
Y43495D01*
Y43058D02*
Y43495D01*
Y43058D02*
X33290Y42608D01*
X32466Y43868D02*
X32839Y43495D01*
X31822Y43236D02*
X32454Y43868D01*
X27530Y49548D02*
X31315Y45764D01*
X26812Y49548D02*
X30596Y45764D01*
X29926Y45132D02*
X30558Y45764D01*
X26094Y49548D02*
X30218Y45424D01*
X25375Y49548D02*
X29926Y44998D01*
X24657Y49548D02*
X29926Y44279D01*
X31822Y45764D02*
X32454Y45132D01*
X30558Y45764D02*
X31822D01*
X30558Y43236D02*
X31822D01*
X29926Y43868D02*
Y45132D01*
Y43868D02*
X30558Y43236D01*
X23777Y38145D02*
X29926Y44294D01*
X23777Y38863D02*
X29926Y45013D01*
X24002Y37652D02*
X30072Y43722D01*
X23677Y40201D02*
X33025Y49548D01*
X23009Y40252D02*
X32306Y49548D01*
X22221Y40181D02*
X31588Y49548D01*
X24002Y36933D02*
X30431Y43363D01*
X23890Y38102D02*
X24002Y37990D01*
Y36398D02*
Y38102D01*
X23777Y38899D02*
X24002Y39124D01*
X23777Y38102D02*
X24002D01*
X23626Y40252D02*
X24002Y39876D01*
X22874Y40252D02*
X23626D01*
X24002Y39124D02*
Y39876D01*
X22351Y40102D02*
X22724D01*
X22874Y40252D01*
X23777Y38102D02*
Y38899D01*
X22673Y38102D02*
Y38398D01*
X23777Y38215D02*
X23890Y38102D01*
X22157Y38398D02*
X22454Y38102D01*
X22398D02*
X22673D01*
X19517Y40352D02*
X28714Y49548D01*
X18799Y40352D02*
X27996Y49548D01*
X20236Y40352D02*
X29433Y49548D01*
X17362Y40352D02*
X26559Y49548D01*
X17534Y44116D02*
X22967Y49548D01*
X18081Y40352D02*
X27277Y49548D01*
X21673Y40352D02*
X30869Y49548D01*
X22051Y40352D02*
X22301Y40102D01*
X22051Y40352D02*
X22301Y40102D01*
X20954Y40352D02*
X30151Y49548D01*
X21448Y38398D02*
X22673D01*
X17534Y44834D02*
X22248Y49548D01*
X17534Y43868D02*
Y45132D01*
Y44458D02*
X21640Y40352D01*
X17324Y45342D02*
X21530Y49548D01*
X16965Y45701D02*
X20812Y49548D01*
X16902Y45764D02*
X17534Y45132D01*
X21449Y40352D02*
X22051D01*
X17470Y43804D02*
X20922Y40352D01*
X21449D02*
X22051D01*
X16902Y43236D02*
X17534Y43868D01*
X17111Y43445D02*
X20204Y40352D01*
X21261Y33474D02*
X31023Y43236D01*
X21448Y38398D02*
Y39148D01*
X21276Y32771D02*
X31741Y43236D01*
X18894Y28952D02*
X32920Y42978D01*
X18175Y28952D02*
X32779Y43555D01*
X19612Y28952D02*
X33279Y42619D01*
X21578Y38102D02*
X21875Y38398D01*
X20859Y38102D02*
X21448Y38691D01*
X22102Y37907D02*
X22593Y38398D01*
X20498Y38102D02*
X22102D01*
X20688Y39148D02*
X21735Y38102D01*
X18533Y39148D02*
X20461Y37220D01*
X17904Y37302D02*
X19751Y39148D01*
X17815D02*
X20102Y36861D01*
X17096Y39148D02*
X18943Y37302D01*
X17186D02*
X19033Y39148D01*
X19970D02*
X21017Y38102D01*
X19252Y39148D02*
X20498Y37902D01*
Y37257D02*
Y38102D01*
X18623Y37302D02*
X20469Y39148D01*
X19152Y37112D02*
X21188Y39148D01*
X22102Y36470D02*
X22398Y36767D01*
X22102Y37017D02*
X22398Y36720D01*
Y36398D02*
Y38102D01*
X22102Y37188D02*
X22398Y37485D01*
X22102Y37735D02*
X22398Y37438D01*
X22102Y36398D02*
Y38102D01*
X22030Y36398D02*
X22102Y36470D01*
X21326Y36398D02*
X22102D01*
X22398D02*
X24002D01*
X20777Y34427D02*
X22748Y36398D01*
X21241Y34173D02*
X23467Y36398D01*
X20058Y34427D02*
X22030Y36398D01*
X19852Y34956D02*
X20381Y34427D01*
X19314Y34400D02*
X21312Y36398D01*
X19152Y35911D02*
X20467Y37226D01*
X19152Y37093D02*
X19743Y36502D01*
X19285Y34389D02*
X21294Y36398D01*
X19493Y34597D02*
X19663Y34427D01*
X21287Y33675D02*
Y33975D01*
X19465Y34427D02*
X20835D01*
X24002Y36554D02*
X31154Y29402D01*
X28198Y28951D02*
X28649Y29402D01*
X28198Y28917D02*
X28683Y29402D01*
X23438Y36398D02*
X30435Y29402D01*
X22002Y36398D02*
X28998Y29402D01*
X22720Y36398D02*
X30033Y29085D01*
X30349Y29402D02*
X31251D01*
X29950Y29002D02*
X30349Y29402D01*
X31251D02*
X31702Y28951D01*
X28649Y29402D02*
X29551D01*
X29950Y29002D01*
X21287Y33025D02*
Y33325D01*
X21289Y36393D02*
X28465Y29217D01*
X20929Y36034D02*
X28198Y28765D01*
X21287Y32375D02*
Y32675D01*
X19465Y31923D02*
X20835D01*
X19152Y36394D02*
X20498Y37741D01*
X19152Y36375D02*
X19384Y36143D01*
X19152Y35911D02*
Y37302D01*
X18943D02*
X19152Y37093D01*
X17652Y37302D02*
X19152D01*
X19089Y35848D02*
X19152Y35911D01*
X18959Y35848D02*
X19024Y35783D01*
X18241Y35848D02*
X18665Y35424D01*
X18184Y34943D02*
X19089Y35848D01*
X17652D02*
X19089D01*
X17943Y35185D02*
X18606Y35848D01*
X17652Y37127D02*
Y37302D01*
X17648Y35848D02*
Y36023D01*
X17652Y35848D02*
Y36023D01*
X17506Y37302D02*
X17648Y37159D01*
Y37127D02*
Y37302D01*
X17523Y35848D02*
X18306Y35065D01*
X17291Y35252D02*
X17888Y35848D01*
X17876Y35252D02*
X18184Y34943D01*
X17124Y35252D02*
X17876D01*
X16835Y34962D02*
X17124Y35252D01*
X17795Y32899D02*
X19051Y34155D01*
X18056Y33160D02*
X19086Y32130D01*
X16921Y32140D02*
X20109Y28952D01*
X17848D02*
X20652D01*
X18774Y33878D02*
X19015Y33638D01*
X19013Y33675D02*
Y33975D01*
Y33025D02*
Y33325D01*
X18415Y33519D02*
X19030Y32904D01*
X17519Y32623D02*
X17795Y32899D01*
X17519Y32623D02*
X17795Y32899D01*
X16987Y32623D02*
X17519D01*
X19013Y32375D02*
Y32675D01*
X16987Y32623D02*
X17519D01*
X16987Y32375D02*
Y32623D01*
X38885Y24517D02*
X49548Y35180D01*
X38526Y24876D02*
X49548Y35898D01*
X39102Y24015D02*
X49548Y34462D01*
X37315Y25102D02*
X49548Y37335D01*
X36596Y25102D02*
X49548Y38054D01*
X38033Y25102D02*
X49548Y36617D01*
X39777Y21816D02*
X49548Y31588D01*
X39777Y22534D02*
X49548Y32306D01*
X39777Y21098D02*
X49548Y30869D01*
X39657Y23852D02*
X49548Y33743D01*
X39777Y23253D02*
X49548Y33025D01*
X36230Y40848D02*
X49548Y27530D01*
X36949Y40848D02*
X49548Y28249D01*
X35878Y25102D02*
X49548Y38772D01*
X35512Y40848D02*
X49548Y26812D01*
X35112Y27927D02*
X44244Y37060D01*
X35160Y25102D02*
X49548Y39491D01*
X39777Y21497D02*
X45720Y15554D01*
X39777Y20779D02*
X45001Y15554D01*
X44618D02*
X45882D01*
X35112Y27209D02*
X44660Y36757D01*
X35112Y26491D02*
X45378Y36757D01*
X39777Y22934D02*
X49548Y13162D01*
X39777Y23652D02*
X49548Y13880D01*
Y4495D02*
Y45505D01*
X39002Y14575D02*
X49548Y25122D01*
X38688Y14980D02*
X49548Y25840D01*
X39544Y22448D02*
X49548Y12444D01*
X46514Y14185D02*
X49548Y17219D01*
X46514Y14904D02*
X49548Y17938D01*
X40011Y5527D02*
X49548Y15064D01*
X36215Y20748D02*
X49548Y7415D01*
X35246Y20998D02*
X49548Y6696D01*
X38031Y15042D02*
X49548Y26559D01*
X39188Y20648D02*
X44450Y15386D01*
X38470Y20648D02*
X44091Y15027D01*
X37752Y20648D02*
X43986Y14414D01*
X36779Y20902D02*
X43986Y13696D01*
X46164Y15272D02*
X49548Y18656D01*
X45728Y15554D02*
X49548Y19375D01*
X45882Y15554D02*
X46514Y14922D01*
X45009Y15554D02*
X49548Y20093D01*
X43986Y14922D02*
X44618Y15554D01*
X23220Y49548D02*
X49548Y23220D01*
X23938Y49548D02*
X49548Y23938D01*
X22502Y49548D02*
X49548Y22502D01*
X21065Y49548D02*
X49548Y21065D01*
X21783Y49548D02*
X49548Y21783D01*
X20346Y49548D02*
X49548Y20346D01*
X19628Y49548D02*
X49548Y19628D01*
X30969Y43236D02*
X49548Y24657D01*
X18909Y49548D02*
X49548Y18909D01*
X18191Y49548D02*
X49548Y18191D01*
X17473Y49548D02*
X49548Y17473D01*
X32114Y43528D02*
X49548Y26094D01*
X31712Y26683D02*
X43938Y38909D01*
X35112Y25772D02*
X49548Y40209D01*
X31712Y27401D02*
X43579Y39269D01*
X31712Y28119D02*
X43220Y39628D01*
X31688Y43236D02*
X49548Y25375D01*
X34627Y28162D02*
X43915Y37449D01*
X33909Y28162D02*
X43915Y38168D01*
X33809Y20998D02*
X46906Y7902D01*
X33091Y20998D02*
X46188Y7902D01*
X28452Y22764D02*
X43557Y7659D01*
X26315Y452D02*
X49548Y23685D01*
X25596Y452D02*
X49548Y24404D01*
X27033Y452D02*
X49548Y22967D01*
X22004Y452D02*
X49548Y27996D01*
X19849Y452D02*
X49548Y30151D01*
X22723Y452D02*
X49548Y27277D01*
X33499Y452D02*
X49548Y16501D01*
X29188Y452D02*
X49548Y20812D01*
X34217Y452D02*
X49548Y15783D01*
X27752Y452D02*
X49548Y22248D01*
X28470Y452D02*
X49548Y21530D01*
X28452Y22046D02*
X43197Y7300D01*
X28452Y21327D02*
X42838Y6941D01*
X21286Y452D02*
X49548Y28714D01*
X18446Y24148D02*
X42143Y452D01*
X20567D02*
X49548Y29433D01*
X28452Y20609D02*
X42479Y6581D01*
X27994Y20348D02*
X42120Y6222D01*
X34528Y20998D02*
X49548Y5978D01*
X27275Y20348D02*
X42098Y5525D01*
X26557Y20348D02*
X41804Y5102D01*
X48385Y6717D02*
X49548Y7880D01*
X48026Y7076D02*
X49548Y8598D01*
X48745Y6358D02*
X49548Y7162D01*
X47308Y7795D02*
X49548Y10035D01*
X46696Y7902D02*
X49548Y10754D01*
X47667Y7435D02*
X49548Y9317D01*
X48902Y5188D02*
X49548Y4541D01*
X48902Y5078D02*
X49548Y5725D01*
X48902Y4359D02*
X49548Y5006D01*
X48902Y5796D02*
X49548Y6443D01*
X48902Y5906D02*
X49548Y5259D01*
X46514Y14760D02*
X49548Y11725D01*
X46514Y13658D02*
Y14922D01*
Y14041D02*
X49548Y11007D01*
X46346Y13490D02*
X49548Y10288D01*
X45882Y13026D02*
X46514Y13658D01*
X45987Y13131D02*
X49548Y9570D01*
X45978Y7902D02*
X49548Y11472D01*
X45374Y13026D02*
X49548Y8852D01*
X47201Y7902D02*
X48902Y6201D01*
X44656Y13026D02*
X49548Y8133D01*
X45260Y7902D02*
X49548Y12191D01*
X48902Y3641D02*
X49543Y4282D01*
X48902Y3751D02*
X49363Y3289D01*
X48902Y2923D02*
X49403Y3424D01*
X48902Y4469D02*
X49499Y3872D01*
X48902Y2799D02*
Y6201D01*
Y3033D02*
X49161Y2773D01*
X48659Y2557D02*
X48905Y2310D01*
X48066Y1369D02*
X48631Y1934D01*
X47077Y1098D02*
X48902Y2923D01*
X47201Y1098D02*
X48902Y2799D01*
X48300Y2197D02*
X48600Y1897D01*
X47941Y1838D02*
X48250Y1529D01*
X47581Y1479D02*
X47854Y1206D01*
X47222Y1120D02*
X47411Y931D01*
X44994Y452D02*
X45641Y1098D01*
X46576Y597D02*
X47077Y1098D01*
X46525D02*
X46916Y707D01*
X45807Y1098D02*
X46361Y544D01*
X45088Y1098D02*
X45729Y458D01*
X45718Y457D02*
X46359Y1098D01*
X43986Y13696D02*
X44656Y13026D01*
X43986Y13658D02*
Y14922D01*
Y13658D02*
X44618Y13026D01*
X39002Y14369D02*
X45469Y7902D01*
X38870Y13783D02*
X44751Y7902D01*
X40729Y5527D02*
X49548Y14346D01*
X43823Y7902D02*
X49548Y13627D01*
X44618Y13026D02*
X45882D01*
X44541Y7902D02*
X49548Y12909D01*
X38396Y13538D02*
X44033Y7902D01*
X43799D02*
X47201D01*
X42098Y6177D02*
X43823Y7902D01*
X42098Y6201D02*
X43799Y7902D01*
X42098Y5102D02*
Y6201D01*
X39698Y5527D02*
X41102D01*
Y5181D02*
X42098Y6177D01*
X41102Y3898D02*
X42098D01*
X41741Y5102D02*
X42098Y5459D01*
X41570Y3898D02*
X42098Y3370D01*
X41102Y5102D02*
X42098D01*
X41102Y3744D02*
X41256Y3898D01*
X32781Y452D02*
X45355Y13026D01*
X32062Y452D02*
X44636Y13026D01*
X41102Y3648D02*
X44298Y452D01*
X30625D02*
X43986Y13812D01*
X29907Y452D02*
X43986Y14531D01*
X31344Y452D02*
X44268Y13376D01*
X43799Y1098D02*
X47201D01*
X44275Y452D02*
X44922Y1098D01*
X44370D02*
X45017Y452D01*
X42098Y2799D02*
X43799Y1098D01*
X43557Y452D02*
X44204Y1098D01*
X39840Y3473D02*
X42862Y452D01*
X42098Y2799D02*
Y3898D01*
X40558Y3473D02*
X43580Y452D01*
X38528D02*
X41975Y3898D01*
X39246Y452D02*
X42098Y3304D01*
X42120Y452D02*
X43283Y1615D01*
X41402Y452D02*
X42924Y1974D01*
X42838Y452D02*
X43642Y1255D01*
X39965Y452D02*
X42205Y2692D01*
X40683Y452D02*
X42565Y2333D01*
X35112Y26880D02*
X36890Y25102D01*
X35112Y26162D02*
X36172Y25102D01*
X35112Y25444D02*
X35454Y25102D01*
X35112Y25198D02*
Y28162D01*
X33288D02*
X35112D01*
Y27599D02*
X37609Y25102D01*
X34802D02*
X37699D01*
X34802Y25198D02*
X35112D01*
X37699Y25102D02*
X38301D01*
X33288Y25198D02*
X33598D01*
X34802Y25102D02*
Y25198D01*
X31712Y25964D02*
X33288Y27541D01*
X31712Y28125D02*
X33288Y26548D01*
Y25198D02*
Y28162D01*
X31702Y28854D02*
X33288Y27267D01*
X31702Y28162D02*
Y28951D01*
X31712Y25198D02*
Y28162D01*
Y25246D02*
X33288Y26823D01*
X31712Y27407D02*
X33288Y25830D01*
X30012Y25198D02*
X31712D01*
X29888D02*
X30012D01*
X29888D02*
X30012D01*
X38602Y24801D02*
X38801Y24602D01*
X38301Y25102D02*
X38602Y24801D01*
X38801Y24602D02*
X39102Y24301D01*
X38301Y25102D02*
X38602Y24801D01*
X37699Y25102D02*
X38301D01*
X31712Y25970D02*
X33680Y24002D01*
X39102Y23852D02*
Y24301D01*
X38801Y24602D02*
X39102Y24301D01*
Y23852D02*
Y24301D01*
X33598Y24369D02*
X33768Y24199D01*
X33598Y24369D02*
X33768Y24199D01*
X31712Y26688D02*
X33598Y24802D01*
X31046Y25198D02*
X32243Y24002D01*
X31712Y25251D02*
X32961Y24002D01*
X30328Y25198D02*
X32048Y23478D01*
X29609Y25198D02*
X32048Y22759D01*
X33598Y24369D02*
Y24971D01*
Y25198D01*
Y24369D02*
Y24971D01*
X32623Y24002D02*
X33598Y24977D01*
X33341Y24002D02*
X33653Y24314D01*
X20652Y25681D02*
X35819Y40848D01*
X20652Y26399D02*
X35101Y40848D01*
X20652Y24962D02*
X36538Y40848D01*
X20652Y27836D02*
X34357Y41541D01*
X20652Y28554D02*
X33997Y41900D01*
X20652Y27117D02*
X34716Y41182D01*
X24002Y37990D02*
X33830Y28162D01*
X24002Y37272D02*
X33288Y27985D01*
X28188Y25198D02*
X29888D01*
X23794Y38917D02*
X34549Y28162D01*
X20652Y24244D02*
X37256Y40848D01*
X21266Y33541D02*
X28188Y26619D01*
X20570Y35674D02*
X28188Y28056D01*
X21259Y32830D02*
X28188Y25901D01*
X20211Y35315D02*
X28188Y27338D01*
X17697Y32801D02*
X26546Y23952D01*
X19220Y31996D02*
X27264Y23952D01*
X28198Y28162D02*
Y28951D01*
X28188Y25198D02*
Y28162D01*
X20652Y24148D02*
Y28952D01*
X17848Y24148D02*
Y28952D01*
X20556Y24148D02*
X20652Y24244D01*
X24002Y39427D02*
X39577Y23852D01*
X28452Y21267D02*
X33288Y26104D01*
X28452Y20549D02*
X33288Y25386D01*
X20729Y31923D02*
X37743Y14910D01*
X21225Y32146D02*
X32048Y21323D01*
X20652Y25535D02*
X40660Y5527D01*
X28891Y25198D02*
X32048Y22041D01*
X28452Y22704D02*
X30946Y25198D01*
X28452Y21986D02*
X31664Y25198D01*
X28452Y23423D02*
X30227Y25198D01*
X20652Y24817D02*
X39942Y5527D01*
X20652Y27690D02*
X26048Y22294D01*
X20652Y28409D02*
X26048Y23012D01*
X20652Y26972D02*
X26048Y21575D01*
X20011Y31923D02*
X27983Y23952D01*
X17155Y32623D02*
X26048Y23730D01*
X27544Y23952D02*
X28791Y25198D01*
X26825Y23952D02*
X28188Y25315D01*
X28262Y23952D02*
X29509Y25198D01*
X26107Y23952D02*
X28188Y26033D01*
X20652Y26254D02*
X26048Y20857D01*
X39691Y22448D02*
X39777Y22534D01*
X39577Y23852D02*
X39777Y23652D01*
Y22448D02*
Y23852D01*
X39102D02*
X39777D01*
X38575Y22052D02*
X38972Y22448D01*
X38825D02*
X39222Y22052D01*
X38876D02*
X39777D01*
X38324D02*
X38876D01*
X39294D02*
X39691Y22448D01*
X37723D02*
X39777D01*
X38324Y22052D02*
X38876D01*
X37857D02*
X38254Y22448D01*
X37723D02*
Y23852D01*
X38107Y22448D02*
X38504Y22052D01*
X36657Y23898D02*
X37723Y22832D01*
X37375Y23898D02*
X37723Y23550D01*
X37138Y22052D02*
X37723Y22637D01*
Y22052D02*
X38324D01*
X37723D02*
X38324D01*
X38876D01*
X36626Y22252D02*
X36826Y22052D01*
X37723D01*
X41102Y5102D02*
Y5527D01*
X39777Y20648D02*
Y22052D01*
X39698Y3473D02*
Y5527D01*
X37723Y20648D02*
X39777D01*
X39002Y13914D02*
Y14666D01*
X38626Y13538D02*
X39002Y13914D01*
X39698Y3473D02*
X41102D01*
X39698Y3615D02*
X39840Y3473D01*
X41102D02*
Y3898D01*
X37091Y452D02*
X40113Y3473D01*
X37810Y452D02*
X40831Y3473D01*
X37723Y20648D02*
Y20948D01*
X37452D02*
X37723Y20677D01*
X37498Y14666D02*
X37874Y15042D01*
X36826Y20948D02*
X37723D01*
X36626Y20748D02*
X36826Y20948D01*
X38626Y15042D02*
X39002Y14666D01*
X37874Y15042D02*
X38626D01*
X37874Y13538D02*
X38626D01*
X37498Y13914D02*
Y14666D01*
Y13914D02*
X37874Y13538D01*
X35952Y23898D02*
X37699D01*
X35952Y22302D02*
X37548Y23898D01*
X35952Y23885D02*
X37785Y22052D01*
X35952Y23020D02*
X36830Y23898D01*
X35952Y23738D02*
X36112Y23898D01*
X35952Y22252D02*
Y23898D01*
Y22252D02*
X36626D01*
X35952Y22448D02*
X36148Y22252D01*
X36620D02*
X37723Y23355D01*
X35952Y23167D02*
X37067Y22052D01*
X32048Y20998D02*
X35624D01*
X33768Y24199D02*
X33899Y24068D01*
X33768Y24199D02*
X33899Y24068D01*
X33966Y24002D01*
X17848Y24148D02*
X20652D01*
X33768Y24199D02*
X33899Y24068D01*
X33966Y24002D01*
X32048D02*
X33966D01*
X32048Y20998D02*
Y24002D01*
X26048Y23952D02*
X28452D01*
X26048Y23893D02*
X26107Y23952D01*
X20602Y24148D02*
X39698Y5052D01*
X32373Y20998D02*
X38329Y15042D01*
X19883Y24148D02*
X39698Y4333D01*
X19165Y24148D02*
X39698Y3615D01*
X17694Y452D02*
X37891Y20648D01*
X18412Y452D02*
X38609Y20648D01*
X35654Y452D02*
X39698Y4496D01*
X34936Y452D02*
X39698Y5214D01*
X36373Y452D02*
X39698Y3777D01*
X19131Y452D02*
X39327Y20648D01*
X24878Y452D02*
X37965Y13538D01*
X35624Y20998D02*
X35874Y20748D01*
X28452Y20348D02*
Y23952D01*
Y23483D02*
X37498Y14436D01*
X26048Y20348D02*
Y23952D01*
X16975Y452D02*
X37472Y20948D01*
X35874Y20748D02*
X36626D01*
X26048Y20348D02*
X28452D01*
X28251D02*
X28452Y20549D01*
X23441Y452D02*
X37498Y14509D01*
X24160Y452D02*
X37560Y13852D01*
X14617Y45509D02*
X18656Y49548D01*
X14154Y45764D02*
X17938Y49548D01*
X14976Y45150D02*
X19375Y49548D01*
X13435Y45764D02*
X17219Y49548D01*
X12444D02*
X16228Y45764D01*
X12269Y45317D02*
X16501Y49548D01*
X16309Y45764D02*
X20093Y49548D01*
X15638Y45764D02*
X16902D01*
X15833Y43236D02*
X16902D01*
X15006Y45132D02*
X15638Y45764D01*
X15322Y42724D02*
X15833Y43236D01*
X14362Y45764D02*
X14994Y45132D01*
X13098Y45764D02*
X14362D01*
X14994Y44051D02*
Y45132D01*
X12466D02*
X13098Y45764D01*
X12454Y43868D02*
Y45132D01*
X12466Y43868D02*
Y45132D01*
X15006Y44063D02*
Y45132D01*
X12659Y43552D02*
X12721Y43613D01*
X14494Y42448D02*
X15046D01*
X12415Y43829D02*
X12693Y43552D01*
X12466Y43868D02*
X12782Y43552D01*
X15925Y40352D02*
X25122Y49548D01*
X15207Y40352D02*
X24404Y49548D01*
X16644Y40352D02*
X25840Y49548D01*
X14488Y40352D02*
X23685Y49548D01*
X13880D02*
X23177Y40252D01*
X13162Y49548D02*
X22609Y40102D01*
X15882Y43236D02*
X18767Y40352D01*
X15499Y42901D02*
X18048Y40352D01*
X16601Y43236D02*
X19485Y40352D01*
X12801D02*
X21449D01*
X15139Y42542D02*
X17330Y40352D01*
X15046Y42448D02*
X15322Y42724D01*
X15046Y42448D02*
X15322Y42724D01*
X13770Y40352D02*
X16654Y43236D01*
X12333Y40352D02*
X14430Y42448D01*
X13052Y40352D02*
X15936Y43236D01*
X13796Y42448D02*
X15893Y40352D01*
X14494Y42448D02*
X15046D01*
X14515D02*
X16611Y40352D01*
X12359Y42448D02*
X14456Y40352D01*
X13078Y42448D02*
X15175Y40352D01*
X10288Y49548D02*
X14073Y45764D01*
X9570Y49548D02*
X13354Y45764D01*
X10561D02*
X14346Y49548D01*
X7902Y44541D02*
X12909Y49548D01*
X8852D02*
X12867Y45533D01*
X7902Y43823D02*
X13627Y49548D01*
X11725D02*
X15574Y45700D01*
X11280Y45764D02*
X15064Y49548D01*
X11910Y45676D02*
X15783Y49548D01*
X4495D02*
X45505D01*
X11007D02*
X15215Y45341D01*
X8133Y49548D02*
X12508Y45174D01*
X7902Y45260D02*
X12191Y49548D01*
X9926Y45129D02*
X10561Y45764D01*
X7902Y45978D02*
X11472Y49548D01*
X7902Y46696D02*
X10754Y49548D01*
X7415D02*
X11199Y45764D01*
X12138Y43552D02*
X12454Y43868D01*
X12026Y43552D02*
X12138D01*
X12782D01*
X10558Y45764D02*
X11822D01*
X12454Y45132D01*
X12026Y42448D02*
X14494D01*
X11474Y41897D02*
X13019Y40352D01*
X11833Y42256D02*
X13738Y40352D01*
X10515Y39252D02*
X13712Y42448D01*
X9796Y39252D02*
X12993Y42448D01*
X6468Y36642D02*
X12275Y42448D01*
X12199Y40352D02*
X12801D01*
X12199D02*
X12801D01*
X11898Y40051D02*
X12199Y40352D01*
X11115Y41538D02*
X12301Y40352D01*
X11898Y40051D02*
X12199Y40352D01*
X10558Y43236D02*
X11158D01*
X10854D02*
X11006Y43083D01*
X7902Y45469D02*
X10647Y42724D01*
X6803Y39132D02*
X10907Y43236D01*
X7054Y39132D02*
X11158Y43236D01*
X10756Y41178D02*
X11891Y40043D01*
X10397Y40819D02*
X11532Y39684D01*
X11509Y39662D02*
X11898Y40051D01*
X10037Y40460D02*
X11209Y39289D01*
X7882Y38304D02*
X12026Y42448D01*
X16378Y39148D02*
X18225Y37302D01*
X16152Y37704D02*
X17596Y39148D01*
X16467Y37302D02*
X18314Y39148D01*
X16152Y38423D02*
X16877Y39148D01*
X15662Y38652D02*
X16159Y39148D01*
X15659D02*
X17506Y37302D01*
X16152D02*
X17648D01*
X16152Y37198D02*
Y37302D01*
Y35848D02*
Y36023D01*
Y37938D02*
X16788Y37302D01*
X16148Y35848D02*
X17648D01*
X16152Y37302D02*
Y38652D01*
X16148Y37198D02*
Y37302D01*
X16152Y37198D02*
Y37302D01*
X14726Y38652D02*
X16152D01*
X14941Y39148D02*
X15438Y38652D01*
X14944D02*
X15441Y39148D01*
X15952Y35848D02*
X16148D01*
X14648D02*
X14848D01*
X16148D02*
Y36023D01*
X14648Y37198D02*
X14726D01*
X14648Y35848D02*
Y37173D01*
X16398Y35077D02*
X17169Y35848D01*
X15952Y35349D02*
X16451Y35848D01*
X16086Y35848D02*
X16903Y35031D01*
X15952Y35077D02*
Y35848D01*
X14649D02*
X14848Y35649D01*
Y34947D02*
Y35848D01*
X16804Y35848D02*
X17401Y35252D01*
X15952Y35077D02*
X16535D01*
X15952Y35264D02*
X16139Y35077D01*
X14713Y33675D02*
Y33975D01*
Y34325D02*
Y34625D01*
Y32375D02*
Y32675D01*
Y33025D02*
Y33325D01*
X13949Y38677D02*
X14701D01*
X14223Y39148D02*
X14694Y38677D01*
X14250D02*
X14722Y39148D01*
X13752D02*
X21448D01*
X13752Y38896D02*
X14004Y39148D01*
X13752Y38901D02*
X13976Y38677D01*
X14648Y38652D02*
X14726D01*
X13949Y37173D02*
X14648D01*
X14042D02*
X14648Y36567D01*
X13752Y37371D02*
X13949Y37173D01*
X13549Y36948D02*
X14648Y35849D01*
X11209Y39252D02*
Y39361D01*
Y39252D02*
Y39361D01*
X13752Y38479D02*
Y39148D01*
X11209Y39361D02*
X11509Y39662D01*
X11209Y39361D02*
X11509Y39662D01*
X9748Y39252D02*
X11209D01*
X13752Y38479D02*
X13949Y38677D01*
X13752Y36948D02*
Y37371D01*
X10279Y35424D02*
X11804Y36948D01*
X9748D02*
X13752D01*
X9920Y35783D02*
X11085Y36948D01*
X12830D02*
X14840Y34939D01*
X13499Y35052D02*
X14648Y36201D01*
X13752Y34586D02*
X14848Y35683D01*
X12781Y35052D02*
X14648Y36919D01*
X12062Y35052D02*
X14184Y37173D01*
X12112Y36948D02*
X14713Y34347D01*
X13752Y33149D02*
X14746Y34143D01*
X13752Y33872D02*
X14734Y32889D01*
X13752Y33154D02*
X14812Y32093D01*
X13752Y33867D02*
X14848Y34964D01*
X13752Y34590D02*
X14716Y33626D01*
X10675Y36948D02*
X12572Y35052D01*
X10638Y35064D02*
X12522Y36948D01*
X11344Y35052D02*
X13241Y36948D01*
X7882Y38305D02*
X11135Y35052D01*
X9957Y36948D02*
X11854Y35052D01*
X10651D02*
X13752D01*
X11394Y36948D02*
X13290Y35052D01*
X13752Y32748D02*
Y35052D01*
X9362Y36341D02*
X10651Y35052D01*
X9748Y32748D02*
X13752D01*
X7795Y47308D02*
X10035Y49548D01*
X7435Y47667D02*
X9317Y49548D01*
X7902Y46906D02*
X9926Y44882D01*
X6696Y49548D02*
X10519Y45725D01*
X7076Y48026D02*
X8598Y49548D01*
X5978D02*
X10160Y45366D01*
X9926Y45132D02*
X10558Y45764D01*
X9926Y43868D02*
Y45132D01*
Y43868D02*
X10558Y43236D01*
X7902Y46188D02*
X9926Y44164D01*
X7902Y44751D02*
X10288Y42365D01*
X5796Y48902D02*
X6443Y49548D01*
X5259D02*
X5906Y48902D01*
X6358Y48745D02*
X7162Y49548D01*
X4541D02*
X5188Y48902D01*
X4359D02*
X5006Y49548D01*
X5078Y48902D02*
X5725Y49548D01*
X6201Y48902D02*
X7902Y47201D01*
X6717Y48385D02*
X7880Y49548D01*
X7902Y43799D02*
Y47201D01*
X3641Y48902D02*
X4282Y49543D01*
X3872Y49499D02*
X4469Y48902D01*
X7902Y44033D02*
X9928Y42006D01*
X7659Y43557D02*
X9569Y41647D01*
X6084Y39132D02*
X10373Y43421D01*
X4647Y39132D02*
X9926Y44410D01*
X4052Y39255D02*
X9926Y45129D01*
X5366Y39132D02*
X10014Y43780D01*
X9678Y40101D02*
X10527Y39252D01*
X9319Y39742D02*
X9809Y39252D01*
X8960Y39382D02*
X9748Y38594D01*
X7300Y43197D02*
X9210Y41287D01*
X6941Y42838D02*
X8851Y40928D01*
X6581Y42479D02*
X8492Y40569D01*
X6201Y42098D02*
X7902Y43799D01*
X6222Y42120D02*
X8132Y40210D01*
X6177Y42098D02*
X7902Y43823D01*
X3693Y39614D02*
X6177Y42098D01*
X5525D02*
X7773Y39851D01*
X4807Y42098D02*
X7414Y39491D01*
X4088Y42098D02*
X7055Y39132D01*
X3576Y39732D02*
X4152Y39156D01*
X3370Y42098D02*
X6337Y39132D01*
X2923Y48902D02*
X3424Y49403D01*
X2773Y49161D02*
X3033Y48902D01*
X3289Y49363D02*
X3751Y48902D01*
X1098Y47201D02*
X2799Y48902D01*
X2310Y48905D02*
X2557Y48659D01*
X2799Y48902D02*
X6201D01*
X1897Y48600D02*
X2197Y48300D01*
X1529Y48250D02*
X1838Y47941D01*
X1369Y48066D02*
X1934Y48631D01*
X1098Y47077D02*
X2923Y48902D01*
X1206Y47854D02*
X1479Y47581D01*
X931Y47411D02*
X1120Y47222D01*
X1098Y43799D02*
Y47201D01*
X707Y46916D02*
X1098Y46525D01*
X597Y46576D02*
X1098Y47077D01*
X544Y46361D02*
X1098Y45807D01*
X458Y45729D02*
X1098Y45088D01*
X457Y45718D02*
X1098Y46359D01*
X452Y44275D02*
X1098Y44922D01*
X452Y44994D02*
X1098Y45641D01*
X452Y45017D02*
X1098Y44370D01*
X452Y42143D02*
X2863Y39732D01*
X1098Y43799D02*
X2799Y42098D01*
X452Y39246D02*
X3304Y42098D01*
X452Y44298D02*
X5618Y39132D01*
X452Y43580D02*
X4900Y39132D01*
X452Y42862D02*
X4182Y39132D01*
X2799Y42098D02*
X6201D01*
X2424Y39732D02*
X3576D01*
X3092D02*
X5459Y42098D01*
X452Y38528D02*
X4022Y42098D01*
X452Y37810D02*
X4740Y42098D01*
X452Y41402D02*
X1974Y42924D01*
X452Y42120D02*
X1615Y43283D01*
X452Y40683D02*
X2333Y42565D01*
X452Y43557D02*
X1098Y44204D01*
X452Y42838D02*
X1255Y43642D01*
X1848Y39156D02*
X2424Y39732D01*
X452Y40706D02*
X1925Y39233D01*
X452Y39988D02*
X1848Y38591D01*
X452Y39965D02*
X2692Y42205D01*
X452Y41425D02*
X2284Y39592D01*
X8241Y38664D02*
X9748Y37157D01*
X8601Y39023D02*
X9748Y37875D01*
Y36948D02*
Y39252D01*
X7606Y38028D02*
X7882Y38304D01*
X7054Y38028D02*
X7606D01*
X7882Y38304D01*
X9748Y37157D02*
X9957Y36948D01*
X7054Y38028D02*
X7606D01*
X8623Y36642D02*
X9748Y37767D01*
X4152Y36642D02*
X8459D01*
X6722Y38028D02*
X8108Y36642D01*
X4566Y38028D02*
X5953Y36642D01*
X4313D02*
X5699Y38028D01*
X5031Y36642D02*
X6418Y38028D01*
X4152D02*
X7054D01*
X4152Y39132D02*
X7054D01*
X4144Y37192D02*
X4981Y38028D01*
X5749Y36642D02*
X7136Y38028D01*
X4152Y37006D02*
X4516Y36642D01*
X6003Y38028D02*
X7390Y36642D01*
X4012Y37864D02*
X5235Y36642D01*
X4152D02*
Y37192D01*
X9201Y36501D02*
X9748Y37048D01*
X9061Y36642D02*
X9362Y36341D01*
X9560Y36142D02*
X10367Y36948D01*
X7905Y36642D02*
X9748Y38485D01*
X7186Y36642D02*
X9748Y39204D01*
X9061Y36642D02*
X9362Y36341D01*
X9748Y32748D02*
Y34149D01*
X8459Y35438D02*
X9748Y34149D01*
Y32846D02*
X9846Y32748D01*
X7875Y35438D02*
X9748Y33565D01*
X7156Y35438D02*
X9748Y32846D01*
X8459Y36642D02*
X9061D01*
X7440Y38028D02*
X8827Y36642D01*
X8459D02*
X9061D01*
X5285Y38028D02*
X6672Y36642D01*
X4152Y34888D02*
Y35438D01*
X8459D01*
X4152Y33607D02*
X5983Y35438D01*
X4152Y32924D02*
Y34076D01*
Y35044D02*
X4546Y35438D01*
X4027Y34201D02*
X5265Y35438D01*
X3426Y37192D02*
X4263Y38028D01*
X3576Y37428D02*
X4152Y38004D01*
X3653Y37505D02*
X3966Y37192D01*
X452Y39269D02*
X2529Y37192D01*
X1848Y38004D02*
X2424Y37428D01*
X1989Y37192D02*
X2325Y37528D01*
X3011Y37428D02*
X3248Y37192D01*
X2707D02*
X2944Y37428D01*
X3966Y37192D02*
X4152Y37006D01*
X2424Y37428D02*
X3576D01*
X1848Y37192D02*
X4152D01*
X452Y37833D02*
X1848Y36436D01*
Y38004D02*
Y39156D01*
X452Y36373D02*
X1966Y37887D01*
X452Y38551D02*
X1848Y37154D01*
X452Y37091D02*
X1848Y38488D01*
Y37051D02*
X1989Y37192D01*
X452Y36396D02*
X1848Y34999D01*
X452Y34936D02*
X1848Y36333D01*
X452Y37114D02*
X1848Y35717D01*
X452Y35654D02*
X1848Y37051D01*
X3996Y34888D02*
X4152Y35044D01*
X3041Y34652D02*
X3278Y34888D01*
X3668Y34560D02*
X3996Y34888D01*
X1848D02*
X4152D01*
X2677D02*
X2914Y34652D01*
X452Y32781D02*
X2559Y34888D01*
X3576Y34652D02*
X4152Y34076D01*
X2424Y32348D02*
X3576D01*
X4152Y32924D01*
X2424Y34652D02*
X3576D01*
X1848Y32924D02*
X2424Y32348D01*
X1848Y34999D02*
X1959Y34888D01*
X1848D02*
Y37192D01*
X452Y34959D02*
X1848Y33562D01*
X452Y34217D02*
X1848Y35614D01*
X452Y35677D02*
X1951Y34178D01*
X1848Y34076D02*
X2424Y34652D01*
X1959Y34888D02*
X2310Y34537D01*
X1848Y32924D02*
Y34076D01*
X452Y33499D02*
X1848Y34896D01*
X452Y32062D02*
X1848Y33459D01*
X16552Y30920D02*
X19018Y33386D01*
X16552Y30202D02*
X19013Y32663D01*
X16427Y31513D02*
X19040Y34126D01*
X16427Y31923D02*
X16535D01*
X16427Y31252D02*
Y31923D01*
X15098Y29748D02*
X16552D01*
X16427Y31252D02*
X16552D01*
Y29748D02*
Y31252D01*
X15098D02*
X15223D01*
X14578Y31102D02*
X15223Y31747D01*
Y31252D02*
Y31923D01*
X14883Y32022D02*
X15223Y31682D01*
X15098Y31102D02*
Y31252D01*
X14009D02*
X14830Y32072D01*
X14376Y31252D02*
X14526Y31102D01*
Y29898D02*
X15098D01*
X14526Y31102D02*
X15098D01*
Y29748D02*
Y29898D01*
X13624Y29748D02*
X14376D01*
X14526Y29898D01*
X16036Y49548D02*
X49548Y16036D01*
X16754Y49548D02*
X49548Y16754D01*
X15317Y49548D02*
X49548Y15317D01*
X13902Y16057D02*
X38693Y40848D01*
X13902Y16775D02*
X37975Y40848D01*
X14599Y49548D02*
X49548Y14599D01*
X13902Y13902D02*
X28198Y28198D01*
X13902Y13902D02*
X28198Y28198D01*
X13902Y12465D02*
X28188Y26752D01*
X13902Y15338D02*
X39412Y40848D01*
X13902Y14620D02*
X28198Y28917D01*
X16427Y31915D02*
X19390Y28952D01*
X16552Y31072D02*
X18672Y28952D01*
X16552Y30354D02*
X17954Y28952D01*
X14852Y29898D02*
X17848Y26902D01*
X13752Y25246D02*
X20429Y31923D01*
X15720Y29748D02*
X17848Y27620D01*
X16438Y29748D02*
X17848Y28338D01*
X14283Y29748D02*
X17848Y26183D01*
X13752Y24528D02*
X17848Y28625D01*
X13902Y13183D02*
X28188Y27470D01*
X13135Y26067D02*
X19135Y32067D01*
X13438Y32748D02*
X15085Y31102D01*
X13495Y25708D02*
X19710Y31923D01*
X10565Y32748D02*
X17848Y25465D01*
X12720Y32748D02*
X14217Y31252D01*
X9846Y32748D02*
X17848Y24746D01*
X13624Y31252D02*
X14376D01*
X13248Y30124D02*
X13624Y29748D01*
X13051Y26152D02*
X13752Y25451D01*
X11783Y26152D02*
X15380Y29748D01*
X12502Y26152D02*
X16098Y29748D01*
X11283Y32748D02*
X13248Y30783D01*
X4114Y34888D02*
X12851Y26152D01*
X4052Y24167D02*
X12633Y32748D01*
X3396Y34888D02*
X12133Y26152D01*
X4052Y24886D02*
X11914Y32748D01*
X452Y19849D02*
X13351Y32748D01*
X13248Y30876D02*
X13624Y31252D01*
X12002Y32748D02*
X13561Y31189D01*
X13248Y30124D02*
Y30876D01*
X11649Y26152D02*
X13051D01*
X10948Y25451D02*
X11649Y26152D01*
X5719Y35438D02*
X40706Y452D01*
X5001Y35438D02*
X39988Y452D01*
X6438Y35438D02*
X41425Y452D01*
X452Y34240D02*
X34240Y452D01*
X452Y33522D02*
X33522Y452D01*
X4283Y35438D02*
X39269Y452D01*
X10749Y18652D02*
X17848Y25751D01*
X10031Y18652D02*
X17848Y26469D01*
X452Y31367D02*
X31367Y452D01*
X452Y32804D02*
X32804Y452D01*
X452Y32085D02*
X32085Y452D01*
X2628Y19152D02*
X13424Y29948D01*
X1909Y19152D02*
X13248Y30491D01*
X452Y30648D02*
X12448Y18652D01*
X452Y19131D02*
X14719Y33398D01*
X452Y18412D02*
X14713Y32674D01*
X8594Y18652D02*
X17848Y27906D01*
X3583Y18670D02*
X14812Y29898D01*
X9312Y18652D02*
X17848Y27188D01*
X3224Y19029D02*
X13943Y29748D01*
X452Y29930D02*
X11730Y18652D01*
X13902Y10309D02*
X26048Y22456D01*
X13902Y11028D02*
X26048Y23175D01*
X13902Y9591D02*
X26048Y21738D01*
X13752Y25251D02*
X38551Y452D01*
X13902Y11746D02*
X26048Y23893D01*
X13752Y24533D02*
X37833Y452D01*
X14152Y6967D02*
X27533Y20348D01*
X13972Y7506D02*
X26814Y20348D01*
X14152Y6249D02*
X28251Y20348D01*
X13902Y8873D02*
X26048Y21019D01*
X13902Y8154D02*
X26096Y20348D01*
X13795Y17387D02*
X20556Y24148D01*
X13752Y17430D02*
X13902Y17280D01*
X13752Y17430D02*
X13902Y17280D01*
X13696Y18006D02*
X19838Y24148D01*
X13752Y24049D02*
Y25451D01*
Y17430D02*
Y17951D01*
X13902Y7576D02*
X14152Y7326D01*
X13902Y7576D02*
Y15879D01*
X14152Y5674D02*
Y7326D01*
X13902Y15879D02*
Y17280D01*
Y15879D02*
Y17280D01*
X15538Y452D02*
X35855Y20768D01*
X14820Y452D02*
X35367Y20998D01*
X16257Y452D02*
X36554Y20748D01*
X13902Y17198D02*
X30648Y452D01*
X13902Y16480D02*
X29930Y452D01*
X14102D02*
X34648Y20998D01*
X13902Y14325D02*
X27775Y452D01*
X13902Y13606D02*
X27056Y452D01*
X13902Y12888D02*
X26338Y452D01*
X13902Y15762D02*
X29212Y452D01*
X13902Y15043D02*
X28493Y452D01*
X13902Y10733D02*
X24183Y452D01*
X13902Y10014D02*
X23464Y452D01*
X13902Y9296D02*
X22746Y452D01*
X13902Y12169D02*
X25619Y452D01*
X13902Y11451D02*
X24901Y452D01*
X14152Y6890D02*
X20590Y452D01*
X14041Y5564D02*
X19154Y452D01*
X14152Y6172D02*
X19872Y452D01*
X13902Y8577D02*
X22027Y452D01*
X13902Y7859D02*
X21309Y452D01*
X12904Y18652D02*
X18401Y24148D01*
X13051Y23348D02*
X13752Y24049D01*
X13337Y18366D02*
X19119Y24148D01*
X12186Y18652D02*
X17848Y24314D01*
X11467Y18652D02*
X17848Y25033D01*
X10509Y452D02*
X32048Y21990D01*
X13051Y18652D02*
X13752Y17951D01*
X11674Y4848D02*
X13326D01*
X14152Y5674D01*
X452Y14843D02*
X14843Y452D01*
X11228D02*
X32048Y21272D01*
X11649Y23348D02*
X13051D01*
X10948Y24049D02*
X11649Y23348D01*
X7875Y18652D02*
X12572Y23348D01*
X3601Y18652D02*
X11649D01*
X7157D02*
X11854Y23348D01*
X11649Y18652D02*
X12801D01*
X11649D02*
X12801D01*
X13051D01*
X11649Y18652D02*
X12801D01*
X10848Y5674D02*
X11674Y4848D01*
X13275Y23572D02*
X36396Y452D01*
X12781Y23348D02*
X35677Y452D01*
X13634Y23932D02*
X37114Y452D01*
X9791D02*
X32048Y22709D01*
X9073Y452D02*
X32048Y23427D01*
X12062Y23348D02*
X34959Y452D01*
X13383D02*
X33930Y20998D01*
X12665Y452D02*
X33212Y20998D01*
X13682Y5205D02*
X18435Y452D01*
X4495D02*
X45505D01*
X11946D02*
X32493Y20998D01*
X7902Y5956D02*
X13406Y452D01*
X7636D02*
X12033Y4848D01*
X7902Y5238D02*
X12688Y452D01*
X452Y15562D02*
X15562Y452D01*
X452Y14125D02*
X14125Y452D01*
X12602Y4848D02*
X16998Y452D01*
X11883Y4848D02*
X16280Y452D01*
X13320Y4848D02*
X17717Y452D01*
X7902Y4519D02*
X11969Y452D01*
X8354D02*
X12751Y4848D01*
X4152Y33414D02*
X11532Y26034D01*
X3741Y26012D02*
X10477Y32748D01*
X4037Y32810D02*
X11172Y25675D01*
X2944Y26652D02*
X9748Y33456D01*
X2225Y26652D02*
X9736Y34162D01*
X3381Y26371D02*
X9759Y32748D01*
X4052Y25604D02*
X11196Y32748D01*
X10948Y24049D02*
Y25451D01*
X4052Y24893D02*
X10293Y18652D01*
X3678Y32451D02*
X10948Y25181D01*
X3062Y32348D02*
X10948Y24462D01*
X3880Y23628D02*
X8856Y18652D01*
X4052Y23799D02*
Y25701D01*
Y24175D02*
X9575Y18652D01*
X3012Y26652D02*
X4052Y25612D01*
X3101Y26652D02*
X4052Y25701D01*
X3101Y22848D02*
X4052Y23799D01*
X3162Y22909D02*
X7419Y18652D01*
X3101Y19152D02*
X3601Y18652D01*
X3521Y23269D02*
X8138Y18652D01*
X1786Y22848D02*
X5983Y18652D01*
X2504Y22848D02*
X6701Y18652D01*
X11399Y18652D02*
X11649D01*
X8786Y15848D02*
X11098Y13536D01*
X8067Y15848D02*
X11098Y12817D01*
X6438Y18652D02*
X11392Y23605D01*
X7349Y15848D02*
X11098Y12099D01*
X6631Y15848D02*
X11098Y11381D01*
X5194Y15848D02*
X11098Y9944D01*
X5912Y15848D02*
X11098Y10662D01*
Y7576D02*
Y15848D01*
X4475D02*
X11098Y9225D01*
X3757Y15848D02*
X11098Y8507D01*
X5002Y18652D02*
X10948Y24598D01*
X4283Y18652D02*
X10948Y25317D01*
X5720Y18652D02*
X11033Y23965D01*
X4052Y25612D02*
X11012Y18652D01*
X3101Y15348D02*
X3601Y15848D01*
X10223D02*
X11098Y14973D01*
X10941Y15848D02*
X11098Y15691D01*
X9504Y15848D02*
X11098Y14254D01*
X3601Y15848D02*
X11098D01*
X2873Y7902D02*
X10819Y15848D01*
X1507Y26652D02*
X9376Y34521D01*
X452Y27033D02*
X8658Y35240D01*
X452Y26315D02*
X9017Y34880D01*
X452Y28470D02*
X7420Y35438D01*
X452Y29188D02*
X6702Y35438D01*
X452Y27752D02*
X8138Y35438D01*
X1199Y26652D02*
X3101D01*
X452Y29212D02*
X3012Y26652D01*
X1199Y22848D02*
X3101D01*
X452Y30625D02*
X2299Y32473D01*
X452Y29907D02*
X2893Y32348D01*
X452Y27775D02*
X1575Y26652D01*
X452Y27056D02*
X1028Y26480D01*
X452Y25904D02*
X1199Y26652D01*
X452Y28493D02*
X2293Y26652D01*
X452Y31344D02*
X1940Y32832D01*
X452Y25904D02*
Y45505D01*
Y22723D02*
X888Y23159D01*
X452Y23441D02*
X529Y23519D01*
X452Y22004D02*
X1296Y22848D01*
X452Y26338D02*
X669Y26121D01*
X452Y23596D02*
X1199Y22848D01*
X452Y12665D02*
X3635Y15848D01*
X1199Y19152D02*
X3101D01*
X452Y11946D02*
X4354Y15848D01*
X452Y23464D02*
X5264Y18652D01*
X452Y22746D02*
X4546Y18652D01*
X452Y22027D02*
X3827Y18652D01*
X452Y6917D02*
X9383Y15848D01*
X452Y7636D02*
X8664Y15848D01*
X452Y6199D02*
X10101Y15848D01*
X452Y11228D02*
X5072Y15848D01*
X452Y10509D02*
X5791Y15848D01*
X452Y20567D02*
X2733Y22848D01*
X452Y21309D02*
X2609Y19152D01*
X452Y20590D02*
X1890Y19152D01*
X452Y21286D02*
X2014Y22848D01*
X452Y18404D02*
Y23596D01*
Y16096D02*
X1199Y15348D01*
X452Y18404D02*
X1199Y19152D01*
X452Y4495D02*
Y16096D01*
Y19872D02*
X1186Y19138D01*
X452Y19154D02*
X826Y18779D01*
X7051Y7051D02*
X11098Y11098D01*
X6692Y7410D02*
X11098Y11817D01*
X7051Y7051D02*
X11098Y11098D01*
X3320Y15567D02*
X11098Y7788D01*
X5746Y7902D02*
X11098Y13254D01*
X6333Y7770D02*
X11098Y12535D01*
X7902Y5746D02*
X11098Y8943D01*
X10848Y7326D02*
X11098Y7576D01*
X7902Y5028D02*
X11098Y8225D01*
X7410Y6692D02*
X11098Y10380D01*
X7770Y6333D02*
X11098Y9662D01*
X5028Y7902D02*
X11098Y13972D01*
X4310Y7902D02*
X11098Y14691D01*
X6201Y7902D02*
X7902Y6201D01*
X3591Y7902D02*
X11098Y15409D01*
X2799Y7902D02*
X6201D01*
X2820Y15348D02*
X10848Y7320D01*
X7902Y3591D02*
X10848Y6538D01*
Y5674D02*
Y7326D01*
X7902Y2873D02*
X10848Y5819D01*
X5956Y7902D02*
X7902Y5956D01*
Y4310D02*
X10848Y7256D01*
X7902Y3801D02*
X11251Y452D01*
X7902Y2799D02*
Y6201D01*
Y3083D02*
X10533Y452D01*
X6199D02*
X11135Y5388D01*
X6127Y1098D02*
X7902Y2873D01*
X6917Y452D02*
X11494Y5028D01*
X7325Y2222D02*
X9096Y452D01*
X6966Y1863D02*
X8377Y452D01*
X7684Y2582D02*
X9814Y452D01*
X6201Y1098D02*
X7902Y2799D01*
X6606Y1504D02*
X7659Y452D01*
X4067Y475D02*
X4691Y1098D01*
X3461Y587D02*
X3972Y1098D01*
X6247Y1145D02*
X6940Y452D01*
X2926Y770D02*
X3254Y1098D01*
X3420D02*
X4041Y478D01*
X5481Y452D02*
X6127Y1098D01*
X4857D02*
X5504Y452D01*
X5575Y1098D02*
X6222Y452D01*
X4138Y1098D02*
X4785Y452D01*
X4762D02*
X5409Y1098D01*
X452Y13406D02*
X5956Y7902D01*
X1199Y15348D02*
X3101D01*
X2102D02*
X10848Y6602D01*
X452Y9073D02*
X7227Y15848D01*
X452Y9791D02*
X6509Y15848D01*
X452Y8354D02*
X7946Y15848D01*
X452Y11251D02*
X3801Y7902D01*
X452Y10533D02*
X3083Y7902D01*
X1098Y6127D02*
X2873Y7902D01*
X452Y12688D02*
X5238Y7902D01*
X452Y11969D02*
X4519Y7902D01*
X452Y13383D02*
X2417Y15348D01*
X452Y14102D02*
X1698Y15348D01*
X452Y9814D02*
X2582Y7684D01*
X452Y15538D02*
X730Y15817D01*
X452Y14820D02*
X1090Y15458D01*
X452Y7659D02*
X1504Y6606D01*
X452Y6940D02*
X1145Y6247D01*
X1098Y6201D02*
X2799Y7902D01*
X452Y9096D02*
X2222Y7325D01*
X452Y8377D02*
X1863Y6966D01*
X1383Y15348D02*
X10848Y5883D01*
X1301Y2019D02*
X1590Y2308D01*
X1098Y2799D02*
X2799Y1098D01*
X702Y3098D02*
X3098Y702D01*
X1011Y2447D02*
X1230Y2667D01*
X2799Y1098D02*
X6201D01*
X2019Y1301D02*
X2308Y1590D01*
X2447Y1011D02*
X2667Y1230D01*
X1637Y1637D02*
X1949Y1949D01*
X1637Y1637D02*
X1949Y1949D01*
X452Y4762D02*
X1098Y5409D01*
X452Y5504D02*
X1098Y4857D01*
Y2799D02*
Y6201D01*
X452Y6222D02*
X1098Y5575D01*
X452Y5481D02*
X1098Y6127D01*
X478Y4041D02*
X1098Y3420D01*
X587Y3461D02*
X1098Y3972D01*
X770Y2926D02*
X1098Y3254D01*
X452Y4785D02*
X1098Y4138D01*
X475Y4067D02*
X1098Y4691D01*
D11*
X18400Y37925D02*
D03*
Y36575D02*
D03*
X15400Y36575D02*
D03*
Y37925D02*
D03*
X16900Y36575D02*
D03*
Y37925D02*
D03*
D12*
X15850Y32525D02*
D03*
Y33175D02*
D03*
Y33825D02*
D03*
Y34475D02*
D03*
X20150D02*
D03*
Y33825D02*
D03*
Y33175D02*
D03*
Y32525D02*
D03*
D13*
X11750Y33900D02*
D03*
Y38100D02*
D03*
D14*
X27250Y22150D02*
D03*
Y17850D02*
D03*
D15*
X19250Y19450D02*
D03*
Y26550D02*
D03*
D16*
X34000Y22500D02*
D03*
Y15500D02*
D03*
D17*
X32500Y35000D02*
D03*
D18*
X29100Y26680D02*
D03*
X30800D02*
D03*
X32500D02*
D03*
X34200D02*
D03*
X35900D02*
D03*
D19*
X15825Y30500D02*
D03*
X17175D02*
D03*
D20*
X22250Y39250D02*
D03*
X23200Y37250D02*
D03*
X21300D02*
D03*
D21*
X38750Y21350D02*
D03*
Y23150D02*
D03*
D22*
X40400Y4500D02*
D03*
X38600D02*
D03*
D23*
X23225Y37275D02*
Y39475D01*
X23250Y39500D01*
X23200Y37250D02*
X23225Y37275D01*
X38600Y21500D02*
X38750Y21350D01*
X36250Y21500D02*
X38600D01*
X37250Y4500D02*
X38600D01*
X16825Y33825D02*
X17500Y34500D01*
X15850Y33825D02*
X16825D01*
X21300Y37200D02*
Y37250D01*
X21050Y36950D02*
X21300Y37200D01*
X21018Y36950D02*
X21050D01*
X15850Y33175D02*
X17243D01*
X21018Y36950D01*
X14325Y37925D02*
X15400D01*
X18400Y37925D02*
X19475D01*
X16900D02*
X18400D01*
X14770Y43000D02*
X16270Y44500D01*
X11750Y43000D02*
X14770D01*
X7330Y38580D02*
X11750Y43000D01*
X3000Y38580D02*
X7330D01*
X15400Y34475D02*
X15850D01*
X15400D02*
Y36575D01*
X16900Y36575D02*
X18400D01*
X15400D02*
X16900D01*
X15400Y36575D02*
X15400Y36575D01*
D24*
X14000Y30500D02*
X15825D01*
X21725Y34475D02*
X21750Y34500D01*
X20150Y34475D02*
X21725D01*
X17175Y30500D02*
Y31575D01*
X15825Y32525D02*
X15850D01*
X15825Y30500D02*
Y32525D01*
X12500Y39750D02*
X21750D01*
X22250Y39250D02*
Y39300D01*
X22000Y39500D02*
X22050D01*
X21750Y39750D02*
X22000Y39500D01*
X11810Y39060D02*
X12500Y39750D01*
X22050Y39500D02*
X22250Y39300D01*
X11810Y38160D02*
Y39060D01*
X11750Y38100D02*
X11810Y38160D01*
X10900Y33900D02*
X11750D01*
X8760Y36040D02*
X10900Y33900D01*
X3000Y36040D02*
X8760D01*
X40400Y4500D02*
X45500D01*
X34370Y24500D02*
X38000D01*
X38500Y24000D01*
Y23250D02*
Y24000D01*
Y23250D02*
X38600Y23150D01*
X38750D01*
X34200Y24670D02*
X34370Y24500D01*
X34200Y24670D02*
Y26680D01*
D25*
X35500Y41750D02*
X42450D01*
X33730Y44500D02*
X33741Y44489D01*
Y43509D02*
X35500Y41750D01*
X33741Y43509D02*
Y44489D01*
X45178Y38022D02*
Y39022D01*
X42450Y41750D02*
X45178Y39022D01*
Y38022D02*
X45179Y38021D01*
X35900Y26680D02*
Y28500D01*
X32500Y26680D02*
Y28500D01*
X30800Y26680D02*
Y28500D01*
X29100Y26680D02*
Y28500D01*
D26*
X1900Y17250D02*
X12100D01*
Y16979D02*
Y17250D01*
Y16979D02*
X12500Y16579D01*
Y6500D02*
Y16579D01*
D27*
X45500Y4500D02*
D03*
X4500D02*
D03*
X45500Y45500D02*
D03*
X4500D02*
D03*
D28*
X3000Y38580D02*
D03*
Y33500D02*
D03*
D29*
Y36040D02*
D03*
D30*
X12500Y6500D02*
D03*
X17580D02*
D03*
D31*
X12350Y24750D02*
D03*
Y17250D02*
D03*
D32*
X2150Y24750D02*
D03*
Y17250D02*
D03*
D33*
X38810Y44500D02*
D03*
X36270D02*
D03*
X33730D02*
D03*
X31190D02*
D03*
X18810D02*
D03*
X16270D02*
D03*
X13730D02*
D03*
X11190D02*
D03*
X45250Y14290D02*
D03*
Y11750D02*
D03*
X45179Y38021D02*
D03*
Y35481D02*
D03*
D34*
X23250Y39500D02*
D03*
X14000Y30500D02*
D03*
X36250Y21500D02*
D03*
X37250Y4500D02*
D03*
X38250Y14290D02*
D03*
X17500Y34500D02*
D03*
X14325Y37925D02*
D03*
X19475Y37925D02*
D03*
X21750Y34500D02*
D03*
X17175Y31575D02*
D03*
X27250Y22150D02*
D03*
X34000Y22500D02*
D03*
Y15500D02*
D03*
X27250Y17850D02*
D03*
X19250Y19450D02*
D03*
X29500Y35000D02*
D03*
X35500D02*
D03*
X32500Y38000D02*
D03*
Y32000D02*
D03*
Y35000D02*
D03*
X35900Y28500D02*
D03*
X32500D02*
D03*
X30800D02*
D03*
X29100D02*
D03*
X19250Y26550D02*
D03*
%TF.MD5,1b7a074e76aaab833f5ed742330044f9*%
M02*
