%TF.GenerationSoftware,Altium Limited,Altium Designer,25.2.1 (25)*%
G04 Layer_Color=6809061*
%FSLAX43Y43*%
%MOMM*%
%TF.SameCoordinates,EC6566CF-20FD-4289-836C-F72492794835*%
%TF.FilePolarity,Positive*%
%TF.FileFunction,Legend,Bot*%
%TF.Part,Single*%
G01*
G75*
%TA.AperFunction,NonConductor*%
%ADD36C,0.200*%
%ADD37C,0.250*%
%ADD38C,0.254*%
%ADD40C,0.400*%
%ADD42C,0.100*%
G36*
X44955Y26705D02*
X47364D01*
Y25502D01*
X47362D01*
Y25500D01*
X46159D01*
Y24295D01*
X47362D01*
Y24294D01*
X47364D01*
Y23091D01*
X48568D01*
Y20682D01*
X47364D01*
Y21886D01*
X46161D01*
Y21888D01*
X46159D01*
Y23091D01*
X44955D01*
Y21888D01*
X44953D01*
Y21886D01*
X43750D01*
Y23091D01*
X40136D01*
Y21886D01*
X41339D01*
Y21885D01*
X41341D01*
Y20682D01*
X40136D01*
Y21886D01*
X38933D01*
Y21888D01*
X38932D01*
Y23091D01*
X37727D01*
Y21888D01*
X37726D01*
Y21886D01*
X36523D01*
Y20682D01*
X35318D01*
Y23091D01*
X36523D01*
Y24294D01*
X36524D01*
Y24295D01*
X37727D01*
Y25500D01*
X36524D01*
Y25502D01*
X36523D01*
Y26705D01*
X35318D01*
Y27570D01*
Y27571D01*
Y27909D01*
X36521D01*
Y27908D01*
X36523D01*
Y26705D01*
X38932D01*
Y24295D01*
X40136D01*
Y26705D01*
X38932D01*
Y29114D01*
X40136D01*
Y27909D01*
X43750D01*
Y29114D01*
X44955D01*
Y26705D01*
D02*
G37*
G36*
X48568D02*
X47364D01*
Y27074D01*
Y27076D01*
Y27908D01*
X47365D01*
Y27909D01*
X48568D01*
Y26705D01*
D02*
G37*
G36*
X43750Y21792D02*
Y21791D01*
Y20682D01*
X42545D01*
Y21885D01*
X42547D01*
Y21886D01*
X43750D01*
Y21792D01*
D02*
G37*
%LPC*%
G36*
X44955Y26705D02*
X43750D01*
Y24295D01*
X44955D01*
Y26705D01*
D02*
G37*
%LPD*%
D36*
X8666Y25250D02*
X9333D01*
Y24750D01*
X8999D01*
X9333D01*
Y24250D01*
X8333Y25250D02*
Y24417D01*
X8166Y24250D01*
X7833D01*
X7666Y24417D01*
Y25250D01*
X6667Y25083D02*
X6833Y25250D01*
X7167D01*
X7333Y25083D01*
Y24917D01*
X7167Y24750D01*
X6833D01*
X6667Y24583D01*
Y24417D01*
X6833Y24250D01*
X7167D01*
X7333Y24417D01*
X5667Y25250D02*
X6334D01*
Y24250D01*
X5667D01*
X6334Y24750D02*
X6000D01*
X5334Y25250D02*
Y24250D01*
X4834D01*
X4667Y24417D01*
Y25083D01*
X4834Y25250D01*
X5334D01*
X8250Y17750D02*
Y17083D01*
X7916Y16750D01*
X7583Y17083D01*
Y17750D01*
X7250D02*
X6917D01*
X7083D01*
Y16750D01*
X7250D01*
X6917D01*
X6417D02*
Y17750D01*
X5750Y16750D01*
Y17750D01*
X14083Y46136D02*
X13612Y46608D01*
X14083D02*
X13612Y46136D01*
Y47079D02*
Y47314D01*
X13377Y47550D01*
X13141Y47550D01*
X13023Y47432D01*
Y47197D01*
X13141Y47079D01*
X13023Y47197D01*
X12788Y47197D01*
X12670Y47079D01*
Y46843D01*
X12905Y46608D01*
X13141D01*
X13023Y47903D02*
X12552Y47432D01*
X12081D01*
Y47903D01*
X12552Y48375D01*
X12198Y48493D02*
Y48728D01*
X11963Y48964D01*
X11727Y48964D01*
X11609Y48846D01*
Y48610D01*
X11727Y48493D01*
X11609Y48610D01*
X11374D01*
X11256Y48493D01*
X11256Y48257D01*
X11492Y48021D01*
X11727D01*
X11543Y46136D02*
X11072Y46608D01*
X11543D02*
X11072Y46136D01*
X10719Y47668D02*
X11190Y47197D01*
X10837Y46843D01*
X10719Y47197D01*
X10601Y47314D01*
X10365D01*
X10130Y47079D01*
Y46843D01*
X10365Y46608D01*
X10601D01*
X10483Y47903D02*
X10012Y47432D01*
X9541D01*
Y47903D01*
X10012Y48375D01*
X16977Y46490D02*
X16388Y45901D01*
X16152D01*
X15917Y46136D01*
Y46372D01*
X16506Y46961D01*
X15681Y47550D02*
X15917Y47550D01*
X16152Y47314D01*
Y47079D01*
X16034Y46961D01*
X15799Y46961D01*
X15563Y47197D01*
X15328Y47197D01*
X15210Y47079D01*
Y46843D01*
X15445Y46608D01*
X15681D01*
X15563Y47903D02*
X14856Y47197D01*
X14503Y47550D01*
X14503Y47786D01*
X14621Y47903D01*
X14856Y47903D01*
X15210Y47550D01*
X14856Y47903D01*
Y48139D01*
X14974Y48257D01*
X15210Y48257D01*
X15563Y47903D01*
X18928Y46843D02*
X19163D01*
X19399Y46608D01*
Y46372D01*
X18928Y45901D01*
X18692D01*
X18457Y46136D01*
Y46372D01*
X18692Y46608D01*
X18928Y46372D01*
X18103Y46490D02*
X18810Y47197D01*
X17632Y46961D01*
X18339Y47668D01*
X18103Y47903D02*
X17396Y47197D01*
X17043Y47550D01*
X17043Y47786D01*
X17514Y48257D01*
X17750Y48257D01*
X18103Y47903D01*
X38928Y46843D02*
X39163D01*
X39399Y46608D01*
Y46372D01*
X38928Y45901D01*
X38692D01*
X38457Y46136D01*
Y46372D01*
X38692Y46608D01*
X38928Y46372D01*
X38103Y46490D02*
X38810Y47197D01*
X37632Y46961D01*
X38339Y47668D01*
X38103Y47903D02*
X37396Y47197D01*
X37043Y47550D01*
X37043Y47786D01*
X37514Y48257D01*
X37750Y48257D01*
X38103Y47903D01*
X36977Y46490D02*
X36388Y45901D01*
X36152D01*
X35917Y46136D01*
Y46372D01*
X36506Y46961D01*
X35681Y47550D02*
X35917Y47550D01*
X36152Y47314D01*
Y47079D01*
X36034Y46961D01*
X35799Y46961D01*
X35563Y47197D01*
X35327Y47197D01*
X35210Y47079D01*
Y46843D01*
X35445Y46608D01*
X35681D01*
X35563Y47903D02*
X34856Y47197D01*
X34503Y47550D01*
X34503Y47786D01*
X34621Y47903D01*
X34856Y47903D01*
X35210Y47550D01*
X34856Y47903D01*
Y48139D01*
X34974Y48257D01*
X35210Y48257D01*
X35563Y47903D01*
X31543Y46136D02*
X31072Y46608D01*
X31543D02*
X31072Y46136D01*
X30719Y47668D02*
X31190Y47197D01*
X30837Y46843D01*
X30719Y47197D01*
X30601Y47314D01*
X30365D01*
X30130Y47079D01*
Y46843D01*
X30365Y46608D01*
X30601D01*
X30483Y47903D02*
X30012Y47432D01*
X29541D01*
Y47903D01*
X30012Y48375D01*
X34083Y46136D02*
X33612Y46608D01*
X34083D02*
X33612Y46136D01*
Y47079D02*
Y47314D01*
X33377Y47550D01*
X33141Y47550D01*
X33023Y47432D01*
Y47197D01*
X33141Y47079D01*
X33023Y47197D01*
X32787Y47197D01*
X32670Y47079D01*
Y46843D01*
X32905Y46608D01*
X33141D01*
X33023Y47903D02*
X32552Y47432D01*
X32081D01*
Y47903D01*
X32552Y48375D01*
X32198Y48493D02*
Y48728D01*
X31963Y48964D01*
X31727Y48964D01*
X31609Y48846D01*
Y48610D01*
X31727Y48493D01*
X31609Y48610D01*
X31374D01*
X31256Y48493D01*
X31256Y48257D01*
X31492Y48021D01*
X31727D01*
X41871Y14290D02*
X41205D01*
X41538Y14623D02*
Y13957D01*
X40205Y14790D02*
X40871D01*
Y14290D01*
X40538Y14457D01*
X40371D01*
X40205Y14290D01*
Y13957D01*
X40371Y13790D01*
X40705D01*
X40871Y13957D01*
X39872Y14790D02*
Y14123D01*
X39538Y13790D01*
X39205Y14123D01*
Y14790D01*
X41205Y12083D02*
X41371Y12250D01*
X41704D01*
X41871Y12083D01*
Y11417D01*
X41704Y11250D01*
X41371D01*
X41205Y11417D01*
Y11750D01*
X41538D01*
X40871Y11250D02*
Y12250D01*
X40205Y11250D01*
Y12250D01*
X39872D02*
Y11250D01*
X39372D01*
X39205Y11417D01*
Y12083D01*
X39372Y12250D01*
X39872D01*
X41134Y35814D02*
X41300Y35981D01*
X41633D01*
X41800Y35814D01*
Y35148D01*
X41633Y34981D01*
X41300D01*
X41134Y35148D01*
Y35481D01*
X41467D01*
X40800Y34981D02*
Y35981D01*
X40134Y34981D01*
Y35981D01*
X39801D02*
Y34981D01*
X39301D01*
X39134Y35148D01*
Y35814D01*
X39301Y35981D01*
X39801D01*
X41800Y38021D02*
X41134D01*
X41467Y38354D02*
Y37688D01*
X40800Y38354D02*
X40634Y38521D01*
X40300D01*
X40134Y38354D01*
Y38188D01*
X40300Y38021D01*
X40467D01*
X40300D01*
X40134Y37854D01*
Y37688D01*
X40300Y37521D01*
X40634D01*
X40800Y37688D01*
X39801Y38521D02*
Y37854D01*
X39467Y37521D01*
X39134Y37854D01*
Y38521D01*
X38801Y38354D02*
X38634Y38521D01*
X38301D01*
X38135Y38354D01*
Y38188D01*
X38301Y38021D01*
X38468D01*
X38301D01*
X38135Y37854D01*
Y37688D01*
X38301Y37521D01*
X38634D01*
X38801Y37688D01*
X9299Y39080D02*
X9965D01*
Y38080D01*
X9299D01*
X9965Y38580D02*
X9632D01*
X8299Y38913D02*
X8466Y39080D01*
X8799D01*
X8965Y38913D01*
Y38747D01*
X8799Y38580D01*
X8466D01*
X8299Y38413D01*
Y38247D01*
X8466Y38080D01*
X8799D01*
X8965Y38247D01*
X7966Y38080D02*
Y39080D01*
X7466D01*
X7299Y38913D01*
Y38580D01*
X7466Y38413D01*
X7966D01*
X6966Y38913D02*
X6800Y39080D01*
X6466D01*
X6300Y38913D01*
Y38747D01*
X6466Y38580D01*
X6633D01*
X6466D01*
X6300Y38413D01*
Y38247D01*
X6466Y38080D01*
X6800D01*
X6966Y38247D01*
X5300Y38080D02*
X5966D01*
X5300Y38747D01*
Y38913D01*
X5467Y39080D01*
X5800D01*
X5966Y38913D01*
X10965Y33000D02*
Y34000D01*
X10465D01*
X10298Y33833D01*
Y33500D01*
X10465Y33333D01*
X10965D01*
X10632D02*
X10298Y33000D01*
X9965D02*
Y34000D01*
X9465D01*
X9299Y33833D01*
Y33500D01*
X9465Y33333D01*
X9965D01*
X8299Y33000D02*
X8965D01*
X8299Y33667D01*
Y33833D01*
X8466Y34000D01*
X8799D01*
X8965Y33833D01*
X7966D02*
X7799Y34000D01*
X7466D01*
X7299Y33833D01*
Y33667D01*
X7466Y33500D01*
X7633D01*
X7466D01*
X7299Y33333D01*
Y33167D01*
X7466Y33000D01*
X7799D01*
X7966Y33167D01*
X6300Y34000D02*
X6966D01*
Y33500D01*
X6633Y33667D01*
X6466D01*
X6300Y33500D01*
Y33167D01*
X6466Y33000D01*
X6800D01*
X6966Y33167D01*
X5966Y33833D02*
X5800Y34000D01*
X5467D01*
X5300Y33833D01*
Y33167D01*
X5467Y33000D01*
X5800D01*
X5966Y33167D01*
Y33833D01*
D37*
X34699Y24400D02*
Y25600D01*
X34099D01*
X33900Y25400D01*
Y25000D01*
X34099Y24800D01*
X34699D01*
X34299D02*
X33900Y24400D01*
X33500D02*
Y25200D01*
X33100Y25600D01*
X32700Y25200D01*
Y24400D01*
Y25000D01*
X33500D01*
X32300Y25600D02*
Y24400D01*
X31700D01*
X31500Y24600D01*
Y25400D01*
X31700Y25600D01*
X32300D01*
X31100Y24400D02*
Y25600D01*
X30701Y25200D01*
X30301Y25600D01*
Y24400D01*
X39250Y3900D02*
Y5100D01*
X38850Y4700D01*
X38450Y5100D01*
Y3900D01*
X38050Y4900D02*
X37850Y5100D01*
X37451D01*
X37251Y4900D01*
Y4700D01*
X37451Y4500D01*
X37651D01*
X37451D01*
X37251Y4300D01*
Y4100D01*
X37451Y3900D01*
X37850D01*
X38050Y4100D01*
X31775Y10000D02*
X32574D01*
Y9400D01*
X32174Y9600D01*
X31974D01*
X31775Y9400D01*
Y9000D01*
X31974Y8800D01*
X32374D01*
X32574Y9000D01*
X31375Y9800D02*
X31175Y10000D01*
X30775D01*
X30575Y9800D01*
Y9000D01*
X30775Y8800D01*
X31175D01*
X31375Y9000D01*
Y9800D01*
X30175Y8800D02*
Y9600D01*
X29975D01*
X29775Y9400D01*
Y8800D01*
Y9400D01*
X29575Y9600D01*
X29375Y9400D01*
Y8800D01*
X28975D02*
Y9600D01*
X28776D01*
X28576Y9400D01*
Y8800D01*
Y9400D01*
X28376Y9600D01*
X28176Y9400D01*
Y8800D01*
X33250Y12450D02*
Y11250D01*
X32650D01*
X32450Y11450D01*
Y12250D01*
X32650Y12450D01*
X33250D01*
X32050Y11250D02*
X31651D01*
X31850D01*
Y12050D01*
X32050D01*
X31051Y11250D02*
Y12050D01*
X30851D01*
X30651Y11850D01*
Y11250D01*
Y11850D01*
X30451Y12050D01*
X30251Y11850D01*
Y11250D01*
X33250Y14250D02*
Y13050D01*
X32650D01*
X32450Y13250D01*
Y13450D01*
X32650Y13650D01*
X33250D01*
X32650D01*
X32450Y13850D01*
Y14050D01*
X32650Y14250D01*
X33250D01*
X31850Y13050D02*
X31451D01*
X31251Y13250D01*
Y13650D01*
X31451Y13850D01*
X31850D01*
X32050Y13650D01*
Y13250D01*
X31850Y13050D01*
X30651Y13850D02*
X30251D01*
X30051Y13650D01*
Y13050D01*
X30651D01*
X30851Y13250D01*
X30651Y13450D01*
X30051D01*
X29651Y13850D02*
Y13050D01*
Y13450D01*
X29451Y13650D01*
X29251Y13850D01*
X29051D01*
X27652Y14250D02*
Y13050D01*
X28252D01*
X28452Y13250D01*
Y13650D01*
X28252Y13850D01*
X27652D01*
X35950Y11626D02*
Y10826D01*
X35350D01*
X35550Y11226D01*
Y11426D01*
X35350Y11626D01*
X34950D01*
X34750Y11426D01*
Y11026D01*
X34950Y10826D01*
X35750Y12026D02*
X35950Y12226D01*
Y12625D01*
X35750Y12825D01*
X34950D01*
X34750Y12625D01*
Y12226D01*
X34950Y12026D01*
X35750D01*
X34750Y13225D02*
X35550D01*
Y13425D01*
X35350Y13625D01*
X34750D01*
X35350D01*
X35550Y13825D01*
X35350Y14025D01*
X34750D01*
Y14425D02*
X35550D01*
Y14625D01*
X35350Y14825D01*
X34750D01*
X35350D01*
X35550Y15025D01*
X35350Y15225D01*
X34750D01*
D38*
X39800Y4500D02*
X41500D01*
X26750Y10500D02*
X27258Y11008D01*
X40992Y5008D02*
X41500Y4500D01*
X40992Y4000D02*
X41500Y4508D01*
X26750Y10500D02*
X34000D01*
X34000Y17750D02*
X34508Y17242D01*
X33500D02*
X34008Y17750D01*
X26750Y10508D02*
X27258Y10000D01*
X34000Y16052D02*
Y17750D01*
Y10500D02*
Y14948D01*
D40*
X25049Y8205D02*
X24049D01*
X24549Y8705D02*
Y7705D01*
X22550Y8954D02*
X23549D01*
Y8205D01*
X23049Y8455D01*
X22799D01*
X22550Y8205D01*
Y7705D01*
X22799Y7455D01*
X23299D01*
X23549Y7705D01*
X22050Y8954D02*
Y7955D01*
X21550Y7455D01*
X21050Y7955D01*
Y8954D01*
X27798Y6195D02*
X27298D01*
X27548D01*
Y4696D01*
X27798D01*
X27298D01*
X26548D02*
Y6195D01*
X25549Y4696D01*
Y6195D01*
X25049Y4696D02*
Y6195D01*
X24299D01*
X24049Y5945D01*
Y5445D01*
X24299Y5195D01*
X25049D01*
X23549Y6195D02*
Y4945D01*
X23299Y4696D01*
X22799D01*
X22550Y4945D01*
Y6195D01*
X22050D02*
X21050D01*
X21550D01*
Y4696D01*
X25147Y23129D02*
X26146D01*
Y22380D01*
X25646D01*
X26146D01*
Y21630D01*
X24647Y23129D02*
Y21880D01*
X24397Y21630D01*
X23897D01*
X23647Y21880D01*
Y23129D01*
X22148Y22880D02*
X22397Y23129D01*
X22897D01*
X23147Y22880D01*
Y22630D01*
X22897Y22380D01*
X22397D01*
X22148Y22130D01*
Y21880D01*
X22397Y21630D01*
X22897D01*
X23147Y21880D01*
X20648Y23129D02*
X21648D01*
Y21630D01*
X20648D01*
X21648Y22380D02*
X21148D01*
X17649Y23129D02*
X18649D01*
Y22380D01*
X18149D01*
X18649D01*
Y21630D01*
X16399Y23129D02*
X16899D01*
X17149Y22880D01*
Y21880D01*
X16899Y21630D01*
X16399D01*
X16150Y21880D01*
Y22880D01*
X16399Y23129D01*
X15650Y21630D02*
Y23129D01*
X14900D01*
X14650Y22880D01*
Y22380D01*
X14900Y22130D01*
X15650D01*
X15150D02*
X14650Y21630D01*
X24397Y19620D02*
X23397D01*
X23897Y20120D02*
Y19120D01*
X21898Y20370D02*
X22897D01*
Y19620D01*
X22397Y19870D01*
X22148D01*
X21898Y19620D01*
Y19120D01*
X22148Y18871D01*
X22647D01*
X22897Y19120D01*
X21398Y20370D02*
Y19370D01*
X20898Y18871D01*
X20398Y19370D01*
Y20370D01*
X18399D02*
Y19370D01*
X17899Y18871D01*
X17399Y19370D01*
Y20370D01*
X16899D02*
X16399D01*
X16649D01*
Y18871D01*
X16899D01*
X16399D01*
X15650D02*
Y20370D01*
X14650Y18871D01*
Y20370D01*
X25993Y36790D02*
Y35540D01*
X25743Y35290D01*
X25244D01*
X24994Y35540D01*
Y36790D01*
X23494Y36540D02*
X23744Y36790D01*
X24244D01*
X24494Y36540D01*
Y36290D01*
X24244Y36040D01*
X23744D01*
X23494Y35790D01*
Y35540D01*
X23744Y35290D01*
X24244D01*
X24494Y35540D01*
X22994Y36790D02*
Y35290D01*
X22245D01*
X21995Y35540D01*
Y35790D01*
X22245Y36040D01*
X22994D01*
X22245D01*
X21995Y36290D01*
Y36540D01*
X22245Y36790D01*
X22994D01*
X19995Y35290D02*
Y36790D01*
X19246D01*
X18996Y36540D01*
Y36040D01*
X19246Y35790D01*
X19995D01*
X18496Y36790D02*
Y35290D01*
X17996Y35790D01*
X17496Y35290D01*
Y36790D01*
X16996Y35290D02*
Y36790D01*
X16247D01*
X15997Y36540D01*
Y36040D01*
X16247Y35790D01*
X16996D01*
X16496D02*
X15997Y35290D01*
X12998Y36540D02*
X13247Y36790D01*
X13747D01*
X13997Y36540D01*
Y36290D01*
X13747Y36040D01*
X13247D01*
X12998Y35790D01*
Y35540D01*
X13247Y35290D01*
X13747D01*
X13997Y35540D01*
X11498Y36790D02*
X12498D01*
Y35290D01*
X11498D01*
X12498Y36040D02*
X11998D01*
X10998Y36790D02*
Y35290D01*
X9999D01*
X8499Y36790D02*
X9499D01*
Y35290D01*
X8499D01*
X9499Y36040D02*
X8999D01*
X7000Y36540D02*
X7249Y36790D01*
X7749D01*
X7999Y36540D01*
Y35540D01*
X7749Y35290D01*
X7249D01*
X7000Y35540D01*
X6500Y36790D02*
X5500D01*
X6000D01*
Y35290D01*
X17080Y1500D02*
X18080D01*
X12000D02*
X13000D01*
X12500Y2000D02*
Y1000D01*
X48829Y30601D02*
Y31601D01*
X48079D01*
X47829Y31351D01*
Y30601D01*
X47329D02*
Y32101D01*
X46580D01*
X46330Y31851D01*
Y31351D01*
X46580Y31101D01*
X47329D01*
X46830D02*
X46330Y30601D01*
X44830Y32101D02*
X45830D01*
Y31351D01*
X45330D01*
X45830D01*
Y30601D01*
X43331D02*
X44330D01*
X43331Y31601D01*
Y31851D01*
X43581Y32101D01*
X44081D01*
X44330Y31851D01*
X42081Y30601D02*
Y32101D01*
X42831Y31351D01*
X41831D01*
X41331Y32101D02*
Y30601D01*
X40332D01*
X39832Y31851D02*
X39582Y32101D01*
X39082D01*
X38832Y31851D01*
Y30851D01*
X39082Y30601D01*
X39582D01*
X39832Y30851D01*
Y31851D01*
X38332Y30601D02*
X37833D01*
X38082D01*
Y32101D01*
X38332Y31851D01*
X37083Y30601D02*
Y32101D01*
X36333D01*
X36083Y31851D01*
Y31351D01*
X36333Y31101D01*
X37083D01*
X48900Y17670D02*
Y19170D01*
X48150D01*
X47900Y18920D01*
Y18420D01*
X48150Y18170D01*
X48900D01*
X48400D02*
X47900Y17670D01*
X46401Y19170D02*
X47400D01*
Y18420D01*
X46901D01*
X47400D01*
Y17670D01*
X45901Y19170D02*
Y17670D01*
X45151D01*
X44901Y17920D01*
Y18920D01*
X45151Y19170D01*
X45901D01*
X44401Y18670D02*
X43402Y17670D01*
X43902Y18170D01*
X43402Y18670D01*
X44401Y17670D01*
X42902Y17920D02*
X42652Y17670D01*
X42152D01*
X41902Y17920D01*
Y18920D01*
X42152Y19170D01*
X42652D01*
X42902Y18920D01*
Y18670D01*
X42652Y18420D01*
X41902D01*
X41402Y18920D02*
X41153Y19170D01*
X40653D01*
X40403Y18920D01*
Y17920D01*
X40653Y17670D01*
X41153D01*
X41402Y17920D01*
Y18920D01*
X39903D02*
X39653Y19170D01*
X39153D01*
X38903Y18920D01*
Y17920D01*
X39153Y17670D01*
X39653D01*
X39903Y17920D01*
Y18920D01*
X21205Y39560D02*
Y41060D01*
X20455D01*
X20205Y40810D01*
Y40310D01*
X20455Y40060D01*
X21205D01*
X20705D02*
X20205Y39560D01*
X19705D02*
Y41060D01*
X18956D01*
X18706Y40810D01*
Y40310D01*
X18956Y40060D01*
X19705D01*
X17206Y39560D02*
X18206D01*
X17206Y40560D01*
Y40810D01*
X17456Y41060D01*
X17956D01*
X18206Y40810D01*
X16706D02*
X16457Y41060D01*
X15957D01*
X15707Y40810D01*
Y40560D01*
X15957Y40310D01*
X16207D01*
X15957D01*
X15707Y40060D01*
Y39810D01*
X15957Y39560D01*
X16457D01*
X16706Y39810D01*
X14207Y41060D02*
X15207D01*
Y40310D01*
X14707Y40560D01*
X14457D01*
X14207Y40310D01*
Y39810D01*
X14457Y39560D01*
X14957D01*
X15207Y39810D01*
X13707Y40810D02*
X13458Y41060D01*
X12958D01*
X12708Y40810D01*
Y39810D01*
X12958Y39560D01*
X13458D01*
X13707Y39810D01*
Y40810D01*
X34793Y41060D02*
X35793D01*
Y39560D01*
X34793D01*
X35793Y40310D02*
X35293D01*
X33294Y40810D02*
X33543Y41060D01*
X34043D01*
X34293Y40810D01*
Y40560D01*
X34043Y40310D01*
X33543D01*
X33294Y40060D01*
Y39810D01*
X33543Y39560D01*
X34043D01*
X34293Y39810D01*
X32794Y39560D02*
Y41060D01*
X32044D01*
X31794Y40810D01*
Y40310D01*
X32044Y40060D01*
X32794D01*
X31294Y40810D02*
X31044Y41060D01*
X30544D01*
X30295Y40810D01*
Y40560D01*
X30544Y40310D01*
X30794D01*
X30544D01*
X30295Y40060D01*
Y39810D01*
X30544Y39560D01*
X31044D01*
X31294Y39810D01*
X28795Y39560D02*
X29795D01*
X28795Y40560D01*
Y40810D01*
X29045Y41060D01*
X29545D01*
X29795Y40810D01*
D42*
X9400Y2750D02*
Y10900D01*
X8395Y41710D02*
X21605D01*
X9400Y10900D02*
X20400D01*
Y2750D02*
Y10900D01*
X8395Y49510D02*
X21605D01*
X28395Y41710D02*
X41605D01*
X28395Y49510D02*
X41605D01*
X21605Y41710D02*
Y49510D01*
X8395Y41710D02*
Y49510D01*
X49550Y9020D02*
Y17020D01*
X42450Y9020D02*
Y17020D01*
Y9020D02*
X49550D01*
X42450Y17020D02*
X49550D01*
X42379Y32751D02*
X49479D01*
X42379D02*
Y40751D01*
X9400Y2750D02*
X20400D01*
X42379Y40751D02*
X49479D01*
Y32751D02*
Y40751D01*
X1150Y31790D02*
X4850D01*
X1150Y40290D02*
X4850D01*
X41605Y41710D02*
Y49510D01*
X28395Y41710D02*
Y49510D01*
X4850Y31790D02*
Y40290D01*
X14000Y11500D02*
Y30025D01*
X250Y11500D02*
X14000D01*
X1150Y31790D02*
Y40290D01*
X250Y30500D02*
X13525D01*
%TF.MD5,0563d2239a88ae3db8b408d055c753a4*%
M02*
