%TF.GenerationSoftware,Altium Limited,Altium Designer,25.2.1 (25)*%
G04 Layer_Physical_Order=2*
G04 Layer_Color=36540*
%FSLAX43Y43*%
%MOMM*%
%TF.SameCoordinates,383C1AB2-B6DC-4F99-AD1F-0000B79E000F*%
%TF.FilePolarity,Positive*%
%TF.FileFunction,Copper,L2,Inr,Signal*%
%TF.Part,Single*%
G01*
G75*
%TA.AperFunction,ComponentPad*%
%ADD25C,6.000*%
%ADD26C,1.725*%
%ADD27C,2.250*%
%ADD28C,2.750*%
%ADD29C,1.250*%
%ADD30C,2.000*%
%ADD31C,1.500*%
%TA.AperFunction,ViaPad*%
%ADD32C,0.700*%
G36*
X60641Y67549D02*
X61267Y67399D01*
X61861Y67153D01*
X62410Y66817D01*
X62899Y66399D01*
X63317Y65910D01*
X63653Y65361D01*
X63899Y64767D01*
X64049Y64141D01*
X64098Y63528D01*
X64092Y63500D01*
Y4500D01*
X64098Y4472D01*
X64049Y3859D01*
X63899Y3233D01*
X63653Y2639D01*
X63317Y2090D01*
X62899Y1601D01*
X62410Y1183D01*
X61861Y847D01*
X61267Y601D01*
X60641Y451D01*
X60028Y402D01*
X60000Y408D01*
X4500D01*
X4472Y402D01*
X3859Y451D01*
X3233Y601D01*
X2639Y847D01*
X2090Y1183D01*
X1601Y1601D01*
X1183Y2090D01*
X847Y2639D01*
X601Y3233D01*
X451Y3859D01*
X402Y4472D01*
X408Y4500D01*
Y63500D01*
X402Y63528D01*
X451Y64141D01*
X601Y64767D01*
X847Y65361D01*
X1183Y65910D01*
X1601Y66399D01*
X2090Y66817D01*
X2639Y67153D01*
X3233Y67399D01*
X3859Y67549D01*
X4472Y67598D01*
X4500Y67592D01*
X60000D01*
X60028Y67598D01*
X60641Y67549D01*
D02*
G37*
%LPC*%
G36*
X54491Y66645D02*
X54161D01*
X53837Y66581D01*
X53533Y66454D01*
X53258Y66271D01*
X53025Y66038D01*
X52842Y65763D01*
X52715Y65459D01*
X52651Y65135D01*
Y64805D01*
X52715Y64481D01*
X52842Y64177D01*
X53025Y63902D01*
X53258Y63669D01*
X53533Y63486D01*
X53837Y63359D01*
X54161Y63295D01*
X54491D01*
X54815Y63359D01*
X55119Y63486D01*
X55394Y63669D01*
X55627Y63902D01*
X55810Y64177D01*
X55937Y64481D01*
X56001Y64805D01*
Y65135D01*
X55937Y65459D01*
X55810Y65763D01*
X55627Y66038D01*
X55394Y66271D01*
X55119Y66454D01*
X54815Y66581D01*
X54491Y66645D01*
D02*
G37*
G36*
X45851D02*
X45521D01*
X45197Y66581D01*
X44893Y66454D01*
X44618Y66271D01*
X44385Y66038D01*
X44202Y65763D01*
X44075Y65459D01*
X44011Y65135D01*
Y64805D01*
X44075Y64481D01*
X44202Y64177D01*
X44385Y63902D01*
X44618Y63669D01*
X44893Y63486D01*
X45197Y63359D01*
X45521Y63295D01*
X45851D01*
X46175Y63359D01*
X46479Y63486D01*
X46754Y63669D01*
X46987Y63902D01*
X47170Y64177D01*
X47297Y64481D01*
X47361Y64805D01*
Y65135D01*
X47297Y65459D01*
X47170Y65763D01*
X46987Y66038D01*
X46754Y66271D01*
X46479Y66454D01*
X46175Y66581D01*
X45851Y66645D01*
D02*
G37*
G36*
X50836Y62900D02*
X50664D01*
X50499Y62856D01*
X50351Y62770D01*
X50250Y62669D01*
X50149Y62770D01*
X50001Y62856D01*
X49836Y62900D01*
X49664D01*
X49499Y62856D01*
X49351Y62770D01*
X49250Y62669D01*
X49149Y62770D01*
X49001Y62856D01*
X48836Y62900D01*
X48664D01*
X48499Y62856D01*
X48351Y62770D01*
X48250Y62669D01*
X48149Y62770D01*
X48001Y62856D01*
X47836Y62900D01*
X47664D01*
X47499Y62856D01*
X47351Y62770D01*
X47230Y62649D01*
X47182Y62567D01*
X47031Y62538D01*
X46974Y62595D01*
X46763Y62717D01*
X46528Y62780D01*
X46284D01*
X46049Y62717D01*
X45838Y62595D01*
X45666Y62423D01*
X45544Y62212D01*
X45481Y61977D01*
Y61733D01*
X45544Y61498D01*
X45569Y61455D01*
X45516Y61363D01*
X45487Y61342D01*
X45136Y61248D01*
X44811Y61060D01*
X44546Y60795D01*
X44358Y60470D01*
X44261Y60108D01*
Y59732D01*
X44358Y59370D01*
X44546Y59045D01*
X44811Y58780D01*
X45136Y58592D01*
X45498Y58495D01*
X45874D01*
X46236Y58592D01*
X46561Y58780D01*
X46826Y59045D01*
X47014Y59370D01*
X47111Y59732D01*
Y60108D01*
X47014Y60470D01*
X46826Y60795D01*
X46748Y60873D01*
X46791Y61009D01*
X46974Y61115D01*
X47146Y61287D01*
X47268Y61498D01*
X47299Y61613D01*
X47447Y61675D01*
X47499Y61644D01*
X47664Y61600D01*
X47836D01*
X48001Y61644D01*
X48149Y61730D01*
X48250Y61831D01*
X48351Y61730D01*
X48499Y61644D01*
X48664Y61600D01*
X48836D01*
X49001Y61644D01*
X49149Y61730D01*
X49250Y61831D01*
X49351Y61730D01*
X49499Y61644D01*
X49664Y61600D01*
X49836D01*
X50001Y61644D01*
X50149Y61730D01*
X50250Y61831D01*
X50351Y61730D01*
X50499Y61644D01*
X50664Y61600D01*
X50836D01*
X51001Y61644D01*
X51149Y61730D01*
X51270Y61851D01*
X51356Y61999D01*
X51400Y62164D01*
Y62336D01*
X51356Y62501D01*
X51270Y62649D01*
X51149Y62770D01*
X51001Y62856D01*
X50836Y62900D01*
D02*
G37*
G36*
X39308Y63130D02*
X39032D01*
X38765Y63058D01*
X38525Y62920D01*
X38330Y62725D01*
X38192Y62485D01*
X38120Y62218D01*
Y61942D01*
X38192Y61675D01*
X38330Y61435D01*
X38525Y61240D01*
X38765Y61102D01*
X39032Y61030D01*
X39308D01*
X39575Y61102D01*
X39815Y61240D01*
X40010Y61435D01*
X40148Y61675D01*
X40220Y61942D01*
Y62218D01*
X40148Y62485D01*
X40010Y62725D01*
X39815Y62920D01*
X39575Y63058D01*
X39308Y63130D01*
D02*
G37*
G36*
X36768D02*
X36492D01*
X36225Y63058D01*
X35985Y62920D01*
X35790Y62725D01*
X35652Y62485D01*
X35580Y62218D01*
Y61942D01*
X35652Y61675D01*
X35790Y61435D01*
X35985Y61240D01*
X36225Y61102D01*
X36492Y61030D01*
X36768D01*
X37035Y61102D01*
X37275Y61240D01*
X37470Y61435D01*
X37608Y61675D01*
X37680Y61942D01*
Y62218D01*
X37608Y62485D01*
X37470Y62725D01*
X37275Y62920D01*
X37035Y63058D01*
X36768Y63130D01*
D02*
G37*
G36*
X27308D02*
X27032D01*
X26765Y63058D01*
X26525Y62920D01*
X26330Y62725D01*
X26192Y62485D01*
X26120Y62218D01*
Y61942D01*
X26192Y61675D01*
X26330Y61435D01*
X26525Y61240D01*
X26765Y61102D01*
X27032Y61030D01*
X27308D01*
X27575Y61102D01*
X27815Y61240D01*
X28010Y61435D01*
X28148Y61675D01*
X28220Y61942D01*
Y62218D01*
X28148Y62485D01*
X28010Y62725D01*
X27815Y62920D01*
X27575Y63058D01*
X27308Y63130D01*
D02*
G37*
G36*
X24768D02*
X24492D01*
X24225Y63058D01*
X23985Y62920D01*
X23790Y62725D01*
X23652Y62485D01*
X23580Y62218D01*
Y61942D01*
X23652Y61675D01*
X23790Y61435D01*
X23985Y61240D01*
X24225Y61102D01*
X24492Y61030D01*
X24768D01*
X25035Y61102D01*
X25275Y61240D01*
X25470Y61435D01*
X25608Y61675D01*
X25680Y61942D01*
Y62218D01*
X25608Y62485D01*
X25470Y62725D01*
X25275Y62920D01*
X25035Y63058D01*
X24768Y63130D01*
D02*
G37*
G36*
X15308D02*
X15032D01*
X14765Y63058D01*
X14525Y62920D01*
X14330Y62725D01*
X14192Y62485D01*
X14120Y62218D01*
Y61942D01*
X14192Y61675D01*
X14330Y61435D01*
X14525Y61240D01*
X14765Y61102D01*
X15032Y61030D01*
X15308D01*
X15575Y61102D01*
X15815Y61240D01*
X16010Y61435D01*
X16148Y61675D01*
X16220Y61942D01*
Y62218D01*
X16148Y62485D01*
X16010Y62725D01*
X15815Y62920D01*
X15575Y63058D01*
X15308Y63130D01*
D02*
G37*
G36*
X12768D02*
X12492D01*
X12225Y63058D01*
X11985Y62920D01*
X11790Y62725D01*
X11652Y62485D01*
X11580Y62218D01*
Y61942D01*
X11652Y61675D01*
X11790Y61435D01*
X11985Y61240D01*
X12225Y61102D01*
X12492Y61030D01*
X12768D01*
X13035Y61102D01*
X13275Y61240D01*
X13470Y61435D01*
X13608Y61675D01*
X13680Y61942D01*
Y62218D01*
X13608Y62485D01*
X13470Y62725D01*
X13275Y62920D01*
X13035Y63058D01*
X12768Y63130D01*
D02*
G37*
G36*
X4760Y66800D02*
X4240D01*
X3727Y66719D01*
X3233Y66558D01*
X2770Y66322D01*
X2350Y66017D01*
X1983Y65650D01*
X1678Y65230D01*
X1442Y64767D01*
X1281Y64273D01*
X1200Y63760D01*
Y63240D01*
X1281Y62727D01*
X1442Y62233D01*
X1678Y61770D01*
X1983Y61350D01*
X2350Y60983D01*
X2770Y60678D01*
X3233Y60442D01*
X3727Y60281D01*
X4240Y60200D01*
X4760D01*
X5273Y60281D01*
X5767Y60442D01*
X6230Y60678D01*
X6650Y60983D01*
X7017Y61350D01*
X7322Y61770D01*
X7558Y62233D01*
X7719Y62727D01*
X7800Y63240D01*
Y63760D01*
X7719Y64273D01*
X7558Y64767D01*
X7322Y65230D01*
X7017Y65650D01*
X6650Y66017D01*
X6230Y66322D01*
X5767Y66558D01*
X5273Y66719D01*
X4760Y66800D01*
D02*
G37*
G36*
X60260Y66300D02*
X59740D01*
X59227Y66219D01*
X58733Y66058D01*
X58270Y65822D01*
X57850Y65517D01*
X57483Y65150D01*
X57178Y64730D01*
X56942Y64267D01*
X56781Y63773D01*
X56700Y63260D01*
Y62740D01*
X56781Y62227D01*
X56942Y61733D01*
X57178Y61270D01*
X57483Y60850D01*
X57850Y60483D01*
X58270Y60178D01*
X58733Y59942D01*
X59227Y59781D01*
X59740Y59700D01*
X60260D01*
X60773Y59781D01*
X61267Y59942D01*
X61730Y60178D01*
X62150Y60483D01*
X62517Y60850D01*
X62822Y61270D01*
X63058Y61733D01*
X63219Y62227D01*
X63300Y62740D01*
Y63260D01*
X63219Y63773D01*
X63058Y64267D01*
X62822Y64730D01*
X62517Y65150D01*
X62150Y65517D01*
X61730Y65822D01*
X61267Y66058D01*
X60773Y66219D01*
X60260Y66300D01*
D02*
G37*
G36*
X53728Y62845D02*
X53484D01*
X53249Y62782D01*
X53038Y62660D01*
X52866Y62488D01*
X52744Y62277D01*
X52681Y62042D01*
Y61798D01*
X52744Y61563D01*
X52866Y61352D01*
X53038Y61180D01*
X53249Y61058D01*
X53284Y61049D01*
X53317Y60926D01*
X53186Y60795D01*
X52998Y60470D01*
X52901Y60108D01*
Y59732D01*
X52998Y59370D01*
X53186Y59045D01*
X53451Y58780D01*
X53776Y58592D01*
X54138Y58495D01*
X54514D01*
X54876Y58592D01*
X55201Y58780D01*
X55466Y59045D01*
X55654Y59370D01*
X55751Y59732D01*
Y60108D01*
X55654Y60470D01*
X55466Y60795D01*
X55201Y61060D01*
X54876Y61248D01*
X54514Y61345D01*
X54489D01*
X54415Y61472D01*
X54468Y61563D01*
X54531Y61798D01*
Y62042D01*
X54468Y62277D01*
X54346Y62488D01*
X54174Y62660D01*
X53963Y62782D01*
X53728Y62845D01*
D02*
G37*
G36*
X39308Y60590D02*
X39032D01*
X38765Y60518D01*
X38525Y60380D01*
X38330Y60185D01*
X38192Y59945D01*
X38120Y59678D01*
Y59402D01*
X38192Y59135D01*
X38330Y58895D01*
X38525Y58700D01*
X38765Y58562D01*
X39032Y58490D01*
X39308D01*
X39575Y58562D01*
X39815Y58700D01*
X40010Y58895D01*
X40148Y59135D01*
X40220Y59402D01*
Y59678D01*
X40148Y59945D01*
X40010Y60185D01*
X39815Y60380D01*
X39575Y60518D01*
X39308Y60590D01*
D02*
G37*
G36*
X36768D02*
X36492D01*
X36225Y60518D01*
X35985Y60380D01*
X35790Y60185D01*
X35652Y59945D01*
X35580Y59678D01*
Y59402D01*
X35652Y59135D01*
X35790Y58895D01*
X35985Y58700D01*
X36225Y58562D01*
X36492Y58490D01*
X36768D01*
X37035Y58562D01*
X37275Y58700D01*
X37470Y58895D01*
X37608Y59135D01*
X37680Y59402D01*
Y59678D01*
X37608Y59945D01*
X37470Y60185D01*
X37275Y60380D01*
X37035Y60518D01*
X36768Y60590D01*
D02*
G37*
G36*
X27308D02*
X27032D01*
X26765Y60518D01*
X26525Y60380D01*
X26330Y60185D01*
X26192Y59945D01*
X26120Y59678D01*
Y59402D01*
X26192Y59135D01*
X26330Y58895D01*
X26525Y58700D01*
X26765Y58562D01*
X27032Y58490D01*
X27308D01*
X27575Y58562D01*
X27815Y58700D01*
X28010Y58895D01*
X28148Y59135D01*
X28220Y59402D01*
Y59678D01*
X28148Y59945D01*
X28010Y60185D01*
X27815Y60380D01*
X27575Y60518D01*
X27308Y60590D01*
D02*
G37*
G36*
X24768D02*
X24492D01*
X24225Y60518D01*
X23985Y60380D01*
X23790Y60185D01*
X23652Y59945D01*
X23580Y59678D01*
Y59402D01*
X23652Y59135D01*
X23790Y58895D01*
X23985Y58700D01*
X24225Y58562D01*
X24492Y58490D01*
X24768D01*
X25035Y58562D01*
X25275Y58700D01*
X25470Y58895D01*
X25608Y59135D01*
X25680Y59402D01*
Y59678D01*
X25608Y59945D01*
X25470Y60185D01*
X25275Y60380D01*
X25035Y60518D01*
X24768Y60590D01*
D02*
G37*
G36*
X15308D02*
X15032D01*
X14765Y60518D01*
X14525Y60380D01*
X14330Y60185D01*
X14192Y59945D01*
X14120Y59678D01*
Y59402D01*
X14192Y59135D01*
X14330Y58895D01*
X14525Y58700D01*
X14765Y58562D01*
X15032Y58490D01*
X15308D01*
X15575Y58562D01*
X15815Y58700D01*
X16010Y58895D01*
X16148Y59135D01*
X16220Y59402D01*
Y59678D01*
X16148Y59945D01*
X16010Y60185D01*
X15815Y60380D01*
X15575Y60518D01*
X15308Y60590D01*
D02*
G37*
G36*
X12768D02*
X12492D01*
X12225Y60518D01*
X11985Y60380D01*
X11790Y60185D01*
X11652Y59945D01*
X11580Y59678D01*
Y59402D01*
X11652Y59135D01*
X11790Y58895D01*
X11985Y58700D01*
X12225Y58562D01*
X12492Y58490D01*
X12768D01*
X13035Y58562D01*
X13275Y58700D01*
X13470Y58895D01*
X13608Y59135D01*
X13680Y59402D01*
Y59678D01*
X13608Y59945D01*
X13470Y60185D01*
X13275Y60380D01*
X13035Y60518D01*
X12768Y60590D01*
D02*
G37*
G36*
X50586Y58150D02*
X50414D01*
X50249Y58106D01*
X50101Y58020D01*
X50000Y57919D01*
X49899Y58020D01*
X49751Y58106D01*
X49586Y58150D01*
X49414D01*
X49249Y58106D01*
X49101Y58020D01*
X48980Y57899D01*
X48894Y57751D01*
X48850Y57586D01*
Y57414D01*
X48894Y57249D01*
X48980Y57101D01*
X49101Y56980D01*
X49249Y56894D01*
X49414Y56850D01*
X49586D01*
X49751Y56894D01*
X49899Y56980D01*
X50000Y57081D01*
X50101Y56980D01*
X50249Y56894D01*
X50414Y56850D01*
X50586D01*
X50751Y56894D01*
X50899Y56980D01*
X51020Y57101D01*
X51106Y57249D01*
X51150Y57414D01*
Y57586D01*
X51106Y57751D01*
X51020Y57899D01*
X50899Y58020D01*
X50751Y58106D01*
X50586Y58150D01*
D02*
G37*
G36*
X52336D02*
X52164D01*
X51999Y58106D01*
X51851Y58020D01*
X51730Y57899D01*
X51644Y57751D01*
X51600Y57586D01*
Y57414D01*
X51644Y57249D01*
X51730Y57101D01*
X51851Y56980D01*
X51999Y56894D01*
X52164Y56850D01*
X52336D01*
X52501Y56894D01*
X52649Y56980D01*
X52770Y57101D01*
X52856Y57249D01*
X52900Y57414D01*
Y57586D01*
X52856Y57751D01*
X52770Y57899D01*
X52649Y58020D01*
X52501Y58106D01*
X52336Y58150D01*
D02*
G37*
G36*
X39308Y58050D02*
X39032D01*
X38765Y57978D01*
X38525Y57840D01*
X38330Y57645D01*
X38192Y57405D01*
X38120Y57138D01*
Y56862D01*
X38192Y56595D01*
X38330Y56355D01*
X38525Y56160D01*
X38765Y56022D01*
X39032Y55950D01*
X39308D01*
X39575Y56022D01*
X39815Y56160D01*
X40010Y56355D01*
X40148Y56595D01*
X40220Y56862D01*
Y57138D01*
X40148Y57405D01*
X40010Y57645D01*
X39815Y57840D01*
X39575Y57978D01*
X39308Y58050D01*
D02*
G37*
G36*
X36768D02*
X36492D01*
X36225Y57978D01*
X35985Y57840D01*
X35790Y57645D01*
X35652Y57405D01*
X35580Y57138D01*
Y56862D01*
X35652Y56595D01*
X35790Y56355D01*
X35985Y56160D01*
X36225Y56022D01*
X36492Y55950D01*
X36768D01*
X37035Y56022D01*
X37275Y56160D01*
X37470Y56355D01*
X37608Y56595D01*
X37680Y56862D01*
Y57138D01*
X37608Y57405D01*
X37470Y57645D01*
X37275Y57840D01*
X37035Y57978D01*
X36768Y58050D01*
D02*
G37*
G36*
X27308D02*
X27032D01*
X26765Y57978D01*
X26525Y57840D01*
X26330Y57645D01*
X26192Y57405D01*
X26120Y57138D01*
Y56862D01*
X26192Y56595D01*
X26330Y56355D01*
X26525Y56160D01*
X26765Y56022D01*
X27032Y55950D01*
X27308D01*
X27575Y56022D01*
X27815Y56160D01*
X28010Y56355D01*
X28148Y56595D01*
X28220Y56862D01*
Y57138D01*
X28148Y57405D01*
X28010Y57645D01*
X27815Y57840D01*
X27575Y57978D01*
X27308Y58050D01*
D02*
G37*
G36*
X24768D02*
X24492D01*
X24225Y57978D01*
X23985Y57840D01*
X23790Y57645D01*
X23652Y57405D01*
X23580Y57138D01*
Y56862D01*
X23652Y56595D01*
X23790Y56355D01*
X23985Y56160D01*
X24225Y56022D01*
X24492Y55950D01*
X24768D01*
X25035Y56022D01*
X25275Y56160D01*
X25470Y56355D01*
X25608Y56595D01*
X25680Y56862D01*
Y57138D01*
X25608Y57405D01*
X25470Y57645D01*
X25275Y57840D01*
X25035Y57978D01*
X24768Y58050D01*
D02*
G37*
G36*
X15308D02*
X15032D01*
X14765Y57978D01*
X14525Y57840D01*
X14330Y57645D01*
X14192Y57405D01*
X14120Y57138D01*
Y56862D01*
X14192Y56595D01*
X14330Y56355D01*
X14525Y56160D01*
X14765Y56022D01*
X15032Y55950D01*
X15308D01*
X15575Y56022D01*
X15815Y56160D01*
X16010Y56355D01*
X16148Y56595D01*
X16220Y56862D01*
Y57138D01*
X16148Y57405D01*
X16010Y57645D01*
X15815Y57840D01*
X15575Y57978D01*
X15308Y58050D01*
D02*
G37*
G36*
X12768D02*
X12492D01*
X12225Y57978D01*
X11985Y57840D01*
X11790Y57645D01*
X11652Y57405D01*
X11580Y57138D01*
Y56862D01*
X11652Y56595D01*
X11790Y56355D01*
X11985Y56160D01*
X12225Y56022D01*
X12492Y55950D01*
X12768D01*
X13035Y56022D01*
X13275Y56160D01*
X13470Y56355D01*
X13608Y56595D01*
X13680Y56862D01*
Y57138D01*
X13608Y57405D01*
X13470Y57645D01*
X13275Y57840D01*
X13035Y57978D01*
X12768Y58050D01*
D02*
G37*
G36*
X39308Y55510D02*
X39032D01*
X38765Y55438D01*
X38525Y55300D01*
X38330Y55105D01*
X38192Y54865D01*
X38120Y54598D01*
Y54322D01*
X38192Y54055D01*
X38330Y53815D01*
X38525Y53620D01*
X38765Y53482D01*
X39032Y53410D01*
X39308D01*
X39575Y53482D01*
X39815Y53620D01*
X40010Y53815D01*
X40148Y54055D01*
X40220Y54322D01*
Y54598D01*
X40148Y54865D01*
X40010Y55105D01*
X39815Y55300D01*
X39575Y55438D01*
X39308Y55510D01*
D02*
G37*
G36*
X36768D02*
X36492D01*
X36225Y55438D01*
X35985Y55300D01*
X35790Y55105D01*
X35652Y54865D01*
X35580Y54598D01*
Y54322D01*
X35652Y54055D01*
X35790Y53815D01*
X35985Y53620D01*
X36225Y53482D01*
X36492Y53410D01*
X36768D01*
X37035Y53482D01*
X37275Y53620D01*
X37470Y53815D01*
X37608Y54055D01*
X37680Y54322D01*
Y54598D01*
X37608Y54865D01*
X37470Y55105D01*
X37275Y55300D01*
X37035Y55438D01*
X36768Y55510D01*
D02*
G37*
G36*
X27308D02*
X27032D01*
X26765Y55438D01*
X26525Y55300D01*
X26330Y55105D01*
X26192Y54865D01*
X26120Y54598D01*
Y54322D01*
X26192Y54055D01*
X26330Y53815D01*
X26525Y53620D01*
X26765Y53482D01*
X27032Y53410D01*
X27308D01*
X27575Y53482D01*
X27815Y53620D01*
X28010Y53815D01*
X28148Y54055D01*
X28220Y54322D01*
Y54598D01*
X28148Y54865D01*
X28010Y55105D01*
X27815Y55300D01*
X27575Y55438D01*
X27308Y55510D01*
D02*
G37*
G36*
X24768D02*
X24492D01*
X24225Y55438D01*
X23985Y55300D01*
X23790Y55105D01*
X23652Y54865D01*
X23580Y54598D01*
Y54322D01*
X23652Y54055D01*
X23790Y53815D01*
X23985Y53620D01*
X24225Y53482D01*
X24492Y53410D01*
X24768D01*
X25035Y53482D01*
X25275Y53620D01*
X25470Y53815D01*
X25608Y54055D01*
X25680Y54322D01*
Y54598D01*
X25608Y54865D01*
X25470Y55105D01*
X25275Y55300D01*
X25035Y55438D01*
X24768Y55510D01*
D02*
G37*
G36*
X15308D02*
X15032D01*
X14765Y55438D01*
X14525Y55300D01*
X14330Y55105D01*
X14192Y54865D01*
X14120Y54598D01*
Y54322D01*
X14192Y54055D01*
X14330Y53815D01*
X14525Y53620D01*
X14765Y53482D01*
X15032Y53410D01*
X15308D01*
X15575Y53482D01*
X15815Y53620D01*
X16010Y53815D01*
X16148Y54055D01*
X16220Y54322D01*
Y54598D01*
X16148Y54865D01*
X16010Y55105D01*
X15815Y55300D01*
X15575Y55438D01*
X15308Y55510D01*
D02*
G37*
G36*
X12768D02*
X12492D01*
X12225Y55438D01*
X11985Y55300D01*
X11790Y55105D01*
X11652Y54865D01*
X11580Y54598D01*
Y54322D01*
X11652Y54055D01*
X11790Y53815D01*
X11985Y53620D01*
X12225Y53482D01*
X12492Y53410D01*
X12768D01*
X13035Y53482D01*
X13275Y53620D01*
X13470Y53815D01*
X13608Y54055D01*
X13680Y54322D01*
Y54598D01*
X13608Y54865D01*
X13470Y55105D01*
X13275Y55300D01*
X13035Y55438D01*
X12768Y55510D01*
D02*
G37*
G36*
X50836Y53900D02*
X50664D01*
X50499Y53856D01*
X50351Y53770D01*
X50230Y53649D01*
X50144Y53501D01*
X50100Y53336D01*
Y53164D01*
X50144Y52999D01*
X50230Y52851D01*
X50351Y52730D01*
X50499Y52644D01*
X50664Y52600D01*
X50836D01*
X51001Y52644D01*
X51149Y52730D01*
X51270Y52851D01*
X51356Y52999D01*
X51400Y53164D01*
Y53336D01*
X51356Y53501D01*
X51270Y53649D01*
X51149Y53770D01*
X51001Y53856D01*
X50836Y53900D01*
D02*
G37*
G36*
X49336D02*
X49164D01*
X48999Y53856D01*
X48851Y53770D01*
X48730Y53649D01*
X48644Y53501D01*
X48600Y53336D01*
Y53164D01*
X48644Y52999D01*
X48730Y52851D01*
X48851Y52730D01*
X48999Y52644D01*
X49164Y52600D01*
X49336D01*
X49501Y52644D01*
X49649Y52730D01*
X49770Y52851D01*
X49856Y52999D01*
X49900Y53164D01*
Y53336D01*
X49856Y53501D01*
X49770Y53649D01*
X49649Y53770D01*
X49501Y53856D01*
X49336Y53900D01*
D02*
G37*
G36*
X59153Y50886D02*
X58847D01*
X58551Y50806D01*
X58286Y50653D01*
X58070Y50437D01*
X57917Y50172D01*
X57838Y49876D01*
Y49570D01*
X57917Y49274D01*
X58070Y49009D01*
X58286Y48793D01*
X58551Y48640D01*
X58847Y48561D01*
X59153D01*
X59449Y48640D01*
X59714Y48793D01*
X59930Y49009D01*
X60083Y49274D01*
X60162Y49570D01*
Y49876D01*
X60083Y50172D01*
X59930Y50437D01*
X59714Y50653D01*
X59449Y50806D01*
X59153Y50886D01*
D02*
G37*
G36*
Y48346D02*
X58847D01*
X58551Y48266D01*
X58286Y48113D01*
X58070Y47897D01*
X57917Y47632D01*
X57838Y47336D01*
Y47030D01*
X57917Y46734D01*
X58070Y46469D01*
X58286Y46253D01*
X58551Y46100D01*
X58847Y46021D01*
X59153D01*
X59449Y46100D01*
X59714Y46253D01*
X59930Y46469D01*
X60083Y46734D01*
X60162Y47030D01*
Y47336D01*
X60083Y47632D01*
X59930Y47897D01*
X59714Y48113D01*
X59449Y48266D01*
X59153Y48346D01*
D02*
G37*
G36*
X31086Y43900D02*
X30914D01*
X30749Y43856D01*
X30601Y43770D01*
X30480Y43649D01*
X30394Y43501D01*
X30350Y43336D01*
Y43164D01*
X30394Y42999D01*
X30480Y42851D01*
X30601Y42730D01*
X30749Y42644D01*
X30914Y42600D01*
X31086D01*
X31251Y42644D01*
X31399Y42730D01*
X31520Y42851D01*
X31606Y42999D01*
X31650Y43164D01*
Y43336D01*
X31606Y43501D01*
X31520Y43649D01*
X31399Y43770D01*
X31251Y43856D01*
X31086Y43900D01*
D02*
G37*
G36*
X16336Y43400D02*
X16164D01*
X15999Y43356D01*
X15851Y43270D01*
X15730Y43149D01*
X15644Y43001D01*
X15600Y42836D01*
Y42664D01*
X15644Y42499D01*
X15730Y42351D01*
X15851Y42230D01*
X15999Y42144D01*
X16164Y42100D01*
X16336D01*
X16501Y42144D01*
X16649Y42230D01*
X16770Y42351D01*
X16856Y42499D01*
X16900Y42664D01*
Y42836D01*
X16856Y43001D01*
X16770Y43149D01*
X16649Y43270D01*
X16501Y43356D01*
X16336Y43400D01*
D02*
G37*
G36*
X14336D02*
X14164D01*
X13999Y43356D01*
X13851Y43270D01*
X13730Y43149D01*
X13644Y43001D01*
X13600Y42836D01*
Y42664D01*
X13644Y42499D01*
X13730Y42351D01*
X13851Y42230D01*
X13999Y42144D01*
X14164Y42100D01*
X14336D01*
X14501Y42144D01*
X14649Y42230D01*
X14770Y42351D01*
X14856Y42499D01*
X14900Y42664D01*
Y42836D01*
X14856Y43001D01*
X14770Y43149D01*
X14649Y43270D01*
X14501Y43356D01*
X14336Y43400D01*
D02*
G37*
G36*
X16336Y41650D02*
X16164D01*
X15999Y41606D01*
X15851Y41520D01*
X15730Y41399D01*
X15644Y41251D01*
X15600Y41086D01*
Y40914D01*
X15644Y40749D01*
X15730Y40601D01*
X15851Y40480D01*
X15999Y40394D01*
X16164Y40350D01*
X16336D01*
X16501Y40394D01*
X16649Y40480D01*
X16770Y40601D01*
X16856Y40749D01*
X16900Y40914D01*
Y41086D01*
X16856Y41251D01*
X16770Y41399D01*
X16649Y41520D01*
X16501Y41606D01*
X16336Y41650D01*
D02*
G37*
G36*
X5653Y42123D02*
X5347D01*
X5051Y42043D01*
X4786Y41890D01*
X4570Y41674D01*
X4417Y41409D01*
X4338Y41113D01*
Y40807D01*
X4417Y40511D01*
X4570Y40246D01*
X4786Y40030D01*
X5051Y39877D01*
X5347Y39798D01*
X5653D01*
X5949Y39877D01*
X6214Y40030D01*
X6430Y40246D01*
X6583Y40511D01*
X6662Y40807D01*
Y41113D01*
X6583Y41409D01*
X6430Y41674D01*
X6214Y41890D01*
X5949Y42043D01*
X5653Y42123D01*
D02*
G37*
G36*
X44086Y40400D02*
X43914D01*
X43749Y40356D01*
X43601Y40270D01*
X43480Y40149D01*
X43394Y40001D01*
X43350Y39836D01*
Y39664D01*
X43394Y39499D01*
X43480Y39351D01*
X43601Y39230D01*
X43749Y39144D01*
X43914Y39100D01*
X44086D01*
X44251Y39144D01*
X44399Y39230D01*
X44520Y39351D01*
X44606Y39499D01*
X44650Y39664D01*
Y39836D01*
X44606Y40001D01*
X44520Y40149D01*
X44399Y40270D01*
X44251Y40356D01*
X44086Y40400D01*
D02*
G37*
G36*
X39586D02*
X39414D01*
X39249Y40356D01*
X39101Y40270D01*
X38980Y40149D01*
X38894Y40001D01*
X38850Y39836D01*
Y39664D01*
X38894Y39499D01*
X38980Y39351D01*
X39101Y39230D01*
X39249Y39144D01*
X39414Y39100D01*
X39586D01*
X39751Y39144D01*
X39899Y39230D01*
X40020Y39351D01*
X40106Y39499D01*
X40150Y39664D01*
Y39836D01*
X40106Y40001D01*
X40020Y40149D01*
X39899Y40270D01*
X39751Y40356D01*
X39586Y40400D01*
D02*
G37*
G36*
X38086D02*
X37914D01*
X37749Y40356D01*
X37601Y40270D01*
X37480Y40149D01*
X37394Y40001D01*
X37350Y39836D01*
Y39664D01*
X37394Y39499D01*
X37480Y39351D01*
X37601Y39230D01*
X37749Y39144D01*
X37914Y39100D01*
X38086D01*
X38251Y39144D01*
X38399Y39230D01*
X38520Y39351D01*
X38606Y39499D01*
X38650Y39664D01*
Y39836D01*
X38606Y40001D01*
X38520Y40149D01*
X38399Y40270D01*
X38251Y40356D01*
X38086Y40400D01*
D02*
G37*
G36*
X59153Y39836D02*
X58847D01*
X58551Y39757D01*
X58286Y39604D01*
X58070Y39388D01*
X57917Y39123D01*
X57838Y38827D01*
Y38521D01*
X57917Y38225D01*
X58070Y37960D01*
X58286Y37744D01*
X58551Y37591D01*
X58847Y37512D01*
X59153D01*
X59449Y37591D01*
X59714Y37744D01*
X59930Y37960D01*
X60083Y38225D01*
X60162Y38521D01*
Y38827D01*
X60083Y39123D01*
X59930Y39388D01*
X59714Y39604D01*
X59449Y39757D01*
X59153Y39836D01*
D02*
G37*
G36*
X16086Y37400D02*
X15914D01*
X15749Y37356D01*
X15601Y37270D01*
X15500Y37169D01*
X15399Y37270D01*
X15251Y37356D01*
X15086Y37400D01*
X14914D01*
X14749Y37356D01*
X14601Y37270D01*
X14500Y37169D01*
X14399Y37270D01*
X14251Y37356D01*
X14086Y37400D01*
X13914D01*
X13749Y37356D01*
X13601Y37270D01*
X13500Y37169D01*
X13399Y37270D01*
X13251Y37356D01*
X13086Y37400D01*
X12914D01*
X12749Y37356D01*
X12601Y37270D01*
X12500Y37169D01*
X12399Y37270D01*
X12251Y37356D01*
X12086Y37400D01*
X11914D01*
X11749Y37356D01*
X11601Y37270D01*
X11480Y37149D01*
X11394Y37001D01*
X11350Y36836D01*
Y36664D01*
X11394Y36499D01*
X11480Y36351D01*
X11601Y36230D01*
X11749Y36144D01*
X11914Y36100D01*
X12086D01*
X12251Y36144D01*
X12399Y36230D01*
X12500Y36331D01*
X12601Y36230D01*
X12749Y36144D01*
X12914Y36100D01*
X13086D01*
X13251Y36144D01*
X13399Y36230D01*
X13500Y36331D01*
X13601Y36230D01*
X13749Y36144D01*
X13914Y36100D01*
X14086D01*
X14251Y36144D01*
X14399Y36230D01*
X14500Y36331D01*
X14601Y36230D01*
X14749Y36144D01*
X14914Y36100D01*
X15086D01*
X15251Y36144D01*
X15399Y36230D01*
X15500Y36331D01*
X15601Y36230D01*
X15749Y36144D01*
X15914Y36100D01*
X16086D01*
X16251Y36144D01*
X16399Y36230D01*
X16520Y36351D01*
X16606Y36499D01*
X16650Y36664D01*
Y36836D01*
X16606Y37001D01*
X16520Y37149D01*
X16399Y37270D01*
X16251Y37356D01*
X16086Y37400D01*
D02*
G37*
G36*
X34586Y36900D02*
X34414D01*
X34249Y36856D01*
X34101Y36770D01*
X34000Y36669D01*
X33899Y36770D01*
X33751Y36856D01*
X33586Y36900D01*
X33414D01*
X33249Y36856D01*
X33101Y36770D01*
X33000Y36669D01*
X32899Y36770D01*
X32751Y36856D01*
X32586Y36900D01*
X32414D01*
X32249Y36856D01*
X32101Y36770D01*
X31980Y36649D01*
X31894Y36501D01*
X31850Y36336D01*
Y36164D01*
X31894Y35999D01*
X31980Y35851D01*
X32101Y35730D01*
X32249Y35644D01*
X32414Y35600D01*
X32586D01*
X32751Y35644D01*
X32899Y35730D01*
X33000Y35831D01*
X33101Y35730D01*
X33249Y35644D01*
X33414Y35600D01*
X33586D01*
X33751Y35644D01*
X33899Y35730D01*
X34000Y35831D01*
X34101Y35730D01*
X34249Y35644D01*
X34414Y35600D01*
X34586D01*
X34751Y35644D01*
X34899Y35730D01*
X35020Y35851D01*
X35106Y35999D01*
X35150Y36164D01*
Y36336D01*
X35106Y36501D01*
X35020Y36649D01*
X34899Y36770D01*
X34751Y36856D01*
X34586Y36900D01*
D02*
G37*
G36*
X42586D02*
X42414D01*
X42249Y36856D01*
X42101Y36770D01*
X41980Y36649D01*
X41894Y36501D01*
X41850Y36336D01*
Y36164D01*
X41894Y35999D01*
X41980Y35851D01*
X42101Y35730D01*
X42249Y35644D01*
X42414Y35600D01*
X42586D01*
X42751Y35644D01*
X42899Y35730D01*
X43020Y35851D01*
X43106Y35999D01*
X43150Y36164D01*
Y36336D01*
X43106Y36501D01*
X43020Y36649D01*
X42899Y36770D01*
X42751Y36856D01*
X42586Y36900D01*
D02*
G37*
G36*
X38086D02*
X37914D01*
X37749Y36856D01*
X37601Y36770D01*
X37480Y36649D01*
X37394Y36501D01*
X37350Y36336D01*
Y36164D01*
X37394Y35999D01*
X37480Y35851D01*
X37601Y35730D01*
X37749Y35644D01*
X37914Y35600D01*
X38086D01*
X38251Y35644D01*
X38399Y35730D01*
X38520Y35851D01*
X38606Y35999D01*
X38650Y36164D01*
Y36336D01*
X38606Y36501D01*
X38520Y36649D01*
X38399Y36770D01*
X38251Y36856D01*
X38086Y36900D01*
D02*
G37*
G36*
X36586D02*
X36414D01*
X36249Y36856D01*
X36101Y36770D01*
X35980Y36649D01*
X35894Y36501D01*
X35850Y36336D01*
Y36164D01*
X35894Y35999D01*
X35980Y35851D01*
X36101Y35730D01*
X36249Y35644D01*
X36414Y35600D01*
X36586D01*
X36751Y35644D01*
X36899Y35730D01*
X37020Y35851D01*
X37106Y35999D01*
X37150Y36164D01*
Y36336D01*
X37106Y36501D01*
X37020Y36649D01*
X36899Y36770D01*
X36751Y36856D01*
X36586Y36900D01*
D02*
G37*
G36*
X59153Y37297D02*
X58847D01*
X58551Y37217D01*
X58286Y37064D01*
X58070Y36848D01*
X57917Y36583D01*
X57838Y36287D01*
Y35981D01*
X57917Y35685D01*
X58070Y35420D01*
X58286Y35204D01*
X58551Y35051D01*
X58847Y34972D01*
X59153D01*
X59449Y35051D01*
X59714Y35204D01*
X59930Y35420D01*
X60083Y35685D01*
X60162Y35981D01*
Y36287D01*
X60083Y36583D01*
X59930Y36848D01*
X59714Y37064D01*
X59449Y37217D01*
X59153Y37297D01*
D02*
G37*
G36*
X11579Y32644D02*
X11408D01*
X11243Y32599D01*
X11095Y32514D01*
X10974Y32393D01*
X10888Y32245D01*
X10844Y32079D01*
Y31908D01*
X10888Y31743D01*
X10974Y31595D01*
X11095Y31474D01*
X11243Y31388D01*
X11408Y31344D01*
X11579D01*
X11745Y31388D01*
X11893Y31474D01*
X12014Y31595D01*
X12099Y31743D01*
X12144Y31908D01*
Y32079D01*
X12099Y32245D01*
X12014Y32393D01*
X11893Y32514D01*
X11745Y32599D01*
X11579Y32644D01*
D02*
G37*
G36*
X40586Y32400D02*
X40414D01*
X40249Y32356D01*
X40101Y32270D01*
X39980Y32149D01*
X39894Y32001D01*
X39850Y31836D01*
Y31664D01*
X39894Y31499D01*
X39980Y31351D01*
X40101Y31230D01*
X40249Y31144D01*
X40414Y31100D01*
X40586D01*
X40751Y31144D01*
X40899Y31230D01*
X41020Y31351D01*
X41106Y31499D01*
X41150Y31664D01*
Y31836D01*
X41106Y32001D01*
X41020Y32149D01*
X40899Y32270D01*
X40751Y32356D01*
X40586Y32400D01*
D02*
G37*
G36*
X34836D02*
X34664D01*
X34499Y32356D01*
X34351Y32270D01*
X34230Y32149D01*
X34144Y32001D01*
X34100Y31836D01*
Y31664D01*
X34144Y31499D01*
X34230Y31351D01*
X34351Y31230D01*
X34499Y31144D01*
X34664Y31100D01*
X34836D01*
X35001Y31144D01*
X35149Y31230D01*
X35270Y31351D01*
X35356Y31499D01*
X35400Y31664D01*
Y31836D01*
X35356Y32001D01*
X35270Y32149D01*
X35149Y32270D01*
X35001Y32356D01*
X34836Y32400D01*
D02*
G37*
G36*
X29086D02*
X28914D01*
X28749Y32356D01*
X28601Y32270D01*
X28480Y32149D01*
X28394Y32001D01*
X28350Y31836D01*
Y31664D01*
X28394Y31499D01*
X28480Y31351D01*
X28601Y31230D01*
X28749Y31144D01*
X28914Y31100D01*
X29086D01*
X29251Y31144D01*
X29399Y31230D01*
X29520Y31351D01*
X29606Y31499D01*
X29650Y31664D01*
Y31836D01*
X29606Y32001D01*
X29520Y32149D01*
X29399Y32270D01*
X29251Y32356D01*
X29086Y32400D01*
D02*
G37*
G36*
X30579Y32394D02*
X30408D01*
X30243Y32349D01*
X30095Y32264D01*
X29974Y32143D01*
X29888Y31995D01*
X29844Y31829D01*
Y31658D01*
X29888Y31493D01*
X29974Y31345D01*
X30095Y31224D01*
X30243Y31138D01*
X30408Y31094D01*
X30579D01*
X30745Y31138D01*
X30893Y31224D01*
X31014Y31345D01*
X31099Y31493D01*
X31144Y31658D01*
Y31829D01*
X31099Y31995D01*
X31014Y32143D01*
X30893Y32264D01*
X30745Y32349D01*
X30579Y32394D01*
D02*
G37*
G36*
X5653Y33232D02*
X5347D01*
X5051Y33153D01*
X4786Y33000D01*
X4570Y32784D01*
X4417Y32519D01*
X4338Y32223D01*
Y31917D01*
X4417Y31621D01*
X4570Y31356D01*
X4786Y31140D01*
X5051Y30987D01*
X5347Y30907D01*
X5653D01*
X5949Y30987D01*
X6214Y31140D01*
X6430Y31356D01*
X6583Y31621D01*
X6662Y31917D01*
Y32223D01*
X6583Y32519D01*
X6430Y32784D01*
X6214Y33000D01*
X5949Y33153D01*
X5653Y33232D01*
D02*
G37*
G36*
X51421Y33050D02*
X51079D01*
X50748Y32961D01*
X50452Y32790D01*
X50210Y32548D01*
X50039Y32252D01*
X49950Y31921D01*
Y31579D01*
X50039Y31248D01*
X50210Y30952D01*
X50452Y30710D01*
X50748Y30539D01*
X51079Y30450D01*
X51421D01*
X51752Y30539D01*
X52048Y30710D01*
X52290Y30952D01*
X52461Y31248D01*
X52550Y31579D01*
Y31921D01*
X52461Y32252D01*
X52290Y32548D01*
X52048Y32790D01*
X51752Y32961D01*
X51421Y33050D01*
D02*
G37*
G36*
X44921D02*
X44579D01*
X44248Y32961D01*
X43952Y32790D01*
X43710Y32548D01*
X43539Y32252D01*
X43450Y31921D01*
Y31579D01*
X43539Y31248D01*
X43710Y30952D01*
X43952Y30710D01*
X44248Y30539D01*
X44579Y30450D01*
X44921D01*
X45252Y30539D01*
X45548Y30710D01*
X45790Y30952D01*
X45961Y31248D01*
X46050Y31579D01*
Y31921D01*
X45961Y32252D01*
X45790Y32548D01*
X45548Y32790D01*
X45252Y32961D01*
X44921Y33050D01*
D02*
G37*
G36*
X24086Y31650D02*
X23914D01*
X23749Y31606D01*
X23601Y31520D01*
X23480Y31399D01*
X23394Y31251D01*
X23350Y31086D01*
Y30914D01*
X23394Y30749D01*
X23480Y30601D01*
X23601Y30480D01*
X23749Y30394D01*
X23914Y30350D01*
X24086D01*
X24251Y30394D01*
X24399Y30480D01*
X24520Y30601D01*
X24606Y30749D01*
X24650Y30914D01*
Y31086D01*
X24606Y31251D01*
X24520Y31399D01*
X24399Y31520D01*
X24251Y31606D01*
X24086Y31650D01*
D02*
G37*
G36*
X59153Y31202D02*
X58847D01*
X58551Y31123D01*
X58286Y30970D01*
X58070Y30754D01*
X57917Y30489D01*
X57838Y30193D01*
Y29887D01*
X57917Y29591D01*
X58070Y29326D01*
X58286Y29110D01*
X58551Y28957D01*
X58847Y28878D01*
X59153D01*
X59449Y28957D01*
X59714Y29110D01*
X59930Y29326D01*
X60083Y29591D01*
X60162Y29887D01*
Y30193D01*
X60083Y30489D01*
X59930Y30754D01*
X59714Y30970D01*
X59449Y31123D01*
X59153Y31202D01*
D02*
G37*
G36*
X5653Y30692D02*
X5347D01*
X5051Y30613D01*
X4786Y30460D01*
X4570Y30244D01*
X4417Y29979D01*
X4338Y29683D01*
Y29377D01*
X4417Y29081D01*
X4570Y28816D01*
X4786Y28600D01*
X5051Y28447D01*
X5347Y28368D01*
X5653D01*
X5949Y28447D01*
X6214Y28600D01*
X6430Y28816D01*
X6583Y29081D01*
X6662Y29377D01*
Y29683D01*
X6583Y29979D01*
X6430Y30244D01*
X6214Y30460D01*
X5949Y30613D01*
X5653Y30692D01*
D02*
G37*
G36*
X15829Y28894D02*
X15658D01*
X15493Y28849D01*
X15345Y28764D01*
X15224Y28643D01*
X15138Y28495D01*
X15094Y28329D01*
Y28158D01*
X15138Y27993D01*
X15224Y27845D01*
X15345Y27724D01*
X15493Y27638D01*
X15658Y27594D01*
X15829D01*
X15995Y27638D01*
X16143Y27724D01*
X16264Y27845D01*
X16349Y27993D01*
X16394Y28158D01*
Y28329D01*
X16349Y28495D01*
X16264Y28643D01*
X16143Y28764D01*
X15995Y28849D01*
X15829Y28894D01*
D02*
G37*
G36*
X28586Y30400D02*
X28414D01*
X28249Y30356D01*
X28101Y30270D01*
X27980Y30149D01*
X27894Y30001D01*
X27850Y29836D01*
Y29664D01*
X27894Y29499D01*
X27980Y29351D01*
X28101Y29230D01*
X28249Y29144D01*
X28320Y29125D01*
X28394Y29002D01*
X28390Y28983D01*
X28350Y28836D01*
Y28664D01*
X28390Y28517D01*
X28394Y28498D01*
X28320Y28375D01*
X28249Y28356D01*
X28101Y28270D01*
X27980Y28149D01*
X27894Y28001D01*
X27850Y27836D01*
Y27664D01*
X27894Y27499D01*
X27980Y27351D01*
X28101Y27230D01*
X28249Y27144D01*
X28414Y27100D01*
X28586D01*
X28751Y27144D01*
X28899Y27230D01*
X29020Y27351D01*
X29106Y27499D01*
X29150Y27664D01*
Y27836D01*
X29110Y27983D01*
X29106Y28002D01*
X29180Y28125D01*
X29251Y28144D01*
X29399Y28230D01*
X29520Y28351D01*
X29606Y28499D01*
X29650Y28664D01*
Y28836D01*
X29606Y29001D01*
X29520Y29149D01*
X29399Y29270D01*
X29251Y29356D01*
X29180Y29375D01*
X29106Y29498D01*
X29110Y29517D01*
X29150Y29664D01*
Y29836D01*
X29106Y30001D01*
X29020Y30149D01*
X28899Y30270D01*
X28751Y30356D01*
X28586Y30400D01*
D02*
G37*
G36*
X36086Y29150D02*
X35914D01*
X35749Y29106D01*
X35601Y29020D01*
X35480Y28899D01*
X35394Y28751D01*
X35350Y28586D01*
Y28414D01*
X35394Y28249D01*
X35480Y28101D01*
X35581Y28000D01*
X35480Y27899D01*
X35394Y27751D01*
X35350Y27586D01*
Y27414D01*
X35394Y27249D01*
X35480Y27101D01*
X35601Y26980D01*
X35749Y26894D01*
X35914Y26850D01*
X36086D01*
X36251Y26894D01*
X36399Y26980D01*
X36520Y27101D01*
X36606Y27249D01*
X36650Y27414D01*
Y27586D01*
X36606Y27751D01*
X36520Y27899D01*
X36419Y28000D01*
X36520Y28101D01*
X36606Y28249D01*
X36650Y28414D01*
Y28586D01*
X36606Y28751D01*
X36520Y28899D01*
X36399Y29020D01*
X36251Y29106D01*
X36086Y29150D01*
D02*
G37*
G36*
X59153Y28663D02*
X58847D01*
X58551Y28583D01*
X58286Y28430D01*
X58070Y28214D01*
X57917Y27949D01*
X57838Y27653D01*
Y27347D01*
X57917Y27051D01*
X58070Y26786D01*
X58286Y26570D01*
X58551Y26417D01*
X58847Y26337D01*
X59153D01*
X59449Y26417D01*
X59714Y26570D01*
X59930Y26786D01*
X60083Y27051D01*
X60162Y27347D01*
Y27653D01*
X60083Y27949D01*
X59930Y28214D01*
X59714Y28430D01*
X59449Y28583D01*
X59153Y28663D01*
D02*
G37*
G36*
X28586Y26900D02*
X28414D01*
X28249Y26856D01*
X28101Y26770D01*
X27980Y26649D01*
X27894Y26501D01*
X27850Y26336D01*
Y26164D01*
X27894Y25999D01*
X27980Y25851D01*
X28101Y25730D01*
X28249Y25644D01*
X28414Y25600D01*
X28586D01*
X28751Y25644D01*
X28899Y25730D01*
X29020Y25851D01*
X29106Y25999D01*
X29150Y26164D01*
Y26336D01*
X29106Y26501D01*
X29020Y26649D01*
X28899Y26770D01*
X28751Y26856D01*
X28586Y26900D01*
D02*
G37*
G36*
X36086Y24900D02*
X35914D01*
X35749Y24856D01*
X35601Y24770D01*
X35480Y24649D01*
X35394Y24501D01*
X35350Y24336D01*
Y24164D01*
X35394Y23999D01*
X35480Y23851D01*
X35601Y23730D01*
X35749Y23644D01*
X35914Y23600D01*
X36086D01*
X36251Y23644D01*
X36399Y23730D01*
X36520Y23851D01*
X36606Y23999D01*
X36650Y24164D01*
Y24336D01*
X36606Y24501D01*
X36520Y24649D01*
X36399Y24770D01*
X36251Y24856D01*
X36086Y24900D01*
D02*
G37*
G36*
X33336D02*
X33164D01*
X32999Y24856D01*
X32851Y24770D01*
X32730Y24649D01*
X32644Y24501D01*
X32600Y24336D01*
Y24164D01*
X32644Y23999D01*
X32730Y23851D01*
X32851Y23730D01*
X32999Y23644D01*
X33164Y23600D01*
X33336D01*
X33501Y23644D01*
X33649Y23730D01*
X33770Y23851D01*
X33856Y23999D01*
X33900Y24164D01*
Y24336D01*
X33856Y24501D01*
X33770Y24649D01*
X33649Y24770D01*
X33501Y24856D01*
X33336Y24900D01*
D02*
G37*
G36*
X31836D02*
X31664D01*
X31499Y24856D01*
X31351Y24770D01*
X31230Y24649D01*
X31144Y24501D01*
X31100Y24336D01*
Y24164D01*
X31144Y23999D01*
X31230Y23851D01*
X31351Y23730D01*
X31499Y23644D01*
X31664Y23600D01*
X31836D01*
X32001Y23644D01*
X32149Y23730D01*
X32270Y23851D01*
X32356Y23999D01*
X32400Y24164D01*
Y24336D01*
X32356Y24501D01*
X32270Y24649D01*
X32149Y24770D01*
X32001Y24856D01*
X31836Y24900D01*
D02*
G37*
G36*
X29836D02*
X29664D01*
X29499Y24856D01*
X29351Y24770D01*
X29230Y24649D01*
X29144Y24501D01*
X29100Y24336D01*
Y24164D01*
X29144Y23999D01*
X29230Y23851D01*
X29351Y23730D01*
X29499Y23644D01*
X29664Y23600D01*
X29836D01*
X30001Y23644D01*
X30149Y23730D01*
X30270Y23851D01*
X30356Y23999D01*
X30400Y24164D01*
Y24336D01*
X30356Y24501D01*
X30270Y24649D01*
X30149Y24770D01*
X30001Y24856D01*
X29836Y24900D01*
D02*
G37*
G36*
X51421Y25050D02*
X51079D01*
X50748Y24961D01*
X50452Y24790D01*
X50210Y24548D01*
X50039Y24252D01*
X49950Y23921D01*
Y23579D01*
X50039Y23248D01*
X50210Y22952D01*
X50452Y22710D01*
X50748Y22539D01*
X51079Y22450D01*
X51421D01*
X51752Y22539D01*
X52048Y22710D01*
X52290Y22952D01*
X52461Y23248D01*
X52550Y23579D01*
Y23921D01*
X52461Y24252D01*
X52290Y24548D01*
X52048Y24790D01*
X51752Y24961D01*
X51421Y25050D01*
D02*
G37*
G36*
X44921D02*
X44579D01*
X44248Y24961D01*
X43952Y24790D01*
X43710Y24548D01*
X43539Y24252D01*
X43450Y23921D01*
Y23579D01*
X43539Y23248D01*
X43710Y22952D01*
X43952Y22710D01*
X44248Y22539D01*
X44579Y22450D01*
X44921D01*
X45252Y22539D01*
X45548Y22710D01*
X45790Y22952D01*
X45961Y23248D01*
X46050Y23579D01*
Y23921D01*
X45961Y24252D01*
X45790Y24548D01*
X45548Y24790D01*
X45252Y24961D01*
X44921Y25050D01*
D02*
G37*
G36*
X34336Y21900D02*
X34164D01*
X33999Y21856D01*
X33851Y21770D01*
X33730Y21649D01*
X33644Y21501D01*
X33600Y21336D01*
Y21164D01*
X33644Y20999D01*
X33730Y20851D01*
X33851Y20730D01*
X33999Y20644D01*
X34164Y20600D01*
X34336D01*
X34501Y20644D01*
X34649Y20730D01*
X34770Y20851D01*
X34856Y20999D01*
X34900Y21164D01*
Y21336D01*
X34856Y21501D01*
X34770Y21649D01*
X34649Y21770D01*
X34501Y21856D01*
X34336Y21900D01*
D02*
G37*
G36*
X22086Y20650D02*
X21915D01*
X21749Y20606D01*
X21601Y20520D01*
X21480Y20399D01*
X21394Y20251D01*
X21350Y20086D01*
Y19914D01*
X21394Y19749D01*
X21480Y19601D01*
X21601Y19480D01*
X21749Y19394D01*
X21915Y19350D01*
X22086D01*
X22251Y19394D01*
X22399Y19480D01*
X22520Y19601D01*
X22606Y19749D01*
X22650Y19914D01*
Y20086D01*
X22606Y20251D01*
X22520Y20399D01*
X22399Y20520D01*
X22251Y20606D01*
X22086Y20650D01*
D02*
G37*
G36*
X20086D02*
X19914D01*
X19749Y20606D01*
X19601Y20520D01*
X19480Y20399D01*
X19394Y20251D01*
X19350Y20086D01*
Y19914D01*
X19394Y19749D01*
X19480Y19601D01*
X19601Y19480D01*
X19749Y19394D01*
X19914Y19350D01*
X20086D01*
X20251Y19394D01*
X20399Y19480D01*
X20520Y19601D01*
X20606Y19749D01*
X20650Y19914D01*
Y20086D01*
X20606Y20251D01*
X20520Y20399D01*
X20399Y20520D01*
X20251Y20606D01*
X20086Y20650D01*
D02*
G37*
G36*
X18086D02*
X17915D01*
X17749Y20606D01*
X17601Y20520D01*
X17480Y20399D01*
X17394Y20251D01*
X17350Y20086D01*
Y19914D01*
X17394Y19749D01*
X17480Y19601D01*
X17601Y19480D01*
X17749Y19394D01*
X17915Y19350D01*
X18086D01*
X18251Y19394D01*
X18399Y19480D01*
X18520Y19601D01*
X18606Y19749D01*
X18650Y19914D01*
Y20086D01*
X18606Y20251D01*
X18520Y20399D01*
X18399Y20520D01*
X18251Y20606D01*
X18086Y20650D01*
D02*
G37*
G36*
X16086D02*
X15915D01*
X15749Y20606D01*
X15601Y20520D01*
X15480Y20399D01*
X15394Y20251D01*
X15350Y20086D01*
Y19914D01*
X15394Y19749D01*
X15480Y19601D01*
X15601Y19480D01*
X15749Y19394D01*
X15915Y19350D01*
X16086D01*
X16251Y19394D01*
X16399Y19480D01*
X16520Y19601D01*
X16606Y19749D01*
X16650Y19914D01*
Y20086D01*
X16606Y20251D01*
X16520Y20399D01*
X16399Y20520D01*
X16251Y20606D01*
X16086Y20650D01*
D02*
G37*
G36*
X14086D02*
X13915D01*
X13749Y20606D01*
X13601Y20520D01*
X13480Y20399D01*
X13394Y20251D01*
X13350Y20086D01*
Y19914D01*
X13394Y19749D01*
X13480Y19601D01*
X13601Y19480D01*
X13749Y19394D01*
X13915Y19350D01*
X14086D01*
X14251Y19394D01*
X14399Y19480D01*
X14520Y19601D01*
X14606Y19749D01*
X14650Y19914D01*
Y20086D01*
X14606Y20251D01*
X14520Y20399D01*
X14399Y20520D01*
X14251Y20606D01*
X14086Y20650D01*
D02*
G37*
G36*
X51421Y20550D02*
X51079D01*
X50748Y20461D01*
X50452Y20290D01*
X50210Y20048D01*
X50039Y19752D01*
X49950Y19421D01*
Y19079D01*
X50039Y18748D01*
X50210Y18452D01*
X50452Y18210D01*
X50748Y18039D01*
X51079Y17950D01*
X51421D01*
X51752Y18039D01*
X52048Y18210D01*
X52290Y18452D01*
X52461Y18748D01*
X52550Y19079D01*
Y19421D01*
X52461Y19752D01*
X52290Y20048D01*
X52048Y20290D01*
X51752Y20461D01*
X51421Y20550D01*
D02*
G37*
G36*
X44921D02*
X44579D01*
X44248Y20461D01*
X43952Y20290D01*
X43710Y20048D01*
X43539Y19752D01*
X43450Y19421D01*
Y19079D01*
X43539Y18748D01*
X43710Y18452D01*
X43952Y18210D01*
X44248Y18039D01*
X44579Y17950D01*
X44921D01*
X45252Y18039D01*
X45548Y18210D01*
X45790Y18452D01*
X45961Y18748D01*
X46050Y19079D01*
Y19421D01*
X45961Y19752D01*
X45790Y20048D01*
X45548Y20290D01*
X45252Y20461D01*
X44921Y20550D01*
D02*
G37*
G36*
X59153Y20163D02*
X58847D01*
X58551Y20083D01*
X58286Y19930D01*
X58070Y19714D01*
X57917Y19449D01*
X57838Y19153D01*
Y18847D01*
X57917Y18551D01*
X58070Y18286D01*
X58286Y18070D01*
X58551Y17917D01*
X58847Y17837D01*
X59153D01*
X59449Y17917D01*
X59714Y18070D01*
X59930Y18286D01*
X60083Y18551D01*
X60162Y18847D01*
Y19153D01*
X60083Y19449D01*
X59930Y19714D01*
X59714Y19930D01*
X59449Y20083D01*
X59153Y20163D01*
D02*
G37*
G36*
X53086Y18400D02*
X52914D01*
X52749Y18356D01*
X52601Y18270D01*
X52480Y18149D01*
X52394Y18001D01*
X52350Y17836D01*
Y17664D01*
X52394Y17499D01*
X52480Y17351D01*
X52601Y17230D01*
X52749Y17144D01*
X52914Y17100D01*
X53086D01*
X53251Y17144D01*
X53399Y17230D01*
X53520Y17351D01*
X53606Y17499D01*
X53650Y17664D01*
Y17836D01*
X53606Y18001D01*
X53520Y18149D01*
X53399Y18270D01*
X53251Y18356D01*
X53086Y18400D01*
D02*
G37*
G36*
X22086Y16650D02*
X21914D01*
X21749Y16606D01*
X21601Y16520D01*
X21480Y16399D01*
X21394Y16251D01*
X21350Y16086D01*
Y15914D01*
X21394Y15749D01*
X21480Y15601D01*
X21601Y15480D01*
X21749Y15394D01*
X21914Y15350D01*
X22086D01*
X22251Y15394D01*
X22399Y15480D01*
X22520Y15601D01*
X22606Y15749D01*
X22650Y15914D01*
Y16086D01*
X22606Y16251D01*
X22520Y16399D01*
X22399Y16520D01*
X22251Y16606D01*
X22086Y16650D01*
D02*
G37*
G36*
X20086D02*
X19914D01*
X19749Y16606D01*
X19601Y16520D01*
X19480Y16399D01*
X19394Y16251D01*
X19350Y16086D01*
Y15914D01*
X19394Y15749D01*
X19480Y15601D01*
X19601Y15480D01*
X19749Y15394D01*
X19914Y15350D01*
X20086D01*
X20251Y15394D01*
X20399Y15480D01*
X20520Y15601D01*
X20606Y15749D01*
X20650Y15914D01*
Y16086D01*
X20606Y16251D01*
X20520Y16399D01*
X20399Y16520D01*
X20251Y16606D01*
X20086Y16650D01*
D02*
G37*
G36*
X18086D02*
X17914D01*
X17749Y16606D01*
X17601Y16520D01*
X17480Y16399D01*
X17394Y16251D01*
X17350Y16086D01*
Y15914D01*
X17394Y15749D01*
X17480Y15601D01*
X17601Y15480D01*
X17749Y15394D01*
X17914Y15350D01*
X18086D01*
X18251Y15394D01*
X18399Y15480D01*
X18520Y15601D01*
X18606Y15749D01*
X18650Y15914D01*
Y16086D01*
X18606Y16251D01*
X18520Y16399D01*
X18399Y16520D01*
X18251Y16606D01*
X18086Y16650D01*
D02*
G37*
G36*
X16086D02*
X15914D01*
X15749Y16606D01*
X15601Y16520D01*
X15480Y16399D01*
X15394Y16251D01*
X15350Y16086D01*
Y15914D01*
X15394Y15749D01*
X15480Y15601D01*
X15601Y15480D01*
X15749Y15394D01*
X15914Y15350D01*
X16086D01*
X16251Y15394D01*
X16399Y15480D01*
X16520Y15601D01*
X16606Y15749D01*
X16650Y15914D01*
Y16086D01*
X16606Y16251D01*
X16520Y16399D01*
X16399Y16520D01*
X16251Y16606D01*
X16086Y16650D01*
D02*
G37*
G36*
X14086D02*
X13914D01*
X13749Y16606D01*
X13601Y16520D01*
X13480Y16399D01*
X13394Y16251D01*
X13350Y16086D01*
Y15914D01*
X13394Y15749D01*
X13480Y15601D01*
X13601Y15480D01*
X13749Y15394D01*
X13914Y15350D01*
X14086D01*
X14251Y15394D01*
X14399Y15480D01*
X14520Y15601D01*
X14606Y15749D01*
X14650Y15914D01*
Y16086D01*
X14606Y16251D01*
X14520Y16399D01*
X14399Y16520D01*
X14251Y16606D01*
X14086Y16650D01*
D02*
G37*
G36*
X59153Y17622D02*
X58847D01*
X58551Y17543D01*
X58286Y17390D01*
X58070Y17174D01*
X57917Y16909D01*
X57838Y16613D01*
Y16307D01*
X57917Y16011D01*
X58070Y15746D01*
X58286Y15530D01*
X58551Y15377D01*
X58847Y15297D01*
X59153D01*
X59449Y15377D01*
X59714Y15530D01*
X59930Y15746D01*
X60083Y16011D01*
X60162Y16307D01*
Y16613D01*
X60083Y16909D01*
X59930Y17174D01*
X59714Y17390D01*
X59449Y17543D01*
X59153Y17622D01*
D02*
G37*
G36*
X5671Y22110D02*
X5329D01*
X4998Y22021D01*
X4702Y21850D01*
X4460Y21608D01*
X4289Y21312D01*
X4200Y20981D01*
Y20639D01*
X4289Y20308D01*
X4460Y20012D01*
X4702Y19770D01*
X4981Y19608D01*
X4990Y19540D01*
X4981Y19472D01*
X4702Y19310D01*
X4460Y19068D01*
X4289Y18772D01*
X4200Y18441D01*
Y18099D01*
X4289Y17768D01*
X4460Y17472D01*
X4702Y17230D01*
X4981Y17068D01*
X4990Y17000D01*
X4981Y16932D01*
X4702Y16770D01*
X4460Y16528D01*
X4289Y16232D01*
X4200Y15901D01*
Y15559D01*
X4289Y15228D01*
X4460Y14932D01*
X4702Y14690D01*
X4981Y14528D01*
X4990Y14460D01*
X4981Y14392D01*
X4702Y14230D01*
X4460Y13988D01*
X4289Y13692D01*
X4200Y13361D01*
Y13019D01*
X4289Y12688D01*
X4460Y12392D01*
X4702Y12150D01*
X4981Y11988D01*
X4990Y11920D01*
X4981Y11852D01*
X4702Y11690D01*
X4460Y11448D01*
X4289Y11152D01*
X4200Y10821D01*
Y10479D01*
X4289Y10148D01*
X4460Y9852D01*
X4702Y9610D01*
X4998Y9439D01*
X5329Y9350D01*
X5671D01*
X6002Y9439D01*
X6298Y9610D01*
X6540Y9852D01*
X6711Y10148D01*
X6800Y10479D01*
Y10821D01*
X6711Y11152D01*
X6540Y11448D01*
X6298Y11690D01*
X6019Y11852D01*
X6010Y11920D01*
X6019Y11988D01*
X6298Y12150D01*
X6540Y12392D01*
X6711Y12688D01*
X6800Y13019D01*
Y13361D01*
X6711Y13692D01*
X6540Y13988D01*
X6298Y14230D01*
X6019Y14392D01*
X6010Y14460D01*
X6019Y14528D01*
X6298Y14690D01*
X6540Y14932D01*
X6711Y15228D01*
X6800Y15559D01*
Y15901D01*
X6711Y16232D01*
X6540Y16528D01*
X6298Y16770D01*
X6019Y16932D01*
X6010Y17000D01*
X6019Y17068D01*
X6298Y17230D01*
X6540Y17472D01*
X6711Y17768D01*
X6800Y18099D01*
Y18441D01*
X6711Y18772D01*
X6540Y19068D01*
X6298Y19310D01*
X6019Y19472D01*
X6010Y19540D01*
X6019Y19608D01*
X6298Y19770D01*
X6540Y20012D01*
X6711Y20308D01*
X6800Y20639D01*
Y20981D01*
X6711Y21312D01*
X6540Y21608D01*
X6298Y21850D01*
X6002Y22021D01*
X5671Y22110D01*
D02*
G37*
G36*
X51521Y6800D02*
X51179D01*
X50848Y6711D01*
X50552Y6540D01*
X50310Y6298D01*
X50148Y6019D01*
X50080Y6010D01*
X50012Y6019D01*
X49850Y6298D01*
X49608Y6540D01*
X49312Y6711D01*
X48981Y6800D01*
X48639D01*
X48308Y6711D01*
X48012Y6540D01*
X47770Y6298D01*
X47608Y6019D01*
X47540Y6010D01*
X47472Y6019D01*
X47310Y6298D01*
X47068Y6540D01*
X46772Y6711D01*
X46441Y6800D01*
X46099D01*
X45768Y6711D01*
X45472Y6540D01*
X45230Y6298D01*
X45068Y6019D01*
X45000Y6010D01*
X44932Y6019D01*
X44770Y6298D01*
X44528Y6540D01*
X44232Y6711D01*
X43901Y6800D01*
X43559D01*
X43228Y6711D01*
X42932Y6540D01*
X42690Y6298D01*
X42528Y6019D01*
X42460Y6010D01*
X42392Y6019D01*
X42230Y6298D01*
X41988Y6540D01*
X41692Y6711D01*
X41361Y6800D01*
X41019D01*
X40688Y6711D01*
X40392Y6540D01*
X40150Y6298D01*
X39988Y6019D01*
X39920Y6010D01*
X39852Y6019D01*
X39690Y6298D01*
X39448Y6540D01*
X39152Y6711D01*
X38821Y6800D01*
X38479D01*
X38148Y6711D01*
X37852Y6540D01*
X37610Y6298D01*
X37439Y6002D01*
X37350Y5671D01*
Y5329D01*
X37439Y4998D01*
X37610Y4702D01*
X37852Y4460D01*
X38148Y4289D01*
X38479Y4200D01*
X38821D01*
X39152Y4289D01*
X39448Y4460D01*
X39690Y4702D01*
X39852Y4981D01*
X39920Y4990D01*
X39988Y4981D01*
X40150Y4702D01*
X40392Y4460D01*
X40688Y4289D01*
X41019Y4200D01*
X41361D01*
X41692Y4289D01*
X41988Y4460D01*
X42230Y4702D01*
X42392Y4981D01*
X42460Y4990D01*
X42528Y4981D01*
X42690Y4702D01*
X42932Y4460D01*
X43228Y4289D01*
X43559Y4200D01*
X43901D01*
X44232Y4289D01*
X44528Y4460D01*
X44770Y4702D01*
X44932Y4981D01*
X45000Y4990D01*
X45068Y4981D01*
X45230Y4702D01*
X45472Y4460D01*
X45768Y4289D01*
X46099Y4200D01*
X46441D01*
X46772Y4289D01*
X47068Y4460D01*
X47310Y4702D01*
X47472Y4981D01*
X47540Y4990D01*
X47608Y4981D01*
X47770Y4702D01*
X48012Y4460D01*
X48308Y4289D01*
X48639Y4200D01*
X48981D01*
X49312Y4289D01*
X49608Y4460D01*
X49850Y4702D01*
X50012Y4981D01*
X50080Y4990D01*
X50148Y4981D01*
X50310Y4702D01*
X50552Y4460D01*
X50848Y4289D01*
X51179Y4200D01*
X51521D01*
X51852Y4289D01*
X52148Y4460D01*
X52390Y4702D01*
X52561Y4998D01*
X52650Y5329D01*
Y5671D01*
X52561Y6002D01*
X52390Y6298D01*
X52148Y6540D01*
X51852Y6711D01*
X51521Y6800D01*
D02*
G37*
G36*
X21463Y6662D02*
X21157D01*
X20861Y6583D01*
X20596Y6430D01*
X20380Y6214D01*
X20227Y5949D01*
X20147Y5653D01*
Y5347D01*
X20227Y5051D01*
X20380Y4786D01*
X20596Y4570D01*
X20861Y4417D01*
X21157Y4338D01*
X21463D01*
X21759Y4417D01*
X22024Y4570D01*
X22240Y4786D01*
X22393Y5051D01*
X22472Y5347D01*
Y5653D01*
X22393Y5949D01*
X22240Y6214D01*
X22024Y6430D01*
X21759Y6583D01*
X21463Y6662D01*
D02*
G37*
G36*
X18923D02*
X18617D01*
X18321Y6583D01*
X18056Y6430D01*
X17840Y6214D01*
X17687Y5949D01*
X17608Y5653D01*
Y5347D01*
X17687Y5051D01*
X17840Y4786D01*
X18056Y4570D01*
X18321Y4417D01*
X18617Y4338D01*
X18923D01*
X19219Y4417D01*
X19484Y4570D01*
X19700Y4786D01*
X19853Y5051D01*
X19933Y5347D01*
Y5653D01*
X19853Y5949D01*
X19700Y6214D01*
X19484Y6430D01*
X19219Y6583D01*
X18923Y6662D01*
D02*
G37*
G36*
X16383D02*
X16077D01*
X15781Y6583D01*
X15516Y6430D01*
X15300Y6214D01*
X15147Y5949D01*
X15068Y5653D01*
Y5347D01*
X15147Y5051D01*
X15300Y4786D01*
X15516Y4570D01*
X15781Y4417D01*
X16077Y4338D01*
X16383D01*
X16679Y4417D01*
X16944Y4570D01*
X17160Y4786D01*
X17313Y5051D01*
X17392Y5347D01*
Y5653D01*
X17313Y5949D01*
X17160Y6214D01*
X16944Y6430D01*
X16679Y6583D01*
X16383Y6662D01*
D02*
G37*
G36*
X60260Y7800D02*
X59740D01*
X59227Y7719D01*
X58733Y7558D01*
X58270Y7322D01*
X57850Y7017D01*
X57483Y6650D01*
X57178Y6230D01*
X56942Y5767D01*
X56781Y5273D01*
X56700Y4760D01*
Y4240D01*
X56781Y3727D01*
X56942Y3233D01*
X57178Y2770D01*
X57483Y2350D01*
X57850Y1983D01*
X58270Y1678D01*
X58733Y1442D01*
X59227Y1281D01*
X59740Y1200D01*
X60260D01*
X60773Y1281D01*
X61267Y1442D01*
X61730Y1678D01*
X62150Y1983D01*
X62517Y2350D01*
X62822Y2770D01*
X63058Y3233D01*
X63219Y3727D01*
X63300Y4240D01*
Y4760D01*
X63219Y5273D01*
X63058Y5767D01*
X62822Y6230D01*
X62517Y6650D01*
X62150Y7017D01*
X61730Y7322D01*
X61267Y7558D01*
X60773Y7719D01*
X60260Y7800D01*
D02*
G37*
G36*
X4760D02*
X4240D01*
X3727Y7719D01*
X3233Y7558D01*
X2770Y7322D01*
X2350Y7017D01*
X1983Y6650D01*
X1678Y6230D01*
X1442Y5767D01*
X1281Y5273D01*
X1200Y4760D01*
Y4240D01*
X1281Y3727D01*
X1442Y3233D01*
X1678Y2770D01*
X1983Y2350D01*
X2350Y1983D01*
X2770Y1678D01*
X3233Y1442D01*
X3727Y1281D01*
X4240Y1200D01*
X4760D01*
X5273Y1281D01*
X5767Y1442D01*
X6230Y1678D01*
X6650Y1983D01*
X7017Y2350D01*
X7322Y2770D01*
X7558Y3233D01*
X7719Y3727D01*
X7800Y4240D01*
Y4760D01*
X7719Y5273D01*
X7558Y5767D01*
X7322Y6230D01*
X7017Y6650D01*
X6650Y7017D01*
X6230Y7322D01*
X5767Y7558D01*
X5273Y7719D01*
X4760Y7800D01*
D02*
G37*
%LPD*%
D25*
X4500Y63500D02*
D03*
X60000Y4500D02*
D03*
X4500D02*
D03*
X60000Y63000D02*
D03*
D26*
X59000Y30040D02*
D03*
Y27500D02*
D03*
Y24960D02*
D03*
X5500Y40960D02*
D03*
Y43500D02*
D03*
X13690Y5500D02*
D03*
X16230D02*
D03*
X18770D02*
D03*
X21310D02*
D03*
X59000Y47183D02*
D03*
Y49723D02*
D03*
Y52263D02*
D03*
Y36134D02*
D03*
Y38674D02*
D03*
Y41214D02*
D03*
Y13920D02*
D03*
Y16460D02*
D03*
Y19000D02*
D03*
X5500Y34610D02*
D03*
Y32070D02*
D03*
Y29530D02*
D03*
D27*
X54326Y59920D02*
D03*
X45686D02*
D03*
D28*
X54326Y64970D02*
D03*
X45686D02*
D03*
D29*
X46406Y61855D02*
D03*
X53606Y61920D02*
D03*
D30*
X51250Y27250D02*
D03*
X44750D02*
D03*
X51250Y31750D02*
D03*
X44750D02*
D03*
X51250Y19250D02*
D03*
X44750D02*
D03*
X51250Y23750D02*
D03*
X44750D02*
D03*
X5500Y10650D02*
D03*
Y13190D02*
D03*
Y15730D02*
D03*
Y18270D02*
D03*
Y20810D02*
D03*
Y23350D02*
D03*
X51350Y5500D02*
D03*
X48810D02*
D03*
X46270D02*
D03*
X43730D02*
D03*
X41190D02*
D03*
X38650D02*
D03*
D31*
X36630Y62080D02*
D03*
X39170D02*
D03*
X36630Y59540D02*
D03*
X39170D02*
D03*
X36630Y57000D02*
D03*
X39170D02*
D03*
X36630Y54460D02*
D03*
X39170D02*
D03*
X36630Y51920D02*
D03*
X39170D02*
D03*
X24630Y62080D02*
D03*
X27170D02*
D03*
X24630Y59540D02*
D03*
X27170D02*
D03*
X24630Y57000D02*
D03*
X27170D02*
D03*
X24630Y54460D02*
D03*
X27170D02*
D03*
X24630Y51920D02*
D03*
X27170D02*
D03*
X12630Y62080D02*
D03*
X15170D02*
D03*
X12630Y59540D02*
D03*
X15170D02*
D03*
X12630Y57000D02*
D03*
X15170D02*
D03*
X12630Y54460D02*
D03*
X15170D02*
D03*
X12630Y51920D02*
D03*
X15170D02*
D03*
D32*
X31000Y43250D02*
D03*
X53000Y17750D02*
D03*
X34750Y31750D02*
D03*
X29000D02*
D03*
X30494Y31744D02*
D03*
X11494Y31994D02*
D03*
X15744Y28244D02*
D03*
X14250Y42750D02*
D03*
X16250D02*
D03*
Y41000D02*
D03*
X40750Y65675D02*
D03*
X28750D02*
D03*
X16750D02*
D03*
X46800Y20875D02*
D03*
X42750Y23000D02*
D03*
X30000Y16900D02*
D03*
X35250Y14150D02*
D03*
X20000Y45250D02*
D03*
X9738Y45013D02*
D03*
X60000Y55750D02*
D03*
X47750Y62250D02*
D03*
X23500Y15000D02*
D03*
X28500Y29750D02*
D03*
Y27750D02*
D03*
Y26250D02*
D03*
X29750Y24250D02*
D03*
X36000Y27500D02*
D03*
Y28500D02*
D03*
X31750Y24250D02*
D03*
X33250D02*
D03*
X36000D02*
D03*
X12000Y36750D02*
D03*
X29000Y28750D02*
D03*
X14000Y36750D02*
D03*
X13000D02*
D03*
X15000D02*
D03*
X16000D02*
D03*
X24000Y31000D02*
D03*
X32250Y29000D02*
D03*
X32250Y27000D02*
D03*
X32250Y28000D02*
D03*
X33500Y36250D02*
D03*
X34500D02*
D03*
X23000Y36500D02*
D03*
X27000Y43250D02*
D03*
X53250Y57500D02*
D03*
X47250D02*
D03*
X52250Y53250D02*
D03*
X48750Y66000D02*
D03*
X52250Y57500D02*
D03*
X48750Y62250D02*
D03*
X49750D02*
D03*
X50750D02*
D03*
X50500Y57500D02*
D03*
X49500D02*
D03*
X49250Y53250D02*
D03*
X50750D02*
D03*
X32500Y39750D02*
D03*
X44000D02*
D03*
X39500D02*
D03*
X38000D02*
D03*
X36500D02*
D03*
X44000Y36250D02*
D03*
X42500D02*
D03*
X39500D02*
D03*
X38000D02*
D03*
X36500D02*
D03*
X32500D02*
D03*
X40500Y31750D02*
D03*
X34250Y21250D02*
D03*
X22000Y20000D02*
D03*
X20000D02*
D03*
X18000D02*
D03*
X16000D02*
D03*
X14000D02*
D03*
X14000Y16000D02*
D03*
X16000D02*
D03*
X18000D02*
D03*
X20000D02*
D03*
X22000D02*
D03*
%TF.MD5,65722e1f1363d48ae0dacbb0f50d97b0*%
M02*
