%TF.GenerationSoftware,Altium Limited,Altium Designer,25.2.1 (25)*%
G04 Layer_Color=6809061*
%FSLAX43Y43*%
%MOMM*%
%TF.SameCoordinates,383C1AB2-B6DC-4F99-AD1F-0000B79E000F*%
%TF.FilePolarity,Positive*%
%TF.FileFunction,Legend,Bot*%
%TF.Part,Single*%
G01*
G75*
%TA.AperFunction,NonConductor*%
%ADD34C,0.300*%
%ADD37C,0.254*%
%ADD38C,0.200*%
%ADD39C,0.250*%
G36*
X32386Y10432D02*
X34295D01*
Y9478D01*
X34294D01*
Y9477D01*
X33341D01*
Y8523D01*
X34294D01*
Y8521D01*
X34295D01*
Y7568D01*
X35250D01*
Y5659D01*
X34295D01*
Y6614D01*
X33342D01*
Y6615D01*
X33341D01*
Y7568D01*
X32386D01*
Y6615D01*
X32385D01*
Y6614D01*
X31432D01*
Y7568D01*
X28568D01*
Y6614D01*
X29522D01*
Y6612D01*
X29523D01*
Y5659D01*
X28568D01*
Y6614D01*
X27615D01*
Y6615D01*
X27614D01*
Y7568D01*
X26659D01*
Y6615D01*
X26658D01*
Y6614D01*
X25705D01*
Y5659D01*
X24750D01*
Y7568D01*
X25705D01*
Y8521D01*
X25706D01*
Y8523D01*
X26659D01*
Y9477D01*
X25706D01*
Y9478D01*
X25705D01*
Y10432D01*
X24750D01*
Y11118D01*
Y11119D01*
Y11386D01*
X25703D01*
Y11385D01*
X25705D01*
Y10432D01*
X27614D01*
Y8523D01*
X28568D01*
Y10432D01*
X27614D01*
Y12341D01*
X28568D01*
Y11386D01*
X31432D01*
Y12341D01*
X32386D01*
Y10432D01*
D02*
G37*
G36*
X35250D02*
X34295D01*
Y10725D01*
Y10726D01*
Y11385D01*
X34297D01*
Y11386D01*
X35250D01*
Y10432D01*
D02*
G37*
G36*
X31432Y6539D02*
Y6538D01*
Y5659D01*
X30477D01*
Y6612D01*
X30478D01*
Y6614D01*
X31432D01*
Y6539D01*
D02*
G37*
%LPC*%
G36*
X32386Y10432D02*
X31432D01*
Y8523D01*
X32386D01*
Y10432D01*
D02*
G37*
%LPD*%
D34*
X33599Y57400D02*
X33799Y57600D01*
X34199D01*
X34399Y57400D01*
Y57200D01*
X34199Y57000D01*
X33799D01*
X33599Y56800D01*
Y56600D01*
X33799Y56400D01*
X34199D01*
X34399Y56600D01*
X33200Y57600D02*
X32800D01*
X33000D01*
Y56400D01*
X33200D01*
X32800D01*
X31400Y57400D02*
X31600Y57600D01*
X32000D01*
X32200Y57400D01*
Y56600D01*
X32000Y56400D01*
X31600D01*
X31400Y56600D01*
Y57000D01*
X31800D01*
X29801Y56400D02*
X29401D01*
X29601D01*
Y57600D01*
X29801Y57400D01*
X33799Y54860D02*
X33999Y55060D01*
X34399D01*
X34599Y54860D01*
Y54660D01*
X34399Y54460D01*
X33999D01*
X33799Y54260D01*
Y54060D01*
X33999Y53860D01*
X34399D01*
X34599Y54060D01*
X33400Y55060D02*
X33000D01*
X33200D01*
Y53860D01*
X33400D01*
X33000D01*
X31600Y54860D02*
X31800Y55060D01*
X32200D01*
X32400Y54860D01*
Y54060D01*
X32200Y53860D01*
X31800D01*
X31600Y54060D01*
Y54460D01*
X32000D01*
X29201Y53860D02*
X30001D01*
X29201Y54660D01*
Y54860D01*
X29401Y55060D01*
X29801D01*
X30001Y54860D01*
X21799D02*
X21999Y55060D01*
X22399D01*
X22599Y54860D01*
Y54660D01*
X22399Y54460D01*
X21999D01*
X21799Y54260D01*
Y54060D01*
X21999Y53860D01*
X22399D01*
X22599Y54060D01*
X21400Y55060D02*
X21000D01*
X21200D01*
Y53860D01*
X21400D01*
X21000D01*
X19600Y54860D02*
X19800Y55060D01*
X20200D01*
X20400Y54860D01*
Y54060D01*
X20200Y53860D01*
X19800D01*
X19600Y54060D01*
Y54460D01*
X20000D01*
X17201Y53860D02*
X18001D01*
X17201Y54660D01*
Y54860D01*
X17401Y55060D01*
X17801D01*
X18001Y54860D01*
X21599Y57400D02*
X21799Y57600D01*
X22199D01*
X22399Y57400D01*
Y57200D01*
X22199Y57000D01*
X21799D01*
X21599Y56800D01*
Y56600D01*
X21799Y56400D01*
X22199D01*
X22399Y56600D01*
X21200Y57600D02*
X20800D01*
X21000D01*
Y56400D01*
X21200D01*
X20800D01*
X19400Y57400D02*
X19600Y57600D01*
X20000D01*
X20200Y57400D01*
Y56600D01*
X20000Y56400D01*
X19600D01*
X19400Y56600D01*
Y57000D01*
X19800D01*
X17801Y56400D02*
X17401D01*
X17601D01*
Y57600D01*
X17801Y57400D01*
X33499Y58940D02*
Y60140D01*
X32900D01*
X32700Y59940D01*
Y59540D01*
X32900Y59340D01*
X33499D01*
X32300Y60140D02*
Y58940D01*
X31900Y59340D01*
X31500Y58940D01*
Y60140D01*
X31100Y58940D02*
Y60140D01*
X30700Y59740D01*
X30301Y60140D01*
Y58940D01*
X21499D02*
Y60140D01*
X20900D01*
X20700Y59940D01*
Y59540D01*
X20900Y59340D01*
X21499D01*
X20300Y60140D02*
Y58940D01*
X19900Y59340D01*
X19500Y58940D01*
Y60140D01*
X19100Y58940D02*
Y60140D01*
X18700Y59740D01*
X18301Y60140D01*
Y58940D01*
X20700Y52320D02*
X20900Y52520D01*
X21300D01*
X21499Y52320D01*
Y51520D01*
X21300Y51320D01*
X20900D01*
X20700Y51520D01*
Y51920D01*
X21100D01*
X20300Y51320D02*
Y52520D01*
X19500Y51320D01*
Y52520D01*
X19100D02*
Y51320D01*
X18500D01*
X18301Y51520D01*
Y52320D01*
X18500Y52520D01*
X19100D01*
X32700Y52320D02*
X32900Y52520D01*
X33300D01*
X33499Y52320D01*
Y51520D01*
X33300Y51320D01*
X32900D01*
X32700Y51520D01*
Y51920D01*
X33100D01*
X32300Y51320D02*
Y52520D01*
X31500Y51320D01*
Y52520D01*
X31100D02*
Y51320D01*
X30500D01*
X30301Y51520D01*
Y52320D01*
X30500Y52520D01*
X31100D01*
X33499Y62080D02*
X32700D01*
X33100Y62480D02*
Y61680D01*
X31500Y62680D02*
X32300D01*
Y62080D01*
X31900Y62280D01*
X31700D01*
X31500Y62080D01*
Y61680D01*
X31700Y61480D01*
X32100D01*
X32300Y61680D01*
X31100Y62680D02*
Y61880D01*
X30700Y61480D01*
X30301Y61880D01*
Y62680D01*
X21499Y62080D02*
X20700D01*
X21100Y62480D02*
Y61680D01*
X19500Y62680D02*
X20300D01*
Y62080D01*
X19900Y62280D01*
X19700D01*
X19500Y62080D01*
Y61680D01*
X19700Y61480D01*
X20100D01*
X20300Y61680D01*
X19100Y62680D02*
Y61880D01*
X18700Y61480D01*
X18301Y61880D01*
Y62680D01*
X7399Y37500D02*
X7000D01*
X7199D01*
Y36300D01*
X7399D01*
X7000D01*
X5600D02*
X6400D01*
X5600Y37100D01*
Y37300D01*
X5800Y37500D01*
X6200D01*
X6400Y37300D01*
X4400D02*
X4600Y37500D01*
X5000D01*
X5200Y37300D01*
Y36500D01*
X5000Y36300D01*
X4600D01*
X4400Y36500D01*
X4000Y36300D02*
X3601D01*
X3801D01*
Y37500D01*
X4000Y37300D01*
X6100Y45300D02*
X4900D01*
Y45900D01*
X5100Y46100D01*
X5300D01*
X5500Y45900D01*
Y45300D01*
Y45900D01*
X5700Y46100D01*
X5900D01*
X6100Y45900D01*
Y45300D01*
Y46500D02*
X5100D01*
X4900Y46700D01*
Y47099D01*
X5100Y47299D01*
X6100D01*
Y47699D02*
Y48499D01*
X5900D01*
X5100Y47699D01*
X4900D01*
Y48499D01*
X6100Y48899D02*
Y49699D01*
X5900D01*
X5100Y48899D01*
X4900D01*
Y49699D01*
X6100Y50898D02*
Y50098D01*
X4900D01*
Y50898D01*
X5500Y50098D02*
Y50498D01*
X4900Y51298D02*
X6100D01*
Y51898D01*
X5900Y52098D01*
X5500D01*
X5300Y51898D01*
Y51298D01*
Y51698D02*
X4900Y52098D01*
X8500Y15001D02*
X8700Y14801D01*
Y14401D01*
X8500Y14201D01*
X8300D01*
X8100Y14401D01*
Y14801D01*
X7900Y15001D01*
X7700D01*
X7500Y14801D01*
Y14401D01*
X7700Y14201D01*
X8700Y16200D02*
Y15401D01*
X7500D01*
Y16200D01*
X8100Y15401D02*
Y15800D01*
X7500Y16600D02*
X8700D01*
Y17200D01*
X8500Y17400D01*
X8100D01*
X7900Y17200D01*
Y16600D01*
Y17000D02*
X7500Y17400D01*
X8700Y17800D02*
X7900D01*
X7500Y18200D01*
X7900Y18599D01*
X8700D01*
Y19599D02*
Y19199D01*
X8500Y18999D01*
X7700D01*
X7500Y19199D01*
Y19599D01*
X7700Y19799D01*
X8500D01*
X8700Y19599D01*
X20299Y2500D02*
Y3700D01*
X19699D01*
X19499Y3500D01*
Y3100D01*
X19699Y2900D01*
X20299D01*
X18500Y3700D02*
X18900D01*
X19099Y3500D01*
Y2700D01*
X18900Y2500D01*
X18500D01*
X18300Y2700D01*
Y3500D01*
X18500Y3700D01*
X17900D02*
Y2500D01*
X17500Y2900D01*
X17100Y2500D01*
Y3700D01*
X15901D02*
X16700D01*
Y2500D01*
X15901D01*
X16700Y3100D02*
X16300D01*
X15501Y2500D02*
Y3700D01*
X14901D01*
X14701Y3500D01*
Y3100D01*
X14901Y2900D01*
X15501D01*
X15101D02*
X14701Y2500D01*
X46599D02*
Y3300D01*
X46000D01*
X45800Y3100D01*
Y2500D01*
X45400D02*
Y3700D01*
X44800D01*
X44600Y3500D01*
Y3100D01*
X44800Y2900D01*
X45400D01*
X45000D02*
X44600Y2500D01*
X43401Y3700D02*
X44200D01*
Y3100D01*
X43800D01*
X44200D01*
Y2500D01*
X61859Y12625D02*
X61459D01*
X61659D01*
Y11425D01*
X61859D01*
X61459D01*
X60060D02*
X60860D01*
X60060Y12225D01*
Y12425D01*
X60260Y12625D01*
X60660D01*
X60860Y12425D01*
X58860D02*
X59060Y12625D01*
X59460D01*
X59660Y12425D01*
Y11625D01*
X59460Y11425D01*
X59060D01*
X58860Y11625D01*
X58460Y12425D02*
X58260Y12625D01*
X57861D01*
X57661Y12425D01*
Y11625D01*
X57861Y11425D01*
X58260D01*
X58460Y11625D01*
Y12425D01*
X56000Y24701D02*
X57200D01*
Y25301D01*
X57000Y25501D01*
X56600D01*
X56400Y25301D01*
Y24701D01*
Y25101D02*
X56000Y25501D01*
X57200Y26700D02*
Y25901D01*
X56000D01*
Y26700D01*
X56600Y25901D02*
Y26300D01*
X57200Y27100D02*
X56000D01*
Y27900D01*
Y28300D02*
X56800D01*
X57200Y28700D01*
X56800Y29099D01*
X56000D01*
X56600D01*
Y28300D01*
X57200Y29499D02*
X57000D01*
X56600Y29899D01*
X57000Y30299D01*
X57200D01*
X56600Y29899D02*
X56000D01*
X57200Y36075D02*
X56200D01*
X56000Y36275D01*
Y36675D01*
X56200Y36875D01*
X57200D01*
X56000Y37274D02*
X56800D01*
X57200Y37674D01*
X56800Y38074D01*
X56000D01*
X56600D01*
Y37274D01*
X56000Y38474D02*
X57200D01*
Y39074D01*
X57000Y39274D01*
X56600D01*
X56400Y39074D01*
Y38474D01*
Y38874D02*
X56000Y39274D01*
X57200Y39674D02*
Y40473D01*
Y40074D01*
X56000D01*
Y40873D02*
Y41273D01*
Y41073D01*
X57200D01*
X57000Y40873D01*
X57200Y46924D02*
X56200D01*
X56000Y47124D01*
Y47524D01*
X56200Y47724D01*
X57200D01*
X56000Y48124D02*
X56800D01*
X57200Y48523D01*
X56800Y48923D01*
X56000D01*
X56600D01*
Y48124D01*
X56000Y49323D02*
X57200D01*
Y49923D01*
X57000Y50123D01*
X56600D01*
X56400Y49923D01*
Y49323D01*
Y49723D02*
X56000Y50123D01*
X57200Y50523D02*
Y51322D01*
Y50923D01*
X56000D01*
X57000Y51722D02*
X57200Y51922D01*
Y52322D01*
X57000Y52522D01*
X56200D01*
X56000Y52322D01*
Y51922D01*
X56200Y51722D01*
X57000D01*
X3150Y13590D02*
X3350Y13790D01*
X3750D01*
X3950Y13590D01*
Y13390D01*
X3750Y13190D01*
X3350D01*
X3150Y12990D01*
Y12790D01*
X3350Y12590D01*
X3750D01*
X3950Y12790D01*
X1951Y12590D02*
X2750D01*
X1951Y13390D01*
Y13590D01*
X2151Y13790D01*
X2550D01*
X2750Y13590D01*
X3150Y11050D02*
X3350Y11250D01*
X3750D01*
X3950Y11050D01*
Y10850D01*
X3750Y10650D01*
X3350D01*
X3150Y10450D01*
Y10250D01*
X3350Y10050D01*
X3750D01*
X3950Y10250D01*
X2750Y10050D02*
X2351D01*
X2550D01*
Y11250D01*
X2750Y11050D01*
X3150Y18670D02*
X3350Y18870D01*
X3750D01*
X3950Y18670D01*
Y18470D01*
X3750Y18270D01*
X3350D01*
X3150Y18070D01*
Y17870D01*
X3350Y17670D01*
X3750D01*
X3950Y17870D01*
X2151Y17670D02*
Y18870D01*
X2750Y18270D01*
X1951D01*
X3150Y16130D02*
X3350Y16330D01*
X3750D01*
X3950Y16130D01*
Y15930D01*
X3750Y15730D01*
X3350D01*
X3150Y15530D01*
Y15330D01*
X3350Y15130D01*
X3750D01*
X3950Y15330D01*
X2750Y16130D02*
X2550Y16330D01*
X2151D01*
X1951Y16130D01*
Y15930D01*
X2151Y15730D01*
X2351D01*
X2151D01*
X1951Y15530D01*
Y15330D01*
X2151Y15130D01*
X2550D01*
X2750Y15330D01*
X3950Y21210D02*
X3750Y21410D01*
X3350D01*
X3150Y21210D01*
Y21010D01*
X3350Y20810D01*
X3550D01*
X3350D01*
X3150Y20610D01*
Y20410D01*
X3350Y20210D01*
X3750D01*
X3950Y20410D01*
X2750Y21410D02*
Y20610D01*
X2351Y20210D01*
X1951Y20610D01*
Y21410D01*
X1551Y21210D02*
X1351Y21410D01*
X951D01*
X751Y21210D01*
Y21010D01*
X951Y20810D01*
X1151D01*
X951D01*
X751Y20610D01*
Y20410D01*
X951Y20210D01*
X1351D01*
X1551Y20410D01*
X3150Y23750D02*
X3350Y23950D01*
X3750D01*
X3950Y23750D01*
Y22950D01*
X3750Y22750D01*
X3350D01*
X3150Y22950D01*
Y23350D01*
X3550D01*
X2750Y22750D02*
Y23950D01*
X1951Y22750D01*
Y23950D01*
X1551D02*
Y22750D01*
X951D01*
X751Y22950D01*
Y23750D01*
X951Y23950D01*
X1551D01*
X3950Y41560D02*
Y40360D01*
X3350D01*
X3150Y40560D01*
Y40760D01*
X3350Y40960D01*
X3950D01*
X3350D01*
X3150Y41160D01*
Y41360D01*
X3350Y41560D01*
X3950D01*
X2750D02*
Y40560D01*
X2550Y40360D01*
X2151D01*
X1951Y40560D01*
Y41560D01*
X1551D02*
X751D01*
Y41360D01*
X1551Y40560D01*
Y40360D01*
X751D01*
X3150Y43900D02*
X3350Y44100D01*
X3750D01*
X3950Y43900D01*
Y43100D01*
X3750Y42900D01*
X3350D01*
X3150Y43100D01*
Y43500D01*
X3550D01*
X2750Y42900D02*
Y44100D01*
X1951Y42900D01*
Y44100D01*
X1551D02*
Y42900D01*
X951D01*
X751Y43100D01*
Y43900D01*
X951Y44100D01*
X1551D01*
X3150Y29930D02*
X3350Y30130D01*
X3750D01*
X3950Y29930D01*
Y29730D01*
X3750Y29530D01*
X3350D01*
X3150Y29330D01*
Y29130D01*
X3350Y28930D01*
X3750D01*
X3950Y29130D01*
X2750Y30130D02*
Y28930D01*
X2151D01*
X1951Y29130D01*
Y29930D01*
X2151Y30130D01*
X2750D01*
X1551Y28930D02*
Y29730D01*
X1151Y30130D01*
X751Y29730D01*
Y28930D01*
Y29530D01*
X1551D01*
X3150Y35010D02*
X3350Y35210D01*
X3750D01*
X3950Y35010D01*
Y34210D01*
X3750Y34010D01*
X3350D01*
X3150Y34210D01*
Y34610D01*
X3550D01*
X2750Y34010D02*
Y35210D01*
X1951Y34010D01*
Y35210D01*
X1551D02*
Y34010D01*
X951D01*
X751Y34210D01*
Y35010D01*
X951Y35210D01*
X1551D01*
X3150Y32470D02*
X3350Y32670D01*
X3750D01*
X3950Y32470D01*
Y32270D01*
X3750Y32070D01*
X3350D01*
X3150Y31870D01*
Y31670D01*
X3350Y31470D01*
X3750D01*
X3950Y31670D01*
X1951Y32470D02*
X2151Y32670D01*
X2550D01*
X2750Y32470D01*
Y31670D01*
X2550Y31470D01*
X2151D01*
X1951Y31670D01*
X1551Y32670D02*
Y31470D01*
X751D01*
X62549Y49123D02*
Y50323D01*
X61950D01*
X61750Y50123D01*
Y49723D01*
X61950Y49523D01*
X62549D01*
X62149D02*
X61750Y49123D01*
X61350Y50323D02*
X60550Y49123D01*
Y50323D02*
X61350Y49123D01*
X62949Y52663D02*
X63149Y52863D01*
X63549D01*
X63749Y52663D01*
Y51863D01*
X63549Y51663D01*
X63149D01*
X62949Y51863D01*
Y52263D01*
X63349D01*
X62549Y51663D02*
Y52863D01*
X61750Y51663D01*
Y52863D01*
X61350D02*
Y51663D01*
X60750D01*
X60550Y51863D01*
Y52663D01*
X60750Y52863D01*
X61350D01*
X62549Y47783D02*
X61750D01*
X62149D01*
Y46583D01*
X61350Y47783D02*
X60550Y46583D01*
Y47783D02*
X61350Y46583D01*
X62549Y38074D02*
Y39274D01*
X61950D01*
X61750Y39074D01*
Y38674D01*
X61950Y38474D01*
X62549D01*
X62149D02*
X61750Y38074D01*
X61350Y39274D02*
X60550Y38074D01*
Y39274D02*
X61350Y38074D01*
X62949Y41614D02*
X63149Y41814D01*
X63549D01*
X63749Y41614D01*
Y40814D01*
X63549Y40614D01*
X63149D01*
X62949Y40814D01*
Y41214D01*
X63349D01*
X62549Y40614D02*
Y41814D01*
X61750Y40614D01*
Y41814D01*
X61350D02*
Y40614D01*
X60750D01*
X60550Y40814D01*
Y41614D01*
X60750Y41814D01*
X61350D01*
X62549Y36734D02*
X61750D01*
X62149D01*
Y35534D01*
X61350Y36734D02*
X60550Y35534D01*
Y36734D02*
X61350Y35534D01*
X61750Y30640D02*
X62549D01*
Y29440D01*
X61750D01*
X62549Y30040D02*
X62149D01*
X61350Y29440D02*
Y30640D01*
X60550Y29440D01*
Y30640D01*
X61750Y28100D02*
X62549D01*
Y27500D01*
X62149D01*
X62549D01*
Y26900D01*
X61350Y28100D02*
Y26900D01*
X60750D01*
X60550Y27100D01*
Y27300D01*
X60750Y27500D01*
X61350D01*
X60750D01*
X60550Y27700D01*
Y27900D01*
X60750Y28100D01*
X61350D01*
X62949Y25360D02*
X63149Y25560D01*
X63549D01*
X63749Y25360D01*
Y24560D01*
X63549Y24360D01*
X63149D01*
X62949Y24560D01*
Y24960D01*
X63349D01*
X62549Y24360D02*
Y25560D01*
X61750Y24360D01*
Y25560D01*
X61350D02*
Y24360D01*
X60750D01*
X60550Y24560D01*
Y25360D01*
X60750Y25560D01*
X61350D01*
X62949Y14320D02*
X63149Y14520D01*
X63549D01*
X63749Y14320D01*
Y13520D01*
X63549Y13320D01*
X63149D01*
X62949Y13520D01*
Y13920D01*
X63349D01*
X62549Y13320D02*
Y14520D01*
X61750Y13320D01*
Y14520D01*
X61350D02*
Y13320D01*
X60750D01*
X60550Y13520D01*
Y14320D01*
X60750Y14520D01*
X61350D01*
X62949Y19400D02*
X63149Y19600D01*
X63549D01*
X63749Y19400D01*
Y19200D01*
X63549Y19000D01*
X63149D01*
X62949Y18800D01*
Y18600D01*
X63149Y18400D01*
X63549D01*
X63749Y18600D01*
X62549Y19600D02*
Y18400D01*
X61950D01*
X61750Y18600D01*
Y19400D01*
X61950Y19600D01*
X62549D01*
X61350Y18400D02*
Y19200D01*
X60950Y19600D01*
X60550Y19200D01*
Y18400D01*
Y19000D01*
X61350D01*
X62949Y16860D02*
X63149Y17060D01*
X63549D01*
X63749Y16860D01*
Y16660D01*
X63549Y16460D01*
X63149D01*
X62949Y16260D01*
Y16060D01*
X63149Y15860D01*
X63549D01*
X63749Y16060D01*
X61750Y16860D02*
X61950Y17060D01*
X62349D01*
X62549Y16860D01*
Y16060D01*
X62349Y15860D01*
X61950D01*
X61750Y16060D01*
X61350Y17060D02*
Y15860D01*
X60550D01*
X38050Y7300D02*
X39250D01*
X38850Y7700D01*
X39250Y8100D01*
X38050D01*
X39250Y8500D02*
Y8899D01*
Y8700D01*
X38050D01*
Y8500D01*
Y8899D01*
X39050Y10299D02*
X39250Y10099D01*
Y9699D01*
X39050Y9499D01*
X38850D01*
X38650Y9699D01*
Y10099D01*
X38450Y10299D01*
X38250D01*
X38050Y10099D01*
Y9699D01*
X38250Y9499D01*
X39250Y11299D02*
Y10899D01*
X39050Y10699D01*
X38250D01*
X38050Y10899D01*
Y11299D01*
X38250Y11499D01*
X39050D01*
X39250Y11299D01*
X41790Y7300D02*
Y7700D01*
Y7500D01*
X40590D01*
Y7300D01*
Y7700D01*
Y8300D02*
X41790D01*
X40590Y9099D01*
X41790D01*
Y9499D02*
Y10299D01*
Y9899D01*
X40590D01*
X44130Y8100D02*
X44330Y7900D01*
Y7500D01*
X44130Y7300D01*
X43930D01*
X43730Y7500D01*
Y7900D01*
X43530Y8100D01*
X43330D01*
X43130Y7900D01*
Y7500D01*
X43330Y7300D01*
X44130Y9299D02*
X44330Y9099D01*
Y8700D01*
X44130Y8500D01*
X43330D01*
X43130Y8700D01*
Y9099D01*
X43330Y9299D01*
X44330Y9699D02*
X43130D01*
X43530D01*
X44330Y10499D01*
X43730Y9899D01*
X43130Y10499D01*
X45670Y7300D02*
X46870D01*
X46470Y7700D01*
X46870Y8100D01*
X45670D01*
X46870Y9099D02*
Y8700D01*
X46670Y8500D01*
X45870D01*
X45670Y8700D01*
Y9099D01*
X45870Y9299D01*
X46670D01*
X46870Y9099D01*
X46670Y10499D02*
X46870Y10299D01*
Y9899D01*
X46670Y9699D01*
X46470D01*
X46270Y9899D01*
Y10299D01*
X46070Y10499D01*
X45870D01*
X45670Y10299D01*
Y9899D01*
X45870Y9699D01*
X46870Y10899D02*
Y11299D01*
Y11099D01*
X45670D01*
Y10899D01*
Y11299D01*
X49210Y8100D02*
X49410Y7900D01*
Y7500D01*
X49210Y7300D01*
X48410D01*
X48210Y7500D01*
Y7900D01*
X48410Y8100D01*
X49210Y9299D02*
X49410Y9099D01*
Y8700D01*
X49210Y8500D01*
X49010D01*
X48810Y8700D01*
Y9099D01*
X48610Y9299D01*
X48410D01*
X48210Y9099D01*
Y8700D01*
X48410Y8500D01*
X51750Y8100D02*
X51950Y7900D01*
Y7500D01*
X51750Y7300D01*
X50950D01*
X50750Y7500D01*
Y7900D01*
X50950Y8100D01*
X51950Y9299D02*
Y8500D01*
X50750D01*
Y9299D01*
X51350Y8500D02*
Y8899D01*
X16830Y7300D02*
X15830D01*
X15630Y7500D01*
Y7900D01*
X15830Y8100D01*
X16830D01*
X16630Y9299D02*
X16830Y9099D01*
Y8700D01*
X16630Y8500D01*
X16430D01*
X16230Y8700D01*
Y9099D01*
X16030Y9299D01*
X15830D01*
X15630Y9099D01*
Y8700D01*
X15830Y8500D01*
X16830Y9699D02*
X15630D01*
Y10299D01*
X15830Y10499D01*
X16030D01*
X16230Y10299D01*
Y9699D01*
Y10299D01*
X16430Y10499D01*
X16630D01*
X16830Y10299D01*
Y9699D01*
X14090Y8100D02*
X14290Y7900D01*
Y7500D01*
X14090Y7300D01*
X13290D01*
X13090Y7500D01*
Y7900D01*
X13290Y8100D01*
X13690D01*
Y7700D01*
X13090Y8500D02*
X14290D01*
X13090Y9299D01*
X14290D01*
Y9699D02*
X13090D01*
Y10299D01*
X13290Y10499D01*
X14090D01*
X14290Y10299D01*
Y9699D01*
X21310Y7300D02*
Y8100D01*
X21710Y7700D02*
X20910D01*
X21910Y9299D02*
Y8500D01*
X21310D01*
X21510Y8899D01*
Y9099D01*
X21310Y9299D01*
X20910D01*
X20710Y9099D01*
Y8700D01*
X20910Y8500D01*
X21910Y9699D02*
X21110D01*
X20710Y10099D01*
X21110Y10499D01*
X21910D01*
X18770Y7300D02*
Y8100D01*
X19170Y7700D02*
X18370D01*
X19170Y8500D02*
X19370Y8700D01*
Y9099D01*
X19170Y9299D01*
X18970D01*
X18770Y9099D01*
Y8899D01*
Y9099D01*
X18570Y9299D01*
X18370D01*
X18170Y9099D01*
Y8700D01*
X18370Y8500D01*
X19370Y9699D02*
X18570D01*
X18170Y10099D01*
X18570Y10499D01*
X19370D01*
X19170Y10899D02*
X19370Y11099D01*
Y11499D01*
X19170Y11699D01*
X18970D01*
X18770Y11499D01*
Y11299D01*
Y11499D01*
X18570Y11699D01*
X18370D01*
X18170Y11499D01*
Y11099D01*
X18370Y10899D01*
D37*
X38750Y46508D02*
X39258Y46000D01*
X38750Y46500D02*
X46000D01*
X38750Y46500D02*
X39258Y47008D01*
X46000Y53750D02*
X46508Y53242D01*
X45500D02*
X46008Y53750D01*
X56242Y3258D02*
X56750Y2750D01*
X56242Y2250D02*
X56750Y2758D01*
X55050Y2750D02*
X56750D01*
X46000Y46500D02*
Y53750D01*
D38*
X32100Y38000D02*
X32900D01*
X25555Y62080D02*
X26245D01*
X42250Y23800D02*
Y24600D01*
X48350Y64250D02*
X49150D01*
X22080Y62080D02*
X23705D01*
X16095D02*
X17720D01*
X37555D02*
X38245D01*
X13555D02*
X14245D01*
X51850Y55250D02*
X52650D01*
X21600Y18250D02*
X22400D01*
X36230Y65000D02*
X37030D01*
X38770D02*
X39570D01*
X15600Y18250D02*
X16400D01*
X13600D02*
X14400D01*
X19600D02*
X20400D01*
X17600D02*
X18400D01*
X13555Y54460D02*
X14245D01*
X37555Y57000D02*
X38245D01*
X25555Y51920D02*
X26245D01*
X13555Y57000D02*
X14245D01*
X28095Y54460D02*
X28550D01*
X23250D02*
X23705D01*
X37555D02*
X38245D01*
X35250D02*
X35705D01*
X34080Y51920D02*
X35705D01*
X28095D02*
X29720D01*
X28095Y62080D02*
X29720D01*
X34080D02*
X35705D01*
X13555Y51920D02*
X14245D01*
X37555D02*
X38245D01*
X16095D02*
X17720D01*
X22080D02*
X23705D01*
X26770Y65000D02*
X27570D01*
X42250Y31400D02*
Y32200D01*
X48000Y31600D02*
Y32400D01*
X42250Y26850D02*
Y27650D01*
Y28350D02*
Y29150D01*
X43600Y38000D02*
X44400D01*
X40600D02*
X41400D01*
X47600Y21500D02*
X48400D01*
X39100Y38000D02*
X39900D01*
X22250Y29800D02*
Y30600D01*
Y27800D02*
Y28600D01*
X36100Y38000D02*
X36900D01*
X29650D02*
X30450D01*
X33255Y18000D02*
X34055D01*
X34779D02*
X35579D01*
X22250Y25800D02*
Y26600D01*
X31096Y18000D02*
X31896D01*
X10750Y40150D02*
Y43850D01*
Y40150D02*
X17250D01*
Y43850D01*
X10750D02*
X17250D01*
X14770Y65000D02*
X15570D01*
X24230D02*
X25030D01*
X17500Y38325D02*
Y39800D01*
X12230Y65000D02*
X13030D01*
X54951Y18600D02*
Y19400D01*
Y16060D02*
Y16860D01*
X42100Y38000D02*
X42900D01*
X37600D02*
X38400D01*
X18100Y44500D02*
X18900D01*
X18100Y39500D02*
X18900D01*
X9500Y31670D02*
Y32470D01*
Y29130D02*
Y29930D01*
X23250Y57000D02*
X23705D01*
X28095D02*
X28550D01*
X16095Y54460D02*
X16550D01*
X16095Y57000D02*
X16550D01*
X35250D02*
X35705D01*
X35248Y4923D02*
Y3923D01*
X34748D01*
X34582Y4090D01*
Y4756D01*
X34748Y4923D01*
X35248D01*
X33749Y3923D02*
X34082D01*
X34249Y4090D01*
Y4423D01*
X34082Y4590D01*
X33749D01*
X33582Y4423D01*
Y4256D01*
X34249D01*
X33249Y3923D02*
X32749D01*
X32583Y4090D01*
X32749Y4256D01*
X33082D01*
X33249Y4423D01*
X33082Y4590D01*
X32583D01*
X32249Y3923D02*
X31916D01*
X32083D01*
Y4590D01*
X32249D01*
X31083Y3590D02*
X30916D01*
X30750Y3757D01*
Y4590D01*
X31250D01*
X31416Y4423D01*
Y4090D01*
X31250Y3923D01*
X30750D01*
X30417D02*
Y4590D01*
X29917D01*
X29750Y4423D01*
Y3923D01*
X28917D02*
X29250D01*
X29417Y4090D01*
Y4423D01*
X29250Y4590D01*
X28917D01*
X28750Y4423D01*
Y4256D01*
X29417D01*
X27751Y4923D02*
Y3923D01*
X28251D01*
X28417Y4090D01*
Y4423D01*
X28251Y4590D01*
X27751D01*
X26418Y4923D02*
Y3923D01*
X25918D01*
X25751Y4090D01*
Y4256D01*
Y4423D01*
X25918Y4590D01*
X26418D01*
X25418D02*
Y4090D01*
X25252Y3923D01*
X24752D01*
Y3757D01*
X24918Y3590D01*
X25085D01*
X24752Y3923D02*
Y4590D01*
X38081Y1910D02*
Y2910D01*
X37581D01*
X37414Y2743D01*
Y2410D01*
X37581Y2244D01*
X38081D01*
X37748D02*
X37414Y1910D01*
X37081Y2577D02*
Y2077D01*
X36914Y1910D01*
X36415D01*
Y2577D01*
X36081Y1910D02*
X35582D01*
X35415Y2077D01*
X35582Y2244D01*
X35915D01*
X36081Y2410D01*
X35915Y2577D01*
X35415D01*
X35082Y1910D02*
X34582D01*
X34415Y2077D01*
X34582Y2244D01*
X34915D01*
X35082Y2410D01*
X34915Y2577D01*
X34415D01*
X33582Y1910D02*
X33915D01*
X34082Y2077D01*
Y2410D01*
X33915Y2577D01*
X33582D01*
X33416Y2410D01*
Y2244D01*
X34082D01*
X33082Y1910D02*
X32749D01*
X32916D01*
Y2910D01*
X33082D01*
X32249Y1910D02*
X31916D01*
X32083D01*
Y2910D01*
X32249D01*
X30417Y1910D02*
Y2910D01*
X30083Y2577D01*
X29750Y2910D01*
Y1910D01*
X29250Y2577D02*
X28917D01*
X28750Y2410D01*
Y1910D01*
X29250D01*
X29417Y2077D01*
X29250Y2244D01*
X28750D01*
X27751Y2577D02*
X28251D01*
X28417Y2410D01*
Y2077D01*
X28251Y1910D01*
X27751D01*
X26751Y2743D02*
X26918Y2910D01*
X27251D01*
X27417Y2743D01*
Y2077D01*
X27251Y1910D01*
X26918D01*
X26751Y2077D01*
Y2410D01*
X27084D01*
X26418Y2577D02*
Y1910D01*
Y2244D01*
X26251Y2410D01*
X26085Y2577D01*
X25918D01*
X24918Y1910D02*
X25252D01*
X25418Y2077D01*
Y2410D01*
X25252Y2577D01*
X24918D01*
X24752Y2410D01*
Y2244D01*
X25418D01*
X24085Y1577D02*
X23919D01*
X23752Y1744D01*
Y2577D01*
X24252D01*
X24418Y2410D01*
Y2077D01*
X24252Y1910D01*
X23752D01*
X23252D02*
X22919D01*
X22752Y2077D01*
Y2410D01*
X22919Y2577D01*
X23252D01*
X23419Y2410D01*
Y2077D01*
X23252Y1910D01*
X22419Y2577D02*
Y1910D01*
Y2244D01*
X22253Y2410D01*
X22086Y2577D01*
X21919D01*
X17350Y47125D02*
Y46292D01*
X17183Y46125D01*
X16850D01*
X16684Y46292D01*
Y47125D01*
X16350Y46958D02*
X16184Y47125D01*
X15850D01*
X15684Y46958D01*
Y46791D01*
X15850Y46625D01*
X16017D01*
X15850D01*
X15684Y46458D01*
Y46292D01*
X15850Y46125D01*
X16184D01*
X16350Y46292D01*
X21500Y20700D02*
X22500D01*
Y21200D01*
X22333Y21366D01*
X22000D01*
X21833Y21200D01*
Y20700D01*
Y21033D02*
X21500Y21366D01*
Y21700D02*
Y22033D01*
Y21866D01*
X22500D01*
X22333Y21700D01*
X21500Y23199D02*
Y22533D01*
X22167Y23199D01*
X22333D01*
X22500Y23033D01*
Y22699D01*
X22333Y22533D01*
X19500Y20700D02*
X20500D01*
Y21200D01*
X20333Y21366D01*
X20000D01*
X19833Y21200D01*
Y20700D01*
Y21033D02*
X19500Y21366D01*
Y21700D02*
Y22033D01*
Y21866D01*
X20500D01*
X20333Y21700D01*
Y22533D02*
X20500Y22699D01*
Y23033D01*
X20333Y23199D01*
X20167D01*
X20000Y23033D01*
Y22866D01*
Y23033D01*
X19833Y23199D01*
X19667D01*
X19500Y23033D01*
Y22699D01*
X19667Y22533D01*
X17500Y20700D02*
X18500D01*
Y21200D01*
X18333Y21366D01*
X18000D01*
X17833Y21200D01*
Y20700D01*
Y21033D02*
X17500Y21366D01*
Y21700D02*
Y22033D01*
Y21866D01*
X18500D01*
X18333Y21700D01*
X17500Y23033D02*
X18500D01*
X18000Y22533D01*
Y23199D01*
X15500Y20700D02*
X16500D01*
Y21200D01*
X16333Y21366D01*
X16000D01*
X15833Y21200D01*
Y20700D01*
Y21033D02*
X15500Y21366D01*
Y21700D02*
Y22033D01*
Y21866D01*
X16500D01*
X16333Y21700D01*
X16500Y23199D02*
Y22533D01*
X16000D01*
X16167Y22866D01*
Y23033D01*
X16000Y23199D01*
X15667D01*
X15500Y23033D01*
Y22699D01*
X15667Y22533D01*
X13500Y20700D02*
X14500D01*
Y21200D01*
X14333Y21366D01*
X14000D01*
X13833Y21200D01*
Y20700D01*
Y21033D02*
X13500Y21366D01*
Y21700D02*
Y22033D01*
Y21866D01*
X14500D01*
X14333Y21700D01*
X14500Y23199D02*
X14333Y22866D01*
X14000Y22533D01*
X13667D01*
X13500Y22699D01*
Y23033D01*
X13667Y23199D01*
X13833D01*
X14000Y23033D01*
Y22533D01*
X48833Y32800D02*
Y33800D01*
X48333D01*
X48167Y33633D01*
Y33300D01*
X48333Y33133D01*
X48833D01*
X48500D02*
X48167Y32800D01*
X47833Y33633D02*
X47667Y33800D01*
X47334D01*
X47167Y33633D01*
Y33466D01*
X47334Y33300D01*
X47167Y33133D01*
Y32967D01*
X47334Y32800D01*
X47667D01*
X47833Y32967D01*
Y33133D01*
X47667Y33300D01*
X47833Y33466D01*
Y33633D01*
X47667Y33300D02*
X47334D01*
X42000Y39425D02*
X43000D01*
Y39925D01*
X42833Y40091D01*
X42500D01*
X42333Y39925D01*
Y39425D01*
Y39758D02*
X42000Y40091D01*
X43000Y41091D02*
X42833Y40758D01*
X42500Y40425D01*
X42167D01*
X42000Y40591D01*
Y40925D01*
X42167Y41091D01*
X42333D01*
X42500Y40925D01*
Y40425D01*
X51216Y63750D02*
Y64750D01*
X50716D01*
X50550Y64583D01*
Y64250D01*
X50716Y64083D01*
X51216D01*
X50883D02*
X50550Y63750D01*
X49717D02*
Y64750D01*
X50216Y64250D01*
X49550D01*
X53050Y54417D02*
X54050D01*
Y54917D01*
X53883Y55083D01*
X53550D01*
X53383Y54917D01*
Y54417D01*
Y54750D02*
X53050Y55083D01*
X54050Y56083D02*
Y55417D01*
X53550D01*
X53716Y55750D01*
Y55916D01*
X53550Y56083D01*
X53217D01*
X53050Y55916D01*
Y55583D01*
X53217Y55417D01*
X13833Y31750D02*
Y32750D01*
X13333D01*
X13167Y32583D01*
Y32250D01*
X13333Y32083D01*
X13833D01*
X13500D02*
X13167Y31750D01*
X12833Y32750D02*
X12167D01*
Y32583D01*
X12833Y31917D01*
Y31750D01*
X13656Y29030D02*
Y30030D01*
X13156D01*
X12989Y29863D01*
Y29530D01*
X13156Y29363D01*
X13656D01*
X13322D02*
X12989Y29030D01*
X12656Y29197D02*
X12489Y29030D01*
X12156D01*
X11989Y29197D01*
Y29863D01*
X12156Y30030D01*
X12489D01*
X12656Y29863D01*
Y29697D01*
X12489Y29530D01*
X11989D01*
X56201Y14660D02*
Y15660D01*
X55701D01*
X55534Y15493D01*
Y15160D01*
X55701Y14994D01*
X56201D01*
X55867D02*
X55534Y14660D01*
X55201D02*
X54868D01*
X55034D01*
Y15660D01*
X55201Y15493D01*
X54368Y15660D02*
X53701D01*
Y15493D01*
X54368Y14827D01*
Y14660D01*
X56034Y19800D02*
Y20800D01*
X55534D01*
X55368Y20633D01*
Y20300D01*
X55534Y20133D01*
X56034D01*
X55701D02*
X55368Y19800D01*
X55034D02*
X54701D01*
X54868D01*
Y20800D01*
X55034Y20633D01*
X54201Y19800D02*
X53868D01*
X54035D01*
Y20800D01*
X54201Y20633D01*
X47500Y17576D02*
X48500D01*
Y18076D01*
X48333Y18242D01*
X48000D01*
X47833Y18076D01*
Y17576D01*
Y17909D02*
X47500Y18242D01*
Y18575D02*
Y18909D01*
Y18742D01*
X48500D01*
X48333Y18575D01*
Y19409D02*
X48500Y19575D01*
Y19908D01*
X48333Y20075D01*
X47667D01*
X47500Y19908D01*
Y19575D01*
X47667Y19409D01*
X48333D01*
X38500Y40700D02*
X37500D01*
Y41366D01*
Y42366D02*
Y41700D01*
X38167Y42366D01*
X38333D01*
X38500Y42200D01*
Y41866D01*
X38333Y41700D01*
X40970Y64808D02*
X41136Y64975D01*
X41470D01*
X41636Y64808D01*
Y64142D01*
X41470Y63975D01*
X41136D01*
X40970Y64142D01*
X40137Y63975D02*
Y64975D01*
X40636Y64475D01*
X39970D01*
X35164Y65858D02*
X35330Y66025D01*
X35663D01*
X35830Y65858D01*
Y65192D01*
X35663Y65025D01*
X35330D01*
X35164Y65192D01*
X34164Y66025D02*
X34830D01*
Y65525D01*
X34497Y65692D01*
X34330D01*
X34164Y65525D01*
Y65192D01*
X34330Y65025D01*
X34664D01*
X34830Y65192D01*
X28970Y64808D02*
X29136Y64975D01*
X29470D01*
X29636Y64808D01*
Y64142D01*
X29470Y63975D01*
X29136D01*
X28970Y64142D01*
X27970Y64975D02*
X28303Y64808D01*
X28636Y64475D01*
Y64142D01*
X28470Y63975D01*
X28137D01*
X27970Y64142D01*
Y64308D01*
X28137Y64475D01*
X28636D01*
X23164Y65858D02*
X23330Y66025D01*
X23663D01*
X23830Y65858D01*
Y65192D01*
X23663Y65025D01*
X23330D01*
X23164Y65192D01*
X22830Y66025D02*
X22164D01*
Y65858D01*
X22830Y65192D01*
Y65025D01*
X16970Y64808D02*
X17136Y64975D01*
X17470D01*
X17636Y64808D01*
Y64142D01*
X17470Y63975D01*
X17136D01*
X16970Y64142D01*
X16636Y64808D02*
X16470Y64975D01*
X16137D01*
X15970Y64808D01*
Y64641D01*
X16137Y64475D01*
X15970Y64308D01*
Y64142D01*
X16137Y63975D01*
X16470D01*
X16636Y64142D01*
Y64308D01*
X16470Y64475D01*
X16636Y64641D01*
Y64808D01*
X16470Y64475D02*
X16137D01*
X11164Y65858D02*
X11330Y66025D01*
X11663D01*
X11830Y65858D01*
Y65192D01*
X11663Y65025D01*
X11330D01*
X11164Y65192D01*
X10830D02*
X10664Y65025D01*
X10330D01*
X10164Y65192D01*
Y65858D01*
X10330Y66025D01*
X10664D01*
X10830Y65858D01*
Y65692D01*
X10664Y65525D01*
X10164D01*
X21133Y44308D02*
X21299Y44475D01*
X21633D01*
X21799Y44308D01*
Y43642D01*
X21633Y43475D01*
X21299D01*
X21133Y43642D01*
X20800Y43475D02*
X20466D01*
X20633D01*
Y44475D01*
X20800Y44308D01*
X19966D02*
X19800Y44475D01*
X19467D01*
X19300Y44308D01*
Y43642D01*
X19467Y43475D01*
X19800D01*
X19966Y43642D01*
Y44308D01*
X20800Y39833D02*
X20966Y40000D01*
X21299D01*
X21466Y39833D01*
Y39167D01*
X21299Y39000D01*
X20966D01*
X20800Y39167D01*
X20466Y39000D02*
X20133D01*
X20300D01*
Y40000D01*
X20466Y39833D01*
X19633Y39000D02*
X19300D01*
X19467D01*
Y40000D01*
X19633Y39833D01*
X41333Y40091D02*
X41500Y39925D01*
Y39592D01*
X41333Y39425D01*
X40667D01*
X40500Y39592D01*
Y39925D01*
X40667Y40091D01*
X40500Y40425D02*
Y40758D01*
Y40591D01*
X41500D01*
X41333Y40425D01*
Y41258D02*
X41500Y41424D01*
Y41758D01*
X41333Y41924D01*
X41167D01*
X41000Y41758D01*
Y41591D01*
Y41758D01*
X40833Y41924D01*
X40667D01*
X40500Y41758D01*
Y41424D01*
X40667Y41258D01*
X39833Y41366D02*
X40000Y41200D01*
Y40867D01*
X39833Y40700D01*
X39167D01*
X39000Y40867D01*
Y41200D01*
X39167Y41366D01*
X39000Y41700D02*
Y42033D01*
Y41866D01*
X40000D01*
X39833Y41700D01*
X39000Y43033D02*
X40000D01*
X39500Y42533D01*
Y43199D01*
X40159Y29083D02*
X40325Y29250D01*
X40658D01*
X40825Y29083D01*
Y28417D01*
X40658Y28250D01*
X40325D01*
X40159Y28417D01*
X39159Y28250D02*
X39825D01*
X39159Y28917D01*
Y29083D01*
X39325Y29250D01*
X39659D01*
X39825Y29083D01*
X38826D02*
X38659Y29250D01*
X38326D01*
X38159Y29083D01*
Y28417D01*
X38326Y28250D01*
X38659D01*
X38826Y28417D01*
Y29083D01*
X37978Y18333D02*
X38145Y18500D01*
X38478D01*
X38645Y18333D01*
Y17667D01*
X38478Y17500D01*
X38145D01*
X37978Y17667D01*
X36979Y17500D02*
X37645D01*
X36979Y18167D01*
Y18333D01*
X37145Y18500D01*
X37479D01*
X37645Y18333D01*
X35979Y18500D02*
X36645D01*
Y18000D01*
X36312Y18167D01*
X36146D01*
X35979Y18000D01*
Y17667D01*
X36146Y17500D01*
X36479D01*
X36645Y17667D01*
X20159Y28533D02*
X20325Y28700D01*
X20658D01*
X20825Y28533D01*
Y27867D01*
X20658Y27700D01*
X20325D01*
X20159Y27867D01*
X19159Y27700D02*
X19825D01*
X19159Y28367D01*
Y28533D01*
X19325Y28700D01*
X19659D01*
X19825Y28533D01*
X18826Y27700D02*
X18492D01*
X18659D01*
Y28700D01*
X18826Y28533D01*
X44333Y41366D02*
X44500Y41200D01*
Y40867D01*
X44333Y40700D01*
X43667D01*
X43500Y40867D01*
Y41200D01*
X43667Y41366D01*
X43500Y41700D02*
Y42033D01*
Y41866D01*
X44500D01*
X44333Y41700D01*
X43500Y43199D02*
Y42533D01*
X44167Y43199D01*
X44333D01*
X44500Y43033D01*
Y42699D01*
X44333Y42533D01*
X30383Y40091D02*
X30550Y39925D01*
Y39592D01*
X30383Y39425D01*
X29717D01*
X29550Y39592D01*
Y39925D01*
X29717Y40091D01*
X29550Y40425D02*
Y40758D01*
Y40591D01*
X30550D01*
X30383Y40425D01*
X30550Y41258D02*
Y41924D01*
X30383D01*
X29717Y41258D01*
X29550D01*
X32833Y41366D02*
X33000Y41200D01*
Y40867D01*
X32833Y40700D01*
X32167D01*
X32000Y40867D01*
Y41200D01*
X32167Y41366D01*
X32000Y41700D02*
Y42033D01*
Y41866D01*
X33000D01*
X32833Y41700D01*
X33000Y43199D02*
X32833Y42866D01*
X32500Y42533D01*
X32167D01*
X32000Y42699D01*
Y43033D01*
X32167Y43199D01*
X32333D01*
X32500Y43033D01*
Y42533D01*
X36833Y41366D02*
X37000Y41200D01*
Y40867D01*
X36833Y40700D01*
X36167D01*
X36000Y40867D01*
Y41200D01*
X36167Y41366D01*
X36000Y41700D02*
Y42033D01*
Y41866D01*
X37000D01*
X36833Y41700D01*
X37000Y43199D02*
Y42533D01*
X36500D01*
X36667Y42866D01*
Y43033D01*
X36500Y43199D01*
X36167D01*
X36000Y43033D01*
Y42699D01*
X36167Y42533D01*
X42833Y33433D02*
X43000Y33600D01*
X43333D01*
X43500Y33433D01*
Y32767D01*
X43333Y32600D01*
X43000D01*
X42833Y32767D01*
X42500Y32600D02*
X42167D01*
X42333D01*
Y33600D01*
X42500Y33433D01*
X41667D02*
X41500Y33600D01*
X41167D01*
X41000Y33433D01*
Y33266D01*
X41167Y33100D01*
X41000Y32933D01*
Y32767D01*
X41167Y32600D01*
X41500D01*
X41667Y32767D01*
Y32933D01*
X41500Y33100D01*
X41667Y33266D01*
Y33433D01*
X41500Y33100D02*
X41167D01*
X40159Y27583D02*
X40325Y27750D01*
X40658D01*
X40825Y27583D01*
Y26917D01*
X40658Y26750D01*
X40325D01*
X40159Y26917D01*
X39159Y26750D02*
X39825D01*
X39159Y27417D01*
Y27583D01*
X39325Y27750D01*
X39659D01*
X39825Y27583D01*
X38159Y26750D02*
X38826D01*
X38159Y27417D01*
Y27583D01*
X38326Y27750D01*
X38659D01*
X38826Y27583D01*
X40159Y24533D02*
X40325Y24700D01*
X40658D01*
X40825Y24533D01*
Y23867D01*
X40658Y23700D01*
X40325D01*
X40159Y23867D01*
X39159Y23700D02*
X39825D01*
X39159Y24367D01*
Y24533D01*
X39325Y24700D01*
X39659D01*
X39825Y24533D01*
X38326Y23700D02*
Y24700D01*
X38826Y24200D01*
X38159D01*
X33988Y14576D02*
X34155Y14409D01*
Y14076D01*
X33988Y13909D01*
X33322D01*
X33155Y14076D01*
Y14409D01*
X33322Y14576D01*
X33155Y15575D02*
Y14909D01*
X33822Y15575D01*
X33988D01*
X34155Y15409D01*
Y15075D01*
X33988Y14909D01*
X34155Y16575D02*
X33988Y16242D01*
X33655Y15909D01*
X33322D01*
X33155Y16075D01*
Y16408D01*
X33322Y16575D01*
X33488D01*
X33655Y16408D01*
Y15909D01*
X31829Y14576D02*
X31996Y14409D01*
Y14076D01*
X31829Y13909D01*
X31163D01*
X30996Y14076D01*
Y14409D01*
X31163Y14576D01*
X30996Y15575D02*
Y14909D01*
X31663Y15575D01*
X31829D01*
X31996Y15409D01*
Y15075D01*
X31829Y14909D01*
X31996Y15909D02*
Y16575D01*
X31829D01*
X31163Y15909D01*
X30996D01*
X20159Y26533D02*
X20325Y26700D01*
X20658D01*
X20825Y26533D01*
Y25867D01*
X20658Y25700D01*
X20325D01*
X20159Y25867D01*
X19159Y25700D02*
X19825D01*
X19159Y26367D01*
Y26533D01*
X19325Y26700D01*
X19659D01*
X19825Y26533D01*
X18826D02*
X18659Y26700D01*
X18326D01*
X18159Y26533D01*
Y26367D01*
X18326Y26200D01*
X18492D01*
X18326D01*
X18159Y26033D01*
Y25867D01*
X18326Y25700D01*
X18659D01*
X18826Y25867D01*
X20159Y30533D02*
X20325Y30700D01*
X20658D01*
X20825Y30533D01*
Y29867D01*
X20658Y29700D01*
X20325D01*
X20159Y29867D01*
X19825Y29700D02*
X19492D01*
X19659D01*
Y30700D01*
X19825Y30533D01*
X18992Y29867D02*
X18826Y29700D01*
X18492D01*
X18326Y29867D01*
Y30533D01*
X18492Y30700D01*
X18826D01*
X18992Y30533D01*
Y30367D01*
X18826Y30200D01*
X18326D01*
D39*
X44874Y46000D02*
X45274Y45800D01*
X45674Y45400D01*
Y45000D01*
X45474Y44800D01*
X45074D01*
X44874Y45000D01*
Y45200D01*
X45074Y45400D01*
X45674D01*
X43875Y44800D02*
Y46000D01*
X44474Y45400D01*
X43675D01*
X43275Y44800D02*
Y45000D01*
X43075D01*
Y44800D01*
X43275D01*
X41475Y46000D02*
X42275D01*
Y45400D01*
X41875Y45600D01*
X41675D01*
X41475Y45400D01*
Y45000D01*
X41675Y44800D01*
X42075D01*
X42275Y45000D01*
X41075Y44800D02*
Y45600D01*
X40875D01*
X40676Y45400D01*
Y44800D01*
Y45400D01*
X40476Y45600D01*
X40276Y45400D01*
Y44800D01*
X39876D02*
Y45600D01*
X39676D01*
X39476Y45400D01*
Y44800D01*
Y45400D01*
X39276Y45600D01*
X39076Y45400D01*
Y44800D01*
X45250Y48450D02*
Y47250D01*
X44650D01*
X44450Y47450D01*
Y48250D01*
X44650Y48450D01*
X45250D01*
X44050Y47250D02*
X43651D01*
X43850D01*
Y48050D01*
X44050D01*
X43051Y47250D02*
Y48050D01*
X42851D01*
X42651Y47850D01*
Y47250D01*
Y47850D01*
X42451Y48050D01*
X42251Y47850D01*
Y47250D01*
X45250Y50250D02*
Y49050D01*
X44650D01*
X44450Y49250D01*
Y49450D01*
X44650Y49650D01*
X45250D01*
X44650D01*
X44450Y49850D01*
Y50050D01*
X44650Y50250D01*
X45250D01*
X43850Y49050D02*
X43451D01*
X43251Y49250D01*
Y49650D01*
X43451Y49850D01*
X43850D01*
X44050Y49650D01*
Y49250D01*
X43850Y49050D01*
X42651Y49850D02*
X42251D01*
X42051Y49650D01*
Y49050D01*
X42651D01*
X42851Y49250D01*
X42651Y49450D01*
X42051D01*
X41651Y49850D02*
Y49050D01*
Y49450D01*
X41451Y49650D01*
X41251Y49850D01*
X41051D01*
X39652Y50250D02*
Y49050D01*
X40252D01*
X40452Y49250D01*
Y49650D01*
X40252Y49850D01*
X39652D01*
X47950Y47626D02*
X47750Y47226D01*
X47350Y46826D01*
X46950D01*
X46750Y47026D01*
Y47426D01*
X46950Y47626D01*
X47150D01*
X47350Y47426D01*
Y46826D01*
X47750Y48026D02*
X47950Y48226D01*
Y48625D01*
X47750Y48825D01*
X47550D01*
X47350Y48625D01*
X47150Y48825D01*
X46950D01*
X46750Y48625D01*
Y48226D01*
X46950Y48026D01*
X47150D01*
X47350Y48226D01*
X47550Y48026D01*
X47750D01*
X47350Y48226D02*
Y48625D01*
X46750Y49225D02*
X47550D01*
Y49425D01*
X47350Y49625D01*
X46750D01*
X47350D01*
X47550Y49825D01*
X47350Y50025D01*
X46750D01*
Y50425D02*
X47550D01*
Y50625D01*
X47350Y50825D01*
X46750D01*
X47350D01*
X47550Y51025D01*
X47350Y51225D01*
X46750D01*
X54500Y2150D02*
Y3350D01*
X54100Y2950D01*
X53700Y3350D01*
Y2150D01*
X53300Y3150D02*
X53100Y3350D01*
X52701D01*
X52501Y3150D01*
Y2950D01*
X52701Y2750D01*
X52901D01*
X52701D01*
X52501Y2550D01*
Y2350D01*
X52701Y2150D01*
X53100D01*
X53300Y2350D01*
%TF.MD5,5aedf1956271b6fa0d576ea8edc8450b*%
M02*
