%TF.GenerationSoftware,Altium Limited,Altium Designer,25.2.1 (25)*%
G04 Layer_Color=65535*
%FSLAX43Y43*%
%MOMM*%
%TF.SameCoordinates,2635E17B-F086-4753-8714-BA37E3CCEC02*%
%TF.FilePolarity,Positive*%
%TF.FileFunction,Legend,Top*%
%TF.Part,Single*%
G01*
G75*
%TA.AperFunction,NonConductor*%
%ADD45C,0.254*%
%ADD46C,0.200*%
%ADD47C,0.400*%
%ADD48C,0.100*%
%ADD49C,0.300*%
%ADD50C,0.150*%
G36*
X16845Y7830D02*
X16912D01*
Y7825D01*
X16948D01*
Y7820D01*
X16985D01*
Y7814D01*
X17010D01*
Y7809D01*
X17041D01*
Y7804D01*
X17052D01*
Y7799D01*
X17077D01*
Y7794D01*
X17098D01*
Y7789D01*
X17113D01*
Y7784D01*
X17134D01*
Y7778D01*
X17144D01*
Y7773D01*
X17160D01*
Y7768D01*
X17175D01*
Y7763D01*
X17186D01*
Y7758D01*
X17201D01*
Y7753D01*
X17211D01*
Y7747D01*
X17232D01*
Y7742D01*
X17237D01*
Y7737D01*
X17253D01*
Y7732D01*
X17258D01*
Y7727D01*
X17268D01*
Y7722D01*
X17284D01*
Y7716D01*
X17289D01*
Y7711D01*
X17304D01*
Y7706D01*
X17314D01*
Y7701D01*
X17325D01*
Y7696D01*
X17330D01*
Y7691D01*
X17340D01*
Y7686D01*
X17351D01*
Y7680D01*
X17356D01*
Y7675D01*
X17366D01*
Y7670D01*
X17376D01*
Y7665D01*
X17381D01*
Y7660D01*
X17392D01*
Y7655D01*
X17397D01*
Y7649D01*
X17407D01*
Y7644D01*
X17412D01*
Y7639D01*
X17423D01*
Y7634D01*
X17428D01*
Y7629D01*
X17433D01*
Y7624D01*
X17443D01*
Y7619D01*
X17448D01*
Y7613D01*
X17459D01*
Y7608D01*
X17464D01*
Y7603D01*
X17469D01*
Y7598D01*
X17479D01*
Y7593D01*
X17485D01*
Y7588D01*
X17490D01*
Y7582D01*
X17495D01*
Y7577D01*
X17500D01*
Y7572D01*
X17510D01*
Y7562D01*
X17521D01*
Y7557D01*
X17526D01*
Y7552D01*
X17531D01*
Y7546D01*
X17536D01*
Y7541D01*
X17541D01*
Y7536D01*
X17546D01*
Y7531D01*
X17552D01*
Y7526D01*
X17562D01*
Y7515D01*
X17572D01*
Y7505D01*
X17577D01*
Y7500D01*
X17582D01*
Y7495D01*
X17588D01*
Y7490D01*
X17593D01*
Y7485D01*
X17598D01*
Y7479D01*
X17603D01*
Y7474D01*
X17608D01*
Y7469D01*
X17613D01*
Y7464D01*
X17619D01*
Y7459D01*
X17624D01*
Y7448D01*
X17629D01*
Y7443D01*
X17634D01*
Y7438D01*
X17639D01*
Y7433D01*
X17644D01*
Y7428D01*
X17649D01*
Y7418D01*
X17655D01*
Y7412D01*
X17660D01*
Y7407D01*
X17665D01*
Y7402D01*
X17670D01*
Y7392D01*
X17675D01*
Y7387D01*
X17680D01*
Y7376D01*
X17686D01*
Y7371D01*
X17691D01*
Y7366D01*
X17696D01*
Y7356D01*
X17701D01*
Y7351D01*
X17706D01*
Y7340D01*
X17711D01*
Y7335D01*
X17716D01*
Y7330D01*
X17722D01*
Y7314D01*
X17727D01*
Y7309D01*
X17732D01*
Y7299D01*
X17737D01*
Y7294D01*
X17742D01*
Y7284D01*
X17747D01*
Y7273D01*
X17753D01*
Y7268D01*
X17758D01*
Y7258D01*
X17763D01*
Y7247D01*
X17768D01*
Y7237D01*
X17773D01*
Y7222D01*
X17778D01*
Y7216D01*
X17784D01*
Y7201D01*
X17789D01*
Y7196D01*
X17794D01*
Y7180D01*
X17799D01*
Y7170D01*
X17804D01*
Y7160D01*
X17809D01*
Y7144D01*
X17814D01*
Y7134D01*
X17820D01*
Y7113D01*
X17825D01*
Y7103D01*
X17830D01*
Y7088D01*
X17835D01*
Y7072D01*
X17840D01*
Y7062D01*
X17845D01*
Y7036D01*
X17851D01*
Y7021D01*
X17856D01*
Y6995D01*
X17861D01*
Y6979D01*
X17866D01*
Y6959D01*
X17871D01*
Y6923D01*
X17876D01*
Y6897D01*
X17881D01*
Y6851D01*
X17887D01*
Y6784D01*
X17892D01*
Y2552D01*
X17887D01*
Y2485D01*
X17881D01*
Y2438D01*
X17876D01*
Y2412D01*
X17871D01*
Y2376D01*
X17866D01*
Y2356D01*
X17861D01*
Y2340D01*
X17856D01*
Y2314D01*
X17851D01*
Y2299D01*
X17845D01*
Y2273D01*
X17840D01*
Y2263D01*
X17835D01*
Y2247D01*
X17830D01*
Y2232D01*
X17825D01*
Y2222D01*
X17820D01*
Y2201D01*
X17814D01*
Y2191D01*
X17809D01*
Y2175D01*
X17804D01*
Y2165D01*
X17799D01*
Y2155D01*
X17794D01*
Y2139D01*
X17789D01*
Y2134D01*
X17784D01*
Y2119D01*
X17778D01*
Y2113D01*
X17773D01*
Y2098D01*
X17768D01*
Y2088D01*
X17763D01*
Y2077D01*
X17758D01*
Y2067D01*
X17753D01*
Y2062D01*
X17747D01*
Y2052D01*
X17742D01*
Y2041D01*
X17737D01*
Y2036D01*
X17732D01*
Y2026D01*
X17727D01*
Y2021D01*
X17722D01*
Y2005D01*
X17716D01*
Y2000D01*
X17711D01*
Y1995D01*
X17706D01*
Y1985D01*
X17701D01*
Y1979D01*
X17696D01*
Y1969D01*
X17691D01*
Y1964D01*
X17686D01*
Y1959D01*
X17680D01*
Y1948D01*
X17675D01*
Y1943D01*
X17670D01*
Y1933D01*
X17665D01*
Y1928D01*
X17660D01*
Y1923D01*
X17655D01*
Y1918D01*
X17649D01*
Y1907D01*
X17644D01*
Y1902D01*
X17639D01*
Y1897D01*
X17634D01*
Y1892D01*
X17629D01*
Y1887D01*
X17624D01*
Y1876D01*
X17619D01*
Y1871D01*
X17613D01*
Y1866D01*
X17608D01*
Y1861D01*
X17603D01*
Y1856D01*
X17598D01*
Y1851D01*
X17593D01*
Y1845D01*
X17588D01*
Y1840D01*
X17582D01*
Y1835D01*
X17577D01*
Y1830D01*
X17572D01*
Y1820D01*
X17562D01*
Y1809D01*
X17552D01*
Y1804D01*
X17546D01*
Y1799D01*
X17541D01*
Y1794D01*
X17536D01*
Y1789D01*
X17531D01*
Y1784D01*
X17526D01*
Y1778D01*
X17521D01*
Y1773D01*
X17510D01*
Y1763D01*
X17500D01*
Y1758D01*
X17495D01*
Y1753D01*
X17490D01*
Y1747D01*
X17485D01*
Y1742D01*
X17479D01*
Y1737D01*
X17469D01*
Y1732D01*
X17464D01*
Y1727D01*
X17459D01*
Y1722D01*
X17448D01*
Y1717D01*
X17443D01*
Y1711D01*
X17433D01*
Y1706D01*
X17428D01*
Y1701D01*
X17423D01*
Y1696D01*
X17412D01*
Y1691D01*
X17407D01*
Y1686D01*
X17397D01*
Y1680D01*
X17392D01*
Y1675D01*
X17381D01*
Y1670D01*
X17376D01*
Y1665D01*
X17366D01*
Y1660D01*
X17356D01*
Y1655D01*
X17351D01*
Y1649D01*
X17340D01*
Y1644D01*
X17330D01*
Y1639D01*
X17325D01*
Y1634D01*
X17314D01*
Y1629D01*
X17304D01*
Y1624D01*
X17289D01*
Y1619D01*
X17284D01*
Y1613D01*
X17268D01*
Y1608D01*
X17258D01*
Y1603D01*
X17253D01*
Y1598D01*
X17237D01*
Y1593D01*
X17232D01*
Y1588D01*
X17211D01*
Y1582D01*
X17201D01*
Y1577D01*
X17186D01*
Y1572D01*
X17175D01*
Y1567D01*
X17160D01*
Y1562D01*
X17144D01*
Y1557D01*
X17134D01*
Y1552D01*
X17113D01*
Y1546D01*
X17098D01*
Y1541D01*
X17077D01*
Y1536D01*
X17052D01*
Y1531D01*
X17041D01*
Y1526D01*
X17010D01*
Y1521D01*
X16985D01*
Y1515D01*
X16948D01*
Y1510D01*
X16912D01*
Y1505D01*
X16845D01*
Y1500D01*
X10655D01*
Y1505D01*
X10588D01*
Y1510D01*
X10552D01*
Y1515D01*
X10515D01*
Y1521D01*
X10490D01*
Y1526D01*
X10459D01*
Y1531D01*
X10448D01*
Y1536D01*
X10423D01*
Y1541D01*
X10402D01*
Y1546D01*
X10387D01*
Y1552D01*
X10366D01*
Y1557D01*
X10356D01*
Y1562D01*
X10340D01*
Y1567D01*
X10325D01*
Y1572D01*
X10314D01*
Y1577D01*
X10299D01*
Y1582D01*
X10289D01*
Y1588D01*
X10268D01*
Y1593D01*
X10263D01*
Y1598D01*
X10247D01*
Y1603D01*
X10242D01*
Y1608D01*
X10232D01*
Y1613D01*
X10216D01*
Y1619D01*
X10211D01*
Y1624D01*
X10196D01*
Y1629D01*
X10186D01*
Y1634D01*
X10175D01*
Y1639D01*
X10170D01*
Y1644D01*
X10160D01*
Y1649D01*
X10149D01*
Y1655D01*
X10144D01*
Y1660D01*
X10134D01*
Y1665D01*
X10124D01*
Y1670D01*
X10119D01*
Y1675D01*
X10108D01*
Y1680D01*
X10103D01*
Y1686D01*
X10093D01*
Y1691D01*
X10088D01*
Y1696D01*
X10077D01*
Y1701D01*
X10072D01*
Y1706D01*
X10067D01*
Y1711D01*
X10057D01*
Y1717D01*
X10052D01*
Y1722D01*
X10041D01*
Y1727D01*
X10036D01*
Y1732D01*
X10031D01*
Y1737D01*
X10021D01*
Y1742D01*
X10015D01*
Y1747D01*
X10010D01*
Y1753D01*
X10005D01*
Y1758D01*
X10000D01*
Y1763D01*
X9990D01*
Y1773D01*
X9979D01*
Y1778D01*
X9974D01*
Y1784D01*
X9969D01*
Y1789D01*
X9964D01*
Y1794D01*
X9959D01*
Y1799D01*
X9954D01*
Y1804D01*
X9948D01*
Y1809D01*
X9938D01*
Y1820D01*
X9928D01*
Y1830D01*
X9923D01*
Y1835D01*
X9918D01*
Y1840D01*
X9912D01*
Y1845D01*
X9907D01*
Y1851D01*
X9902D01*
Y1856D01*
X9897D01*
Y1861D01*
X9892D01*
Y1866D01*
X9887D01*
Y1871D01*
X9881D01*
Y1876D01*
X9876D01*
Y1887D01*
X9871D01*
Y1892D01*
X9866D01*
Y1897D01*
X9861D01*
Y1902D01*
X9856D01*
Y1907D01*
X9851D01*
Y1918D01*
X9845D01*
Y1923D01*
X9840D01*
Y1928D01*
X9835D01*
Y1933D01*
X9830D01*
Y1943D01*
X9825D01*
Y1948D01*
X9820D01*
Y1959D01*
X9814D01*
Y1964D01*
X9809D01*
Y1969D01*
X9804D01*
Y1979D01*
X9799D01*
Y1985D01*
X9794D01*
Y1995D01*
X9789D01*
Y2000D01*
X9784D01*
Y2005D01*
X9778D01*
Y2021D01*
X9773D01*
Y2026D01*
X9768D01*
Y2036D01*
X9763D01*
Y2041D01*
X9758D01*
Y2052D01*
X9753D01*
Y2062D01*
X9747D01*
Y2067D01*
X9742D01*
Y2077D01*
X9737D01*
Y2088D01*
X9732D01*
Y2098D01*
X9727D01*
Y2113D01*
X9722D01*
Y2119D01*
X9717D01*
Y2134D01*
X9711D01*
Y2139D01*
X9706D01*
Y2155D01*
X9701D01*
Y2165D01*
X9696D01*
Y2175D01*
X9691D01*
Y2191D01*
X9686D01*
Y2201D01*
X9680D01*
Y2222D01*
X9675D01*
Y2232D01*
X9670D01*
Y2247D01*
X9665D01*
Y2263D01*
X9660D01*
Y2273D01*
X9655D01*
Y2299D01*
X9649D01*
Y2314D01*
X9644D01*
Y2340D01*
X9639D01*
Y2356D01*
X9634D01*
Y2376D01*
X9629D01*
Y2412D01*
X9624D01*
Y2438D01*
X9619D01*
Y2485D01*
X9613D01*
Y2552D01*
X9608D01*
Y6784D01*
X9613D01*
Y6851D01*
X9619D01*
Y6897D01*
X9624D01*
Y6923D01*
X9629D01*
Y6959D01*
X9634D01*
Y6979D01*
X9639D01*
Y6995D01*
X9644D01*
Y7021D01*
X9649D01*
Y7036D01*
X9655D01*
Y7062D01*
X9660D01*
Y7072D01*
X9665D01*
Y7088D01*
X9670D01*
Y7103D01*
X9675D01*
Y7113D01*
X9680D01*
Y7134D01*
X9686D01*
Y7144D01*
X9691D01*
Y7160D01*
X9696D01*
Y7170D01*
X9701D01*
Y7180D01*
X9706D01*
Y7196D01*
X9711D01*
Y7201D01*
X9717D01*
Y7216D01*
X9722D01*
Y7222D01*
X9727D01*
Y7237D01*
X9732D01*
Y7247D01*
X9737D01*
Y7258D01*
X9742D01*
Y7268D01*
X9747D01*
Y7273D01*
X9753D01*
Y7284D01*
X9758D01*
Y7294D01*
X9763D01*
Y7299D01*
X9768D01*
Y7309D01*
X9773D01*
Y7314D01*
X9778D01*
Y7330D01*
X9784D01*
Y7335D01*
X9789D01*
Y7340D01*
X9794D01*
Y7351D01*
X9799D01*
Y7356D01*
X9804D01*
Y7366D01*
X9809D01*
Y7371D01*
X9814D01*
Y7376D01*
X9820D01*
Y7387D01*
X9825D01*
Y7392D01*
X9830D01*
Y7402D01*
X9835D01*
Y7407D01*
X9840D01*
Y7412D01*
X9845D01*
Y7418D01*
X9851D01*
Y7428D01*
X9856D01*
Y7433D01*
X9861D01*
Y7438D01*
X9866D01*
Y7443D01*
X9871D01*
Y7448D01*
X9876D01*
Y7459D01*
X9881D01*
Y7464D01*
X9887D01*
Y7469D01*
X9892D01*
Y7474D01*
X9897D01*
Y7479D01*
X9902D01*
Y7485D01*
X9907D01*
Y7490D01*
X9912D01*
Y7495D01*
X9918D01*
Y7500D01*
X9923D01*
Y7505D01*
X9928D01*
Y7515D01*
X9938D01*
Y7526D01*
X9948D01*
Y7531D01*
X9954D01*
Y7536D01*
X9959D01*
Y7541D01*
X9964D01*
Y7546D01*
X9969D01*
Y7552D01*
X9974D01*
Y7557D01*
X9979D01*
Y7562D01*
X9990D01*
Y7572D01*
X10000D01*
Y7577D01*
X10005D01*
Y7582D01*
X10010D01*
Y7588D01*
X10015D01*
Y7593D01*
X10021D01*
Y7598D01*
X10031D01*
Y7603D01*
X10036D01*
Y7608D01*
X10041D01*
Y7613D01*
X10052D01*
Y7619D01*
X10057D01*
Y7624D01*
X10067D01*
Y7629D01*
X10072D01*
Y7634D01*
X10077D01*
Y7639D01*
X10088D01*
Y7644D01*
X10093D01*
Y7649D01*
X10103D01*
Y7655D01*
X10108D01*
Y7660D01*
X10119D01*
Y7665D01*
X10124D01*
Y7670D01*
X10134D01*
Y7675D01*
X10144D01*
Y7680D01*
X10149D01*
Y7686D01*
X10160D01*
Y7691D01*
X10170D01*
Y7696D01*
X10175D01*
Y7701D01*
X10186D01*
Y7706D01*
X10196D01*
Y7711D01*
X10211D01*
Y7716D01*
X10216D01*
Y7722D01*
X10232D01*
Y7727D01*
X10242D01*
Y7732D01*
X10247D01*
Y7737D01*
X10263D01*
Y7742D01*
X10268D01*
Y7747D01*
X10289D01*
Y7753D01*
X10299D01*
Y7758D01*
X10314D01*
Y7763D01*
X10325D01*
Y7768D01*
X10340D01*
Y7773D01*
X10356D01*
Y7778D01*
X10366D01*
Y7784D01*
X10387D01*
Y7789D01*
X10402D01*
Y7794D01*
X10423D01*
Y7799D01*
X10448D01*
Y7804D01*
X10459D01*
Y7809D01*
X10490D01*
Y7814D01*
X10515D01*
Y7820D01*
X10552D01*
Y7825D01*
X10588D01*
Y7830D01*
X10655D01*
Y7835D01*
X16845D01*
Y7830D01*
D02*
G37*
G36*
X64386Y17818D02*
X65705D01*
Y17160D01*
X65704D01*
Y17159D01*
X65045D01*
Y16500D01*
X65704D01*
Y16499D01*
X65705D01*
Y15841D01*
X66364D01*
Y14523D01*
X65705D01*
Y15182D01*
X65046D01*
Y15183D01*
X65045D01*
Y15841D01*
X64386D01*
Y15183D01*
X64386D01*
Y15182D01*
X63727D01*
Y15841D01*
X61750D01*
Y15182D01*
X62408D01*
Y15181D01*
X62409D01*
Y14523D01*
X61750D01*
Y15182D01*
X61092D01*
Y15183D01*
X61091D01*
Y15841D01*
X60432D01*
Y15183D01*
X60431D01*
Y15182D01*
X59773D01*
Y14523D01*
X59114D01*
Y15841D01*
X59773D01*
Y16499D01*
X59774D01*
Y16500D01*
X60432D01*
Y17159D01*
X59774D01*
Y17160D01*
X59773D01*
Y17818D01*
X59114D01*
Y18292D01*
Y18293D01*
Y18477D01*
X59772D01*
Y18476D01*
X59773D01*
Y17818D01*
X61091D01*
Y16500D01*
X61750D01*
Y17818D01*
X61091D01*
Y19136D01*
X61750D01*
Y18477D01*
X63727D01*
Y19136D01*
X64386D01*
Y17818D01*
D02*
G37*
G36*
X66364D02*
X65705D01*
Y18020D01*
Y18021D01*
Y18476D01*
X65705D01*
Y18477D01*
X66364D01*
Y17818D01*
D02*
G37*
G36*
X63727Y15130D02*
Y15129D01*
Y14523D01*
X63068D01*
Y15181D01*
X63069D01*
Y15182D01*
X63727D01*
Y15130D01*
D02*
G37*
%LPC*%
G36*
X16856Y7345D02*
X10644D01*
Y7340D01*
X10598D01*
Y7335D01*
X10572D01*
Y7330D01*
X10557D01*
Y7325D01*
X10531D01*
Y7320D01*
X10521D01*
Y7314D01*
X10500D01*
Y7309D01*
X10490D01*
Y7304D01*
X10474D01*
Y7299D01*
X10464D01*
Y7294D01*
X10454D01*
Y7289D01*
X10438D01*
Y7284D01*
X10433D01*
Y7278D01*
X10423D01*
Y7273D01*
X10412D01*
Y7268D01*
X10402D01*
Y7263D01*
X10392D01*
Y7258D01*
X10387D01*
Y7253D01*
X10376D01*
Y7247D01*
X10366D01*
Y7242D01*
X10361D01*
Y7237D01*
X10356D01*
Y7232D01*
X10345D01*
Y7227D01*
X10340D01*
Y7222D01*
X10335D01*
Y7216D01*
X10325D01*
Y7211D01*
X10320D01*
Y7206D01*
X10314D01*
Y7201D01*
X10309D01*
Y7196D01*
X10304D01*
Y7191D01*
X10294D01*
Y7186D01*
X10289D01*
Y7180D01*
X10283D01*
Y7175D01*
X10278D01*
Y7170D01*
X10273D01*
Y7165D01*
X10268D01*
Y7160D01*
X10263D01*
Y7155D01*
X10258D01*
Y7149D01*
X10253D01*
Y7139D01*
X10247D01*
Y7134D01*
X10242D01*
Y7129D01*
X10237D01*
Y7124D01*
X10232D01*
Y7119D01*
X10227D01*
Y7113D01*
X10222D01*
Y7103D01*
X10216D01*
Y7098D01*
X10211D01*
Y7088D01*
X10206D01*
Y7082D01*
X10201D01*
Y7077D01*
X10196D01*
Y7067D01*
X10191D01*
Y7057D01*
X10186D01*
Y7052D01*
X10180D01*
Y7041D01*
X10175D01*
Y7031D01*
X10170D01*
Y7026D01*
X10165D01*
Y7015D01*
X10160D01*
Y7000D01*
X10155D01*
Y6995D01*
X10149D01*
Y6979D01*
X10144D01*
Y6974D01*
X10139D01*
Y6954D01*
X10134D01*
Y6943D01*
X10129D01*
Y6928D01*
X10124D01*
Y6907D01*
X10119D01*
Y6892D01*
X10113D01*
Y6866D01*
X10108D01*
Y6845D01*
X10103D01*
Y6809D01*
X10098D01*
Y2526D01*
X10103D01*
Y2490D01*
X10108D01*
Y2469D01*
X10113D01*
Y2443D01*
X10119D01*
Y2428D01*
X10124D01*
Y2407D01*
X10129D01*
Y2392D01*
X10134D01*
Y2381D01*
X10139D01*
Y2361D01*
X10144D01*
Y2356D01*
X10149D01*
Y2340D01*
X10155D01*
Y2335D01*
X10160D01*
Y2320D01*
X10165D01*
Y2309D01*
X10170D01*
Y2304D01*
X10175D01*
Y2294D01*
X10180D01*
Y2284D01*
X10186D01*
Y2278D01*
X10191D01*
Y2268D01*
X10196D01*
Y2258D01*
X10201D01*
Y2253D01*
X10206D01*
Y2247D01*
X10211D01*
Y2237D01*
X10216D01*
Y2232D01*
X10222D01*
Y2222D01*
X10227D01*
Y2217D01*
X10232D01*
Y2211D01*
X10237D01*
Y2206D01*
X10242D01*
Y2201D01*
X10247D01*
Y2191D01*
X10253D01*
Y2186D01*
X10258D01*
Y2180D01*
X10263D01*
Y2175D01*
X10268D01*
Y2170D01*
X10273D01*
Y2165D01*
X10278D01*
Y2160D01*
X10283D01*
Y2155D01*
X10289D01*
Y2149D01*
X10294D01*
Y2144D01*
X10304D01*
Y2139D01*
X10309D01*
Y2134D01*
X10314D01*
Y2129D01*
X10320D01*
Y2124D01*
X10325D01*
Y2119D01*
X10335D01*
Y2113D01*
X10340D01*
Y2108D01*
X10345D01*
Y2103D01*
X10356D01*
Y2098D01*
X10361D01*
Y2093D01*
X10366D01*
Y2088D01*
X10376D01*
Y2082D01*
X10387D01*
Y2077D01*
X10392D01*
Y2072D01*
X10402D01*
Y2067D01*
X10412D01*
Y2062D01*
X10423D01*
Y2057D01*
X10433D01*
Y2052D01*
X10438D01*
Y2046D01*
X10454D01*
Y2041D01*
X10464D01*
Y2036D01*
X10474D01*
Y2031D01*
X10490D01*
Y2026D01*
X10500D01*
Y2021D01*
X10521D01*
Y2015D01*
X10531D01*
Y2010D01*
X10557D01*
Y2005D01*
X10572D01*
Y2000D01*
X10598D01*
Y1995D01*
X10644D01*
Y1990D01*
X16861D01*
Y1995D01*
X16902D01*
Y2000D01*
X16928D01*
Y2005D01*
X16943D01*
Y2010D01*
X16969D01*
Y2015D01*
X16979D01*
Y2021D01*
X17000D01*
Y2026D01*
X17010D01*
Y2031D01*
X17026D01*
Y2036D01*
X17036D01*
Y2041D01*
X17046D01*
Y2046D01*
X17062D01*
Y2052D01*
X17067D01*
Y2057D01*
X17077D01*
Y2062D01*
X17088D01*
Y2067D01*
X17098D01*
Y2072D01*
X17108D01*
Y2077D01*
X17113D01*
Y2082D01*
X17124D01*
Y2088D01*
X17134D01*
Y2093D01*
X17139D01*
Y2098D01*
X17144D01*
Y2103D01*
X17155D01*
Y2108D01*
X17160D01*
Y2113D01*
X17165D01*
Y2119D01*
X17175D01*
Y2124D01*
X17180D01*
Y2129D01*
X17186D01*
Y2134D01*
X17191D01*
Y2139D01*
X17196D01*
Y2144D01*
X17206D01*
Y2149D01*
X17211D01*
Y2155D01*
X17216D01*
Y2160D01*
X17222D01*
Y2165D01*
X17227D01*
Y2170D01*
X17232D01*
Y2175D01*
X17237D01*
Y2180D01*
X17242D01*
Y2186D01*
X17247D01*
Y2191D01*
X17253D01*
Y2201D01*
X17258D01*
Y2206D01*
X17263D01*
Y2211D01*
X17268D01*
Y2217D01*
X17273D01*
Y2222D01*
X17278D01*
Y2232D01*
X17284D01*
Y2237D01*
X17289D01*
Y2247D01*
X17294D01*
Y2253D01*
X17299D01*
Y2258D01*
X17304D01*
Y2268D01*
X17309D01*
Y2278D01*
X17314D01*
Y2284D01*
X17320D01*
Y2289D01*
X17325D01*
Y2304D01*
X17330D01*
Y2309D01*
X17335D01*
Y2320D01*
X17340D01*
Y2335D01*
X17345D01*
Y2340D01*
X17351D01*
Y2356D01*
X17356D01*
Y2361D01*
X17361D01*
Y2381D01*
X17366D01*
Y2392D01*
X17371D01*
Y2407D01*
X17376D01*
Y2428D01*
X17381D01*
Y2443D01*
X17387D01*
Y2469D01*
X17392D01*
Y2490D01*
X17397D01*
Y2526D01*
X17402D01*
Y6809D01*
X17397D01*
Y6845D01*
X17392D01*
Y6866D01*
X17387D01*
Y6892D01*
X17381D01*
Y6907D01*
X17376D01*
Y6928D01*
X17371D01*
Y6943D01*
X17366D01*
Y6954D01*
X17361D01*
Y6974D01*
X17356D01*
Y6979D01*
X17351D01*
Y6995D01*
X17345D01*
Y7000D01*
X17340D01*
Y7015D01*
X17335D01*
Y7026D01*
X17330D01*
Y7031D01*
X17325D01*
Y7041D01*
X17320D01*
Y7052D01*
X17314D01*
Y7057D01*
X17309D01*
Y7067D01*
X17304D01*
Y7077D01*
X17299D01*
Y7082D01*
X17294D01*
Y7088D01*
X17289D01*
Y7098D01*
X17284D01*
Y7103D01*
X17278D01*
Y7113D01*
X17273D01*
Y7119D01*
X17268D01*
Y7124D01*
X17263D01*
Y7129D01*
X17258D01*
Y7134D01*
X17253D01*
Y7144D01*
X17247D01*
Y7149D01*
X17242D01*
Y7155D01*
X17237D01*
Y7160D01*
X17232D01*
Y7165D01*
X17227D01*
Y7170D01*
X17222D01*
Y7175D01*
X17216D01*
Y7180D01*
X17211D01*
Y7186D01*
X17206D01*
Y7191D01*
X17196D01*
Y7196D01*
X17191D01*
Y7201D01*
X17186D01*
Y7206D01*
X17180D01*
Y7211D01*
X17175D01*
Y7216D01*
X17165D01*
Y7222D01*
X17160D01*
Y7227D01*
X17155D01*
Y7232D01*
X17144D01*
Y7237D01*
X17139D01*
Y7242D01*
X17134D01*
Y7247D01*
X17124D01*
Y7253D01*
X17113D01*
Y7258D01*
X17108D01*
Y7263D01*
X17098D01*
Y7268D01*
X17088D01*
Y7273D01*
X17077D01*
Y7278D01*
X17067D01*
Y7284D01*
X17062D01*
Y7289D01*
X17046D01*
Y7294D01*
X17036D01*
Y7299D01*
X17026D01*
Y7304D01*
X17010D01*
Y7309D01*
X17000D01*
Y7314D01*
X16979D01*
Y7320D01*
X16969D01*
Y7325D01*
X16943D01*
Y7330D01*
X16928D01*
Y7335D01*
X16902D01*
Y7340D01*
X16856D01*
Y7345D01*
D02*
G37*
%LPD*%
G36*
X13619Y6979D02*
X13629D01*
Y2727D01*
X13624D01*
Y2722D01*
X13619D01*
Y2716D01*
X13608D01*
Y2722D01*
X12912D01*
Y2716D01*
X12907D01*
Y2722D01*
X12897D01*
Y2959D01*
X12907D01*
Y2964D01*
X12918D01*
Y2959D01*
X12923D01*
Y2964D01*
X13361D01*
Y2959D01*
X13371D01*
Y2964D01*
X13381D01*
Y2969D01*
X13387D01*
Y3479D01*
Y3485D01*
Y4541D01*
X13381D01*
Y4552D01*
X13376D01*
Y4557D01*
X13371D01*
Y4562D01*
X13366D01*
Y4567D01*
X13356D01*
Y4572D01*
X13351D01*
Y4577D01*
X13345D01*
Y4582D01*
X13340D01*
Y4588D01*
X13335D01*
Y4593D01*
X13330D01*
Y4598D01*
X13325D01*
Y4603D01*
X13320D01*
Y4608D01*
X13314D01*
Y4613D01*
X13309D01*
Y4619D01*
X13304D01*
Y4624D01*
X13294D01*
Y4629D01*
X13289D01*
Y4634D01*
X13284D01*
Y4639D01*
X13278D01*
Y4644D01*
X13273D01*
Y4649D01*
X13268D01*
Y4655D01*
X13263D01*
Y4660D01*
X13258D01*
Y4665D01*
X13253D01*
Y4670D01*
X13247D01*
Y4675D01*
X13237D01*
Y4680D01*
X13232D01*
Y4686D01*
X13227D01*
Y4691D01*
X13222D01*
Y4696D01*
X13217D01*
Y4701D01*
X13211D01*
Y4706D01*
X13206D01*
Y4711D01*
X13201D01*
Y4716D01*
X13196D01*
Y4722D01*
X13186D01*
Y4727D01*
X13180D01*
Y4732D01*
X13175D01*
Y4737D01*
X13170D01*
Y4742D01*
X13165D01*
Y4747D01*
X13160D01*
Y4753D01*
X13155D01*
Y4758D01*
X13149D01*
Y4763D01*
X13144D01*
Y4768D01*
X13139D01*
Y4773D01*
X13134D01*
Y4778D01*
X13124D01*
Y4784D01*
X13119D01*
Y4789D01*
X13113D01*
Y4794D01*
X13108D01*
Y4799D01*
X13103D01*
Y4804D01*
X13098D01*
Y4809D01*
X13093D01*
Y4814D01*
X13088D01*
Y4820D01*
X13082D01*
Y4825D01*
X13072D01*
Y4830D01*
X13067D01*
Y4835D01*
X13062D01*
Y4840D01*
X13057D01*
Y4845D01*
X13052D01*
Y4851D01*
X13046D01*
Y4856D01*
X13041D01*
Y4861D01*
X13036D01*
Y4866D01*
X13031D01*
Y4871D01*
X13026D01*
Y4876D01*
X13021D01*
Y4881D01*
X13010D01*
Y4887D01*
X13005D01*
Y4892D01*
X13000D01*
Y4897D01*
X12995D01*
Y4902D01*
X12990D01*
Y4907D01*
X12985D01*
Y4912D01*
X12979D01*
Y4918D01*
X12974D01*
Y4923D01*
X12969D01*
Y4928D01*
X12959D01*
Y4933D01*
X12954D01*
Y4938D01*
X12948D01*
Y4943D01*
X12943D01*
Y4948D01*
X12938D01*
Y4954D01*
X12933D01*
Y4959D01*
X12928D01*
Y4964D01*
X12923D01*
Y4969D01*
X12918D01*
Y4974D01*
X12912D01*
Y4979D01*
X12902D01*
Y4985D01*
X12897D01*
Y4990D01*
X12892D01*
Y4995D01*
X12887D01*
Y5000D01*
X12881D01*
Y5005D01*
X12876D01*
Y5010D01*
X12871D01*
Y5015D01*
X12866D01*
Y5021D01*
X12861D01*
Y5026D01*
X12856D01*
Y5031D01*
X12851D01*
Y5036D01*
X12840D01*
Y5041D01*
X12835D01*
Y5046D01*
X12830D01*
Y5052D01*
X12825D01*
Y5057D01*
X12820D01*
Y5062D01*
X12814D01*
Y5067D01*
X12809D01*
Y5072D01*
X12804D01*
Y5077D01*
X12799D01*
Y5082D01*
X12789D01*
Y5088D01*
X12784D01*
Y5093D01*
X12778D01*
Y5098D01*
X12773D01*
Y5103D01*
X12768D01*
Y5108D01*
X12763D01*
Y5113D01*
X12758D01*
Y5119D01*
X12753D01*
Y5124D01*
X12747D01*
Y5129D01*
X12742D01*
Y5134D01*
X12737D01*
Y5139D01*
X12727D01*
Y5144D01*
X12722D01*
Y5149D01*
X12716D01*
Y5155D01*
X12711D01*
Y5160D01*
X12706D01*
Y5165D01*
X12701D01*
Y5170D01*
X12696D01*
Y5175D01*
X12691D01*
Y5180D01*
X12686D01*
Y5186D01*
X12675D01*
Y5191D01*
X12670D01*
Y5196D01*
X12665D01*
Y5201D01*
X12660D01*
Y5206D01*
X12655D01*
Y5211D01*
X12649D01*
Y5216D01*
X12644D01*
Y5222D01*
X12639D01*
Y5227D01*
X12634D01*
Y5232D01*
X12629D01*
Y5237D01*
X12624D01*
Y5242D01*
X12613D01*
Y5247D01*
X12608D01*
Y5253D01*
X12603D01*
Y5258D01*
X12598D01*
Y5263D01*
X12593D01*
Y5268D01*
X12588D01*
Y5273D01*
X12577D01*
Y5284D01*
X12572D01*
Y5289D01*
X12562D01*
Y5299D01*
X12552D01*
Y5304D01*
X12546D01*
Y5309D01*
X12541D01*
Y5314D01*
X12536D01*
Y5320D01*
X12531D01*
Y5325D01*
X12526D01*
Y5330D01*
X12521D01*
Y5335D01*
X12510D01*
Y5340D01*
X12505D01*
Y5345D01*
X12500D01*
Y5351D01*
X12495D01*
Y5356D01*
X12490D01*
Y5361D01*
X12485D01*
Y5366D01*
X12479D01*
Y5371D01*
X12474D01*
Y5376D01*
X12469D01*
Y5381D01*
X12464D01*
Y5387D01*
X12459D01*
Y5392D01*
X12454D01*
Y5397D01*
X12443D01*
Y5402D01*
X12438D01*
Y5407D01*
X12433D01*
Y5412D01*
X12428D01*
Y5418D01*
X12423D01*
Y5423D01*
X12418D01*
Y5428D01*
X12412D01*
Y5433D01*
X12407D01*
Y5438D01*
X12402D01*
Y5443D01*
X12392D01*
Y5448D01*
X12387D01*
Y5454D01*
X12381D01*
Y5459D01*
X12376D01*
Y5464D01*
X12371D01*
Y5469D01*
X12366D01*
Y5474D01*
X12361D01*
Y5479D01*
X12356D01*
Y5485D01*
X12351D01*
Y5490D01*
X12345D01*
Y5495D01*
X12340D01*
Y5500D01*
X12330D01*
Y5505D01*
X12325D01*
Y5510D01*
X12320D01*
Y5515D01*
X12314D01*
Y5521D01*
X12309D01*
Y5526D01*
X12304D01*
Y5531D01*
X12299D01*
Y5536D01*
X12294D01*
Y5541D01*
X12289D01*
Y5546D01*
X12278D01*
Y5552D01*
X12273D01*
Y5557D01*
X12268D01*
Y5562D01*
X12263D01*
Y5567D01*
X12258D01*
Y5572D01*
X12253D01*
Y5577D01*
X12247D01*
Y5582D01*
X12242D01*
Y5588D01*
X12237D01*
Y5593D01*
X12232D01*
Y5598D01*
X12222D01*
Y5603D01*
X12217D01*
Y5608D01*
X12211D01*
Y5613D01*
X12206D01*
Y5619D01*
X12201D01*
Y5624D01*
X12196D01*
Y5629D01*
X12191D01*
Y5634D01*
X12186D01*
Y5639D01*
X12180D01*
Y5644D01*
X12175D01*
Y5649D01*
X12170D01*
Y5655D01*
X12160D01*
Y5660D01*
X12155D01*
Y5665D01*
X12149D01*
Y5670D01*
X12144D01*
Y5675D01*
X12139D01*
Y5680D01*
X12134D01*
Y5686D01*
X12129D01*
Y5691D01*
X12124D01*
Y5696D01*
X12119D01*
Y5701D01*
X12108D01*
Y5706D01*
X12103D01*
Y5711D01*
X12098D01*
Y5716D01*
X12093D01*
Y5722D01*
X12088D01*
Y5727D01*
X12082D01*
Y5732D01*
X12077D01*
Y5737D01*
X12072D01*
Y5742D01*
X12062D01*
Y5753D01*
X12057D01*
Y5758D01*
X12046D01*
Y5753D01*
X12041D01*
Y5742D01*
X12036D01*
Y5727D01*
X12031D01*
Y5711D01*
X12026D01*
Y5696D01*
X12021D01*
Y5675D01*
X12015D01*
Y5660D01*
X12010D01*
Y5644D01*
X12005D01*
Y5629D01*
X12000D01*
Y5613D01*
X11995D01*
Y5598D01*
X11990D01*
Y5582D01*
X11985D01*
Y5562D01*
X11979D01*
Y5546D01*
X11974D01*
Y5531D01*
X11969D01*
Y5515D01*
X11964D01*
Y5500D01*
X11959D01*
Y5485D01*
X11954D01*
Y5469D01*
X11948D01*
Y5448D01*
X11943D01*
Y5433D01*
X11938D01*
Y5418D01*
X11933D01*
Y5402D01*
X11928D01*
Y5387D01*
X11923D01*
Y5371D01*
X11918D01*
Y5351D01*
X11912D01*
Y5340D01*
X11907D01*
Y5320D01*
X11902D01*
Y5304D01*
X11897D01*
Y5289D01*
X11892D01*
Y5273D01*
X11887D01*
Y5258D01*
X11881D01*
Y5237D01*
X11876D01*
Y5222D01*
X11871D01*
Y5206D01*
X11866D01*
Y5191D01*
X11861D01*
Y5175D01*
X11856D01*
Y5160D01*
X11851D01*
Y5144D01*
X11845D01*
Y5124D01*
X11840D01*
Y5113D01*
X11835D01*
Y5093D01*
X11830D01*
Y5077D01*
X11825D01*
Y5062D01*
X11820D01*
Y5046D01*
X11814D01*
Y5031D01*
X11809D01*
Y5010D01*
X11804D01*
Y4995D01*
X11799D01*
Y4979D01*
X11794D01*
Y4964D01*
X11789D01*
Y4948D01*
X11783D01*
Y4933D01*
X11778D01*
Y4918D01*
X11773D01*
Y4902D01*
X11768D01*
Y4881D01*
X11763D01*
Y4866D01*
X11758D01*
Y4851D01*
X11753D01*
Y4835D01*
X11747D01*
Y4820D01*
X11742D01*
Y4804D01*
X11737D01*
Y4789D01*
X11732D01*
Y4768D01*
X11727D01*
Y4753D01*
X11722D01*
Y4737D01*
X11716D01*
Y4722D01*
X11711D01*
Y4706D01*
X11706D01*
Y4691D01*
X11701D01*
Y4670D01*
X11696D01*
Y4655D01*
X11691D01*
Y4639D01*
X11686D01*
Y4624D01*
X11680D01*
Y4608D01*
X11675D01*
Y4593D01*
X11670D01*
Y4577D01*
X11665D01*
Y4562D01*
X11660D01*
Y4541D01*
X11655D01*
Y4531D01*
X11649D01*
Y4510D01*
X11644D01*
Y4495D01*
X11639D01*
Y4479D01*
X11634D01*
Y4464D01*
X11629D01*
Y4448D01*
X11624D01*
Y4428D01*
X11619D01*
Y4412D01*
X11613D01*
Y4397D01*
X11608D01*
Y4381D01*
X11603D01*
Y4366D01*
X11598D01*
Y4351D01*
X11593D01*
Y4335D01*
X11588D01*
Y4314D01*
X11582D01*
Y4299D01*
X11577D01*
Y4284D01*
X11572D01*
Y4268D01*
X11567D01*
Y4253D01*
X11562D01*
Y4237D01*
X11557D01*
Y4222D01*
X11552D01*
Y4201D01*
X11546D01*
Y4186D01*
X11541D01*
Y4170D01*
X11536D01*
Y4155D01*
X11531D01*
Y4139D01*
X11526D01*
Y4124D01*
X11521D01*
Y4108D01*
X11515D01*
Y4088D01*
X11510D01*
Y4072D01*
X11505D01*
Y4057D01*
X11500D01*
Y4041D01*
X11495D01*
Y4026D01*
X11490D01*
Y4010D01*
X11485D01*
Y3990D01*
X11479D01*
Y3979D01*
X11474D01*
Y3959D01*
X11469D01*
Y3943D01*
X11464D01*
Y3928D01*
X11459D01*
Y3912D01*
X11454D01*
Y3897D01*
X11448D01*
Y3876D01*
X11443D01*
Y3866D01*
X11438D01*
Y3845D01*
X11433D01*
Y3830D01*
X11428D01*
Y3814D01*
X11423D01*
Y3799D01*
X11418D01*
Y3784D01*
X11412D01*
Y3763D01*
X11407D01*
Y3753D01*
X11402D01*
Y3732D01*
X11397D01*
Y3716D01*
X11392D01*
Y3701D01*
X11387D01*
Y3686D01*
X11381D01*
Y3670D01*
X11376D01*
Y3649D01*
X11371D01*
Y3639D01*
X11366D01*
Y3619D01*
X11361D01*
Y3603D01*
X11356D01*
Y3588D01*
X11351D01*
Y3572D01*
X11345D01*
Y3557D01*
X11340D01*
Y3541D01*
X11335D01*
Y3521D01*
X11330D01*
Y3505D01*
X11325D01*
Y3490D01*
X11320D01*
Y3474D01*
X11314D01*
Y3459D01*
X11309D01*
Y3443D01*
X11304D01*
Y3428D01*
X11299D01*
Y3407D01*
X11294D01*
Y3392D01*
X11289D01*
Y3376D01*
X11284D01*
Y3361D01*
X11278D01*
Y3345D01*
X11273D01*
Y3330D01*
X11268D01*
Y3314D01*
X11263D01*
Y3294D01*
X11258D01*
Y3278D01*
X11253D01*
Y3263D01*
X11247D01*
Y3247D01*
X11242D01*
Y3232D01*
X11237D01*
Y3217D01*
X11232D01*
Y3201D01*
X11227D01*
Y3180D01*
X11222D01*
Y3165D01*
X11217D01*
Y3149D01*
X11211D01*
Y3134D01*
X11206D01*
Y3119D01*
X11201D01*
Y3103D01*
X11196D01*
Y3088D01*
X11201D01*
Y3082D01*
X11438D01*
Y2845D01*
X11433D01*
Y2840D01*
X10464D01*
Y2845D01*
X10459D01*
Y3077D01*
X10464D01*
Y3082D01*
X11067D01*
Y3088D01*
X11072D01*
Y3093D01*
X11077D01*
Y3113D01*
X11082D01*
Y3129D01*
X11088D01*
Y3144D01*
X11093D01*
Y3160D01*
X11098D01*
Y3175D01*
X11103D01*
Y3191D01*
X11108D01*
Y3206D01*
X11113D01*
Y3222D01*
X11119D01*
Y3237D01*
X11124D01*
Y3253D01*
X11129D01*
Y3273D01*
X11134D01*
Y3289D01*
X11139D01*
Y3304D01*
X11144D01*
Y3320D01*
X11149D01*
Y3335D01*
X11155D01*
Y3351D01*
X11160D01*
Y3366D01*
X11165D01*
Y3387D01*
X11170D01*
Y3397D01*
X11175D01*
Y3418D01*
X11180D01*
Y3433D01*
X11186D01*
Y3448D01*
X11191D01*
Y3464D01*
X11196D01*
Y3479D01*
X11201D01*
Y3495D01*
X11206D01*
Y3510D01*
X11211D01*
Y3526D01*
X11217D01*
Y3546D01*
X11222D01*
Y3562D01*
X11227D01*
Y3577D01*
X11232D01*
Y3593D01*
X11237D01*
Y3608D01*
X11242D01*
Y3624D01*
X11247D01*
Y3639D01*
X11253D01*
Y3655D01*
X11258D01*
Y3670D01*
X11263D01*
Y3691D01*
X11268D01*
Y3706D01*
X11273D01*
Y3722D01*
X11278D01*
Y3737D01*
X11284D01*
Y3753D01*
X11289D01*
Y3768D01*
X11294D01*
Y3784D01*
X11299D01*
Y3799D01*
X11304D01*
Y3814D01*
X11309D01*
Y3835D01*
X11314D01*
Y3851D01*
X11320D01*
Y3866D01*
X11325D01*
Y3881D01*
X11330D01*
Y3897D01*
X11335D01*
Y3912D01*
X11340D01*
Y3928D01*
X11345D01*
Y3943D01*
X11351D01*
Y3964D01*
X11356D01*
Y3979D01*
X11361D01*
Y3995D01*
X11366D01*
Y4010D01*
X11371D01*
Y4026D01*
X11376D01*
Y4041D01*
X11381D01*
Y4057D01*
X11387D01*
Y4072D01*
X11392D01*
Y4088D01*
X11397D01*
Y4108D01*
X11402D01*
Y4124D01*
X11407D01*
Y4139D01*
X11412D01*
Y4155D01*
X11418D01*
Y4170D01*
X11423D01*
Y4186D01*
X11428D01*
Y4201D01*
X11433D01*
Y4216D01*
X11438D01*
Y4232D01*
X11443D01*
Y4247D01*
X11448D01*
Y4268D01*
X11454D01*
Y4284D01*
X11459D01*
Y4299D01*
X11464D01*
Y4314D01*
X11469D01*
Y4330D01*
X11474D01*
Y4345D01*
X11479D01*
Y4361D01*
X11485D01*
Y4376D01*
X11490D01*
Y4397D01*
X11495D01*
Y4407D01*
X11500D01*
Y4428D01*
X11505D01*
Y4443D01*
X11510D01*
Y4459D01*
X11515D01*
Y4474D01*
X11521D01*
Y4490D01*
X11526D01*
Y4505D01*
X11531D01*
Y4521D01*
X11536D01*
Y4541D01*
X11541D01*
Y4557D01*
X11546D01*
Y4572D01*
X11552D01*
Y4588D01*
X11557D01*
Y4603D01*
X11562D01*
Y4619D01*
X11567D01*
Y4634D01*
X11572D01*
Y4649D01*
X11577D01*
Y4665D01*
X11582D01*
Y4680D01*
X11588D01*
Y4701D01*
X11593D01*
Y4716D01*
X11598D01*
Y4732D01*
X11603D01*
Y4747D01*
X11608D01*
Y4763D01*
X11613D01*
Y4778D01*
X11619D01*
Y4794D01*
X11624D01*
Y4814D01*
X11629D01*
Y4830D01*
X11634D01*
Y4845D01*
X11639D01*
Y4861D01*
X11644D01*
Y4876D01*
X11649D01*
Y4892D01*
X11655D01*
Y4907D01*
X11660D01*
Y4923D01*
X11665D01*
Y4938D01*
X11670D01*
Y4954D01*
X11675D01*
Y4974D01*
X11680D01*
Y4990D01*
X11686D01*
Y5005D01*
X11691D01*
Y5021D01*
X11696D01*
Y5036D01*
X11701D01*
Y5052D01*
X11706D01*
Y5067D01*
X11711D01*
Y5088D01*
X11716D01*
Y5098D01*
X11722D01*
Y5119D01*
X11727D01*
Y5134D01*
X11732D01*
Y5149D01*
X11737D01*
Y5165D01*
X11742D01*
Y5180D01*
X11747D01*
Y5196D01*
X11753D01*
Y5211D01*
X11758D01*
Y5227D01*
X11763D01*
Y5247D01*
X11768D01*
Y5263D01*
X11773D01*
Y5278D01*
X11778D01*
Y5289D01*
X11783D01*
Y5309D01*
X11789D01*
Y5325D01*
X11794D01*
Y5340D01*
X11799D01*
Y5356D01*
X11804D01*
Y5371D01*
X11809D01*
Y5392D01*
X11814D01*
Y5407D01*
X11820D01*
Y5423D01*
X11825D01*
Y5438D01*
X11830D01*
Y5454D01*
X11835D01*
Y5469D01*
X11840D01*
Y5485D01*
X11845D01*
Y5505D01*
X11851D01*
Y5515D01*
X11856D01*
Y5536D01*
X11861D01*
Y5552D01*
X11866D01*
Y5567D01*
X11871D01*
Y5582D01*
X11876D01*
Y5598D01*
X11881D01*
Y5613D01*
X11887D01*
Y5629D01*
X11892D01*
Y5644D01*
X11897D01*
Y5665D01*
X11902D01*
Y5680D01*
X11907D01*
Y5696D01*
X11912D01*
Y5711D01*
X11918D01*
Y5727D01*
X11923D01*
Y5742D01*
X11928D01*
Y5758D01*
X11933D01*
Y5773D01*
X11938D01*
Y5789D01*
X11943D01*
Y5809D01*
X11948D01*
Y5825D01*
X11954D01*
Y5840D01*
X11959D01*
Y5856D01*
X11964D01*
Y5871D01*
X11969D01*
Y5887D01*
X11974D01*
Y5902D01*
X11979D01*
Y5918D01*
X11985D01*
Y5938D01*
X11990D01*
Y5954D01*
X11995D01*
Y5969D01*
X12000D01*
Y5985D01*
X12005D01*
Y6000D01*
X12010D01*
Y6015D01*
X12015D01*
Y6031D01*
X12021D01*
Y6046D01*
X12026D01*
Y6062D01*
X12031D01*
Y6082D01*
X12036D01*
Y6093D01*
X12041D01*
Y6113D01*
X12046D01*
Y6129D01*
X12052D01*
Y6144D01*
X12057D01*
Y6160D01*
X12062D01*
Y6175D01*
X12067D01*
Y6191D01*
X12072D01*
Y6206D01*
X12077D01*
Y6227D01*
X12082D01*
Y6242D01*
X12088D01*
Y6258D01*
X12093D01*
Y6273D01*
X12098D01*
Y6289D01*
X12103D01*
Y6304D01*
X12108D01*
Y6320D01*
X12113D01*
Y6335D01*
X12119D01*
Y6356D01*
X12124D01*
Y6366D01*
X12129D01*
Y6387D01*
X12134D01*
Y6402D01*
X12139D01*
Y6418D01*
X12144D01*
Y6433D01*
X12149D01*
Y6448D01*
X12155D01*
Y6464D01*
X12160D01*
Y6479D01*
X12165D01*
Y6485D01*
X12170D01*
Y6490D01*
X12175D01*
Y6485D01*
X12180D01*
Y6479D01*
X12186D01*
Y6474D01*
X12191D01*
Y6469D01*
X12196D01*
Y6464D01*
X12201D01*
Y6459D01*
X12206D01*
Y6454D01*
X12211D01*
Y6448D01*
X12217D01*
Y6443D01*
X12222D01*
Y6438D01*
X12227D01*
Y6433D01*
X12232D01*
Y6428D01*
X12237D01*
Y6423D01*
X12242D01*
Y6418D01*
X12247D01*
Y6412D01*
X12253D01*
Y6407D01*
X12258D01*
Y6402D01*
X12263D01*
Y6397D01*
X12268D01*
Y6392D01*
X12273D01*
Y6387D01*
X12278D01*
Y6381D01*
X12284D01*
Y6376D01*
X12289D01*
Y6371D01*
X12294D01*
Y6366D01*
X12299D01*
Y6361D01*
X12304D01*
Y6356D01*
X12309D01*
Y6351D01*
X12314D01*
Y6345D01*
X12320D01*
Y6340D01*
X12325D01*
Y6335D01*
X12330D01*
Y6330D01*
X12335D01*
Y6325D01*
X12340D01*
Y6320D01*
X12345D01*
Y6314D01*
X12351D01*
Y6309D01*
X12356D01*
Y6304D01*
X12361D01*
Y6299D01*
X12366D01*
Y6294D01*
X12371D01*
Y6289D01*
X12376D01*
Y6284D01*
X12381D01*
Y6278D01*
X12387D01*
Y6273D01*
X12392D01*
Y6268D01*
X12397D01*
Y6263D01*
X12402D01*
Y6258D01*
X12407D01*
Y6253D01*
X12412D01*
Y6247D01*
X12418D01*
Y6242D01*
X12423D01*
Y6237D01*
X12428D01*
Y6232D01*
X12433D01*
Y6227D01*
X12438D01*
Y6222D01*
X12443D01*
Y6216D01*
X12448D01*
Y6211D01*
X12454D01*
Y6206D01*
X12459D01*
Y6201D01*
X12464D01*
Y6196D01*
X12469D01*
Y6191D01*
X12474D01*
Y6186D01*
X12479D01*
Y6180D01*
X12485D01*
Y6175D01*
X12490D01*
Y6170D01*
X12495D01*
Y6165D01*
X12500D01*
Y6160D01*
X12505D01*
Y6155D01*
X12510D01*
Y6149D01*
X12515D01*
Y6144D01*
X12521D01*
Y6139D01*
X12526D01*
Y6134D01*
X12531D01*
Y6129D01*
X12536D01*
Y6124D01*
X12541D01*
Y6119D01*
X12546D01*
Y6113D01*
X12552D01*
Y6108D01*
X12557D01*
Y6103D01*
X12562D01*
Y6098D01*
X12567D01*
Y6093D01*
X12572D01*
Y6088D01*
X12577D01*
Y6082D01*
X12582D01*
Y6077D01*
X12588D01*
Y6072D01*
X12593D01*
Y6067D01*
X12598D01*
Y6062D01*
X12603D01*
Y6057D01*
X12608D01*
Y6052D01*
X12613D01*
Y6046D01*
X12619D01*
Y6041D01*
X12624D01*
Y6036D01*
X12629D01*
Y6031D01*
X12634D01*
Y6026D01*
X12639D01*
Y6021D01*
X12644D01*
Y6015D01*
X12649D01*
Y6010D01*
X12655D01*
Y6005D01*
X12660D01*
Y6000D01*
X12665D01*
Y5995D01*
X12670D01*
Y5990D01*
X12675D01*
Y5985D01*
X12680D01*
Y5979D01*
X12686D01*
Y5974D01*
X12691D01*
Y5969D01*
X12696D01*
Y5964D01*
X12701D01*
Y5959D01*
X12706D01*
Y5954D01*
X12711D01*
Y5948D01*
X12716D01*
Y5943D01*
X12722D01*
Y5938D01*
X12727D01*
Y5933D01*
X12732D01*
Y5928D01*
X12737D01*
Y5923D01*
X12742D01*
Y5918D01*
X12747D01*
Y5912D01*
X12753D01*
Y5907D01*
X12758D01*
Y5902D01*
X12763D01*
Y5897D01*
X12768D01*
Y5892D01*
X12773D01*
Y5887D01*
X12778D01*
Y5881D01*
X12784D01*
Y5876D01*
X12789D01*
Y5871D01*
X12794D01*
Y5866D01*
X12799D01*
Y5861D01*
X12804D01*
Y5856D01*
X12809D01*
Y5851D01*
X12814D01*
Y5845D01*
X12820D01*
Y5840D01*
X12825D01*
Y5835D01*
X12830D01*
Y5830D01*
X12835D01*
Y5825D01*
X12840D01*
Y5820D01*
X12845D01*
Y5814D01*
X12851D01*
Y5809D01*
X12856D01*
Y5804D01*
X12861D01*
Y5799D01*
X12866D01*
Y5794D01*
X12871D01*
Y5789D01*
X12876D01*
Y5784D01*
X12881D01*
Y5778D01*
X12887D01*
Y5773D01*
X12892D01*
Y5768D01*
X12897D01*
Y5763D01*
X12902D01*
Y5758D01*
X12907D01*
Y5753D01*
X12912D01*
Y5742D01*
X12923D01*
Y5737D01*
X12928D01*
Y5732D01*
X12933D01*
Y5727D01*
X12938D01*
Y5722D01*
X12943D01*
Y5716D01*
X12948D01*
Y5711D01*
X12954D01*
Y5706D01*
X12959D01*
Y5701D01*
X12964D01*
Y5696D01*
X12969D01*
Y5691D01*
X12974D01*
Y5686D01*
X12979D01*
Y5680D01*
X12985D01*
Y5675D01*
X12990D01*
Y5670D01*
X12995D01*
Y5665D01*
X13000D01*
Y5660D01*
X13005D01*
Y5655D01*
X13010D01*
Y5649D01*
X13015D01*
Y5644D01*
X13021D01*
Y5639D01*
X13026D01*
Y5634D01*
X13031D01*
Y5629D01*
X13036D01*
Y5624D01*
X13041D01*
Y5619D01*
X13046D01*
Y5613D01*
X13052D01*
Y5608D01*
X13057D01*
Y5603D01*
X13062D01*
Y5598D01*
X13067D01*
Y5593D01*
X13072D01*
Y5588D01*
X13077D01*
Y5582D01*
X13082D01*
Y5577D01*
X13088D01*
Y5572D01*
X13093D01*
Y5567D01*
X13098D01*
Y5562D01*
X13103D01*
Y5557D01*
X13108D01*
Y5552D01*
X13113D01*
Y5546D01*
X13119D01*
Y5541D01*
X13124D01*
Y5536D01*
X13129D01*
Y5531D01*
X13134D01*
Y5526D01*
X13139D01*
Y5521D01*
X13144D01*
Y5515D01*
X13149D01*
Y5510D01*
X13155D01*
Y5505D01*
X13160D01*
Y5500D01*
X13165D01*
Y5495D01*
X13170D01*
Y5490D01*
X13175D01*
Y5485D01*
X13180D01*
Y5479D01*
X13186D01*
Y5474D01*
X13191D01*
Y5469D01*
X13196D01*
Y5464D01*
X13201D01*
Y5459D01*
X13206D01*
Y5454D01*
X13211D01*
Y5448D01*
X13217D01*
Y5443D01*
X13222D01*
Y5438D01*
X13227D01*
Y5433D01*
X13232D01*
Y5428D01*
X13237D01*
Y5423D01*
X13242D01*
Y5418D01*
X13247D01*
Y5412D01*
X13253D01*
Y5407D01*
X13258D01*
Y5402D01*
X13263D01*
Y5397D01*
X13268D01*
Y5392D01*
X13273D01*
Y5387D01*
X13278D01*
Y5381D01*
X13284D01*
Y5376D01*
X13289D01*
Y5371D01*
X13294D01*
Y5366D01*
X13299D01*
Y5361D01*
X13304D01*
Y5356D01*
X13309D01*
Y5351D01*
X13314D01*
Y5345D01*
X13320D01*
Y5340D01*
X13325D01*
Y5335D01*
X13330D01*
Y5330D01*
X13335D01*
Y5325D01*
X13340D01*
Y5320D01*
X13345D01*
Y5314D01*
X13351D01*
Y5309D01*
X13356D01*
Y5304D01*
X13361D01*
Y5299D01*
X13366D01*
Y5289D01*
X13387D01*
Y6732D01*
X13381D01*
Y6737D01*
X12778D01*
Y6747D01*
X12773D01*
Y6974D01*
X12778D01*
Y6979D01*
X13613D01*
Y6985D01*
X13619D01*
Y6979D01*
D02*
G37*
G36*
X13887D02*
X14727D01*
Y6742D01*
X14722D01*
Y6737D01*
X14119D01*
Y6727D01*
X14113D01*
Y6716D01*
X14119D01*
Y6500D01*
X14113D01*
Y6469D01*
X14119D01*
Y5773D01*
X14113D01*
Y5742D01*
X14119D01*
Y5304D01*
X14113D01*
Y5289D01*
X14119D01*
Y5284D01*
X14124D01*
Y5289D01*
X14134D01*
Y5299D01*
X14139D01*
Y5304D01*
X14144D01*
Y5309D01*
X14149D01*
Y5314D01*
X14155D01*
Y5320D01*
X14160D01*
Y5325D01*
X14165D01*
Y5330D01*
X14170D01*
Y5335D01*
X14175D01*
Y5340D01*
X14180D01*
Y5345D01*
X14186D01*
Y5351D01*
X14191D01*
Y5356D01*
X14196D01*
Y5361D01*
X14201D01*
Y5366D01*
X14206D01*
Y5371D01*
X14211D01*
Y5376D01*
X14216D01*
Y5381D01*
X14222D01*
Y5387D01*
X14227D01*
Y5392D01*
X14232D01*
Y5397D01*
X14237D01*
Y5402D01*
X14242D01*
Y5407D01*
X14247D01*
Y5412D01*
X14253D01*
Y5418D01*
X14258D01*
Y5423D01*
X14263D01*
Y5428D01*
X14268D01*
Y5433D01*
X14273D01*
Y5438D01*
X14278D01*
Y5443D01*
X14283D01*
Y5448D01*
X14289D01*
Y5454D01*
X14294D01*
Y5459D01*
X14299D01*
Y5464D01*
X14304D01*
Y5469D01*
X14309D01*
Y5474D01*
X14314D01*
Y5479D01*
X14320D01*
Y5485D01*
X14325D01*
Y5490D01*
X14330D01*
Y5495D01*
X14335D01*
Y5500D01*
X14340D01*
Y5505D01*
X14345D01*
Y5510D01*
X14351D01*
Y5515D01*
X14356D01*
Y5521D01*
X14361D01*
Y5526D01*
X14366D01*
Y5531D01*
X14371D01*
Y5536D01*
X14376D01*
Y5541D01*
X14381D01*
Y5546D01*
X14387D01*
Y5552D01*
X14392D01*
Y5557D01*
X14397D01*
Y5562D01*
X14402D01*
Y5567D01*
X14407D01*
Y5572D01*
X14412D01*
Y5577D01*
X14418D01*
Y5582D01*
X14423D01*
Y5588D01*
X14428D01*
Y5593D01*
X14433D01*
Y5598D01*
X14438D01*
Y5603D01*
X14443D01*
Y5608D01*
X14448D01*
Y5613D01*
X14454D01*
Y5619D01*
X14459D01*
Y5624D01*
X14464D01*
Y5629D01*
X14469D01*
Y5634D01*
X14474D01*
Y5639D01*
X14479D01*
Y5644D01*
X14485D01*
Y5649D01*
X14490D01*
Y5655D01*
X14495D01*
Y5660D01*
X14500D01*
Y5665D01*
X14505D01*
Y5670D01*
X14510D01*
Y5675D01*
X14515D01*
Y5680D01*
X14521D01*
Y5686D01*
X14526D01*
Y5691D01*
X14531D01*
Y5696D01*
X14536D01*
Y5701D01*
X14541D01*
Y5706D01*
X14546D01*
Y5711D01*
X14552D01*
Y5716D01*
X14557D01*
Y5722D01*
X14562D01*
Y5727D01*
X14567D01*
Y5732D01*
X14572D01*
Y5737D01*
X14577D01*
Y5742D01*
X14588D01*
Y5753D01*
X14593D01*
Y5758D01*
X14598D01*
Y5763D01*
X14603D01*
Y5768D01*
X14608D01*
Y5773D01*
X14613D01*
Y5778D01*
X14619D01*
Y5784D01*
X14624D01*
Y5789D01*
X14629D01*
Y5794D01*
X14634D01*
Y5799D01*
X14639D01*
Y5804D01*
X14644D01*
Y5809D01*
X14649D01*
Y5814D01*
X14655D01*
Y5820D01*
X14660D01*
Y5825D01*
X14665D01*
Y5830D01*
X14670D01*
Y5835D01*
X14675D01*
Y5840D01*
X14680D01*
Y5845D01*
X14686D01*
Y5851D01*
X14691D01*
Y5856D01*
X14696D01*
Y5861D01*
X14701D01*
Y5866D01*
X14706D01*
Y5871D01*
X14711D01*
Y5876D01*
X14717D01*
Y5881D01*
X14722D01*
Y5887D01*
X14727D01*
Y5892D01*
X14732D01*
Y5897D01*
X14737D01*
Y5902D01*
X14742D01*
Y5907D01*
X14747D01*
Y5912D01*
X14753D01*
Y5918D01*
X14758D01*
Y5923D01*
X14763D01*
Y5928D01*
X14768D01*
Y5933D01*
X14773D01*
Y5938D01*
X14778D01*
Y5943D01*
X14784D01*
Y5948D01*
X14789D01*
Y5954D01*
X14794D01*
Y5959D01*
X14799D01*
Y5964D01*
X14804D01*
Y5969D01*
X14809D01*
Y5974D01*
X14814D01*
Y5979D01*
X14820D01*
Y5985D01*
X14825D01*
Y5990D01*
X14830D01*
Y5995D01*
X14835D01*
Y6000D01*
X14840D01*
Y6005D01*
X14845D01*
Y6010D01*
X14851D01*
Y6015D01*
X14856D01*
Y6021D01*
X14861D01*
Y6026D01*
X14866D01*
Y6031D01*
X14871D01*
Y6036D01*
X14876D01*
Y6041D01*
X14881D01*
Y6046D01*
X14887D01*
Y6052D01*
X14892D01*
Y6057D01*
X14897D01*
Y6062D01*
X14902D01*
Y6067D01*
X14907D01*
Y6072D01*
X14912D01*
Y6077D01*
X14918D01*
Y6082D01*
X14923D01*
Y6088D01*
X14928D01*
Y6093D01*
X14933D01*
Y6098D01*
X14938D01*
Y6103D01*
X14943D01*
Y6108D01*
X14948D01*
Y6113D01*
X14954D01*
Y6119D01*
X14959D01*
Y6124D01*
X14964D01*
Y6129D01*
X14969D01*
Y6134D01*
X14974D01*
Y6139D01*
X14979D01*
Y6144D01*
X14985D01*
Y6149D01*
X14990D01*
Y6155D01*
X14995D01*
Y6160D01*
X15000D01*
Y6165D01*
X15005D01*
Y6170D01*
X15010D01*
Y6175D01*
X15015D01*
Y6180D01*
X15021D01*
Y6186D01*
X15026D01*
Y6191D01*
X15031D01*
Y6196D01*
X15036D01*
Y6201D01*
X15041D01*
Y6206D01*
X15046D01*
Y6211D01*
X15052D01*
Y6216D01*
X15057D01*
Y6222D01*
X15062D01*
Y6227D01*
X15067D01*
Y6232D01*
X15072D01*
Y6237D01*
X15077D01*
Y6242D01*
X15082D01*
Y6247D01*
X15088D01*
Y6253D01*
X15093D01*
Y6258D01*
X15098D01*
Y6263D01*
X15103D01*
Y6268D01*
X15108D01*
Y6273D01*
X15113D01*
Y6278D01*
X15119D01*
Y6284D01*
X15124D01*
Y6289D01*
X15129D01*
Y6294D01*
X15134D01*
Y6299D01*
X15139D01*
Y6304D01*
X15144D01*
Y6309D01*
X15149D01*
Y6314D01*
X15155D01*
Y6320D01*
X15160D01*
Y6325D01*
X15165D01*
Y6330D01*
X15170D01*
Y6335D01*
X15175D01*
Y6340D01*
X15180D01*
Y6345D01*
X15186D01*
Y6351D01*
X15191D01*
Y6356D01*
X15196D01*
Y6361D01*
X15201D01*
Y6366D01*
X15206D01*
Y6371D01*
X15211D01*
Y6376D01*
X15216D01*
Y6381D01*
X15222D01*
Y6387D01*
X15227D01*
Y6392D01*
X15232D01*
Y6397D01*
X15237D01*
Y6402D01*
X15242D01*
Y6407D01*
X15247D01*
Y6412D01*
X15253D01*
Y6418D01*
X15258D01*
Y6423D01*
X15263D01*
Y6428D01*
X15268D01*
Y6433D01*
X15273D01*
Y6438D01*
X15278D01*
Y6443D01*
X15284D01*
Y6448D01*
X15289D01*
Y6454D01*
X15294D01*
Y6459D01*
X15299D01*
Y6464D01*
X15304D01*
Y6469D01*
X15309D01*
Y6474D01*
X15314D01*
Y6479D01*
X15320D01*
Y6485D01*
X15325D01*
Y6490D01*
X15330D01*
Y6485D01*
X15335D01*
Y6479D01*
X15340D01*
Y6464D01*
X15345D01*
Y6448D01*
X15351D01*
Y6433D01*
X15356D01*
Y6418D01*
X15361D01*
Y6402D01*
X15366D01*
Y6387D01*
X15371D01*
Y6366D01*
X15376D01*
Y6356D01*
X15381D01*
Y6335D01*
X15387D01*
Y6320D01*
X15392D01*
Y6304D01*
X15397D01*
Y6289D01*
X15402D01*
Y6273D01*
X15407D01*
Y6258D01*
X15412D01*
Y6242D01*
X15418D01*
Y6227D01*
X15423D01*
Y6206D01*
X15428D01*
Y6191D01*
X15433D01*
Y6175D01*
X15438D01*
Y6160D01*
X15443D01*
Y6144D01*
X15448D01*
Y6129D01*
X15454D01*
Y6113D01*
X15459D01*
Y6098D01*
X15464D01*
Y6082D01*
X15469D01*
Y6062D01*
X15474D01*
Y6046D01*
X15479D01*
Y6031D01*
X15485D01*
Y6015D01*
X15490D01*
Y6000D01*
X15495D01*
Y5985D01*
X15500D01*
Y5969D01*
X15505D01*
Y5954D01*
X15510D01*
Y5938D01*
X15515D01*
Y5918D01*
X15521D01*
Y5902D01*
X15526D01*
Y5887D01*
X15531D01*
Y5871D01*
X15536D01*
Y5856D01*
X15541D01*
Y5840D01*
X15546D01*
Y5825D01*
X15552D01*
Y5809D01*
X15557D01*
Y5789D01*
X15562D01*
Y5778D01*
X15567D01*
Y5758D01*
X15572D01*
Y5742D01*
X15577D01*
Y5727D01*
X15582D01*
Y5711D01*
X15588D01*
Y5696D01*
X15593D01*
Y5680D01*
X15598D01*
Y5665D01*
X15603D01*
Y5644D01*
X15608D01*
Y5629D01*
X15613D01*
Y5613D01*
X15619D01*
Y5598D01*
X15624D01*
Y5582D01*
X15629D01*
Y5567D01*
X15634D01*
Y5552D01*
X15639D01*
Y5536D01*
X15644D01*
Y5521D01*
X15649D01*
Y5505D01*
X15655D01*
Y5485D01*
X15660D01*
Y5469D01*
X15665D01*
Y5454D01*
X15670D01*
Y5438D01*
X15675D01*
Y5423D01*
X15680D01*
Y5407D01*
X15686D01*
Y5392D01*
X15691D01*
Y5376D01*
X15696D01*
Y5361D01*
X15701D01*
Y5340D01*
X15706D01*
Y5325D01*
X15711D01*
Y5309D01*
X15717D01*
Y5289D01*
X15722D01*
Y5278D01*
X15727D01*
Y5263D01*
X15732D01*
Y5247D01*
X15737D01*
Y5232D01*
X15742D01*
Y5211D01*
X15747D01*
Y5201D01*
X15753D01*
Y5180D01*
X15758D01*
Y5165D01*
X15763D01*
Y5149D01*
X15768D01*
Y5134D01*
X15773D01*
Y5119D01*
X15778D01*
Y5103D01*
X15784D01*
Y5088D01*
X15789D01*
Y5072D01*
X15794D01*
Y5052D01*
X15799D01*
Y5036D01*
X15804D01*
Y5021D01*
X15809D01*
Y5005D01*
X15814D01*
Y4990D01*
X15820D01*
Y4974D01*
X15825D01*
Y4959D01*
X15830D01*
Y4943D01*
X15835D01*
Y4928D01*
X15840D01*
Y4907D01*
X15845D01*
Y4892D01*
X15851D01*
Y4876D01*
X15856D01*
Y4861D01*
X15861D01*
Y4845D01*
X15866D01*
Y4830D01*
X15871D01*
Y4814D01*
X15876D01*
Y4799D01*
X15881D01*
Y4784D01*
X15887D01*
Y4768D01*
X15892D01*
Y4747D01*
X15897D01*
Y4732D01*
X15902D01*
Y4716D01*
X15907D01*
Y4701D01*
X15912D01*
Y4686D01*
X15918D01*
Y4670D01*
X15923D01*
Y4655D01*
X15928D01*
Y4634D01*
X15933D01*
Y4624D01*
X15938D01*
Y4603D01*
X15943D01*
Y4588D01*
X15948D01*
Y4572D01*
X15954D01*
Y4557D01*
X15959D01*
Y4541D01*
X15964D01*
Y4526D01*
X15969D01*
Y4510D01*
X15974D01*
Y4495D01*
X15979D01*
Y4474D01*
X15985D01*
Y4459D01*
X15990D01*
Y4443D01*
X15995D01*
Y4428D01*
X16000D01*
Y4412D01*
X16005D01*
Y4397D01*
X16010D01*
Y4381D01*
X16015D01*
Y4361D01*
X16021D01*
Y4351D01*
X16026D01*
Y4330D01*
X16031D01*
Y4314D01*
X16036D01*
Y4299D01*
X16041D01*
Y4284D01*
X16046D01*
Y4268D01*
X16052D01*
Y4253D01*
X16057D01*
Y4237D01*
X16062D01*
Y4222D01*
X16067D01*
Y4206D01*
X16072D01*
Y4186D01*
X16077D01*
Y4170D01*
X16082D01*
Y4155D01*
X16088D01*
Y4139D01*
X16093D01*
Y4124D01*
X16098D01*
Y4108D01*
X16103D01*
Y4093D01*
X16108D01*
Y4077D01*
X16113D01*
Y4057D01*
X16119D01*
Y4046D01*
X16124D01*
Y4026D01*
X16129D01*
Y4010D01*
X16134D01*
Y3995D01*
X16139D01*
Y3979D01*
X16144D01*
Y3964D01*
X16149D01*
Y3948D01*
X16155D01*
Y3933D01*
X16160D01*
Y3912D01*
X16165D01*
Y3897D01*
X16170D01*
Y3881D01*
X16175D01*
Y3866D01*
X16180D01*
Y3851D01*
X16186D01*
Y3835D01*
X16191D01*
Y3820D01*
X16196D01*
Y3804D01*
X16201D01*
Y3789D01*
X16206D01*
Y3773D01*
X16211D01*
Y3753D01*
X16216D01*
Y3737D01*
X16222D01*
Y3722D01*
X16227D01*
Y3706D01*
X16232D01*
Y3691D01*
X16237D01*
Y3675D01*
X16242D01*
Y3660D01*
X16247D01*
Y3639D01*
X16253D01*
Y3629D01*
X16258D01*
Y3608D01*
X16263D01*
Y3593D01*
X16268D01*
Y3577D01*
X16273D01*
Y3562D01*
X16278D01*
Y3546D01*
X16284D01*
Y3531D01*
X16289D01*
Y3515D01*
X16294D01*
Y3500D01*
X16299D01*
Y3479D01*
X16304D01*
Y3464D01*
X16309D01*
Y3448D01*
X16314D01*
Y3433D01*
X16320D01*
Y3418D01*
X16325D01*
Y3402D01*
X16330D01*
Y3387D01*
X16335D01*
Y3371D01*
X16340D01*
Y3356D01*
X16345D01*
Y3340D01*
X16351D01*
Y3320D01*
X16356D01*
Y3304D01*
X16361D01*
Y3289D01*
X16366D01*
Y3273D01*
X16371D01*
Y3258D01*
X16376D01*
Y3242D01*
X16381D01*
Y3227D01*
X16387D01*
Y3206D01*
X16392D01*
Y3196D01*
X16397D01*
Y3175D01*
X16402D01*
Y3160D01*
X16407D01*
Y3144D01*
X16412D01*
Y3129D01*
X16418D01*
Y3113D01*
X16423D01*
Y3093D01*
X16428D01*
Y3088D01*
X16433D01*
Y3082D01*
X17041D01*
Y2845D01*
X17036D01*
Y2840D01*
X16067D01*
Y2851D01*
X16062D01*
Y3077D01*
X16067D01*
Y3082D01*
X16299D01*
Y3088D01*
X16304D01*
Y3103D01*
X16299D01*
Y3124D01*
X16294D01*
Y3134D01*
X16289D01*
Y3155D01*
X16284D01*
Y3170D01*
X16278D01*
Y3186D01*
X16273D01*
Y3201D01*
X16268D01*
Y3217D01*
X16263D01*
Y3232D01*
X16258D01*
Y3253D01*
X16253D01*
Y3268D01*
X16247D01*
Y3284D01*
X16242D01*
Y3299D01*
X16237D01*
Y3314D01*
X16232D01*
Y3330D01*
X16227D01*
Y3345D01*
X16222D01*
Y3366D01*
X16216D01*
Y3381D01*
X16211D01*
Y3397D01*
X16206D01*
Y3412D01*
X16201D01*
Y3428D01*
X16196D01*
Y3443D01*
X16191D01*
Y3459D01*
X16186D01*
Y3479D01*
X16180D01*
Y3495D01*
X16175D01*
Y3510D01*
X16170D01*
Y3526D01*
X16165D01*
Y3541D01*
X16160D01*
Y3557D01*
X16155D01*
Y3572D01*
X16149D01*
Y3593D01*
X16144D01*
Y3603D01*
X16139D01*
Y3624D01*
X16134D01*
Y3639D01*
X16129D01*
Y3655D01*
X16124D01*
Y3670D01*
X16119D01*
Y3686D01*
X16113D01*
Y3706D01*
X16108D01*
Y3716D01*
X16103D01*
Y3737D01*
X16098D01*
Y3753D01*
X16093D01*
Y3768D01*
X16088D01*
Y3784D01*
X16082D01*
Y3799D01*
X16077D01*
Y3814D01*
X16072D01*
Y3835D01*
X16067D01*
Y3851D01*
X16062D01*
Y3866D01*
X16057D01*
Y3881D01*
X16052D01*
Y3897D01*
X16046D01*
Y3912D01*
X16041D01*
Y3928D01*
X16036D01*
Y3948D01*
X16031D01*
Y3964D01*
X16026D01*
Y3979D01*
X16021D01*
Y3995D01*
X16015D01*
Y4010D01*
X16010D01*
Y4026D01*
X16005D01*
Y4046D01*
X16000D01*
Y4062D01*
X15995D01*
Y4077D01*
X15990D01*
Y4093D01*
X15985D01*
Y4108D01*
X15979D01*
Y4124D01*
X15974D01*
Y4139D01*
X15969D01*
Y4155D01*
X15964D01*
Y4175D01*
X15959D01*
Y4191D01*
X15954D01*
Y4206D01*
X15948D01*
Y4222D01*
X15943D01*
Y4237D01*
X15938D01*
Y4258D01*
X15933D01*
Y4268D01*
X15928D01*
Y4289D01*
X15923D01*
Y4304D01*
X15918D01*
Y4320D01*
X15912D01*
Y4335D01*
X15907D01*
Y4351D01*
X15902D01*
Y4366D01*
X15897D01*
Y4381D01*
X15892D01*
Y4402D01*
X15887D01*
Y4418D01*
X15881D01*
Y4433D01*
X15876D01*
Y4448D01*
X15871D01*
Y4464D01*
X15866D01*
Y4479D01*
X15861D01*
Y4495D01*
X15856D01*
Y4515D01*
X15851D01*
Y4531D01*
X15845D01*
Y4541D01*
X15840D01*
Y4562D01*
X15835D01*
Y4577D01*
X15830D01*
Y4593D01*
X15825D01*
Y4608D01*
X15820D01*
Y4629D01*
X15814D01*
Y4644D01*
X15809D01*
Y4660D01*
X15804D01*
Y4675D01*
X15799D01*
Y4691D01*
X15794D01*
Y4706D01*
X15789D01*
Y4727D01*
X15784D01*
Y4742D01*
X15778D01*
Y4758D01*
X15773D01*
Y4773D01*
X15768D01*
Y4789D01*
X15763D01*
Y4804D01*
X15758D01*
Y4820D01*
X15753D01*
Y4840D01*
X15747D01*
Y4856D01*
X15742D01*
Y4871D01*
X15737D01*
Y4887D01*
X15732D01*
Y4902D01*
X15727D01*
Y4918D01*
X15722D01*
Y4933D01*
X15717D01*
Y4954D01*
X15711D01*
Y4964D01*
X15706D01*
Y4985D01*
X15701D01*
Y5000D01*
X15696D01*
Y5015D01*
X15691D01*
Y5031D01*
X15686D01*
Y5046D01*
X15680D01*
Y5067D01*
X15675D01*
Y5077D01*
X15670D01*
Y5098D01*
X15665D01*
Y5113D01*
X15660D01*
Y5129D01*
X15655D01*
Y5144D01*
X15649D01*
Y5160D01*
X15644D01*
Y5175D01*
X15639D01*
Y5196D01*
X15634D01*
Y5211D01*
X15629D01*
Y5227D01*
X15624D01*
Y5242D01*
X15619D01*
Y5258D01*
X15613D01*
Y5273D01*
X15608D01*
Y5289D01*
X15603D01*
Y5309D01*
X15598D01*
Y5325D01*
X15593D01*
Y5340D01*
X15588D01*
Y5356D01*
X15582D01*
Y5371D01*
X15577D01*
Y5387D01*
X15572D01*
Y5407D01*
X15567D01*
Y5423D01*
X15562D01*
Y5438D01*
X15557D01*
Y5454D01*
X15552D01*
Y5469D01*
X15546D01*
Y5485D01*
X15541D01*
Y5500D01*
X15536D01*
Y5515D01*
X15531D01*
Y5536D01*
X15526D01*
Y5552D01*
X15521D01*
Y5567D01*
X15515D01*
Y5582D01*
X15510D01*
Y5598D01*
X15505D01*
Y5613D01*
X15500D01*
Y5629D01*
X15495D01*
Y5649D01*
X15490D01*
Y5665D01*
X15485D01*
Y5680D01*
X15479D01*
Y5696D01*
X15474D01*
Y5711D01*
X15469D01*
Y5727D01*
X15464D01*
Y5742D01*
X15459D01*
Y5758D01*
X15443D01*
Y5747D01*
X15438D01*
Y5742D01*
X15428D01*
Y5737D01*
X15423D01*
Y5732D01*
X15418D01*
Y5727D01*
X15412D01*
Y5722D01*
X15407D01*
Y5716D01*
X15402D01*
Y5711D01*
X15397D01*
Y5706D01*
X15392D01*
Y5701D01*
X15387D01*
Y5696D01*
X15381D01*
Y5691D01*
X15371D01*
Y5686D01*
X15366D01*
Y5680D01*
X15361D01*
Y5675D01*
X15356D01*
Y5670D01*
X15351D01*
Y5665D01*
X15345D01*
Y5660D01*
X15340D01*
Y5655D01*
X15335D01*
Y5649D01*
X15330D01*
Y5644D01*
X15320D01*
Y5639D01*
X15314D01*
Y5634D01*
X15309D01*
Y5629D01*
X15304D01*
Y5624D01*
X15299D01*
Y5619D01*
X15294D01*
Y5613D01*
X15289D01*
Y5608D01*
X15284D01*
Y5603D01*
X15278D01*
Y5598D01*
X15273D01*
Y5593D01*
X15268D01*
Y5588D01*
X15258D01*
Y5582D01*
X15253D01*
Y5577D01*
X15247D01*
Y5572D01*
X15242D01*
Y5567D01*
X15237D01*
Y5562D01*
X15232D01*
Y5557D01*
X15227D01*
Y5552D01*
X15222D01*
Y5546D01*
X15216D01*
Y5541D01*
X15211D01*
Y5536D01*
X15201D01*
Y5531D01*
X15196D01*
Y5526D01*
X15191D01*
Y5521D01*
X15186D01*
Y5515D01*
X15180D01*
Y5510D01*
X15175D01*
Y5505D01*
X15170D01*
Y5500D01*
X15165D01*
Y5495D01*
X15160D01*
Y5490D01*
X15149D01*
Y5485D01*
X15144D01*
Y5479D01*
X15139D01*
Y5474D01*
X15134D01*
Y5469D01*
X15129D01*
Y5464D01*
X15124D01*
Y5459D01*
X15119D01*
Y5454D01*
X15113D01*
Y5448D01*
X15108D01*
Y5443D01*
X15103D01*
Y5438D01*
X15098D01*
Y5433D01*
X15088D01*
Y5428D01*
X15082D01*
Y5423D01*
X15077D01*
Y5418D01*
X15072D01*
Y5412D01*
X15067D01*
Y5407D01*
X15062D01*
Y5402D01*
X15057D01*
Y5397D01*
X15052D01*
Y5392D01*
X15046D01*
Y5387D01*
X15036D01*
Y5381D01*
X15031D01*
Y5376D01*
X15026D01*
Y5371D01*
X15021D01*
Y5366D01*
X15015D01*
Y5361D01*
X15010D01*
Y5356D01*
X15005D01*
Y5351D01*
X15000D01*
Y5345D01*
X14995D01*
Y5340D01*
X14990D01*
Y5335D01*
X14985D01*
Y5330D01*
X14974D01*
Y5325D01*
X14969D01*
Y5320D01*
X14964D01*
Y5314D01*
X14959D01*
Y5309D01*
X14954D01*
Y5304D01*
X14948D01*
Y5299D01*
X14943D01*
Y5294D01*
X14938D01*
Y5289D01*
X14933D01*
Y5284D01*
X14923D01*
Y5273D01*
X14912D01*
Y5268D01*
X14907D01*
Y5263D01*
X14902D01*
Y5258D01*
X14897D01*
Y5253D01*
X14892D01*
Y5247D01*
X14887D01*
Y5242D01*
X14881D01*
Y5237D01*
X14876D01*
Y5232D01*
X14866D01*
Y5227D01*
X14861D01*
Y5222D01*
X14856D01*
Y5216D01*
X14851D01*
Y5211D01*
X14845D01*
Y5206D01*
X14840D01*
Y5201D01*
X14835D01*
Y5196D01*
X14830D01*
Y5191D01*
X14825D01*
Y5186D01*
X14820D01*
Y5180D01*
X14814D01*
Y5175D01*
X14804D01*
Y5170D01*
X14799D01*
Y5165D01*
X14794D01*
Y5160D01*
X14789D01*
Y5155D01*
X14784D01*
Y5149D01*
X14778D01*
Y5144D01*
X14773D01*
Y5139D01*
X14768D01*
Y5134D01*
X14763D01*
Y5129D01*
X14753D01*
Y5124D01*
X14747D01*
Y5119D01*
X14742D01*
Y5113D01*
X14737D01*
Y5108D01*
X14732D01*
Y5103D01*
X14727D01*
Y5098D01*
X14722D01*
Y5093D01*
X14717D01*
Y5088D01*
X14711D01*
Y5082D01*
X14706D01*
Y5077D01*
X14701D01*
Y5072D01*
X14691D01*
Y5067D01*
X14686D01*
Y5062D01*
X14680D01*
Y5057D01*
X14675D01*
Y5052D01*
X14670D01*
Y5046D01*
X14665D01*
Y5041D01*
X14660D01*
Y5036D01*
X14655D01*
Y5031D01*
X14649D01*
Y5026D01*
X14639D01*
Y5021D01*
X14634D01*
Y5015D01*
X14629D01*
Y5010D01*
X14624D01*
Y5005D01*
X14619D01*
Y5000D01*
X14613D01*
Y4995D01*
X14608D01*
Y4990D01*
X14603D01*
Y4985D01*
X14598D01*
Y4979D01*
X14593D01*
Y4974D01*
X14582D01*
Y4969D01*
X14577D01*
Y4964D01*
X14572D01*
Y4959D01*
X14567D01*
Y4954D01*
X14562D01*
Y4948D01*
X14557D01*
Y4943D01*
X14552D01*
Y4938D01*
X14546D01*
Y4933D01*
X14541D01*
Y4928D01*
X14536D01*
Y4923D01*
X14526D01*
Y4918D01*
X14521D01*
Y4912D01*
X14515D01*
Y4907D01*
X14510D01*
Y4902D01*
X14505D01*
Y4897D01*
X14500D01*
Y4892D01*
X14495D01*
Y4887D01*
X14490D01*
Y4881D01*
X14485D01*
Y4876D01*
X14479D01*
Y4871D01*
X14469D01*
Y4866D01*
X14464D01*
Y4861D01*
X14459D01*
Y4856D01*
X14454D01*
Y4851D01*
X14448D01*
Y4845D01*
X14443D01*
Y4840D01*
X14438D01*
Y4835D01*
X14433D01*
Y4830D01*
X14428D01*
Y4825D01*
X14423D01*
Y4820D01*
X14418D01*
Y4814D01*
X14407D01*
Y4809D01*
X14402D01*
Y4804D01*
X14397D01*
Y4799D01*
X14392D01*
Y4794D01*
X14387D01*
Y4789D01*
X14381D01*
Y4784D01*
X14376D01*
Y4778D01*
X14371D01*
Y4773D01*
X14361D01*
Y4768D01*
X14356D01*
Y4763D01*
X14351D01*
Y4758D01*
X14345D01*
Y4753D01*
X14340D01*
Y4747D01*
X14335D01*
Y4742D01*
X14330D01*
Y4737D01*
X14325D01*
Y4732D01*
X14320D01*
Y4727D01*
X14314D01*
Y4722D01*
X14309D01*
Y4716D01*
X14299D01*
Y4711D01*
X14294D01*
Y4706D01*
X14289D01*
Y4701D01*
X14283D01*
Y4696D01*
X14278D01*
Y4691D01*
X14273D01*
Y4686D01*
X14268D01*
Y4680D01*
X14263D01*
Y4675D01*
X14258D01*
Y4670D01*
X14247D01*
Y4665D01*
X14242D01*
Y4660D01*
X14237D01*
Y4655D01*
X14232D01*
Y4649D01*
X14227D01*
Y4644D01*
X14222D01*
Y4639D01*
X14216D01*
Y4634D01*
X14211D01*
Y4629D01*
X14206D01*
Y4624D01*
X14201D01*
Y4619D01*
X14196D01*
Y4613D01*
X14186D01*
Y4608D01*
X14180D01*
Y4603D01*
X14175D01*
Y4598D01*
X14170D01*
Y4593D01*
X14165D01*
Y4588D01*
X14160D01*
Y4582D01*
X14155D01*
Y4577D01*
X14149D01*
Y4572D01*
X14144D01*
Y4567D01*
X14139D01*
Y4562D01*
X14129D01*
Y4557D01*
X14124D01*
Y4552D01*
X14119D01*
Y4536D01*
X14113D01*
Y4526D01*
X14119D01*
Y2979D01*
X14113D01*
Y2969D01*
X14119D01*
Y2964D01*
X14129D01*
Y2959D01*
X14139D01*
Y2964D01*
X14577D01*
Y2959D01*
X14582D01*
Y2964D01*
X14598D01*
Y2959D01*
X14603D01*
Y2722D01*
X14593D01*
Y2716D01*
X14588D01*
Y2722D01*
X13892D01*
Y2716D01*
X13881D01*
Y2722D01*
X13876D01*
Y2727D01*
X13871D01*
Y6979D01*
X13881D01*
Y6985D01*
X13887D01*
Y6979D01*
D02*
G37*
G36*
X17036Y2588D02*
X17041D01*
Y2361D01*
X17036D01*
Y2356D01*
X10464D01*
Y2361D01*
X10459D01*
Y2588D01*
X10464D01*
Y2598D01*
X17036D01*
Y2588D01*
D02*
G37*
%LPC*%
G36*
X64386Y17818D02*
X63727D01*
Y16500D01*
X64386D01*
Y17818D01*
D02*
G37*
%LPD*%
D45*
X90400Y7000D02*
G03*
X90400Y7000I-1400J0D01*
G01*
X19600Y64000D02*
G03*
X19600Y64000I-1400J0D01*
G01*
X19650Y68000D02*
G03*
X19650Y68000I-1400J0D01*
G01*
X77400Y3000D02*
G03*
X77400Y3000I-1400J0D01*
G01*
Y7000D02*
G03*
X77400Y7000I-1400J0D01*
G01*
Y11000D02*
G03*
X77400Y11000I-1400J0D01*
G01*
X55790Y63750D02*
Y66250D01*
X48210D02*
X55790D01*
X48210Y63750D02*
X55790D01*
X48210D02*
Y66250D01*
X44040Y63750D02*
Y66250D01*
X36460D02*
X44040D01*
X36460Y63750D02*
X44040D01*
X36460D02*
Y66250D01*
D46*
X46150Y54850D02*
G03*
X46150Y54850I-100J0D01*
G01*
Y35600D02*
G03*
X46150Y35600I-100J0D01*
G01*
X60000Y64000D02*
Y65500D01*
X64300Y69750D02*
X65800D01*
X70100Y64000D02*
Y65500D01*
X64300Y59750D02*
X65800D01*
X70100D02*
Y60750D01*
X69100Y59750D02*
X70100D01*
X69100Y69750D02*
X70100D01*
Y68750D02*
Y69750D01*
X60000Y68750D02*
Y69750D01*
X61000D01*
X60000Y59750D02*
X61000D01*
X60000D02*
Y60750D01*
X72500Y45250D02*
Y46750D01*
X78500Y36000D02*
Y37500D01*
Y45250D02*
Y46750D01*
X77000Y36000D02*
X78500D01*
Y54500D02*
Y56000D01*
X77000D02*
X78500D01*
X72500Y36000D02*
Y37500D01*
Y36000D02*
X74000D01*
X72500Y56000D02*
X74000D01*
X72500Y54500D02*
Y56000D01*
X42975Y33000D02*
X44025D01*
X300Y40930D02*
X4500D01*
X300Y30850D02*
X4500D01*
X300Y20990D02*
X4500D01*
X300Y10910D02*
X4500D01*
X94500Y60940D02*
X98700D01*
X94500Y50880D02*
X98700D01*
X300Y51030D02*
X4500D01*
X300Y61110D02*
X4500D01*
X40975Y52000D02*
X42025D01*
X47975Y39000D02*
X49025D01*
X49975Y39000D02*
X51025D01*
X40975Y33000D02*
X42025D01*
X42975Y36500D02*
X44025D01*
X42250Y55975D02*
Y57025D01*
X42975Y52000D02*
X44025D01*
X49475Y58250D02*
X50525D01*
X52550Y40950D02*
X53550D01*
X46450D02*
X47450D01*
X53550Y46550D02*
Y47550D01*
Y40950D02*
Y41950D01*
X46450Y40950D02*
Y41319D01*
X52550Y47550D02*
X53550D01*
X46450Y46550D02*
Y47319D01*
X53975Y51750D02*
X55025D01*
X94500Y40800D02*
X98700D01*
X86900D02*
X88400D01*
X86900D02*
Y42300D01*
Y50880D02*
Y52380D01*
Y39300D02*
Y40800D01*
Y30720D02*
Y32220D01*
Y19100D02*
Y20600D01*
Y29220D02*
Y30720D01*
X88400D01*
X86900Y50880D02*
X88400D01*
X93000Y10540D02*
X94500D01*
X93000Y60960D02*
X94500D01*
X86900Y10540D02*
Y12040D01*
X94500Y10540D02*
Y12040D01*
X86900Y60960D02*
X88400D01*
X86900Y49380D02*
Y50880D01*
X94500Y59460D02*
Y60960D01*
X86900Y59460D02*
Y60960D01*
Y20600D02*
X88400D01*
X93000Y50880D02*
X94500D01*
Y49380D02*
Y50880D01*
Y39300D02*
Y40800D01*
Y50880D02*
Y52380D01*
X93000Y40800D02*
X94500D01*
X93000Y20640D02*
X94500D01*
Y19140D02*
Y20640D01*
X86900Y20600D02*
Y22100D01*
X94500Y20640D02*
Y22140D01*
Y29220D02*
Y30720D01*
Y40800D02*
Y42300D01*
Y30720D02*
Y32220D01*
X93000Y30720D02*
X94500D01*
X86900Y10540D02*
X88400D01*
X42500Y12328D02*
X45155Y9673D01*
X39845D02*
X42500Y12328D01*
X39850Y6250D02*
X45150D01*
Y15750D01*
X49990Y3000D02*
Y4500D01*
Y3000D02*
X51490D01*
X58590D02*
X60090D01*
Y4500D01*
X39850Y6250D02*
Y15750D01*
X94500Y10540D02*
X98700D01*
X82240Y66500D02*
Y70700D01*
X94500Y30720D02*
X98700D01*
X94500Y20640D02*
X98700D01*
X42500Y15750D02*
Y16925D01*
X39850Y15750D02*
X45150D01*
X72160Y66500D02*
Y70700D01*
X42500Y5075D02*
Y6250D01*
X49990Y10600D02*
X51490D01*
X58590D02*
X60090D01*
X66600Y10500D02*
X67400D01*
X49990Y9100D02*
Y10600D01*
X60090Y9100D02*
Y10600D01*
X18500Y39500D02*
Y41000D01*
X20000D01*
X18500Y35000D02*
X20000D01*
X18500D02*
Y36500D01*
X38500Y35000D02*
Y36500D01*
X37000Y35000D02*
X38500D01*
X37000Y41000D02*
X38500D01*
Y39500D02*
Y41000D01*
X27750Y35000D02*
X29250D01*
X4500Y39450D02*
Y40950D01*
X6000D01*
X4500Y51030D02*
X6000D01*
X4500D02*
Y52530D01*
Y30870D02*
Y32370D01*
X27750Y41000D02*
X29250D01*
X4500Y40950D02*
Y42450D01*
Y30870D02*
X6000D01*
X27750Y33000D02*
X29250D01*
X18500Y51000D02*
X20000D01*
X18500D02*
Y52500D01*
X27750Y57000D02*
X29250D01*
X27750Y51000D02*
X29250D01*
X37000Y57000D02*
X38500D01*
Y55500D02*
Y57000D01*
X18500Y55500D02*
Y57000D01*
X20000D01*
X37000Y27000D02*
X38500D01*
X18500D02*
Y28500D01*
Y31500D02*
Y33000D01*
X27750Y27000D02*
X29250D01*
X18500D02*
X20000D01*
X38500Y31500D02*
Y33000D01*
Y27000D02*
Y28500D01*
X18500Y33000D02*
X20000D01*
X37000D02*
X38500D01*
X4500Y49530D02*
Y51030D01*
X72160Y58900D02*
Y60400D01*
X82240Y58900D02*
Y60400D01*
X11000Y65975D02*
Y67025D01*
X72160Y58900D02*
X73660D01*
X80740D02*
X82240D01*
X10600Y51030D02*
X12100D01*
Y49530D02*
Y51030D01*
Y39450D02*
Y40950D01*
Y51030D02*
Y52530D01*
X4500Y59610D02*
Y61110D01*
X6000D01*
X10600Y61150D02*
X12100D01*
Y59650D02*
Y61150D01*
X10600Y40950D02*
X12100D01*
X72160Y65000D02*
Y66500D01*
X73660D01*
X80740D02*
X82240D01*
Y65000D02*
Y66500D01*
X10600Y30870D02*
X12100D01*
Y40950D02*
Y42450D01*
X69100Y10500D02*
X69900D01*
X12100Y30870D02*
Y32370D01*
X38500Y51000D02*
Y52500D01*
X72500Y23250D02*
Y24750D01*
X4500Y21010D02*
X6000D01*
X4500Y19510D02*
Y21010D01*
Y10910D02*
Y12410D01*
Y10910D02*
X6000D01*
X10600D02*
X12100D01*
Y12410D01*
Y19510D02*
Y21010D01*
X10600D02*
X12100D01*
X78500Y32500D02*
Y34000D01*
X77000Y14000D02*
X78500D01*
X72500D02*
X74000D01*
X78500Y23250D02*
Y24750D01*
Y14000D02*
Y15500D01*
X72500Y34000D02*
X74000D01*
X77000D02*
X78500D01*
X72500Y14000D02*
Y15500D01*
Y32500D02*
Y34000D01*
X53975Y36000D02*
X55025D01*
X46450Y21700D02*
Y22319D01*
X38500Y43000D02*
Y44500D01*
X37000Y43000D02*
X38500D01*
X53550Y21700D02*
Y22700D01*
Y27300D02*
Y28300D01*
X46450Y21700D02*
X47450D01*
X52550D02*
X53550D01*
X38500Y47500D02*
Y49000D01*
X27750Y43000D02*
X29250D01*
X18500D02*
X20000D01*
X37000Y51000D02*
X38500D01*
X27750Y49000D02*
X29250D01*
X18500D02*
X20000D01*
X37000D02*
X38500D01*
X18500Y43000D02*
Y44500D01*
Y47500D02*
Y49000D01*
X53020Y28300D02*
X53550D01*
X53975Y32500D02*
X55025D01*
X47020Y28300D02*
X47450D01*
X46450Y27300D02*
Y28300D01*
X20200Y64000D02*
X20866D01*
X20533Y64333D02*
Y63667D01*
X21866Y64500D02*
X21200D01*
Y64000D01*
X21533Y64167D01*
X21700D01*
X21866Y64000D01*
Y63667D01*
X21700Y63500D01*
X21366D01*
X21200Y63667D01*
X22199Y64500D02*
Y63833D01*
X22533Y63500D01*
X22866Y63833D01*
Y64500D01*
X24199Y63500D02*
Y64500D01*
X24699D01*
X24865Y64333D01*
Y64000D01*
X24699Y63833D01*
X24199D01*
X25865Y64333D02*
X25698Y64500D01*
X25365D01*
X25198Y64333D01*
Y63667D01*
X25365Y63500D01*
X25698D01*
X25865Y63667D01*
Y64000D01*
X25532D01*
X26698Y64500D02*
X26365D01*
X26198Y64333D01*
Y63667D01*
X26365Y63500D01*
X26698D01*
X26865Y63667D01*
Y64333D01*
X26698Y64500D01*
X27698D02*
X27364D01*
X27198Y64333D01*
Y63667D01*
X27364Y63500D01*
X27698D01*
X27864Y63667D01*
Y64333D01*
X27698Y64500D01*
X28197D02*
Y63500D01*
X28697D01*
X28864Y63667D01*
Y64333D01*
X28697Y64500D01*
X28197D01*
X20250Y68500D02*
Y67833D01*
X20583Y67500D01*
X20916Y67833D01*
Y68500D01*
X21250Y67500D02*
X21750D01*
X21916Y67667D01*
X21750Y67833D01*
X21416D01*
X21250Y68000D01*
X21416Y68167D01*
X21916D01*
X23249Y67500D02*
Y68500D01*
X23749D01*
X23915Y68333D01*
Y68000D01*
X23749Y67833D01*
X23249D01*
X24915Y68333D02*
X24749Y68500D01*
X24415D01*
X24249Y68333D01*
Y67667D01*
X24415Y67500D01*
X24749D01*
X24915Y67667D01*
Y68000D01*
X24582D01*
X25748Y68500D02*
X25415D01*
X25248Y68333D01*
Y67667D01*
X25415Y67500D01*
X25748D01*
X25915Y67667D01*
Y68333D01*
X25748Y68500D01*
X26748D02*
X26415D01*
X26248Y68333D01*
Y67667D01*
X26415Y67500D01*
X26748D01*
X26915Y67667D01*
Y68333D01*
X26748Y68500D01*
X27248D02*
Y67500D01*
X27748D01*
X27914Y67667D01*
Y68333D01*
X27748Y68500D01*
X27248D01*
X39917Y59801D02*
X39750Y59634D01*
Y59301D01*
X39917Y59135D01*
X40083D01*
X40250Y59301D01*
Y59634D01*
X40417Y59801D01*
X40583D01*
X40750Y59634D01*
Y59301D01*
X40583Y59135D01*
X39750Y60134D02*
X39917D01*
X40250Y60467D01*
X39917Y60801D01*
X39750D01*
X40250Y60467D02*
X40750D01*
Y61134D02*
X39750D01*
X40750Y61800D01*
X39750D01*
X39917Y62800D02*
X39750Y62633D01*
Y62300D01*
X39917Y62134D01*
X40583D01*
X40750Y62300D01*
Y62633D01*
X40583Y62800D01*
X42290Y59301D02*
X43290D01*
Y59801D01*
X43123Y59968D01*
X42957D01*
X42790Y59801D01*
Y59301D01*
Y59801D01*
X42623Y59968D01*
X42457D01*
X42290Y59801D01*
Y59301D01*
Y60301D02*
Y60634D01*
Y60467D01*
X43290D01*
Y60301D01*
Y60634D01*
Y61134D02*
X42623D01*
X42290Y61467D01*
X42623Y61800D01*
X43290D01*
X42790D01*
Y61134D01*
X42457Y62800D02*
X42290Y62633D01*
Y62300D01*
X42457Y62134D01*
X42623D01*
X42790Y62300D01*
Y62633D01*
X42957Y62800D01*
X43123D01*
X43290Y62633D01*
Y62300D01*
X43123Y62134D01*
X37377Y60801D02*
X37210Y60634D01*
Y60301D01*
X37377Y60134D01*
X38043D01*
X38210Y60301D01*
Y60634D01*
X38043Y60801D01*
X37710D01*
Y60467D01*
X38210Y61134D02*
X37210D01*
X38210Y61800D01*
X37210D01*
Y62134D02*
X38210D01*
Y62633D01*
X38043Y62800D01*
X37377D01*
X37210Y62633D01*
Y62134D01*
X47751Y67950D02*
Y67283D01*
X48085Y66950D01*
X48418Y67283D01*
Y67950D01*
X48751Y66950D02*
X49251D01*
X49417Y67117D01*
X49251Y67283D01*
X48918D01*
X48751Y67450D01*
X48918Y67616D01*
X49417D01*
X51417Y67783D02*
X51250Y67950D01*
X50917D01*
X50750Y67783D01*
Y67117D01*
X50917Y66950D01*
X51250D01*
X51417Y67117D01*
X52250Y67950D02*
X51917D01*
X51750Y67783D01*
Y67117D01*
X51917Y66950D01*
X52250D01*
X52417Y67117D01*
Y67783D01*
X52250Y67950D01*
X52750Y66950D02*
Y67950D01*
X53416Y66950D01*
Y67950D01*
X54416D02*
X53749D01*
Y67450D01*
X54083D01*
X53749D01*
Y66950D01*
X54749Y67950D02*
X55082D01*
X54916D01*
Y66950D01*
X54749D01*
X55082D01*
X56249Y67783D02*
X56082Y67950D01*
X55749D01*
X55582Y67783D01*
Y67117D01*
X55749Y66950D01*
X56082D01*
X56249Y67117D01*
Y67450D01*
X55915D01*
X35502D02*
X36168D01*
X35835Y67783D02*
Y67117D01*
X37168Y67950D02*
X36501D01*
Y67450D01*
X36834Y67616D01*
X37001D01*
X37168Y67450D01*
Y67117D01*
X37001Y66950D01*
X36668D01*
X36501Y67117D01*
X37501Y67950D02*
Y67283D01*
X37834Y66950D01*
X38167Y67283D01*
Y67950D01*
X40167Y67783D02*
X40000Y67950D01*
X39667D01*
X39500Y67783D01*
Y67117D01*
X39667Y66950D01*
X40000D01*
X40167Y67117D01*
X41000Y67950D02*
X40667D01*
X40500Y67783D01*
Y67117D01*
X40667Y66950D01*
X41000D01*
X41166Y67117D01*
Y67783D01*
X41000Y67950D01*
X41500Y66950D02*
Y67950D01*
X42166Y66950D01*
Y67950D01*
X43166D02*
X42499D01*
Y67450D01*
X42833D01*
X42499D01*
Y66950D01*
X43499Y67950D02*
X43832D01*
X43666D01*
Y66950D01*
X43499D01*
X43832D01*
X44998Y67783D02*
X44832Y67950D01*
X44499D01*
X44332Y67783D01*
Y67117D01*
X44499Y66950D01*
X44832D01*
X44998Y67117D01*
Y67450D01*
X44665D01*
X49127Y60801D02*
X48960Y60634D01*
Y60301D01*
X49127Y60134D01*
X49793D01*
X49960Y60301D01*
Y60634D01*
X49793Y60801D01*
X49460D01*
Y60467D01*
X49960Y61134D02*
X48960D01*
X49960Y61800D01*
X48960D01*
Y62134D02*
X49960D01*
Y62633D01*
X49793Y62800D01*
X49127D01*
X48960Y62633D01*
Y62134D01*
X54040Y59301D02*
X55040D01*
Y59801D01*
X54873Y59968D01*
X54707D01*
X54540Y59801D01*
Y59301D01*
Y59801D01*
X54373Y59968D01*
X54207D01*
X54040Y59801D01*
Y59301D01*
Y60301D02*
Y60634D01*
Y60467D01*
X55040D01*
Y60301D01*
Y60634D01*
Y61134D02*
X54373D01*
X54040Y61467D01*
X54373Y61800D01*
X55040D01*
X54540D01*
Y61134D01*
X54207Y62800D02*
X54040Y62633D01*
Y62300D01*
X54207Y62134D01*
X54373D01*
X54540Y62300D01*
Y62633D01*
X54707Y62800D01*
X54873D01*
X55040Y62633D01*
Y62300D01*
X54873Y62134D01*
X51667Y59801D02*
X51500Y59634D01*
Y59301D01*
X51667Y59135D01*
X51833D01*
X52000Y59301D01*
Y59634D01*
X52167Y59801D01*
X52333D01*
X52500Y59634D01*
Y59301D01*
X52333Y59135D01*
X51500Y60134D02*
X51667D01*
X52000Y60467D01*
X51667Y60801D01*
X51500D01*
X52000Y60467D02*
X52500D01*
Y61134D02*
X51500D01*
X52500Y61800D01*
X51500D01*
X51667Y62800D02*
X51500Y62633D01*
Y62300D01*
X51667Y62134D01*
X52333D01*
X52500Y62300D01*
Y62633D01*
X52333Y62800D01*
X49252Y2300D02*
X49918D01*
X49585D01*
Y1300D01*
X50918Y2300D02*
X50252D01*
Y1300D01*
X50918D01*
X50252Y1800D02*
X50585D01*
X51918Y2133D02*
X51751Y2300D01*
X51418D01*
X51251Y2133D01*
Y1967D01*
X51418Y1800D01*
X51751D01*
X51918Y1634D01*
Y1467D01*
X51751Y1300D01*
X51418D01*
X51251Y1467D01*
X52251Y2300D02*
X52917D01*
X52584D01*
Y1300D01*
X53251Y2300D02*
X53584D01*
X53417D01*
Y1300D01*
X53251D01*
X53584D01*
X54084D02*
Y2300D01*
X54750Y1300D01*
Y2300D01*
X55750Y2133D02*
X55583Y2300D01*
X55250D01*
X55083Y2133D01*
Y1467D01*
X55250Y1300D01*
X55583D01*
X55750Y1467D01*
Y1800D01*
X55417D01*
X57583Y2300D02*
X57249D01*
X57083Y2133D01*
Y1467D01*
X57249Y1300D01*
X57583D01*
X57749Y1467D01*
Y2133D01*
X57583Y2300D01*
X58082Y1300D02*
Y2300D01*
X58749Y1300D01*
Y2300D01*
X59082D02*
Y1300D01*
X59748D01*
X60082Y2300D02*
Y2133D01*
X60415Y1800D01*
X60748Y2133D01*
Y2300D01*
X60415Y1800D02*
Y1300D01*
X50450Y53250D02*
Y52583D01*
X50783Y52250D01*
X51116Y52583D01*
Y53250D01*
X51450Y52250D02*
X51783D01*
X51616D01*
Y53250D01*
X51450Y53083D01*
X44700Y19100D02*
Y18100D01*
X45200D01*
X45366Y18267D01*
Y18933D01*
X45200Y19100D01*
X44700D01*
X45700Y18100D02*
X46033D01*
X45866D01*
Y19100D01*
X45700Y18933D01*
X7492Y10400D02*
X8158Y9400D01*
Y10400D02*
X7492Y9400D01*
X9158Y10400D02*
X8492D01*
Y9900D01*
X8825Y10067D01*
X8991D01*
X9158Y9900D01*
Y9567D01*
X8991Y9400D01*
X8658D01*
X8492Y9567D01*
X89817Y62900D02*
X90483Y61900D01*
Y62900D02*
X89817Y61900D01*
X90817Y62733D02*
X90983Y62900D01*
X91316D01*
X91483Y62733D01*
Y62566D01*
X91316Y62400D01*
X91150D01*
X91316D01*
X91483Y62233D01*
Y62067D01*
X91316Y61900D01*
X90983D01*
X90817Y62067D01*
X79866Y14700D02*
X79200D01*
Y14200D01*
X79533D01*
X79200D01*
Y13700D01*
X80866D02*
X80200D01*
X80866Y14366D01*
Y14533D01*
X80700Y14700D01*
X80366D01*
X80200Y14533D01*
X48200Y2950D02*
X49200Y3616D01*
X48200D02*
X49200Y2950D01*
X48200Y4616D02*
X48367Y4283D01*
X48700Y3950D01*
X49033D01*
X49200Y4116D01*
Y4450D01*
X49033Y4616D01*
X48867D01*
X48700Y4450D01*
Y3950D01*
X83050Y63175D02*
X83716Y62175D01*
Y63175D02*
X83050Y62175D01*
X84050D02*
X84383D01*
X84216D01*
Y63175D01*
X84050Y63008D01*
X12700Y31330D02*
X13366Y30330D01*
Y31330D02*
X12700Y30330D01*
X14366D02*
X13700D01*
X14366Y30996D01*
Y31163D01*
X14200Y31330D01*
X13866D01*
X13700Y31163D01*
X36667Y21550D02*
X37333Y20550D01*
Y21550D02*
X36667Y20550D01*
X38166D02*
Y21550D01*
X37667Y21050D01*
X38333D01*
X50450Y34000D02*
Y33333D01*
X50783Y33000D01*
X51116Y33333D01*
Y34000D01*
X52116Y33000D02*
X51450D01*
X52116Y33667D01*
Y33833D01*
X51950Y34000D01*
X51616D01*
X51450Y33833D01*
X67500Y11925D02*
X66500D01*
Y12425D01*
X66667Y12591D01*
X67000D01*
X67167Y12425D01*
Y11925D01*
Y12258D02*
X67500Y12591D01*
X66500Y12925D02*
Y13591D01*
X66667D01*
X67333Y12925D01*
X67500D01*
X70000Y11925D02*
X69000D01*
Y12425D01*
X69167Y12591D01*
X69500D01*
X69667Y12425D01*
Y11925D01*
Y12258D02*
X70000Y12591D01*
X69167Y12925D02*
X69000Y13091D01*
Y13425D01*
X69167Y13591D01*
X69333D01*
X69500Y13425D01*
X69667Y13591D01*
X69833D01*
X70000Y13425D01*
Y13091D01*
X69833Y12925D01*
X69667D01*
X69500Y13091D01*
X69333Y12925D01*
X69167D01*
X69500Y13091D02*
Y13425D01*
X55600Y51250D02*
Y52250D01*
X56100D01*
X56266Y52083D01*
Y51750D01*
X56100Y51583D01*
X55600D01*
X55933D02*
X56266Y51250D01*
X56600Y52083D02*
X56766Y52250D01*
X57100D01*
X57266Y52083D01*
Y51917D01*
X57100Y51750D01*
X56933D01*
X57100D01*
X57266Y51583D01*
Y51417D01*
X57100Y51250D01*
X56766D01*
X56600Y51417D01*
X46900Y57584D02*
X45900D01*
Y58083D01*
X46067Y58250D01*
X46400D01*
X46567Y58083D01*
Y57584D01*
Y57917D02*
X46900Y58250D01*
Y58583D02*
Y58916D01*
Y58750D01*
X45900D01*
X46067Y58583D01*
X63600Y64250D02*
Y65250D01*
X64100D01*
X64266Y65083D01*
Y64750D01*
X64100Y64583D01*
X63600D01*
X63933D02*
X64266Y64250D01*
X65266D02*
X64600D01*
X65266Y64917D01*
Y65083D01*
X65100Y65250D01*
X64766D01*
X64600Y65083D01*
X55600Y32000D02*
Y33000D01*
X56100D01*
X56266Y32833D01*
Y32500D01*
X56100Y32333D01*
X55600D01*
X55933D02*
X56266Y32000D01*
X57266Y33000D02*
X56933Y32833D01*
X56600Y32500D01*
Y32167D01*
X56766Y32000D01*
X57100D01*
X57266Y32167D01*
Y32333D01*
X57100Y32500D01*
X56600D01*
X45734Y38500D02*
Y39500D01*
X46234D01*
X46400Y39333D01*
Y39000D01*
X46234Y38833D01*
X45734D01*
X46067D02*
X46400Y38500D01*
X47233D02*
Y39500D01*
X46734Y39000D01*
X47400D01*
X55600Y35500D02*
Y36500D01*
X56100D01*
X56266Y36333D01*
Y36000D01*
X56100Y35833D01*
X55600D01*
X55933D02*
X56266Y35500D01*
X57266Y36500D02*
X56600D01*
Y36000D01*
X56933Y36167D01*
X57100D01*
X57266Y36000D01*
Y35667D01*
X57100Y35500D01*
X56766D01*
X56600Y35667D01*
X54650Y41800D02*
Y40800D01*
X55316D01*
X56316D02*
X55650D01*
X56316Y41466D01*
Y41633D01*
X56150Y41800D01*
X55816D01*
X55650Y41633D01*
X54650Y22550D02*
Y21550D01*
X55316D01*
X55650Y22383D02*
X55816Y22550D01*
X56150D01*
X56316Y22383D01*
Y22216D01*
X56150Y22050D01*
X55983D01*
X56150D01*
X56316Y21883D01*
Y21717D01*
X56150Y21550D01*
X55816D01*
X55650Y21717D01*
X12650Y67000D02*
Y66000D01*
X13316D01*
X13650D02*
X13983D01*
X13816D01*
Y67000D01*
X13650Y66833D01*
X57156Y65500D02*
X56823D01*
X56990D01*
Y64667D01*
X56823Y64500D01*
X56657D01*
X56490Y64667D01*
X58156Y64500D02*
X57490D01*
X58156Y65167D01*
Y65333D01*
X57990Y65500D01*
X57656D01*
X57490Y65333D01*
X35094Y65500D02*
X34760D01*
X34927D01*
Y64667D01*
X34760Y64500D01*
X34594D01*
X34427Y64667D01*
X35427Y64500D02*
X35760D01*
X35593D01*
Y65500D01*
X35427Y65333D01*
X79866Y36700D02*
X79200D01*
Y36200D01*
X79533D01*
X79200D01*
Y35700D01*
X80866Y36700D02*
X80200D01*
Y36200D01*
X80533Y36366D01*
X80700D01*
X80866Y36200D01*
Y35867D01*
X80700Y35700D01*
X80366D01*
X80200Y35867D01*
X39200Y37833D02*
Y37167D01*
X39700D01*
Y37500D01*
Y37167D01*
X40200D01*
Y38666D02*
X39200D01*
X39700Y38167D01*
Y38833D01*
X39200Y45833D02*
Y45167D01*
X39700D01*
Y45500D01*
Y45167D01*
X40200D01*
X39367Y46167D02*
X39200Y46333D01*
Y46666D01*
X39367Y46833D01*
X39533D01*
X39700Y46666D01*
Y46500D01*
Y46666D01*
X39866Y46833D01*
X40033D01*
X40200Y46666D01*
Y46333D01*
X40033Y46167D01*
X39200Y54000D02*
Y53334D01*
X39700D01*
Y53667D01*
Y53334D01*
X40200D01*
Y54333D02*
Y54666D01*
Y54500D01*
X39200D01*
X39367Y54333D01*
X39200Y29833D02*
Y29167D01*
X39700D01*
Y29500D01*
Y29167D01*
X40200D01*
X39200Y30833D02*
X39367Y30500D01*
X39700Y30167D01*
X40033D01*
X40200Y30333D01*
Y30666D01*
X40033Y30833D01*
X39866D01*
X39700Y30666D01*
Y30167D01*
X64900Y6667D02*
X65900D01*
Y7167D01*
X65733Y7333D01*
X65067D01*
X64900Y7167D01*
Y6667D01*
X65900Y8333D02*
Y7667D01*
X65234Y8333D01*
X65067D01*
X64900Y8166D01*
Y7833D01*
X65067Y7667D01*
X70600Y6667D02*
X71600D01*
Y7167D01*
X71433Y7333D01*
X70767D01*
X70600Y7167D01*
Y6667D01*
X70767Y7667D02*
X70600Y7833D01*
Y8166D01*
X70767Y8333D01*
X70933D01*
X71100Y8166D01*
Y8000D01*
Y8166D01*
X71267Y8333D01*
X71433D01*
X71600Y8166D01*
Y7833D01*
X71433Y7667D01*
X42083Y55233D02*
X41917Y55400D01*
X41584D01*
X41417Y55233D01*
Y54567D01*
X41584Y54400D01*
X41917D01*
X42083Y54567D01*
X43083Y54400D02*
X42417D01*
X43083Y55067D01*
Y55233D01*
X42916Y55400D01*
X42583D01*
X42417Y55233D01*
X43167Y49350D02*
X43000Y49184D01*
Y48850D01*
X43167Y48684D01*
X43833D01*
X44000Y48850D01*
Y49184D01*
X43833Y49350D01*
X43000Y50350D02*
X43167Y50017D01*
X43500Y49684D01*
X43833D01*
X44000Y49850D01*
Y50183D01*
X43833Y50350D01*
X43667D01*
X43500Y50183D01*
Y49684D01*
X41167Y49350D02*
X41000Y49184D01*
Y48850D01*
X41167Y48684D01*
X41833D01*
X42000Y48850D01*
Y49184D01*
X41833Y49350D01*
X41000Y50350D02*
Y49684D01*
X41500D01*
X41333Y50017D01*
Y50183D01*
X41500Y50350D01*
X41833D01*
X42000Y50183D01*
Y49850D01*
X41833Y49684D01*
X51766Y56433D02*
X51600Y56600D01*
X51267D01*
X51100Y56433D01*
Y55767D01*
X51267Y55600D01*
X51600D01*
X51766Y55767D01*
X52100Y55600D02*
X52433D01*
X52266D01*
Y56600D01*
X52100Y56433D01*
X67583Y40323D02*
X67417Y40490D01*
X67084D01*
X66917Y40323D01*
Y39657D01*
X67084Y39490D01*
X67417D01*
X67583Y39657D01*
X67917Y40323D02*
X68083Y40490D01*
X68416D01*
X68583Y40323D01*
Y40157D01*
X68416Y39990D01*
X68583Y39824D01*
Y39657D01*
X68416Y39490D01*
X68083D01*
X67917Y39657D01*
Y39824D01*
X68083Y39990D01*
X67917Y40157D01*
Y40323D01*
X68083Y39990D02*
X68416D01*
X62083Y40323D02*
X61917Y40490D01*
X61584D01*
X61417Y40323D01*
Y39657D01*
X61584Y39490D01*
X61917D01*
X62083Y39657D01*
X62417Y40490D02*
X63083D01*
Y40323D01*
X62417Y39657D01*
Y39490D01*
X67583Y57093D02*
X67417Y57260D01*
X67084D01*
X66917Y57093D01*
Y56427D01*
X67084Y56260D01*
X67417D01*
X67583Y56427D01*
X68416Y56260D02*
Y57260D01*
X67917Y56760D01*
X68583D01*
X62083Y57093D02*
X61917Y57260D01*
X61584D01*
X61417Y57093D01*
Y56427D01*
X61584Y56260D01*
X61917D01*
X62083Y56427D01*
X62417Y57093D02*
X62583Y57260D01*
X62916D01*
X63083Y57093D01*
Y56926D01*
X62916Y56760D01*
X62750D01*
X62916D01*
X63083Y56593D01*
Y56427D01*
X62916Y56260D01*
X62583D01*
X62417Y56427D01*
X43167Y38816D02*
X43000Y38650D01*
Y38317D01*
X43167Y38150D01*
X43833D01*
X44000Y38317D01*
Y38650D01*
X43833Y38816D01*
X44000Y39150D02*
Y39483D01*
Y39316D01*
X43000D01*
X43167Y39150D01*
Y39983D02*
X43000Y40149D01*
Y40483D01*
X43167Y40649D01*
X43833D01*
X44000Y40483D01*
Y40149D01*
X43833Y39983D01*
X43167D01*
X52266Y39333D02*
X52100Y39500D01*
X51767D01*
X51600Y39333D01*
Y38667D01*
X51767Y38500D01*
X52100D01*
X52266Y38667D01*
X52600D02*
X52766Y38500D01*
X53100D01*
X53266Y38667D01*
Y39333D01*
X53100Y39500D01*
X52766D01*
X52600Y39333D01*
Y39167D01*
X52766Y39000D01*
X53266D01*
X67167Y21073D02*
X67000Y21240D01*
X66667D01*
X66500Y21073D01*
Y20407D01*
X66667Y20240D01*
X67000D01*
X67167Y20407D01*
X67500Y20240D02*
X67833D01*
X67667D01*
Y21240D01*
X67500Y21073D01*
X69000Y21240D02*
X68666Y21073D01*
X68333Y20740D01*
Y20407D01*
X68500Y20240D01*
X68833D01*
X69000Y20407D01*
Y20574D01*
X68833Y20740D01*
X68333D01*
X61667Y21073D02*
X61500Y21240D01*
X61167D01*
X61000Y21073D01*
Y20407D01*
X61167Y20240D01*
X61500D01*
X61667Y20407D01*
X62000Y20240D02*
X62333D01*
X62167D01*
Y21240D01*
X62000Y21073D01*
X63500Y21240D02*
X62833D01*
Y20740D01*
X63166Y20907D01*
X63333D01*
X63500Y20740D01*
Y20407D01*
X63333Y20240D01*
X63000D01*
X62833Y20407D01*
X67167Y37843D02*
X67000Y38010D01*
X66667D01*
X66500Y37843D01*
Y37177D01*
X66667Y37010D01*
X67000D01*
X67167Y37177D01*
X67500Y37010D02*
X67833D01*
X67667D01*
Y38010D01*
X67500Y37843D01*
X69000Y37010D02*
X68333D01*
X69000Y37676D01*
Y37843D01*
X68833Y38010D01*
X68500D01*
X68333Y37843D01*
X61833D02*
X61667Y38010D01*
X61334D01*
X61167Y37843D01*
Y37177D01*
X61334Y37010D01*
X61667D01*
X61833Y37177D01*
X62167Y37010D02*
X62500D01*
X62333D01*
Y38010D01*
X62167Y37843D01*
X63000Y37010D02*
X63333D01*
X63166D01*
Y38010D01*
X63000Y37843D01*
X43167Y29517D02*
X43000Y29351D01*
Y29017D01*
X43167Y28851D01*
X43833D01*
X44000Y29017D01*
Y29351D01*
X43833Y29517D01*
X44000Y29850D02*
Y30184D01*
Y30017D01*
X43000D01*
X43167Y29850D01*
X44000Y31183D02*
X43000D01*
X43500Y30684D01*
Y31350D01*
X41167Y29517D02*
X41000Y29351D01*
Y29017D01*
X41167Y28851D01*
X41833D01*
X42000Y29017D01*
Y29351D01*
X41833Y29517D01*
X42000Y29850D02*
Y30184D01*
Y30017D01*
X41000D01*
X41167Y29850D01*
Y30684D02*
X41000Y30850D01*
Y31183D01*
X41167Y31350D01*
X41333D01*
X41500Y31183D01*
Y31017D01*
Y31183D01*
X41667Y31350D01*
X41833D01*
X42000Y31183D01*
Y30850D01*
X41833Y30684D01*
D47*
X37700Y22740D02*
G03*
X37700Y22740I-200J0D01*
G01*
X1100Y55330D02*
Y56830D01*
X1600Y56330D01*
X2100Y56830D01*
Y55330D01*
X2600D02*
X3100D01*
X2850D01*
Y56830D01*
X2600Y56580D01*
X851Y45250D02*
Y46750D01*
X1350Y46250D01*
X1850Y46750D01*
Y45250D01*
X3350D02*
X2350D01*
X3350Y46250D01*
Y46500D01*
X3100Y46750D01*
X2600D01*
X2350Y46500D01*
X851Y35170D02*
Y36670D01*
X1350Y36170D01*
X1850Y36670D01*
Y35170D01*
X2350Y36420D02*
X2600Y36670D01*
X3100D01*
X3350Y36420D01*
Y36170D01*
X3100Y35920D01*
X2850D01*
X3100D01*
X3350Y35670D01*
Y35420D01*
X3100Y35170D01*
X2600D01*
X2350Y35420D01*
X79250Y68500D02*
X80250D01*
X79750Y69000D02*
Y68000D01*
X74170Y68500D02*
X75170D01*
X96400Y13030D02*
X97400D01*
X96400Y18110D02*
X97400D01*
X96900Y18610D02*
Y17610D01*
X96400Y23130D02*
X97400D01*
X96400Y28210D02*
X97400D01*
X96900Y28710D02*
Y27710D01*
X96400Y33210D02*
X97400D01*
X96400Y38290D02*
X97400D01*
X96900Y38790D02*
Y37790D01*
X96400Y43290D02*
X97400D01*
X96400Y48370D02*
X97400D01*
X96900Y48870D02*
Y47870D01*
X96400Y58450D02*
X97400D01*
X96900Y58950D02*
Y57950D01*
X96400Y53370D02*
X97400D01*
X1600Y53540D02*
X2600D01*
X1600Y58620D02*
X2600D01*
X2100Y59120D02*
Y58120D01*
X1600Y48540D02*
X2600D01*
X2100Y49040D02*
Y48040D01*
X1600Y43460D02*
X2600D01*
X1600Y33360D02*
X2600D01*
X1600Y38440D02*
X2600D01*
X2100Y38940D02*
Y37940D01*
X1750Y13420D02*
X2750D01*
X1750Y18500D02*
X2750D01*
X2250Y19000D02*
Y18000D01*
D48*
X69798Y7132D02*
X69998D01*
X69500Y7276D02*
X70008Y7784D01*
X68992D02*
X69500Y7276D01*
X69998Y7132D02*
Y7332D01*
X69808Y7322D02*
X69998Y7132D01*
X60000Y54850D02*
X61000D01*
X63500D02*
X64500D01*
X60224Y50776D02*
X61000Y50000D01*
X60000Y45750D02*
X60664Y46414D01*
X64500Y41900D02*
Y45750D01*
X60000Y41900D02*
Y45750D01*
X63500Y46750D02*
X64500Y45750D01*
X69000Y46750D02*
X70000Y45750D01*
X69000Y41900D02*
X70000D01*
X65500Y45750D02*
X66500Y46750D01*
X70000Y41900D02*
Y45750D01*
X63500Y50000D02*
X64414Y50914D01*
X60000Y51654D02*
Y54850D01*
X65500Y41900D02*
X66500D01*
X64500Y51654D02*
Y54850D01*
X65500Y41900D02*
Y45750D01*
X70000Y51000D02*
Y54850D01*
X69000Y50000D02*
X70000Y51000D01*
X63500Y41900D02*
X64500D01*
X60000D02*
X61000D01*
X65500Y54850D02*
X66500D01*
X69000D02*
X70000D01*
X65500Y51000D02*
Y54850D01*
Y51000D02*
X66500Y50000D01*
X45750Y50350D02*
X46750D01*
X45750D02*
Y51350D01*
X50250Y50350D02*
Y51350D01*
X49250Y50350D02*
X50250D01*
X49250Y55150D02*
X50250D01*
Y54150D02*
Y55150D01*
X45750Y54150D02*
Y55150D01*
X46750D01*
X66492Y7784D02*
X67000Y7276D01*
X67308Y7322D02*
X67498Y7132D01*
X67000Y7276D02*
X67508Y7784D01*
X67298Y7132D02*
X67498D01*
Y7332D01*
X60000Y22650D02*
X61000D01*
X63500D02*
X64500D01*
X65500Y26500D02*
X66500Y27500D01*
X65500Y22650D02*
Y26500D01*
X60000D02*
X61000Y27500D01*
X60000Y26154D02*
Y26500D01*
Y22650D02*
Y25346D01*
X63500Y27500D02*
X64500Y26500D01*
Y26154D02*
Y26500D01*
Y22650D02*
Y25346D01*
X70000Y22650D02*
Y26500D01*
X60000Y32154D02*
Y35600D01*
X63500Y30750D02*
X64313Y31563D01*
X60000Y35600D02*
X61000D01*
X60437Y31313D02*
X61000Y30750D01*
X69000Y22650D02*
X70000D01*
X69000Y27500D02*
X70000Y26500D01*
X64500Y32154D02*
Y35600D01*
X65500Y22650D02*
X66500D01*
X63500Y35600D02*
X64500D01*
X69000D02*
X70000D01*
X65500D02*
X66500D01*
X49250Y35900D02*
X50250D01*
Y34900D02*
Y35900D01*
X69000Y30750D02*
X70000Y31750D01*
Y35600D01*
X65500Y31750D02*
X66500Y30750D01*
X65500Y31750D02*
Y35600D01*
X45750Y35900D02*
X46750D01*
X50250Y31100D02*
Y32100D01*
X45750Y31100D02*
Y32100D01*
Y34900D02*
Y35900D01*
X49250Y31100D02*
X50250D01*
X45750D02*
X46750D01*
D49*
X85600Y44731D02*
Y45530D01*
X85200Y45130D02*
X86000D01*
X85000Y46730D02*
Y45930D01*
X85600D01*
X85400Y46330D01*
Y46530D01*
X85600Y46730D01*
X86000D01*
X86200Y46530D01*
Y46130D01*
X86000Y45930D01*
X85000Y47130D02*
X85800D01*
X86200Y47530D01*
X85800Y47929D01*
X85000D01*
X85600Y54811D02*
Y55610D01*
X85200Y55210D02*
X86000D01*
X85000Y56810D02*
Y56010D01*
X85600D01*
X85400Y56410D01*
Y56610D01*
X85600Y56810D01*
X86000D01*
X86200Y56610D01*
Y56210D01*
X86000Y56010D01*
X85000Y57210D02*
X85800D01*
X86200Y57610D01*
X85800Y58009D01*
X85000D01*
X85600Y34651D02*
Y35450D01*
X85200Y35050D02*
X86000D01*
X85000Y36650D02*
Y35850D01*
X85600D01*
X85400Y36250D01*
Y36450D01*
X85600Y36650D01*
X86000D01*
X86200Y36450D01*
Y36050D01*
X86000Y35850D01*
X85000Y37050D02*
X85800D01*
X86200Y37450D01*
X85800Y37849D01*
X85000D01*
X14000Y38502D02*
X12800D01*
X13200Y38902D01*
X12800Y39302D01*
X14000D01*
X12800Y40302D02*
Y39902D01*
X13000Y39702D01*
X13800D01*
X14000Y39902D01*
Y40302D01*
X13800Y40502D01*
X13000D01*
X12800Y40302D01*
Y40902D02*
Y41701D01*
Y41302D01*
X14000D01*
X12800Y42701D02*
Y42301D01*
X13000Y42101D01*
X13800D01*
X14000Y42301D01*
Y42701D01*
X13800Y42901D01*
X13000D01*
X12800Y42701D01*
X14000Y43301D02*
X12800D01*
Y43901D01*
X13000Y44101D01*
X13400D01*
X13600Y43901D01*
Y43301D01*
Y43701D02*
X14000Y44101D01*
X12800Y45700D02*
X14000D01*
Y46300D01*
X13800Y46500D01*
X13000D01*
X12800Y46300D01*
Y45700D01*
X14000Y46900D02*
X12800D01*
Y47500D01*
X13000Y47699D01*
X13400D01*
X13600Y47500D01*
Y46900D01*
Y47300D02*
X14000Y47699D01*
X12800Y48099D02*
Y48499D01*
Y48299D01*
X14000D01*
Y48099D01*
Y48499D01*
X12800Y49099D02*
X13600D01*
X14000Y49499D01*
X13600Y49899D01*
X12800D01*
Y51098D02*
Y50299D01*
X14000D01*
Y51098D01*
X13400Y50299D02*
Y50698D01*
X14000Y51498D02*
X12800D01*
Y52098D01*
X13000Y52298D01*
X13400D01*
X13600Y52098D01*
Y51498D01*
Y51898D02*
X14000Y52298D01*
X13000Y53498D02*
X12800Y53298D01*
Y52898D01*
X13000Y52698D01*
X13200D01*
X13400Y52898D01*
Y53298D01*
X13600Y53498D01*
X13800D01*
X14000Y53298D01*
Y52898D01*
X13800Y52698D01*
X85600Y24571D02*
Y25370D01*
X85200Y24970D02*
X86000D01*
X85000Y26570D02*
Y25770D01*
X85600D01*
X85400Y26170D01*
Y26370D01*
X85600Y26570D01*
X86000D01*
X86200Y26370D01*
Y25970D01*
X86000Y25770D01*
X85000Y26970D02*
X85800D01*
X86200Y27370D01*
X85800Y27769D01*
X85000D01*
X85600Y14491D02*
Y15290D01*
X85200Y14890D02*
X86000D01*
X85000Y16490D02*
Y15690D01*
X85600D01*
X85400Y16090D01*
Y16290D01*
X85600Y16490D01*
X86000D01*
X86200Y16290D01*
Y15890D01*
X86000Y15690D01*
X85000Y16890D02*
X85800D01*
X86200Y17290D01*
X85800Y17689D01*
X85000D01*
X83300Y69100D02*
Y68300D01*
X83700Y67900D01*
X84100Y68300D01*
Y69100D01*
X84500Y67900D02*
X85099D01*
X85299Y68100D01*
X85099Y68300D01*
X84700D01*
X84500Y68500D01*
X84700Y68700D01*
X85299D01*
X86299Y67900D02*
X85899D01*
X85699Y68100D01*
Y68500D01*
X85899Y68700D01*
X86299D01*
X86499Y68500D01*
Y68300D01*
X85699D01*
X86899Y68700D02*
Y67900D01*
Y68300D01*
X87099Y68500D01*
X87299Y68700D01*
X87499D01*
X88098D02*
X88498Y67900D01*
X88898Y68700D01*
X89498Y67900D02*
X89898D01*
X90098Y68100D01*
Y68500D01*
X89898Y68700D01*
X89498D01*
X89298Y68500D01*
Y68100D01*
X89498Y67900D01*
X12800Y13301D02*
X13600D01*
X14000Y13701D01*
X13600Y14101D01*
X12800D01*
Y14501D02*
X14000D01*
Y15100D01*
X13800Y15300D01*
X13600D01*
X13400Y15100D01*
Y14501D01*
Y15100D01*
X13200Y15300D01*
X13000D01*
X12800Y15100D01*
Y14501D01*
X14000Y15700D02*
X13200D01*
X12800Y16100D01*
X13200Y16500D01*
X14000D01*
X13400D01*
Y15700D01*
X12800Y16900D02*
Y17699D01*
Y17300D01*
X14000D01*
X12800Y18099D02*
Y18899D01*
Y18499D01*
X14000D01*
X66400Y3751D02*
X67200D01*
X67600Y4150D01*
X67200Y4550D01*
X66400D01*
X67600Y4950D02*
Y5550D01*
X67400Y5750D01*
X67200Y5550D01*
Y5150D01*
X67000Y4950D01*
X66800Y5150D01*
Y5750D01*
X88600Y2551D02*
X88400Y2351D01*
Y1951D01*
X88600Y1751D01*
X89400D01*
X89600Y1951D01*
Y2351D01*
X89400Y2551D01*
X89000D01*
Y2151D01*
X89600Y2951D02*
X88400D01*
X89600Y3750D01*
X88400D01*
Y4150D02*
X89600D01*
Y4750D01*
X89400Y4950D01*
X88600D01*
X88400Y4750D01*
Y4150D01*
X78050Y3000D02*
X78850D01*
X78450Y3400D02*
Y2600D01*
X80049Y2400D02*
X79250D01*
X80049Y3200D01*
Y3400D01*
X79849Y3600D01*
X79450D01*
X79250Y3400D01*
X81049Y2400D02*
Y3600D01*
X80449Y3000D01*
X81249D01*
X81649Y3600D02*
Y2800D01*
X82049Y2400D01*
X82449Y2800D01*
Y3600D01*
X78050Y7600D02*
Y6800D01*
X78450Y6400D01*
X78850Y6800D01*
Y7600D01*
X79250Y6400D02*
X79849D01*
X80049Y6600D01*
X79849Y6800D01*
X79450D01*
X79250Y7000D01*
X79450Y7200D01*
X80049D01*
X81049Y6400D02*
X80649D01*
X80449Y6600D01*
Y7000D01*
X80649Y7200D01*
X81049D01*
X81249Y7000D01*
Y6800D01*
X80449D01*
X81649Y7200D02*
Y6400D01*
Y6800D01*
X81849Y7000D01*
X82049Y7200D01*
X82249D01*
X82848D02*
X83248Y6400D01*
X83648Y7200D01*
X84248Y6400D02*
X84648D01*
X84848Y6600D01*
Y7000D01*
X84648Y7200D01*
X84248D01*
X84048Y7000D01*
Y6600D01*
X84248Y6400D01*
X78050Y11000D02*
X78850D01*
X78450Y11400D02*
Y10600D01*
X80049Y11600D02*
X79250D01*
Y11000D01*
X79649Y11200D01*
X79849D01*
X80049Y11000D01*
Y10600D01*
X79849Y10400D01*
X79450D01*
X79250Y10600D01*
X80449Y11600D02*
Y10800D01*
X80849Y10400D01*
X81249Y10800D01*
Y11600D01*
X79900Y22401D02*
Y23200D01*
X79500Y22800D02*
X80300D01*
X79300Y24400D02*
Y23600D01*
X79900D01*
X79700Y24000D01*
Y24200D01*
X79900Y24400D01*
X80300D01*
X80500Y24200D01*
Y23800D01*
X80300Y23600D01*
X79300Y24800D02*
X80100D01*
X80500Y25200D01*
X80100Y25599D01*
X79300D01*
Y42601D02*
X80100D01*
X80500Y43001D01*
X80100Y43401D01*
X79300D01*
X80500Y43801D02*
Y44401D01*
X80300Y44600D01*
X80100Y44401D01*
Y44001D01*
X79900Y43801D01*
X79700Y44001D01*
Y44600D01*
X80500Y45600D02*
Y45200D01*
X80300Y45000D01*
X79900D01*
X79700Y45200D01*
Y45600D01*
X79900Y45800D01*
X80100D01*
Y45000D01*
X79700Y46200D02*
X80500D01*
X80100D01*
X79900Y46400D01*
X79700Y46600D01*
Y46800D01*
Y47400D02*
X80500Y47799D01*
X79700Y48199D01*
X80500Y48799D02*
Y49199D01*
X80300Y49399D01*
X79900D01*
X79700Y49199D01*
Y48799D01*
X79900Y48599D01*
X80300D01*
X80500Y48799D01*
X17700Y53200D02*
X16500D01*
X16900Y53600D01*
X16500Y54000D01*
X17700D01*
Y54400D02*
Y54800D01*
Y54600D01*
X16500D01*
X16700Y54400D01*
X17700Y45000D02*
X16500D01*
X16900Y45400D01*
X16500Y45800D01*
X17700D01*
Y47000D02*
Y46200D01*
X16900Y47000D01*
X16700D01*
X16500Y46800D01*
Y46400D01*
X16700Y46200D01*
X17700Y37000D02*
X16500D01*
X16900Y37400D01*
X16500Y37800D01*
X17700D01*
X16700Y38200D02*
X16500Y38400D01*
Y38800D01*
X16700Y39000D01*
X16900D01*
X17100Y38800D01*
Y38600D01*
Y38800D01*
X17300Y39000D01*
X17500D01*
X17700Y38800D01*
Y38400D01*
X17500Y38200D01*
X16500Y27801D02*
X17700D01*
Y28401D01*
X17500Y28600D01*
X17300D01*
X17100Y28401D01*
Y27801D01*
Y28401D01*
X16900Y28600D01*
X16700D01*
X16500Y28401D01*
Y27801D01*
X17700Y29000D02*
X16900D01*
X16500Y29400D01*
X16900Y29800D01*
X17700D01*
X17100D01*
Y29000D01*
X16500Y30200D02*
Y31000D01*
Y30600D01*
X17700D01*
X16500Y31400D02*
Y32199D01*
Y31799D01*
X17700D01*
X69500Y2551D02*
Y3351D01*
X69100Y2951D02*
X69900D01*
X68900Y4550D02*
Y3751D01*
X69500D01*
X69300Y4150D01*
Y4350D01*
X69500Y4550D01*
X69900D01*
X70100Y4350D01*
Y3951D01*
X69900Y3751D01*
X68900Y4950D02*
X69700D01*
X70100Y5350D01*
X69700Y5750D01*
X68900D01*
X57180Y12100D02*
X56980Y11900D01*
Y11500D01*
X57180Y11300D01*
X57980D01*
X58180Y11500D01*
Y11900D01*
X57980Y12100D01*
X57580D01*
Y11700D01*
X58180Y12500D02*
X56980D01*
X58180Y13299D01*
X56980D01*
Y13699D02*
X58180D01*
Y14299D01*
X57980Y14499D01*
X57180D01*
X56980Y14299D01*
Y13699D01*
X52500Y11300D02*
Y12100D01*
X52100Y11700D02*
X52900D01*
X53100Y13299D02*
Y12500D01*
X52300Y13299D01*
X52100D01*
X51900Y13099D01*
Y12700D01*
X52100Y12500D01*
X53100Y14299D02*
X51900D01*
X52500Y13699D01*
Y14499D01*
X51900Y14899D02*
X52700D01*
X53100Y15299D01*
X52700Y15699D01*
X51900D01*
X60345Y49083D02*
Y50083D01*
X59845Y49583D02*
X60845D01*
X69655Y47667D02*
Y46667D01*
X70155Y47167D02*
X69155D01*
X65845Y49083D02*
Y50083D01*
X65345Y49583D02*
X66345D01*
X64155Y47667D02*
Y46667D01*
X64655Y47167D02*
X63655D01*
X64155Y28417D02*
Y27417D01*
X64655Y27917D02*
X63655D01*
X69655Y28417D02*
Y27417D01*
X70155Y27917D02*
X69155D01*
X60345Y29833D02*
Y30833D01*
X59845Y30333D02*
X60845D01*
X65845Y29833D02*
Y30833D01*
X65345Y30333D02*
X66345D01*
D50*
X94042Y11418D02*
Y11168D01*
X93292D01*
Y11418D01*
Y12293D02*
Y11793D01*
X93667D01*
Y12043D01*
Y11793D01*
X94042D01*
X93542Y12543D02*
X94042D01*
X93792D01*
X93667Y12668D01*
X93542Y12792D01*
Y12917D01*
X94042Y13417D02*
Y13667D01*
X93917Y13792D01*
X93667D01*
X93542Y13667D01*
Y13417D01*
X93667Y13292D01*
X93917D01*
X94042Y13417D01*
Y14042D02*
X93542D01*
Y14417D01*
X93667Y14542D01*
X94042D01*
X93417Y14917D02*
X93542D01*
Y14792D01*
Y15042D01*
Y14917D01*
X93917D01*
X94042Y15042D01*
Y15417D02*
Y15667D01*
X93292D01*
Y15417D01*
X4958Y60252D02*
Y60502D01*
X5708D01*
Y60252D01*
Y59377D02*
Y59877D01*
X5333D01*
Y59627D01*
Y59877D01*
X4958D01*
X5458Y59127D02*
X4958D01*
X5208D01*
X5333Y59002D01*
X5458Y58878D01*
Y58753D01*
X4958Y58253D02*
Y58003D01*
X5083Y57878D01*
X5333D01*
X5458Y58003D01*
Y58253D01*
X5333Y58378D01*
X5083D01*
X4958Y58253D01*
Y57628D02*
X5458D01*
Y57253D01*
X5333Y57128D01*
X4958D01*
X5583Y56753D02*
X5458D01*
Y56878D01*
Y56628D01*
Y56753D01*
X5083D01*
X4958Y56628D01*
Y56253D02*
Y56003D01*
X5708D01*
Y56253D01*
%TF.MD5,537333fc6690b4c76695115d854ba952*%
M02*
