%TF.GenerationSoftware,Altium Limited,Altium Designer,25.2.1 (25)*%
G04 Layer_Physical_Order=3*
G04 Layer_Color=16440176*
%FSLAX43Y43*%
%MOMM*%
%TF.SameCoordinates,2635E17B-F086-4753-8714-BA37E3CCEC02*%
%TF.FilePolarity,Positive*%
%TF.FileFunction,Copper,L3,Inr,Signal*%
%TF.Part,Single*%
G01*
G75*
%TA.AperFunction,Conductor*%
%ADD29C,0.200*%
%TA.AperFunction,ComponentPad*%
%ADD34C,1.250*%
%ADD35C,1.524*%
%ADD36C,2.500*%
%ADD37C,3.000*%
%ADD38C,1.325*%
%ADD39C,2.400*%
%ADD40C,4.000*%
%ADD41O,7.000X3.500*%
%ADD42C,6.000*%
%TA.AperFunction,ViaPad*%
%ADD43C,0.700*%
%TA.AperFunction,Conductor*%
%ADD44C,1.000*%
G36*
X28000Y40910D02*
Y39507D01*
X27730Y39395D01*
X27464Y39217D01*
X27238Y38991D01*
X27060Y38725D01*
X26937Y38429D01*
X26875Y38115D01*
Y37795D01*
X26937Y37481D01*
X27060Y37185D01*
X27238Y36919D01*
X27464Y36693D01*
X27730Y36515D01*
X28000Y36403D01*
Y36000D01*
X5750D01*
Y40950D01*
X27910Y41000D01*
X28000Y40910D01*
D02*
G37*
G36*
Y55507D02*
X27730Y55395D01*
X27464Y55217D01*
X27238Y54991D01*
X27060Y54725D01*
X26937Y54429D01*
X26875Y54115D01*
Y53795D01*
X26937Y53481D01*
X27060Y53185D01*
X27238Y52919D01*
X27464Y52693D01*
X27730Y52515D01*
X28000Y52403D01*
Y51000D01*
X18500D01*
Y55500D01*
X5750D01*
Y61000D01*
X28000D01*
Y55507D01*
D02*
G37*
G36*
X17500Y49000D02*
X28000D01*
Y47507D01*
X27730Y47395D01*
X27464Y47217D01*
X27238Y46991D01*
X27060Y46725D01*
X26937Y46429D01*
X26875Y46115D01*
Y45795D01*
X26937Y45481D01*
X27060Y45185D01*
X27238Y44919D01*
X27464Y44693D01*
X27730Y44515D01*
X28000Y44403D01*
Y43000D01*
X28000Y43000D01*
X15000D01*
Y45500D01*
X5750D01*
Y51000D01*
X17500D01*
Y49000D01*
D02*
G37*
G36*
X49000Y32315D02*
X48901Y32258D01*
X48780Y32137D01*
X48694Y31988D01*
X48650Y31823D01*
Y31652D01*
X48694Y31487D01*
X48780Y31338D01*
X48901Y31217D01*
X49000Y31160D01*
Y21750D01*
X45750D01*
Y32500D01*
X46544D01*
X46560Y32373D01*
X46449Y32343D01*
X46301Y32258D01*
X46180Y32137D01*
X46094Y31988D01*
X46050Y31823D01*
Y31652D01*
X46094Y31487D01*
X46180Y31338D01*
X46301Y31217D01*
X46449Y31132D01*
X46614Y31087D01*
X46786D01*
X46951Y31132D01*
X47099Y31217D01*
X47220Y31338D01*
X47306Y31487D01*
X47350Y31652D01*
Y31823D01*
X47306Y31988D01*
X47220Y32137D01*
X47099Y32258D01*
X46951Y32343D01*
X46840Y32373D01*
X46856Y32500D01*
X49000D01*
Y32315D01*
D02*
G37*
G36*
Y51566D02*
X48900Y51508D01*
X48779Y51387D01*
X48694Y51239D01*
X48650Y51074D01*
Y50902D01*
X48694Y50737D01*
X48779Y50589D01*
X48900Y50468D01*
X49000Y50410D01*
Y41000D01*
X45750D01*
Y51750D01*
X46541D01*
X46558Y51623D01*
X46449Y51594D01*
X46300Y51508D01*
X46179Y51387D01*
X46094Y51239D01*
X46049Y51074D01*
Y50902D01*
X46094Y50737D01*
X46179Y50589D01*
X46300Y50468D01*
X46449Y50382D01*
X46614Y50338D01*
X46785D01*
X46950Y50382D01*
X47099Y50468D01*
X47220Y50589D01*
X47305Y50737D01*
X47349Y50902D01*
Y51074D01*
X47305Y51239D01*
X47220Y51387D01*
X47099Y51508D01*
X46950Y51594D01*
X46841Y51623D01*
X46858Y51750D01*
X49000D01*
Y51566D01*
D02*
G37*
G36*
X79000Y24500D02*
X77097D01*
X76985Y24770D01*
X76807Y25036D01*
X76581Y25262D01*
X76315Y25440D01*
X76019Y25563D01*
X75705Y25625D01*
X75385D01*
X75071Y25563D01*
X74775Y25440D01*
X74509Y25262D01*
X74283Y25036D01*
X74105Y24770D01*
X73993Y24500D01*
X58000D01*
Y21750D01*
X51000D01*
Y29750D01*
X59500D01*
X59550Y29800D01*
Y32500D01*
X79000D01*
Y24500D01*
D02*
G37*
G36*
Y46500D02*
X77097D01*
X76985Y46770D01*
X76807Y47036D01*
X76581Y47262D01*
X76315Y47440D01*
X76019Y47563D01*
X75705Y47625D01*
X75385D01*
X75071Y47563D01*
X74775Y47440D01*
X74509Y47262D01*
X74283Y47036D01*
X74105Y46770D01*
X73993Y46500D01*
X71000D01*
Y45000D01*
X58000D01*
Y41000D01*
X51000D01*
Y49000D01*
X59500D01*
Y52950D01*
X59550Y53000D01*
X79000D01*
Y46500D01*
D02*
G37*
D29*
X20250Y64000D02*
X20750D01*
X18200D02*
X20250D01*
X42250Y51750D02*
Y58250D01*
Y51750D02*
X44250Y49750D01*
X46750D01*
X43500Y45750D02*
Y47750D01*
X41000Y50250D02*
X43500Y47750D01*
X41000Y50250D02*
Y62250D01*
X42708Y63958D01*
Y64918D01*
X42790Y65000D01*
X42250Y45750D02*
Y47750D01*
X40000Y50000D02*
Y62750D01*
Y50000D02*
X42250Y47750D01*
X40000Y62750D02*
X41500Y64250D01*
Y65750D01*
X39000Y49500D02*
Y63750D01*
X40250Y65000D01*
X39000Y49500D02*
X41000Y47500D01*
X41750Y31000D02*
Y37500D01*
Y31000D02*
X43000Y29750D01*
X47250D01*
X73750Y7000D02*
X76000D01*
X69500Y11250D02*
X73750Y7000D01*
X65750Y11250D02*
X69500D01*
X76750Y39960D02*
X82500Y34210D01*
Y10500D02*
Y34210D01*
X79000Y7000D02*
X82500Y10500D01*
X76000Y7000D02*
X79000D01*
X20750Y64000D02*
X23250Y66500D01*
X40750D01*
X41500Y65750D01*
X41000Y45750D02*
Y47500D01*
D34*
X65040Y67290D02*
D03*
X62500Y64750D02*
D03*
X65040Y62210D02*
D03*
D35*
X37710Y65000D02*
D03*
X42790D02*
D03*
X40250D02*
D03*
X49460D02*
D03*
X54540D02*
D03*
X52000D02*
D03*
D36*
X91000Y58450D02*
D03*
Y53370D02*
D03*
Y48370D02*
D03*
Y43290D02*
D03*
Y38290D02*
D03*
Y33210D02*
D03*
Y28210D02*
D03*
Y23130D02*
D03*
Y18130D02*
D03*
Y13050D02*
D03*
X57580Y6500D02*
D03*
X52500D02*
D03*
X8000Y13420D02*
D03*
Y18500D02*
D03*
Y38460D02*
D03*
Y33380D02*
D03*
Y48540D02*
D03*
Y43460D02*
D03*
Y58620D02*
D03*
Y53540D02*
D03*
X79750Y63000D02*
D03*
X74670D02*
D03*
D37*
X42500Y18600D02*
D03*
Y3400D02*
D03*
D38*
X75545Y46000D02*
D03*
Y24000D02*
D03*
X28500Y45955D02*
D03*
Y53955D02*
D03*
Y29955D02*
D03*
Y37955D02*
D03*
D39*
X76750Y39960D02*
D03*
X74250D02*
D03*
X76750Y43460D02*
D03*
X74250D02*
D03*
X76750Y48540D02*
D03*
X74250D02*
D03*
X76750Y52040D02*
D03*
X74250D02*
D03*
Y30040D02*
D03*
X76750D02*
D03*
X74250Y26540D02*
D03*
X76750D02*
D03*
X74250Y21460D02*
D03*
X76750D02*
D03*
X74250Y17960D02*
D03*
X76750D02*
D03*
X34540Y47250D02*
D03*
Y44750D02*
D03*
X31040Y47250D02*
D03*
Y44750D02*
D03*
X25960Y47250D02*
D03*
Y44750D02*
D03*
X22460Y47250D02*
D03*
Y44750D02*
D03*
X34540Y55250D02*
D03*
Y52750D02*
D03*
X31040Y55250D02*
D03*
Y52750D02*
D03*
X25960Y55250D02*
D03*
Y52750D02*
D03*
X22460Y55250D02*
D03*
Y52750D02*
D03*
X34540Y31250D02*
D03*
Y28750D02*
D03*
X31040Y31250D02*
D03*
Y28750D02*
D03*
X25960Y31250D02*
D03*
Y28750D02*
D03*
X22460Y31250D02*
D03*
Y28750D02*
D03*
X34540Y39250D02*
D03*
Y36750D02*
D03*
X31040Y39250D02*
D03*
Y36750D02*
D03*
X25960Y39250D02*
D03*
Y36750D02*
D03*
X22460Y39250D02*
D03*
Y36750D02*
D03*
D40*
X28500Y4500D02*
D03*
X21110D02*
D03*
X35890D02*
D03*
D41*
X24550Y22740D02*
D03*
X32450D02*
D03*
D42*
X94500Y66500D02*
D03*
X4500D02*
D03*
Y4500D02*
D03*
X94500D02*
D03*
D43*
X48000Y32263D02*
D03*
Y51513D02*
D03*
X89000Y7000D02*
D03*
X18200Y64000D02*
D03*
X18250Y68000D02*
D03*
X53000Y52250D02*
D03*
X45000Y51000D02*
D03*
X42250Y58250D02*
D03*
X41750Y37500D02*
D03*
X67750Y23050D02*
D03*
X62250D02*
D03*
X67750Y35200D02*
D03*
X62250D02*
D03*
Y42300D02*
D03*
X67750D02*
D03*
Y54450D02*
D03*
X62250D02*
D03*
X54500Y49750D02*
D03*
X65750Y11250D02*
D03*
X76000Y7000D02*
D03*
X12000Y64500D02*
D03*
X41000Y45750D02*
D03*
X43500D02*
D03*
X42250D02*
D03*
X48000Y58250D02*
D03*
X53000Y57250D02*
D03*
X53000Y53250D02*
D03*
X72250Y31750D02*
D03*
Y28750D02*
D03*
Y25750D02*
D03*
X70750Y31750D02*
D03*
X71500Y30250D02*
D03*
X70750Y28750D02*
D03*
X71500Y27250D02*
D03*
X70750Y25750D02*
D03*
X69250Y31750D02*
D03*
X70000Y30250D02*
D03*
X69250Y28750D02*
D03*
Y25750D02*
D03*
X67750Y31750D02*
D03*
X66250D02*
D03*
Y28750D02*
D03*
Y25750D02*
D03*
X64750Y31750D02*
D03*
Y28750D02*
D03*
X65500Y27250D02*
D03*
X64750Y25750D02*
D03*
X63250Y31750D02*
D03*
X64000Y30250D02*
D03*
X63250Y28750D02*
D03*
Y25750D02*
D03*
X61750Y31750D02*
D03*
Y25750D02*
D03*
X60250Y31750D02*
D03*
Y28750D02*
D03*
Y25750D02*
D03*
X58750Y28750D02*
D03*
X59500Y27250D02*
D03*
X58750Y25750D02*
D03*
X57250Y28750D02*
D03*
X58000Y27250D02*
D03*
X57250Y25750D02*
D03*
Y22750D02*
D03*
X55750Y28750D02*
D03*
X56500Y27250D02*
D03*
X55750Y25750D02*
D03*
X56500Y24250D02*
D03*
X54250Y28750D02*
D03*
X55000Y27250D02*
D03*
X54250Y25750D02*
D03*
X55000Y24250D02*
D03*
X54250Y22750D02*
D03*
X52750Y28750D02*
D03*
Y22750D02*
D03*
Y42250D02*
D03*
X72250Y51250D02*
D03*
X73000Y49750D02*
D03*
X72250Y48250D02*
D03*
X70750Y51250D02*
D03*
X71500Y49750D02*
D03*
X70750Y48250D02*
D03*
X69250Y51250D02*
D03*
X70000Y49750D02*
D03*
X69250Y48250D02*
D03*
X66250Y51250D02*
D03*
Y48250D02*
D03*
X64750Y51250D02*
D03*
Y48250D02*
D03*
X65500Y46750D02*
D03*
X64000Y49750D02*
D03*
X63250Y48250D02*
D03*
X61750D02*
D03*
X60250Y51250D02*
D03*
Y48250D02*
D03*
X61000Y46750D02*
D03*
X58750Y48250D02*
D03*
X59500Y46750D02*
D03*
X57250Y48250D02*
D03*
X58000Y46750D02*
D03*
X57250Y45250D02*
D03*
Y42250D02*
D03*
X55750Y48250D02*
D03*
X56500Y46750D02*
D03*
X55750Y45250D02*
D03*
X56500Y43750D02*
D03*
X55750Y42250D02*
D03*
X54250Y48250D02*
D03*
X55000Y46750D02*
D03*
X54250Y45250D02*
D03*
X55000Y43750D02*
D03*
X54250Y42250D02*
D03*
X52750Y48250D02*
D03*
X49300Y31737D02*
D03*
X46700D02*
D03*
X46700Y50988D02*
D03*
X49299D02*
D03*
X47750Y49750D02*
D03*
X48250Y48750D02*
D03*
X47750Y47750D02*
D03*
X48250Y46750D02*
D03*
X47750Y41750D02*
D03*
X46750Y49750D02*
D03*
X47250Y48750D02*
D03*
X46750Y47750D02*
D03*
X47250Y46750D02*
D03*
X46750Y41750D02*
D03*
X47750Y30750D02*
D03*
X48250Y29750D02*
D03*
X47750Y28750D02*
D03*
X48250Y27750D02*
D03*
X47750Y26750D02*
D03*
Y22750D02*
D03*
X47250Y29750D02*
D03*
X46750Y28750D02*
D03*
X47250Y27750D02*
D03*
X46750Y26750D02*
D03*
Y22750D02*
D03*
X48000Y34000D02*
D03*
Y53250D02*
D03*
X65500Y5250D02*
D03*
X52500Y34000D02*
D03*
X45000Y32000D02*
D03*
X51250Y35250D02*
D03*
X44500Y56500D02*
D03*
X52000Y37750D02*
D03*
D44*
X3448Y5552D02*
X4500Y4500D01*
X3448Y5552D02*
Y65448D01*
X4500Y66500D01*
X94500Y4500D02*
Y66500D01*
X49000Y3000D02*
X91551D01*
X93051Y4500D02*
X94500D01*
X91551Y3000D02*
X93051Y4500D01*
X45500Y6500D02*
X49000Y3000D01*
X40250Y6500D02*
X45500D01*
X38320Y4570D02*
X40250Y6500D01*
X35960Y4570D02*
X38320D01*
X35890Y4500D02*
X35960Y4570D01*
X28500Y4500D02*
X35890D01*
X21110D02*
X28500D01*
X4500D02*
X21110D01*
%TF.MD5,76a7b1310b7948dc1d1eed7c84d2bfd2*%
M02*
