%TF.GenerationSoftware,Altium Limited,Altium Designer,25.2.1 (25)*%
G04 Layer_Color=255*
%FSLAX43Y43*%
%MOMM*%
%TF.SameCoordinates,2635E17B-F086-4753-8714-BA37E3CCEC02*%
%TF.FilePolarity,Positive*%
%TF.FileFunction,Pads,Bot*%
%TF.Part,Single*%
G01*
G75*
%TA.AperFunction,ComponentPad*%
%ADD34C,1.250*%
%ADD35C,1.524*%
%ADD36C,2.500*%
%ADD37C,3.000*%
%ADD38C,1.325*%
%ADD39C,2.400*%
%ADD40C,4.000*%
%ADD41O,7.000X3.500*%
%ADD42C,6.000*%
D34*
X65040Y67290D02*
D03*
X62500Y64750D02*
D03*
X65040Y62210D02*
D03*
D35*
X37710Y65000D02*
D03*
X42790D02*
D03*
X40250D02*
D03*
X49460D02*
D03*
X54540D02*
D03*
X52000D02*
D03*
D36*
X91000Y58450D02*
D03*
Y53370D02*
D03*
Y48370D02*
D03*
Y43290D02*
D03*
Y38290D02*
D03*
Y33210D02*
D03*
Y28210D02*
D03*
Y23130D02*
D03*
Y18130D02*
D03*
Y13050D02*
D03*
X57580Y6500D02*
D03*
X52500D02*
D03*
X8000Y13420D02*
D03*
Y18500D02*
D03*
Y38460D02*
D03*
Y33380D02*
D03*
Y48540D02*
D03*
Y43460D02*
D03*
Y58620D02*
D03*
Y53540D02*
D03*
X79750Y63000D02*
D03*
X74670D02*
D03*
D37*
X42500Y18600D02*
D03*
Y3400D02*
D03*
D38*
X75545Y46000D02*
D03*
Y24000D02*
D03*
X28500Y45955D02*
D03*
Y53955D02*
D03*
Y29955D02*
D03*
Y37955D02*
D03*
D39*
X76750Y39960D02*
D03*
X74250D02*
D03*
X76750Y43460D02*
D03*
X74250D02*
D03*
X76750Y48540D02*
D03*
X74250D02*
D03*
X76750Y52040D02*
D03*
X74250D02*
D03*
Y30040D02*
D03*
X76750D02*
D03*
X74250Y26540D02*
D03*
X76750D02*
D03*
X74250Y21460D02*
D03*
X76750D02*
D03*
X74250Y17960D02*
D03*
X76750D02*
D03*
X34540Y47250D02*
D03*
Y44750D02*
D03*
X31040Y47250D02*
D03*
Y44750D02*
D03*
X25960Y47250D02*
D03*
Y44750D02*
D03*
X22460Y47250D02*
D03*
Y44750D02*
D03*
X34540Y55250D02*
D03*
Y52750D02*
D03*
X31040Y55250D02*
D03*
Y52750D02*
D03*
X25960Y55250D02*
D03*
Y52750D02*
D03*
X22460Y55250D02*
D03*
Y52750D02*
D03*
X34540Y31250D02*
D03*
Y28750D02*
D03*
X31040Y31250D02*
D03*
Y28750D02*
D03*
X25960Y31250D02*
D03*
Y28750D02*
D03*
X22460Y31250D02*
D03*
Y28750D02*
D03*
X34540Y39250D02*
D03*
Y36750D02*
D03*
X31040Y39250D02*
D03*
Y36750D02*
D03*
X25960Y39250D02*
D03*
Y36750D02*
D03*
X22460Y39250D02*
D03*
Y36750D02*
D03*
D40*
X28500Y4500D02*
D03*
X21110D02*
D03*
X35890D02*
D03*
D41*
X24550Y22740D02*
D03*
X32450D02*
D03*
D42*
X94500Y66500D02*
D03*
X4500D02*
D03*
Y4500D02*
D03*
X94500D02*
D03*
%TF.MD5,23d56b1eae28e498841aade495572bf9*%
M02*
