%TF.GenerationSoftware,Altium Limited,Altium Designer,25.2.1 (25)*%
G04 Layer_Color=8388736*
%FSLAX43Y43*%
%MOMM*%
%TF.SameCoordinates,2635E17B-F086-4753-8714-BA37E3CCEC02*%
%TF.FilePolarity,Negative*%
%TF.FileFunction,Soldermask,Top*%
%TF.Part,Single*%
G01*
G75*
%TA.AperFunction,SMDPad,CuDef*%
%ADD54C,2.150*%
G04:AMPARAMS|DCode=55|XSize=1.05mm|YSize=0.45mm|CornerRadius=0.15mm|HoleSize=0mm|Usage=FLASHONLY|Rotation=90.000|XOffset=0mm|YOffset=0mm|HoleType=Round|Shape=RoundedRectangle|*
%AMROUNDEDRECTD55*
21,1,1.050,0.150,0,0,90.0*
21,1,0.750,0.450,0,0,90.0*
1,1,0.300,0.075,0.375*
1,1,0.300,0.075,-0.375*
1,1,0.300,-0.075,-0.375*
1,1,0.300,-0.075,0.375*
%
%ADD55ROUNDEDRECTD55*%
G04:AMPARAMS|DCode=56|XSize=1.7mm|YSize=0.4mm|CornerRadius=0.138mm|HoleSize=0mm|Usage=FLASHONLY|Rotation=0.000|XOffset=0mm|YOffset=0mm|HoleType=Round|Shape=RoundedRectangle|*
%AMROUNDEDRECTD56*
21,1,1.700,0.125,0,0,0.0*
21,1,1.425,0.400,0,0,0.0*
1,1,0.275,0.713,-0.063*
1,1,0.275,-0.713,-0.063*
1,1,0.275,-0.713,0.063*
1,1,0.275,0.713,0.063*
%
%ADD56ROUNDEDRECTD56*%
G04:AMPARAMS|DCode=57|XSize=1.05mm|YSize=0.45mm|CornerRadius=0.15mm|HoleSize=0mm|Usage=FLASHONLY|Rotation=0.000|XOffset=0mm|YOffset=0mm|HoleType=Round|Shape=RoundedRectangle|*
%AMROUNDEDRECTD57*
21,1,1.050,0.150,0,0,0.0*
21,1,0.750,0.450,0,0,0.0*
1,1,0.300,0.375,-0.075*
1,1,0.300,-0.375,-0.075*
1,1,0.300,-0.375,0.075*
1,1,0.300,0.375,0.075*
%
%ADD57ROUNDEDRECTD57*%
G04:AMPARAMS|DCode=58|XSize=1.4mm|YSize=0.75mm|CornerRadius=0.135mm|HoleSize=0mm|Usage=FLASHONLY|Rotation=180.000|XOffset=0mm|YOffset=0mm|HoleType=Round|Shape=RoundedRectangle|*
%AMROUNDEDRECTD58*
21,1,1.400,0.480,0,0,180.0*
21,1,1.130,0.750,0,0,180.0*
1,1,0.270,-0.565,0.240*
1,1,0.270,0.565,0.240*
1,1,0.270,0.565,-0.240*
1,1,0.270,-0.565,-0.240*
%
%ADD58ROUNDEDRECTD58*%
%ADD59R,0.850X0.800*%
%ADD60R,1.400X0.750*%
%ADD61R,0.750X1.400*%
%ADD62R,1.950X2.150*%
%ADD63R,2.650X3.350*%
%TA.AperFunction,ComponentPad*%
%ADD64C,1.400*%
%ADD65C,1.674*%
%ADD66C,2.650*%
%ADD67C,3.150*%
%ADD68C,1.475*%
%ADD69C,2.550*%
%ADD70C,4.150*%
%ADD71O,7.150X3.650*%
%ADD72C,6.150*%
%TA.AperFunction,ViaPad*%
%ADD73C,0.850*%
G36*
X47480Y32250D02*
X47486Y32249D01*
X47486Y32249D01*
X47486Y32249D01*
X47492Y32248D01*
X47498Y32247D01*
X47498Y32247D01*
X47498Y32247D01*
X47503Y32244D01*
X47509Y32242D01*
X47509Y32242D01*
X47509Y32242D01*
X47514Y32239D01*
X47519Y32236D01*
X47519Y32236D01*
X47519Y32236D01*
X47524Y32232D01*
X47528Y32228D01*
X47528Y32228D01*
X47528Y32228D01*
X47532Y32223D01*
X47535Y32219D01*
X47535Y32219D01*
X47535Y32219D01*
X47539Y32214D01*
X47541Y32209D01*
X47541Y32209D01*
X47542Y32209D01*
X47544Y32204D01*
X47546Y32198D01*
X47546Y32198D01*
X47546Y32198D01*
X47547Y32193D01*
X47549Y32187D01*
X47549Y32187D01*
X47549Y32187D01*
X47549Y32181D01*
X47550Y32175D01*
X47550Y31925D01*
X47550Y31925D01*
X47550Y31925D01*
X47550Y31919D01*
X47549Y31913D01*
X47549Y31913D01*
X47549Y31913D01*
X47548Y31907D01*
X47547Y31902D01*
X47547Y31902D01*
X47547Y31902D01*
X47544Y31896D01*
X47542Y31891D01*
X47542Y31891D01*
X47542Y31891D01*
X47539Y31886D01*
X47536Y31881D01*
X47536Y31881D01*
X47536Y31881D01*
X47532Y31876D01*
X47528Y31872D01*
X47528Y31872D01*
X47528Y31872D01*
X47524Y31868D01*
X47519Y31864D01*
X47519Y31864D01*
X47519Y31864D01*
X47514Y31861D01*
X47509Y31858D01*
X47509Y31858D01*
X47509Y31858D01*
X47504Y31856D01*
X47498Y31853D01*
X47498Y31853D01*
X47498Y31853D01*
X47493Y31852D01*
X47487Y31851D01*
X47487Y31851D01*
X47487Y31851D01*
X47481Y31850D01*
X47475Y31850D01*
X47475Y31850D01*
X47475Y31850D01*
X46975D01*
Y31300D01*
X46974Y31288D01*
X46972Y31277D01*
X46967Y31266D01*
X46961Y31256D01*
X46953Y31247D01*
X46944Y31239D01*
X46934Y31233D01*
X46923Y31228D01*
X46912Y31226D01*
X46900Y31225D01*
X46450D01*
X46438Y31226D01*
X46427Y31228D01*
X46416Y31233D01*
X46406Y31239D01*
X46397Y31247D01*
X46389Y31256D01*
X46383Y31266D01*
X46378Y31277D01*
X46376Y31288D01*
X46375Y31300D01*
Y31850D01*
X45925D01*
X45913Y31851D01*
X45902Y31853D01*
X45891Y31858D01*
X45881Y31864D01*
X45872Y31872D01*
X45864Y31881D01*
X45858Y31891D01*
X45853Y31902D01*
X45851Y31913D01*
X45850Y31925D01*
Y32175D01*
X45851Y32187D01*
X45853Y32198D01*
X45858Y32209D01*
X45864Y32219D01*
X45872Y32228D01*
X45881Y32236D01*
X45891Y32242D01*
X45902Y32247D01*
X45913Y32249D01*
X45925Y32250D01*
X47474D01*
X47480Y32250D01*
D02*
G37*
G36*
X48312Y33299D02*
X48323Y33297D01*
X48334Y33292D01*
X48344Y33286D01*
X48353Y33278D01*
X48361Y33269D01*
X48367Y33259D01*
X48372Y33248D01*
X48374Y33237D01*
X48375Y33225D01*
Y31300D01*
X48374Y31288D01*
X48372Y31277D01*
X48367Y31266D01*
X48361Y31256D01*
X48353Y31247D01*
X48344Y31239D01*
X48334Y31233D01*
X48323Y31228D01*
X48312Y31226D01*
X48300Y31225D01*
X47700D01*
X47688Y31226D01*
X47677Y31228D01*
X47666Y31233D01*
X47656Y31239D01*
X47647Y31247D01*
X47639Y31256D01*
X47633Y31266D01*
X47628Y31277D01*
X47626Y31288D01*
X47625Y31300D01*
Y33225D01*
X47626Y33237D01*
X47628Y33248D01*
X47633Y33259D01*
X47639Y33269D01*
X47647Y33278D01*
X47656Y33286D01*
X47666Y33292D01*
X47677Y33297D01*
X47688Y33299D01*
X47700Y33300D01*
X48300D01*
X48312Y33299D01*
D02*
G37*
G36*
X50087Y32249D02*
X50098Y32247D01*
X50109Y32242D01*
X50119Y32236D01*
X50128Y32228D01*
X50136Y32219D01*
X50142Y32209D01*
X50147Y32198D01*
X50149Y32187D01*
X50150Y32175D01*
Y31925D01*
X50149Y31913D01*
X50147Y31902D01*
X50142Y31891D01*
X50136Y31881D01*
X50128Y31872D01*
X50119Y31864D01*
X50109Y31858D01*
X50098Y31853D01*
X50087Y31851D01*
X50075Y31850D01*
X49625D01*
Y31300D01*
X49624Y31288D01*
X49622Y31277D01*
X49617Y31266D01*
X49611Y31256D01*
X49603Y31247D01*
X49594Y31239D01*
X49584Y31233D01*
X49573Y31228D01*
X49562Y31226D01*
X49550Y31225D01*
X49100D01*
X49088Y31226D01*
X49077Y31228D01*
X49066Y31233D01*
X49056Y31239D01*
X49047Y31247D01*
X49039Y31256D01*
X49033Y31266D01*
X49028Y31277D01*
X49026Y31288D01*
X49025Y31300D01*
Y31850D01*
X48525D01*
X48525Y31850D01*
X48525Y31850D01*
X48519Y31850D01*
X48513Y31851D01*
X48513Y31851D01*
X48513Y31851D01*
X48507Y31852D01*
X48502Y31853D01*
X48502Y31853D01*
X48502Y31853D01*
X48496Y31856D01*
X48491Y31858D01*
X48491Y31858D01*
X48491Y31858D01*
X48486Y31861D01*
X48481Y31864D01*
X48481Y31864D01*
X48481Y31864D01*
X48476Y31868D01*
X48472Y31872D01*
X48472Y31872D01*
X48472Y31872D01*
X48468Y31876D01*
X48464Y31881D01*
X48464Y31881D01*
X48464Y31881D01*
X48461Y31886D01*
X48458Y31891D01*
X48458Y31891D01*
X48458Y31891D01*
X48456Y31896D01*
X48453Y31902D01*
X48453Y31902D01*
X48453Y31902D01*
X48452Y31907D01*
X48451Y31913D01*
X48451Y31913D01*
X48451Y31913D01*
X48450Y31919D01*
X48450Y31925D01*
X48450Y31925D01*
X48450Y31925D01*
X48450Y32175D01*
X48451Y32181D01*
X48451Y32187D01*
X48451Y32187D01*
X48451Y32187D01*
X48453Y32193D01*
X48454Y32198D01*
X48454Y32198D01*
X48454Y32198D01*
X48456Y32204D01*
X48458Y32209D01*
X48459Y32209D01*
X48459Y32209D01*
X48461Y32214D01*
X48465Y32219D01*
X48465Y32219D01*
X48465Y32219D01*
X48468Y32223D01*
X48472Y32228D01*
X48472Y32228D01*
X48472Y32228D01*
X48476Y32232D01*
X48481Y32236D01*
X48481Y32236D01*
X48481Y32236D01*
X48486Y32239D01*
X48491Y32242D01*
X48491Y32242D01*
X48491Y32242D01*
X48497Y32244D01*
X48502Y32247D01*
X48502Y32247D01*
X48502Y32247D01*
X48508Y32248D01*
X48514Y32249D01*
X48514Y32249D01*
X48514Y32249D01*
X48520Y32250D01*
X48526Y32250D01*
X50075D01*
X50087Y32249D01*
D02*
G37*
G36*
X46937Y35774D02*
X46948Y35772D01*
X46959Y35767D01*
X46969Y35761D01*
X46978Y35753D01*
X46986Y35744D01*
X46992Y35734D01*
X46997Y35723D01*
X46999Y35712D01*
X47000Y35700D01*
Y34800D01*
X46999Y34788D01*
X46997Y34777D01*
X46992Y34766D01*
X46986Y34756D01*
X46978Y34747D01*
X46969Y34739D01*
X46959Y34733D01*
X46948Y34728D01*
X46937Y34726D01*
X46925Y34725D01*
X45950D01*
X45938Y34726D01*
X45927Y34728D01*
X45916Y34733D01*
X45906Y34739D01*
X45897Y34747D01*
X45889Y34756D01*
X45883Y34766D01*
X45878Y34777D01*
X45876Y34788D01*
X45875Y34800D01*
X45875Y35150D01*
X45876Y35162D01*
X45878Y35173D01*
X45883Y35184D01*
X45889Y35194D01*
X45897Y35203D01*
X45906Y35211D01*
X45916Y35217D01*
X45927Y35222D01*
X45938Y35224D01*
X45950Y35225D01*
X46400D01*
Y35700D01*
X46401Y35712D01*
X46403Y35723D01*
X46408Y35734D01*
X46414Y35744D01*
X46422Y35753D01*
X46431Y35761D01*
X46441Y35767D01*
X46452Y35772D01*
X46463Y35774D01*
X46475Y35775D01*
X46925D01*
X46937Y35774D01*
D02*
G37*
G36*
X49537D02*
X49548Y35772D01*
X49559Y35767D01*
X49569Y35761D01*
X49578Y35753D01*
X49586Y35744D01*
X49592Y35734D01*
X49596Y35723D01*
X49599Y35712D01*
X49600Y35700D01*
Y35225D01*
X50050D01*
X50062Y35224D01*
X50073Y35222D01*
X50084Y35217D01*
X50094Y35211D01*
X50103Y35203D01*
X50111Y35194D01*
X50117Y35184D01*
X50121Y35173D01*
X50124Y35162D01*
X50125Y35150D01*
X50125Y34800D01*
X50124Y34788D01*
X50121Y34777D01*
X50117Y34766D01*
X50111Y34756D01*
X50103Y34747D01*
X50094Y34739D01*
X50084Y34733D01*
X50073Y34728D01*
X50062Y34726D01*
X50050Y34725D01*
X49075D01*
X49063Y34726D01*
X49052Y34728D01*
X49041Y34733D01*
X49031Y34739D01*
X49022Y34747D01*
X49014Y34756D01*
X49008Y34766D01*
X49003Y34777D01*
X49001Y34788D01*
X49000Y34800D01*
Y35700D01*
X49001Y35712D01*
X49003Y35723D01*
X49008Y35734D01*
X49014Y35744D01*
X49022Y35753D01*
X49031Y35761D01*
X49041Y35767D01*
X49052Y35772D01*
X49063Y35774D01*
X49075Y35775D01*
X49525D01*
X49537Y35774D01*
D02*
G37*
G36*
Y55024D02*
X49548Y55022D01*
X49559Y55017D01*
X49569Y55011D01*
X49578Y55003D01*
X49586Y54994D01*
X49592Y54984D01*
X49596Y54973D01*
X49599Y54962D01*
X49600Y54950D01*
Y54475D01*
X50050D01*
X50062Y54474D01*
X50073Y54472D01*
X50084Y54467D01*
X50094Y54461D01*
X50103Y54453D01*
X50111Y54444D01*
X50117Y54434D01*
X50121Y54423D01*
X50124Y54412D01*
X50125Y54400D01*
X50125Y54050D01*
X50124Y54038D01*
X50121Y54027D01*
X50117Y54016D01*
X50111Y54006D01*
X50103Y53997D01*
X50094Y53989D01*
X50084Y53983D01*
X50073Y53978D01*
X50062Y53976D01*
X50050Y53975D01*
X49075D01*
X49063Y53976D01*
X49052Y53978D01*
X49041Y53983D01*
X49031Y53989D01*
X49022Y53997D01*
X49014Y54006D01*
X49008Y54016D01*
X49003Y54027D01*
X49001Y54038D01*
X49000Y54050D01*
Y54950D01*
X49001Y54962D01*
X49003Y54973D01*
X49008Y54984D01*
X49014Y54994D01*
X49022Y55003D01*
X49031Y55011D01*
X49041Y55017D01*
X49052Y55022D01*
X49063Y55024D01*
X49075Y55025D01*
X49525D01*
X49537Y55024D01*
D02*
G37*
G36*
X46937D02*
X46948Y55022D01*
X46959Y55017D01*
X46969Y55011D01*
X46978Y55003D01*
X46986Y54994D01*
X46992Y54984D01*
X46997Y54973D01*
X46999Y54962D01*
X47000Y54950D01*
Y54050D01*
X46999Y54038D01*
X46997Y54027D01*
X46992Y54016D01*
X46986Y54006D01*
X46978Y53997D01*
X46969Y53989D01*
X46959Y53983D01*
X46948Y53978D01*
X46937Y53976D01*
X46925Y53975D01*
X45950D01*
X45938Y53976D01*
X45927Y53978D01*
X45916Y53983D01*
X45906Y53989D01*
X45897Y53997D01*
X45889Y54006D01*
X45883Y54016D01*
X45878Y54027D01*
X45876Y54038D01*
X45875Y54050D01*
X45875Y54400D01*
X45876Y54412D01*
X45878Y54423D01*
X45883Y54434D01*
X45889Y54444D01*
X45897Y54453D01*
X45906Y54461D01*
X45916Y54467D01*
X45927Y54472D01*
X45938Y54474D01*
X45950Y54475D01*
X46400D01*
Y54950D01*
X46401Y54962D01*
X46403Y54973D01*
X46408Y54984D01*
X46414Y54994D01*
X46422Y55003D01*
X46431Y55011D01*
X46441Y55017D01*
X46452Y55022D01*
X46463Y55024D01*
X46475Y55025D01*
X46925D01*
X46937Y55024D01*
D02*
G37*
G36*
X47480Y51500D02*
X47486Y51499D01*
X47486Y51499D01*
X47486Y51499D01*
X47492Y51498D01*
X47498Y51497D01*
X47498Y51497D01*
X47498Y51497D01*
X47503Y51494D01*
X47509Y51492D01*
X47509Y51492D01*
X47509Y51492D01*
X47514Y51489D01*
X47519Y51486D01*
X47519Y51486D01*
X47519Y51486D01*
X47524Y51482D01*
X47528Y51478D01*
X47528Y51478D01*
X47528Y51478D01*
X47532Y51473D01*
X47535Y51469D01*
X47535Y51469D01*
X47535Y51469D01*
X47539Y51464D01*
X47541Y51459D01*
X47541Y51459D01*
X47542Y51459D01*
X47544Y51454D01*
X47546Y51448D01*
X47546Y51448D01*
X47546Y51448D01*
X47547Y51443D01*
X47549Y51437D01*
X47549Y51437D01*
X47549Y51437D01*
X47549Y51431D01*
X47550Y51425D01*
X47550Y51175D01*
X47550Y51175D01*
X47550Y51175D01*
X47550Y51169D01*
X47549Y51163D01*
X47549Y51163D01*
X47549Y51163D01*
X47548Y51157D01*
X47547Y51152D01*
X47547Y51152D01*
X47547Y51152D01*
X47544Y51146D01*
X47542Y51141D01*
X47542Y51141D01*
X47542Y51141D01*
X47539Y51136D01*
X47536Y51131D01*
X47536Y51131D01*
X47536Y51131D01*
X47532Y51126D01*
X47528Y51122D01*
X47528Y51122D01*
X47528Y51122D01*
X47524Y51118D01*
X47519Y51114D01*
X47519Y51114D01*
X47519Y51114D01*
X47514Y51111D01*
X47509Y51108D01*
X47509Y51108D01*
X47509Y51108D01*
X47504Y51106D01*
X47498Y51103D01*
X47498Y51103D01*
X47498Y51103D01*
X47493Y51102D01*
X47487Y51101D01*
X47487Y51101D01*
X47487Y51101D01*
X47481Y51100D01*
X47475Y51100D01*
X47475Y51100D01*
X47475Y51100D01*
X46975D01*
Y50550D01*
X46974Y50538D01*
X46972Y50527D01*
X46967Y50516D01*
X46961Y50506D01*
X46953Y50497D01*
X46944Y50489D01*
X46934Y50483D01*
X46923Y50478D01*
X46912Y50476D01*
X46900Y50475D01*
X46450D01*
X46438Y50476D01*
X46427Y50478D01*
X46416Y50483D01*
X46406Y50489D01*
X46397Y50497D01*
X46389Y50506D01*
X46383Y50516D01*
X46378Y50527D01*
X46376Y50538D01*
X46375Y50550D01*
Y51100D01*
X45925D01*
X45913Y51101D01*
X45902Y51103D01*
X45891Y51108D01*
X45881Y51114D01*
X45872Y51122D01*
X45864Y51131D01*
X45858Y51141D01*
X45853Y51152D01*
X45851Y51163D01*
X45850Y51175D01*
Y51425D01*
X45851Y51437D01*
X45853Y51448D01*
X45858Y51459D01*
X45864Y51469D01*
X45872Y51478D01*
X45881Y51486D01*
X45891Y51492D01*
X45902Y51497D01*
X45913Y51499D01*
X45925Y51500D01*
X47474D01*
X47480Y51500D01*
D02*
G37*
G36*
X50087Y51499D02*
X50098Y51497D01*
X50109Y51492D01*
X50119Y51486D01*
X50128Y51478D01*
X50136Y51469D01*
X50142Y51459D01*
X50147Y51448D01*
X50149Y51437D01*
X50150Y51425D01*
Y51175D01*
X50149Y51163D01*
X50147Y51152D01*
X50142Y51141D01*
X50136Y51131D01*
X50128Y51122D01*
X50119Y51114D01*
X50109Y51108D01*
X50098Y51103D01*
X50087Y51101D01*
X50075Y51100D01*
X49625D01*
Y50550D01*
X49624Y50538D01*
X49622Y50527D01*
X49617Y50516D01*
X49611Y50506D01*
X49603Y50497D01*
X49594Y50489D01*
X49584Y50483D01*
X49573Y50478D01*
X49562Y50476D01*
X49550Y50475D01*
X49100D01*
X49088Y50476D01*
X49077Y50478D01*
X49066Y50483D01*
X49056Y50489D01*
X49047Y50497D01*
X49039Y50506D01*
X49033Y50516D01*
X49028Y50527D01*
X49026Y50538D01*
X49025Y50550D01*
Y51100D01*
X48525D01*
X48525Y51100D01*
X48525Y51100D01*
X48519Y51100D01*
X48513Y51101D01*
X48513Y51101D01*
X48513Y51101D01*
X48507Y51102D01*
X48502Y51103D01*
X48502Y51103D01*
X48502Y51103D01*
X48496Y51106D01*
X48491Y51108D01*
X48491Y51108D01*
X48491Y51108D01*
X48486Y51111D01*
X48481Y51114D01*
X48481Y51114D01*
X48481Y51114D01*
X48476Y51118D01*
X48472Y51122D01*
X48472Y51122D01*
X48472Y51122D01*
X48468Y51126D01*
X48464Y51131D01*
X48464Y51131D01*
X48464Y51131D01*
X48461Y51136D01*
X48458Y51141D01*
X48458Y51141D01*
X48458Y51141D01*
X48456Y51146D01*
X48453Y51152D01*
X48453Y51152D01*
X48453Y51152D01*
X48452Y51157D01*
X48451Y51163D01*
X48451Y51163D01*
X48451Y51163D01*
X48450Y51169D01*
X48450Y51175D01*
X48450Y51175D01*
X48450Y51175D01*
X48450Y51425D01*
X48451Y51431D01*
X48451Y51437D01*
X48451Y51437D01*
X48451Y51437D01*
X48453Y51443D01*
X48454Y51448D01*
X48454Y51448D01*
X48454Y51448D01*
X48456Y51454D01*
X48458Y51459D01*
X48459Y51459D01*
X48459Y51459D01*
X48461Y51464D01*
X48465Y51469D01*
X48465Y51469D01*
X48465Y51469D01*
X48468Y51473D01*
X48472Y51478D01*
X48472Y51478D01*
X48472Y51478D01*
X48476Y51482D01*
X48481Y51486D01*
X48481Y51486D01*
X48481Y51486D01*
X48486Y51489D01*
X48491Y51492D01*
X48491Y51492D01*
X48491Y51492D01*
X48497Y51494D01*
X48502Y51497D01*
X48502Y51497D01*
X48502Y51497D01*
X48508Y51498D01*
X48514Y51499D01*
X48514Y51499D01*
X48514Y51499D01*
X48520Y51500D01*
X48526Y51500D01*
X50075D01*
X50087Y51499D01*
D02*
G37*
G36*
X48312Y52549D02*
X48323Y52547D01*
X48334Y52542D01*
X48344Y52536D01*
X48353Y52528D01*
X48361Y52519D01*
X48367Y52509D01*
X48372Y52498D01*
X48374Y52487D01*
X48375Y52475D01*
Y50550D01*
X48374Y50538D01*
X48372Y50527D01*
X48367Y50516D01*
X48361Y50506D01*
X48353Y50497D01*
X48344Y50489D01*
X48334Y50483D01*
X48323Y50478D01*
X48312Y50476D01*
X48300Y50475D01*
X47700D01*
X47688Y50476D01*
X47677Y50478D01*
X47666Y50483D01*
X47656Y50489D01*
X47647Y50497D01*
X47639Y50506D01*
X47633Y50516D01*
X47628Y50527D01*
X47626Y50538D01*
X47625Y50550D01*
Y52475D01*
X47626Y52487D01*
X47628Y52498D01*
X47633Y52509D01*
X47639Y52519D01*
X47647Y52528D01*
X47656Y52536D01*
X47666Y52542D01*
X47677Y52547D01*
X47688Y52549D01*
X47700Y52550D01*
X48300D01*
X48312Y52549D01*
D02*
G37*
D54*
X89000Y7000D02*
D03*
X18200Y64000D02*
D03*
X18250Y68000D02*
D03*
X76000Y3000D02*
D03*
Y11000D02*
D03*
Y7000D02*
D03*
D55*
X47250Y54487D02*
D03*
X48750Y54486D02*
D03*
X48250Y54486D02*
D03*
X47750Y54487D02*
D03*
X47250Y35237D02*
D03*
X48750Y35236D02*
D03*
X48250Y35236D02*
D03*
X47750Y35237D02*
D03*
D56*
X46701Y52000D02*
D03*
X49299D02*
D03*
Y52700D02*
D03*
X46701D02*
D03*
Y32750D02*
D03*
X49299D02*
D03*
Y33450D02*
D03*
X46701D02*
D03*
D57*
X46388Y53200D02*
D03*
X49612D02*
D03*
Y53700D02*
D03*
X46388D02*
D03*
Y33950D02*
D03*
X49612D02*
D03*
Y34450D02*
D03*
X46388D02*
D03*
D58*
X67000Y6600D02*
D03*
Y8400D02*
D03*
X69500Y6600D02*
D03*
Y8400D02*
D03*
D59*
X67000Y11175D02*
D03*
Y9825D02*
D03*
X69500D02*
D03*
Y11175D02*
D03*
D60*
X41500Y51100D02*
D03*
Y52900D02*
D03*
X43500Y51100D02*
D03*
Y52900D02*
D03*
X50000Y59150D02*
D03*
Y57350D02*
D03*
X48000Y59150D02*
D03*
Y57350D02*
D03*
X50500Y39900D02*
D03*
Y38100D02*
D03*
X48500Y39900D02*
D03*
Y38100D02*
D03*
X43500Y35600D02*
D03*
Y37400D02*
D03*
X41500Y32100D02*
D03*
Y33900D02*
D03*
X43500Y32100D02*
D03*
Y33900D02*
D03*
X54500Y50850D02*
D03*
Y52650D02*
D03*
Y33400D02*
D03*
Y31600D02*
D03*
Y36900D02*
D03*
Y35100D02*
D03*
D61*
X43150Y56500D02*
D03*
X41350D02*
D03*
X10100Y66500D02*
D03*
X11900D02*
D03*
D62*
X62250Y54450D02*
D03*
Y50050D02*
D03*
X67750Y42300D02*
D03*
Y46700D02*
D03*
Y54450D02*
D03*
Y50050D02*
D03*
X62250Y42300D02*
D03*
Y46700D02*
D03*
Y27450D02*
D03*
Y23050D02*
D03*
X67750Y27450D02*
D03*
Y23050D02*
D03*
X62250Y30800D02*
D03*
Y35200D02*
D03*
X67750Y30800D02*
D03*
Y35200D02*
D03*
D63*
X52950Y44250D02*
D03*
X47050D02*
D03*
Y25000D02*
D03*
X52950D02*
D03*
D64*
X65040Y67290D02*
D03*
X62500Y64750D02*
D03*
X65040Y62210D02*
D03*
D65*
X37710Y65000D02*
D03*
X42790D02*
D03*
X40250D02*
D03*
X49460D02*
D03*
X54540D02*
D03*
X52000D02*
D03*
D66*
X91000Y58450D02*
D03*
Y53370D02*
D03*
Y48370D02*
D03*
Y43290D02*
D03*
Y38290D02*
D03*
Y33210D02*
D03*
Y28210D02*
D03*
Y23130D02*
D03*
Y18130D02*
D03*
Y13050D02*
D03*
X57580Y6500D02*
D03*
X52500D02*
D03*
X8000Y13420D02*
D03*
Y18500D02*
D03*
Y38460D02*
D03*
Y33380D02*
D03*
Y48540D02*
D03*
Y43460D02*
D03*
Y58620D02*
D03*
Y53540D02*
D03*
X79750Y63000D02*
D03*
X74670D02*
D03*
D67*
X42500Y18600D02*
D03*
Y3400D02*
D03*
D68*
X75545Y46000D02*
D03*
Y24000D02*
D03*
X28500Y45955D02*
D03*
Y53955D02*
D03*
Y29955D02*
D03*
Y37955D02*
D03*
D69*
X76750Y39960D02*
D03*
X74250D02*
D03*
X76750Y43460D02*
D03*
X74250D02*
D03*
X76750Y48540D02*
D03*
X74250D02*
D03*
X76750Y52040D02*
D03*
X74250D02*
D03*
Y30040D02*
D03*
X76750D02*
D03*
X74250Y26540D02*
D03*
X76750D02*
D03*
X74250Y21460D02*
D03*
X76750D02*
D03*
X74250Y17960D02*
D03*
X76750D02*
D03*
X34540Y47250D02*
D03*
Y44750D02*
D03*
X31040Y47250D02*
D03*
Y44750D02*
D03*
X25960Y47250D02*
D03*
Y44750D02*
D03*
X22460Y47250D02*
D03*
Y44750D02*
D03*
X34540Y55250D02*
D03*
Y52750D02*
D03*
X31040Y55250D02*
D03*
Y52750D02*
D03*
X25960Y55250D02*
D03*
Y52750D02*
D03*
X22460Y55250D02*
D03*
Y52750D02*
D03*
X34540Y31250D02*
D03*
Y28750D02*
D03*
X31040Y31250D02*
D03*
Y28750D02*
D03*
X25960Y31250D02*
D03*
Y28750D02*
D03*
X22460Y31250D02*
D03*
Y28750D02*
D03*
X34540Y39250D02*
D03*
Y36750D02*
D03*
X31040Y39250D02*
D03*
Y36750D02*
D03*
X25960Y39250D02*
D03*
Y36750D02*
D03*
X22460Y39250D02*
D03*
Y36750D02*
D03*
D70*
X28500Y4500D02*
D03*
X21110D02*
D03*
X35890D02*
D03*
D71*
X24550Y22740D02*
D03*
X32450D02*
D03*
D72*
X94500Y66500D02*
D03*
X4500D02*
D03*
Y4500D02*
D03*
X94500D02*
D03*
D73*
X48000Y32263D02*
D03*
Y51513D02*
D03*
X89000Y7000D02*
D03*
X18200Y64000D02*
D03*
X18250Y68000D02*
D03*
X53000Y52250D02*
D03*
X45000Y51000D02*
D03*
X42250Y58250D02*
D03*
X41750Y37500D02*
D03*
X67750Y23050D02*
D03*
X62250D02*
D03*
X67750Y35200D02*
D03*
X62250D02*
D03*
Y42300D02*
D03*
X67750D02*
D03*
Y54450D02*
D03*
X62250D02*
D03*
X54500Y49750D02*
D03*
X65750Y11250D02*
D03*
X76000Y7000D02*
D03*
X12000Y64500D02*
D03*
X41000Y45750D02*
D03*
X43500D02*
D03*
X42250D02*
D03*
X48000Y58250D02*
D03*
X53000Y57250D02*
D03*
X53000Y53250D02*
D03*
X72250Y31750D02*
D03*
Y28750D02*
D03*
Y25750D02*
D03*
X70750Y31750D02*
D03*
X71500Y30250D02*
D03*
X70750Y28750D02*
D03*
X71500Y27250D02*
D03*
X70750Y25750D02*
D03*
X69250Y31750D02*
D03*
X70000Y30250D02*
D03*
X69250Y28750D02*
D03*
Y25750D02*
D03*
X67750Y31750D02*
D03*
X66250D02*
D03*
Y28750D02*
D03*
Y25750D02*
D03*
X64750Y31750D02*
D03*
Y28750D02*
D03*
X65500Y27250D02*
D03*
X64750Y25750D02*
D03*
X63250Y31750D02*
D03*
X64000Y30250D02*
D03*
X63250Y28750D02*
D03*
Y25750D02*
D03*
X61750Y31750D02*
D03*
Y25750D02*
D03*
X60250Y31750D02*
D03*
Y28750D02*
D03*
Y25750D02*
D03*
X58750Y28750D02*
D03*
X59500Y27250D02*
D03*
X58750Y25750D02*
D03*
X57250Y28750D02*
D03*
X58000Y27250D02*
D03*
X57250Y25750D02*
D03*
Y22750D02*
D03*
X55750Y28750D02*
D03*
X56500Y27250D02*
D03*
X55750Y25750D02*
D03*
X56500Y24250D02*
D03*
X54250Y28750D02*
D03*
X55000Y27250D02*
D03*
X54250Y25750D02*
D03*
X55000Y24250D02*
D03*
X54250Y22750D02*
D03*
X52750Y28750D02*
D03*
Y22750D02*
D03*
Y42250D02*
D03*
X72250Y51250D02*
D03*
X73000Y49750D02*
D03*
X72250Y48250D02*
D03*
X70750Y51250D02*
D03*
X71500Y49750D02*
D03*
X70750Y48250D02*
D03*
X69250Y51250D02*
D03*
X70000Y49750D02*
D03*
X69250Y48250D02*
D03*
X66250Y51250D02*
D03*
Y48250D02*
D03*
X64750Y51250D02*
D03*
Y48250D02*
D03*
X65500Y46750D02*
D03*
X64000Y49750D02*
D03*
X63250Y48250D02*
D03*
X61750D02*
D03*
X60250Y51250D02*
D03*
Y48250D02*
D03*
X61000Y46750D02*
D03*
X58750Y48250D02*
D03*
X59500Y46750D02*
D03*
X57250Y48250D02*
D03*
X58000Y46750D02*
D03*
X57250Y45250D02*
D03*
Y42250D02*
D03*
X55750Y48250D02*
D03*
X56500Y46750D02*
D03*
X55750Y45250D02*
D03*
X56500Y43750D02*
D03*
X55750Y42250D02*
D03*
X54250Y48250D02*
D03*
X55000Y46750D02*
D03*
X54250Y45250D02*
D03*
X55000Y43750D02*
D03*
X54250Y42250D02*
D03*
X52750Y48250D02*
D03*
X49300Y31737D02*
D03*
X46700D02*
D03*
X46700Y50988D02*
D03*
X49299D02*
D03*
X47750Y49750D02*
D03*
X48250Y48750D02*
D03*
X47750Y47750D02*
D03*
X48250Y46750D02*
D03*
X47750Y41750D02*
D03*
X46750Y49750D02*
D03*
X47250Y48750D02*
D03*
X46750Y47750D02*
D03*
X47250Y46750D02*
D03*
X46750Y41750D02*
D03*
X47750Y30750D02*
D03*
X48250Y29750D02*
D03*
X47750Y28750D02*
D03*
X48250Y27750D02*
D03*
X47750Y26750D02*
D03*
Y22750D02*
D03*
X47250Y29750D02*
D03*
X46750Y28750D02*
D03*
X47250Y27750D02*
D03*
X46750Y26750D02*
D03*
Y22750D02*
D03*
X48000Y34000D02*
D03*
Y53250D02*
D03*
X65500Y5250D02*
D03*
X52500Y34000D02*
D03*
X45000Y32000D02*
D03*
X51250Y35250D02*
D03*
X44500Y56500D02*
D03*
X52000Y37750D02*
D03*
%TF.MD5,a21959d74c7ae53501ed17eb8b922f86*%
M02*
