%TF.GenerationSoftware,Altium Limited,Altium Designer,25.2.1 (25)*%
G04 Layer_Color=128*
%FSLAX43Y43*%
%MOMM*%
%TF.SameCoordinates,42A70FB1-CA3F-40FB-A279-88E7FBB0E27C*%
%TF.FilePolarity,Positive*%
%TF.FileFunction,Paste,Bot*%
%TF.Part,Single*%
G01*
G75*
%TA.AperFunction,SMDPad,CuDef*%
%ADD23R,0.650X0.700*%
%ADD24R,0.700X0.650*%
%ADD64R,1.250X0.600*%
%ADD65R,1.475X0.450*%
%ADD66R,1.850X0.650*%
%ADD67R,0.400X1.900*%
%ADD68R,1.400X2.000*%
%ADD69R,1.600X0.650*%
%ADD70R,0.800X0.900*%
%ADD71R,10.800X10.410*%
%ADD72R,1.020X2.160*%
G04:AMPARAMS|DCode=73|XSize=1.47mm|YSize=0.4mm|CornerRadius=0.05mm|HoleSize=0mm|Usage=FLASHONLY|Rotation=90.000|XOffset=0mm|YOffset=0mm|HoleType=Round|Shape=RoundedRectangle|*
%AMROUNDEDRECTD73*
21,1,1.470,0.300,0,0,90.0*
21,1,1.370,0.400,0,0,90.0*
1,1,0.100,0.150,0.685*
1,1,0.100,0.150,-0.685*
1,1,0.100,-0.150,-0.685*
1,1,0.100,-0.150,0.685*
%
%ADD73ROUNDEDRECTD73*%
%ADD74R,3.200X1.500*%
%ADD75R,3.100X2.200*%
%ADD76R,1.600X2.800*%
%ADD77R,2.000X4.000*%
G36*
X56774Y49400D02*
X56266D01*
X56266Y49400D01*
X56219D01*
X56125Y49415D01*
X56036Y49444D01*
X55952Y49487D01*
X55875Y49542D01*
X55808Y49609D01*
X55753Y49686D01*
X55710Y49770D01*
X55681Y49860D01*
X55666Y49953D01*
Y50047D01*
X55681Y50140D01*
X55710Y50230D01*
X55753Y50314D01*
X55808Y50391D01*
X55875Y50458D01*
X55952Y50513D01*
X56036Y50556D01*
X56125Y50585D01*
X56219Y50600D01*
X56774D01*
Y49400D01*
D02*
G37*
G36*
X57875Y50585D02*
X57964Y50556D01*
X58048Y50513D01*
X58125Y50458D01*
X58192Y50391D01*
X58247Y50314D01*
X58290Y50230D01*
X58319Y50140D01*
X58334Y50047D01*
Y49953D01*
X58319Y49860D01*
X58290Y49770D01*
X58247Y49686D01*
X58192Y49609D01*
X58125Y49542D01*
X58048Y49487D01*
X57964Y49444D01*
X57875Y49415D01*
X57781Y49400D01*
X57734Y49400D01*
X57226D01*
Y50600D01*
X57781D01*
X57875Y50585D01*
D02*
G37*
G36*
X56774Y52150D02*
X56266D01*
X56266Y52150D01*
X56219D01*
X56125Y52165D01*
X56036Y52194D01*
X55952Y52237D01*
X55875Y52292D01*
X55808Y52359D01*
X55753Y52436D01*
X55710Y52520D01*
X55681Y52610D01*
X55666Y52703D01*
Y52797D01*
X55681Y52890D01*
X55710Y52980D01*
X55753Y53064D01*
X55808Y53141D01*
X55875Y53208D01*
X55952Y53263D01*
X56036Y53306D01*
X56125Y53335D01*
X56219Y53350D01*
X56774D01*
Y52150D01*
D02*
G37*
G36*
X57875Y53335D02*
X57964Y53306D01*
X58048Y53263D01*
X58125Y53208D01*
X58192Y53141D01*
X58247Y53064D01*
X58290Y52980D01*
X58319Y52890D01*
X58334Y52797D01*
Y52703D01*
X58319Y52610D01*
X58290Y52520D01*
X58247Y52436D01*
X58192Y52359D01*
X58125Y52292D01*
X58048Y52237D01*
X57964Y52194D01*
X57875Y52165D01*
X57781Y52150D01*
X57734Y52150D01*
X57226D01*
Y53350D01*
X57781D01*
X57875Y53335D01*
D02*
G37*
G36*
X56744Y57150D02*
X56236D01*
X56236Y57150D01*
X56189D01*
X56096Y57165D01*
X56006Y57194D01*
X55922Y57237D01*
X55845Y57292D01*
X55778Y57359D01*
X55723Y57436D01*
X55680Y57520D01*
X55651Y57610D01*
X55636Y57703D01*
Y57797D01*
X55651Y57890D01*
X55680Y57980D01*
X55723Y58064D01*
X55778Y58141D01*
X55845Y58208D01*
X55922Y58263D01*
X56006Y58306D01*
X56096Y58335D01*
X56189Y58350D01*
X56744D01*
Y57150D01*
D02*
G37*
G36*
X57845Y58335D02*
X57934Y58306D01*
X58018Y58263D01*
X58095Y58208D01*
X58162Y58141D01*
X58217Y58064D01*
X58260Y57980D01*
X58289Y57890D01*
X58304Y57797D01*
Y57703D01*
X58289Y57610D01*
X58260Y57520D01*
X58217Y57436D01*
X58162Y57359D01*
X58095Y57292D01*
X58018Y57237D01*
X57934Y57194D01*
X57845Y57165D01*
X57751Y57150D01*
X57704Y57150D01*
X57196D01*
Y58350D01*
X57751D01*
X57845Y58335D01*
D02*
G37*
G36*
X56774Y59900D02*
X56266D01*
X56266Y59900D01*
X56219D01*
X56125Y59915D01*
X56036Y59944D01*
X55952Y59987D01*
X55875Y60042D01*
X55808Y60109D01*
X55753Y60186D01*
X55710Y60270D01*
X55681Y60360D01*
X55666Y60453D01*
Y60547D01*
X55681Y60640D01*
X55710Y60730D01*
X55753Y60814D01*
X55808Y60891D01*
X55875Y60958D01*
X55952Y61013D01*
X56036Y61056D01*
X56125Y61085D01*
X56219Y61100D01*
X56774D01*
Y59900D01*
D02*
G37*
G36*
X57875Y61085D02*
X57964Y61056D01*
X58048Y61013D01*
X58125Y60958D01*
X58192Y60891D01*
X58247Y60814D01*
X58290Y60730D01*
X58319Y60640D01*
X58334Y60547D01*
Y60453D01*
X58319Y60360D01*
X58290Y60270D01*
X58247Y60186D01*
X58192Y60109D01*
X58125Y60042D01*
X58048Y59987D01*
X57964Y59944D01*
X57875Y59915D01*
X57781Y59900D01*
X57734Y59900D01*
X57226D01*
Y61100D01*
X57781D01*
X57875Y61085D01*
D02*
G37*
D23*
X14675Y45000D02*
D03*
X13325D02*
D03*
X14675Y42000D02*
D03*
X13325D02*
D03*
X31675Y39500D02*
D03*
X30325D02*
D03*
X52675Y45500D02*
D03*
X51325D02*
D03*
X36675Y47500D02*
D03*
X35325D02*
D03*
X36675Y46000D02*
D03*
X35325D02*
D03*
X34075Y8000D02*
D03*
X35425D02*
D03*
X33175Y4250D02*
D03*
X31825D02*
D03*
X33175Y14250D02*
D03*
X31825D02*
D03*
X2325Y70750D02*
D03*
X3675D02*
D03*
X26325Y75950D02*
D03*
X27675D02*
D03*
Y74450D02*
D03*
X26325D02*
D03*
X27675Y77450D02*
D03*
X26325D02*
D03*
X27675Y71450D02*
D03*
X26325D02*
D03*
X27675Y72950D02*
D03*
X26325D02*
D03*
X14425Y77000D02*
D03*
X13075D02*
D03*
Y78500D02*
D03*
X14425D02*
D03*
X27675Y78950D02*
D03*
X26325D02*
D03*
X12575Y68500D02*
D03*
X13925D02*
D03*
X30850Y19000D02*
D03*
X29500D02*
D03*
X2175Y43500D02*
D03*
X825D02*
D03*
X13325Y46500D02*
D03*
X14675D02*
D03*
X13325Y43500D02*
D03*
X14675D02*
D03*
Y49500D02*
D03*
X13325D02*
D03*
X14675Y48000D02*
D03*
X13325D02*
D03*
Y51000D02*
D03*
X14675D02*
D03*
X13325Y40500D02*
D03*
X14675D02*
D03*
X2175Y47500D02*
D03*
X825D02*
D03*
X30325Y41000D02*
D03*
X31675D02*
D03*
X30325Y42500D02*
D03*
X31675D02*
D03*
D24*
X46000Y74675D02*
D03*
Y73325D02*
D03*
X42000Y74675D02*
D03*
Y73325D02*
D03*
X19000Y51325D02*
D03*
Y52675D02*
D03*
X17500D02*
D03*
Y51325D02*
D03*
X24500D02*
D03*
Y52675D02*
D03*
X23000Y51325D02*
D03*
Y52675D02*
D03*
X47500Y62575D02*
D03*
Y63925D02*
D03*
X45750Y62575D02*
D03*
Y63925D02*
D03*
X44250Y60825D02*
D03*
Y62175D02*
D03*
X38000Y73325D02*
D03*
Y74675D02*
D03*
X40000Y73325D02*
D03*
Y74675D02*
D03*
X34000Y73325D02*
D03*
Y74675D02*
D03*
X36000Y73325D02*
D03*
Y74675D02*
D03*
X44000D02*
D03*
Y73325D02*
D03*
X31250Y95675D02*
D03*
Y94325D02*
D03*
X34750Y95675D02*
D03*
Y94325D02*
D03*
X39250Y95925D02*
D03*
Y94575D02*
D03*
X42750Y95925D02*
D03*
Y94575D02*
D03*
X47250Y95925D02*
D03*
Y94575D02*
D03*
X26750Y95675D02*
D03*
Y94325D02*
D03*
X55500Y46575D02*
D03*
Y47925D02*
D03*
X37750Y43075D02*
D03*
Y44425D02*
D03*
X51500Y35575D02*
D03*
Y36925D02*
D03*
Y29075D02*
D03*
Y30425D02*
D03*
Y10075D02*
D03*
Y11425D02*
D03*
Y20925D02*
D03*
Y19575D02*
D03*
Y27425D02*
D03*
Y26075D02*
D03*
Y16575D02*
D03*
Y17925D02*
D03*
X44250Y2575D02*
D03*
Y3925D02*
D03*
X37750Y8325D02*
D03*
Y9675D02*
D03*
X29250Y15575D02*
D03*
Y16925D02*
D03*
X25500Y64675D02*
D03*
Y63325D02*
D03*
X14000Y67175D02*
D03*
Y65825D02*
D03*
X12500Y67175D02*
D03*
Y65825D02*
D03*
X10250Y74825D02*
D03*
Y76175D02*
D03*
X22100Y80275D02*
D03*
Y81625D02*
D03*
X20600D02*
D03*
Y80275D02*
D03*
X19100D02*
D03*
Y81625D02*
D03*
X17600Y80275D02*
D03*
Y81625D02*
D03*
X16100Y80275D02*
D03*
Y81625D02*
D03*
X40750Y8325D02*
D03*
Y9675D02*
D03*
X39250D02*
D03*
Y8325D02*
D03*
X16000Y51325D02*
D03*
Y52675D02*
D03*
X26000Y51325D02*
D03*
Y52675D02*
D03*
X7000Y17325D02*
D03*
Y18675D02*
D03*
X5500D02*
D03*
Y17325D02*
D03*
X10000Y18675D02*
D03*
Y17325D02*
D03*
X8500Y18675D02*
D03*
Y17325D02*
D03*
D64*
X2000Y34100D02*
D03*
Y35900D02*
D03*
X27750Y24350D02*
D03*
Y26150D02*
D03*
D65*
X49688Y65075D02*
D03*
Y65725D02*
D03*
Y66375D02*
D03*
Y67025D02*
D03*
Y67675D02*
D03*
Y68325D02*
D03*
Y68975D02*
D03*
Y69625D02*
D03*
Y70275D02*
D03*
Y70925D02*
D03*
X43812D02*
D03*
Y70275D02*
D03*
Y69625D02*
D03*
Y68975D02*
D03*
Y68325D02*
D03*
Y67675D02*
D03*
Y67025D02*
D03*
Y66375D02*
D03*
Y65725D02*
D03*
Y65075D02*
D03*
D66*
X39825Y48715D02*
D03*
Y47445D02*
D03*
Y46175D02*
D03*
Y44905D02*
D03*
Y43635D02*
D03*
Y42365D02*
D03*
Y41095D02*
D03*
Y39825D02*
D03*
Y38555D02*
D03*
Y37285D02*
D03*
X49175D02*
D03*
Y38555D02*
D03*
Y39825D02*
D03*
Y41095D02*
D03*
Y42365D02*
D03*
Y43635D02*
D03*
Y44905D02*
D03*
Y46175D02*
D03*
Y47445D02*
D03*
Y48715D02*
D03*
D67*
X44800Y51000D02*
D03*
X46000D02*
D03*
X47200D02*
D03*
D68*
X32270Y6250D02*
D03*
Y12250D02*
D03*
X29730Y6250D02*
D03*
Y12250D02*
D03*
D69*
X23551Y64845D02*
D03*
Y66115D02*
D03*
Y67385D02*
D03*
Y68655D02*
D03*
X16451D02*
D03*
Y67385D02*
D03*
Y66115D02*
D03*
Y64845D02*
D03*
D70*
X7813Y14970D02*
D03*
X9713D02*
D03*
X8763Y12970D02*
D03*
D71*
X21500Y12430D02*
D03*
D72*
X18100Y20750D02*
D03*
X19800D02*
D03*
X21500D02*
D03*
X23200D02*
D03*
X24900D02*
D03*
D73*
X5975Y14650D02*
D03*
X5325D02*
D03*
X4675D02*
D03*
X4025D02*
D03*
Y10350D02*
D03*
X4675D02*
D03*
X5325D02*
D03*
X5975D02*
D03*
D74*
X13000Y12600D02*
D03*
Y8400D02*
D03*
D75*
X17000Y32000D02*
D03*
Y25000D02*
D03*
D76*
X23500Y25350D02*
D03*
Y29650D02*
D03*
D77*
X8000Y29450D02*
D03*
Y36550D02*
D03*
%TF.MD5,9ec5fb1a8ff0ac1ba71ea1365f514e10*%
M02*
