%TF.GenerationSoftware,Altium Limited,Altium Designer,25.2.1 (25)*%
G04 Layer_Color=65535*
%FSLAX43Y43*%
%MOMM*%
%TF.SameCoordinates,BC6F9B4E-F4BF-41B7-AD79-6EFDE6D2D93E*%
%TF.FilePolarity,Positive*%
%TF.FileFunction,Legend,Top*%
%TF.Part,Single*%
G01*
G75*
%TA.AperFunction,NonConductor*%
%ADD77C,0.254*%
%ADD78C,0.100*%
%ADD79C,0.200*%
%ADD80C,0.400*%
%ADD81C,0.250*%
%ADD82C,0.300*%
%ADD83C,0.150*%
G36*
X49160Y30160D02*
X49193D01*
Y30156D01*
X49216D01*
Y30151D01*
X49240D01*
Y30146D01*
X49258D01*
Y30142D01*
X49272D01*
Y30137D01*
X49291D01*
Y30132D01*
X49300D01*
Y30128D01*
X49315D01*
Y30123D01*
X49329D01*
Y30118D01*
X49343D01*
Y30114D01*
X49352D01*
Y30109D01*
X49361D01*
Y30104D01*
X49371D01*
Y30100D01*
X49385D01*
Y30095D01*
X49389D01*
Y30090D01*
X49403D01*
Y30086D01*
X49408D01*
Y30081D01*
X49418D01*
Y30076D01*
X49427D01*
Y30071D01*
X49432D01*
Y30067D01*
X49441D01*
Y30062D01*
X49450D01*
Y30057D01*
X49455D01*
Y30053D01*
X49464D01*
Y30048D01*
X49469D01*
Y30043D01*
X49474D01*
Y30039D01*
X49483D01*
Y30034D01*
X49488D01*
Y30029D01*
X49492D01*
Y30025D01*
X49502D01*
Y30020D01*
X49507D01*
Y30015D01*
X49511D01*
Y30011D01*
X49516D01*
Y30006D01*
X49521D01*
Y30001D01*
X49530D01*
Y29997D01*
X49535D01*
Y29992D01*
X49539D01*
Y29987D01*
X49544D01*
Y29982D01*
X49549D01*
Y29978D01*
X49553D01*
Y29973D01*
X49558D01*
Y29968D01*
X49563D01*
Y29964D01*
X49567D01*
Y29959D01*
X49572D01*
Y29954D01*
X49577D01*
Y29950D01*
X49581D01*
Y29940D01*
X49586D01*
Y29936D01*
X49591D01*
Y29931D01*
X49595D01*
Y29926D01*
X49600D01*
Y29922D01*
X49605D01*
Y29917D01*
X49610D01*
Y29908D01*
X49614D01*
Y29903D01*
X49619D01*
Y29898D01*
X49624D01*
Y29889D01*
X49628D01*
Y29884D01*
X49633D01*
Y29879D01*
X49638D01*
Y29870D01*
X49642D01*
Y29865D01*
X49647D01*
Y29856D01*
X49652D01*
Y29847D01*
X49656D01*
Y29842D01*
X49661D01*
Y29833D01*
X49666D01*
Y29823D01*
X49670D01*
Y29814D01*
X49675D01*
Y29809D01*
X49680D01*
Y29795D01*
X49684D01*
Y29786D01*
X49689D01*
Y29776D01*
X49694D01*
Y29767D01*
X49698D01*
Y29758D01*
X49703D01*
Y29744D01*
X49708D01*
Y29730D01*
X49713D01*
Y29720D01*
X49717D01*
Y29706D01*
X49722D01*
Y29688D01*
X49727D01*
Y29673D01*
X49731D01*
Y29650D01*
X49736D01*
Y29631D01*
X49741D01*
Y29603D01*
X49745D01*
Y29566D01*
X49750D01*
Y26934D01*
X49745D01*
Y26897D01*
X49741D01*
Y26869D01*
X49736D01*
Y26850D01*
X49731D01*
Y26827D01*
X49727D01*
Y26812D01*
X49722D01*
Y26794D01*
X49717D01*
Y26780D01*
X49713D01*
Y26770D01*
X49708D01*
Y26756D01*
X49703D01*
Y26742D01*
X49698D01*
Y26733D01*
X49694D01*
Y26724D01*
X49689D01*
Y26714D01*
X49684D01*
Y26705D01*
X49680D01*
Y26691D01*
X49675D01*
Y26686D01*
X49670D01*
Y26677D01*
X49666D01*
Y26667D01*
X49661D01*
Y26658D01*
X49656D01*
Y26653D01*
X49652D01*
Y26644D01*
X49647D01*
Y26635D01*
X49642D01*
Y26630D01*
X49638D01*
Y26621D01*
X49633D01*
Y26616D01*
X49628D01*
Y26611D01*
X49624D01*
Y26602D01*
X49619D01*
Y26597D01*
X49614D01*
Y26592D01*
X49610D01*
Y26583D01*
X49605D01*
Y26578D01*
X49600D01*
Y26574D01*
X49595D01*
Y26569D01*
X49591D01*
Y26564D01*
X49586D01*
Y26560D01*
X49581D01*
Y26550D01*
X49577D01*
Y26546D01*
X49572D01*
Y26541D01*
X49567D01*
Y26536D01*
X49563D01*
Y26532D01*
X49558D01*
Y26527D01*
X49553D01*
Y26522D01*
X49549D01*
Y26518D01*
X49544D01*
Y26513D01*
X49539D01*
Y26508D01*
X49535D01*
Y26503D01*
X49530D01*
Y26499D01*
X49521D01*
Y26494D01*
X49516D01*
Y26489D01*
X49511D01*
Y26485D01*
X49507D01*
Y26480D01*
X49502D01*
Y26475D01*
X49492D01*
Y26471D01*
X49488D01*
Y26466D01*
X49483D01*
Y26461D01*
X49474D01*
Y26457D01*
X49469D01*
Y26452D01*
X49464D01*
Y26447D01*
X49455D01*
Y26443D01*
X49450D01*
Y26438D01*
X49441D01*
Y26433D01*
X49432D01*
Y26429D01*
X49427D01*
Y26424D01*
X49418D01*
Y26419D01*
X49408D01*
Y26414D01*
X49403D01*
Y26410D01*
X49389D01*
Y26405D01*
X49385D01*
Y26400D01*
X49371D01*
Y26396D01*
X49361D01*
Y26391D01*
X49352D01*
Y26386D01*
X49343D01*
Y26382D01*
X49329D01*
Y26377D01*
X49315D01*
Y26372D01*
X49300D01*
Y26368D01*
X49291D01*
Y26363D01*
X49272D01*
Y26358D01*
X49258D01*
Y26354D01*
X49240D01*
Y26349D01*
X49216D01*
Y26344D01*
X49193D01*
Y26340D01*
X49160D01*
Y26335D01*
X45330D01*
Y26340D01*
X45297D01*
Y26344D01*
X45274D01*
Y26349D01*
X45250D01*
Y26354D01*
X45231D01*
Y26358D01*
X45217D01*
Y26363D01*
X45199D01*
Y26368D01*
X45189D01*
Y26372D01*
X45175D01*
Y26377D01*
X45161D01*
Y26382D01*
X45147D01*
Y26386D01*
X45138D01*
Y26391D01*
X45128D01*
Y26396D01*
X45119D01*
Y26400D01*
X45105D01*
Y26405D01*
X45100D01*
Y26410D01*
X45091D01*
Y26414D01*
X45082D01*
Y26419D01*
X45072D01*
Y26424D01*
X45063D01*
Y26429D01*
X45058D01*
Y26433D01*
X45049D01*
Y26438D01*
X45040D01*
Y26443D01*
X45035D01*
Y26447D01*
X45025D01*
Y26452D01*
X45021D01*
Y26457D01*
X45016D01*
Y26461D01*
X45007D01*
Y26466D01*
X45002D01*
Y26471D01*
X44997D01*
Y26475D01*
X44988D01*
Y26480D01*
X44983D01*
Y26485D01*
X44979D01*
Y26489D01*
X44974D01*
Y26494D01*
X44969D01*
Y26499D01*
X44960D01*
Y26503D01*
X44955D01*
Y26508D01*
X44951D01*
Y26513D01*
X44946D01*
Y26518D01*
X44941D01*
Y26522D01*
X44936D01*
Y26527D01*
X44932D01*
Y26532D01*
X44927D01*
Y26536D01*
X44922D01*
Y26541D01*
X44918D01*
Y26546D01*
X44913D01*
Y26550D01*
X44908D01*
Y26560D01*
X44904D01*
Y26564D01*
X44899D01*
Y26569D01*
X44894D01*
Y26574D01*
X44890D01*
Y26578D01*
X44885D01*
Y26583D01*
X44880D01*
Y26592D01*
X44876D01*
Y26597D01*
X44871D01*
Y26602D01*
X44866D01*
Y26611D01*
X44862D01*
Y26616D01*
X44857D01*
Y26621D01*
X44852D01*
Y26630D01*
X44848D01*
Y26635D01*
X44843D01*
Y26644D01*
X44838D01*
Y26653D01*
X44833D01*
Y26658D01*
X44829D01*
Y26667D01*
X44824D01*
Y26677D01*
X44819D01*
Y26686D01*
X44815D01*
Y26691D01*
X44810D01*
Y26705D01*
X44805D01*
Y26714D01*
X44801D01*
Y26724D01*
X44796D01*
Y26733D01*
X44791D01*
Y26742D01*
X44787D01*
Y26756D01*
X44782D01*
Y26770D01*
X44777D01*
Y26780D01*
X44773D01*
Y26794D01*
X44768D01*
Y26812D01*
X44763D01*
Y26827D01*
X44759D01*
Y26850D01*
X44754D01*
Y26869D01*
X44749D01*
Y26897D01*
X44744D01*
Y26934D01*
X44740D01*
Y29566D01*
X44744D01*
Y29603D01*
X44749D01*
Y29631D01*
X44754D01*
Y29650D01*
X44759D01*
Y29673D01*
X44763D01*
Y29688D01*
X44768D01*
Y29706D01*
X44773D01*
Y29720D01*
X44777D01*
Y29730D01*
X44782D01*
Y29744D01*
X44787D01*
Y29758D01*
X44791D01*
Y29767D01*
X44796D01*
Y29776D01*
X44801D01*
Y29786D01*
X44805D01*
Y29795D01*
X44810D01*
Y29809D01*
X44815D01*
Y29814D01*
X44819D01*
Y29823D01*
X44824D01*
Y29833D01*
X44829D01*
Y29842D01*
X44833D01*
Y29847D01*
X44838D01*
Y29856D01*
X44843D01*
Y29865D01*
X44848D01*
Y29870D01*
X44852D01*
Y29879D01*
X44857D01*
Y29884D01*
X44862D01*
Y29889D01*
X44866D01*
Y29898D01*
X44871D01*
Y29903D01*
X44876D01*
Y29908D01*
X44880D01*
Y29917D01*
X44885D01*
Y29922D01*
X44890D01*
Y29926D01*
X44894D01*
Y29931D01*
X44899D01*
Y29936D01*
X44904D01*
Y29940D01*
X44908D01*
Y29950D01*
X44913D01*
Y29954D01*
X44918D01*
Y29959D01*
X44922D01*
Y29964D01*
X44927D01*
Y29968D01*
X44932D01*
Y29973D01*
X44936D01*
Y29978D01*
X44941D01*
Y29982D01*
X44946D01*
Y29987D01*
X44951D01*
Y29992D01*
X44955D01*
Y29997D01*
X44960D01*
Y30001D01*
X44969D01*
Y30006D01*
X44974D01*
Y30011D01*
X44979D01*
Y30015D01*
X44983D01*
Y30020D01*
X44988D01*
Y30025D01*
X44997D01*
Y30029D01*
X45002D01*
Y30034D01*
X45007D01*
Y30039D01*
X45016D01*
Y30043D01*
X45021D01*
Y30048D01*
X45025D01*
Y30053D01*
X45035D01*
Y30057D01*
X45040D01*
Y30062D01*
X45049D01*
Y30067D01*
X45058D01*
Y30071D01*
X45063D01*
Y30076D01*
X45072D01*
Y30081D01*
X45082D01*
Y30086D01*
X45091D01*
Y30090D01*
X45100D01*
Y30095D01*
X45105D01*
Y30100D01*
X45119D01*
Y30104D01*
X45128D01*
Y30109D01*
X45138D01*
Y30114D01*
X45147D01*
Y30118D01*
X45161D01*
Y30123D01*
X45175D01*
Y30128D01*
X45189D01*
Y30132D01*
X45199D01*
Y30137D01*
X45217D01*
Y30142D01*
X45231D01*
Y30146D01*
X45250D01*
Y30151D01*
X45274D01*
Y30156D01*
X45297D01*
Y30160D01*
X45330D01*
Y30165D01*
X49160D01*
Y30160D01*
D02*
G37*
G36*
X15409Y84227D02*
X16864D01*
Y83500D01*
X16136D01*
Y82773D01*
X16864D01*
Y82045D01*
X17591D01*
Y80591D01*
X16864D01*
Y81318D01*
X16136D01*
Y82045D01*
X15409D01*
Y81318D01*
X14682D01*
Y82045D01*
X12500D01*
Y81318D01*
X13227D01*
Y80591D01*
X12500D01*
Y81318D01*
X11773D01*
Y82045D01*
X11045D01*
Y81318D01*
X10318D01*
Y80591D01*
X9591D01*
Y82045D01*
X10318D01*
Y82313D01*
Y82314D01*
Y82773D01*
X11045D01*
Y83500D01*
X10318D01*
Y84227D01*
X9591D01*
Y84284D01*
Y84285D01*
Y84955D01*
X10318D01*
Y84227D01*
X11773D01*
Y82773D01*
X12500D01*
Y84227D01*
X11773D01*
Y85682D01*
X12500D01*
Y84955D01*
X14682D01*
Y85682D01*
X15409D01*
Y84227D01*
D02*
G37*
G36*
X17591Y84412D02*
Y84410D01*
Y84227D01*
X16864D01*
Y84955D01*
X17591D01*
Y84412D01*
D02*
G37*
G36*
X14682Y80591D02*
X13955D01*
Y81318D01*
X14682D01*
Y80591D01*
D02*
G37*
%LPC*%
G36*
X49137Y29870D02*
X45353D01*
Y29865D01*
X45325D01*
Y29861D01*
X45302D01*
Y29856D01*
X45288D01*
Y29851D01*
X45274D01*
Y29847D01*
X45260D01*
Y29842D01*
X45255D01*
Y29837D01*
X45241D01*
Y29833D01*
X45231D01*
Y29828D01*
X45227D01*
Y29823D01*
X45213D01*
Y29819D01*
X45208D01*
Y29814D01*
X45199D01*
Y29809D01*
X45194D01*
Y29805D01*
X45189D01*
Y29800D01*
X45180D01*
Y29795D01*
X45175D01*
Y29791D01*
X45166D01*
Y29786D01*
X45161D01*
Y29781D01*
X45157D01*
Y29776D01*
X45152D01*
Y29772D01*
X45147D01*
Y29767D01*
X45143D01*
Y29762D01*
X45138D01*
Y29758D01*
X45133D01*
Y29753D01*
X45128D01*
Y29748D01*
X45124D01*
Y29744D01*
X45119D01*
Y29734D01*
X45114D01*
Y29730D01*
X45110D01*
Y29725D01*
X45105D01*
Y29716D01*
X45100D01*
Y29711D01*
X45096D01*
Y29706D01*
X45091D01*
Y29697D01*
X45086D01*
Y29688D01*
X45082D01*
Y29678D01*
X45077D01*
Y29673D01*
X45072D01*
Y29664D01*
X45068D01*
Y29650D01*
X45063D01*
Y29645D01*
X45058D01*
Y29627D01*
X45054D01*
Y29617D01*
X45049D01*
Y29603D01*
X45044D01*
Y29580D01*
X45040D01*
Y29556D01*
X45035D01*
Y29121D01*
Y29116D01*
Y26944D01*
X45040D01*
Y26920D01*
X45044D01*
Y26897D01*
X45049D01*
Y26883D01*
X45054D01*
Y26873D01*
X45058D01*
Y26855D01*
X45063D01*
Y26850D01*
X45068D01*
Y26836D01*
X45072D01*
Y26827D01*
X45077D01*
Y26822D01*
X45082D01*
Y26812D01*
X45086D01*
Y26803D01*
X45091D01*
Y26794D01*
X45096D01*
Y26789D01*
X45100D01*
Y26784D01*
X45105D01*
Y26775D01*
X45110D01*
Y26770D01*
X45114D01*
Y26766D01*
X45119D01*
Y26756D01*
X45124D01*
Y26752D01*
X45128D01*
Y26747D01*
X45133D01*
Y26742D01*
X45138D01*
Y26738D01*
X45143D01*
Y26733D01*
X45147D01*
Y26728D01*
X45152D01*
Y26724D01*
X45157D01*
Y26719D01*
X45161D01*
Y26714D01*
X45166D01*
Y26709D01*
X45175D01*
Y26705D01*
X45180D01*
Y26700D01*
X45189D01*
Y26695D01*
X45194D01*
Y26691D01*
X45199D01*
Y26686D01*
X45208D01*
Y26681D01*
X45213D01*
Y26677D01*
X45227D01*
Y26672D01*
X45231D01*
Y26667D01*
X45241D01*
Y26663D01*
X45255D01*
Y26658D01*
X45260D01*
Y26653D01*
X45274D01*
Y26649D01*
X45288D01*
Y26644D01*
X45302D01*
Y26639D01*
X45325D01*
Y26635D01*
X45353D01*
Y26630D01*
X49137D01*
Y26635D01*
X49165D01*
Y26639D01*
X49188D01*
Y26644D01*
X49202D01*
Y26649D01*
X49216D01*
Y26653D01*
X49230D01*
Y26658D01*
X49235D01*
Y26663D01*
X49249D01*
Y26667D01*
X49258D01*
Y26672D01*
X49263D01*
Y26677D01*
X49277D01*
Y26681D01*
X49282D01*
Y26686D01*
X49291D01*
Y26691D01*
X49296D01*
Y26695D01*
X49300D01*
Y26700D01*
X49310D01*
Y26705D01*
X49315D01*
Y26709D01*
X49324D01*
Y26714D01*
X49329D01*
Y26719D01*
X49333D01*
Y26724D01*
X49338D01*
Y26728D01*
X49343D01*
Y26733D01*
X49347D01*
Y26738D01*
X49352D01*
Y26742D01*
X49357D01*
Y26747D01*
X49361D01*
Y26752D01*
X49366D01*
Y26756D01*
X49371D01*
Y26766D01*
X49375D01*
Y26770D01*
X49380D01*
Y26775D01*
X49385D01*
Y26784D01*
X49389D01*
Y26789D01*
X49394D01*
Y26794D01*
X49399D01*
Y26803D01*
X49403D01*
Y26812D01*
X49408D01*
Y26822D01*
X49413D01*
Y26827D01*
X49418D01*
Y26836D01*
X49422D01*
Y26850D01*
X49427D01*
Y26855D01*
X49432D01*
Y26873D01*
X49436D01*
Y26883D01*
X49441D01*
Y26897D01*
X49446D01*
Y26920D01*
X49450D01*
Y26944D01*
X49455D01*
Y29556D01*
X49450D01*
Y29580D01*
X49446D01*
Y29603D01*
X49441D01*
Y29617D01*
X49436D01*
Y29627D01*
X49432D01*
Y29645D01*
X49427D01*
Y29650D01*
X49422D01*
Y29664D01*
X49418D01*
Y29673D01*
X49413D01*
Y29678D01*
X49408D01*
Y29688D01*
X49403D01*
Y29697D01*
X49399D01*
Y29706D01*
X49394D01*
Y29711D01*
X49389D01*
Y29716D01*
X49385D01*
Y29725D01*
X49380D01*
Y29730D01*
X49375D01*
Y29734D01*
X49371D01*
Y29744D01*
X49366D01*
Y29748D01*
X49361D01*
Y29753D01*
X49357D01*
Y29758D01*
X49352D01*
Y29762D01*
X49347D01*
Y29767D01*
X49343D01*
Y29772D01*
X49338D01*
Y29776D01*
X49333D01*
Y29781D01*
X49329D01*
Y29786D01*
X49324D01*
Y29791D01*
X49315D01*
Y29795D01*
X49310D01*
Y29800D01*
X49300D01*
Y29805D01*
X49296D01*
Y29809D01*
X49291D01*
Y29814D01*
X49282D01*
Y29819D01*
X49277D01*
Y29823D01*
X49263D01*
Y29828D01*
X49258D01*
Y29833D01*
X49249D01*
Y29837D01*
X49235D01*
Y29842D01*
X49230D01*
Y29847D01*
X49216D01*
Y29851D01*
X49202D01*
Y29856D01*
X49188D01*
Y29861D01*
X49165D01*
Y29865D01*
X49137D01*
Y29870D01*
D02*
G37*
%LPD*%
G36*
X47170Y27070D02*
X46730D01*
Y27215D01*
X47020D01*
Y27220D01*
X47025D01*
Y28175D01*
X47020D01*
Y28184D01*
X47011D01*
Y28189D01*
X47006D01*
Y28194D01*
X47001D01*
Y28198D01*
X46997D01*
Y28203D01*
X46992D01*
Y28208D01*
X46987D01*
Y28213D01*
X46983D01*
Y28217D01*
X46978D01*
Y28222D01*
X46973D01*
Y28227D01*
X46964D01*
Y28231D01*
X46959D01*
Y28236D01*
X46955D01*
Y28241D01*
X46950D01*
Y28245D01*
X46945D01*
Y28250D01*
X46941D01*
Y28255D01*
X46936D01*
Y28259D01*
X46931D01*
Y28264D01*
X46927D01*
Y28269D01*
X46917D01*
Y28273D01*
X46912D01*
Y28278D01*
X46908D01*
Y28283D01*
X46903D01*
Y28287D01*
X46898D01*
Y28292D01*
X46894D01*
Y28297D01*
X46889D01*
Y28302D01*
X46884D01*
Y28306D01*
X46880D01*
Y28311D01*
X46875D01*
Y28316D01*
X46870D01*
Y28320D01*
X46861D01*
Y28325D01*
X46856D01*
Y28330D01*
X46852D01*
Y28334D01*
X46847D01*
Y28339D01*
X46842D01*
Y28344D01*
X46838D01*
Y28348D01*
X46833D01*
Y28353D01*
X46828D01*
Y28358D01*
X46823D01*
Y28362D01*
X46814D01*
Y28367D01*
X46809D01*
Y28372D01*
X46805D01*
Y28376D01*
X46800D01*
Y28381D01*
X46795D01*
Y28386D01*
X46791D01*
Y28390D01*
X46786D01*
Y28395D01*
X46781D01*
Y28400D01*
X46777D01*
Y28405D01*
X46772D01*
Y28409D01*
X46767D01*
Y28414D01*
X46758D01*
Y28419D01*
X46753D01*
Y28423D01*
X46749D01*
Y28428D01*
X46744D01*
Y28433D01*
X46739D01*
Y28437D01*
X46735D01*
Y28442D01*
X46730D01*
Y28447D01*
X46725D01*
Y28451D01*
X46720D01*
Y28456D01*
X46716D01*
Y28461D01*
X46706D01*
Y28465D01*
X46702D01*
Y28470D01*
X46697D01*
Y28475D01*
X46692D01*
Y28479D01*
X46688D01*
Y28484D01*
X46683D01*
Y28489D01*
X46678D01*
Y28493D01*
X46674D01*
Y28498D01*
X46669D01*
Y28503D01*
X46660D01*
Y28508D01*
X46655D01*
Y28512D01*
X46650D01*
Y28517D01*
X46646D01*
Y28522D01*
X46641D01*
Y28526D01*
X46636D01*
Y28531D01*
X46632D01*
Y28536D01*
X46627D01*
Y28540D01*
X46622D01*
Y28545D01*
X46617D01*
Y28550D01*
X46608D01*
Y28554D01*
X46603D01*
Y28559D01*
X46599D01*
Y28564D01*
X46594D01*
Y28568D01*
X46589D01*
Y28573D01*
X46585D01*
Y28578D01*
X46580D01*
Y28582D01*
X46575D01*
Y28587D01*
X46571D01*
Y28592D01*
X46566D01*
Y28597D01*
X46557D01*
Y28601D01*
X46552D01*
Y28606D01*
X46547D01*
Y28611D01*
X46543D01*
Y28615D01*
X46538D01*
Y28620D01*
X46533D01*
Y28625D01*
X46528D01*
Y28629D01*
X46524D01*
Y28634D01*
X46519D01*
Y28639D01*
X46514D01*
Y28643D01*
X46505D01*
Y28648D01*
X46500D01*
Y28653D01*
X46496D01*
Y28657D01*
X46491D01*
Y28662D01*
X46486D01*
Y28667D01*
X46482D01*
Y28671D01*
X46477D01*
Y28676D01*
X46472D01*
Y28681D01*
X46468D01*
Y28685D01*
X46463D01*
Y28690D01*
X46458D01*
Y28695D01*
X46449D01*
Y28700D01*
X46444D01*
Y28704D01*
X46440D01*
Y28709D01*
X46435D01*
Y28714D01*
X46430D01*
Y28718D01*
X46425D01*
Y28723D01*
X46421D01*
Y28728D01*
X46416D01*
Y28732D01*
X46411D01*
Y28737D01*
X46402D01*
Y28742D01*
X46397D01*
Y28746D01*
X46393D01*
Y28751D01*
X46388D01*
Y28756D01*
X46383D01*
Y28760D01*
X46379D01*
Y28765D01*
X46374D01*
Y28770D01*
X46369D01*
Y28774D01*
X46365D01*
Y28779D01*
X46360D01*
Y28784D01*
X46351D01*
Y28788D01*
X46346D01*
Y28793D01*
X46341D01*
Y28798D01*
X46337D01*
Y28803D01*
X46332D01*
Y28807D01*
X46327D01*
Y28812D01*
X46322D01*
Y28817D01*
X46318D01*
Y28821D01*
X46313D01*
Y28826D01*
X46308D01*
Y28831D01*
X46304D01*
Y28835D01*
X46294D01*
Y28840D01*
X46290D01*
Y28845D01*
X46285D01*
Y28849D01*
X46280D01*
Y28854D01*
X46276D01*
Y28859D01*
X46271D01*
Y28863D01*
X46266D01*
Y28868D01*
X46262D01*
Y28873D01*
X46257D01*
Y28877D01*
X46248D01*
Y28882D01*
X46243D01*
Y28887D01*
X46238D01*
Y28891D01*
X46234D01*
Y28896D01*
X46229D01*
Y28901D01*
X46224D01*
Y28906D01*
X46219D01*
Y28910D01*
X46210D01*
Y28896D01*
X46205D01*
Y28882D01*
X46201D01*
Y28868D01*
X46196D01*
Y28849D01*
X46191D01*
Y28835D01*
X46187D01*
Y28821D01*
X46182D01*
Y28807D01*
X46177D01*
Y28793D01*
X46173D01*
Y28779D01*
X46168D01*
Y28765D01*
X46163D01*
Y28751D01*
X46159D01*
Y28732D01*
X46154D01*
Y28718D01*
X46149D01*
Y28704D01*
X46145D01*
Y28690D01*
X46140D01*
Y28676D01*
X46135D01*
Y28662D01*
X46131D01*
Y28643D01*
X46126D01*
Y28634D01*
X46121D01*
Y28615D01*
X46116D01*
Y28601D01*
X46112D01*
Y28587D01*
X46107D01*
Y28573D01*
X46102D01*
Y28559D01*
X46098D01*
Y28545D01*
X46093D01*
Y28526D01*
X46088D01*
Y28512D01*
X46084D01*
Y28498D01*
X46079D01*
Y28484D01*
X46074D01*
Y28470D01*
X46070D01*
Y28456D01*
X46065D01*
Y28442D01*
X46060D01*
Y28423D01*
X46056D01*
Y28409D01*
X46051D01*
Y28395D01*
X46046D01*
Y28381D01*
X46042D01*
Y28367D01*
X46037D01*
Y28353D01*
X46032D01*
Y28334D01*
X46027D01*
Y28320D01*
X46023D01*
Y28306D01*
X46018D01*
Y28292D01*
X46013D01*
Y28278D01*
X46009D01*
Y28264D01*
X46004D01*
Y28250D01*
X45999D01*
Y28236D01*
X45995D01*
Y28217D01*
X45990D01*
Y28203D01*
X45985D01*
Y28189D01*
X45981D01*
Y28175D01*
X45976D01*
Y28161D01*
X45971D01*
Y28147D01*
X45967D01*
Y28133D01*
X45962D01*
Y28119D01*
X45957D01*
Y28100D01*
X45953D01*
Y28086D01*
X45948D01*
Y28072D01*
X45943D01*
Y28058D01*
X45939D01*
Y28044D01*
X45934D01*
Y28030D01*
X45929D01*
Y28011D01*
X45924D01*
Y27997D01*
X45920D01*
Y27983D01*
X45915D01*
Y27969D01*
X45910D01*
Y27955D01*
X45906D01*
Y27941D01*
X45901D01*
Y27927D01*
X45896D01*
Y27908D01*
X45892D01*
Y27894D01*
X45887D01*
Y27880D01*
X45882D01*
Y27866D01*
X45878D01*
Y27852D01*
X45873D01*
Y27838D01*
X45868D01*
Y27824D01*
X45864D01*
Y27810D01*
X45859D01*
Y27791D01*
X45854D01*
Y27777D01*
X45850D01*
Y27763D01*
X45845D01*
Y27749D01*
X45840D01*
Y27735D01*
X45836D01*
Y27721D01*
X45831D01*
Y27702D01*
X45826D01*
Y27688D01*
X45821D01*
Y27674D01*
X45817D01*
Y27660D01*
X45812D01*
Y27646D01*
X45807D01*
Y27632D01*
X45803D01*
Y27618D01*
X45798D01*
Y27604D01*
X45793D01*
Y27585D01*
X45789D01*
Y27571D01*
X45784D01*
Y27557D01*
X45779D01*
Y27543D01*
X45775D01*
Y27529D01*
X45770D01*
Y27515D01*
X45765D01*
Y27501D01*
X45761D01*
Y27482D01*
X45756D01*
Y27468D01*
X45751D01*
Y27454D01*
X45747D01*
Y27440D01*
X45742D01*
Y27426D01*
X45737D01*
Y27412D01*
X45732D01*
Y27393D01*
X45728D01*
Y27379D01*
X45723D01*
Y27365D01*
X45718D01*
Y27351D01*
X45714D01*
Y27337D01*
X45709D01*
Y27323D01*
X45704D01*
Y27304D01*
X45700D01*
Y27290D01*
X45845D01*
Y27145D01*
X45255D01*
Y27290D01*
X45620D01*
Y27295D01*
X45625D01*
Y27304D01*
X45629D01*
Y27318D01*
X45634D01*
Y27332D01*
X45639D01*
Y27346D01*
X45644D01*
Y27360D01*
X45648D01*
Y27374D01*
X45653D01*
Y27388D01*
X45658D01*
Y27407D01*
X45662D01*
Y27417D01*
X45667D01*
Y27435D01*
X45672D01*
Y27449D01*
X45676D01*
Y27463D01*
X45681D01*
Y27477D01*
X45686D01*
Y27491D01*
X45690D01*
Y27505D01*
X45695D01*
Y27520D01*
X45700D01*
Y27538D01*
X45704D01*
Y27552D01*
X45709D01*
Y27566D01*
X45714D01*
Y27580D01*
X45718D01*
Y27594D01*
X45723D01*
Y27609D01*
X45728D01*
Y27623D01*
X45732D01*
Y27637D01*
X45737D01*
Y27651D01*
X45742D01*
Y27665D01*
X45747D01*
Y27683D01*
X45751D01*
Y27697D01*
X45756D01*
Y27712D01*
X45761D01*
Y27726D01*
X45765D01*
Y27740D01*
X45770D01*
Y27754D01*
X45775D01*
Y27768D01*
X45779D01*
Y27782D01*
X45784D01*
Y27800D01*
X45789D01*
Y27815D01*
X45793D01*
Y27829D01*
X45798D01*
Y27843D01*
X45803D01*
Y27857D01*
X45807D01*
Y27871D01*
X45812D01*
Y27885D01*
X45817D01*
Y27899D01*
X45821D01*
Y27913D01*
X45826D01*
Y27927D01*
X45831D01*
Y27946D01*
X45836D01*
Y27960D01*
X45840D01*
Y27974D01*
X45845D01*
Y27988D01*
X45850D01*
Y28002D01*
X45854D01*
Y28016D01*
X45859D01*
Y28030D01*
X45864D01*
Y28044D01*
X45868D01*
Y28063D01*
X45873D01*
Y28077D01*
X45878D01*
Y28091D01*
X45882D01*
Y28105D01*
X45887D01*
Y28119D01*
X45892D01*
Y28133D01*
X45896D01*
Y28147D01*
X45901D01*
Y28161D01*
X45906D01*
Y28175D01*
X45910D01*
Y28194D01*
X45915D01*
Y28208D01*
X45920D01*
Y28222D01*
X45924D01*
Y28236D01*
X45929D01*
Y28250D01*
X45934D01*
Y28264D01*
X45939D01*
Y28278D01*
X45943D01*
Y28292D01*
X45948D01*
Y28311D01*
X45953D01*
Y28325D01*
X45957D01*
Y28339D01*
X45962D01*
Y28353D01*
X45967D01*
Y28367D01*
X45971D01*
Y28381D01*
X45976D01*
Y28395D01*
X45981D01*
Y28409D01*
X45985D01*
Y28423D01*
X45990D01*
Y28437D01*
X45995D01*
Y28456D01*
X45999D01*
Y28470D01*
X46004D01*
Y28484D01*
X46009D01*
Y28498D01*
X46013D01*
Y28512D01*
X46018D01*
Y28526D01*
X46023D01*
Y28540D01*
X46027D01*
Y28554D01*
X46032D01*
Y28573D01*
X46037D01*
Y28587D01*
X46042D01*
Y28601D01*
X46046D01*
Y28615D01*
X46051D01*
Y28629D01*
X46056D01*
Y28643D01*
X46060D01*
Y28657D01*
X46065D01*
Y28671D01*
X46070D01*
Y28690D01*
X46074D01*
Y28700D01*
X46079D01*
Y28718D01*
X46084D01*
Y28732D01*
X46088D01*
Y28746D01*
X46093D01*
Y28760D01*
X46098D01*
Y28774D01*
X46102D01*
Y28788D01*
X46107D01*
Y28803D01*
X46112D01*
Y28817D01*
X46116D01*
Y28835D01*
X46121D01*
Y28849D01*
X46126D01*
Y28863D01*
X46131D01*
Y28877D01*
X46135D01*
Y28891D01*
X46140D01*
Y28906D01*
X46145D01*
Y28920D01*
X46149D01*
Y28934D01*
X46154D01*
Y28948D01*
X46159D01*
Y28966D01*
X46163D01*
Y28980D01*
X46168D01*
Y28994D01*
X46173D01*
Y29009D01*
X46177D01*
Y29023D01*
X46182D01*
Y29037D01*
X46187D01*
Y29051D01*
X46191D01*
Y29065D01*
X46196D01*
Y29083D01*
X46201D01*
Y29098D01*
X46205D01*
Y29112D01*
X46210D01*
Y29126D01*
X46215D01*
Y29140D01*
X46219D01*
Y29154D01*
X46224D01*
Y29168D01*
X46229D01*
Y29182D01*
X46234D01*
Y29196D01*
X46238D01*
Y29215D01*
X46243D01*
Y29229D01*
X46248D01*
Y29243D01*
X46252D01*
Y29257D01*
X46257D01*
Y29271D01*
X46262D01*
Y29285D01*
X46266D01*
Y29299D01*
X46271D01*
Y29313D01*
X46276D01*
Y29327D01*
X46280D01*
Y29346D01*
X46285D01*
Y29350D01*
X46294D01*
Y29346D01*
X46299D01*
Y29341D01*
X46304D01*
Y29336D01*
X46308D01*
Y29332D01*
X46313D01*
Y29327D01*
X46318D01*
Y29322D01*
X46322D01*
Y29318D01*
X46327D01*
Y29313D01*
X46332D01*
Y29308D01*
X46337D01*
Y29304D01*
X46341D01*
Y29299D01*
X46346D01*
Y29294D01*
X46351D01*
Y29289D01*
X46355D01*
Y29285D01*
X46360D01*
Y29280D01*
X46365D01*
Y29275D01*
X46369D01*
Y29271D01*
X46374D01*
Y29266D01*
X46379D01*
Y29261D01*
X46383D01*
Y29257D01*
X46388D01*
Y29252D01*
X46393D01*
Y29247D01*
X46397D01*
Y29243D01*
X46402D01*
Y29238D01*
X46407D01*
Y29233D01*
X46411D01*
Y29229D01*
X46416D01*
Y29224D01*
X46421D01*
Y29219D01*
X46425D01*
Y29215D01*
X46430D01*
Y29210D01*
X46435D01*
Y29205D01*
X46440D01*
Y29201D01*
X46444D01*
Y29196D01*
X46449D01*
Y29191D01*
X46454D01*
Y29186D01*
X46458D01*
Y29182D01*
X46463D01*
Y29177D01*
X46468D01*
Y29172D01*
X46472D01*
Y29168D01*
X46477D01*
Y29163D01*
X46482D01*
Y29158D01*
X46486D01*
Y29154D01*
X46491D01*
Y29149D01*
X46496D01*
Y29144D01*
X46500D01*
Y29140D01*
X46505D01*
Y29135D01*
X46510D01*
Y29130D01*
X46514D01*
Y29126D01*
X46519D01*
Y29121D01*
X46524D01*
Y29116D01*
X46528D01*
Y29112D01*
X46533D01*
Y29107D01*
X46538D01*
Y29102D01*
X46543D01*
Y29098D01*
X46547D01*
Y29093D01*
X46552D01*
Y29088D01*
X46557D01*
Y29083D01*
X46561D01*
Y29079D01*
X46566D01*
Y29074D01*
X46571D01*
Y29069D01*
X46575D01*
Y29065D01*
X46580D01*
Y29060D01*
X46585D01*
Y29055D01*
X46589D01*
Y29051D01*
X46594D01*
Y29046D01*
X46599D01*
Y29041D01*
X46603D01*
Y29037D01*
X46608D01*
Y29032D01*
X46613D01*
Y29027D01*
X46617D01*
Y29023D01*
X46622D01*
Y29018D01*
X46627D01*
Y29013D01*
X46632D01*
Y29009D01*
X46636D01*
Y29004D01*
X46641D01*
Y28999D01*
X46646D01*
Y28994D01*
X46650D01*
Y28990D01*
X46655D01*
Y28985D01*
X46660D01*
Y28980D01*
X46664D01*
Y28976D01*
X46669D01*
Y28971D01*
X46674D01*
Y28966D01*
X46678D01*
Y28962D01*
X46683D01*
Y28957D01*
X46688D01*
Y28952D01*
X46692D01*
Y28948D01*
X46697D01*
Y28943D01*
X46702D01*
Y28938D01*
X46706D01*
Y28934D01*
X46711D01*
Y28929D01*
X46716D01*
Y28924D01*
X46720D01*
Y28920D01*
X46725D01*
Y28915D01*
X46730D01*
Y28910D01*
X46735D01*
Y28906D01*
X46739D01*
Y28901D01*
X46744D01*
Y28896D01*
X46749D01*
Y28891D01*
X46753D01*
Y28887D01*
X46758D01*
Y28882D01*
X46763D01*
Y28877D01*
X46767D01*
Y28873D01*
X46772D01*
Y28868D01*
X46777D01*
Y28863D01*
X46781D01*
Y28859D01*
X46786D01*
Y28854D01*
X46791D01*
Y28849D01*
X46795D01*
Y28845D01*
X46800D01*
Y28840D01*
X46805D01*
Y28835D01*
X46809D01*
Y28831D01*
X46814D01*
Y28826D01*
X46819D01*
Y28821D01*
X46823D01*
Y28817D01*
X46828D01*
Y28812D01*
X46833D01*
Y28807D01*
X46838D01*
Y28803D01*
X46842D01*
Y28798D01*
X46847D01*
Y28793D01*
X46852D01*
Y28788D01*
X46856D01*
Y28784D01*
X46861D01*
Y28779D01*
X46866D01*
Y28774D01*
X46870D01*
Y28770D01*
X46875D01*
Y28765D01*
X46880D01*
Y28760D01*
X46884D01*
Y28756D01*
X46889D01*
Y28751D01*
X46894D01*
Y28746D01*
X46898D01*
Y28742D01*
X46903D01*
Y28737D01*
X46908D01*
Y28732D01*
X46912D01*
Y28728D01*
X46917D01*
Y28723D01*
X46922D01*
Y28718D01*
X46927D01*
Y28714D01*
X46931D01*
Y28709D01*
X46936D01*
Y28704D01*
X46941D01*
Y28700D01*
X46945D01*
Y28695D01*
X46950D01*
Y28690D01*
X46955D01*
Y28685D01*
X46959D01*
Y28681D01*
X46964D01*
Y28676D01*
X46969D01*
Y28671D01*
X46973D01*
Y28667D01*
X46978D01*
Y28662D01*
X46983D01*
Y28657D01*
X46987D01*
Y28653D01*
X46992D01*
Y28648D01*
X46997D01*
Y28643D01*
X47001D01*
Y28639D01*
X47006D01*
Y28634D01*
X47011D01*
Y28629D01*
X47015D01*
Y28625D01*
X47025D01*
Y29500D01*
X47015D01*
Y29505D01*
X46655D01*
Y29650D01*
X47170D01*
Y27070D01*
D02*
G37*
G36*
X47835Y29505D02*
X47474D01*
Y29500D01*
X47465D01*
Y28625D01*
X47474D01*
Y28629D01*
X47479D01*
Y28634D01*
X47484D01*
Y28639D01*
X47488D01*
Y28643D01*
X47493D01*
Y28648D01*
X47498D01*
Y28653D01*
X47502D01*
Y28657D01*
X47507D01*
Y28662D01*
X47512D01*
Y28667D01*
X47516D01*
Y28671D01*
X47521D01*
Y28676D01*
X47526D01*
Y28681D01*
X47531D01*
Y28685D01*
X47535D01*
Y28690D01*
X47540D01*
Y28695D01*
X47545D01*
Y28700D01*
X47549D01*
Y28704D01*
X47554D01*
Y28709D01*
X47559D01*
Y28714D01*
X47563D01*
Y28718D01*
X47568D01*
Y28723D01*
X47573D01*
Y28728D01*
X47577D01*
Y28732D01*
X47582D01*
Y28737D01*
X47587D01*
Y28742D01*
X47591D01*
Y28746D01*
X47596D01*
Y28751D01*
X47601D01*
Y28756D01*
X47605D01*
Y28760D01*
X47610D01*
Y28765D01*
X47615D01*
Y28770D01*
X47619D01*
Y28774D01*
X47624D01*
Y28779D01*
X47629D01*
Y28784D01*
X47634D01*
Y28788D01*
X47638D01*
Y28793D01*
X47643D01*
Y28798D01*
X47648D01*
Y28803D01*
X47652D01*
Y28807D01*
X47657D01*
Y28812D01*
X47662D01*
Y28817D01*
X47666D01*
Y28821D01*
X47671D01*
Y28826D01*
X47676D01*
Y28831D01*
X47680D01*
Y28835D01*
X47685D01*
Y28840D01*
X47690D01*
Y28845D01*
X47694D01*
Y28849D01*
X47699D01*
Y28854D01*
X47704D01*
Y28859D01*
X47708D01*
Y28863D01*
X47713D01*
Y28868D01*
X47718D01*
Y28873D01*
X47723D01*
Y28877D01*
X47727D01*
Y28882D01*
X47732D01*
Y28887D01*
X47737D01*
Y28891D01*
X47741D01*
Y28896D01*
X47746D01*
Y28901D01*
X47751D01*
Y28906D01*
X47755D01*
Y28910D01*
X47760D01*
Y28915D01*
X47765D01*
Y28920D01*
X47769D01*
Y28924D01*
X47774D01*
Y28929D01*
X47779D01*
Y28934D01*
X47783D01*
Y28938D01*
X47788D01*
Y28943D01*
X47793D01*
Y28948D01*
X47797D01*
Y28952D01*
X47802D01*
Y28957D01*
X47807D01*
Y28962D01*
X47811D01*
Y28966D01*
X47816D01*
Y28971D01*
X47821D01*
Y28976D01*
X47826D01*
Y28980D01*
X47830D01*
Y28985D01*
X47835D01*
Y28990D01*
X47840D01*
Y28994D01*
X47844D01*
Y28999D01*
X47849D01*
Y29004D01*
X47854D01*
Y29009D01*
X47858D01*
Y29013D01*
X47863D01*
Y29018D01*
X47868D01*
Y29023D01*
X47872D01*
Y29027D01*
X47877D01*
Y29032D01*
X47882D01*
Y29037D01*
X47886D01*
Y29041D01*
X47891D01*
Y29046D01*
X47896D01*
Y29051D01*
X47900D01*
Y29055D01*
X47905D01*
Y29060D01*
X47910D01*
Y29065D01*
X47914D01*
Y29069D01*
X47919D01*
Y29074D01*
X47924D01*
Y29079D01*
X47929D01*
Y29083D01*
X47933D01*
Y29088D01*
X47938D01*
Y29093D01*
X47943D01*
Y29098D01*
X47947D01*
Y29102D01*
X47952D01*
Y29107D01*
X47957D01*
Y29112D01*
X47961D01*
Y29116D01*
X47966D01*
Y29121D01*
X47971D01*
Y29126D01*
X47975D01*
Y29130D01*
X47980D01*
Y29135D01*
X47985D01*
Y29140D01*
X47989D01*
Y29144D01*
X47994D01*
Y29149D01*
X47999D01*
Y29154D01*
X48003D01*
Y29158D01*
X48008D01*
Y29163D01*
X48013D01*
Y29168D01*
X48018D01*
Y29172D01*
X48022D01*
Y29177D01*
X48027D01*
Y29182D01*
X48032D01*
Y29186D01*
X48036D01*
Y29191D01*
X48041D01*
Y29196D01*
X48046D01*
Y29201D01*
X48050D01*
Y29205D01*
X48055D01*
Y29210D01*
X48060D01*
Y29215D01*
X48064D01*
Y29219D01*
X48069D01*
Y29224D01*
X48074D01*
Y29229D01*
X48078D01*
Y29233D01*
X48083D01*
Y29238D01*
X48088D01*
Y29243D01*
X48092D01*
Y29247D01*
X48097D01*
Y29252D01*
X48102D01*
Y29257D01*
X48106D01*
Y29261D01*
X48111D01*
Y29266D01*
X48116D01*
Y29271D01*
X48121D01*
Y29275D01*
X48125D01*
Y29280D01*
X48130D01*
Y29285D01*
X48135D01*
Y29289D01*
X48139D01*
Y29294D01*
X48144D01*
Y29299D01*
X48149D01*
Y29304D01*
X48153D01*
Y29308D01*
X48158D01*
Y29313D01*
X48163D01*
Y29318D01*
X48167D01*
Y29322D01*
X48172D01*
Y29327D01*
X48177D01*
Y29332D01*
X48181D01*
Y29336D01*
X48186D01*
Y29341D01*
X48191D01*
Y29346D01*
X48195D01*
Y29350D01*
X48205D01*
Y29346D01*
X48209D01*
Y29327D01*
X48214D01*
Y29313D01*
X48219D01*
Y29299D01*
X48224D01*
Y29285D01*
X48228D01*
Y29271D01*
X48233D01*
Y29257D01*
X48238D01*
Y29243D01*
X48242D01*
Y29229D01*
X48247D01*
Y29215D01*
X48252D01*
Y29196D01*
X48256D01*
Y29182D01*
X48261D01*
Y29168D01*
X48266D01*
Y29154D01*
X48270D01*
Y29140D01*
X48275D01*
Y29126D01*
X48280D01*
Y29112D01*
X48284D01*
Y29098D01*
X48289D01*
Y29083D01*
X48294D01*
Y29065D01*
X48298D01*
Y29051D01*
X48303D01*
Y29037D01*
X48308D01*
Y29023D01*
X48312D01*
Y29009D01*
X48317D01*
Y28994D01*
X48322D01*
Y28980D01*
X48327D01*
Y28966D01*
X48331D01*
Y28948D01*
X48336D01*
Y28934D01*
X48341D01*
Y28920D01*
X48345D01*
Y28906D01*
X48350D01*
Y28891D01*
X48355D01*
Y28877D01*
X48359D01*
Y28863D01*
X48364D01*
Y28849D01*
X48369D01*
Y28835D01*
X48373D01*
Y28821D01*
X48378D01*
Y28803D01*
X48383D01*
Y28788D01*
X48387D01*
Y28774D01*
X48392D01*
Y28760D01*
X48397D01*
Y28746D01*
X48401D01*
Y28732D01*
X48406D01*
Y28718D01*
X48411D01*
Y28704D01*
X48416D01*
Y28690D01*
X48420D01*
Y28671D01*
X48425D01*
Y28657D01*
X48430D01*
Y28643D01*
X48434D01*
Y28629D01*
X48439D01*
Y28615D01*
X48444D01*
Y28601D01*
X48448D01*
Y28587D01*
X48453D01*
Y28573D01*
X48458D01*
Y28559D01*
X48462D01*
Y28545D01*
X48467D01*
Y28526D01*
X48472D01*
Y28512D01*
X48476D01*
Y28498D01*
X48481D01*
Y28484D01*
X48486D01*
Y28470D01*
X48490D01*
Y28456D01*
X48495D01*
Y28442D01*
X48500D01*
Y28428D01*
X48504D01*
Y28409D01*
X48509D01*
Y28395D01*
X48514D01*
Y28381D01*
X48519D01*
Y28367D01*
X48523D01*
Y28353D01*
X48528D01*
Y28339D01*
X48533D01*
Y28325D01*
X48537D01*
Y28311D01*
X48542D01*
Y28297D01*
X48547D01*
Y28278D01*
X48551D01*
Y28264D01*
X48556D01*
Y28250D01*
X48561D01*
Y28236D01*
X48565D01*
Y28222D01*
X48570D01*
Y28208D01*
X48575D01*
Y28194D01*
X48579D01*
Y28180D01*
X48584D01*
Y28166D01*
X48589D01*
Y28147D01*
X48593D01*
Y28133D01*
X48598D01*
Y28119D01*
X48603D01*
Y28105D01*
X48607D01*
Y28091D01*
X48612D01*
Y28077D01*
X48617D01*
Y28063D01*
X48622D01*
Y28049D01*
X48626D01*
Y28035D01*
X48631D01*
Y28016D01*
X48636D01*
Y28002D01*
X48640D01*
Y27988D01*
X48645D01*
Y27974D01*
X48650D01*
Y27960D01*
X48654D01*
Y27946D01*
X48659D01*
Y27932D01*
X48664D01*
Y27918D01*
X48668D01*
Y27899D01*
X48673D01*
Y27885D01*
X48678D01*
Y27871D01*
X48682D01*
Y27857D01*
X48687D01*
Y27843D01*
X48692D01*
Y27829D01*
X48696D01*
Y27815D01*
X48701D01*
Y27800D01*
X48706D01*
Y27786D01*
X48710D01*
Y27772D01*
X48715D01*
Y27754D01*
X48720D01*
Y27740D01*
X48725D01*
Y27726D01*
X48729D01*
Y27712D01*
X48734D01*
Y27697D01*
X48739D01*
Y27683D01*
X48743D01*
Y27669D01*
X48748D01*
Y27655D01*
X48753D01*
Y27641D01*
X48757D01*
Y27623D01*
X48762D01*
Y27609D01*
X48767D01*
Y27594D01*
X48771D01*
Y27580D01*
X48776D01*
Y27566D01*
X48781D01*
Y27552D01*
X48785D01*
Y27538D01*
X48790D01*
Y27524D01*
X48795D01*
Y27505D01*
X48799D01*
Y27491D01*
X48804D01*
Y27477D01*
X48809D01*
Y27463D01*
X48814D01*
Y27449D01*
X48818D01*
Y27435D01*
X48823D01*
Y27421D01*
X48828D01*
Y27407D01*
X48832D01*
Y27393D01*
X48837D01*
Y27374D01*
X48842D01*
Y27360D01*
X48846D01*
Y27346D01*
X48851D01*
Y27332D01*
X48856D01*
Y27318D01*
X48860D01*
Y27304D01*
X48865D01*
Y27295D01*
X48870D01*
Y27290D01*
X49235D01*
Y27145D01*
X48645D01*
Y27290D01*
X48790D01*
Y27309D01*
X48785D01*
Y27323D01*
X48781D01*
Y27337D01*
X48776D01*
Y27351D01*
X48771D01*
Y27370D01*
X48767D01*
Y27384D01*
X48762D01*
Y27398D01*
X48757D01*
Y27412D01*
X48753D01*
Y27426D01*
X48748D01*
Y27440D01*
X48743D01*
Y27454D01*
X48739D01*
Y27468D01*
X48734D01*
Y27487D01*
X48729D01*
Y27501D01*
X48725D01*
Y27515D01*
X48720D01*
Y27529D01*
X48715D01*
Y27543D01*
X48710D01*
Y27557D01*
X48706D01*
Y27576D01*
X48701D01*
Y27590D01*
X48696D01*
Y27604D01*
X48692D01*
Y27618D01*
X48687D01*
Y27632D01*
X48682D01*
Y27646D01*
X48678D01*
Y27660D01*
X48673D01*
Y27674D01*
X48668D01*
Y27693D01*
X48664D01*
Y27707D01*
X48659D01*
Y27721D01*
X48654D01*
Y27735D01*
X48650D01*
Y27749D01*
X48645D01*
Y27763D01*
X48640D01*
Y27777D01*
X48636D01*
Y27796D01*
X48631D01*
Y27810D01*
X48626D01*
Y27824D01*
X48622D01*
Y27838D01*
X48617D01*
Y27852D01*
X48612D01*
Y27866D01*
X48607D01*
Y27885D01*
X48603D01*
Y27899D01*
X48598D01*
Y27913D01*
X48593D01*
Y27927D01*
X48589D01*
Y27941D01*
X48584D01*
Y27955D01*
X48579D01*
Y27969D01*
X48575D01*
Y27983D01*
X48570D01*
Y28002D01*
X48565D01*
Y28016D01*
X48561D01*
Y28030D01*
X48556D01*
Y28044D01*
X48551D01*
Y28058D01*
X48547D01*
Y28072D01*
X48542D01*
Y28086D01*
X48537D01*
Y28105D01*
X48533D01*
Y28119D01*
X48528D01*
Y28133D01*
X48523D01*
Y28147D01*
X48519D01*
Y28161D01*
X48514D01*
Y28175D01*
X48509D01*
Y28189D01*
X48504D01*
Y28208D01*
X48500D01*
Y28222D01*
X48495D01*
Y28236D01*
X48490D01*
Y28250D01*
X48486D01*
Y28264D01*
X48481D01*
Y28278D01*
X48476D01*
Y28292D01*
X48472D01*
Y28311D01*
X48467D01*
Y28325D01*
X48462D01*
Y28339D01*
X48458D01*
Y28353D01*
X48453D01*
Y28367D01*
X48448D01*
Y28381D01*
X48444D01*
Y28400D01*
X48439D01*
Y28414D01*
X48434D01*
Y28428D01*
X48430D01*
Y28442D01*
X48425D01*
Y28456D01*
X48420D01*
Y28470D01*
X48416D01*
Y28484D01*
X48411D01*
Y28498D01*
X48406D01*
Y28517D01*
X48401D01*
Y28531D01*
X48397D01*
Y28545D01*
X48392D01*
Y28559D01*
X48387D01*
Y28573D01*
X48383D01*
Y28587D01*
X48378D01*
Y28601D01*
X48373D01*
Y28615D01*
X48369D01*
Y28634D01*
X48364D01*
Y28648D01*
X48359D01*
Y28662D01*
X48355D01*
Y28676D01*
X48350D01*
Y28690D01*
X48345D01*
Y28709D01*
X48341D01*
Y28723D01*
X48336D01*
Y28737D01*
X48331D01*
Y28751D01*
X48327D01*
Y28765D01*
X48322D01*
Y28779D01*
X48317D01*
Y28793D01*
X48312D01*
Y28807D01*
X48308D01*
Y28826D01*
X48303D01*
Y28840D01*
X48298D01*
Y28854D01*
X48294D01*
Y28868D01*
X48289D01*
Y28882D01*
X48284D01*
Y28896D01*
X48280D01*
Y28910D01*
X48270D01*
Y28906D01*
X48266D01*
Y28901D01*
X48261D01*
Y28896D01*
X48256D01*
Y28891D01*
X48252D01*
Y28887D01*
X48247D01*
Y28882D01*
X48242D01*
Y28877D01*
X48238D01*
Y28873D01*
X48233D01*
Y28868D01*
X48224D01*
Y28863D01*
X48219D01*
Y28859D01*
X48214D01*
Y28854D01*
X48209D01*
Y28849D01*
X48205D01*
Y28845D01*
X48200D01*
Y28840D01*
X48195D01*
Y28835D01*
X48191D01*
Y28831D01*
X48186D01*
Y28826D01*
X48177D01*
Y28821D01*
X48172D01*
Y28817D01*
X48167D01*
Y28812D01*
X48163D01*
Y28807D01*
X48158D01*
Y28803D01*
X48153D01*
Y28798D01*
X48149D01*
Y28793D01*
X48144D01*
Y28788D01*
X48139D01*
Y28784D01*
X48135D01*
Y28779D01*
X48125D01*
Y28774D01*
X48121D01*
Y28770D01*
X48116D01*
Y28765D01*
X48111D01*
Y28760D01*
X48106D01*
Y28756D01*
X48102D01*
Y28751D01*
X48097D01*
Y28746D01*
X48092D01*
Y28742D01*
X48088D01*
Y28737D01*
X48083D01*
Y28732D01*
X48074D01*
Y28728D01*
X48069D01*
Y28723D01*
X48064D01*
Y28718D01*
X48060D01*
Y28714D01*
X48055D01*
Y28709D01*
X48050D01*
Y28704D01*
X48046D01*
Y28700D01*
X48041D01*
Y28695D01*
X48036D01*
Y28690D01*
X48032D01*
Y28685D01*
X48022D01*
Y28681D01*
X48018D01*
Y28676D01*
X48013D01*
Y28671D01*
X48008D01*
Y28667D01*
X48003D01*
Y28662D01*
X47999D01*
Y28657D01*
X47994D01*
Y28653D01*
X47989D01*
Y28648D01*
X47985D01*
Y28643D01*
X47980D01*
Y28639D01*
X47971D01*
Y28634D01*
X47966D01*
Y28629D01*
X47961D01*
Y28625D01*
X47957D01*
Y28620D01*
X47952D01*
Y28615D01*
X47947D01*
Y28611D01*
X47943D01*
Y28606D01*
X47938D01*
Y28601D01*
X47933D01*
Y28597D01*
X47929D01*
Y28592D01*
X47919D01*
Y28587D01*
X47914D01*
Y28582D01*
X47910D01*
Y28578D01*
X47905D01*
Y28573D01*
X47900D01*
Y28568D01*
X47896D01*
Y28564D01*
X47891D01*
Y28559D01*
X47886D01*
Y28554D01*
X47882D01*
Y28550D01*
X47872D01*
Y28545D01*
X47868D01*
Y28540D01*
X47863D01*
Y28536D01*
X47858D01*
Y28531D01*
X47854D01*
Y28526D01*
X47849D01*
Y28522D01*
X47844D01*
Y28517D01*
X47840D01*
Y28512D01*
X47835D01*
Y28508D01*
X47830D01*
Y28503D01*
X47826D01*
Y28498D01*
X47816D01*
Y28493D01*
X47811D01*
Y28489D01*
X47807D01*
Y28484D01*
X47802D01*
Y28479D01*
X47797D01*
Y28475D01*
X47793D01*
Y28470D01*
X47788D01*
Y28465D01*
X47783D01*
Y28461D01*
X47779D01*
Y28456D01*
X47769D01*
Y28451D01*
X47765D01*
Y28447D01*
X47760D01*
Y28442D01*
X47755D01*
Y28437D01*
X47751D01*
Y28433D01*
X47746D01*
Y28428D01*
X47741D01*
Y28423D01*
X47737D01*
Y28419D01*
X47732D01*
Y28414D01*
X47727D01*
Y28409D01*
X47723D01*
Y28405D01*
X47713D01*
Y28400D01*
X47708D01*
Y28395D01*
X47704D01*
Y28390D01*
X47699D01*
Y28386D01*
X47694D01*
Y28381D01*
X47690D01*
Y28376D01*
X47685D01*
Y28372D01*
X47680D01*
Y28367D01*
X47676D01*
Y28362D01*
X47671D01*
Y28358D01*
X47662D01*
Y28353D01*
X47657D01*
Y28348D01*
X47652D01*
Y28344D01*
X47648D01*
Y28339D01*
X47643D01*
Y28334D01*
X47638D01*
Y28330D01*
X47634D01*
Y28325D01*
X47629D01*
Y28320D01*
X47624D01*
Y28316D01*
X47615D01*
Y28311D01*
X47610D01*
Y28306D01*
X47605D01*
Y28302D01*
X47601D01*
Y28297D01*
X47596D01*
Y28292D01*
X47591D01*
Y28287D01*
X47587D01*
Y28283D01*
X47582D01*
Y28278D01*
X47577D01*
Y28273D01*
X47573D01*
Y28269D01*
X47568D01*
Y28264D01*
X47559D01*
Y28259D01*
X47554D01*
Y28255D01*
X47549D01*
Y28250D01*
X47545D01*
Y28245D01*
X47540D01*
Y28241D01*
X47535D01*
Y28236D01*
X47531D01*
Y28231D01*
X47526D01*
Y28227D01*
X47521D01*
Y28222D01*
X47512D01*
Y28217D01*
X47507D01*
Y28213D01*
X47502D01*
Y28208D01*
X47498D01*
Y28203D01*
X47493D01*
Y28198D01*
X47488D01*
Y28194D01*
X47484D01*
Y28189D01*
X47479D01*
Y28184D01*
X47470D01*
Y28175D01*
X47465D01*
Y27552D01*
Y27548D01*
Y27220D01*
X47470D01*
Y27215D01*
X47760D01*
Y27070D01*
X47320D01*
Y29650D01*
X47835D01*
Y29505D01*
D02*
G37*
G36*
X49235Y26850D02*
X45255D01*
Y26995D01*
X49235D01*
Y26850D01*
D02*
G37*
%LPC*%
G36*
X15409Y84227D02*
X14682D01*
Y82773D01*
X15409D01*
Y84227D01*
D02*
G37*
%LPD*%
D77*
X32400Y14000D02*
G03*
X32400Y14000I-1400J0D01*
G01*
X18400D02*
G03*
X18400Y14000I-1400J0D01*
G01*
X21460Y12981D02*
G03*
X21900Y14000I-960J1019D01*
G01*
D02*
G03*
X21018Y12699I-1400J0D01*
G01*
X25400Y14000D02*
G03*
X25400Y14000I-1400J0D01*
G01*
X26400Y51000D02*
G03*
X26400Y51000I-1400J0D01*
G01*
X22900D02*
G03*
X22900Y51000I-1400J0D01*
G01*
X52900Y9250D02*
G03*
X52900Y9250I-1400J0D01*
G01*
X49400D02*
G03*
X49400Y9250I-1400J0D01*
G01*
X28900Y14000D02*
G03*
X28900Y14000I-1400J0D01*
G01*
X28900Y27000D02*
G03*
X28900Y27000I-1400J0D01*
G01*
X45900Y9250D02*
G03*
X45900Y9250I-1400J0D01*
G01*
X25400Y27000D02*
G03*
X25400Y27000I-1400J0D01*
G01*
X50150Y66750D02*
G03*
X50150Y66750I-1400J0D01*
G01*
X49545Y83814D02*
Y84814D01*
X48545D02*
X49545D01*
X52080Y82290D02*
Y83290D01*
X51080D02*
X52080D01*
X51085Y78210D02*
X52085D01*
Y79210D01*
X44455Y84814D02*
X45455D01*
X44455Y83814D02*
Y84814D01*
X41920Y83290D02*
X42920D01*
X41920Y82290D02*
Y83290D01*
Y78210D02*
Y79210D01*
Y78210D02*
X42920D01*
X33460Y68810D02*
X34460D01*
X33460Y67810D02*
Y68810D01*
Y61190D02*
X34460D01*
X8436Y95795D02*
X9436D01*
X38540Y68615D02*
Y68810D01*
Y67810D02*
Y68385D01*
X33460Y61190D02*
Y62190D01*
X37540Y60560D02*
X38540D01*
X33460D02*
X34460D01*
X33460Y59560D02*
Y60560D01*
X38540Y61190D02*
Y62190D01*
X37540Y61190D02*
X38540D01*
Y59560D02*
Y60560D01*
X14040Y88170D02*
X15040D01*
X9960D02*
X10960D01*
X9960D02*
Y89170D01*
X15040Y88170D02*
Y89170D01*
X8436Y90705D02*
X9436D01*
X9960Y97330D02*
Y98330D01*
X10960D01*
X8436Y94795D02*
Y95795D01*
Y90705D02*
Y91705D01*
X14040Y98335D02*
X15040D01*
Y97335D02*
Y98335D01*
X33460Y52940D02*
X34460D01*
X37545Y84814D02*
X38545D01*
Y83814D02*
Y84814D01*
X30920Y78210D02*
X31920D01*
X30920D02*
Y79210D01*
Y82290D02*
Y83290D01*
X33460Y52940D02*
Y53940D01*
X38540Y52940D02*
Y53940D01*
X37540Y52940D02*
X38540D01*
X30920Y83290D02*
X31920D01*
X40085Y78210D02*
X41085D01*
X40080Y83290D02*
X41080D01*
Y82290D02*
Y83290D01*
X33455Y83814D02*
Y84814D01*
X34455D01*
X41085Y78210D02*
Y79210D01*
X56540Y71105D02*
X58040D01*
X52960Y71110D02*
X54460D01*
X52960D02*
Y72610D01*
X58040Y71105D02*
Y72605D01*
Y87395D02*
Y88895D01*
X52960Y87390D02*
Y88890D01*
X54460D01*
X56540Y88895D02*
X58040D01*
X19790Y98330D02*
X20790D01*
X15710D02*
X16710D01*
X15710Y97330D02*
Y98330D01*
X22314Y94795D02*
Y95795D01*
X21314D02*
X22314D01*
X20790Y97330D02*
Y98330D01*
X8210Y1000D02*
Y9000D01*
X18370Y1000D02*
Y9000D01*
X8210D02*
X18370D01*
X20790Y88170D02*
Y89170D01*
X15710Y88165D02*
Y89165D01*
Y88165D02*
X16710D01*
X21314Y90705D02*
X22314D01*
Y91705D01*
X19790Y88170D02*
X20790D01*
X8210Y1000D02*
X18370D01*
D78*
X32600Y40200D02*
G03*
X32600Y40100I0J-50D01*
G01*
D02*
G03*
X32600Y40200I0J50D01*
G01*
X10150Y59650D02*
G03*
X10150Y59650I-50J0D01*
G01*
X17750Y47250D02*
X18500D01*
X17750Y46500D02*
Y47250D01*
X28250Y46500D02*
Y47250D01*
X27500D02*
X28250D01*
X17750Y36750D02*
X18500D01*
X27500Y36750D02*
X28250D01*
Y37500D01*
X17750Y36750D02*
Y37500D01*
X4000Y63500D02*
X6000D01*
X8500Y59000D02*
Y61000D01*
X1500Y59000D02*
Y61000D01*
X8500Y83000D02*
Y85000D01*
X1500Y83000D02*
Y85000D01*
X4000Y80500D02*
X6000D01*
X4000Y56500D02*
X6000D01*
X4000Y87500D02*
X6000D01*
X9250Y74375D02*
Y74875D01*
X9250Y47875D02*
Y48375D01*
X44300Y73132D02*
X44498D01*
Y73332D01*
X46498Y73132D02*
Y73332D01*
X46300Y73132D02*
X46498D01*
X34498D02*
Y73332D01*
X34300Y73132D02*
X34498D01*
X36300D02*
X36498D01*
Y73332D01*
X40301Y73105D02*
X40499D01*
X42300Y73132D02*
X42498D01*
Y73332D01*
X40499Y73105D02*
Y73306D01*
X38300Y73132D02*
X38498D01*
Y73332D01*
D79*
X27351Y76150D02*
G03*
X27450Y76250I-1J100D01*
G01*
D02*
G03*
X27350Y76150I-100J0D01*
G01*
X23910Y77810D02*
G03*
X23910Y77810I-100J0D01*
G01*
X27800Y65001D02*
G03*
X27800Y65000I-100J-1D01*
G01*
X36600Y8175D02*
X37400D01*
X49750Y13000D02*
Y13800D01*
X41850Y85675D02*
X48150D01*
Y87000D01*
X41850Y97000D02*
Y98325D01*
Y85675D02*
Y87000D01*
Y98325D02*
X48150D01*
X25850Y85675D02*
X32150D01*
Y87000D01*
X25850Y97000D02*
Y98325D01*
X48150Y97000D02*
Y98325D01*
X41500Y97000D02*
Y98325D01*
X25850Y85675D02*
Y87000D01*
X24600Y62500D02*
X25400D01*
X15100Y56000D02*
X15900D01*
X28100Y55000D02*
X28900D01*
X14100Y71300D02*
Y72100D01*
X28350Y76800D02*
Y77600D01*
X9750Y36762D02*
X10750D01*
X9750Y35238D02*
X10750D01*
X6750Y34500D02*
Y37500D01*
X24600Y33500D02*
X25400D01*
X14000Y42600D02*
Y43400D01*
X7250Y34500D02*
Y37500D01*
X3250Y35238D02*
X4250D01*
X14000Y44100D02*
Y44900D01*
X33000Y44100D02*
Y44900D01*
X33600Y33500D02*
X34400D01*
X3250Y36762D02*
X4250D01*
X1600Y37000D02*
X2400D01*
X11600D02*
X12400D01*
X28350Y72300D02*
Y73100D01*
X35600Y19650D02*
X41900D01*
X35600Y13350D02*
Y19650D01*
X38100Y8175D02*
X38900D01*
X35600Y13350D02*
X41900D01*
Y19650D01*
X49500Y22500D02*
Y23300D01*
X49750Y33200D02*
Y34000D01*
Y14200D02*
Y15000D01*
X49500Y23700D02*
Y24500D01*
X49750Y32000D02*
Y32800D01*
X21775Y81675D02*
X22575D01*
X25950Y74950D02*
X26750D01*
X22850Y78950D02*
Y79750D01*
Y83550D02*
Y84350D01*
X14100Y72800D02*
Y73600D01*
X25850Y98325D02*
X32150D01*
X415Y67530D02*
X900D01*
X4500D02*
X6300D01*
X4500Y76470D02*
X6300D01*
X415D02*
X900D01*
X415Y67530D02*
Y76470D01*
X4500Y49970D02*
X6300D01*
X4500Y41030D02*
X6300D01*
X53670Y17250D02*
Y18470D01*
X415Y49970D02*
X900D01*
X415Y41030D02*
Y49970D01*
Y41030D02*
X900D01*
X42800Y63845D02*
Y64120D01*
X51200Y63845D02*
Y64120D01*
X47759Y43880D02*
X51200D01*
X42800D02*
X46741D01*
X42800D02*
Y44155D01*
X51200Y43880D02*
Y44155D01*
X55599Y18470D02*
X56830D01*
X53670D02*
X54901D01*
X56830Y28530D02*
Y29650D01*
X55335Y28530D02*
X56830D01*
X53670D02*
X55165D01*
X53670D02*
Y28981D01*
X55599Y37470D02*
X56830D01*
X53670D02*
X54901D01*
X56830Y36250D02*
Y37470D01*
Y31450D02*
Y33877D01*
X41250Y5080D02*
X42470D01*
X33530Y1920D02*
X34650D01*
X33530Y3585D02*
Y5080D01*
Y1920D02*
Y3415D01*
Y5080D02*
X34650D01*
X42470Y3849D02*
Y5080D01*
Y1920D02*
Y3151D01*
X41250Y1920D02*
X42470D01*
X36450D02*
X39650D01*
X55335Y9530D02*
X56830D01*
X53670D02*
X55165D01*
X53670D02*
Y9981D01*
X56830Y19030D02*
Y20250D01*
Y17250D02*
Y18470D01*
Y12450D02*
Y14877D01*
Y9530D02*
Y10650D01*
X55599Y19030D02*
X56830D01*
X53670D02*
X54901D01*
X55335Y27970D02*
X56830D01*
X53670D02*
X55165D01*
X56830Y26850D02*
Y27970D01*
X53670Y37019D02*
Y37470D01*
Y19030D02*
Y19481D01*
Y21850D02*
Y25050D01*
Y26850D02*
Y27970D01*
X33850Y85675D02*
X40150D01*
Y87000D01*
X33850Y97000D02*
Y98325D01*
X32150Y97000D02*
Y98325D01*
X25500Y97000D02*
Y98325D01*
X33850Y85675D02*
Y87000D01*
Y98325D02*
X40150D01*
Y97000D02*
Y98325D01*
X33500Y97000D02*
Y98325D01*
X50509Y64120D02*
X51200D01*
X42800D02*
X49491D01*
X27770Y1730D02*
Y4270D01*
X20150Y1730D02*
X27770D01*
X20150D02*
Y4270D01*
X27770D01*
X18600Y61000D02*
X19400D01*
X20100D02*
X20900D01*
X42500Y65350D02*
Y66150D01*
X29600Y55000D02*
X30400D01*
X24600Y58250D02*
X25400D01*
X23100D02*
X23900D01*
X42500Y66850D02*
Y67650D01*
X15420Y25650D02*
Y27250D01*
X13600Y33250D02*
X14400D01*
X12600Y59500D02*
X13400D01*
X15385Y32401D02*
X20615D01*
Y27601D02*
Y32401D01*
X15385Y27601D02*
X20615D01*
X16600Y56000D02*
X17400D01*
X27600Y33500D02*
X28400D01*
X26100D02*
X26900D01*
X21600D02*
X22400D01*
X21600Y61000D02*
X22400D01*
X23100D02*
X23900D01*
X23100Y33500D02*
X23900D01*
X33550Y40750D02*
X33950D01*
X33550Y43250D02*
X33950D01*
X15385Y27601D02*
Y32401D01*
X33000Y39100D02*
Y39900D01*
X35750Y44100D02*
Y44900D01*
X15600Y64000D02*
X16400D01*
X26350Y66000D02*
X27150D01*
X21600Y64000D02*
X22400D01*
X20100D02*
X20900D01*
X17100D02*
X17900D01*
X30850Y66000D02*
X31650D01*
X29000Y63600D02*
Y64400D01*
X50167Y84750D02*
Y83750D01*
Y84250D01*
X50833D01*
Y84750D01*
Y83750D01*
X51167Y84583D02*
X51333Y84750D01*
X51666D01*
X51833Y84583D01*
Y84417D01*
X51666Y84250D01*
X51833Y84083D01*
Y83917D01*
X51666Y83750D01*
X51333D01*
X51167Y83917D01*
Y84083D01*
X51333Y84250D01*
X51167Y84417D01*
Y84583D01*
X51333Y84250D02*
X51666D01*
X38862Y53267D02*
X39862D01*
X39362D01*
Y53933D01*
X38862D01*
X39862D01*
Y54267D02*
Y54600D01*
Y54433D01*
X38862D01*
X39029Y54267D01*
Y55100D02*
X38862Y55266D01*
Y55600D01*
X39029Y55766D01*
X39695D01*
X39862Y55600D01*
Y55266D01*
X39695Y55100D01*
X39029D01*
X39100Y61200D02*
X40100D01*
X39600D01*
Y61866D01*
X39100D01*
X40100D01*
X39933Y62200D02*
X40100Y62366D01*
Y62700D01*
X39933Y62866D01*
X39267D01*
X39100Y62700D01*
Y62366D01*
X39267Y62200D01*
X39434D01*
X39600Y62366D01*
Y62866D01*
X7884Y97700D02*
Y96700D01*
Y97200D01*
X8550D01*
Y97700D01*
Y96700D01*
X9383D02*
Y97700D01*
X8884Y97200D01*
X9550D01*
X56000Y57635D02*
X55000D01*
Y58135D01*
X55167Y58301D01*
X55500D01*
X55667Y58135D01*
Y57635D01*
Y57968D02*
X56000Y58301D01*
X55333Y58801D02*
Y59135D01*
X55500Y59301D01*
X56000D01*
Y58801D01*
X55833Y58635D01*
X55667Y58801D01*
Y59301D01*
X55000Y60301D02*
X56000D01*
Y59801D01*
X55833Y59634D01*
X55500D01*
X55333Y59801D01*
Y60301D01*
X56000Y60634D02*
Y60967D01*
Y60801D01*
X55333D01*
Y60634D01*
X56000Y61634D02*
Y61967D01*
X55833Y62134D01*
X55500D01*
X55333Y61967D01*
Y61634D01*
X55500Y61467D01*
X55833D01*
X56000Y61634D01*
Y62467D02*
Y62800D01*
Y62633D01*
X55000D01*
X55167Y62467D01*
X45500Y70184D02*
X46500D01*
Y70684D01*
X46333Y70850D01*
X45667D01*
X45500Y70684D01*
Y70184D01*
Y71850D02*
X45667Y71517D01*
X46000Y71183D01*
X46333D01*
X46500Y71350D01*
Y71683D01*
X46333Y71850D01*
X46167D01*
X46000Y71683D01*
Y71183D01*
X43500Y70184D02*
X44500D01*
Y70684D01*
X44333Y70850D01*
X43667D01*
X43500Y70684D01*
Y70184D01*
Y71850D02*
Y71183D01*
X44000D01*
X43833Y71517D01*
Y71683D01*
X44000Y71850D01*
X44333D01*
X44500Y71683D01*
Y71350D01*
X44333Y71183D01*
X31384Y1700D02*
X32050Y700D01*
Y1700D02*
X31384Y700D01*
X32384Y1700D02*
X33050D01*
Y1533D01*
X32384Y867D01*
Y700D01*
X40300Y6842D02*
X39300D01*
Y7342D01*
X39467Y7509D01*
X39800D01*
X39966Y7342D01*
Y6842D01*
Y7175D02*
X40300Y7509D01*
Y8508D02*
Y7842D01*
X39633Y8508D01*
X39467D01*
X39300Y8342D01*
Y8008D01*
X39467Y7842D01*
X40300Y9341D02*
X39300D01*
X39800Y8841D01*
Y9508D01*
X36200Y6842D02*
X35200D01*
Y7342D01*
X35367Y7509D01*
X35700D01*
X35867Y7342D01*
Y6842D01*
Y7175D02*
X36200Y7509D01*
Y8508D02*
Y7842D01*
X35534Y8508D01*
X35367D01*
X35200Y8342D01*
Y8008D01*
X35367Y7842D01*
Y8841D02*
X35200Y9008D01*
Y9341D01*
X35367Y9508D01*
X35534D01*
X35700Y9341D01*
Y9175D01*
Y9341D01*
X35867Y9508D01*
X36033D01*
X36200Y9341D01*
Y9008D01*
X36033Y8841D01*
X8883Y39433D02*
X8717Y39600D01*
X8384D01*
X8217Y39433D01*
Y39266D01*
X8384Y39100D01*
X8717D01*
X8883Y38933D01*
Y38767D01*
X8717Y38600D01*
X8384D01*
X8217Y38767D01*
X9883Y38600D02*
X9217D01*
X9883Y39266D01*
Y39433D01*
X9716Y39600D01*
X9383D01*
X9217Y39433D01*
X4950D02*
X4783Y39600D01*
X4450D01*
X4284Y39433D01*
Y39266D01*
X4450Y39100D01*
X4783D01*
X4950Y38933D01*
Y38767D01*
X4783Y38600D01*
X4450D01*
X4284Y38767D01*
X5283Y38600D02*
X5616D01*
X5450D01*
Y39600D01*
X5283Y39433D01*
X26850Y72192D02*
X25850D01*
Y72692D01*
X26017Y72859D01*
X26350D01*
X26517Y72692D01*
Y72192D01*
Y72525D02*
X26850Y72859D01*
Y73192D02*
Y73525D01*
Y73358D01*
X25850D01*
X26017Y73192D01*
X31127Y84750D02*
Y83750D01*
Y84250D01*
X31793D01*
Y84750D01*
Y83750D01*
X32127Y84750D02*
X32793D01*
Y84583D01*
X32127Y83917D01*
Y83750D01*
X21450Y97700D02*
Y96700D01*
Y97200D01*
X22116D01*
Y97700D01*
Y96700D01*
X23116Y97700D02*
X22450D01*
Y97200D01*
X22783Y97366D01*
X22950D01*
X23116Y97200D01*
Y96867D01*
X22950Y96700D01*
X22616D01*
X22450Y96867D01*
X43925Y66750D02*
Y67750D01*
X44425D01*
X44591Y67583D01*
Y67250D01*
X44425Y67083D01*
X43925D01*
X44258D02*
X44591Y66750D01*
X45425D02*
Y67750D01*
X44925Y67250D01*
X45591D01*
X41500Y70184D02*
X42500D01*
Y70684D01*
X42333Y70850D01*
X41667D01*
X41500Y70684D01*
Y70184D01*
X42500Y71683D02*
X41500D01*
X42000Y71183D01*
Y71850D01*
X39501Y70157D02*
X40500D01*
Y70657D01*
X40334Y70824D01*
X39667D01*
X39501Y70657D01*
Y70157D01*
Y71157D02*
Y71824D01*
X39667D01*
X40334Y71157D01*
X40500D01*
X37500Y70184D02*
X38500D01*
Y70684D01*
X38333Y70850D01*
X37667D01*
X37500Y70684D01*
Y70184D01*
X37667Y71183D02*
X37500Y71350D01*
Y71683D01*
X37667Y71850D01*
X37833D01*
X38000Y71683D01*
Y71517D01*
Y71683D01*
X38167Y71850D01*
X38333D01*
X38500Y71683D01*
Y71350D01*
X38333Y71183D01*
X35500Y70184D02*
X36500D01*
Y70684D01*
X36333Y70850D01*
X35667D01*
X35500Y70684D01*
Y70184D01*
X36500Y71850D02*
Y71183D01*
X35833Y71850D01*
X35667D01*
X35500Y71683D01*
Y71350D01*
X35667Y71183D01*
X33500Y70517D02*
X34500D01*
Y71017D01*
X34333Y71183D01*
X33667D01*
X33500Y71017D01*
Y70517D01*
X34500Y71517D02*
Y71850D01*
Y71683D01*
X33500D01*
X33667Y71517D01*
X29800Y74384D02*
X29967D01*
X30300Y74717D01*
X29967Y75050D01*
X29800D01*
X30300Y74717D02*
X30800D01*
Y75383D02*
Y75716D01*
Y75550D01*
X29800D01*
X29967Y75383D01*
X28500Y67450D02*
X28667D01*
X29000Y67783D01*
X28667Y68116D01*
X28500D01*
X29000Y67783D02*
X29500D01*
Y69116D02*
Y68450D01*
X28833Y69116D01*
X28667D01*
X28500Y68950D01*
Y68616D01*
X28667Y68450D01*
X51134Y37270D02*
X51800Y36270D01*
Y37270D02*
X51134Y36270D01*
X52134Y37103D02*
X52300Y37270D01*
X52633D01*
X52800Y37103D01*
Y36937D01*
X52633Y36770D01*
X52467D01*
X52633D01*
X52800Y36604D01*
Y36437D01*
X52633Y36270D01*
X52300D01*
X52134Y36437D01*
X51134Y27770D02*
X51800Y26770D01*
Y27770D02*
X51134Y26770D01*
X52633D02*
Y27770D01*
X52134Y27270D01*
X52800D01*
X51134Y18270D02*
X51800Y17270D01*
Y18270D02*
X51134Y17270D01*
X52800Y18270D02*
X52134D01*
Y17770D01*
X52467Y17936D01*
X52633D01*
X52800Y17770D01*
Y17437D01*
X52633Y17270D01*
X52300D01*
X52134Y17437D01*
X5534Y9452D02*
X6200Y8452D01*
Y9452D02*
X5534Y8452D01*
X7200Y9452D02*
X6867Y9285D01*
X6534Y8952D01*
Y8619D01*
X6700Y8452D01*
X7034D01*
X7200Y8619D01*
Y8786D01*
X7034Y8952D01*
X6534D01*
X9700Y51300D02*
X10366Y50300D01*
Y51300D02*
X9700Y50300D01*
X11366D02*
X10700D01*
X11366Y50967D01*
Y51133D01*
X11200Y51300D01*
X10866D01*
X10700Y51133D01*
X9700Y67200D02*
X10366Y66200D01*
Y67200D02*
X9700Y66200D01*
X10700D02*
X11033D01*
X10866D01*
Y67200D01*
X10700Y67033D01*
X37917Y36150D02*
Y35317D01*
X38084Y35150D01*
X38417D01*
X38583Y35317D01*
Y36150D01*
X39583D02*
X38917D01*
Y35650D01*
X39250Y35816D01*
X39416D01*
X39583Y35650D01*
Y35317D01*
X39416Y35150D01*
X39083D01*
X38917Y35317D01*
X32167Y22700D02*
Y21867D01*
X32334Y21700D01*
X32667D01*
X32833Y21867D01*
Y22700D01*
X33167D02*
X33833D01*
Y22533D01*
X33167Y21867D01*
Y21700D01*
X19024Y25201D02*
Y24367D01*
X19190Y24201D01*
X19524D01*
X19690Y24367D01*
Y25201D01*
X20690D02*
X20357Y25034D01*
X20023Y24701D01*
Y24367D01*
X20190Y24201D01*
X20523D01*
X20690Y24367D01*
Y24534D01*
X20523Y24701D01*
X20023D01*
X28950Y36050D02*
Y35217D01*
X29117Y35050D01*
X29450D01*
X29617Y35217D01*
Y36050D01*
X30450Y35050D02*
Y36050D01*
X29950Y35550D01*
X30616D01*
X23750Y70250D02*
Y69417D01*
X23917Y69250D01*
X24250D01*
X24416Y69417D01*
Y70250D01*
X24750Y69250D02*
X25083D01*
X24916D01*
Y70250D01*
X24750Y70083D01*
X13134Y63200D02*
Y62367D01*
X13300Y62200D01*
X13634D01*
X13800Y62367D01*
Y63200D01*
X14134Y63033D02*
X14300Y63200D01*
X14633D01*
X14800Y63033D01*
Y62866D01*
X14633Y62700D01*
X14467D01*
X14633D01*
X14800Y62533D01*
Y62367D01*
X14633Y62200D01*
X14300D01*
X14134Y62367D01*
X30950Y56800D02*
Y55967D01*
X31117Y55800D01*
X31450D01*
X31616Y55967D01*
Y56800D01*
X32616Y55800D02*
X31950D01*
X32616Y56467D01*
Y56633D01*
X32450Y56800D01*
X32116D01*
X31950Y56633D01*
X29076Y4483D02*
X28910Y4650D01*
X28577D01*
X28410Y4483D01*
Y4317D01*
X28577Y4150D01*
X28910D01*
X29076Y3984D01*
Y3817D01*
X28910Y3650D01*
X28577D01*
X28410Y3817D01*
X29410Y4483D02*
X29576Y4650D01*
X29910D01*
X30076Y4483D01*
Y4317D01*
X29910Y4150D01*
X29743D01*
X29910D01*
X30076Y3984D01*
Y3817D01*
X29910Y3650D01*
X29576D01*
X29410Y3817D01*
X43925Y65250D02*
Y66250D01*
X44425D01*
X44591Y66083D01*
Y65750D01*
X44425Y65583D01*
X43925D01*
X44258D02*
X44591Y65250D01*
X45591Y66250D02*
X44925D01*
Y65750D01*
X45258Y65917D01*
X45425D01*
X45591Y65750D01*
Y65417D01*
X45425Y65250D01*
X45091D01*
X44925Y65417D01*
X48500Y34400D02*
Y35400D01*
X49000D01*
X49167Y35233D01*
Y34900D01*
X49000Y34733D01*
X48500D01*
X48834D02*
X49167Y34400D01*
X49500D02*
X49833D01*
X49667D01*
Y35400D01*
X49500Y35233D01*
X50333Y35400D02*
X51000D01*
Y35233D01*
X50333Y34567D01*
Y34400D01*
X48500Y30600D02*
Y31600D01*
X49000D01*
X49167Y31433D01*
Y31100D01*
X49000Y30934D01*
X48500D01*
X48834D02*
X49167Y30600D01*
X49500D02*
X49833D01*
X49667D01*
Y31600D01*
X49500Y31433D01*
X50333D02*
X50500Y31600D01*
X50833D01*
X51000Y31433D01*
Y31267D01*
X50833Y31100D01*
X51000Y30934D01*
Y30767D01*
X50833Y30600D01*
X50500D01*
X50333Y30767D01*
Y30934D01*
X50500Y31100D01*
X50333Y31267D01*
Y31433D01*
X50500Y31100D02*
X50833D01*
X48250Y24900D02*
Y25900D01*
X48750D01*
X48917Y25733D01*
Y25400D01*
X48750Y25233D01*
X48250D01*
X48584D02*
X48917Y24900D01*
X49250D02*
X49583D01*
X49417D01*
Y25900D01*
X49250Y25733D01*
X50083Y25067D02*
X50250Y24900D01*
X50583D01*
X50750Y25067D01*
Y25733D01*
X50583Y25900D01*
X50250D01*
X50083Y25733D01*
Y25566D01*
X50250Y25400D01*
X50750D01*
X48167Y21100D02*
Y22100D01*
X48667D01*
X48834Y21933D01*
Y21600D01*
X48667Y21434D01*
X48167D01*
X48500D02*
X48834Y21100D01*
X49833D02*
X49167D01*
X49833Y21767D01*
Y21933D01*
X49667Y22100D01*
X49333D01*
X49167Y21933D01*
X50166D02*
X50333Y22100D01*
X50666D01*
X50833Y21933D01*
Y21267D01*
X50666Y21100D01*
X50333D01*
X50166Y21267D01*
Y21933D01*
X48584Y15400D02*
Y16399D01*
X49084D01*
X49250Y16233D01*
Y15899D01*
X49084Y15733D01*
X48584D01*
X48917D02*
X49250Y15400D01*
X50250D02*
X49583D01*
X50250Y16066D01*
Y16233D01*
X50083Y16399D01*
X49750D01*
X49583Y16233D01*
X50583Y15400D02*
X50916D01*
X50750D01*
Y16399D01*
X50583Y16233D01*
X48417Y11600D02*
Y12600D01*
X48917D01*
X49084Y12433D01*
Y12100D01*
X48917Y11933D01*
X48417D01*
X48750D02*
X49084Y11600D01*
X50083D02*
X49417D01*
X50083Y12266D01*
Y12433D01*
X49917Y12600D01*
X49583D01*
X49417Y12433D01*
X51083Y11600D02*
X50416D01*
X51083Y12266D01*
Y12433D01*
X50916Y12600D01*
X50583D01*
X50416Y12433D01*
X13267Y74000D02*
Y75000D01*
X13767D01*
X13933Y74833D01*
Y74500D01*
X13767Y74333D01*
X13267D01*
X13600D02*
X13933Y74000D01*
X14933D02*
X14267D01*
X14933Y74666D01*
Y74833D01*
X14766Y75000D01*
X14433D01*
X14267Y74833D01*
X13267Y69900D02*
Y70900D01*
X13767D01*
X13933Y70733D01*
Y70400D01*
X13767Y70234D01*
X13267D01*
X13600D02*
X13933Y69900D01*
X14267Y70733D02*
X14433Y70900D01*
X14766D01*
X14933Y70733D01*
Y70567D01*
X14766Y70400D01*
X14600D01*
X14766D01*
X14933Y70234D01*
Y70067D01*
X14766Y69900D01*
X14433D01*
X14267Y70067D01*
X2500Y33076D02*
X1500D01*
Y33576D01*
X1667Y33742D01*
X2000D01*
X2167Y33576D01*
Y33076D01*
Y33409D02*
X2500Y33742D01*
Y34075D02*
Y34409D01*
Y34242D01*
X1500D01*
X1667Y34075D01*
Y34909D02*
X1500Y35075D01*
Y35408D01*
X1667Y35575D01*
X1833D01*
X2000Y35408D01*
Y35242D01*
Y35408D01*
X2167Y35575D01*
X2333D01*
X2500Y35408D01*
Y35075D01*
X2333Y34909D01*
X12500Y33076D02*
X11500D01*
Y33576D01*
X11667Y33742D01*
X12000D01*
X12167Y33576D01*
Y33076D01*
Y33409D02*
X12500Y33742D01*
Y34075D02*
Y34409D01*
Y34242D01*
X11500D01*
X11667Y34075D01*
X12500Y35408D02*
X11500D01*
X12000Y34909D01*
Y35575D01*
X33500Y45300D02*
X32500D01*
Y45800D01*
X32667Y45966D01*
X33000D01*
X33167Y45800D01*
Y45300D01*
Y45633D02*
X33500Y45966D01*
Y46300D02*
Y46633D01*
Y46466D01*
X32500D01*
X32667Y46300D01*
X33500Y47133D02*
Y47466D01*
Y47299D01*
X32500D01*
X32667Y47133D01*
X12750Y45300D02*
Y46300D01*
X13250D01*
X13417Y46133D01*
Y45800D01*
X13250Y45633D01*
X12750D01*
X13084D02*
X13417Y45300D01*
X13750D02*
X14083D01*
X13917D01*
Y46300D01*
X13750Y46133D01*
X14583D02*
X14750Y46300D01*
X15083D01*
X15250Y46133D01*
Y45467D01*
X15083Y45300D01*
X14750D01*
X14583Y45467D01*
Y46133D01*
X12750Y41200D02*
Y42200D01*
X13250D01*
X13417Y42033D01*
Y41700D01*
X13250Y41534D01*
X12750D01*
X13084D02*
X13417Y41200D01*
X13750D02*
X14083D01*
X13917D01*
Y42200D01*
X13750Y42033D01*
X15250Y41200D02*
X14583D01*
X15250Y41867D01*
Y42033D01*
X15083Y42200D01*
X14750D01*
X14583Y42033D01*
X25500Y29576D02*
X24500D01*
Y30076D01*
X24667Y30242D01*
X25000D01*
X25167Y30076D01*
Y29576D01*
Y29909D02*
X25500Y30242D01*
Y30575D02*
Y30909D01*
Y30742D01*
X24500D01*
X24667Y30575D01*
X24500Y32075D02*
X24667Y31742D01*
X25000Y31409D01*
X25333D01*
X25500Y31575D01*
Y31908D01*
X25333Y32075D01*
X25167D01*
X25000Y31908D01*
Y31409D01*
X18127Y65580D02*
X17127D01*
Y66080D01*
X17294Y66246D01*
X17627D01*
X17794Y66080D01*
Y65580D01*
Y65913D02*
X18127Y66246D01*
X17127Y66580D02*
Y67246D01*
X17294D01*
X17960Y66580D01*
X18127D01*
X16500Y65540D02*
X15500D01*
Y66040D01*
X15667Y66206D01*
X16000D01*
X16167Y66040D01*
Y65540D01*
Y65873D02*
X16500Y66206D01*
X15500Y67206D02*
X15667Y66873D01*
X16000Y66540D01*
X16333D01*
X16500Y66706D01*
Y67039D01*
X16333Y67206D01*
X16167D01*
X16000Y67039D01*
Y66540D01*
X30425Y63500D02*
Y64500D01*
X30925D01*
X31091Y64333D01*
Y64000D01*
X30925Y63833D01*
X30425D01*
X30758D02*
X31091Y63500D01*
X31425Y64333D02*
X31591Y64500D01*
X31925D01*
X32091Y64333D01*
Y64167D01*
X31925Y64000D01*
X32091Y63833D01*
Y63667D01*
X31925Y63500D01*
X31591D01*
X31425Y63667D01*
Y63833D01*
X31591Y64000D01*
X31425Y64167D01*
Y64333D01*
X31591Y64000D02*
X31925D01*
X29000Y51909D02*
X28000D01*
Y52409D01*
X28167Y52575D01*
X28500D01*
X28667Y52409D01*
Y51909D01*
Y52242D02*
X29000Y52575D01*
X28833Y52909D02*
X29000Y53075D01*
Y53408D01*
X28833Y53575D01*
X28167D01*
X28000Y53408D01*
Y53075D01*
X28167Y52909D01*
X28333D01*
X28500Y53075D01*
Y53575D01*
X24000Y29576D02*
X23000D01*
Y30076D01*
X23167Y30242D01*
X23500D01*
X23667Y30076D01*
Y29576D01*
Y29909D02*
X24000Y30242D01*
Y30575D02*
Y30909D01*
Y30742D01*
X23000D01*
X23167Y30575D01*
X23000Y32075D02*
Y31409D01*
X23500D01*
X23333Y31742D01*
Y31908D01*
X23500Y32075D01*
X23833D01*
X24000Y31908D01*
Y31575D01*
X23833Y31409D01*
X35950Y41700D02*
Y41533D01*
X36283Y41200D01*
X36616Y41533D01*
Y41700D01*
X36283Y41200D02*
Y40700D01*
X36950Y41533D02*
X37116Y41700D01*
X37450D01*
X37616Y41533D01*
Y41366D01*
X37450Y41200D01*
X37283D01*
X37450D01*
X37616Y41033D01*
Y40867D01*
X37450Y40700D01*
X37116D01*
X36950Y40867D01*
X20042Y82175D02*
Y81175D01*
X20709D01*
X21042D02*
X21375D01*
X21208D01*
Y82175D01*
X21042Y82008D01*
X10167Y62200D02*
Y61200D01*
X10833D01*
X11833Y62200D02*
X11167D01*
Y61700D01*
X11500Y61866D01*
X11666D01*
X11833Y61700D01*
Y61367D01*
X11666Y61200D01*
X11333D01*
X11167Y61367D01*
X24500Y64040D02*
X25500D01*
Y64706D01*
Y65706D02*
Y65040D01*
X24833Y65706D01*
X24667D01*
X24500Y65539D01*
Y65206D01*
X24667Y65040D01*
X23000Y62707D02*
X24000D01*
Y63373D01*
Y64206D02*
X23000D01*
X23500Y63707D01*
Y64373D01*
X21500Y57909D02*
X22500D01*
Y58575D01*
X21667Y58909D02*
X21500Y59075D01*
Y59408D01*
X21667Y59575D01*
X21833D01*
X22000Y59408D01*
Y59242D01*
Y59408D01*
X22167Y59575D01*
X22333D01*
X22500Y59408D01*
Y59075D01*
X22333Y58909D01*
X44167Y97800D02*
Y96800D01*
Y97300D01*
X44833D01*
Y97800D01*
Y96800D01*
X45167Y97633D02*
X45333Y97800D01*
X45666D01*
X45833Y97633D01*
Y97467D01*
X45666Y97300D01*
X45500D01*
X45666D01*
X45833Y97134D01*
Y96967D01*
X45666Y96800D01*
X45333D01*
X45167Y96967D01*
X36197Y97800D02*
Y96800D01*
Y97300D01*
X36863D01*
Y97800D01*
Y96800D01*
X37863D02*
X37197D01*
X37863Y97467D01*
Y97633D01*
X37696Y97800D01*
X37363D01*
X37197Y97633D01*
X54667Y70655D02*
Y69655D01*
Y70155D01*
X55333D01*
Y70655D01*
Y69655D01*
X56333Y70655D02*
X56000Y70488D01*
X55667Y70155D01*
Y69822D01*
X55833Y69655D01*
X56166D01*
X56333Y69822D01*
Y69989D01*
X56166Y70155D01*
X55667D01*
X28364Y97800D02*
Y96800D01*
Y97300D01*
X29030D01*
Y97800D01*
Y96800D01*
X29363D02*
X29696D01*
X29530D01*
Y97800D01*
X29363Y97633D01*
X1366Y12300D02*
X700D01*
Y11800D01*
X1033D01*
X700D01*
Y11300D01*
X1700D02*
X2033D01*
X1866D01*
Y12300D01*
X1700Y12133D01*
X32117Y33084D02*
X31950Y32917D01*
Y32584D01*
X32117Y32417D01*
X32783D01*
X32950Y32584D01*
Y32917D01*
X32783Y33084D01*
X32950Y34083D02*
Y33417D01*
X32283Y34083D01*
X32117D01*
X31950Y33917D01*
Y33583D01*
X32117Y33417D01*
X32950Y35083D02*
Y34416D01*
X32283Y35083D01*
X32117D01*
X31950Y34916D01*
Y34583D01*
X32117Y34416D01*
X27991Y71733D02*
X27825Y71900D01*
X27492D01*
X27325Y71733D01*
Y71067D01*
X27492Y70900D01*
X27825D01*
X27991Y71067D01*
X28825Y70900D02*
Y71900D01*
X28325Y71400D01*
X28991D01*
X27991Y78833D02*
X27825Y79000D01*
X27492D01*
X27325Y78833D01*
Y78167D01*
X27492Y78000D01*
X27825D01*
X27991Y78167D01*
X28325Y78833D02*
X28491Y79000D01*
X28825D01*
X28991Y78833D01*
Y78666D01*
X28825Y78500D01*
X28658D01*
X28825D01*
X28991Y78333D01*
Y78167D01*
X28825Y78000D01*
X28491D01*
X28325Y78167D01*
X20425Y79683D02*
X20259Y79850D01*
X19925D01*
X19759Y79683D01*
Y79017D01*
X19925Y78850D01*
X20259D01*
X20425Y79017D01*
X21425Y78850D02*
X20759D01*
X21425Y79517D01*
Y79683D01*
X21258Y79850D01*
X20925D01*
X20759Y79683D01*
X20759Y84283D02*
X20592Y84450D01*
X20259D01*
X20092Y84283D01*
Y83617D01*
X20259Y83450D01*
X20592D01*
X20759Y83617D01*
X21092Y83450D02*
X21425D01*
X21258D01*
Y84450D01*
X21092Y84283D01*
X35417Y45966D02*
X35250Y45800D01*
Y45467D01*
X35417Y45300D01*
X36083D01*
X36250Y45467D01*
Y45800D01*
X36083Y45966D01*
X36250Y46300D02*
Y46633D01*
Y46466D01*
X35250D01*
X35417Y46300D01*
X35250Y47133D02*
Y47799D01*
X35417D01*
X36083Y47133D01*
X36250D01*
X13667Y35341D02*
X13500Y35175D01*
Y34842D01*
X13667Y34675D01*
X14333D01*
X14500Y34842D01*
Y35175D01*
X14333Y35341D01*
X14500Y36341D02*
Y35675D01*
X13833Y36341D01*
X13667D01*
X13500Y36175D01*
Y35841D01*
X13667Y35675D01*
Y36674D02*
X13500Y36841D01*
Y37174D01*
X13667Y37341D01*
X13833D01*
X14000Y37174D01*
Y37008D01*
Y37174D01*
X14167Y37341D01*
X14333D01*
X14500Y37174D01*
Y36841D01*
X14333Y36674D01*
X32667Y36867D02*
X32500Y36701D01*
Y36367D01*
X32667Y36201D01*
X33333D01*
X33500Y36367D01*
Y36701D01*
X33333Y36867D01*
X33500Y37200D02*
Y37534D01*
Y37367D01*
X32500D01*
X32667Y37200D01*
Y38034D02*
X32500Y38200D01*
Y38533D01*
X32667Y38700D01*
X32833D01*
X33000Y38533D01*
X33167Y38700D01*
X33333D01*
X33500Y38533D01*
Y38200D01*
X33333Y38034D01*
X33167D01*
X33000Y38200D01*
X32833Y38034D01*
X32667D01*
X33000Y38200D02*
Y38533D01*
X27667Y30409D02*
X27500Y30242D01*
Y29909D01*
X27667Y29742D01*
X28333D01*
X28500Y29909D01*
Y30242D01*
X28333Y30409D01*
X28500Y31409D02*
Y30742D01*
X27833Y31409D01*
X27667D01*
X27500Y31242D01*
Y30909D01*
X27667Y30742D01*
X28500Y31742D02*
Y32075D01*
Y31908D01*
X27500D01*
X27667Y31742D01*
X21667Y30242D02*
X21500Y30076D01*
Y29742D01*
X21667Y29576D01*
X22333D01*
X22500Y29742D01*
Y30076D01*
X22333Y30242D01*
X22500Y30575D02*
Y30909D01*
Y30742D01*
X21500D01*
X21667Y30575D01*
X22333Y31409D02*
X22500Y31575D01*
Y31908D01*
X22333Y32075D01*
X21667D01*
X21500Y31908D01*
Y31575D01*
X21667Y31409D01*
X21833D01*
X22000Y31575D01*
Y32075D01*
X26167Y30076D02*
X26000Y29909D01*
Y29576D01*
X26167Y29409D01*
X26833D01*
X27000Y29576D01*
Y29909D01*
X26833Y30076D01*
X27000Y31075D02*
Y30409D01*
X26333Y31075D01*
X26167D01*
X26000Y30909D01*
Y30575D01*
X26167Y30409D01*
Y31409D02*
X26000Y31575D01*
Y31908D01*
X26167Y32075D01*
X26833D01*
X27000Y31908D01*
Y31575D01*
X26833Y31409D01*
X26167D01*
X16667Y52742D02*
X16500Y52576D01*
Y52242D01*
X16667Y52076D01*
X17333D01*
X17500Y52242D01*
Y52576D01*
X17333Y52742D01*
X17500Y53075D02*
Y53409D01*
Y53242D01*
X16500D01*
X16667Y53075D01*
X16500Y54575D02*
Y53909D01*
X17000D01*
X16833Y54242D01*
Y54408D01*
X17000Y54575D01*
X17333D01*
X17500Y54408D01*
Y54075D01*
X17333Y53909D01*
X15167Y52742D02*
X15000Y52576D01*
Y52242D01*
X15167Y52076D01*
X15833D01*
X16000Y52242D01*
Y52576D01*
X15833Y52742D01*
X16000Y53075D02*
Y53409D01*
Y53242D01*
X15000D01*
X15167Y53075D01*
X16000Y54408D02*
X15000D01*
X15500Y53909D01*
Y54575D01*
X12667Y56575D02*
X12500Y56409D01*
Y56076D01*
X12667Y55909D01*
X13333D01*
X13500Y56076D01*
Y56409D01*
X13333Y56575D01*
X13500Y56909D02*
Y57242D01*
Y57075D01*
X12500D01*
X12667Y56909D01*
X13500Y57742D02*
Y58075D01*
Y57908D01*
X12500D01*
X12667Y57742D01*
X30917Y68091D02*
X30750Y67925D01*
Y67592D01*
X30917Y67425D01*
X31583D01*
X31750Y67592D01*
Y67925D01*
X31583Y68091D01*
X30750Y69091D02*
X30917Y68758D01*
X31250Y68425D01*
X31583D01*
X31750Y68591D01*
Y68925D01*
X31583Y69091D01*
X31417D01*
X31250Y68925D01*
Y68425D01*
X26417Y68091D02*
X26250Y67925D01*
Y67592D01*
X26417Y67425D01*
X27083D01*
X27250Y67592D01*
Y67925D01*
X27083Y68091D01*
X26250Y69091D02*
Y68425D01*
X26750D01*
X26583Y68758D01*
Y68925D01*
X26750Y69091D01*
X27083D01*
X27250Y68925D01*
Y68591D01*
X27083Y68425D01*
X20167Y66119D02*
X20000Y65953D01*
Y65620D01*
X20167Y65453D01*
X20833D01*
X21000Y65620D01*
Y65953D01*
X20833Y66119D01*
X20000Y66453D02*
Y67119D01*
X20167D01*
X20833Y66453D01*
X21000D01*
X21667Y66119D02*
X21500Y65953D01*
Y65620D01*
X21667Y65453D01*
X22333D01*
X22500Y65620D01*
Y65953D01*
X22333Y66119D01*
X21667Y66453D02*
X21500Y66619D01*
Y66952D01*
X21667Y67119D01*
X21833D01*
X22000Y66952D01*
X22167Y67119D01*
X22333D01*
X22500Y66952D01*
Y66619D01*
X22333Y66453D01*
X22167D01*
X22000Y66619D01*
X21833Y66453D01*
X21667D01*
X22000Y66619D02*
Y66952D01*
X29667Y51742D02*
X29500Y51576D01*
Y51242D01*
X29667Y51076D01*
X30333D01*
X30500Y51242D01*
Y51576D01*
X30333Y51742D01*
X30500Y52075D02*
Y52409D01*
Y52242D01*
X29500D01*
X29667Y52075D01*
X29500Y53575D02*
X29667Y53242D01*
X30000Y52909D01*
X30333D01*
X30500Y53075D01*
Y53408D01*
X30333Y53575D01*
X30167D01*
X30000Y53408D01*
Y52909D01*
X23167Y54992D02*
X23000Y54826D01*
Y54492D01*
X23167Y54326D01*
X23833D01*
X24000Y54492D01*
Y54826D01*
X23833Y54992D01*
X24000Y55325D02*
Y55659D01*
Y55492D01*
X23000D01*
X23167Y55325D01*
X24000Y56825D02*
Y56159D01*
X23333Y56825D01*
X23167D01*
X23000Y56658D01*
Y56325D01*
X23167Y56159D01*
X24667Y54992D02*
X24500Y54826D01*
Y54492D01*
X24667Y54326D01*
X25333D01*
X25500Y54492D01*
Y54826D01*
X25333Y54992D01*
X25500Y55325D02*
Y55659D01*
Y55492D01*
X24500D01*
X24667Y55325D01*
Y56159D02*
X24500Y56325D01*
Y56658D01*
X24667Y56825D01*
X24833D01*
X25000Y56658D01*
Y56492D01*
Y56658D01*
X25167Y56825D01*
X25333D01*
X25500Y56658D01*
Y56325D01*
X25333Y56159D01*
X18667Y58575D02*
X18500Y58409D01*
Y58075D01*
X18667Y57909D01*
X19333D01*
X19500Y58075D01*
Y58409D01*
X19333Y58575D01*
Y58909D02*
X19500Y59075D01*
Y59408D01*
X19333Y59575D01*
X18667D01*
X18500Y59408D01*
Y59075D01*
X18667Y58909D01*
X18833D01*
X19000Y59075D01*
Y59575D01*
X20167Y57742D02*
X20000Y57576D01*
Y57242D01*
X20167Y57076D01*
X20833D01*
X21000Y57242D01*
Y57576D01*
X20833Y57742D01*
X21000Y58075D02*
Y58409D01*
Y58242D01*
X20000D01*
X20167Y58075D01*
Y58909D02*
X20000Y59075D01*
Y59408D01*
X20167Y59575D01*
X20833D01*
X21000Y59408D01*
Y59075D01*
X20833Y58909D01*
X20167D01*
X7717Y78550D02*
Y79217D01*
X8050Y79550D01*
X8384Y79217D01*
Y78550D01*
Y79050D01*
X7717D01*
X8717Y78550D02*
X9050D01*
X8883D01*
Y79550D01*
X8717Y79383D01*
X9450Y55950D02*
Y56616D01*
X9783Y56950D01*
X10116Y56616D01*
Y55950D01*
Y56450D01*
X9450D01*
X11116Y55950D02*
X10450D01*
X11116Y56616D01*
Y56783D01*
X10950Y56950D01*
X10616D01*
X10450Y56783D01*
D80*
X34950Y11925D02*
G03*
X34950Y11925I-200J0D01*
G01*
X38752Y40130D02*
Y41629D01*
X39502D01*
X39752Y41380D01*
Y40880D01*
X39502Y40630D01*
X38752D01*
X40252Y40130D02*
X40752D01*
X40502D01*
Y41130D01*
X40252D01*
X44000Y41380D02*
X43751Y41629D01*
X43251D01*
X43001Y41380D01*
Y40380D01*
X43251Y40130D01*
X43751D01*
X44000Y40380D01*
X44750Y40130D02*
X45250D01*
X45500Y40380D01*
Y40880D01*
X45250Y41130D01*
X44750D01*
X44500Y40880D01*
Y40380D01*
X44750Y40130D01*
X46000D02*
Y41130D01*
X46750D01*
X47000Y40880D01*
Y40130D01*
X47749Y41380D02*
Y41130D01*
X47499D01*
X47999D01*
X47749D01*
Y40380D01*
X47999Y40130D01*
X48749Y41130D02*
Y40130D01*
Y40630D01*
X48999Y40880D01*
X49249Y41130D01*
X49499D01*
X50498Y40130D02*
X50998D01*
X51248Y40380D01*
Y40880D01*
X50998Y41130D01*
X50498D01*
X50248Y40880D01*
Y40380D01*
X50498Y40130D01*
X51748D02*
X52248D01*
X51998D01*
Y41629D01*
X51748D01*
X42001Y38870D02*
Y37371D01*
X42751D01*
X43001Y37620D01*
Y37870D01*
X42751Y38120D01*
X42001D01*
X42751D01*
X43001Y38370D01*
Y38620D01*
X42751Y38870D01*
X42001D01*
X43751Y37371D02*
X44250D01*
X44500Y37620D01*
Y38120D01*
X44250Y38370D01*
X43751D01*
X43501Y38120D01*
Y37620D01*
X43751Y37371D01*
X45250Y38370D02*
X45750D01*
X46000Y38120D01*
Y37371D01*
X45250D01*
X45000Y37620D01*
X45250Y37870D01*
X46000D01*
X46500Y38370D02*
Y37371D01*
Y37870D01*
X46750Y38120D01*
X47000Y38370D01*
X47249D01*
X48999Y38870D02*
Y37371D01*
X48249D01*
X47999Y37620D01*
Y38120D01*
X48249Y38370D01*
X48999D01*
D81*
X52100Y64000D02*
G03*
X52100Y64000I-100J0D01*
G01*
X10350Y37700D02*
G03*
X10350Y37700I-100J0D01*
G01*
X3850Y34300D02*
G03*
X3850Y34300I-100J0D01*
G01*
X17875Y58250D02*
G03*
X17875Y58250I-125J0D01*
G01*
X31670Y57568D02*
G03*
X31670Y57568I-125J0D01*
G01*
X44000Y33625D02*
X47000D01*
X44000Y35875D02*
X47000D01*
Y33625D02*
Y35875D01*
X44000Y33625D02*
Y35875D01*
X39066Y34700D02*
X39750D01*
X37750D02*
X38434D01*
X37750Y24800D02*
X39750D01*
X35275Y34830D02*
X37275D01*
X52895Y68000D02*
Y69000D01*
Y39000D02*
Y40000D01*
Y39000D02*
X53895D01*
X52895Y69000D02*
X53895D01*
X2481Y12851D02*
Y15351D01*
Y28385D02*
Y30885D01*
X4981D01*
X12946Y12851D02*
Y15351D01*
X10446Y12851D02*
X12946D01*
X2481D02*
X4372D01*
X10446Y30885D02*
X12946D01*
Y28385D02*
Y30885D01*
X44459Y35375D02*
Y34542D01*
X44875Y34125D01*
X45292Y34542D01*
Y35375D01*
X45708Y35167D02*
X45917Y35375D01*
X46333D01*
X46541Y35167D01*
Y34333D01*
X46333Y34125D01*
X45917D01*
X45708Y34333D01*
Y35167D01*
X1000Y51750D02*
Y52750D01*
X1500D01*
X1666Y52583D01*
Y52250D01*
X1500Y52084D01*
X1000D01*
X1333D02*
X1666Y51750D01*
X2000D02*
Y52750D01*
X2500D01*
X2666Y52583D01*
Y52250D01*
X2500Y52084D01*
X2000D01*
X3666Y51750D02*
X2999D01*
X3666Y52417D01*
Y52583D01*
X3499Y52750D01*
X3166D01*
X2999Y52583D01*
X3999D02*
X4166Y52750D01*
X4499D01*
X4665Y52583D01*
Y52417D01*
X4499Y52250D01*
X4332D01*
X4499D01*
X4665Y52084D01*
Y51917D01*
X4499Y51750D01*
X4166D01*
X3999Y51917D01*
X5665Y52750D02*
X4999D01*
Y52250D01*
X5332Y52417D01*
X5499D01*
X5665Y52250D01*
Y51917D01*
X5499Y51750D01*
X5165D01*
X4999Y51917D01*
X5998Y52583D02*
X6165Y52750D01*
X6498D01*
X6665Y52583D01*
Y51917D01*
X6498Y51750D01*
X6165D01*
X5998Y51917D01*
Y52583D01*
X6998Y52750D02*
Y51750D01*
X7498D01*
X7665Y51917D01*
Y52084D01*
X7498Y52250D01*
X6998D01*
X7498D01*
X7665Y52417D01*
Y52583D01*
X7498Y52750D01*
X6998D01*
X1000Y54500D02*
Y55167D01*
X1500D01*
X1666Y55000D01*
Y54500D01*
X2000D02*
Y55500D01*
X2500D01*
X2666Y55333D01*
Y55000D01*
X2500Y54834D01*
X2000D01*
X2333D02*
X2666Y54500D01*
X3666Y55500D02*
X2999D01*
Y55000D01*
X3333D01*
X2999D01*
Y54500D01*
X4665D02*
X3999D01*
X4665Y55167D01*
Y55333D01*
X4499Y55500D01*
X4166D01*
X3999Y55333D01*
X5499Y54500D02*
Y55500D01*
X4999Y55000D01*
X5665D01*
X5998Y55500D02*
Y54500D01*
X6665D01*
X6998Y55333D02*
X7165Y55500D01*
X7498D01*
X7665Y55333D01*
Y54667D01*
X7498Y54500D01*
X7165D01*
X6998Y54667D01*
Y55333D01*
X7998Y54500D02*
X8331D01*
X8164D01*
Y55500D01*
X7998Y55333D01*
X8831Y54500D02*
Y55500D01*
X9331D01*
X9497Y55333D01*
Y55000D01*
X9331Y54834D01*
X8831D01*
X1666Y79500D02*
X1000D01*
Y78500D01*
X1666D01*
X1000Y79000D02*
X1333D01*
X2666Y79333D02*
X2500Y79500D01*
X2166D01*
X2000Y79333D01*
Y79167D01*
X2166Y79000D01*
X2500D01*
X2666Y78834D01*
Y78667D01*
X2500Y78500D01*
X2166D01*
X2000Y78667D01*
X2999Y78500D02*
Y79500D01*
X3499D01*
X3666Y79333D01*
Y79000D01*
X3499Y78834D01*
X2999D01*
X3999Y79333D02*
X4166Y79500D01*
X4499D01*
X4665Y79333D01*
Y79167D01*
X4499Y79000D01*
X4332D01*
X4499D01*
X4665Y78834D01*
Y78667D01*
X4499Y78500D01*
X4166D01*
X3999Y78667D01*
X5665Y78500D02*
X4999D01*
X5665Y79167D01*
Y79333D01*
X5499Y79500D01*
X5165D01*
X4999Y79333D01*
X59250Y78230D02*
Y79230D01*
X58750Y78730D01*
X59416D01*
X58750Y81603D02*
X58917Y81770D01*
X59250D01*
X59416Y81603D01*
Y81437D01*
X59250Y81270D01*
X59083D01*
X59250D01*
X59416Y81103D01*
Y80937D01*
X59250Y80770D01*
X58917D01*
X58750Y80937D01*
X59416Y83310D02*
X58750D01*
X59416Y83977D01*
Y84143D01*
X59250Y84310D01*
X58917D01*
X58750Y84143D01*
Y85850D02*
X59083D01*
X58917D01*
Y86850D01*
X58750Y86683D01*
X53834Y90228D02*
X53667Y90395D01*
X53334D01*
X53167Y90228D01*
Y90061D01*
X53334Y89895D01*
X53667D01*
X53834Y89728D01*
Y89562D01*
X53667Y89395D01*
X53334D01*
X53167Y89562D01*
X54667Y89395D02*
X54334D01*
X54167Y89562D01*
Y89895D01*
X54334Y90061D01*
X54667D01*
X54834Y89895D01*
Y89728D01*
X54167D01*
X55167Y90061D02*
Y89395D01*
Y89728D01*
X55333Y89895D01*
X55500Y90061D01*
X55667D01*
X56166D02*
X56500Y89395D01*
X56833Y90061D01*
X57333Y89395D02*
X57666D01*
X57833Y89562D01*
Y89895D01*
X57666Y90061D01*
X57333D01*
X57166Y89895D01*
Y89562D01*
X57333Y89395D01*
X49586Y77710D02*
X49919D01*
X49752D01*
Y76710D01*
X49586D01*
X49919D01*
X51085D02*
X50419D01*
X51085Y77377D01*
Y77543D01*
X50919Y77710D01*
X50585D01*
X50419Y77543D01*
X52085D02*
X51918Y77710D01*
X51585D01*
X51419Y77543D01*
Y76877D01*
X51585Y76710D01*
X51918D01*
X52085Y76877D01*
X38586Y77710D02*
X38919D01*
X38752D01*
Y76710D01*
X38586D01*
X38919D01*
X40085D02*
X39419D01*
X40085Y77377D01*
Y77543D01*
X39919Y77710D01*
X39585D01*
X39419Y77543D01*
X41085D02*
X40918Y77710D01*
X40585D01*
X40419Y77543D01*
Y76877D01*
X40585Y76710D01*
X40918D01*
X41085Y76877D01*
X16844Y87665D02*
Y86832D01*
X17011Y86665D01*
X17344D01*
X17510Y86832D01*
Y87665D01*
X17844Y86665D02*
Y87332D01*
X18177Y87665D01*
X18510Y87332D01*
Y86665D01*
Y87165D01*
X17844D01*
X18843Y86665D02*
Y87665D01*
X19343D01*
X19510Y87498D01*
Y87165D01*
X19343Y86999D01*
X18843D01*
X19177D02*
X19510Y86665D01*
X19843Y87665D02*
X20510D01*
X20176D01*
Y86665D01*
X20843D02*
X21176D01*
X21009D01*
Y87665D01*
X20843Y87498D01*
X9502Y87665D02*
Y86832D01*
X9669Y86665D01*
X10002D01*
X10169Y86832D01*
Y87665D01*
X10502Y86665D02*
Y87332D01*
X10835Y87665D01*
X11169Y87332D01*
Y86665D01*
Y87165D01*
X10502D01*
X11502Y86665D02*
Y87665D01*
X12002D01*
X12168Y87498D01*
Y87165D01*
X12002Y86999D01*
X11502D01*
X11835D02*
X12168Y86665D01*
X12501Y87665D02*
X13168D01*
X12835D01*
Y86665D01*
X13501Y87498D02*
X13668Y87665D01*
X14001D01*
X14168Y87498D01*
Y86832D01*
X14001Y86665D01*
X13668D01*
X13501Y86832D01*
Y87498D01*
X46500Y75200D02*
X45500D01*
Y75700D01*
X45667Y75866D01*
X46000D01*
X46167Y75700D01*
Y75200D01*
Y75533D02*
X46500Y75866D01*
X45500Y76200D02*
X46500Y76866D01*
X45500D02*
X46500Y76200D01*
X43500Y75200D02*
Y75866D01*
Y75533D01*
X44500D01*
X43500Y76200D02*
X44500Y76866D01*
X43500D02*
X44500Y76200D01*
X46501Y68750D02*
X47167Y69417D01*
X47500Y69750D02*
X48167D01*
X47834D01*
Y68750D01*
X48500D02*
Y69750D01*
X49000D01*
X49167Y69583D01*
Y69250D01*
X49000Y69083D01*
X48500D01*
X48833D02*
X49167Y68750D01*
X49500Y69750D02*
X49833D01*
X49666D01*
Y68750D01*
X49500D01*
X49833D01*
X50333D02*
Y69750D01*
X50833D01*
X50999Y69583D01*
Y69250D01*
X50833Y69083D01*
X50333D01*
X52000Y4584D02*
X51333Y3918D01*
X51000Y5417D02*
Y5084D01*
X51167Y4917D01*
X51833D01*
X52000Y5084D01*
Y5417D01*
X51833Y5584D01*
X51167D01*
X51000Y5417D01*
X51167Y6584D02*
X51000Y6417D01*
Y6084D01*
X51167Y5917D01*
X51833D01*
X52000Y6084D01*
Y6417D01*
X51833Y6584D01*
X52000Y6917D02*
Y7250D01*
Y7083D01*
X51000D01*
X51167Y6917D01*
X45000Y2585D02*
X44000D01*
Y3085D01*
X44167Y3251D01*
X44500D01*
X44667Y3085D01*
Y2585D01*
Y2918D02*
X45000Y3251D01*
X44000Y4251D02*
Y3585D01*
X45000D01*
Y4251D01*
X44500Y3585D02*
Y3918D01*
X44167Y5251D02*
X44000Y5084D01*
Y4751D01*
X44167Y4584D01*
X44333D01*
X44500Y4751D01*
Y5084D01*
X44667Y5251D01*
X44833D01*
X45000Y5084D01*
Y4751D01*
X44833Y4584D01*
X44000Y6250D02*
Y5584D01*
X45000D01*
Y6250D01*
X44500Y5584D02*
Y5917D01*
X44000Y6584D02*
Y7250D01*
Y6917D01*
X45000D01*
X48500Y4584D02*
X47833Y3918D01*
X47500Y5584D02*
Y4917D01*
X48500D01*
Y5584D01*
X48000Y4917D02*
Y5251D01*
X48500Y5917D02*
X47500D01*
X48500Y6584D01*
X47500D01*
X48500Y6917D02*
Y7250D01*
Y7083D01*
X47500D01*
X47667Y6917D01*
X31667Y3000D02*
Y4000D01*
X32167D01*
X32334Y3833D01*
Y3500D01*
X32167Y3333D01*
X31667D01*
X32667Y3000D02*
X33000D01*
X32833D01*
Y3667D01*
X32667D01*
X30500Y16916D02*
Y16250D01*
X31500D01*
Y16916D01*
X31000Y16250D02*
Y16583D01*
X31500Y17250D02*
X30833D01*
X30500Y17583D01*
X30833Y17916D01*
X31500D01*
X31000D01*
Y17250D01*
X31500Y18249D02*
X30500D01*
Y18749D01*
X30667Y18916D01*
X31000D01*
X31167Y18749D01*
Y18249D01*
Y18583D02*
X31500Y18916D01*
X30500Y19249D02*
Y19915D01*
Y19582D01*
X31500D01*
X30500Y20249D02*
X31500D01*
X31000D01*
Y20915D01*
X30500D01*
X31500D01*
X19500Y49667D02*
X18834D01*
Y50167D01*
X19000Y50334D01*
X19500D01*
Y50667D02*
X18500D01*
Y51167D01*
X18667Y51333D01*
X19000D01*
X19167Y51167D01*
Y50667D01*
Y51000D02*
X19500Y51333D01*
X18500Y52333D02*
Y51666D01*
X19000D01*
Y52000D01*
Y51666D01*
X19500D01*
X24833Y53833D02*
X24667Y54000D01*
X24334D01*
X24167Y53833D01*
Y53167D01*
X24334Y53000D01*
X24667D01*
X24833Y53167D01*
X25833Y54000D02*
X25167D01*
Y53000D01*
X25833D01*
X25167Y53500D02*
X25500D01*
X21333Y53833D02*
X21167Y54000D01*
X20834D01*
X20667Y53833D01*
Y53167D01*
X20834Y53000D01*
X21167D01*
X21333Y53167D01*
X22333Y53833D02*
X22166Y54000D01*
X21833D01*
X21667Y53833D01*
Y53667D01*
X21833Y53500D01*
X22166D01*
X22333Y53333D01*
Y53167D01*
X22166Y53000D01*
X21833D01*
X21667Y53167D01*
X7217Y33350D02*
Y32350D01*
X7717D01*
X7884Y32517D01*
Y32684D01*
X7717Y32850D01*
X7217D01*
X7717D01*
X7884Y33017D01*
Y33183D01*
X7717Y33350D01*
X7217D01*
X8717D02*
X8384D01*
X8217Y33183D01*
Y32517D01*
X8384Y32350D01*
X8717D01*
X8883Y32517D01*
Y33183D01*
X8717Y33350D01*
X9716D02*
X9383D01*
X9217Y33183D01*
Y32517D01*
X9383Y32350D01*
X9716D01*
X9883Y32517D01*
Y33183D01*
X9716Y33350D01*
X10216D02*
X10883D01*
X10550D01*
Y32350D01*
X3617D02*
Y33350D01*
X4117D01*
X4284Y33183D01*
Y32850D01*
X4117Y32684D01*
X3617D01*
X3950D02*
X4284Y32350D01*
X4617Y33350D02*
Y32517D01*
X4783Y32350D01*
X5117D01*
X5283Y32517D01*
Y33350D01*
X5616Y32350D02*
Y33350D01*
X6283Y32350D01*
Y33350D01*
X23667Y22751D02*
X23500Y22584D01*
Y22251D01*
X23667Y22084D01*
X23833D01*
X24000Y22251D01*
Y22584D01*
X24167Y22751D01*
X24333D01*
X24500Y22584D01*
Y22251D01*
X24333Y22084D01*
X23667Y23750D02*
X23500Y23584D01*
Y23250D01*
X23667Y23084D01*
X24333D01*
X24500Y23250D01*
Y23584D01*
X24333Y23750D01*
X23500Y24084D02*
X24500D01*
Y24750D01*
X27167Y22751D02*
X27000Y22584D01*
Y22251D01*
X27167Y22084D01*
X27333D01*
X27500Y22251D01*
Y22584D01*
X27667Y22751D01*
X27833D01*
X28000Y22584D01*
Y22251D01*
X27833Y22084D01*
X27000Y23084D02*
X28000D01*
Y23584D01*
X27833Y23750D01*
X27167D01*
X27000Y23584D01*
Y23084D01*
X28000Y24084D02*
X27333D01*
X27000Y24417D01*
X27333Y24750D01*
X28000D01*
X27500D01*
Y24084D01*
X27167Y16916D02*
X27000Y16750D01*
Y16417D01*
X27167Y16250D01*
X27833D01*
X28000Y16417D01*
Y16750D01*
X27833Y16916D01*
X27500D01*
Y16583D01*
X28000Y17250D02*
X27000D01*
X28000Y17916D01*
X27000D01*
Y18249D02*
X28000D01*
Y18749D01*
X27833Y18916D01*
X27167D01*
X27000Y18749D01*
Y18249D01*
X24000Y16250D02*
Y16916D01*
X23667Y16583D02*
X24333D01*
X23667Y17250D02*
X23500Y17416D01*
Y17750D01*
X23667Y17916D01*
X23833D01*
X24000Y17750D01*
Y17583D01*
Y17750D01*
X24167Y17916D01*
X24333D01*
X24500Y17750D01*
Y17416D01*
X24333Y17250D01*
X23500Y18249D02*
X24167D01*
X24500Y18583D01*
X24167Y18916D01*
X23500D01*
X23667Y19249D02*
X23500Y19416D01*
Y19749D01*
X23667Y19915D01*
X23833D01*
X24000Y19749D01*
Y19582D01*
Y19749D01*
X24167Y19915D01*
X24333D01*
X24500Y19749D01*
Y19416D01*
X24333Y19249D01*
X20000Y16250D02*
X20833D01*
X21000Y16417D01*
Y16750D01*
X20833Y16916D01*
X20000D01*
X20167Y17916D02*
X20000Y17750D01*
Y17416D01*
X20167Y17250D01*
X20333D01*
X20500Y17416D01*
Y17750D01*
X20667Y17916D01*
X20833D01*
X21000Y17750D01*
Y17416D01*
X20833Y17250D01*
X20000Y18249D02*
X21000D01*
Y18749D01*
X20833Y18916D01*
X20667D01*
X20500Y18749D01*
Y18249D01*
Y18749D01*
X20333Y18916D01*
X20167D01*
X20000Y18749D01*
Y18249D01*
Y20249D02*
X20667D01*
X21000Y20582D01*
X20667Y20915D01*
X20000D01*
Y21248D02*
Y21582D01*
Y21415D01*
X21000D01*
Y21248D01*
Y21582D01*
Y22081D02*
X20000D01*
X21000Y22748D01*
X20000D01*
X17000Y16250D02*
Y16916D01*
X16667Y16583D02*
X17333D01*
X16500Y17916D02*
Y17250D01*
X17000D01*
X16833Y17583D01*
Y17750D01*
X17000Y17916D01*
X17333D01*
X17500Y17750D01*
Y17416D01*
X17333Y17250D01*
X16500Y18249D02*
X17167D01*
X17500Y18583D01*
X17167Y18916D01*
X16500D01*
X27000Y5250D02*
X26000D01*
Y5750D01*
X26167Y5916D01*
X26500D01*
X26667Y5750D01*
Y5250D01*
Y5583D02*
X27000Y5916D01*
Y6250D02*
X26000D01*
Y6750D01*
X26167Y6916D01*
X26500D01*
X26667Y6750D01*
Y6250D01*
X27000Y7916D02*
Y7249D01*
X26333Y7916D01*
X26167D01*
X26000Y7749D01*
Y7416D01*
X26167Y7249D01*
Y8249D02*
X26000Y8416D01*
Y8749D01*
X26167Y8915D01*
X26333D01*
X26500Y8749D01*
Y8582D01*
Y8749D01*
X26667Y8915D01*
X26833D01*
X27000Y8749D01*
Y8416D01*
X26833Y8249D01*
X26000Y9915D02*
Y9249D01*
X26500D01*
X26333Y9582D01*
Y9749D01*
X26500Y9915D01*
X26833D01*
X27000Y9749D01*
Y9415D01*
X26833Y9249D01*
X26167Y10248D02*
X26000Y10415D01*
Y10748D01*
X26167Y10915D01*
X26833D01*
X27000Y10748D01*
Y10415D01*
X26833Y10248D01*
X26167D01*
X20920Y5916D02*
Y5250D01*
X21920D01*
Y5916D01*
X21420Y5250D02*
Y5583D01*
X21087Y6916D02*
X20920Y6750D01*
Y6416D01*
X21087Y6250D01*
X21253D01*
X21420Y6416D01*
Y6750D01*
X21587Y6916D01*
X21753D01*
X21920Y6750D01*
Y6416D01*
X21753Y6250D01*
X21920Y7249D02*
X20920D01*
Y7749D01*
X21087Y7916D01*
X21420D01*
X21587Y7749D01*
Y7249D01*
X21087Y8249D02*
X20920Y8416D01*
Y8749D01*
X21087Y8915D01*
X21253D01*
X21420Y8749D01*
Y8582D01*
Y8749D01*
X21587Y8915D01*
X21753D01*
X21920Y8749D01*
Y8416D01*
X21753Y8249D01*
X21920Y9915D02*
Y9249D01*
X21253Y9915D01*
X21087D01*
X20920Y9749D01*
Y9415D01*
X21087Y9249D01*
X15164Y10483D02*
X14997Y10650D01*
X14664D01*
X14497Y10483D01*
Y9817D01*
X14664Y9650D01*
X14997D01*
X15164Y9817D01*
Y10150D01*
X14830D01*
X15497Y9650D02*
Y10650D01*
X16163Y9650D01*
Y10650D01*
X16496D02*
Y9650D01*
X16996D01*
X17163Y9817D01*
Y10483D01*
X16996Y10650D01*
X16496D01*
X9417Y10150D02*
X10084D01*
X9750Y10483D02*
Y9817D01*
X11083Y10650D02*
X10417D01*
Y10150D01*
X10750Y10316D01*
X10917D01*
X11083Y10150D01*
Y9817D01*
X10917Y9650D01*
X10583D01*
X10417Y9817D01*
X11416Y10650D02*
Y9983D01*
X11750Y9650D01*
X12083Y9983D01*
Y10650D01*
D82*
X17350Y36250D02*
G03*
X17350Y36250I-100J0D01*
G01*
D83*
X9368Y7755D02*
X8868D01*
X9368Y8255D01*
Y8380D01*
X9243Y8505D01*
X8993D01*
X8868Y8380D01*
X9618Y8130D02*
X10118D01*
X10368Y7755D02*
Y8505D01*
X10742D01*
X10867Y8380D01*
Y8130D01*
X10742Y8005D01*
X10368D01*
X11117Y7755D02*
X11367D01*
X11242D01*
Y8255D01*
X11117D01*
X11742Y7755D02*
Y8255D01*
X12117D01*
X12242Y8130D01*
Y7755D01*
X13741Y8380D02*
X13616Y8505D01*
X13367D01*
X13242Y8380D01*
Y8255D01*
X13367Y8130D01*
X13616D01*
X13741Y8005D01*
Y7880D01*
X13616Y7755D01*
X13367D01*
X13242Y7880D01*
X14491Y8255D02*
X14116D01*
X13991Y8130D01*
Y7880D01*
X14116Y7755D01*
X14491D01*
X14741Y8255D02*
Y7755D01*
Y8005D01*
X14866Y8130D01*
X14991Y8255D01*
X15116D01*
X15866Y7755D02*
X15616D01*
X15491Y7880D01*
Y8130D01*
X15616Y8255D01*
X15866D01*
X15991Y8130D01*
Y8005D01*
X15491D01*
X16241Y8255D02*
Y7880D01*
X16366Y7755D01*
X16491Y7880D01*
X16616Y7755D01*
X16740Y7880D01*
Y8255D01*
X8868Y7245D02*
X9368D01*
X9118D01*
Y6495D01*
X9993D02*
X9743D01*
X9618Y6620D01*
Y6870D01*
X9743Y6995D01*
X9993D01*
X10118Y6870D01*
Y6745D01*
X9618D01*
X10368Y6995D02*
Y6495D01*
Y6745D01*
X10492Y6870D01*
X10617Y6995D01*
X10742D01*
X11117Y6495D02*
Y6995D01*
X11242D01*
X11367Y6870D01*
Y6495D01*
Y6870D01*
X11492Y6995D01*
X11617Y6870D01*
Y6495D01*
X9118Y1458D02*
X8868D01*
Y2208D01*
X9118D01*
X9993D02*
X9493D01*
Y1833D01*
X9743D01*
X9493D01*
Y1458D01*
X10243Y1958D02*
Y1458D01*
Y1708D01*
X10368Y1833D01*
X10492Y1958D01*
X10617D01*
X11117Y1458D02*
X11367D01*
X11492Y1583D01*
Y1833D01*
X11367Y1958D01*
X11117D01*
X10992Y1833D01*
Y1583D01*
X11117Y1458D01*
X11742D02*
Y1958D01*
X12117D01*
X12242Y1833D01*
Y1458D01*
X12617Y2083D02*
Y1958D01*
X12492D01*
X12742D01*
X12617D01*
Y1583D01*
X12742Y1458D01*
X13117D02*
X13367D01*
Y2208D01*
X13117D01*
%TF.MD5,fe69d2671c4341976a81d3c715a48619*%
M02*
