%TF.GenerationSoftware,Altium Limited,Altium Designer,25.2.1 (25)*%
G04 Layer_Color=0*
%FSLAX43Y43*%
%MOMM*%
%TF.SameCoordinates,BC6F9B4E-F4BF-41B7-AD79-6EFDE6D2D93E*%
%TF.FilePolarity,Positive*%
%TF.FileFunction,Plated,1,4,PTH,Drill*%
%TF.Part,Single*%
G01*
G75*
%TA.AperFunction,ComponentDrill*%
%ADD148C,1.150*%
%ADD149C,0.700*%
%ADD150C,0.660*%
%ADD151C,0.800*%
%ADD152C,0.700*%
%ADD153C,0.660*%
%ADD154C,0.800*%
%ADD155C,0.750*%
%ADD156C,1.750*%
%ADD157C,1.500*%
%ADD158C,3.200*%
%ADD159C,1.100*%
%ADD160C,1.150*%
%ADD161C,3.500*%
%ADD162C,1.600*%
%ADD163C,1.250*%
%ADD164C,2.000*%
%ADD165C,1.300*%
%ADD166C,0.900*%
%ADD167C,3.500*%
%TA.AperFunction,ViaDrill,NotFilled*%
%ADD168C,0.300*%
D148*
X49540Y80750D02*
D03*
X47000D02*
D03*
X44460D02*
D03*
X38540D02*
D03*
X36000D02*
D03*
X33460D02*
D03*
D149*
X35600Y5650D02*
D03*
X40400D02*
D03*
X35600Y1350D02*
D03*
X40400D02*
D03*
D150*
X34250Y3500D02*
D03*
D151*
X41750D02*
D03*
D152*
X53100Y30600D02*
D03*
Y35400D02*
D03*
X57400Y30600D02*
D03*
Y35400D02*
D03*
Y25900D02*
D03*
Y21100D02*
D03*
X53100Y25900D02*
D03*
Y21100D02*
D03*
Y11600D02*
D03*
Y16400D02*
D03*
X57400Y11600D02*
D03*
Y16400D02*
D03*
D153*
X55250Y29250D02*
D03*
Y27250D02*
D03*
Y10250D02*
D03*
D154*
Y36750D02*
D03*
Y19750D02*
D03*
Y17750D02*
D03*
D155*
X5765Y49100D02*
D03*
X5830Y41900D02*
D03*
X5765Y75600D02*
D03*
X5830Y68400D02*
D03*
D156*
X2715Y41180D02*
D03*
Y49820D02*
D03*
X2715Y67680D02*
D03*
Y76320D02*
D03*
D157*
X7765Y41180D02*
D03*
Y49820D02*
D03*
X7765Y67680D02*
D03*
Y76320D02*
D03*
D158*
X92795Y54000D02*
D03*
X55395Y66500D02*
D03*
Y41500D02*
D03*
D159*
X55500Y86350D02*
D03*
Y83810D02*
D03*
Y81270D02*
D03*
Y78730D02*
D03*
Y76190D02*
D03*
Y73650D02*
D03*
D160*
X36000Y58020D02*
D03*
Y55480D02*
D03*
Y66270D02*
D03*
Y63730D02*
D03*
X12500Y95790D02*
D03*
Y93250D02*
D03*
Y90710D02*
D03*
X18250Y95790D02*
D03*
Y93250D02*
D03*
Y90710D02*
D03*
D161*
X4500Y94500D02*
D03*
D162*
X7540Y81460D02*
D03*
X2460D02*
D03*
Y86540D02*
D03*
X7540D02*
D03*
X5000Y84000D02*
D03*
X7540Y57460D02*
D03*
X2460D02*
D03*
Y62540D02*
D03*
X7540D02*
D03*
X5000Y60000D02*
D03*
D163*
X12600Y25750D02*
D03*
Y18250D02*
D03*
D164*
X2400Y25750D02*
D03*
Y18250D02*
D03*
D165*
X10750Y4500D02*
D03*
X15830D02*
D03*
D166*
X26500Y3000D02*
D03*
X23960D02*
D03*
X21420D02*
D03*
D167*
X4500Y4500D02*
D03*
X55500Y94500D02*
D03*
Y4500D02*
D03*
D168*
X22750Y53250D02*
D03*
X22000Y54250D02*
D03*
X29455Y43000D02*
D03*
X30750Y43750D02*
D03*
X32000Y2250D02*
D03*
X33000Y65000D02*
D03*
X18000Y19000D02*
D03*
X15750Y52250D02*
D03*
X11000Y39750D02*
D03*
Y34250D02*
D03*
X46250Y4000D02*
D03*
X50000Y64250D02*
D03*
X27750Y80000D02*
D03*
Y70250D02*
D03*
X24500Y64000D02*
D03*
X23500D02*
D03*
X38750Y34250D02*
D03*
X38000Y28885D02*
D03*
X34500Y29250D02*
D03*
X10000Y48500D02*
D03*
X15750Y51000D02*
D03*
X13250Y52000D02*
D03*
Y39500D02*
D03*
X28000Y35750D02*
D03*
X14000Y35250D02*
D03*
X41000Y65750D02*
D03*
X38000Y68500D02*
D03*
X27000Y41000D02*
D03*
X25250Y40750D02*
D03*
X41750Y44000D02*
D03*
Y41250D02*
D03*
X57250Y48000D02*
D03*
X38000Y49750D02*
D03*
Y50750D02*
D03*
X29500Y39500D02*
D03*
X49250Y94500D02*
D03*
X24000Y94000D02*
D03*
X10250Y70000D02*
D03*
X10000Y43750D02*
D03*
X14500Y56750D02*
D03*
X24000D02*
D03*
X10250Y77250D02*
D03*
X1000Y45000D02*
D03*
X2000Y32250D02*
D03*
X10000Y34250D02*
D03*
X17500Y30500D02*
D03*
X31250Y35250D02*
D03*
Y34000D02*
D03*
X21500Y9000D02*
D03*
Y12430D02*
D03*
X25000Y29750D02*
D03*
X22500Y23250D02*
D03*
X13000Y10750D02*
D03*
X4000Y8750D02*
D03*
X7000Y19750D02*
D03*
X4750Y13250D02*
D03*
X12000Y15000D02*
D03*
X5500Y36750D02*
D03*
X25000Y79000D02*
D03*
X49250Y72500D02*
D03*
X48500Y62750D02*
D03*
X47500D02*
D03*
X47250Y42500D02*
D03*
Y43750D02*
D03*
X42500Y68250D02*
D03*
X21750Y39500D02*
D03*
X22750D02*
D03*
X33000Y85500D02*
D03*
Y86500D02*
D03*
X26250Y38432D02*
D03*
X46750Y93000D02*
D03*
X42750D02*
D03*
X39000D02*
D03*
X34750D02*
D03*
X31250D02*
D03*
X26750D02*
D03*
X45000Y90500D02*
D03*
Y92000D02*
D03*
X32500Y59750D02*
D03*
X27250Y50750D02*
D03*
X19250Y54000D02*
D03*
X18250D02*
D03*
X19000Y41250D02*
D03*
Y40250D02*
D03*
X44250Y60000D02*
D03*
Y63250D02*
D03*
X50250Y72000D02*
D03*
X40250Y69500D02*
D03*
X40750Y68500D02*
D03*
X38000Y69500D02*
D03*
X36000D02*
D03*
X34000D02*
D03*
X46000Y73500D02*
D03*
X44000D02*
D03*
X42000D02*
D03*
X40000Y73474D02*
D03*
X38000Y73500D02*
D03*
X36000D02*
D03*
X34000D02*
D03*
X26750Y97250D02*
D03*
X31250D02*
D03*
X34750D02*
D03*
X39250D02*
D03*
X42750D02*
D03*
X24500Y88000D02*
D03*
X49500D02*
D03*
X47250Y97250D02*
D03*
X51750Y65750D02*
D03*
X17250Y79000D02*
D03*
X29500Y44000D02*
D03*
X29750Y46500D02*
D03*
X30500Y45250D02*
D03*
X40750Y10775D02*
D03*
X42250Y9525D02*
D03*
X38500Y10775D02*
D03*
X37500D02*
D03*
X34250Y6775D02*
D03*
X55500Y45500D02*
D03*
X54000Y48750D02*
D03*
Y52750D02*
D03*
X46000Y45000D02*
D03*
X59000Y42500D02*
D03*
X37750Y42000D02*
D03*
X54000Y45500D02*
D03*
X46000Y49000D02*
D03*
X50250Y60250D02*
D03*
X38000Y48750D02*
D03*
X50250Y50250D02*
D03*
Y52750D02*
D03*
X38000Y46250D02*
D03*
Y47250D02*
D03*
X51750Y34250D02*
D03*
X43250Y22750D02*
D03*
X57750Y14500D02*
D03*
X52150Y24750D02*
D03*
X52750Y24000D02*
D03*
Y32500D02*
D03*
X52150Y31750D02*
D03*
X57750Y13500D02*
D03*
X53750Y20000D02*
D03*
X52150Y22250D02*
D03*
X52750Y23000D02*
D03*
Y14500D02*
D03*
Y13500D02*
D03*
X52150Y12750D02*
D03*
Y15250D02*
D03*
X53750Y10500D02*
D03*
X57750Y24000D02*
D03*
X57200Y24750D02*
D03*
X57750Y23000D02*
D03*
X57200Y34250D02*
D03*
X57750Y32500D02*
D03*
Y33500D02*
D03*
X57200Y15250D02*
D03*
X52750Y33500D02*
D03*
X53750Y36500D02*
D03*
Y29500D02*
D03*
X38250Y15250D02*
D03*
X43250Y30250D02*
D03*
Y29000D02*
D03*
X41500Y22750D02*
D03*
X38250Y17750D02*
D03*
Y19000D02*
D03*
X34500Y31750D02*
D03*
Y30500D02*
D03*
Y26500D02*
D03*
X42000Y1250D02*
D03*
X29500Y18000D02*
D03*
X32750Y19000D02*
D03*
Y17250D02*
D03*
X33750Y12250D02*
D03*
X29750Y10500D02*
D03*
X32250Y8000D02*
D03*
X32750Y15250D02*
D03*
Y16250D02*
D03*
X47750Y13500D02*
D03*
Y14500D02*
D03*
X47500Y23000D02*
D03*
Y24000D02*
D03*
X45000Y15300D02*
D03*
Y16300D02*
D03*
Y18500D02*
D03*
Y19500D02*
D03*
X47750Y33500D02*
D03*
Y32500D02*
D03*
X38950Y22750D02*
D03*
X39950D02*
D03*
X36750D02*
D03*
X35750D02*
D03*
X37500Y1250D02*
D03*
X38500D02*
D03*
Y5750D02*
D03*
X37500D02*
D03*
X12500Y64750D02*
D03*
X2250Y72000D02*
D03*
X4500Y74750D02*
D03*
X10250Y69000D02*
D03*
X14750Y80250D02*
D03*
X23000Y41000D02*
D03*
Y43000D02*
D03*
X23000Y42000D02*
D03*
X20000Y72750D02*
D03*
Y75250D02*
D03*
X20000Y74000D02*
D03*
X15500Y78500D02*
D03*
X14500Y75750D02*
D03*
X16000Y70750D02*
D03*
Y69750D02*
D03*
X18000Y69000D02*
D03*
Y68000D02*
D03*
X19000Y65750D02*
D03*
X20500Y67250D02*
D03*
Y68250D02*
D03*
Y69250D02*
D03*
X12000Y72000D02*
D03*
Y73000D02*
D03*
X10380Y72125D02*
D03*
Y71125D02*
D03*
X10250Y73500D02*
D03*
X5200Y70625D02*
D03*
Y71625D02*
D03*
Y72625D02*
D03*
X25100Y72450D02*
D03*
Y77450D02*
D03*
Y76200D02*
D03*
Y74200D02*
D03*
X25750Y66500D02*
D03*
X27250Y54250D02*
D03*
X26250Y59000D02*
D03*
X19000Y62750D02*
D03*
X18250Y55250D02*
D03*
X11000Y58750D02*
D03*
X16000Y60000D02*
D03*
X19000Y64500D02*
D03*
X27250Y56500D02*
D03*
Y57750D02*
D03*
X19500Y42750D02*
D03*
Y44250D02*
D03*
X16000Y45250D02*
D03*
X16250Y42750D02*
D03*
X27000Y35750D02*
D03*
X26000D02*
D03*
X24750Y38500D02*
D03*
Y39500D02*
D03*
X23750D02*
D03*
X23000Y38500D02*
D03*
X23500Y35750D02*
D03*
X20000Y35250D02*
D03*
X19250Y35750D02*
D03*
X19000Y39250D02*
D03*
Y38250D02*
D03*
X15750Y48000D02*
D03*
Y46500D02*
D03*
Y49500D02*
D03*
X18500Y28250D02*
D03*
X17250D02*
D03*
X16000D02*
D03*
X15750Y37750D02*
D03*
Y38750D02*
D03*
Y39750D02*
D03*
Y40750D02*
D03*
X19250Y48750D02*
D03*
X24250D02*
D03*
X22750D02*
D03*
X29500Y41000D02*
D03*
X4500Y42250D02*
D03*
X5000Y47250D02*
D03*
X10000Y47000D02*
D03*
X2000Y45000D02*
D03*
X10000Y42500D02*
D03*
Y41500D02*
D03*
X5000Y46250D02*
D03*
Y45250D02*
D03*
X10000Y45000D02*
D03*
Y46000D02*
D03*
%TF.MD5,ccc3ef7d4a71b6eacf491bd5a6857838*%
M02*
