%TF.GenerationSoftware,Altium Limited,Altium Designer,25.2.1 (25)*%
G04 Layer_Physical_Order=3*
G04 Layer_Color=16440176*
%FSLAX43Y43*%
%MOMM*%
%TF.SameCoordinates,42A70FB1-CA3F-40FB-A279-88E7FBB0E27C*%
%TF.FilePolarity,Positive*%
%TF.FileFunction,Copper,L3,Inr,Signal*%
%TF.Part,Single*%
G01*
G75*
%TA.AperFunction,Conductor*%
%ADD11C,0.230*%
%ADD14C,0.200*%
%TA.AperFunction,ComponentPad*%
%ADD48C,2.400*%
%ADD49R,2.100X2.100*%
%ADD50C,6.000*%
%ADD51C,1.725*%
%ADD52C,1.200*%
%ADD53C,1.100*%
%ADD54C,1.250*%
%ADD55C,2.750*%
%ADD56C,2.250*%
%ADD57C,5.000*%
%ADD58C,2.000*%
%ADD59C,1.600*%
%ADD60C,1.500*%
%ADD61C,3.000*%
%ADD62R,1.500X1.500*%
%TA.AperFunction,ViaPad*%
%ADD63C,0.700*%
G36*
X24444Y94641D02*
X24317Y94567D01*
X24251Y94606D01*
X24086Y94650D01*
X23914D01*
X23749Y94606D01*
X23601Y94520D01*
X23480Y94399D01*
X23394Y94251D01*
X23350Y94086D01*
Y93914D01*
X23394Y93749D01*
X23480Y93601D01*
X23601Y93480D01*
X23749Y93394D01*
X23914Y93350D01*
X24086D01*
X24251Y93394D01*
X24317Y93433D01*
X24444Y93359D01*
Y88650D01*
X24414D01*
X24249Y88606D01*
X24101Y88520D01*
X23980Y88399D01*
X23894Y88251D01*
X23850Y88086D01*
Y87914D01*
X23894Y87749D01*
X23980Y87601D01*
X24101Y87480D01*
X24249Y87394D01*
X24414Y87350D01*
X24444D01*
Y87250D01*
X24467Y87133D01*
X24534Y87034D01*
X24633Y86967D01*
X24750Y86944D01*
X38194D01*
Y81912D01*
X38204Y81863D01*
X38091Y81833D01*
X37826Y81680D01*
X37610Y81464D01*
X37457Y81199D01*
X37377Y80903D01*
Y80597D01*
X37457Y80301D01*
X37610Y80036D01*
X37826Y79820D01*
X38091Y79667D01*
X38204Y79637D01*
X38194Y79588D01*
Y76725D01*
X38093Y76648D01*
X38086Y76650D01*
X37914D01*
X37749Y76606D01*
X37601Y76520D01*
X37480Y76399D01*
X37394Y76251D01*
X37350Y76086D01*
Y75914D01*
X37394Y75749D01*
X37480Y75601D01*
X37601Y75480D01*
X37749Y75394D01*
X37914Y75350D01*
X38086D01*
X38093Y75352D01*
X38194Y75275D01*
Y51475D01*
X38093Y51398D01*
X38086Y51400D01*
X37914D01*
X37749Y51356D01*
X37601Y51270D01*
X37480Y51149D01*
X37394Y51001D01*
X37350Y50836D01*
Y50664D01*
X37394Y50499D01*
X37480Y50351D01*
X37581Y50250D01*
X37480Y50149D01*
X37394Y50001D01*
X37350Y49836D01*
Y49664D01*
X37394Y49499D01*
X37480Y49351D01*
X37581Y49250D01*
X37480Y49149D01*
X37394Y49001D01*
X37350Y48836D01*
Y48664D01*
X37394Y48499D01*
X37480Y48351D01*
X37601Y48230D01*
X37749Y48144D01*
X37914Y48100D01*
X38086D01*
X38117Y48003D01*
X38007Y47900D01*
X37914D01*
X37749Y47856D01*
X37601Y47770D01*
X37480Y47649D01*
X37394Y47501D01*
X37350Y47336D01*
Y47164D01*
X37394Y46999D01*
X37480Y46851D01*
X37581Y46750D01*
X37480Y46649D01*
X37394Y46501D01*
X37350Y46336D01*
Y46164D01*
X37394Y45999D01*
X37480Y45851D01*
X37601Y45730D01*
X37749Y45644D01*
X37914Y45600D01*
X38086D01*
X38093Y45602D01*
X38194Y45525D01*
Y42641D01*
X38067Y42567D01*
X38001Y42606D01*
X37836Y42650D01*
X37664D01*
X37499Y42606D01*
X37351Y42520D01*
X37230Y42399D01*
X37144Y42251D01*
X37100Y42086D01*
Y41914D01*
X37144Y41749D01*
X37230Y41601D01*
X37351Y41480D01*
X37499Y41394D01*
X37664Y41350D01*
X37836D01*
X38001Y41394D01*
X38067Y41433D01*
X38194Y41359D01*
Y34960D01*
X38198Y34940D01*
X38197Y34920D01*
X38210Y34882D01*
X38217Y34843D01*
X38229Y34826D01*
X38235Y34807D01*
X38261Y34777D01*
X38284Y34744D01*
X38230Y34649D01*
X38144Y34501D01*
X38100Y34336D01*
Y34306D01*
X31900D01*
X31832Y34292D01*
X31770Y34399D01*
X31649Y34520D01*
X31594Y34552D01*
Y34698D01*
X31649Y34730D01*
X31770Y34851D01*
X31856Y34999D01*
X31900Y35164D01*
Y35336D01*
X31856Y35501D01*
X31770Y35649D01*
X31649Y35770D01*
X31501Y35856D01*
X31336Y35900D01*
X31164D01*
X30999Y35856D01*
X30851Y35770D01*
X30730Y35649D01*
X30644Y35501D01*
X30600Y35336D01*
Y35164D01*
X30644Y34999D01*
X30730Y34851D01*
X30851Y34730D01*
X30906Y34698D01*
Y34552D01*
X30851Y34520D01*
X30730Y34399D01*
X30668Y34292D01*
X30600Y34306D01*
X16500D01*
X16383Y34283D01*
X16284Y34216D01*
X16217Y34117D01*
X16194Y34000D01*
Y28975D01*
X16093Y28898D01*
X16086Y28900D01*
X15914D01*
X15749Y28856D01*
X15601Y28770D01*
X15480Y28649D01*
X15394Y28501D01*
X15350Y28336D01*
Y28164D01*
X15394Y27999D01*
X15480Y27851D01*
X15601Y27730D01*
X15749Y27644D01*
X15914Y27600D01*
X16086D01*
X16093Y27602D01*
X16194Y27525D01*
Y18000D01*
X16217Y17883D01*
X16284Y17784D01*
X16383Y17717D01*
X16500Y17694D01*
X21000D01*
X21117Y17717D01*
X21216Y17784D01*
X21283Y17883D01*
X21306Y18000D01*
Y24194D01*
X46775D01*
X46852Y24093D01*
X46850Y24086D01*
Y23914D01*
X46894Y23749D01*
X46980Y23601D01*
X47081Y23500D01*
X46980Y23399D01*
X46894Y23251D01*
X46850Y23086D01*
Y22914D01*
X46894Y22749D01*
X46980Y22601D01*
X47101Y22480D01*
X47249Y22394D01*
X47414Y22350D01*
X47586D01*
X47751Y22394D01*
X47899Y22480D01*
X48020Y22601D01*
X48106Y22749D01*
X48150Y22914D01*
Y23086D01*
X48106Y23251D01*
X48020Y23399D01*
X47919Y23500D01*
X48020Y23601D01*
X48106Y23749D01*
X48150Y23914D01*
Y24086D01*
X48148Y24093D01*
X48225Y24194D01*
X51440D01*
X51460Y24198D01*
X51480Y24197D01*
X51518Y24210D01*
X51557Y24217D01*
X51574Y24229D01*
X51593Y24235D01*
X51623Y24261D01*
X51656Y24284D01*
X51751Y24230D01*
X51899Y24144D01*
X52000Y24117D01*
Y22883D01*
X51899Y22856D01*
X51751Y22770D01*
X51630Y22649D01*
X51544Y22501D01*
X51500Y22336D01*
Y22164D01*
X51544Y21999D01*
X51630Y21851D01*
X51751Y21730D01*
X51739Y21708D01*
X51735Y21703D01*
X51732Y21695D01*
X51717Y21668D01*
X51710Y21628D01*
X51697Y21590D01*
X51698Y21570D01*
X51694Y21551D01*
Y15949D01*
X51698Y15929D01*
X51697Y15909D01*
X51710Y15871D01*
X51717Y15832D01*
X51732Y15804D01*
X51735Y15796D01*
X51739Y15791D01*
X51751Y15770D01*
X51630Y15649D01*
X51544Y15501D01*
X51500Y15335D01*
Y15164D01*
X51544Y14999D01*
X51630Y14851D01*
X51751Y14730D01*
X51899Y14644D01*
X52000Y14617D01*
Y13382D01*
X51899Y13355D01*
X51751Y13270D01*
X51630Y13149D01*
X51544Y13001D01*
X51500Y12835D01*
Y12664D01*
X51544Y12499D01*
X51630Y12351D01*
X51751Y12230D01*
X51739Y12208D01*
X51735Y12203D01*
X51732Y12195D01*
X51717Y12167D01*
X51710Y12128D01*
X51697Y12090D01*
X51698Y12070D01*
X51694Y12050D01*
Y8306D01*
X32900D01*
X32832Y8292D01*
X32770Y8399D01*
X32649Y8520D01*
X32501Y8606D01*
X32336Y8650D01*
X32164D01*
X31999Y8606D01*
X31851Y8520D01*
X31730Y8399D01*
X31668Y8292D01*
X31600Y8306D01*
X21852D01*
X21818Y8433D01*
X21899Y8480D01*
X22020Y8601D01*
X22106Y8749D01*
X22150Y8914D01*
Y9086D01*
X22106Y9251D01*
X22020Y9399D01*
X21899Y9520D01*
X21751Y9606D01*
X21586Y9650D01*
X21414D01*
X21249Y9606D01*
X21101Y9520D01*
X20980Y9399D01*
X20894Y9251D01*
X20850Y9086D01*
Y8914D01*
X20894Y8749D01*
X20980Y8601D01*
X21101Y8480D01*
X21182Y8433D01*
X21148Y8306D01*
X8306D01*
Y39850D01*
X8315Y39852D01*
X8640Y40040D01*
X8905Y40305D01*
X9093Y40630D01*
X9190Y40992D01*
Y41368D01*
X9093Y41730D01*
X8905Y42055D01*
X8640Y42320D01*
X8315Y42508D01*
X8306Y42510D01*
Y48490D01*
X8315Y48492D01*
X8640Y48680D01*
X8905Y48945D01*
X9093Y49270D01*
X9190Y49632D01*
Y50008D01*
X9093Y50370D01*
X8905Y50695D01*
X8640Y50960D01*
X8315Y51148D01*
X8306Y51150D01*
Y55880D01*
X8303Y55895D01*
X8304Y55910D01*
X8291Y55953D01*
X8283Y55997D01*
X8284Y56046D01*
X8344Y56134D01*
X8531Y56260D01*
X8740Y56469D01*
X8904Y56714D01*
X9017Y56987D01*
X9075Y57277D01*
Y57573D01*
X9017Y57863D01*
X8904Y58136D01*
X8740Y58381D01*
X8531Y58590D01*
X8344Y58715D01*
X8284Y58804D01*
X8283Y58853D01*
X8291Y58897D01*
X8304Y58940D01*
X8303Y58955D01*
X8306Y58970D01*
Y61030D01*
X8303Y61045D01*
X8304Y61060D01*
X8291Y61103D01*
X8283Y61147D01*
X8284Y61196D01*
X8344Y61285D01*
X8531Y61410D01*
X8740Y61619D01*
X8904Y61864D01*
X9017Y62137D01*
X9075Y62427D01*
Y62723D01*
X9017Y63013D01*
X8904Y63286D01*
X8740Y63531D01*
X8531Y63740D01*
X8344Y63866D01*
X8284Y63954D01*
X8283Y64003D01*
X8291Y64047D01*
X8304Y64090D01*
X8303Y64105D01*
X8306Y64120D01*
Y66350D01*
X8315Y66352D01*
X8640Y66540D01*
X8905Y66805D01*
X9093Y67130D01*
X9190Y67492D01*
Y67868D01*
X9093Y68230D01*
X8905Y68555D01*
X8640Y68820D01*
X8315Y69008D01*
X8306Y69010D01*
Y74990D01*
X8315Y74992D01*
X8640Y75180D01*
X8905Y75445D01*
X9093Y75770D01*
X9190Y76132D01*
Y76508D01*
X9093Y76870D01*
X8905Y77195D01*
X8640Y77460D01*
X8315Y77648D01*
X8306Y77650D01*
Y79880D01*
X8303Y79895D01*
X8304Y79910D01*
X8291Y79953D01*
X8283Y79997D01*
X8284Y80046D01*
X8344Y80134D01*
X8531Y80260D01*
X8740Y80469D01*
X8904Y80714D01*
X9017Y80987D01*
X9075Y81277D01*
Y81573D01*
X9017Y81863D01*
X8904Y82136D01*
X8740Y82381D01*
X8531Y82590D01*
X8344Y82715D01*
X8284Y82804D01*
X8283Y82853D01*
X8291Y82897D01*
X8304Y82940D01*
X8303Y82955D01*
X8306Y82970D01*
Y85030D01*
X8303Y85045D01*
X8304Y85060D01*
X8291Y85103D01*
X8283Y85147D01*
X8284Y85196D01*
X8344Y85285D01*
X8531Y85410D01*
X8740Y85619D01*
X8904Y85864D01*
X9017Y86137D01*
X9075Y86427D01*
Y86723D01*
X9017Y87013D01*
X8904Y87286D01*
X8740Y87531D01*
X8531Y87740D01*
X8344Y87866D01*
X8284Y87954D01*
X8283Y88003D01*
X8291Y88047D01*
X8304Y88090D01*
X8303Y88105D01*
X8306Y88120D01*
Y98643D01*
X24444D01*
Y94641D01*
D02*
G37*
G36*
X56041Y98611D02*
X56573Y98505D01*
X57087Y98331D01*
X57573Y98091D01*
X58024Y97789D01*
X58432Y97432D01*
X58789Y97024D01*
X59091Y96573D01*
X59331Y96087D01*
X59505Y95573D01*
X59611Y95041D01*
X59645Y94511D01*
X59643Y94500D01*
Y42940D01*
X59535Y42904D01*
X59516Y42903D01*
X59399Y43020D01*
X59251Y43106D01*
X59086Y43150D01*
X58914D01*
X58749Y43106D01*
X58601Y43020D01*
X58480Y42899D01*
X58394Y42751D01*
X58350Y42586D01*
Y42414D01*
X58394Y42249D01*
X58480Y42101D01*
X58601Y41980D01*
X58749Y41894D01*
X58914Y41850D01*
X59086D01*
X59251Y41894D01*
X59399Y41980D01*
X59516Y42097D01*
X59535Y42096D01*
X59643Y42060D01*
Y4500D01*
X59645Y4489D01*
X59611Y3959D01*
X59505Y3427D01*
X59331Y2913D01*
X59091Y2427D01*
X58789Y1976D01*
X58432Y1568D01*
X58024Y1211D01*
X57573Y909D01*
X57087Y669D01*
X56573Y495D01*
X56041Y389D01*
X55511Y355D01*
X55500Y357D01*
X4500D01*
X4489Y355D01*
X3959Y389D01*
X3427Y495D01*
X2913Y669D01*
X2427Y909D01*
X1976Y1211D01*
X1568Y1568D01*
X1211Y1976D01*
X909Y2427D01*
X669Y2913D01*
X495Y3427D01*
X389Y3959D01*
X355Y4489D01*
X357Y4500D01*
Y44560D01*
X465Y44596D01*
X484Y44597D01*
X601Y44480D01*
X749Y44394D01*
X914Y44350D01*
X1086D01*
X1251Y44394D01*
X1399Y44480D01*
X1500Y44581D01*
X1601Y44480D01*
X1749Y44394D01*
X1914Y44350D01*
X2086D01*
X2251Y44394D01*
X2399Y44480D01*
X2520Y44601D01*
X2606Y44749D01*
X2650Y44914D01*
Y45086D01*
X2606Y45251D01*
X2520Y45399D01*
X2399Y45520D01*
X2251Y45606D01*
X2086Y45650D01*
X1914D01*
X1749Y45606D01*
X1601Y45520D01*
X1500Y45419D01*
X1399Y45520D01*
X1251Y45606D01*
X1086Y45650D01*
X914D01*
X749Y45606D01*
X601Y45520D01*
X484Y45403D01*
X465Y45404D01*
X357Y45440D01*
Y94500D01*
X355Y94511D01*
X389Y95041D01*
X495Y95573D01*
X669Y96087D01*
X909Y96573D01*
X1211Y97024D01*
X1568Y97432D01*
X1976Y97789D01*
X2427Y98091D01*
X2913Y98331D01*
X3427Y98505D01*
X3959Y98611D01*
X4489Y98645D01*
X4500Y98643D01*
X8000D01*
Y88120D01*
X7902Y88039D01*
X7723Y88075D01*
X7427D01*
X7137Y88017D01*
X6864Y87904D01*
X6619Y87740D01*
X6410Y87531D01*
X6246Y87286D01*
X6133Y87013D01*
X6075Y86723D01*
Y86427D01*
X6133Y86137D01*
X6246Y85864D01*
X6410Y85619D01*
X6619Y85410D01*
X6864Y85246D01*
X7137Y85133D01*
X7427Y85075D01*
X7723D01*
X7902Y85111D01*
X8000Y85030D01*
Y82970D01*
X7902Y82889D01*
X7723Y82925D01*
X7427D01*
X7137Y82867D01*
X6864Y82754D01*
X6619Y82590D01*
X6410Y82381D01*
X6246Y82136D01*
X6133Y81863D01*
X6075Y81573D01*
Y81277D01*
X6133Y80987D01*
X6246Y80714D01*
X6410Y80469D01*
X6619Y80260D01*
X6864Y80096D01*
X7137Y79983D01*
X7427Y79925D01*
X7723D01*
X7902Y79961D01*
X8000Y79880D01*
Y64120D01*
X7902Y64039D01*
X7723Y64075D01*
X7427D01*
X7137Y64017D01*
X6864Y63904D01*
X6619Y63740D01*
X6410Y63531D01*
X6246Y63286D01*
X6133Y63013D01*
X6075Y62723D01*
Y62427D01*
X6133Y62137D01*
X6246Y61864D01*
X6410Y61619D01*
X6619Y61410D01*
X6864Y61246D01*
X7137Y61133D01*
X7427Y61075D01*
X7723D01*
X7902Y61111D01*
X8000Y61030D01*
Y58970D01*
X7902Y58889D01*
X7723Y58925D01*
X7427D01*
X7137Y58867D01*
X6864Y58754D01*
X6619Y58590D01*
X6410Y58381D01*
X6246Y58136D01*
X6133Y57863D01*
X6075Y57573D01*
Y57277D01*
X6133Y56987D01*
X6246Y56714D01*
X6410Y56469D01*
X6619Y56260D01*
X6864Y56096D01*
X7137Y55983D01*
X7427Y55925D01*
X7723D01*
X7902Y55961D01*
X8000Y55880D01*
Y8000D01*
X31600D01*
Y7914D01*
X31644Y7749D01*
X31730Y7601D01*
X31851Y7480D01*
X31999Y7394D01*
X32164Y7350D01*
X32336D01*
X32501Y7394D01*
X32649Y7480D01*
X32770Y7601D01*
X32856Y7749D01*
X32900Y7914D01*
Y8000D01*
X52000D01*
Y12050D01*
X52064Y12100D01*
X52236D01*
X52401Y12144D01*
X52549Y12230D01*
X52670Y12351D01*
X52756Y12499D01*
X52800Y12664D01*
Y12835D01*
X52811Y12850D01*
X52836D01*
X53001Y12894D01*
X53149Y12980D01*
X53270Y13101D01*
X53356Y13249D01*
X53400Y13414D01*
Y13585D01*
X53356Y13751D01*
X53270Y13899D01*
X53169Y14000D01*
X53270Y14101D01*
X53356Y14249D01*
X53400Y14414D01*
Y14585D01*
X53356Y14751D01*
X53270Y14899D01*
X53149Y15020D01*
X53001Y15105D01*
X52921Y15127D01*
X52800Y15164D01*
Y15335D01*
X52756Y15501D01*
X52670Y15649D01*
X52549Y15770D01*
X52401Y15855D01*
X52236Y15900D01*
X52064D01*
X52000Y15949D01*
Y21551D01*
X52064Y21600D01*
X52236D01*
X52401Y21644D01*
X52549Y21730D01*
X52670Y21851D01*
X52756Y21999D01*
X52800Y22164D01*
Y22336D01*
X52811Y22350D01*
X52836D01*
X53001Y22394D01*
X53149Y22480D01*
X53270Y22601D01*
X53356Y22749D01*
X53400Y22914D01*
Y23086D01*
X53356Y23251D01*
X53270Y23399D01*
X53169Y23500D01*
X53270Y23601D01*
X53356Y23749D01*
X53400Y23914D01*
Y24086D01*
X53356Y24251D01*
X53270Y24399D01*
X53149Y24520D01*
X53001Y24606D01*
X52921Y24627D01*
X52800Y24664D01*
Y24836D01*
X52756Y25001D01*
X52670Y25149D01*
X52549Y25270D01*
X52401Y25356D01*
X52236Y25400D01*
X52064D01*
X52000Y25449D01*
Y31051D01*
X52064Y31100D01*
X52236D01*
X52401Y31144D01*
X52549Y31230D01*
X52670Y31351D01*
X52756Y31499D01*
X52800Y31664D01*
Y31836D01*
X52811Y31850D01*
X52836D01*
X53001Y31894D01*
X53149Y31980D01*
X53270Y32101D01*
X53356Y32249D01*
X53400Y32414D01*
Y32586D01*
X53356Y32751D01*
X53270Y32899D01*
X53169Y33000D01*
X53270Y33101D01*
X53356Y33249D01*
X53400Y33414D01*
Y33586D01*
X53356Y33751D01*
X53270Y33899D01*
X53149Y34020D01*
X53001Y34106D01*
X52836Y34150D01*
X52664D01*
X52517Y34110D01*
X52470Y34132D01*
X52400Y34195D01*
Y34336D01*
X52356Y34501D01*
X52270Y34649D01*
X52149Y34770D01*
X52001Y34856D01*
X52000Y34856D01*
Y65841D01*
X52024Y65855D01*
X52145Y65976D01*
X52231Y66124D01*
X52275Y66289D01*
Y66461D01*
X52231Y66626D01*
X52145Y66774D01*
X52024Y66895D01*
X52000Y66909D01*
Y89394D01*
X52001Y89394D01*
X52149Y89480D01*
X52270Y89601D01*
X52356Y89749D01*
X52400Y89914D01*
Y90086D01*
X52356Y90251D01*
X52270Y90399D01*
X52149Y90520D01*
X52001Y90606D01*
X52000Y90606D01*
Y91394D01*
X52001Y91394D01*
X52149Y91480D01*
X52270Y91601D01*
X52356Y91749D01*
X52400Y91914D01*
Y92086D01*
X52356Y92251D01*
X52270Y92399D01*
X52149Y92520D01*
X52001Y92606D01*
X52000Y92606D01*
Y98643D01*
X55500D01*
X55511Y98645D01*
X56041Y98611D01*
D02*
G37*
G36*
X51694Y92650D02*
X51664D01*
X51499Y92606D01*
X51351Y92520D01*
X51230Y92399D01*
X51144Y92251D01*
X51100Y92086D01*
Y91914D01*
X51144Y91749D01*
X51230Y91601D01*
X51351Y91480D01*
X51499Y91394D01*
X51664Y91350D01*
X51694D01*
Y90650D01*
X51664D01*
X51499Y90606D01*
X51351Y90520D01*
X51230Y90399D01*
X51144Y90251D01*
X51100Y90086D01*
Y89914D01*
X51144Y89749D01*
X51230Y89601D01*
X51351Y89480D01*
X51499Y89394D01*
X51664Y89350D01*
X51694D01*
Y67025D01*
X51539D01*
X51374Y66981D01*
X51226Y66895D01*
X51105Y66774D01*
X51019Y66626D01*
X50975Y66461D01*
Y66289D01*
X51019Y66124D01*
X51105Y65976D01*
X51226Y65855D01*
X51374Y65769D01*
X51539Y65725D01*
X51694D01*
Y34900D01*
X51664D01*
X51499Y34856D01*
X51351Y34770D01*
X51230Y34649D01*
X51144Y34501D01*
X51100Y34336D01*
Y34164D01*
X51144Y33999D01*
X51230Y33851D01*
X51351Y33730D01*
X51499Y33644D01*
X51664Y33600D01*
X51836D01*
X51899Y33617D01*
X52000Y33540D01*
Y32383D01*
X51899Y32356D01*
X51751Y32270D01*
X51630Y32149D01*
X51544Y32001D01*
X51500Y31836D01*
Y31664D01*
X51544Y31499D01*
X51630Y31351D01*
X51751Y31230D01*
X51739Y31208D01*
X51735Y31203D01*
X51732Y31195D01*
X51717Y31168D01*
X51710Y31128D01*
X51697Y31090D01*
X51698Y31070D01*
X51694Y31051D01*
Y25449D01*
X51698Y25430D01*
X51697Y25409D01*
X51710Y25372D01*
X51717Y25332D01*
X51732Y25305D01*
X51735Y25296D01*
X51739Y25292D01*
X51751Y25270D01*
X51630Y25149D01*
X51544Y25001D01*
X51500Y24836D01*
Y24664D01*
X51517Y24601D01*
X51440Y24500D01*
X47919D01*
X47899Y24520D01*
X47751Y24606D01*
X47586Y24650D01*
X47414D01*
X47249Y24606D01*
X47101Y24520D01*
X47081Y24500D01*
X21000D01*
Y18000D01*
X16500D01*
Y27831D01*
X16520Y27851D01*
X16552Y27906D01*
X16698D01*
X16730Y27851D01*
X16851Y27730D01*
X16999Y27644D01*
X17164Y27600D01*
X17336D01*
X17501Y27644D01*
X17649Y27730D01*
X17770Y27851D01*
X17802Y27906D01*
X17948D01*
X17980Y27851D01*
X18101Y27730D01*
X18249Y27644D01*
X18414Y27600D01*
X18586D01*
X18751Y27644D01*
X18899Y27730D01*
X19020Y27851D01*
X19106Y27999D01*
X19150Y28164D01*
Y28336D01*
X19106Y28501D01*
X19020Y28649D01*
X18899Y28770D01*
X18751Y28856D01*
X18586Y28900D01*
X18414D01*
X18249Y28856D01*
X18101Y28770D01*
X17980Y28649D01*
X17948Y28594D01*
X17802D01*
X17770Y28649D01*
X17649Y28770D01*
X17501Y28856D01*
X17336Y28900D01*
X17164D01*
X16999Y28856D01*
X16851Y28770D01*
X16730Y28649D01*
X16712Y28618D01*
X16582Y28610D01*
X16500Y28700D01*
Y34000D01*
X30600D01*
Y33914D01*
X30644Y33749D01*
X30730Y33601D01*
X30851Y33480D01*
X30999Y33394D01*
X31164Y33350D01*
X31336D01*
X31501Y33394D01*
X31649Y33480D01*
X31770Y33601D01*
X31856Y33749D01*
X31900Y33914D01*
Y34000D01*
X38144D01*
X38144Y33999D01*
X38230Y33851D01*
X38351Y33730D01*
X38499Y33644D01*
X38664Y33600D01*
X38836D01*
X39001Y33644D01*
X39149Y33730D01*
X39270Y33851D01*
X39356Y33999D01*
X39400Y34164D01*
Y34336D01*
X39356Y34501D01*
X39270Y34649D01*
X39149Y34770D01*
X39001Y34856D01*
X38836Y34900D01*
X38664D01*
X38601Y34883D01*
X38500Y34960D01*
Y45831D01*
X38520Y45851D01*
X38606Y45999D01*
X38650Y46164D01*
Y46336D01*
X38606Y46501D01*
X38520Y46649D01*
X38500Y46669D01*
Y46831D01*
X38520Y46851D01*
X38606Y46999D01*
X38650Y47164D01*
Y47336D01*
X38606Y47501D01*
X38520Y47649D01*
X38500Y47669D01*
Y48331D01*
X38520Y48351D01*
X38606Y48499D01*
X38650Y48664D01*
Y48836D01*
X38606Y49001D01*
X38520Y49149D01*
X38500Y49169D01*
Y49331D01*
X38520Y49351D01*
X38606Y49499D01*
X38650Y49664D01*
Y49836D01*
X38606Y50001D01*
X38520Y50149D01*
X38500Y50169D01*
Y50331D01*
X38520Y50351D01*
X38606Y50499D01*
X38650Y50664D01*
Y50836D01*
X38606Y51001D01*
X38520Y51149D01*
X38500Y51169D01*
Y75581D01*
X38520Y75601D01*
X38606Y75749D01*
X38650Y75914D01*
Y76086D01*
X38606Y76251D01*
X38520Y76399D01*
X38500Y76419D01*
Y79588D01*
X38693D01*
X38989Y79667D01*
X39254Y79820D01*
X39470Y80036D01*
X39623Y80301D01*
X39702Y80597D01*
Y80903D01*
X39623Y81199D01*
X39470Y81464D01*
X39254Y81680D01*
X38989Y81833D01*
X38693Y81912D01*
X38500D01*
Y87250D01*
X24750D01*
Y87394D01*
X24751Y87394D01*
X24899Y87480D01*
X25020Y87601D01*
X25106Y87749D01*
X25150Y87914D01*
Y88086D01*
X25106Y88251D01*
X25020Y88399D01*
X24899Y88520D01*
X24751Y88606D01*
X24750Y88606D01*
Y98643D01*
X51694D01*
Y92650D01*
D02*
G37*
%LPC*%
G36*
X18403Y96952D02*
X18097D01*
X17801Y96873D01*
X17536Y96720D01*
X17320Y96504D01*
X17167Y96239D01*
X17087Y95943D01*
Y95637D01*
X17167Y95341D01*
X17320Y95076D01*
X17536Y94860D01*
X17801Y94707D01*
X18097Y94628D01*
X18403D01*
X18699Y94707D01*
X18964Y94860D01*
X19180Y95076D01*
X19333Y95341D01*
X19413Y95637D01*
Y95943D01*
X19333Y96239D01*
X19180Y96504D01*
X18964Y96720D01*
X18699Y96873D01*
X18403Y96952D01*
D02*
G37*
G36*
X12653D02*
X12347D01*
X12051Y96873D01*
X11786Y96720D01*
X11570Y96504D01*
X11417Y96239D01*
X11337Y95943D01*
Y95637D01*
X11417Y95341D01*
X11570Y95076D01*
X11786Y94860D01*
X12051Y94707D01*
X12347Y94628D01*
X12653D01*
X12949Y94707D01*
X13214Y94860D01*
X13430Y95076D01*
X13583Y95341D01*
X13663Y95637D01*
Y95943D01*
X13583Y96239D01*
X13430Y96504D01*
X13214Y96720D01*
X12949Y96873D01*
X12653Y96952D01*
D02*
G37*
G36*
X18403Y94412D02*
X18097D01*
X17801Y94333D01*
X17536Y94180D01*
X17320Y93964D01*
X17167Y93699D01*
X17087Y93403D01*
Y93097D01*
X17167Y92801D01*
X17320Y92536D01*
X17536Y92320D01*
X17801Y92167D01*
X18097Y92088D01*
X18403D01*
X18699Y92167D01*
X18964Y92320D01*
X19180Y92536D01*
X19333Y92801D01*
X19413Y93097D01*
Y93403D01*
X19333Y93699D01*
X19180Y93964D01*
X18964Y94180D01*
X18699Y94333D01*
X18403Y94412D01*
D02*
G37*
G36*
X12653D02*
X12347D01*
X12051Y94333D01*
X11786Y94180D01*
X11570Y93964D01*
X11417Y93699D01*
X11337Y93403D01*
Y93097D01*
X11417Y92801D01*
X11570Y92536D01*
X11786Y92320D01*
X12051Y92167D01*
X12347Y92088D01*
X12653D01*
X12949Y92167D01*
X13214Y92320D01*
X13430Y92536D01*
X13583Y92801D01*
X13663Y93097D01*
Y93403D01*
X13583Y93699D01*
X13430Y93964D01*
X13214Y94180D01*
X12949Y94333D01*
X12653Y94412D01*
D02*
G37*
G36*
X18403Y91872D02*
X18097D01*
X17801Y91793D01*
X17536Y91640D01*
X17320Y91424D01*
X17167Y91159D01*
X17087Y90863D01*
Y90557D01*
X17167Y90261D01*
X17320Y89996D01*
X17536Y89780D01*
X17801Y89627D01*
X18097Y89548D01*
X18403D01*
X18699Y89627D01*
X18964Y89780D01*
X19180Y89996D01*
X19333Y90261D01*
X19413Y90557D01*
Y90863D01*
X19333Y91159D01*
X19180Y91424D01*
X18964Y91640D01*
X18699Y91793D01*
X18403Y91872D01*
D02*
G37*
G36*
X12653D02*
X12347D01*
X12051Y91793D01*
X11786Y91640D01*
X11570Y91424D01*
X11417Y91159D01*
X11337Y90863D01*
Y90557D01*
X11417Y90261D01*
X11570Y89996D01*
X11786Y89780D01*
X12051Y89627D01*
X12347Y89548D01*
X12653D01*
X12949Y89627D01*
X13214Y89780D01*
X13430Y89996D01*
X13583Y90261D01*
X13663Y90557D01*
Y90863D01*
X13583Y91159D01*
X13430Y91424D01*
X13214Y91640D01*
X12949Y91793D01*
X12653Y91872D01*
D02*
G37*
G36*
X14836Y80900D02*
X14664D01*
X14499Y80856D01*
X14351Y80770D01*
X14230Y80649D01*
X14144Y80501D01*
X14100Y80336D01*
Y80164D01*
X14144Y79999D01*
X14230Y79851D01*
X14351Y79730D01*
X14499Y79644D01*
X14664Y79600D01*
X14836D01*
X15001Y79644D01*
X15149Y79730D01*
X15270Y79851D01*
X15356Y79999D01*
X15400Y80164D01*
Y80336D01*
X15356Y80501D01*
X15270Y80649D01*
X15149Y80770D01*
X15001Y80856D01*
X14836Y80900D01*
D02*
G37*
G36*
X36153Y81912D02*
X35847D01*
X35551Y81833D01*
X35286Y81680D01*
X35070Y81464D01*
X34917Y81199D01*
X34838Y80903D01*
Y80597D01*
X34917Y80301D01*
X35070Y80036D01*
X35286Y79820D01*
X35551Y79667D01*
X35847Y79588D01*
X36153D01*
X36449Y79667D01*
X36714Y79820D01*
X36930Y80036D01*
X37083Y80301D01*
X37162Y80597D01*
Y80903D01*
X37083Y81199D01*
X36930Y81464D01*
X36714Y81680D01*
X36449Y81833D01*
X36153Y81912D01*
D02*
G37*
G36*
X33613D02*
X33307D01*
X33011Y81833D01*
X32746Y81680D01*
X32530Y81464D01*
X32377Y81199D01*
X32298Y80903D01*
Y80597D01*
X32377Y80301D01*
X32530Y80036D01*
X32746Y79820D01*
X33011Y79667D01*
X33307Y79588D01*
X33613D01*
X33909Y79667D01*
X34174Y79820D01*
X34390Y80036D01*
X34543Y80301D01*
X34623Y80597D01*
Y80903D01*
X34543Y81199D01*
X34390Y81464D01*
X34174Y81680D01*
X33909Y81833D01*
X33613Y81912D01*
D02*
G37*
G36*
X27836Y80650D02*
X27664D01*
X27499Y80606D01*
X27351Y80520D01*
X27230Y80399D01*
X27144Y80251D01*
X27100Y80086D01*
Y79914D01*
X27144Y79749D01*
X27230Y79601D01*
X27351Y79480D01*
X27499Y79394D01*
X27664Y79350D01*
X27836D01*
X28001Y79394D01*
X28149Y79480D01*
X28270Y79601D01*
X28356Y79749D01*
X28400Y79914D01*
Y80086D01*
X28356Y80251D01*
X28270Y80399D01*
X28149Y80520D01*
X28001Y80606D01*
X27836Y80650D01*
D02*
G37*
G36*
X17336Y79650D02*
X17164D01*
X16999Y79606D01*
X16851Y79520D01*
X16730Y79399D01*
X16644Y79251D01*
X16600Y79086D01*
Y78914D01*
X16644Y78749D01*
X16730Y78601D01*
X16851Y78480D01*
X16999Y78394D01*
X17164Y78350D01*
X17336D01*
X17501Y78394D01*
X17649Y78480D01*
X17770Y78601D01*
X17856Y78749D01*
X17900Y78914D01*
Y79086D01*
X17856Y79251D01*
X17770Y79399D01*
X17649Y79520D01*
X17501Y79606D01*
X17336Y79650D01*
D02*
G37*
G36*
X25186Y78100D02*
X25014D01*
X24849Y78056D01*
X24701Y77970D01*
X24580Y77849D01*
X24494Y77701D01*
X24450Y77536D01*
Y77364D01*
X24494Y77199D01*
X24580Y77051D01*
X24701Y76930D01*
X24849Y76844D01*
X25014Y76800D01*
X25186D01*
X25351Y76844D01*
X25499Y76930D01*
X25620Y77051D01*
X25706Y77199D01*
X25750Y77364D01*
Y77536D01*
X25706Y77701D01*
X25620Y77849D01*
X25499Y77970D01*
X25351Y78056D01*
X25186Y78100D01*
D02*
G37*
G36*
X10336Y77900D02*
X10164D01*
X9999Y77856D01*
X9851Y77770D01*
X9730Y77649D01*
X9644Y77501D01*
X9600Y77336D01*
Y77164D01*
X9644Y76999D01*
X9730Y76851D01*
X9851Y76730D01*
X9999Y76644D01*
X10164Y76600D01*
X10336D01*
X10501Y76644D01*
X10649Y76730D01*
X10770Y76851D01*
X10856Y76999D01*
X10900Y77164D01*
Y77336D01*
X10856Y77501D01*
X10770Y77649D01*
X10649Y77770D01*
X10501Y77856D01*
X10336Y77900D01*
D02*
G37*
G36*
X36086Y76650D02*
X35914D01*
X35749Y76606D01*
X35601Y76520D01*
X35480Y76399D01*
X35394Y76251D01*
X35350Y76086D01*
Y75914D01*
X35394Y75749D01*
X35480Y75601D01*
X35601Y75480D01*
X35749Y75394D01*
X35914Y75350D01*
X36086D01*
X36251Y75394D01*
X36399Y75480D01*
X36520Y75601D01*
X36606Y75749D01*
X36650Y75914D01*
Y76086D01*
X36606Y76251D01*
X36520Y76399D01*
X36399Y76520D01*
X36251Y76606D01*
X36086Y76650D01*
D02*
G37*
G36*
X34086D02*
X33914D01*
X33749Y76606D01*
X33601Y76520D01*
X33480Y76399D01*
X33394Y76251D01*
X33350Y76086D01*
Y75914D01*
X33394Y75749D01*
X33480Y75601D01*
X33601Y75480D01*
X33749Y75394D01*
X33914Y75350D01*
X34086D01*
X34251Y75394D01*
X34399Y75480D01*
X34520Y75601D01*
X34606Y75749D01*
X34650Y75914D01*
Y76086D01*
X34606Y76251D01*
X34520Y76399D01*
X34399Y76520D01*
X34251Y76606D01*
X34086Y76650D01*
D02*
G37*
G36*
X14586Y76400D02*
X14414D01*
X14249Y76356D01*
X14101Y76270D01*
X13980Y76149D01*
X13894Y76001D01*
X13850Y75836D01*
Y75664D01*
X13894Y75499D01*
X13980Y75351D01*
X14101Y75230D01*
X14249Y75144D01*
X14414Y75100D01*
X14586D01*
X14751Y75144D01*
X14899Y75230D01*
X15020Y75351D01*
X15106Y75499D01*
X15150Y75664D01*
Y75836D01*
X15106Y76001D01*
X15020Y76149D01*
X14899Y76270D01*
X14751Y76356D01*
X14586Y76400D01*
D02*
G37*
G36*
X20086Y75900D02*
X19914D01*
X19749Y75856D01*
X19601Y75770D01*
X19480Y75649D01*
X19394Y75501D01*
X19350Y75336D01*
Y75164D01*
X19394Y74999D01*
X19480Y74851D01*
X19601Y74730D01*
X19656Y74698D01*
Y74552D01*
X19601Y74520D01*
X19480Y74399D01*
X19394Y74251D01*
X19350Y74086D01*
Y73914D01*
X19394Y73749D01*
X19480Y73601D01*
X19601Y73480D01*
X19656Y73448D01*
Y73302D01*
X19601Y73270D01*
X19480Y73149D01*
X19394Y73001D01*
X19350Y72836D01*
Y72664D01*
X19394Y72499D01*
X19480Y72351D01*
X19601Y72230D01*
X19749Y72144D01*
X19914Y72100D01*
X20086D01*
X20251Y72144D01*
X20399Y72230D01*
X20520Y72351D01*
X20606Y72499D01*
X20650Y72664D01*
Y72836D01*
X20606Y73001D01*
X20520Y73149D01*
X20399Y73270D01*
X20344Y73302D01*
Y73448D01*
X20399Y73480D01*
X20520Y73601D01*
X20606Y73749D01*
X20650Y73914D01*
Y74086D01*
X20606Y74251D01*
X20520Y74399D01*
X20399Y74520D01*
X20344Y74552D01*
Y74698D01*
X20399Y74730D01*
X20520Y74851D01*
X20606Y74999D01*
X20650Y75164D01*
Y75336D01*
X20606Y75501D01*
X20520Y75649D01*
X20399Y75770D01*
X20251Y75856D01*
X20086Y75900D01*
D02*
G37*
G36*
X12086Y73650D02*
X11914D01*
X11749Y73606D01*
X11601Y73520D01*
X11480Y73399D01*
X11394Y73251D01*
X11350Y73086D01*
Y72914D01*
X11394Y72749D01*
X11480Y72601D01*
X11581Y72500D01*
X11480Y72399D01*
X11394Y72251D01*
X11350Y72086D01*
Y71914D01*
X11394Y71749D01*
X11480Y71601D01*
X11601Y71480D01*
X11749Y71394D01*
X11914Y71350D01*
X12086D01*
X12251Y71394D01*
X12399Y71480D01*
X12520Y71601D01*
X12606Y71749D01*
X12650Y71914D01*
Y72086D01*
X12606Y72251D01*
X12520Y72399D01*
X12419Y72500D01*
X12520Y72601D01*
X12606Y72749D01*
X12650Y72914D01*
Y73086D01*
X12606Y73251D01*
X12520Y73399D01*
X12399Y73520D01*
X12251Y73606D01*
X12086Y73650D01*
D02*
G37*
G36*
X34086Y72900D02*
X33914D01*
X33749Y72856D01*
X33601Y72770D01*
X33480Y72649D01*
X33394Y72501D01*
X33350Y72336D01*
Y72164D01*
X33394Y71999D01*
X33480Y71851D01*
X33581Y71750D01*
X33480Y71649D01*
X33394Y71501D01*
X33350Y71336D01*
Y71164D01*
X33394Y70999D01*
X33480Y70851D01*
X33581Y70750D01*
X33480Y70649D01*
X33394Y70501D01*
X33350Y70336D01*
Y70164D01*
X33394Y69999D01*
X33480Y69851D01*
X33601Y69730D01*
X33749Y69644D01*
X33914Y69600D01*
X34086D01*
X34251Y69644D01*
X34399Y69730D01*
X34520Y69851D01*
X34606Y69999D01*
X34650Y70164D01*
Y70336D01*
X34606Y70501D01*
X34520Y70649D01*
X34419Y70750D01*
X34520Y70851D01*
X34606Y70999D01*
X34650Y71164D01*
Y71336D01*
X34606Y71501D01*
X34520Y71649D01*
X34419Y71750D01*
X34520Y71851D01*
X34606Y71999D01*
X34650Y72164D01*
Y72336D01*
X34606Y72501D01*
X34520Y72649D01*
X34399Y72770D01*
X34251Y72856D01*
X34086Y72900D01*
D02*
G37*
G36*
X27836Y70900D02*
X27664D01*
X27499Y70856D01*
X27351Y70770D01*
X27230Y70649D01*
X27144Y70501D01*
X27100Y70336D01*
Y70164D01*
X27144Y69999D01*
X27230Y69851D01*
X27351Y69730D01*
X27499Y69644D01*
X27664Y69600D01*
X27836D01*
X28001Y69644D01*
X28149Y69730D01*
X28270Y69851D01*
X28356Y69999D01*
X28400Y70164D01*
Y70336D01*
X28356Y70501D01*
X28270Y70649D01*
X28149Y70770D01*
X28001Y70856D01*
X27836Y70900D01*
D02*
G37*
G36*
X10336Y74150D02*
X10164D01*
X9999Y74106D01*
X9851Y74020D01*
X9730Y73899D01*
X9644Y73751D01*
X9600Y73586D01*
Y73414D01*
X9644Y73249D01*
X9730Y73101D01*
X9851Y72980D01*
X9999Y72894D01*
X10124Y72861D01*
X10129Y72741D01*
X10126Y72729D01*
X9981Y72645D01*
X9860Y72524D01*
X9774Y72376D01*
X9730Y72211D01*
Y72039D01*
X9774Y71874D01*
X9860Y71726D01*
X9961Y71625D01*
X9860Y71524D01*
X9774Y71376D01*
X9730Y71211D01*
Y71039D01*
X9774Y70874D01*
X9860Y70726D01*
X9894Y70692D01*
X9873Y70533D01*
X9851Y70520D01*
X9730Y70399D01*
X9644Y70251D01*
X9600Y70086D01*
Y69914D01*
X9644Y69749D01*
X9730Y69601D01*
X9831Y69500D01*
X9730Y69399D01*
X9644Y69251D01*
X9600Y69086D01*
Y68914D01*
X9644Y68749D01*
X9730Y68601D01*
X9851Y68480D01*
X9999Y68394D01*
X10164Y68350D01*
X10336D01*
X10501Y68394D01*
X10649Y68480D01*
X10770Y68601D01*
X10856Y68749D01*
X10900Y68914D01*
Y69086D01*
X10856Y69251D01*
X10770Y69399D01*
X10669Y69500D01*
X10770Y69601D01*
X10856Y69749D01*
X10900Y69914D01*
Y70086D01*
X10856Y70251D01*
X10770Y70399D01*
X10736Y70433D01*
X10757Y70592D01*
X10779Y70605D01*
X10900Y70726D01*
X10986Y70874D01*
X11030Y71039D01*
Y71211D01*
X10986Y71376D01*
X10900Y71524D01*
X10799Y71625D01*
X10900Y71726D01*
X10986Y71874D01*
X11030Y72039D01*
Y72211D01*
X10986Y72376D01*
X10900Y72524D01*
X10779Y72645D01*
X10631Y72731D01*
X10506Y72764D01*
X10501Y72884D01*
X10504Y72896D01*
X10649Y72980D01*
X10770Y73101D01*
X10856Y73249D01*
X10900Y73414D01*
Y73586D01*
X10856Y73751D01*
X10770Y73899D01*
X10649Y74020D01*
X10501Y74106D01*
X10336Y74150D01*
D02*
G37*
G36*
X18086Y69650D02*
X17914D01*
X17749Y69606D01*
X17601Y69520D01*
X17480Y69399D01*
X17394Y69251D01*
X17350Y69086D01*
Y68914D01*
X17394Y68749D01*
X17480Y68601D01*
X17581Y68500D01*
X17480Y68399D01*
X17394Y68251D01*
X17350Y68086D01*
Y67914D01*
X17394Y67749D01*
X17480Y67601D01*
X17601Y67480D01*
X17749Y67394D01*
X17914Y67350D01*
X18086D01*
X18251Y67394D01*
X18399Y67480D01*
X18520Y67601D01*
X18606Y67749D01*
X18650Y67914D01*
Y68086D01*
X18606Y68251D01*
X18520Y68399D01*
X18419Y68500D01*
X18520Y68601D01*
X18606Y68749D01*
X18650Y68914D01*
Y69086D01*
X18606Y69251D01*
X18520Y69399D01*
X18399Y69520D01*
X18251Y69606D01*
X18086Y69650D01*
D02*
G37*
G36*
X25836Y68150D02*
X25664D01*
X25499Y68106D01*
X25351Y68020D01*
X25230Y67899D01*
X25144Y67751D01*
X25100Y67586D01*
Y67414D01*
X25144Y67249D01*
X25230Y67101D01*
X25351Y66980D01*
X25499Y66894D01*
X25664Y66850D01*
X25836D01*
X26001Y66894D01*
X26149Y66980D01*
X26270Y67101D01*
X26356Y67249D01*
X26400Y67414D01*
Y67586D01*
X26356Y67751D01*
X26270Y67899D01*
X26149Y68020D01*
X26001Y68106D01*
X25836Y68150D01*
D02*
G37*
G36*
X20586Y69900D02*
X20414D01*
X20249Y69856D01*
X20101Y69770D01*
X19980Y69649D01*
X19894Y69501D01*
X19850Y69336D01*
Y69164D01*
X19894Y68999D01*
X19980Y68851D01*
X20081Y68750D01*
X19980Y68649D01*
X19894Y68501D01*
X19850Y68336D01*
Y68164D01*
X19894Y67999D01*
X19980Y67851D01*
X20081Y67750D01*
X19980Y67649D01*
X19894Y67501D01*
X19850Y67336D01*
Y67164D01*
X19894Y66999D01*
X19980Y66851D01*
X20101Y66730D01*
X20249Y66644D01*
X20414Y66600D01*
X20586D01*
X20751Y66644D01*
X20899Y66730D01*
X21020Y66851D01*
X21106Y66999D01*
X21150Y67164D01*
Y67336D01*
X21106Y67501D01*
X21020Y67649D01*
X20919Y67750D01*
X21020Y67851D01*
X21106Y67999D01*
X21150Y68164D01*
Y68336D01*
X21106Y68501D01*
X21020Y68649D01*
X20919Y68750D01*
X21020Y68851D01*
X21106Y68999D01*
X21150Y69164D01*
Y69336D01*
X21106Y69501D01*
X21020Y69649D01*
X20899Y69770D01*
X20751Y69856D01*
X20586Y69900D01*
D02*
G37*
G36*
X36153Y67702D02*
X35847D01*
X35551Y67623D01*
X35286Y67470D01*
X35070Y67254D01*
X34917Y66989D01*
X34838Y66693D01*
Y66387D01*
X34917Y66091D01*
X35070Y65826D01*
X35286Y65610D01*
X35551Y65457D01*
X35847Y65378D01*
X36153D01*
X36449Y65457D01*
X36714Y65610D01*
X36930Y65826D01*
X37083Y66091D01*
X37162Y66387D01*
Y66693D01*
X37083Y66989D01*
X36930Y67254D01*
X36714Y67470D01*
X36449Y67623D01*
X36153Y67702D01*
D02*
G37*
G36*
X12586Y65400D02*
X12414D01*
X12249Y65356D01*
X12101Y65270D01*
X11980Y65149D01*
X11894Y65001D01*
X11850Y64836D01*
Y64664D01*
X11894Y64499D01*
X11980Y64351D01*
X12101Y64230D01*
X12249Y64144D01*
X12414Y64100D01*
X12586D01*
X12751Y64144D01*
X12899Y64230D01*
X13020Y64351D01*
X13106Y64499D01*
X13150Y64664D01*
Y64836D01*
X13106Y65001D01*
X13020Y65149D01*
X12899Y65270D01*
X12751Y65356D01*
X12586Y65400D01*
D02*
G37*
G36*
X19086Y66400D02*
X18914D01*
X18749Y66356D01*
X18601Y66270D01*
X18480Y66149D01*
X18394Y66001D01*
X18350Y65836D01*
Y65664D01*
X18394Y65499D01*
X18480Y65351D01*
X18601Y65230D01*
X18656Y65198D01*
Y65052D01*
X18601Y65020D01*
X18480Y64899D01*
X18394Y64751D01*
X18350Y64586D01*
Y64414D01*
X18394Y64249D01*
X18480Y64101D01*
X18601Y63980D01*
X18749Y63894D01*
X18914Y63850D01*
X19086D01*
X19251Y63894D01*
X19399Y63980D01*
X19520Y64101D01*
X19606Y64249D01*
X19650Y64414D01*
Y64586D01*
X19606Y64751D01*
X19520Y64899D01*
X19399Y65020D01*
X19344Y65052D01*
Y65198D01*
X19399Y65230D01*
X19520Y65351D01*
X19606Y65499D01*
X19650Y65664D01*
Y65836D01*
X19606Y66001D01*
X19520Y66149D01*
X19399Y66270D01*
X19251Y66356D01*
X19086Y66400D01*
D02*
G37*
G36*
X24586Y64650D02*
X24414D01*
X24249Y64606D01*
X24101Y64520D01*
X23980Y64399D01*
X23894Y64251D01*
X23850Y64086D01*
Y63914D01*
X23894Y63749D01*
X23980Y63601D01*
X24101Y63480D01*
X24249Y63394D01*
X24414Y63350D01*
X24586D01*
X24751Y63394D01*
X24899Y63480D01*
X25020Y63601D01*
X25106Y63749D01*
X25150Y63914D01*
Y64086D01*
X25106Y64251D01*
X25020Y64399D01*
X24899Y64520D01*
X24751Y64606D01*
X24586Y64650D01*
D02*
G37*
G36*
X36153Y65162D02*
X35847D01*
X35551Y65083D01*
X35286Y64930D01*
X35070Y64714D01*
X34917Y64449D01*
X34838Y64153D01*
Y63847D01*
X34917Y63551D01*
X35070Y63286D01*
X35286Y63070D01*
X35551Y62917D01*
X35847Y62838D01*
X36153D01*
X36449Y62917D01*
X36714Y63070D01*
X36930Y63286D01*
X37083Y63551D01*
X37162Y63847D01*
Y64153D01*
X37083Y64449D01*
X36930Y64714D01*
X36714Y64930D01*
X36449Y65083D01*
X36153Y65162D01*
D02*
G37*
G36*
X19086Y63400D02*
X18914D01*
X18749Y63356D01*
X18601Y63270D01*
X18480Y63149D01*
X18394Y63001D01*
X18350Y62836D01*
Y62664D01*
X18394Y62499D01*
X18480Y62351D01*
X18601Y62230D01*
X18749Y62144D01*
X18914Y62100D01*
X19086D01*
X19251Y62144D01*
X19399Y62230D01*
X19520Y62351D01*
X19606Y62499D01*
X19650Y62664D01*
Y62836D01*
X19606Y63001D01*
X19520Y63149D01*
X19399Y63270D01*
X19251Y63356D01*
X19086Y63400D01*
D02*
G37*
G36*
X36153Y62623D02*
X35847D01*
X35551Y62543D01*
X35286Y62390D01*
X35070Y62174D01*
X34917Y61909D01*
X34838Y61613D01*
Y61307D01*
X34917Y61011D01*
X35070Y60746D01*
X35286Y60530D01*
X35551Y60377D01*
X35847Y60298D01*
X36153D01*
X36449Y60377D01*
X36714Y60530D01*
X36930Y60746D01*
X37083Y61011D01*
X37162Y61307D01*
Y61613D01*
X37083Y61909D01*
X36930Y62174D01*
X36714Y62390D01*
X36449Y62543D01*
X36153Y62623D01*
D02*
G37*
G36*
X16086Y60650D02*
X15914D01*
X15749Y60606D01*
X15601Y60520D01*
X15480Y60399D01*
X15394Y60251D01*
X15350Y60086D01*
Y59914D01*
X15394Y59749D01*
X15480Y59601D01*
X15601Y59480D01*
X15749Y59394D01*
X15914Y59350D01*
X16086D01*
X16251Y59394D01*
X16399Y59480D01*
X16520Y59601D01*
X16606Y59749D01*
X16650Y59914D01*
Y60086D01*
X16606Y60251D01*
X16520Y60399D01*
X16399Y60520D01*
X16251Y60606D01*
X16086Y60650D01*
D02*
G37*
G36*
X32586Y60400D02*
X32414D01*
X32249Y60356D01*
X32101Y60270D01*
X31980Y60149D01*
X31894Y60001D01*
X31850Y59836D01*
Y59664D01*
X31894Y59499D01*
X31980Y59351D01*
X32101Y59230D01*
X32249Y59144D01*
X32414Y59100D01*
X32586D01*
X32751Y59144D01*
X32899Y59230D01*
X33020Y59351D01*
X33106Y59499D01*
X33150Y59664D01*
Y59836D01*
X33106Y60001D01*
X33020Y60149D01*
X32899Y60270D01*
X32751Y60356D01*
X32586Y60400D01*
D02*
G37*
G36*
X26336Y59650D02*
X26164D01*
X25999Y59606D01*
X25851Y59520D01*
X25730Y59399D01*
X25644Y59251D01*
X25600Y59086D01*
Y58914D01*
X25644Y58749D01*
X25730Y58601D01*
X25851Y58480D01*
X25999Y58394D01*
X26164Y58350D01*
X26336D01*
X26501Y58394D01*
X26649Y58480D01*
X26770Y58601D01*
X26856Y58749D01*
X26900Y58914D01*
Y59086D01*
X26856Y59251D01*
X26770Y59399D01*
X26649Y59520D01*
X26501Y59606D01*
X26336Y59650D01*
D02*
G37*
G36*
X11086Y59400D02*
X10914D01*
X10749Y59356D01*
X10601Y59270D01*
X10480Y59149D01*
X10394Y59001D01*
X10350Y58836D01*
Y58664D01*
X10394Y58499D01*
X10480Y58351D01*
X10601Y58230D01*
X10749Y58144D01*
X10914Y58100D01*
X11086D01*
X11251Y58144D01*
X11399Y58230D01*
X11520Y58351D01*
X11606Y58499D01*
X11650Y58664D01*
Y58836D01*
X11606Y59001D01*
X11520Y59149D01*
X11399Y59270D01*
X11251Y59356D01*
X11086Y59400D01*
D02*
G37*
G36*
X32336Y58150D02*
X32164D01*
X31999Y58106D01*
X31851Y58020D01*
X31730Y57899D01*
X31644Y57751D01*
X31600Y57586D01*
Y57414D01*
X31644Y57249D01*
X31730Y57101D01*
X31831Y57000D01*
X31730Y56899D01*
X31644Y56751D01*
X31600Y56586D01*
Y56414D01*
X31644Y56249D01*
X31730Y56101D01*
X31831Y56000D01*
X31730Y55899D01*
X31644Y55751D01*
X31600Y55586D01*
Y55414D01*
X31644Y55249D01*
X31730Y55101D01*
X31851Y54980D01*
X31999Y54894D01*
X32164Y54850D01*
X32336D01*
X32501Y54894D01*
X32649Y54980D01*
X32770Y55101D01*
X32856Y55249D01*
X32900Y55414D01*
Y55586D01*
X32856Y55751D01*
X32770Y55899D01*
X32669Y56000D01*
X32770Y56101D01*
X32856Y56249D01*
X32900Y56414D01*
Y56586D01*
X32856Y56751D01*
X32770Y56899D01*
X32669Y57000D01*
X32770Y57101D01*
X32856Y57249D01*
X32900Y57414D01*
Y57586D01*
X32856Y57751D01*
X32770Y57899D01*
X32649Y58020D01*
X32501Y58106D01*
X32336Y58150D01*
D02*
G37*
G36*
X14586Y55900D02*
X14414D01*
X14249Y55856D01*
X14101Y55770D01*
X13980Y55649D01*
X13894Y55501D01*
X13850Y55336D01*
Y55164D01*
X13894Y54999D01*
X13980Y54851D01*
X14101Y54730D01*
X14249Y54644D01*
X14414Y54600D01*
X14586D01*
X14751Y54644D01*
X14899Y54730D01*
X15020Y54851D01*
X15106Y54999D01*
X15150Y55164D01*
Y55336D01*
X15106Y55501D01*
X15020Y55649D01*
X14899Y55770D01*
X14751Y55856D01*
X14586Y55900D01*
D02*
G37*
G36*
X27336Y54900D02*
X27164D01*
X26999Y54856D01*
X26851Y54770D01*
X26730Y54649D01*
X26644Y54501D01*
X26600Y54336D01*
Y54164D01*
X26644Y53999D01*
X26730Y53851D01*
X26851Y53730D01*
X26999Y53644D01*
X27164Y53600D01*
X27336D01*
X27501Y53644D01*
X27649Y53730D01*
X27770Y53851D01*
X27856Y53999D01*
X27900Y54164D01*
Y54336D01*
X27856Y54501D01*
X27770Y54649D01*
X27649Y54770D01*
X27501Y54856D01*
X27336Y54900D01*
D02*
G37*
G36*
X21086Y55900D02*
X20914D01*
X20749Y55856D01*
X20601Y55770D01*
X20480Y55649D01*
X20394Y55501D01*
X20350Y55336D01*
Y55164D01*
X20394Y54999D01*
X20480Y54851D01*
X20601Y54730D01*
X20749Y54644D01*
X20820Y54625D01*
X20894Y54502D01*
X20890Y54483D01*
X20850Y54336D01*
Y54164D01*
X20894Y53999D01*
X20980Y53851D01*
X21101Y53730D01*
X21249Y53644D01*
X21414Y53600D01*
X21586D01*
X21751Y53644D01*
X21899Y53730D01*
X22020Y53851D01*
X22106Y53999D01*
X22150Y54164D01*
Y54336D01*
X22106Y54501D01*
X22020Y54649D01*
X21899Y54770D01*
X21751Y54856D01*
X21680Y54875D01*
X21606Y54998D01*
X21610Y55017D01*
X21650Y55164D01*
Y55336D01*
X21606Y55501D01*
X21520Y55649D01*
X21399Y55770D01*
X21251Y55856D01*
X21086Y55900D01*
D02*
G37*
G36*
X32336Y54400D02*
X32164D01*
X31999Y54356D01*
X31851Y54270D01*
X31730Y54149D01*
X31644Y54001D01*
X31600Y53836D01*
Y53664D01*
X31644Y53499D01*
X31730Y53351D01*
X31851Y53230D01*
X31999Y53144D01*
X32164Y53100D01*
X32336D01*
X32501Y53144D01*
X32649Y53230D01*
X32770Y53351D01*
X32856Y53499D01*
X32900Y53664D01*
Y53836D01*
X32856Y54001D01*
X32770Y54149D01*
X32649Y54270D01*
X32501Y54356D01*
X32336Y54400D01*
D02*
G37*
G36*
X36153Y54932D02*
X35847D01*
X35551Y54853D01*
X35286Y54700D01*
X35070Y54484D01*
X34917Y54219D01*
X34838Y53923D01*
Y53617D01*
X34917Y53321D01*
X35070Y53056D01*
X35286Y52840D01*
X35551Y52687D01*
X35847Y52607D01*
X36153D01*
X36449Y52687D01*
X36714Y52840D01*
X36930Y53056D01*
X37083Y53321D01*
X37162Y53617D01*
Y53923D01*
X37083Y54219D01*
X36930Y54484D01*
X36714Y54700D01*
X36449Y54853D01*
X36153Y54932D01*
D02*
G37*
G36*
X19586Y54650D02*
X19414D01*
X19249Y54606D01*
X19101Y54520D01*
X18980Y54399D01*
X18894Y54251D01*
X18850Y54086D01*
Y53914D01*
X18894Y53749D01*
X18980Y53601D01*
X19101Y53480D01*
X19249Y53394D01*
X19414Y53350D01*
X19555D01*
X19618Y53280D01*
X19639Y53233D01*
X19600Y53086D01*
Y52914D01*
X19644Y52749D01*
X19730Y52601D01*
X19851Y52480D01*
X19999Y52394D01*
X20164Y52350D01*
X20336D01*
X20501Y52394D01*
X20649Y52480D01*
X20770Y52601D01*
X20856Y52749D01*
X20900Y52914D01*
Y53086D01*
X20856Y53251D01*
X20770Y53399D01*
X20649Y53520D01*
X20501Y53606D01*
X20336Y53650D01*
X20195D01*
X20132Y53720D01*
X20111Y53767D01*
X20150Y53914D01*
Y54086D01*
X20106Y54251D01*
X20020Y54399D01*
X19899Y54520D01*
X19751Y54606D01*
X19586Y54650D01*
D02*
G37*
G36*
X14836Y52650D02*
X14664D01*
X14499Y52606D01*
X14351Y52520D01*
X14230Y52399D01*
X14144Y52251D01*
X14100Y52086D01*
Y51914D01*
X14144Y51749D01*
X14230Y51601D01*
X14351Y51480D01*
X14499Y51394D01*
X14664Y51350D01*
X14836D01*
X15001Y51394D01*
X15149Y51480D01*
X15270Y51601D01*
X15356Y51749D01*
X15400Y51914D01*
Y52086D01*
X15356Y52251D01*
X15270Y52399D01*
X15149Y52520D01*
X15001Y52606D01*
X14836Y52650D01*
D02*
G37*
G36*
X36153Y52393D02*
X35847D01*
X35551Y52313D01*
X35286Y52160D01*
X35070Y51944D01*
X34917Y51679D01*
X34838Y51383D01*
Y51077D01*
X34917Y50781D01*
X35070Y50516D01*
X35286Y50300D01*
X35551Y50147D01*
X35847Y50068D01*
X36153D01*
X36449Y50147D01*
X36714Y50300D01*
X36930Y50516D01*
X37083Y50781D01*
X37162Y51077D01*
Y51383D01*
X37083Y51679D01*
X36930Y51944D01*
X36714Y52160D01*
X36449Y52313D01*
X36153Y52393D01*
D02*
G37*
G36*
X24586Y51150D02*
X24414D01*
X24249Y51106D01*
X24101Y51020D01*
X23980Y50899D01*
X23894Y50751D01*
X23850Y50586D01*
Y50414D01*
X23894Y50249D01*
X23980Y50101D01*
X24101Y49980D01*
X24249Y49894D01*
X24414Y49850D01*
X24586D01*
X24751Y49894D01*
X24899Y49980D01*
X25020Y50101D01*
X25106Y50249D01*
X25150Y50414D01*
Y50586D01*
X25106Y50751D01*
X25020Y50899D01*
X24899Y51020D01*
X24751Y51106D01*
X24586Y51150D01*
D02*
G37*
G36*
X23086D02*
X22914D01*
X22749Y51106D01*
X22601Y51020D01*
X22480Y50899D01*
X22394Y50751D01*
X22350Y50586D01*
Y50414D01*
X22394Y50249D01*
X22480Y50101D01*
X22601Y49980D01*
X22749Y49894D01*
X22914Y49850D01*
X23086D01*
X23251Y49894D01*
X23399Y49980D01*
X23520Y50101D01*
X23606Y50249D01*
X23650Y50414D01*
Y50586D01*
X23606Y50751D01*
X23520Y50899D01*
X23399Y51020D01*
X23251Y51106D01*
X23086Y51150D01*
D02*
G37*
G36*
X17586D02*
X17414D01*
X17249Y51106D01*
X17101Y51020D01*
X16980Y50899D01*
X16894Y50751D01*
X16850Y50586D01*
Y50414D01*
X16894Y50249D01*
X16980Y50101D01*
X17101Y49980D01*
X17249Y49894D01*
X17414Y49850D01*
X17586D01*
X17751Y49894D01*
X17899Y49980D01*
X18020Y50101D01*
X18106Y50249D01*
X18150Y50414D01*
Y50586D01*
X18106Y50751D01*
X18020Y50899D01*
X17899Y51020D01*
X17751Y51106D01*
X17586Y51150D01*
D02*
G37*
G36*
X11086Y50400D02*
X10914D01*
X10749Y50356D01*
X10601Y50270D01*
X10480Y50149D01*
X10394Y50001D01*
X10350Y49836D01*
Y49664D01*
X10394Y49499D01*
X10480Y49351D01*
X10592Y49239D01*
Y49007D01*
X10465Y48954D01*
X10399Y49020D01*
X10251Y49106D01*
X10086Y49150D01*
X9914D01*
X9749Y49106D01*
X9601Y49020D01*
X9480Y48899D01*
X9394Y48751D01*
X9350Y48586D01*
Y48414D01*
X9394Y48249D01*
X9480Y48101D01*
X9601Y47980D01*
X9749Y47894D01*
X9914Y47850D01*
X10086D01*
X10251Y47894D01*
X10399Y47980D01*
X10465Y48046D01*
X10592Y47993D01*
Y47507D01*
X10465Y47454D01*
X10399Y47520D01*
X10251Y47606D01*
X10086Y47650D01*
X9914D01*
X9749Y47606D01*
X9601Y47520D01*
X9480Y47399D01*
X9394Y47251D01*
X9350Y47086D01*
Y46914D01*
X9394Y46749D01*
X9480Y46601D01*
X9581Y46500D01*
X9480Y46399D01*
X9394Y46251D01*
X9350Y46086D01*
Y45914D01*
X9394Y45749D01*
X9480Y45601D01*
X9581Y45500D01*
X9480Y45399D01*
X9394Y45251D01*
X9350Y45086D01*
Y44914D01*
X9394Y44749D01*
X9480Y44601D01*
X9601Y44480D01*
X9656Y44448D01*
Y44302D01*
X9601Y44270D01*
X9480Y44149D01*
X9394Y44001D01*
X9350Y43836D01*
Y43664D01*
X9394Y43499D01*
X9480Y43351D01*
X9601Y43230D01*
X9656Y43198D01*
Y43052D01*
X9601Y43020D01*
X9480Y42899D01*
X9394Y42751D01*
X9350Y42586D01*
Y42414D01*
X9394Y42249D01*
X9480Y42101D01*
X9581Y42000D01*
X9480Y41899D01*
X9394Y41751D01*
X9350Y41586D01*
Y41414D01*
X9394Y41249D01*
X9480Y41101D01*
X9601Y40980D01*
X9749Y40894D01*
X9914Y40850D01*
X10086D01*
X10251Y40894D01*
X10399Y40980D01*
X10465Y41046D01*
X10592Y40993D01*
Y40261D01*
X10480Y40149D01*
X10394Y40001D01*
X10350Y39836D01*
Y39664D01*
X10394Y39499D01*
X10480Y39351D01*
X10601Y39230D01*
X10749Y39144D01*
X10914Y39100D01*
X11086D01*
X11251Y39144D01*
X11399Y39230D01*
X11520Y39351D01*
X11606Y39499D01*
X11650Y39664D01*
Y39836D01*
X11606Y40001D01*
X11520Y40149D01*
X11408Y40261D01*
Y49239D01*
X11520Y49351D01*
X11606Y49499D01*
X11650Y49664D01*
Y49836D01*
X11606Y50001D01*
X11520Y50149D01*
X11399Y50270D01*
X11251Y50356D01*
X11086Y50400D01*
D02*
G37*
G36*
X15836Y49650D02*
X15664D01*
X15499Y49606D01*
X15351Y49520D01*
X15230Y49399D01*
X15144Y49251D01*
X15100Y49086D01*
Y48914D01*
X15144Y48749D01*
X15230Y48601D01*
X15331Y48500D01*
X15230Y48399D01*
X15144Y48251D01*
X15100Y48086D01*
Y47914D01*
X15144Y47749D01*
X15230Y47601D01*
X15351Y47480D01*
X15499Y47394D01*
X15664Y47350D01*
X15836D01*
X16001Y47394D01*
X16149Y47480D01*
X16270Y47601D01*
X16356Y47749D01*
X16400Y47914D01*
Y48086D01*
X16356Y48251D01*
X16270Y48399D01*
X16169Y48500D01*
X16270Y48601D01*
X16356Y48749D01*
X16400Y48914D01*
Y49086D01*
X16356Y49251D01*
X16270Y49399D01*
X16149Y49520D01*
X16001Y49606D01*
X15836Y49650D01*
D02*
G37*
G36*
X29836Y47150D02*
X29664D01*
X29499Y47106D01*
X29351Y47020D01*
X29230Y46899D01*
X29144Y46751D01*
X29100Y46586D01*
Y46414D01*
X29144Y46249D01*
X29230Y46101D01*
X29351Y45980D01*
X29499Y45894D01*
X29664Y45850D01*
X29836D01*
X30001Y45894D01*
X30149Y45980D01*
X30270Y46101D01*
X30356Y46249D01*
X30400Y46414D01*
Y46586D01*
X30356Y46751D01*
X30270Y46899D01*
X30149Y47020D01*
X30001Y47106D01*
X29836Y47150D01*
D02*
G37*
G36*
X15836D02*
X15664D01*
X15499Y47106D01*
X15351Y47020D01*
X15230Y46899D01*
X15144Y46751D01*
X15100Y46586D01*
Y46414D01*
X15144Y46249D01*
X15230Y46101D01*
X15351Y45980D01*
X15499Y45894D01*
X15664Y45850D01*
X15836D01*
X16001Y45894D01*
X16149Y45980D01*
X16270Y46101D01*
X16356Y46249D01*
X16400Y46414D01*
Y46586D01*
X16356Y46751D01*
X16270Y46899D01*
X16149Y47020D01*
X16001Y47106D01*
X15836Y47150D01*
D02*
G37*
G36*
X30586Y45900D02*
X30414D01*
X30249Y45856D01*
X30101Y45770D01*
X29980Y45649D01*
X29894Y45501D01*
X29850Y45336D01*
Y45164D01*
X29894Y44999D01*
X29980Y44851D01*
X30101Y44730D01*
X30249Y44644D01*
X30414Y44600D01*
X30586D01*
X30751Y44644D01*
X30899Y44730D01*
X31020Y44851D01*
X31106Y44999D01*
X31150Y45164D01*
Y45336D01*
X31106Y45501D01*
X31020Y45649D01*
X30899Y45770D01*
X30751Y45856D01*
X30586Y45900D01*
D02*
G37*
G36*
X21586Y49900D02*
X21414D01*
X21249Y49856D01*
X21101Y49770D01*
X20980Y49649D01*
X20894Y49501D01*
X20850Y49336D01*
Y49177D01*
X19212Y47538D01*
X19123Y47406D01*
X19092Y47250D01*
X19092Y47250D01*
Y44761D01*
X18980Y44649D01*
X18894Y44501D01*
X18850Y44336D01*
Y44164D01*
X18894Y43999D01*
X18980Y43851D01*
X19101Y43730D01*
X19249Y43644D01*
X19414Y43600D01*
X19586D01*
X19751Y43644D01*
X19899Y43730D01*
X20020Y43851D01*
X20106Y43999D01*
X20150Y44164D01*
Y44336D01*
X20106Y44501D01*
X20020Y44649D01*
X19908Y44761D01*
Y47081D01*
X21176Y48350D01*
X21285Y48313D01*
X21305Y48299D01*
X21387Y48176D01*
X26851Y42712D01*
X26851Y42712D01*
X26984Y42623D01*
X27140Y42592D01*
X27140Y42592D01*
X28345D01*
X28413Y42465D01*
X28373Y42406D01*
X28342Y42250D01*
X28342Y42250D01*
Y38419D01*
X27326Y37403D01*
X24745D01*
X24745Y37403D01*
X24589Y37372D01*
X24457Y37283D01*
X23573Y36400D01*
X23414D01*
X23249Y36356D01*
X23101Y36270D01*
X22980Y36149D01*
X22894Y36001D01*
X22850Y35836D01*
Y35664D01*
X22894Y35499D01*
X22980Y35351D01*
X23101Y35230D01*
X23249Y35144D01*
X23414Y35100D01*
X23586D01*
X23751Y35144D01*
X23899Y35230D01*
X24020Y35351D01*
X24106Y35499D01*
X24150Y35664D01*
Y35823D01*
X24914Y36587D01*
X27495D01*
X27495Y36587D01*
X27651Y36618D01*
X27783Y36707D01*
X29038Y37962D01*
X29038Y37962D01*
X29127Y38094D01*
X29158Y38250D01*
X29158Y38250D01*
Y42081D01*
X29427Y42350D01*
X29540D01*
X29705Y42394D01*
X29854Y42480D01*
X29975Y42601D01*
X30060Y42749D01*
X30105Y42914D01*
Y43086D01*
X30060Y43251D01*
X29975Y43399D01*
X29948Y43426D01*
X29899Y43480D01*
X29993Y43574D01*
X30097Y43561D01*
X30133Y43542D01*
X30144Y43499D01*
X30230Y43351D01*
X30351Y43230D01*
X30499Y43144D01*
X30664Y43100D01*
X30836D01*
X31001Y43144D01*
X31149Y43230D01*
X31270Y43351D01*
X31356Y43499D01*
X31400Y43664D01*
Y43836D01*
X31356Y44001D01*
X31270Y44149D01*
X31149Y44270D01*
X31001Y44356D01*
X30836Y44400D01*
X30664D01*
X30499Y44356D01*
X30351Y44270D01*
X30257Y44176D01*
X30153Y44189D01*
X30117Y44208D01*
X30106Y44251D01*
X30020Y44399D01*
X29899Y44520D01*
X29751Y44606D01*
X29586Y44650D01*
X29414D01*
X29249Y44606D01*
X29101Y44520D01*
X28980Y44399D01*
X28894Y44251D01*
X28850Y44086D01*
Y43914D01*
X28894Y43749D01*
X28980Y43601D01*
X29006Y43574D01*
X29056Y43520D01*
X28943Y43408D01*
X27309D01*
X22083Y48634D01*
Y48940D01*
X22080Y48954D01*
X22106Y48999D01*
X22150Y49164D01*
Y49336D01*
X22106Y49501D01*
X22020Y49649D01*
X21899Y49770D01*
X21751Y49856D01*
X21586Y49900D01*
D02*
G37*
G36*
X27086Y41650D02*
X26914D01*
X26749Y41606D01*
X26601Y41520D01*
X26480Y41399D01*
X26394Y41251D01*
X26350Y41086D01*
Y40914D01*
X26394Y40749D01*
X26480Y40601D01*
X26601Y40480D01*
X26749Y40394D01*
X26914Y40350D01*
X27086D01*
X27251Y40394D01*
X27399Y40480D01*
X27520Y40601D01*
X27606Y40749D01*
X27650Y40914D01*
Y41086D01*
X27606Y41251D01*
X27520Y41399D01*
X27399Y41520D01*
X27251Y41606D01*
X27086Y41650D01*
D02*
G37*
G36*
X23086Y43650D02*
X22914D01*
X22749Y43606D01*
X22601Y43520D01*
X22480Y43399D01*
X22394Y43251D01*
X22350Y43086D01*
Y42914D01*
X22394Y42749D01*
X22480Y42601D01*
X22581Y42500D01*
X22480Y42399D01*
X22394Y42251D01*
X22350Y42086D01*
Y41914D01*
X22394Y41749D01*
X22480Y41601D01*
X22581Y41500D01*
X22480Y41399D01*
X22394Y41251D01*
X22350Y41086D01*
Y40914D01*
X22394Y40749D01*
X22480Y40601D01*
X22601Y40480D01*
X22749Y40394D01*
X22914Y40350D01*
X23086D01*
X23251Y40394D01*
X23399Y40480D01*
X23520Y40601D01*
X23606Y40749D01*
X23650Y40914D01*
Y41086D01*
X23606Y41251D01*
X23520Y41399D01*
X23419Y41500D01*
X23520Y41601D01*
X23606Y41749D01*
X23650Y41914D01*
Y42086D01*
X23606Y42251D01*
X23520Y42399D01*
X23419Y42500D01*
X23520Y42601D01*
X23606Y42749D01*
X23650Y42914D01*
Y43086D01*
X23606Y43251D01*
X23520Y43399D01*
X23399Y43520D01*
X23251Y43606D01*
X23086Y43650D01*
D02*
G37*
G36*
X25336Y41400D02*
X25164D01*
X24999Y41356D01*
X24851Y41270D01*
X24730Y41149D01*
X24644Y41001D01*
X24600Y40836D01*
Y40664D01*
X24644Y40499D01*
X24730Y40351D01*
X24804Y40277D01*
X24751Y40150D01*
X24664D01*
X24499Y40106D01*
X24351Y40020D01*
X24250Y39919D01*
X24149Y40020D01*
X24001Y40106D01*
X23836Y40150D01*
X23664D01*
X23499Y40106D01*
X23351Y40020D01*
X23250Y39919D01*
X23149Y40020D01*
X23001Y40106D01*
X22836Y40150D01*
X22664D01*
X22499Y40106D01*
X22351Y40020D01*
X22250Y39919D01*
X22149Y40020D01*
X22001Y40106D01*
X21836Y40150D01*
X21664D01*
X21499Y40106D01*
X21351Y40020D01*
X21230Y39899D01*
X21144Y39751D01*
X21100Y39586D01*
Y39414D01*
X21144Y39249D01*
X21230Y39101D01*
X21351Y38980D01*
X21499Y38894D01*
X21664Y38850D01*
X21836D01*
X22001Y38894D01*
X22149Y38980D01*
X22250Y39081D01*
X22351Y38980D01*
X22375Y38966D01*
X22420Y38795D01*
X22394Y38751D01*
X22350Y38586D01*
Y38414D01*
X22394Y38249D01*
X22480Y38101D01*
X22601Y37980D01*
X22749Y37894D01*
X22914Y37850D01*
X23086D01*
X23251Y37894D01*
X23399Y37980D01*
X23520Y38101D01*
X23606Y38249D01*
X23650Y38414D01*
Y38586D01*
X23611Y38733D01*
X23632Y38780D01*
X23695Y38850D01*
X23836D01*
X24001Y38894D01*
X24122Y38964D01*
X24214Y38872D01*
X24144Y38751D01*
X24100Y38586D01*
Y38414D01*
X24144Y38249D01*
X24230Y38101D01*
X24351Y37980D01*
X24499Y37894D01*
X24664Y37850D01*
X24836D01*
X25001Y37894D01*
X25149Y37980D01*
X25270Y38101D01*
X25356Y38249D01*
X25400Y38414D01*
Y38586D01*
X25356Y38751D01*
X25270Y38899D01*
X25169Y39000D01*
X25270Y39101D01*
X25356Y39249D01*
X25400Y39414D01*
Y39586D01*
X25356Y39751D01*
X25270Y39899D01*
X25196Y39973D01*
X25249Y40100D01*
X25336D01*
X25501Y40144D01*
X25649Y40230D01*
X25770Y40351D01*
X25856Y40499D01*
X25900Y40664D01*
Y40836D01*
X25856Y41001D01*
X25770Y41149D01*
X25649Y41270D01*
X25501Y41356D01*
X25336Y41400D01*
D02*
G37*
G36*
X13336Y40150D02*
X13164D01*
X12999Y40106D01*
X12851Y40020D01*
X12730Y39899D01*
X12644Y39751D01*
X12600Y39586D01*
Y39414D01*
X12644Y39249D01*
X12730Y39101D01*
X12851Y38980D01*
X12999Y38894D01*
X13164Y38850D01*
X13336D01*
X13501Y38894D01*
X13649Y38980D01*
X13770Y39101D01*
X13856Y39249D01*
X13900Y39414D01*
Y39586D01*
X13856Y39751D01*
X13770Y39899D01*
X13649Y40020D01*
X13501Y40106D01*
X13336Y40150D01*
D02*
G37*
G36*
X15836Y41400D02*
X15664D01*
X15499Y41356D01*
X15351Y41270D01*
X15230Y41149D01*
X15144Y41001D01*
X15100Y40836D01*
Y40664D01*
X15144Y40499D01*
X15230Y40351D01*
X15331Y40250D01*
X15230Y40149D01*
X15144Y40001D01*
X15100Y39836D01*
Y39664D01*
X15144Y39499D01*
X15230Y39351D01*
X15331Y39250D01*
X15230Y39149D01*
X15144Y39001D01*
X15100Y38836D01*
Y38664D01*
X15144Y38499D01*
X15230Y38351D01*
X15351Y38230D01*
X15499Y38144D01*
X15664Y38100D01*
X15836D01*
X16001Y38144D01*
X16149Y38230D01*
X16270Y38351D01*
X16356Y38499D01*
X16400Y38664D01*
Y38836D01*
X16356Y39001D01*
X16270Y39149D01*
X16169Y39250D01*
X16270Y39351D01*
X16356Y39499D01*
X16400Y39664D01*
Y39836D01*
X16356Y40001D01*
X16270Y40149D01*
X16169Y40250D01*
X16270Y40351D01*
X16356Y40499D01*
X16400Y40664D01*
Y40836D01*
X16356Y41001D01*
X16270Y41149D01*
X16149Y41270D01*
X16001Y41356D01*
X15836Y41400D01*
D02*
G37*
G36*
X26336Y39082D02*
X26164D01*
X25999Y39038D01*
X25851Y38952D01*
X25730Y38831D01*
X25644Y38683D01*
X25600Y38518D01*
Y38347D01*
X25644Y38181D01*
X25730Y38033D01*
X25851Y37912D01*
X25999Y37827D01*
X26164Y37782D01*
X26336D01*
X26501Y37827D01*
X26649Y37912D01*
X26770Y38033D01*
X26856Y38181D01*
X26900Y38347D01*
Y38518D01*
X26856Y38683D01*
X26770Y38831D01*
X26649Y38952D01*
X26501Y39038D01*
X26336Y39082D01*
D02*
G37*
G36*
X19086Y41900D02*
X18914D01*
X18749Y41856D01*
X18601Y41770D01*
X18480Y41649D01*
X18394Y41501D01*
X18350Y41336D01*
Y41164D01*
X18394Y40999D01*
X18480Y40851D01*
X18581Y40750D01*
X18480Y40649D01*
X18394Y40501D01*
X18350Y40336D01*
Y40164D01*
X18394Y39999D01*
X18480Y39851D01*
X18581Y39750D01*
X18480Y39649D01*
X18394Y39501D01*
X18350Y39336D01*
Y39164D01*
X18394Y38999D01*
X18480Y38851D01*
X18581Y38750D01*
X18480Y38649D01*
X18394Y38501D01*
X18350Y38336D01*
Y38164D01*
X18394Y37999D01*
X18480Y37851D01*
X18601Y37730D01*
X18749Y37644D01*
X18914Y37600D01*
X19086D01*
X19251Y37644D01*
X19399Y37730D01*
X19520Y37851D01*
X19606Y37999D01*
X19650Y38164D01*
Y38336D01*
X19606Y38501D01*
X19520Y38649D01*
X19419Y38750D01*
X19520Y38851D01*
X19606Y38999D01*
X19650Y39164D01*
Y39336D01*
X19606Y39501D01*
X19520Y39649D01*
X19419Y39750D01*
X19520Y39851D01*
X19606Y39999D01*
X19650Y40164D01*
Y40336D01*
X19606Y40501D01*
X19520Y40649D01*
X19419Y40750D01*
X19520Y40851D01*
X19606Y40999D01*
X19650Y41164D01*
Y41336D01*
X19606Y41501D01*
X19520Y41649D01*
X19399Y41770D01*
X19251Y41856D01*
X19086Y41900D01*
D02*
G37*
G36*
X27086Y36400D02*
X26914D01*
X26749Y36356D01*
X26601Y36270D01*
X26500Y36169D01*
X26399Y36270D01*
X26251Y36356D01*
X26086Y36400D01*
X25914D01*
X25749Y36356D01*
X25601Y36270D01*
X25480Y36149D01*
X25394Y36001D01*
X25350Y35836D01*
Y35664D01*
X25394Y35499D01*
X25480Y35351D01*
X25601Y35230D01*
X25749Y35144D01*
X25914Y35100D01*
X26086D01*
X26251Y35144D01*
X26399Y35230D01*
X26500Y35331D01*
X26601Y35230D01*
X26749Y35144D01*
X26914Y35100D01*
X27086D01*
X27251Y35144D01*
X27399Y35230D01*
X27520Y35351D01*
X27606Y35499D01*
X27650Y35664D01*
Y35836D01*
X27606Y36001D01*
X27520Y36149D01*
X27399Y36270D01*
X27251Y36356D01*
X27086Y36400D01*
D02*
G37*
G36*
X11086Y34900D02*
X10914D01*
X10749Y34856D01*
X10601Y34770D01*
X10500Y34669D01*
X10399Y34770D01*
X10251Y34856D01*
X10086Y34900D01*
X9914D01*
X9749Y34856D01*
X9601Y34770D01*
X9480Y34649D01*
X9394Y34501D01*
X9350Y34336D01*
Y34164D01*
X9394Y33999D01*
X9480Y33851D01*
X9601Y33730D01*
X9749Y33644D01*
X9914Y33600D01*
X10086D01*
X10251Y33644D01*
X10399Y33730D01*
X10500Y33831D01*
X10601Y33730D01*
X10749Y33644D01*
X10914Y33600D01*
X11086D01*
X11251Y33644D01*
X11399Y33730D01*
X11520Y33851D01*
X11606Y33999D01*
X11650Y34164D01*
Y34336D01*
X11606Y34501D01*
X11520Y34649D01*
X11399Y34770D01*
X11251Y34856D01*
X11086Y34900D01*
D02*
G37*
G36*
X19336Y36400D02*
X19164D01*
X18999Y36356D01*
X18851Y36270D01*
X18730Y36149D01*
X18644Y36001D01*
X18600Y35836D01*
Y35664D01*
X18644Y35499D01*
X18730Y35351D01*
X18851Y35230D01*
X18999Y35144D01*
X19164Y35100D01*
X19336D01*
X19365Y35108D01*
X19394Y34999D01*
X19480Y34851D01*
X19601Y34730D01*
X19749Y34644D01*
X19914Y34600D01*
X20086D01*
X20251Y34644D01*
X20399Y34730D01*
X20520Y34851D01*
X20606Y34999D01*
X20650Y35164D01*
Y35336D01*
X20606Y35501D01*
X20520Y35649D01*
X20399Y35770D01*
X20251Y35856D01*
X20086Y35900D01*
X19914D01*
X19885Y35892D01*
X19856Y36001D01*
X19770Y36149D01*
X19649Y36270D01*
X19501Y36356D01*
X19336Y36400D01*
D02*
G37*
G36*
X12771Y27050D02*
X12429D01*
X12098Y26961D01*
X11802Y26790D01*
X11560Y26548D01*
X11389Y26252D01*
X11300Y25921D01*
Y25579D01*
X11389Y25248D01*
X11560Y24952D01*
X11802Y24710D01*
X12098Y24539D01*
X12429Y24450D01*
X12771D01*
X13102Y24539D01*
X13398Y24710D01*
X13640Y24952D01*
X13811Y25248D01*
X13900Y25579D01*
Y25921D01*
X13811Y26252D01*
X13640Y26548D01*
X13398Y26790D01*
X13102Y26961D01*
X12771Y27050D01*
D02*
G37*
G36*
X40036Y23400D02*
X39864D01*
X39699Y23356D01*
X39551Y23270D01*
X39450Y23169D01*
X39349Y23270D01*
X39201Y23356D01*
X39036Y23400D01*
X38864D01*
X38699Y23356D01*
X38551Y23270D01*
X38430Y23149D01*
X38344Y23001D01*
X38300Y22836D01*
Y22664D01*
X38344Y22499D01*
X38430Y22351D01*
X38551Y22230D01*
X38699Y22144D01*
X38864Y22100D01*
X39036D01*
X39201Y22144D01*
X39349Y22230D01*
X39450Y22331D01*
X39551Y22230D01*
X39699Y22144D01*
X39864Y22100D01*
X40036D01*
X40201Y22144D01*
X40349Y22230D01*
X40470Y22351D01*
X40556Y22499D01*
X40600Y22664D01*
Y22836D01*
X40556Y23001D01*
X40470Y23149D01*
X40349Y23270D01*
X40201Y23356D01*
X40036Y23400D01*
D02*
G37*
G36*
X36836D02*
X36664D01*
X36499Y23356D01*
X36351Y23270D01*
X36250Y23169D01*
X36149Y23270D01*
X36001Y23356D01*
X35836Y23400D01*
X35664D01*
X35499Y23356D01*
X35351Y23270D01*
X35230Y23149D01*
X35144Y23001D01*
X35100Y22836D01*
Y22664D01*
X35144Y22499D01*
X35230Y22351D01*
X35351Y22230D01*
X35499Y22144D01*
X35664Y22100D01*
X35836D01*
X36001Y22144D01*
X36149Y22230D01*
X36250Y22331D01*
X36351Y22230D01*
X36499Y22144D01*
X36664Y22100D01*
X36836D01*
X37001Y22144D01*
X37149Y22230D01*
X37270Y22351D01*
X37356Y22499D01*
X37400Y22664D01*
Y22836D01*
X37356Y23001D01*
X37270Y23149D01*
X37149Y23270D01*
X37001Y23356D01*
X36836Y23400D01*
D02*
G37*
G36*
X43336D02*
X43164D01*
X42999Y23356D01*
X42851Y23270D01*
X42730Y23149D01*
X42644Y23001D01*
X42600Y22836D01*
Y22664D01*
X42644Y22499D01*
X42730Y22351D01*
X42851Y22230D01*
X42999Y22144D01*
X43164Y22100D01*
X43336D01*
X43501Y22144D01*
X43649Y22230D01*
X43770Y22351D01*
X43856Y22499D01*
X43900Y22664D01*
Y22836D01*
X43856Y23001D01*
X43770Y23149D01*
X43649Y23270D01*
X43501Y23356D01*
X43336Y23400D01*
D02*
G37*
G36*
X41586D02*
X41414D01*
X41249Y23356D01*
X41101Y23270D01*
X40980Y23149D01*
X40894Y23001D01*
X40850Y22836D01*
Y22664D01*
X40894Y22499D01*
X40980Y22351D01*
X41101Y22230D01*
X41249Y22144D01*
X41414Y22100D01*
X41586D01*
X41751Y22144D01*
X41899Y22230D01*
X42020Y22351D01*
X42106Y22499D01*
X42150Y22664D01*
Y22836D01*
X42106Y23001D01*
X42020Y23149D01*
X41899Y23270D01*
X41751Y23356D01*
X41586Y23400D01*
D02*
G37*
G36*
X45086Y20150D02*
X44914D01*
X44749Y20106D01*
X44601Y20020D01*
X44480Y19899D01*
X44394Y19751D01*
X44350Y19586D01*
Y19414D01*
X44394Y19249D01*
X44480Y19101D01*
X44581Y19000D01*
X44480Y18899D01*
X44394Y18751D01*
X44350Y18586D01*
Y18414D01*
X44394Y18249D01*
X44480Y18101D01*
X44601Y17980D01*
X44749Y17894D01*
X44914Y17850D01*
X45086D01*
X45251Y17894D01*
X45399Y17980D01*
X45520Y18101D01*
X45606Y18249D01*
X45650Y18414D01*
Y18586D01*
X45606Y18751D01*
X45520Y18899D01*
X45419Y19000D01*
X45520Y19101D01*
X45606Y19249D01*
X45650Y19414D01*
Y19586D01*
X45606Y19751D01*
X45520Y19899D01*
X45399Y20020D01*
X45251Y20106D01*
X45086Y20150D01*
D02*
G37*
G36*
X29586Y18650D02*
X29414D01*
X29249Y18606D01*
X29101Y18520D01*
X28980Y18399D01*
X28894Y18251D01*
X28850Y18086D01*
Y17914D01*
X28894Y17749D01*
X28980Y17601D01*
X29101Y17480D01*
X29249Y17394D01*
X29414Y17350D01*
X29586D01*
X29751Y17394D01*
X29899Y17480D01*
X30020Y17601D01*
X30106Y17749D01*
X30150Y17914D01*
Y18086D01*
X30106Y18251D01*
X30020Y18399D01*
X29899Y18520D01*
X29751Y18606D01*
X29586Y18650D01*
D02*
G37*
G36*
X38336Y19650D02*
X38164D01*
X37999Y19606D01*
X37851Y19520D01*
X37730Y19399D01*
X37644Y19251D01*
X37600Y19086D01*
Y18914D01*
X37644Y18749D01*
X37730Y18601D01*
X37851Y18480D01*
X37906Y18448D01*
Y18302D01*
X37851Y18270D01*
X37730Y18149D01*
X37644Y18001D01*
X37600Y17836D01*
Y17664D01*
X37644Y17499D01*
X37730Y17351D01*
X37851Y17230D01*
X37999Y17144D01*
X38164Y17100D01*
X38336D01*
X38501Y17144D01*
X38649Y17230D01*
X38770Y17351D01*
X38856Y17499D01*
X38900Y17664D01*
Y17836D01*
X38856Y18001D01*
X38770Y18149D01*
X38649Y18270D01*
X38594Y18302D01*
Y18448D01*
X38649Y18480D01*
X38770Y18601D01*
X38856Y18749D01*
X38900Y18914D01*
Y19086D01*
X38856Y19251D01*
X38770Y19399D01*
X38649Y19520D01*
X38501Y19606D01*
X38336Y19650D01*
D02*
G37*
G36*
X12771Y19550D02*
X12429D01*
X12098Y19461D01*
X11802Y19290D01*
X11560Y19048D01*
X11389Y18752D01*
X11300Y18421D01*
Y18079D01*
X11389Y17748D01*
X11560Y17452D01*
X11802Y17210D01*
X12098Y17039D01*
X12429Y16950D01*
X12771D01*
X13102Y17039D01*
X13398Y17210D01*
X13640Y17452D01*
X13811Y17748D01*
X13900Y18079D01*
Y18421D01*
X13811Y18752D01*
X13640Y19048D01*
X13398Y19290D01*
X13102Y19461D01*
X12771Y19550D01*
D02*
G37*
G36*
X45086Y16950D02*
X44914D01*
X44749Y16906D01*
X44601Y16820D01*
X44480Y16699D01*
X44394Y16551D01*
X44350Y16386D01*
Y16214D01*
X44394Y16049D01*
X44480Y15901D01*
X44581Y15800D01*
X44480Y15699D01*
X44394Y15551D01*
X44350Y15386D01*
Y15214D01*
X44394Y15049D01*
X44480Y14901D01*
X44601Y14780D01*
X44749Y14694D01*
X44914Y14650D01*
X45086D01*
X45251Y14694D01*
X45399Y14780D01*
X45520Y14901D01*
X45606Y15049D01*
X45650Y15214D01*
Y15386D01*
X45606Y15551D01*
X45520Y15699D01*
X45419Y15800D01*
X45520Y15901D01*
X45606Y16049D01*
X45650Y16214D01*
Y16386D01*
X45606Y16551D01*
X45520Y16699D01*
X45399Y16820D01*
X45251Y16906D01*
X45086Y16950D01*
D02*
G37*
G36*
X38336Y15900D02*
X38164D01*
X37999Y15856D01*
X37851Y15770D01*
X37730Y15649D01*
X37644Y15501D01*
X37600Y15336D01*
Y15164D01*
X37644Y14999D01*
X37730Y14851D01*
X37851Y14730D01*
X37999Y14644D01*
X38164Y14600D01*
X38336D01*
X38501Y14644D01*
X38649Y14730D01*
X38770Y14851D01*
X38856Y14999D01*
X38900Y15164D01*
Y15336D01*
X38856Y15501D01*
X38770Y15649D01*
X38649Y15770D01*
X38501Y15856D01*
X38336Y15900D01*
D02*
G37*
G36*
X32836Y17900D02*
X32664D01*
X32499Y17856D01*
X32351Y17770D01*
X32230Y17649D01*
X32144Y17501D01*
X32100Y17336D01*
Y17164D01*
X32144Y16999D01*
X32230Y16851D01*
X32331Y16750D01*
X32230Y16649D01*
X32144Y16501D01*
X32100Y16336D01*
Y16164D01*
X32144Y15999D01*
X32230Y15851D01*
X32331Y15750D01*
X32230Y15649D01*
X32144Y15501D01*
X32100Y15336D01*
Y15164D01*
X32144Y14999D01*
X32230Y14851D01*
X32351Y14730D01*
X32499Y14644D01*
X32664Y14600D01*
X32836D01*
X33001Y14644D01*
X33149Y14730D01*
X33270Y14851D01*
X33356Y14999D01*
X33400Y15164D01*
Y15336D01*
X33356Y15501D01*
X33270Y15649D01*
X33169Y15750D01*
X33270Y15851D01*
X33356Y15999D01*
X33400Y16164D01*
Y16336D01*
X33356Y16501D01*
X33270Y16649D01*
X33169Y16750D01*
X33270Y16851D01*
X33356Y16999D01*
X33400Y17164D01*
Y17336D01*
X33356Y17501D01*
X33270Y17649D01*
X33149Y17770D01*
X33001Y17856D01*
X32836Y17900D01*
D02*
G37*
G36*
X12086Y15650D02*
X11914D01*
X11749Y15606D01*
X11601Y15520D01*
X11480Y15399D01*
X11394Y15251D01*
X11350Y15086D01*
Y14914D01*
X11394Y14749D01*
X11480Y14601D01*
X11601Y14480D01*
X11749Y14394D01*
X11914Y14350D01*
X12086D01*
X12251Y14394D01*
X12399Y14480D01*
X12520Y14601D01*
X12606Y14749D01*
X12650Y14914D01*
Y15086D01*
X12606Y15251D01*
X12520Y15399D01*
X12399Y15520D01*
X12251Y15606D01*
X12086Y15650D01*
D02*
G37*
G36*
X47836Y15150D02*
X47664D01*
X47499Y15105D01*
X47351Y15020D01*
X47230Y14899D01*
X47144Y14751D01*
X47100Y14585D01*
Y14414D01*
X47144Y14249D01*
X47230Y14101D01*
X47331Y14000D01*
X47230Y13899D01*
X47144Y13751D01*
X47100Y13585D01*
Y13414D01*
X47144Y13249D01*
X47230Y13101D01*
X47351Y12980D01*
X47499Y12894D01*
X47664Y12850D01*
X47836D01*
X48001Y12894D01*
X48149Y12980D01*
X48270Y13101D01*
X48356Y13249D01*
X48400Y13414D01*
Y13585D01*
X48356Y13751D01*
X48270Y13899D01*
X48169Y14000D01*
X48270Y14101D01*
X48356Y14249D01*
X48400Y14414D01*
Y14585D01*
X48356Y14751D01*
X48270Y14899D01*
X48149Y15020D01*
X48001Y15105D01*
X47836Y15150D01*
D02*
G37*
G36*
X21586Y13080D02*
X21414D01*
X21249Y13036D01*
X21101Y12950D01*
X20980Y12829D01*
X20894Y12681D01*
X20850Y12516D01*
Y12344D01*
X20894Y12179D01*
X20980Y12031D01*
X21101Y11910D01*
X21249Y11824D01*
X21414Y11780D01*
X21586D01*
X21751Y11824D01*
X21899Y11910D01*
X22020Y12031D01*
X22106Y12179D01*
X22150Y12344D01*
Y12516D01*
X22106Y12681D01*
X22020Y12829D01*
X21899Y12950D01*
X21751Y13036D01*
X21586Y13080D01*
D02*
G37*
G36*
X33836Y12900D02*
X33664D01*
X33499Y12856D01*
X33351Y12770D01*
X33230Y12649D01*
X33144Y12501D01*
X33100Y12336D01*
Y12164D01*
X33144Y11999D01*
X33230Y11851D01*
X33351Y11730D01*
X33499Y11644D01*
X33664Y11600D01*
X33836D01*
X34001Y11644D01*
X34149Y11730D01*
X34270Y11851D01*
X34356Y11999D01*
X34400Y12164D01*
Y12336D01*
X34356Y12501D01*
X34270Y12649D01*
X34149Y12770D01*
X34001Y12856D01*
X33836Y12900D01*
D02*
G37*
G36*
X40836Y11425D02*
X40664D01*
X40499Y11380D01*
X40351Y11295D01*
X40230Y11174D01*
X40144Y11026D01*
X40100Y10860D01*
Y10689D01*
X40144Y10524D01*
X40230Y10376D01*
X40351Y10255D01*
X40499Y10169D01*
X40664Y10125D01*
X40836D01*
X41001Y10169D01*
X41149Y10255D01*
X41270Y10376D01*
X41356Y10524D01*
X41400Y10689D01*
Y10860D01*
X41356Y11026D01*
X41270Y11174D01*
X41149Y11295D01*
X41001Y11380D01*
X40836Y11425D01*
D02*
G37*
G36*
X38586D02*
X38414D01*
X38249Y11380D01*
X38101Y11295D01*
X37980Y11174D01*
X37894Y11026D01*
X37850Y10860D01*
Y10689D01*
X37894Y10524D01*
X37980Y10376D01*
X38101Y10255D01*
X38249Y10169D01*
X38414Y10125D01*
X38586D01*
X38751Y10169D01*
X38899Y10255D01*
X39020Y10376D01*
X39106Y10524D01*
X39150Y10689D01*
Y10860D01*
X39106Y11026D01*
X39020Y11174D01*
X38899Y11295D01*
X38751Y11380D01*
X38586Y11425D01*
D02*
G37*
G36*
X13086Y11400D02*
X12914D01*
X12749Y11356D01*
X12601Y11270D01*
X12480Y11149D01*
X12394Y11001D01*
X12350Y10836D01*
Y10664D01*
X12394Y10499D01*
X12480Y10351D01*
X12601Y10230D01*
X12749Y10144D01*
X12914Y10100D01*
X13086D01*
X13251Y10144D01*
X13399Y10230D01*
X13520Y10351D01*
X13606Y10499D01*
X13650Y10664D01*
Y10836D01*
X13606Y11001D01*
X13520Y11149D01*
X13399Y11270D01*
X13251Y11356D01*
X13086Y11400D01*
D02*
G37*
G36*
X29836Y11150D02*
X29664D01*
X29499Y11106D01*
X29351Y11020D01*
X29230Y10899D01*
X29144Y10751D01*
X29100Y10586D01*
Y10414D01*
X29144Y10249D01*
X29230Y10101D01*
X29351Y9980D01*
X29499Y9894D01*
X29664Y9850D01*
X29836D01*
X30001Y9894D01*
X30149Y9980D01*
X30270Y10101D01*
X30356Y10249D01*
X30400Y10414D01*
Y10586D01*
X30356Y10751D01*
X30270Y10899D01*
X30149Y11020D01*
X30001Y11106D01*
X29836Y11150D01*
D02*
G37*
G36*
X42336Y10175D02*
X42164D01*
X41999Y10130D01*
X41851Y10045D01*
X41730Y9924D01*
X41644Y9776D01*
X41600Y9610D01*
Y9439D01*
X41644Y9274D01*
X41730Y9126D01*
X41851Y9005D01*
X41999Y8919D01*
X42164Y8875D01*
X42336D01*
X42501Y8919D01*
X42649Y9005D01*
X42770Y9126D01*
X42856Y9274D01*
X42900Y9439D01*
Y9610D01*
X42856Y9776D01*
X42770Y9924D01*
X42649Y10045D01*
X42501Y10130D01*
X42336Y10175D01*
D02*
G37*
G36*
X2573Y88075D02*
X2277D01*
X1987Y88017D01*
X1714Y87904D01*
X1469Y87740D01*
X1260Y87531D01*
X1096Y87286D01*
X983Y87013D01*
X925Y86723D01*
Y86427D01*
X983Y86137D01*
X1096Y85864D01*
X1260Y85619D01*
X1469Y85410D01*
X1714Y85246D01*
X1987Y85133D01*
X2277Y85075D01*
X2573D01*
X2863Y85133D01*
X3136Y85246D01*
X3381Y85410D01*
X3590Y85619D01*
X3754Y85864D01*
X3867Y86137D01*
X3925Y86427D01*
Y86723D01*
X3867Y87013D01*
X3754Y87286D01*
X3590Y87531D01*
X3381Y87740D01*
X3136Y87904D01*
X2863Y88017D01*
X2573Y88075D01*
D02*
G37*
G36*
X6350Y85350D02*
X3650D01*
Y82650D01*
X6350D01*
Y85350D01*
D02*
G37*
G36*
X2573Y82925D02*
X2277D01*
X1987Y82867D01*
X1714Y82754D01*
X1469Y82590D01*
X1260Y82381D01*
X1096Y82136D01*
X983Y81863D01*
X925Y81573D01*
Y81277D01*
X983Y80987D01*
X1096Y80714D01*
X1260Y80469D01*
X1469Y80260D01*
X1714Y80096D01*
X1987Y79983D01*
X2277Y79925D01*
X2573D01*
X2863Y79983D01*
X3136Y80096D01*
X3381Y80260D01*
X3590Y80469D01*
X3754Y80714D01*
X3867Y80987D01*
X3925Y81277D01*
Y81573D01*
X3867Y81863D01*
X3754Y82136D01*
X3590Y82381D01*
X3381Y82590D01*
X3136Y82754D01*
X2863Y82867D01*
X2573Y82925D01*
D02*
G37*
G36*
X4586Y75400D02*
X4414D01*
X4249Y75356D01*
X4101Y75270D01*
X3980Y75149D01*
X3894Y75001D01*
X3850Y74836D01*
Y74664D01*
X3894Y74499D01*
X3980Y74351D01*
X4101Y74230D01*
X4249Y74144D01*
X4414Y74100D01*
X4586D01*
X4751Y74144D01*
X4899Y74230D01*
X5020Y74351D01*
X5106Y74499D01*
X5150Y74664D01*
Y74836D01*
X5106Y75001D01*
X5020Y75149D01*
X4899Y75270D01*
X4751Y75356D01*
X4586Y75400D01*
D02*
G37*
G36*
X55671Y87650D02*
X55329D01*
X54998Y87561D01*
X54702Y87390D01*
X54460Y87148D01*
X54289Y86852D01*
X54200Y86521D01*
Y86179D01*
X54289Y85848D01*
X54460Y85552D01*
X54702Y85310D01*
X54981Y85148D01*
X54990Y85080D01*
X54981Y85012D01*
X54702Y84850D01*
X54460Y84608D01*
X54289Y84312D01*
X54200Y83981D01*
Y83639D01*
X54289Y83308D01*
X54460Y83012D01*
X54702Y82770D01*
X54981Y82608D01*
X54990Y82540D01*
X54981Y82472D01*
X54702Y82310D01*
X54460Y82068D01*
X54289Y81772D01*
X54200Y81441D01*
Y81099D01*
X54289Y80768D01*
X54460Y80472D01*
X54702Y80230D01*
X54981Y80068D01*
X54990Y80000D01*
X54981Y79932D01*
X54702Y79770D01*
X54460Y79528D01*
X54289Y79232D01*
X54200Y78901D01*
Y78559D01*
X54289Y78228D01*
X54460Y77932D01*
X54702Y77690D01*
X54981Y77528D01*
X54990Y77460D01*
X54981Y77392D01*
X54702Y77230D01*
X54460Y76988D01*
X54289Y76692D01*
X54200Y76361D01*
Y76019D01*
X54289Y75688D01*
X54460Y75392D01*
X54702Y75150D01*
X54981Y74988D01*
X54990Y74920D01*
X54981Y74852D01*
X54702Y74690D01*
X54460Y74448D01*
X54289Y74152D01*
X54200Y73821D01*
Y73479D01*
X54289Y73148D01*
X54460Y72852D01*
X54702Y72610D01*
X54998Y72439D01*
X55329Y72350D01*
X55671D01*
X56002Y72439D01*
X56298Y72610D01*
X56540Y72852D01*
X56711Y73148D01*
X56800Y73479D01*
Y73821D01*
X56711Y74152D01*
X56540Y74448D01*
X56298Y74690D01*
X56019Y74852D01*
X56010Y74920D01*
X56019Y74988D01*
X56298Y75150D01*
X56540Y75392D01*
X56711Y75688D01*
X56800Y76019D01*
Y76361D01*
X56711Y76692D01*
X56540Y76988D01*
X56298Y77230D01*
X56019Y77392D01*
X56010Y77460D01*
X56019Y77528D01*
X56298Y77690D01*
X56540Y77932D01*
X56711Y78228D01*
X56800Y78559D01*
Y78901D01*
X56711Y79232D01*
X56540Y79528D01*
X56298Y79770D01*
X56019Y79932D01*
X56010Y80000D01*
X56019Y80068D01*
X56298Y80230D01*
X56540Y80472D01*
X56711Y80768D01*
X56800Y81099D01*
Y81441D01*
X56711Y81772D01*
X56540Y82068D01*
X56298Y82310D01*
X56019Y82472D01*
X56010Y82540D01*
X56019Y82608D01*
X56298Y82770D01*
X56540Y83012D01*
X56711Y83308D01*
X56800Y83639D01*
Y83981D01*
X56711Y84312D01*
X56540Y84608D01*
X56298Y84850D01*
X56019Y85012D01*
X56010Y85080D01*
X56019Y85148D01*
X56298Y85310D01*
X56540Y85552D01*
X56711Y85848D01*
X56800Y86179D01*
Y86521D01*
X56711Y86852D01*
X56540Y87148D01*
X56298Y87390D01*
X56002Y87561D01*
X55671Y87650D01*
D02*
G37*
G36*
X2336Y72650D02*
X2164D01*
X1999Y72606D01*
X1851Y72520D01*
X1730Y72399D01*
X1644Y72251D01*
X1600Y72086D01*
Y71914D01*
X1644Y71749D01*
X1730Y71601D01*
X1851Y71480D01*
X1999Y71394D01*
X2164Y71350D01*
X2336D01*
X2501Y71394D01*
X2649Y71480D01*
X2770Y71601D01*
X2856Y71749D01*
X2900Y71914D01*
Y72086D01*
X2856Y72251D01*
X2770Y72399D01*
X2649Y72520D01*
X2501Y72606D01*
X2336Y72650D01*
D02*
G37*
G36*
X5286Y73275D02*
X5114D01*
X4949Y73231D01*
X4801Y73145D01*
X4680Y73024D01*
X4594Y72876D01*
X4550Y72711D01*
Y72539D01*
X4594Y72374D01*
X4680Y72226D01*
X4781Y72125D01*
X4680Y72024D01*
X4594Y71876D01*
X4550Y71711D01*
Y71539D01*
X4594Y71374D01*
X4680Y71226D01*
X4781Y71125D01*
X4680Y71024D01*
X4594Y70876D01*
X4550Y70711D01*
Y70539D01*
X4594Y70374D01*
X4680Y70226D01*
X4801Y70105D01*
X4949Y70019D01*
X5114Y69975D01*
X5286D01*
X5451Y70019D01*
X5599Y70105D01*
X5720Y70226D01*
X5806Y70374D01*
X5850Y70539D01*
Y70711D01*
X5806Y70876D01*
X5720Y71024D01*
X5619Y71125D01*
X5720Y71226D01*
X5806Y71374D01*
X5850Y71539D01*
Y71711D01*
X5806Y71876D01*
X5720Y72024D01*
X5619Y72125D01*
X5720Y72226D01*
X5806Y72374D01*
X5850Y72539D01*
Y72711D01*
X5806Y72876D01*
X5720Y73024D01*
X5599Y73145D01*
X5451Y73231D01*
X5286Y73275D01*
D02*
G37*
G36*
X2573Y64075D02*
X2277D01*
X1987Y64017D01*
X1714Y63904D01*
X1469Y63740D01*
X1260Y63531D01*
X1096Y63286D01*
X983Y63013D01*
X925Y62723D01*
Y62427D01*
X983Y62137D01*
X1096Y61864D01*
X1260Y61619D01*
X1469Y61410D01*
X1714Y61246D01*
X1987Y61133D01*
X2277Y61075D01*
X2573D01*
X2863Y61133D01*
X3136Y61246D01*
X3381Y61410D01*
X3590Y61619D01*
X3754Y61864D01*
X3867Y62137D01*
X3925Y62427D01*
Y62723D01*
X3867Y63013D01*
X3754Y63286D01*
X3590Y63531D01*
X3381Y63740D01*
X3136Y63904D01*
X2863Y64017D01*
X2573Y64075D01*
D02*
G37*
G36*
X6350Y61350D02*
X3650D01*
Y58650D01*
X6350D01*
Y61350D01*
D02*
G37*
G36*
X2573Y58925D02*
X2277D01*
X1987Y58867D01*
X1714Y58754D01*
X1469Y58590D01*
X1260Y58381D01*
X1096Y58136D01*
X983Y57863D01*
X925Y57573D01*
Y57277D01*
X983Y56987D01*
X1096Y56714D01*
X1260Y56469D01*
X1469Y56260D01*
X1714Y56096D01*
X1987Y55983D01*
X2277Y55925D01*
X2573D01*
X2863Y55983D01*
X3136Y56096D01*
X3381Y56260D01*
X3590Y56469D01*
X3754Y56714D01*
X3867Y56987D01*
X3925Y57277D01*
Y57573D01*
X3867Y57863D01*
X3754Y58136D01*
X3590Y58381D01*
X3381Y58590D01*
X3136Y58754D01*
X2863Y58867D01*
X2573Y58925D01*
D02*
G37*
G36*
X54086Y53400D02*
X53914D01*
X53749Y53356D01*
X53601Y53270D01*
X53480Y53149D01*
X53394Y53001D01*
X53350Y52836D01*
Y52664D01*
X53394Y52499D01*
X53480Y52351D01*
X53601Y52230D01*
X53749Y52144D01*
X53914Y52100D01*
X54086D01*
X54251Y52144D01*
X54399Y52230D01*
X54520Y52351D01*
X54606Y52499D01*
X54650Y52664D01*
Y52836D01*
X54606Y53001D01*
X54520Y53149D01*
X54399Y53270D01*
X54251Y53356D01*
X54086Y53400D01*
D02*
G37*
G36*
Y49400D02*
X53914D01*
X53749Y49356D01*
X53601Y49270D01*
X53480Y49149D01*
X53394Y49001D01*
X53350Y48836D01*
Y48664D01*
X53394Y48499D01*
X53480Y48351D01*
X53601Y48230D01*
X53749Y48144D01*
X53914Y48100D01*
X54086D01*
X54251Y48144D01*
X54399Y48230D01*
X54520Y48351D01*
X54606Y48499D01*
X54650Y48664D01*
Y48836D01*
X54606Y49001D01*
X54520Y49149D01*
X54399Y49270D01*
X54251Y49356D01*
X54086Y49400D01*
D02*
G37*
G36*
X57336Y48650D02*
X57164D01*
X56999Y48606D01*
X56851Y48520D01*
X56730Y48399D01*
X56644Y48251D01*
X56600Y48086D01*
Y47914D01*
X56644Y47749D01*
X56730Y47601D01*
X56851Y47480D01*
X56999Y47394D01*
X57164Y47350D01*
X57336D01*
X57501Y47394D01*
X57649Y47480D01*
X57770Y47601D01*
X57856Y47749D01*
X57900Y47914D01*
Y48086D01*
X57856Y48251D01*
X57770Y48399D01*
X57649Y48520D01*
X57501Y48606D01*
X57336Y48650D01*
D02*
G37*
G36*
X55586Y46150D02*
X55414D01*
X55249Y46106D01*
X55101Y46020D01*
X54980Y45899D01*
X54894Y45751D01*
X54850Y45586D01*
Y45414D01*
X54894Y45249D01*
X54980Y45101D01*
X55101Y44980D01*
X55249Y44894D01*
X55414Y44850D01*
X55586D01*
X55751Y44894D01*
X55899Y44980D01*
X56020Y45101D01*
X56106Y45249D01*
X56150Y45414D01*
Y45586D01*
X56106Y45751D01*
X56020Y45899D01*
X55899Y46020D01*
X55751Y46106D01*
X55586Y46150D01*
D02*
G37*
G36*
X54086D02*
X53914D01*
X53749Y46106D01*
X53601Y46020D01*
X53480Y45899D01*
X53394Y45751D01*
X53350Y45586D01*
Y45414D01*
X53394Y45249D01*
X53480Y45101D01*
X53601Y44980D01*
X53749Y44894D01*
X53914Y44850D01*
X54086D01*
X54251Y44894D01*
X54399Y44980D01*
X54520Y45101D01*
X54606Y45249D01*
X54650Y45414D01*
Y45586D01*
X54606Y45751D01*
X54520Y45899D01*
X54399Y46020D01*
X54251Y46106D01*
X54086Y46150D01*
D02*
G37*
G36*
X5086Y47900D02*
X4914D01*
X4749Y47856D01*
X4601Y47770D01*
X4480Y47649D01*
X4394Y47501D01*
X4350Y47336D01*
Y47199D01*
X3802Y46650D01*
X3710Y46513D01*
X3678Y46351D01*
Y42649D01*
X3710Y42487D01*
X3802Y42350D01*
X3850Y42301D01*
Y42164D01*
X3894Y41999D01*
X3980Y41851D01*
X4101Y41730D01*
X4249Y41644D01*
X4414Y41600D01*
X4586D01*
X4751Y41644D01*
X4899Y41730D01*
X5020Y41851D01*
X5106Y41999D01*
X5150Y42164D01*
Y42336D01*
X5106Y42501D01*
X5020Y42649D01*
X4899Y42770D01*
X4751Y42856D01*
X4586Y42900D01*
X4524D01*
Y44637D01*
X4651Y44701D01*
X4749Y44644D01*
X4914Y44600D01*
X5086D01*
X5251Y44644D01*
X5399Y44730D01*
X5520Y44851D01*
X5606Y44999D01*
X5650Y45164D01*
Y45336D01*
X5606Y45501D01*
X5520Y45649D01*
X5419Y45750D01*
X5520Y45851D01*
X5606Y45999D01*
X5650Y46164D01*
Y46336D01*
X5606Y46501D01*
X5520Y46649D01*
X5419Y46750D01*
X5520Y46851D01*
X5606Y46999D01*
X5650Y47164D01*
Y47336D01*
X5606Y47501D01*
X5520Y47649D01*
X5399Y47770D01*
X5251Y47856D01*
X5086Y47900D01*
D02*
G37*
G36*
X5586Y37400D02*
X5414D01*
X5249Y37356D01*
X5101Y37270D01*
X4980Y37149D01*
X4894Y37001D01*
X4850Y36836D01*
Y36664D01*
X4894Y36499D01*
X4980Y36351D01*
X5101Y36230D01*
X5249Y36144D01*
X5414Y36100D01*
X5586D01*
X5751Y36144D01*
X5899Y36230D01*
X6020Y36351D01*
X6106Y36499D01*
X6150Y36664D01*
Y36836D01*
X6106Y37001D01*
X6020Y37149D01*
X5899Y37270D01*
X5751Y37356D01*
X5586Y37400D01*
D02*
G37*
G36*
X53836Y37150D02*
X53664D01*
X53499Y37106D01*
X53351Y37020D01*
X53230Y36899D01*
X53144Y36751D01*
X53100Y36586D01*
Y36414D01*
X53144Y36249D01*
X53230Y36101D01*
X53351Y35980D01*
X53499Y35894D01*
X53664Y35850D01*
X53836D01*
X54001Y35894D01*
X54149Y35980D01*
X54270Y36101D01*
X54356Y36249D01*
X54400Y36414D01*
Y36586D01*
X54356Y36751D01*
X54270Y36899D01*
X54149Y37020D01*
X54001Y37106D01*
X53836Y37150D01*
D02*
G37*
G36*
X57286Y34900D02*
X57114D01*
X56949Y34856D01*
X56801Y34770D01*
X56680Y34649D01*
X56594Y34501D01*
X56550Y34336D01*
Y34164D01*
X56594Y33999D01*
X56680Y33851D01*
X56801Y33730D01*
X56949Y33644D01*
X57105Y33603D01*
X57100Y33586D01*
Y33414D01*
X57144Y33249D01*
X57230Y33101D01*
X57331Y33000D01*
X57230Y32899D01*
X57144Y32751D01*
X57100Y32586D01*
Y32414D01*
X57144Y32249D01*
X57230Y32101D01*
X57351Y31980D01*
X57499Y31894D01*
X57664Y31850D01*
X57836D01*
X58001Y31894D01*
X58149Y31980D01*
X58270Y32101D01*
X58356Y32249D01*
X58400Y32414D01*
Y32586D01*
X58356Y32751D01*
X58270Y32899D01*
X58169Y33000D01*
X58270Y33101D01*
X58356Y33249D01*
X58400Y33414D01*
Y33586D01*
X58356Y33751D01*
X58270Y33899D01*
X58149Y34020D01*
X58001Y34106D01*
X57845Y34147D01*
X57850Y34164D01*
Y34336D01*
X57806Y34501D01*
X57720Y34649D01*
X57599Y34770D01*
X57451Y34856D01*
X57286Y34900D01*
D02*
G37*
G36*
X2086Y32900D02*
X1914D01*
X1749Y32856D01*
X1601Y32770D01*
X1480Y32649D01*
X1394Y32501D01*
X1350Y32336D01*
Y32164D01*
X1394Y31999D01*
X1480Y31851D01*
X1601Y31730D01*
X1749Y31644D01*
X1914Y31600D01*
X2086D01*
X2251Y31644D01*
X2399Y31730D01*
X2520Y31851D01*
X2606Y31999D01*
X2650Y32164D01*
Y32336D01*
X2606Y32501D01*
X2520Y32649D01*
X2399Y32770D01*
X2251Y32856D01*
X2086Y32900D01*
D02*
G37*
G36*
X53836Y30150D02*
X53664D01*
X53499Y30106D01*
X53351Y30020D01*
X53230Y29899D01*
X53144Y29751D01*
X53100Y29586D01*
Y29414D01*
X53144Y29249D01*
X53230Y29101D01*
X53351Y28980D01*
X53499Y28894D01*
X53664Y28850D01*
X53836D01*
X54001Y28894D01*
X54149Y28980D01*
X54270Y29101D01*
X54356Y29249D01*
X54400Y29414D01*
Y29586D01*
X54356Y29751D01*
X54270Y29899D01*
X54149Y30020D01*
X54001Y30106D01*
X53836Y30150D01*
D02*
G37*
G36*
X2577Y27550D02*
X2223D01*
X1875Y27481D01*
X1547Y27345D01*
X1253Y27148D01*
X1002Y26897D01*
X805Y26603D01*
X669Y26275D01*
X600Y25927D01*
Y25573D01*
X669Y25225D01*
X805Y24897D01*
X1002Y24603D01*
X1253Y24352D01*
X1547Y24155D01*
X1875Y24019D01*
X2223Y23950D01*
X2577D01*
X2925Y24019D01*
X3253Y24155D01*
X3547Y24352D01*
X3798Y24603D01*
X3995Y24897D01*
X4131Y25225D01*
X4200Y25573D01*
Y25927D01*
X4131Y26275D01*
X3995Y26603D01*
X3798Y26897D01*
X3547Y27148D01*
X3253Y27345D01*
X2925Y27481D01*
X2577Y27550D01*
D02*
G37*
G36*
X57286Y25400D02*
X57114D01*
X56949Y25356D01*
X56801Y25270D01*
X56680Y25149D01*
X56594Y25001D01*
X56550Y24836D01*
Y24664D01*
X56594Y24499D01*
X56680Y24351D01*
X56801Y24230D01*
X56949Y24144D01*
X57105Y24103D01*
X57100Y24086D01*
Y23914D01*
X57144Y23749D01*
X57230Y23601D01*
X57331Y23500D01*
X57230Y23399D01*
X57144Y23251D01*
X57100Y23086D01*
Y22914D01*
X57144Y22749D01*
X57230Y22601D01*
X57351Y22480D01*
X57499Y22394D01*
X57664Y22350D01*
X57836D01*
X58001Y22394D01*
X58149Y22480D01*
X58270Y22601D01*
X58356Y22749D01*
X58400Y22914D01*
Y23086D01*
X58356Y23251D01*
X58270Y23399D01*
X58169Y23500D01*
X58270Y23601D01*
X58356Y23749D01*
X58400Y23914D01*
Y24086D01*
X58356Y24251D01*
X58270Y24399D01*
X58149Y24520D01*
X58001Y24606D01*
X57845Y24647D01*
X57850Y24664D01*
Y24836D01*
X57806Y25001D01*
X57720Y25149D01*
X57599Y25270D01*
X57451Y25356D01*
X57286Y25400D01*
D02*
G37*
G36*
X53836Y20650D02*
X53664D01*
X53499Y20606D01*
X53351Y20520D01*
X53230Y20399D01*
X53144Y20251D01*
X53100Y20086D01*
Y19914D01*
X53144Y19749D01*
X53230Y19601D01*
X53351Y19480D01*
X53499Y19394D01*
X53664Y19350D01*
X53836D01*
X54001Y19394D01*
X54149Y19480D01*
X54270Y19601D01*
X54356Y19749D01*
X54400Y19914D01*
Y20086D01*
X54356Y20251D01*
X54270Y20399D01*
X54149Y20520D01*
X54001Y20606D01*
X53836Y20650D01*
D02*
G37*
G36*
X7086Y20400D02*
X6914D01*
X6749Y20356D01*
X6601Y20270D01*
X6480Y20149D01*
X6394Y20001D01*
X6350Y19836D01*
Y19664D01*
X6394Y19499D01*
X6480Y19351D01*
X6601Y19230D01*
X6749Y19144D01*
X6914Y19100D01*
X7086D01*
X7251Y19144D01*
X7399Y19230D01*
X7520Y19351D01*
X7606Y19499D01*
X7650Y19664D01*
Y19836D01*
X7606Y20001D01*
X7520Y20149D01*
X7399Y20270D01*
X7251Y20356D01*
X7086Y20400D01*
D02*
G37*
G36*
X2577Y20050D02*
X2223D01*
X1875Y19981D01*
X1547Y19845D01*
X1253Y19648D01*
X1002Y19397D01*
X805Y19103D01*
X669Y18775D01*
X600Y18427D01*
Y18073D01*
X669Y17725D01*
X805Y17397D01*
X1002Y17103D01*
X1253Y16852D01*
X1547Y16655D01*
X1875Y16519D01*
X2223Y16450D01*
X2577D01*
X2925Y16519D01*
X3253Y16655D01*
X3547Y16852D01*
X3798Y17103D01*
X3995Y17397D01*
X4131Y17725D01*
X4200Y18073D01*
Y18427D01*
X4131Y18775D01*
X3995Y19103D01*
X3798Y19397D01*
X3547Y19648D01*
X3253Y19845D01*
X2925Y19981D01*
X2577Y20050D01*
D02*
G37*
G36*
X57286Y15900D02*
X57114D01*
X56949Y15855D01*
X56801Y15770D01*
X56680Y15649D01*
X56594Y15501D01*
X56550Y15335D01*
Y15164D01*
X56594Y14999D01*
X56680Y14851D01*
X56801Y14730D01*
X56949Y14644D01*
X57105Y14602D01*
X57100Y14585D01*
Y14414D01*
X57144Y14249D01*
X57230Y14101D01*
X57331Y14000D01*
X57230Y13899D01*
X57144Y13751D01*
X57100Y13585D01*
Y13414D01*
X57144Y13249D01*
X57230Y13101D01*
X57351Y12980D01*
X57499Y12894D01*
X57664Y12850D01*
X57836D01*
X58001Y12894D01*
X58149Y12980D01*
X58270Y13101D01*
X58356Y13249D01*
X58400Y13414D01*
Y13585D01*
X58356Y13751D01*
X58270Y13899D01*
X58169Y14000D01*
X58270Y14101D01*
X58356Y14249D01*
X58400Y14414D01*
Y14585D01*
X58356Y14751D01*
X58270Y14899D01*
X58149Y15020D01*
X58001Y15105D01*
X57845Y15147D01*
X57850Y15164D01*
Y15335D01*
X57806Y15501D01*
X57720Y15649D01*
X57599Y15770D01*
X57451Y15855D01*
X57286Y15900D01*
D02*
G37*
G36*
X4836Y13900D02*
X4664D01*
X4499Y13856D01*
X4351Y13770D01*
X4230Y13649D01*
X4144Y13501D01*
X4100Y13336D01*
Y13164D01*
X4144Y12999D01*
X4230Y12851D01*
X4351Y12730D01*
X4499Y12644D01*
X4664Y12600D01*
X4836D01*
X5001Y12644D01*
X5149Y12730D01*
X5270Y12851D01*
X5356Y12999D01*
X5400Y13164D01*
Y13336D01*
X5356Y13501D01*
X5270Y13649D01*
X5149Y13770D01*
X5001Y13856D01*
X4836Y13900D01*
D02*
G37*
G36*
X53836Y11150D02*
X53664D01*
X53499Y11105D01*
X53351Y11020D01*
X53230Y10899D01*
X53144Y10751D01*
X53100Y10585D01*
Y10414D01*
X53144Y10249D01*
X53230Y10101D01*
X53351Y9980D01*
X53499Y9894D01*
X53664Y9850D01*
X53836D01*
X54001Y9894D01*
X54149Y9980D01*
X54270Y10101D01*
X54356Y10249D01*
X54400Y10414D01*
Y10585D01*
X54356Y10751D01*
X54270Y10899D01*
X54149Y11020D01*
X54001Y11105D01*
X53836Y11150D01*
D02*
G37*
G36*
X4086Y9400D02*
X3914D01*
X3749Y9356D01*
X3601Y9270D01*
X3480Y9149D01*
X3394Y9001D01*
X3350Y8836D01*
Y8664D01*
X3394Y8499D01*
X3480Y8351D01*
X3601Y8230D01*
X3749Y8144D01*
X3914Y8100D01*
X4086D01*
X4251Y8144D01*
X4399Y8230D01*
X4520Y8351D01*
X4606Y8499D01*
X4650Y8664D01*
Y8836D01*
X4606Y9001D01*
X4520Y9149D01*
X4399Y9270D01*
X4251Y9356D01*
X4086Y9400D01*
D02*
G37*
G36*
X38586Y6400D02*
X38414D01*
X38249Y6356D01*
X38101Y6270D01*
X38000Y6169D01*
X37899Y6270D01*
X37751Y6356D01*
X37586Y6400D01*
X37414D01*
X37249Y6356D01*
X37101Y6270D01*
X36980Y6149D01*
X36894Y6001D01*
X36850Y5836D01*
Y5664D01*
X36894Y5499D01*
X36980Y5351D01*
X37101Y5230D01*
X37249Y5144D01*
X37414Y5100D01*
X37586D01*
X37751Y5144D01*
X37899Y5230D01*
X38000Y5331D01*
X38101Y5230D01*
X38249Y5144D01*
X38414Y5100D01*
X38586D01*
X38751Y5144D01*
X38899Y5230D01*
X39020Y5351D01*
X39106Y5499D01*
X39150Y5664D01*
Y5836D01*
X39106Y6001D01*
X39020Y6149D01*
X38899Y6270D01*
X38751Y6356D01*
X38586Y6400D01*
D02*
G37*
G36*
X34336Y7425D02*
X34164D01*
X33999Y7380D01*
X33851Y7295D01*
X33730Y7174D01*
X33644Y7026D01*
X33600Y6860D01*
Y6689D01*
X33644Y6524D01*
X33730Y6376D01*
X33851Y6255D01*
X33999Y6169D01*
X34164Y6125D01*
X34336D01*
X34501Y6169D01*
X34649Y6255D01*
X34770Y6376D01*
X34856Y6524D01*
X34900Y6689D01*
Y6860D01*
X34856Y7026D01*
X34770Y7174D01*
X34649Y7295D01*
X34501Y7380D01*
X34336Y7425D01*
D02*
G37*
G36*
X46336Y4650D02*
X46164D01*
X45999Y4606D01*
X45851Y4520D01*
X45730Y4399D01*
X45644Y4251D01*
X45600Y4086D01*
Y3914D01*
X45644Y3749D01*
X45730Y3601D01*
X45851Y3480D01*
X45999Y3394D01*
X46164Y3350D01*
X46336D01*
X46501Y3394D01*
X46649Y3480D01*
X46770Y3601D01*
X46856Y3749D01*
X46900Y3914D01*
Y4086D01*
X46856Y4251D01*
X46770Y4399D01*
X46649Y4520D01*
X46501Y4606D01*
X46336Y4650D01*
D02*
G37*
G36*
X16001Y5800D02*
X15659D01*
X15328Y5711D01*
X15032Y5540D01*
X14790Y5298D01*
X14619Y5002D01*
X14530Y4671D01*
Y4329D01*
X14619Y3998D01*
X14790Y3702D01*
X15032Y3460D01*
X15328Y3289D01*
X15659Y3200D01*
X16001D01*
X16332Y3289D01*
X16628Y3460D01*
X16870Y3702D01*
X17041Y3998D01*
X17130Y4329D01*
Y4671D01*
X17041Y5002D01*
X16870Y5298D01*
X16628Y5540D01*
X16332Y5711D01*
X16001Y5800D01*
D02*
G37*
G36*
X10921D02*
X10579D01*
X10248Y5711D01*
X9952Y5540D01*
X9710Y5298D01*
X9539Y5002D01*
X9450Y4671D01*
Y4329D01*
X9539Y3998D01*
X9710Y3702D01*
X9952Y3460D01*
X10248Y3289D01*
X10579Y3200D01*
X10921D01*
X11252Y3289D01*
X11548Y3460D01*
X11790Y3702D01*
X11961Y3998D01*
X12050Y4329D01*
Y4671D01*
X11961Y5002D01*
X11790Y5298D01*
X11548Y5540D01*
X11252Y5711D01*
X10921Y5800D01*
D02*
G37*
G36*
X26638Y4050D02*
X26362D01*
X26095Y3978D01*
X25855Y3840D01*
X25660Y3645D01*
X25522Y3405D01*
X25450Y3138D01*
Y2862D01*
X25522Y2595D01*
X25660Y2355D01*
X25855Y2160D01*
X26095Y2022D01*
X26362Y1950D01*
X26638D01*
X26905Y2022D01*
X27145Y2160D01*
X27340Y2355D01*
X27478Y2595D01*
X27550Y2862D01*
Y3138D01*
X27478Y3405D01*
X27340Y3645D01*
X27145Y3840D01*
X26905Y3978D01*
X26638Y4050D01*
D02*
G37*
G36*
X25010D02*
X22910D01*
Y1950D01*
X25010D01*
Y4050D01*
D02*
G37*
G36*
X21558D02*
X21282D01*
X21015Y3978D01*
X20775Y3840D01*
X20580Y3645D01*
X20442Y3405D01*
X20370Y3138D01*
Y2862D01*
X20442Y2595D01*
X20580Y2355D01*
X20775Y2160D01*
X21015Y2022D01*
X21282Y1950D01*
X21558D01*
X21825Y2022D01*
X22065Y2160D01*
X22260Y2355D01*
X22398Y2595D01*
X22470Y2862D01*
Y3138D01*
X22398Y3405D01*
X22260Y3645D01*
X22065Y3840D01*
X21825Y3978D01*
X21558Y4050D01*
D02*
G37*
G36*
X38586Y1900D02*
X38414D01*
X38249Y1856D01*
X38101Y1770D01*
X38000Y1669D01*
X37899Y1770D01*
X37751Y1856D01*
X37586Y1900D01*
X37414D01*
X37249Y1856D01*
X37101Y1770D01*
X36980Y1649D01*
X36894Y1501D01*
X36850Y1336D01*
Y1164D01*
X36894Y999D01*
X36980Y851D01*
X37101Y730D01*
X37249Y644D01*
X37414Y600D01*
X37586D01*
X37751Y644D01*
X37899Y730D01*
X38000Y831D01*
X38101Y730D01*
X38249Y644D01*
X38414Y600D01*
X38586D01*
X38751Y644D01*
X38899Y730D01*
X39020Y851D01*
X39106Y999D01*
X39150Y1164D01*
Y1336D01*
X39106Y1501D01*
X39020Y1649D01*
X38899Y1770D01*
X38751Y1856D01*
X38586Y1900D01*
D02*
G37*
G36*
X32086Y2900D02*
X31914D01*
X31749Y2856D01*
X31601Y2770D01*
X31480Y2649D01*
X31394Y2501D01*
X31350Y2336D01*
Y2164D01*
X31394Y1999D01*
X31480Y1851D01*
X31601Y1730D01*
X31749Y1644D01*
X31914Y1600D01*
X32086D01*
X32251Y1644D01*
X32399Y1730D01*
X32520Y1851D01*
X32606Y1999D01*
X32650Y2164D01*
Y2336D01*
X32606Y2501D01*
X32520Y2649D01*
X32399Y2770D01*
X32251Y2856D01*
X32086Y2900D01*
D02*
G37*
G36*
X42086Y1900D02*
X41914D01*
X41749Y1856D01*
X41601Y1770D01*
X41480Y1649D01*
X41394Y1501D01*
X41350Y1336D01*
Y1164D01*
X41394Y999D01*
X41480Y851D01*
X41601Y730D01*
X41749Y644D01*
X41914Y600D01*
X42086D01*
X42251Y644D01*
X42399Y730D01*
X42520Y851D01*
X42606Y999D01*
X42650Y1164D01*
Y1336D01*
X42606Y1501D01*
X42520Y1649D01*
X42399Y1770D01*
X42251Y1856D01*
X42086Y1900D01*
D02*
G37*
G36*
X45145Y96100D02*
X44855D01*
X44575Y96025D01*
X44325Y95880D01*
X44120Y95675D01*
X43975Y95425D01*
X43900Y95145D01*
Y94855D01*
X43975Y94575D01*
X44120Y94325D01*
X44325Y94120D01*
X44575Y93975D01*
X44855Y93900D01*
X45145D01*
X45425Y93975D01*
X45675Y94120D01*
X45880Y94325D01*
X46025Y94575D01*
X46100Y94855D01*
Y95145D01*
X46025Y95425D01*
X45880Y95675D01*
X45675Y95880D01*
X45425Y96025D01*
X45145Y96100D01*
D02*
G37*
G36*
X37145D02*
X36855D01*
X36575Y96025D01*
X36325Y95880D01*
X36120Y95675D01*
X35975Y95425D01*
X35900Y95145D01*
Y94855D01*
X35975Y94575D01*
X36120Y94325D01*
X36325Y94120D01*
X36575Y93975D01*
X36855Y93900D01*
X37145D01*
X37425Y93975D01*
X37675Y94120D01*
X37880Y94325D01*
X38025Y94575D01*
X38100Y94855D01*
Y95145D01*
X38025Y95425D01*
X37880Y95675D01*
X37675Y95880D01*
X37425Y96025D01*
X37145Y96100D01*
D02*
G37*
G36*
X29145D02*
X28855D01*
X28575Y96025D01*
X28325Y95880D01*
X28120Y95675D01*
X27975Y95425D01*
X27900Y95145D01*
Y94855D01*
X27975Y94575D01*
X28120Y94325D01*
X28325Y94120D01*
X28575Y93975D01*
X28855Y93900D01*
X29145D01*
X29425Y93975D01*
X29675Y94120D01*
X29880Y94325D01*
X30025Y94575D01*
X30100Y94855D01*
Y95145D01*
X30025Y95425D01*
X29880Y95675D01*
X29675Y95880D01*
X29425Y96025D01*
X29145Y96100D01*
D02*
G37*
G36*
X49586Y95150D02*
X49414D01*
X49249Y95106D01*
X49101Y95020D01*
X48980Y94899D01*
X48894Y94751D01*
X48850Y94586D01*
Y94414D01*
X48894Y94249D01*
X48980Y94101D01*
X49101Y93980D01*
X49249Y93894D01*
X49414Y93850D01*
X49586D01*
X49751Y93894D01*
X49899Y93980D01*
X50020Y94101D01*
X50106Y94249D01*
X50150Y94414D01*
Y94586D01*
X50106Y94751D01*
X50020Y94899D01*
X49899Y95020D01*
X49751Y95106D01*
X49586Y95150D01*
D02*
G37*
G36*
X46836Y93650D02*
X46664D01*
X46499Y93606D01*
X46351Y93520D01*
X46230Y93399D01*
X46144Y93251D01*
X46100Y93086D01*
Y92914D01*
X46144Y92749D01*
X46230Y92601D01*
X46351Y92480D01*
X46499Y92394D01*
X46664Y92350D01*
X46836D01*
X47001Y92394D01*
X47149Y92480D01*
X47270Y92601D01*
X47356Y92749D01*
X47400Y92914D01*
Y93086D01*
X47356Y93251D01*
X47270Y93399D01*
X47149Y93520D01*
X47001Y93606D01*
X46836Y93650D01*
D02*
G37*
G36*
X42836D02*
X42664D01*
X42499Y93606D01*
X42351Y93520D01*
X42230Y93399D01*
X42144Y93251D01*
X42100Y93086D01*
Y92914D01*
X42144Y92749D01*
X42230Y92601D01*
X42351Y92480D01*
X42499Y92394D01*
X42664Y92350D01*
X42836D01*
X43001Y92394D01*
X43149Y92480D01*
X43270Y92601D01*
X43356Y92749D01*
X43400Y92914D01*
Y93086D01*
X43356Y93251D01*
X43270Y93399D01*
X43149Y93520D01*
X43001Y93606D01*
X42836Y93650D01*
D02*
G37*
G36*
X39086D02*
X38914D01*
X38749Y93606D01*
X38601Y93520D01*
X38480Y93399D01*
X38394Y93251D01*
X38350Y93086D01*
Y92914D01*
X38394Y92749D01*
X38480Y92601D01*
X38601Y92480D01*
X38749Y92394D01*
X38914Y92350D01*
X39086D01*
X39251Y92394D01*
X39399Y92480D01*
X39520Y92601D01*
X39606Y92749D01*
X39650Y92914D01*
Y93086D01*
X39606Y93251D01*
X39520Y93399D01*
X39399Y93520D01*
X39251Y93606D01*
X39086Y93650D01*
D02*
G37*
G36*
X34836D02*
X34664D01*
X34499Y93606D01*
X34351Y93520D01*
X34230Y93399D01*
X34144Y93251D01*
X34100Y93086D01*
Y92914D01*
X34144Y92749D01*
X34230Y92601D01*
X34351Y92480D01*
X34499Y92394D01*
X34664Y92350D01*
X34836D01*
X35001Y92394D01*
X35149Y92480D01*
X35270Y92601D01*
X35356Y92749D01*
X35400Y92914D01*
Y93086D01*
X35356Y93251D01*
X35270Y93399D01*
X35149Y93520D01*
X35001Y93606D01*
X34836Y93650D01*
D02*
G37*
G36*
X31336D02*
X31164D01*
X30999Y93606D01*
X30851Y93520D01*
X30730Y93399D01*
X30644Y93251D01*
X30600Y93086D01*
Y92914D01*
X30644Y92749D01*
X30730Y92601D01*
X30851Y92480D01*
X30999Y92394D01*
X31164Y92350D01*
X31336D01*
X31501Y92394D01*
X31649Y92480D01*
X31770Y92601D01*
X31856Y92749D01*
X31900Y92914D01*
Y93086D01*
X31856Y93251D01*
X31770Y93399D01*
X31649Y93520D01*
X31501Y93606D01*
X31336Y93650D01*
D02*
G37*
G36*
X26836D02*
X26664D01*
X26499Y93606D01*
X26351Y93520D01*
X26230Y93399D01*
X26144Y93251D01*
X26100Y93086D01*
Y92914D01*
X26144Y92749D01*
X26230Y92601D01*
X26351Y92480D01*
X26499Y92394D01*
X26664Y92350D01*
X26836D01*
X27001Y92394D01*
X27149Y92480D01*
X27270Y92601D01*
X27356Y92749D01*
X27400Y92914D01*
Y93086D01*
X27356Y93251D01*
X27270Y93399D01*
X27149Y93520D01*
X27001Y93606D01*
X26836Y93650D01*
D02*
G37*
G36*
X49836Y92650D02*
X49664D01*
X49499Y92606D01*
X49351Y92520D01*
X49230Y92399D01*
X49144Y92251D01*
X49100Y92086D01*
Y91914D01*
X49144Y91749D01*
X49230Y91601D01*
X49351Y91480D01*
X49499Y91394D01*
X49664Y91350D01*
X49836D01*
X50001Y91394D01*
X50149Y91480D01*
X50270Y91601D01*
X50356Y91749D01*
X50400Y91914D01*
Y92086D01*
X50356Y92251D01*
X50270Y92399D01*
X50149Y92520D01*
X50001Y92606D01*
X49836Y92650D01*
D02*
G37*
G36*
Y90650D02*
X49664D01*
X49499Y90606D01*
X49351Y90520D01*
X49230Y90399D01*
X49144Y90251D01*
X49100Y90086D01*
Y89914D01*
X49144Y89749D01*
X49230Y89601D01*
X49351Y89480D01*
X49499Y89394D01*
X49664Y89350D01*
X49836D01*
X50001Y89394D01*
X50149Y89480D01*
X50270Y89601D01*
X50356Y89749D01*
X50400Y89914D01*
Y90086D01*
X50356Y90251D01*
X50270Y90399D01*
X50149Y90520D01*
X50001Y90606D01*
X49836Y90650D01*
D02*
G37*
G36*
X45138Y90050D02*
X44862D01*
X44595Y89978D01*
X44355Y89840D01*
X44160Y89645D01*
X44022Y89405D01*
X43950Y89138D01*
Y88862D01*
X44022Y88595D01*
X44160Y88355D01*
X44355Y88160D01*
X44595Y88022D01*
X44862Y87950D01*
X45138D01*
X45405Y88022D01*
X45645Y88160D01*
X45840Y88355D01*
X45978Y88595D01*
X46050Y88862D01*
Y89138D01*
X45978Y89405D01*
X45840Y89645D01*
X45645Y89840D01*
X45405Y89978D01*
X45138Y90050D01*
D02*
G37*
G36*
X37138D02*
X36862D01*
X36595Y89978D01*
X36355Y89840D01*
X36160Y89645D01*
X36022Y89405D01*
X35950Y89138D01*
Y88862D01*
X36022Y88595D01*
X36160Y88355D01*
X36355Y88160D01*
X36595Y88022D01*
X36862Y87950D01*
X37138D01*
X37405Y88022D01*
X37645Y88160D01*
X37840Y88355D01*
X37978Y88595D01*
X38050Y88862D01*
Y89138D01*
X37978Y89405D01*
X37840Y89645D01*
X37645Y89840D01*
X37405Y89978D01*
X37138Y90050D01*
D02*
G37*
G36*
X29138D02*
X28862D01*
X28595Y89978D01*
X28355Y89840D01*
X28160Y89645D01*
X28022Y89405D01*
X27950Y89138D01*
Y88862D01*
X28022Y88595D01*
X28160Y88355D01*
X28355Y88160D01*
X28595Y88022D01*
X28862Y87950D01*
X29138D01*
X29405Y88022D01*
X29645Y88160D01*
X29840Y88355D01*
X29978Y88595D01*
X30050Y88862D01*
Y89138D01*
X29978Y89405D01*
X29840Y89645D01*
X29645Y89840D01*
X29405Y89978D01*
X29138Y90050D01*
D02*
G37*
G36*
X49586Y88650D02*
X49414D01*
X49249Y88606D01*
X49101Y88520D01*
X48980Y88399D01*
X48894Y88251D01*
X48850Y88086D01*
Y87914D01*
X48894Y87749D01*
X48980Y87601D01*
X49101Y87480D01*
X49249Y87394D01*
X49414Y87350D01*
X49586D01*
X49751Y87394D01*
X49899Y87480D01*
X50020Y87601D01*
X50106Y87749D01*
X50150Y87914D01*
Y88086D01*
X50106Y88251D01*
X50020Y88399D01*
X49899Y88520D01*
X49751Y88606D01*
X49586Y88650D01*
D02*
G37*
G36*
X49693Y81912D02*
X49387D01*
X49091Y81833D01*
X48826Y81680D01*
X48610Y81464D01*
X48457Y81199D01*
X48377Y80903D01*
Y80597D01*
X48457Y80301D01*
X48610Y80036D01*
X48826Y79820D01*
X49091Y79667D01*
X49387Y79588D01*
X49693D01*
X49989Y79667D01*
X50254Y79820D01*
X50470Y80036D01*
X50623Y80301D01*
X50702Y80597D01*
Y80903D01*
X50623Y81199D01*
X50470Y81464D01*
X50254Y81680D01*
X49989Y81833D01*
X49693Y81912D01*
D02*
G37*
G36*
X47153D02*
X46847D01*
X46551Y81833D01*
X46286Y81680D01*
X46070Y81464D01*
X45917Y81199D01*
X45838Y80903D01*
Y80597D01*
X45917Y80301D01*
X46070Y80036D01*
X46286Y79820D01*
X46551Y79667D01*
X46847Y79588D01*
X47153D01*
X47449Y79667D01*
X47714Y79820D01*
X47930Y80036D01*
X48083Y80301D01*
X48162Y80597D01*
Y80903D01*
X48083Y81199D01*
X47930Y81464D01*
X47714Y81680D01*
X47449Y81833D01*
X47153Y81912D01*
D02*
G37*
G36*
X44613D02*
X44307D01*
X44011Y81833D01*
X43746Y81680D01*
X43530Y81464D01*
X43377Y81199D01*
X43298Y80903D01*
Y80597D01*
X43377Y80301D01*
X43530Y80036D01*
X43746Y79820D01*
X44011Y79667D01*
X44307Y79588D01*
X44613D01*
X44909Y79667D01*
X45174Y79820D01*
X45390Y80036D01*
X45543Y80301D01*
X45623Y80597D01*
Y80903D01*
X45543Y81199D01*
X45390Y81464D01*
X45174Y81680D01*
X44909Y81833D01*
X44613Y81912D01*
D02*
G37*
G36*
X49836Y76650D02*
X49664D01*
X49499Y76606D01*
X49351Y76520D01*
X49230Y76399D01*
X49144Y76251D01*
X49100Y76086D01*
Y75914D01*
X49144Y75749D01*
X49230Y75601D01*
X49351Y75480D01*
X49499Y75394D01*
X49664Y75350D01*
X49836D01*
X50001Y75394D01*
X50149Y75480D01*
X50270Y75601D01*
X50356Y75749D01*
X50400Y75914D01*
Y76086D01*
X50356Y76251D01*
X50270Y76399D01*
X50149Y76520D01*
X50001Y76606D01*
X49836Y76650D01*
D02*
G37*
G36*
X46086Y76650D02*
X45914D01*
X45749Y76606D01*
X45601Y76520D01*
X45480Y76399D01*
X45394Y76251D01*
X45350Y76086D01*
Y75914D01*
X45394Y75749D01*
X45480Y75601D01*
X45601Y75480D01*
X45749Y75394D01*
X45914Y75350D01*
X46086D01*
X46251Y75394D01*
X46399Y75480D01*
X46520Y75601D01*
X46606Y75749D01*
X46650Y75914D01*
Y76086D01*
X46606Y76251D01*
X46520Y76399D01*
X46399Y76520D01*
X46251Y76606D01*
X46086Y76650D01*
D02*
G37*
G36*
X44086D02*
X43914D01*
X43749Y76606D01*
X43601Y76520D01*
X43480Y76399D01*
X43394Y76251D01*
X43350Y76086D01*
Y75914D01*
X43394Y75749D01*
X43480Y75601D01*
X43601Y75480D01*
X43749Y75394D01*
X43914Y75350D01*
X44086D01*
X44251Y75394D01*
X44399Y75480D01*
X44520Y75601D01*
X44606Y75749D01*
X44650Y75914D01*
Y76086D01*
X44606Y76251D01*
X44520Y76399D01*
X44399Y76520D01*
X44251Y76606D01*
X44086Y76650D01*
D02*
G37*
G36*
X42086D02*
X41914D01*
X41749Y76606D01*
X41601Y76520D01*
X41480Y76399D01*
X41394Y76251D01*
X41350Y76086D01*
Y75914D01*
X41394Y75749D01*
X41480Y75601D01*
X41601Y75480D01*
X41749Y75394D01*
X41914Y75350D01*
X42086D01*
X42251Y75394D01*
X42399Y75480D01*
X42520Y75601D01*
X42606Y75749D01*
X42650Y75914D01*
Y76086D01*
X42606Y76251D01*
X42520Y76399D01*
X42399Y76520D01*
X42251Y76606D01*
X42086Y76650D01*
D02*
G37*
G36*
X40086D02*
X39915D01*
X39750Y76606D01*
X39601Y76520D01*
X39480Y76399D01*
X39395Y76251D01*
X39350Y76086D01*
Y75914D01*
X39395Y75749D01*
X39480Y75601D01*
X39601Y75480D01*
X39750Y75394D01*
X39915Y75350D01*
X40086D01*
X40251Y75394D01*
X40400Y75480D01*
X40521Y75601D01*
X40606Y75749D01*
X40650Y75914D01*
Y76086D01*
X40606Y76251D01*
X40521Y76399D01*
X40400Y76520D01*
X40251Y76606D01*
X40086Y76650D01*
D02*
G37*
G36*
X49836Y72900D02*
X49664D01*
X49499Y72856D01*
X49351Y72770D01*
X49230Y72649D01*
X49144Y72501D01*
X49100Y72336D01*
Y72164D01*
X49144Y71999D01*
X49230Y71851D01*
X49351Y71730D01*
X49499Y71644D01*
X49664Y71600D01*
X49836D01*
X50001Y71644D01*
X50149Y71730D01*
X50270Y71851D01*
X50356Y71999D01*
X50400Y72164D01*
Y72336D01*
X50356Y72501D01*
X50270Y72649D01*
X50149Y72770D01*
X50001Y72856D01*
X49836Y72900D01*
D02*
G37*
G36*
X44086Y72400D02*
X43914D01*
X43749Y72356D01*
X43601Y72270D01*
X43480Y72149D01*
X43394Y72001D01*
X43350Y71836D01*
Y71664D01*
X43394Y71499D01*
X43480Y71351D01*
X43601Y71230D01*
X43749Y71144D01*
X43914Y71100D01*
X44086D01*
X44251Y71144D01*
X44399Y71230D01*
X44520Y71351D01*
X44606Y71499D01*
X44650Y71664D01*
Y71836D01*
X44606Y72001D01*
X44520Y72149D01*
X44399Y72270D01*
X44251Y72356D01*
X44086Y72400D01*
D02*
G37*
G36*
X42086D02*
X41914D01*
X41749Y72356D01*
X41601Y72270D01*
X41480Y72149D01*
X41394Y72001D01*
X41350Y71836D01*
Y71664D01*
X41394Y71499D01*
X41480Y71351D01*
X41601Y71230D01*
X41749Y71144D01*
X41914Y71100D01*
X42086D01*
X42251Y71144D01*
X42399Y71230D01*
X42520Y71351D01*
X42606Y71499D01*
X42650Y71664D01*
Y71836D01*
X42606Y72001D01*
X42520Y72149D01*
X42399Y72270D01*
X42251Y72356D01*
X42086Y72400D01*
D02*
G37*
G36*
X40086D02*
X39914D01*
X39749Y72356D01*
X39601Y72270D01*
X39480Y72149D01*
X39394Y72001D01*
X39350Y71836D01*
Y71664D01*
X39394Y71499D01*
X39480Y71351D01*
X39601Y71230D01*
X39749Y71144D01*
X39914Y71100D01*
X40086D01*
X40251Y71144D01*
X40399Y71230D01*
X40520Y71351D01*
X40606Y71499D01*
X40650Y71664D01*
Y71836D01*
X40606Y72001D01*
X40520Y72149D01*
X40399Y72270D01*
X40251Y72356D01*
X40086Y72400D01*
D02*
G37*
G36*
X46086D02*
X45914D01*
X45749Y72356D01*
X45601Y72270D01*
X45480Y72149D01*
X45394Y72001D01*
X45350Y71836D01*
Y71664D01*
X45394Y71499D01*
X45480Y71351D01*
X45601Y71230D01*
X45656Y71198D01*
Y71052D01*
X45601Y71020D01*
X45480Y70899D01*
X45394Y70751D01*
X45350Y70586D01*
Y70414D01*
X45394Y70249D01*
X45480Y70101D01*
X45601Y69980D01*
X45749Y69894D01*
X45914Y69850D01*
X46086D01*
X46251Y69894D01*
X46399Y69980D01*
X46520Y70101D01*
X46606Y70249D01*
X46650Y70414D01*
Y70586D01*
X46606Y70751D01*
X46520Y70899D01*
X46399Y71020D01*
X46344Y71052D01*
Y71198D01*
X46399Y71230D01*
X46520Y71351D01*
X46606Y71499D01*
X46650Y71664D01*
Y71836D01*
X46606Y72001D01*
X46520Y72149D01*
X46399Y72270D01*
X46251Y72356D01*
X46086Y72400D01*
D02*
G37*
G36*
X41336Y65650D02*
X41164D01*
X40999Y65606D01*
X40851Y65520D01*
X40730Y65399D01*
X40644Y65251D01*
X40600Y65086D01*
Y64914D01*
X40644Y64749D01*
X40730Y64601D01*
X40851Y64480D01*
X40999Y64394D01*
X41164Y64350D01*
X41336D01*
X41501Y64394D01*
X41649Y64480D01*
X41770Y64601D01*
X41856Y64749D01*
X41900Y64914D01*
Y65086D01*
X41856Y65251D01*
X41770Y65399D01*
X41649Y65520D01*
X41501Y65606D01*
X41336Y65650D01*
D02*
G37*
G36*
X44336Y63900D02*
X44164D01*
X43999Y63856D01*
X43851Y63770D01*
X43730Y63649D01*
X43644Y63501D01*
X43600Y63336D01*
Y63164D01*
X43644Y62999D01*
X43730Y62851D01*
X43851Y62730D01*
X43999Y62644D01*
X44164Y62600D01*
X44336D01*
X44501Y62644D01*
X44649Y62730D01*
X44770Y62851D01*
X44856Y62999D01*
X44900Y63164D01*
Y63336D01*
X44856Y63501D01*
X44770Y63649D01*
X44649Y63770D01*
X44501Y63856D01*
X44336Y63900D01*
D02*
G37*
G36*
X47586Y61900D02*
X47414D01*
X47249Y61856D01*
X47101Y61770D01*
X47000Y61669D01*
X46899Y61770D01*
X46751Y61856D01*
X46586Y61900D01*
X46414D01*
X46249Y61856D01*
X46101Y61770D01*
X45980Y61649D01*
X45894Y61501D01*
X45850Y61336D01*
Y61164D01*
X45894Y60999D01*
X45980Y60851D01*
X46101Y60730D01*
X46249Y60644D01*
X46414Y60600D01*
X46586D01*
X46751Y60644D01*
X46899Y60730D01*
X47000Y60831D01*
X47101Y60730D01*
X47249Y60644D01*
X47414Y60600D01*
X47586D01*
X47751Y60644D01*
X47899Y60730D01*
X48020Y60851D01*
X48106Y60999D01*
X48150Y61164D01*
Y61336D01*
X48106Y61501D01*
X48020Y61649D01*
X47899Y61770D01*
X47751Y61856D01*
X47586Y61900D01*
D02*
G37*
G36*
X50336Y60900D02*
X50164D01*
X49999Y60856D01*
X49851Y60770D01*
X49730Y60649D01*
X49644Y60501D01*
X49600Y60336D01*
Y60164D01*
X49644Y59999D01*
X49730Y59851D01*
X49851Y59730D01*
X49999Y59644D01*
X50164Y59600D01*
X50336D01*
X50501Y59644D01*
X50649Y59730D01*
X50770Y59851D01*
X50856Y59999D01*
X50900Y60164D01*
Y60336D01*
X50856Y60501D01*
X50770Y60649D01*
X50649Y60770D01*
X50501Y60856D01*
X50336Y60900D01*
D02*
G37*
G36*
X49086Y58400D02*
X48914D01*
X48749Y58356D01*
X48601Y58270D01*
X48480Y58149D01*
X48394Y58001D01*
X48350Y57836D01*
Y57664D01*
X48394Y57499D01*
X48480Y57351D01*
X48601Y57230D01*
X48749Y57144D01*
X48914Y57100D01*
X49086D01*
X49251Y57144D01*
X49399Y57230D01*
X49520Y57351D01*
X49606Y57499D01*
X49650Y57664D01*
Y57836D01*
X49606Y58001D01*
X49520Y58149D01*
X49399Y58270D01*
X49251Y58356D01*
X49086Y58400D01*
D02*
G37*
G36*
X50336Y53400D02*
X50164D01*
X49999Y53356D01*
X49851Y53270D01*
X49730Y53149D01*
X49644Y53001D01*
X49600Y52836D01*
Y52664D01*
X49644Y52499D01*
X49730Y52351D01*
X49851Y52230D01*
X49999Y52144D01*
X50164Y52100D01*
X50336D01*
X50501Y52144D01*
X50649Y52230D01*
X50770Y52351D01*
X50856Y52499D01*
X50900Y52664D01*
Y52836D01*
X50856Y53001D01*
X50770Y53149D01*
X50649Y53270D01*
X50501Y53356D01*
X50336Y53400D01*
D02*
G37*
G36*
Y50900D02*
X50164D01*
X49999Y50856D01*
X49851Y50770D01*
X49730Y50649D01*
X49644Y50501D01*
X49600Y50336D01*
Y50164D01*
X49644Y49999D01*
X49730Y49851D01*
X49851Y49730D01*
X49999Y49644D01*
X50164Y49600D01*
X50336D01*
X50501Y49644D01*
X50649Y49730D01*
X50770Y49851D01*
X50856Y49999D01*
X50900Y50164D01*
Y50336D01*
X50856Y50501D01*
X50770Y50649D01*
X50649Y50770D01*
X50501Y50856D01*
X50336Y50900D01*
D02*
G37*
G36*
X46086Y49650D02*
X45914D01*
X45749Y49606D01*
X45601Y49520D01*
X45480Y49399D01*
X45394Y49251D01*
X45350Y49086D01*
Y48914D01*
X45394Y48749D01*
X45480Y48601D01*
X45601Y48480D01*
X45749Y48394D01*
X45914Y48350D01*
X46086D01*
X46251Y48394D01*
X46399Y48480D01*
X46520Y48601D01*
X46606Y48749D01*
X46650Y48914D01*
Y49086D01*
X46606Y49251D01*
X46520Y49399D01*
X46399Y49520D01*
X46251Y49606D01*
X46086Y49650D01*
D02*
G37*
G36*
Y45650D02*
X45914D01*
X45749Y45606D01*
X45601Y45520D01*
X45480Y45399D01*
X45394Y45251D01*
X45350Y45086D01*
Y44914D01*
X45394Y44749D01*
X45480Y44601D01*
X45601Y44480D01*
X45749Y44394D01*
X45914Y44350D01*
X46086D01*
X46251Y44394D01*
X46399Y44480D01*
X46520Y44601D01*
X46606Y44749D01*
X46650Y44914D01*
Y45086D01*
X46606Y45251D01*
X46520Y45399D01*
X46399Y45520D01*
X46251Y45606D01*
X46086Y45650D01*
D02*
G37*
G36*
X41836Y44650D02*
X41664D01*
X41499Y44606D01*
X41351Y44520D01*
X41230Y44399D01*
X41144Y44251D01*
X41100Y44086D01*
Y43914D01*
X41144Y43749D01*
X41230Y43601D01*
X41351Y43480D01*
X41499Y43394D01*
X41664Y43350D01*
X41836D01*
X42001Y43394D01*
X42149Y43480D01*
X42270Y43601D01*
X42356Y43749D01*
X42400Y43914D01*
Y44086D01*
X42356Y44251D01*
X42270Y44399D01*
X42149Y44520D01*
X42001Y44606D01*
X41836Y44650D01*
D02*
G37*
G36*
X47336Y44400D02*
X47164D01*
X46999Y44356D01*
X46851Y44270D01*
X46730Y44149D01*
X46644Y44001D01*
X46600Y43836D01*
Y43664D01*
X46644Y43499D01*
X46730Y43351D01*
X46851Y43230D01*
X46906Y43198D01*
Y43052D01*
X46851Y43020D01*
X46730Y42899D01*
X46644Y42751D01*
X46600Y42586D01*
Y42414D01*
X46644Y42249D01*
X46730Y42101D01*
X46851Y41980D01*
X46999Y41894D01*
X47164Y41850D01*
X47336D01*
X47501Y41894D01*
X47649Y41980D01*
X47770Y42101D01*
X47856Y42249D01*
X47900Y42414D01*
Y42586D01*
X47856Y42751D01*
X47770Y42899D01*
X47649Y43020D01*
X47594Y43052D01*
Y43198D01*
X47649Y43230D01*
X47770Y43351D01*
X47856Y43499D01*
X47900Y43664D01*
Y43836D01*
X47856Y44001D01*
X47770Y44149D01*
X47649Y44270D01*
X47501Y44356D01*
X47336Y44400D01*
D02*
G37*
G36*
X41836Y41900D02*
X41664D01*
X41499Y41856D01*
X41351Y41770D01*
X41230Y41649D01*
X41144Y41501D01*
X41100Y41336D01*
Y41164D01*
X41144Y40999D01*
X41230Y40851D01*
X41351Y40730D01*
X41499Y40644D01*
X41664Y40600D01*
X41836D01*
X42001Y40644D01*
X42149Y40730D01*
X42270Y40851D01*
X42356Y40999D01*
X42400Y41164D01*
Y41336D01*
X42356Y41501D01*
X42270Y41649D01*
X42149Y41770D01*
X42001Y41856D01*
X41836Y41900D01*
D02*
G37*
G36*
X47836Y34150D02*
X47664D01*
X47499Y34106D01*
X47351Y34020D01*
X47230Y33899D01*
X47144Y33751D01*
X47100Y33586D01*
Y33414D01*
X47144Y33249D01*
X47230Y33101D01*
X47331Y33000D01*
X47230Y32899D01*
X47144Y32751D01*
X47100Y32586D01*
Y32414D01*
X47144Y32249D01*
X47230Y32101D01*
X47351Y31980D01*
X47499Y31894D01*
X47664Y31850D01*
X47836D01*
X48001Y31894D01*
X48149Y31980D01*
X48270Y32101D01*
X48356Y32249D01*
X48400Y32414D01*
Y32586D01*
X48356Y32751D01*
X48270Y32899D01*
X48169Y33000D01*
X48270Y33101D01*
X48356Y33249D01*
X48400Y33414D01*
Y33586D01*
X48356Y33751D01*
X48270Y33899D01*
X48149Y34020D01*
X48001Y34106D01*
X47836Y34150D01*
D02*
G37*
G36*
X17586Y31150D02*
X17414D01*
X17249Y31106D01*
X17101Y31020D01*
X16980Y30899D01*
X16894Y30751D01*
X16850Y30586D01*
Y30414D01*
X16894Y30249D01*
X16980Y30101D01*
X17101Y29980D01*
X17249Y29894D01*
X17414Y29850D01*
X17586D01*
X17751Y29894D01*
X17899Y29980D01*
X18020Y30101D01*
X18106Y30249D01*
X18150Y30414D01*
Y30586D01*
X18106Y30751D01*
X18020Y30899D01*
X17899Y31020D01*
X17751Y31106D01*
X17586Y31150D01*
D02*
G37*
G36*
X25086Y30400D02*
X24914D01*
X24749Y30356D01*
X24601Y30270D01*
X24480Y30149D01*
X24394Y30001D01*
X24350Y29836D01*
Y29664D01*
X24394Y29499D01*
X24480Y29351D01*
X24601Y29230D01*
X24749Y29144D01*
X24914Y29100D01*
X25086D01*
X25251Y29144D01*
X25399Y29230D01*
X25520Y29351D01*
X25606Y29499D01*
X25650Y29664D01*
Y29836D01*
X25606Y30001D01*
X25520Y30149D01*
X25399Y30270D01*
X25251Y30356D01*
X25086Y30400D01*
D02*
G37*
G36*
X34586Y32400D02*
X34414D01*
X34249Y32356D01*
X34101Y32270D01*
X33980Y32149D01*
X33894Y32001D01*
X33850Y31836D01*
Y31664D01*
X33894Y31499D01*
X33980Y31351D01*
X34101Y31230D01*
X34156Y31198D01*
Y31052D01*
X34101Y31020D01*
X33980Y30899D01*
X33894Y30751D01*
X33850Y30586D01*
Y30414D01*
X33894Y30249D01*
X33980Y30101D01*
X34101Y29980D01*
X34156Y29948D01*
Y29802D01*
X34101Y29770D01*
X33980Y29649D01*
X33894Y29501D01*
X33850Y29336D01*
Y29164D01*
X33894Y28999D01*
X33980Y28851D01*
X34101Y28730D01*
X34249Y28644D01*
X34414Y28600D01*
X34586D01*
X34751Y28644D01*
X34899Y28730D01*
X35020Y28851D01*
X35106Y28999D01*
X35150Y29164D01*
Y29336D01*
X35106Y29501D01*
X35020Y29649D01*
X34899Y29770D01*
X34844Y29802D01*
Y29948D01*
X34899Y29980D01*
X35020Y30101D01*
X35106Y30249D01*
X35150Y30414D01*
Y30586D01*
X35106Y30751D01*
X35020Y30899D01*
X34899Y31020D01*
X34844Y31052D01*
Y31198D01*
X34899Y31230D01*
X35020Y31351D01*
X35106Y31499D01*
X35150Y31664D01*
Y31836D01*
X35106Y32001D01*
X35020Y32149D01*
X34899Y32270D01*
X34751Y32356D01*
X34586Y32400D01*
D02*
G37*
G36*
X43336Y30900D02*
X43164D01*
X42999Y30856D01*
X42851Y30770D01*
X42730Y30649D01*
X42644Y30501D01*
X42600Y30336D01*
Y30164D01*
X42644Y29999D01*
X42730Y29851D01*
X42851Y29730D01*
X42906Y29698D01*
Y29552D01*
X42851Y29520D01*
X42730Y29399D01*
X42644Y29251D01*
X42600Y29086D01*
Y28914D01*
X42644Y28749D01*
X42730Y28601D01*
X42851Y28480D01*
X42999Y28394D01*
X43164Y28350D01*
X43336D01*
X43501Y28394D01*
X43649Y28480D01*
X43770Y28601D01*
X43856Y28749D01*
X43900Y28914D01*
Y29086D01*
X43856Y29251D01*
X43770Y29399D01*
X43649Y29520D01*
X43594Y29552D01*
Y29698D01*
X43649Y29730D01*
X43770Y29851D01*
X43856Y29999D01*
X43900Y30164D01*
Y30336D01*
X43856Y30501D01*
X43770Y30649D01*
X43649Y30770D01*
X43501Y30856D01*
X43336Y30900D01*
D02*
G37*
G36*
X34586Y27150D02*
X34414D01*
X34249Y27106D01*
X34101Y27020D01*
X33980Y26899D01*
X33894Y26751D01*
X33850Y26586D01*
Y26414D01*
X33894Y26249D01*
X33980Y26101D01*
X34101Y25980D01*
X34249Y25894D01*
X34414Y25850D01*
X34586D01*
X34751Y25894D01*
X34899Y25980D01*
X35020Y26101D01*
X35106Y26249D01*
X35150Y26414D01*
Y26586D01*
X35106Y26751D01*
X35020Y26899D01*
X34899Y27020D01*
X34751Y27106D01*
X34586Y27150D01*
D02*
G37*
%LPD*%
D11*
X4101Y46351D02*
X5000Y47250D01*
X4101Y42649D02*
Y46351D01*
Y42649D02*
X4500Y42250D01*
Y42250D02*
Y42250D01*
D14*
X11000Y39750D02*
Y49750D01*
X21675Y48465D02*
X27140Y43000D01*
X21500Y49115D02*
Y49250D01*
X21675Y48465D02*
Y48940D01*
X21500Y49115D02*
X21675Y48940D01*
X27140Y43000D02*
X29455D01*
X19500Y47250D02*
X21500Y49250D01*
X19500Y44250D02*
Y47250D01*
X28750Y42250D02*
X29500Y43000D01*
X27495Y36995D02*
X28750Y38250D01*
Y42250D01*
X24745Y36995D02*
X27495D01*
X23500Y35750D02*
X24745Y36995D01*
D48*
X2425Y57425D02*
D03*
Y62575D02*
D03*
X7575D02*
D03*
Y57425D02*
D03*
X2425Y81425D02*
D03*
Y86575D02*
D03*
X7575D02*
D03*
Y81425D02*
D03*
D49*
X5000Y60000D02*
D03*
Y84000D02*
D03*
D50*
X55500Y4500D02*
D03*
X4500D02*
D03*
Y94500D02*
D03*
X55500D02*
D03*
D51*
X36000Y61460D02*
D03*
Y64000D02*
D03*
Y66540D02*
D03*
X38540Y80750D02*
D03*
X36000D02*
D03*
X33460D02*
D03*
X49540D02*
D03*
X47000D02*
D03*
X44460D02*
D03*
X36000Y53770D02*
D03*
Y51230D02*
D03*
X12500Y95790D02*
D03*
Y93250D02*
D03*
Y90710D02*
D03*
X18250Y95790D02*
D03*
Y93250D02*
D03*
Y90710D02*
D03*
D52*
X35600Y5650D02*
D03*
X40400D02*
D03*
X35600Y1350D02*
D03*
X40400D02*
D03*
X53100Y30600D02*
D03*
Y35400D02*
D03*
X57400Y30600D02*
D03*
Y35400D02*
D03*
Y25900D02*
D03*
Y21100D02*
D03*
X53100Y25900D02*
D03*
Y21100D02*
D03*
Y11600D02*
D03*
Y16400D02*
D03*
X57400Y11600D02*
D03*
Y16400D02*
D03*
D53*
X34250Y3500D02*
D03*
X55250Y29250D02*
D03*
Y27250D02*
D03*
Y10250D02*
D03*
D54*
X41750Y3500D02*
D03*
X55250Y36750D02*
D03*
Y19750D02*
D03*
Y17750D02*
D03*
X5765Y49100D02*
D03*
X5830Y41900D02*
D03*
X5765Y75600D02*
D03*
X5830Y68400D02*
D03*
D55*
X2715Y41180D02*
D03*
Y49820D02*
D03*
X2715Y67680D02*
D03*
Y76320D02*
D03*
D56*
X7765Y41180D02*
D03*
Y49820D02*
D03*
X7765Y67680D02*
D03*
Y76320D02*
D03*
D57*
X92795Y54000D02*
D03*
X55395Y66500D02*
D03*
Y41500D02*
D03*
D58*
X55500Y86350D02*
D03*
Y83810D02*
D03*
Y81270D02*
D03*
Y78730D02*
D03*
Y76190D02*
D03*
Y73650D02*
D03*
X12600Y25750D02*
D03*
Y18250D02*
D03*
X10750Y4500D02*
D03*
X15830D02*
D03*
D59*
X37000Y95000D02*
D03*
X29000D02*
D03*
X45000D02*
D03*
D60*
X37000Y89000D02*
D03*
X29000D02*
D03*
X45000D02*
D03*
X26500Y3000D02*
D03*
X21420D02*
D03*
D61*
X2400Y25750D02*
D03*
Y18250D02*
D03*
D62*
X23960Y3000D02*
D03*
D63*
X46000Y70500D02*
D03*
X49750Y76000D02*
D03*
X25750Y67500D02*
D03*
X26750Y64000D02*
D03*
X49750Y72250D02*
D03*
X11000Y49750D02*
D03*
X32750Y71250D02*
D03*
X46500Y61250D02*
D03*
X49000Y49750D02*
D03*
Y64000D02*
D03*
X47500Y61250D02*
D03*
X32250Y53750D02*
D03*
Y55500D02*
D03*
Y56500D02*
D03*
Y57500D02*
D03*
X21500Y54250D02*
D03*
X21000Y55250D02*
D03*
X19500Y54000D02*
D03*
X20250Y53000D02*
D03*
X14500Y55250D02*
D03*
X15750Y49000D02*
D03*
X14750Y52000D02*
D03*
X19000Y50500D02*
D03*
X17500D02*
D03*
X16000D02*
D03*
X23000Y48500D02*
D03*
X21500Y49250D02*
D03*
X25750Y50000D02*
D03*
X23000Y50500D02*
D03*
X24500D02*
D03*
X29455Y43000D02*
D03*
X19500Y44250D02*
D03*
X23500Y35750D02*
D03*
X41250Y65000D02*
D03*
X51625Y66375D02*
D03*
X49000Y57750D02*
D03*
X49750Y92000D02*
D03*
Y90000D02*
D03*
X51750Y92000D02*
D03*
Y90000D02*
D03*
X31250Y64250D02*
D03*
X34000Y70250D02*
D03*
X34000Y71250D02*
D03*
X46000Y71750D02*
D03*
X44000D02*
D03*
X42000D02*
D03*
X40000D02*
D03*
X34000Y72250D02*
D03*
X34000Y76000D02*
D03*
X36000D02*
D03*
X38000D02*
D03*
X40000D02*
D03*
X42000D02*
D03*
X44000D02*
D03*
X46000D02*
D03*
X30750Y43750D02*
D03*
X32000Y2250D02*
D03*
X18000Y19000D02*
D03*
X11000Y39750D02*
D03*
Y34250D02*
D03*
X46250Y4000D02*
D03*
X27750Y80000D02*
D03*
Y70250D02*
D03*
X24500Y64000D02*
D03*
X38750Y34250D02*
D03*
X38000Y28885D02*
D03*
X34500Y29250D02*
D03*
X10000Y48500D02*
D03*
X13250Y52000D02*
D03*
Y39500D02*
D03*
X28000Y35750D02*
D03*
X14000Y35250D02*
D03*
X27000Y41000D02*
D03*
X25250Y40750D02*
D03*
X41750Y44000D02*
D03*
Y41250D02*
D03*
X57250Y48000D02*
D03*
X38000Y49750D02*
D03*
Y50750D02*
D03*
X29500Y39500D02*
D03*
X49500Y94500D02*
D03*
X24000Y94000D02*
D03*
X10250Y70000D02*
D03*
X10000Y43750D02*
D03*
X14500Y56750D02*
D03*
X24000D02*
D03*
X10250Y77250D02*
D03*
X1000Y45000D02*
D03*
X2000Y32250D02*
D03*
X10000Y34250D02*
D03*
X17500Y30500D02*
D03*
X31250Y35250D02*
D03*
Y34000D02*
D03*
X21500Y9000D02*
D03*
Y12430D02*
D03*
X25000Y29750D02*
D03*
X22500Y23250D02*
D03*
X13000Y10750D02*
D03*
X4000Y8750D02*
D03*
X7000Y19750D02*
D03*
X4750Y13250D02*
D03*
X12000Y15000D02*
D03*
X5500Y36750D02*
D03*
X25000Y79000D02*
D03*
X47250Y42500D02*
D03*
Y43750D02*
D03*
X21750Y39500D02*
D03*
X22750D02*
D03*
X26250Y38432D02*
D03*
X46750Y93000D02*
D03*
X42750D02*
D03*
X39000D02*
D03*
X34750D02*
D03*
X31250D02*
D03*
X26750D02*
D03*
X32500Y59750D02*
D03*
X19000Y41250D02*
D03*
Y40250D02*
D03*
X44250Y60000D02*
D03*
Y63250D02*
D03*
X26750Y97250D02*
D03*
X31250D02*
D03*
X34750D02*
D03*
X39250D02*
D03*
X42750D02*
D03*
X24500Y88000D02*
D03*
X49500D02*
D03*
X47250Y97250D02*
D03*
X17250Y79000D02*
D03*
X29500Y44000D02*
D03*
X29750Y46500D02*
D03*
X30500Y45250D02*
D03*
X40750Y10775D02*
D03*
X42250Y9525D02*
D03*
X38500Y10775D02*
D03*
X37500D02*
D03*
X34250Y6775D02*
D03*
X55500Y45500D02*
D03*
X54000Y48750D02*
D03*
Y52750D02*
D03*
X46000Y45000D02*
D03*
X59000Y42500D02*
D03*
X37750Y42000D02*
D03*
X54000Y45500D02*
D03*
X46000Y49000D02*
D03*
X50250Y60250D02*
D03*
X38000Y48750D02*
D03*
X50250Y50250D02*
D03*
Y52750D02*
D03*
X38000Y46250D02*
D03*
Y47250D02*
D03*
X51750Y34250D02*
D03*
X43250Y22750D02*
D03*
X57750Y14500D02*
D03*
X52150Y24750D02*
D03*
X52750Y24000D02*
D03*
Y32500D02*
D03*
X52150Y31750D02*
D03*
X57750Y13500D02*
D03*
X53750Y20000D02*
D03*
X52150Y22250D02*
D03*
X52750Y23000D02*
D03*
Y14500D02*
D03*
Y13500D02*
D03*
X52150Y12750D02*
D03*
Y15250D02*
D03*
X53750Y10500D02*
D03*
X57750Y24000D02*
D03*
X57200Y24750D02*
D03*
X57750Y23000D02*
D03*
X57200Y34250D02*
D03*
X57750Y32500D02*
D03*
Y33500D02*
D03*
X57200Y15250D02*
D03*
X52750Y33500D02*
D03*
X53750Y36500D02*
D03*
Y29500D02*
D03*
X38250Y15250D02*
D03*
X43250Y30250D02*
D03*
Y29000D02*
D03*
X41500Y22750D02*
D03*
X38250Y17750D02*
D03*
Y19000D02*
D03*
X34500Y31750D02*
D03*
Y30500D02*
D03*
Y26500D02*
D03*
X42000Y1250D02*
D03*
X29500Y18000D02*
D03*
X32750Y19000D02*
D03*
Y17250D02*
D03*
X33750Y12250D02*
D03*
X29750Y10500D02*
D03*
X32250Y8000D02*
D03*
X32750Y15250D02*
D03*
Y16250D02*
D03*
X47750Y13500D02*
D03*
Y14500D02*
D03*
X47500Y23000D02*
D03*
Y24000D02*
D03*
X45000Y15300D02*
D03*
Y16300D02*
D03*
Y18500D02*
D03*
Y19500D02*
D03*
X47750Y33500D02*
D03*
Y32500D02*
D03*
X38950Y22750D02*
D03*
X39950D02*
D03*
X36750D02*
D03*
X35750D02*
D03*
X37500Y1250D02*
D03*
X38500D02*
D03*
Y5750D02*
D03*
X37500D02*
D03*
X12500Y64750D02*
D03*
X2250Y72000D02*
D03*
X4500Y74750D02*
D03*
X10250Y69000D02*
D03*
X14750Y80250D02*
D03*
X23000Y41000D02*
D03*
Y43000D02*
D03*
X23000Y42000D02*
D03*
X20000Y72750D02*
D03*
Y75250D02*
D03*
X20000Y74000D02*
D03*
X15500Y78500D02*
D03*
X14500Y75750D02*
D03*
X16000Y70750D02*
D03*
Y69750D02*
D03*
X18000Y69000D02*
D03*
Y68000D02*
D03*
X19000Y65750D02*
D03*
X20500Y67250D02*
D03*
Y68250D02*
D03*
Y69250D02*
D03*
X12000Y72000D02*
D03*
Y73000D02*
D03*
X10380Y72125D02*
D03*
Y71125D02*
D03*
X10250Y73500D02*
D03*
X5200Y70625D02*
D03*
Y71625D02*
D03*
Y72625D02*
D03*
X25100Y72450D02*
D03*
Y77450D02*
D03*
Y76200D02*
D03*
Y74200D02*
D03*
X27250Y54250D02*
D03*
X26250Y59000D02*
D03*
X19000Y62750D02*
D03*
X11000Y58750D02*
D03*
X16000Y60000D02*
D03*
X19000Y64500D02*
D03*
X27250Y56500D02*
D03*
Y57750D02*
D03*
X19500Y42750D02*
D03*
X16000Y45250D02*
D03*
X16250Y42750D02*
D03*
X27000Y35750D02*
D03*
X26000D02*
D03*
X24750Y38500D02*
D03*
Y39500D02*
D03*
X23750D02*
D03*
X23000Y38500D02*
D03*
X20000Y35250D02*
D03*
X19250Y35750D02*
D03*
X19000Y39250D02*
D03*
Y38250D02*
D03*
X15750Y48000D02*
D03*
Y46500D02*
D03*
X18500Y28250D02*
D03*
X17250D02*
D03*
X16000D02*
D03*
X15750Y37750D02*
D03*
Y38750D02*
D03*
Y39750D02*
D03*
Y40750D02*
D03*
X29500Y41000D02*
D03*
X4500Y42250D02*
D03*
X5000Y47250D02*
D03*
X10000Y47000D02*
D03*
X2000Y45000D02*
D03*
X10000Y42500D02*
D03*
Y41500D02*
D03*
X5000Y46250D02*
D03*
Y45250D02*
D03*
X10000Y45000D02*
D03*
Y46000D02*
D03*
%TF.MD5,fc0a9d9642719baf2af6ad985604ff38*%
M02*
