%TF.GenerationSoftware,Altium Limited,Altium Designer,25.2.1 (25)*%
G04 Layer_Color=16711833*
%FSLAX43Y43*%
%MOMM*%
%TF.SameCoordinates,BC6F9B4E-F4BF-41B7-AD79-6EFDE6D2D93E*%
%TF.FilePolarity,Positive*%
%TF.FileFunction,Other,Mechanical_13*%
%TF.Part,Single*%
G01*
G75*
%TA.AperFunction,NonConductor*%
%ADD78C,0.100*%
%ADD79C,0.200*%
%ADD85C,0.127*%
D78*
X13200Y41600D02*
Y42400D01*
X14800D01*
Y41600D02*
Y42400D01*
X13200Y41600D02*
X14800D01*
X41920Y78210D02*
X52085D01*
X49545Y84814D02*
X49550Y84809D01*
Y83290D02*
Y84809D01*
X49545Y84814D02*
X49550Y84809D01*
X44455Y84814D02*
X49545D01*
X52085Y78210D02*
Y83290D01*
X49550D02*
X52085D01*
X44455Y83290D02*
Y84814D01*
X41920Y78210D02*
Y83290D01*
X44455D01*
X23600Y49700D02*
Y51300D01*
Y49700D02*
X24400D01*
Y51300D01*
X23600D02*
X24400D01*
X33530Y1920D02*
X42470D01*
Y5080D01*
X33530D02*
X42470D01*
X33530Y1920D02*
Y5080D01*
X56830Y28530D02*
Y37470D01*
X53670D02*
X56830D01*
X53670Y28530D02*
Y37470D01*
Y28530D02*
X56830D01*
X53670Y19030D02*
Y27970D01*
Y19030D02*
X56830D01*
Y27970D01*
X53670D02*
X56830D01*
Y9530D02*
Y18470D01*
X53670D02*
X56830D01*
X53670Y9530D02*
Y18470D01*
Y9530D02*
X56830D01*
X415Y49970D02*
X8585D01*
X415Y41030D02*
Y49970D01*
Y41030D02*
X8585D01*
Y49970D01*
X415Y76470D02*
X8585D01*
X415Y67530D02*
Y76470D01*
Y67530D02*
X8585D01*
Y76470D01*
X30200Y39900D02*
X31800D01*
X30200Y39100D02*
Y39900D01*
Y39100D02*
X31800D01*
Y39900D01*
X51200Y43880D02*
Y64120D01*
X42800Y43880D02*
X51200D01*
X42800Y64120D02*
X51200D01*
X42800Y43880D02*
Y64120D01*
X43850Y62300D02*
X44650D01*
Y60700D02*
Y62300D01*
X43850Y60700D02*
X44650D01*
X43850D02*
Y62300D01*
X41600Y75700D02*
X42400D01*
X41600D02*
Y77300D01*
X42400D01*
Y75700D02*
Y77300D01*
X37600Y75700D02*
X38400D01*
X37600D02*
Y77300D01*
X38400D01*
Y75700D02*
Y77300D01*
X39600Y75700D02*
X40400D01*
X39600D02*
Y77300D01*
X40400D01*
Y75700D02*
Y77300D01*
X33600Y75700D02*
X34400D01*
X33600D02*
Y77300D01*
X34400D01*
Y75700D02*
Y77300D01*
X35600Y75700D02*
X36400D01*
X35600D02*
Y77300D01*
X36400D01*
Y75700D02*
Y77300D01*
X36625Y72500D02*
Y74500D01*
X35375Y72500D02*
X36625D01*
X35375D02*
Y74500D01*
X36625D01*
X34625Y72500D02*
Y74500D01*
X33375Y72500D02*
X34625D01*
X33375D02*
Y74500D01*
X34625D01*
X38625Y72500D02*
Y74500D01*
X37375Y72500D02*
X38625D01*
X37375D02*
Y74500D01*
X38625D01*
X40626Y72474D02*
Y74474D01*
X39376Y72474D02*
X40626D01*
X39376D02*
Y74474D01*
X40626D01*
X42625Y72500D02*
Y74500D01*
X41375Y72500D02*
X42625D01*
X41375D02*
Y74500D01*
X42625D01*
X46625Y72500D02*
Y74500D01*
X45375Y72500D02*
X46625D01*
X45375D02*
Y74500D01*
X46625D01*
X45600Y75625D02*
X46400D01*
X45600D02*
Y77225D01*
X46400D01*
Y75625D02*
Y77225D01*
X44625Y72500D02*
Y74500D01*
X43375Y72500D02*
X44625D01*
X43375D02*
Y74500D01*
X44625D01*
X44400Y75625D02*
Y77225D01*
X43600D02*
X44400D01*
X43600Y75625D02*
Y77225D01*
Y75625D02*
X44400D01*
X48250Y36600D02*
Y49400D01*
X40750Y36600D02*
X48250D01*
X40750D02*
Y49400D01*
X48250D01*
X52960Y88895D02*
X58040D01*
Y71105D02*
Y88895D01*
X52960Y71105D02*
X58040D01*
X52960D02*
Y88895D01*
X30850Y94200D02*
X31650D01*
X30850D02*
Y95800D01*
X31650D01*
Y94200D02*
Y95800D01*
X34350Y94200D02*
X35150D01*
X34350D02*
Y95800D01*
X35150D01*
Y94200D02*
Y95800D01*
X38850Y94450D02*
X39650D01*
X38850D02*
Y96050D01*
X39650D01*
Y94450D02*
Y96050D01*
X42350Y94450D02*
X43150D01*
X42350D02*
Y96050D01*
X43150D01*
Y94450D02*
Y96050D01*
X46850Y94450D02*
X47650D01*
X46850D02*
Y96050D01*
X47650D01*
Y94450D02*
Y96050D01*
X26350Y94200D02*
X27150D01*
X26350D02*
Y95800D01*
X27150D01*
Y94200D02*
Y95800D01*
X30920Y78210D02*
X41085D01*
X38545Y84814D02*
X38550Y84809D01*
Y83290D02*
Y84809D01*
X38545Y84814D02*
X38550Y84809D01*
X33455Y84814D02*
X38545D01*
X41085Y78210D02*
Y83290D01*
X38550D02*
X41085D01*
X33455Y83290D02*
Y84814D01*
X30920Y78210D02*
Y83290D01*
X33455D01*
X43190Y73090D02*
X50810D01*
X43190Y63410D02*
Y73090D01*
Y63410D02*
X50810D01*
Y73090D01*
X33458Y60433D02*
X40062D01*
X33458Y53067D02*
Y60433D01*
Y53067D02*
X40062D01*
Y60433D01*
X33458Y68683D02*
X40062D01*
X33458Y61317D02*
Y68683D01*
Y61317D02*
X40062D01*
Y68683D01*
X15040Y88170D02*
Y98335D01*
X8436Y95795D02*
X8441Y95800D01*
X9960D01*
X8436Y95795D02*
X8441Y95800D01*
X8436Y90705D02*
Y95795D01*
X9960Y98335D02*
X15040D01*
X9960Y95800D02*
Y98335D01*
X8436Y90705D02*
X9960D01*
X9960Y88170D02*
X15040D01*
X9960D02*
Y90705D01*
X48950Y13000D02*
X50550D01*
X48950D02*
Y13800D01*
X50550D01*
Y13000D02*
Y13800D01*
X36600Y7375D02*
X37400D01*
Y8975D01*
X36600D02*
X37400D01*
X36600Y7375D02*
Y8975D01*
X55900Y46450D02*
Y48050D01*
X55100D02*
X55900D01*
X55100Y46450D02*
Y48050D01*
Y46450D02*
X55900D01*
X38150Y42950D02*
Y44550D01*
X37350D02*
X38150D01*
X37350Y42950D02*
Y44550D01*
Y42950D02*
X38150D01*
X51200Y45100D02*
Y45900D01*
X52800D01*
Y45100D02*
Y45900D01*
X51200Y45100D02*
X52800D01*
X35200Y47900D02*
X36800D01*
X35200Y47100D02*
Y47900D01*
Y47100D02*
X36800D01*
Y47900D01*
X35200Y46400D02*
X36800D01*
X35200Y45600D02*
Y46400D01*
Y45600D02*
X36800D01*
Y46400D01*
X50550Y14200D02*
Y15000D01*
X48950D02*
X50550D01*
X48950Y14200D02*
Y15000D01*
Y14200D02*
X50550D01*
X48950Y33200D02*
X50550D01*
X48950D02*
Y34000D01*
X50550D01*
Y33200D02*
Y34000D01*
X50300Y22500D02*
Y23300D01*
X48700D02*
X50300D01*
X48700Y22500D02*
Y23300D01*
Y22500D02*
X50300D01*
X48950Y32000D02*
X50550D01*
X48950D02*
Y32800D01*
X50550D01*
Y32000D02*
Y32800D01*
X50300Y23700D02*
Y24500D01*
X48700D02*
X50300D01*
X48700Y23700D02*
Y24500D01*
Y23700D02*
X50300D01*
X51900Y35450D02*
Y37050D01*
X51100D02*
X51900D01*
X51100Y35450D02*
Y37050D01*
Y35450D02*
X51900D01*
Y28950D02*
Y30550D01*
X51100D02*
X51900D01*
X51100Y28950D02*
Y30550D01*
Y28950D02*
X51900D01*
Y9950D02*
Y11550D01*
X51100D02*
X51900D01*
X51100Y9950D02*
Y11550D01*
Y9950D02*
X51900D01*
X51100Y19450D02*
Y21050D01*
Y19450D02*
X51900D01*
Y21050D01*
X51100D02*
X51900D01*
X51100Y25950D02*
Y27550D01*
Y25950D02*
X51900D01*
Y27550D01*
X51100D02*
X51900D01*
Y16450D02*
Y18050D01*
X51100D02*
X51900D01*
X51100Y16450D02*
Y18050D01*
Y16450D02*
X51900D01*
X33950Y7600D02*
X35550D01*
Y8400D01*
X33950D02*
X35550D01*
X33950Y7600D02*
Y8400D01*
X44650Y2450D02*
Y4050D01*
X43850D02*
X44650D01*
X43850Y2450D02*
Y4050D01*
Y2450D02*
X44650D01*
X35250Y13000D02*
Y20000D01*
X42250D01*
Y13000D02*
Y20000D01*
X35250Y13000D02*
X42250D01*
X35250Y13800D02*
X36050Y13000D01*
X38150Y8200D02*
Y9800D01*
X37350D02*
X38150D01*
X37350Y8200D02*
Y9800D01*
Y8200D02*
X38150D01*
X28850Y17050D02*
X29650D01*
Y15450D02*
Y17050D01*
X28850Y15450D02*
X29650D01*
X28850D02*
Y17050D01*
X31700Y3850D02*
Y4650D01*
X33300D01*
Y3850D02*
Y4650D01*
X31700Y3850D02*
X33300D01*
X31700Y13850D02*
Y14650D01*
X33300D01*
Y13850D02*
Y14650D01*
X31700Y13850D02*
X33300D01*
X38100Y7375D02*
Y8975D01*
X38900D01*
Y7375D02*
Y8975D01*
X38100Y7375D02*
X38900D01*
X25100Y63200D02*
X25900D01*
X25100D02*
Y64800D01*
X25900D01*
Y63200D02*
Y64800D01*
X13600Y65700D02*
X14400D01*
X13600D02*
Y67300D01*
X14400D01*
Y65700D02*
Y67300D01*
X12100Y65700D02*
X12900D01*
X12100D02*
Y67300D01*
X12900D01*
Y65700D02*
Y67300D01*
X13300Y72800D02*
Y73600D01*
Y72800D02*
X14900D01*
Y73600D01*
X13300D02*
X14900D01*
X17385Y65405D02*
X18655Y64135D01*
X17385D02*
Y69365D01*
X22615D01*
Y64135D02*
Y69365D01*
X17385Y64135D02*
X22615D01*
X9850Y76300D02*
X10650D01*
Y74700D02*
Y76300D01*
X9850Y74700D02*
X10650D01*
X9850D02*
Y76300D01*
X3800Y70350D02*
Y71150D01*
X2200Y70350D02*
X3800D01*
X2200D02*
Y71150D01*
X3800D01*
X21700Y81750D02*
X22500D01*
Y80150D02*
Y81750D01*
X21700Y80150D02*
X22500D01*
X21700D02*
Y81750D01*
X20200Y80150D02*
Y81750D01*
Y80150D02*
X21000D01*
Y81750D01*
X20200D02*
X21000D01*
X22575Y80875D02*
Y82475D01*
X21775Y80875D02*
X22575D01*
X21775D02*
Y82475D01*
X22575D01*
X23650Y83550D02*
Y84350D01*
X22050D02*
X23650D01*
X22050Y83550D02*
Y84350D01*
Y83550D02*
X23650D01*
Y78950D02*
Y79750D01*
X22050D02*
X23650D01*
X22050Y78950D02*
Y79750D01*
Y78950D02*
X23650D01*
X27550Y75950D02*
X29150D01*
Y73950D02*
Y75950D01*
X27550Y73950D02*
X29150D01*
X27550D02*
Y75950D01*
X25950Y74150D02*
X26750D01*
Y75750D01*
X25950D02*
X26750D01*
X25950Y74150D02*
Y75750D01*
X27550Y73100D02*
X29150D01*
Y72300D02*
Y73100D01*
X27550Y72300D02*
X29150D01*
X27550D02*
Y73100D01*
Y76800D02*
X29150D01*
X27550D02*
Y77600D01*
X29150D01*
Y76800D02*
Y77600D01*
X27800Y75550D02*
Y76350D01*
X26200Y75550D02*
X27800D01*
X26200D02*
Y76350D01*
X27800D01*
X26200Y74850D02*
X27800D01*
X26200Y74050D02*
Y74850D01*
Y74050D02*
X27800D01*
Y74850D01*
X26200Y77850D02*
X27800D01*
X26200Y77050D02*
Y77850D01*
Y77050D02*
X27800D01*
Y77850D01*
X26200Y71850D02*
X27800D01*
X26200Y71050D02*
Y71850D01*
Y71050D02*
X27800D01*
Y71850D01*
X26200Y73350D02*
X27800D01*
X26200Y72550D02*
Y73350D01*
Y72550D02*
X27800D01*
Y73350D01*
X23500Y70500D02*
Y77500D01*
X16500Y70500D02*
X23500D01*
X16500D02*
Y77500D01*
X23500D01*
X23100D02*
X23500Y77100D01*
X13300Y72100D02*
X14900D01*
Y71300D02*
Y72100D01*
X13300Y71300D02*
X14900D01*
X13300D02*
Y72100D01*
X19500Y80150D02*
Y81750D01*
X18700D02*
X19500D01*
X18700Y80150D02*
Y81750D01*
Y80150D02*
X19500D01*
X18000D02*
Y81750D01*
X17200D02*
X18000D01*
X17200Y80150D02*
Y81750D01*
Y80150D02*
X18000D01*
X16500D02*
Y81750D01*
X15700D02*
X16500D01*
X15700Y80150D02*
Y81750D01*
Y80150D02*
X16500D01*
X12950Y76600D02*
Y77400D01*
X14550D01*
Y76600D02*
Y77400D01*
X12950Y76600D02*
X14550D01*
X12950Y78100D02*
X14550D01*
Y78900D01*
X12950D02*
X14550D01*
X12950Y78100D02*
Y78900D01*
X26200Y79350D02*
X27800D01*
X26200Y78550D02*
Y79350D01*
Y78550D02*
X27800D01*
Y79350D01*
X12450Y68100D02*
X14050D01*
Y68900D01*
X12450D02*
X14050D01*
X12450Y68100D02*
Y68900D01*
X28100Y54200D02*
X28900D01*
Y55800D01*
X28100D02*
X28900D01*
X28100Y54200D02*
Y55800D01*
X15100Y55200D02*
X15900D01*
Y56800D01*
X15100D02*
X15900D01*
X15100Y55200D02*
Y56800D01*
X24600Y61700D02*
X25400D01*
Y63300D01*
X24600D02*
X25400D01*
X24600Y61700D02*
Y63300D01*
X34400Y32700D02*
Y34300D01*
X33600Y32700D02*
X34400D01*
X33600D02*
Y34300D01*
X34400D01*
X41150Y8200D02*
Y9800D01*
X40350D02*
X41150D01*
X40350Y8200D02*
Y9800D01*
Y8200D02*
X41150D01*
X38850D02*
X39650D01*
X38850D02*
Y9800D01*
X39650D01*
Y8200D02*
Y9800D01*
X29375Y18600D02*
Y19400D01*
X30975D01*
Y18600D02*
Y19400D01*
X29375Y18600D02*
X30975D01*
X32200Y44900D02*
X33800D01*
Y44100D02*
Y44900D01*
X32200Y44100D02*
X33800D01*
X32200D02*
Y44900D01*
X13200D02*
X14800D01*
Y44100D02*
Y44900D01*
X13200Y44100D02*
X14800D01*
X13200D02*
Y44900D01*
X700Y43900D02*
X2300D01*
X700Y43100D02*
Y43900D01*
Y43100D02*
X2300D01*
Y43900D01*
X12400Y36200D02*
Y37800D01*
X11600Y36200D02*
X12400D01*
X11600D02*
Y37800D01*
X12400D01*
X2400Y36200D02*
Y37800D01*
X1600Y36200D02*
X2400D01*
X1600D02*
Y37800D01*
X2400D01*
X13200Y43400D02*
X14800D01*
Y42600D02*
Y43400D01*
X13200Y42600D02*
X14800D01*
X13200D02*
Y43400D01*
X13200Y44600D02*
X14800D01*
Y45400D01*
X13200D02*
X14800D01*
X13200Y44600D02*
Y45400D01*
Y46100D02*
X14800D01*
Y46900D01*
X13200D02*
X14800D01*
X13200Y46100D02*
Y46900D01*
Y43100D02*
X14800D01*
Y43900D01*
X13200D02*
X14800D01*
X13200Y43100D02*
Y43900D01*
Y49900D02*
X14800D01*
X13200Y49100D02*
Y49900D01*
Y49100D02*
X14800D01*
Y49900D01*
X13200Y48400D02*
X14800D01*
X13200Y47600D02*
Y48400D01*
Y47600D02*
X14800D01*
Y48400D01*
X13200Y50600D02*
X14800D01*
Y51400D01*
X13200D02*
X14800D01*
X13200Y50600D02*
Y51400D01*
Y40100D02*
X14800D01*
Y40900D01*
X13200D02*
X14800D01*
X13200Y40100D02*
Y40900D01*
X25400Y32700D02*
Y34300D01*
X24600Y32700D02*
X25400D01*
X24600D02*
Y34300D01*
X25400D01*
X21600Y32700D02*
Y34300D01*
X22400D01*
Y32700D02*
Y34300D01*
X21600Y32700D02*
X22400D01*
X26100D02*
Y34300D01*
X26900D01*
Y32700D02*
Y34300D01*
X26100Y32700D02*
X26900D01*
X27600D02*
Y34300D01*
X28400D01*
Y32700D02*
Y34300D01*
X27600Y32700D02*
X28400D01*
X23900D02*
Y34300D01*
X23100Y32700D02*
X23900D01*
X23100D02*
Y34300D01*
X23900D01*
X23900Y60200D02*
Y61800D01*
X23100Y60200D02*
X23900D01*
X23100D02*
Y61800D01*
X23900D01*
X21600Y60200D02*
Y61800D01*
X22400D01*
Y60200D02*
Y61800D01*
X21600Y60200D02*
X22400D01*
X16600Y55200D02*
Y56800D01*
X17400D01*
Y55200D02*
Y56800D01*
X16600Y55200D02*
X17400D01*
X12600Y58700D02*
Y60300D01*
X13400D01*
Y58700D02*
Y60300D01*
X12600Y58700D02*
X13400D01*
X13600Y34050D02*
X14400D01*
X13600Y32450D02*
Y34050D01*
Y32450D02*
X14400D01*
Y34050D01*
X700Y47100D02*
Y47900D01*
X2300D01*
Y47100D02*
Y47900D01*
X700Y47100D02*
X2300D01*
X31800Y40600D02*
Y41400D01*
X30200Y40600D02*
X31800D01*
X30200D02*
Y41400D01*
X31800D01*
Y42100D02*
Y42900D01*
X30200Y42100D02*
X31800D01*
X30200D02*
Y42900D01*
X31800D01*
X22100Y51300D02*
X22900D01*
Y49700D02*
Y51300D01*
X22100Y49700D02*
X22900D01*
X22100D02*
Y51300D01*
X18850D02*
X19650D01*
Y49700D02*
Y51300D01*
X18850Y49700D02*
X19650D01*
X18850D02*
Y51300D01*
X25100D02*
X25900D01*
Y49700D02*
Y51300D01*
X25100Y49700D02*
X25900D01*
X25100D02*
Y51300D01*
X15385Y28656D02*
X16655Y27385D01*
X15385D02*
X20615D01*
Y32616D01*
X15385D02*
X20615D01*
X15385Y27385D02*
Y32616D01*
X32150Y43250D02*
X35350D01*
Y40750D02*
Y43250D01*
X32150Y40750D02*
X35350D01*
X32150D02*
Y43250D01*
X36550Y44100D02*
Y44900D01*
X34950D02*
X36550D01*
X34950Y44100D02*
Y44900D01*
Y44100D02*
X36550D01*
X33800Y39100D02*
Y39900D01*
X32200D02*
X33800D01*
X32200Y39100D02*
Y39900D01*
Y39100D02*
X33800D01*
X1375Y34000D02*
Y36000D01*
Y34000D02*
X2625D01*
Y36000D01*
X1375D02*
X2625D01*
X2481Y30885D02*
X12946D01*
X2481Y12851D02*
Y30885D01*
Y12851D02*
X12946D01*
Y30885D01*
X6600Y18800D02*
X7400D01*
Y17200D02*
Y18800D01*
X6600Y17200D02*
X7400D01*
X6600D02*
Y18800D01*
X5100Y17200D02*
X5900D01*
X5100D02*
Y18800D01*
X5900D01*
Y17200D02*
Y18800D01*
X28375Y24250D02*
Y26250D01*
X27125D02*
X28375D01*
X27125Y24250D02*
Y26250D01*
Y24250D02*
X28375D01*
X18852Y24530D02*
X19952Y25630D01*
X14048Y24530D02*
X19952D01*
X14048D02*
Y32470D01*
X19952D01*
Y24530D02*
Y32470D01*
X25000Y24850D02*
X26150Y26000D01*
Y30150D01*
X20850D02*
X26150D01*
X20850Y26000D02*
Y30150D01*
Y26000D02*
X22000Y24850D01*
X25000D01*
X26150Y26000D01*
X9600Y17200D02*
Y18800D01*
Y17200D02*
X10400D01*
Y18800D01*
X9600D02*
X10400D01*
X8100Y17200D02*
Y18800D01*
Y17200D02*
X8900D01*
Y18800D01*
X8100D02*
X8900D01*
X10000Y28850D02*
X12150Y31000D01*
Y37150D01*
X3850D02*
X12150D01*
X3850Y31000D02*
Y37150D01*
Y31000D02*
X6000Y28850D01*
X10000D01*
X12150Y31000D01*
X20790Y95795D02*
Y98330D01*
X15710D02*
X20790D01*
X20790Y95795D02*
X22314D01*
X20790Y88165D02*
Y90700D01*
X15710Y88165D02*
X20790D01*
X22314Y90705D02*
Y95795D01*
X22309Y90700D02*
X22314Y90705D01*
X20790Y90700D02*
X22309D01*
X22314Y90705D01*
X15710Y88165D02*
Y98330D01*
X41700Y67650D02*
X43300D01*
Y66850D02*
Y67650D01*
X41700Y66850D02*
X43300D01*
X41700D02*
Y67650D01*
Y65350D02*
X43300D01*
X41700D02*
Y66150D01*
X43300D01*
Y65350D02*
Y66150D01*
X20100Y60200D02*
Y61800D01*
X20900D01*
Y60200D02*
Y61800D01*
X20100Y60200D02*
X20900D01*
X30795Y57818D02*
X31295Y58318D01*
Y57818D02*
Y61818D01*
X27295D02*
X31295D01*
X27295Y57818D02*
Y61818D01*
Y57818D02*
X31295D01*
X18600Y60200D02*
Y61800D01*
X19400D01*
Y60200D02*
Y61800D01*
X18600Y60200D02*
X19400D01*
X23900Y57450D02*
Y59050D01*
X23100Y57450D02*
X23900D01*
X23100D02*
Y59050D01*
X23900D01*
X25400Y57450D02*
Y59050D01*
X24600Y57450D02*
X25400D01*
X24600D02*
Y59050D01*
X25400D01*
X29600Y54200D02*
Y55800D01*
X30400D01*
Y54200D02*
Y55800D01*
X29600Y54200D02*
X30400D01*
X20900Y63200D02*
Y64800D01*
X20100Y63200D02*
X20900D01*
X20100D02*
Y64800D01*
X20900D01*
X22400Y63200D02*
Y64800D01*
X21600Y63200D02*
X22400D01*
X21600D02*
Y64800D01*
X22400D01*
X26350Y65200D02*
Y66800D01*
X27150D01*
Y65200D02*
Y66800D01*
X26350Y65200D02*
X27150D01*
X28000D02*
X30000D01*
Y66800D01*
X28000D02*
X30000D01*
X28000Y65200D02*
Y66800D01*
X28200Y63600D02*
X29800D01*
X28200D02*
Y64400D01*
X29800D01*
Y63600D02*
Y64400D01*
X30850Y65200D02*
Y66800D01*
X31650D01*
Y65200D02*
Y66800D01*
X30850Y65200D02*
X31650D01*
X11800Y59750D02*
Y60750D01*
X10200D02*
X11800D01*
X10200Y59750D02*
Y60750D01*
Y59750D02*
X11800D01*
X17000Y58500D02*
X17500Y59000D01*
Y58500D02*
Y61500D01*
X14500D02*
X17500D01*
X14500Y58500D02*
Y61500D01*
Y58500D02*
X17500D01*
X17900Y63200D02*
Y64800D01*
X17100Y63200D02*
X17900D01*
X17100D02*
Y64800D01*
X17900D01*
X16400Y63200D02*
Y64800D01*
X15600Y63200D02*
X16400D01*
X15600D02*
Y64800D01*
X16400D01*
D79*
X7913Y15970D02*
G03*
X7913Y15970I-100J0D01*
G01*
X6555Y8880D02*
G03*
X6555Y8880I-100J0D01*
G01*
X52895Y39000D02*
X95395D01*
Y69000D01*
X52895Y39000D02*
Y69000D01*
X95395D01*
X40150Y85675D02*
Y98325D01*
X33850Y85675D02*
X40150D01*
X33850D02*
Y98325D01*
X40150D01*
X32150Y85675D02*
Y98325D01*
X25850Y85675D02*
X32150D01*
X25850D02*
Y98325D01*
X32150D01*
X48150Y85675D02*
Y98325D01*
X41850Y85675D02*
X48150D01*
X41850D02*
Y98325D01*
X48150D01*
X44400Y50350D02*
Y51650D01*
X47600D01*
Y50350D02*
Y51650D01*
X44400Y50350D02*
X47600D01*
X-6600Y80835D02*
X1500D01*
X-6600D02*
Y87165D01*
X1500D01*
Y87500D02*
X8500D01*
X1500Y80500D02*
Y87500D01*
Y80500D02*
X8500D01*
Y87500D01*
X-6600Y56835D02*
X1500D01*
X-6600D02*
Y63165D01*
X1500D01*
Y63500D02*
X8500D01*
X1500Y56500D02*
Y63500D01*
Y56500D02*
X8500D01*
Y63500D01*
X4250Y37500D02*
X6750D01*
X4250Y34500D02*
Y37500D01*
Y34500D02*
X6750D01*
Y37500D01*
X7250Y34500D02*
X9750D01*
Y37500D01*
X7250D02*
X9750D01*
X7250Y34500D02*
Y37500D01*
X16420Y7610D02*
Y8110D01*
X26580Y7610D02*
Y8110D01*
X16420Y7610D02*
X26580D01*
X16420Y8110D02*
Y16750D01*
X26580Y8110D02*
Y16750D01*
X16420Y8110D02*
X26580D01*
X16420Y16750D02*
X26580D01*
D85*
X36800Y34700D02*
X40700D01*
X36800Y24800D02*
X40700D01*
X36800D02*
Y34700D01*
X40700Y24800D02*
Y34700D01*
X33500Y5750D02*
Y12750D01*
X28500Y5750D02*
X33500D01*
X28500D02*
Y12750D01*
X33500D01*
X7313Y14620D02*
X10213D01*
Y13320D02*
Y14620D01*
X7313Y13320D02*
X10213D01*
X7313D02*
Y14620D01*
X3450Y14050D02*
X6550D01*
X3450Y10950D02*
X6550D01*
X3450D02*
Y14050D01*
X6550Y10950D02*
Y14050D01*
%TF.MD5,f306ea438bbf42733076f6f62870b49c*%
M02*
