M48
;Layer_Color=9474304
;FILE_FORMAT=4:3
METRIC,LZ
;TYPE=PLATED
T01F00S00C0.300
T02F00S00C0.660
T03F00S00C0.700
T04F00S00C0.750
T05F00S00C0.800
T06F00S00C0.900
T07F00S00C1.100
T08F00S00C1.150
T09F00S00C1.250
T10F00S00C1.300
T11F00S00C1.500
T12F00S00C1.600
T13F00S00C1.750
T14F00S00C2.000
T15F00S00C3.200
T16F00S00C3.500
;TYPE=NON_PLATED
T17F00S00C1.000
%
T01
X0004Y000875
X000475Y001325
X0013Y001075
X00215Y001243
Y0009
X002975Y00105
X003225Y0008
X003425Y0006775
X00375Y000575
X00385
Y000125
X00375
X0042
X004625Y0004
X004225Y0009525
X004075Y0010775
X00385
X00375
X003375Y001225
X0032Y000225
X004775Y00135
X005275Y00135
X005215Y001275
X005375Y00105
X005775Y00135
Y00145
X00572Y001525
X005775Y0023
Y0024
X00572Y002475
X005775Y00325
Y00335
X00572Y003425
X0059Y00425
X00555Y00455
X0054
Y004875
X005725Y0048
X0054Y005275
X005025
Y005025
X0046Y0049
Y0045
X004725Y004375
Y00425
X004175Y004125
Y0044
X0038Y004625
Y004725
Y004875
Y004975
Y005075
X003775Y0042
X003075Y004375
X00295Y0044
X0029455Y0043
X00295Y0041
Y00395
X0027Y0041
X002525Y004075
X002475Y00395
X002375
X002275
X002175
X0023Y00385
X002475
X002625Y0038432
X0026Y003575
X0027
X0028
X003125Y003525
Y0034
X00345Y003175
Y00305
Y002925
Y00265
X003575Y002275
X003675
X003895
X003995
X00415
X004325
X00475Y0023
Y0024
X005275Y0024
Y0023
X005215Y002225
Y002475
X005375Y002
X005215Y001525
X005275Y00145
X004775Y00145
X0045Y00153
Y00163
Y00185
Y00195
X003825Y0019
Y001775
Y001525
X003275
Y001625
Y001725
Y0019
X00295Y0018
X00225Y002325
X0018Y0019
X00185Y002825
X001725
X0016
X00175Y00305
X001925Y003575
X002Y003525
X00235Y003575
X0023Y0041
X0023Y0042
X0023Y0043
X00195Y004275
Y004425
X0019Y004125
Y004025
Y003925
Y003825
X001575Y003775
Y003875
Y003975
Y004075
X001625Y004275
X0016Y004525
X001575Y00465
Y0048
Y00495
Y0051
Y005225
X001925Y004875
X002275
X002425
X002725Y005075
X002975Y00465
X00305Y004525
X002275Y005325
X0025Y002975
X0038Y0028885
X004325Y0029
Y003025
X004775Y00325
Y00335
X005175Y003425
X005275Y00335
Y00325
X005215Y003175
X005375Y00295
Y00365
X003875Y003425
X0014Y003525
X0011Y003425
X001
X0011Y003975
X001325Y00395
X001Y00415
Y00425
Y004375
Y0045
Y0046
Y0047
Y00485
X0005Y004725
Y004625
Y004525
X0002Y0045
X0001
X00045Y004225
X00055Y003675
X0002Y003225
X0007Y001975
X0012Y0015
X001325Y0052
X0011Y005875
X00125Y006475
X001025Y0069
Y007
X001038Y0071125
Y0072125
X001025Y00735
X0012Y0073
Y0072
X001025Y007725
X00045Y007475
X00052Y0072625
Y0071625
Y0070625
X000225Y0072
X0016Y007075
Y006975
X0018Y0069
Y0068
X00205Y006825
Y006725
Y006925
X002Y007275
X002Y0074
X002Y007525
X00145Y007575
X00155Y00785
X001725Y0079
X001475Y008025
X0025Y0079
X00251Y007745
Y00762
Y00742
Y007245
X002775Y007025
X002575Y00665
X00245Y0064
X00235
X0019Y00645
Y006575
Y006275
X0016Y006
X00145Y005675
X001825Y005525
Y0054
X001925
X0022Y005425
X0024Y005675
X002725Y00565
Y005775
X002625Y0059
X002725Y005425
X00325Y005975
X0033Y0065
X0034Y00695
X0036
X0038
Y00685
X004075
X004025Y00695
X00425Y006825
X0041Y006575
X004425Y006325
Y006
X00475Y006275
X00485
X005Y006425
X005175Y006575
X005025Y006025
Y0072
X004925Y00725
X0046Y00735
X0044
X0042
X004Y0073474
X0038Y00735
X0036
X0034
X002775Y008
X0033Y00855
Y00865
X003475Y0093
X003125
X002675
X00245Y0088
X0039Y0093
X004275
X0045Y0092
Y00905
X004675Y0093
X00495Y0088
X004925Y00945
X004725Y009725
X004275
X003925
X003475
X003125
X002675
X0024Y0094
T02
X003425Y00035
X005525Y001025
Y002725
Y002925
T03
X00356Y000135
Y000565
X00404
Y000135
X00531Y00116
X00574
Y00164
Y00211
Y00259
Y00306
Y00354
X00531
Y00306
Y00259
Y00211
Y00164
T04
X000583Y00419
X0005765Y00491
X000583Y00684
X0005765Y00756
T05
X004175Y00035
X005525Y001775
Y001975
Y003675
T06
X002142Y0003
X002396
X00265
T07
X00555Y007365
Y007619
Y007873
Y008127
Y008381
Y008635
T08
X00125Y009071
Y009325
X001825
Y009071
X003346Y008075
X0036
X003854
X004446
X0047
X004954
X0036Y006627
Y006373
Y005802
Y005548
X001825Y009579
X00125
T09
X00126Y001825
Y002575
T10
X001075Y00045
X001583
T11
X0007765Y004118
Y004982
X0007765Y006768
Y007632
T12
X000246Y005746
X000754
Y006254
X000246
X0005Y006
X000754Y008146
X000246
Y008654
X000754
X0005Y0084
T13
X0002715Y004118
Y004982
X0002715Y006768
Y007632
T14
X00024Y001825
Y002575
T15
X0055395Y00415
Y00665
X0092795Y0054
T16
X00045Y00045
X00555
Y00945
X00045
T17
X0029Y0089
X0037
X0045
Y0095
X0037
X0029
M30
