%TF.GenerationSoftware,Altium Limited,Altium Designer,25.2.1 (25)*%
G04 Layer_Color=6809061*
%FSLAX43Y43*%
%MOMM*%
%TF.SameCoordinates,BC6F9B4E-F4BF-41B7-AD79-6EFDE6D2D93E*%
%TF.FilePolarity,Positive*%
%TF.FileFunction,Legend,Bot*%
%TF.Part,Single*%
G01*
G75*
%TA.AperFunction,NonConductor*%
%ADD77C,0.254*%
%ADD78C,0.100*%
%ADD79C,0.200*%
%ADD81C,0.250*%
%ADD82C,0.300*%
%ADD84C,0.000*%
%ADD85C,0.127*%
G36*
X40341Y32659D02*
X41614D01*
Y32023D01*
X40977D01*
Y31386D01*
X41614D01*
Y30750D01*
X42250D01*
Y29477D01*
X41614D01*
Y30114D01*
X40977D01*
Y30750D01*
X40341D01*
Y30114D01*
X39705D01*
Y30750D01*
X37795D01*
Y30114D01*
X38432D01*
Y29477D01*
X37795D01*
Y30114D01*
X37159D01*
Y30750D01*
X36523D01*
Y30114D01*
X35886D01*
Y29477D01*
X35250D01*
Y30750D01*
X35886D01*
Y30984D01*
Y30985D01*
Y31386D01*
X36523D01*
Y32023D01*
X35886D01*
Y32659D01*
X35250D01*
Y32708D01*
Y32710D01*
Y33295D01*
X35886D01*
Y32659D01*
X37159D01*
Y31386D01*
X37795D01*
Y32659D01*
X37159D01*
Y33932D01*
X37795D01*
Y33295D01*
X39705D01*
Y33932D01*
X40341D01*
Y32659D01*
D02*
G37*
G36*
X42250Y32821D02*
Y32819D01*
Y32659D01*
X41614D01*
Y33295D01*
X42250D01*
Y32821D01*
D02*
G37*
G36*
X39705Y29477D02*
X39068D01*
Y30114D01*
X39705D01*
Y29477D01*
D02*
G37*
%LPC*%
G36*
X40341Y32659D02*
X39705D01*
Y31386D01*
X40341D01*
Y32659D01*
D02*
G37*
%LPD*%
D77*
X49000Y54750D02*
Y62000D01*
X41750Y54758D02*
X42258Y54250D01*
X41750Y54750D02*
X42258Y55258D01*
X41750Y54750D02*
X49000D01*
X50992Y6008D02*
X51500Y5500D01*
X49000Y62000D02*
X49508Y61492D01*
X48500D02*
X49008Y62000D01*
X50992Y5000D02*
X51500Y5508D01*
X49800Y5500D02*
X51500D01*
D78*
X44400Y50350D02*
Y51650D01*
X47600Y50350D02*
Y51650D01*
D79*
X7913Y15970D02*
G03*
X7913Y15970I-100J0D01*
G01*
X6555Y8880D02*
G03*
X6555Y8880I-100J0D01*
G01*
X16600Y20750D02*
G03*
X16600Y20750I-100J0D01*
G01*
X14000Y41600D02*
Y42400D01*
X23600Y50500D02*
X24400D01*
X18700Y80950D02*
X19500D01*
X27000Y72550D02*
Y73350D01*
Y71050D02*
Y71850D01*
X13750Y76600D02*
Y77400D01*
X15700Y80950D02*
X16500D01*
X17200D02*
X18000D01*
X27000Y77050D02*
Y77850D01*
X21700Y80950D02*
X22500D01*
X3000Y70350D02*
Y71150D01*
X9850Y75500D02*
X10650D01*
X27000Y74050D02*
Y74850D01*
Y75550D02*
Y76350D01*
X20200Y80950D02*
X21000D01*
X14000Y46100D02*
Y46900D01*
Y44600D02*
Y45400D01*
Y47600D02*
Y48400D01*
Y49100D02*
Y49900D01*
Y43100D02*
Y43900D01*
X1500Y43100D02*
Y43900D01*
X13250Y68100D02*
Y68900D01*
X27000Y78550D02*
Y79350D01*
X13750Y78100D02*
Y78900D01*
X30175Y18600D02*
Y19400D01*
X38850Y9000D02*
X39650D01*
X40350D02*
X41150D01*
X19377Y64135D02*
X22400D01*
X17601D02*
X18623D01*
X43850Y3250D02*
X44650D01*
X34750Y7600D02*
Y8400D01*
X51100Y17250D02*
X51900D01*
X32500Y3850D02*
Y4650D01*
X28850Y16250D02*
X29650D01*
X37350Y9000D02*
X38150D01*
X51100Y26750D02*
X51900D01*
X51100Y36250D02*
X51900D01*
X36000Y45600D02*
Y46400D01*
Y47100D02*
Y47900D01*
X51100Y20250D02*
X51900D01*
X51100Y10750D02*
X51900D01*
X51100Y29750D02*
X51900D01*
X15651Y64170D02*
X17250D01*
X12100Y66500D02*
X12900D01*
X13600D02*
X14400D01*
X22400Y64135D02*
Y69365D01*
X21012D02*
X22400D01*
X18377D02*
X19988D01*
X17601Y68341D02*
Y68659D01*
Y64135D02*
Y67659D01*
X25100Y64000D02*
X25900D01*
X32500Y13850D02*
Y14650D01*
X25000Y24850D02*
X26150Y26000D01*
X10000Y37150D02*
X12150D01*
Y31000D02*
Y37150D01*
X10000Y28850D02*
X12150Y31000D01*
X5840Y37150D02*
X6000D01*
X3850D02*
X5160D01*
X3850Y31000D02*
Y37150D01*
Y31000D02*
X6000Y28850D01*
X8100Y18000D02*
X8900D01*
X20850Y26000D02*
X22000Y24850D01*
X25340Y30150D02*
X26150D01*
Y26000D02*
Y30150D01*
X9600Y18000D02*
X10400D01*
X20850Y30150D02*
X22000D01*
X20850Y26000D02*
Y30150D01*
X27225Y25250D02*
X28275D01*
X1475Y35000D02*
X2525D01*
X25100Y50500D02*
X25900D01*
X18850D02*
X19650D01*
X1500Y47100D02*
Y47900D01*
X14000Y40100D02*
Y40900D01*
Y50600D02*
Y51400D01*
X22100Y50500D02*
X22900D01*
X31000Y42100D02*
Y42900D01*
Y40600D02*
Y41400D01*
X15700Y17979D02*
X17044D01*
X15700Y16635D02*
Y17979D01*
X5100Y18000D02*
X5900D01*
X6600D02*
X7400D01*
X15700Y6881D02*
X17044D01*
X25956Y17979D02*
X27300D01*
Y16635D02*
Y17979D01*
X15700Y6881D02*
Y8225D01*
X25956Y6881D02*
X27300D01*
Y8225D01*
X47800Y50850D02*
Y51150D01*
X52000Y45100D02*
Y45900D01*
X37350Y43750D02*
X38150D01*
X44750Y63410D02*
X50460D01*
X43540D02*
X43750D01*
X50460Y72481D02*
Y73090D01*
Y64503D02*
Y71519D01*
Y63410D02*
Y63997D01*
X50810Y73135D02*
X52600D01*
X55100Y47250D02*
X55900D01*
X46328Y73090D02*
X50460D01*
X44328D02*
X45672D01*
X43540Y63410D02*
Y73090D01*
X26350Y95000D02*
X27150D01*
X41600Y76500D02*
X42400D01*
X43850Y61500D02*
X44650D01*
X31000Y39100D02*
Y39900D01*
X33600Y76500D02*
X34400D01*
X39600D02*
X40400D01*
X37600D02*
X38400D01*
X34350Y95000D02*
X35150D01*
X30850D02*
X31650D01*
X46340Y49400D02*
X47900D01*
X41100D02*
X45660D01*
X46850Y95250D02*
X47650D01*
X42350D02*
X43150D01*
X38850D02*
X39650D01*
X41100Y36600D02*
Y49400D01*
X43600Y76425D02*
X44400D01*
X45600D02*
X46400D01*
X35600Y76500D02*
X36400D01*
X41100Y36600D02*
X47900D01*
Y49400D01*
X48250Y49390D02*
X50100D01*
X17424Y42133D02*
X17591Y42300D01*
X17924D01*
X18091Y42133D01*
Y41467D01*
X17924Y41300D01*
X17591D01*
X17424Y41467D01*
X16425Y42300D02*
X17091D01*
Y41800D01*
X16758Y41967D01*
X16591D01*
X16425Y41800D01*
Y41467D01*
X16591Y41300D01*
X16925D01*
X17091Y41467D01*
X15425Y42300D02*
X15758Y42133D01*
X16091Y41800D01*
Y41467D01*
X15925Y41300D01*
X15592D01*
X15425Y41467D01*
Y41633D01*
X15592Y41800D01*
X16091D01*
X45750Y36150D02*
Y35317D01*
X45583Y35150D01*
X45250D01*
X45083Y35317D01*
Y36150D01*
X44750Y35150D02*
X44417D01*
X44583D01*
Y36150D01*
X44750Y35983D01*
X43917D02*
X43750Y36150D01*
X43417D01*
X43250Y35983D01*
Y35317D01*
X43417Y35150D01*
X43750D01*
X43917Y35317D01*
Y35983D01*
X53333Y43700D02*
Y44700D01*
X52833D01*
X52666Y44533D01*
Y44200D01*
X52833Y44034D01*
X53333D01*
X53000D02*
X52666Y43700D01*
X51833D02*
Y44700D01*
X52333Y44200D01*
X51667D01*
X51334Y44533D02*
X51167Y44700D01*
X50834D01*
X50667Y44533D01*
Y43867D01*
X50834Y43700D01*
X51167D01*
X51334Y43867D01*
Y44533D01*
X45500Y81950D02*
X46500D01*
Y82450D01*
X46333Y82616D01*
X46000D01*
X45833Y82450D01*
Y81950D01*
Y82283D02*
X45500Y82616D01*
X46333Y82950D02*
X46500Y83116D01*
Y83450D01*
X46333Y83616D01*
X46167D01*
X46000Y83450D01*
Y83283D01*
Y83450D01*
X45833Y83616D01*
X45667D01*
X45500Y83450D01*
Y83116D01*
X45667Y82950D01*
X46333Y83949D02*
X46500Y84116D01*
Y84449D01*
X46333Y84616D01*
X45667D01*
X45500Y84449D01*
Y84116D01*
X45667Y83949D01*
X46333D01*
X43500Y81950D02*
X44500D01*
Y82450D01*
X44333Y82616D01*
X44000D01*
X43833Y82450D01*
Y81950D01*
Y82283D02*
X43500Y82616D01*
X44333Y82950D02*
X44500Y83116D01*
Y83450D01*
X44333Y83616D01*
X44167D01*
X44000Y83450D01*
Y83283D01*
Y83450D01*
X43833Y83616D01*
X43667D01*
X43500Y83450D01*
Y83116D01*
X43667Y82950D01*
X43500Y83949D02*
Y84283D01*
Y84116D01*
X44500D01*
X44333Y83949D01*
X43300Y51500D02*
X43633D01*
X43800Y51333D01*
Y50667D01*
X43633Y50500D01*
X43300D01*
X43134Y50667D01*
Y51333D01*
X43300Y51500D01*
X42800Y50500D02*
X42467D01*
X42634D01*
Y51500D01*
X42800Y51333D01*
X57167Y55200D02*
X57500D01*
X57333D01*
Y54367D01*
X57500Y54200D01*
X57666D01*
X57833Y54367D01*
X56833Y55033D02*
X56667Y55200D01*
X56334D01*
X56167Y55033D01*
Y54866D01*
X56334Y54700D01*
X56500D01*
X56334D01*
X56167Y54533D01*
Y54367D01*
X56334Y54200D01*
X56667D01*
X56833Y54367D01*
X54134Y50500D02*
X54467D01*
X54300D01*
Y49667D01*
X54467Y49500D01*
X54633D01*
X54800Y49667D01*
X53300Y49500D02*
Y50500D01*
X53800Y50000D01*
X53134D01*
X54134Y61000D02*
X54467D01*
X54300D01*
Y60167D01*
X54467Y60000D01*
X54633D01*
X54800Y60167D01*
X53800Y60000D02*
X53467D01*
X53634D01*
Y61000D01*
X53800Y60833D01*
X54104Y58250D02*
X54437D01*
X54270D01*
Y57417D01*
X54437Y57250D01*
X54603D01*
X54770Y57417D01*
X53104Y57250D02*
X53770D01*
X53104Y57917D01*
Y58083D01*
X53270Y58250D01*
X53604D01*
X53770Y58083D01*
X54034Y48108D02*
X54200Y48275D01*
X54533D01*
X54700Y48108D01*
Y47442D01*
X54533Y47275D01*
X54200D01*
X54034Y47442D01*
X53034Y48275D02*
X53700D01*
Y47775D01*
X53367Y47942D01*
X53200D01*
X53034Y47775D01*
Y47442D01*
X53200Y47275D01*
X53534D01*
X53700Y47442D01*
X52701Y47275D02*
X52367D01*
X52534D01*
Y48275D01*
X52701Y48108D01*
X38083Y38801D02*
X38250Y38634D01*
Y38301D01*
X38083Y38134D01*
X37417D01*
X37250Y38301D01*
Y38634D01*
X37417Y38801D01*
X38250Y39800D02*
Y39134D01*
X37750D01*
X37917Y39467D01*
Y39634D01*
X37750Y39800D01*
X37417D01*
X37250Y39634D01*
Y39300D01*
X37417Y39134D01*
X38083Y40134D02*
X38250Y40300D01*
Y40633D01*
X38083Y40800D01*
X37917D01*
X37750Y40633D01*
Y40467D01*
Y40633D01*
X37583Y40800D01*
X37417D01*
X37250Y40633D01*
Y40300D01*
X37417Y40134D01*
X45883Y60834D02*
X46050Y60667D01*
Y60334D01*
X45883Y60167D01*
X45217D01*
X45050Y60334D01*
Y60667D01*
X45217Y60834D01*
X45050Y61667D02*
X46050D01*
X45550Y61167D01*
Y61833D01*
X45050Y62666D02*
X46050D01*
X45550Y62166D01*
Y62833D01*
X47716Y2225D02*
Y3225D01*
X47216D01*
X47049Y3058D01*
Y2725D01*
X47216Y2558D01*
X47716D01*
X47383D02*
X47049Y2225D01*
X46050Y3225D02*
X46716D01*
Y2725D01*
X46383Y2891D01*
X46216D01*
X46050Y2725D01*
Y2392D01*
X46216Y2225D01*
X46550D01*
X46716Y2392D01*
X45716Y3058D02*
X45550Y3225D01*
X45217D01*
X45050Y3058D01*
Y2891D01*
X45217Y2725D01*
X45383D01*
X45217D01*
X45050Y2558D01*
Y2392D01*
X45217Y2225D01*
X45550D01*
X45716Y2392D01*
X34250Y8800D02*
X35250D01*
Y9300D01*
X35083Y9466D01*
X34750D01*
X34583Y9300D01*
Y8800D01*
Y9133D02*
X34250Y9466D01*
X35250Y10466D02*
Y9800D01*
X34750D01*
X34917Y10133D01*
Y10300D01*
X34750Y10466D01*
X34417D01*
X34250Y10300D01*
Y9966D01*
X34417Y9800D01*
X34250Y11466D02*
Y10799D01*
X34917Y11466D01*
X35083D01*
X35250Y11299D01*
Y10966D01*
X35083Y10799D01*
X41500Y77925D02*
X42500D01*
Y78425D01*
X42333Y78591D01*
X42000D01*
X41833Y78425D01*
Y77925D01*
Y78258D02*
X41500Y78591D01*
Y79591D02*
Y78925D01*
X42167Y79591D01*
X42333D01*
X42500Y79425D01*
Y79091D01*
X42333Y78925D01*
X42500Y80591D02*
Y79924D01*
X42000D01*
X42167Y80258D01*
Y80424D01*
X42000Y80591D01*
X41667D01*
X41500Y80424D01*
Y80091D01*
X41667Y79924D01*
X39500Y81950D02*
X40500D01*
Y82450D01*
X40333Y82616D01*
X40000D01*
X39833Y82450D01*
Y81950D01*
Y82283D02*
X39500Y82616D01*
Y83616D02*
Y82950D01*
X40167Y83616D01*
X40333D01*
X40500Y83450D01*
Y83116D01*
X40333Y82950D01*
X40500Y84616D02*
X40333Y84283D01*
X40000Y83949D01*
X39667D01*
X39500Y84116D01*
Y84449D01*
X39667Y84616D01*
X39833D01*
X40000Y84449D01*
Y83949D01*
X37500Y81950D02*
X38500D01*
Y82450D01*
X38333Y82616D01*
X38000D01*
X37833Y82450D01*
Y81950D01*
Y82283D02*
X37500Y82616D01*
Y83616D02*
Y82950D01*
X38167Y83616D01*
X38333D01*
X38500Y83450D01*
Y83116D01*
X38333Y82950D01*
X38500Y83949D02*
Y84616D01*
X38333D01*
X37667Y83949D01*
X37500D01*
X35500Y81950D02*
X36500D01*
Y82450D01*
X36333Y82616D01*
X36000D01*
X35833Y82450D01*
Y81950D01*
Y82283D02*
X35500Y82616D01*
Y83616D02*
Y82950D01*
X36167Y83616D01*
X36333D01*
X36500Y83450D01*
Y83116D01*
X36333Y82950D01*
Y83949D02*
X36500Y84116D01*
Y84449D01*
X36333Y84616D01*
X36167D01*
X36000Y84449D01*
X35833Y84616D01*
X35667D01*
X35500Y84449D01*
Y84116D01*
X35667Y83949D01*
X35833D01*
X36000Y84116D01*
X36167Y83949D01*
X36333D01*
X36000Y84116D02*
Y84449D01*
X33500Y81950D02*
X34500D01*
Y82450D01*
X34333Y82616D01*
X34000D01*
X33833Y82450D01*
Y81950D01*
Y82283D02*
X33500Y82616D01*
Y83616D02*
Y82950D01*
X34167Y83616D01*
X34333D01*
X34500Y83450D01*
Y83116D01*
X34333Y82950D01*
X33667Y83949D02*
X33500Y84116D01*
Y84449D01*
X33667Y84616D01*
X34333D01*
X34500Y84449D01*
Y84116D01*
X34333Y83949D01*
X34167D01*
X34000Y84116D01*
Y84616D01*
X30116Y14450D02*
Y14283D01*
X29783Y13950D01*
X29450Y14283D01*
Y14450D01*
X29783Y13950D02*
Y13450D01*
X28617D02*
Y14450D01*
X29116Y13950D01*
X28450D01*
X42333Y63000D02*
Y62167D01*
X42166Y62000D01*
X41833D01*
X41667Y62167D01*
Y63000D01*
X41333Y62833D02*
X41167Y63000D01*
X40834D01*
X40667Y62833D01*
Y62667D01*
X40834Y62500D01*
X40667Y62333D01*
Y62167D01*
X40834Y62000D01*
X41167D01*
X41333Y62167D01*
Y62333D01*
X41167Y62500D01*
X41333Y62667D01*
Y62833D01*
X41167Y62500D02*
X40834D01*
X22583Y6550D02*
Y5717D01*
X22416Y5550D01*
X22083D01*
X21917Y5717D01*
Y6550D01*
X21583Y5550D02*
X21250D01*
X21417D01*
Y6550D01*
X21583Y6383D01*
X20750Y5550D02*
X20417D01*
X20584D01*
Y6550D01*
X20750Y6383D01*
X20834Y70840D02*
Y70007D01*
X20667Y69840D01*
X20334D01*
X20167Y70007D01*
Y70840D01*
X19834Y70007D02*
X19667Y69840D01*
X19334D01*
X19167Y70007D01*
Y70673D01*
X19334Y70840D01*
X19667D01*
X19834Y70673D01*
Y70506D01*
X19667Y70340D01*
X19167D01*
X3000Y10565D02*
Y9732D01*
X2833Y9565D01*
X2500D01*
X2334Y9732D01*
Y10565D01*
X2000Y9565D02*
X1667D01*
X1834D01*
Y10565D01*
X2000Y10398D01*
X501Y9565D02*
X1167D01*
X501Y10231D01*
Y10398D01*
X667Y10565D01*
X1001D01*
X1167Y10398D01*
X51127Y37838D02*
X52127D01*
Y38338D01*
X51960Y38505D01*
X51627D01*
X51460Y38338D01*
Y37838D01*
Y38171D02*
X51127Y38505D01*
Y39338D02*
X52127D01*
X51627Y38838D01*
Y39504D01*
X51127Y40504D02*
Y39837D01*
X51794Y40504D01*
X51960D01*
X52127Y40337D01*
Y40004D01*
X51960Y39837D01*
X50700Y29250D02*
Y30250D01*
X50200D01*
X50034Y30083D01*
Y29750D01*
X50200Y29583D01*
X50700D01*
X50367D02*
X50034Y29250D01*
X49200D02*
Y30250D01*
X49700Y29750D01*
X49034D01*
X48701Y30083D02*
X48534Y30250D01*
X48201D01*
X48034Y30083D01*
Y29917D01*
X48201Y29750D01*
X48367D01*
X48201D01*
X48034Y29583D01*
Y29417D01*
X48201Y29250D01*
X48534D01*
X48701Y29417D01*
X34554Y45500D02*
Y46500D01*
X34054D01*
X33887Y46333D01*
Y46000D01*
X34054Y45833D01*
X34554D01*
X34220D02*
X33887Y45500D01*
X33554Y46333D02*
X33387Y46500D01*
X33054D01*
X32887Y46333D01*
Y46167D01*
X33054Y46000D01*
X33221D01*
X33054D01*
X32887Y45833D01*
Y45667D01*
X33054Y45500D01*
X33387D01*
X33554Y45667D01*
X32554D02*
X32388Y45500D01*
X32054D01*
X31888Y45667D01*
Y46333D01*
X32054Y46500D01*
X32388D01*
X32554Y46333D01*
Y46167D01*
X32388Y46000D01*
X31888D01*
X34554Y47000D02*
Y48000D01*
X34054D01*
X33887Y47833D01*
Y47500D01*
X34054Y47333D01*
X34554D01*
X34220D02*
X33887Y47000D01*
X33554Y47833D02*
X33387Y48000D01*
X33054D01*
X32887Y47833D01*
Y47667D01*
X33054Y47500D01*
X33221D01*
X33054D01*
X32887Y47333D01*
Y47167D01*
X33054Y47000D01*
X33387D01*
X33554Y47167D01*
X32554Y48000D02*
X31888D01*
Y47833D01*
X32554Y47167D01*
Y47000D01*
X50700Y19750D02*
Y20750D01*
X50200D01*
X50034Y20583D01*
Y20250D01*
X50200Y20083D01*
X50700D01*
X50367D02*
X50034Y19750D01*
X49200D02*
Y20750D01*
X49700Y20250D01*
X49034D01*
X48034Y20750D02*
X48701D01*
Y20250D01*
X48367Y20417D01*
X48201D01*
X48034Y20250D01*
Y19917D01*
X48201Y19750D01*
X48534D01*
X48701Y19917D01*
X50700Y26250D02*
Y27250D01*
X50200D01*
X50034Y27083D01*
Y26750D01*
X50200Y26583D01*
X50700D01*
X50367D02*
X50034Y26250D01*
X49200D02*
Y27250D01*
X49700Y26750D01*
X49034D01*
X48201Y26250D02*
Y27250D01*
X48701Y26750D01*
X48034D01*
X50700Y16750D02*
Y17750D01*
X50200D01*
X50034Y17583D01*
Y17250D01*
X50200Y17083D01*
X50700D01*
X50367D02*
X50034Y16750D01*
X49200D02*
Y17750D01*
X49700Y17250D01*
X49034D01*
X48701Y17583D02*
X48534Y17750D01*
X48201D01*
X48034Y17583D01*
Y17417D01*
X48201Y17250D01*
X48034Y17083D01*
Y16917D01*
X48201Y16750D01*
X48534D01*
X48701Y16917D01*
Y17083D01*
X48534Y17250D01*
X48701Y17417D01*
Y17583D01*
X48534Y17250D02*
X48201D01*
X51195Y13057D02*
Y14056D01*
X50695D01*
X50529Y13890D01*
Y13556D01*
X50695Y13390D01*
X51195D01*
X50862D02*
X50529Y13057D01*
X49529Y14056D02*
X50196D01*
Y13556D01*
X49862Y13723D01*
X49696D01*
X49529Y13556D01*
Y13223D01*
X49696Y13057D01*
X50029D01*
X50196Y13223D01*
X49196Y13890D02*
X49029Y14056D01*
X48696D01*
X48529Y13890D01*
Y13223D01*
X48696Y13057D01*
X49029D01*
X49196Y13223D01*
Y13890D01*
X40250Y11450D02*
X41250D01*
Y11950D01*
X41083Y12116D01*
X40750D01*
X40583Y11950D01*
Y11450D01*
Y11783D02*
X40250Y12116D01*
X41250Y13116D02*
Y12450D01*
X40750D01*
X40917Y12783D01*
Y12950D01*
X40750Y13116D01*
X40417D01*
X40250Y12950D01*
Y12616D01*
X40417Y12450D01*
X40250Y13449D02*
Y13783D01*
Y13616D01*
X41250D01*
X41083Y13449D01*
X30050Y14917D02*
X31050D01*
Y15417D01*
X30883Y15584D01*
X30550D01*
X30383Y15417D01*
Y14917D01*
Y15250D02*
X30050Y15584D01*
Y16417D02*
X31050D01*
X30550Y15917D01*
Y16583D01*
X30217Y16916D02*
X30050Y17083D01*
Y17416D01*
X30217Y17583D01*
X30883D01*
X31050Y17416D01*
Y17083D01*
X30883Y16916D01*
X30716D01*
X30550Y17083D01*
Y17583D01*
X5258Y43000D02*
Y44000D01*
X4758D01*
X4591Y43833D01*
Y43500D01*
X4758Y43333D01*
X5258D01*
X4924D02*
X4591Y43000D01*
X3758D02*
Y44000D01*
X4258Y43500D01*
X3591D01*
X3258Y43000D02*
X2925D01*
X3092D01*
Y44000D01*
X3258Y43833D01*
X3141Y45700D02*
Y46700D01*
X2641D01*
X2474Y46533D01*
Y46200D01*
X2641Y46034D01*
X3141D01*
X2808D02*
X2474Y45700D01*
X2141Y46533D02*
X1975Y46700D01*
X1641D01*
X1475Y46533D01*
Y46367D01*
X1641Y46200D01*
X1808D01*
X1641D01*
X1475Y46034D01*
Y45867D01*
X1641Y45700D01*
X1975D01*
X2141Y45867D01*
X1141Y46533D02*
X975Y46700D01*
X642D01*
X475Y46533D01*
Y46367D01*
X642Y46200D01*
X475Y46034D01*
Y45867D01*
X642Y45700D01*
X975D01*
X1141Y45867D01*
Y46034D01*
X975Y46200D01*
X1141Y46367D01*
Y46533D01*
X975Y46200D02*
X642D01*
X31091Y75450D02*
Y76450D01*
X30591D01*
X30424Y76283D01*
Y75950D01*
X30591Y75783D01*
X31091D01*
X30758D02*
X30424Y75450D01*
X30091Y76283D02*
X29925Y76450D01*
X29591D01*
X29425Y76283D01*
Y76117D01*
X29591Y75950D01*
X29758D01*
X29591D01*
X29425Y75783D01*
Y75617D01*
X29591Y75450D01*
X29925D01*
X30091Y75617D01*
X28592Y75450D02*
Y76450D01*
X29091Y75950D01*
X28425D01*
X13716Y74475D02*
Y75475D01*
X13216D01*
X13049Y75308D01*
Y74975D01*
X13216Y74808D01*
X13716D01*
X13383D02*
X13049Y74475D01*
X12716Y75308D02*
X12550Y75475D01*
X12216D01*
X12050Y75308D01*
Y75141D01*
X12216Y74975D01*
X12383D01*
X12216D01*
X12050Y74808D01*
Y74642D01*
X12216Y74475D01*
X12550D01*
X12716Y74642D01*
X11716Y75308D02*
X11550Y75475D01*
X11217D01*
X11050Y75308D01*
Y75141D01*
X11217Y74975D01*
X11383D01*
X11217D01*
X11050Y74808D01*
Y74642D01*
X11217Y74475D01*
X11550D01*
X11716Y74642D01*
X3025Y71550D02*
X4025D01*
Y72050D01*
X3858Y72216D01*
X3525D01*
X3359Y72050D01*
Y71550D01*
Y71883D02*
X3025Y72216D01*
X3858Y72550D02*
X4025Y72716D01*
Y73050D01*
X3858Y73216D01*
X3692D01*
X3525Y73050D01*
Y72883D01*
Y73050D01*
X3359Y73216D01*
X3192D01*
X3025Y73050D01*
Y72716D01*
X3192Y72550D01*
X4025Y74216D02*
Y73549D01*
X3525D01*
X3692Y73883D01*
Y74049D01*
X3525Y74216D01*
X3192D01*
X3025Y74049D01*
Y73716D01*
X3192Y73549D01*
X17841Y76500D02*
Y77500D01*
X17341D01*
X17174Y77333D01*
Y77000D01*
X17341Y76833D01*
X17841D01*
X17508D02*
X17174Y76500D01*
X16841Y77333D02*
X16675Y77500D01*
X16341D01*
X16175Y77333D01*
Y77167D01*
X16341Y77000D01*
X16508D01*
X16341D01*
X16175Y76833D01*
Y76667D01*
X16341Y76500D01*
X16675D01*
X16841Y76667D01*
X15175Y76500D02*
X15841D01*
X15175Y77167D01*
Y77333D01*
X15342Y77500D01*
X15675D01*
X15841Y77333D01*
X12575Y49000D02*
Y50000D01*
X12075D01*
X11909Y49833D01*
Y49500D01*
X12075Y49333D01*
X12575D01*
X12242D02*
X11909Y49000D01*
X11575Y49833D02*
X11409Y50000D01*
X11075D01*
X10909Y49833D01*
Y49667D01*
X11075Y49500D01*
X11242D01*
X11075D01*
X10909Y49333D01*
Y49167D01*
X11075Y49000D01*
X11409D01*
X11575Y49167D01*
X9909Y50000D02*
X10242Y49833D01*
X10576Y49500D01*
Y49167D01*
X10409Y49000D01*
X10076D01*
X9909Y49167D01*
Y49333D01*
X10076Y49500D01*
X10576D01*
X6500Y20450D02*
X7500D01*
Y20950D01*
X7333Y21116D01*
X7000D01*
X6833Y20950D01*
Y20450D01*
Y20783D02*
X6500Y21116D01*
Y21950D02*
X7500D01*
X7000Y21450D01*
Y22116D01*
X7500Y23116D02*
X7333Y22783D01*
X7000Y22449D01*
X6667D01*
X6500Y22616D01*
Y22949D01*
X6667Y23116D01*
X6833D01*
X7000Y22949D01*
Y22449D01*
X5000Y19425D02*
X6000D01*
Y19925D01*
X5833Y20091D01*
X5500D01*
X5333Y19925D01*
Y19425D01*
Y19758D02*
X5000Y20091D01*
Y20925D02*
X6000D01*
X5500Y20425D01*
Y21091D01*
X6000Y21424D02*
Y22091D01*
X5833D01*
X5167Y21424D01*
X5000D01*
X8763Y11237D02*
Y11903D01*
X8930Y12070D01*
X9263D01*
X9429Y11903D01*
Y11237D01*
X9263Y11070D01*
X8930D01*
X9096Y11404D02*
X8763Y11070D01*
X8930D02*
X8763Y11237D01*
X8430Y11070D02*
X8097D01*
X8263D01*
Y12070D01*
X8430Y11903D01*
X21100Y82375D02*
X20100D01*
Y83041D01*
X21100Y84041D02*
X20933Y83708D01*
X20600Y83375D01*
X20267D01*
X20100Y83541D01*
Y83875D01*
X20267Y84041D01*
X20433D01*
X20600Y83875D01*
Y83375D01*
X12575Y47000D02*
Y46000D01*
X11909D01*
X11575Y47000D02*
X10909D01*
Y46833D01*
X11575Y46167D01*
Y46000D01*
X30516Y25000D02*
Y24000D01*
X29850D01*
X29516Y24167D02*
X29350Y24000D01*
X29017D01*
X28850Y24167D01*
Y24833D01*
X29017Y25000D01*
X29350D01*
X29516Y24833D01*
Y24666D01*
X29350Y24500D01*
X28850D01*
X2500Y36650D02*
X1500D01*
Y37316D01*
X2333Y37650D02*
X2500Y37816D01*
Y38150D01*
X2333Y38316D01*
X2167D01*
X2000Y38150D01*
X1833Y38316D01*
X1667D01*
X1500Y38150D01*
Y37816D01*
X1667Y37650D01*
X1833D01*
X2000Y37816D01*
X2167Y37650D01*
X2333D01*
X2000Y37816D02*
Y38150D01*
X13167Y6850D02*
X13833D01*
Y6350D01*
X13500D01*
X13833D01*
Y5850D01*
X12167D02*
X12833D01*
X12167Y6517D01*
Y6683D01*
X12334Y6850D01*
X12667D01*
X12833Y6683D01*
X17833Y34550D02*
Y33550D01*
X17333D01*
X17167Y33717D01*
Y34383D01*
X17333Y34550D01*
X17833D01*
X16833Y34383D02*
X16667Y34550D01*
X16334D01*
X16167Y34383D01*
Y34216D01*
X16334Y34050D01*
X16167Y33883D01*
Y33717D01*
X16334Y33550D01*
X16667D01*
X16833Y33717D01*
Y33883D01*
X16667Y34050D01*
X16833Y34216D01*
Y34383D01*
X16667Y34050D02*
X16334D01*
X27083Y90301D02*
X27250Y90134D01*
Y89801D01*
X27083Y89634D01*
X26417D01*
X26250Y89801D01*
Y90134D01*
X26417Y90301D01*
X26250Y91300D02*
Y90634D01*
X26917Y91300D01*
X27083D01*
X27250Y91134D01*
Y90800D01*
X27083Y90634D01*
X26417Y91634D02*
X26250Y91800D01*
Y92133D01*
X26417Y92300D01*
X27083D01*
X27250Y92133D01*
Y91800D01*
X27083Y91634D01*
X26917D01*
X26750Y91800D01*
Y92300D01*
X31583Y90301D02*
X31750Y90134D01*
Y89801D01*
X31583Y89634D01*
X30917D01*
X30750Y89801D01*
Y90134D01*
X30917Y90301D01*
X30750Y91300D02*
Y90634D01*
X31417Y91300D01*
X31583D01*
X31750Y91134D01*
Y90800D01*
X31583Y90634D01*
Y91634D02*
X31750Y91800D01*
Y92133D01*
X31583Y92300D01*
X31417D01*
X31250Y92133D01*
X31083Y92300D01*
X30917D01*
X30750Y92133D01*
Y91800D01*
X30917Y91634D01*
X31083D01*
X31250Y91800D01*
X31417Y91634D01*
X31583D01*
X31250Y91800D02*
Y92133D01*
X35083Y90301D02*
X35250Y90134D01*
Y89801D01*
X35083Y89634D01*
X34417D01*
X34250Y89801D01*
Y90134D01*
X34417Y90301D01*
X34250Y91300D02*
Y90634D01*
X34917Y91300D01*
X35083D01*
X35250Y91134D01*
Y90800D01*
X35083Y90634D01*
X35250Y91634D02*
Y92300D01*
X35083D01*
X34417Y91634D01*
X34250D01*
X39583Y90301D02*
X39750Y90134D01*
Y89801D01*
X39583Y89634D01*
X38917D01*
X38750Y89801D01*
Y90134D01*
X38917Y90301D01*
X38750Y91300D02*
Y90634D01*
X39417Y91300D01*
X39583D01*
X39750Y91134D01*
Y90800D01*
X39583Y90634D01*
X39750Y92300D02*
X39583Y91967D01*
X39250Y91634D01*
X38917D01*
X38750Y91800D01*
Y92133D01*
X38917Y92300D01*
X39083D01*
X39250Y92133D01*
Y91634D01*
X43083Y90301D02*
X43250Y90134D01*
Y89801D01*
X43083Y89634D01*
X42417D01*
X42250Y89801D01*
Y90134D01*
X42417Y90301D01*
X42250Y91300D02*
Y90634D01*
X42917Y91300D01*
X43083D01*
X43250Y91134D01*
Y90800D01*
X43083Y90634D01*
X43250Y92300D02*
Y91634D01*
X42750D01*
X42917Y91967D01*
Y92133D01*
X42750Y92300D01*
X42417D01*
X42250Y92133D01*
Y91800D01*
X42417Y91634D01*
X47583Y90301D02*
X47750Y90134D01*
Y89801D01*
X47583Y89634D01*
X46917D01*
X46750Y89801D01*
Y90134D01*
X46917Y90301D01*
X46750Y91300D02*
Y90634D01*
X47417Y91300D01*
X47583D01*
X47750Y91134D01*
Y90800D01*
X47583Y90634D01*
X46750Y92133D02*
X47750D01*
X47250Y91634D01*
Y92300D01*
X39583Y12116D02*
X39750Y11950D01*
Y11617D01*
X39583Y11450D01*
X38917D01*
X38750Y11617D01*
Y11950D01*
X38917Y12116D01*
X39750Y13116D02*
X39583Y12783D01*
X39250Y12450D01*
X38917D01*
X38750Y12616D01*
Y12950D01*
X38917Y13116D01*
X39083D01*
X39250Y12950D01*
Y12450D01*
X39750Y13449D02*
Y14116D01*
X39583D01*
X38917Y13449D01*
X38750D01*
X38083Y12116D02*
X38250Y11950D01*
Y11617D01*
X38083Y11450D01*
X37417D01*
X37250Y11617D01*
Y11950D01*
X37417Y12116D01*
X38250Y13116D02*
X38083Y12783D01*
X37750Y12450D01*
X37417D01*
X37250Y12616D01*
Y12950D01*
X37417Y13116D01*
X37583D01*
X37750Y12950D01*
Y12450D01*
X38250Y14116D02*
X38083Y13783D01*
X37750Y13449D01*
X37417D01*
X37250Y13616D01*
Y13949D01*
X37417Y14116D01*
X37583D01*
X37750Y13949D01*
Y13449D01*
X30841Y20633D02*
X31008Y20800D01*
X31341D01*
X31508Y20633D01*
Y19967D01*
X31341Y19800D01*
X31008D01*
X30841Y19967D01*
X29842Y20800D02*
X30175Y20633D01*
X30508Y20300D01*
Y19967D01*
X30342Y19800D01*
X30008D01*
X29842Y19967D01*
Y20133D01*
X30008Y20300D01*
X30508D01*
X28842Y19800D02*
X29509D01*
X28842Y20466D01*
Y20633D01*
X29009Y20800D01*
X29342D01*
X29509Y20633D01*
X30409Y4583D02*
X30575Y4750D01*
X30908D01*
X31075Y4583D01*
Y3917D01*
X30908Y3750D01*
X30575D01*
X30409Y3917D01*
X29409Y4750D02*
X29742Y4583D01*
X30075Y4250D01*
Y3917D01*
X29909Y3750D01*
X29575D01*
X29409Y3917D01*
Y4083D01*
X29575Y4250D01*
X30075D01*
X29076Y4583D02*
X28909Y4750D01*
X28576D01*
X28409Y4583D01*
Y4417D01*
X28576Y4250D01*
X28409Y4083D01*
Y3917D01*
X28576Y3750D01*
X28909D01*
X29076Y3917D01*
Y4083D01*
X28909Y4250D01*
X29076Y4417D01*
Y4583D01*
X28909Y4250D02*
X28576D01*
X35924Y14583D02*
X36091Y14750D01*
X36424D01*
X36591Y14583D01*
Y13917D01*
X36424Y13750D01*
X36091D01*
X35924Y13917D01*
X34925Y14750D02*
X35258Y14583D01*
X35591Y14250D01*
Y13917D01*
X35425Y13750D01*
X35091D01*
X34925Y13917D01*
Y14083D01*
X35091Y14250D01*
X35591D01*
X33925Y14750D02*
X34591D01*
Y14250D01*
X34258Y14417D01*
X34092D01*
X33925Y14250D01*
Y13917D01*
X34092Y13750D01*
X34425D01*
X34591Y13917D01*
X24000Y32283D02*
X24166Y32450D01*
X24500D01*
X24666Y32283D01*
Y31616D01*
X24500Y31450D01*
X24166D01*
X24000Y31616D01*
X23000Y32450D02*
X23333Y32283D01*
X23667Y31950D01*
Y31616D01*
X23500Y31450D01*
X23167D01*
X23000Y31616D01*
Y31783D01*
X23167Y31950D01*
X23667D01*
X22667Y31450D02*
X22334D01*
X22500D01*
Y32450D01*
X22667Y32283D01*
X30424Y77783D02*
X30591Y77950D01*
X30924D01*
X31091Y77783D01*
Y77117D01*
X30924Y76950D01*
X30591D01*
X30424Y77117D01*
X30091Y77783D02*
X29925Y77950D01*
X29591D01*
X29425Y77783D01*
Y77617D01*
X29591Y77450D01*
X29758D01*
X29591D01*
X29425Y77283D01*
Y77117D01*
X29591Y76950D01*
X29925D01*
X30091Y77117D01*
X28425Y77950D02*
X28758Y77783D01*
X29091Y77450D01*
Y77117D01*
X28925Y76950D01*
X28592D01*
X28425Y77117D01*
Y77283D01*
X28592Y77450D01*
X29091D01*
X14333Y63409D02*
X14500Y63242D01*
Y62909D01*
X14333Y62742D01*
X13667D01*
X13500Y62909D01*
Y63242D01*
X13667Y63409D01*
X13500Y64242D02*
X14500D01*
X14000Y63742D01*
Y64409D01*
X13500Y64742D02*
Y65075D01*
Y64908D01*
X14500D01*
X14333Y64742D01*
X11533Y65834D02*
X11700Y65667D01*
Y65334D01*
X11533Y65167D01*
X10867D01*
X10700Y65334D01*
Y65667D01*
X10867Y65834D01*
X10700Y66667D02*
X11700D01*
X11200Y66167D01*
Y66833D01*
X10700Y67833D02*
Y67166D01*
X11367Y67833D01*
X11533D01*
X11700Y67666D01*
Y67333D01*
X11533Y67166D01*
X30424Y71783D02*
X30591Y71950D01*
X30924D01*
X31091Y71783D01*
Y71117D01*
X30924Y70950D01*
X30591D01*
X30424Y71117D01*
X30091Y71783D02*
X29925Y71950D01*
X29591D01*
X29425Y71783D01*
Y71617D01*
X29591Y71450D01*
X29758D01*
X29591D01*
X29425Y71283D01*
Y71117D01*
X29591Y70950D01*
X29925D01*
X30091Y71117D01*
X29091D02*
X28925Y70950D01*
X28592D01*
X28425Y71117D01*
Y71783D01*
X28592Y71950D01*
X28925D01*
X29091Y71783D01*
Y71617D01*
X28925Y71450D01*
X28425D01*
X13916Y70133D02*
X14083Y70300D01*
X14416D01*
X14583Y70133D01*
Y69467D01*
X14416Y69300D01*
X14083D01*
X13916Y69467D01*
X13083Y69300D02*
Y70300D01*
X13583Y69800D01*
X12917D01*
X12584Y70133D02*
X12417Y70300D01*
X12084D01*
X11917Y70133D01*
Y69467D01*
X12084Y69300D01*
X12417D01*
X12584Y69467D01*
Y70133D01*
X11666Y78833D02*
X11833Y79000D01*
X12166D01*
X12333Y78833D01*
Y78167D01*
X12166Y78000D01*
X11833D01*
X11666Y78167D01*
X11333Y78833D02*
X11167Y79000D01*
X10833D01*
X10667Y78833D01*
Y78667D01*
X10833Y78500D01*
X11000D01*
X10833D01*
X10667Y78333D01*
Y78167D01*
X10833Y78000D01*
X11167D01*
X11333Y78167D01*
X9667Y79000D02*
X10334D01*
Y78500D01*
X10000Y78667D01*
X9834D01*
X9667Y78500D01*
Y78167D01*
X9834Y78000D01*
X10167D01*
X10334Y78167D01*
X22433Y83041D02*
X22600Y82875D01*
Y82542D01*
X22433Y82375D01*
X21767D01*
X21600Y82542D01*
Y82875D01*
X21767Y83041D01*
X22433Y83375D02*
X22600Y83541D01*
Y83875D01*
X22433Y84041D01*
X22267D01*
X22100Y83875D01*
Y83708D01*
Y83875D01*
X21933Y84041D01*
X21767D01*
X21600Y83875D01*
Y83541D01*
X21767Y83375D01*
X22433Y84374D02*
X22600Y84541D01*
Y84874D01*
X22433Y85041D01*
X21767D01*
X21600Y84874D01*
Y84541D01*
X21767Y84374D01*
X22433D01*
X19433Y83041D02*
X19600Y82875D01*
Y82542D01*
X19433Y82375D01*
X18767D01*
X18600Y82542D01*
Y82875D01*
X18767Y83041D01*
X19433Y83375D02*
X19600Y83541D01*
Y83875D01*
X19433Y84041D01*
X19267D01*
X19100Y83875D01*
Y83708D01*
Y83875D01*
X18933Y84041D01*
X18767D01*
X18600Y83875D01*
Y83541D01*
X18767Y83375D01*
X18600Y84374D02*
Y84708D01*
Y84541D01*
X19600D01*
X19433Y84374D01*
X17933Y83041D02*
X18100Y82875D01*
Y82542D01*
X17933Y82375D01*
X17267D01*
X17100Y82542D01*
Y82875D01*
X17267Y83041D01*
X17933Y83375D02*
X18100Y83541D01*
Y83875D01*
X17933Y84041D01*
X17767D01*
X17600Y83875D01*
Y83708D01*
Y83875D01*
X17433Y84041D01*
X17267D01*
X17100Y83875D01*
Y83541D01*
X17267Y83375D01*
X17100Y85041D02*
Y84374D01*
X17767Y85041D01*
X17933D01*
X18100Y84874D01*
Y84541D01*
X17933Y84374D01*
X16433Y83041D02*
X16600Y82875D01*
Y82542D01*
X16433Y82375D01*
X15767D01*
X15600Y82542D01*
Y82875D01*
X15767Y83041D01*
X16433Y83375D02*
X16600Y83541D01*
Y83875D01*
X16433Y84041D01*
X16267D01*
X16100Y83875D01*
Y83708D01*
Y83875D01*
X15933Y84041D01*
X15767D01*
X15600Y83875D01*
Y83541D01*
X15767Y83375D01*
X16433Y84374D02*
X16600Y84541D01*
Y84874D01*
X16433Y85041D01*
X16267D01*
X16100Y84874D01*
Y84708D01*
Y84874D01*
X15933Y85041D01*
X15767D01*
X15600Y84874D01*
Y84541D01*
X15767Y84374D01*
X30424Y74783D02*
X30591Y74950D01*
X30924D01*
X31091Y74783D01*
Y74117D01*
X30924Y73950D01*
X30591D01*
X30424Y74117D01*
X30091Y74783D02*
X29925Y74950D01*
X29591D01*
X29425Y74783D01*
Y74617D01*
X29591Y74450D01*
X29758D01*
X29591D01*
X29425Y74283D01*
Y74117D01*
X29591Y73950D01*
X29925D01*
X30091Y74117D01*
X29091Y74950D02*
X28425D01*
Y74783D01*
X29091Y74117D01*
Y73950D01*
X30424Y73283D02*
X30591Y73450D01*
X30924D01*
X31091Y73283D01*
Y72617D01*
X30924Y72450D01*
X30591D01*
X30424Y72617D01*
X30091Y73283D02*
X29925Y73450D01*
X29591D01*
X29425Y73283D01*
Y73117D01*
X29591Y72950D01*
X29758D01*
X29591D01*
X29425Y72783D01*
Y72617D01*
X29591Y72450D01*
X29925D01*
X30091Y72617D01*
X29091Y73283D02*
X28925Y73450D01*
X28592D01*
X28425Y73283D01*
Y73117D01*
X28592Y72950D01*
X28425Y72783D01*
Y72617D01*
X28592Y72450D01*
X28925D01*
X29091Y72617D01*
Y72783D01*
X28925Y72950D01*
X29091Y73117D01*
Y73283D01*
X28925Y72950D02*
X28592D01*
X30424Y79283D02*
X30591Y79450D01*
X30924D01*
X31091Y79283D01*
Y78617D01*
X30924Y78450D01*
X30591D01*
X30424Y78617D01*
X30091Y79283D02*
X29925Y79450D01*
X29591D01*
X29425Y79283D01*
Y79117D01*
X29591Y78950D01*
X29758D01*
X29591D01*
X29425Y78783D01*
Y78617D01*
X29591Y78450D01*
X29925D01*
X30091Y78617D01*
X28592Y78450D02*
Y79450D01*
X29091Y78950D01*
X28425D01*
X25833Y60576D02*
X26000Y60409D01*
Y60076D01*
X25833Y59909D01*
X25167D01*
X25000Y60076D01*
Y60409D01*
X25167Y60576D01*
X25000Y61409D02*
X26000D01*
X25500Y60909D01*
Y61575D01*
X25833Y61909D02*
X26000Y62075D01*
Y62408D01*
X25833Y62575D01*
X25667D01*
X25500Y62408D01*
Y62242D01*
Y62408D01*
X25333Y62575D01*
X25167D01*
X25000Y62408D01*
Y62075D01*
X25167Y61909D01*
X11909Y48333D02*
X12075Y48500D01*
X12408D01*
X12575Y48333D01*
Y47667D01*
X12408Y47500D01*
X12075D01*
X11909Y47667D01*
X10909Y48500D02*
X11575D01*
Y48000D01*
X11242Y48167D01*
X11075D01*
X10909Y48000D01*
Y47667D01*
X11075Y47500D01*
X11409D01*
X11575Y47667D01*
X10576Y48333D02*
X10409Y48500D01*
X10076D01*
X9909Y48333D01*
Y47667D01*
X10076Y47500D01*
X10409D01*
X10576Y47667D01*
Y48333D01*
X11909Y40833D02*
X12075Y41000D01*
X12408D01*
X12575Y40833D01*
Y40167D01*
X12408Y40000D01*
X12075D01*
X11909Y40167D01*
X10909Y41000D02*
X11575D01*
Y40500D01*
X11242Y40667D01*
X11075D01*
X10909Y40500D01*
Y40167D01*
X11075Y40000D01*
X11409D01*
X11575Y40167D01*
X10576Y40833D02*
X10409Y41000D01*
X10076D01*
X9909Y40833D01*
Y40667D01*
X10076Y40500D01*
X9909Y40333D01*
Y40167D01*
X10076Y40000D01*
X10409D01*
X10576Y40167D01*
Y40333D01*
X10409Y40500D01*
X10576Y40667D01*
Y40833D01*
X10409Y40500D02*
X10076D01*
X21533Y49834D02*
X21700Y49667D01*
Y49334D01*
X21533Y49167D01*
X20867D01*
X20700Y49334D01*
Y49667D01*
X20867Y49834D01*
X20700Y50667D02*
X21700D01*
X21200Y50167D01*
Y50833D01*
X21700Y51166D02*
Y51833D01*
X21533D01*
X20867Y51166D01*
X20700D01*
X11909Y45333D02*
X12075Y45500D01*
X12408D01*
X12575Y45333D01*
Y44667D01*
X12408Y44500D01*
X12075D01*
X11909Y44667D01*
X10909Y45500D02*
X11575D01*
Y45000D01*
X11242Y45167D01*
X11075D01*
X10909Y45000D01*
Y44667D01*
X11075Y44500D01*
X11409D01*
X11575Y44667D01*
X9909Y44500D02*
X10576D01*
X9909Y45167D01*
Y45333D01*
X10076Y45500D01*
X10409D01*
X10576Y45333D01*
X18283Y49834D02*
X18450Y49667D01*
Y49334D01*
X18283Y49167D01*
X17617D01*
X17450Y49334D01*
Y49667D01*
X17617Y49834D01*
X17450Y50667D02*
X18450D01*
X17950Y50167D01*
Y50833D01*
X18283Y51166D02*
X18450Y51333D01*
Y51666D01*
X18283Y51833D01*
X18117D01*
X17950Y51666D01*
X17784Y51833D01*
X17617D01*
X17450Y51666D01*
Y51333D01*
X17617Y51166D01*
X17784D01*
X17950Y51333D01*
X18117Y51166D01*
X18283D01*
X17950Y51333D02*
Y51666D01*
X24254Y52591D02*
X24421Y52425D01*
Y52092D01*
X24254Y51925D01*
X23588D01*
X23421Y52092D01*
Y52425D01*
X23588Y52591D01*
X23421Y53425D02*
X24421D01*
X23921Y52925D01*
Y53591D01*
X24421Y54591D02*
X24254Y54258D01*
X23921Y53924D01*
X23588D01*
X23421Y54091D01*
Y54424D01*
X23588Y54591D01*
X23754D01*
X23921Y54424D01*
Y53924D01*
X25833Y52591D02*
X26000Y52425D01*
Y52092D01*
X25833Y51925D01*
X25167D01*
X25000Y52092D01*
Y52425D01*
X25167Y52591D01*
X25000Y53425D02*
X26000D01*
X25500Y52925D01*
Y53591D01*
X26000Y54591D02*
Y53924D01*
X25500D01*
X25667Y54258D01*
Y54424D01*
X25500Y54591D01*
X25167D01*
X25000Y54424D01*
Y54091D01*
X25167Y53924D01*
X34424Y41333D02*
X34591Y41500D01*
X34924D01*
X35091Y41333D01*
Y40667D01*
X34924Y40500D01*
X34591D01*
X34424Y40667D01*
X33425Y41500D02*
X34091D01*
Y41000D01*
X33758Y41167D01*
X33591D01*
X33425Y41000D01*
Y40667D01*
X33591Y40500D01*
X33925D01*
X34091Y40667D01*
X33091Y41500D02*
X32425D01*
Y41333D01*
X33091Y40667D01*
Y40500D01*
X34424Y39833D02*
X34591Y40000D01*
X34924D01*
X35091Y39833D01*
Y39167D01*
X34924Y39000D01*
X34591D01*
X34424Y39167D01*
X33425Y40000D02*
X34091D01*
Y39500D01*
X33758Y39667D01*
X33591D01*
X33425Y39500D01*
Y39167D01*
X33591Y39000D01*
X33925D01*
X34091Y39167D01*
X33091D02*
X32925Y39000D01*
X32592D01*
X32425Y39167D01*
Y39833D01*
X32592Y40000D01*
X32925D01*
X33091Y39833D01*
Y39667D01*
X32925Y39500D01*
X32425D01*
X11909Y43833D02*
X12075Y44000D01*
X12408D01*
X12575Y43833D01*
Y43167D01*
X12408Y43000D01*
X12075D01*
X11909Y43167D01*
X10909Y44000D02*
X11575D01*
Y43500D01*
X11242Y43667D01*
X11075D01*
X10909Y43500D01*
Y43167D01*
X11075Y43000D01*
X11409D01*
X11575Y43167D01*
X10076Y43000D02*
Y44000D01*
X10576Y43500D01*
X9909D01*
X34424Y42833D02*
X34591Y43000D01*
X34924D01*
X35091Y42833D01*
Y42167D01*
X34924Y42000D01*
X34591D01*
X34424Y42167D01*
X33425Y43000D02*
X34091D01*
Y42500D01*
X33758Y42667D01*
X33591D01*
X33425Y42500D01*
Y42167D01*
X33591Y42000D01*
X33925D01*
X34091Y42167D01*
X32425Y43000D02*
X33091D01*
Y42500D01*
X32758Y42667D01*
X32592D01*
X32425Y42500D01*
Y42167D01*
X32592Y42000D01*
X32925D01*
X33091Y42167D01*
X11909Y51333D02*
X12075Y51500D01*
X12408D01*
X12575Y51333D01*
Y50667D01*
X12408Y50500D01*
X12075D01*
X11909Y50667D01*
X11075Y50500D02*
Y51500D01*
X11575Y51000D01*
X10909D01*
X10576Y50667D02*
X10409Y50500D01*
X10076D01*
X9909Y50667D01*
Y51333D01*
X10076Y51500D01*
X10409D01*
X10576Y51333D01*
Y51167D01*
X10409Y51000D01*
X9909D01*
X8666Y26633D02*
X8833Y26800D01*
X9166D01*
X9333Y26633D01*
Y25967D01*
X9166Y25800D01*
X8833D01*
X8666Y25967D01*
X7667Y26800D02*
X8000Y26633D01*
X8333Y26300D01*
Y25967D01*
X8167Y25800D01*
X7833D01*
X7667Y25967D01*
Y26134D01*
X7833Y26300D01*
X8333D01*
X7334Y26633D02*
X7167Y26800D01*
X6834D01*
X6667Y26633D01*
Y25967D01*
X6834Y25800D01*
X7167D01*
X7334Y25967D01*
Y26633D01*
X10333Y20091D02*
X10500Y19925D01*
Y19592D01*
X10333Y19425D01*
X9667D01*
X9500Y19592D01*
Y19925D01*
X9667Y20091D01*
X10500Y21091D02*
X10333Y20758D01*
X10000Y20425D01*
X9667D01*
X9500Y20591D01*
Y20925D01*
X9667Y21091D01*
X9833D01*
X10000Y20925D01*
Y20425D01*
X10333Y21424D02*
X10500Y21591D01*
Y21924D01*
X10333Y22091D01*
X10167D01*
X10000Y21924D01*
Y21758D01*
Y21924D01*
X9833Y22091D01*
X9667D01*
X9500Y21924D01*
Y21591D01*
X9667Y21424D01*
X8833Y20091D02*
X9000Y19925D01*
Y19592D01*
X8833Y19425D01*
X8167D01*
X8000Y19592D01*
Y19925D01*
X8167Y20091D01*
X9000Y21091D02*
X8833Y20758D01*
X8500Y20425D01*
X8167D01*
X8000Y20591D01*
Y20925D01*
X8167Y21091D01*
X8333D01*
X8500Y20925D01*
Y20425D01*
X8000Y21924D02*
X9000D01*
X8500Y21424D01*
Y22091D01*
D81*
X31254Y11750D02*
Y13250D01*
X33500Y5750D02*
Y6750D01*
X28500Y5750D02*
Y6750D01*
Y11750D02*
Y12750D01*
X19952Y24530D02*
Y25530D01*
X19202Y24530D02*
X19952D01*
X14048D02*
Y25530D01*
X19952Y31470D02*
Y32470D01*
X19202D02*
X19952D01*
X14048Y24530D02*
X14798D01*
X17610Y28665D02*
X17889Y28944D01*
X14048Y31470D02*
Y32470D01*
X14798D01*
X16111Y28945D02*
X16709Y28347D01*
X43998Y28233D02*
Y27233D01*
X43498D01*
X43332Y27400D01*
Y28066D01*
X43498Y28233D01*
X43998D01*
X42499Y27233D02*
X42832D01*
X42999Y27400D01*
Y27733D01*
X42832Y27900D01*
X42499D01*
X42332Y27733D01*
Y27566D01*
X42999D01*
X41999Y27233D02*
X41499D01*
X41333Y27400D01*
X41499Y27566D01*
X41832D01*
X41999Y27733D01*
X41832Y27900D01*
X41333D01*
X40999Y27233D02*
X40666D01*
X40833D01*
Y27900D01*
X40999D01*
X39833Y26900D02*
X39666D01*
X39500Y27067D01*
Y27900D01*
X40000D01*
X40166Y27733D01*
Y27400D01*
X40000Y27233D01*
X39500D01*
X39167D02*
Y27900D01*
X38667D01*
X38500Y27733D01*
Y27233D01*
X37667D02*
X38000D01*
X38167Y27400D01*
Y27733D01*
X38000Y27900D01*
X37667D01*
X37500Y27733D01*
Y27566D01*
X38167D01*
X36501Y28233D02*
Y27233D01*
X37001D01*
X37167Y27400D01*
Y27733D01*
X37001Y27900D01*
X36501D01*
X35168Y28233D02*
Y27233D01*
X34668D01*
X34501Y27400D01*
Y27566D01*
Y27733D01*
X34668Y27900D01*
X35168D01*
X34168D02*
Y27400D01*
X34002Y27233D01*
X33502D01*
Y27067D01*
X33668Y26900D01*
X33835D01*
X33502Y27233D02*
Y27900D01*
X46831Y25100D02*
Y26100D01*
X46331D01*
X46164Y25933D01*
Y25600D01*
X46331Y25434D01*
X46831D01*
X46498D02*
X46164Y25100D01*
X45831Y25767D02*
Y25267D01*
X45664Y25100D01*
X45165D01*
Y25767D01*
X44831Y25100D02*
X44332D01*
X44165Y25267D01*
X44332Y25434D01*
X44665D01*
X44831Y25600D01*
X44665Y25767D01*
X44165D01*
X43832Y25100D02*
X43332D01*
X43165Y25267D01*
X43332Y25434D01*
X43665D01*
X43832Y25600D01*
X43665Y25767D01*
X43165D01*
X42332Y25100D02*
X42665D01*
X42832Y25267D01*
Y25600D01*
X42665Y25767D01*
X42332D01*
X42166Y25600D01*
Y25434D01*
X42832D01*
X41832Y25100D02*
X41499D01*
X41666D01*
Y26100D01*
X41832D01*
X40999Y25100D02*
X40666D01*
X40833D01*
Y26100D01*
X40999D01*
X39167Y25100D02*
Y26100D01*
X38833Y25767D01*
X38500Y26100D01*
Y25100D01*
X38000Y25767D02*
X37667D01*
X37500Y25600D01*
Y25100D01*
X38000D01*
X38167Y25267D01*
X38000Y25434D01*
X37500D01*
X36501Y25767D02*
X37001D01*
X37167Y25600D01*
Y25267D01*
X37001Y25100D01*
X36501D01*
X35501Y25933D02*
X35668Y26100D01*
X36001D01*
X36167Y25933D01*
Y25267D01*
X36001Y25100D01*
X35668D01*
X35501Y25267D01*
Y25600D01*
X35834D01*
X35168Y25767D02*
Y25100D01*
Y25434D01*
X35001Y25600D01*
X34835Y25767D01*
X34668D01*
X33668Y25100D02*
X34002D01*
X34168Y25267D01*
Y25600D01*
X34002Y25767D01*
X33668D01*
X33502Y25600D01*
Y25434D01*
X34168D01*
X32835Y24767D02*
X32669D01*
X32502Y24934D01*
Y25767D01*
X33002D01*
X33168Y25600D01*
Y25267D01*
X33002Y25100D01*
X32502D01*
X32002D02*
X31669D01*
X31502Y25267D01*
Y25600D01*
X31669Y25767D01*
X32002D01*
X32169Y25600D01*
Y25267D01*
X32002Y25100D01*
X31169Y25767D02*
Y25100D01*
Y25434D01*
X31003Y25600D01*
X30836Y25767D01*
X30669D01*
X49250Y4900D02*
Y6100D01*
X48850Y5700D01*
X48450Y6100D01*
Y4900D01*
X48050Y5900D02*
X47850Y6100D01*
X47451D01*
X47251Y5900D01*
Y5700D01*
X47451Y5500D01*
X47651D01*
X47451D01*
X47251Y5300D01*
Y5100D01*
X47451Y4900D01*
X47850D01*
X48050Y5100D01*
X46851Y4900D02*
Y5100D01*
X46651D01*
Y4900D01*
X46851D01*
X45051Y6100D02*
X45851D01*
Y5500D01*
X45451Y5700D01*
X45251D01*
X45051Y5500D01*
Y5100D01*
X45251Y4900D01*
X45651D01*
X45851Y5100D01*
X46775Y54250D02*
X47174Y54050D01*
X47574Y53650D01*
Y53250D01*
X47374Y53050D01*
X46974D01*
X46775Y53250D01*
Y53450D01*
X46974Y53650D01*
X47574D01*
X46375Y54050D02*
X46175Y54250D01*
X45775D01*
X45575Y54050D01*
Y53250D01*
X45775Y53050D01*
X46175D01*
X46375Y53250D01*
Y54050D01*
X45175Y53050D02*
Y53850D01*
X44975D01*
X44775Y53650D01*
Y53050D01*
Y53650D01*
X44575Y53850D01*
X44375Y53650D01*
Y53050D01*
X43975D02*
Y53850D01*
X43776D01*
X43576Y53650D01*
Y53050D01*
Y53650D01*
X43376Y53850D01*
X43176Y53650D01*
Y53050D01*
X49950Y55076D02*
X49750Y55276D01*
Y55676D01*
X49950Y55876D01*
X50750D01*
X50950Y55676D01*
Y55276D01*
X50750Y55076D01*
X50550D01*
X50350Y55276D01*
Y55876D01*
X49950Y56276D02*
X49750Y56476D01*
Y56875D01*
X49950Y57075D01*
X50750D01*
X50950Y56875D01*
Y56476D01*
X50750Y56276D01*
X50550D01*
X50350Y56476D01*
Y57075D01*
X49750Y57475D02*
X50550D01*
Y57675D01*
X50350Y57875D01*
X49750D01*
X50350D01*
X50550Y58075D01*
X50350Y58275D01*
X49750D01*
Y58675D02*
X50550D01*
Y58875D01*
X50350Y59075D01*
X49750D01*
X50350D01*
X50550Y59275D01*
X50350Y59475D01*
X49750D01*
X48250Y58500D02*
Y57300D01*
X47650D01*
X47450Y57500D01*
Y57700D01*
X47650Y57900D01*
X48250D01*
X47650D01*
X47450Y58100D01*
Y58300D01*
X47650Y58500D01*
X48250D01*
X46850Y57300D02*
X46451D01*
X46251Y57500D01*
Y57900D01*
X46451Y58100D01*
X46850D01*
X47050Y57900D01*
Y57500D01*
X46850Y57300D01*
X45651Y58100D02*
X45251D01*
X45051Y57900D01*
Y57300D01*
X45651D01*
X45851Y57500D01*
X45651Y57700D01*
X45051D01*
X44651Y58100D02*
Y57300D01*
Y57700D01*
X44451Y57900D01*
X44251Y58100D01*
X44051D01*
X42652Y58500D02*
Y57300D01*
X43252D01*
X43452Y57500D01*
Y57900D01*
X43252Y58100D01*
X42652D01*
X48250Y56700D02*
Y55500D01*
X47650D01*
X47450Y55700D01*
Y56500D01*
X47650Y56700D01*
X48250D01*
X47050Y55500D02*
X46651D01*
X46850D01*
Y56300D01*
X47050D01*
X46051Y55500D02*
Y56300D01*
X45851D01*
X45651Y56100D01*
Y55500D01*
Y56100D01*
X45451Y56300D01*
X45251Y56100D01*
Y55500D01*
X38249Y61250D02*
Y62250D01*
X37749D01*
X37583Y62083D01*
Y61750D01*
X37749Y61584D01*
X38249D01*
X37916D02*
X37583Y61250D01*
X36750D02*
X37083D01*
X37250Y61417D01*
Y61750D01*
X37083Y61917D01*
X36750D01*
X36583Y61750D01*
Y61584D01*
X37250D01*
X36250Y61250D02*
X35917D01*
X36083D01*
Y62250D01*
X36250D01*
X35250Y61917D02*
X34917D01*
X34750Y61750D01*
Y61250D01*
X35250D01*
X35417Y61417D01*
X35250Y61584D01*
X34750D01*
X34417Y61917D02*
Y61417D01*
X34251Y61250D01*
X33751D01*
Y61084D01*
X33917Y60917D01*
X34084D01*
X33751Y61250D02*
Y61917D01*
X38749Y54250D02*
Y53250D01*
X38249D01*
X38083Y53417D01*
Y53584D01*
X38249Y53750D01*
X38749D01*
X38249D01*
X38083Y53917D01*
Y54083D01*
X38249Y54250D01*
X38749D01*
X37749Y53917D02*
Y53417D01*
X37583Y53250D01*
X37083D01*
Y53917D01*
X36750D02*
X36083D01*
X36750Y53250D01*
X36083D01*
X35750Y53917D02*
X35084D01*
X35750Y53250D01*
X35084D01*
X34251D02*
X34584D01*
X34750Y53417D01*
Y53750D01*
X34584Y53917D01*
X34251D01*
X34084Y53750D01*
Y53584D01*
X34750D01*
X33751Y53917D02*
Y53250D01*
Y53584D01*
X33584Y53750D01*
X33417Y53917D01*
X33251D01*
D82*
X25700Y24100D02*
Y25100D01*
X26200Y24600D02*
X25200D01*
X11500Y28000D02*
Y29000D01*
X12000Y28500D02*
X11000D01*
D84*
X14727Y7300D02*
G03*
X14727Y7300I-127J0D01*
G01*
D85*
X14600Y9400D02*
Y11600D01*
X11400Y9400D02*
Y11600D01*
X9483Y13320D02*
X10213D01*
X7313D02*
X8043D01*
X10213D02*
Y14005D01*
X3450Y10950D02*
Y14050D01*
X6550Y10950D02*
Y14050D01*
X7313Y13320D02*
Y14005D01*
X58620Y56850D02*
Y58650D01*
X55320Y56850D02*
Y58650D01*
X55350Y51850D02*
Y53650D01*
X55360Y58650D02*
X58580D01*
X55320Y56850D02*
X58620D01*
X55350Y49100D02*
X58650D01*
Y50900D01*
X55350Y49100D02*
Y50900D01*
X55390D02*
X58610D01*
X55390Y61400D02*
X58610D01*
X55390Y53650D02*
X58610D01*
X55350Y51850D02*
X58650D01*
Y53650D01*
X55350Y59600D02*
X58650D01*
Y61400D01*
X55350Y59600D02*
Y61400D01*
%TF.MD5,21a41b59ce3c99524554afde9c23eb2f*%
M02*
