%TF.GenerationSoftware,Altium Limited,Altium Designer,25.2.1 (25)*%
G04 Layer_Color=16711833*
%FSLAX43Y43*%
%MOMM*%
%TF.SameCoordinates,383C1AB2-B6DC-4F99-AD1F-0000B79E000F*%
%TF.FilePolarity,Positive*%
%TF.FileFunction,Other,Physical_Outline*%
%TF.Part,Single*%
G01*
G75*
%TA.AperFunction,NonConductor*%
%ADD35C,0.100*%
%ADD37C,0.254*%
D35*
X61540Y30045D02*
Y32580D01*
X56460D02*
X61540D01*
X61540Y30045D02*
X63064D01*
X61540Y22415D02*
Y24950D01*
X56460Y22415D02*
X61540D01*
X63064Y24955D02*
Y30045D01*
X63059Y24950D02*
X63064Y24955D01*
X61540Y24950D02*
X63059D01*
X63064Y24955D01*
X56460Y22415D02*
Y32580D01*
X32100Y37200D02*
Y38800D01*
Y37200D02*
X32900D01*
Y38800D01*
X32100D02*
X32900D01*
X59375Y59000D02*
X60625D01*
X59375Y57000D02*
Y59000D01*
Y57000D02*
X60625D01*
Y59000D01*
X45536Y59100D02*
X54476D01*
X45536D02*
Y67270D01*
X54476D01*
Y59100D02*
Y67270D01*
X48350Y63450D02*
X49150D01*
X48350D02*
Y65050D01*
X49150D01*
Y63450D02*
Y65050D01*
X41450Y24600D02*
X43050D01*
X41450Y23800D02*
Y24600D01*
Y23800D02*
X43050D01*
Y24600D01*
X13600Y17450D02*
X14400D01*
X13600D02*
Y19050D01*
X14400D01*
Y17450D02*
Y19050D01*
X15600Y17450D02*
X16400D01*
X15600D02*
Y19050D01*
X16400D01*
Y17450D02*
Y19050D01*
X17600Y17450D02*
X18400D01*
X17600D02*
Y19050D01*
X18400D01*
Y17450D02*
Y19050D01*
X19600Y17450D02*
X20400D01*
X19600D02*
Y19050D01*
X20400D01*
Y17450D02*
Y19050D01*
X21600Y17450D02*
X22400D01*
X21600D02*
Y19050D01*
X22400D01*
Y17450D02*
Y19050D01*
X52650Y54450D02*
Y56050D01*
X51850D02*
X52650D01*
X51850Y54450D02*
Y56050D01*
Y54450D02*
X52650D01*
X51150D02*
Y56050D01*
X50350Y54450D02*
X51150D01*
X50350D02*
Y56050D01*
X51150D01*
X49650Y54450D02*
Y56050D01*
X48850Y54450D02*
X49650D01*
X48850D02*
Y56050D01*
X49650D01*
X38770Y65800D02*
X39570D01*
Y64200D02*
Y65800D01*
X38770Y64200D02*
X39570D01*
X38770D02*
Y65800D01*
X36230D02*
X37030D01*
Y64200D02*
Y65800D01*
X36230Y64200D02*
X37030D01*
X36230D02*
Y65800D01*
X26770D02*
X27570D01*
Y64200D02*
Y65800D01*
X26770Y64200D02*
X27570D01*
X26770D02*
Y65800D01*
X24230D02*
X25030D01*
Y64200D02*
Y65800D01*
X24230Y64200D02*
X25030D01*
X24230D02*
Y65800D01*
X14770D02*
X15570D01*
Y64200D02*
Y65800D01*
X14770Y64200D02*
X15570D01*
X14770D02*
Y65800D01*
X12230D02*
X13030D01*
Y64200D02*
Y65800D01*
X12230Y64200D02*
X13030D01*
X12230D02*
Y65800D01*
X16600Y39800D02*
X17250Y40450D01*
X10750Y39800D02*
X17250D01*
X10750D02*
Y44200D01*
X17250D01*
Y39800D02*
Y44200D01*
X18100Y38700D02*
X18900D01*
X18100D02*
Y40300D01*
X18900D01*
Y38700D02*
Y40300D01*
X18100Y45300D02*
X18900D01*
Y43700D02*
Y45300D01*
X18100Y43700D02*
X18900D01*
X18100D02*
Y45300D01*
X8700Y29130D02*
X10300D01*
Y29930D01*
X8700D02*
X10300D01*
X8700Y29130D02*
Y29930D01*
Y31670D02*
X10300D01*
Y32470D01*
X8700D02*
X10300D01*
X8700Y31670D02*
Y32470D01*
X54151Y16860D02*
X55751D01*
X54151Y16060D02*
Y16860D01*
Y16060D02*
X55751D01*
Y16860D01*
X54151Y19400D02*
X55751D01*
X54151Y18600D02*
Y19400D01*
Y18600D02*
X55751D01*
Y19400D01*
X37600Y37200D02*
Y38800D01*
Y37200D02*
X38400D01*
Y38800D01*
X37600D02*
X38400D01*
X42900Y37200D02*
Y38800D01*
X42100D02*
X42900D01*
X42100Y37200D02*
Y38800D01*
Y37200D02*
X42900D01*
X40600D02*
X41400D01*
X40600D02*
Y38800D01*
X41400D01*
Y37200D02*
Y38800D01*
X43600D02*
X44400D01*
Y37200D02*
Y38800D01*
X43600Y37200D02*
X44400D01*
X43600D02*
Y38800D01*
X39100Y37200D02*
X39900D01*
X39100D02*
Y38800D01*
X39900D01*
Y37200D02*
Y38800D01*
X47600Y20700D02*
Y22300D01*
Y20700D02*
X48400D01*
Y22300D01*
X47600D02*
X48400D01*
X47200Y32400D02*
X48800D01*
X47200Y31600D02*
Y32400D01*
Y31600D02*
X48800D01*
Y32400D01*
X23885Y42115D02*
X29115D01*
Y36885D02*
Y42115D01*
X23885Y36885D02*
X29115D01*
X23885D02*
Y42115D01*
Y40845D02*
X25155Y42115D01*
X31375Y19700D02*
X33875D01*
X31375Y16500D02*
Y19700D01*
Y16500D02*
X33875D01*
Y19700D01*
X34850Y15450D02*
X35650D01*
Y17050D01*
X34850D02*
X35650D01*
X34850Y15450D02*
Y17050D01*
X29600Y18200D02*
X30400D01*
Y19800D01*
X29600D02*
X30400D01*
X29600Y18200D02*
Y19800D01*
X43050Y31400D02*
Y32200D01*
X41450Y31400D02*
X43050D01*
X41450D02*
Y32200D01*
X43050D01*
Y28350D02*
Y29150D01*
X41450Y28350D02*
X43050D01*
X41450D02*
Y29150D01*
X43050D01*
Y26850D02*
Y27650D01*
X41450Y26850D02*
X43050D01*
X41450D02*
Y27650D01*
X43050D01*
X34779Y17200D02*
X35579D01*
X34779D02*
Y18800D01*
X35579D01*
Y17200D02*
Y18800D01*
X33255Y17200D02*
X34055D01*
X33255D02*
Y18800D01*
X34055D01*
Y17200D02*
Y18800D01*
X31096Y17200D02*
X31896D01*
X31096D02*
Y18800D01*
X31896D01*
Y17200D02*
Y18800D01*
X21450Y25800D02*
Y26600D01*
X23050D01*
Y25800D02*
Y26600D01*
X21450Y25800D02*
X23050D01*
X21450Y27800D02*
Y28600D01*
X23050D01*
Y27800D02*
Y28600D01*
X21450Y27800D02*
X23050D01*
X21450Y29800D02*
Y30600D01*
X23050D01*
Y29800D02*
Y30600D01*
X21450Y29800D02*
X23050D01*
X29650Y38800D02*
X30450D01*
Y37200D02*
Y38800D01*
X29650Y37200D02*
X30450D01*
X29650D02*
Y38800D01*
X36100D02*
X36900D01*
Y37200D02*
Y38800D01*
X36100Y37200D02*
X36900D01*
X36100D02*
Y38800D01*
X13375Y17000D02*
X14625D01*
X13375Y15000D02*
Y17000D01*
Y15000D02*
X14625D01*
Y17000D01*
X15375D02*
X16625D01*
X15375Y15000D02*
Y17000D01*
Y15000D02*
X16625D01*
Y17000D01*
X17375D02*
X18625D01*
X17375Y15000D02*
Y17000D01*
Y15000D02*
X18625D01*
Y17000D01*
X19375D02*
X20625D01*
X19375Y15000D02*
Y17000D01*
Y15000D02*
X20625D01*
Y17000D01*
X21375D02*
X22625D01*
X21375Y15000D02*
Y17000D01*
Y15000D02*
X22625D01*
Y17000D01*
X1438Y38547D02*
X8042D01*
Y45913D01*
X1438D02*
X8042D01*
X1438Y38547D02*
Y45913D01*
X35650Y18125D02*
Y19725D01*
X34850Y18125D02*
X35650D01*
X34850D02*
Y19725D01*
X35650D01*
X29800Y42850D02*
Y43650D01*
X28200D02*
X29800D01*
X28200Y42850D02*
Y43650D01*
Y42850D02*
X29800D01*
X2960Y8105D02*
X8040D01*
X2960D02*
Y25895D01*
X8040D01*
Y8105D02*
Y25895D01*
X21315Y1436D02*
Y2960D01*
X13685Y1436D02*
X21315D01*
X13685D02*
Y2960D01*
X11150Y2960D02*
X13685D01*
X23850D02*
Y8040D01*
X11150Y2960D02*
Y8040D01*
X21315Y2960D02*
X23850D01*
X11145Y8040D02*
X23855D01*
X56460Y44638D02*
Y54803D01*
X63059Y47173D02*
X63064Y47178D01*
X61540Y47173D02*
X63059D01*
X63064Y47178D01*
Y52268D01*
X56460Y44638D02*
X61540D01*
Y47173D01*
X61540Y52268D02*
X63064D01*
X56460Y54803D02*
X61540D01*
Y52268D02*
Y54803D01*
X56460Y33589D02*
Y43754D01*
X63059Y36124D02*
X63064Y36129D01*
X61540Y36124D02*
X63059D01*
X63064Y36129D01*
Y41219D01*
X56460Y33589D02*
X61540D01*
Y36124D01*
X61540Y41219D02*
X63064D01*
X56460Y43754D02*
X61540D01*
Y41219D02*
Y43754D01*
X56460Y11375D02*
Y21540D01*
X63059Y13910D02*
X63064Y13915D01*
X61540Y13910D02*
X63059D01*
X63064Y13915D01*
Y19005D01*
X56460Y11375D02*
X61540D01*
Y13910D01*
X61540Y19005D02*
X63064D01*
X56460Y21540D02*
X61540D01*
Y19005D02*
Y21540D01*
X53895Y2960D02*
Y8040D01*
X36105Y2960D02*
X53895D01*
X36105D02*
Y8040D01*
X53895D01*
X8040Y26990D02*
Y37155D01*
X1436Y34615D02*
X1441Y34620D01*
X2960D01*
X1436Y34615D02*
X1441Y34620D01*
X1436Y29525D02*
Y34615D01*
X2960Y37155D02*
X8040D01*
X2960Y34620D02*
Y37155D01*
X1436Y29525D02*
X2960D01*
X2960Y26990D02*
X8040D01*
X2960D02*
Y29525D01*
D37*
X45005Y26505D02*
Y32495D01*
Y26505D02*
X50995D01*
Y32495D01*
X45005D02*
X50995D01*
X45005Y18505D02*
X50995D01*
X45005D02*
Y24495D01*
X50995D01*
Y18505D02*
Y24495D01*
%TF.MD5,66b0fb512ac87a566b036823a414a1ae*%
M02*
