%TF.GenerationSoftware,Altium Limited,Altium Designer,25.2.1 (25)*%
G04 Layer_Color=255*
%FSLAX43Y43*%
%MOMM*%
%TF.SameCoordinates,383C1AB2-B6DC-4F99-AD1F-0000B79E000F*%
%TF.FilePolarity,Positive*%
%TF.FileFunction,Pads,Bot*%
%TF.Part,Single*%
G01*
G75*
%TA.AperFunction,SMDPad,CuDef*%
%ADD19R,0.700X0.650*%
%ADD23R,0.650X0.700*%
%TA.AperFunction,ComponentPad*%
%ADD25C,6.000*%
%ADD26C,1.725*%
%ADD27C,2.250*%
%ADD28C,2.750*%
%ADD29C,1.250*%
%ADD30C,2.000*%
%ADD31C,1.500*%
%TA.AperFunction,SMDPad,CuDef*%
%ADD33R,0.450X1.475*%
D19*
X32500Y38675D02*
D03*
Y37325D02*
D03*
X48750Y64925D02*
D03*
Y63575D02*
D03*
X14000Y18925D02*
D03*
Y17575D02*
D03*
X16000Y18925D02*
D03*
Y17575D02*
D03*
X18000Y18925D02*
D03*
Y17575D02*
D03*
X20000Y18925D02*
D03*
Y17575D02*
D03*
X22000Y18925D02*
D03*
Y17575D02*
D03*
X52250Y54575D02*
D03*
Y55925D02*
D03*
X39170Y64325D02*
D03*
Y65675D02*
D03*
X36630Y64325D02*
D03*
Y65675D02*
D03*
X27170Y64325D02*
D03*
Y65675D02*
D03*
X24630Y64325D02*
D03*
Y65675D02*
D03*
X15170Y64325D02*
D03*
Y65675D02*
D03*
X12630Y64325D02*
D03*
Y65675D02*
D03*
X18500Y40175D02*
D03*
Y38825D02*
D03*
Y43825D02*
D03*
Y45175D02*
D03*
X38000Y38675D02*
D03*
Y37325D02*
D03*
X42500D02*
D03*
Y38675D02*
D03*
X41000D02*
D03*
Y37325D02*
D03*
X44000D02*
D03*
Y38675D02*
D03*
X39500D02*
D03*
Y37325D02*
D03*
X48000Y22175D02*
D03*
Y20825D02*
D03*
X35179Y18675D02*
D03*
Y17325D02*
D03*
X33655Y18675D02*
D03*
Y17325D02*
D03*
X31496Y18675D02*
D03*
Y17325D02*
D03*
X30050Y37325D02*
D03*
Y38675D02*
D03*
X36500Y37325D02*
D03*
Y38675D02*
D03*
D23*
X42925Y24200D02*
D03*
X41575D02*
D03*
X8825Y29530D02*
D03*
X10175D02*
D03*
X8825Y32070D02*
D03*
X10175D02*
D03*
X55626Y16460D02*
D03*
X54276D02*
D03*
X55626Y19000D02*
D03*
X54276D02*
D03*
X48675Y32000D02*
D03*
X47325D02*
D03*
X41575Y31800D02*
D03*
X42925D02*
D03*
X41575Y28750D02*
D03*
X42925D02*
D03*
X41575Y27250D02*
D03*
X42925D02*
D03*
X22925Y26200D02*
D03*
X21575D02*
D03*
X22925Y28200D02*
D03*
X21575D02*
D03*
X22925Y30200D02*
D03*
X21575D02*
D03*
D25*
X4500Y63500D02*
D03*
X60000Y4500D02*
D03*
X4500D02*
D03*
X60000Y63000D02*
D03*
D26*
X59000Y30040D02*
D03*
Y27500D02*
D03*
Y24960D02*
D03*
X5500Y40960D02*
D03*
Y43500D02*
D03*
X13690Y5500D02*
D03*
X16230D02*
D03*
X18770D02*
D03*
X21310D02*
D03*
X59000Y47183D02*
D03*
Y49723D02*
D03*
Y52263D02*
D03*
Y36134D02*
D03*
Y38674D02*
D03*
Y41214D02*
D03*
Y13920D02*
D03*
Y16460D02*
D03*
Y19000D02*
D03*
X5500Y34610D02*
D03*
Y32070D02*
D03*
Y29530D02*
D03*
D27*
X54326Y59920D02*
D03*
X45686D02*
D03*
D28*
X54326Y64970D02*
D03*
X45686D02*
D03*
D29*
X46406Y61855D02*
D03*
X53606Y61920D02*
D03*
D30*
X51250Y27250D02*
D03*
X44750D02*
D03*
X51250Y31750D02*
D03*
X44750D02*
D03*
X51250Y19250D02*
D03*
X44750D02*
D03*
X51250Y23750D02*
D03*
X44750D02*
D03*
X5500Y10650D02*
D03*
Y13190D02*
D03*
Y15730D02*
D03*
Y18270D02*
D03*
Y20810D02*
D03*
Y23350D02*
D03*
X51350Y5500D02*
D03*
X48810D02*
D03*
X46270D02*
D03*
X43730D02*
D03*
X41190D02*
D03*
X38650D02*
D03*
D31*
X36630Y62080D02*
D03*
X39170D02*
D03*
X36630Y59540D02*
D03*
X39170D02*
D03*
X36630Y57000D02*
D03*
X39170D02*
D03*
X36630Y54460D02*
D03*
X39170D02*
D03*
X36630Y51920D02*
D03*
X39170D02*
D03*
X24630Y62080D02*
D03*
X27170D02*
D03*
X24630Y59540D02*
D03*
X27170D02*
D03*
X24630Y57000D02*
D03*
X27170D02*
D03*
X24630Y54460D02*
D03*
X27170D02*
D03*
X24630Y51920D02*
D03*
X27170D02*
D03*
X12630Y62080D02*
D03*
X15170D02*
D03*
X12630Y59540D02*
D03*
X15170D02*
D03*
X12630Y57000D02*
D03*
X15170D02*
D03*
X12630Y54460D02*
D03*
X15170D02*
D03*
X12630Y51920D02*
D03*
X15170D02*
D03*
D33*
X16925Y44938D02*
D03*
X16275D02*
D03*
X15625D02*
D03*
X14975D02*
D03*
X14325D02*
D03*
X13675D02*
D03*
X13025D02*
D03*
X12375D02*
D03*
X11725D02*
D03*
X11075D02*
D03*
Y39062D02*
D03*
X11725D02*
D03*
X12375D02*
D03*
X13025D02*
D03*
X13675D02*
D03*
X14325D02*
D03*
X14975D02*
D03*
X15625D02*
D03*
X16275D02*
D03*
X16925D02*
D03*
%TF.MD5,c0aadacd0577805346f05b7fb4a2249e*%
M02*
