%TF.GenerationSoftware,Altium Limited,Altium Designer,25.2.1 (25)*%
G04 Layer_Color=8421504*
%FSLAX43Y43*%
%MOMM*%
%TF.SameCoordinates,383C1AB2-B6DC-4F99-AD1F-0000B79E000F*%
%TF.FilePolarity,Positive*%
%TF.FileFunction,Paste,Top*%
%TF.Part,Single*%
G01*
G75*
%TA.AperFunction,SMDPad,CuDef*%
G04:AMPARAMS|DCode=13|XSize=0.78mm|YSize=0.22mm|CornerRadius=0.028mm|HoleSize=0mm|Usage=FLASHONLY|Rotation=270.000|XOffset=0mm|YOffset=0mm|HoleType=Round|Shape=RoundedRectangle|*
%AMROUNDEDRECTD13*
21,1,0.780,0.165,0,0,270.0*
21,1,0.725,0.220,0,0,270.0*
1,1,0.055,-0.083,-0.363*
1,1,0.055,-0.083,0.363*
1,1,0.055,0.083,0.363*
1,1,0.055,0.083,-0.363*
%
%ADD13ROUNDEDRECTD13*%
G04:AMPARAMS|DCode=14|XSize=0.78mm|YSize=0.22mm|CornerRadius=0.028mm|HoleSize=0mm|Usage=FLASHONLY|Rotation=180.000|XOffset=0mm|YOffset=0mm|HoleType=Round|Shape=RoundedRectangle|*
%AMROUNDEDRECTD14*
21,1,0.780,0.165,0,0,180.0*
21,1,0.725,0.220,0,0,180.0*
1,1,0.055,-0.363,0.083*
1,1,0.055,0.363,0.083*
1,1,0.055,0.363,-0.083*
1,1,0.055,-0.363,-0.083*
%
%ADD14ROUNDEDRECTD14*%
G04:AMPARAMS|DCode=15|XSize=3.4mm|YSize=3.4mm|CornerRadius=0.425mm|HoleSize=0mm|Usage=FLASHONLY|Rotation=90.000|XOffset=0mm|YOffset=0mm|HoleType=Round|Shape=RoundedRectangle|*
%AMROUNDEDRECTD15*
21,1,3.400,2.550,0,0,90.0*
21,1,2.550,3.400,0,0,90.0*
1,1,0.850,1.275,1.275*
1,1,0.850,1.275,-1.275*
1,1,0.850,-1.275,-1.275*
1,1,0.850,-1.275,1.275*
%
%ADD15ROUNDEDRECTD15*%
%ADD16R,1.250X0.600*%
%ADD17R,0.270X0.900*%
%ADD18R,0.270X0.800*%
%ADD19R,0.700X0.650*%
%ADD20R,1.600X0.650*%
%ADD21R,1.050X1.300*%
G04:AMPARAMS|DCode=22|XSize=1.25mm|YSize=0.6mm|CornerRadius=0.06mm|HoleSize=0mm|Usage=FLASHONLY|Rotation=180.000|XOffset=0mm|YOffset=0mm|HoleType=Round|Shape=RoundedRectangle|*
%AMROUNDEDRECTD22*
21,1,1.250,0.480,0,0,180.0*
21,1,1.130,0.600,0,0,180.0*
1,1,0.120,-0.565,0.240*
1,1,0.120,0.565,0.240*
1,1,0.120,0.565,-0.240*
1,1,0.120,-0.565,-0.240*
%
%ADD22ROUNDEDRECTD22*%
%ADD23R,0.650X0.700*%
G36*
X1500Y4500D02*
X4500Y1500D01*
X7500Y4500D01*
X4500Y7500D01*
X1500Y4500D01*
D02*
G37*
G36*
X60000Y7500D02*
X57000Y4500D01*
X60000Y1500D01*
X63000Y4500D01*
X60000Y7500D01*
D02*
G37*
G36*
X4500Y66500D02*
X1500Y63500D01*
X4500Y60500D01*
X7500Y63500D01*
X4500Y66500D01*
D02*
G37*
G36*
X57000Y63000D02*
X60000Y60000D01*
X63000Y63000D01*
X60000Y66000D01*
X57000Y63000D01*
D02*
G37*
D13*
X28450Y33000D02*
D03*
X28850D02*
D03*
X29250D02*
D03*
X29650D02*
D03*
X30050D02*
D03*
X30450D02*
D03*
X30850D02*
D03*
X31250D02*
D03*
X31650D02*
D03*
X36050D02*
D03*
X35650D02*
D03*
X35250D02*
D03*
X34850D02*
D03*
X34450D02*
D03*
X34050D02*
D03*
X33650D02*
D03*
X33250D02*
D03*
X32850D02*
D03*
X32450D02*
D03*
X32050D02*
D03*
X36050Y23000D02*
D03*
X35650D02*
D03*
X35250D02*
D03*
X34850D02*
D03*
X34450D02*
D03*
X34050D02*
D03*
X33650D02*
D03*
X33250D02*
D03*
X32850D02*
D03*
X28450D02*
D03*
X28850D02*
D03*
X29250D02*
D03*
X29650D02*
D03*
X30050D02*
D03*
X30450D02*
D03*
X30850D02*
D03*
X31250D02*
D03*
X31650D02*
D03*
X32050D02*
D03*
X32450D02*
D03*
D14*
X37250Y31800D02*
D03*
Y31400D02*
D03*
Y31000D02*
D03*
Y30600D02*
D03*
Y30200D02*
D03*
Y29800D02*
D03*
Y29400D02*
D03*
Y29000D02*
D03*
Y28600D02*
D03*
Y24200D02*
D03*
Y24600D02*
D03*
Y25000D02*
D03*
Y25400D02*
D03*
Y25800D02*
D03*
Y26200D02*
D03*
Y26600D02*
D03*
Y27000D02*
D03*
Y27400D02*
D03*
Y27800D02*
D03*
Y28200D02*
D03*
X27250Y24200D02*
D03*
Y24600D02*
D03*
Y25000D02*
D03*
Y25400D02*
D03*
Y25800D02*
D03*
Y26200D02*
D03*
Y26600D02*
D03*
Y27000D02*
D03*
Y27400D02*
D03*
Y31800D02*
D03*
Y31400D02*
D03*
Y31000D02*
D03*
Y30600D02*
D03*
Y30200D02*
D03*
Y29800D02*
D03*
Y29400D02*
D03*
Y29000D02*
D03*
Y28600D02*
D03*
Y28200D02*
D03*
Y27800D02*
D03*
D15*
X32250Y28000D02*
D03*
D16*
X60000Y57100D02*
D03*
Y58900D02*
D03*
D17*
X52631Y59220D02*
D03*
X52131D02*
D03*
X51631D02*
D03*
X51131D02*
D03*
X50631D02*
D03*
X50131D02*
D03*
X49631D02*
D03*
X49131D02*
D03*
X48631D02*
D03*
X48131D02*
D03*
X47631D02*
D03*
X47131D02*
D03*
D18*
X47381Y60820D02*
D03*
X47881D02*
D03*
X48381D02*
D03*
X48881D02*
D03*
X49381D02*
D03*
X49881D02*
D03*
X50381D02*
D03*
X50881D02*
D03*
X51381D02*
D03*
X51881D02*
D03*
X52381D02*
D03*
X52881D02*
D03*
D19*
X50750Y55925D02*
D03*
Y54575D02*
D03*
X49250Y55925D02*
D03*
Y54575D02*
D03*
X35250Y16925D02*
D03*
Y15575D02*
D03*
X30000Y19675D02*
D03*
Y18325D02*
D03*
X35250Y19600D02*
D03*
Y18250D02*
D03*
D20*
X22951Y41405D02*
D03*
Y40135D02*
D03*
Y38865D02*
D03*
Y37595D02*
D03*
X30051D02*
D03*
Y38865D02*
D03*
Y40135D02*
D03*
Y41405D02*
D03*
D21*
X33500Y19250D02*
D03*
Y16950D02*
D03*
X31750D02*
D03*
Y19250D02*
D03*
D22*
X14000Y16900D02*
D03*
Y15100D02*
D03*
X16000Y16900D02*
D03*
Y15100D02*
D03*
X18000Y16900D02*
D03*
Y15100D02*
D03*
X20000Y16900D02*
D03*
Y15100D02*
D03*
X22000Y16900D02*
D03*
Y15100D02*
D03*
D23*
X28325Y43250D02*
D03*
X29675D02*
D03*
%TF.MD5,511e91f8c4e3fb5a55b658ca4bf706ce*%
M02*
