%TF.GenerationSoftware,Altium Limited,Altium Designer,25.2.1 (25)*%
G04 Layer_Color=32768*
%FSLAX43Y43*%
%MOMM*%
%TF.SameCoordinates,27D013C5-8E9A-4B1D-A81B-7FE8227930E9*%
%TF.FilePolarity,Positive*%
%TF.FileFunction,Other,Mechanical_15*%
%TF.Part,Single*%
G01*
G75*
%TA.AperFunction,NonConductor*%
%ADD23C,0.100*%
D23*
X98000Y4500D02*
G03*
X98000Y4500I-3500J0D01*
G01*
X8000D02*
G03*
X8000Y4500I-3500J0D01*
G01*
X98000Y36000D02*
G03*
X98000Y36000I-3500J0D01*
G01*
X8000D02*
G03*
X8000Y36000I-3500J0D01*
G01*
X32730Y18300D02*
X85530D01*
X32730D02*
Y29320D01*
X85530D01*
Y18300D02*
Y29320D01*
X66900Y3050D02*
Y5950D01*
X65100Y3050D02*
Y5950D01*
X66900D01*
X65100Y3050D02*
X66900D01*
X65400Y6275D02*
Y8725D01*
X66600D01*
Y6275D02*
Y8725D01*
X65400Y6275D02*
X66600D01*
X68900Y3050D02*
Y5950D01*
X67100Y3050D02*
Y5950D01*
X68900D01*
X67100Y3050D02*
X68900D01*
X67400Y6275D02*
Y8725D01*
X68600D01*
Y6275D02*
Y8725D01*
X67400Y6275D02*
X68600D01*
X70900Y3050D02*
Y5950D01*
X69100Y3050D02*
Y5950D01*
X70900D01*
X69100Y3050D02*
X70900D01*
X69400Y6275D02*
Y8725D01*
X70600D01*
Y6275D02*
Y8725D01*
X69400Y6275D02*
X70600D01*
X77665Y1190D02*
Y8290D01*
X88335Y1190D02*
Y8290D01*
X77665Y1190D02*
X88335D01*
X77665Y8290D02*
X88335D01*
X12450Y3600D02*
Y5400D01*
X9550Y3600D02*
Y5400D01*
Y3600D02*
X12450D01*
X9550Y5400D02*
X12450D01*
%TF.MD5,273ebf20522627be6ac77859ef0c7fff*%
M02*
