%TF.GenerationSoftware,Altium Limited,Altium Designer,25.2.1 (25)*%
G04 Layer_Color=8388736*
%FSLAX43Y43*%
%MOMM*%
%TF.SameCoordinates,27D013C5-8E9A-4B1D-A81B-7FE8227930E9*%
%TF.FilePolarity,Negative*%
%TF.FileFunction,Soldermask,Top*%
%TF.Part,Single*%
G01*
G75*
%TA.AperFunction,SMDPad,CuDef*%
G04:AMPARAMS|DCode=29|XSize=1.4mm|YSize=0.75mm|CornerRadius=0.135mm|HoleSize=0mm|Usage=FLASHONLY|Rotation=180.000|XOffset=0mm|YOffset=0mm|HoleType=Round|Shape=RoundedRectangle|*
%AMROUNDEDRECTD29*
21,1,1.400,0.480,0,0,180.0*
21,1,1.130,0.750,0,0,180.0*
1,1,0.270,-0.565,0.240*
1,1,0.270,0.565,0.240*
1,1,0.270,0.565,-0.240*
1,1,0.270,-0.565,-0.240*
%
%ADD29ROUNDEDRECTD29*%
%ADD30R,0.850X0.800*%
%ADD31R,0.750X1.400*%
%TA.AperFunction,ComponentPad*%
%ADD32C,6.150*%
%ADD33C,1.550*%
%ADD34C,2.650*%
%ADD35C,1.875*%
%TA.AperFunction,ViaPad*%
%ADD36C,0.850*%
D29*
X66000Y5400D02*
D03*
Y3600D02*
D03*
X68000Y5400D02*
D03*
Y3600D02*
D03*
X70000Y5400D02*
D03*
Y3600D02*
D03*
D30*
X66000Y6825D02*
D03*
Y8175D02*
D03*
X68000Y6825D02*
D03*
Y8175D02*
D03*
X70000Y6825D02*
D03*
Y8175D02*
D03*
D31*
X10100Y4500D02*
D03*
X11900D02*
D03*
D32*
X94500D02*
D03*
X4500D02*
D03*
X94500Y36000D02*
D03*
X4500D02*
D03*
D33*
X83260Y27620D02*
D03*
Y20000D02*
D03*
X80720Y27620D02*
D03*
Y20000D02*
D03*
X78180Y27620D02*
D03*
Y20000D02*
D03*
X75640Y27620D02*
D03*
Y20000D02*
D03*
X73100Y27620D02*
D03*
Y20000D02*
D03*
X70560Y27620D02*
D03*
Y20000D02*
D03*
X68020Y27620D02*
D03*
Y20000D02*
D03*
X65480Y27620D02*
D03*
Y20000D02*
D03*
X62940Y27620D02*
D03*
Y20000D02*
D03*
X60400Y27620D02*
D03*
Y20000D02*
D03*
X57860Y27620D02*
D03*
Y20000D02*
D03*
X55320Y27620D02*
D03*
Y20000D02*
D03*
X52780Y27620D02*
D03*
Y20000D02*
D03*
X50240Y27620D02*
D03*
Y20000D02*
D03*
X47700Y27620D02*
D03*
Y20000D02*
D03*
X45160Y27620D02*
D03*
Y20000D02*
D03*
X42620Y27620D02*
D03*
Y20000D02*
D03*
X40080Y27620D02*
D03*
Y20000D02*
D03*
X37540Y27620D02*
D03*
Y20000D02*
D03*
X35000Y27620D02*
D03*
Y20000D02*
D03*
D34*
X32500Y6500D02*
D03*
X37580D02*
D03*
X27500D02*
D03*
X22420D02*
D03*
D35*
X80460Y5500D02*
D03*
X83000D02*
D03*
X85540D02*
D03*
D36*
X72000Y3500D02*
D03*
X13500Y4500D02*
D03*
%TF.MD5,069cea2d6e4b672d42bb65080bfd0683*%
M02*
