%TF.GenerationSoftware,Altium Limited,Altium Designer,25.2.1 (25)*%
G04 Layer_Color=128*
%FSLAX43Y43*%
%MOMM*%
%TF.SameCoordinates,C3C72CCD-19DF-4086-A731-6AB0B0A2BFE7*%
%TF.FilePolarity,Positive*%
%TF.FileFunction,Paste,Bot*%
%TF.Part,Single*%
G01*
G75*
%TA.AperFunction,SMDPad,CuDef*%
%ADD13R,0.700X0.650*%
%ADD22R,0.650X0.700*%
D13*
X48000Y20675D02*
D03*
Y19325D02*
D03*
X52500Y39325D02*
D03*
Y40675D02*
D03*
X49500Y39325D02*
D03*
Y40675D02*
D03*
X72500Y31675D02*
D03*
Y30325D02*
D03*
X32500Y11325D02*
D03*
Y12675D02*
D03*
X16000Y11325D02*
D03*
Y12675D02*
D03*
X18500Y11325D02*
D03*
Y12675D02*
D03*
X30000Y11325D02*
D03*
Y12675D02*
D03*
X72500Y40175D02*
D03*
Y38825D02*
D03*
X55500Y40675D02*
D03*
Y39325D02*
D03*
X58500D02*
D03*
Y40675D02*
D03*
X57000D02*
D03*
Y39325D02*
D03*
X60000D02*
D03*
Y40675D02*
D03*
X51000Y20675D02*
D03*
Y19325D02*
D03*
X46500Y20675D02*
D03*
Y19325D02*
D03*
X54000Y39325D02*
D03*
Y40675D02*
D03*
X46000Y39325D02*
D03*
Y40675D02*
D03*
D22*
X83825Y59250D02*
D03*
X85175D02*
D03*
X29825Y56750D02*
D03*
X31175D02*
D03*
X56825D02*
D03*
X58175D02*
D03*
X56825Y59250D02*
D03*
X58175D02*
D03*
X29825D02*
D03*
X31175D02*
D03*
X83825Y56750D02*
D03*
X85175D02*
D03*
X40175Y33250D02*
D03*
X38825D02*
D03*
X58825Y34000D02*
D03*
X60175D02*
D03*
X58825Y31000D02*
D03*
X60175D02*
D03*
X40175Y30750D02*
D03*
X38825D02*
D03*
X40175Y27750D02*
D03*
X38825D02*
D03*
X58825Y29500D02*
D03*
X60175D02*
D03*
X58825Y26000D02*
D03*
X60175D02*
D03*
%TF.MD5,da521d30165adcfc653c45d676dc6653*%
M02*
