%TF.GenerationSoftware,Altium Limited,Altium Designer,25.2.1 (25)*%
G04 Layer_Color=255*
%FSLAX43Y43*%
%MOMM*%
%TF.SameCoordinates,C3C72CCD-19DF-4086-A731-6AB0B0A2BFE7*%
%TF.FilePolarity,Positive*%
%TF.FileFunction,Pads,Bot*%
%TF.Part,Single*%
G01*
G75*
%TA.AperFunction,SMDPad,CuDef*%
%ADD13R,0.700X0.650*%
%ADD22R,0.650X0.700*%
%TA.AperFunction,ComponentPad*%
%ADD29C,2.500*%
%ADD30C,1.524*%
%ADD31C,6.000*%
%ADD32C,2.000*%
%ADD33C,1.725*%
%ADD34C,1.250*%
%ADD35C,2.750*%
%ADD36C,2.250*%
%ADD37C,1.500*%
D13*
X48000Y20675D02*
D03*
Y19325D02*
D03*
X52500Y39325D02*
D03*
Y40675D02*
D03*
X49500Y39325D02*
D03*
Y40675D02*
D03*
X72500Y31675D02*
D03*
Y30325D02*
D03*
X32500Y11325D02*
D03*
Y12675D02*
D03*
X16000Y11325D02*
D03*
Y12675D02*
D03*
X18500Y11325D02*
D03*
Y12675D02*
D03*
X30000Y11325D02*
D03*
Y12675D02*
D03*
X72500Y40175D02*
D03*
Y38825D02*
D03*
X55500Y40675D02*
D03*
Y39325D02*
D03*
X58500D02*
D03*
Y40675D02*
D03*
X57000D02*
D03*
Y39325D02*
D03*
X60000D02*
D03*
Y40675D02*
D03*
X51000Y20675D02*
D03*
Y19325D02*
D03*
X46500Y20675D02*
D03*
Y19325D02*
D03*
X54000Y39325D02*
D03*
Y40675D02*
D03*
X46000Y39325D02*
D03*
Y40675D02*
D03*
D22*
X83825Y59250D02*
D03*
X85175D02*
D03*
X29825Y56750D02*
D03*
X31175D02*
D03*
X56825D02*
D03*
X58175D02*
D03*
X56825Y59250D02*
D03*
X58175D02*
D03*
X29825D02*
D03*
X31175D02*
D03*
X83825Y56750D02*
D03*
X85175D02*
D03*
X40175Y33250D02*
D03*
X38825D02*
D03*
X58825Y34000D02*
D03*
X60175D02*
D03*
X58825Y31000D02*
D03*
X60175D02*
D03*
X40175Y30750D02*
D03*
X38825D02*
D03*
X40175Y27750D02*
D03*
X38825D02*
D03*
X58825Y29500D02*
D03*
X60175D02*
D03*
X58825Y26000D02*
D03*
X60175D02*
D03*
D29*
X75920Y5000D02*
D03*
X81000D02*
D03*
X86080D02*
D03*
D30*
X29000Y42000D02*
D03*
Y44540D02*
D03*
Y39460D02*
D03*
D31*
X94500Y4500D02*
D03*
X4500D02*
D03*
Y59500D02*
D03*
X94500D02*
D03*
D32*
X53600Y5000D02*
D03*
X51060D02*
D03*
X48520D02*
D03*
X45980D02*
D03*
X43440D02*
D03*
X40900D02*
D03*
X75750Y27250D02*
D03*
X69250D02*
D03*
X75750Y31750D02*
D03*
X69250D02*
D03*
Y40250D02*
D03*
X75750D02*
D03*
X69250Y35750D02*
D03*
X75750D02*
D03*
D33*
X5000Y25790D02*
D03*
Y23250D02*
D03*
Y20710D02*
D03*
X94000Y28960D02*
D03*
Y31500D02*
D03*
Y34040D02*
D03*
Y15460D02*
D03*
Y18000D02*
D03*
Y20540D02*
D03*
X13460Y5000D02*
D03*
X16000D02*
D03*
X18540D02*
D03*
X27460D02*
D03*
X30000D02*
D03*
X32540D02*
D03*
X62460D02*
D03*
X65000D02*
D03*
X67540D02*
D03*
X5000Y11730D02*
D03*
Y14270D02*
D03*
Y38040D02*
D03*
Y35500D02*
D03*
Y32960D02*
D03*
Y49040D02*
D03*
Y46500D02*
D03*
Y43960D02*
D03*
X11000Y32960D02*
D03*
Y35500D02*
D03*
Y38040D02*
D03*
Y43960D02*
D03*
Y46500D02*
D03*
Y49040D02*
D03*
D34*
X92735Y42400D02*
D03*
X92670Y49600D02*
D03*
D35*
X95785Y50320D02*
D03*
Y41680D02*
D03*
D36*
X90735Y50320D02*
D03*
Y41680D02*
D03*
D37*
X27580Y59370D02*
D03*
Y56830D02*
D03*
X25040Y59370D02*
D03*
Y56830D02*
D03*
X22500Y59370D02*
D03*
Y56830D02*
D03*
X19960Y59370D02*
D03*
Y56830D02*
D03*
X17420Y59370D02*
D03*
Y56830D02*
D03*
X54580Y59370D02*
D03*
Y56830D02*
D03*
X52040Y59370D02*
D03*
Y56830D02*
D03*
X49500Y59370D02*
D03*
Y56830D02*
D03*
X46960Y59370D02*
D03*
Y56830D02*
D03*
X44420Y59370D02*
D03*
Y56830D02*
D03*
X81580Y59370D02*
D03*
Y56830D02*
D03*
X79040Y59370D02*
D03*
Y56830D02*
D03*
X76500Y59370D02*
D03*
Y56830D02*
D03*
X73960Y59370D02*
D03*
Y56830D02*
D03*
X71420Y59370D02*
D03*
Y56830D02*
D03*
%TF.MD5,b39c8b6f7eebd7f1276c0098bc5a8b8f*%
M02*
