%TF.GenerationSoftware,Altium Limited,Altium Designer,25.2.1 (25)*%
G04 Layer_Color=0*
%FSLAX43Y43*%
%MOMM*%
%TF.SameCoordinates,C3C72CCD-19DF-4086-A731-6AB0B0A2BFE7*%
%TF.FilePolarity,Positive*%
%TF.FileFunction,Plated,1,4,PTH,Drill*%
%TF.Part,Single*%
G01*
G75*
%TA.AperFunction,ComponentDrill*%
%ADD75C,1.300*%
%ADD76C,0.762*%
%ADD77C,3.500*%
%ADD78C,1.100*%
%ADD79C,1.150*%
%ADD80C,1.000*%
%ADD81C,0.750*%
%ADD82C,1.750*%
%ADD83C,1.500*%
%ADD84C,1.150*%
%TA.AperFunction,ViaDrill,NotFilled*%
%ADD85C,0.300*%
D75*
X75920Y5000D02*
D03*
X81000D02*
D03*
X86080D02*
D03*
D76*
X29000Y42000D02*
D03*
Y44540D02*
D03*
Y39460D02*
D03*
D77*
X94500Y4500D02*
D03*
X4500D02*
D03*
Y59500D02*
D03*
X94500D02*
D03*
D78*
X53600Y5000D02*
D03*
X51060D02*
D03*
X48520D02*
D03*
X45980D02*
D03*
X43440D02*
D03*
X40900D02*
D03*
D79*
X5000Y25790D02*
D03*
Y23250D02*
D03*
Y20710D02*
D03*
X94000Y28960D02*
D03*
Y31500D02*
D03*
Y34040D02*
D03*
Y15460D02*
D03*
Y18000D02*
D03*
Y20540D02*
D03*
X5000Y11730D02*
D03*
Y14270D02*
D03*
Y38040D02*
D03*
Y35500D02*
D03*
Y32960D02*
D03*
Y49040D02*
D03*
Y46500D02*
D03*
Y43960D02*
D03*
X11000Y32960D02*
D03*
Y35500D02*
D03*
Y38040D02*
D03*
Y43960D02*
D03*
Y46500D02*
D03*
Y49040D02*
D03*
D80*
X75750Y27250D02*
D03*
X69250D02*
D03*
X75750Y31750D02*
D03*
X69250D02*
D03*
Y40250D02*
D03*
X75750D02*
D03*
X69250Y35750D02*
D03*
X75750D02*
D03*
X27580Y59370D02*
D03*
Y56830D02*
D03*
X25040Y59370D02*
D03*
Y56830D02*
D03*
X22500Y59370D02*
D03*
Y56830D02*
D03*
X19960Y59370D02*
D03*
Y56830D02*
D03*
X17420Y59370D02*
D03*
Y56830D02*
D03*
X54580Y59370D02*
D03*
Y56830D02*
D03*
X52040Y59370D02*
D03*
Y56830D02*
D03*
X49500Y59370D02*
D03*
Y56830D02*
D03*
X46960Y59370D02*
D03*
Y56830D02*
D03*
X44420Y59370D02*
D03*
Y56830D02*
D03*
X81580Y59370D02*
D03*
Y56830D02*
D03*
X79040Y59370D02*
D03*
Y56830D02*
D03*
X76500Y59370D02*
D03*
Y56830D02*
D03*
X73960Y59370D02*
D03*
Y56830D02*
D03*
X71420Y59370D02*
D03*
Y56830D02*
D03*
D81*
X92735Y42400D02*
D03*
X92670Y49600D02*
D03*
D82*
X95785Y50320D02*
D03*
Y41680D02*
D03*
D83*
X90735Y50320D02*
D03*
Y41680D02*
D03*
D84*
X13460Y5000D02*
D03*
X16000D02*
D03*
X18540D02*
D03*
X27460D02*
D03*
X30000D02*
D03*
X32540D02*
D03*
X62460D02*
D03*
X65000D02*
D03*
X67540D02*
D03*
D85*
X92250Y10000D02*
D03*
X78000Y26000D02*
D03*
X32000Y38000D02*
D03*
X33000D02*
D03*
X34000D02*
D03*
X50250Y16000D02*
D03*
X34000Y11750D02*
D03*
X41000Y37000D02*
D03*
X50250Y45500D02*
D03*
X18500Y48000D02*
D03*
X42000Y19000D02*
D03*
X41000D02*
D03*
X53000Y27250D02*
D03*
Y28250D02*
D03*
X20000Y11750D02*
D03*
X34750Y30750D02*
D03*
Y27750D02*
D03*
X60250Y35250D02*
D03*
Y28250D02*
D03*
X44750Y41000D02*
D03*
X61250Y39250D02*
D03*
Y40750D02*
D03*
X27250Y26750D02*
D03*
X51250Y16000D02*
D03*
X45250Y18750D02*
D03*
X44250Y21750D02*
D03*
X66000Y13000D02*
D03*
X41250Y43250D02*
D03*
X72500Y28250D02*
D03*
X51250Y26250D02*
D03*
X35750Y13000D02*
D03*
X47500Y21750D02*
D03*
X22000Y44750D02*
D03*
X85250Y58000D02*
D03*
X58250D02*
D03*
X31250D02*
D03*
X75000Y24750D02*
D03*
X81250Y22000D02*
D03*
X70500Y20500D02*
D03*
Y23000D02*
D03*
Y21750D02*
D03*
X75000Y21000D02*
D03*
X77750Y17500D02*
D03*
X80500Y36000D02*
D03*
X84750Y41750D02*
D03*
X84250Y19250D02*
D03*
X82250D02*
D03*
X88500Y53000D02*
D03*
Y49000D02*
D03*
Y47500D02*
D03*
X93250Y44250D02*
D03*
X88500Y43500D02*
D03*
X92500Y39000D02*
D03*
X85500Y20750D02*
D03*
X83250Y45500D02*
D03*
Y46500D02*
D03*
X56750Y45500D02*
D03*
Y46500D02*
D03*
X93250Y45250D02*
D03*
Y46250D02*
D03*
X87250Y46500D02*
D03*
Y45500D02*
D03*
X57500Y30000D02*
D03*
X26750Y41750D02*
D03*
Y40250D02*
D03*
X17500Y38750D02*
D03*
Y41250D02*
D03*
X26750Y39250D02*
D03*
X41500Y30750D02*
D03*
Y33250D02*
D03*
X49500Y31000D02*
D03*
Y29000D02*
D03*
Y30000D02*
D03*
X41500Y39500D02*
D03*
X45500Y46750D02*
D03*
X52500Y38000D02*
D03*
X54000D02*
D03*
X55500D02*
D03*
X57000D02*
D03*
X58500D02*
D03*
X57500Y34000D02*
D03*
Y31000D02*
D03*
Y26000D02*
D03*
X51000Y22000D02*
D03*
X41500Y27750D02*
D03*
X49500Y38000D02*
D03*
%TF.MD5,64e3a50f8eba36a2792e91d793e3308b*%
M02*
