%TF.GenerationSoftware,Altium Limited,Altium Designer,25.2.1 (25)*%
G04 Layer_Color=65535*
%FSLAX43Y43*%
%MOMM*%
%TF.SameCoordinates,C3C72CCD-19DF-4086-A731-6AB0B0A2BFE7*%
%TF.FilePolarity,Positive*%
%TF.FileFunction,Legend,Top*%
%TF.Part,Single*%
G01*
G75*
%TA.AperFunction,NonConductor*%
%ADD40C,0.200*%
%ADD41C,0.100*%
%ADD42C,0.300*%
%ADD43C,0.400*%
%ADD44C,0.254*%
G36*
X32250Y34992D02*
X32313D01*
Y34987D01*
X32348D01*
Y34982D01*
X32382D01*
Y34977D01*
X32406D01*
Y34972D01*
X32436D01*
Y34967D01*
X32445D01*
Y34963D01*
X32470D01*
Y34958D01*
X32489D01*
Y34953D01*
X32504D01*
Y34948D01*
X32523D01*
Y34943D01*
X32533D01*
Y34938D01*
X32548D01*
Y34933D01*
X32563D01*
Y34928D01*
X32572D01*
Y34924D01*
X32587D01*
Y34919D01*
X32597D01*
Y34914D01*
X32616D01*
Y34909D01*
X32621D01*
Y34904D01*
X32636D01*
Y34899D01*
X32641D01*
Y34894D01*
X32650D01*
Y34889D01*
X32665D01*
Y34884D01*
X32670D01*
Y34880D01*
X32685D01*
Y34875D01*
X32694D01*
Y34870D01*
X32704D01*
Y34865D01*
X32709D01*
Y34860D01*
X32719D01*
Y34855D01*
X32729D01*
Y34850D01*
X32733D01*
Y34845D01*
X32743D01*
Y34840D01*
X32753D01*
Y34836D01*
X32758D01*
Y34831D01*
X32768D01*
Y34826D01*
X32773D01*
Y34821D01*
X32782D01*
Y34816D01*
X32787D01*
Y34811D01*
X32797D01*
Y34806D01*
X32802D01*
Y34801D01*
X32807D01*
Y34797D01*
X32816D01*
Y34792D01*
X32821D01*
Y34787D01*
X32831D01*
Y34782D01*
X32836D01*
Y34777D01*
X32841D01*
Y34772D01*
X32851D01*
Y34767D01*
X32856D01*
Y34762D01*
X32860D01*
Y34757D01*
X32865D01*
Y34753D01*
X32870D01*
Y34748D01*
X32880D01*
Y34738D01*
X32890D01*
Y34733D01*
X32895D01*
Y34728D01*
X32899D01*
Y34723D01*
X32904D01*
Y34718D01*
X32909D01*
Y34714D01*
X32914D01*
Y34709D01*
X32919D01*
Y34704D01*
X32929D01*
Y34694D01*
X32939D01*
Y34684D01*
X32943D01*
Y34679D01*
X32948D01*
Y34674D01*
X32953D01*
Y34670D01*
X32958D01*
Y34665D01*
X32963D01*
Y34660D01*
X32968D01*
Y34655D01*
X32973D01*
Y34650D01*
X32978D01*
Y34645D01*
X32982D01*
Y34640D01*
X32987D01*
Y34630D01*
X32992D01*
Y34626D01*
X32997D01*
Y34621D01*
X33002D01*
Y34616D01*
X33007D01*
Y34611D01*
X33012D01*
Y34601D01*
X33017D01*
Y34596D01*
X33022D01*
Y34591D01*
X33026D01*
Y34587D01*
X33031D01*
Y34577D01*
X33036D01*
Y34572D01*
X33041D01*
Y34562D01*
X33046D01*
Y34557D01*
X33051D01*
Y34552D01*
X33056D01*
Y34543D01*
X33061D01*
Y34538D01*
X33066D01*
Y34528D01*
X33070D01*
Y34523D01*
X33075D01*
Y34518D01*
X33080D01*
Y34504D01*
X33085D01*
Y34499D01*
X33090D01*
Y34489D01*
X33095D01*
Y34484D01*
X33100D01*
Y34474D01*
X33105D01*
Y34464D01*
X33109D01*
Y34460D01*
X33114D01*
Y34450D01*
X33119D01*
Y34440D01*
X33124D01*
Y34430D01*
X33129D01*
Y34416D01*
X33134D01*
Y34411D01*
X33139D01*
Y34396D01*
X33144D01*
Y34391D01*
X33149D01*
Y34377D01*
X33153D01*
Y34367D01*
X33158D01*
Y34357D01*
X33163D01*
Y34342D01*
X33168D01*
Y34333D01*
X33173D01*
Y34313D01*
X33178D01*
Y34303D01*
X33183D01*
Y34289D01*
X33188D01*
Y34274D01*
X33192D01*
Y34264D01*
X33197D01*
Y34240D01*
X33202D01*
Y34225D01*
X33207D01*
Y34201D01*
X33212D01*
Y34186D01*
X33217D01*
Y34167D01*
X33222D01*
Y34132D01*
X33227D01*
Y34108D01*
X33232D01*
Y34064D01*
X33236D01*
Y34001D01*
X33241D01*
Y29991D01*
X33236D01*
Y29928D01*
X33232D01*
Y29884D01*
X33227D01*
Y29859D01*
X33222D01*
Y29825D01*
X33217D01*
Y29806D01*
X33212D01*
Y29791D01*
X33207D01*
Y29767D01*
X33202D01*
Y29752D01*
X33197D01*
Y29728D01*
X33192D01*
Y29718D01*
X33188D01*
Y29703D01*
X33183D01*
Y29689D01*
X33178D01*
Y29679D01*
X33173D01*
Y29659D01*
X33168D01*
Y29649D01*
X33163D01*
Y29635D01*
X33158D01*
Y29625D01*
X33153D01*
Y29615D01*
X33149D01*
Y29601D01*
X33144D01*
Y29596D01*
X33139D01*
Y29581D01*
X33134D01*
Y29576D01*
X33129D01*
Y29562D01*
X33124D01*
Y29552D01*
X33119D01*
Y29542D01*
X33114D01*
Y29532D01*
X33109D01*
Y29527D01*
X33105D01*
Y29518D01*
X33100D01*
Y29508D01*
X33095D01*
Y29503D01*
X33090D01*
Y29493D01*
X33085D01*
Y29488D01*
X33080D01*
Y29474D01*
X33075D01*
Y29469D01*
X33070D01*
Y29464D01*
X33066D01*
Y29454D01*
X33061D01*
Y29449D01*
X33056D01*
Y29440D01*
X33051D01*
Y29435D01*
X33046D01*
Y29430D01*
X33041D01*
Y29420D01*
X33036D01*
Y29415D01*
X33031D01*
Y29405D01*
X33026D01*
Y29400D01*
X33022D01*
Y29396D01*
X33017D01*
Y29391D01*
X33012D01*
Y29381D01*
X33007D01*
Y29376D01*
X33002D01*
Y29371D01*
X32997D01*
Y29366D01*
X32992D01*
Y29361D01*
X32987D01*
Y29352D01*
X32982D01*
Y29347D01*
X32978D01*
Y29342D01*
X32973D01*
Y29337D01*
X32968D01*
Y29332D01*
X32963D01*
Y29327D01*
X32958D01*
Y29322D01*
X32953D01*
Y29317D01*
X32948D01*
Y29313D01*
X32943D01*
Y29308D01*
X32939D01*
Y29298D01*
X32929D01*
Y29288D01*
X32919D01*
Y29283D01*
X32914D01*
Y29278D01*
X32909D01*
Y29273D01*
X32904D01*
Y29269D01*
X32899D01*
Y29264D01*
X32895D01*
Y29259D01*
X32890D01*
Y29254D01*
X32880D01*
Y29244D01*
X32870D01*
Y29239D01*
X32865D01*
Y29234D01*
X32860D01*
Y29230D01*
X32856D01*
Y29225D01*
X32851D01*
Y29220D01*
X32841D01*
Y29215D01*
X32836D01*
Y29210D01*
X32831D01*
Y29205D01*
X32821D01*
Y29200D01*
X32816D01*
Y29195D01*
X32807D01*
Y29190D01*
X32802D01*
Y29186D01*
X32797D01*
Y29181D01*
X32787D01*
Y29176D01*
X32782D01*
Y29171D01*
X32773D01*
Y29166D01*
X32768D01*
Y29161D01*
X32758D01*
Y29156D01*
X32753D01*
Y29151D01*
X32743D01*
Y29146D01*
X32733D01*
Y29142D01*
X32729D01*
Y29137D01*
X32719D01*
Y29132D01*
X32709D01*
Y29127D01*
X32704D01*
Y29122D01*
X32694D01*
Y29117D01*
X32685D01*
Y29112D01*
X32670D01*
Y29107D01*
X32665D01*
Y29103D01*
X32650D01*
Y29098D01*
X32641D01*
Y29093D01*
X32636D01*
Y29088D01*
X32621D01*
Y29083D01*
X32616D01*
Y29078D01*
X32597D01*
Y29073D01*
X32587D01*
Y29068D01*
X32572D01*
Y29063D01*
X32563D01*
Y29059D01*
X32548D01*
Y29054D01*
X32533D01*
Y29049D01*
X32523D01*
Y29044D01*
X32504D01*
Y29039D01*
X32489D01*
Y29034D01*
X32470D01*
Y29029D01*
X32445D01*
Y29024D01*
X32436D01*
Y29020D01*
X32406D01*
Y29015D01*
X32382D01*
Y29010D01*
X32348D01*
Y29005D01*
X32313D01*
Y29000D01*
X32250D01*
Y28995D01*
X26385D01*
Y29000D01*
X26322D01*
Y29005D01*
X26287D01*
Y29010D01*
X26253D01*
Y29015D01*
X26229D01*
Y29020D01*
X26200D01*
Y29024D01*
X26190D01*
Y29029D01*
X26165D01*
Y29034D01*
X26146D01*
Y29039D01*
X26131D01*
Y29044D01*
X26112D01*
Y29049D01*
X26102D01*
Y29054D01*
X26087D01*
Y29059D01*
X26073D01*
Y29063D01*
X26063D01*
Y29068D01*
X26048D01*
Y29073D01*
X26038D01*
Y29078D01*
X26019D01*
Y29083D01*
X26014D01*
Y29088D01*
X25999D01*
Y29093D01*
X25994D01*
Y29098D01*
X25985D01*
Y29103D01*
X25970D01*
Y29107D01*
X25965D01*
Y29112D01*
X25950D01*
Y29117D01*
X25941D01*
Y29122D01*
X25931D01*
Y29127D01*
X25926D01*
Y29132D01*
X25916D01*
Y29137D01*
X25907D01*
Y29142D01*
X25902D01*
Y29146D01*
X25892D01*
Y29151D01*
X25882D01*
Y29156D01*
X25877D01*
Y29161D01*
X25867D01*
Y29166D01*
X25863D01*
Y29171D01*
X25853D01*
Y29176D01*
X25848D01*
Y29181D01*
X25838D01*
Y29186D01*
X25833D01*
Y29190D01*
X25828D01*
Y29195D01*
X25819D01*
Y29200D01*
X25814D01*
Y29205D01*
X25804D01*
Y29210D01*
X25799D01*
Y29215D01*
X25794D01*
Y29220D01*
X25784D01*
Y29225D01*
X25780D01*
Y29230D01*
X25775D01*
Y29234D01*
X25770D01*
Y29239D01*
X25765D01*
Y29244D01*
X25755D01*
Y29254D01*
X25745D01*
Y29259D01*
X25740D01*
Y29264D01*
X25736D01*
Y29269D01*
X25731D01*
Y29273D01*
X25726D01*
Y29278D01*
X25721D01*
Y29283D01*
X25716D01*
Y29288D01*
X25706D01*
Y29298D01*
X25697D01*
Y29308D01*
X25692D01*
Y29313D01*
X25687D01*
Y29317D01*
X25682D01*
Y29322D01*
X25677D01*
Y29327D01*
X25672D01*
Y29332D01*
X25667D01*
Y29337D01*
X25662D01*
Y29342D01*
X25657D01*
Y29347D01*
X25653D01*
Y29352D01*
X25648D01*
Y29361D01*
X25643D01*
Y29366D01*
X25638D01*
Y29371D01*
X25633D01*
Y29376D01*
X25628D01*
Y29381D01*
X25623D01*
Y29391D01*
X25618D01*
Y29396D01*
X25614D01*
Y29400D01*
X25609D01*
Y29405D01*
X25604D01*
Y29415D01*
X25599D01*
Y29420D01*
X25594D01*
Y29430D01*
X25589D01*
Y29435D01*
X25584D01*
Y29440D01*
X25579D01*
Y29449D01*
X25574D01*
Y29454D01*
X25570D01*
Y29464D01*
X25565D01*
Y29469D01*
X25560D01*
Y29474D01*
X25555D01*
Y29488D01*
X25550D01*
Y29493D01*
X25545D01*
Y29503D01*
X25540D01*
Y29508D01*
X25535D01*
Y29518D01*
X25531D01*
Y29527D01*
X25526D01*
Y29532D01*
X25521D01*
Y29542D01*
X25516D01*
Y29552D01*
X25511D01*
Y29562D01*
X25506D01*
Y29576D01*
X25501D01*
Y29581D01*
X25496D01*
Y29596D01*
X25491D01*
Y29601D01*
X25487D01*
Y29615D01*
X25482D01*
Y29625D01*
X25477D01*
Y29635D01*
X25472D01*
Y29649D01*
X25467D01*
Y29659D01*
X25462D01*
Y29679D01*
X25457D01*
Y29689D01*
X25452D01*
Y29703D01*
X25448D01*
Y29718D01*
X25443D01*
Y29728D01*
X25438D01*
Y29752D01*
X25433D01*
Y29767D01*
X25428D01*
Y29791D01*
X25423D01*
Y29806D01*
X25418D01*
Y29825D01*
X25413D01*
Y29859D01*
X25408D01*
Y29884D01*
X25404D01*
Y29928D01*
X25399D01*
Y29991D01*
X25394D01*
Y34001D01*
X25399D01*
Y34064D01*
X25404D01*
Y34108D01*
X25408D01*
Y34132D01*
X25413D01*
Y34167D01*
X25418D01*
Y34186D01*
X25423D01*
Y34201D01*
X25428D01*
Y34225D01*
X25433D01*
Y34240D01*
X25438D01*
Y34264D01*
X25443D01*
Y34274D01*
X25448D01*
Y34289D01*
X25452D01*
Y34303D01*
X25457D01*
Y34313D01*
X25462D01*
Y34333D01*
X25467D01*
Y34342D01*
X25472D01*
Y34357D01*
X25477D01*
Y34367D01*
X25482D01*
Y34377D01*
X25487D01*
Y34391D01*
X25491D01*
Y34396D01*
X25496D01*
Y34411D01*
X25501D01*
Y34416D01*
X25506D01*
Y34430D01*
X25511D01*
Y34440D01*
X25516D01*
Y34450D01*
X25521D01*
Y34460D01*
X25526D01*
Y34464D01*
X25531D01*
Y34474D01*
X25535D01*
Y34484D01*
X25540D01*
Y34489D01*
X25545D01*
Y34499D01*
X25550D01*
Y34504D01*
X25555D01*
Y34518D01*
X25560D01*
Y34523D01*
X25565D01*
Y34528D01*
X25570D01*
Y34538D01*
X25574D01*
Y34543D01*
X25579D01*
Y34552D01*
X25584D01*
Y34557D01*
X25589D01*
Y34562D01*
X25594D01*
Y34572D01*
X25599D01*
Y34577D01*
X25604D01*
Y34587D01*
X25609D01*
Y34591D01*
X25614D01*
Y34596D01*
X25618D01*
Y34601D01*
X25623D01*
Y34611D01*
X25628D01*
Y34616D01*
X25633D01*
Y34621D01*
X25638D01*
Y34626D01*
X25643D01*
Y34630D01*
X25648D01*
Y34640D01*
X25653D01*
Y34645D01*
X25657D01*
Y34650D01*
X25662D01*
Y34655D01*
X25667D01*
Y34660D01*
X25672D01*
Y34665D01*
X25677D01*
Y34670D01*
X25682D01*
Y34674D01*
X25687D01*
Y34679D01*
X25692D01*
Y34684D01*
X25697D01*
Y34694D01*
X25706D01*
Y34704D01*
X25716D01*
Y34709D01*
X25721D01*
Y34714D01*
X25726D01*
Y34718D01*
X25731D01*
Y34723D01*
X25736D01*
Y34728D01*
X25740D01*
Y34733D01*
X25745D01*
Y34738D01*
X25755D01*
Y34748D01*
X25765D01*
Y34753D01*
X25770D01*
Y34757D01*
X25775D01*
Y34762D01*
X25780D01*
Y34767D01*
X25784D01*
Y34772D01*
X25794D01*
Y34777D01*
X25799D01*
Y34782D01*
X25804D01*
Y34787D01*
X25814D01*
Y34792D01*
X25819D01*
Y34797D01*
X25828D01*
Y34801D01*
X25833D01*
Y34806D01*
X25838D01*
Y34811D01*
X25848D01*
Y34816D01*
X25853D01*
Y34821D01*
X25863D01*
Y34826D01*
X25867D01*
Y34831D01*
X25877D01*
Y34836D01*
X25882D01*
Y34840D01*
X25892D01*
Y34845D01*
X25902D01*
Y34850D01*
X25907D01*
Y34855D01*
X25916D01*
Y34860D01*
X25926D01*
Y34865D01*
X25931D01*
Y34870D01*
X25941D01*
Y34875D01*
X25950D01*
Y34880D01*
X25965D01*
Y34884D01*
X25970D01*
Y34889D01*
X25985D01*
Y34894D01*
X25994D01*
Y34899D01*
X25999D01*
Y34904D01*
X26014D01*
Y34909D01*
X26019D01*
Y34914D01*
X26038D01*
Y34919D01*
X26048D01*
Y34924D01*
X26063D01*
Y34928D01*
X26073D01*
Y34933D01*
X26087D01*
Y34938D01*
X26102D01*
Y34943D01*
X26112D01*
Y34948D01*
X26131D01*
Y34953D01*
X26146D01*
Y34958D01*
X26165D01*
Y34963D01*
X26190D01*
Y34967D01*
X26200D01*
Y34972D01*
X26229D01*
Y34977D01*
X26253D01*
Y34982D01*
X26287D01*
Y34987D01*
X26322D01*
Y34992D01*
X26385D01*
Y34997D01*
X32250D01*
Y34992D01*
D02*
G37*
G36*
X66966Y48159D02*
X68739D01*
Y47274D01*
X68738D01*
Y47273D01*
X67852D01*
Y46386D01*
X68738D01*
Y46385D01*
X68739D01*
Y45500D01*
X69625D01*
Y43727D01*
X68739D01*
Y44614D01*
X67853D01*
Y44615D01*
X67852D01*
Y45500D01*
X66966D01*
Y44615D01*
X66965D01*
Y44614D01*
X66080D01*
Y45500D01*
X63420D01*
Y44614D01*
X64306D01*
Y44613D01*
X64307D01*
Y43727D01*
X63420D01*
Y44614D01*
X62535D01*
Y44615D01*
X62534D01*
Y45500D01*
X61648D01*
Y44615D01*
X61647D01*
Y44614D01*
X60761D01*
Y43727D01*
X59875D01*
Y45500D01*
X60761D01*
Y46385D01*
X60762D01*
Y46386D01*
X61648D01*
Y47273D01*
X60762D01*
Y47274D01*
X60761D01*
Y48159D01*
X59875D01*
Y48796D01*
Y48797D01*
Y49045D01*
X60760D01*
Y49044D01*
X60761D01*
Y48159D01*
X62534D01*
Y46386D01*
X63420D01*
Y48159D01*
X62534D01*
Y49932D01*
X63420D01*
Y49045D01*
X66080D01*
Y49932D01*
X66966D01*
Y48159D01*
D02*
G37*
G36*
X69625D02*
X68739D01*
Y48431D01*
Y48432D01*
Y49044D01*
X68740D01*
Y49045D01*
X69625D01*
Y48159D01*
D02*
G37*
G36*
X66080Y44544D02*
Y44543D01*
Y43727D01*
X65193D01*
Y44613D01*
X65194D01*
Y44614D01*
X66080D01*
Y44544D01*
D02*
G37*
%LPC*%
G36*
X32260Y34533D02*
X26375D01*
Y34528D01*
X26331D01*
Y34523D01*
X26307D01*
Y34518D01*
X26292D01*
Y34513D01*
X26268D01*
Y34508D01*
X26258D01*
Y34504D01*
X26239D01*
Y34499D01*
X26229D01*
Y34494D01*
X26214D01*
Y34489D01*
X26204D01*
Y34484D01*
X26195D01*
Y34479D01*
X26180D01*
Y34474D01*
X26175D01*
Y34469D01*
X26165D01*
Y34464D01*
X26156D01*
Y34460D01*
X26146D01*
Y34455D01*
X26136D01*
Y34450D01*
X26131D01*
Y34445D01*
X26121D01*
Y34440D01*
X26112D01*
Y34435D01*
X26107D01*
Y34430D01*
X26102D01*
Y34425D01*
X26092D01*
Y34421D01*
X26087D01*
Y34416D01*
X26082D01*
Y34411D01*
X26073D01*
Y34406D01*
X26068D01*
Y34401D01*
X26063D01*
Y34396D01*
X26058D01*
Y34391D01*
X26053D01*
Y34386D01*
X26043D01*
Y34381D01*
X26038D01*
Y34377D01*
X26034D01*
Y34372D01*
X26029D01*
Y34367D01*
X26024D01*
Y34362D01*
X26019D01*
Y34357D01*
X26014D01*
Y34352D01*
X26009D01*
Y34347D01*
X26004D01*
Y34338D01*
X25999D01*
Y34333D01*
X25994D01*
Y34328D01*
X25990D01*
Y34323D01*
X25985D01*
Y34318D01*
X25980D01*
Y34313D01*
X25975D01*
Y34303D01*
X25970D01*
Y34298D01*
X25965D01*
Y34289D01*
X25960D01*
Y34284D01*
X25955D01*
Y34279D01*
X25950D01*
Y34269D01*
X25946D01*
Y34259D01*
X25941D01*
Y34254D01*
X25936D01*
Y34245D01*
X25931D01*
Y34235D01*
X25926D01*
Y34230D01*
X25921D01*
Y34220D01*
X25916D01*
Y34206D01*
X25911D01*
Y34201D01*
X25907D01*
Y34186D01*
X25902D01*
Y34181D01*
X25897D01*
Y34162D01*
X25892D01*
Y34152D01*
X25887D01*
Y34137D01*
X25882D01*
Y34118D01*
X25877D01*
Y34103D01*
X25872D01*
Y34079D01*
X25867D01*
Y34059D01*
X25863D01*
Y34025D01*
X25858D01*
Y29967D01*
X25863D01*
Y29933D01*
X25867D01*
Y29913D01*
X25872D01*
Y29889D01*
X25877D01*
Y29874D01*
X25882D01*
Y29855D01*
X25887D01*
Y29840D01*
X25892D01*
Y29830D01*
X25897D01*
Y29811D01*
X25902D01*
Y29806D01*
X25907D01*
Y29791D01*
X25911D01*
Y29786D01*
X25916D01*
Y29772D01*
X25921D01*
Y29762D01*
X25926D01*
Y29757D01*
X25931D01*
Y29747D01*
X25936D01*
Y29737D01*
X25941D01*
Y29733D01*
X25946D01*
Y29723D01*
X25950D01*
Y29713D01*
X25955D01*
Y29708D01*
X25960D01*
Y29703D01*
X25965D01*
Y29693D01*
X25970D01*
Y29689D01*
X25975D01*
Y29679D01*
X25980D01*
Y29674D01*
X25985D01*
Y29669D01*
X25990D01*
Y29664D01*
X25994D01*
Y29659D01*
X25999D01*
Y29649D01*
X26004D01*
Y29645D01*
X26009D01*
Y29640D01*
X26014D01*
Y29635D01*
X26019D01*
Y29630D01*
X26024D01*
Y29625D01*
X26029D01*
Y29620D01*
X26034D01*
Y29615D01*
X26038D01*
Y29610D01*
X26043D01*
Y29606D01*
X26053D01*
Y29601D01*
X26058D01*
Y29596D01*
X26063D01*
Y29591D01*
X26068D01*
Y29586D01*
X26073D01*
Y29581D01*
X26082D01*
Y29576D01*
X26087D01*
Y29571D01*
X26092D01*
Y29566D01*
X26102D01*
Y29562D01*
X26107D01*
Y29557D01*
X26112D01*
Y29552D01*
X26121D01*
Y29547D01*
X26131D01*
Y29542D01*
X26136D01*
Y29537D01*
X26146D01*
Y29532D01*
X26156D01*
Y29527D01*
X26165D01*
Y29523D01*
X26175D01*
Y29518D01*
X26180D01*
Y29513D01*
X26195D01*
Y29508D01*
X26204D01*
Y29503D01*
X26214D01*
Y29498D01*
X26229D01*
Y29493D01*
X26239D01*
Y29488D01*
X26258D01*
Y29483D01*
X26268D01*
Y29479D01*
X26292D01*
Y29474D01*
X26307D01*
Y29469D01*
X26331D01*
Y29464D01*
X26375D01*
Y29459D01*
X32265D01*
Y29464D01*
X32304D01*
Y29469D01*
X32328D01*
Y29474D01*
X32343D01*
Y29479D01*
X32367D01*
Y29483D01*
X32377D01*
Y29488D01*
X32396D01*
Y29493D01*
X32406D01*
Y29498D01*
X32421D01*
Y29503D01*
X32431D01*
Y29508D01*
X32440D01*
Y29513D01*
X32455D01*
Y29518D01*
X32460D01*
Y29523D01*
X32470D01*
Y29527D01*
X32480D01*
Y29532D01*
X32489D01*
Y29537D01*
X32499D01*
Y29542D01*
X32504D01*
Y29547D01*
X32514D01*
Y29552D01*
X32523D01*
Y29557D01*
X32528D01*
Y29562D01*
X32533D01*
Y29566D01*
X32543D01*
Y29571D01*
X32548D01*
Y29576D01*
X32553D01*
Y29581D01*
X32563D01*
Y29586D01*
X32567D01*
Y29591D01*
X32572D01*
Y29596D01*
X32577D01*
Y29601D01*
X32582D01*
Y29606D01*
X32592D01*
Y29610D01*
X32597D01*
Y29615D01*
X32602D01*
Y29620D01*
X32606D01*
Y29625D01*
X32611D01*
Y29630D01*
X32616D01*
Y29635D01*
X32621D01*
Y29640D01*
X32626D01*
Y29645D01*
X32631D01*
Y29649D01*
X32636D01*
Y29659D01*
X32641D01*
Y29664D01*
X32646D01*
Y29669D01*
X32650D01*
Y29674D01*
X32655D01*
Y29679D01*
X32660D01*
Y29689D01*
X32665D01*
Y29693D01*
X32670D01*
Y29703D01*
X32675D01*
Y29708D01*
X32680D01*
Y29713D01*
X32685D01*
Y29723D01*
X32689D01*
Y29733D01*
X32694D01*
Y29737D01*
X32699D01*
Y29742D01*
X32704D01*
Y29757D01*
X32709D01*
Y29762D01*
X32714D01*
Y29772D01*
X32719D01*
Y29786D01*
X32724D01*
Y29791D01*
X32729D01*
Y29806D01*
X32733D01*
Y29811D01*
X32738D01*
Y29830D01*
X32743D01*
Y29840D01*
X32748D01*
Y29855D01*
X32753D01*
Y29874D01*
X32758D01*
Y29889D01*
X32763D01*
Y29913D01*
X32768D01*
Y29933D01*
X32773D01*
Y29967D01*
X32777D01*
Y34025D01*
X32773D01*
Y34059D01*
X32768D01*
Y34079D01*
X32763D01*
Y34103D01*
X32758D01*
Y34118D01*
X32753D01*
Y34137D01*
X32748D01*
Y34152D01*
X32743D01*
Y34162D01*
X32738D01*
Y34181D01*
X32733D01*
Y34186D01*
X32729D01*
Y34201D01*
X32724D01*
Y34206D01*
X32719D01*
Y34220D01*
X32714D01*
Y34230D01*
X32709D01*
Y34235D01*
X32704D01*
Y34245D01*
X32699D01*
Y34254D01*
X32694D01*
Y34259D01*
X32689D01*
Y34269D01*
X32685D01*
Y34279D01*
X32680D01*
Y34284D01*
X32675D01*
Y34289D01*
X32670D01*
Y34298D01*
X32665D01*
Y34303D01*
X32660D01*
Y34313D01*
X32655D01*
Y34318D01*
X32650D01*
Y34323D01*
X32646D01*
Y34328D01*
X32641D01*
Y34333D01*
X32636D01*
Y34342D01*
X32631D01*
Y34347D01*
X32626D01*
Y34352D01*
X32621D01*
Y34357D01*
X32616D01*
Y34362D01*
X32611D01*
Y34367D01*
X32606D01*
Y34372D01*
X32602D01*
Y34377D01*
X32597D01*
Y34381D01*
X32592D01*
Y34386D01*
X32582D01*
Y34391D01*
X32577D01*
Y34396D01*
X32572D01*
Y34401D01*
X32567D01*
Y34406D01*
X32563D01*
Y34411D01*
X32553D01*
Y34416D01*
X32548D01*
Y34421D01*
X32543D01*
Y34425D01*
X32533D01*
Y34430D01*
X32528D01*
Y34435D01*
X32523D01*
Y34440D01*
X32514D01*
Y34445D01*
X32504D01*
Y34450D01*
X32499D01*
Y34455D01*
X32489D01*
Y34460D01*
X32480D01*
Y34464D01*
X32470D01*
Y34469D01*
X32460D01*
Y34474D01*
X32455D01*
Y34479D01*
X32440D01*
Y34484D01*
X32431D01*
Y34489D01*
X32421D01*
Y34494D01*
X32406D01*
Y34499D01*
X32396D01*
Y34504D01*
X32377D01*
Y34508D01*
X32367D01*
Y34513D01*
X32343D01*
Y34518D01*
X32328D01*
Y34523D01*
X32304D01*
Y34528D01*
X32260D01*
Y34533D01*
D02*
G37*
%LPD*%
G36*
X29193Y34186D02*
X29203D01*
Y30157D01*
X29198D01*
Y30152D01*
X29193D01*
Y30148D01*
X29183D01*
Y30152D01*
X28524D01*
Y30148D01*
X28519D01*
Y30152D01*
X28509D01*
Y30377D01*
X28519D01*
Y30382D01*
X28529D01*
Y30377D01*
X28534D01*
Y30382D01*
X28949D01*
Y30377D01*
X28959D01*
Y30382D01*
X28968D01*
Y30387D01*
X28973D01*
Y30870D01*
Y30875D01*
Y31876D01*
X28968D01*
Y31886D01*
X28964D01*
Y31891D01*
X28959D01*
Y31896D01*
X28954D01*
Y31901D01*
X28944D01*
Y31906D01*
X28939D01*
Y31910D01*
X28934D01*
Y31915D01*
X28929D01*
Y31920D01*
X28924D01*
Y31925D01*
X28920D01*
Y31930D01*
X28915D01*
Y31935D01*
X28910D01*
Y31940D01*
X28905D01*
Y31945D01*
X28900D01*
Y31950D01*
X28895D01*
Y31954D01*
X28885D01*
Y31959D01*
X28880D01*
Y31964D01*
X28876D01*
Y31969D01*
X28871D01*
Y31974D01*
X28866D01*
Y31979D01*
X28861D01*
Y31984D01*
X28856D01*
Y31989D01*
X28851D01*
Y31993D01*
X28846D01*
Y31998D01*
X28841D01*
Y32003D01*
X28832D01*
Y32008D01*
X28827D01*
Y32013D01*
X28822D01*
Y32018D01*
X28817D01*
Y32023D01*
X28812D01*
Y32028D01*
X28807D01*
Y32033D01*
X28802D01*
Y32037D01*
X28797D01*
Y32042D01*
X28793D01*
Y32047D01*
X28783D01*
Y32052D01*
X28778D01*
Y32057D01*
X28773D01*
Y32062D01*
X28768D01*
Y32067D01*
X28763D01*
Y32072D01*
X28758D01*
Y32077D01*
X28754D01*
Y32081D01*
X28749D01*
Y32086D01*
X28744D01*
Y32091D01*
X28739D01*
Y32096D01*
X28734D01*
Y32101D01*
X28724D01*
Y32106D01*
X28719D01*
Y32111D01*
X28714D01*
Y32116D01*
X28710D01*
Y32120D01*
X28705D01*
Y32125D01*
X28700D01*
Y32130D01*
X28695D01*
Y32135D01*
X28690D01*
Y32140D01*
X28685D01*
Y32145D01*
X28675D01*
Y32150D01*
X28671D01*
Y32155D01*
X28666D01*
Y32160D01*
X28661D01*
Y32164D01*
X28656D01*
Y32169D01*
X28651D01*
Y32174D01*
X28646D01*
Y32179D01*
X28641D01*
Y32184D01*
X28636D01*
Y32189D01*
X28631D01*
Y32194D01*
X28627D01*
Y32199D01*
X28617D01*
Y32203D01*
X28612D01*
Y32208D01*
X28607D01*
Y32213D01*
X28602D01*
Y32218D01*
X28597D01*
Y32223D01*
X28592D01*
Y32228D01*
X28587D01*
Y32233D01*
X28583D01*
Y32238D01*
X28578D01*
Y32243D01*
X28568D01*
Y32247D01*
X28563D01*
Y32252D01*
X28558D01*
Y32257D01*
X28553D01*
Y32262D01*
X28548D01*
Y32267D01*
X28544D01*
Y32272D01*
X28539D01*
Y32277D01*
X28534D01*
Y32282D01*
X28529D01*
Y32286D01*
X28524D01*
Y32291D01*
X28514D01*
Y32296D01*
X28509D01*
Y32301D01*
X28504D01*
Y32306D01*
X28500D01*
Y32311D01*
X28495D01*
Y32316D01*
X28490D01*
Y32321D01*
X28485D01*
Y32326D01*
X28480D01*
Y32330D01*
X28475D01*
Y32335D01*
X28470D01*
Y32340D01*
X28465D01*
Y32345D01*
X28456D01*
Y32350D01*
X28451D01*
Y32355D01*
X28446D01*
Y32360D01*
X28441D01*
Y32365D01*
X28436D01*
Y32370D01*
X28431D01*
Y32374D01*
X28426D01*
Y32379D01*
X28421D01*
Y32384D01*
X28417D01*
Y32389D01*
X28407D01*
Y32394D01*
X28402D01*
Y32399D01*
X28397D01*
Y32404D01*
X28392D01*
Y32409D01*
X28387D01*
Y32413D01*
X28382D01*
Y32418D01*
X28378D01*
Y32423D01*
X28373D01*
Y32428D01*
X28368D01*
Y32433D01*
X28363D01*
Y32438D01*
X28358D01*
Y32443D01*
X28348D01*
Y32448D01*
X28343D01*
Y32453D01*
X28338D01*
Y32457D01*
X28334D01*
Y32462D01*
X28329D01*
Y32467D01*
X28324D01*
Y32472D01*
X28319D01*
Y32477D01*
X28314D01*
Y32482D01*
X28309D01*
Y32487D01*
X28299D01*
Y32492D01*
X28294D01*
Y32496D01*
X28290D01*
Y32501D01*
X28285D01*
Y32506D01*
X28280D01*
Y32511D01*
X28275D01*
Y32516D01*
X28270D01*
Y32521D01*
X28265D01*
Y32526D01*
X28260D01*
Y32531D01*
X28255D01*
Y32536D01*
X28251D01*
Y32540D01*
X28241D01*
Y32545D01*
X28236D01*
Y32550D01*
X28231D01*
Y32555D01*
X28226D01*
Y32560D01*
X28221D01*
Y32565D01*
X28216D01*
Y32570D01*
X28207D01*
Y32579D01*
X28202D01*
Y32584D01*
X28192D01*
Y32594D01*
X28182D01*
Y32599D01*
X28177D01*
Y32604D01*
X28172D01*
Y32609D01*
X28168D01*
Y32614D01*
X28163D01*
Y32619D01*
X28158D01*
Y32623D01*
X28153D01*
Y32628D01*
X28143D01*
Y32633D01*
X28138D01*
Y32638D01*
X28133D01*
Y32643D01*
X28128D01*
Y32648D01*
X28124D01*
Y32653D01*
X28119D01*
Y32658D01*
X28114D01*
Y32663D01*
X28109D01*
Y32667D01*
X28104D01*
Y32672D01*
X28099D01*
Y32677D01*
X28094D01*
Y32682D01*
X28089D01*
Y32687D01*
X28080D01*
Y32692D01*
X28075D01*
Y32697D01*
X28070D01*
Y32702D01*
X28065D01*
Y32706D01*
X28060D01*
Y32711D01*
X28055D01*
Y32716D01*
X28050D01*
Y32721D01*
X28045D01*
Y32726D01*
X28041D01*
Y32731D01*
X28031D01*
Y32736D01*
X28026D01*
Y32741D01*
X28021D01*
Y32746D01*
X28016D01*
Y32750D01*
X28011D01*
Y32755D01*
X28006D01*
Y32760D01*
X28001D01*
Y32765D01*
X27997D01*
Y32770D01*
X27992D01*
Y32775D01*
X27987D01*
Y32780D01*
X27982D01*
Y32785D01*
X27972D01*
Y32789D01*
X27967D01*
Y32794D01*
X27962D01*
Y32799D01*
X27958D01*
Y32804D01*
X27953D01*
Y32809D01*
X27948D01*
Y32814D01*
X27943D01*
Y32819D01*
X27938D01*
Y32824D01*
X27933D01*
Y32829D01*
X27923D01*
Y32833D01*
X27918D01*
Y32838D01*
X27914D01*
Y32843D01*
X27909D01*
Y32848D01*
X27904D01*
Y32853D01*
X27899D01*
Y32858D01*
X27894D01*
Y32863D01*
X27889D01*
Y32868D01*
X27884D01*
Y32872D01*
X27879D01*
Y32877D01*
X27870D01*
Y32882D01*
X27865D01*
Y32887D01*
X27860D01*
Y32892D01*
X27855D01*
Y32897D01*
X27850D01*
Y32902D01*
X27845D01*
Y32907D01*
X27840D01*
Y32912D01*
X27835D01*
Y32916D01*
X27831D01*
Y32921D01*
X27826D01*
Y32926D01*
X27821D01*
Y32931D01*
X27811D01*
Y32936D01*
X27806D01*
Y32941D01*
X27801D01*
Y32946D01*
X27796D01*
Y32951D01*
X27792D01*
Y32956D01*
X27787D01*
Y32960D01*
X27782D01*
Y32965D01*
X27777D01*
Y32970D01*
X27772D01*
Y32975D01*
X27762D01*
Y32980D01*
X27757D01*
Y32985D01*
X27752D01*
Y32990D01*
X27748D01*
Y32995D01*
X27743D01*
Y32999D01*
X27738D01*
Y33004D01*
X27733D01*
Y33009D01*
X27728D01*
Y33014D01*
X27718D01*
Y33024D01*
X27713D01*
Y33029D01*
X27704D01*
Y33024D01*
X27699D01*
Y33014D01*
X27694D01*
Y32999D01*
X27689D01*
Y32985D01*
X27684D01*
Y32970D01*
X27679D01*
Y32951D01*
X27674D01*
Y32936D01*
X27669D01*
Y32921D01*
X27665D01*
Y32907D01*
X27660D01*
Y32892D01*
X27655D01*
Y32877D01*
X27650D01*
Y32863D01*
X27645D01*
Y32843D01*
X27640D01*
Y32829D01*
X27635D01*
Y32814D01*
X27630D01*
Y32799D01*
X27625D01*
Y32785D01*
X27621D01*
Y32770D01*
X27616D01*
Y32755D01*
X27611D01*
Y32736D01*
X27606D01*
Y32721D01*
X27601D01*
Y32706D01*
X27596D01*
Y32692D01*
X27591D01*
Y32677D01*
X27586D01*
Y32663D01*
X27582D01*
Y32643D01*
X27577D01*
Y32633D01*
X27572D01*
Y32614D01*
X27567D01*
Y32599D01*
X27562D01*
Y32584D01*
X27557D01*
Y32570D01*
X27552D01*
Y32555D01*
X27547D01*
Y32536D01*
X27542D01*
Y32521D01*
X27538D01*
Y32506D01*
X27533D01*
Y32492D01*
X27528D01*
Y32477D01*
X27523D01*
Y32462D01*
X27518D01*
Y32448D01*
X27513D01*
Y32428D01*
X27508D01*
Y32418D01*
X27503D01*
Y32399D01*
X27499D01*
Y32384D01*
X27494D01*
Y32370D01*
X27489D01*
Y32355D01*
X27484D01*
Y32340D01*
X27479D01*
Y32321D01*
X27474D01*
Y32306D01*
X27469D01*
Y32291D01*
X27464D01*
Y32277D01*
X27459D01*
Y32262D01*
X27455D01*
Y32247D01*
X27450D01*
Y32233D01*
X27445D01*
Y32218D01*
X27440D01*
Y32199D01*
X27435D01*
Y32184D01*
X27430D01*
Y32169D01*
X27425D01*
Y32155D01*
X27420D01*
Y32140D01*
X27415D01*
Y32125D01*
X27411D01*
Y32111D01*
X27406D01*
Y32091D01*
X27401D01*
Y32077D01*
X27396D01*
Y32062D01*
X27391D01*
Y32047D01*
X27386D01*
Y32033D01*
X27381D01*
Y32018D01*
X27376D01*
Y31998D01*
X27372D01*
Y31984D01*
X27367D01*
Y31969D01*
X27362D01*
Y31954D01*
X27357D01*
Y31940D01*
X27352D01*
Y31925D01*
X27347D01*
Y31910D01*
X27342D01*
Y31896D01*
X27337D01*
Y31876D01*
X27332D01*
Y31867D01*
X27328D01*
Y31847D01*
X27323D01*
Y31832D01*
X27318D01*
Y31818D01*
X27313D01*
Y31803D01*
X27308D01*
Y31788D01*
X27303D01*
Y31769D01*
X27298D01*
Y31754D01*
X27293D01*
Y31740D01*
X27289D01*
Y31725D01*
X27284D01*
Y31710D01*
X27279D01*
Y31696D01*
X27274D01*
Y31681D01*
X27269D01*
Y31661D01*
X27264D01*
Y31647D01*
X27259D01*
Y31632D01*
X27254D01*
Y31617D01*
X27249D01*
Y31603D01*
X27245D01*
Y31588D01*
X27240D01*
Y31574D01*
X27235D01*
Y31554D01*
X27230D01*
Y31539D01*
X27225D01*
Y31525D01*
X27220D01*
Y31510D01*
X27215D01*
Y31495D01*
X27210D01*
Y31481D01*
X27206D01*
Y31466D01*
X27201D01*
Y31447D01*
X27196D01*
Y31432D01*
X27191D01*
Y31417D01*
X27186D01*
Y31403D01*
X27181D01*
Y31388D01*
X27176D01*
Y31373D01*
X27171D01*
Y31354D01*
X27166D01*
Y31344D01*
X27162D01*
Y31324D01*
X27157D01*
Y31310D01*
X27152D01*
Y31295D01*
X27147D01*
Y31281D01*
X27142D01*
Y31266D01*
X27137D01*
Y31246D01*
X27132D01*
Y31237D01*
X27127D01*
Y31217D01*
X27122D01*
Y31202D01*
X27118D01*
Y31188D01*
X27113D01*
Y31173D01*
X27108D01*
Y31158D01*
X27103D01*
Y31139D01*
X27098D01*
Y31129D01*
X27093D01*
Y31110D01*
X27088D01*
Y31095D01*
X27083D01*
Y31080D01*
X27079D01*
Y31066D01*
X27074D01*
Y31051D01*
X27069D01*
Y31031D01*
X27064D01*
Y31022D01*
X27059D01*
Y31002D01*
X27054D01*
Y30988D01*
X27049D01*
Y30973D01*
X27044D01*
Y30958D01*
X27039D01*
Y30944D01*
X27035D01*
Y30929D01*
X27030D01*
Y30909D01*
X27025D01*
Y30895D01*
X27020D01*
Y30880D01*
X27015D01*
Y30865D01*
X27010D01*
Y30851D01*
X27005D01*
Y30836D01*
X27000D01*
Y30821D01*
X26996D01*
Y30802D01*
X26991D01*
Y30787D01*
X26986D01*
Y30773D01*
X26981D01*
Y30758D01*
X26976D01*
Y30743D01*
X26971D01*
Y30729D01*
X26966D01*
Y30714D01*
X26961D01*
Y30695D01*
X26956D01*
Y30680D01*
X26952D01*
Y30665D01*
X26947D01*
Y30651D01*
X26942D01*
Y30636D01*
X26937D01*
Y30621D01*
X26932D01*
Y30607D01*
X26927D01*
Y30587D01*
X26922D01*
Y30572D01*
X26917D01*
Y30558D01*
X26913D01*
Y30543D01*
X26908D01*
Y30528D01*
X26903D01*
Y30514D01*
X26898D01*
Y30499D01*
X26903D01*
Y30494D01*
X27127D01*
Y30270D01*
X27122D01*
Y30265D01*
X26204D01*
Y30270D01*
X26200D01*
Y30489D01*
X26204D01*
Y30494D01*
X26776D01*
Y30499D01*
X26781D01*
Y30504D01*
X26786D01*
Y30524D01*
X26790D01*
Y30538D01*
X26795D01*
Y30553D01*
X26800D01*
Y30568D01*
X26805D01*
Y30582D01*
X26810D01*
Y30597D01*
X26815D01*
Y30611D01*
X26820D01*
Y30626D01*
X26825D01*
Y30641D01*
X26829D01*
Y30655D01*
X26834D01*
Y30675D01*
X26839D01*
Y30690D01*
X26844D01*
Y30704D01*
X26849D01*
Y30719D01*
X26854D01*
Y30734D01*
X26859D01*
Y30748D01*
X26864D01*
Y30763D01*
X26869D01*
Y30782D01*
X26873D01*
Y30792D01*
X26878D01*
Y30812D01*
X26883D01*
Y30826D01*
X26888D01*
Y30841D01*
X26893D01*
Y30856D01*
X26898D01*
Y30870D01*
X26903D01*
Y30885D01*
X26908D01*
Y30900D01*
X26913D01*
Y30914D01*
X26917D01*
Y30934D01*
X26922D01*
Y30948D01*
X26927D01*
Y30963D01*
X26932D01*
Y30978D01*
X26937D01*
Y30992D01*
X26942D01*
Y31007D01*
X26947D01*
Y31022D01*
X26952D01*
Y31036D01*
X26956D01*
Y31051D01*
X26961D01*
Y31071D01*
X26966D01*
Y31085D01*
X26971D01*
Y31100D01*
X26976D01*
Y31114D01*
X26981D01*
Y31129D01*
X26986D01*
Y31144D01*
X26991D01*
Y31158D01*
X26996D01*
Y31173D01*
X27000D01*
Y31188D01*
X27005D01*
Y31207D01*
X27010D01*
Y31222D01*
X27015D01*
Y31237D01*
X27020D01*
Y31251D01*
X27025D01*
Y31266D01*
X27030D01*
Y31281D01*
X27035D01*
Y31295D01*
X27039D01*
Y31310D01*
X27044D01*
Y31329D01*
X27049D01*
Y31344D01*
X27054D01*
Y31359D01*
X27059D01*
Y31373D01*
X27064D01*
Y31388D01*
X27069D01*
Y31403D01*
X27074D01*
Y31417D01*
X27079D01*
Y31432D01*
X27083D01*
Y31447D01*
X27088D01*
Y31466D01*
X27093D01*
Y31481D01*
X27098D01*
Y31495D01*
X27103D01*
Y31510D01*
X27108D01*
Y31525D01*
X27113D01*
Y31539D01*
X27118D01*
Y31554D01*
X27122D01*
Y31569D01*
X27127D01*
Y31583D01*
X27132D01*
Y31598D01*
X27137D01*
Y31617D01*
X27142D01*
Y31632D01*
X27147D01*
Y31647D01*
X27152D01*
Y31661D01*
X27157D01*
Y31676D01*
X27162D01*
Y31691D01*
X27166D01*
Y31705D01*
X27171D01*
Y31720D01*
X27176D01*
Y31740D01*
X27181D01*
Y31749D01*
X27186D01*
Y31769D01*
X27191D01*
Y31784D01*
X27196D01*
Y31798D01*
X27201D01*
Y31813D01*
X27206D01*
Y31827D01*
X27210D01*
Y31842D01*
X27215D01*
Y31857D01*
X27220D01*
Y31876D01*
X27225D01*
Y31891D01*
X27230D01*
Y31906D01*
X27235D01*
Y31920D01*
X27240D01*
Y31935D01*
X27245D01*
Y31950D01*
X27249D01*
Y31964D01*
X27254D01*
Y31979D01*
X27259D01*
Y31993D01*
X27264D01*
Y32008D01*
X27269D01*
Y32028D01*
X27274D01*
Y32042D01*
X27279D01*
Y32057D01*
X27284D01*
Y32072D01*
X27289D01*
Y32086D01*
X27293D01*
Y32101D01*
X27298D01*
Y32116D01*
X27303D01*
Y32135D01*
X27308D01*
Y32150D01*
X27313D01*
Y32164D01*
X27318D01*
Y32179D01*
X27323D01*
Y32194D01*
X27328D01*
Y32208D01*
X27332D01*
Y32223D01*
X27337D01*
Y32238D01*
X27342D01*
Y32252D01*
X27347D01*
Y32267D01*
X27352D01*
Y32286D01*
X27357D01*
Y32301D01*
X27362D01*
Y32316D01*
X27367D01*
Y32330D01*
X27372D01*
Y32345D01*
X27376D01*
Y32360D01*
X27381D01*
Y32374D01*
X27386D01*
Y32394D01*
X27391D01*
Y32404D01*
X27396D01*
Y32423D01*
X27401D01*
Y32438D01*
X27406D01*
Y32453D01*
X27411D01*
Y32467D01*
X27415D01*
Y32482D01*
X27420D01*
Y32496D01*
X27425D01*
Y32511D01*
X27430D01*
Y32526D01*
X27435D01*
Y32545D01*
X27440D01*
Y32560D01*
X27445D01*
Y32575D01*
X27450D01*
Y32584D01*
X27455D01*
Y32604D01*
X27459D01*
Y32619D01*
X27464D01*
Y32633D01*
X27469D01*
Y32648D01*
X27474D01*
Y32663D01*
X27479D01*
Y32682D01*
X27484D01*
Y32697D01*
X27489D01*
Y32711D01*
X27494D01*
Y32726D01*
X27499D01*
Y32741D01*
X27503D01*
Y32755D01*
X27508D01*
Y32770D01*
X27513D01*
Y32789D01*
X27518D01*
Y32799D01*
X27523D01*
Y32819D01*
X27528D01*
Y32833D01*
X27533D01*
Y32848D01*
X27538D01*
Y32863D01*
X27542D01*
Y32877D01*
X27547D01*
Y32892D01*
X27552D01*
Y32907D01*
X27557D01*
Y32921D01*
X27562D01*
Y32941D01*
X27567D01*
Y32956D01*
X27572D01*
Y32970D01*
X27577D01*
Y32985D01*
X27582D01*
Y32999D01*
X27586D01*
Y33014D01*
X27591D01*
Y33029D01*
X27596D01*
Y33043D01*
X27601D01*
Y33058D01*
X27606D01*
Y33078D01*
X27611D01*
Y33092D01*
X27616D01*
Y33107D01*
X27621D01*
Y33122D01*
X27625D01*
Y33136D01*
X27630D01*
Y33151D01*
X27635D01*
Y33165D01*
X27640D01*
Y33180D01*
X27645D01*
Y33200D01*
X27650D01*
Y33214D01*
X27655D01*
Y33229D01*
X27660D01*
Y33244D01*
X27665D01*
Y33258D01*
X27669D01*
Y33273D01*
X27674D01*
Y33288D01*
X27679D01*
Y33302D01*
X27684D01*
Y33317D01*
X27689D01*
Y33336D01*
X27694D01*
Y33346D01*
X27699D01*
Y33366D01*
X27704D01*
Y33380D01*
X27708D01*
Y33395D01*
X27713D01*
Y33410D01*
X27718D01*
Y33424D01*
X27723D01*
Y33439D01*
X27728D01*
Y33454D01*
X27733D01*
Y33473D01*
X27738D01*
Y33488D01*
X27743D01*
Y33502D01*
X27748D01*
Y33517D01*
X27752D01*
Y33532D01*
X27757D01*
Y33546D01*
X27762D01*
Y33561D01*
X27767D01*
Y33576D01*
X27772D01*
Y33595D01*
X27777D01*
Y33605D01*
X27782D01*
Y33625D01*
X27787D01*
Y33639D01*
X27792D01*
Y33654D01*
X27796D01*
Y33668D01*
X27801D01*
Y33683D01*
X27806D01*
Y33698D01*
X27811D01*
Y33712D01*
X27816D01*
Y33717D01*
X27821D01*
Y33722D01*
X27826D01*
Y33717D01*
X27831D01*
Y33712D01*
X27835D01*
Y33708D01*
X27840D01*
Y33703D01*
X27845D01*
Y33698D01*
X27850D01*
Y33693D01*
X27855D01*
Y33688D01*
X27860D01*
Y33683D01*
X27865D01*
Y33678D01*
X27870D01*
Y33673D01*
X27875D01*
Y33668D01*
X27879D01*
Y33664D01*
X27884D01*
Y33659D01*
X27889D01*
Y33654D01*
X27894D01*
Y33649D01*
X27899D01*
Y33644D01*
X27904D01*
Y33639D01*
X27909D01*
Y33634D01*
X27914D01*
Y33629D01*
X27918D01*
Y33625D01*
X27923D01*
Y33620D01*
X27928D01*
Y33615D01*
X27933D01*
Y33610D01*
X27938D01*
Y33605D01*
X27943D01*
Y33600D01*
X27948D01*
Y33595D01*
X27953D01*
Y33590D01*
X27958D01*
Y33585D01*
X27962D01*
Y33581D01*
X27967D01*
Y33576D01*
X27972D01*
Y33571D01*
X27977D01*
Y33566D01*
X27982D01*
Y33561D01*
X27987D01*
Y33556D01*
X27992D01*
Y33551D01*
X27997D01*
Y33546D01*
X28001D01*
Y33542D01*
X28006D01*
Y33537D01*
X28011D01*
Y33532D01*
X28016D01*
Y33527D01*
X28021D01*
Y33522D01*
X28026D01*
Y33517D01*
X28031D01*
Y33512D01*
X28036D01*
Y33507D01*
X28041D01*
Y33502D01*
X28045D01*
Y33498D01*
X28050D01*
Y33493D01*
X28055D01*
Y33488D01*
X28060D01*
Y33483D01*
X28065D01*
Y33478D01*
X28070D01*
Y33473D01*
X28075D01*
Y33468D01*
X28080D01*
Y33463D01*
X28085D01*
Y33458D01*
X28089D01*
Y33454D01*
X28094D01*
Y33449D01*
X28099D01*
Y33444D01*
X28104D01*
Y33439D01*
X28109D01*
Y33434D01*
X28114D01*
Y33429D01*
X28119D01*
Y33424D01*
X28124D01*
Y33419D01*
X28128D01*
Y33415D01*
X28133D01*
Y33410D01*
X28138D01*
Y33405D01*
X28143D01*
Y33400D01*
X28148D01*
Y33395D01*
X28153D01*
Y33390D01*
X28158D01*
Y33385D01*
X28163D01*
Y33380D01*
X28168D01*
Y33375D01*
X28172D01*
Y33371D01*
X28177D01*
Y33366D01*
X28182D01*
Y33361D01*
X28187D01*
Y33356D01*
X28192D01*
Y33351D01*
X28197D01*
Y33346D01*
X28202D01*
Y33341D01*
X28207D01*
Y33336D01*
X28211D01*
Y33332D01*
X28216D01*
Y33327D01*
X28221D01*
Y33322D01*
X28226D01*
Y33317D01*
X28231D01*
Y33312D01*
X28236D01*
Y33307D01*
X28241D01*
Y33302D01*
X28246D01*
Y33297D01*
X28251D01*
Y33292D01*
X28255D01*
Y33288D01*
X28260D01*
Y33283D01*
X28265D01*
Y33278D01*
X28270D01*
Y33273D01*
X28275D01*
Y33268D01*
X28280D01*
Y33263D01*
X28285D01*
Y33258D01*
X28290D01*
Y33253D01*
X28294D01*
Y33249D01*
X28299D01*
Y33244D01*
X28304D01*
Y33239D01*
X28309D01*
Y33234D01*
X28314D01*
Y33229D01*
X28319D01*
Y33224D01*
X28324D01*
Y33219D01*
X28329D01*
Y33214D01*
X28334D01*
Y33209D01*
X28338D01*
Y33205D01*
X28343D01*
Y33200D01*
X28348D01*
Y33195D01*
X28353D01*
Y33190D01*
X28358D01*
Y33185D01*
X28363D01*
Y33180D01*
X28368D01*
Y33175D01*
X28373D01*
Y33170D01*
X28378D01*
Y33165D01*
X28382D01*
Y33161D01*
X28387D01*
Y33156D01*
X28392D01*
Y33151D01*
X28397D01*
Y33146D01*
X28402D01*
Y33141D01*
X28407D01*
Y33136D01*
X28412D01*
Y33131D01*
X28417D01*
Y33126D01*
X28421D01*
Y33122D01*
X28426D01*
Y33117D01*
X28431D01*
Y33112D01*
X28436D01*
Y33107D01*
X28441D01*
Y33102D01*
X28446D01*
Y33097D01*
X28451D01*
Y33092D01*
X28456D01*
Y33087D01*
X28461D01*
Y33082D01*
X28465D01*
Y33078D01*
X28470D01*
Y33073D01*
X28475D01*
Y33068D01*
X28480D01*
Y33063D01*
X28485D01*
Y33058D01*
X28490D01*
Y33053D01*
X28495D01*
Y33048D01*
X28500D01*
Y33043D01*
X28504D01*
Y33039D01*
X28509D01*
Y33034D01*
X28514D01*
Y33029D01*
X28519D01*
Y33024D01*
X28524D01*
Y33014D01*
X28534D01*
Y33009D01*
X28539D01*
Y33004D01*
X28544D01*
Y32999D01*
X28548D01*
Y32995D01*
X28553D01*
Y32990D01*
X28558D01*
Y32985D01*
X28563D01*
Y32980D01*
X28568D01*
Y32975D01*
X28573D01*
Y32970D01*
X28578D01*
Y32965D01*
X28583D01*
Y32960D01*
X28587D01*
Y32956D01*
X28592D01*
Y32951D01*
X28597D01*
Y32946D01*
X28602D01*
Y32941D01*
X28607D01*
Y32936D01*
X28612D01*
Y32931D01*
X28617D01*
Y32926D01*
X28622D01*
Y32921D01*
X28627D01*
Y32916D01*
X28631D01*
Y32912D01*
X28636D01*
Y32907D01*
X28641D01*
Y32902D01*
X28646D01*
Y32897D01*
X28651D01*
Y32892D01*
X28656D01*
Y32887D01*
X28661D01*
Y32882D01*
X28666D01*
Y32877D01*
X28671D01*
Y32872D01*
X28675D01*
Y32868D01*
X28680D01*
Y32863D01*
X28685D01*
Y32858D01*
X28690D01*
Y32853D01*
X28695D01*
Y32848D01*
X28700D01*
Y32843D01*
X28705D01*
Y32838D01*
X28710D01*
Y32833D01*
X28714D01*
Y32829D01*
X28719D01*
Y32824D01*
X28724D01*
Y32819D01*
X28729D01*
Y32814D01*
X28734D01*
Y32809D01*
X28739D01*
Y32804D01*
X28744D01*
Y32799D01*
X28749D01*
Y32794D01*
X28754D01*
Y32789D01*
X28758D01*
Y32785D01*
X28763D01*
Y32780D01*
X28768D01*
Y32775D01*
X28773D01*
Y32770D01*
X28778D01*
Y32765D01*
X28783D01*
Y32760D01*
X28788D01*
Y32755D01*
X28793D01*
Y32750D01*
X28797D01*
Y32746D01*
X28802D01*
Y32741D01*
X28807D01*
Y32736D01*
X28812D01*
Y32731D01*
X28817D01*
Y32726D01*
X28822D01*
Y32721D01*
X28827D01*
Y32716D01*
X28832D01*
Y32711D01*
X28837D01*
Y32706D01*
X28841D01*
Y32702D01*
X28846D01*
Y32697D01*
X28851D01*
Y32692D01*
X28856D01*
Y32687D01*
X28861D01*
Y32682D01*
X28866D01*
Y32677D01*
X28871D01*
Y32672D01*
X28876D01*
Y32667D01*
X28880D01*
Y32663D01*
X28885D01*
Y32658D01*
X28890D01*
Y32653D01*
X28895D01*
Y32648D01*
X28900D01*
Y32643D01*
X28905D01*
Y32638D01*
X28910D01*
Y32633D01*
X28915D01*
Y32628D01*
X28920D01*
Y32623D01*
X28924D01*
Y32619D01*
X28929D01*
Y32614D01*
X28934D01*
Y32609D01*
X28939D01*
Y32604D01*
X28944D01*
Y32599D01*
X28949D01*
Y32594D01*
X28954D01*
Y32584D01*
X28973D01*
Y33952D01*
X28968D01*
Y33957D01*
X28397D01*
Y33966D01*
X28392D01*
Y34181D01*
X28397D01*
Y34186D01*
X29188D01*
Y34191D01*
X29193D01*
Y34186D01*
D02*
G37*
G36*
X29447D02*
X30243D01*
Y33961D01*
X30238D01*
Y33957D01*
X29667D01*
Y33947D01*
X29662D01*
Y33937D01*
X29667D01*
Y33732D01*
X29662D01*
Y33703D01*
X29667D01*
Y33043D01*
X29662D01*
Y33014D01*
X29667D01*
Y32599D01*
X29662D01*
Y32584D01*
X29667D01*
Y32579D01*
X29672D01*
Y32584D01*
X29681D01*
Y32594D01*
X29686D01*
Y32599D01*
X29691D01*
Y32604D01*
X29696D01*
Y32609D01*
X29701D01*
Y32614D01*
X29706D01*
Y32619D01*
X29711D01*
Y32623D01*
X29716D01*
Y32628D01*
X29720D01*
Y32633D01*
X29725D01*
Y32638D01*
X29730D01*
Y32643D01*
X29735D01*
Y32648D01*
X29740D01*
Y32653D01*
X29745D01*
Y32658D01*
X29750D01*
Y32663D01*
X29755D01*
Y32667D01*
X29760D01*
Y32672D01*
X29764D01*
Y32677D01*
X29769D01*
Y32682D01*
X29774D01*
Y32687D01*
X29779D01*
Y32692D01*
X29784D01*
Y32697D01*
X29789D01*
Y32702D01*
X29794D01*
Y32706D01*
X29799D01*
Y32711D01*
X29803D01*
Y32716D01*
X29808D01*
Y32721D01*
X29813D01*
Y32726D01*
X29818D01*
Y32731D01*
X29823D01*
Y32736D01*
X29828D01*
Y32741D01*
X29833D01*
Y32746D01*
X29838D01*
Y32750D01*
X29843D01*
Y32755D01*
X29847D01*
Y32760D01*
X29852D01*
Y32765D01*
X29857D01*
Y32770D01*
X29862D01*
Y32775D01*
X29867D01*
Y32780D01*
X29872D01*
Y32785D01*
X29877D01*
Y32789D01*
X29882D01*
Y32794D01*
X29886D01*
Y32799D01*
X29891D01*
Y32804D01*
X29896D01*
Y32809D01*
X29901D01*
Y32814D01*
X29906D01*
Y32819D01*
X29911D01*
Y32824D01*
X29916D01*
Y32829D01*
X29921D01*
Y32833D01*
X29926D01*
Y32838D01*
X29930D01*
Y32843D01*
X29935D01*
Y32848D01*
X29940D01*
Y32853D01*
X29945D01*
Y32858D01*
X29950D01*
Y32863D01*
X29955D01*
Y32868D01*
X29960D01*
Y32872D01*
X29965D01*
Y32877D01*
X29969D01*
Y32882D01*
X29974D01*
Y32887D01*
X29979D01*
Y32892D01*
X29984D01*
Y32897D01*
X29989D01*
Y32902D01*
X29994D01*
Y32907D01*
X29999D01*
Y32912D01*
X30004D01*
Y32916D01*
X30009D01*
Y32921D01*
X30013D01*
Y32926D01*
X30018D01*
Y32931D01*
X30023D01*
Y32936D01*
X30028D01*
Y32941D01*
X30033D01*
Y32946D01*
X30038D01*
Y32951D01*
X30043D01*
Y32956D01*
X30048D01*
Y32960D01*
X30052D01*
Y32965D01*
X30057D01*
Y32970D01*
X30062D01*
Y32975D01*
X30067D01*
Y32980D01*
X30072D01*
Y32985D01*
X30077D01*
Y32990D01*
X30082D01*
Y32995D01*
X30087D01*
Y32999D01*
X30092D01*
Y33004D01*
X30096D01*
Y33009D01*
X30101D01*
Y33014D01*
X30111D01*
Y33024D01*
X30116D01*
Y33029D01*
X30121D01*
Y33034D01*
X30126D01*
Y33039D01*
X30131D01*
Y33043D01*
X30136D01*
Y33048D01*
X30140D01*
Y33053D01*
X30145D01*
Y33058D01*
X30150D01*
Y33063D01*
X30155D01*
Y33068D01*
X30160D01*
Y33073D01*
X30165D01*
Y33078D01*
X30170D01*
Y33082D01*
X30175D01*
Y33087D01*
X30179D01*
Y33092D01*
X30184D01*
Y33097D01*
X30189D01*
Y33102D01*
X30194D01*
Y33107D01*
X30199D01*
Y33112D01*
X30204D01*
Y33117D01*
X30209D01*
Y33122D01*
X30214D01*
Y33126D01*
X30219D01*
Y33131D01*
X30223D01*
Y33136D01*
X30228D01*
Y33141D01*
X30233D01*
Y33146D01*
X30238D01*
Y33151D01*
X30243D01*
Y33156D01*
X30248D01*
Y33161D01*
X30253D01*
Y33165D01*
X30258D01*
Y33170D01*
X30262D01*
Y33175D01*
X30267D01*
Y33180D01*
X30272D01*
Y33185D01*
X30277D01*
Y33190D01*
X30282D01*
Y33195D01*
X30287D01*
Y33200D01*
X30292D01*
Y33205D01*
X30297D01*
Y33209D01*
X30302D01*
Y33214D01*
X30306D01*
Y33219D01*
X30311D01*
Y33224D01*
X30316D01*
Y33229D01*
X30321D01*
Y33234D01*
X30326D01*
Y33239D01*
X30331D01*
Y33244D01*
X30336D01*
Y33249D01*
X30341D01*
Y33253D01*
X30346D01*
Y33258D01*
X30350D01*
Y33263D01*
X30355D01*
Y33268D01*
X30360D01*
Y33273D01*
X30365D01*
Y33278D01*
X30370D01*
Y33283D01*
X30375D01*
Y33288D01*
X30380D01*
Y33292D01*
X30385D01*
Y33297D01*
X30389D01*
Y33302D01*
X30394D01*
Y33307D01*
X30399D01*
Y33312D01*
X30404D01*
Y33317D01*
X30409D01*
Y33322D01*
X30414D01*
Y33327D01*
X30419D01*
Y33332D01*
X30424D01*
Y33336D01*
X30429D01*
Y33341D01*
X30433D01*
Y33346D01*
X30438D01*
Y33351D01*
X30443D01*
Y33356D01*
X30448D01*
Y33361D01*
X30453D01*
Y33366D01*
X30458D01*
Y33371D01*
X30463D01*
Y33375D01*
X30468D01*
Y33380D01*
X30472D01*
Y33385D01*
X30477D01*
Y33390D01*
X30482D01*
Y33395D01*
X30487D01*
Y33400D01*
X30492D01*
Y33405D01*
X30497D01*
Y33410D01*
X30502D01*
Y33415D01*
X30507D01*
Y33419D01*
X30512D01*
Y33424D01*
X30516D01*
Y33429D01*
X30521D01*
Y33434D01*
X30526D01*
Y33439D01*
X30531D01*
Y33444D01*
X30536D01*
Y33449D01*
X30541D01*
Y33454D01*
X30546D01*
Y33458D01*
X30551D01*
Y33463D01*
X30555D01*
Y33468D01*
X30560D01*
Y33473D01*
X30565D01*
Y33478D01*
X30570D01*
Y33483D01*
X30575D01*
Y33488D01*
X30580D01*
Y33493D01*
X30585D01*
Y33498D01*
X30590D01*
Y33502D01*
X30595D01*
Y33507D01*
X30599D01*
Y33512D01*
X30604D01*
Y33517D01*
X30609D01*
Y33522D01*
X30614D01*
Y33527D01*
X30619D01*
Y33532D01*
X30624D01*
Y33537D01*
X30629D01*
Y33542D01*
X30634D01*
Y33546D01*
X30639D01*
Y33551D01*
X30643D01*
Y33556D01*
X30648D01*
Y33561D01*
X30653D01*
Y33566D01*
X30658D01*
Y33571D01*
X30663D01*
Y33576D01*
X30668D01*
Y33581D01*
X30673D01*
Y33585D01*
X30678D01*
Y33590D01*
X30682D01*
Y33595D01*
X30687D01*
Y33600D01*
X30692D01*
Y33605D01*
X30697D01*
Y33610D01*
X30702D01*
Y33615D01*
X30707D01*
Y33620D01*
X30712D01*
Y33625D01*
X30717D01*
Y33629D01*
X30722D01*
Y33634D01*
X30726D01*
Y33639D01*
X30731D01*
Y33644D01*
X30736D01*
Y33649D01*
X30741D01*
Y33654D01*
X30746D01*
Y33659D01*
X30751D01*
Y33664D01*
X30756D01*
Y33668D01*
X30761D01*
Y33673D01*
X30765D01*
Y33678D01*
X30770D01*
Y33683D01*
X30775D01*
Y33688D01*
X30780D01*
Y33693D01*
X30785D01*
Y33698D01*
X30790D01*
Y33703D01*
X30795D01*
Y33708D01*
X30800D01*
Y33712D01*
X30805D01*
Y33717D01*
X30809D01*
Y33722D01*
X30814D01*
Y33717D01*
X30819D01*
Y33712D01*
X30824D01*
Y33698D01*
X30829D01*
Y33683D01*
X30834D01*
Y33668D01*
X30839D01*
Y33654D01*
X30844D01*
Y33639D01*
X30848D01*
Y33625D01*
X30853D01*
Y33605D01*
X30858D01*
Y33595D01*
X30863D01*
Y33576D01*
X30868D01*
Y33561D01*
X30873D01*
Y33546D01*
X30878D01*
Y33532D01*
X30883D01*
Y33517D01*
X30888D01*
Y33502D01*
X30892D01*
Y33488D01*
X30897D01*
Y33473D01*
X30902D01*
Y33454D01*
X30907D01*
Y33439D01*
X30912D01*
Y33424D01*
X30917D01*
Y33410D01*
X30922D01*
Y33395D01*
X30927D01*
Y33380D01*
X30931D01*
Y33366D01*
X30936D01*
Y33351D01*
X30941D01*
Y33336D01*
X30946D01*
Y33317D01*
X30951D01*
Y33302D01*
X30956D01*
Y33288D01*
X30961D01*
Y33273D01*
X30966D01*
Y33258D01*
X30971D01*
Y33244D01*
X30975D01*
Y33229D01*
X30980D01*
Y33214D01*
X30985D01*
Y33200D01*
X30990D01*
Y33180D01*
X30995D01*
Y33165D01*
X31000D01*
Y33151D01*
X31005D01*
Y33136D01*
X31010D01*
Y33122D01*
X31015D01*
Y33107D01*
X31019D01*
Y33092D01*
X31024D01*
Y33078D01*
X31029D01*
Y33058D01*
X31034D01*
Y33048D01*
X31039D01*
Y33029D01*
X31044D01*
Y33014D01*
X31049D01*
Y32999D01*
X31054D01*
Y32985D01*
X31058D01*
Y32970D01*
X31063D01*
Y32956D01*
X31068D01*
Y32941D01*
X31073D01*
Y32921D01*
X31078D01*
Y32907D01*
X31083D01*
Y32892D01*
X31088D01*
Y32877D01*
X31093D01*
Y32863D01*
X31098D01*
Y32848D01*
X31102D01*
Y32833D01*
X31107D01*
Y32819D01*
X31112D01*
Y32804D01*
X31117D01*
Y32789D01*
X31122D01*
Y32770D01*
X31127D01*
Y32755D01*
X31132D01*
Y32741D01*
X31137D01*
Y32726D01*
X31141D01*
Y32711D01*
X31146D01*
Y32697D01*
X31151D01*
Y32682D01*
X31156D01*
Y32667D01*
X31161D01*
Y32653D01*
X31166D01*
Y32633D01*
X31171D01*
Y32619D01*
X31176D01*
Y32604D01*
X31181D01*
Y32584D01*
X31185D01*
Y32575D01*
X31190D01*
Y32560D01*
X31195D01*
Y32545D01*
X31200D01*
Y32531D01*
X31205D01*
Y32511D01*
X31210D01*
Y32501D01*
X31215D01*
Y32482D01*
X31220D01*
Y32467D01*
X31225D01*
Y32453D01*
X31229D01*
Y32438D01*
X31234D01*
Y32423D01*
X31239D01*
Y32409D01*
X31244D01*
Y32394D01*
X31249D01*
Y32379D01*
X31254D01*
Y32360D01*
X31259D01*
Y32345D01*
X31264D01*
Y32330D01*
X31268D01*
Y32316D01*
X31273D01*
Y32301D01*
X31278D01*
Y32286D01*
X31283D01*
Y32272D01*
X31288D01*
Y32257D01*
X31293D01*
Y32243D01*
X31298D01*
Y32223D01*
X31303D01*
Y32208D01*
X31308D01*
Y32194D01*
X31312D01*
Y32179D01*
X31317D01*
Y32164D01*
X31322D01*
Y32150D01*
X31327D01*
Y32135D01*
X31332D01*
Y32120D01*
X31337D01*
Y32106D01*
X31342D01*
Y32091D01*
X31347D01*
Y32072D01*
X31351D01*
Y32057D01*
X31356D01*
Y32042D01*
X31361D01*
Y32028D01*
X31366D01*
Y32013D01*
X31371D01*
Y31998D01*
X31376D01*
Y31984D01*
X31381D01*
Y31964D01*
X31386D01*
Y31954D01*
X31391D01*
Y31935D01*
X31395D01*
Y31920D01*
X31400D01*
Y31906D01*
X31405D01*
Y31891D01*
X31410D01*
Y31876D01*
X31415D01*
Y31862D01*
X31420D01*
Y31847D01*
X31425D01*
Y31832D01*
X31430D01*
Y31813D01*
X31434D01*
Y31798D01*
X31439D01*
Y31784D01*
X31444D01*
Y31769D01*
X31449D01*
Y31754D01*
X31454D01*
Y31740D01*
X31459D01*
Y31725D01*
X31464D01*
Y31705D01*
X31469D01*
Y31696D01*
X31474D01*
Y31676D01*
X31478D01*
Y31661D01*
X31483D01*
Y31647D01*
X31488D01*
Y31632D01*
X31493D01*
Y31617D01*
X31498D01*
Y31603D01*
X31503D01*
Y31588D01*
X31508D01*
Y31574D01*
X31513D01*
Y31559D01*
X31517D01*
Y31539D01*
X31522D01*
Y31525D01*
X31527D01*
Y31510D01*
X31532D01*
Y31495D01*
X31537D01*
Y31481D01*
X31542D01*
Y31466D01*
X31547D01*
Y31451D01*
X31552D01*
Y31437D01*
X31557D01*
Y31417D01*
X31561D01*
Y31407D01*
X31566D01*
Y31388D01*
X31571D01*
Y31373D01*
X31576D01*
Y31359D01*
X31581D01*
Y31344D01*
X31586D01*
Y31329D01*
X31591D01*
Y31315D01*
X31596D01*
Y31300D01*
X31601D01*
Y31281D01*
X31605D01*
Y31266D01*
X31610D01*
Y31251D01*
X31615D01*
Y31237D01*
X31620D01*
Y31222D01*
X31625D01*
Y31207D01*
X31630D01*
Y31193D01*
X31635D01*
Y31178D01*
X31640D01*
Y31163D01*
X31644D01*
Y31149D01*
X31649D01*
Y31129D01*
X31654D01*
Y31114D01*
X31659D01*
Y31100D01*
X31664D01*
Y31085D01*
X31669D01*
Y31071D01*
X31674D01*
Y31056D01*
X31679D01*
Y31041D01*
X31684D01*
Y31022D01*
X31688D01*
Y31012D01*
X31693D01*
Y30992D01*
X31698D01*
Y30978D01*
X31703D01*
Y30963D01*
X31708D01*
Y30948D01*
X31713D01*
Y30934D01*
X31718D01*
Y30919D01*
X31723D01*
Y30905D01*
X31727D01*
Y30890D01*
X31732D01*
Y30870D01*
X31737D01*
Y30856D01*
X31742D01*
Y30841D01*
X31747D01*
Y30826D01*
X31752D01*
Y30812D01*
X31757D01*
Y30797D01*
X31762D01*
Y30782D01*
X31767D01*
Y30768D01*
X31771D01*
Y30753D01*
X31776D01*
Y30738D01*
X31781D01*
Y30719D01*
X31786D01*
Y30704D01*
X31791D01*
Y30690D01*
X31796D01*
Y30675D01*
X31801D01*
Y30660D01*
X31806D01*
Y30646D01*
X31810D01*
Y30631D01*
X31815D01*
Y30611D01*
X31820D01*
Y30602D01*
X31825D01*
Y30582D01*
X31830D01*
Y30568D01*
X31835D01*
Y30553D01*
X31840D01*
Y30538D01*
X31845D01*
Y30524D01*
X31850D01*
Y30504D01*
X31854D01*
Y30499D01*
X31859D01*
Y30494D01*
X32436D01*
Y30270D01*
X32431D01*
Y30265D01*
X31513D01*
Y30275D01*
X31508D01*
Y30489D01*
X31513D01*
Y30494D01*
X31732D01*
Y30499D01*
X31737D01*
Y30514D01*
X31732D01*
Y30533D01*
X31727D01*
Y30543D01*
X31723D01*
Y30563D01*
X31718D01*
Y30577D01*
X31713D01*
Y30592D01*
X31708D01*
Y30607D01*
X31703D01*
Y30621D01*
X31698D01*
Y30636D01*
X31693D01*
Y30655D01*
X31688D01*
Y30670D01*
X31684D01*
Y30685D01*
X31679D01*
Y30699D01*
X31674D01*
Y30714D01*
X31669D01*
Y30729D01*
X31664D01*
Y30743D01*
X31659D01*
Y30763D01*
X31654D01*
Y30778D01*
X31649D01*
Y30792D01*
X31644D01*
Y30807D01*
X31640D01*
Y30821D01*
X31635D01*
Y30836D01*
X31630D01*
Y30851D01*
X31625D01*
Y30870D01*
X31620D01*
Y30885D01*
X31615D01*
Y30900D01*
X31610D01*
Y30914D01*
X31605D01*
Y30929D01*
X31601D01*
Y30944D01*
X31596D01*
Y30958D01*
X31591D01*
Y30978D01*
X31586D01*
Y30988D01*
X31581D01*
Y31007D01*
X31576D01*
Y31022D01*
X31571D01*
Y31036D01*
X31566D01*
Y31051D01*
X31561D01*
Y31066D01*
X31557D01*
Y31085D01*
X31552D01*
Y31095D01*
X31547D01*
Y31114D01*
X31542D01*
Y31129D01*
X31537D01*
Y31144D01*
X31532D01*
Y31158D01*
X31527D01*
Y31173D01*
X31522D01*
Y31188D01*
X31517D01*
Y31207D01*
X31513D01*
Y31222D01*
X31508D01*
Y31237D01*
X31503D01*
Y31251D01*
X31498D01*
Y31266D01*
X31493D01*
Y31281D01*
X31488D01*
Y31295D01*
X31483D01*
Y31315D01*
X31478D01*
Y31329D01*
X31474D01*
Y31344D01*
X31469D01*
Y31359D01*
X31464D01*
Y31373D01*
X31459D01*
Y31388D01*
X31454D01*
Y31407D01*
X31449D01*
Y31422D01*
X31444D01*
Y31437D01*
X31439D01*
Y31451D01*
X31434D01*
Y31466D01*
X31430D01*
Y31481D01*
X31425D01*
Y31495D01*
X31420D01*
Y31510D01*
X31415D01*
Y31530D01*
X31410D01*
Y31544D01*
X31405D01*
Y31559D01*
X31400D01*
Y31574D01*
X31395D01*
Y31588D01*
X31391D01*
Y31608D01*
X31386D01*
Y31617D01*
X31381D01*
Y31637D01*
X31376D01*
Y31652D01*
X31371D01*
Y31666D01*
X31366D01*
Y31681D01*
X31361D01*
Y31696D01*
X31356D01*
Y31710D01*
X31351D01*
Y31725D01*
X31347D01*
Y31744D01*
X31342D01*
Y31759D01*
X31337D01*
Y31774D01*
X31332D01*
Y31788D01*
X31327D01*
Y31803D01*
X31322D01*
Y31818D01*
X31317D01*
Y31832D01*
X31312D01*
Y31852D01*
X31308D01*
Y31867D01*
X31303D01*
Y31876D01*
X31298D01*
Y31896D01*
X31293D01*
Y31910D01*
X31288D01*
Y31925D01*
X31283D01*
Y31940D01*
X31278D01*
Y31959D01*
X31273D01*
Y31974D01*
X31268D01*
Y31989D01*
X31264D01*
Y32003D01*
X31259D01*
Y32018D01*
X31254D01*
Y32033D01*
X31249D01*
Y32052D01*
X31244D01*
Y32067D01*
X31239D01*
Y32081D01*
X31234D01*
Y32096D01*
X31229D01*
Y32111D01*
X31225D01*
Y32125D01*
X31220D01*
Y32140D01*
X31215D01*
Y32160D01*
X31210D01*
Y32174D01*
X31205D01*
Y32189D01*
X31200D01*
Y32203D01*
X31195D01*
Y32218D01*
X31190D01*
Y32233D01*
X31185D01*
Y32247D01*
X31181D01*
Y32267D01*
X31176D01*
Y32277D01*
X31171D01*
Y32296D01*
X31166D01*
Y32311D01*
X31161D01*
Y32326D01*
X31156D01*
Y32340D01*
X31151D01*
Y32355D01*
X31146D01*
Y32374D01*
X31141D01*
Y32384D01*
X31137D01*
Y32404D01*
X31132D01*
Y32418D01*
X31127D01*
Y32433D01*
X31122D01*
Y32448D01*
X31117D01*
Y32462D01*
X31112D01*
Y32477D01*
X31107D01*
Y32496D01*
X31102D01*
Y32511D01*
X31098D01*
Y32526D01*
X31093D01*
Y32540D01*
X31088D01*
Y32555D01*
X31083D01*
Y32570D01*
X31078D01*
Y32584D01*
X31073D01*
Y32604D01*
X31068D01*
Y32619D01*
X31063D01*
Y32633D01*
X31058D01*
Y32648D01*
X31054D01*
Y32663D01*
X31049D01*
Y32677D01*
X31044D01*
Y32697D01*
X31039D01*
Y32711D01*
X31034D01*
Y32726D01*
X31029D01*
Y32741D01*
X31024D01*
Y32755D01*
X31019D01*
Y32770D01*
X31015D01*
Y32785D01*
X31010D01*
Y32799D01*
X31005D01*
Y32819D01*
X31000D01*
Y32833D01*
X30995D01*
Y32848D01*
X30990D01*
Y32863D01*
X30985D01*
Y32877D01*
X30980D01*
Y32892D01*
X30975D01*
Y32907D01*
X30971D01*
Y32926D01*
X30966D01*
Y32941D01*
X30961D01*
Y32956D01*
X30956D01*
Y32970D01*
X30951D01*
Y32985D01*
X30946D01*
Y32999D01*
X30941D01*
Y33014D01*
X30936D01*
Y33029D01*
X30922D01*
Y33019D01*
X30917D01*
Y33014D01*
X30907D01*
Y33009D01*
X30902D01*
Y33004D01*
X30897D01*
Y32999D01*
X30892D01*
Y32995D01*
X30888D01*
Y32990D01*
X30883D01*
Y32985D01*
X30878D01*
Y32980D01*
X30873D01*
Y32975D01*
X30868D01*
Y32970D01*
X30863D01*
Y32965D01*
X30853D01*
Y32960D01*
X30848D01*
Y32956D01*
X30844D01*
Y32951D01*
X30839D01*
Y32946D01*
X30834D01*
Y32941D01*
X30829D01*
Y32936D01*
X30824D01*
Y32931D01*
X30819D01*
Y32926D01*
X30814D01*
Y32921D01*
X30805D01*
Y32916D01*
X30800D01*
Y32912D01*
X30795D01*
Y32907D01*
X30790D01*
Y32902D01*
X30785D01*
Y32897D01*
X30780D01*
Y32892D01*
X30775D01*
Y32887D01*
X30770D01*
Y32882D01*
X30765D01*
Y32877D01*
X30761D01*
Y32872D01*
X30756D01*
Y32868D01*
X30746D01*
Y32863D01*
X30741D01*
Y32858D01*
X30736D01*
Y32853D01*
X30731D01*
Y32848D01*
X30726D01*
Y32843D01*
X30722D01*
Y32838D01*
X30717D01*
Y32833D01*
X30712D01*
Y32829D01*
X30707D01*
Y32824D01*
X30702D01*
Y32819D01*
X30692D01*
Y32814D01*
X30687D01*
Y32809D01*
X30682D01*
Y32804D01*
X30678D01*
Y32799D01*
X30673D01*
Y32794D01*
X30668D01*
Y32789D01*
X30663D01*
Y32785D01*
X30658D01*
Y32780D01*
X30653D01*
Y32775D01*
X30643D01*
Y32770D01*
X30639D01*
Y32765D01*
X30634D01*
Y32760D01*
X30629D01*
Y32755D01*
X30624D01*
Y32750D01*
X30619D01*
Y32746D01*
X30614D01*
Y32741D01*
X30609D01*
Y32736D01*
X30604D01*
Y32731D01*
X30599D01*
Y32726D01*
X30595D01*
Y32721D01*
X30585D01*
Y32716D01*
X30580D01*
Y32711D01*
X30575D01*
Y32706D01*
X30570D01*
Y32702D01*
X30565D01*
Y32697D01*
X30560D01*
Y32692D01*
X30555D01*
Y32687D01*
X30551D01*
Y32682D01*
X30546D01*
Y32677D01*
X30536D01*
Y32672D01*
X30531D01*
Y32667D01*
X30526D01*
Y32663D01*
X30521D01*
Y32658D01*
X30516D01*
Y32653D01*
X30512D01*
Y32648D01*
X30507D01*
Y32643D01*
X30502D01*
Y32638D01*
X30497D01*
Y32633D01*
X30492D01*
Y32628D01*
X30487D01*
Y32623D01*
X30477D01*
Y32619D01*
X30472D01*
Y32614D01*
X30468D01*
Y32609D01*
X30463D01*
Y32604D01*
X30458D01*
Y32599D01*
X30453D01*
Y32594D01*
X30448D01*
Y32589D01*
X30443D01*
Y32584D01*
X30438D01*
Y32579D01*
X30429D01*
Y32570D01*
X30419D01*
Y32565D01*
X30414D01*
Y32560D01*
X30409D01*
Y32555D01*
X30404D01*
Y32550D01*
X30399D01*
Y32545D01*
X30394D01*
Y32540D01*
X30389D01*
Y32536D01*
X30385D01*
Y32531D01*
X30375D01*
Y32526D01*
X30370D01*
Y32521D01*
X30365D01*
Y32516D01*
X30360D01*
Y32511D01*
X30355D01*
Y32506D01*
X30350D01*
Y32501D01*
X30346D01*
Y32496D01*
X30341D01*
Y32492D01*
X30336D01*
Y32487D01*
X30331D01*
Y32482D01*
X30326D01*
Y32477D01*
X30316D01*
Y32472D01*
X30311D01*
Y32467D01*
X30306D01*
Y32462D01*
X30302D01*
Y32457D01*
X30297D01*
Y32453D01*
X30292D01*
Y32448D01*
X30287D01*
Y32443D01*
X30282D01*
Y32438D01*
X30277D01*
Y32433D01*
X30267D01*
Y32428D01*
X30262D01*
Y32423D01*
X30258D01*
Y32418D01*
X30253D01*
Y32413D01*
X30248D01*
Y32409D01*
X30243D01*
Y32404D01*
X30238D01*
Y32399D01*
X30233D01*
Y32394D01*
X30228D01*
Y32389D01*
X30223D01*
Y32384D01*
X30219D01*
Y32379D01*
X30209D01*
Y32374D01*
X30204D01*
Y32370D01*
X30199D01*
Y32365D01*
X30194D01*
Y32360D01*
X30189D01*
Y32355D01*
X30184D01*
Y32350D01*
X30179D01*
Y32345D01*
X30175D01*
Y32340D01*
X30170D01*
Y32335D01*
X30160D01*
Y32330D01*
X30155D01*
Y32326D01*
X30150D01*
Y32321D01*
X30145D01*
Y32316D01*
X30140D01*
Y32311D01*
X30136D01*
Y32306D01*
X30131D01*
Y32301D01*
X30126D01*
Y32296D01*
X30121D01*
Y32291D01*
X30116D01*
Y32286D01*
X30106D01*
Y32282D01*
X30101D01*
Y32277D01*
X30096D01*
Y32272D01*
X30092D01*
Y32267D01*
X30087D01*
Y32262D01*
X30082D01*
Y32257D01*
X30077D01*
Y32252D01*
X30072D01*
Y32247D01*
X30067D01*
Y32243D01*
X30062D01*
Y32238D01*
X30052D01*
Y32233D01*
X30048D01*
Y32228D01*
X30043D01*
Y32223D01*
X30038D01*
Y32218D01*
X30033D01*
Y32213D01*
X30028D01*
Y32208D01*
X30023D01*
Y32203D01*
X30018D01*
Y32199D01*
X30013D01*
Y32194D01*
X30009D01*
Y32189D01*
X29999D01*
Y32184D01*
X29994D01*
Y32179D01*
X29989D01*
Y32174D01*
X29984D01*
Y32169D01*
X29979D01*
Y32164D01*
X29974D01*
Y32160D01*
X29969D01*
Y32155D01*
X29965D01*
Y32150D01*
X29960D01*
Y32145D01*
X29955D01*
Y32140D01*
X29950D01*
Y32135D01*
X29940D01*
Y32130D01*
X29935D01*
Y32125D01*
X29930D01*
Y32120D01*
X29926D01*
Y32116D01*
X29921D01*
Y32111D01*
X29916D01*
Y32106D01*
X29911D01*
Y32101D01*
X29906D01*
Y32096D01*
X29896D01*
Y32091D01*
X29891D01*
Y32086D01*
X29886D01*
Y32081D01*
X29882D01*
Y32077D01*
X29877D01*
Y32072D01*
X29872D01*
Y32067D01*
X29867D01*
Y32062D01*
X29862D01*
Y32057D01*
X29857D01*
Y32052D01*
X29852D01*
Y32047D01*
X29847D01*
Y32042D01*
X29838D01*
Y32037D01*
X29833D01*
Y32033D01*
X29828D01*
Y32028D01*
X29823D01*
Y32023D01*
X29818D01*
Y32018D01*
X29813D01*
Y32013D01*
X29808D01*
Y32008D01*
X29803D01*
Y32003D01*
X29799D01*
Y31998D01*
X29789D01*
Y31993D01*
X29784D01*
Y31989D01*
X29779D01*
Y31984D01*
X29774D01*
Y31979D01*
X29769D01*
Y31974D01*
X29764D01*
Y31969D01*
X29760D01*
Y31964D01*
X29755D01*
Y31959D01*
X29750D01*
Y31954D01*
X29745D01*
Y31950D01*
X29740D01*
Y31945D01*
X29730D01*
Y31940D01*
X29725D01*
Y31935D01*
X29720D01*
Y31930D01*
X29716D01*
Y31925D01*
X29711D01*
Y31920D01*
X29706D01*
Y31915D01*
X29701D01*
Y31910D01*
X29696D01*
Y31906D01*
X29691D01*
Y31901D01*
X29686D01*
Y31896D01*
X29676D01*
Y31891D01*
X29672D01*
Y31886D01*
X29667D01*
Y31871D01*
X29662D01*
Y31862D01*
X29667D01*
Y30397D01*
X29662D01*
Y30387D01*
X29667D01*
Y30382D01*
X29676D01*
Y30377D01*
X29686D01*
Y30382D01*
X30101D01*
Y30377D01*
X30106D01*
Y30382D01*
X30121D01*
Y30377D01*
X30126D01*
Y30152D01*
X30116D01*
Y30148D01*
X30111D01*
Y30152D01*
X29452D01*
Y30148D01*
X29442D01*
Y30152D01*
X29437D01*
Y30157D01*
X29432D01*
Y34186D01*
X29442D01*
Y34191D01*
X29447D01*
Y34186D01*
D02*
G37*
G36*
X32431Y30025D02*
X32436D01*
Y29811D01*
X32431D01*
Y29806D01*
X26204D01*
Y29811D01*
X26200D01*
Y30025D01*
X26204D01*
Y30035D01*
X32431D01*
Y30025D01*
D02*
G37*
%LPC*%
G36*
X66966Y48159D02*
X66080D01*
Y46386D01*
X66966D01*
Y48159D01*
D02*
G37*
%LPD*%
D40*
X76600Y19000D02*
G03*
X76600Y19000I-100J0D01*
G01*
X20600Y43275D02*
G03*
X20600Y43275I-100J0D01*
G01*
X80250Y1500D02*
X81750D01*
X80250Y9100D02*
X81750D01*
X73410Y1500D02*
X74910D01*
X73410D02*
Y3000D01*
Y7600D02*
Y9100D01*
X74910D01*
X87090D02*
X88590D01*
Y7600D02*
Y9100D01*
X88590Y1500D02*
Y3000D01*
X87090Y1500D02*
X88590D01*
X27600Y17250D02*
X28400D01*
X25600D02*
X26400D01*
X76700Y18275D02*
X78700D01*
Y19275D01*
Y22725D02*
Y23725D01*
X77700D02*
X78700D01*
X71300D02*
X72300D01*
X71300Y22725D02*
Y23725D01*
Y18275D02*
Y19275D01*
Y18275D02*
X72300D01*
X84750Y37000D02*
X85750D01*
Y38000D01*
Y40000D02*
Y41000D01*
X84750D02*
X85750D01*
X79250D02*
X80250D01*
X79250Y40000D02*
Y41000D01*
Y37000D02*
Y38000D01*
Y37000D02*
X80250D01*
X52100Y20000D02*
X52900D01*
X48500Y18800D02*
Y19200D01*
X51000Y18800D02*
Y19200D01*
X52100Y17250D02*
X52900D01*
X46600Y19500D02*
X47400D01*
X85250Y44850D02*
Y45650D01*
Y46350D02*
Y47150D01*
X94500Y9475D02*
Y10525D01*
X92200Y50470D02*
X94000D01*
X97600D02*
X98085D01*
Y41530D02*
Y50470D01*
X97600Y41530D02*
X98085D01*
X92200D02*
X94000D01*
X90500Y52600D02*
Y53400D01*
Y38600D02*
Y39400D01*
X40600Y44115D02*
X45401D01*
Y38885D02*
Y44115D01*
X40600Y38885D02*
X45401D01*
X40600D02*
Y44115D01*
X38651Y44080D02*
X40250D01*
X46250Y45100D02*
Y45900D01*
X82175Y22150D02*
X82650D01*
X83000Y19950D02*
Y22050D01*
Y19950D02*
X83500D01*
Y22050D01*
X83000D02*
X83500D01*
X72500Y24350D02*
Y25150D01*
X77500Y24350D02*
Y25150D01*
X69350Y14000D02*
X70150D01*
X29600Y17250D02*
X30400D01*
X31600D02*
X32400D01*
X33600D02*
X34400D01*
X24750Y44350D02*
Y45150D01*
X19250Y44350D02*
Y45150D01*
X18100Y42800D02*
Y43800D01*
X20100D01*
X24900D02*
X25900D01*
Y42800D02*
Y43800D01*
Y38200D02*
Y39200D01*
X24900Y38200D02*
X25900D01*
X18100D02*
X19100D01*
X18100D02*
Y39200D01*
X28116Y49336D02*
X27950Y49503D01*
X27617D01*
X27450Y49336D01*
Y49169D01*
X27617Y49003D01*
X27950D01*
X28116Y48836D01*
Y48669D01*
X27950Y48503D01*
X27617D01*
X27450Y48669D01*
X28950Y48503D02*
X28616D01*
X28450Y48669D01*
Y49003D01*
X28616Y49169D01*
X28950D01*
X29116Y49003D01*
Y48836D01*
X28450D01*
X29449Y49169D02*
Y48503D01*
Y48836D01*
X29616Y49003D01*
X29783Y49169D01*
X29949D01*
X30449D02*
X30782Y48503D01*
X31115Y49169D01*
X31615Y48503D02*
X31949D01*
X32115Y48669D01*
Y49003D01*
X31949Y49169D01*
X31615D01*
X31449Y49003D01*
Y48669D01*
X31615Y48503D01*
X27450Y46823D02*
Y47823D01*
X27950D01*
X28116Y47656D01*
Y47323D01*
X27950Y47156D01*
X27450D01*
X28450Y47823D02*
Y46823D01*
X28783Y47156D01*
X29116Y46823D01*
Y47823D01*
X29449Y46823D02*
Y47823D01*
X29783Y47490D01*
X30116Y47823D01*
Y46823D01*
X31449Y47823D02*
Y47156D01*
X31782Y46823D01*
X32115Y47156D01*
Y47823D01*
X32615Y46823D02*
X32948D01*
X33115Y46990D01*
Y47323D01*
X32948Y47490D01*
X32615D01*
X32448Y47323D01*
Y46990D01*
X32615Y46823D01*
X33448D02*
X33781D01*
X33615D01*
Y47823D01*
X33448D01*
X34448Y47656D02*
Y47490D01*
X34281D01*
X34614D01*
X34448D01*
Y46990D01*
X34614Y46823D01*
X35281Y47490D02*
X35614D01*
X35781Y47323D01*
Y46823D01*
X35281D01*
X35114Y46990D01*
X35281Y47156D01*
X35781D01*
X36447Y46490D02*
X36614D01*
X36780Y46657D01*
Y47490D01*
X36280D01*
X36114Y47323D01*
Y46990D01*
X36280Y46823D01*
X36780D01*
X37613D02*
X37280D01*
X37114Y46990D01*
Y47323D01*
X37280Y47490D01*
X37613D01*
X37780Y47323D01*
Y47156D01*
X37114D01*
X31200Y39460D02*
X31866D01*
X31533Y39793D02*
Y39127D01*
X32866Y39960D02*
X32200D01*
Y39460D01*
X32533Y39627D01*
X32700D01*
X32866Y39460D01*
Y39127D01*
X32700Y38960D01*
X32366D01*
X32200Y39127D01*
X33199Y39960D02*
Y39293D01*
X33533Y38960D01*
X33866Y39293D01*
Y39960D01*
X31200Y44540D02*
X31866D01*
X31533Y44873D02*
Y44207D01*
X32200Y44873D02*
X32366Y45040D01*
X32700D01*
X32866Y44873D01*
Y44707D01*
X32700Y44540D01*
X32533D01*
X32700D01*
X32866Y44373D01*
Y44207D01*
X32700Y44040D01*
X32366D01*
X32200Y44207D01*
X33199Y45040D02*
Y44373D01*
X33533Y44040D01*
X33866Y44373D01*
Y45040D01*
X34199Y44873D02*
X34366Y45040D01*
X34699D01*
X34865Y44873D01*
Y44707D01*
X34699Y44540D01*
X34532D01*
X34699D01*
X34865Y44373D01*
Y44207D01*
X34699Y44040D01*
X34366D01*
X34199Y44207D01*
X89450Y2100D02*
X90116Y1100D01*
Y2100D02*
X89450Y1100D01*
X91116D02*
X90450D01*
X91116Y1766D01*
Y1933D01*
X90950Y2100D01*
X90616D01*
X90450Y1933D01*
X29000Y37510D02*
X28667D01*
X28833D01*
Y36677D01*
X28667Y36510D01*
X28500D01*
X28334Y36677D01*
X29333Y36510D02*
X29666D01*
X29500D01*
Y37510D01*
X29333Y37343D01*
X46000Y2450D02*
Y1450D01*
Y1950D01*
X46667D01*
Y2450D01*
Y1450D01*
X47000D02*
X47333D01*
X47167D01*
Y2450D01*
X47000Y2283D01*
X48500Y2450D02*
X48166Y2283D01*
X47833Y1950D01*
Y1617D01*
X48000Y1450D01*
X48333D01*
X48500Y1617D01*
Y1783D01*
X48333Y1950D01*
X47833D01*
X1450Y22417D02*
X2450D01*
X1950D01*
Y23083D01*
X1450D01*
X2450D01*
X2283Y23417D02*
X2450Y23583D01*
Y23916D01*
X2283Y24083D01*
X1617D01*
X1450Y23916D01*
Y23583D01*
X1617Y23417D01*
X1783D01*
X1950Y23583D01*
Y24083D01*
X80100Y42500D02*
X79434D01*
Y42000D01*
X79767D01*
X79434D01*
Y41500D01*
X80433D02*
X80766D01*
X80600D01*
Y42500D01*
X80433Y42333D01*
X48050Y15167D02*
X48217D01*
X48550Y15501D01*
X48217Y15834D01*
X48050D01*
X48550Y15501D02*
X49050D01*
Y16167D02*
Y16500D01*
Y16334D01*
X48050D01*
X48217Y16167D01*
X96967Y53200D02*
X97634Y52200D01*
Y53200D02*
X96967Y52200D01*
X97967D02*
X98300D01*
X98133D01*
Y53200D01*
X97967Y53033D01*
X21167Y38000D02*
Y37167D01*
X21334Y37000D01*
X21667D01*
X21833Y37167D01*
Y38000D01*
X22833Y37000D02*
X22167D01*
X22833Y37667D01*
Y37833D01*
X22666Y38000D01*
X22333D01*
X22167Y37833D01*
X74167Y18075D02*
Y17242D01*
X74334Y17075D01*
X74667D01*
X74833Y17242D01*
Y18075D01*
X75666Y17075D02*
Y18075D01*
X75167Y17575D01*
X75833D01*
X82417Y23700D02*
Y22867D01*
X82584Y22700D01*
X82917D01*
X83083Y22867D01*
Y23700D01*
X84083D02*
X83417D01*
Y23200D01*
X83750Y23366D01*
X83916D01*
X84083Y23200D01*
Y22867D01*
X83916Y22700D01*
X83583D01*
X83417Y22867D01*
X38600Y45590D02*
Y44757D01*
X38767Y44590D01*
X39100D01*
X39267Y44757D01*
Y45590D01*
X39600Y44590D02*
X39933D01*
X39767D01*
Y45590D01*
X39600Y45423D01*
X41634Y37200D02*
Y36367D01*
X41800Y36200D01*
X42134D01*
X42300Y36367D01*
Y37200D01*
X42634Y37033D02*
X42800Y37200D01*
X43133D01*
X43300Y37033D01*
Y36866D01*
X43133Y36700D01*
X42967D01*
X43133D01*
X43300Y36533D01*
Y36367D01*
X43133Y36200D01*
X42800D01*
X42634Y36367D01*
X72500Y42283D02*
X72333Y42450D01*
X72000D01*
X71834Y42283D01*
Y42116D01*
X72000Y41950D01*
X72333D01*
X72500Y41783D01*
Y41617D01*
X72333Y41450D01*
X72000D01*
X71834Y41617D01*
X72833Y41450D02*
X73166D01*
X73000D01*
Y42450D01*
X72833Y42283D01*
X72333Y33783D02*
X72167Y33950D01*
X71834D01*
X71667Y33783D01*
Y33616D01*
X71834Y33450D01*
X72167D01*
X72333Y33283D01*
Y33117D01*
X72167Y32950D01*
X71834D01*
X71667Y33117D01*
X73333Y32950D02*
X72667D01*
X73333Y33616D01*
Y33783D01*
X73166Y33950D01*
X72833D01*
X72667Y33783D01*
X70550Y13500D02*
Y14500D01*
X71050D01*
X71216Y14333D01*
Y14000D01*
X71050Y13833D01*
X70550D01*
X70883D02*
X71216Y13500D01*
X71550D02*
X71883D01*
X71716D01*
Y14500D01*
X71550Y14333D01*
X72383Y13500D02*
X72716D01*
X72549D01*
Y14500D01*
X72383Y14333D01*
X34500Y18675D02*
X33500D01*
Y19175D01*
X33667Y19341D01*
X34000D01*
X34167Y19175D01*
Y18675D01*
Y19008D02*
X34500Y19341D01*
Y19675D02*
Y20008D01*
Y19841D01*
X33500D01*
X33667Y19675D01*
Y20508D02*
X33500Y20674D01*
Y21008D01*
X33667Y21174D01*
X34333D01*
X34500Y21008D01*
Y20674D01*
X34333Y20508D01*
X33667D01*
X32500Y18675D02*
X31500D01*
Y19175D01*
X31667Y19341D01*
X32000D01*
X32167Y19175D01*
Y18675D01*
Y19008D02*
X32500Y19341D01*
X32333Y19675D02*
X32500Y19841D01*
Y20175D01*
X32333Y20341D01*
X31667D01*
X31500Y20175D01*
Y19841D01*
X31667Y19675D01*
X31833D01*
X32000Y19841D01*
Y20341D01*
X30500Y18675D02*
X29500D01*
Y19175D01*
X29667Y19341D01*
X30000D01*
X30167Y19175D01*
Y18675D01*
Y19008D02*
X30500Y19341D01*
X29667Y19675D02*
X29500Y19841D01*
Y20175D01*
X29667Y20341D01*
X29833D01*
X30000Y20175D01*
X30167Y20341D01*
X30333D01*
X30500Y20175D01*
Y19841D01*
X30333Y19675D01*
X30167D01*
X30000Y19841D01*
X29833Y19675D01*
X29667D01*
X30000Y19841D02*
Y20175D01*
X28500Y18675D02*
X27500D01*
Y19175D01*
X27667Y19341D01*
X28000D01*
X28167Y19175D01*
Y18675D01*
Y19008D02*
X28500Y19341D01*
X27500Y19675D02*
Y20341D01*
X27667D01*
X28333Y19675D01*
X28500D01*
X26500Y18675D02*
X25500D01*
Y19175D01*
X25667Y19341D01*
X26000D01*
X26167Y19175D01*
Y18675D01*
Y19008D02*
X26500Y19341D01*
X25500Y20341D02*
X25667Y20008D01*
X26000Y19675D01*
X26333D01*
X26500Y19841D01*
Y20175D01*
X26333Y20341D01*
X26167D01*
X26000Y20175D01*
Y19675D01*
X89834Y54000D02*
Y55000D01*
X90333D01*
X90500Y54833D01*
Y54500D01*
X90333Y54333D01*
X89834D01*
X90167D02*
X90500Y54000D01*
X90833D02*
X91166D01*
X91000D01*
Y55000D01*
X90833Y54833D01*
X87409Y38500D02*
Y39500D01*
X87909D01*
X88075Y39333D01*
Y39000D01*
X87909Y38833D01*
X87409D01*
X87742D02*
X88075Y38500D01*
X88908D02*
Y39500D01*
X88409Y39000D01*
X89075D01*
X84417Y47550D02*
Y48550D01*
X84917D01*
X85083Y48383D01*
Y48050D01*
X84917Y47883D01*
X84417D01*
X84750D02*
X85083Y47550D01*
X86083D02*
X85417D01*
X86083Y48216D01*
Y48383D01*
X85916Y48550D01*
X85583D01*
X85417Y48383D01*
X84417Y43450D02*
Y44450D01*
X84917D01*
X85083Y44283D01*
Y43950D01*
X84917Y43784D01*
X84417D01*
X84750D02*
X85083Y43450D01*
X85417Y44283D02*
X85583Y44450D01*
X85916D01*
X86083Y44283D01*
Y44117D01*
X85916Y43950D01*
X85750D01*
X85916D01*
X86083Y43784D01*
Y43617D01*
X85916Y43450D01*
X85583D01*
X85417Y43617D01*
X53300Y19500D02*
Y20500D01*
X53800D01*
X53966Y20333D01*
Y20000D01*
X53800Y19833D01*
X53300D01*
X53633D02*
X53966Y19500D01*
X54966Y20500D02*
X54300D01*
Y20000D01*
X54633Y20167D01*
X54800D01*
X54966Y20000D01*
Y19667D01*
X54800Y19500D01*
X54466D01*
X54300Y19667D01*
X96150Y10500D02*
Y9500D01*
X96816D01*
X97150D02*
X97483D01*
X97316D01*
Y10500D01*
X97150Y10333D01*
X13550Y34667D02*
X14550D01*
X14050D01*
Y35333D01*
X13550D01*
X14550D01*
X13550Y35667D02*
Y36333D01*
X13717D01*
X14383Y35667D01*
X14550D01*
X13550Y45667D02*
X14550D01*
X14050D01*
Y46333D01*
X13550D01*
X14550D01*
X13550Y47333D02*
Y46667D01*
X14050D01*
X13884Y47000D01*
Y47166D01*
X14050Y47333D01*
X14383D01*
X14550Y47166D01*
Y46833D01*
X14383Y46667D01*
X1450Y34667D02*
X2450D01*
X1950D01*
Y35333D01*
X1450D01*
X2450D01*
X1450Y36333D02*
X1617Y36000D01*
X1950Y35667D01*
X2283D01*
X2450Y35833D01*
Y36166D01*
X2283Y36333D01*
X2116D01*
X1950Y36166D01*
Y35667D01*
X1450Y45667D02*
X2450D01*
X1950D01*
Y46333D01*
X1450D01*
X2450D01*
Y47166D02*
X1450D01*
X1950Y46667D01*
Y47333D01*
X75667Y63050D02*
Y62050D01*
Y62550D01*
X76333D01*
Y63050D01*
Y62050D01*
X76667Y62883D02*
X76833Y63050D01*
X77166D01*
X77333Y62883D01*
Y62717D01*
X77166Y62550D01*
X77000D01*
X77166D01*
X77333Y62384D01*
Y62217D01*
X77166Y62050D01*
X76833D01*
X76667Y62217D01*
X48667Y63050D02*
Y62050D01*
Y62550D01*
X49333D01*
Y63050D01*
Y62050D01*
X50333D02*
X49667D01*
X50333Y62717D01*
Y62883D01*
X50166Y63050D01*
X49833D01*
X49667Y62883D01*
X21834Y63050D02*
Y62050D01*
Y62550D01*
X22500D01*
Y63050D01*
Y62050D01*
X22833D02*
X23166D01*
X23000D01*
Y63050D01*
X22833Y62883D01*
X1450Y11917D02*
X2450D01*
X1950D01*
Y12583D01*
X1450D01*
X2450D01*
Y12917D02*
Y13250D01*
Y13083D01*
X1450D01*
X1617Y12917D01*
X2450Y13750D02*
Y14083D01*
Y13916D01*
X1450D01*
X1617Y13750D01*
X63750Y2450D02*
Y1450D01*
Y1950D01*
X64417D01*
Y2450D01*
Y1450D01*
X64750D02*
X65083D01*
X64917D01*
Y2450D01*
X64750Y2283D01*
X66250Y2450D02*
X65583D01*
Y1950D01*
X65916Y2116D01*
X66083D01*
X66250Y1950D01*
Y1617D01*
X66083Y1450D01*
X65750D01*
X65583Y1617D01*
X14750Y2450D02*
Y1450D01*
Y1950D01*
X15417D01*
Y2450D01*
Y1450D01*
X15750D02*
X16083D01*
X15917D01*
Y2450D01*
X15750Y2283D01*
X16583D02*
X16750Y2450D01*
X17083D01*
X17250Y2283D01*
Y2116D01*
X17083Y1950D01*
X16916D01*
X17083D01*
X17250Y1783D01*
Y1617D01*
X17083Y1450D01*
X16750D01*
X16583Y1617D01*
X28750Y2450D02*
Y1450D01*
Y1950D01*
X29417D01*
Y2450D01*
Y1450D01*
X29750D02*
X30083D01*
X29917D01*
Y2450D01*
X29750Y2283D01*
X31083Y1450D02*
Y2450D01*
X30583Y1950D01*
X31250D01*
X96800Y30667D02*
X97800D01*
X97300D01*
Y31333D01*
X96800D01*
X97800D01*
X96967Y31667D02*
X96800Y31833D01*
Y32166D01*
X96967Y32333D01*
X97134D01*
X97300Y32166D01*
X97467Y32333D01*
X97633D01*
X97800Y32166D01*
Y31833D01*
X97633Y31667D01*
X97467D01*
X97300Y31833D01*
X97134Y31667D01*
X96967D01*
X97300Y31833D02*
Y32166D01*
X96800Y16750D02*
X97800D01*
X97300D01*
Y17417D01*
X96800D01*
X97800D01*
Y17750D02*
Y18083D01*
Y17917D01*
X96800D01*
X96967Y17750D01*
Y18583D02*
X96800Y18750D01*
Y19083D01*
X96967Y19250D01*
X97633D01*
X97800Y19083D01*
Y18750D01*
X97633Y18583D01*
X96967D01*
X64734Y15250D02*
Y14250D01*
X65234D01*
X65400Y14417D01*
Y15083D01*
X65234Y15250D01*
X64734D01*
X66400D02*
X66067Y15083D01*
X65734Y14750D01*
Y14417D01*
X65900Y14250D01*
X66233D01*
X66400Y14417D01*
Y14583D01*
X66233Y14750D01*
X65734D01*
X33500Y10684D02*
X34500D01*
Y11184D01*
X34333Y11350D01*
X33667D01*
X33500Y11184D01*
Y10684D01*
Y12350D02*
Y11683D01*
X34000D01*
X33833Y12017D01*
Y12183D01*
X34000Y12350D01*
X34333D01*
X34500Y12183D01*
Y11850D01*
X34333Y11683D01*
X31500Y10684D02*
X32500D01*
Y11184D01*
X32333Y11350D01*
X31667D01*
X31500Y11184D01*
Y10684D01*
X32500Y12183D02*
X31500D01*
X32000Y11683D01*
Y12350D01*
X29500Y10684D02*
X30500D01*
Y11184D01*
X30333Y11350D01*
X29667D01*
X29500Y11184D01*
Y10684D01*
X29667Y11683D02*
X29500Y11850D01*
Y12183D01*
X29667Y12350D01*
X29833D01*
X30000Y12183D01*
Y12017D01*
Y12183D01*
X30167Y12350D01*
X30333D01*
X30500Y12183D01*
Y11850D01*
X30333Y11683D01*
X27500Y10684D02*
X28500D01*
Y11184D01*
X28333Y11350D01*
X27667D01*
X27500Y11184D01*
Y10684D01*
X28500Y12350D02*
Y11683D01*
X27833Y12350D01*
X27667D01*
X27500Y12183D01*
Y11850D01*
X27667Y11683D01*
X25500Y11017D02*
X26500D01*
Y11517D01*
X26333Y11683D01*
X25667D01*
X25500Y11517D01*
Y11017D01*
X26500Y12017D02*
Y12350D01*
Y12183D01*
X25500D01*
X25667Y12017D01*
X24583Y46383D02*
X24417Y46550D01*
X24084D01*
X23917Y46383D01*
Y45717D01*
X24084Y45550D01*
X24417D01*
X24583Y45717D01*
X24917Y46383D02*
X25083Y46550D01*
X25416D01*
X25583Y46383D01*
Y46216D01*
X25416Y46050D01*
X25250D01*
X25416D01*
X25583Y45883D01*
Y45717D01*
X25416Y45550D01*
X25083D01*
X24917Y45717D01*
X19083Y46383D02*
X18917Y46550D01*
X18584D01*
X18417Y46383D01*
Y45717D01*
X18584Y45550D01*
X18917D01*
X19083Y45717D01*
X20083Y45550D02*
X19417D01*
X20083Y46216D01*
Y46383D01*
X19916Y46550D01*
X19583D01*
X19417Y46383D01*
X70075Y25083D02*
X69909Y25250D01*
X69575D01*
X69409Y25083D01*
Y24417D01*
X69575Y24250D01*
X69909D01*
X70075Y24417D01*
X70908Y24250D02*
Y25250D01*
X70409Y24750D01*
X71075D01*
X79591Y25083D02*
X79425Y25250D01*
X79092D01*
X78925Y25083D01*
Y24417D01*
X79092Y24250D01*
X79425D01*
X79591Y24417D01*
X80591Y25250D02*
X79925D01*
Y24750D01*
X80258Y24917D01*
X80425D01*
X80591Y24750D01*
Y24417D01*
X80425Y24250D01*
X80091D01*
X79925Y24417D01*
X48341Y45833D02*
X48175Y46000D01*
X47842D01*
X47675Y45833D01*
Y45167D01*
X47842Y45000D01*
X48175D01*
X48341Y45167D01*
X48675Y45000D02*
X49008D01*
X48841D01*
Y46000D01*
X48675Y45833D01*
X52167Y14825D02*
X52000Y14659D01*
Y14325D01*
X52167Y14159D01*
X52833D01*
X53000Y14325D01*
Y14659D01*
X52833Y14825D01*
X52000Y15159D02*
Y15825D01*
X52167D01*
X52833Y15159D01*
X53000D01*
X46667Y17075D02*
X46500Y16909D01*
Y16575D01*
X46667Y16409D01*
X47333D01*
X47500Y16575D01*
Y16909D01*
X47333Y17075D01*
X46500Y18075D02*
X46667Y17742D01*
X47000Y17409D01*
X47333D01*
X47500Y17575D01*
Y17908D01*
X47333Y18075D01*
X47167D01*
X47000Y17908D01*
Y17409D01*
D41*
X47950Y20150D02*
G03*
X47850Y20150I-50J0D01*
G01*
D02*
G03*
X47950Y20150I50J0D01*
G01*
X28298Y13632D02*
X28498D01*
Y13832D01*
X28308Y13822D02*
X28498Y13632D01*
X28000Y13776D02*
X28508Y14284D01*
X27492D02*
X28000Y13776D01*
X26298Y13632D02*
X26498D01*
Y13832D01*
X26308Y13822D02*
X26498Y13632D01*
X26000Y13776D02*
X26508Y14284D01*
X25492D02*
X26000Y13776D01*
X44250Y34500D02*
Y35250D01*
X45000D01*
X44250Y24750D02*
X45000D01*
X44250D02*
Y25500D01*
X54750Y24750D02*
Y25500D01*
X54000Y24750D02*
X54750D01*
X54000Y35250D02*
X54750D01*
Y34500D02*
Y35250D01*
X89250Y43125D02*
Y43625D01*
X67798Y13632D02*
X67998D01*
Y13832D01*
X67808Y13822D02*
X67998Y13632D01*
X67500Y13776D02*
X68008Y14284D01*
X66992D02*
X67500Y13776D01*
X30298Y13632D02*
X30498D01*
Y13832D01*
X30308Y13822D02*
X30498Y13632D01*
X30000Y13776D02*
X30508Y14284D01*
X29492D02*
X30000Y13776D01*
X32298Y13632D02*
X32498D01*
Y13832D01*
X32308Y13822D02*
X32498Y13632D01*
X32000Y13776D02*
X32508Y14284D01*
X31492D02*
X32000Y13776D01*
X34298Y13632D02*
X34498D01*
Y13832D01*
X34308Y13822D02*
X34498Y13632D01*
X34000Y13776D02*
X34508Y14284D01*
X33492D02*
X34000Y13776D01*
D42*
X43850Y35750D02*
G03*
X43850Y35750I-100J0D01*
G01*
X78201Y9600D02*
Y10800D01*
X78801D01*
X79001Y10600D01*
Y10200D01*
X78801Y10000D01*
X78201D01*
X80000Y10800D02*
X79600D01*
X79401Y10600D01*
Y9800D01*
X79600Y9600D01*
X80000D01*
X80200Y9800D01*
Y10600D01*
X80000Y10800D01*
X80600D02*
Y9600D01*
X81000Y10000D01*
X81400Y9600D01*
Y10800D01*
X82599D02*
X81800D01*
Y9600D01*
X82599D01*
X81800Y10200D02*
X82200D01*
X82999Y9600D02*
Y10800D01*
X83599D01*
X83799Y10600D01*
Y10200D01*
X83599Y10000D01*
X82999D01*
X83399D02*
X83799Y9600D01*
X68100Y15750D02*
X66900D01*
Y16350D01*
X67100Y16550D01*
X67500D01*
X67700Y16350D01*
Y15750D01*
X66900Y16950D02*
X68100D01*
X67700Y17349D01*
X68100Y17749D01*
X66900D01*
X68100Y18149D02*
X66900D01*
Y18749D01*
X67100Y18949D01*
X67500D01*
X67700Y18749D01*
Y18149D01*
Y18549D02*
X68100Y18949D01*
X8090Y20551D02*
X9290D01*
Y21351D01*
X8090Y21750D02*
Y22150D01*
Y21950D01*
X9290D01*
Y21750D01*
Y22150D01*
X8290Y23550D02*
X8090Y23350D01*
Y22950D01*
X8290Y22750D01*
X9090D01*
X9290Y22950D01*
Y23350D01*
X9090Y23550D01*
X8690D01*
Y23150D01*
X8090Y23950D02*
X9290D01*
X8690D01*
Y24750D01*
X8090D01*
X9290D01*
X8090Y25149D02*
Y25949D01*
Y25549D01*
X9290D01*
X89910Y28901D02*
X89710Y28701D01*
Y28301D01*
X89910Y28101D01*
X90110D01*
X90310Y28301D01*
Y28701D01*
X90510Y28901D01*
X90710D01*
X90910Y28701D01*
Y28301D01*
X90710Y28101D01*
X89710Y30100D02*
Y29301D01*
X90910D01*
Y30100D01*
X90310Y29301D02*
Y29701D01*
X90910Y30500D02*
X89710D01*
X90910Y31300D01*
X89710D01*
X89910Y32500D02*
X89710Y32300D01*
Y31900D01*
X89910Y31700D01*
X90110D01*
X90310Y31900D01*
Y32300D01*
X90510Y32500D01*
X90710D01*
X90910Y32300D01*
Y31900D01*
X90710Y31700D01*
X89710Y33499D02*
Y33099D01*
X89910Y32900D01*
X90710D01*
X90910Y33099D01*
Y33499D01*
X90710Y33699D01*
X89910D01*
X89710Y33499D01*
X90910Y34099D02*
X89710D01*
Y34699D01*
X89910Y34899D01*
X90310D01*
X90510Y34699D01*
Y34099D01*
Y34499D02*
X90910Y34899D01*
X89710Y13441D02*
X90910D01*
Y14041D01*
X90710Y14241D01*
X90510D01*
X90310Y14041D01*
Y13441D01*
Y14041D01*
X90110Y14241D01*
X89910D01*
X89710Y14041D01*
Y13441D01*
X90910Y14641D02*
X90110D01*
X89710Y15041D01*
X90110Y15441D01*
X90910D01*
X90310D01*
Y14641D01*
X89710Y15841D02*
Y16640D01*
Y16241D01*
X90910D01*
X89710Y17040D02*
Y17840D01*
Y17440D01*
X90910D01*
Y19440D02*
X89710D01*
X90110Y19839D01*
X89710Y20239D01*
X90910D01*
X89710Y21239D02*
Y20839D01*
X89910Y20639D01*
X90710D01*
X90910Y20839D01*
Y21239D01*
X90710Y21439D01*
X89910D01*
X89710Y21239D01*
X90910Y21839D02*
X89710D01*
X90910Y22639D01*
X89710D01*
X62201Y8090D02*
Y9290D01*
X62801D01*
X63001Y9090D01*
Y8690D01*
X62801Y8490D01*
X62201D01*
X62601D02*
X63001Y8090D01*
X64200Y9290D02*
X63401D01*
Y8090D01*
X64200D01*
X63401Y8690D02*
X63800D01*
X64600Y9290D02*
Y8090D01*
X65400D01*
X65800D02*
Y8890D01*
X66200Y9290D01*
X66599Y8890D01*
Y8090D01*
Y8690D01*
X65800D01*
X66999Y9290D02*
Y9090D01*
X67399Y8690D01*
X67799Y9090D01*
Y9290D01*
X67399Y8690D02*
Y8090D01*
X42152D02*
Y8890D01*
X42751D01*
X42951Y8690D01*
Y8090D01*
X43351D02*
Y9290D01*
X43951D01*
X44151Y9090D01*
Y8690D01*
X43951Y8490D01*
X43351D01*
X43751D02*
X44151Y8090D01*
X45351Y9290D02*
X44551D01*
Y8690D01*
X44951D01*
X44551D01*
Y8090D01*
X46550D02*
X45750D01*
X46550Y8890D01*
Y9090D01*
X46350Y9290D01*
X45950D01*
X45750Y9090D01*
X47550Y8090D02*
Y9290D01*
X46950Y8690D01*
X47750D01*
X48150Y9290D02*
Y8090D01*
X48949D01*
X49349Y9090D02*
X49549Y9290D01*
X49949D01*
X50149Y9090D01*
Y8290D01*
X49949Y8090D01*
X49549D01*
X49349Y8290D01*
Y9090D01*
X50549Y8090D02*
X50949D01*
X50749D01*
Y9290D01*
X50549Y9090D01*
X51549Y8090D02*
Y9290D01*
X52148D01*
X52348Y9090D01*
Y8690D01*
X52148Y8490D01*
X51549D01*
X28600Y8090D02*
Y9290D01*
X29200D01*
X29400Y9090D01*
Y8690D01*
X29200Y8490D01*
X28600D01*
X29000D02*
X29400Y8090D01*
X29800D02*
Y9290D01*
X30400D01*
X30600Y9090D01*
Y8690D01*
X30400Y8490D01*
X29800D01*
X31000Y9290D02*
X31400D01*
X31200D01*
Y8090D01*
X31000D01*
X31400D01*
X14001Y9290D02*
X13201D01*
Y8090D01*
X14001D01*
X13201Y8690D02*
X13601D01*
X15200Y9090D02*
X15000Y9290D01*
X14600D01*
X14401Y9090D01*
Y8890D01*
X14600Y8690D01*
X15000D01*
X15200Y8490D01*
Y8290D01*
X15000Y8090D01*
X14600D01*
X14401Y8290D01*
X15600Y8090D02*
Y9290D01*
X16200D01*
X16400Y9090D01*
Y8690D01*
X16200Y8490D01*
X15600D01*
X16800Y9090D02*
X17000Y9290D01*
X17400D01*
X17599Y9090D01*
Y8890D01*
X17400Y8690D01*
X17200D01*
X17400D01*
X17599Y8490D01*
Y8290D01*
X17400Y8090D01*
X17000D01*
X16800Y8290D01*
X18799Y8090D02*
X17999D01*
X18799Y8890D01*
Y9090D01*
X18599Y9290D01*
X18199D01*
X17999Y9090D01*
X8100Y9601D02*
X9300D01*
Y10201D01*
X9100Y10401D01*
X8900D01*
X8700Y10201D01*
Y9601D01*
Y10201D01*
X8500Y10401D01*
X8300D01*
X8100Y10201D01*
Y9601D01*
Y10801D02*
X9100D01*
X9300Y11001D01*
Y11401D01*
X9100Y11600D01*
X8100D01*
Y12000D02*
Y12800D01*
X8300D01*
X9100Y12000D01*
X9300D01*
Y12800D01*
X8100Y13200D02*
Y14000D01*
X8300D01*
X9100Y13200D01*
X9300D01*
Y14000D01*
X8100Y15199D02*
Y14400D01*
X9300D01*
Y15199D01*
X8700Y14400D02*
Y14799D01*
X9300Y15599D02*
X8100D01*
Y16199D01*
X8300Y16399D01*
X8700D01*
X8900Y16199D01*
Y15599D01*
Y15999D02*
X9300Y16399D01*
X63801Y38600D02*
Y37400D01*
X64401D01*
X64601Y37600D01*
Y37800D01*
X64401Y38000D01*
X63801D01*
X64401D01*
X64601Y38200D01*
Y38400D01*
X64401Y38600D01*
X63801D01*
X65601D02*
X65201D01*
X65001Y38400D01*
Y37600D01*
X65201Y37400D01*
X65601D01*
X65801Y37600D01*
Y38400D01*
X65601Y38600D01*
X66800D02*
X66401D01*
X66201Y38400D01*
Y37600D01*
X66401Y37400D01*
X66800D01*
X67000Y37600D01*
Y38400D01*
X66800Y38600D01*
X67400D02*
X68200D01*
X67800D01*
Y37400D01*
X62602Y28900D02*
Y30100D01*
X63202D01*
X63402Y29900D01*
Y29500D01*
X63202Y29300D01*
X62602D01*
X63002D02*
X63402Y28900D01*
X64601Y30100D02*
X63801D01*
Y28900D01*
X64601D01*
X63801Y29500D02*
X64201D01*
X65801Y29900D02*
X65601Y30100D01*
X65201D01*
X65001Y29900D01*
Y29700D01*
X65201Y29500D01*
X65601D01*
X65801Y29300D01*
Y29100D01*
X65601Y28900D01*
X65201D01*
X65001Y29100D01*
X67000Y30100D02*
X66201D01*
Y28900D01*
X67000D01*
X66201Y29500D02*
X66601D01*
X67400Y30100D02*
X68200D01*
X67800D01*
Y28900D01*
X72501Y51000D02*
Y52200D01*
X72901Y51800D01*
X73301Y52200D01*
Y51000D01*
X74501Y52200D02*
X73701D01*
Y51600D01*
X74101Y51800D01*
X74301D01*
X74501Y51600D01*
Y51200D01*
X74301Y51000D01*
X73901D01*
X73701Y51200D01*
X76100Y51600D02*
X76900D01*
X78499Y51000D02*
Y52200D01*
X78899Y51800D01*
X79299Y52200D01*
Y51000D01*
X80499Y52200D02*
X80099Y52000D01*
X79699Y51600D01*
Y51200D01*
X79899Y51000D01*
X80299D01*
X80499Y51200D01*
Y51400D01*
X80299Y51600D01*
X79699D01*
X45101Y51000D02*
Y52200D01*
X45501Y51800D01*
X45901Y52200D01*
Y51000D01*
X46301Y52000D02*
X46501Y52200D01*
X46901D01*
X47101Y52000D01*
Y51800D01*
X46901Y51600D01*
X46701D01*
X46901D01*
X47101Y51400D01*
Y51200D01*
X46901Y51000D01*
X46501D01*
X46301Y51200D01*
X48700Y51600D02*
X49500D01*
X51099Y51000D02*
Y52200D01*
X51499Y51800D01*
X51899Y52200D01*
Y51000D01*
X52899D02*
Y52200D01*
X52299Y51600D01*
X53099D01*
X18601Y51000D02*
Y52200D01*
X19001Y51800D01*
X19401Y52200D01*
Y51000D01*
X19801D02*
X20201D01*
X20001D01*
Y52200D01*
X19801Y52000D01*
X22000Y51600D02*
X22800D01*
X24399Y51000D02*
Y52200D01*
X24799Y51800D01*
X25199Y52200D01*
Y51000D01*
X26399D02*
X25599D01*
X26399Y51800D01*
Y52000D01*
X26199Y52200D01*
X25799D01*
X25599Y52000D01*
X990Y31465D02*
X1190Y31665D01*
X1590D01*
X1790Y31465D01*
Y31265D01*
X1590Y31065D01*
X1390D01*
X1590D01*
X1790Y30865D01*
Y30665D01*
X1590Y30465D01*
X1190D01*
X990Y30665D01*
X14810Y30465D02*
Y31665D01*
X14210Y31065D01*
X15010D01*
Y50335D02*
X14210D01*
X15010Y51135D01*
Y51335D01*
X14810Y51535D01*
X14410D01*
X14210Y51335D01*
X990Y50335D02*
X1390D01*
X1190D01*
Y51535D01*
X990Y51335D01*
X5401Y53300D02*
X5201Y53500D01*
X4801D01*
X4601Y53300D01*
Y53100D01*
X4801Y52900D01*
X5201D01*
X5401Y52700D01*
Y52500D01*
X5201Y52300D01*
X4801D01*
X4601Y52500D01*
X6600Y53500D02*
X5801D01*
Y52300D01*
X6600D01*
X5801Y52900D02*
X6201D01*
X7000Y52300D02*
Y53500D01*
X7600D01*
X7800Y53300D01*
Y52900D01*
X7600Y52700D01*
X7000D01*
X7400D02*
X7800Y52300D01*
X8200Y53500D02*
Y52700D01*
X8600Y52300D01*
X9000Y52700D01*
Y53500D01*
X9999D02*
X9599D01*
X9400Y53300D01*
Y52500D01*
X9599Y52300D01*
X9999D01*
X10199Y52500D01*
Y53300D01*
X9999Y53500D01*
X11399Y53300D02*
X11199Y53500D01*
X10799D01*
X10599Y53300D01*
Y53100D01*
X10799Y52900D01*
X11199D01*
X11399Y52700D01*
Y52500D01*
X11199Y52300D01*
X10799D01*
X10599Y52500D01*
D43*
X15500Y24500D02*
X19500D01*
X15500Y27500D02*
X19500D01*
Y24500D02*
Y27500D01*
X15500Y24500D02*
Y27500D01*
X13251Y21010D02*
Y22509D01*
X14001D01*
X14251Y22259D01*
Y21759D01*
X14001Y21510D01*
X13251D01*
X13751D02*
X14251Y21010D01*
X14751D02*
Y22509D01*
X15501D01*
X15751Y22259D01*
Y21759D01*
X15501Y21510D01*
X14751D01*
X17250Y21010D02*
X16250D01*
X17250Y22009D01*
Y22259D01*
X17000Y22509D01*
X16500D01*
X16250Y22259D01*
X17750D02*
X18000Y22509D01*
X18500D01*
X18750Y22259D01*
Y22009D01*
X18500Y21759D01*
X18250D01*
X18500D01*
X18750Y21510D01*
Y21260D01*
X18500Y21010D01*
X18000D01*
X17750Y21260D01*
X20249Y22509D02*
X19249D01*
Y21759D01*
X19749Y22009D01*
X19999D01*
X20249Y21759D01*
Y21260D01*
X19999Y21010D01*
X19499D01*
X19249Y21260D01*
X20749Y22259D02*
X20999Y22509D01*
X21499D01*
X21749Y22259D01*
Y21260D01*
X21499Y21010D01*
X20999D01*
X20749Y21260D01*
Y22259D01*
X13876Y19500D02*
X13626Y19750D01*
X13126D01*
X12877Y19500D01*
Y18500D01*
X13126Y18250D01*
X13626D01*
X13876Y18500D01*
X14626Y18250D02*
X15126D01*
X15376Y18500D01*
Y19000D01*
X15126Y19250D01*
X14626D01*
X14376Y19000D01*
Y18500D01*
X14626Y18250D01*
X15876D02*
Y19250D01*
X16625D01*
X16875Y19000D01*
Y18250D01*
X17625Y19500D02*
Y19250D01*
X17375D01*
X17875D01*
X17625D01*
Y18500D01*
X17875Y18250D01*
X18625Y19250D02*
Y18250D01*
Y18750D01*
X18875Y19000D01*
X19124Y19250D01*
X19374D01*
X20374Y18250D02*
X20874D01*
X21124Y18500D01*
Y19000D01*
X20874Y19250D01*
X20374D01*
X20124Y19000D01*
Y18500D01*
X20374Y18250D01*
X21624D02*
X22124D01*
X21874D01*
Y19750D01*
X21624D01*
X14001Y16990D02*
Y15491D01*
X14751D01*
X15001Y15741D01*
Y15991D01*
X14751Y16241D01*
X14001D01*
X14751D01*
X15001Y16490D01*
Y16740D01*
X14751Y16990D01*
X14001D01*
X15751Y15491D02*
X16250D01*
X16500Y15741D01*
Y16241D01*
X16250Y16490D01*
X15751D01*
X15501Y16241D01*
Y15741D01*
X15751Y15491D01*
X17250Y16490D02*
X17750D01*
X18000Y16241D01*
Y15491D01*
X17250D01*
X17000Y15741D01*
X17250Y15991D01*
X18000D01*
X18500Y16490D02*
Y15491D01*
Y15991D01*
X18750Y16241D01*
X19000Y16490D01*
X19249D01*
X20999Y16990D02*
Y15491D01*
X20249D01*
X19999Y15741D01*
Y16241D01*
X20249Y16490D01*
X20999D01*
X16500Y26750D02*
Y25750D01*
X17000Y25250D01*
X17500Y25750D01*
Y26750D01*
X18000Y25250D02*
X18500D01*
X18250D01*
Y26750D01*
X18000Y26500D01*
D44*
X30250Y38210D02*
Y45790D01*
X27750Y38210D02*
X30250D01*
X27750Y45790D02*
X30250D01*
X27750Y38210D02*
Y45790D01*
X38355Y2460D02*
Y3960D01*
Y2460D02*
X39855D01*
X38360Y7540D02*
X39860D01*
X38360Y6040D02*
Y7540D01*
X56140Y6040D02*
Y7540D01*
X54640D02*
X56140D01*
X54645Y2460D02*
X56145D01*
Y3960D01*
X936Y25795D02*
X1936D01*
X936Y24795D02*
Y25795D01*
X2460Y28330D02*
X3460D01*
X2460Y27330D02*
Y28330D01*
X7540Y27335D02*
Y28335D01*
X6540D02*
X7540D01*
X936Y20705D02*
Y21705D01*
Y20705D02*
X1936D01*
X2460Y18170D02*
Y19170D01*
Y18170D02*
X3460D01*
X6540D02*
X7540D01*
Y19170D01*
X70500Y26500D02*
X74500D01*
X69500Y28750D02*
Y30250D01*
X70500Y32495D02*
X74500D01*
X75500Y28750D02*
Y30250D01*
X70500Y41000D02*
X74500D01*
X75500Y37250D02*
Y38750D01*
X70500Y35005D02*
X74500D01*
X69500Y37250D02*
Y38750D01*
X97064Y28955D02*
X98064D01*
Y29955D01*
X95540Y26420D02*
X96540D01*
Y27420D01*
X91460Y26415D02*
Y27415D01*
Y26415D02*
X92460D01*
X98064Y33045D02*
Y34045D01*
X97064D02*
X98064D01*
X96540Y35580D02*
Y36580D01*
X95540D02*
X96540D01*
X91460D02*
X92460D01*
X91460Y35580D02*
Y36580D01*
X97064Y15455D02*
X98064D01*
Y16455D01*
X95540Y12920D02*
X96540D01*
Y13920D01*
X91460Y12915D02*
Y13915D01*
Y12915D02*
X92460D01*
X98064Y19545D02*
Y20545D01*
X97064D02*
X98064D01*
X96540Y22080D02*
Y23080D01*
X95540D02*
X96540D01*
X91460D02*
X92460D01*
X91460Y22080D02*
Y23080D01*
X13455Y936D02*
Y1936D01*
Y936D02*
X14455D01*
X10920Y2460D02*
Y3460D01*
Y2460D02*
X11920D01*
X10915Y7540D02*
X11915D01*
X10915Y6540D02*
Y7540D01*
X17545Y936D02*
X18545D01*
Y1936D01*
X20080Y2460D02*
X21080D01*
Y3460D01*
Y6540D02*
Y7540D01*
X20080D02*
X21080D01*
X27455Y936D02*
Y1936D01*
Y936D02*
X28455D01*
X24920Y2460D02*
Y3460D01*
Y2460D02*
X25920D01*
X24915Y7540D02*
X25915D01*
X24915Y6540D02*
Y7540D01*
X31545Y936D02*
X32545D01*
Y1936D01*
X34080Y2460D02*
X35080D01*
Y3460D01*
Y6540D02*
Y7540D01*
X34080D02*
X35080D01*
X62455Y936D02*
Y1936D01*
Y936D02*
X63455D01*
X59920Y2460D02*
Y3460D01*
Y2460D02*
X60920D01*
X59915Y7540D02*
X60915D01*
X59915Y6540D02*
Y7540D01*
X66545Y936D02*
X67545D01*
Y1936D01*
X69080Y2460D02*
X70080D01*
Y3460D01*
Y6540D02*
Y7540D01*
X69080D02*
X70080D01*
X2460Y16810D02*
X3460D01*
X2460Y15810D02*
Y16810D01*
X7540Y15810D02*
Y16810D01*
X6540D02*
X7540D01*
Y9190D02*
Y10190D01*
X6540Y9190D02*
X7540D01*
X2460D02*
X3460D01*
X2460D02*
Y10190D01*
X20250Y61520D02*
Y62520D01*
Y61520D02*
X24750D01*
Y62520D01*
X31150Y53480D02*
X32650D01*
Y54980D01*
X12350Y62520D02*
X13850D01*
X12350Y61020D02*
Y62520D01*
Y53480D02*
X13850D01*
X12350D02*
Y54980D01*
X31150Y62520D02*
X32650D01*
Y61020D02*
Y62520D01*
X47250Y61520D02*
Y62520D01*
Y61520D02*
X51750D01*
Y62520D01*
X58150Y53480D02*
X59650D01*
Y54980D01*
X39350Y62520D02*
X40850D01*
X39350Y61020D02*
Y62520D01*
Y53480D02*
X40850D01*
X39350D02*
Y54980D01*
X58150Y62520D02*
X59650D01*
Y61020D02*
Y62520D01*
X74250Y61520D02*
Y62520D01*
Y61520D02*
X78750D01*
Y62520D01*
X85150Y53480D02*
X86650D01*
Y54980D01*
X66350Y62520D02*
X67850D01*
X66350Y61020D02*
Y62520D01*
Y53480D02*
X67850D01*
X66350D02*
Y54980D01*
X85150Y62520D02*
X86650D01*
Y61020D02*
Y62520D01*
X936Y38045D02*
X1936D01*
X936Y37045D02*
Y38045D01*
X2460Y40580D02*
X3460D01*
X2460Y39580D02*
Y40580D01*
X7540Y39585D02*
Y40585D01*
X6540D02*
X7540D01*
X936Y32955D02*
Y33955D01*
Y32955D02*
X1936D01*
X2460Y30420D02*
Y31420D01*
Y30420D02*
X3460D01*
X6540D02*
X7540D01*
Y31420D01*
X936Y49045D02*
X1936D01*
X936Y48045D02*
Y49045D01*
X2460Y51580D02*
X3460D01*
X2460Y50580D02*
Y51580D01*
X7540Y50585D02*
Y51585D01*
X6540D02*
X7540D01*
X936Y43955D02*
Y44955D01*
Y43955D02*
X1936D01*
X2460Y41420D02*
Y42420D01*
Y41420D02*
X3460D01*
X6540D02*
X7540D01*
Y42420D01*
X14064Y32955D02*
X15064D01*
Y33955D01*
X12540Y30420D02*
X13540D01*
Y31420D01*
X8460Y30415D02*
Y31415D01*
Y30415D02*
X9460D01*
X15064Y37045D02*
Y38045D01*
X14064D02*
X15064D01*
X13540Y39580D02*
Y40580D01*
X12540D02*
X13540D01*
X8460D02*
X9460D01*
X8460Y39580D02*
Y40580D01*
X14064Y43955D02*
X15064D01*
Y44955D01*
X12540Y41420D02*
X13540D01*
Y42420D01*
X8460Y41415D02*
Y42415D01*
Y41415D02*
X9460D01*
X15064Y48045D02*
Y49045D01*
X14064D02*
X15064D01*
X13540Y50580D02*
Y51580D01*
X12540D02*
X13540D01*
X8460D02*
X9460D01*
X8460Y50580D02*
Y51580D01*
%TF.MD5,f8d37c8b2727c5d476c9b11ff7b6d3e5*%
M02*
