%TF.GenerationSoftware,Altium Limited,Altium Designer,25.2.1 (25)*%
G04 Layer_Color=2752767*
%FSLAX43Y43*%
%MOMM*%
%TF.SameCoordinates,C3C72CCD-19DF-4086-A731-6AB0B0A2BFE7*%
%TF.FilePolarity,Positive*%
%TF.FileFunction,Drawing*%
%TF.Part,Single*%
G01*
G75*
%TA.AperFunction,NonConductor*%
%ADD73C,0.127*%
%ADD87C,0.169*%
%ADD88C,0.102*%
D73*
X75412Y5000D02*
X75920Y5508D01*
X76428Y5000D01*
X75920Y4492D01*
X75412Y5000D01*
X80492D02*
X81000Y5508D01*
X81508Y5000D01*
X81000Y4492D01*
X80492Y5000D01*
X85572D02*
X86080Y5508D01*
X86588Y5000D01*
X86080Y4492D01*
X85572Y5000D01*
X29000Y41492D02*
X29254Y41746D01*
X29508D01*
X29254Y42000D01*
X29508Y42254D01*
X29254D01*
X29000Y42508D01*
X28746Y42254D01*
X28492D01*
X28746Y42000D01*
X28492Y41746D01*
X28746D01*
X29000Y41492D01*
Y41695D02*
X29152Y41848D01*
X29305D01*
X29152Y42000D01*
X29305Y42152D01*
X29152D01*
X29000Y42305D01*
X28848Y42152D01*
X28695D01*
X28848Y42000D01*
X28695Y41848D01*
X28848D01*
X29000Y41695D01*
Y44032D02*
X29254Y44286D01*
X29508D01*
X29254Y44540D01*
X29508Y44794D01*
X29254D01*
X29000Y45048D01*
X28746Y44794D01*
X28492D01*
X28746Y44540D01*
X28492Y44286D01*
X28746D01*
X29000Y44032D01*
Y44235D02*
X29152Y44388D01*
X29305D01*
X29152Y44540D01*
X29305Y44692D01*
X29152D01*
X29000Y44845D01*
X28848Y44692D01*
X28695D01*
X28848Y44540D01*
X28695Y44388D01*
X28848D01*
X29000Y44235D01*
Y38952D02*
X29254Y39206D01*
X29508D01*
X29254Y39460D01*
X29508Y39714D01*
X29254D01*
X29000Y39968D01*
X28746Y39714D01*
X28492D01*
X28746Y39460D01*
X28492Y39206D01*
X28746D01*
X29000Y38952D01*
Y39155D02*
X29152Y39308D01*
X29305D01*
X29152Y39460D01*
X29305Y39612D01*
X29152D01*
X29000Y39765D01*
X28848Y39612D01*
X28695D01*
X28848Y39460D01*
X28695Y39308D01*
X28848D01*
X29000Y39155D01*
X53092Y4492D02*
X53346D01*
X53600Y4746D01*
X53854Y4492D01*
X54108D01*
Y4746D01*
X53854Y5000D01*
X54108Y5254D01*
Y5508D01*
X53854D01*
X53600Y5254D01*
X53346Y5508D01*
X53092D01*
Y5254D01*
X53346Y5000D01*
X53092Y4746D01*
Y4492D01*
X50552D02*
X50806D01*
X51060Y4746D01*
X51314Y4492D01*
X51568D01*
Y4746D01*
X51314Y5000D01*
X51568Y5254D01*
Y5508D01*
X51314D01*
X51060Y5254D01*
X50806Y5508D01*
X50552D01*
Y5254D01*
X50806Y5000D01*
X50552Y4746D01*
Y4492D01*
X48012D02*
X48266D01*
X48520Y4746D01*
X48774Y4492D01*
X49028D01*
Y4746D01*
X48774Y5000D01*
X49028Y5254D01*
Y5508D01*
X48774D01*
X48520Y5254D01*
X48266Y5508D01*
X48012D01*
Y5254D01*
X48266Y5000D01*
X48012Y4746D01*
Y4492D01*
X45472D02*
X45726D01*
X45980Y4746D01*
X46234Y4492D01*
X46488D01*
Y4746D01*
X46234Y5000D01*
X46488Y5254D01*
Y5508D01*
X46234D01*
X45980Y5254D01*
X45726Y5508D01*
X45472D01*
Y5254D01*
X45726Y5000D01*
X45472Y4746D01*
Y4492D01*
X42932D02*
X43186D01*
X43440Y4746D01*
X43694Y4492D01*
X43948D01*
Y4746D01*
X43694Y5000D01*
X43948Y5254D01*
Y5508D01*
X43694D01*
X43440Y5254D01*
X43186Y5508D01*
X42932D01*
Y5254D01*
X43186Y5000D01*
X42932Y4746D01*
Y4492D01*
X40392D02*
X40646D01*
X40900Y4746D01*
X41154Y4492D01*
X41408D01*
Y4746D01*
X41154Y5000D01*
X41408Y5254D01*
Y5508D01*
X41154D01*
X40900Y5254D01*
X40646Y5508D01*
X40392D01*
Y5254D01*
X40646Y5000D01*
X40392Y4746D01*
Y4492D01*
X4746Y25536D02*
Y25282D01*
X5254D01*
Y25536D01*
X5508D01*
Y26044D01*
X5254D01*
Y26298D01*
X4746D01*
Y26044D01*
X4492D01*
Y25536D01*
X4746D01*
Y22996D02*
Y22742D01*
X5254D01*
Y22996D01*
X5508D01*
Y23504D01*
X5254D01*
Y23758D01*
X4746D01*
Y23504D01*
X4492D01*
Y22996D01*
X4746D01*
Y20456D02*
Y20202D01*
X5254D01*
Y20456D01*
X5508D01*
Y20964D01*
X5254D01*
Y21218D01*
X4746D01*
Y20964D01*
X4492D01*
Y20456D01*
X4746D01*
X75242Y26742D02*
Y27758D01*
X76258D01*
Y26742D01*
X75242D01*
X68742D02*
Y27758D01*
X69758D01*
Y26742D01*
X68742D01*
X75242Y31242D02*
Y32258D01*
X76258D01*
Y31242D01*
X75242D01*
X68742D02*
Y32258D01*
X69758D01*
Y31242D01*
X68742D01*
X92735Y41892D02*
X92227Y42908D01*
X93243D01*
X92735Y41892D01*
X92670Y49092D02*
X92162Y50108D01*
X93178D01*
X92670Y49092D01*
X95785Y49812D02*
X96039Y50066D01*
X96293D01*
X96039Y50320D01*
X96293Y50574D01*
X96039D01*
X95785Y50828D01*
X95531Y50574D01*
X95277D01*
X95531Y50320D01*
X95277Y50066D01*
X95531D01*
X95785Y49812D01*
Y41172D02*
X96039Y41426D01*
X96293D01*
X96039Y41680D01*
X96293Y41934D01*
X96039D01*
X95785Y42188D01*
X95531Y41934D01*
X95277D01*
X95531Y41680D01*
X95277Y41426D01*
X95531D01*
X95785Y41172D01*
X90227Y49812D02*
X90481Y50320D01*
X90227Y50828D01*
X90735Y50574D01*
X91243Y50828D01*
X90989Y50320D01*
X91243Y49812D01*
X90735Y50066D01*
X90227Y49812D01*
Y41172D02*
X90481Y41680D01*
X90227Y42188D01*
X90735Y41934D01*
X91243Y42188D01*
X90989Y41680D01*
X91243Y41172D01*
X90735Y41426D01*
X90227Y41172D01*
X68742Y39742D02*
Y40758D01*
X69758D01*
Y39742D01*
X68742D01*
X75242D02*
Y40758D01*
X76258D01*
Y39742D01*
X75242D01*
X68742Y35242D02*
Y36258D01*
X69758D01*
Y35242D01*
X68742D01*
X75242D02*
Y36258D01*
X76258D01*
Y35242D01*
X75242D01*
X93746Y28706D02*
Y28452D01*
X94254D01*
Y28706D01*
X94508D01*
Y29214D01*
X94254D01*
Y29468D01*
X93746D01*
Y29214D01*
X93492D01*
Y28706D01*
X93746D01*
Y31246D02*
Y30992D01*
X94254D01*
Y31246D01*
X94508D01*
Y31754D01*
X94254D01*
Y32008D01*
X93746D01*
Y31754D01*
X93492D01*
Y31246D01*
X93746D01*
Y33786D02*
Y33532D01*
X94254D01*
Y33786D01*
X94508D01*
Y34294D01*
X94254D01*
Y34548D01*
X93746D01*
Y34294D01*
X93492D01*
Y33786D01*
X93746D01*
Y15206D02*
Y14952D01*
X94254D01*
Y15206D01*
X94508D01*
Y15714D01*
X94254D01*
Y15968D01*
X93746D01*
Y15714D01*
X93492D01*
Y15206D01*
X93746D01*
Y17746D02*
Y17492D01*
X94254D01*
Y17746D01*
X94508D01*
Y18254D01*
X94254D01*
Y18508D01*
X93746D01*
Y18254D01*
X93492D01*
Y17746D01*
X93746D01*
Y20286D02*
Y20032D01*
X94254D01*
Y20286D01*
X94508D01*
Y20794D01*
X94254D01*
Y21048D01*
X93746D01*
Y20794D01*
X93492D01*
Y20286D01*
X93746D01*
X13206Y4746D02*
Y4492D01*
X13714D01*
Y4746D01*
X13968D01*
Y5254D01*
X13714D01*
Y5508D01*
X13206D01*
Y5254D01*
X12952D01*
Y4746D01*
X13206D01*
X15746D02*
Y4492D01*
X16254D01*
Y4746D01*
X16508D01*
Y5254D01*
X16254D01*
Y5508D01*
X15746D01*
Y5254D01*
X15492D01*
Y4746D01*
X15746D01*
X18286D02*
Y4492D01*
X18794D01*
Y4746D01*
X19048D01*
Y5254D01*
X18794D01*
Y5508D01*
X18286D01*
Y5254D01*
X18032D01*
Y4746D01*
X18286D01*
X27206D02*
Y4492D01*
X27714D01*
Y4746D01*
X27968D01*
Y5254D01*
X27714D01*
Y5508D01*
X27206D01*
Y5254D01*
X26952D01*
Y4746D01*
X27206D01*
X29746D02*
Y4492D01*
X30254D01*
Y4746D01*
X30508D01*
Y5254D01*
X30254D01*
Y5508D01*
X29746D01*
Y5254D01*
X29492D01*
Y4746D01*
X29746D01*
X32286D02*
Y4492D01*
X32794D01*
Y4746D01*
X33048D01*
Y5254D01*
X32794D01*
Y5508D01*
X32286D01*
Y5254D01*
X32032D01*
Y4746D01*
X32286D01*
X62206D02*
Y4492D01*
X62714D01*
Y4746D01*
X62968D01*
Y5254D01*
X62714D01*
Y5508D01*
X62206D01*
Y5254D01*
X61952D01*
Y4746D01*
X62206D01*
X64746D02*
Y4492D01*
X65254D01*
Y4746D01*
X65508D01*
Y5254D01*
X65254D01*
Y5508D01*
X64746D01*
Y5254D01*
X64492D01*
Y4746D01*
X64746D01*
X67286D02*
Y4492D01*
X67794D01*
Y4746D01*
X68048D01*
Y5254D01*
X67794D01*
Y5508D01*
X67286D01*
Y5254D01*
X67032D01*
Y4746D01*
X67286D01*
X4746Y11476D02*
Y11222D01*
X5254D01*
Y11476D01*
X5508D01*
Y11984D01*
X5254D01*
Y12238D01*
X4746D01*
Y11984D01*
X4492D01*
Y11476D01*
X4746D01*
Y14016D02*
Y13762D01*
X5254D01*
Y14016D01*
X5508D01*
Y14524D01*
X5254D01*
Y14778D01*
X4746D01*
Y14524D01*
X4492D01*
Y14016D01*
X4746D01*
X27072Y58862D02*
Y59878D01*
X28088D01*
Y58862D01*
X27072D01*
Y56322D02*
Y57338D01*
X28088D01*
Y56322D01*
X27072D01*
X24532Y58862D02*
Y59878D01*
X25548D01*
Y58862D01*
X24532D01*
Y56322D02*
Y57338D01*
X25548D01*
Y56322D01*
X24532D01*
X21992Y58862D02*
Y59878D01*
X23008D01*
Y58862D01*
X21992D01*
Y56322D02*
Y57338D01*
X23008D01*
Y56322D01*
X21992D01*
X19452Y58862D02*
Y59878D01*
X20468D01*
Y58862D01*
X19452D01*
Y56322D02*
Y57338D01*
X20468D01*
Y56322D01*
X19452D01*
X16912Y58862D02*
Y59878D01*
X17928D01*
Y58862D01*
X16912D01*
Y56322D02*
Y57338D01*
X17928D01*
Y56322D01*
X16912D01*
X54072Y58862D02*
Y59878D01*
X55088D01*
Y58862D01*
X54072D01*
Y56322D02*
Y57338D01*
X55088D01*
Y56322D01*
X54072D01*
X51532Y58862D02*
Y59878D01*
X52548D01*
Y58862D01*
X51532D01*
Y56322D02*
Y57338D01*
X52548D01*
Y56322D01*
X51532D01*
X48992Y58862D02*
Y59878D01*
X50008D01*
Y58862D01*
X48992D01*
Y56322D02*
Y57338D01*
X50008D01*
Y56322D01*
X48992D01*
X46452Y58862D02*
Y59878D01*
X47468D01*
Y58862D01*
X46452D01*
Y56322D02*
Y57338D01*
X47468D01*
Y56322D01*
X46452D01*
X43912Y58862D02*
Y59878D01*
X44928D01*
Y58862D01*
X43912D01*
Y56322D02*
Y57338D01*
X44928D01*
Y56322D01*
X43912D01*
X81072Y58862D02*
Y59878D01*
X82088D01*
Y58862D01*
X81072D01*
Y56322D02*
Y57338D01*
X82088D01*
Y56322D01*
X81072D01*
X78532Y58862D02*
Y59878D01*
X79548D01*
Y58862D01*
X78532D01*
Y56322D02*
Y57338D01*
X79548D01*
Y56322D01*
X78532D01*
X75992Y58862D02*
Y59878D01*
X77008D01*
Y58862D01*
X75992D01*
Y56322D02*
Y57338D01*
X77008D01*
Y56322D01*
X75992D01*
X73452Y58862D02*
Y59878D01*
X74468D01*
Y58862D01*
X73452D01*
Y56322D02*
Y57338D01*
X74468D01*
Y56322D01*
X73452D01*
X70912Y58862D02*
Y59878D01*
X71928D01*
Y58862D01*
X70912D01*
Y56322D02*
Y57338D01*
X71928D01*
Y56322D01*
X70912D01*
X4746Y37786D02*
Y37532D01*
X5254D01*
Y37786D01*
X5508D01*
Y38294D01*
X5254D01*
Y38548D01*
X4746D01*
Y38294D01*
X4492D01*
Y37786D01*
X4746D01*
Y35246D02*
Y34992D01*
X5254D01*
Y35246D01*
X5508D01*
Y35754D01*
X5254D01*
Y36008D01*
X4746D01*
Y35754D01*
X4492D01*
Y35246D01*
X4746D01*
Y32706D02*
Y32452D01*
X5254D01*
Y32706D01*
X5508D01*
Y33214D01*
X5254D01*
Y33468D01*
X4746D01*
Y33214D01*
X4492D01*
Y32706D01*
X4746D01*
Y48786D02*
Y48532D01*
X5254D01*
Y48786D01*
X5508D01*
Y49294D01*
X5254D01*
Y49548D01*
X4746D01*
Y49294D01*
X4492D01*
Y48786D01*
X4746D01*
Y46246D02*
Y45992D01*
X5254D01*
Y46246D01*
X5508D01*
Y46754D01*
X5254D01*
Y47008D01*
X4746D01*
Y46754D01*
X4492D01*
Y46246D01*
X4746D01*
Y43706D02*
Y43452D01*
X5254D01*
Y43706D01*
X5508D01*
Y44214D01*
X5254D01*
Y44468D01*
X4746D01*
Y44214D01*
X4492D01*
Y43706D01*
X4746D01*
X10746Y32706D02*
Y32452D01*
X11254D01*
Y32706D01*
X11508D01*
Y33214D01*
X11254D01*
Y33468D01*
X10746D01*
Y33214D01*
X10492D01*
Y32706D01*
X10746D01*
Y35246D02*
Y34992D01*
X11254D01*
Y35246D01*
X11508D01*
Y35754D01*
X11254D01*
Y36008D01*
X10746D01*
Y35754D01*
X10492D01*
Y35246D01*
X10746D01*
Y37786D02*
Y37532D01*
X11254D01*
Y37786D01*
X11508D01*
Y38294D01*
X11254D01*
Y38548D01*
X10746D01*
Y38294D01*
X10492D01*
Y37786D01*
X10746D01*
Y43706D02*
Y43452D01*
X11254D01*
Y43706D01*
X11508D01*
Y44214D01*
X11254D01*
Y44468D01*
X10746D01*
Y44214D01*
X10492D01*
Y43706D01*
X10746D01*
Y46246D02*
Y45992D01*
X11254D01*
Y46246D01*
X11508D01*
Y46754D01*
X11254D01*
Y47008D01*
X10746D01*
Y46754D01*
X10492D01*
Y46246D01*
X10746D01*
Y48786D02*
Y48532D01*
X11254D01*
Y48786D01*
X11508D01*
Y49294D01*
X11254D01*
Y49548D01*
X10746D01*
Y49294D01*
X10492D01*
Y48786D01*
X10746D01*
D87*
X95008Y4500D02*
G03*
X95008Y4500I-508J0D01*
G01*
X5008D02*
G03*
X5008Y4500I-508J0D01*
G01*
Y59500D02*
G03*
X5008Y59500I-508J0D01*
G01*
X95008D02*
G03*
X95008Y59500I-508J0D01*
G01*
X92758Y10000D02*
G03*
X92758Y10000I-508J0D01*
G01*
X78508Y26000D02*
G03*
X78508Y26000I-508J0D01*
G01*
X32508Y38000D02*
G03*
X32508Y38000I-508J0D01*
G01*
X33508D02*
G03*
X33508Y38000I-508J0D01*
G01*
X34508D02*
G03*
X34508Y38000I-508J0D01*
G01*
X50758Y16000D02*
G03*
X50758Y16000I-508J0D01*
G01*
X34508Y11750D02*
G03*
X34508Y11750I-508J0D01*
G01*
X41508Y37000D02*
G03*
X41508Y37000I-508J0D01*
G01*
X50758Y45500D02*
G03*
X50758Y45500I-508J0D01*
G01*
X19008Y48000D02*
G03*
X19008Y48000I-508J0D01*
G01*
X42508Y19000D02*
G03*
X42508Y19000I-508J0D01*
G01*
X41508D02*
G03*
X41508Y19000I-508J0D01*
G01*
X53508Y27250D02*
G03*
X53508Y27250I-508J0D01*
G01*
Y28250D02*
G03*
X53508Y28250I-508J0D01*
G01*
X20508Y11750D02*
G03*
X20508Y11750I-508J0D01*
G01*
X35258Y30750D02*
G03*
X35258Y30750I-508J0D01*
G01*
Y27750D02*
G03*
X35258Y27750I-508J0D01*
G01*
X60758Y35250D02*
G03*
X60758Y35250I-508J0D01*
G01*
Y28250D02*
G03*
X60758Y28250I-508J0D01*
G01*
X45258Y41000D02*
G03*
X45258Y41000I-508J0D01*
G01*
X61758Y39250D02*
G03*
X61758Y39250I-508J0D01*
G01*
Y40750D02*
G03*
X61758Y40750I-508J0D01*
G01*
X27758Y26750D02*
G03*
X27758Y26750I-508J0D01*
G01*
X51758Y16000D02*
G03*
X51758Y16000I-508J0D01*
G01*
X45758Y18750D02*
G03*
X45758Y18750I-508J0D01*
G01*
X44758Y21750D02*
G03*
X44758Y21750I-508J0D01*
G01*
X66508Y13000D02*
G03*
X66508Y13000I-508J0D01*
G01*
X41758Y43250D02*
G03*
X41758Y43250I-508J0D01*
G01*
X73008Y28250D02*
G03*
X73008Y28250I-508J0D01*
G01*
X51758Y26250D02*
G03*
X51758Y26250I-508J0D01*
G01*
X36258Y13000D02*
G03*
X36258Y13000I-508J0D01*
G01*
X48008Y21750D02*
G03*
X48008Y21750I-508J0D01*
G01*
X22508Y44750D02*
G03*
X22508Y44750I-508J0D01*
G01*
X85758Y58000D02*
G03*
X85758Y58000I-508J0D01*
G01*
X58758D02*
G03*
X58758Y58000I-508J0D01*
G01*
X31758D02*
G03*
X31758Y58000I-508J0D01*
G01*
X75508Y24750D02*
G03*
X75508Y24750I-508J0D01*
G01*
X81758Y22000D02*
G03*
X81758Y22000I-508J0D01*
G01*
X71008Y20500D02*
G03*
X71008Y20500I-508J0D01*
G01*
Y23000D02*
G03*
X71008Y23000I-508J0D01*
G01*
Y21750D02*
G03*
X71008Y21750I-508J0D01*
G01*
X75508Y21000D02*
G03*
X75508Y21000I-508J0D01*
G01*
X78258Y17500D02*
G03*
X78258Y17500I-508J0D01*
G01*
X81008Y36000D02*
G03*
X81008Y36000I-508J0D01*
G01*
X85258Y41750D02*
G03*
X85258Y41750I-508J0D01*
G01*
X84758Y19250D02*
G03*
X84758Y19250I-508J0D01*
G01*
X82758D02*
G03*
X82758Y19250I-508J0D01*
G01*
X89008Y53000D02*
G03*
X89008Y53000I-508J0D01*
G01*
Y49000D02*
G03*
X89008Y49000I-508J0D01*
G01*
Y47500D02*
G03*
X89008Y47500I-508J0D01*
G01*
X93758Y44250D02*
G03*
X93758Y44250I-508J0D01*
G01*
X89008Y43500D02*
G03*
X89008Y43500I-508J0D01*
G01*
X93008Y39000D02*
G03*
X93008Y39000I-508J0D01*
G01*
X86008Y20750D02*
G03*
X86008Y20750I-508J0D01*
G01*
X83758Y45500D02*
G03*
X83758Y45500I-508J0D01*
G01*
Y46500D02*
G03*
X83758Y46500I-508J0D01*
G01*
X57258Y45500D02*
G03*
X57258Y45500I-508J0D01*
G01*
Y46500D02*
G03*
X57258Y46500I-508J0D01*
G01*
X93758Y45250D02*
G03*
X93758Y45250I-508J0D01*
G01*
Y46250D02*
G03*
X93758Y46250I-508J0D01*
G01*
X87758Y46500D02*
G03*
X87758Y46500I-508J0D01*
G01*
Y45500D02*
G03*
X87758Y45500I-508J0D01*
G01*
X58008Y30000D02*
G03*
X58008Y30000I-508J0D01*
G01*
X27258Y41750D02*
G03*
X27258Y41750I-508J0D01*
G01*
Y40250D02*
G03*
X27258Y40250I-508J0D01*
G01*
X18008Y38750D02*
G03*
X18008Y38750I-508J0D01*
G01*
Y41250D02*
G03*
X18008Y41250I-508J0D01*
G01*
X27258Y39250D02*
G03*
X27258Y39250I-508J0D01*
G01*
X42008Y30750D02*
G03*
X42008Y30750I-508J0D01*
G01*
Y33250D02*
G03*
X42008Y33250I-508J0D01*
G01*
X50008Y31000D02*
G03*
X50008Y31000I-508J0D01*
G01*
Y29000D02*
G03*
X50008Y29000I-508J0D01*
G01*
Y30000D02*
G03*
X50008Y30000I-508J0D01*
G01*
X42008Y39500D02*
G03*
X42008Y39500I-508J0D01*
G01*
X46008Y46750D02*
G03*
X46008Y46750I-508J0D01*
G01*
X53008Y38000D02*
G03*
X53008Y38000I-508J0D01*
G01*
X54508D02*
G03*
X54508Y38000I-508J0D01*
G01*
X56008D02*
G03*
X56008Y38000I-508J0D01*
G01*
X57508D02*
G03*
X57508Y38000I-508J0D01*
G01*
X59008D02*
G03*
X59008Y38000I-508J0D01*
G01*
X58008Y34000D02*
G03*
X58008Y34000I-508J0D01*
G01*
Y31000D02*
G03*
X58008Y31000I-508J0D01*
G01*
Y26000D02*
G03*
X58008Y26000I-508J0D01*
G01*
X51508Y22000D02*
G03*
X51508Y22000I-508J0D01*
G01*
X42008Y27750D02*
G03*
X42008Y27750I-508J0D01*
G01*
X50008Y38000D02*
G03*
X50008Y38000I-508J0D01*
G01*
D88*
X92555Y10000D02*
G03*
X92555Y10000I-305J0D01*
G01*
X78305Y26000D02*
G03*
X78305Y26000I-305J0D01*
G01*
X32305Y38000D02*
G03*
X32305Y38000I-305J0D01*
G01*
X33305D02*
G03*
X33305Y38000I-305J0D01*
G01*
X34305D02*
G03*
X34305Y38000I-305J0D01*
G01*
X50555Y16000D02*
G03*
X50555Y16000I-305J0D01*
G01*
X34305Y11750D02*
G03*
X34305Y11750I-305J0D01*
G01*
X41305Y37000D02*
G03*
X41305Y37000I-305J0D01*
G01*
X50555Y45500D02*
G03*
X50555Y45500I-305J0D01*
G01*
X18805Y48000D02*
G03*
X18805Y48000I-305J0D01*
G01*
X42305Y19000D02*
G03*
X42305Y19000I-305J0D01*
G01*
X41305D02*
G03*
X41305Y19000I-305J0D01*
G01*
X53305Y27250D02*
G03*
X53305Y27250I-305J0D01*
G01*
Y28250D02*
G03*
X53305Y28250I-305J0D01*
G01*
X20305Y11750D02*
G03*
X20305Y11750I-305J0D01*
G01*
X35055Y30750D02*
G03*
X35055Y30750I-305J0D01*
G01*
Y27750D02*
G03*
X35055Y27750I-305J0D01*
G01*
X60555Y35250D02*
G03*
X60555Y35250I-305J0D01*
G01*
Y28250D02*
G03*
X60555Y28250I-305J0D01*
G01*
X45055Y41000D02*
G03*
X45055Y41000I-305J0D01*
G01*
X61555Y39250D02*
G03*
X61555Y39250I-305J0D01*
G01*
Y40750D02*
G03*
X61555Y40750I-305J0D01*
G01*
X27555Y26750D02*
G03*
X27555Y26750I-305J0D01*
G01*
X51555Y16000D02*
G03*
X51555Y16000I-305J0D01*
G01*
X45555Y18750D02*
G03*
X45555Y18750I-305J0D01*
G01*
X44555Y21750D02*
G03*
X44555Y21750I-305J0D01*
G01*
X66305Y13000D02*
G03*
X66305Y13000I-305J0D01*
G01*
X41555Y43250D02*
G03*
X41555Y43250I-305J0D01*
G01*
X72805Y28250D02*
G03*
X72805Y28250I-305J0D01*
G01*
X51555Y26250D02*
G03*
X51555Y26250I-305J0D01*
G01*
X36055Y13000D02*
G03*
X36055Y13000I-305J0D01*
G01*
X47805Y21750D02*
G03*
X47805Y21750I-305J0D01*
G01*
X22305Y44750D02*
G03*
X22305Y44750I-305J0D01*
G01*
X85555Y58000D02*
G03*
X85555Y58000I-305J0D01*
G01*
X58555D02*
G03*
X58555Y58000I-305J0D01*
G01*
X31555D02*
G03*
X31555Y58000I-305J0D01*
G01*
X75305Y24750D02*
G03*
X75305Y24750I-305J0D01*
G01*
X81555Y22000D02*
G03*
X81555Y22000I-305J0D01*
G01*
X70805Y20500D02*
G03*
X70805Y20500I-305J0D01*
G01*
Y23000D02*
G03*
X70805Y23000I-305J0D01*
G01*
Y21750D02*
G03*
X70805Y21750I-305J0D01*
G01*
X75305Y21000D02*
G03*
X75305Y21000I-305J0D01*
G01*
X78055Y17500D02*
G03*
X78055Y17500I-305J0D01*
G01*
X80805Y36000D02*
G03*
X80805Y36000I-305J0D01*
G01*
X85055Y41750D02*
G03*
X85055Y41750I-305J0D01*
G01*
X84555Y19250D02*
G03*
X84555Y19250I-305J0D01*
G01*
X82555D02*
G03*
X82555Y19250I-305J0D01*
G01*
X88805Y53000D02*
G03*
X88805Y53000I-305J0D01*
G01*
Y49000D02*
G03*
X88805Y49000I-305J0D01*
G01*
Y47500D02*
G03*
X88805Y47500I-305J0D01*
G01*
X93555Y44250D02*
G03*
X93555Y44250I-305J0D01*
G01*
X88805Y43500D02*
G03*
X88805Y43500I-305J0D01*
G01*
X92805Y39000D02*
G03*
X92805Y39000I-305J0D01*
G01*
X85805Y20750D02*
G03*
X85805Y20750I-305J0D01*
G01*
X83555Y45500D02*
G03*
X83555Y45500I-305J0D01*
G01*
Y46500D02*
G03*
X83555Y46500I-305J0D01*
G01*
X57055Y45500D02*
G03*
X57055Y45500I-305J0D01*
G01*
Y46500D02*
G03*
X57055Y46500I-305J0D01*
G01*
X93555Y45250D02*
G03*
X93555Y45250I-305J0D01*
G01*
Y46250D02*
G03*
X93555Y46250I-305J0D01*
G01*
X87555Y46500D02*
G03*
X87555Y46500I-305J0D01*
G01*
Y45500D02*
G03*
X87555Y45500I-305J0D01*
G01*
X57805Y30000D02*
G03*
X57805Y30000I-305J0D01*
G01*
X27055Y41750D02*
G03*
X27055Y41750I-305J0D01*
G01*
Y40250D02*
G03*
X27055Y40250I-305J0D01*
G01*
X17805Y38750D02*
G03*
X17805Y38750I-305J0D01*
G01*
Y41250D02*
G03*
X17805Y41250I-305J0D01*
G01*
X27055Y39250D02*
G03*
X27055Y39250I-305J0D01*
G01*
X41805Y30750D02*
G03*
X41805Y30750I-305J0D01*
G01*
Y33250D02*
G03*
X41805Y33250I-305J0D01*
G01*
X49805Y31000D02*
G03*
X49805Y31000I-305J0D01*
G01*
Y29000D02*
G03*
X49805Y29000I-305J0D01*
G01*
Y30000D02*
G03*
X49805Y30000I-305J0D01*
G01*
X41805Y39500D02*
G03*
X41805Y39500I-305J0D01*
G01*
X45805Y46750D02*
G03*
X45805Y46750I-305J0D01*
G01*
X52805Y38000D02*
G03*
X52805Y38000I-305J0D01*
G01*
X54305D02*
G03*
X54305Y38000I-305J0D01*
G01*
X55805D02*
G03*
X55805Y38000I-305J0D01*
G01*
X57305D02*
G03*
X57305Y38000I-305J0D01*
G01*
X58805D02*
G03*
X58805Y38000I-305J0D01*
G01*
X57805Y34000D02*
G03*
X57805Y34000I-305J0D01*
G01*
Y31000D02*
G03*
X57805Y31000I-305J0D01*
G01*
Y26000D02*
G03*
X57805Y26000I-305J0D01*
G01*
X51305Y22000D02*
G03*
X51305Y22000I-305J0D01*
G01*
X41805Y27750D02*
G03*
X41805Y27750I-305J0D01*
G01*
X49805Y38000D02*
G03*
X49805Y38000I-305J0D01*
G01*
%TF.MD5,177f44291f9c3bf7833769cf6b9f21c1*%
M02*
