%TF.GenerationSoftware,Altium Limited,Altium Designer,25.2.1 (25)*%
G04 Layer_Color=8388736*
%FSLAX43Y43*%
%MOMM*%
%TF.SameCoordinates,C3C72CCD-19DF-4086-A731-6AB0B0A2BFE7*%
%TF.FilePolarity,Negative*%
%TF.FileFunction,Soldermask,Top*%
%TF.Part,Single*%
G01*
G75*
%TA.AperFunction,SMDPad,CuDef*%
%ADD46R,0.850X0.800*%
G04:AMPARAMS|DCode=47|XSize=1.4mm|YSize=0.75mm|CornerRadius=0.135mm|HoleSize=0mm|Usage=FLASHONLY|Rotation=180.000|XOffset=0mm|YOffset=0mm|HoleType=Round|Shape=RoundedRectangle|*
%AMROUNDEDRECTD47*
21,1,1.400,0.480,0,0,180.0*
21,1,1.130,0.750,0,0,180.0*
1,1,0.270,-0.565,0.240*
1,1,0.270,0.565,0.240*
1,1,0.270,0.565,-0.240*
1,1,0.270,-0.565,-0.240*
%
%ADD47ROUNDEDRECTD47*%
%ADD48R,1.675X0.800*%
%ADD49R,2.860X3.500*%
%ADD50R,1.650X3.350*%
%ADD51R,1.200X1.450*%
G04:AMPARAMS|DCode=52|XSize=0.93mm|YSize=0.37mm|CornerRadius=0.103mm|HoleSize=0mm|Usage=FLASHONLY|Rotation=180.000|XOffset=0mm|YOffset=0mm|HoleType=Round|Shape=RoundedRectangle|*
%AMROUNDEDRECTD52*
21,1,0.930,0.165,0,0,180.0*
21,1,0.725,0.370,0,0,180.0*
1,1,0.205,-0.363,0.083*
1,1,0.205,0.363,0.083*
1,1,0.205,0.363,-0.083*
1,1,0.205,-0.363,-0.083*
%
%ADD52ROUNDEDRECTD52*%
G04:AMPARAMS|DCode=53|XSize=3.55mm|YSize=3.55mm|CornerRadius=0.5mm|HoleSize=0mm|Usage=FLASHONLY|Rotation=90.000|XOffset=0mm|YOffset=0mm|HoleType=Round|Shape=RoundedRectangle|*
%AMROUNDEDRECTD53*
21,1,3.550,2.550,0,0,90.0*
21,1,2.550,3.550,0,0,90.0*
1,1,1.000,1.275,1.275*
1,1,1.000,1.275,-1.275*
1,1,1.000,-1.275,-1.275*
1,1,1.000,-1.275,1.275*
%
%ADD53ROUNDEDRECTD53*%
G04:AMPARAMS|DCode=54|XSize=0.93mm|YSize=0.37mm|CornerRadius=0.103mm|HoleSize=0mm|Usage=FLASHONLY|Rotation=270.000|XOffset=0mm|YOffset=0mm|HoleType=Round|Shape=RoundedRectangle|*
%AMROUNDEDRECTD54*
21,1,0.930,0.165,0,0,270.0*
21,1,0.725,0.370,0,0,270.0*
1,1,0.205,-0.083,-0.363*
1,1,0.205,-0.083,0.363*
1,1,0.205,0.083,0.363*
1,1,0.205,0.083,-0.363*
%
%ADD54ROUNDEDRECTD54*%
%ADD55R,0.800X0.850*%
%ADD56R,0.750X1.400*%
%ADD57R,0.950X0.420*%
%ADD58R,1.050X0.420*%
%ADD59R,1.750X0.800*%
%ADD60R,0.625X0.450*%
%ADD61R,1.600X0.600*%
%TA.AperFunction,ComponentPad*%
%ADD62C,2.650*%
%ADD63C,1.674*%
%ADD64C,6.150*%
%ADD65C,2.150*%
%ADD66C,1.875*%
%ADD67C,1.400*%
%ADD68C,2.900*%
%ADD69C,2.400*%
%ADD70C,1.650*%
%TA.AperFunction,ViaPad*%
%ADD71C,0.850*%
D46*
X28000Y16575D02*
D03*
Y17925D02*
D03*
X26000Y16575D02*
D03*
Y17925D02*
D03*
X52500Y20675D02*
D03*
Y19325D02*
D03*
Y17925D02*
D03*
Y16575D02*
D03*
X47000Y20175D02*
D03*
Y18825D02*
D03*
X69750Y14675D02*
D03*
Y13325D02*
D03*
X30000Y16575D02*
D03*
Y17925D02*
D03*
X32000Y16575D02*
D03*
Y17925D02*
D03*
X34000Y16575D02*
D03*
Y17925D02*
D03*
D47*
X28000Y14900D02*
D03*
Y13100D02*
D03*
X26000Y14900D02*
D03*
Y13100D02*
D03*
X67500Y14900D02*
D03*
Y13100D02*
D03*
X30000Y14900D02*
D03*
Y13100D02*
D03*
X32000Y14900D02*
D03*
Y13100D02*
D03*
X34000Y14900D02*
D03*
Y13100D02*
D03*
D48*
X77688Y19095D02*
D03*
Y20365D02*
D03*
Y21635D02*
D03*
Y22905D02*
D03*
X72312D02*
D03*
Y21635D02*
D03*
Y20365D02*
D03*
Y19095D02*
D03*
D49*
X75000Y21000D02*
D03*
D50*
X84600Y39000D02*
D03*
X80400D02*
D03*
D51*
X50625Y20150D02*
D03*
Y17850D02*
D03*
X48875D02*
D03*
Y20150D02*
D03*
D52*
X44500Y29800D02*
D03*
Y30200D02*
D03*
Y30600D02*
D03*
Y31000D02*
D03*
Y31400D02*
D03*
Y31800D02*
D03*
Y32200D02*
D03*
Y32600D02*
D03*
Y33000D02*
D03*
Y33400D02*
D03*
Y33800D02*
D03*
Y29400D02*
D03*
Y29000D02*
D03*
Y28600D02*
D03*
Y28200D02*
D03*
Y27800D02*
D03*
Y27400D02*
D03*
Y27000D02*
D03*
Y26600D02*
D03*
Y26200D02*
D03*
X54500Y30200D02*
D03*
Y29800D02*
D03*
Y29400D02*
D03*
Y29000D02*
D03*
Y28600D02*
D03*
Y28200D02*
D03*
Y27800D02*
D03*
Y27400D02*
D03*
Y27000D02*
D03*
Y26600D02*
D03*
Y26200D02*
D03*
Y30600D02*
D03*
Y31000D02*
D03*
Y31400D02*
D03*
Y31800D02*
D03*
Y32200D02*
D03*
Y32600D02*
D03*
Y33000D02*
D03*
Y33400D02*
D03*
Y33800D02*
D03*
D53*
X49500Y30000D02*
D03*
D54*
X49700Y25000D02*
D03*
X49300D02*
D03*
X48900D02*
D03*
X48500D02*
D03*
X48100D02*
D03*
X47700D02*
D03*
X47300D02*
D03*
X46900D02*
D03*
X46500D02*
D03*
X46100D02*
D03*
X45700D02*
D03*
X50100D02*
D03*
X50500D02*
D03*
X50900D02*
D03*
X51300D02*
D03*
X51700D02*
D03*
X52100D02*
D03*
X52500D02*
D03*
X52900D02*
D03*
X53300D02*
D03*
X49300Y35000D02*
D03*
X49700D02*
D03*
X50100D02*
D03*
X50500D02*
D03*
X50900D02*
D03*
X51300D02*
D03*
X51700D02*
D03*
X52100D02*
D03*
X52500D02*
D03*
X52900D02*
D03*
X53300D02*
D03*
X48900D02*
D03*
X48500D02*
D03*
X48100D02*
D03*
X47700D02*
D03*
X47300D02*
D03*
X46900D02*
D03*
X46500D02*
D03*
X46100D02*
D03*
X45700D02*
D03*
D55*
X85925Y45250D02*
D03*
X84575D02*
D03*
X85925Y46750D02*
D03*
X84575D02*
D03*
X91175Y53000D02*
D03*
X89825D02*
D03*
X91175Y39000D02*
D03*
X89825D02*
D03*
X45575Y45500D02*
D03*
X46925D02*
D03*
X71825Y24750D02*
D03*
X73175D02*
D03*
X78175D02*
D03*
X76825D02*
D03*
X24075Y44750D02*
D03*
X25425D02*
D03*
X18575D02*
D03*
X19925D02*
D03*
D56*
X95400Y10000D02*
D03*
X93600D02*
D03*
D57*
X91635Y43125D02*
D03*
Y43625D02*
D03*
Y44125D02*
D03*
Y44625D02*
D03*
Y45125D02*
D03*
Y45625D02*
D03*
Y46125D02*
D03*
Y46625D02*
D03*
Y47125D02*
D03*
Y47625D02*
D03*
Y48125D02*
D03*
Y48625D02*
D03*
D58*
X90035Y48875D02*
D03*
Y48375D02*
D03*
Y47875D02*
D03*
Y47375D02*
D03*
Y46875D02*
D03*
Y46375D02*
D03*
Y45875D02*
D03*
Y45375D02*
D03*
Y44875D02*
D03*
Y44375D02*
D03*
Y43875D02*
D03*
Y43375D02*
D03*
D59*
X39451Y43405D02*
D03*
Y42135D02*
D03*
Y40865D02*
D03*
Y39595D02*
D03*
X46550D02*
D03*
Y40865D02*
D03*
Y42135D02*
D03*
Y43405D02*
D03*
D60*
X84088Y21750D02*
D03*
Y21250D02*
D03*
Y20750D02*
D03*
Y20250D02*
D03*
X82412D02*
D03*
Y20750D02*
D03*
Y21250D02*
D03*
Y21750D02*
D03*
D61*
X24925Y43275D02*
D03*
Y42625D02*
D03*
Y41975D02*
D03*
Y41325D02*
D03*
Y40675D02*
D03*
Y40025D02*
D03*
Y39375D02*
D03*
Y38725D02*
D03*
X19075D02*
D03*
Y39375D02*
D03*
Y40025D02*
D03*
Y40675D02*
D03*
Y41325D02*
D03*
Y41975D02*
D03*
Y42625D02*
D03*
Y43275D02*
D03*
D62*
X75920Y5000D02*
D03*
X81000D02*
D03*
X86080D02*
D03*
D63*
X29000Y42000D02*
D03*
Y44540D02*
D03*
Y39460D02*
D03*
D64*
X94500Y4500D02*
D03*
X4500D02*
D03*
Y59500D02*
D03*
X94500D02*
D03*
D65*
X53600Y5000D02*
D03*
X51060D02*
D03*
X48520D02*
D03*
X45980D02*
D03*
X43440D02*
D03*
X40900D02*
D03*
X75750Y27250D02*
D03*
X69250D02*
D03*
X75750Y31750D02*
D03*
X69250D02*
D03*
Y40250D02*
D03*
X75750D02*
D03*
X69250Y35750D02*
D03*
X75750D02*
D03*
D66*
X5000Y25790D02*
D03*
Y23250D02*
D03*
Y20710D02*
D03*
X94000Y28960D02*
D03*
Y31500D02*
D03*
Y34040D02*
D03*
Y15460D02*
D03*
Y18000D02*
D03*
Y20540D02*
D03*
X13460Y5000D02*
D03*
X16000D02*
D03*
X18540D02*
D03*
X27460D02*
D03*
X30000D02*
D03*
X32540D02*
D03*
X62460D02*
D03*
X65000D02*
D03*
X67540D02*
D03*
X5000Y11730D02*
D03*
Y14270D02*
D03*
Y38040D02*
D03*
Y35500D02*
D03*
Y32960D02*
D03*
Y49040D02*
D03*
Y46500D02*
D03*
Y43960D02*
D03*
X11000Y32960D02*
D03*
Y35500D02*
D03*
Y38040D02*
D03*
Y43960D02*
D03*
Y46500D02*
D03*
Y49040D02*
D03*
D67*
X92735Y42400D02*
D03*
X92670Y49600D02*
D03*
D68*
X95785Y50320D02*
D03*
Y41680D02*
D03*
D69*
X90735Y50320D02*
D03*
Y41680D02*
D03*
D70*
X27580Y59370D02*
D03*
Y56830D02*
D03*
X25040Y59370D02*
D03*
Y56830D02*
D03*
X22500Y59370D02*
D03*
Y56830D02*
D03*
X19960Y59370D02*
D03*
Y56830D02*
D03*
X17420Y59370D02*
D03*
Y56830D02*
D03*
X54580Y59370D02*
D03*
Y56830D02*
D03*
X52040Y59370D02*
D03*
Y56830D02*
D03*
X49500Y59370D02*
D03*
Y56830D02*
D03*
X46960Y59370D02*
D03*
Y56830D02*
D03*
X44420Y59370D02*
D03*
Y56830D02*
D03*
X81580Y59370D02*
D03*
Y56830D02*
D03*
X79040Y59370D02*
D03*
Y56830D02*
D03*
X76500Y59370D02*
D03*
Y56830D02*
D03*
X73960Y59370D02*
D03*
Y56830D02*
D03*
X71420Y59370D02*
D03*
Y56830D02*
D03*
D71*
X92250Y10000D02*
D03*
X78000Y26000D02*
D03*
X32000Y38000D02*
D03*
X33000D02*
D03*
X34000D02*
D03*
X50250Y16000D02*
D03*
X34000Y11750D02*
D03*
X41000Y37000D02*
D03*
X50250Y45500D02*
D03*
X18500Y48000D02*
D03*
X42000Y19000D02*
D03*
X41000D02*
D03*
X53000Y27250D02*
D03*
Y28250D02*
D03*
X20000Y11750D02*
D03*
X34750Y30750D02*
D03*
Y27750D02*
D03*
X60250Y35250D02*
D03*
Y28250D02*
D03*
X44750Y41000D02*
D03*
X61250Y39250D02*
D03*
Y40750D02*
D03*
X27250Y26750D02*
D03*
X51250Y16000D02*
D03*
X45250Y18750D02*
D03*
X44250Y21750D02*
D03*
X66000Y13000D02*
D03*
X41250Y43250D02*
D03*
X72500Y28250D02*
D03*
X51250Y26250D02*
D03*
X35750Y13000D02*
D03*
X47500Y21750D02*
D03*
X22000Y44750D02*
D03*
X85250Y58000D02*
D03*
X58250D02*
D03*
X31250D02*
D03*
X75000Y24750D02*
D03*
X81250Y22000D02*
D03*
X70500Y20500D02*
D03*
Y23000D02*
D03*
Y21750D02*
D03*
X75000Y21000D02*
D03*
X77750Y17500D02*
D03*
X80500Y36000D02*
D03*
X84750Y41750D02*
D03*
X84250Y19250D02*
D03*
X82250D02*
D03*
X88500Y53000D02*
D03*
Y49000D02*
D03*
Y47500D02*
D03*
X93250Y44250D02*
D03*
X88500Y43500D02*
D03*
X92500Y39000D02*
D03*
X85500Y20750D02*
D03*
X83250Y45500D02*
D03*
Y46500D02*
D03*
X56750Y45500D02*
D03*
Y46500D02*
D03*
X93250Y45250D02*
D03*
Y46250D02*
D03*
X87250Y46500D02*
D03*
Y45500D02*
D03*
X57500Y30000D02*
D03*
X26750Y41750D02*
D03*
Y40250D02*
D03*
X17500Y38750D02*
D03*
Y41250D02*
D03*
X26750Y39250D02*
D03*
X41500Y30750D02*
D03*
Y33250D02*
D03*
X49500Y31000D02*
D03*
Y29000D02*
D03*
Y30000D02*
D03*
X41500Y39500D02*
D03*
X45500Y46750D02*
D03*
X52500Y38000D02*
D03*
X54000D02*
D03*
X55500D02*
D03*
X57000D02*
D03*
X58500D02*
D03*
X57500Y34000D02*
D03*
Y31000D02*
D03*
Y26000D02*
D03*
X51000Y22000D02*
D03*
X41500Y27750D02*
D03*
X49500Y38000D02*
D03*
%TF.MD5,998e4586419a1252850e90db74cf3052*%
M02*
