M48
;Layer_Color=9474304
;FILE_FORMAT=4:3
METRIC,LZ
;TYPE=PLATED
T01F00S00C0.300
T02F00S00C0.750
T03F00S00C0.762
T04F00S00C1.000
T05F00S00C1.100
T06F00S00C1.150
T07F00S00C1.300
T08F00S00C1.500
T09F00S00C1.750
T10F00S00C3.500
%
T01
X002Y001175
X0034
X003575Y0013
X0066
X009225Y001
X008425Y001925
X008225
X008125Y0022
X00855Y002075
X0075Y0021
Y002475
X0078Y0026
X00725Y002825
X00705Y0023
Y002175
Y00205
X007775Y00175
X00805Y0036
X008475Y004175
X008325Y00455
Y00465
X008725Y00465
Y00455
X00885Y00475
Y0049
Y0053
Y00435
X009325Y004425
Y004525
Y004625
X00925Y0039
X006125Y003925
Y004075
X00585Y0038
X0057
X00555
X00575Y0034
Y0031
Y003
Y0026
X006025Y002825
Y003525
X005675Y00455
Y00465
X005025Y00455
X00455Y004675
X004475Y0041
X00415Y00395
X0041Y0037
X00415Y003325
Y003075
Y002775
X003475
Y003075
X0034Y0038
X0033
X0032
X002675Y003925
Y004025
Y004175
X0022Y004475
X00185Y0048
X00175Y004125
Y003875
X002725Y002675
X0041Y0019
X0042
X004525Y001875
X004425Y002175
X00475
X0051Y0022
X005125Y002625
X0053Y002725
Y002825
X00495Y0029
Y003
Y0031
Y0038
X00525
X0054
X004125Y004325
X005025Y0016
X005125
X003125Y0058
X005825
X008525
T02
X0092735Y00424
X009267Y00496
T03
X0029Y003946
Y0042
Y004454
T04
X006925Y002725
Y003175
Y003575
Y004025
X007575
Y003575
Y003175
Y002725
X005204Y005683
Y005937
X00495
Y005683
X004696
Y005937
X004442
Y005683
X002758
Y005937
X002504
Y005683
X00225
Y005937
X001996
Y005683
X001742
Y005937
X005458
Y005683
X007142
X007396
X00765
X007904
X008158
Y005937
X007904
X00765
X007396
X007142
T05
X00409Y0005
X004344
X004598
X004852
X005106
X00536
T06
X0005Y001173
Y001427
X001346Y0005
X0016
X001854
X002746
X003
X003254
X006246
X0065
X006754
X0094Y001546
Y0018
Y002054
Y002896
Y00315
Y003404
X0011Y003296
Y00355
Y003804
Y004396
Y00465
Y004904
X0005
Y00465
Y004396
Y003804
Y00355
Y003296
Y002579
Y002325
Y002071
T07
X007592Y0005
X0081
X008608
T08
X0090735Y004168
Y005032
T09
X0095785Y004168
Y005032
T10
X00045Y00045
X00945
X00045Y00595
X00945
M30
