%TF.GenerationSoftware,Altium Limited,Altium Designer,25.8.1 (18)*%
G04 Layer_Color=65535*
%FSLAX45Y45*%
%MOMM*%
%TF.SameCoordinates,DF05D2E2-5024-4BE0-925F-F6AC90F518B1*%
%TF.FilePolarity,Positive*%
%TF.FileFunction,Legend,Top*%
%TF.Part,Single*%
G01*
G75*
%TA.AperFunction,NonConductor*%
%ADD15C,0.20000*%
%ADD16C,0.25400*%
%ADD17C,0.17000*%
D15*
X76200Y1917709D02*
X330200D01*
X76200Y901700D02*
X330221D01*
X605100Y1916800D02*
X969999D01*
X800100Y886800D02*
X969999D01*
X330221Y901700D02*
Y1917697D01*
X76221Y901729D02*
Y1917697D01*
X529252Y1767374D02*
X540915Y1755711D01*
X564240D01*
X575903Y1767374D01*
Y1814025D01*
X564240Y1825688D01*
X540915D01*
X529252Y1814025D01*
Y1790699D01*
X552578D01*
X505926Y1825688D02*
Y1755711D01*
X459274Y1825688D01*
Y1755711D01*
X435948D02*
Y1825688D01*
X400960D01*
X389297Y1814025D01*
Y1767374D01*
X400960Y1755711D01*
X435948D01*
X575903Y993711D02*
Y1040362D01*
X552578Y1063688D01*
X529252Y1040362D01*
Y993711D01*
X459274Y1005374D02*
X470937Y993711D01*
X494263D01*
X505926Y1005374D01*
Y1052025D01*
X494263Y1063688D01*
X470937D01*
X459274Y1052025D01*
X389297Y1005374D02*
X400960Y993711D01*
X424285D01*
X435948Y1005374D01*
Y1052025D01*
X424285Y1063688D01*
X400960D01*
X389297Y1052025D01*
D16*
X825467Y1968524D02*
X723900Y2120875D01*
Y1968524D02*
X825467Y2120875D01*
X673116D02*
X622333D01*
X647724D01*
Y1968524D01*
X673116Y1993916D01*
X304767Y1955824D02*
Y2108175D01*
Y2031999D01*
X203200D01*
Y1955824D01*
Y2108175D01*
X152416D02*
X101633D01*
X127024D01*
Y1955824D01*
X152416Y1981216D01*
D17*
X552577Y1506710D02*
X592564D01*
Y1566690D01*
X552577D01*
X592564Y1536700D02*
X572571D01*
X492597Y1526703D02*
X522587D01*
X532584Y1536700D01*
Y1556694D01*
X522587Y1566690D01*
X492597D01*
X472603Y1506710D02*
Y1566690D01*
Y1536700D01*
X462606Y1526703D01*
X442613D01*
X432616Y1536700D01*
Y1566690D01*
X402626D02*
X382632D01*
X372636Y1556694D01*
Y1536700D01*
X382632Y1526703D01*
X402626D01*
X412622Y1536700D01*
Y1556694D01*
X402626Y1566690D01*
X600266Y1242713D02*
X560279D01*
X580272D01*
Y1302693D01*
X540285Y1262706D02*
Y1302693D01*
Y1282700D01*
X530288Y1272703D01*
X520292Y1262706D01*
X510295D01*
X480305Y1302693D02*
X460311D01*
X470308D01*
Y1262706D01*
X480305D01*
X410327Y1322687D02*
X400331D01*
X390334Y1312690D01*
Y1262706D01*
X420324D01*
X430321Y1272703D01*
Y1292697D01*
X420324Y1302693D01*
X390334D01*
%TF.MD5,2284197c2dbafd32cb4ca3bbd611e0bf*%
M02*
