%TF.GenerationSoftware,Altium Limited,Altium Designer,25.2.1 (25)*%
G04 Layer_Color=65535*
%FSLAX43Y43*%
%MOMM*%
%TF.SameCoordinates,933D8669-CF18-4837-AC25-EF56E4474D90*%
%TF.FilePolarity,Positive*%
%TF.FileFunction,Legend,Top*%
%TF.Part,Single*%
G01*
G75*
%TA.AperFunction,NonConductor*%
%ADD15C,0.200*%
%ADD16C,0.170*%
%ADD17C,0.254*%
D15*
X762Y19177D02*
X3302D01*
X762Y9017D02*
X3302D01*
X6051Y19168D02*
X9700D01*
X8001Y8868D02*
X9700D01*
X3302Y9017D02*
Y19177D01*
X762Y9017D02*
Y19177D01*
X5293Y17674D02*
X5409Y17557D01*
X5642D01*
X5759Y17674D01*
Y18140D01*
X5642Y18257D01*
X5409D01*
X5293Y18140D01*
Y17907D01*
X5526D01*
X5059Y18257D02*
Y17557D01*
X4593Y18257D01*
Y17557D01*
X4359D02*
Y18257D01*
X4010D01*
X3893Y18140D01*
Y17674D01*
X4010Y17557D01*
X4359D01*
X5759Y9937D02*
Y10404D01*
X5526Y10637D01*
X5293Y10404D01*
Y9937D01*
X4593Y10054D02*
X4709Y9937D01*
X4943D01*
X5059Y10054D01*
Y10520D01*
X4943Y10637D01*
X4709D01*
X4593Y10520D01*
X3893Y10054D02*
X4010Y9937D01*
X4243D01*
X4359Y10054D01*
Y10520D01*
X4243Y10637D01*
X4010D01*
X3893Y10520D01*
D16*
X5526Y15067D02*
X5926D01*
Y15667D01*
X5526D01*
X5926Y15367D02*
X5726D01*
X4926Y15267D02*
X5226D01*
X5326Y15367D01*
Y15567D01*
X5226Y15667D01*
X4926D01*
X4726Y15067D02*
Y15667D01*
Y15367D01*
X4626Y15267D01*
X4426D01*
X4326Y15367D01*
Y15667D01*
X4026D02*
X3826D01*
X3726Y15567D01*
Y15367D01*
X3826Y15267D01*
X4026D01*
X4126Y15367D01*
Y15567D01*
X4026Y15667D01*
X6003Y12427D02*
X5603D01*
X5803D01*
Y13027D01*
X5403Y12627D02*
Y13027D01*
Y12827D01*
X5303Y12727D01*
X5203Y12627D01*
X5103D01*
X4803Y13027D02*
X4603D01*
X4703D01*
Y12627D01*
X4803D01*
X4103Y13227D02*
X4003D01*
X3903Y13127D01*
Y12627D01*
X4203D01*
X4303Y12727D01*
Y12927D01*
X4203Y13027D01*
X3903D01*
D17*
X3048Y19558D02*
Y21082D01*
Y20320D01*
X2032D01*
Y19558D01*
Y21082D01*
X1524D02*
X1016D01*
X1270D01*
Y19558D01*
X1524Y19812D01*
X8255Y19685D02*
X7239Y21209D01*
Y19685D02*
X8255Y21209D01*
X6731D02*
X6223D01*
X6477D01*
Y19685D01*
X6731Y19939D01*
%TF.MD5,fe6facb7e2559edb61de9210d88e8a7a*%
M02*
