%TF.GenerationSoftware,Altium Limited,Altium Designer,25.2.1 (25)*%
G04 Layer_Physical_Order=1*
G04 Layer_Color=255*
%FSLAX43Y43*%
%MOMM*%
%TF.SameCoordinates,933D8669-CF18-4837-AC25-EF56E4474D90*%
%TF.FilePolarity,Positive*%
%TF.FileFunction,Copper,L1,Top,Signal*%
%TF.Part,Single*%
G01*
G75*
%TA.AperFunction,Conductor*%
%ADD10C,0.300*%
%TA.AperFunction,ComponentPad*%
%ADD11C,6.000*%
%ADD12R,1.350X1.350*%
%ADD13C,1.350*%
%ADD14C,1.500*%
G36*
X5600Y29558D02*
X6190Y29441D01*
X6759Y29247D01*
X7299Y28981D01*
X7799Y28647D01*
X8251Y28251D01*
X8647Y27799D01*
X8981Y27299D01*
X9247Y26759D01*
X9441Y26190D01*
X9558Y25600D01*
X9596Y25019D01*
X9592Y25000D01*
Y5000D01*
X9596Y4981D01*
X9558Y4400D01*
X9441Y3810D01*
X9247Y3241D01*
X8981Y2701D01*
X8647Y2201D01*
X8251Y1749D01*
X7799Y1353D01*
X7299Y1019D01*
X6759Y753D01*
X6190Y559D01*
X5600Y442D01*
X5019Y404D01*
X5000Y408D01*
X4981Y404D01*
X4400Y442D01*
X3810Y559D01*
X3241Y753D01*
X2701Y1019D01*
X2201Y1353D01*
X1749Y1749D01*
X1353Y2201D01*
X1019Y2701D01*
X753Y3241D01*
X559Y3810D01*
X442Y4400D01*
X404Y4981D01*
X408Y5000D01*
Y25000D01*
X404Y25019D01*
X442Y25600D01*
X559Y26190D01*
X753Y26759D01*
X1019Y27299D01*
X1353Y27799D01*
X1749Y28251D01*
X2201Y28647D01*
X2701Y28981D01*
X3241Y29247D01*
X3810Y29441D01*
X4400Y29558D01*
X4981Y29596D01*
X5000Y29592D01*
X5019Y29596D01*
X5600Y29558D01*
D02*
G37*
%LPC*%
G36*
X5260Y28300D02*
X4740D01*
X4227Y28219D01*
X3733Y28058D01*
X3270Y27822D01*
X2850Y27517D01*
X2483Y27150D01*
X2178Y26730D01*
X1942Y26267D01*
X1781Y25773D01*
X1700Y25260D01*
Y24740D01*
X1781Y24227D01*
X1942Y23733D01*
X2178Y23270D01*
X2483Y22850D01*
X2850Y22483D01*
X3270Y22178D01*
X3733Y21942D01*
X4227Y21781D01*
X4740Y21700D01*
X5260D01*
X5773Y21781D01*
X6267Y21942D01*
X6730Y22178D01*
X7150Y22483D01*
X7517Y22850D01*
X7822Y23270D01*
X8058Y23733D01*
X8219Y24227D01*
X8300Y24740D01*
Y25260D01*
X8219Y25773D01*
X8058Y26267D01*
X7822Y26730D01*
X7517Y27150D01*
X7150Y27517D01*
X6730Y27822D01*
X6267Y28058D01*
X5773Y28219D01*
X5260Y28300D01*
D02*
G37*
G36*
X2170Y18957D02*
X1894D01*
X1627Y18885D01*
X1387Y18747D01*
X1192Y18552D01*
X1054Y18312D01*
X982Y18045D01*
Y17769D01*
X1054Y17502D01*
X1192Y17262D01*
X1387Y17067D01*
X1627Y16929D01*
X1894Y16857D01*
X2170D01*
X2437Y16929D01*
X2677Y17067D01*
X2872Y17262D01*
X3010Y17502D01*
X3082Y17769D01*
Y18045D01*
X3010Y18312D01*
X2872Y18552D01*
X2677Y18747D01*
X2437Y18885D01*
X2170Y18957D01*
D02*
G37*
G36*
X8129Y17993D02*
X7873D01*
X7625Y17927D01*
X7402Y17798D01*
X7221Y17617D01*
X7092Y17394D01*
X7026Y17146D01*
Y16890D01*
X7092Y16642D01*
X7221Y16419D01*
X7402Y16238D01*
X7625Y16109D01*
X7721Y16084D01*
Y15952D01*
X7625Y15927D01*
X7437Y15818D01*
X7398Y15826D01*
X2980D01*
X2872Y16012D01*
X2677Y16207D01*
X2437Y16345D01*
X2170Y16417D01*
X1894D01*
X1627Y16345D01*
X1387Y16207D01*
X1192Y16012D01*
X1054Y15772D01*
X982Y15505D01*
Y15229D01*
X1054Y14962D01*
X1192Y14722D01*
X1387Y14527D01*
X1627Y14389D01*
X1894Y14317D01*
X2170D01*
X2437Y14389D01*
X2677Y14527D01*
X2872Y14722D01*
X2980Y14908D01*
X7026D01*
Y14890D01*
X7092Y14642D01*
X7221Y14419D01*
X7402Y14238D01*
X7625Y14109D01*
X7721Y14084D01*
Y13952D01*
X7625Y13927D01*
X7402Y13798D01*
X7221Y13617D01*
X7140Y13477D01*
X2867D01*
X2677Y13667D01*
X2437Y13805D01*
X2170Y13877D01*
X1894D01*
X1627Y13805D01*
X1387Y13667D01*
X1192Y13472D01*
X1054Y13232D01*
X982Y12965D01*
Y12689D01*
X1054Y12422D01*
X1192Y12182D01*
X1387Y11987D01*
X1627Y11849D01*
X1894Y11777D01*
X2170D01*
X2437Y11849D01*
X2677Y11987D01*
X2872Y12182D01*
X3010Y12422D01*
X3047Y12559D01*
X7140D01*
X7221Y12419D01*
X7402Y12238D01*
X7625Y12109D01*
X7757Y12074D01*
X7740Y11947D01*
X7072D01*
Y11145D01*
X8001D01*
X8930D01*
Y11947D01*
X8262D01*
X8245Y12074D01*
X8377Y12109D01*
X8600Y12238D01*
X8781Y12419D01*
X8910Y12642D01*
X8976Y12890D01*
Y13146D01*
X8910Y13394D01*
X8781Y13617D01*
X8600Y13798D01*
X8377Y13927D01*
X8281Y13952D01*
Y14084D01*
X8377Y14109D01*
X8600Y14238D01*
X8781Y14419D01*
X8910Y14642D01*
X8976Y14890D01*
Y15146D01*
X8910Y15394D01*
X8781Y15617D01*
X8600Y15798D01*
X8377Y15927D01*
X8281Y15952D01*
Y16084D01*
X8377Y16109D01*
X8600Y16238D01*
X8781Y16419D01*
X8910Y16642D01*
X8976Y16890D01*
Y17146D01*
X8910Y17394D01*
X8781Y17617D01*
X8600Y17798D01*
X8377Y17927D01*
X8129Y17993D01*
D02*
G37*
G36*
X2164Y11291D02*
X2159D01*
Y10414D01*
X3036D01*
Y10419D01*
X2968Y10675D01*
X2836Y10903D01*
X2649Y11090D01*
X2420Y11223D01*
X2164Y11291D01*
D02*
G37*
G36*
X1905D02*
X1900D01*
X1645Y11223D01*
X1416Y11090D01*
X1229Y10903D01*
X1097Y10675D01*
X1028Y10419D01*
Y10414D01*
X1905D01*
Y11291D01*
D02*
G37*
G36*
X8930Y10891D02*
X8128D01*
Y10089D01*
X8930D01*
Y10891D01*
D02*
G37*
G36*
X7874D02*
X7072D01*
Y10089D01*
X7874D01*
Y10891D01*
D02*
G37*
G36*
X3036Y10160D02*
X2159D01*
Y9283D01*
X2164D01*
X2420Y9351D01*
X2649Y9484D01*
X2836Y9670D01*
X2968Y9899D01*
X3036Y10155D01*
Y10160D01*
D02*
G37*
G36*
X1905D02*
X1028D01*
Y10155D01*
X1097Y9899D01*
X1229Y9670D01*
X1416Y9484D01*
X1645Y9351D01*
X1900Y9283D01*
X1905D01*
Y10160D01*
D02*
G37*
G36*
X5260Y8300D02*
X4740D01*
X4227Y8219D01*
X3733Y8058D01*
X3270Y7822D01*
X2850Y7517D01*
X2483Y7150D01*
X2178Y6730D01*
X1942Y6267D01*
X1781Y5773D01*
X1700Y5260D01*
Y4740D01*
X1781Y4227D01*
X1942Y3733D01*
X2178Y3270D01*
X2483Y2850D01*
X2850Y2483D01*
X3270Y2178D01*
X3733Y1942D01*
X4227Y1781D01*
X4740Y1700D01*
X5260D01*
X5773Y1781D01*
X6267Y1942D01*
X6730Y2178D01*
X7150Y2483D01*
X7517Y2850D01*
X7822Y3270D01*
X8058Y3733D01*
X8219Y4227D01*
X8300Y4740D01*
Y5260D01*
X8219Y5773D01*
X8058Y6267D01*
X7822Y6730D01*
X7517Y7150D01*
X7150Y7517D01*
X6730Y7822D01*
X6267Y8058D01*
X5773Y8219D01*
X5260Y8300D01*
D02*
G37*
%LPD*%
D10*
X1651Y12827D02*
X1842Y13018D01*
X7747D01*
X7398Y15367D02*
X7747Y15018D01*
X1651Y15367D02*
X7398D01*
D11*
X5000Y5000D02*
D03*
Y25000D02*
D03*
D12*
X8001Y11018D02*
D03*
D13*
Y13018D02*
D03*
Y15018D02*
D03*
Y17018D02*
D03*
D14*
X2032Y12827D02*
D03*
Y17907D02*
D03*
Y15367D02*
D03*
X2032Y10287D02*
D03*
%TF.MD5,2e35cfd8ffd63693aad60070f2a3eaa7*%
M02*
