%TF.GenerationSoftware,Altium Limited,Altium Designer,25.8.1 (18)*%
G04 Layer_Color=6740479*
%FSLAX45Y45*%
%MOMM*%
%TF.SameCoordinates,DF05D2E2-5024-4BE0-925F-F6AC90F518B1*%
%TF.FilePolarity,Positive*%
%TF.FileFunction,Legend,Bot*%
%TF.Part,Single*%
G01*
G75*
%TA.AperFunction,NonConductor*%
%ADD15C,0.20000*%
%ADD18C,0.10000*%
D15*
X76200Y1917709D02*
X330200D01*
X330221Y901700D02*
Y1917697D01*
X76221Y901729D02*
Y1917697D01*
X76200Y901700D02*
X330221D01*
D18*
X470716Y1164419D02*
Y1124432D01*
X484045Y1137761D01*
X497374Y1124432D01*
Y1164419D01*
X510703Y1124432D02*
X524032D01*
X517368D01*
Y1164419D01*
X510703D01*
X524032D01*
X544026Y1124432D02*
Y1164419D01*
X570684D01*
X337426Y1196416D02*
Y1229739D01*
X344091Y1236403D01*
X357420D01*
X364084Y1229739D01*
Y1196416D01*
X377413Y1236403D02*
X390742D01*
X384078D01*
Y1196416D01*
X377413D01*
X417400Y1203081D02*
Y1209745D01*
X410736D01*
X424065D01*
X417400D01*
Y1229739D01*
X424065Y1236403D01*
X444058Y1209745D02*
Y1236403D01*
Y1223075D01*
X450723Y1216410D01*
X457387Y1209745D01*
X464052D01*
X490710D02*
X504039D01*
X510703Y1216410D01*
Y1236403D01*
X490710D01*
X484045Y1229739D01*
X490710Y1223075D01*
X510703D01*
X524032Y1236403D02*
X544026D01*
X550690Y1229739D01*
X544026Y1223075D01*
X530697D01*
X524032Y1216410D01*
X530697Y1209745D01*
X550690D01*
X570684Y1236403D02*
X584013D01*
X590677Y1229739D01*
Y1216410D01*
X584013Y1209745D01*
X570684D01*
X564019Y1216410D01*
Y1229739D01*
X570684Y1236403D01*
X604006D02*
Y1209745D01*
X624000D01*
X630664Y1216410D01*
Y1236403D01*
X643993D02*
X657322D01*
X650658D01*
Y1209745D01*
X643993D01*
X703974D02*
X683980D01*
X677316Y1216410D01*
Y1229739D01*
X683980Y1236403D01*
X703974D01*
X374081Y1268401D02*
Y1308388D01*
X394075D01*
X400739Y1301723D01*
Y1275065D01*
X394075Y1268401D01*
X374081D01*
X414068Y1308388D02*
X427397D01*
X420732D01*
Y1281730D01*
X414068D01*
X447391Y1308388D02*
X467384D01*
X474049Y1301723D01*
X467384Y1295059D01*
X454055D01*
X447391Y1288394D01*
X454055Y1281730D01*
X474049D01*
X494042Y1275065D02*
Y1281730D01*
X487377D01*
X500706D01*
X494042D01*
Y1301723D01*
X500706Y1308388D01*
X527364Y1281730D02*
X540694D01*
X547358Y1288394D01*
Y1308388D01*
X527364D01*
X520700Y1301723D01*
X527364Y1295059D01*
X547358D01*
X560687Y1308388D02*
Y1281730D01*
X580681D01*
X587345Y1288394D01*
Y1308388D01*
X627332Y1281730D02*
X607338D01*
X600674Y1288394D01*
Y1301723D01*
X607338Y1308388D01*
X627332D01*
X660655D02*
X647325D01*
X640661Y1301723D01*
Y1288394D01*
X647325Y1281730D01*
X660655D01*
X667319Y1288394D01*
Y1295059D01*
X640661D01*
X437394Y1347050D02*
X430729Y1340385D01*
X417400D01*
X410736Y1347050D01*
Y1353714D01*
X417400Y1360379D01*
X430729D01*
X437394Y1367043D01*
Y1373708D01*
X430729Y1380372D01*
X417400D01*
X410736Y1373708D01*
X470716Y1380372D02*
X457387D01*
X450723Y1373708D01*
Y1360379D01*
X457387Y1353714D01*
X470716D01*
X477381Y1360379D01*
Y1367043D01*
X450723D01*
X490710Y1380372D02*
Y1353714D01*
X510703D01*
X517368Y1360379D01*
Y1380372D01*
X530697D02*
X550690D01*
X557355Y1373708D01*
X550690Y1367043D01*
X537361D01*
X530697Y1360379D01*
X537361Y1353714D01*
X557355D01*
X577348Y1380372D02*
X590677D01*
X597342Y1373708D01*
Y1360379D01*
X590677Y1353714D01*
X577348D01*
X570684Y1360379D01*
Y1373708D01*
X577348Y1380372D01*
X610671Y1353714D02*
Y1380372D01*
Y1367043D01*
X617335Y1360379D01*
X624000Y1353714D01*
X630664D01*
X427397Y1412370D02*
Y1452357D01*
X447391D01*
X454055Y1445692D01*
Y1439028D01*
X447391Y1432363D01*
X427397D01*
X447391D01*
X454055Y1425698D01*
Y1419034D01*
X447391Y1412370D01*
X427397D01*
X474049Y1452357D02*
X487378D01*
X494042Y1445692D01*
Y1432363D01*
X487378Y1425698D01*
X474049D01*
X467384Y1432363D01*
Y1445692D01*
X474049Y1452357D01*
X514036Y1425698D02*
X527365D01*
X534029Y1432363D01*
Y1452357D01*
X514036D01*
X507371Y1445692D01*
X514036Y1439028D01*
X534029D01*
X547358Y1425698D02*
Y1452357D01*
Y1439028D01*
X554023Y1432363D01*
X560687Y1425698D01*
X567352D01*
X614003Y1412370D02*
Y1452357D01*
X594009D01*
X587345Y1445692D01*
Y1432363D01*
X594009Y1425698D01*
X614003D01*
X370749Y1484354D02*
Y1524341D01*
X390742D01*
X397407Y1517676D01*
Y1491018D01*
X390742Y1484354D01*
X370749D01*
X430729Y1524341D02*
X417400D01*
X410736Y1517676D01*
Y1504347D01*
X417400Y1497683D01*
X430729D01*
X437394Y1504347D01*
Y1511012D01*
X410736D01*
X450723Y1524341D02*
X470716D01*
X477381Y1517676D01*
X470716Y1511012D01*
X457387D01*
X450723Y1504347D01*
X457387Y1497683D01*
X477381D01*
X490710Y1524341D02*
X504039D01*
X497374D01*
Y1497683D01*
X490710D01*
X537361Y1537670D02*
X544026D01*
X550690Y1531005D01*
Y1497683D01*
X530697D01*
X524032Y1504347D01*
Y1517676D01*
X530697Y1524341D01*
X550690D01*
X564019D02*
Y1497683D01*
X584013D01*
X590677Y1504347D01*
Y1524341D01*
X624000D02*
X610671D01*
X604006Y1517676D01*
Y1504347D01*
X610671Y1497683D01*
X624000D01*
X630664Y1504347D01*
Y1511012D01*
X604006D01*
X670651Y1484354D02*
Y1524341D01*
X650658D01*
X643993Y1517676D01*
Y1504347D01*
X650658Y1497683D01*
X670651D01*
X487377Y1569667D02*
Y1609654D01*
X507371D01*
X514036Y1602990D01*
Y1596325D01*
Y1589661D01*
X507371Y1582996D01*
X487377D01*
X527364D02*
Y1602990D01*
X534029Y1609654D01*
X554023D01*
Y1616319D01*
X547358Y1622983D01*
X540693D01*
X554023Y1609654D02*
Y1582996D01*
X417400Y1654980D02*
X390742D01*
Y1694967D01*
X417400D01*
X390742Y1674974D02*
X404071D01*
X430729Y1668309D02*
Y1694967D01*
Y1681638D01*
X437394Y1674974D01*
X444058Y1668309D01*
X450723D01*
X470716Y1694967D02*
X484045D01*
X477381D01*
Y1668309D01*
X470716D01*
X504039Y1694967D02*
Y1654980D01*
Y1681638D02*
X524032Y1668309D01*
X504039Y1681638D02*
X524032Y1694967D01*
X584013D02*
Y1654980D01*
X610671Y1694967D01*
Y1654980D01*
X650658D02*
X624000D01*
Y1674974D01*
X637329D01*
X624000D01*
Y1694967D01*
%TF.MD5,5e43821aba91af9bf7e0958f897fa0d4*%
M02*
