%TF.GenerationSoftware,Altium Limited,Altium Designer,25.8.1 (18)*%
G04 Layer_Physical_Order=1*
G04 Layer_Color=255*
%FSLAX45Y45*%
%MOMM*%
%TF.SameCoordinates,DF05D2E2-5024-4BE0-925F-F6AC90F518B1*%
%TF.FilePolarity,Positive*%
%TF.FileFunction,Copper,L1,Top,Signal*%
%TF.Part,Single*%
G01*
G75*
%TA.AperFunction,Conductor*%
%ADD10C,0.30000*%
%TA.AperFunction,ComponentPad*%
%ADD11C,6.00000*%
%ADD12R,1.35000X1.35000*%
%ADD13C,1.35000*%
%ADD14C,1.50000*%
G36*
X560005Y2955781D02*
X618983Y2944050D01*
X675925Y2924721D01*
X729857Y2898125D01*
X779856Y2864716D01*
X825067Y2825067D01*
X864716Y2779857D01*
X898124Y2729857D01*
X924721Y2675925D01*
X944050Y2618983D01*
X955781Y2560005D01*
X959591Y2501883D01*
X959217Y2500000D01*
Y500000D01*
X959591Y498117D01*
X955781Y439995D01*
X944050Y381017D01*
X924721Y324075D01*
X898124Y270143D01*
X864716Y220144D01*
X825067Y174933D01*
X779856Y135284D01*
X729857Y101876D01*
X675925Y75279D01*
X618983Y55950D01*
X560005Y44219D01*
X501883Y40409D01*
X500000Y40784D01*
X498117Y40409D01*
X439995Y44219D01*
X381017Y55950D01*
X324075Y75279D01*
X270143Y101876D01*
X220144Y135284D01*
X174933Y174933D01*
X135284Y220144D01*
X101876Y270143D01*
X75279Y324075D01*
X55950Y381017D01*
X44219Y439995D01*
X40409Y498117D01*
X40784Y500000D01*
Y2500000D01*
X40409Y2501883D01*
X44219Y2560005D01*
X55950Y2618983D01*
X75279Y2675925D01*
X101876Y2729857D01*
X135284Y2779857D01*
X174933Y2825067D01*
X220144Y2864716D01*
X270143Y2898125D01*
X324075Y2924721D01*
X381017Y2944050D01*
X439995Y2955781D01*
X498117Y2959591D01*
X500000Y2959217D01*
X501883Y2959591D01*
X560005Y2955781D01*
D02*
G37*
%LPC*%
G36*
X525972Y2830000D02*
X474029D01*
X422725Y2821874D01*
X373324Y2805823D01*
X327043Y2782241D01*
X285019Y2751710D01*
X248290Y2714981D01*
X217759Y2672958D01*
X194177Y2626676D01*
X178126Y2577275D01*
X170000Y2525972D01*
Y2474029D01*
X178126Y2422725D01*
X194177Y2373324D01*
X217759Y2327043D01*
X248290Y2285020D01*
X285019Y2248290D01*
X327043Y2217759D01*
X373324Y2194177D01*
X422725Y2178126D01*
X474029Y2170000D01*
X525972D01*
X577275Y2178126D01*
X626676Y2194177D01*
X672958Y2217759D01*
X714981Y2248290D01*
X751710Y2285020D01*
X782241Y2327043D01*
X805823Y2373324D01*
X821874Y2422725D01*
X830000Y2474029D01*
Y2525972D01*
X821874Y2577275D01*
X805823Y2626676D01*
X782241Y2672958D01*
X751710Y2714981D01*
X714981Y2751710D01*
X672958Y2782241D01*
X626676Y2805823D01*
X577275Y2821874D01*
X525972Y2830000D01*
D02*
G37*
G36*
X217023Y1895700D02*
X189377D01*
X162672Y1888544D01*
X138729Y1874721D01*
X119179Y1855171D01*
X105356Y1831228D01*
X98200Y1804523D01*
Y1776877D01*
X105356Y1750172D01*
X119179Y1726229D01*
X138729Y1706679D01*
X162672Y1692856D01*
X189377Y1685700D01*
X217023D01*
X243728Y1692856D01*
X267671Y1706679D01*
X287221Y1726229D01*
X301044Y1750172D01*
X308200Y1776877D01*
Y1804523D01*
X301044Y1831228D01*
X287221Y1855171D01*
X267671Y1874721D01*
X243728Y1888544D01*
X217023Y1895700D01*
D02*
G37*
G36*
X812936Y1799300D02*
X787264D01*
X762466Y1792655D01*
X740234Y1779819D01*
X722081Y1761666D01*
X709245Y1739434D01*
X702600Y1714636D01*
Y1688964D01*
X709245Y1664166D01*
X722081Y1641934D01*
X740234Y1623781D01*
X762466Y1610945D01*
X772060Y1608374D01*
Y1595226D01*
X762466Y1592655D01*
X743681Y1581810D01*
X739800Y1582582D01*
X297953D01*
X287221Y1601171D01*
X267671Y1620721D01*
X243728Y1634544D01*
X217023Y1641700D01*
X189377D01*
X162672Y1634544D01*
X138729Y1620721D01*
X119179Y1601171D01*
X105356Y1577228D01*
X98200Y1550523D01*
Y1522877D01*
X105356Y1496172D01*
X119179Y1472229D01*
X138729Y1452679D01*
X162672Y1438856D01*
X189377Y1431700D01*
X217023D01*
X243728Y1438856D01*
X267671Y1452679D01*
X287221Y1472229D01*
X297953Y1490818D01*
X702600D01*
Y1488964D01*
X709245Y1464166D01*
X722081Y1441934D01*
X740234Y1423780D01*
X762466Y1410945D01*
X772060Y1408374D01*
Y1395226D01*
X762466Y1392655D01*
X740234Y1379819D01*
X722081Y1361666D01*
X714007Y1347682D01*
X286710D01*
X267671Y1366721D01*
X243728Y1380544D01*
X217023Y1387700D01*
X189377D01*
X162672Y1380544D01*
X138729Y1366721D01*
X119179Y1347171D01*
X105356Y1323228D01*
X98200Y1296523D01*
Y1268877D01*
X105356Y1242172D01*
X119179Y1218229D01*
X138729Y1198679D01*
X162672Y1184856D01*
X189377Y1177700D01*
X217023D01*
X243728Y1184856D01*
X267671Y1198679D01*
X287221Y1218229D01*
X301044Y1242172D01*
X304728Y1255918D01*
X714007D01*
X722081Y1241934D01*
X740234Y1223781D01*
X762466Y1210945D01*
X775695Y1207400D01*
X774023Y1194700D01*
X707200D01*
Y1114500D01*
X800100D01*
X893000D01*
Y1194700D01*
X826177D01*
X824505Y1207400D01*
X837734Y1210945D01*
X859966Y1223781D01*
X878119Y1241934D01*
X890955Y1264166D01*
X897600Y1288964D01*
Y1314636D01*
X890955Y1339434D01*
X878119Y1361666D01*
X859966Y1379819D01*
X837734Y1392655D01*
X828140Y1395226D01*
Y1408374D01*
X837734Y1410945D01*
X859966Y1423780D01*
X878119Y1441934D01*
X890955Y1464166D01*
X897600Y1488964D01*
Y1514636D01*
X890955Y1539434D01*
X878119Y1561666D01*
X859966Y1579819D01*
X837734Y1592655D01*
X828140Y1595226D01*
Y1608374D01*
X837734Y1610945D01*
X859966Y1623781D01*
X878119Y1641934D01*
X890955Y1664166D01*
X897600Y1688964D01*
Y1714636D01*
X890955Y1739434D01*
X878119Y1761666D01*
X859966Y1779819D01*
X837734Y1792655D01*
X812936Y1799300D01*
D02*
G37*
G36*
X216438Y1129097D02*
X215921D01*
Y1041397D01*
X303620D01*
Y1041915D01*
X296778Y1067450D01*
X283561Y1090344D01*
X264868Y1109037D01*
X241974Y1122255D01*
X216438Y1129097D01*
D02*
G37*
G36*
X190521D02*
X190003D01*
X164468Y1122255D01*
X141574Y1109037D01*
X122881Y1090344D01*
X109663Y1067450D01*
X102821Y1041915D01*
Y1041397D01*
X190521D01*
Y1129097D01*
D02*
G37*
G36*
X893000Y1089100D02*
X812800D01*
Y1008900D01*
X893000D01*
Y1089100D01*
D02*
G37*
G36*
X787400D02*
X707200D01*
Y1008900D01*
X787400D01*
Y1089100D01*
D02*
G37*
G36*
X303620Y1015997D02*
X215921D01*
Y928297D01*
X216438D01*
X241974Y935139D01*
X264868Y948357D01*
X283561Y967050D01*
X296778Y989944D01*
X303620Y1015479D01*
Y1015997D01*
D02*
G37*
G36*
X190521D02*
X102821D01*
Y1015479D01*
X109663Y989944D01*
X122881Y967050D01*
X141574Y948357D01*
X164468Y935139D01*
X190003Y928297D01*
X190521D01*
Y1015997D01*
D02*
G37*
G36*
X525972Y830000D02*
X474029D01*
X422725Y821874D01*
X373324Y805823D01*
X327043Y782241D01*
X285019Y751710D01*
X248290Y714981D01*
X217759Y672958D01*
X194177Y626676D01*
X178126Y577275D01*
X170000Y525972D01*
Y474029D01*
X178126Y422725D01*
X194177Y373324D01*
X217759Y327043D01*
X248290Y285019D01*
X285019Y248290D01*
X327043Y217759D01*
X373324Y194177D01*
X422725Y178126D01*
X474029Y170000D01*
X525972D01*
X577275Y178126D01*
X626676Y194177D01*
X672958Y217759D01*
X714981Y248290D01*
X751710Y285019D01*
X782241Y327043D01*
X805823Y373324D01*
X821874Y422725D01*
X830000Y474029D01*
Y525972D01*
X821874Y577275D01*
X805823Y626676D01*
X782241Y672958D01*
X751710Y714981D01*
X714981Y751710D01*
X672958Y782241D01*
X626676Y805823D01*
X577275Y821874D01*
X525972Y830000D01*
D02*
G37*
%LPD*%
D10*
X165100Y1282700D02*
X184200Y1301800D01*
X774700D01*
X739800Y1536700D02*
X774700Y1501800D01*
X165100Y1536700D02*
X739800D01*
D11*
X500000Y500000D02*
D03*
Y2500000D02*
D03*
D12*
X800100Y1101800D02*
D03*
D13*
Y1301800D02*
D03*
Y1501800D02*
D03*
Y1701800D02*
D03*
D14*
X203200Y1282700D02*
D03*
Y1790700D02*
D03*
Y1536700D02*
D03*
X203221Y1028697D02*
D03*
%TF.MD5,6e1c4925dd330d15329475bf7277a511*%
M02*
