%TF.GenerationSoftware,Altium Limited,Altium Designer,25.2.1 (25)*%
G04 Layer_Color=2752767*
%FSLAX43Y43*%
%MOMM*%
%TF.SameCoordinates,39A55E65-8D9E-4500-BC4D-437EC381B632*%
%TF.FilePolarity,Positive*%
%TF.FileFunction,Drawing*%
%TF.Part,Single*%
G01*
G75*
%TA.AperFunction,NonConductor*%
%ADD69C,0.127*%
%ADD70C,0.169*%
D69*
X44992Y3992D02*
X45246Y4500D01*
X44992Y5008D01*
X45500Y4754D01*
X46008Y5008D01*
X45754Y4500D01*
X46008Y3992D01*
X45500Y4246D01*
X44992Y3992D01*
X3992D02*
X4246Y4500D01*
X3992Y5008D01*
X4500Y4754D01*
X5008Y5008D01*
X4754Y4500D01*
X5008Y3992D01*
X4500Y4246D01*
X3992Y3992D01*
X44992Y44992D02*
X45246Y45500D01*
X44992Y46008D01*
X45500Y45754D01*
X46008Y46008D01*
X45754Y45500D01*
X46008Y44992D01*
X45500Y45246D01*
X44992Y44992D01*
X3992D02*
X4246Y45500D01*
X3992Y46008D01*
X4500Y45754D01*
X5008Y46008D01*
X4754Y45500D01*
X5008Y44992D01*
X4500Y45246D01*
X3992Y44992D01*
X24492Y82287D02*
Y83303D01*
X25508D01*
Y82287D01*
X24492D01*
X11992Y44887D02*
Y45903D01*
X13008D01*
Y44887D01*
X11992D01*
X36992D02*
Y45903D01*
X38008D01*
Y44887D01*
X36992D01*
X46785Y28812D02*
X46277Y29828D01*
X47293D01*
X46785Y28812D01*
Y20172D02*
X46277Y21188D01*
X47293D01*
X46785Y20172D01*
X41735Y28812D02*
X41989Y29066D01*
X42243D01*
X41989Y29320D01*
X42243Y29574D01*
X41989D01*
X41735Y29828D01*
X41481Y29574D01*
X41227D01*
X41481Y29320D01*
X41227Y29066D01*
X41481D01*
X41735Y28812D01*
Y20172D02*
X41989Y20426D01*
X42243D01*
X41989Y20680D01*
X42243Y20934D01*
X41989D01*
X41735Y21188D01*
X41481Y20934D01*
X41227D01*
X41481Y20680D01*
X41227Y20426D01*
X41481D01*
X41735Y20172D01*
X26016Y4746D02*
Y4492D01*
X26524D01*
Y4746D01*
X26778D01*
Y5254D01*
X26524D01*
Y5508D01*
X26016D01*
Y5254D01*
X25762D01*
Y4746D01*
X26016D01*
X23476D02*
Y4492D01*
X23984D01*
Y4746D01*
X24238D01*
Y5254D01*
X23984D01*
Y5508D01*
X23476D01*
Y5254D01*
X23222D01*
Y4746D01*
X23476D01*
X35992Y21242D02*
X36246D01*
X36500Y21496D01*
X36754Y21242D01*
X37008D01*
Y21496D01*
X36754Y21750D01*
X37008Y22004D01*
Y22258D01*
X36754D01*
X36500Y22004D01*
X36246Y22258D01*
X35992D01*
Y22004D01*
X36246Y21750D01*
X35992Y21496D01*
Y21242D01*
X30992Y25242D02*
X31246D01*
X31500Y25496D01*
X31754Y25242D01*
X32008D01*
Y25496D01*
X31754Y25750D01*
X32008Y26004D01*
Y26258D01*
X31754D01*
X31500Y26004D01*
X31246Y26258D01*
X30992D01*
Y26004D01*
X31246Y25750D01*
X30992Y25496D01*
Y25242D01*
X43992Y33992D02*
X44246D01*
X44500Y34246D01*
X44754Y33992D01*
X45008D01*
Y34246D01*
X44754Y34500D01*
X45008Y34754D01*
Y35008D01*
X44754D01*
X44500Y34754D01*
X44246Y35008D01*
X43992D01*
Y34754D01*
X44246Y34500D01*
X43992Y34246D01*
Y33992D01*
X38742Y27492D02*
X38996D01*
X39250Y27746D01*
X39504Y27492D01*
X39758D01*
Y27746D01*
X39504Y28000D01*
X39758Y28254D01*
Y28508D01*
X39504D01*
X39250Y28254D01*
X38996Y28508D01*
X38742D01*
Y28254D01*
X38996Y28000D01*
X38742Y27746D01*
Y27492D01*
X43992Y22492D02*
X44246D01*
X44500Y22746D01*
X44754Y22492D01*
X45008D01*
Y22746D01*
X44754Y23000D01*
X45008Y23254D01*
Y23508D01*
X44754D01*
X44500Y23254D01*
X44246Y23508D01*
X43992D01*
Y23254D01*
X44246Y23000D01*
X43992Y22746D01*
Y22492D01*
Y15242D02*
X44246D01*
X44500Y15496D01*
X44754Y15242D01*
X45008D01*
Y15496D01*
X44754Y15750D01*
X45008Y16004D01*
Y16258D01*
X44754D01*
X44500Y16004D01*
X44246Y16258D01*
X43992D01*
Y16004D01*
X44246Y15750D01*
X43992Y15496D01*
Y15242D01*
X44992Y12742D02*
X45246D01*
X45500Y12996D01*
X45754Y12742D01*
X46008D01*
Y12996D01*
X45754Y13250D01*
X46008Y13504D01*
Y13758D01*
X45754D01*
X45500Y13504D01*
X45246Y13758D01*
X44992D01*
Y13504D01*
X45246Y13250D01*
X44992Y12996D01*
Y12742D01*
X14492Y1742D02*
X14746D01*
X15000Y1996D01*
X15254Y1742D01*
X15508D01*
Y1996D01*
X15254Y2250D01*
X15508Y2504D01*
Y2758D01*
X15254D01*
X15000Y2504D01*
X14746Y2758D01*
X14492D01*
Y2504D01*
X14746Y2250D01*
X14492Y1996D01*
Y1742D01*
X9992Y20492D02*
X10246D01*
X10500Y20746D01*
X10754Y20492D01*
X11008D01*
Y20746D01*
X10754Y21000D01*
X11008Y21254D01*
Y21508D01*
X10754D01*
X10500Y21254D01*
X10246Y21508D01*
X9992D01*
Y21254D01*
X10246Y21000D01*
X9992Y20746D01*
Y20492D01*
X16492Y23492D02*
X16746D01*
X17000Y23746D01*
X17254Y23492D01*
X17508D01*
Y23746D01*
X17254Y24000D01*
X17508Y24254D01*
Y24508D01*
X17254D01*
X17000Y24254D01*
X16746Y24508D01*
X16492D01*
Y24254D01*
X16746Y24000D01*
X16492Y23746D01*
Y23492D01*
X17135Y25850D02*
X17389D01*
X17642Y26104D01*
X17896Y25850D01*
X18150D01*
Y26104D01*
X17896Y26358D01*
X18150Y26611D01*
Y26865D01*
X17896D01*
X17642Y26611D01*
X17389Y26865D01*
X17135D01*
Y26611D01*
X17389Y26358D01*
X17135Y26104D01*
Y25850D01*
X13780Y29205D02*
X14033D01*
X14288Y29458D01*
X14542Y29205D01*
X14795D01*
Y29458D01*
X14542Y29712D01*
X14795Y29966D01*
Y30221D01*
X14542D01*
X14288Y29966D01*
X14033Y30221D01*
X13780D01*
Y29966D01*
X14033Y29712D01*
X13780Y29458D01*
Y29205D01*
X15242Y29242D02*
X15496D01*
X15750Y29496D01*
X16004Y29242D01*
X16258D01*
Y29496D01*
X16004Y29750D01*
X16258Y30004D01*
Y30258D01*
X16004D01*
X15750Y30004D01*
X15496Y30258D01*
X15242D01*
Y30004D01*
X15496Y29750D01*
X15242Y29496D01*
Y29242D01*
X13242Y31492D02*
X13496D01*
X13750Y31746D01*
X14004Y31492D01*
X14258D01*
Y31746D01*
X14004Y32000D01*
X14258Y32254D01*
Y32508D01*
X14004D01*
X13750Y32254D01*
X13496Y32508D01*
X13242D01*
Y32254D01*
X13496Y32000D01*
X13242Y31746D01*
Y31492D01*
X26992Y16492D02*
X27246D01*
X27500Y16746D01*
X27754Y16492D01*
X28008D01*
Y16746D01*
X27754Y17000D01*
X28008Y17254D01*
Y17508D01*
X27754D01*
X27500Y17254D01*
X27246Y17508D01*
X26992D01*
Y17254D01*
X27246Y17000D01*
X26992Y16746D01*
Y16492D01*
Y13742D02*
X27246D01*
X27500Y13996D01*
X27754Y13742D01*
X28008D01*
Y13996D01*
X27754Y14250D01*
X28008Y14504D01*
Y14758D01*
X27754D01*
X27500Y14504D01*
X27246Y14758D01*
X26992D01*
Y14504D01*
X27246Y14250D01*
X26992Y13996D01*
Y13742D01*
X28242Y39742D02*
X28496D01*
X28750Y39996D01*
X29004Y39742D01*
X29258D01*
Y39996D01*
X29004Y40250D01*
X29258Y40504D01*
Y40758D01*
X29004D01*
X28750Y40504D01*
X28496Y40758D01*
X28242D01*
Y40504D01*
X28496Y40250D01*
X28242Y39996D01*
Y39742D01*
X17992D02*
X18246D01*
X18500Y39996D01*
X18754Y39742D01*
X19008D01*
Y39996D01*
X18754Y40250D01*
X19008Y40504D01*
Y40758D01*
X18754D01*
X18500Y40504D01*
X18246Y40758D01*
X17992D01*
Y40504D01*
X18246Y40250D01*
X17992Y39996D01*
Y39742D01*
X43912Y23892D02*
X44166D01*
X44420Y24146D01*
X44674Y23892D01*
X44928D01*
Y24146D01*
X44674Y24400D01*
X44928Y24654D01*
Y24908D01*
X44674D01*
X44420Y24654D01*
X44166Y24908D01*
X43912D01*
Y24654D01*
X44166Y24400D01*
X43912Y24146D01*
Y23892D01*
Y24892D02*
X44166D01*
X44420Y25146D01*
X44674Y24892D01*
X44928D01*
Y25146D01*
X44674Y25400D01*
X44928Y25654D01*
Y25908D01*
X44674D01*
X44420Y25654D01*
X44166Y25908D01*
X43912D01*
Y25654D01*
X44166Y25400D01*
X43912Y25146D01*
Y24892D01*
X38742Y24092D02*
X38996D01*
X39250Y24346D01*
X39504Y24092D01*
X39758D01*
Y24346D01*
X39504Y24600D01*
X39758Y24854D01*
Y25108D01*
X39504D01*
X39250Y24854D01*
X38996Y25108D01*
X38742D01*
Y24854D01*
X38996Y24600D01*
X38742Y24346D01*
Y24092D01*
Y25092D02*
X38996D01*
X39250Y25346D01*
X39504Y25092D01*
X39758D01*
Y25346D01*
X39504Y25600D01*
X39758Y25854D01*
Y26108D01*
X39504D01*
X39250Y25854D01*
X38996Y26108D01*
X38742D01*
Y25854D01*
X38996Y25600D01*
X38742Y25346D01*
Y25092D01*
X35992Y22992D02*
X36246D01*
X36500Y23246D01*
X36754Y22992D01*
X37008D01*
Y23246D01*
X36754Y23500D01*
X37008Y23754D01*
Y24008D01*
X36754D01*
X36500Y23754D01*
X36246Y24008D01*
X35992D01*
Y23754D01*
X36246Y23500D01*
X35992Y23246D01*
Y22992D01*
Y23992D02*
X36246D01*
X36500Y24246D01*
X36754Y23992D01*
X37008D01*
Y24246D01*
X36754Y24500D01*
X37008Y24754D01*
Y25008D01*
X36754D01*
X36500Y24754D01*
X36246Y25008D01*
X35992D01*
Y24754D01*
X36246Y24500D01*
X35992Y24246D01*
Y23992D01*
D70*
X44243Y21400D02*
G03*
X44243Y21400I-508J0D01*
G01*
X44178Y28600D02*
G03*
X44178Y28600I-508J0D01*
G01*
%TF.MD5,ab3835742d33a6b384dad291663792d3*%
M02*
