%TF.GenerationSoftware,Altium Limited,Altium Designer,25.2.1 (25)*%
G04 Layer_Color=128*
%FSLAX43Y43*%
%MOMM*%
%TF.SameCoordinates,39A55E65-8D9E-4500-BC4D-437EC381B632*%
%TF.FilePolarity,Positive*%
%TF.FileFunction,Drillmap*%
%TF.Part,Single*%
G01*
G75*
%TA.AperFunction,NonConductor*%
%ADD69C,0.127*%
D69*
X43750Y4500D02*
X47250D01*
X45500Y2750D02*
Y6250D01*
X2750Y4500D02*
X6250D01*
X4500Y2750D02*
Y6250D01*
X43750Y45500D02*
X47250D01*
X45500Y43750D02*
Y47250D01*
X2750Y45500D02*
X6250D01*
X4500Y43750D02*
Y47250D01*
X23400Y82795D02*
X26600D01*
X25000Y81195D02*
Y84395D01*
X10900Y45395D02*
X14100D01*
X12500Y43795D02*
Y46995D01*
X35900Y45395D02*
X39100D01*
X37500Y43795D02*
Y46995D01*
X43360Y21400D02*
X44110D01*
X43735Y21025D02*
Y21775D01*
X43295Y28600D02*
X44045D01*
X43670Y28225D02*
Y28975D01*
X45910Y29320D02*
X47660D01*
X46785Y28445D02*
Y30195D01*
X45910Y20680D02*
X47660D01*
X46785Y19805D02*
Y21555D01*
X40985Y29320D02*
X42485D01*
X41735Y28570D02*
Y30070D01*
X40985Y20680D02*
X42485D01*
X41735Y19930D02*
Y21430D01*
X25695Y5000D02*
X26845D01*
X26270Y4425D02*
Y5575D01*
X23155Y5000D02*
X24305D01*
X23730Y4425D02*
Y5575D01*
X36350Y21750D02*
X36650D01*
X36500Y21600D02*
Y21900D01*
X31350Y25750D02*
X31650D01*
X31500Y25600D02*
Y25900D01*
X44350Y34500D02*
X44650D01*
X44500Y34350D02*
Y34650D01*
X39100Y28000D02*
X39400D01*
X39250Y27850D02*
Y28150D01*
X44350Y23000D02*
X44650D01*
X44500Y22850D02*
Y23150D01*
X44350Y15750D02*
X44650D01*
X44500Y15600D02*
Y15900D01*
X45350Y13250D02*
X45650D01*
X45500Y13100D02*
Y13400D01*
X14850Y2250D02*
X15150D01*
X15000Y2100D02*
Y2400D01*
X10350Y21000D02*
X10650D01*
X10500Y20850D02*
Y21150D01*
X16850Y24000D02*
X17150D01*
X17000Y23850D02*
Y24150D01*
X17493Y26358D02*
X17792D01*
X17642Y26208D02*
Y26507D01*
X14137Y29712D02*
X14438D01*
X14288Y29562D02*
Y29862D01*
X15600Y29750D02*
X15900D01*
X15750Y29600D02*
Y29900D01*
X13600Y32000D02*
X13900D01*
X13750Y31850D02*
Y32150D01*
X27350Y17000D02*
X27650D01*
X27500Y16850D02*
Y17150D01*
X27350Y14250D02*
X27650D01*
X27500Y14100D02*
Y14400D01*
X28600Y40250D02*
X28900D01*
X28750Y40100D02*
Y40400D01*
X18350Y40250D02*
X18650D01*
X18500Y40100D02*
Y40400D01*
X44270Y24400D02*
X44570D01*
X44420Y24250D02*
Y24550D01*
X44270Y25400D02*
X44570D01*
X44420Y25250D02*
Y25550D01*
X39100Y24600D02*
X39400D01*
X39250Y24450D02*
Y24750D01*
X39100Y25600D02*
X39400D01*
X39250Y25450D02*
Y25750D01*
X36350Y23500D02*
X36650D01*
X36500Y23350D02*
Y23650D01*
X36350Y24500D02*
X36650D01*
X36500Y24350D02*
Y24650D01*
%TF.MD5,039403223e6b091c903b46420c8989a5*%
M02*
