%TF.GenerationSoftware,Altium Limited,Altium Designer,25.2.1 (25)*%
G04 Layer_Color=16711833*
%FSLAX43Y43*%
%MOMM*%
%TF.SameCoordinates,39A55E65-8D9E-4500-BC4D-437EC381B632*%
%TF.FilePolarity,Positive*%
%TF.FileFunction,Other,Mechanical_13*%
%TF.Part,Single*%
G01*
G75*
%TA.AperFunction,NonConductor*%
%ADD37C,0.200*%
%ADD38C,0.100*%
D37*
X40000Y42895D02*
Y85395D01*
X10000D02*
X40000D01*
X10000Y42895D02*
X40000D01*
X10000D02*
Y85395D01*
X14350Y22400D02*
Y25600D01*
X15650D01*
Y22400D02*
Y25600D01*
X14350Y22400D02*
X15650D01*
D38*
X44875Y10000D02*
Y12000D01*
X46125D01*
Y10000D02*
Y12000D01*
X44875Y10000D02*
X46125D01*
X14880Y41200D02*
X35120D01*
Y32800D02*
Y41200D01*
X14880Y32800D02*
Y41200D01*
Y32800D02*
X35120D01*
X14375Y5500D02*
X15625D01*
X14375Y3500D02*
Y5500D01*
Y3500D02*
X15625D01*
Y5500D01*
X14200Y18400D02*
X15800D01*
Y17600D02*
Y18400D01*
X14200Y17600D02*
X15800D01*
X14200D02*
Y18400D01*
X21250Y13600D02*
Y26400D01*
Y13600D02*
X28750D01*
Y26400D01*
X21250D02*
X28750D01*
X35050Y21350D02*
Y22150D01*
X33450D02*
X35050D01*
X33450Y21350D02*
Y22150D01*
Y21350D02*
X35050D01*
X12375Y5500D02*
X13625D01*
X12375Y3500D02*
Y5500D01*
Y3500D02*
X13625D01*
Y5500D01*
X14200Y19900D02*
X15800D01*
Y19100D02*
Y19900D01*
X14200Y19100D02*
X15800D01*
X14200D02*
Y19900D01*
Y20600D02*
X15800D01*
X14200D02*
Y21400D01*
X15800D01*
Y20600D02*
Y21400D01*
X14200Y26600D02*
Y27400D01*
Y26600D02*
X15800D01*
Y27400D01*
X14200D02*
X15800D01*
X33450Y24350D02*
X35050D01*
X33450D02*
Y25150D01*
X35050D01*
Y24350D02*
Y25150D01*
X33450Y22850D02*
X35050D01*
X33450D02*
Y23650D01*
X35050D01*
Y22850D02*
Y23650D01*
X14200Y28100D02*
Y28900D01*
Y28100D02*
X15800D01*
Y28900D01*
X14200D02*
X15800D01*
X40915Y20530D02*
X49085D01*
Y29470D01*
X40915D02*
X49085D01*
X40915Y20530D02*
Y29470D01*
X44100Y31700D02*
Y33300D01*
X44900D01*
Y31700D02*
Y33300D01*
X44100Y31700D02*
X44900D01*
X44100Y16700D02*
Y18300D01*
X44900D01*
Y16700D02*
Y18300D01*
X44100Y16700D02*
X44900D01*
X28683Y938D02*
Y7542D01*
X21317D02*
X28683D01*
X21317Y938D02*
Y7542D01*
Y938D02*
X28683D01*
%TF.MD5,a964489d35410512f94f77f584f2a735*%
M02*
