%TF.GenerationSoftware,Altium Limited,Altium Designer,25.2.1 (25)*%
G04 Layer_Color=8388736*
%FSLAX43Y43*%
%MOMM*%
%TF.SameCoordinates,39A55E65-8D9E-4500-BC4D-437EC381B632*%
%TF.FilePolarity,Negative*%
%TF.FileFunction,Soldermask,Top*%
%TF.Part,Single*%
G01*
G75*
%TA.AperFunction,SMDPad,CuDef*%
%ADD42R,1.400X0.750*%
%TA.AperFunction,ConnectorPad*%
%ADD43R,1.474X1.984*%
%TA.AperFunction,SMDPad,CuDef*%
%ADD44R,2.050X0.550*%
G04:AMPARAMS|DCode=45|XSize=1.4mm|YSize=0.75mm|CornerRadius=0.135mm|HoleSize=0mm|Usage=FLASHONLY|Rotation=180.000|XOffset=0mm|YOffset=0mm|HoleType=Round|Shape=RoundedRectangle|*
%AMROUNDEDRECTD45*
21,1,1.400,0.480,0,0,180.0*
21,1,1.130,0.750,0,0,180.0*
1,1,0.270,-0.565,0.240*
1,1,0.270,0.565,0.240*
1,1,0.270,0.565,-0.240*
1,1,0.270,-0.565,-0.240*
%
%ADD45ROUNDEDRECTD45*%
%ADD46R,0.800X0.850*%
%ADD47R,2.000X0.800*%
%ADD48R,0.950X0.420*%
%ADD49R,1.050X0.420*%
%ADD50R,0.850X0.800*%
%TA.AperFunction,ComponentPad*%
%ADD51C,6.150*%
%ADD52C,5.150*%
%ADD53C,1.400*%
%ADD54C,2.900*%
%ADD55C,2.400*%
%ADD56C,1.875*%
%TA.AperFunction,ViaPad*%
%ADD57C,0.850*%
D42*
X45500Y10100D02*
D03*
Y11900D02*
D03*
D43*
X33890Y32175D02*
D03*
X31350D02*
D03*
X28810D02*
D03*
X26270D02*
D03*
X23730D02*
D03*
X21190D02*
D03*
X18650D02*
D03*
X16110D02*
D03*
X33890Y41825D02*
D03*
X31350D02*
D03*
X28810D02*
D03*
X26270D02*
D03*
X23730D02*
D03*
X21190D02*
D03*
X18650D02*
D03*
X16110D02*
D03*
D44*
X15000Y25200D02*
D03*
Y24000D02*
D03*
Y22800D02*
D03*
D45*
X15000Y5400D02*
D03*
Y3600D02*
D03*
X13000Y5400D02*
D03*
Y3600D02*
D03*
D46*
X14325Y18000D02*
D03*
X15675D02*
D03*
X33575Y21750D02*
D03*
X34925D02*
D03*
X14325Y19500D02*
D03*
X15675D02*
D03*
Y21000D02*
D03*
X14325D02*
D03*
X15675Y27000D02*
D03*
X14325D02*
D03*
X34925Y24750D02*
D03*
X33575D02*
D03*
X34925Y23250D02*
D03*
X33575D02*
D03*
X15675Y28500D02*
D03*
X14325D02*
D03*
D47*
X29675Y25715D02*
D03*
Y24445D02*
D03*
Y23175D02*
D03*
Y21905D02*
D03*
Y20635D02*
D03*
Y19365D02*
D03*
Y18095D02*
D03*
Y16825D02*
D03*
Y15555D02*
D03*
Y14285D02*
D03*
X20325D02*
D03*
Y15555D02*
D03*
Y16825D02*
D03*
Y18095D02*
D03*
Y19365D02*
D03*
Y20635D02*
D03*
Y21905D02*
D03*
Y23175D02*
D03*
Y24445D02*
D03*
Y25715D02*
D03*
D48*
X42635Y22125D02*
D03*
Y22625D02*
D03*
Y23125D02*
D03*
Y23625D02*
D03*
Y24125D02*
D03*
Y24625D02*
D03*
Y25125D02*
D03*
Y25625D02*
D03*
Y26125D02*
D03*
Y26625D02*
D03*
Y27125D02*
D03*
Y27625D02*
D03*
D49*
X41035Y27875D02*
D03*
Y27375D02*
D03*
Y26875D02*
D03*
Y26375D02*
D03*
Y25875D02*
D03*
Y25375D02*
D03*
Y24875D02*
D03*
Y24375D02*
D03*
Y23875D02*
D03*
Y23375D02*
D03*
Y22875D02*
D03*
Y22375D02*
D03*
D50*
X44500Y31825D02*
D03*
Y33175D02*
D03*
Y16825D02*
D03*
Y18175D02*
D03*
D51*
X45500Y4500D02*
D03*
X4500D02*
D03*
X45500Y45500D02*
D03*
X4500D02*
D03*
D52*
X25000Y82795D02*
D03*
X12500Y45395D02*
D03*
X37500D02*
D03*
D53*
X43735Y21400D02*
D03*
X43670Y28600D02*
D03*
D54*
X46785Y29320D02*
D03*
Y20680D02*
D03*
D55*
X41735Y29320D02*
D03*
Y20680D02*
D03*
D56*
X26270Y5000D02*
D03*
X23730D02*
D03*
D57*
X36500Y21750D02*
D03*
X31500Y25750D02*
D03*
X44500Y34500D02*
D03*
X39250Y28000D02*
D03*
X44500Y23000D02*
D03*
Y15750D02*
D03*
X45500Y13250D02*
D03*
X15000Y2250D02*
D03*
X10500Y21000D02*
D03*
X17000Y24000D02*
D03*
X17642Y26358D02*
D03*
X14288Y29712D02*
D03*
X15750Y29750D02*
D03*
X13750Y32000D02*
D03*
X27500Y17000D02*
D03*
Y14250D02*
D03*
X28750Y40250D02*
D03*
X18500D02*
D03*
X44420Y24400D02*
D03*
Y25400D02*
D03*
X39250Y24600D02*
D03*
Y25600D02*
D03*
X36500Y23500D02*
D03*
Y24500D02*
D03*
%TF.MD5,31825dfb2df1358e4967fd5095873985*%
M02*
