%TF.GenerationSoftware,Altium Limited,Altium Designer,25.2.1 (25)*%
G04 Layer_Color=255*
%FSLAX43Y43*%
%MOMM*%
%TF.SameCoordinates,39A55E65-8D9E-4500-BC4D-437EC381B632*%
%TF.FilePolarity,Positive*%
%TF.FileFunction,Pads,Bot*%
%TF.Part,Single*%
G01*
G75*
%TA.AperFunction,ComponentPad*%
%ADD24C,6.000*%
%ADD25C,5.000*%
%ADD26C,1.250*%
%ADD27C,2.750*%
%ADD28C,2.250*%
%ADD29C,1.725*%
%TA.AperFunction,SMDPad,CuDef*%
%AMCUSTOMSHAPE31*
4,1,4,0.300,0.425,-0.300,-0.175,-0.300,-0.425,0.300,-0.425,0.300,0.425,0.0*%
%ADD31CUSTOMSHAPE31*%

%AMCUSTOMSHAPE32*
4,1,4,0.300,-0.175,-0.300,0.425,-0.300,-0.425,0.300,-0.425,0.300,-0.175,0.0*%
%ADD32CUSTOMSHAPE32*%

%AMCUSTOMSHAPE33*
4,1,5,0.600,0.625,0.600,-0.025,0.000,-0.625,-0.600,-0.025,-0.600,0.625,0.600,0.625,0.0*%
%ADD33CUSTOMSHAPE33*%

D24*
X45500Y4500D02*
D03*
X4500D02*
D03*
X45500Y45500D02*
D03*
X4500D02*
D03*
D25*
X25000Y82795D02*
D03*
X12500Y45395D02*
D03*
X37500D02*
D03*
D26*
X43735Y21400D02*
D03*
X43670Y28600D02*
D03*
D27*
X46785Y29320D02*
D03*
Y20680D02*
D03*
D28*
X41735Y29320D02*
D03*
Y20680D02*
D03*
D29*
X26270Y5000D02*
D03*
X23730D02*
D03*
D31*
X18300Y34425D02*
D03*
X29800D02*
D03*
X20800D02*
D03*
X27300D02*
D03*
D32*
X17700D02*
D03*
X29200D02*
D03*
X20200D02*
D03*
X26700D02*
D03*
D33*
X18000Y35350D02*
D03*
X29500D02*
D03*
X20500D02*
D03*
X27000D02*
D03*
%TF.MD5,aad4ab7d4b7d46cd119298229cdef928*%
M02*
