%TF.GenerationSoftware,Altium Limited,Altium Designer,25.2.1 (25)*%
G04 Layer_Physical_Order=4*
G04 Layer_Color=16711680*
%FSLAX43Y43*%
%MOMM*%
%TF.SameCoordinates,39A55E65-8D9E-4500-BC4D-437EC381B632*%
%TF.FilePolarity,Positive*%
%TF.FileFunction,Copper,L4,Bot,Signal*%
%TF.Part,Single*%
G01*
G75*
%TA.AperFunction,NonConductor*%
%ADD10C,0.203*%
%TA.AperFunction,Conductor*%
%ADD11C,0.230*%
%TA.AperFunction,ComponentPad*%
%ADD24C,6.000*%
%ADD25C,5.000*%
%ADD26C,1.250*%
%ADD27C,2.750*%
%ADD28C,2.250*%
%ADD29C,1.725*%
%TA.AperFunction,ViaPad*%
%ADD30C,0.700*%
%TA.AperFunction,SMDPad,CuDef*%
%AMCUSTOMSHAPE31*
4,1,4,0.300,0.425,-0.300,-0.175,-0.300,-0.425,0.300,-0.425,0.300,0.425,0.0*%
%ADD31CUSTOMSHAPE31*%

%AMCUSTOMSHAPE32*
4,1,4,0.300,-0.175,-0.300,0.425,-0.300,-0.425,0.300,-0.425,0.300,-0.175,0.0*%
%ADD32CUSTOMSHAPE32*%

%AMCUSTOMSHAPE33*
4,1,5,0.600,0.625,0.600,-0.025,0.000,-0.625,-0.600,-0.025,-0.600,0.625,0.600,0.625,0.0*%
%ADD33CUSTOMSHAPE33*%

%TA.AperFunction,Conductor*%
%ADD34C,0.100*%
D10*
X49498Y45500D02*
G03*
X45500Y49498I-3998J0D01*
G01*
X46005Y27543D02*
G03*
X45856Y27584I-505J-1543D01*
G01*
X45783Y27599D02*
G03*
X45500Y27624I-283J-1599D01*
G01*
X47124Y26000D02*
G03*
X47099Y26283I-1624J0D01*
G01*
D02*
G03*
X46005Y27543I-1599J-283D01*
G01*
X43000Y27624D02*
G03*
X42717Y27599I0J-1624D01*
G01*
D02*
G03*
X41376Y26000I283J-1599D01*
G01*
X47091Y25208D02*
G03*
X47124Y25500I-1262J292D01*
G01*
X46120Y24238D02*
G03*
X47091Y25208I-292J1262D01*
G01*
X45829Y24205D02*
G03*
X46120Y24238I0J1295D01*
G01*
X45500Y502D02*
G03*
X49498Y4500I0J3998D01*
G01*
X41171Y25795D02*
G03*
X41376Y26000I0J205D01*
G01*
X37974Y24658D02*
G03*
X37679Y24695I-296J-1158D01*
G01*
X38498Y24370D02*
G03*
X37974Y24658I-820J-870D01*
G01*
X43849Y23467D02*
G03*
X43874Y23750I-1599J283D01*
G01*
X42551Y22154D02*
G03*
X43849Y23467I-301J1596D01*
G01*
X37486Y23305D02*
G03*
X37517Y23100I1264J88D01*
G01*
D02*
G03*
X38457Y22160I1233J293D01*
G01*
X42250Y22126D02*
G03*
X42533Y22151I0J1624D01*
G01*
X38457Y22160D02*
G03*
X38750Y22126I293J1233D01*
G01*
X4500Y49498D02*
G03*
X502Y45500I0J-3998D01*
G01*
Y4500D02*
G03*
X4500Y502I3998J0D01*
G01*
X48410Y47692D02*
X48664Y47945D01*
X48770Y47333D02*
X48953Y47516D01*
X47534Y48943D02*
X48943Y47534D01*
X47201Y48902D02*
X48902Y47201D01*
Y46028D02*
X49372Y46498D01*
X48902Y46138D02*
X49498Y45541D01*
X48902Y46746D02*
X49192Y47036D01*
X48902Y46856D02*
X49407Y46351D01*
X46351Y49407D02*
X46856Y48902D01*
X46746D02*
X47036Y49192D01*
X45541Y49498D02*
X46138Y48902D01*
X46028D02*
X46498Y49372D01*
X48051Y48051D02*
X48327Y48327D01*
X48051Y48051D02*
X48327Y48327D01*
X47333Y48770D02*
X47516Y48953D01*
X47692Y48410D02*
X47945Y48664D01*
X48902Y43983D02*
X49498Y43386D01*
X48634Y43532D02*
X49498Y42667D01*
X48275Y43172D02*
X49498Y41949D01*
X47916Y42813D02*
X49498Y41230D01*
X47556Y42454D02*
X49498Y40512D01*
X47194Y42098D02*
X49498Y39794D01*
X46475Y42098D02*
X49498Y39075D01*
X45757Y42098D02*
X49498Y38357D01*
X48902Y45419D02*
X49498Y44823D01*
X48902Y44591D02*
X49498Y45188D01*
X48902Y45310D02*
X49480Y45887D01*
X48902Y43799D02*
Y47201D01*
Y44701D02*
X49498Y44104D01*
X48902Y43873D02*
X49498Y44469D01*
X47127Y42098D02*
X48902Y43873D01*
X47201Y42098D02*
X48902Y43799D01*
X44591Y48902D02*
X45188Y49498D01*
X44823D02*
X45419Y48902D01*
X43873D02*
X44469Y49498D01*
X44104D02*
X44701Y48902D01*
X45310D02*
X45887Y49480D01*
X43799Y48902D02*
X47201D01*
X44320Y42098D02*
X49498Y36920D01*
X42667Y49498D02*
X43532Y48634D01*
X41949Y49498D02*
X43172Y48275D01*
X40391Y46857D02*
X43033Y49498D01*
X40402Y46149D02*
X43751Y49498D01*
X43386D02*
X43983Y48902D01*
X42098Y43799D02*
X43799Y42098D01*
X42098Y47201D02*
X43799Y48902D01*
X42098Y47127D02*
X43873Y48902D01*
X40360Y43903D02*
X49498Y34765D01*
X40001Y43544D02*
X49498Y34046D01*
X39642Y43184D02*
X49498Y33328D01*
X39283Y42825D02*
X49498Y32609D01*
X38896Y42493D02*
X49498Y31891D01*
X38178Y42493D02*
X49498Y31173D01*
X37459Y42493D02*
X49498Y30454D01*
X36741Y42493D02*
X49498Y29736D01*
X40402Y45298D02*
X49498Y36202D01*
X40402Y44580D02*
X49498Y35483D01*
X28299Y49498D02*
X46701Y31097D01*
X29017Y49498D02*
X47419Y31097D01*
X29717Y28280D02*
X43667Y42230D01*
X29717Y27562D02*
X44254Y42098D01*
X29717Y29717D02*
X42949Y42949D01*
X29717Y28998D02*
X43308Y42590D01*
X48365Y30405D02*
X49498Y31538D01*
X48562Y29883D02*
X49498Y30819D01*
X47620Y31097D02*
X49498Y32975D01*
X48006Y30764D02*
X49498Y32256D01*
X48562Y28446D02*
X49498Y29383D01*
X48562Y29236D02*
X49498Y28299D01*
X48562Y29164D02*
X49498Y30101D01*
X48562Y29954D02*
X49498Y29017D01*
X46183Y31097D02*
X49498Y34412D01*
X46902Y31097D02*
X49498Y33693D01*
X45038Y42098D02*
X49498Y37638D01*
X45897Y31097D02*
X47673D01*
X48562Y30208D01*
Y28432D02*
Y30208D01*
X45500Y27624D02*
X45758D01*
X45584D02*
X45700Y27740D01*
X48562Y28517D02*
X49498Y27580D01*
X47673Y27543D02*
X48562Y28432D01*
X47659Y27543D02*
X48562Y28446D01*
X47108Y26274D02*
X49498Y28664D01*
X48245Y28115D02*
X49498Y26862D01*
X47886Y27756D02*
X49498Y26144D01*
X46005Y27543D02*
X47673D01*
X46914Y26798D02*
X47659Y27543D01*
X46162Y27483D02*
X46222Y27543D01*
X45008Y28478D02*
X45917Y27569D01*
X47124Y26000D02*
Y26258D01*
X46596Y27198D02*
X46941Y27543D01*
X43799Y42098D02*
X47201D01*
X42779Y30566D02*
X49498Y37285D01*
X41623Y30847D02*
X49498Y38722D01*
X42341Y30847D02*
X49498Y38004D01*
X45008Y30208D02*
X45897Y31097D01*
X43995Y29627D02*
X49498Y35130D01*
X43138Y30207D02*
X49498Y36567D01*
X43277Y29627D02*
X49498Y35848D01*
X44448Y29362D02*
X45008Y29922D01*
Y28432D02*
Y30208D01*
X42498Y30847D02*
X43262Y30083D01*
Y29627D02*
Y30083D01*
X44697Y28891D02*
X45008Y29203D01*
X44697Y28790D02*
X45008Y28478D01*
X43262Y29627D02*
X44183D01*
X44697Y29113D01*
Y28173D02*
X45008Y28485D01*
Y28432D02*
X45856Y27584D01*
X29717Y26843D02*
X44972Y42098D01*
X29717Y26125D02*
X45691Y42098D01*
X44689Y28079D02*
X45144Y27624D01*
X44866D02*
X45341Y28099D01*
X44234Y27624D02*
X44697Y28087D01*
X44234Y27624D02*
X45500D01*
X44697Y28087D02*
Y29113D01*
X44330Y27720D02*
X44426Y27624D01*
X42659Y27954D02*
X42989Y27624D01*
X42717Y28013D02*
X43106Y27624D01*
X42742D02*
X43000D01*
X43106D01*
X39313Y47934D02*
X40877Y49498D01*
X39672Y47575D02*
X41596Y49498D01*
X38239Y48297D02*
X39441Y49498D01*
X38954Y48294D02*
X40159Y49498D01*
X41230D02*
X42813Y47916D01*
X40512Y49498D02*
X42454Y47556D01*
X36049Y48297D02*
X38951D01*
X40032Y47216D02*
X42314Y49498D01*
X36084Y48297D02*
X37285Y49498D01*
X36202D02*
X37403Y48297D01*
X35483Y49498D02*
X36685Y48297D01*
X34765Y49498D02*
X36008Y48255D01*
X37520Y48297D02*
X38722Y49498D01*
X37638D02*
X38840Y48297D01*
X36802D02*
X38004Y49498D01*
X36920D02*
X38122Y48297D01*
X40402Y45431D02*
X42098Y47127D01*
Y43799D02*
Y47201D01*
X39075Y49498D02*
X42098Y46475D01*
X38357Y49498D02*
X42098Y45757D01*
X40402Y46017D02*
X42098Y44320D01*
X40402Y43994D02*
X42098Y45691D01*
X40402Y46735D02*
X42098Y45038D01*
X40402Y44712D02*
X42098Y46409D01*
X39794Y49498D02*
X42098Y47194D01*
X38951Y48297D02*
X40402Y46846D01*
X38840Y48297D02*
X40402Y46735D01*
X34598Y43944D02*
Y46846D01*
X40402Y43944D02*
Y46846D01*
X38951Y42493D02*
X40402Y43944D01*
X36049Y42493D02*
X38951D01*
X38901D02*
X40402Y43994D01*
X34046Y49498D02*
X35649Y47896D01*
X34598Y46846D02*
X36049Y48297D01*
X33328Y49498D02*
X35289Y47537D01*
X32609Y49498D02*
X34930Y47178D01*
X34598Y46812D02*
X36084Y48297D01*
X34598Y43944D02*
X36049Y42493D01*
X29316Y40811D02*
X34598Y46093D01*
X29502Y40278D02*
X34598Y45375D01*
X31891Y49498D02*
X34598Y46791D01*
X31173Y49498D02*
X34598Y46072D01*
X30454Y49498D02*
X34598Y45354D01*
X29736Y49498D02*
X34598Y44636D01*
X28788Y41002D02*
X34598Y46812D01*
X29126Y41002D02*
X29502Y40626D01*
X28374Y41002D02*
X29126D01*
X27998Y40626D02*
X28374Y41002D01*
X29717Y31154D02*
X42230Y43667D01*
X29717Y30435D02*
X42590Y43308D01*
X29717Y32590D02*
X42098Y44972D01*
X29717Y31872D02*
X42098Y44254D01*
X30509Y34820D02*
X38183Y42493D01*
X30509Y34102D02*
X38901Y42493D01*
X30509Y35538D02*
X37465Y42493D01*
X29717Y29717D02*
X42949Y42949D01*
X30017Y38638D02*
X34961Y43582D01*
X30017Y37919D02*
X35320Y43223D01*
X29859Y39917D02*
X34598Y44656D01*
X30017Y39356D02*
X34602Y43941D01*
X30017Y36483D02*
X36038Y42504D01*
X30441Y36188D02*
X36746Y42493D01*
X27998Y39874D02*
Y40626D01*
X30017Y37201D02*
X35679Y42863D01*
X30509Y35325D02*
Y35975D01*
X30478Y35007D02*
X30509Y34850D01*
X30478Y36132D02*
X30509Y35975D01*
X30478Y35168D02*
X30509Y35325D01*
X40972Y30847D02*
X42498D01*
X40208Y30083D02*
X40972Y30847D01*
X30509Y34000D02*
Y34850D01*
X30478Y33843D02*
X30509Y34000D01*
X30390Y36265D02*
X30478Y36132D01*
X30424Y35088D02*
X30478Y35168D01*
X30100Y36384D02*
X30257Y36353D01*
X30390Y36265D01*
X30424Y35088D02*
X30478Y35007D01*
X30390Y33710D02*
X30478Y33843D01*
X30257Y33622D02*
X30390Y33710D01*
X30100Y33591D02*
X30257Y33622D01*
X42643Y28087D02*
X42717Y28013D01*
X42679Y27592D02*
X42908Y27822D01*
X42498Y27793D02*
X42717Y28013D01*
X39814Y26164D02*
X41443Y27793D01*
X42101D02*
X42390Y27505D01*
X41383Y27793D02*
X41943Y27233D01*
X40972Y27793D02*
X42498D01*
X40208Y28557D02*
Y30083D01*
Y28557D02*
X40972Y27793D01*
X30453Y35131D02*
X39233Y26352D01*
X30509Y34356D02*
X38694Y26172D01*
X39283Y26352D02*
X40848Y27917D01*
X39626Y26352D02*
X40002Y25976D01*
X38874Y26352D02*
X39626D01*
X38498Y25976D02*
X38874Y26352D01*
X29758Y40017D02*
X30017Y39758D01*
X29758Y40017D02*
X30017Y39758D01*
X29502Y40274D02*
Y40626D01*
Y40274D02*
X29758Y40017D01*
X30017Y36384D02*
Y39242D01*
Y36384D02*
X30100D01*
X30017Y39242D02*
Y39758D01*
Y39242D02*
Y39758D01*
X28726Y39498D02*
X28983Y39242D01*
Y36384D02*
Y39242D01*
X27998Y39874D02*
X28374Y39498D01*
X28726D01*
X28900Y36384D02*
X28983D01*
X28743Y36353D02*
X28900Y36384D01*
X27757Y36353D02*
X27890Y36265D01*
X28610D02*
X28743Y36353D01*
X30017Y38441D02*
X41613Y26845D01*
X30017Y37723D02*
X41410Y26330D01*
X29502Y40393D02*
X40208Y29686D01*
X30017Y39159D02*
X40208Y28968D01*
X29717Y33591D02*
X30100D01*
X29717Y33309D02*
X29998Y33591D01*
X28522Y36132D02*
X28610Y36265D01*
X28009Y35912D02*
X28983Y36886D01*
X27978Y36132D02*
X28009Y35975D01*
X28491D02*
X28522Y36132D01*
X27890Y36265D02*
X27978Y36132D01*
X27903Y36244D02*
X28280Y35867D01*
X28009D02*
X28491D01*
Y35975D01*
X28009Y35867D02*
Y35975D01*
X47124Y25571D02*
X49498Y27946D01*
X47380Y27543D02*
X49498Y25425D01*
X46662Y27543D02*
X49498Y24707D01*
X47069Y26417D02*
X49498Y23988D01*
X47124Y25644D02*
X49498Y23270D01*
X47031Y25019D02*
X49498Y22552D01*
X45690Y24205D02*
X47438Y22457D01*
X45897D02*
X47673D01*
X47124Y25500D02*
Y26000D01*
Y25242D02*
Y25500D01*
X45829Y24205D02*
X46087D01*
X45172D02*
X45829D01*
X45172Y24024D02*
Y24205D01*
X48562Y20543D02*
X49498Y21480D01*
Y4500D02*
Y45500D01*
X48562Y21262D02*
X49498Y22198D01*
X46314Y24299D02*
X49498Y21115D01*
X48562Y20615D02*
X49498Y19678D01*
X48562Y19896D02*
X49498Y18959D01*
X48562Y21333D02*
X49498Y20396D01*
X48562Y19825D02*
X49498Y20762D01*
X46883Y22457D02*
X49498Y25072D01*
X47601Y22457D02*
X49498Y24354D01*
X46165Y22457D02*
X49498Y25791D01*
X46746Y24586D02*
X49498Y21833D01*
X48356Y21774D02*
X49498Y22917D01*
X48562Y19792D02*
Y21568D01*
X47997Y22133D02*
X49498Y23635D01*
X47673Y22457D02*
X48562Y21568D01*
X29717Y24688D02*
X47127Y42098D01*
X29717Y22533D02*
X49498Y42314D01*
X29717Y23969D02*
X49498Y43751D01*
X29717Y23251D02*
X49498Y43033D01*
X44473Y22202D02*
X49498Y27227D01*
X44762Y21772D02*
X49498Y26509D01*
X29717Y21814D02*
X49498Y41596D01*
X29717Y21096D02*
X49498Y40877D01*
X44796Y23648D02*
X45172Y24024D01*
X45162Y24014D02*
X46720Y22457D01*
X29717Y25406D02*
X46409Y42098D01*
X43979Y22427D02*
X45757Y24205D01*
X44803Y23655D02*
X46001Y22457D01*
X45008Y21568D02*
X45897Y22457D01*
X44091Y23648D02*
X45590Y22150D01*
X43789Y23232D02*
X45231Y21790D01*
X29717Y27246D02*
X49498Y7465D01*
X29717Y26528D02*
X49498Y6746D01*
X29717Y28683D02*
X49498Y8902D01*
X29717Y27965D02*
X49498Y8183D01*
X36982Y22855D02*
X49498Y10338D01*
X36370Y22748D02*
X49498Y9620D01*
X29717Y25809D02*
X49498Y6028D01*
X29957Y502D02*
X49498Y20043D01*
X29717Y25091D02*
X46906Y7902D01*
X29717Y24373D02*
X46188Y7902D01*
X29717Y20377D02*
X49498Y40159D01*
X29717Y19659D02*
X49498Y39441D01*
X44370Y20495D02*
X45008Y19857D01*
X43774Y20373D02*
X49498Y14649D01*
X43262Y20167D02*
X49498Y13930D01*
X29717Y23654D02*
X45469Y7902D01*
X48026Y7076D02*
X49498Y8548D01*
X48385Y6717D02*
X49498Y7830D01*
X47308Y7795D02*
X49498Y9985D01*
X47667Y7435D02*
X49498Y9267D01*
X48902Y5906D02*
X49498Y5309D01*
X48902Y5078D02*
X49498Y5675D01*
X48745Y6358D02*
X49498Y7112D01*
X48902Y5796D02*
X49498Y6393D01*
X48255Y19485D02*
X49498Y18241D01*
X47895Y19126D02*
X49498Y17523D01*
X47640Y18903D02*
X48562Y19825D01*
X47673Y18903D02*
X48562Y19792D01*
X47399Y18903D02*
X49498Y16804D01*
X47201Y7902D02*
X48902Y6201D01*
X46681Y18903D02*
X49498Y16086D01*
X46696Y7902D02*
X49498Y10704D01*
X48902Y4469D02*
X49455Y3916D01*
X48902Y3641D02*
X49489Y4229D01*
X48902Y5188D02*
X49498Y4591D01*
X48902Y4359D02*
X49498Y4956D01*
X48902Y2923D02*
X49330Y3351D01*
X48902Y3033D02*
X49124Y2810D01*
X48902Y3751D02*
X49323Y3329D01*
X47201Y1098D02*
X48902Y2799D01*
Y6201D01*
X48659Y2557D02*
X48869Y2347D01*
X48300Y2197D02*
X48565Y1932D01*
X47077Y1098D02*
X48902Y2923D01*
X47941Y1838D02*
X48215Y1564D01*
X47581Y1479D02*
X47818Y1242D01*
X47222Y1120D02*
X47374Y968D01*
X46649Y670D02*
X47077Y1098D01*
X43028Y19683D02*
X49498Y13212D01*
X42668Y19324D02*
X49498Y12494D01*
X42120Y19153D02*
X49498Y11775D01*
X41402Y19153D02*
X49498Y11057D01*
X45260Y7902D02*
X49498Y12141D01*
X45978Y7902D02*
X49498Y11422D01*
X43823Y7902D02*
X49498Y13577D01*
X44541Y7902D02*
X49498Y12859D01*
X45897Y18903D02*
X47673D01*
X45962D02*
X49498Y15367D01*
X45008Y19857D02*
X45962Y18903D01*
X45008Y19792D02*
X45897Y18903D01*
X46525Y1098D02*
X46877Y746D01*
X45807Y1098D02*
X46319Y586D01*
X43799Y7902D02*
X47201D01*
X43799Y1098D02*
X47201D01*
X32831Y502D02*
X49498Y17169D01*
X33549Y502D02*
X49498Y16451D01*
X31394Y502D02*
X49498Y18606D01*
X32112Y502D02*
X49498Y17888D01*
X35704Y502D02*
X49498Y14296D01*
X34267Y502D02*
X49498Y15733D01*
X34986Y502D02*
X49498Y15014D01*
X29238Y502D02*
X47640Y18903D01*
X30675Y502D02*
X49498Y19325D01*
X27802Y502D02*
X46203Y18903D01*
X28520Y502D02*
X46922Y18903D01*
X45771Y511D02*
X46359Y1098D01*
X45088D02*
X45681Y506D01*
X45044Y502D02*
X45641Y1098D01*
X40882Y25795D02*
X41408Y26321D01*
X40002Y25795D02*
Y25976D01*
X40164Y25795D02*
X42162Y27793D01*
X40002Y25795D02*
X41171D01*
X38498Y24370D02*
Y24976D01*
Y25224D02*
X38623Y25100D01*
X38498Y24976D02*
X38623Y25100D01*
X38498Y25224D02*
Y25976D01*
X38217Y24567D02*
X38498Y24848D01*
X37252Y24695D02*
Y24876D01*
X37627Y24695D02*
X38498Y25567D01*
X37252Y24695D02*
X37679D01*
X37937D01*
X43874Y23819D02*
X44044Y23648D01*
X43874Y23492D02*
Y23750D01*
X43261Y22427D02*
X44483Y23648D01*
X44044D02*
X44796D01*
X44248Y22427D02*
X44762Y21913D01*
X43222Y22427D02*
X44248D01*
X43540Y22763D02*
X43876Y22427D01*
X37483Y23135D02*
Y23305D01*
X37252D02*
X37483D01*
X37252Y23124D02*
Y23305D01*
X42681Y22184D02*
X42830Y22035D01*
X42750Y21955D02*
X43222Y22427D01*
X30509Y35793D02*
X40507Y25795D01*
X30408Y33739D02*
X38498Y25649D01*
X30017Y37004D02*
X41220Y25801D01*
X29838Y33591D02*
X38498Y24930D01*
X37170Y24957D02*
X40489Y28276D01*
X36876Y25252D02*
X37252Y24876D01*
X36746Y25252D02*
X40208Y28714D01*
X29717Y32994D02*
X38087Y24623D01*
X29717Y30838D02*
X35748Y24807D01*
X29717Y30120D02*
X35855Y23982D01*
X29717Y32275D02*
X36740Y25252D01*
X29717Y31557D02*
X36073Y25201D01*
X36124Y25252D02*
X36876D01*
X35748Y24124D02*
X35873Y24000D01*
X35748Y24876D02*
X36124Y25252D01*
X35748Y24124D02*
Y24876D01*
X37252Y23304D02*
X37541Y23014D01*
X36876Y22748D02*
X37252Y23124D01*
X29717Y18940D02*
X40208Y29432D01*
X28252Y13883D02*
X37493Y23125D01*
X36124Y22748D02*
X36876D01*
X29717Y22217D02*
X44033Y7902D01*
X29717Y16067D02*
X36398Y22748D01*
X29717Y22936D02*
X44751Y7902D01*
X35748Y23876D02*
X35873Y24000D01*
X29717Y18222D02*
X35748Y24254D01*
X29717Y29402D02*
X35748Y23370D01*
X29717Y16208D02*
Y33591D01*
X35748Y23124D02*
Y23876D01*
Y23124D02*
X36124Y22748D01*
X29717Y17504D02*
X35748Y23535D01*
X29717Y16785D02*
X35902Y22971D01*
X44762Y21054D02*
X45008Y21301D01*
Y19792D02*
Y21568D01*
X44762Y21541D02*
X45008Y21294D01*
X44762Y20887D02*
Y21913D01*
X44730Y20855D02*
X45008Y20576D01*
X44248Y20373D02*
X44762Y20887D01*
X43262Y20373D02*
X44248D01*
X43262Y20272D02*
X43363Y20373D01*
X42551Y22154D02*
X42750Y21955D01*
X40584Y22126D02*
X40738Y21973D01*
X39866Y22126D02*
X40379Y21613D01*
X42250Y22126D02*
X42508D01*
X43262Y19917D02*
Y20373D01*
X40208Y21443D02*
X40891Y22126D01*
X40208Y19917D02*
Y21443D01*
X42098Y2799D02*
X43799Y1098D01*
X42170Y502D02*
X43283Y1615D01*
X42098Y6201D02*
X43799Y7902D01*
X42098Y6177D02*
X43823Y7902D01*
X44325Y502D02*
X44922Y1098D01*
X44370D02*
X44967Y502D01*
X42888D02*
X43642Y1255D01*
X43607Y502D02*
X44204Y1098D01*
X42498Y19153D02*
X43262Y19917D01*
X42098Y2799D02*
Y6201D01*
X40208Y19917D02*
X40972Y19153D01*
X42498D01*
X40733Y502D02*
X42565Y2333D01*
X41452Y502D02*
X42924Y1974D01*
X39296Y502D02*
X42098Y3304D01*
X40015Y502D02*
X42205Y2692D01*
X38492Y22126D02*
X38750D01*
X39147D02*
X40208Y21065D01*
X38371Y22184D02*
X40208Y20347D01*
X38750Y22126D02*
X40891D01*
X29717Y20062D02*
X42838Y6941D01*
X29717Y21499D02*
X43557Y7659D01*
X29717Y20780D02*
X43197Y7300D01*
X29717Y15692D02*
Y16208D01*
Y15692D02*
Y16208D01*
X29458Y15433D02*
X29717Y15692D01*
X29458Y15433D02*
X29717Y15692D01*
X28252Y14226D02*
X29458Y15433D01*
X28252Y13874D02*
Y14226D01*
X27867Y13498D02*
X28252Y13883D01*
X27876Y13498D02*
X28252Y13874D01*
X29717Y19344D02*
X42479Y6581D01*
X29717Y18625D02*
X42120Y6222D01*
X29028Y15003D02*
X43530Y502D01*
X29388Y15362D02*
X44248Y502D01*
X37860D02*
X42098Y4740D01*
X38578Y502D02*
X42098Y4022D01*
X28669Y14644D02*
X42812Y502D01*
X37141D02*
X42098Y5459D01*
X29717Y16470D02*
X42098Y4088D01*
X29717Y15752D02*
X42098Y3370D01*
X29717Y17907D02*
X42098Y5525D01*
X29717Y17188D02*
X42098Y4807D01*
X28310Y14285D02*
X42093Y502D01*
X36423D02*
X42098Y6177D01*
X28127Y13749D02*
X41375Y502D01*
X20396Y49498D02*
X28893Y41002D01*
X19851Y36375D02*
X32975Y49498D01*
X19252Y40086D02*
X28664Y49498D01*
X18943Y36185D02*
X32256Y49498D01*
X21509Y35878D02*
X35130Y49498D01*
X21430Y35080D02*
X35848Y49498D01*
X20579Y36384D02*
X33693Y49498D01*
X21263Y36349D02*
X34412Y49498D01*
X19678D02*
X28274Y40902D01*
X19162Y40715D02*
X27946Y49498D01*
X18731Y41002D02*
X27227Y49498D01*
X18959D02*
X27998Y40459D01*
X19252Y39874D02*
Y40626D01*
X18876Y39498D02*
X19252Y39874D01*
X18876Y41002D02*
X19252Y40626D01*
X18835Y41002D02*
X19252Y40585D01*
X25425Y49498D02*
X45008Y29915D01*
X23988Y49498D02*
X43860Y29627D01*
X22552Y49498D02*
X41203Y30847D01*
X23270Y49498D02*
X41922Y30847D01*
X27580Y49498D02*
X45982Y31097D01*
X26862Y49498D02*
X45580Y30780D01*
X26144Y49498D02*
X45221Y30421D01*
X24707Y49498D02*
X45008Y29197D01*
X22010Y34942D02*
X36567Y49498D01*
X21833D02*
X40728Y30603D01*
X19252Y40585D02*
X24895Y34942D01*
X21115Y49498D02*
X40369Y30244D01*
X22729Y34942D02*
X27998Y40212D01*
X23447Y34942D02*
X28189Y39684D01*
X18889Y39511D02*
X23458Y34942D01*
X19248Y39870D02*
X24177Y34942D01*
X15401Y44857D02*
X20043Y49498D01*
X15401Y44138D02*
X20762Y49498D01*
X15401Y46293D02*
X18606Y49498D01*
X15401Y45575D02*
X19325Y49498D01*
X18124Y41002D02*
X18876D01*
X17748Y40626D02*
X18124Y41002D01*
X4500Y49498D02*
X45500D01*
X15401Y44435D02*
X18835Y41002D01*
X15318Y46929D02*
X17888Y49498D01*
X15288Y43831D02*
X18120Y40998D01*
X14929Y43471D02*
X17761Y40639D01*
X14569Y43112D02*
X17578Y40103D01*
X17748Y40274D02*
Y40626D01*
X17483Y40008D02*
X17742Y40267D01*
X17483Y40008D02*
X17742Y40267D01*
X13751Y42493D02*
X17483Y38761D01*
X18241Y49498D02*
X28983Y38756D01*
X17523Y49498D02*
X28983Y38038D01*
X16804Y49498D02*
X28983Y37319D01*
X16086Y49498D02*
X28983Y36601D01*
X18517Y37196D02*
X30819Y49498D01*
X18517Y36477D02*
X31538Y49498D01*
X18517Y38633D02*
X29383Y49498D01*
X18517Y37914D02*
X30101Y49498D01*
X14649D02*
X27869Y36278D01*
X15367Y49498D02*
X28607Y36259D01*
X13930Y49498D02*
X27044Y36384D01*
X13212Y49498D02*
X26338Y36372D01*
X15401Y45872D02*
X26001Y35273D01*
X15401Y45154D02*
X25613Y34942D01*
X13033Y42493D02*
X17483Y38043D01*
X15401Y46591D02*
X25995Y35997D01*
X27045Y36384D02*
X28983Y38323D01*
X27736Y36357D02*
X28983Y37604D01*
X26308Y36366D02*
X28983Y39041D01*
X26243Y36353D02*
X26400Y36384D01*
X27600D01*
X27757Y36353D01*
X26110Y36265D02*
X26243Y36353D01*
X26022Y36132D02*
X26110Y36265D01*
X21390D02*
X21478Y36132D01*
X21509Y35975D01*
X21100Y36384D02*
X21257Y36353D01*
X21390Y36265D01*
X25991Y35325D02*
Y35975D01*
Y35325D02*
X26022Y35168D01*
X25991Y35975D02*
X26022Y36132D01*
X21509Y35325D02*
Y35975D01*
X26022Y35168D02*
X26076Y35088D01*
X25602Y34942D02*
X25991Y35330D01*
X24165Y34942D02*
X28722Y39498D01*
X24884Y34942D02*
X26009Y36067D01*
X26022Y35007D02*
X26076Y35088D01*
X21713Y31658D02*
X23483Y29888D01*
X21491Y34942D02*
X26009D01*
X20994Y31658D02*
X23483Y29169D01*
X21478Y35168D02*
X21509Y35325D01*
Y35454D02*
X22021Y34942D01*
X21424Y35088D02*
X21478Y35168D01*
X21424Y35088D02*
X21478Y35007D01*
X23067Y31658D02*
X23483Y31242D01*
X22431Y31658D02*
X23483Y30606D01*
X20292Y31658D02*
X20808D01*
X23067D01*
X19743Y36353D02*
X19900Y36384D01*
X18517Y37009D02*
X19501Y36026D01*
X18517Y38446D02*
X20579Y36384D01*
X18517Y37728D02*
X19867Y36378D01*
X19900Y36384D02*
X21100D01*
X19610Y36265D02*
X19743Y36353D01*
X19522Y36132D02*
X19610Y36265D01*
X19491Y35975D02*
X19522Y36132D01*
X18524Y39498D02*
X18876D01*
X18517Y36384D02*
X18600D01*
X18517Y39351D02*
X18664Y39498D01*
X18517Y36384D02*
Y39492D01*
X18890Y36265D02*
X18978Y36132D01*
X19009Y35975D01*
X18600Y36384D02*
X18757Y36353D01*
X18890Y36265D01*
X19343Y35867D02*
X19500Y36024D01*
X19491Y35867D02*
Y35975D01*
X18517Y39165D02*
X22740Y34942D01*
X18359Y33591D02*
X20033Y31917D01*
X20292Y31658D01*
X20808D01*
X20033Y31917D02*
X20292Y31658D01*
X16502Y29433D02*
X19509Y32441D01*
X19009Y35867D02*
Y35975D01*
Y35867D02*
X19491D01*
X17400Y33591D02*
X18000D01*
X18359D01*
X16129Y30498D02*
X18791Y33159D01*
X16489Y30139D02*
X19150Y32800D01*
X15415Y30502D02*
X18431Y33518D01*
X12494Y49498D02*
X13695Y48297D01*
X13094D02*
X14296Y49498D01*
X11775D02*
X12977Y48297D01*
X12376D02*
X13577Y49498D01*
X14241Y48007D02*
X15733Y49498D01*
X14600Y47647D02*
X16451Y49498D01*
X11049Y48297D02*
X13951D01*
X13812D02*
X15014Y49498D01*
X8902D02*
X10576Y47824D01*
X8183Y49498D02*
X10217Y47465D01*
X7076Y48026D02*
X8548Y49498D01*
X7435Y47667D02*
X9267Y49498D01*
X11057D02*
X12259Y48297D01*
X11657D02*
X12859Y49498D01*
X10338D02*
X11540Y48297D01*
X9620Y49498D02*
X10935Y48183D01*
X14959Y47288D02*
X17169Y49498D01*
X7902Y45260D02*
X12141Y49498D01*
X7902Y46696D02*
X10704Y49498D01*
X7902Y45978D02*
X11422Y49498D01*
X13951Y48297D02*
X15401Y46846D01*
Y43944D02*
Y46846D01*
X9598D02*
X11049Y48297D01*
X7902Y45469D02*
X17109Y36262D01*
X7902Y46906D02*
X9598Y45210D01*
X7902Y43799D02*
Y47201D01*
X7795Y47308D02*
X9985Y49498D01*
X7465D02*
X9858Y47105D01*
X9598Y43944D02*
Y46846D01*
X7902Y43823D02*
X9598Y45519D01*
X7902Y44541D02*
X9598Y46238D01*
X7902Y46188D02*
X9598Y44491D01*
X5078Y48902D02*
X5675Y49498D01*
X5309D02*
X5906Y48902D01*
X4359D02*
X4956Y49498D01*
X4591D02*
X5188Y48902D01*
X6358Y48745D02*
X7112Y49498D01*
X6717Y48385D02*
X7830Y49498D01*
X2799Y48902D02*
X6201D01*
X5796D02*
X6393Y49498D01*
X3641Y48902D02*
X4229Y49489D01*
X3916Y49455D02*
X4469Y48902D01*
X2923D02*
X3351Y49330D01*
X3329Y49323D02*
X3751Y48902D01*
X2810Y49124D02*
X3033Y48902D01*
X2347Y48869D02*
X2557Y48659D01*
X1932Y48565D02*
X2197Y48300D01*
X1564Y48215D02*
X1838Y47941D01*
X6746Y49498D02*
X9598Y46646D01*
X6028Y49498D02*
X9598Y45928D01*
X1098Y47201D02*
X2799Y48902D01*
X1242Y47818D02*
X1479Y47581D01*
X6201Y48902D02*
X7902Y47201D01*
X968Y47374D02*
X1120Y47222D01*
X1098Y47077D02*
X2923Y48902D01*
X746Y46877D02*
X1098Y46525D01*
Y43799D02*
Y47201D01*
X670Y46649D02*
X1098Y47077D01*
X511Y45771D02*
X1098Y46359D01*
X586Y46319D02*
X1098Y45807D01*
X506Y45681D02*
X1098Y45088D01*
X502Y45044D02*
X1098Y45641D01*
X502Y44967D02*
X1098Y44370D01*
X17483Y39492D02*
Y40008D01*
X14210Y42753D02*
X17483Y39480D01*
X12314Y42493D02*
X17483Y37325D01*
X11596Y42493D02*
X17483Y36606D01*
Y39492D02*
Y40008D01*
Y36384D02*
Y39492D01*
X17400Y36384D02*
X17483D01*
X17243Y36353D02*
X17400Y36384D01*
X13757Y42493D02*
X15401Y44138D01*
X13951Y42493D02*
X15401Y43944D01*
X9598D02*
X11049Y42493D01*
X13951D01*
X17110Y36265D02*
X17243Y36353D01*
X17022Y36132D02*
X17110Y36265D01*
X16991Y35975D02*
X17022Y36132D01*
X16991Y35325D02*
Y35975D01*
X17022Y35168D02*
X17076Y35088D01*
X17022Y35007D02*
X17076Y35088D01*
X16991Y35325D02*
X17022Y35168D01*
X16991Y34850D02*
X17022Y35007D01*
X17110Y33710D02*
X17243Y33622D01*
X17400Y33591D01*
X16991Y34000D02*
X17022Y33843D01*
X17110Y33710D01*
X16991Y34000D02*
Y34850D01*
X14998Y30085D02*
X15415Y30502D01*
X7902Y44033D02*
X17006Y34928D01*
X14998Y30126D02*
X15374Y30502D01*
X16126D02*
X16502Y30126D01*
Y29374D02*
Y30126D01*
X15374Y30502D02*
X16126D01*
X14998Y29374D02*
Y30126D01*
X6177Y42098D02*
X7902Y43823D01*
X6201Y42098D02*
X7902Y43799D01*
X502Y39296D02*
X3304Y42098D01*
X502Y38578D02*
X4022Y42098D01*
X2799D02*
X6201D01*
X502Y36423D02*
X6177Y42098D01*
X502Y37860D02*
X4740Y42098D01*
X502Y37141D02*
X5459Y42098D01*
X502Y42888D02*
X1255Y43642D01*
X1098Y43799D02*
X2799Y42098D01*
X502Y44325D02*
X1098Y44922D01*
X502Y43607D02*
X1098Y44204D01*
X502Y40733D02*
X2333Y42565D01*
X502Y40015D02*
X2692Y42205D01*
X502Y42170D02*
X1615Y43283D01*
X502Y41452D02*
X1974Y42924D01*
X7902Y44751D02*
X16991Y35662D01*
X7659Y43557D02*
X16991Y34225D01*
X502Y30675D02*
X12320Y42493D01*
X502Y44248D02*
X14998Y29752D01*
X4088Y42098D02*
X15685Y30502D01*
X3370Y42098D02*
X15170Y30298D01*
X502Y29957D02*
X13038Y42493D01*
X502Y29238D02*
X13757Y42493D01*
X502Y34267D02*
X9888Y43654D01*
X502Y33549D02*
X10248Y43295D01*
X502Y35704D02*
X9598Y44801D01*
X502Y34986D02*
X9598Y44082D01*
X502Y32112D02*
X10966Y42576D01*
X502Y31394D02*
X11601Y42493D01*
X502Y32831D02*
X10607Y42936D01*
X16502Y29685D02*
X23483Y22704D01*
Y18008D02*
Y31242D01*
X5525Y42098D02*
X23483Y24140D01*
X4807Y42098D02*
X23483Y23422D01*
X18394Y26356D02*
X23483Y21267D01*
X18222Y25810D02*
X23483Y20548D01*
X16298Y29170D02*
X23483Y21985D01*
X17707Y25606D02*
X23483Y19830D01*
X7300Y43197D02*
X23483Y27014D01*
X6941Y42838D02*
X23483Y26296D01*
X6581Y42479D02*
X23483Y25577D01*
X6222Y42120D02*
X23483Y24859D01*
X18344Y33591D02*
X23483Y28451D01*
X18394Y26297D02*
X23411Y31314D01*
X17625Y33591D02*
X23483Y27733D01*
X18253Y26874D02*
X23037Y31658D01*
X16307Y502D02*
X38107Y22302D01*
X17025Y502D02*
X38650Y22126D01*
X7410Y6692D02*
X23483Y22765D01*
X15588Y502D02*
X37729Y22643D01*
X18462Y502D02*
X40087Y22126D01*
X19181Y502D02*
X40805Y22126D01*
X7770Y6333D02*
X23483Y22046D01*
X17744Y502D02*
X39368Y22126D01*
X5028Y7902D02*
X23483Y26357D01*
X5746Y7902D02*
X23483Y25638D01*
X3591Y7902D02*
X23483Y27794D01*
X4310Y7902D02*
X23483Y27075D01*
X7051Y7051D02*
X23483Y23483D01*
X7051Y7051D02*
X23483Y23483D01*
X6333Y7770D02*
X23483Y24920D01*
X6692Y7410D02*
X23483Y24202D01*
X502Y24209D02*
X25791Y49498D01*
X502Y23491D02*
X26509Y49498D01*
X502Y25646D02*
X24354Y49498D01*
X502Y24928D02*
X25072Y49498D01*
X502Y27006D02*
X27006Y502D01*
X502Y26288D02*
X26288Y502D01*
X502Y29162D02*
X25006Y4657D01*
X502Y28443D02*
X28443Y502D01*
X502Y41375D02*
X23483Y18393D01*
X502Y40656D02*
X23483Y17675D01*
X502Y26365D02*
X23635Y49498D01*
X502Y42093D02*
X23483Y19112D01*
X2873Y7902D02*
X23483Y28512D01*
X502Y6249D02*
X23483Y29231D01*
X502Y7686D02*
X23483Y30667D01*
X502Y6967D02*
X23483Y29949D01*
X502Y38501D02*
X38501Y502D01*
X502Y37783D02*
X37783Y502D01*
X502Y39938D02*
X39938Y502D01*
X502Y39219D02*
X39219Y502D01*
X502Y35627D02*
X35627Y502D01*
X502Y34909D02*
X34909Y502D01*
X502Y37064D02*
X37064Y502D01*
X502Y36346D02*
X36346Y502D01*
X502Y32754D02*
X32754Y502D01*
X502Y27725D02*
X27725Y502D01*
X502Y34190D02*
X34190Y502D01*
X502Y33472D02*
X33472Y502D01*
X502Y24133D02*
X24133Y502D01*
X502Y23414D02*
X23414Y502D01*
X502Y25569D02*
X25569Y502D01*
X502Y24851D02*
X24851Y502D01*
X27000Y6166D02*
X40480Y19645D01*
X27359Y5807D02*
X40839Y19286D01*
X25661Y6264D02*
X40208Y20811D01*
X26380Y6264D02*
X40208Y20093D01*
X27534Y5263D02*
X41424Y19153D01*
X27534Y4545D02*
X42143Y19153D01*
X27124Y13498D02*
X27876D01*
X26902Y6264D02*
X27534Y5632D01*
X26748Y13874D02*
Y14226D01*
Y13874D02*
X27124Y13498D01*
X23483Y17492D02*
Y18008D01*
X23742Y17233D02*
X26748Y14226D01*
X25638Y6264D02*
X26902D01*
X25006Y4368D02*
Y5632D01*
X25638Y6264D01*
X25006Y5609D02*
X25661Y6264D01*
X25646Y502D02*
X45008Y19864D01*
X26365Y502D02*
X45332Y19468D01*
X24209Y502D02*
X44081Y20373D01*
X24928Y502D02*
X45008Y20582D01*
X27534Y5003D02*
X32035Y502D01*
X27659Y13498D02*
X40656Y502D01*
X27083D02*
X45691Y19109D01*
X27492Y4326D02*
X31317Y502D01*
X27534Y4368D02*
Y5632D01*
X27133Y3967D02*
X30598Y502D01*
X25006Y4368D02*
X25638Y3736D01*
X26902D02*
X27534Y4368D01*
X25927Y3736D02*
X29162Y502D01*
X26646Y3736D02*
X29880Y502D01*
X25638Y3736D02*
X26902D01*
X23491Y502D02*
X26725Y3736D01*
X11252Y21285D02*
X26273Y6264D01*
X11223Y20596D02*
X25596Y6222D01*
X10852Y20248D02*
X25237Y5863D01*
X10133Y20248D02*
X25006Y5376D01*
X23483Y17492D02*
X23742Y17233D01*
X23483Y17492D02*
X23742Y17233D01*
X4500Y502D02*
X45500D01*
X7686D02*
X24080Y16895D01*
X7902Y4310D02*
X23483Y19891D01*
X7902Y3591D02*
X23483Y19173D01*
X7902Y5746D02*
X23483Y21328D01*
X7902Y5028D02*
X23483Y20610D01*
Y17492D02*
Y18008D01*
X7902Y2873D02*
X23483Y18454D01*
X6249Y502D02*
X23483Y17736D01*
X6967Y502D02*
X23720Y17254D01*
X11996Y502D02*
X26235Y14740D01*
X12715Y502D02*
X26594Y14381D01*
X10559Y502D02*
X25516Y15458D01*
X11278Y502D02*
X25876Y15099D01*
X14870Y502D02*
X27867Y13498D01*
X22773Y502D02*
X26007Y3736D01*
X13433Y502D02*
X26777Y13846D01*
X14152Y502D02*
X27148Y13498D01*
X9841Y502D02*
X25157Y15818D01*
X19899Y502D02*
X25006Y5609D01*
X8404Y502D02*
X24439Y16536D01*
X9123Y502D02*
X24798Y16177D01*
X21336Y502D02*
X25104Y4270D01*
X22054Y502D02*
X25463Y3911D01*
X20617Y502D02*
X25006Y4890D01*
X17267Y27109D02*
X18018D01*
X17770D02*
X22319Y31658D01*
X15752Y28998D02*
X17641Y27109D01*
X10257Y21752D02*
X20228Y31722D01*
X18394Y25982D02*
Y26733D01*
X18018Y25606D02*
X18394Y25982D01*
X18018Y27109D02*
X18394Y26733D01*
X17267Y25606D02*
X18018D01*
X16067Y28998D02*
X16502Y29433D01*
X16126Y28998D02*
X16502Y29374D01*
X14998D02*
X15374Y28998D01*
X16126D01*
X16891Y25982D02*
Y26733D01*
Y25982D02*
X17267Y25606D01*
X16891Y26733D02*
X17267Y27109D01*
X10124Y21752D02*
X10876D01*
X11252Y21309D02*
X21600Y31658D01*
X11252Y20624D02*
Y21376D01*
X10926Y21702D02*
X20882Y31658D01*
X10876Y21752D02*
X11252Y21376D01*
X10876Y20248D02*
X11252Y20624D01*
X502Y19104D02*
X19104Y502D01*
X502Y20540D02*
X20540Y502D01*
X502Y19822D02*
X19822Y502D01*
X9748Y20624D02*
Y21376D01*
Y20633D02*
X10133Y20248D01*
X9748Y21376D02*
X10124Y21752D01*
X502Y11996D02*
X9748Y21243D01*
Y20624D02*
X10124Y20248D01*
X10876D01*
X502Y11278D02*
X9798Y20574D01*
X502Y10559D02*
X10191Y20248D01*
X502Y27083D02*
X22917Y49498D01*
X502Y22773D02*
X17483Y39754D01*
X502Y28520D02*
X21480Y49498D01*
X502Y27802D02*
X22198Y49498D01*
X502Y20617D02*
X17483Y37599D01*
X502Y19899D02*
X17483Y36881D01*
X502Y22054D02*
X17483Y39036D01*
X502Y21336D02*
X17483Y38317D01*
X502Y19181D02*
X16991Y35669D01*
X502Y18462D02*
X17016Y34976D01*
X502Y43530D02*
X17095Y26937D01*
X502Y42812D02*
X16891Y26422D01*
X502Y30598D02*
X9748Y21352D01*
X502Y29880D02*
X9748Y20633D01*
X502Y32035D02*
X10785Y21752D01*
X502Y31317D02*
X10095Y21723D01*
X502Y12715D02*
X19868Y32081D01*
X502Y8404D02*
X17703Y25606D01*
X502Y17025D02*
X17156Y33680D01*
X502Y16307D02*
X17785Y33591D01*
X502Y21259D02*
X21259Y502D01*
X502Y18385D02*
X18385Y502D01*
X502Y22696D02*
X22696Y502D01*
X502Y21977D02*
X21977Y502D01*
X502Y15588D02*
X14998Y30085D01*
X502Y14870D02*
X15002Y29371D01*
X502Y17744D02*
X16991Y34233D01*
X502Y4500D02*
Y45500D01*
Y9841D02*
X16891Y26230D01*
X502Y9123D02*
X17126Y25747D01*
X502Y14152D02*
X15361Y29011D01*
X502Y13433D02*
X16067Y28998D01*
X6201Y7902D02*
X7902Y6201D01*
Y2799D02*
Y6201D01*
X2799Y7902D02*
X6201D01*
X5956D02*
X7902Y5956D01*
X6127Y1098D02*
X7902Y2873D01*
X6201Y1098D02*
X7902Y2799D01*
X2799Y1098D02*
X6201D01*
X3420D02*
X3983Y535D01*
X1673Y1673D02*
X1949Y1949D01*
X1673Y1673D02*
X1949Y1949D01*
X1098Y2799D02*
Y6201D01*
X1336Y2055D02*
X1590Y2308D01*
X2964Y808D02*
X3254Y1098D01*
X3502Y628D02*
X3972Y1098D01*
X2055Y1336D02*
X2308Y1590D01*
X2484Y1047D02*
X2667Y1230D01*
X7902Y4519D02*
X11919Y502D01*
X7902Y3801D02*
X11201Y502D01*
X7902Y5956D02*
X13356Y502D01*
X7902Y5238D02*
X12638Y502D01*
X7684Y2582D02*
X9764Y502D01*
X7902Y3083D02*
X10483Y502D01*
X6966Y1863D02*
X8327Y502D01*
X7325Y2222D02*
X9046Y502D01*
X6247Y1145D02*
X6890Y502D01*
X6606Y1504D02*
X7609Y502D01*
X4113Y520D02*
X4691Y1098D01*
X4138D02*
X4735Y502D01*
X5531D02*
X6127Y1098D01*
X5575D02*
X6172Y502D01*
X4812D02*
X5409Y1098D01*
X4857D02*
X5454Y502D01*
X502Y11919D02*
X4519Y7902D01*
X502Y11201D02*
X3801Y7902D01*
X502Y13356D02*
X5956Y7902D01*
X502Y12638D02*
X5238Y7902D01*
X1098Y6201D02*
X2799Y7902D01*
X1098Y6127D02*
X2873Y7902D01*
X502Y10483D02*
X3083Y7902D01*
X502Y9764D02*
X2582Y7684D01*
X502Y7609D02*
X1504Y6606D01*
X502Y6890D02*
X1145Y6247D01*
X502Y9046D02*
X2222Y7325D01*
X502Y8327D02*
X1863Y6966D01*
X502Y5454D02*
X1098Y4857D01*
X502Y4812D02*
X1098Y5409D01*
X502Y6172D02*
X1098Y5575D01*
X502Y5531D02*
X1098Y6127D01*
X502Y16230D02*
X16230Y502D01*
X502Y15512D02*
X15512Y502D01*
X502Y17667D02*
X17667Y502D01*
X502Y16948D02*
X16948Y502D01*
X789Y3011D02*
X3011Y789D01*
X502Y14793D02*
X14793Y502D01*
X502Y14075D02*
X14075Y502D01*
X628Y3502D02*
X1098Y3972D01*
X535Y3983D02*
X1098Y3420D01*
X502Y4735D02*
X1098Y4138D01*
X520Y4113D02*
X1098Y4691D01*
X1047Y2484D02*
X1230Y2667D01*
X1098Y2799D02*
X2799Y1098D01*
X808Y2964D02*
X1098Y3254D01*
D11*
X44127Y25107D02*
G03*
X44420Y25400I0J293D01*
G01*
X43750Y25107D02*
G03*
X43000Y24357I0J-750D01*
G01*
X42250Y23000D02*
G03*
X43000Y23750I0J750D01*
G01*
X38357Y23393D02*
G03*
X38750Y23000I393J0D01*
G01*
X38357Y23500D02*
G03*
X37679Y24179I-679J0D01*
G01*
X36500Y24500D02*
G03*
X36821Y24179I321J0D01*
G01*
X44420Y24400D02*
G03*
X44070Y24750I-350J0D01*
G01*
X43750D02*
G03*
X43357Y24357I0J-393D01*
G01*
X42250Y22643D02*
G03*
X43357Y23750I0J1107D01*
G01*
X38000Y23393D02*
G03*
X38750Y22643I750J0D01*
G01*
X38000Y23500D02*
G03*
X37679Y23821I-321J0D01*
G01*
X36821D02*
G03*
X36500Y23500I0J-321D01*
G01*
X39571Y24921D02*
G03*
X39250Y24600I0J-321D01*
G01*
X41171Y24921D02*
G03*
X42250Y26000I0J1079D01*
G01*
X43000Y26750D02*
G03*
X42250Y26000I0J-750D01*
G01*
X46250D02*
G03*
X45500Y26750I-750J0D01*
G01*
X45829Y25079D02*
G03*
X46250Y25500I0J421D01*
G01*
X44420Y25400D02*
G03*
X44741Y25079I321J0D01*
G01*
X39250Y25600D02*
G03*
X39571Y25279I321J0D01*
G01*
X41171D02*
G03*
X41893Y26000I0J721D01*
G01*
X43000Y27107D02*
G03*
X41893Y26000I0J-1107D01*
G01*
X46607D02*
G03*
X45500Y27107I-1107J0D01*
G01*
X45829Y24721D02*
G03*
X46607Y25500I0J779D01*
G01*
X44741Y24721D02*
G03*
X44420Y24400I0J-321D01*
G01*
X29200Y15950D02*
Y34425D01*
X27500Y14250D02*
X29200Y15950D01*
X24000Y17750D02*
X27500Y14250D01*
X24000Y17750D02*
Y31500D01*
X23325Y32175D02*
X24000Y31500D01*
X20550Y32175D02*
X23325D01*
X18300Y34425D02*
X20550Y32175D01*
X26700Y33825D02*
Y34425D01*
X26500Y18000D02*
Y33625D01*
Y18000D02*
X27500Y17000D01*
X26500Y33625D02*
X26700Y33825D01*
X20800Y34425D02*
X26700D01*
X28750Y40250D02*
X29500Y39500D01*
Y35350D02*
Y39500D01*
X27000Y35350D02*
X29500D01*
X18000Y39750D02*
X18500Y40250D01*
X18000Y35350D02*
Y39750D01*
Y35350D02*
X20500D01*
X43750Y25107D02*
X44127D01*
X43000Y23750D02*
Y24357D01*
X38750Y23000D02*
X42250D01*
X38357Y23393D02*
Y23500D01*
X36821Y24179D02*
X37679D01*
X43750Y24750D02*
X44070D01*
X43357Y23750D02*
Y24357D01*
X38750Y22643D02*
X42250D01*
X38000Y23393D02*
Y23500D01*
X36821Y23821D02*
X37679D01*
X39571Y24921D02*
X41171D01*
X43000Y26750D02*
X45500D01*
X46250Y25500D02*
Y26000D01*
X44741Y25079D02*
X45829D01*
X39571Y25279D02*
X41171D01*
X43000Y27107D02*
X45500D01*
X46607Y25500D02*
Y26000D01*
X44741Y24721D02*
X45829D01*
D24*
X45500Y4500D02*
D03*
X4500D02*
D03*
X45500Y45500D02*
D03*
X4500D02*
D03*
D25*
X25000Y82795D02*
D03*
X12500Y45395D02*
D03*
X37500D02*
D03*
D26*
X43735Y21400D02*
D03*
X43670Y28600D02*
D03*
D27*
X46785Y29320D02*
D03*
Y20680D02*
D03*
D28*
X41735Y29320D02*
D03*
Y20680D02*
D03*
D29*
X26270Y5000D02*
D03*
X23730D02*
D03*
D30*
X36500Y21750D02*
D03*
X31500Y25750D02*
D03*
X44500Y34500D02*
D03*
X39250Y28000D02*
D03*
X44500Y23000D02*
D03*
Y15750D02*
D03*
X45500Y13250D02*
D03*
X15000Y2250D02*
D03*
X10500Y21000D02*
D03*
X17000Y24000D02*
D03*
X17642Y26358D02*
D03*
X14288Y29712D02*
D03*
X15750Y29750D02*
D03*
X13750Y32000D02*
D03*
X27500Y17000D02*
D03*
Y14250D02*
D03*
X28750Y40250D02*
D03*
X18500D02*
D03*
X44420Y24400D02*
D03*
Y25400D02*
D03*
X39250Y24600D02*
D03*
Y25600D02*
D03*
X36500Y23500D02*
D03*
Y24500D02*
D03*
D31*
X18300Y34425D02*
D03*
X29800D02*
D03*
X20800D02*
D03*
X27300D02*
D03*
D32*
X17700D02*
D03*
X29200D02*
D03*
X20200D02*
D03*
X26700D02*
D03*
D33*
X18000Y35350D02*
D03*
X29500D02*
D03*
X20500D02*
D03*
X27000D02*
D03*
D34*
X26700Y34425D02*
X26942Y34183D01*
X27058D01*
X27300Y34425D01*
X29200D02*
X29442Y34183D01*
X29558D02*
X29800Y34425D01*
X29442Y34183D02*
X29558D01*
X20558D02*
X20800Y34425D01*
X20200D02*
X20442Y34183D01*
X20558D01*
X17700Y34425D02*
X17942Y34183D01*
X18058D02*
X18300Y34425D01*
X17942Y34183D02*
X18058D01*
%TF.MD5,e825a8a96b65e75f4304f5da9cbf7b68*%
M02*
