G04*
G04 #@! TF.GenerationSoftware,Altium Limited,Altium Designer,26.4.1 (12)*
G04*
G04 Layer_Physical_Order=2*
G04 Layer_Color=16711680*
%FSLAX44Y44*%
%MOMM*%
G71*
G04*
G04 #@! TF.SameCoordinates,27C389B1-6027-4403-AB20-6D49FA4EE030*
G04*
G04*
G04 #@! TF.FilePolarity,Positive*
G04*
G01*
G75*
%ADD27C,0.2540*%
%ADD28C,0.9398*%
%ADD29C,1.5000*%
%ADD30C,2.5000*%
G36*
X275046Y4354D02*
X4354D01*
Y243296D01*
X275046D01*
Y4354D01*
D02*
G37*
%LPC*%
G36*
X58877Y197110D02*
X55823D01*
X52829Y196514D01*
X50008Y195346D01*
X47470Y193650D01*
X45311Y191491D01*
X43614Y188952D01*
X42446Y186131D01*
X41850Y183137D01*
Y180083D01*
X42446Y177089D01*
X43614Y174268D01*
X45311Y171729D01*
X47470Y169570D01*
X50008Y167874D01*
X52829Y166706D01*
X55823Y166110D01*
X58877D01*
X61871Y166706D01*
X64692Y167874D01*
X67231Y169570D01*
X69390Y171729D01*
X71086Y174268D01*
X72255Y177089D01*
X72850Y180083D01*
Y183137D01*
X72255Y186131D01*
X71086Y188952D01*
X69390Y191491D01*
X67231Y193650D01*
X64692Y195346D01*
X61871Y196514D01*
X58877Y197110D01*
D02*
G37*
G36*
X252730Y132080D02*
X243960D01*
Y132028D01*
X244644Y129475D01*
X245966Y127185D01*
X247835Y125316D01*
X250125Y123994D01*
X252678Y123310D01*
X252730D01*
Y132080D01*
D02*
G37*
G36*
X210877Y197110D02*
X207823D01*
X204829Y196514D01*
X202008Y195346D01*
X199469Y193650D01*
X197310Y191491D01*
X195614Y188952D01*
X194445Y186131D01*
X193850Y183137D01*
Y180083D01*
X194445Y177089D01*
X195614Y174268D01*
X197310Y171729D01*
X199469Y169570D01*
X202008Y167874D01*
X204829Y166706D01*
X207823Y166110D01*
X210877D01*
X213871Y166706D01*
X216692Y167874D01*
X216834Y167969D01*
X241831Y142971D01*
X243244Y142028D01*
X244910Y141696D01*
X246352D01*
X246878Y140426D01*
X245966Y139515D01*
X244644Y137225D01*
X243960Y134672D01*
Y134620D01*
X254000D01*
Y133350D01*
X255270D01*
Y123310D01*
X255322D01*
X257875Y123994D01*
X259806Y125109D01*
X261076Y124577D01*
Y121183D01*
X257717Y117824D01*
X255382Y118450D01*
X252618D01*
X249947Y117734D01*
X247553Y116352D01*
X245598Y114397D01*
X244216Y112003D01*
X243500Y109332D01*
Y106568D01*
X244216Y103897D01*
X245598Y101503D01*
X247553Y99548D01*
X249947Y98166D01*
X252618Y97450D01*
X255382D01*
X258053Y98166D01*
X260447Y99548D01*
X262402Y101503D01*
X263784Y103897D01*
X264500Y106568D01*
Y109332D01*
X263874Y111667D01*
X268508Y116301D01*
X269452Y117714D01*
X269784Y119380D01*
Y140970D01*
X269452Y142636D01*
X268508Y144049D01*
X263428Y149129D01*
X262016Y150072D01*
X261799Y150115D01*
X261430Y151331D01*
X262402Y152303D01*
X263784Y154697D01*
X264500Y157368D01*
Y160132D01*
X263784Y162803D01*
X262402Y165197D01*
X260447Y167152D01*
X258053Y168534D01*
X255382Y169250D01*
X252618D01*
X249947Y168534D01*
X247553Y167152D01*
X245598Y165197D01*
X244216Y162803D01*
X243500Y160132D01*
Y157368D01*
X244216Y154697D01*
X243199Y153918D01*
X222991Y174126D01*
X223086Y174268D01*
X224254Y177089D01*
X224850Y180083D01*
Y183137D01*
X224254Y186131D01*
X223086Y188952D01*
X221390Y191491D01*
X219230Y193650D01*
X216692Y195346D01*
X213871Y196514D01*
X210877Y197110D01*
D02*
G37*
G36*
X135890Y74464D02*
Y68580D01*
X141774D01*
X141366Y70104D01*
X140413Y71755D01*
X139065Y73103D01*
X137414Y74056D01*
X135890Y74464D01*
D02*
G37*
G36*
X133350D02*
X131826Y74056D01*
X130175Y73103D01*
X128827Y71755D01*
X127874Y70104D01*
X127466Y68580D01*
X133350D01*
Y74464D01*
D02*
G37*
G36*
X62230D02*
Y68580D01*
X68114D01*
X67706Y70104D01*
X66753Y71755D01*
X65405Y73103D01*
X63754Y74056D01*
X62230Y74464D01*
D02*
G37*
G36*
X59690D02*
X58166Y74056D01*
X56515Y73103D01*
X55167Y71755D01*
X54214Y70104D01*
X53806Y68580D01*
X59690D01*
Y74464D01*
D02*
G37*
G36*
X141774Y66040D02*
X127466D01*
X127874Y64516D01*
X128827Y62865D01*
X130175Y61517D01*
X131826Y60564D01*
X132635Y60347D01*
Y59033D01*
X131826Y58816D01*
X130175Y57863D01*
X128827Y56515D01*
X127874Y54864D01*
X127466Y53340D01*
X141774D01*
X141366Y54864D01*
X140413Y56515D01*
X139065Y57863D01*
X137414Y58816D01*
X136605Y59033D01*
Y60347D01*
X137414Y60564D01*
X139065Y61517D01*
X140413Y62865D01*
X141366Y64516D01*
X141774Y66040D01*
D02*
G37*
G36*
X68114D02*
X53806D01*
X54214Y64516D01*
X55167Y62865D01*
X56515Y61517D01*
X58166Y60564D01*
X58975Y60347D01*
Y59033D01*
X58166Y58816D01*
X56515Y57863D01*
X55167Y56515D01*
X54214Y54864D01*
X53806Y53340D01*
X68114D01*
X67706Y54864D01*
X66753Y56515D01*
X65405Y57863D01*
X63754Y58816D01*
X62945Y59033D01*
Y60347D01*
X63754Y60564D01*
X65405Y61517D01*
X66753Y62865D01*
X67706Y64516D01*
X68114Y66040D01*
D02*
G37*
G36*
X141774Y50800D02*
X135890D01*
Y44916D01*
X137414Y45324D01*
X139065Y46277D01*
X140413Y47625D01*
X141366Y49276D01*
X141774Y50800D01*
D02*
G37*
G36*
X133350D02*
X127466D01*
X127874Y49276D01*
X128827Y47625D01*
X130175Y46277D01*
X131826Y45324D01*
X133350Y44916D01*
Y50800D01*
D02*
G37*
G36*
X68114D02*
X62230D01*
Y44916D01*
X63754Y45324D01*
X65405Y46277D01*
X66753Y47625D01*
X67706Y49276D01*
X68114Y50800D01*
D02*
G37*
G36*
X59690D02*
X53806D01*
X54214Y49276D01*
X55167Y47625D01*
X56515Y46277D01*
X58166Y45324D01*
X59690Y44916D01*
Y50800D01*
D02*
G37*
%LPD*%
D27*
X254000Y107950D02*
X265430Y119380D01*
Y140970D01*
X260350Y146050D02*
X265430Y140970D01*
X244910Y146050D02*
X260350D01*
X209350Y181610D02*
X244910Y146050D01*
D28*
X60960Y67310D02*
D03*
X134620Y52070D02*
D03*
Y67310D02*
D03*
X60960Y52070D02*
D03*
D29*
X254000Y133350D02*
D03*
Y107950D02*
D03*
Y158750D02*
D03*
D30*
X57350Y181610D02*
D03*
X209350D02*
D03*
M02*
