G04*
G04 #@! TF.GenerationSoftware,Altium Limited,Altium Designer,26.4.1 (12)*
G04*
G04 Layer_Color=8388736*
%FSLAX44Y44*%
%MOMM*%
G71*
G04*
G04 #@! TF.SameCoordinates,27C389B1-6027-4403-AB20-6D49FA4EE030*
G04*
G04*
G04 #@! TF.FilePolarity,Negative*
G04*
G01*
G75*
%ADD15R,0.5080X3.3020*%
%ADD16R,1.2954X3.3020*%
%ADD19R,2.6130X3.5020*%
%ADD20R,1.5050X0.8020*%
%ADD21R,6.6082X1.5557*%
%ADD22R,5.2500X2.5000*%
%ADD23R,0.7500X1.4000*%
%ADD24C,1.0898*%
%ADD25C,1.6500*%
%ADD26C,2.6500*%
D15*
X74930Y59690D02*
D03*
X46990D02*
D03*
X148590D02*
D03*
X120650D02*
D03*
D16*
X60960D02*
D03*
X134620D02*
D03*
D19*
X146475Y123190D02*
D03*
D20*
X121500Y129540D02*
D03*
Y142240D02*
D03*
X171450Y129540D02*
D03*
Y142240D02*
D03*
Y116840D02*
D03*
X121500D02*
D03*
X171450Y104140D02*
D03*
X121500D02*
D03*
D21*
X58420Y130435D02*
D03*
Y105410D02*
D03*
D22*
X237490Y24540D02*
D03*
Y66040D02*
D03*
D23*
X190280Y116840D02*
D03*
X208280D02*
D03*
D24*
X60960Y67310D02*
D03*
X134620Y52070D02*
D03*
Y67310D02*
D03*
X60960Y52070D02*
D03*
D25*
X254000Y133350D02*
D03*
Y107950D02*
D03*
Y158750D02*
D03*
D26*
X57350Y181610D02*
D03*
X209350D02*
D03*
M02*
