%TF.GenerationSoftware,Altium Limited,Altium Designer,25.2.1 (25)*%
G04 Layer_Color=2752767*
%FSLAX43Y43*%
%MOMM*%
%TF.SameCoordinates,13C9EE94-67B1-431B-914D-B35A32CB9B67*%
%TF.FilePolarity,Positive*%
%TF.FileFunction,Drawing*%
%TF.Part,Single*%
G01*
G75*
%TA.AperFunction,NonConductor*%
%ADD53C,0.127*%
%ADD54C,0.169*%
D53*
X4246Y74246D02*
Y73992D01*
X4754D01*
Y74246D01*
X5008D01*
Y74754D01*
X4754D01*
Y75008D01*
X4246D01*
Y74754D01*
X3992D01*
Y74246D01*
X4246D01*
X16912Y71322D02*
Y72338D01*
X17928D01*
Y71322D01*
X16912D01*
Y73862D02*
Y74878D01*
X17928D01*
Y73862D01*
X16912D01*
X19452Y71322D02*
Y72338D01*
X20468D01*
Y71322D01*
X19452D01*
Y73862D02*
Y74878D01*
X20468D01*
Y73862D01*
X19452D01*
X21992Y71322D02*
Y72338D01*
X23008D01*
Y71322D01*
X21992D01*
Y73862D02*
Y74878D01*
X23008D01*
Y73862D01*
X21992D01*
X24532Y71322D02*
Y72338D01*
X25548D01*
Y71322D01*
X24532D01*
Y73862D02*
Y74878D01*
X25548D01*
Y73862D01*
X24532D01*
X27072Y71322D02*
Y72338D01*
X28088D01*
Y71322D01*
X27072D01*
Y73862D02*
Y74878D01*
X28088D01*
Y73862D01*
X27072D01*
X70912Y71322D02*
Y72338D01*
X71928D01*
Y71322D01*
X70912D01*
Y73862D02*
Y74878D01*
X71928D01*
Y73862D01*
X70912D01*
X73452Y71322D02*
Y72338D01*
X74468D01*
Y71322D01*
X73452D01*
Y73862D02*
Y74878D01*
X74468D01*
Y73862D01*
X73452D01*
X75992Y71322D02*
Y72338D01*
X77008D01*
Y71322D01*
X75992D01*
Y73862D02*
Y74878D01*
X77008D01*
Y73862D01*
X75992D01*
X78532Y71322D02*
Y72338D01*
X79548D01*
Y71322D01*
X78532D01*
Y73862D02*
Y74878D01*
X79548D01*
Y73862D01*
X78532D01*
X81072Y71322D02*
Y72338D01*
X82088D01*
Y71322D01*
X81072D01*
Y73862D02*
Y74878D01*
X82088D01*
Y73862D01*
X81072D01*
X94246Y74246D02*
Y73992D01*
X94754D01*
Y74246D01*
X95008D01*
Y74754D01*
X94754D01*
Y75008D01*
X94246D01*
Y74754D01*
X93992D01*
Y74246D01*
X94246D01*
X43912Y71322D02*
Y72338D01*
X44928D01*
Y71322D01*
X43912D01*
Y73862D02*
Y74878D01*
X44928D01*
Y73862D01*
X43912D01*
X46452Y71322D02*
Y72338D01*
X47468D01*
Y71322D01*
X46452D01*
Y73862D02*
Y74878D01*
X47468D01*
Y73862D01*
X46452D01*
X48992Y71322D02*
Y72338D01*
X50008D01*
Y71322D01*
X48992D01*
Y73862D02*
Y74878D01*
X50008D01*
Y73862D01*
X48992D01*
X51532Y71322D02*
Y72338D01*
X52548D01*
Y71322D01*
X51532D01*
Y73862D02*
Y74878D01*
X52548D01*
Y73862D01*
X51532D01*
X54072Y71322D02*
Y72338D01*
X55088D01*
Y71322D01*
X54072D01*
Y73862D02*
Y74878D01*
X55088D01*
Y73862D01*
X54072D01*
X93440Y13742D02*
X93694Y13996D01*
X93948D01*
X93694Y14250D01*
X93948Y14504D01*
X93694D01*
X93440Y14758D01*
X93186Y14504D01*
X92932D01*
X93186Y14250D01*
X92932Y13996D01*
X93186D01*
X93440Y13742D01*
X90900D02*
X91154Y13996D01*
X91408D01*
X91154Y14250D01*
X91408Y14504D01*
X91154D01*
X90900Y14758D01*
X90646Y14504D01*
X90392D01*
X90646Y14250D01*
X90392Y13996D01*
X90646D01*
X90900Y13742D01*
X88360D02*
X88614Y13996D01*
X88868D01*
X88614Y14250D01*
X88868Y14504D01*
X88614D01*
X88360Y14758D01*
X88106Y14504D01*
X87852D01*
X88106Y14250D01*
X87852Y13996D01*
X88106D01*
X88360Y13742D01*
X85820D02*
X86074Y13996D01*
X86328D01*
X86074Y14250D01*
X86328Y14504D01*
X86074D01*
X85820Y14758D01*
X85566Y14504D01*
X85312D01*
X85566Y14250D01*
X85312Y13996D01*
X85566D01*
X85820Y13742D01*
X83280D02*
X83534Y13996D01*
X83788D01*
X83534Y14250D01*
X83788Y14504D01*
X83534D01*
X83280Y14758D01*
X83026Y14504D01*
X82772D01*
X83026Y14250D01*
X82772Y13996D01*
X83026D01*
X83280Y13742D01*
X80740D02*
X80994Y13996D01*
X81248D01*
X80994Y14250D01*
X81248Y14504D01*
X80994D01*
X80740Y14758D01*
X80486Y14504D01*
X80232D01*
X80486Y14250D01*
X80232Y13996D01*
X80486D01*
X80740Y13742D01*
X78200D02*
X78454Y13996D01*
X78708D01*
X78454Y14250D01*
X78708Y14504D01*
X78454D01*
X78200Y14758D01*
X77946Y14504D01*
X77692D01*
X77946Y14250D01*
X77692Y13996D01*
X77946D01*
X78200Y13742D01*
X75660D02*
X75914Y13996D01*
X76168D01*
X75914Y14250D01*
X76168Y14504D01*
X75914D01*
X75660Y14758D01*
X75406Y14504D01*
X75152D01*
X75406Y14250D01*
X75152Y13996D01*
X75406D01*
X75660Y13742D01*
X73120D02*
X73374Y13996D01*
X73628D01*
X73374Y14250D01*
X73628Y14504D01*
X73374D01*
X73120Y14758D01*
X72866Y14504D01*
X72612D01*
X72866Y14250D01*
X72612Y13996D01*
X72866D01*
X73120Y13742D01*
X70580D02*
X70834Y13996D01*
X71088D01*
X70834Y14250D01*
X71088Y14504D01*
X70834D01*
X70580Y14758D01*
X70326Y14504D01*
X70072D01*
X70326Y14250D01*
X70072Y13996D01*
X70326D01*
X70580Y13742D01*
X68040D02*
X68294Y13996D01*
X68548D01*
X68294Y14250D01*
X68548Y14504D01*
X68294D01*
X68040Y14758D01*
X67786Y14504D01*
X67532D01*
X67786Y14250D01*
X67532Y13996D01*
X67786D01*
X68040Y13742D01*
X65500D02*
X65754Y13996D01*
X66008D01*
X65754Y14250D01*
X66008Y14504D01*
X65754D01*
X65500Y14758D01*
X65246Y14504D01*
X64992D01*
X65246Y14250D01*
X64992Y13996D01*
X65246D01*
X65500Y13742D01*
X62960D02*
X63214Y13996D01*
X63468D01*
X63214Y14250D01*
X63468Y14504D01*
X63214D01*
X62960Y14758D01*
X62706Y14504D01*
X62452D01*
X62706Y14250D01*
X62452Y13996D01*
X62706D01*
X62960Y13742D01*
X60420D02*
X60674Y13996D01*
X60928D01*
X60674Y14250D01*
X60928Y14504D01*
X60674D01*
X60420Y14758D01*
X60166Y14504D01*
X59912D01*
X60166Y14250D01*
X59912Y13996D01*
X60166D01*
X60420Y13742D01*
X57880D02*
X58134Y13996D01*
X58388D01*
X58134Y14250D01*
X58388Y14504D01*
X58134D01*
X57880Y14758D01*
X57626Y14504D01*
X57372D01*
X57626Y14250D01*
X57372Y13996D01*
X57626D01*
X57880Y13742D01*
X55340D02*
X55594Y13996D01*
X55848D01*
X55594Y14250D01*
X55848Y14504D01*
X55594D01*
X55340Y14758D01*
X55086Y14504D01*
X54832D01*
X55086Y14250D01*
X54832Y13996D01*
X55086D01*
X55340Y13742D01*
X52800D02*
X53054Y13996D01*
X53308D01*
X53054Y14250D01*
X53308Y14504D01*
X53054D01*
X52800Y14758D01*
X52546Y14504D01*
X52292D01*
X52546Y14250D01*
X52292Y13996D01*
X52546D01*
X52800Y13742D01*
X50260D02*
X50514Y13996D01*
X50768D01*
X50514Y14250D01*
X50768Y14504D01*
X50514D01*
X50260Y14758D01*
X50006Y14504D01*
X49752D01*
X50006Y14250D01*
X49752Y13996D01*
X50006D01*
X50260Y13742D01*
X47720D02*
X47974Y13996D01*
X48228D01*
X47974Y14250D01*
X48228Y14504D01*
X47974D01*
X47720Y14758D01*
X47466Y14504D01*
X47212D01*
X47466Y14250D01*
X47212Y13996D01*
X47466D01*
X47720Y13742D01*
X45180D02*
X45434Y13996D01*
X45688D01*
X45434Y14250D01*
X45688Y14504D01*
X45434D01*
X45180Y14758D01*
X44926Y14504D01*
X44672D01*
X44926Y14250D01*
X44672Y13996D01*
X44926D01*
X45180Y13742D01*
X42640D02*
X42894Y13996D01*
X43148D01*
X42894Y14250D01*
X43148Y14504D01*
X42894D01*
X42640Y14758D01*
X42386Y14504D01*
X42132D01*
X42386Y14250D01*
X42132Y13996D01*
X42386D01*
X42640Y13742D01*
X40100D02*
X40354Y13996D01*
X40608D01*
X40354Y14250D01*
X40608Y14504D01*
X40354D01*
X40100Y14758D01*
X39846Y14504D01*
X39592D01*
X39846Y14250D01*
X39592Y13996D01*
X39846D01*
X40100Y13742D01*
X37560D02*
X37814Y13996D01*
X38068D01*
X37814Y14250D01*
X38068Y14504D01*
X37814D01*
X37560Y14758D01*
X37306Y14504D01*
X37052D01*
X37306Y14250D01*
X37052Y13996D01*
X37306D01*
X37560Y13742D01*
X35020D02*
X35274Y13996D01*
X35528D01*
X35274Y14250D01*
X35528Y14504D01*
X35274D01*
X35020Y14758D01*
X34766Y14504D01*
X34512D01*
X34766Y14250D01*
X34512Y13996D01*
X34766D01*
X35020Y13742D01*
X32480D02*
X32734Y13996D01*
X32988D01*
X32734Y14250D01*
X32988Y14504D01*
X32734D01*
X32480Y14758D01*
X32226Y14504D01*
X31972D01*
X32226Y14250D01*
X31972Y13996D01*
X32226D01*
X32480Y13742D01*
X29940D02*
X30194Y13996D01*
X30448D01*
X30194Y14250D01*
X30448Y14504D01*
X30194D01*
X29940Y14758D01*
X29686Y14504D01*
X29432D01*
X29686Y14250D01*
X29432Y13996D01*
X29686D01*
X29940Y13742D01*
Y46762D02*
X30194Y47016D01*
X30448D01*
X30194Y47270D01*
X30448Y47524D01*
X30194D01*
X29940Y47778D01*
X29686Y47524D01*
X29432D01*
X29686Y47270D01*
X29432Y47016D01*
X29686D01*
X29940Y46762D01*
X32480D02*
X32734Y47016D01*
X32988D01*
X32734Y47270D01*
X32988Y47524D01*
X32734D01*
X32480Y47778D01*
X32226Y47524D01*
X31972D01*
X32226Y47270D01*
X31972Y47016D01*
X32226D01*
X32480Y46762D01*
X35020D02*
X35274Y47016D01*
X35528D01*
X35274Y47270D01*
X35528Y47524D01*
X35274D01*
X35020Y47778D01*
X34766Y47524D01*
X34512D01*
X34766Y47270D01*
X34512Y47016D01*
X34766D01*
X35020Y46762D01*
X37560D02*
X37814Y47016D01*
X38068D01*
X37814Y47270D01*
X38068Y47524D01*
X37814D01*
X37560Y47778D01*
X37306Y47524D01*
X37052D01*
X37306Y47270D01*
X37052Y47016D01*
X37306D01*
X37560Y46762D01*
X40100D02*
X40354Y47016D01*
X40608D01*
X40354Y47270D01*
X40608Y47524D01*
X40354D01*
X40100Y47778D01*
X39846Y47524D01*
X39592D01*
X39846Y47270D01*
X39592Y47016D01*
X39846D01*
X40100Y46762D01*
X42640D02*
X42894Y47016D01*
X43148D01*
X42894Y47270D01*
X43148Y47524D01*
X42894D01*
X42640Y47778D01*
X42386Y47524D01*
X42132D01*
X42386Y47270D01*
X42132Y47016D01*
X42386D01*
X42640Y46762D01*
X45180D02*
X45434Y47016D01*
X45688D01*
X45434Y47270D01*
X45688Y47524D01*
X45434D01*
X45180Y47778D01*
X44926Y47524D01*
X44672D01*
X44926Y47270D01*
X44672Y47016D01*
X44926D01*
X45180Y46762D01*
X47720D02*
X47974Y47016D01*
X48228D01*
X47974Y47270D01*
X48228Y47524D01*
X47974D01*
X47720Y47778D01*
X47466Y47524D01*
X47212D01*
X47466Y47270D01*
X47212Y47016D01*
X47466D01*
X47720Y46762D01*
X50260D02*
X50514Y47016D01*
X50768D01*
X50514Y47270D01*
X50768Y47524D01*
X50514D01*
X50260Y47778D01*
X50006Y47524D01*
X49752D01*
X50006Y47270D01*
X49752Y47016D01*
X50006D01*
X50260Y46762D01*
X52800D02*
X53054Y47016D01*
X53308D01*
X53054Y47270D01*
X53308Y47524D01*
X53054D01*
X52800Y47778D01*
X52546Y47524D01*
X52292D01*
X52546Y47270D01*
X52292Y47016D01*
X52546D01*
X52800Y46762D01*
X55340D02*
X55594Y47016D01*
X55848D01*
X55594Y47270D01*
X55848Y47524D01*
X55594D01*
X55340Y47778D01*
X55086Y47524D01*
X54832D01*
X55086Y47270D01*
X54832Y47016D01*
X55086D01*
X55340Y46762D01*
X57880D02*
X58134Y47016D01*
X58388D01*
X58134Y47270D01*
X58388Y47524D01*
X58134D01*
X57880Y47778D01*
X57626Y47524D01*
X57372D01*
X57626Y47270D01*
X57372Y47016D01*
X57626D01*
X57880Y46762D01*
X60420D02*
X60674Y47016D01*
X60928D01*
X60674Y47270D01*
X60928Y47524D01*
X60674D01*
X60420Y47778D01*
X60166Y47524D01*
X59912D01*
X60166Y47270D01*
X59912Y47016D01*
X60166D01*
X60420Y46762D01*
X62960D02*
X63214Y47016D01*
X63468D01*
X63214Y47270D01*
X63468Y47524D01*
X63214D01*
X62960Y47778D01*
X62706Y47524D01*
X62452D01*
X62706Y47270D01*
X62452Y47016D01*
X62706D01*
X62960Y46762D01*
X65500D02*
X65754Y47016D01*
X66008D01*
X65754Y47270D01*
X66008Y47524D01*
X65754D01*
X65500Y47778D01*
X65246Y47524D01*
X64992D01*
X65246Y47270D01*
X64992Y47016D01*
X65246D01*
X65500Y46762D01*
X68040D02*
X68294Y47016D01*
X68548D01*
X68294Y47270D01*
X68548Y47524D01*
X68294D01*
X68040Y47778D01*
X67786Y47524D01*
X67532D01*
X67786Y47270D01*
X67532Y47016D01*
X67786D01*
X68040Y46762D01*
X70580D02*
X70834Y47016D01*
X71088D01*
X70834Y47270D01*
X71088Y47524D01*
X70834D01*
X70580Y47778D01*
X70326Y47524D01*
X70072D01*
X70326Y47270D01*
X70072Y47016D01*
X70326D01*
X70580Y46762D01*
X73120D02*
X73374Y47016D01*
X73628D01*
X73374Y47270D01*
X73628Y47524D01*
X73374D01*
X73120Y47778D01*
X72866Y47524D01*
X72612D01*
X72866Y47270D01*
X72612Y47016D01*
X72866D01*
X73120Y46762D01*
X75660D02*
X75914Y47016D01*
X76168D01*
X75914Y47270D01*
X76168Y47524D01*
X75914D01*
X75660Y47778D01*
X75406Y47524D01*
X75152D01*
X75406Y47270D01*
X75152Y47016D01*
X75406D01*
X75660Y46762D01*
X78200D02*
X78454Y47016D01*
X78708D01*
X78454Y47270D01*
X78708Y47524D01*
X78454D01*
X78200Y47778D01*
X77946Y47524D01*
X77692D01*
X77946Y47270D01*
X77692Y47016D01*
X77946D01*
X78200Y46762D01*
X80740D02*
X80994Y47016D01*
X81248D01*
X80994Y47270D01*
X81248Y47524D01*
X80994D01*
X80740Y47778D01*
X80486Y47524D01*
X80232D01*
X80486Y47270D01*
X80232Y47016D01*
X80486D01*
X80740Y46762D01*
X83280D02*
X83534Y47016D01*
X83788D01*
X83534Y47270D01*
X83788Y47524D01*
X83534D01*
X83280Y47778D01*
X83026Y47524D01*
X82772D01*
X83026Y47270D01*
X82772Y47016D01*
X83026D01*
X83280Y46762D01*
X85820D02*
X86074Y47016D01*
X86328D01*
X86074Y47270D01*
X86328Y47524D01*
X86074D01*
X85820Y47778D01*
X85566Y47524D01*
X85312D01*
X85566Y47270D01*
X85312Y47016D01*
X85566D01*
X85820Y46762D01*
X88360D02*
X88614Y47016D01*
X88868D01*
X88614Y47270D01*
X88868Y47524D01*
X88614D01*
X88360Y47778D01*
X88106Y47524D01*
X87852D01*
X88106Y47270D01*
X87852Y47016D01*
X88106D01*
X88360Y46762D01*
X90900D02*
X91154Y47016D01*
X91408D01*
X91154Y47270D01*
X91408Y47524D01*
X91154D01*
X90900Y47778D01*
X90646Y47524D01*
X90392D01*
X90646Y47270D01*
X90392Y47016D01*
X90646D01*
X90900Y46762D01*
X93440D02*
X93694Y47016D01*
X93948D01*
X93694Y47270D01*
X93948Y47524D01*
X93694D01*
X93440Y47778D01*
X93186Y47524D01*
X92932D01*
X93186Y47270D01*
X92932Y47016D01*
X93186D01*
X93440Y46762D01*
X7492Y21782D02*
X7746D01*
X8000Y22036D01*
X8254Y21782D01*
X8508D01*
Y22036D01*
X8254Y22290D01*
X8508Y22544D01*
Y22798D01*
X8254D01*
X8000Y22544D01*
X7746Y22798D01*
X7492D01*
Y22544D01*
X7746Y22290D01*
X7492Y22036D01*
Y21782D01*
Y19242D02*
X7746D01*
X8000Y19496D01*
X8254Y19242D01*
X8508D01*
Y19496D01*
X8254Y19750D01*
X8508Y20004D01*
Y20258D01*
X8254D01*
X8000Y20004D01*
X7746Y20258D01*
X7492D01*
Y20004D01*
X7746Y19750D01*
X7492Y19496D01*
Y19242D01*
Y24322D02*
X7746D01*
X8000Y24576D01*
X8254Y24322D01*
X8508D01*
Y24576D01*
X8254Y24830D01*
X8508Y25084D01*
Y25338D01*
X8254D01*
X8000Y25084D01*
X7746Y25338D01*
X7492D01*
Y25084D01*
X7746Y24830D01*
X7492Y24576D01*
Y24322D01*
X39210Y4492D02*
X38702Y5508D01*
X39718D01*
X39210Y4492D01*
X41750D02*
X41242Y5508D01*
X42258D01*
X41750Y4492D01*
X44290D02*
X43782Y5508D01*
X44798D01*
X44290Y4492D01*
X46830D02*
X46322Y5508D01*
X47338D01*
X46830Y4492D01*
X49370D02*
X48862Y5508D01*
X49878D01*
X49370Y4492D01*
X51910D02*
X51402Y5508D01*
X52418D01*
X51910Y4492D01*
X10492Y57492D02*
X10746D01*
X11000Y57746D01*
X11254Y57492D01*
X11508D01*
Y57746D01*
X11254Y58000D01*
X11508Y58254D01*
Y58508D01*
X11254D01*
X11000Y58254D01*
X10746Y58508D01*
X10492D01*
Y58254D01*
X10746Y58000D01*
X10492Y57746D01*
Y57492D01*
Y60032D02*
X10746D01*
X11000Y60286D01*
X11254Y60032D01*
X11508D01*
Y60286D01*
X11254Y60540D01*
X11508Y60794D01*
Y61048D01*
X11254D01*
X11000Y60794D01*
X10746Y61048D01*
X10492D01*
Y60794D01*
X10746Y60540D01*
X10492Y60286D01*
Y60032D01*
Y54952D02*
X10746D01*
X11000Y55206D01*
X11254Y54952D01*
X11508D01*
Y55206D01*
X11254Y55460D01*
X11508Y55714D01*
Y55968D01*
X11254D01*
X11000Y55714D01*
X10746Y55968D01*
X10492D01*
Y55714D01*
X10746Y55460D01*
X10492Y55206D01*
Y54952D01*
X6492Y57492D02*
X6746D01*
X7000Y57746D01*
X7254Y57492D01*
X7508D01*
Y57746D01*
X7254Y58000D01*
X7508Y58254D01*
Y58508D01*
X7254D01*
X7000Y58254D01*
X6746Y58508D01*
X6492D01*
Y58254D01*
X6746Y58000D01*
X6492Y57746D01*
Y57492D01*
Y60032D02*
X6746D01*
X7000Y60286D01*
X7254Y60032D01*
X7508D01*
Y60286D01*
X7254Y60540D01*
X7508Y60794D01*
Y61048D01*
X7254D01*
X7000Y60794D01*
X6746Y61048D01*
X6492D01*
Y60794D01*
X6746Y60540D01*
X6492Y60286D01*
Y60032D01*
Y54952D02*
X6746D01*
X7000Y55206D01*
X7254Y54952D01*
X7508D01*
Y55206D01*
X7254Y55460D01*
X7508Y55714D01*
Y55968D01*
X7254D01*
X7000Y55714D01*
X6746Y55968D01*
X6492D01*
Y55714D01*
X6746Y55460D01*
X6492Y55206D01*
Y54952D01*
X4246Y4246D02*
Y3992D01*
X4754D01*
Y4246D01*
X5008D01*
Y4754D01*
X4754D01*
Y5008D01*
X4246D01*
Y4754D01*
X3992D01*
Y4246D01*
X4246D01*
X94246D02*
Y3992D01*
X94754D01*
Y4246D01*
X95008D01*
Y4754D01*
X94754D01*
Y5008D01*
X94246D01*
Y4754D01*
X93992D01*
Y4246D01*
X94246D01*
X24500Y48272D02*
X24754Y48526D01*
X25008D01*
X24754Y48780D01*
X25008Y49034D01*
X24754D01*
X24500Y49288D01*
X24246Y49034D01*
X23992D01*
X24246Y48780D01*
X23992Y48526D01*
X24246D01*
X24500Y48272D01*
Y43192D02*
X24754Y43446D01*
X25008D01*
X24754Y43700D01*
X25008Y43954D01*
X24754D01*
X24500Y44208D01*
X24246Y43954D01*
X23992D01*
X24246Y43700D01*
X23992Y43446D01*
X24246D01*
X24500Y43192D01*
Y45732D02*
X24754Y45986D01*
X25008D01*
X24754Y46240D01*
X25008Y46494D01*
X24754D01*
X24500Y46748D01*
X24246Y46494D01*
X23992D01*
X24246Y46240D01*
X23992Y45986D01*
X24246D01*
X24500Y45732D01*
Y38112D02*
X24754Y38366D01*
X25008D01*
X24754Y38620D01*
X25008Y38874D01*
X24754D01*
X24500Y39128D01*
X24246Y38874D01*
X23992D01*
X24246Y38620D01*
X23992Y38366D01*
X24246D01*
X24500Y38112D01*
Y40652D02*
X24754Y40906D01*
X25008D01*
X24754Y41160D01*
X25008Y41414D01*
X24754D01*
X24500Y41668D01*
X24246Y41414D01*
X23992D01*
X24246Y41160D01*
X23992Y40906D01*
X24246D01*
X24500Y40652D01*
Y30492D02*
X24754Y30746D01*
X25008D01*
X24754Y31000D01*
X25008Y31254D01*
X24754D01*
X24500Y31508D01*
X24246Y31254D01*
X23992D01*
X24246Y31000D01*
X23992Y30746D01*
X24246D01*
X24500Y30492D01*
Y33032D02*
X24754Y33286D01*
X25008D01*
X24754Y33540D01*
X25008Y33794D01*
X24754D01*
X24500Y34048D01*
X24246Y33794D01*
X23992D01*
X24246Y33540D01*
X23992Y33286D01*
X24246D01*
X24500Y33032D01*
Y35572D02*
X24754Y35826D01*
X25008D01*
X24754Y36080D01*
X25008Y36334D01*
X24754D01*
X24500Y36588D01*
X24246Y36334D01*
X23992D01*
X24246Y36080D01*
X23992Y35826D01*
X24246D01*
X24500Y35572D01*
X6720Y30492D02*
X6974Y30746D01*
X7228D01*
X6974Y31000D01*
X7228Y31254D01*
X6974D01*
X6720Y31508D01*
X6466Y31254D01*
X6212D01*
X6466Y31000D01*
X6212Y30746D01*
X6466D01*
X6720Y30492D01*
Y35572D02*
X6974Y35826D01*
X7228D01*
X6974Y36080D01*
X7228Y36334D01*
X6974D01*
X6720Y36588D01*
X6466Y36334D01*
X6212D01*
X6466Y36080D01*
X6212Y35826D01*
X6466D01*
X6720Y35572D01*
Y33032D02*
X6974Y33286D01*
X7228D01*
X6974Y33540D01*
X7228Y33794D01*
X6974D01*
X6720Y34048D01*
X6466Y33794D01*
X6212D01*
X6466Y33540D01*
X6212Y33286D01*
X6466D01*
X6720Y33032D01*
Y40652D02*
X6974Y40906D01*
X7228D01*
X6974Y41160D01*
X7228Y41414D01*
X6974D01*
X6720Y41668D01*
X6466Y41414D01*
X6212D01*
X6466Y41160D01*
X6212Y40906D01*
X6466D01*
X6720Y40652D01*
Y38112D02*
X6974Y38366D01*
X7228D01*
X6974Y38620D01*
X7228Y38874D01*
X6974D01*
X6720Y39128D01*
X6466Y38874D01*
X6212D01*
X6466Y38620D01*
X6212Y38366D01*
X6466D01*
X6720Y38112D01*
Y48272D02*
X6974Y48526D01*
X7228D01*
X6974Y48780D01*
X7228Y49034D01*
X6974D01*
X6720Y49288D01*
X6466Y49034D01*
X6212D01*
X6466Y48780D01*
X6212Y48526D01*
X6466D01*
X6720Y48272D01*
Y45732D02*
X6974Y45986D01*
X7228D01*
X6974Y46240D01*
X7228Y46494D01*
X6974D01*
X6720Y46748D01*
X6466Y46494D01*
X6212D01*
X6466Y46240D01*
X6212Y45986D01*
X6466D01*
X6720Y45732D01*
Y43192D02*
X6974Y43446D01*
X7228D01*
X6974Y43700D01*
X7228Y43954D01*
X6974D01*
X6720Y44208D01*
X6466Y43954D01*
X6212D01*
X6466Y43700D01*
X6212Y43446D01*
X6466D01*
X6720Y43192D01*
X21492Y3992D02*
X21746Y4500D01*
X21492Y5008D01*
X22000Y4754D01*
X22508Y5008D01*
X22254Y4500D01*
X22508Y3992D01*
X22000Y4246D01*
X21492Y3992D01*
X16412D02*
X16666Y4500D01*
X16412Y5008D01*
X16920Y4754D01*
X17428Y5008D01*
X17174Y4500D01*
X17428Y3992D01*
X16920Y4246D01*
X16412Y3992D01*
X11332D02*
X11586Y4500D01*
X11332Y5008D01*
X11840Y4754D01*
X12348Y5008D01*
X12094Y4500D01*
X12348Y3992D01*
X11840Y4246D01*
X11332Y3992D01*
X24500Y23862D02*
X24754Y24116D01*
X25008D01*
X24754Y24370D01*
X25008Y24624D01*
X24754D01*
X24500Y24878D01*
X24246Y24624D01*
X23992D01*
X24246Y24370D01*
X23992Y24116D01*
X24246D01*
X24500Y23862D01*
Y21322D02*
X24754Y21576D01*
X25008D01*
X24754Y21830D01*
X25008Y22084D01*
X24754D01*
X24500Y22338D01*
X24246Y22084D01*
X23992D01*
X24246Y21830D01*
X23992Y21576D01*
X24246D01*
X24500Y21322D01*
Y18782D02*
X24754Y19036D01*
X25008D01*
X24754Y19290D01*
X25008Y19544D01*
X24754D01*
X24500Y19798D01*
X24246Y19544D01*
X23992D01*
X24246Y19290D01*
X23992Y19036D01*
X24246D01*
X24500Y18782D01*
Y16242D02*
X24754Y16496D01*
X25008D01*
X24754Y16750D01*
X25008Y17004D01*
X24754D01*
X24500Y17258D01*
X24246Y17004D01*
X23992D01*
X24246Y16750D01*
X23992Y16496D01*
X24246D01*
X24500Y16242D01*
X27742Y61250D02*
X28250Y61758D01*
X28758Y61250D01*
X28250Y60742D01*
X27742Y61250D01*
X89992Y9750D02*
X90500Y10258D01*
X91008Y9750D01*
X90500Y9242D01*
X89992Y9750D01*
D54*
X69218Y60500D02*
G03*
X69218Y60500I-508J0D01*
G01*
X71758D02*
G03*
X71758Y60500I-508J0D01*
G01*
X74298D02*
G03*
X74298Y60500I-508J0D01*
G01*
X30488Y5000D02*
G03*
X30488Y5000I-508J0D01*
G01*
X33028D02*
G03*
X33028Y5000I-508J0D01*
G01*
X63508D02*
G03*
X63508Y5000I-508J0D01*
G01*
X60968D02*
G03*
X60968Y5000I-508J0D01*
G01*
X58428D02*
G03*
X58428Y5000I-508J0D01*
G01*
X30758Y53250D02*
G03*
X30758Y53250I-508J0D01*
G01*
X33298D02*
G03*
X33298Y53250I-508J0D01*
G01*
X35838D02*
G03*
X35838Y53250I-508J0D01*
G01*
X85338Y54750D02*
G03*
X85338Y54750I-508J0D01*
G01*
X82798D02*
G03*
X82798Y54750I-508J0D01*
G01*
X80258D02*
G03*
X80258Y54750I-508J0D01*
G01*
X81718Y5000D02*
G03*
X81718Y5000I-508J0D01*
G01*
X84258D02*
G03*
X84258Y5000I-508J0D01*
G01*
X86798D02*
G03*
X86798Y5000I-508J0D01*
G01*
X69968D02*
G03*
X69968Y5000I-508J0D01*
G01*
X72508D02*
G03*
X72508Y5000I-508J0D01*
G01*
X75048D02*
G03*
X75048Y5000I-508J0D01*
G01*
X58548Y53250D02*
G03*
X58548Y53250I-508J0D01*
G01*
X56008D02*
G03*
X56008Y53250I-508J0D01*
G01*
X53468D02*
G03*
X53468Y53250I-508J0D01*
G01*
X69218Y54750D02*
G03*
X69218Y54750I-508J0D01*
G01*
X71758D02*
G03*
X71758Y54750I-508J0D01*
G01*
X74298D02*
G03*
X74298Y54750I-508J0D01*
G01*
X47258Y53250D02*
G03*
X47258Y53250I-508J0D01*
G01*
X44718D02*
G03*
X44718Y53250I-508J0D01*
G01*
X42178D02*
G03*
X42178Y53250I-508J0D01*
G01*
X85338Y60500D02*
G03*
X85338Y60500I-508J0D01*
G01*
X82798D02*
G03*
X82798Y60500I-508J0D01*
G01*
X80258D02*
G03*
X80258Y60500I-508J0D01*
G01*
%TF.MD5,ca5d13282e3b74ddab958050df6e9846*%
M02*
