%TF.GenerationSoftware,Altium Limited,Altium Designer,25.2.1 (25)*%
G04 Layer_Color=65535*
%FSLAX43Y43*%
%MOMM*%
%TF.SameCoordinates,13C9EE94-67B1-431B-914D-B35A32CB9B67*%
%TF.FilePolarity,Positive*%
%TF.FileFunction,Legend,Top*%
%TF.Part,Single*%
G01*
G75*
%TA.AperFunction,NonConductor*%
%ADD14C,0.300*%
%ADD26C,0.254*%
%ADD27C,0.200*%
%ADD28C,0.100*%
%ADD29C,0.400*%
G36*
X96384Y69829D02*
X96454D01*
Y69823D01*
X96492D01*
Y69818D01*
X96530D01*
Y69812D01*
X96557D01*
Y69807D01*
X96590D01*
Y69801D01*
X96601D01*
Y69796D01*
X96628D01*
Y69791D01*
X96649D01*
Y69785D01*
X96666D01*
Y69780D01*
X96687D01*
Y69774D01*
X96698D01*
Y69769D01*
X96715D01*
Y69763D01*
X96731D01*
Y69758D01*
X96742D01*
Y69753D01*
X96758D01*
Y69747D01*
X96769D01*
Y69742D01*
X96791D01*
Y69736D01*
X96796D01*
Y69731D01*
X96812D01*
Y69725D01*
X96818D01*
Y69720D01*
X96828D01*
Y69715D01*
X96845D01*
Y69709D01*
X96850D01*
Y69704D01*
X96866D01*
Y69698D01*
X96877D01*
Y69693D01*
X96888D01*
Y69688D01*
X96894D01*
Y69682D01*
X96904D01*
Y69677D01*
X96915D01*
Y69671D01*
X96921D01*
Y69666D01*
X96932D01*
Y69660D01*
X96942D01*
Y69655D01*
X96948D01*
Y69650D01*
X96959D01*
Y69644D01*
X96964D01*
Y69639D01*
X96975D01*
Y69633D01*
X96980D01*
Y69628D01*
X96991D01*
Y69622D01*
X96997D01*
Y69617D01*
X97002D01*
Y69612D01*
X97013D01*
Y69606D01*
X97018D01*
Y69601D01*
X97029D01*
Y69595D01*
X97035D01*
Y69590D01*
X97040D01*
Y69584D01*
X97051D01*
Y69579D01*
X97056D01*
Y69574D01*
X97062D01*
Y69568D01*
X97067D01*
Y69563D01*
X97073D01*
Y69557D01*
X97084D01*
Y69546D01*
X97094D01*
Y69541D01*
X97100D01*
Y69536D01*
X97105D01*
Y69530D01*
X97111D01*
Y69525D01*
X97116D01*
Y69519D01*
X97121D01*
Y69514D01*
X97127D01*
Y69508D01*
X97138D01*
Y69498D01*
X97149D01*
Y69487D01*
X97154D01*
Y69481D01*
X97159D01*
Y69476D01*
X97165D01*
Y69470D01*
X97170D01*
Y69465D01*
X97176D01*
Y69460D01*
X97181D01*
Y69454D01*
X97187D01*
Y69449D01*
X97192D01*
Y69443D01*
X97197D01*
Y69438D01*
X97203D01*
Y69427D01*
X97208D01*
Y69422D01*
X97214D01*
Y69416D01*
X97219D01*
Y69411D01*
X97225D01*
Y69405D01*
X97230D01*
Y69395D01*
X97235D01*
Y69389D01*
X97241D01*
Y69384D01*
X97246D01*
Y69378D01*
X97252D01*
Y69367D01*
X97257D01*
Y69362D01*
X97263D01*
Y69351D01*
X97268D01*
Y69346D01*
X97273D01*
Y69340D01*
X97279D01*
Y69329D01*
X97284D01*
Y69324D01*
X97290D01*
Y69313D01*
X97295D01*
Y69308D01*
X97301D01*
Y69302D01*
X97306D01*
Y69286D01*
X97311D01*
Y69281D01*
X97317D01*
Y69270D01*
X97322D01*
Y69264D01*
X97328D01*
Y69253D01*
X97333D01*
Y69243D01*
X97339D01*
Y69237D01*
X97344D01*
Y69226D01*
X97349D01*
Y69215D01*
X97355D01*
Y69205D01*
X97360D01*
Y69188D01*
X97366D01*
Y69183D01*
X97371D01*
Y69167D01*
X97377D01*
Y69161D01*
X97382D01*
Y69145D01*
X97387D01*
Y69134D01*
X97393D01*
Y69123D01*
X97398D01*
Y69107D01*
X97404D01*
Y69096D01*
X97409D01*
Y69074D01*
X97414D01*
Y69064D01*
X97420D01*
Y69047D01*
X97425D01*
Y69031D01*
X97431D01*
Y69020D01*
X97436D01*
Y68993D01*
X97442D01*
Y68977D01*
X97447D01*
Y68950D01*
X97452D01*
Y68933D01*
X97458D01*
Y68912D01*
X97463D01*
Y68874D01*
X97469D01*
Y68846D01*
X97474D01*
Y68798D01*
X97480D01*
Y68727D01*
X97485D01*
Y64272D01*
X97480D01*
Y64202D01*
X97474D01*
Y64153D01*
X97469D01*
Y64126D01*
X97463D01*
Y64088D01*
X97458D01*
Y64066D01*
X97452D01*
Y64050D01*
X97447D01*
Y64023D01*
X97442D01*
Y64007D01*
X97436D01*
Y63979D01*
X97431D01*
Y63969D01*
X97425D01*
Y63952D01*
X97420D01*
Y63936D01*
X97414D01*
Y63925D01*
X97409D01*
Y63903D01*
X97404D01*
Y63893D01*
X97398D01*
Y63876D01*
X97393D01*
Y63865D01*
X97387D01*
Y63855D01*
X97382D01*
Y63838D01*
X97377D01*
Y63833D01*
X97371D01*
Y63817D01*
X97366D01*
Y63811D01*
X97360D01*
Y63795D01*
X97355D01*
Y63784D01*
X97349D01*
Y63773D01*
X97344D01*
Y63762D01*
X97339D01*
Y63757D01*
X97333D01*
Y63746D01*
X97328D01*
Y63735D01*
X97322D01*
Y63730D01*
X97317D01*
Y63719D01*
X97311D01*
Y63714D01*
X97306D01*
Y63697D01*
X97301D01*
Y63692D01*
X97295D01*
Y63686D01*
X97290D01*
Y63676D01*
X97284D01*
Y63670D01*
X97279D01*
Y63659D01*
X97273D01*
Y63654D01*
X97268D01*
Y63648D01*
X97263D01*
Y63638D01*
X97257D01*
Y63632D01*
X97252D01*
Y63621D01*
X97246D01*
Y63616D01*
X97241D01*
Y63610D01*
X97235D01*
Y63605D01*
X97230D01*
Y63594D01*
X97225D01*
Y63589D01*
X97219D01*
Y63583D01*
X97214D01*
Y63578D01*
X97208D01*
Y63572D01*
X97203D01*
Y63562D01*
X97197D01*
Y63556D01*
X97192D01*
Y63551D01*
X97187D01*
Y63545D01*
X97181D01*
Y63540D01*
X97176D01*
Y63535D01*
X97170D01*
Y63529D01*
X97165D01*
Y63524D01*
X97159D01*
Y63518D01*
X97154D01*
Y63513D01*
X97149D01*
Y63502D01*
X97138D01*
Y63491D01*
X97127D01*
Y63486D01*
X97121D01*
Y63480D01*
X97116D01*
Y63475D01*
X97111D01*
Y63469D01*
X97105D01*
Y63464D01*
X97100D01*
Y63459D01*
X97094D01*
Y63453D01*
X97084D01*
Y63442D01*
X97073D01*
Y63437D01*
X97067D01*
Y63431D01*
X97062D01*
Y63426D01*
X97056D01*
Y63421D01*
X97051D01*
Y63415D01*
X97040D01*
Y63410D01*
X97035D01*
Y63404D01*
X97029D01*
Y63399D01*
X97018D01*
Y63393D01*
X97013D01*
Y63388D01*
X97002D01*
Y63383D01*
X96997D01*
Y63377D01*
X96991D01*
Y63372D01*
X96980D01*
Y63366D01*
X96975D01*
Y63361D01*
X96964D01*
Y63355D01*
X96959D01*
Y63350D01*
X96948D01*
Y63345D01*
X96942D01*
Y63339D01*
X96932D01*
Y63334D01*
X96921D01*
Y63328D01*
X96915D01*
Y63323D01*
X96904D01*
Y63317D01*
X96894D01*
Y63312D01*
X96888D01*
Y63307D01*
X96877D01*
Y63301D01*
X96866D01*
Y63296D01*
X96850D01*
Y63290D01*
X96845D01*
Y63285D01*
X96828D01*
Y63279D01*
X96818D01*
Y63274D01*
X96812D01*
Y63269D01*
X96796D01*
Y63263D01*
X96791D01*
Y63258D01*
X96769D01*
Y63252D01*
X96758D01*
Y63247D01*
X96742D01*
Y63242D01*
X96731D01*
Y63236D01*
X96715D01*
Y63231D01*
X96698D01*
Y63225D01*
X96687D01*
Y63220D01*
X96666D01*
Y63214D01*
X96649D01*
Y63209D01*
X96628D01*
Y63204D01*
X96601D01*
Y63198D01*
X96590D01*
Y63193D01*
X96557D01*
Y63187D01*
X96530D01*
Y63182D01*
X96492D01*
Y63176D01*
X96454D01*
Y63171D01*
X96384D01*
Y63166D01*
X89867D01*
Y63171D01*
X89796D01*
Y63176D01*
X89758D01*
Y63182D01*
X89721D01*
Y63187D01*
X89693D01*
Y63193D01*
X89661D01*
Y63198D01*
X89650D01*
Y63204D01*
X89623D01*
Y63209D01*
X89601D01*
Y63214D01*
X89585D01*
Y63220D01*
X89563D01*
Y63225D01*
X89552D01*
Y63231D01*
X89536D01*
Y63236D01*
X89520D01*
Y63242D01*
X89509D01*
Y63247D01*
X89493D01*
Y63252D01*
X89482D01*
Y63258D01*
X89460D01*
Y63263D01*
X89455D01*
Y63269D01*
X89438D01*
Y63274D01*
X89433D01*
Y63279D01*
X89422D01*
Y63285D01*
X89406D01*
Y63290D01*
X89400D01*
Y63296D01*
X89384D01*
Y63301D01*
X89373D01*
Y63307D01*
X89362D01*
Y63312D01*
X89357D01*
Y63317D01*
X89346D01*
Y63323D01*
X89335D01*
Y63328D01*
X89330D01*
Y63334D01*
X89319D01*
Y63339D01*
X89308D01*
Y63345D01*
X89303D01*
Y63350D01*
X89292D01*
Y63355D01*
X89286D01*
Y63361D01*
X89276D01*
Y63366D01*
X89270D01*
Y63372D01*
X89259D01*
Y63377D01*
X89254D01*
Y63383D01*
X89248D01*
Y63388D01*
X89238D01*
Y63393D01*
X89232D01*
Y63399D01*
X89221D01*
Y63404D01*
X89216D01*
Y63410D01*
X89210D01*
Y63415D01*
X89200D01*
Y63421D01*
X89194D01*
Y63426D01*
X89189D01*
Y63431D01*
X89183D01*
Y63437D01*
X89178D01*
Y63442D01*
X89167D01*
Y63453D01*
X89156D01*
Y63459D01*
X89151D01*
Y63464D01*
X89145D01*
Y63469D01*
X89140D01*
Y63475D01*
X89135D01*
Y63480D01*
X89129D01*
Y63486D01*
X89124D01*
Y63491D01*
X89113D01*
Y63502D01*
X89102D01*
Y63513D01*
X89097D01*
Y63518D01*
X89091D01*
Y63524D01*
X89086D01*
Y63529D01*
X89080D01*
Y63535D01*
X89075D01*
Y63540D01*
X89069D01*
Y63545D01*
X89064D01*
Y63551D01*
X89059D01*
Y63556D01*
X89053D01*
Y63562D01*
X89048D01*
Y63572D01*
X89042D01*
Y63578D01*
X89037D01*
Y63583D01*
X89031D01*
Y63589D01*
X89026D01*
Y63594D01*
X89021D01*
Y63605D01*
X89015D01*
Y63610D01*
X89010D01*
Y63616D01*
X89004D01*
Y63621D01*
X88999D01*
Y63632D01*
X88993D01*
Y63638D01*
X88988D01*
Y63648D01*
X88983D01*
Y63654D01*
X88977D01*
Y63659D01*
X88972D01*
Y63670D01*
X88966D01*
Y63676D01*
X88961D01*
Y63686D01*
X88955D01*
Y63692D01*
X88950D01*
Y63697D01*
X88945D01*
Y63714D01*
X88939D01*
Y63719D01*
X88934D01*
Y63730D01*
X88928D01*
Y63735D01*
X88923D01*
Y63746D01*
X88917D01*
Y63757D01*
X88912D01*
Y63762D01*
X88907D01*
Y63773D01*
X88901D01*
Y63784D01*
X88896D01*
Y63795D01*
X88890D01*
Y63811D01*
X88885D01*
Y63817D01*
X88879D01*
Y63833D01*
X88874D01*
Y63838D01*
X88869D01*
Y63855D01*
X88863D01*
Y63865D01*
X88858D01*
Y63876D01*
X88852D01*
Y63893D01*
X88847D01*
Y63903D01*
X88842D01*
Y63925D01*
X88836D01*
Y63936D01*
X88831D01*
Y63952D01*
X88825D01*
Y63969D01*
X88820D01*
Y63979D01*
X88814D01*
Y64007D01*
X88809D01*
Y64023D01*
X88804D01*
Y64050D01*
X88798D01*
Y64066D01*
X88793D01*
Y64088D01*
X88787D01*
Y64126D01*
X88782D01*
Y64153D01*
X88776D01*
Y64202D01*
X88771D01*
Y64272D01*
X88766D01*
Y68727D01*
X88771D01*
Y68798D01*
X88776D01*
Y68846D01*
X88782D01*
Y68874D01*
X88787D01*
Y68912D01*
X88793D01*
Y68933D01*
X88798D01*
Y68950D01*
X88804D01*
Y68977D01*
X88809D01*
Y68993D01*
X88814D01*
Y69020D01*
X88820D01*
Y69031D01*
X88825D01*
Y69047D01*
X88831D01*
Y69064D01*
X88836D01*
Y69074D01*
X88842D01*
Y69096D01*
X88847D01*
Y69107D01*
X88852D01*
Y69123D01*
X88858D01*
Y69134D01*
X88863D01*
Y69145D01*
X88869D01*
Y69161D01*
X88874D01*
Y69167D01*
X88879D01*
Y69183D01*
X88885D01*
Y69188D01*
X88890D01*
Y69205D01*
X88896D01*
Y69215D01*
X88901D01*
Y69226D01*
X88907D01*
Y69237D01*
X88912D01*
Y69243D01*
X88917D01*
Y69253D01*
X88923D01*
Y69264D01*
X88928D01*
Y69270D01*
X88934D01*
Y69281D01*
X88939D01*
Y69286D01*
X88945D01*
Y69302D01*
X88950D01*
Y69308D01*
X88955D01*
Y69313D01*
X88961D01*
Y69324D01*
X88966D01*
Y69329D01*
X88972D01*
Y69340D01*
X88977D01*
Y69346D01*
X88983D01*
Y69351D01*
X88988D01*
Y69362D01*
X88993D01*
Y69367D01*
X88999D01*
Y69378D01*
X89004D01*
Y69384D01*
X89010D01*
Y69389D01*
X89015D01*
Y69395D01*
X89021D01*
Y69405D01*
X89026D01*
Y69411D01*
X89031D01*
Y69416D01*
X89037D01*
Y69422D01*
X89042D01*
Y69427D01*
X89048D01*
Y69438D01*
X89053D01*
Y69443D01*
X89059D01*
Y69449D01*
X89064D01*
Y69454D01*
X89069D01*
Y69460D01*
X89075D01*
Y69465D01*
X89080D01*
Y69470D01*
X89086D01*
Y69476D01*
X89091D01*
Y69481D01*
X89097D01*
Y69487D01*
X89102D01*
Y69498D01*
X89113D01*
Y69508D01*
X89124D01*
Y69514D01*
X89129D01*
Y69519D01*
X89135D01*
Y69525D01*
X89140D01*
Y69530D01*
X89145D01*
Y69536D01*
X89151D01*
Y69541D01*
X89156D01*
Y69546D01*
X89167D01*
Y69557D01*
X89178D01*
Y69563D01*
X89183D01*
Y69568D01*
X89189D01*
Y69574D01*
X89194D01*
Y69579D01*
X89200D01*
Y69584D01*
X89210D01*
Y69590D01*
X89216D01*
Y69595D01*
X89221D01*
Y69601D01*
X89232D01*
Y69606D01*
X89238D01*
Y69612D01*
X89248D01*
Y69617D01*
X89254D01*
Y69622D01*
X89259D01*
Y69628D01*
X89270D01*
Y69633D01*
X89276D01*
Y69639D01*
X89286D01*
Y69644D01*
X89292D01*
Y69650D01*
X89303D01*
Y69655D01*
X89308D01*
Y69660D01*
X89319D01*
Y69666D01*
X89330D01*
Y69671D01*
X89335D01*
Y69677D01*
X89346D01*
Y69682D01*
X89357D01*
Y69688D01*
X89362D01*
Y69693D01*
X89373D01*
Y69698D01*
X89384D01*
Y69704D01*
X89400D01*
Y69709D01*
X89406D01*
Y69715D01*
X89422D01*
Y69720D01*
X89433D01*
Y69725D01*
X89438D01*
Y69731D01*
X89455D01*
Y69736D01*
X89460D01*
Y69742D01*
X89482D01*
Y69747D01*
X89493D01*
Y69753D01*
X89509D01*
Y69758D01*
X89520D01*
Y69763D01*
X89536D01*
Y69769D01*
X89552D01*
Y69774D01*
X89563D01*
Y69780D01*
X89585D01*
Y69785D01*
X89601D01*
Y69791D01*
X89623D01*
Y69796D01*
X89650D01*
Y69801D01*
X89661D01*
Y69807D01*
X89693D01*
Y69812D01*
X89721D01*
Y69818D01*
X89758D01*
Y69823D01*
X89796D01*
Y69829D01*
X89867D01*
Y69834D01*
X96384D01*
Y69829D01*
D02*
G37*
G36*
X95636Y58557D02*
X97045D01*
Y57853D01*
X97044D01*
Y57852D01*
X96341D01*
Y57148D01*
X97044D01*
Y57147D01*
X97045D01*
Y56443D01*
X97750D01*
Y55034D01*
X97045D01*
Y55739D01*
X96342D01*
Y55740D01*
X96341D01*
Y56443D01*
X95636D01*
Y55740D01*
X95635D01*
Y55739D01*
X94932D01*
Y56443D01*
X92818D01*
Y55739D01*
X93522D01*
Y55738D01*
X93523D01*
Y55034D01*
X92818D01*
Y55739D01*
X92114D01*
Y55740D01*
X92113D01*
Y56443D01*
X91409D01*
Y55740D01*
X91408D01*
Y55739D01*
X90704D01*
Y55034D01*
X90000D01*
Y56443D01*
X90704D01*
Y57147D01*
X90705D01*
Y57148D01*
X91409D01*
Y57852D01*
X90705D01*
Y57853D01*
X90704D01*
Y58557D01*
X90000D01*
Y59063D01*
Y59064D01*
Y59262D01*
X90703D01*
Y59261D01*
X90704D01*
Y58557D01*
X92113D01*
Y57148D01*
X92818D01*
Y58557D01*
X92113D01*
Y59966D01*
X92818D01*
Y59262D01*
X94932D01*
Y59966D01*
X95636D01*
Y58557D01*
D02*
G37*
G36*
X97750D02*
X97045D01*
Y58773D01*
Y58774D01*
Y59261D01*
X97046D01*
Y59262D01*
X97750D01*
Y58557D01*
D02*
G37*
G36*
X94932Y55684D02*
Y55683D01*
Y55034D01*
X94227D01*
Y55738D01*
X94228D01*
Y55739D01*
X94932D01*
Y55684D01*
D02*
G37*
%LPC*%
G36*
X96394Y69319D02*
X89856D01*
Y69313D01*
X89807D01*
Y69308D01*
X89780D01*
Y69302D01*
X89764D01*
Y69297D01*
X89737D01*
Y69291D01*
X89726D01*
Y69286D01*
X89704D01*
Y69281D01*
X89693D01*
Y69275D01*
X89677D01*
Y69270D01*
X89666D01*
Y69264D01*
X89655D01*
Y69259D01*
X89639D01*
Y69253D01*
X89634D01*
Y69248D01*
X89623D01*
Y69243D01*
X89612D01*
Y69237D01*
X89601D01*
Y69232D01*
X89590D01*
Y69226D01*
X89585D01*
Y69221D01*
X89574D01*
Y69215D01*
X89563D01*
Y69210D01*
X89558D01*
Y69205D01*
X89552D01*
Y69199D01*
X89541D01*
Y69194D01*
X89536D01*
Y69188D01*
X89531D01*
Y69183D01*
X89520D01*
Y69177D01*
X89514D01*
Y69172D01*
X89509D01*
Y69167D01*
X89503D01*
Y69161D01*
X89498D01*
Y69156D01*
X89487D01*
Y69150D01*
X89482D01*
Y69145D01*
X89476D01*
Y69139D01*
X89471D01*
Y69134D01*
X89465D01*
Y69129D01*
X89460D01*
Y69123D01*
X89455D01*
Y69118D01*
X89449D01*
Y69112D01*
X89444D01*
Y69102D01*
X89438D01*
Y69096D01*
X89433D01*
Y69091D01*
X89428D01*
Y69085D01*
X89422D01*
Y69080D01*
X89417D01*
Y69074D01*
X89411D01*
Y69064D01*
X89406D01*
Y69058D01*
X89400D01*
Y69047D01*
X89395D01*
Y69042D01*
X89390D01*
Y69036D01*
X89384D01*
Y69026D01*
X89379D01*
Y69015D01*
X89373D01*
Y69009D01*
X89368D01*
Y68998D01*
X89362D01*
Y68988D01*
X89357D01*
Y68982D01*
X89352D01*
Y68971D01*
X89346D01*
Y68955D01*
X89341D01*
Y68950D01*
X89335D01*
Y68933D01*
X89330D01*
Y68928D01*
X89324D01*
Y68906D01*
X89319D01*
Y68895D01*
X89314D01*
Y68879D01*
X89308D01*
Y68857D01*
X89303D01*
Y68841D01*
X89297D01*
Y68814D01*
X89292D01*
Y68792D01*
X89286D01*
Y68754D01*
X89281D01*
Y64245D01*
X89286D01*
Y64207D01*
X89292D01*
Y64186D01*
X89297D01*
Y64158D01*
X89303D01*
Y64142D01*
X89308D01*
Y64120D01*
X89314D01*
Y64104D01*
X89319D01*
Y64093D01*
X89324D01*
Y64072D01*
X89330D01*
Y64066D01*
X89335D01*
Y64050D01*
X89341D01*
Y64045D01*
X89346D01*
Y64028D01*
X89352D01*
Y64017D01*
X89357D01*
Y64012D01*
X89362D01*
Y64001D01*
X89368D01*
Y63990D01*
X89373D01*
Y63985D01*
X89379D01*
Y63974D01*
X89384D01*
Y63963D01*
X89390D01*
Y63958D01*
X89395D01*
Y63952D01*
X89400D01*
Y63941D01*
X89406D01*
Y63936D01*
X89411D01*
Y63925D01*
X89417D01*
Y63920D01*
X89422D01*
Y63914D01*
X89428D01*
Y63909D01*
X89433D01*
Y63903D01*
X89438D01*
Y63893D01*
X89444D01*
Y63887D01*
X89449D01*
Y63882D01*
X89455D01*
Y63876D01*
X89460D01*
Y63871D01*
X89465D01*
Y63865D01*
X89471D01*
Y63860D01*
X89476D01*
Y63855D01*
X89482D01*
Y63849D01*
X89487D01*
Y63844D01*
X89498D01*
Y63838D01*
X89503D01*
Y63833D01*
X89509D01*
Y63827D01*
X89514D01*
Y63822D01*
X89520D01*
Y63817D01*
X89531D01*
Y63811D01*
X89536D01*
Y63806D01*
X89541D01*
Y63800D01*
X89552D01*
Y63795D01*
X89558D01*
Y63790D01*
X89563D01*
Y63784D01*
X89574D01*
Y63779D01*
X89585D01*
Y63773D01*
X89590D01*
Y63768D01*
X89601D01*
Y63762D01*
X89612D01*
Y63757D01*
X89623D01*
Y63752D01*
X89634D01*
Y63746D01*
X89639D01*
Y63741D01*
X89655D01*
Y63735D01*
X89666D01*
Y63730D01*
X89677D01*
Y63724D01*
X89693D01*
Y63719D01*
X89704D01*
Y63714D01*
X89726D01*
Y63708D01*
X89737D01*
Y63703D01*
X89764D01*
Y63697D01*
X89780D01*
Y63692D01*
X89807D01*
Y63686D01*
X89856D01*
Y63681D01*
X96400D01*
Y63686D01*
X96443D01*
Y63692D01*
X96470D01*
Y63697D01*
X96487D01*
Y63703D01*
X96514D01*
Y63708D01*
X96525D01*
Y63714D01*
X96546D01*
Y63719D01*
X96557D01*
Y63724D01*
X96573D01*
Y63730D01*
X96584D01*
Y63735D01*
X96595D01*
Y63741D01*
X96611D01*
Y63746D01*
X96617D01*
Y63752D01*
X96628D01*
Y63757D01*
X96639D01*
Y63762D01*
X96649D01*
Y63768D01*
X96660D01*
Y63773D01*
X96666D01*
Y63779D01*
X96677D01*
Y63784D01*
X96687D01*
Y63790D01*
X96693D01*
Y63795D01*
X96698D01*
Y63800D01*
X96709D01*
Y63806D01*
X96715D01*
Y63811D01*
X96720D01*
Y63817D01*
X96731D01*
Y63822D01*
X96736D01*
Y63827D01*
X96742D01*
Y63833D01*
X96747D01*
Y63838D01*
X96753D01*
Y63844D01*
X96763D01*
Y63849D01*
X96769D01*
Y63855D01*
X96774D01*
Y63860D01*
X96780D01*
Y63865D01*
X96785D01*
Y63871D01*
X96791D01*
Y63876D01*
X96796D01*
Y63882D01*
X96801D01*
Y63887D01*
X96807D01*
Y63893D01*
X96812D01*
Y63903D01*
X96818D01*
Y63909D01*
X96823D01*
Y63914D01*
X96828D01*
Y63920D01*
X96834D01*
Y63925D01*
X96839D01*
Y63936D01*
X96845D01*
Y63941D01*
X96850D01*
Y63952D01*
X96856D01*
Y63958D01*
X96861D01*
Y63963D01*
X96866D01*
Y63974D01*
X96872D01*
Y63985D01*
X96877D01*
Y63990D01*
X96883D01*
Y63996D01*
X96888D01*
Y64012D01*
X96894D01*
Y64017D01*
X96899D01*
Y64028D01*
X96904D01*
Y64045D01*
X96910D01*
Y64050D01*
X96915D01*
Y64066D01*
X96921D01*
Y64072D01*
X96926D01*
Y64093D01*
X96932D01*
Y64104D01*
X96937D01*
Y64120D01*
X96942D01*
Y64142D01*
X96948D01*
Y64158D01*
X96953D01*
Y64186D01*
X96959D01*
Y64207D01*
X96964D01*
Y64245D01*
X96970D01*
Y68754D01*
X96964D01*
Y68792D01*
X96959D01*
Y68814D01*
X96953D01*
Y68841D01*
X96948D01*
Y68857D01*
X96942D01*
Y68879D01*
X96937D01*
Y68895D01*
X96932D01*
Y68906D01*
X96926D01*
Y68928D01*
X96921D01*
Y68933D01*
X96915D01*
Y68950D01*
X96910D01*
Y68955D01*
X96904D01*
Y68971D01*
X96899D01*
Y68982D01*
X96894D01*
Y68988D01*
X96888D01*
Y68998D01*
X96883D01*
Y69009D01*
X96877D01*
Y69015D01*
X96872D01*
Y69026D01*
X96866D01*
Y69036D01*
X96861D01*
Y69042D01*
X96856D01*
Y69047D01*
X96850D01*
Y69058D01*
X96845D01*
Y69064D01*
X96839D01*
Y69074D01*
X96834D01*
Y69080D01*
X96828D01*
Y69085D01*
X96823D01*
Y69091D01*
X96818D01*
Y69096D01*
X96812D01*
Y69107D01*
X96807D01*
Y69112D01*
X96801D01*
Y69118D01*
X96796D01*
Y69123D01*
X96791D01*
Y69129D01*
X96785D01*
Y69134D01*
X96780D01*
Y69139D01*
X96774D01*
Y69145D01*
X96769D01*
Y69150D01*
X96763D01*
Y69156D01*
X96753D01*
Y69161D01*
X96747D01*
Y69167D01*
X96742D01*
Y69172D01*
X96736D01*
Y69177D01*
X96731D01*
Y69183D01*
X96720D01*
Y69188D01*
X96715D01*
Y69194D01*
X96709D01*
Y69199D01*
X96698D01*
Y69205D01*
X96693D01*
Y69210D01*
X96687D01*
Y69215D01*
X96677D01*
Y69221D01*
X96666D01*
Y69226D01*
X96660D01*
Y69232D01*
X96649D01*
Y69237D01*
X96639D01*
Y69243D01*
X96628D01*
Y69248D01*
X96617D01*
Y69253D01*
X96611D01*
Y69259D01*
X96595D01*
Y69264D01*
X96584D01*
Y69270D01*
X96573D01*
Y69275D01*
X96557D01*
Y69281D01*
X96546D01*
Y69286D01*
X96525D01*
Y69291D01*
X96514D01*
Y69297D01*
X96487D01*
Y69302D01*
X96470D01*
Y69308D01*
X96443D01*
Y69313D01*
X96394D01*
Y69319D01*
D02*
G37*
%LPD*%
G36*
X92987Y68933D02*
X92998D01*
Y64457D01*
X92992D01*
Y64451D01*
X92987D01*
Y64446D01*
X92976D01*
Y64451D01*
X92244D01*
Y64446D01*
X92238D01*
Y64451D01*
X92227D01*
Y64701D01*
X92238D01*
Y64706D01*
X92249D01*
Y64701D01*
X92254D01*
Y64706D01*
X92716D01*
Y64701D01*
X92726D01*
Y64706D01*
X92737D01*
Y64712D01*
X92743D01*
Y65249D01*
Y65255D01*
Y66367D01*
X92737D01*
Y66378D01*
X92732D01*
Y66383D01*
X92726D01*
Y66389D01*
X92721D01*
Y66394D01*
X92710D01*
Y66399D01*
X92705D01*
Y66405D01*
X92699D01*
Y66410D01*
X92694D01*
Y66416D01*
X92688D01*
Y66421D01*
X92683D01*
Y66427D01*
X92678D01*
Y66432D01*
X92672D01*
Y66437D01*
X92667D01*
Y66443D01*
X92661D01*
Y66448D01*
X92656D01*
Y66454D01*
X92645D01*
Y66459D01*
X92640D01*
Y66465D01*
X92634D01*
Y66470D01*
X92629D01*
Y66475D01*
X92623D01*
Y66481D01*
X92618D01*
Y66486D01*
X92613D01*
Y66492D01*
X92607D01*
Y66497D01*
X92602D01*
Y66502D01*
X92596D01*
Y66508D01*
X92585D01*
Y66513D01*
X92580D01*
Y66519D01*
X92575D01*
Y66524D01*
X92569D01*
Y66530D01*
X92564D01*
Y66535D01*
X92558D01*
Y66540D01*
X92553D01*
Y66546D01*
X92547D01*
Y66551D01*
X92542D01*
Y66557D01*
X92531D01*
Y66562D01*
X92526D01*
Y66568D01*
X92520D01*
Y66573D01*
X92515D01*
Y66578D01*
X92509D01*
Y66584D01*
X92504D01*
Y66589D01*
X92499D01*
Y66595D01*
X92493D01*
Y66600D01*
X92488D01*
Y66606D01*
X92482D01*
Y66611D01*
X92477D01*
Y66616D01*
X92466D01*
Y66622D01*
X92461D01*
Y66627D01*
X92455D01*
Y66633D01*
X92450D01*
Y66638D01*
X92444D01*
Y66644D01*
X92439D01*
Y66649D01*
X92433D01*
Y66654D01*
X92428D01*
Y66660D01*
X92423D01*
Y66665D01*
X92412D01*
Y66671D01*
X92406D01*
Y66676D01*
X92401D01*
Y66682D01*
X92396D01*
Y66687D01*
X92390D01*
Y66692D01*
X92385D01*
Y66698D01*
X92379D01*
Y66703D01*
X92374D01*
Y66709D01*
X92368D01*
Y66714D01*
X92363D01*
Y66720D01*
X92358D01*
Y66725D01*
X92347D01*
Y66730D01*
X92341D01*
Y66736D01*
X92336D01*
Y66741D01*
X92330D01*
Y66747D01*
X92325D01*
Y66752D01*
X92320D01*
Y66757D01*
X92314D01*
Y66763D01*
X92309D01*
Y66768D01*
X92303D01*
Y66774D01*
X92292D01*
Y66779D01*
X92287D01*
Y66785D01*
X92282D01*
Y66790D01*
X92276D01*
Y66795D01*
X92271D01*
Y66801D01*
X92265D01*
Y66806D01*
X92260D01*
Y66812D01*
X92254D01*
Y66817D01*
X92249D01*
Y66823D01*
X92244D01*
Y66828D01*
X92233D01*
Y66833D01*
X92227D01*
Y66839D01*
X92222D01*
Y66844D01*
X92216D01*
Y66850D01*
X92211D01*
Y66855D01*
X92206D01*
Y66861D01*
X92200D01*
Y66866D01*
X92195D01*
Y66871D01*
X92189D01*
Y66877D01*
X92184D01*
Y66882D01*
X92178D01*
Y66888D01*
X92168D01*
Y66893D01*
X92162D01*
Y66899D01*
X92157D01*
Y66904D01*
X92151D01*
Y66909D01*
X92146D01*
Y66915D01*
X92140D01*
Y66920D01*
X92135D01*
Y66926D01*
X92130D01*
Y66931D01*
X92124D01*
Y66937D01*
X92113D01*
Y66942D01*
X92108D01*
Y66947D01*
X92103D01*
Y66953D01*
X92097D01*
Y66958D01*
X92092D01*
Y66964D01*
X92086D01*
Y66969D01*
X92081D01*
Y66975D01*
X92075D01*
Y66980D01*
X92070D01*
Y66985D01*
X92065D01*
Y66991D01*
X92059D01*
Y66996D01*
X92048D01*
Y67002D01*
X92043D01*
Y67007D01*
X92037D01*
Y67013D01*
X92032D01*
Y67018D01*
X92027D01*
Y67023D01*
X92021D01*
Y67029D01*
X92016D01*
Y67034D01*
X92010D01*
Y67040D01*
X92005D01*
Y67045D01*
X91994D01*
Y67050D01*
X91989D01*
Y67056D01*
X91983D01*
Y67061D01*
X91978D01*
Y67067D01*
X91972D01*
Y67072D01*
X91967D01*
Y67078D01*
X91961D01*
Y67083D01*
X91956D01*
Y67088D01*
X91951D01*
Y67094D01*
X91945D01*
Y67099D01*
X91940D01*
Y67105D01*
X91929D01*
Y67110D01*
X91923D01*
Y67116D01*
X91918D01*
Y67121D01*
X91913D01*
Y67126D01*
X91907D01*
Y67132D01*
X91902D01*
Y67137D01*
X91891D01*
Y67148D01*
X91885D01*
Y67154D01*
X91875D01*
Y67164D01*
X91864D01*
Y67170D01*
X91858D01*
Y67175D01*
X91853D01*
Y67181D01*
X91847D01*
Y67186D01*
X91842D01*
Y67192D01*
X91837D01*
Y67197D01*
X91831D01*
Y67202D01*
X91820D01*
Y67208D01*
X91815D01*
Y67213D01*
X91810D01*
Y67219D01*
X91804D01*
Y67224D01*
X91799D01*
Y67230D01*
X91793D01*
Y67235D01*
X91788D01*
Y67240D01*
X91782D01*
Y67246D01*
X91777D01*
Y67251D01*
X91772D01*
Y67257D01*
X91766D01*
Y67262D01*
X91761D01*
Y67268D01*
X91750D01*
Y67273D01*
X91744D01*
Y67278D01*
X91739D01*
Y67284D01*
X91734D01*
Y67289D01*
X91728D01*
Y67295D01*
X91723D01*
Y67300D01*
X91717D01*
Y67306D01*
X91712D01*
Y67311D01*
X91706D01*
Y67316D01*
X91696D01*
Y67322D01*
X91690D01*
Y67327D01*
X91685D01*
Y67333D01*
X91679D01*
Y67338D01*
X91674D01*
Y67343D01*
X91668D01*
Y67349D01*
X91663D01*
Y67354D01*
X91658D01*
Y67360D01*
X91652D01*
Y67365D01*
X91647D01*
Y67371D01*
X91641D01*
Y67376D01*
X91630D01*
Y67381D01*
X91625D01*
Y67387D01*
X91620D01*
Y67392D01*
X91614D01*
Y67398D01*
X91609D01*
Y67403D01*
X91603D01*
Y67409D01*
X91598D01*
Y67414D01*
X91592D01*
Y67419D01*
X91587D01*
Y67425D01*
X91576D01*
Y67430D01*
X91571D01*
Y67436D01*
X91565D01*
Y67441D01*
X91560D01*
Y67447D01*
X91554D01*
Y67452D01*
X91549D01*
Y67457D01*
X91544D01*
Y67463D01*
X91538D01*
Y67468D01*
X91533D01*
Y67474D01*
X91527D01*
Y67479D01*
X91517D01*
Y67485D01*
X91511D01*
Y67490D01*
X91506D01*
Y67495D01*
X91500D01*
Y67501D01*
X91495D01*
Y67506D01*
X91489D01*
Y67512D01*
X91484D01*
Y67517D01*
X91479D01*
Y67523D01*
X91473D01*
Y67528D01*
X91468D01*
Y67533D01*
X91462D01*
Y67539D01*
X91451D01*
Y67544D01*
X91446D01*
Y67550D01*
X91441D01*
Y67555D01*
X91435D01*
Y67561D01*
X91430D01*
Y67566D01*
X91424D01*
Y67571D01*
X91419D01*
Y67577D01*
X91413D01*
Y67582D01*
X91408D01*
Y67588D01*
X91397D01*
Y67593D01*
X91392D01*
Y67599D01*
X91386D01*
Y67604D01*
X91381D01*
Y67609D01*
X91375D01*
Y67615D01*
X91370D01*
Y67620D01*
X91365D01*
Y67626D01*
X91359D01*
Y67631D01*
X91348D01*
Y67642D01*
X91343D01*
Y67647D01*
X91332D01*
Y67642D01*
X91327D01*
Y67631D01*
X91321D01*
Y67615D01*
X91316D01*
Y67599D01*
X91310D01*
Y67582D01*
X91305D01*
Y67561D01*
X91299D01*
Y67544D01*
X91294D01*
Y67528D01*
X91289D01*
Y67512D01*
X91283D01*
Y67495D01*
X91278D01*
Y67479D01*
X91272D01*
Y67463D01*
X91267D01*
Y67441D01*
X91261D01*
Y67425D01*
X91256D01*
Y67409D01*
X91251D01*
Y67392D01*
X91245D01*
Y67376D01*
X91240D01*
Y67360D01*
X91234D01*
Y67343D01*
X91229D01*
Y67322D01*
X91224D01*
Y67306D01*
X91218D01*
Y67289D01*
X91213D01*
Y67273D01*
X91207D01*
Y67257D01*
X91202D01*
Y67240D01*
X91196D01*
Y67219D01*
X91191D01*
Y67208D01*
X91186D01*
Y67186D01*
X91180D01*
Y67170D01*
X91175D01*
Y67154D01*
X91169D01*
Y67137D01*
X91164D01*
Y67121D01*
X91158D01*
Y67099D01*
X91153D01*
Y67083D01*
X91148D01*
Y67067D01*
X91142D01*
Y67050D01*
X91137D01*
Y67034D01*
X91131D01*
Y67018D01*
X91126D01*
Y67002D01*
X91120D01*
Y66980D01*
X91115D01*
Y66969D01*
X91110D01*
Y66947D01*
X91104D01*
Y66931D01*
X91099D01*
Y66915D01*
X91093D01*
Y66899D01*
X91088D01*
Y66882D01*
X91082D01*
Y66861D01*
X91077D01*
Y66844D01*
X91072D01*
Y66828D01*
X91066D01*
Y66812D01*
X91061D01*
Y66795D01*
X91055D01*
Y66779D01*
X91050D01*
Y66763D01*
X91044D01*
Y66747D01*
X91039D01*
Y66725D01*
X91034D01*
Y66709D01*
X91028D01*
Y66692D01*
X91023D01*
Y66676D01*
X91017D01*
Y66660D01*
X91012D01*
Y66644D01*
X91006D01*
Y66627D01*
X91001D01*
Y66606D01*
X90996D01*
Y66589D01*
X90990D01*
Y66573D01*
X90985D01*
Y66557D01*
X90979D01*
Y66540D01*
X90974D01*
Y66524D01*
X90968D01*
Y66502D01*
X90963D01*
Y66486D01*
X90958D01*
Y66470D01*
X90952D01*
Y66454D01*
X90947D01*
Y66437D01*
X90941D01*
Y66421D01*
X90936D01*
Y66405D01*
X90930D01*
Y66389D01*
X90925D01*
Y66367D01*
X90920D01*
Y66356D01*
X90914D01*
Y66334D01*
X90909D01*
Y66318D01*
X90903D01*
Y66302D01*
X90898D01*
Y66285D01*
X90893D01*
Y66269D01*
X90887D01*
Y66247D01*
X90882D01*
Y66231D01*
X90876D01*
Y66215D01*
X90871D01*
Y66199D01*
X90865D01*
Y66182D01*
X90860D01*
Y66166D01*
X90855D01*
Y66150D01*
X90849D01*
Y66128D01*
X90844D01*
Y66112D01*
X90838D01*
Y66096D01*
X90833D01*
Y66079D01*
X90827D01*
Y66063D01*
X90822D01*
Y66047D01*
X90817D01*
Y66030D01*
X90811D01*
Y66009D01*
X90806D01*
Y65992D01*
X90800D01*
Y65976D01*
X90795D01*
Y65960D01*
X90789D01*
Y65944D01*
X90784D01*
Y65927D01*
X90779D01*
Y65911D01*
X90773D01*
Y65889D01*
X90768D01*
Y65873D01*
X90762D01*
Y65857D01*
X90757D01*
Y65841D01*
X90751D01*
Y65824D01*
X90746D01*
Y65808D01*
X90741D01*
Y65786D01*
X90735D01*
Y65775D01*
X90730D01*
Y65754D01*
X90724D01*
Y65737D01*
X90719D01*
Y65721D01*
X90713D01*
Y65705D01*
X90708D01*
Y65689D01*
X90703D01*
Y65667D01*
X90697D01*
Y65656D01*
X90692D01*
Y65634D01*
X90686D01*
Y65618D01*
X90681D01*
Y65602D01*
X90675D01*
Y65586D01*
X90670D01*
Y65569D01*
X90665D01*
Y65548D01*
X90659D01*
Y65537D01*
X90654D01*
Y65515D01*
X90648D01*
Y65499D01*
X90643D01*
Y65482D01*
X90637D01*
Y65466D01*
X90632D01*
Y65450D01*
X90627D01*
Y65428D01*
X90621D01*
Y65417D01*
X90616D01*
Y65396D01*
X90610D01*
Y65379D01*
X90605D01*
Y65363D01*
X90600D01*
Y65347D01*
X90594D01*
Y65330D01*
X90589D01*
Y65314D01*
X90583D01*
Y65293D01*
X90578D01*
Y65276D01*
X90572D01*
Y65260D01*
X90567D01*
Y65244D01*
X90562D01*
Y65227D01*
X90556D01*
Y65211D01*
X90551D01*
Y65195D01*
X90545D01*
Y65173D01*
X90540D01*
Y65157D01*
X90534D01*
Y65141D01*
X90529D01*
Y65124D01*
X90524D01*
Y65108D01*
X90518D01*
Y65092D01*
X90513D01*
Y65075D01*
X90507D01*
Y65054D01*
X90502D01*
Y65037D01*
X90496D01*
Y65021D01*
X90491D01*
Y65005D01*
X90486D01*
Y64989D01*
X90480D01*
Y64972D01*
X90475D01*
Y64956D01*
X90469D01*
Y64934D01*
X90464D01*
Y64918D01*
X90458D01*
Y64902D01*
X90453D01*
Y64886D01*
X90448D01*
Y64869D01*
X90442D01*
Y64853D01*
X90437D01*
Y64837D01*
X90442D01*
Y64831D01*
X90692D01*
Y64582D01*
X90686D01*
Y64576D01*
X89666D01*
Y64582D01*
X89661D01*
Y64826D01*
X89666D01*
Y64831D01*
X90301D01*
Y64837D01*
X90307D01*
Y64842D01*
X90312D01*
Y64864D01*
X90317D01*
Y64880D01*
X90323D01*
Y64896D01*
X90328D01*
Y64913D01*
X90334D01*
Y64929D01*
X90339D01*
Y64945D01*
X90344D01*
Y64962D01*
X90350D01*
Y64978D01*
X90355D01*
Y64994D01*
X90361D01*
Y65010D01*
X90366D01*
Y65032D01*
X90372D01*
Y65048D01*
X90377D01*
Y65065D01*
X90382D01*
Y65081D01*
X90388D01*
Y65097D01*
X90393D01*
Y65113D01*
X90399D01*
Y65130D01*
X90404D01*
Y65151D01*
X90410D01*
Y65162D01*
X90415D01*
Y65184D01*
X90420D01*
Y65200D01*
X90426D01*
Y65217D01*
X90431D01*
Y65233D01*
X90437D01*
Y65249D01*
X90442D01*
Y65265D01*
X90448D01*
Y65282D01*
X90453D01*
Y65298D01*
X90458D01*
Y65320D01*
X90464D01*
Y65336D01*
X90469D01*
Y65352D01*
X90475D01*
Y65368D01*
X90480D01*
Y65385D01*
X90486D01*
Y65401D01*
X90491D01*
Y65417D01*
X90496D01*
Y65434D01*
X90502D01*
Y65450D01*
X90507D01*
Y65472D01*
X90513D01*
Y65488D01*
X90518D01*
Y65504D01*
X90524D01*
Y65520D01*
X90529D01*
Y65537D01*
X90534D01*
Y65553D01*
X90540D01*
Y65569D01*
X90545D01*
Y65586D01*
X90551D01*
Y65602D01*
X90556D01*
Y65623D01*
X90562D01*
Y65640D01*
X90567D01*
Y65656D01*
X90572D01*
Y65672D01*
X90578D01*
Y65689D01*
X90583D01*
Y65705D01*
X90589D01*
Y65721D01*
X90594D01*
Y65737D01*
X90600D01*
Y65759D01*
X90605D01*
Y65775D01*
X90610D01*
Y65792D01*
X90616D01*
Y65808D01*
X90621D01*
Y65824D01*
X90627D01*
Y65841D01*
X90632D01*
Y65857D01*
X90637D01*
Y65873D01*
X90643D01*
Y65889D01*
X90648D01*
Y65911D01*
X90654D01*
Y65927D01*
X90659D01*
Y65944D01*
X90665D01*
Y65960D01*
X90670D01*
Y65976D01*
X90675D01*
Y65992D01*
X90681D01*
Y66009D01*
X90686D01*
Y66025D01*
X90692D01*
Y66041D01*
X90697D01*
Y66058D01*
X90703D01*
Y66079D01*
X90708D01*
Y66096D01*
X90713D01*
Y66112D01*
X90719D01*
Y66128D01*
X90724D01*
Y66144D01*
X90730D01*
Y66161D01*
X90735D01*
Y66177D01*
X90741D01*
Y66193D01*
X90746D01*
Y66215D01*
X90751D01*
Y66226D01*
X90757D01*
Y66247D01*
X90762D01*
Y66264D01*
X90768D01*
Y66280D01*
X90773D01*
Y66296D01*
X90779D01*
Y66313D01*
X90784D01*
Y66329D01*
X90789D01*
Y66345D01*
X90795D01*
Y66367D01*
X90800D01*
Y66383D01*
X90806D01*
Y66399D01*
X90811D01*
Y66416D01*
X90817D01*
Y66432D01*
X90822D01*
Y66448D01*
X90827D01*
Y66465D01*
X90833D01*
Y66481D01*
X90838D01*
Y66497D01*
X90844D01*
Y66513D01*
X90849D01*
Y66535D01*
X90855D01*
Y66551D01*
X90860D01*
Y66568D01*
X90865D01*
Y66584D01*
X90871D01*
Y66600D01*
X90876D01*
Y66616D01*
X90882D01*
Y66633D01*
X90887D01*
Y66654D01*
X90893D01*
Y66671D01*
X90898D01*
Y66687D01*
X90903D01*
Y66703D01*
X90909D01*
Y66720D01*
X90914D01*
Y66736D01*
X90920D01*
Y66752D01*
X90925D01*
Y66768D01*
X90930D01*
Y66785D01*
X90936D01*
Y66801D01*
X90941D01*
Y66823D01*
X90947D01*
Y66839D01*
X90952D01*
Y66855D01*
X90958D01*
Y66871D01*
X90963D01*
Y66888D01*
X90968D01*
Y66904D01*
X90974D01*
Y66920D01*
X90979D01*
Y66942D01*
X90985D01*
Y66953D01*
X90990D01*
Y66975D01*
X90996D01*
Y66991D01*
X91001D01*
Y67007D01*
X91006D01*
Y67023D01*
X91012D01*
Y67040D01*
X91017D01*
Y67056D01*
X91023D01*
Y67072D01*
X91028D01*
Y67088D01*
X91034D01*
Y67110D01*
X91039D01*
Y67126D01*
X91044D01*
Y67143D01*
X91050D01*
Y67154D01*
X91055D01*
Y67175D01*
X91061D01*
Y67192D01*
X91066D01*
Y67208D01*
X91072D01*
Y67224D01*
X91077D01*
Y67240D01*
X91082D01*
Y67262D01*
X91088D01*
Y67278D01*
X91093D01*
Y67295D01*
X91099D01*
Y67311D01*
X91104D01*
Y67327D01*
X91110D01*
Y67343D01*
X91115D01*
Y67360D01*
X91120D01*
Y67381D01*
X91126D01*
Y67392D01*
X91131D01*
Y67414D01*
X91137D01*
Y67430D01*
X91142D01*
Y67447D01*
X91148D01*
Y67463D01*
X91153D01*
Y67479D01*
X91158D01*
Y67495D01*
X91164D01*
Y67512D01*
X91169D01*
Y67528D01*
X91175D01*
Y67550D01*
X91180D01*
Y67566D01*
X91186D01*
Y67582D01*
X91191D01*
Y67599D01*
X91196D01*
Y67615D01*
X91202D01*
Y67631D01*
X91207D01*
Y67647D01*
X91213D01*
Y67664D01*
X91218D01*
Y67680D01*
X91224D01*
Y67702D01*
X91229D01*
Y67718D01*
X91234D01*
Y67734D01*
X91240D01*
Y67750D01*
X91245D01*
Y67767D01*
X91251D01*
Y67783D01*
X91256D01*
Y67799D01*
X91261D01*
Y67816D01*
X91267D01*
Y67837D01*
X91272D01*
Y67854D01*
X91278D01*
Y67870D01*
X91283D01*
Y67886D01*
X91289D01*
Y67902D01*
X91294D01*
Y67919D01*
X91299D01*
Y67935D01*
X91305D01*
Y67951D01*
X91310D01*
Y67967D01*
X91316D01*
Y67989D01*
X91321D01*
Y68000D01*
X91327D01*
Y68022D01*
X91332D01*
Y68038D01*
X91337D01*
Y68054D01*
X91343D01*
Y68071D01*
X91348D01*
Y68087D01*
X91354D01*
Y68103D01*
X91359D01*
Y68119D01*
X91365D01*
Y68141D01*
X91370D01*
Y68157D01*
X91375D01*
Y68174D01*
X91381D01*
Y68190D01*
X91386D01*
Y68206D01*
X91392D01*
Y68223D01*
X91397D01*
Y68239D01*
X91403D01*
Y68255D01*
X91408D01*
Y68277D01*
X91413D01*
Y68288D01*
X91419D01*
Y68309D01*
X91424D01*
Y68326D01*
X91430D01*
Y68342D01*
X91435D01*
Y68358D01*
X91441D01*
Y68374D01*
X91446D01*
Y68391D01*
X91451D01*
Y68407D01*
X91457D01*
Y68412D01*
X91462D01*
Y68418D01*
X91468D01*
Y68412D01*
X91473D01*
Y68407D01*
X91479D01*
Y68402D01*
X91484D01*
Y68396D01*
X91489D01*
Y68391D01*
X91495D01*
Y68385D01*
X91500D01*
Y68380D01*
X91506D01*
Y68374D01*
X91511D01*
Y68369D01*
X91517D01*
Y68364D01*
X91522D01*
Y68358D01*
X91527D01*
Y68353D01*
X91533D01*
Y68347D01*
X91538D01*
Y68342D01*
X91544D01*
Y68336D01*
X91549D01*
Y68331D01*
X91554D01*
Y68326D01*
X91560D01*
Y68320D01*
X91565D01*
Y68315D01*
X91571D01*
Y68309D01*
X91576D01*
Y68304D01*
X91582D01*
Y68298D01*
X91587D01*
Y68293D01*
X91592D01*
Y68288D01*
X91598D01*
Y68282D01*
X91603D01*
Y68277D01*
X91609D01*
Y68271D01*
X91614D01*
Y68266D01*
X91620D01*
Y68260D01*
X91625D01*
Y68255D01*
X91630D01*
Y68250D01*
X91636D01*
Y68244D01*
X91641D01*
Y68239D01*
X91647D01*
Y68233D01*
X91652D01*
Y68228D01*
X91658D01*
Y68223D01*
X91663D01*
Y68217D01*
X91668D01*
Y68212D01*
X91674D01*
Y68206D01*
X91679D01*
Y68201D01*
X91685D01*
Y68195D01*
X91690D01*
Y68190D01*
X91696D01*
Y68185D01*
X91701D01*
Y68179D01*
X91706D01*
Y68174D01*
X91712D01*
Y68168D01*
X91717D01*
Y68163D01*
X91723D01*
Y68157D01*
X91728D01*
Y68152D01*
X91734D01*
Y68147D01*
X91739D01*
Y68141D01*
X91744D01*
Y68136D01*
X91750D01*
Y68130D01*
X91755D01*
Y68125D01*
X91761D01*
Y68119D01*
X91766D01*
Y68114D01*
X91772D01*
Y68109D01*
X91777D01*
Y68103D01*
X91782D01*
Y68098D01*
X91788D01*
Y68092D01*
X91793D01*
Y68087D01*
X91799D01*
Y68081D01*
X91804D01*
Y68076D01*
X91810D01*
Y68071D01*
X91815D01*
Y68065D01*
X91820D01*
Y68060D01*
X91826D01*
Y68054D01*
X91831D01*
Y68049D01*
X91837D01*
Y68043D01*
X91842D01*
Y68038D01*
X91847D01*
Y68033D01*
X91853D01*
Y68027D01*
X91858D01*
Y68022D01*
X91864D01*
Y68016D01*
X91869D01*
Y68011D01*
X91875D01*
Y68005D01*
X91880D01*
Y68000D01*
X91885D01*
Y67995D01*
X91891D01*
Y67989D01*
X91896D01*
Y67984D01*
X91902D01*
Y67978D01*
X91907D01*
Y67973D01*
X91913D01*
Y67967D01*
X91918D01*
Y67962D01*
X91923D01*
Y67957D01*
X91929D01*
Y67951D01*
X91934D01*
Y67946D01*
X91940D01*
Y67940D01*
X91945D01*
Y67935D01*
X91951D01*
Y67929D01*
X91956D01*
Y67924D01*
X91961D01*
Y67919D01*
X91967D01*
Y67913D01*
X91972D01*
Y67908D01*
X91978D01*
Y67902D01*
X91983D01*
Y67897D01*
X91989D01*
Y67892D01*
X91994D01*
Y67886D01*
X91999D01*
Y67881D01*
X92005D01*
Y67875D01*
X92010D01*
Y67870D01*
X92016D01*
Y67864D01*
X92021D01*
Y67859D01*
X92027D01*
Y67854D01*
X92032D01*
Y67848D01*
X92037D01*
Y67843D01*
X92043D01*
Y67837D01*
X92048D01*
Y67832D01*
X92054D01*
Y67826D01*
X92059D01*
Y67821D01*
X92065D01*
Y67816D01*
X92070D01*
Y67810D01*
X92075D01*
Y67805D01*
X92081D01*
Y67799D01*
X92086D01*
Y67794D01*
X92092D01*
Y67788D01*
X92097D01*
Y67783D01*
X92103D01*
Y67778D01*
X92108D01*
Y67772D01*
X92113D01*
Y67767D01*
X92119D01*
Y67761D01*
X92124D01*
Y67756D01*
X92130D01*
Y67750D01*
X92135D01*
Y67745D01*
X92140D01*
Y67740D01*
X92146D01*
Y67734D01*
X92151D01*
Y67729D01*
X92157D01*
Y67723D01*
X92162D01*
Y67718D01*
X92168D01*
Y67712D01*
X92173D01*
Y67707D01*
X92178D01*
Y67702D01*
X92184D01*
Y67696D01*
X92189D01*
Y67691D01*
X92195D01*
Y67685D01*
X92200D01*
Y67680D01*
X92206D01*
Y67674D01*
X92211D01*
Y67669D01*
X92216D01*
Y67664D01*
X92222D01*
Y67658D01*
X92227D01*
Y67653D01*
X92233D01*
Y67647D01*
X92238D01*
Y67642D01*
X92244D01*
Y67631D01*
X92254D01*
Y67626D01*
X92260D01*
Y67620D01*
X92265D01*
Y67615D01*
X92271D01*
Y67609D01*
X92276D01*
Y67604D01*
X92282D01*
Y67599D01*
X92287D01*
Y67593D01*
X92292D01*
Y67588D01*
X92298D01*
Y67582D01*
X92303D01*
Y67577D01*
X92309D01*
Y67571D01*
X92314D01*
Y67566D01*
X92320D01*
Y67561D01*
X92325D01*
Y67555D01*
X92330D01*
Y67550D01*
X92336D01*
Y67544D01*
X92341D01*
Y67539D01*
X92347D01*
Y67533D01*
X92352D01*
Y67528D01*
X92358D01*
Y67523D01*
X92363D01*
Y67517D01*
X92368D01*
Y67512D01*
X92374D01*
Y67506D01*
X92379D01*
Y67501D01*
X92385D01*
Y67495D01*
X92390D01*
Y67490D01*
X92396D01*
Y67485D01*
X92401D01*
Y67479D01*
X92406D01*
Y67474D01*
X92412D01*
Y67468D01*
X92417D01*
Y67463D01*
X92423D01*
Y67457D01*
X92428D01*
Y67452D01*
X92433D01*
Y67447D01*
X92439D01*
Y67441D01*
X92444D01*
Y67436D01*
X92450D01*
Y67430D01*
X92455D01*
Y67425D01*
X92461D01*
Y67419D01*
X92466D01*
Y67414D01*
X92471D01*
Y67409D01*
X92477D01*
Y67403D01*
X92482D01*
Y67398D01*
X92488D01*
Y67392D01*
X92493D01*
Y67387D01*
X92499D01*
Y67381D01*
X92504D01*
Y67376D01*
X92509D01*
Y67371D01*
X92515D01*
Y67365D01*
X92520D01*
Y67360D01*
X92526D01*
Y67354D01*
X92531D01*
Y67349D01*
X92537D01*
Y67343D01*
X92542D01*
Y67338D01*
X92547D01*
Y67333D01*
X92553D01*
Y67327D01*
X92558D01*
Y67322D01*
X92564D01*
Y67316D01*
X92569D01*
Y67311D01*
X92575D01*
Y67306D01*
X92580D01*
Y67300D01*
X92585D01*
Y67295D01*
X92591D01*
Y67289D01*
X92596D01*
Y67284D01*
X92602D01*
Y67278D01*
X92607D01*
Y67273D01*
X92613D01*
Y67268D01*
X92618D01*
Y67262D01*
X92623D01*
Y67257D01*
X92629D01*
Y67251D01*
X92634D01*
Y67246D01*
X92640D01*
Y67240D01*
X92645D01*
Y67235D01*
X92651D01*
Y67230D01*
X92656D01*
Y67224D01*
X92661D01*
Y67219D01*
X92667D01*
Y67213D01*
X92672D01*
Y67208D01*
X92678D01*
Y67202D01*
X92683D01*
Y67197D01*
X92688D01*
Y67192D01*
X92694D01*
Y67186D01*
X92699D01*
Y67181D01*
X92705D01*
Y67175D01*
X92710D01*
Y67170D01*
X92716D01*
Y67164D01*
X92721D01*
Y67154D01*
X92743D01*
Y68673D01*
X92737D01*
Y68678D01*
X92103D01*
Y68689D01*
X92097D01*
Y68928D01*
X92103D01*
Y68933D01*
X92981D01*
Y68939D01*
X92987D01*
Y68933D01*
D02*
G37*
G36*
X93269D02*
X94154D01*
Y68684D01*
X94148D01*
Y68678D01*
X93513D01*
Y68667D01*
X93508D01*
Y68657D01*
X93513D01*
Y68429D01*
X93508D01*
Y68396D01*
X93513D01*
Y67664D01*
X93508D01*
Y67631D01*
X93513D01*
Y67170D01*
X93508D01*
Y67154D01*
X93513D01*
Y67148D01*
X93519D01*
Y67154D01*
X93530D01*
Y67164D01*
X93535D01*
Y67170D01*
X93540D01*
Y67175D01*
X93546D01*
Y67181D01*
X93551D01*
Y67186D01*
X93557D01*
Y67192D01*
X93562D01*
Y67197D01*
X93567D01*
Y67202D01*
X93573D01*
Y67208D01*
X93578D01*
Y67213D01*
X93584D01*
Y67219D01*
X93589D01*
Y67224D01*
X93595D01*
Y67230D01*
X93600D01*
Y67235D01*
X93605D01*
Y67240D01*
X93611D01*
Y67246D01*
X93616D01*
Y67251D01*
X93622D01*
Y67257D01*
X93627D01*
Y67262D01*
X93633D01*
Y67268D01*
X93638D01*
Y67273D01*
X93643D01*
Y67278D01*
X93649D01*
Y67284D01*
X93654D01*
Y67289D01*
X93660D01*
Y67295D01*
X93665D01*
Y67300D01*
X93671D01*
Y67306D01*
X93676D01*
Y67311D01*
X93681D01*
Y67316D01*
X93687D01*
Y67322D01*
X93692D01*
Y67327D01*
X93698D01*
Y67333D01*
X93703D01*
Y67338D01*
X93709D01*
Y67343D01*
X93714D01*
Y67349D01*
X93719D01*
Y67354D01*
X93725D01*
Y67360D01*
X93730D01*
Y67365D01*
X93736D01*
Y67371D01*
X93741D01*
Y67376D01*
X93747D01*
Y67381D01*
X93752D01*
Y67387D01*
X93757D01*
Y67392D01*
X93763D01*
Y67398D01*
X93768D01*
Y67403D01*
X93774D01*
Y67409D01*
X93779D01*
Y67414D01*
X93785D01*
Y67419D01*
X93790D01*
Y67425D01*
X93795D01*
Y67430D01*
X93801D01*
Y67436D01*
X93806D01*
Y67441D01*
X93812D01*
Y67447D01*
X93817D01*
Y67452D01*
X93823D01*
Y67457D01*
X93828D01*
Y67463D01*
X93833D01*
Y67468D01*
X93839D01*
Y67474D01*
X93844D01*
Y67479D01*
X93850D01*
Y67485D01*
X93855D01*
Y67490D01*
X93860D01*
Y67495D01*
X93866D01*
Y67501D01*
X93871D01*
Y67506D01*
X93877D01*
Y67512D01*
X93882D01*
Y67517D01*
X93888D01*
Y67523D01*
X93893D01*
Y67528D01*
X93898D01*
Y67533D01*
X93904D01*
Y67539D01*
X93909D01*
Y67544D01*
X93915D01*
Y67550D01*
X93920D01*
Y67555D01*
X93926D01*
Y67561D01*
X93931D01*
Y67566D01*
X93936D01*
Y67571D01*
X93942D01*
Y67577D01*
X93947D01*
Y67582D01*
X93953D01*
Y67588D01*
X93958D01*
Y67593D01*
X93964D01*
Y67599D01*
X93969D01*
Y67604D01*
X93974D01*
Y67609D01*
X93980D01*
Y67615D01*
X93985D01*
Y67620D01*
X93991D01*
Y67626D01*
X93996D01*
Y67631D01*
X94007D01*
Y67642D01*
X94012D01*
Y67647D01*
X94018D01*
Y67653D01*
X94023D01*
Y67658D01*
X94029D01*
Y67664D01*
X94034D01*
Y67669D01*
X94040D01*
Y67674D01*
X94045D01*
Y67680D01*
X94050D01*
Y67685D01*
X94056D01*
Y67691D01*
X94061D01*
Y67696D01*
X94067D01*
Y67702D01*
X94072D01*
Y67707D01*
X94078D01*
Y67712D01*
X94083D01*
Y67718D01*
X94088D01*
Y67723D01*
X94094D01*
Y67729D01*
X94099D01*
Y67734D01*
X94105D01*
Y67740D01*
X94110D01*
Y67745D01*
X94116D01*
Y67750D01*
X94121D01*
Y67756D01*
X94126D01*
Y67761D01*
X94132D01*
Y67767D01*
X94137D01*
Y67772D01*
X94143D01*
Y67778D01*
X94148D01*
Y67783D01*
X94154D01*
Y67788D01*
X94159D01*
Y67794D01*
X94164D01*
Y67799D01*
X94170D01*
Y67805D01*
X94175D01*
Y67810D01*
X94181D01*
Y67816D01*
X94186D01*
Y67821D01*
X94191D01*
Y67826D01*
X94197D01*
Y67832D01*
X94202D01*
Y67837D01*
X94208D01*
Y67843D01*
X94213D01*
Y67848D01*
X94219D01*
Y67854D01*
X94224D01*
Y67859D01*
X94229D01*
Y67864D01*
X94235D01*
Y67870D01*
X94240D01*
Y67875D01*
X94246D01*
Y67881D01*
X94251D01*
Y67886D01*
X94257D01*
Y67892D01*
X94262D01*
Y67897D01*
X94267D01*
Y67902D01*
X94273D01*
Y67908D01*
X94278D01*
Y67913D01*
X94284D01*
Y67919D01*
X94289D01*
Y67924D01*
X94295D01*
Y67929D01*
X94300D01*
Y67935D01*
X94305D01*
Y67940D01*
X94311D01*
Y67946D01*
X94316D01*
Y67951D01*
X94322D01*
Y67957D01*
X94327D01*
Y67962D01*
X94333D01*
Y67967D01*
X94338D01*
Y67973D01*
X94343D01*
Y67978D01*
X94349D01*
Y67984D01*
X94354D01*
Y67989D01*
X94360D01*
Y67995D01*
X94365D01*
Y68000D01*
X94371D01*
Y68005D01*
X94376D01*
Y68011D01*
X94381D01*
Y68016D01*
X94387D01*
Y68022D01*
X94392D01*
Y68027D01*
X94398D01*
Y68033D01*
X94403D01*
Y68038D01*
X94409D01*
Y68043D01*
X94414D01*
Y68049D01*
X94419D01*
Y68054D01*
X94425D01*
Y68060D01*
X94430D01*
Y68065D01*
X94436D01*
Y68071D01*
X94441D01*
Y68076D01*
X94447D01*
Y68081D01*
X94452D01*
Y68087D01*
X94457D01*
Y68092D01*
X94463D01*
Y68098D01*
X94468D01*
Y68103D01*
X94474D01*
Y68109D01*
X94479D01*
Y68114D01*
X94484D01*
Y68119D01*
X94490D01*
Y68125D01*
X94495D01*
Y68130D01*
X94501D01*
Y68136D01*
X94506D01*
Y68141D01*
X94512D01*
Y68147D01*
X94517D01*
Y68152D01*
X94522D01*
Y68157D01*
X94528D01*
Y68163D01*
X94533D01*
Y68168D01*
X94539D01*
Y68174D01*
X94544D01*
Y68179D01*
X94550D01*
Y68185D01*
X94555D01*
Y68190D01*
X94560D01*
Y68195D01*
X94566D01*
Y68201D01*
X94571D01*
Y68206D01*
X94577D01*
Y68212D01*
X94582D01*
Y68217D01*
X94588D01*
Y68223D01*
X94593D01*
Y68228D01*
X94598D01*
Y68233D01*
X94604D01*
Y68239D01*
X94609D01*
Y68244D01*
X94615D01*
Y68250D01*
X94620D01*
Y68255D01*
X94626D01*
Y68260D01*
X94631D01*
Y68266D01*
X94636D01*
Y68271D01*
X94642D01*
Y68277D01*
X94647D01*
Y68282D01*
X94653D01*
Y68288D01*
X94658D01*
Y68293D01*
X94664D01*
Y68298D01*
X94669D01*
Y68304D01*
X94674D01*
Y68309D01*
X94680D01*
Y68315D01*
X94685D01*
Y68320D01*
X94691D01*
Y68326D01*
X94696D01*
Y68331D01*
X94702D01*
Y68336D01*
X94707D01*
Y68342D01*
X94712D01*
Y68347D01*
X94718D01*
Y68353D01*
X94723D01*
Y68358D01*
X94729D01*
Y68364D01*
X94734D01*
Y68369D01*
X94740D01*
Y68374D01*
X94745D01*
Y68380D01*
X94750D01*
Y68385D01*
X94756D01*
Y68391D01*
X94761D01*
Y68396D01*
X94767D01*
Y68402D01*
X94772D01*
Y68407D01*
X94777D01*
Y68412D01*
X94783D01*
Y68418D01*
X94788D01*
Y68412D01*
X94794D01*
Y68407D01*
X94799D01*
Y68391D01*
X94805D01*
Y68374D01*
X94810D01*
Y68358D01*
X94815D01*
Y68342D01*
X94821D01*
Y68326D01*
X94826D01*
Y68309D01*
X94832D01*
Y68288D01*
X94837D01*
Y68277D01*
X94843D01*
Y68255D01*
X94848D01*
Y68239D01*
X94853D01*
Y68223D01*
X94859D01*
Y68206D01*
X94864D01*
Y68190D01*
X94870D01*
Y68174D01*
X94875D01*
Y68157D01*
X94881D01*
Y68141D01*
X94886D01*
Y68119D01*
X94891D01*
Y68103D01*
X94897D01*
Y68087D01*
X94902D01*
Y68071D01*
X94908D01*
Y68054D01*
X94913D01*
Y68038D01*
X94919D01*
Y68022D01*
X94924D01*
Y68005D01*
X94929D01*
Y67989D01*
X94935D01*
Y67967D01*
X94940D01*
Y67951D01*
X94946D01*
Y67935D01*
X94951D01*
Y67919D01*
X94957D01*
Y67902D01*
X94962D01*
Y67886D01*
X94967D01*
Y67870D01*
X94973D01*
Y67854D01*
X94978D01*
Y67837D01*
X94984D01*
Y67816D01*
X94989D01*
Y67799D01*
X94995D01*
Y67783D01*
X95000D01*
Y67767D01*
X95005D01*
Y67750D01*
X95011D01*
Y67734D01*
X95016D01*
Y67718D01*
X95022D01*
Y67702D01*
X95027D01*
Y67680D01*
X95033D01*
Y67669D01*
X95038D01*
Y67647D01*
X95043D01*
Y67631D01*
X95049D01*
Y67615D01*
X95054D01*
Y67599D01*
X95060D01*
Y67582D01*
X95065D01*
Y67566D01*
X95070D01*
Y67550D01*
X95076D01*
Y67528D01*
X95081D01*
Y67512D01*
X95087D01*
Y67495D01*
X95092D01*
Y67479D01*
X95098D01*
Y67463D01*
X95103D01*
Y67447D01*
X95108D01*
Y67430D01*
X95114D01*
Y67414D01*
X95119D01*
Y67398D01*
X95125D01*
Y67381D01*
X95130D01*
Y67360D01*
X95136D01*
Y67343D01*
X95141D01*
Y67327D01*
X95146D01*
Y67311D01*
X95152D01*
Y67295D01*
X95157D01*
Y67278D01*
X95163D01*
Y67262D01*
X95168D01*
Y67246D01*
X95174D01*
Y67230D01*
X95179D01*
Y67208D01*
X95184D01*
Y67192D01*
X95190D01*
Y67175D01*
X95195D01*
Y67154D01*
X95201D01*
Y67143D01*
X95206D01*
Y67126D01*
X95212D01*
Y67110D01*
X95217D01*
Y67094D01*
X95222D01*
Y67072D01*
X95228D01*
Y67061D01*
X95233D01*
Y67040D01*
X95239D01*
Y67023D01*
X95244D01*
Y67007D01*
X95250D01*
Y66991D01*
X95255D01*
Y66975D01*
X95260D01*
Y66958D01*
X95266D01*
Y66942D01*
X95271D01*
Y66926D01*
X95277D01*
Y66904D01*
X95282D01*
Y66888D01*
X95288D01*
Y66871D01*
X95293D01*
Y66855D01*
X95298D01*
Y66839D01*
X95304D01*
Y66823D01*
X95309D01*
Y66806D01*
X95315D01*
Y66790D01*
X95320D01*
Y66774D01*
X95326D01*
Y66752D01*
X95331D01*
Y66736D01*
X95336D01*
Y66720D01*
X95342D01*
Y66703D01*
X95347D01*
Y66687D01*
X95353D01*
Y66671D01*
X95358D01*
Y66654D01*
X95363D01*
Y66638D01*
X95369D01*
Y66622D01*
X95374D01*
Y66606D01*
X95380D01*
Y66584D01*
X95385D01*
Y66568D01*
X95391D01*
Y66551D01*
X95396D01*
Y66535D01*
X95401D01*
Y66519D01*
X95407D01*
Y66502D01*
X95412D01*
Y66486D01*
X95418D01*
Y66465D01*
X95423D01*
Y66454D01*
X95429D01*
Y66432D01*
X95434D01*
Y66416D01*
X95439D01*
Y66399D01*
X95445D01*
Y66383D01*
X95450D01*
Y66367D01*
X95456D01*
Y66351D01*
X95461D01*
Y66334D01*
X95467D01*
Y66318D01*
X95472D01*
Y66296D01*
X95477D01*
Y66280D01*
X95483D01*
Y66264D01*
X95488D01*
Y66247D01*
X95494D01*
Y66231D01*
X95499D01*
Y66215D01*
X95505D01*
Y66199D01*
X95510D01*
Y66177D01*
X95515D01*
Y66166D01*
X95521D01*
Y66144D01*
X95526D01*
Y66128D01*
X95532D01*
Y66112D01*
X95537D01*
Y66096D01*
X95543D01*
Y66079D01*
X95548D01*
Y66063D01*
X95553D01*
Y66047D01*
X95559D01*
Y66030D01*
X95564D01*
Y66014D01*
X95570D01*
Y65992D01*
X95575D01*
Y65976D01*
X95581D01*
Y65960D01*
X95586D01*
Y65944D01*
X95591D01*
Y65927D01*
X95597D01*
Y65911D01*
X95602D01*
Y65895D01*
X95608D01*
Y65879D01*
X95613D01*
Y65857D01*
X95619D01*
Y65846D01*
X95624D01*
Y65824D01*
X95629D01*
Y65808D01*
X95635D01*
Y65792D01*
X95640D01*
Y65775D01*
X95646D01*
Y65759D01*
X95651D01*
Y65743D01*
X95656D01*
Y65727D01*
X95662D01*
Y65705D01*
X95667D01*
Y65689D01*
X95673D01*
Y65672D01*
X95678D01*
Y65656D01*
X95684D01*
Y65640D01*
X95689D01*
Y65623D01*
X95694D01*
Y65607D01*
X95700D01*
Y65591D01*
X95705D01*
Y65575D01*
X95711D01*
Y65558D01*
X95716D01*
Y65537D01*
X95722D01*
Y65520D01*
X95727D01*
Y65504D01*
X95732D01*
Y65488D01*
X95738D01*
Y65472D01*
X95743D01*
Y65455D01*
X95749D01*
Y65439D01*
X95754D01*
Y65417D01*
X95760D01*
Y65406D01*
X95765D01*
Y65385D01*
X95770D01*
Y65368D01*
X95776D01*
Y65352D01*
X95781D01*
Y65336D01*
X95787D01*
Y65320D01*
X95792D01*
Y65303D01*
X95798D01*
Y65287D01*
X95803D01*
Y65271D01*
X95808D01*
Y65249D01*
X95814D01*
Y65233D01*
X95819D01*
Y65217D01*
X95825D01*
Y65200D01*
X95830D01*
Y65184D01*
X95836D01*
Y65168D01*
X95841D01*
Y65151D01*
X95846D01*
Y65135D01*
X95852D01*
Y65119D01*
X95857D01*
Y65103D01*
X95863D01*
Y65081D01*
X95868D01*
Y65065D01*
X95874D01*
Y65048D01*
X95879D01*
Y65032D01*
X95884D01*
Y65016D01*
X95890D01*
Y64999D01*
X95895D01*
Y64983D01*
X95901D01*
Y64962D01*
X95906D01*
Y64951D01*
X95911D01*
Y64929D01*
X95917D01*
Y64913D01*
X95922D01*
Y64896D01*
X95928D01*
Y64880D01*
X95933D01*
Y64864D01*
X95939D01*
Y64842D01*
X95944D01*
Y64837D01*
X95949D01*
Y64831D01*
X96590D01*
Y64582D01*
X96584D01*
Y64576D01*
X95564D01*
Y64587D01*
X95559D01*
Y64826D01*
X95564D01*
Y64831D01*
X95808D01*
Y64837D01*
X95814D01*
Y64853D01*
X95808D01*
Y64875D01*
X95803D01*
Y64886D01*
X95798D01*
Y64907D01*
X95792D01*
Y64924D01*
X95787D01*
Y64940D01*
X95781D01*
Y64956D01*
X95776D01*
Y64972D01*
X95770D01*
Y64989D01*
X95765D01*
Y65010D01*
X95760D01*
Y65027D01*
X95754D01*
Y65043D01*
X95749D01*
Y65059D01*
X95743D01*
Y65075D01*
X95738D01*
Y65092D01*
X95732D01*
Y65108D01*
X95727D01*
Y65130D01*
X95722D01*
Y65146D01*
X95716D01*
Y65162D01*
X95711D01*
Y65179D01*
X95705D01*
Y65195D01*
X95700D01*
Y65211D01*
X95694D01*
Y65227D01*
X95689D01*
Y65249D01*
X95684D01*
Y65265D01*
X95678D01*
Y65282D01*
X95673D01*
Y65298D01*
X95667D01*
Y65314D01*
X95662D01*
Y65330D01*
X95656D01*
Y65347D01*
X95651D01*
Y65368D01*
X95646D01*
Y65379D01*
X95640D01*
Y65401D01*
X95635D01*
Y65417D01*
X95629D01*
Y65434D01*
X95624D01*
Y65450D01*
X95619D01*
Y65466D01*
X95613D01*
Y65488D01*
X95608D01*
Y65499D01*
X95602D01*
Y65520D01*
X95597D01*
Y65537D01*
X95591D01*
Y65553D01*
X95586D01*
Y65569D01*
X95581D01*
Y65586D01*
X95575D01*
Y65602D01*
X95570D01*
Y65623D01*
X95564D01*
Y65640D01*
X95559D01*
Y65656D01*
X95553D01*
Y65672D01*
X95548D01*
Y65689D01*
X95543D01*
Y65705D01*
X95537D01*
Y65721D01*
X95532D01*
Y65743D01*
X95526D01*
Y65759D01*
X95521D01*
Y65775D01*
X95515D01*
Y65792D01*
X95510D01*
Y65808D01*
X95505D01*
Y65824D01*
X95499D01*
Y65846D01*
X95494D01*
Y65862D01*
X95488D01*
Y65879D01*
X95483D01*
Y65895D01*
X95477D01*
Y65911D01*
X95472D01*
Y65927D01*
X95467D01*
Y65944D01*
X95461D01*
Y65960D01*
X95456D01*
Y65982D01*
X95450D01*
Y65998D01*
X95445D01*
Y66014D01*
X95439D01*
Y66030D01*
X95434D01*
Y66047D01*
X95429D01*
Y66068D01*
X95423D01*
Y66079D01*
X95418D01*
Y66101D01*
X95412D01*
Y66117D01*
X95407D01*
Y66134D01*
X95401D01*
Y66150D01*
X95396D01*
Y66166D01*
X95391D01*
Y66182D01*
X95385D01*
Y66199D01*
X95380D01*
Y66220D01*
X95374D01*
Y66237D01*
X95369D01*
Y66253D01*
X95363D01*
Y66269D01*
X95358D01*
Y66285D01*
X95353D01*
Y66302D01*
X95347D01*
Y66318D01*
X95342D01*
Y66340D01*
X95336D01*
Y66356D01*
X95331D01*
Y66367D01*
X95326D01*
Y66389D01*
X95320D01*
Y66405D01*
X95315D01*
Y66421D01*
X95309D01*
Y66437D01*
X95304D01*
Y66459D01*
X95298D01*
Y66475D01*
X95293D01*
Y66492D01*
X95288D01*
Y66508D01*
X95282D01*
Y66524D01*
X95277D01*
Y66540D01*
X95271D01*
Y66562D01*
X95266D01*
Y66578D01*
X95260D01*
Y66595D01*
X95255D01*
Y66611D01*
X95250D01*
Y66627D01*
X95244D01*
Y66644D01*
X95239D01*
Y66660D01*
X95233D01*
Y66682D01*
X95228D01*
Y66698D01*
X95222D01*
Y66714D01*
X95217D01*
Y66730D01*
X95212D01*
Y66747D01*
X95206D01*
Y66763D01*
X95201D01*
Y66779D01*
X95195D01*
Y66801D01*
X95190D01*
Y66812D01*
X95184D01*
Y66833D01*
X95179D01*
Y66850D01*
X95174D01*
Y66866D01*
X95168D01*
Y66882D01*
X95163D01*
Y66899D01*
X95157D01*
Y66920D01*
X95152D01*
Y66931D01*
X95146D01*
Y66953D01*
X95141D01*
Y66969D01*
X95136D01*
Y66985D01*
X95130D01*
Y67002D01*
X95125D01*
Y67018D01*
X95119D01*
Y67034D01*
X95114D01*
Y67056D01*
X95108D01*
Y67072D01*
X95103D01*
Y67088D01*
X95098D01*
Y67105D01*
X95092D01*
Y67121D01*
X95087D01*
Y67137D01*
X95081D01*
Y67154D01*
X95076D01*
Y67175D01*
X95070D01*
Y67192D01*
X95065D01*
Y67208D01*
X95060D01*
Y67224D01*
X95054D01*
Y67240D01*
X95049D01*
Y67257D01*
X95043D01*
Y67278D01*
X95038D01*
Y67295D01*
X95033D01*
Y67311D01*
X95027D01*
Y67327D01*
X95022D01*
Y67343D01*
X95016D01*
Y67360D01*
X95011D01*
Y67376D01*
X95005D01*
Y67392D01*
X95000D01*
Y67414D01*
X94995D01*
Y67430D01*
X94989D01*
Y67447D01*
X94984D01*
Y67463D01*
X94978D01*
Y67479D01*
X94973D01*
Y67495D01*
X94967D01*
Y67512D01*
X94962D01*
Y67533D01*
X94957D01*
Y67550D01*
X94951D01*
Y67566D01*
X94946D01*
Y67582D01*
X94940D01*
Y67599D01*
X94935D01*
Y67615D01*
X94929D01*
Y67631D01*
X94924D01*
Y67647D01*
X94908D01*
Y67636D01*
X94902D01*
Y67631D01*
X94891D01*
Y67626D01*
X94886D01*
Y67620D01*
X94881D01*
Y67615D01*
X94875D01*
Y67609D01*
X94870D01*
Y67604D01*
X94864D01*
Y67599D01*
X94859D01*
Y67593D01*
X94853D01*
Y67588D01*
X94848D01*
Y67582D01*
X94843D01*
Y67577D01*
X94832D01*
Y67571D01*
X94826D01*
Y67566D01*
X94821D01*
Y67561D01*
X94815D01*
Y67555D01*
X94810D01*
Y67550D01*
X94805D01*
Y67544D01*
X94799D01*
Y67539D01*
X94794D01*
Y67533D01*
X94788D01*
Y67528D01*
X94777D01*
Y67523D01*
X94772D01*
Y67517D01*
X94767D01*
Y67512D01*
X94761D01*
Y67506D01*
X94756D01*
Y67501D01*
X94750D01*
Y67495D01*
X94745D01*
Y67490D01*
X94740D01*
Y67485D01*
X94734D01*
Y67479D01*
X94729D01*
Y67474D01*
X94723D01*
Y67468D01*
X94712D01*
Y67463D01*
X94707D01*
Y67457D01*
X94702D01*
Y67452D01*
X94696D01*
Y67447D01*
X94691D01*
Y67441D01*
X94685D01*
Y67436D01*
X94680D01*
Y67430D01*
X94674D01*
Y67425D01*
X94669D01*
Y67419D01*
X94664D01*
Y67414D01*
X94653D01*
Y67409D01*
X94647D01*
Y67403D01*
X94642D01*
Y67398D01*
X94636D01*
Y67392D01*
X94631D01*
Y67387D01*
X94626D01*
Y67381D01*
X94620D01*
Y67376D01*
X94615D01*
Y67371D01*
X94609D01*
Y67365D01*
X94598D01*
Y67360D01*
X94593D01*
Y67354D01*
X94588D01*
Y67349D01*
X94582D01*
Y67343D01*
X94577D01*
Y67338D01*
X94571D01*
Y67333D01*
X94566D01*
Y67327D01*
X94560D01*
Y67322D01*
X94555D01*
Y67316D01*
X94550D01*
Y67311D01*
X94544D01*
Y67306D01*
X94533D01*
Y67300D01*
X94528D01*
Y67295D01*
X94522D01*
Y67289D01*
X94517D01*
Y67284D01*
X94512D01*
Y67278D01*
X94506D01*
Y67273D01*
X94501D01*
Y67268D01*
X94495D01*
Y67262D01*
X94490D01*
Y67257D01*
X94479D01*
Y67251D01*
X94474D01*
Y67246D01*
X94468D01*
Y67240D01*
X94463D01*
Y67235D01*
X94457D01*
Y67230D01*
X94452D01*
Y67224D01*
X94447D01*
Y67219D01*
X94441D01*
Y67213D01*
X94436D01*
Y67208D01*
X94430D01*
Y67202D01*
X94425D01*
Y67197D01*
X94414D01*
Y67192D01*
X94409D01*
Y67186D01*
X94403D01*
Y67181D01*
X94398D01*
Y67175D01*
X94392D01*
Y67170D01*
X94387D01*
Y67164D01*
X94381D01*
Y67159D01*
X94376D01*
Y67154D01*
X94371D01*
Y67148D01*
X94360D01*
Y67137D01*
X94349D01*
Y67132D01*
X94343D01*
Y67126D01*
X94338D01*
Y67121D01*
X94333D01*
Y67116D01*
X94327D01*
Y67110D01*
X94322D01*
Y67105D01*
X94316D01*
Y67099D01*
X94311D01*
Y67094D01*
X94300D01*
Y67088D01*
X94295D01*
Y67083D01*
X94289D01*
Y67078D01*
X94284D01*
Y67072D01*
X94278D01*
Y67067D01*
X94273D01*
Y67061D01*
X94267D01*
Y67056D01*
X94262D01*
Y67050D01*
X94257D01*
Y67045D01*
X94251D01*
Y67040D01*
X94246D01*
Y67034D01*
X94235D01*
Y67029D01*
X94229D01*
Y67023D01*
X94224D01*
Y67018D01*
X94219D01*
Y67013D01*
X94213D01*
Y67007D01*
X94208D01*
Y67002D01*
X94202D01*
Y66996D01*
X94197D01*
Y66991D01*
X94191D01*
Y66985D01*
X94181D01*
Y66980D01*
X94175D01*
Y66975D01*
X94170D01*
Y66969D01*
X94164D01*
Y66964D01*
X94159D01*
Y66958D01*
X94154D01*
Y66953D01*
X94148D01*
Y66947D01*
X94143D01*
Y66942D01*
X94137D01*
Y66937D01*
X94132D01*
Y66931D01*
X94126D01*
Y66926D01*
X94116D01*
Y66920D01*
X94110D01*
Y66915D01*
X94105D01*
Y66909D01*
X94099D01*
Y66904D01*
X94094D01*
Y66899D01*
X94088D01*
Y66893D01*
X94083D01*
Y66888D01*
X94078D01*
Y66882D01*
X94072D01*
Y66877D01*
X94061D01*
Y66871D01*
X94056D01*
Y66866D01*
X94050D01*
Y66861D01*
X94045D01*
Y66855D01*
X94040D01*
Y66850D01*
X94034D01*
Y66844D01*
X94029D01*
Y66839D01*
X94023D01*
Y66833D01*
X94018D01*
Y66828D01*
X94012D01*
Y66823D01*
X94002D01*
Y66817D01*
X93996D01*
Y66812D01*
X93991D01*
Y66806D01*
X93985D01*
Y66801D01*
X93980D01*
Y66795D01*
X93974D01*
Y66790D01*
X93969D01*
Y66785D01*
X93964D01*
Y66779D01*
X93958D01*
Y66774D01*
X93953D01*
Y66768D01*
X93942D01*
Y66763D01*
X93936D01*
Y66757D01*
X93931D01*
Y66752D01*
X93926D01*
Y66747D01*
X93920D01*
Y66741D01*
X93915D01*
Y66736D01*
X93909D01*
Y66730D01*
X93904D01*
Y66725D01*
X93898D01*
Y66720D01*
X93893D01*
Y66714D01*
X93882D01*
Y66709D01*
X93877D01*
Y66703D01*
X93871D01*
Y66698D01*
X93866D01*
Y66692D01*
X93860D01*
Y66687D01*
X93855D01*
Y66682D01*
X93850D01*
Y66676D01*
X93844D01*
Y66671D01*
X93839D01*
Y66665D01*
X93833D01*
Y66660D01*
X93828D01*
Y66654D01*
X93817D01*
Y66649D01*
X93812D01*
Y66644D01*
X93806D01*
Y66638D01*
X93801D01*
Y66633D01*
X93795D01*
Y66627D01*
X93790D01*
Y66622D01*
X93785D01*
Y66616D01*
X93779D01*
Y66611D01*
X93768D01*
Y66606D01*
X93763D01*
Y66600D01*
X93757D01*
Y66595D01*
X93752D01*
Y66589D01*
X93747D01*
Y66584D01*
X93741D01*
Y66578D01*
X93736D01*
Y66573D01*
X93730D01*
Y66568D01*
X93725D01*
Y66562D01*
X93719D01*
Y66557D01*
X93714D01*
Y66551D01*
X93703D01*
Y66546D01*
X93698D01*
Y66540D01*
X93692D01*
Y66535D01*
X93687D01*
Y66530D01*
X93681D01*
Y66524D01*
X93676D01*
Y66519D01*
X93671D01*
Y66513D01*
X93665D01*
Y66508D01*
X93660D01*
Y66502D01*
X93649D01*
Y66497D01*
X93643D01*
Y66492D01*
X93638D01*
Y66486D01*
X93633D01*
Y66481D01*
X93627D01*
Y66475D01*
X93622D01*
Y66470D01*
X93616D01*
Y66465D01*
X93611D01*
Y66459D01*
X93605D01*
Y66454D01*
X93600D01*
Y66448D01*
X93595D01*
Y66443D01*
X93584D01*
Y66437D01*
X93578D01*
Y66432D01*
X93573D01*
Y66427D01*
X93567D01*
Y66421D01*
X93562D01*
Y66416D01*
X93557D01*
Y66410D01*
X93551D01*
Y66405D01*
X93546D01*
Y66399D01*
X93540D01*
Y66394D01*
X93535D01*
Y66389D01*
X93524D01*
Y66383D01*
X93519D01*
Y66378D01*
X93513D01*
Y66361D01*
X93508D01*
Y66351D01*
X93513D01*
Y64723D01*
X93508D01*
Y64712D01*
X93513D01*
Y64706D01*
X93524D01*
Y64701D01*
X93535D01*
Y64706D01*
X93996D01*
Y64701D01*
X94002D01*
Y64706D01*
X94018D01*
Y64701D01*
X94023D01*
Y64451D01*
X94012D01*
Y64446D01*
X94007D01*
Y64451D01*
X93274D01*
Y64446D01*
X93264D01*
Y64451D01*
X93258D01*
Y64457D01*
X93253D01*
Y68933D01*
X93264D01*
Y68939D01*
X93269D01*
Y68933D01*
D02*
G37*
G36*
X96584Y64310D02*
X96590D01*
Y64072D01*
X96584D01*
Y64066D01*
X89666D01*
Y64072D01*
X89661D01*
Y64310D01*
X89666D01*
Y64321D01*
X96584D01*
Y64310D01*
D02*
G37*
%LPC*%
G36*
X95636Y58557D02*
X94932D01*
Y57148D01*
X95636D01*
Y58557D01*
D02*
G37*
%LPD*%
D14*
X95290Y49270D02*
G03*
X95290Y49270I-100J0D01*
G01*
X22600Y31000D02*
G03*
X22600Y31000I-100J0D01*
G01*
X89100Y59900D02*
X88300D01*
X89100Y60700D01*
Y60900D01*
X88900Y61100D01*
X88500D01*
X88300Y60900D01*
X88900Y54150D02*
Y55350D01*
X88300Y54750D01*
X89100D01*
X64400Y55150D02*
X64600Y55350D01*
X65000D01*
X65200Y55150D01*
Y54950D01*
X65000Y54750D01*
X64800D01*
X65000D01*
X65200Y54550D01*
Y54350D01*
X65000Y54150D01*
X64600D01*
X64400Y54350D01*
X64800Y59900D02*
X65200D01*
X65000D01*
Y61100D01*
X64800Y60900D01*
X10400Y62590D02*
X11200D01*
X11600Y62990D01*
X11200Y63390D01*
X10400D01*
X10600Y64589D02*
X10400Y64389D01*
Y63990D01*
X10600Y63790D01*
X11400D01*
X11600Y63990D01*
Y64389D01*
X11400Y64589D01*
X10400Y65589D02*
Y65189D01*
X10600Y64989D01*
X11400D01*
X11600Y65189D01*
Y65589D01*
X11400Y65789D01*
X10600D01*
X10400Y65589D01*
X11600Y66189D02*
X10400D01*
X11600Y66989D01*
X10400D01*
X7600Y62590D02*
X6400D01*
X6800Y62990D01*
X6400Y63390D01*
X7600D01*
X6400Y64389D02*
Y63990D01*
X6600Y63790D01*
X7400D01*
X7600Y63990D01*
Y64389D01*
X7400Y64589D01*
X6600D01*
X6400Y64389D01*
Y64989D02*
X7600D01*
Y65589D01*
X7400Y65789D01*
X6600D01*
X6400Y65589D01*
Y64989D01*
Y66989D02*
Y66189D01*
X7600D01*
Y66989D01*
X7000Y66189D02*
Y66589D01*
X12800Y55460D02*
X13600D01*
X13200Y55860D02*
Y55060D01*
X14799Y56060D02*
X14000D01*
Y55460D01*
X14399Y55660D01*
X14599D01*
X14799Y55460D01*
Y55060D01*
X14599Y54860D01*
X14200D01*
X14000Y55060D01*
X15199Y56060D02*
Y55260D01*
X15599Y54860D01*
X15999Y55260D01*
Y56060D01*
X12800Y58600D02*
Y57800D01*
X13200Y57400D01*
X13600Y57800D01*
Y58600D01*
X14799Y58400D02*
X14599Y58600D01*
X14200D01*
X14000Y58400D01*
Y57600D01*
X14200Y57400D01*
X14599D01*
X14799Y57600D01*
X15799Y58600D02*
X15399D01*
X15199Y58400D01*
Y57600D01*
X15399Y57400D01*
X15799D01*
X15999Y57600D01*
Y58400D01*
X15799Y58600D01*
X16399Y57400D02*
Y58600D01*
X17199Y57400D01*
Y58600D01*
X12800Y60540D02*
X13600D01*
X13200Y60940D02*
Y60140D01*
X14000Y60940D02*
X14200Y61140D01*
X14599D01*
X14799Y60940D01*
Y60740D01*
X14599Y60540D01*
X14399D01*
X14599D01*
X14799Y60340D01*
Y60140D01*
X14599Y59940D01*
X14200D01*
X14000Y60140D01*
X15199Y61140D02*
Y60340D01*
X15599Y59940D01*
X15999Y60340D01*
Y61140D01*
X16399Y60940D02*
X16599Y61140D01*
X16999D01*
X17199Y60940D01*
Y60740D01*
X16999Y60540D01*
X16799D01*
X16999D01*
X17199Y60340D01*
Y60140D01*
X16999Y59940D01*
X16599D01*
X16399Y60140D01*
X801Y60540D02*
X1601D01*
X1201Y60940D02*
Y60140D01*
X2001Y60940D02*
X2201Y61140D01*
X2601D01*
X2801Y60940D01*
Y60740D01*
X2601Y60540D01*
X2401D01*
X2601D01*
X2801Y60340D01*
Y60140D01*
X2601Y59940D01*
X2201D01*
X2001Y60140D01*
X3201Y61140D02*
Y60340D01*
X3601Y59940D01*
X4000Y60340D01*
Y61140D01*
X4400Y60940D02*
X4600Y61140D01*
X5000D01*
X5200Y60940D01*
Y60740D01*
X5000Y60540D01*
X4800D01*
X5000D01*
X5200Y60340D01*
Y60140D01*
X5000Y59940D01*
X4600D01*
X4400Y60140D01*
X2801Y55860D02*
X2601Y56060D01*
X2201D01*
X2001Y55860D01*
Y55060D01*
X2201Y54860D01*
X2601D01*
X2801Y55060D01*
Y55460D01*
X2401D01*
X3201Y54860D02*
Y56060D01*
X4000Y54860D01*
Y56060D01*
X4400D02*
Y54860D01*
X5000D01*
X5200Y55060D01*
Y55860D01*
X5000Y56060D01*
X4400D01*
X801Y57400D02*
Y58600D01*
X1201Y58200D01*
X1601Y58600D01*
Y57400D01*
X2601Y58600D02*
X2201D01*
X2001Y58400D01*
Y57600D01*
X2201Y57400D01*
X2601D01*
X2801Y57600D01*
Y58400D01*
X2601Y58600D01*
X3201D02*
Y57400D01*
X3800D01*
X4000Y57600D01*
Y58400D01*
X3800Y58600D01*
X3201D01*
X5200D02*
X4400D01*
Y57400D01*
X5200D01*
X4400Y58000D02*
X4800D01*
X3551Y25230D02*
X3351Y25430D01*
X2951D01*
X2751Y25230D01*
Y24430D01*
X2951Y24230D01*
X3351D01*
X3551Y24430D01*
Y24830D01*
X3151D01*
X3951Y24230D02*
Y25430D01*
X4750Y24230D01*
Y25430D01*
X5150D02*
Y24230D01*
X5750D01*
X5950Y24430D01*
Y25230D01*
X5750Y25430D01*
X5150D01*
X2751Y19750D02*
X3551D01*
X3151Y20150D02*
Y19350D01*
X4750Y20350D02*
X3951D01*
Y19750D01*
X4351Y19950D01*
X4550D01*
X4750Y19750D01*
Y19350D01*
X4550Y19150D01*
X4151D01*
X3951Y19350D01*
X5150Y20350D02*
Y19550D01*
X5550Y19150D01*
X5950Y19550D01*
Y20350D01*
X4750Y22890D02*
X3951D01*
Y21690D01*
X4750D01*
X3951Y22290D02*
X4351D01*
X5150Y21690D02*
Y22890D01*
X5950Y21690D01*
Y22890D01*
X29051Y9300D02*
Y8100D01*
X29651D01*
X29850Y8300D01*
Y8500D01*
X29651Y8700D01*
X29051D01*
X29651D01*
X29850Y8900D01*
Y9100D01*
X29651Y9300D01*
X29051D01*
X30250D02*
Y8300D01*
X30450Y8100D01*
X30850D01*
X31050Y8300D01*
Y9300D01*
X31450D02*
X32250D01*
Y9100D01*
X31450Y8300D01*
Y8100D01*
X32250D01*
X32650Y9300D02*
X33449D01*
Y9100D01*
X32650Y8300D01*
Y8100D01*
X33449D01*
X40462Y8090D02*
Y8890D01*
X41061D01*
X41261Y8690D01*
Y8090D01*
X41661D02*
Y9290D01*
X42261D01*
X42461Y9090D01*
Y8690D01*
X42261Y8490D01*
X41661D01*
X42061D02*
X42461Y8090D01*
X43661Y9290D02*
X42861D01*
Y8690D01*
X43261D01*
X42861D01*
Y8090D01*
X44860D02*
X44060D01*
X44860Y8890D01*
Y9090D01*
X44660Y9290D01*
X44260D01*
X44060Y9090D01*
X45860Y8090D02*
Y9290D01*
X45260Y8690D01*
X46060D01*
X46460Y9290D02*
Y8090D01*
X47259D01*
X47659Y9090D02*
X47859Y9290D01*
X48259D01*
X48459Y9090D01*
Y8290D01*
X48259Y8090D01*
X47859D01*
X47659Y8290D01*
Y9090D01*
X48859Y8090D02*
X49259D01*
X49059D01*
Y9290D01*
X48859Y9090D01*
X49859Y8090D02*
Y9290D01*
X50458D01*
X50658Y9090D01*
Y8690D01*
X50458Y8490D01*
X49859D01*
X59060Y8090D02*
Y9290D01*
X59660D01*
X59860Y9090D01*
Y8690D01*
X59660Y8490D01*
X59060D01*
X59460D02*
X59860Y8090D01*
X60260D02*
Y9290D01*
X60860D01*
X61060Y9090D01*
Y8690D01*
X60860Y8490D01*
X60260D01*
X61460Y9290D02*
X61860D01*
X61660D01*
Y8090D01*
X61460D01*
X61860D01*
X29491Y57860D02*
Y59060D01*
X30091D01*
X30291Y58860D01*
Y58460D01*
X30091Y58260D01*
X29491D01*
X31490Y59060D02*
X30691D01*
Y57860D01*
X31490D01*
X30691Y58460D02*
X31091D01*
X31890Y57860D02*
Y59060D01*
X32490D01*
X32690Y58860D01*
Y58460D01*
X32490Y58260D01*
X31890D01*
X32290D02*
X32690Y57860D01*
X33090Y59060D02*
X33490D01*
X33290D01*
Y57860D01*
X33090D01*
X33490D01*
X34090D02*
Y59060D01*
X34689D01*
X34889Y58860D01*
Y58460D01*
X34689Y58260D01*
X34090D01*
X35289Y59060D02*
Y57860D01*
Y58460D01*
X36089D01*
Y59060D01*
Y57860D01*
X52701D02*
Y59060D01*
X53301D01*
X53501Y58860D01*
Y58460D01*
X53301Y58260D01*
X52701D01*
X53101D02*
X53501Y57860D01*
X54700Y59060D02*
X53901D01*
Y57860D01*
X54700D01*
X53901Y58460D02*
X54300D01*
X55100Y59060D02*
Y57860D01*
X55900D01*
X56300D02*
Y58660D01*
X56700Y59060D01*
X57099Y58660D01*
Y57860D01*
Y58460D01*
X56300D01*
X57499Y59060D02*
Y58860D01*
X57899Y58460D01*
X58299Y58860D01*
Y59060D01*
X57899Y58460D02*
Y57860D01*
X81151Y9090D02*
X80951Y9290D01*
X80551D01*
X80351Y9090D01*
Y8890D01*
X80551Y8690D01*
X80951D01*
X81151Y8490D01*
Y8290D01*
X80951Y8090D01*
X80551D01*
X80351Y8290D01*
X82350Y9290D02*
X81551D01*
Y8090D01*
X82350D01*
X81551Y8690D02*
X81951D01*
X82750Y8090D02*
Y9290D01*
X83550Y8090D01*
Y9290D01*
X84750Y9090D02*
X84550Y9290D01*
X84150D01*
X83950Y9090D01*
Y8890D01*
X84150Y8690D01*
X84550D01*
X84750Y8490D01*
Y8290D01*
X84550Y8090D01*
X84150D01*
X83950Y8290D01*
X85749Y9290D02*
X85349D01*
X85150Y9090D01*
Y8290D01*
X85349Y8090D01*
X85749D01*
X85949Y8290D01*
Y9090D01*
X85749Y9290D01*
X86349Y8090D02*
Y9290D01*
X86949D01*
X87149Y9090D01*
Y8690D01*
X86949Y8490D01*
X86349D01*
X86749D02*
X87149Y8090D01*
X68001Y9290D02*
Y8090D01*
X68601D01*
X68801Y8290D01*
Y8490D01*
X68601Y8690D01*
X68001D01*
X68601D01*
X68801Y8890D01*
Y9090D01*
X68601Y9290D01*
X68001D01*
X69201Y8090D02*
Y8890D01*
X69601Y9290D01*
X70001Y8890D01*
Y8090D01*
Y8690D01*
X69201D01*
X70401Y9290D02*
X71200D01*
X70800D01*
Y8090D01*
X71600Y9290D02*
X72400D01*
X72000D01*
Y8090D01*
X72800D02*
Y9290D01*
X73200Y8890D01*
X73599Y9290D01*
Y8090D01*
X74599Y9290D02*
X74199D01*
X73999Y9090D01*
Y8290D01*
X74199Y8090D01*
X74599D01*
X74799Y8290D01*
Y9090D01*
X74599Y9290D01*
X75199Y8090D02*
Y9290D01*
X75999Y8090D01*
Y9290D01*
X71302Y66600D02*
Y67800D01*
X71702Y67400D01*
X72101Y67800D01*
Y66600D01*
X73101Y67800D02*
X72701D01*
X72501Y67600D01*
Y66800D01*
X72701Y66600D01*
X73101D01*
X73301Y66800D01*
Y67600D01*
X73101Y67800D01*
X73701D02*
X74501D01*
X74101D01*
Y66600D01*
X75500Y67800D02*
X75100D01*
X74901Y67600D01*
Y66800D01*
X75100Y66600D01*
X75500D01*
X75700Y66800D01*
Y67600D01*
X75500Y67800D01*
X76100Y66600D02*
Y67800D01*
X76700D01*
X76900Y67600D01*
Y67200D01*
X76700Y67000D01*
X76100D01*
X76500D02*
X76900Y66600D01*
X79299Y67800D02*
X78499D01*
Y67200D01*
X78899Y67400D01*
X79099D01*
X79299Y67200D01*
Y66800D01*
X79099Y66600D01*
X78699D01*
X78499Y66800D01*
X79699Y66600D02*
X80499Y67400D01*
X81698Y67800D02*
X81298Y67600D01*
X80899Y67200D01*
Y66800D01*
X81099Y66600D01*
X81498D01*
X81698Y66800D01*
Y67000D01*
X81498Y67200D01*
X80899D01*
X44302Y66600D02*
Y67800D01*
X44702Y67400D01*
X45101Y67800D01*
Y66600D01*
X46101Y67800D02*
X45701D01*
X45501Y67600D01*
Y66800D01*
X45701Y66600D01*
X46101D01*
X46301Y66800D01*
Y67600D01*
X46101Y67800D01*
X46701D02*
X47501D01*
X47101D01*
Y66600D01*
X48500Y67800D02*
X48100D01*
X47901Y67600D01*
Y66800D01*
X48100Y66600D01*
X48500D01*
X48700Y66800D01*
Y67600D01*
X48500Y67800D01*
X49100Y66600D02*
Y67800D01*
X49700D01*
X49900Y67600D01*
Y67200D01*
X49700Y67000D01*
X49100D01*
X49500D02*
X49900Y66600D01*
X51499Y67600D02*
X51699Y67800D01*
X52099D01*
X52299Y67600D01*
Y67400D01*
X52099Y67200D01*
X51899D01*
X52099D01*
X52299Y67000D01*
Y66800D01*
X52099Y66600D01*
X51699D01*
X51499Y66800D01*
X52699Y66600D02*
X53499Y67400D01*
X54498Y66600D02*
Y67800D01*
X53899Y67200D01*
X54698D01*
X17402Y66600D02*
Y67800D01*
X17802Y67400D01*
X18201Y67800D01*
Y66600D01*
X19201Y67800D02*
X18801D01*
X18601Y67600D01*
Y66800D01*
X18801Y66600D01*
X19201D01*
X19401Y66800D01*
Y67600D01*
X19201Y67800D01*
X19801D02*
X20601D01*
X20201D01*
Y66600D01*
X21600Y67800D02*
X21200D01*
X21000Y67600D01*
Y66800D01*
X21200Y66600D01*
X21600D01*
X21800Y66800D01*
Y67600D01*
X21600Y67800D01*
X22200Y66600D02*
Y67800D01*
X22800D01*
X23000Y67600D01*
Y67200D01*
X22800Y67000D01*
X22200D01*
X22600D02*
X23000Y66600D01*
X24599D02*
X24999D01*
X24799D01*
Y67800D01*
X24599Y67600D01*
X25599Y66600D02*
X26399Y67400D01*
X27598Y66600D02*
X26799D01*
X27598Y67400D01*
Y67600D01*
X27398Y67800D01*
X26999D01*
X26799Y67600D01*
X15321Y9300D02*
Y10500D01*
X15920D01*
X16120Y10300D01*
Y9900D01*
X15920Y9700D01*
X15321D01*
X16520Y10500D02*
Y9300D01*
X16920Y9700D01*
X17320Y9300D01*
Y10500D01*
X17720Y9300D02*
Y10500D01*
X18320D01*
X18520Y10300D01*
Y9900D01*
X18320Y9700D01*
X17720D01*
X18120D02*
X18520Y9300D01*
X42211Y59060D02*
X41411D01*
Y57860D01*
X42211D01*
X41411Y58460D02*
X41811D01*
X43410Y58860D02*
X43210Y59060D01*
X42810D01*
X42611Y58860D01*
Y58660D01*
X42810Y58460D01*
X43210D01*
X43410Y58260D01*
Y58060D01*
X43210Y57860D01*
X42810D01*
X42611Y58060D01*
X43810Y57860D02*
Y59060D01*
X44410D01*
X44610Y58860D01*
Y58460D01*
X44410Y58260D01*
X43810D01*
X45010Y58860D02*
X45210Y59060D01*
X45610D01*
X45809Y58860D01*
Y58660D01*
X45610Y58460D01*
X45410D01*
X45610D01*
X45809Y58260D01*
Y58060D01*
X45610Y57860D01*
X45210D01*
X45010Y58060D01*
X47009Y57860D02*
X46209D01*
X47009Y58660D01*
Y58860D01*
X46809Y59060D01*
X46409D01*
X46209Y58860D01*
D26*
X55380Y2460D02*
Y3460D01*
Y2460D02*
X56380D01*
X57915Y936D02*
Y1936D01*
Y936D02*
X58915D01*
X62005D02*
X63005D01*
Y1936D01*
X55375Y7540D02*
X56375D01*
X55375Y6540D02*
Y7540D01*
X30245Y57314D02*
X31245D01*
X30245Y56314D02*
Y57314D01*
X36875Y50710D02*
X37875D01*
Y51710D01*
X27710Y50710D02*
Y51710D01*
Y50710D02*
X28710D01*
X27710Y55790D02*
X28710D01*
X27710Y54790D02*
Y55790D01*
X52955Y2460D02*
X54455D01*
Y3960D01*
X54450Y6040D02*
Y7540D01*
X52950D02*
X54450D01*
X27440D02*
X28440D01*
X27440Y6540D02*
Y7540D01*
Y2460D02*
Y3460D01*
Y2460D02*
X28440D01*
X65540Y6540D02*
Y7540D01*
X64540D02*
X65540D01*
X64540Y2460D02*
X65540D01*
Y3460D01*
X36670Y7540D02*
X38170D01*
X36670Y6040D02*
Y7540D01*
X36665Y2460D02*
Y3960D01*
Y2460D02*
X38165D01*
X36870Y55790D02*
X37870D01*
X87370Y52210D02*
Y53210D01*
Y56290D02*
Y57290D01*
X84835Y50686D02*
Y51686D01*
X86370Y52210D02*
X87370D01*
X34335Y57314D02*
X35335D01*
X37870Y54790D02*
Y55790D01*
X86370Y57290D02*
X87370D01*
X35335Y56314D02*
Y57314D01*
X79745Y50686D02*
X80745D01*
X77210Y52210D02*
Y53210D01*
X79745Y50686D02*
Y51686D01*
X77205Y56290D02*
Y57290D01*
X83835Y50686D02*
X84835D01*
X77210Y52210D02*
X78210D01*
X77205Y57290D02*
X78205D01*
X86650Y68480D02*
Y69980D01*
X66350Y77520D02*
X67850D01*
X78750Y76520D02*
Y77520D01*
X85150Y68480D02*
X86650D01*
X66350D02*
Y69980D01*
X85150Y77520D02*
X86650D01*
X66350Y76020D02*
Y77520D01*
Y68480D02*
X67850D01*
X39350D02*
X40850D01*
X39350D02*
Y69980D01*
Y77520D02*
X40850D01*
X39350Y76020D02*
Y77520D01*
X74250Y76520D02*
Y77520D01*
Y76520D02*
X78750D01*
X58150Y77520D02*
X59650D01*
Y76020D02*
Y77520D01*
X31150D02*
X32650D01*
Y76020D02*
Y77520D01*
X12350Y68480D02*
X13850D01*
X12350D02*
Y69980D01*
X20250Y76520D02*
X24750D01*
Y77520D01*
X86650Y76020D02*
Y77520D01*
X20250Y76520D02*
Y77520D01*
X12350D02*
X13850D01*
X12350Y76020D02*
Y77520D01*
X31150Y68480D02*
X32650D01*
Y69980D01*
X59650Y68480D02*
Y69980D01*
X76330Y62040D02*
Y63040D01*
X75330D02*
X76330D01*
X73795Y63564D02*
Y64564D01*
X72795D02*
X73795D01*
X68705D02*
X69705D01*
X68705Y63564D02*
Y64564D01*
X75335Y57960D02*
X76335D01*
Y58960D01*
X35060Y2460D02*
Y3460D01*
X34060Y2460D02*
X35060D01*
X34060Y7540D02*
X35060D01*
Y6540D02*
Y7540D01*
X6750Y26080D02*
X9250D01*
X6750Y18500D02*
Y26080D01*
X9250Y18500D02*
Y26080D01*
X6750Y18500D02*
X9250D01*
X51750Y76520D02*
Y77520D01*
X58150Y68480D02*
X59650D01*
X47250Y76520D02*
Y77520D01*
Y76520D02*
X51750D01*
X66170Y57960D02*
Y58960D01*
Y57960D02*
X67170D01*
X66170Y63040D02*
X67170D01*
X66170Y62040D02*
Y63040D01*
X87375Y57960D02*
Y58960D01*
X86375Y57960D02*
X87375D01*
X79745Y63564D02*
Y64564D01*
X80745D01*
X83835D02*
X84835D01*
Y63564D02*
Y64564D01*
X86370Y63040D02*
X87370D01*
Y62040D02*
Y63040D01*
X77210Y62040D02*
Y63040D01*
X78210D01*
X77210Y57960D02*
X78210D01*
X77210D02*
Y58960D01*
X45755Y57314D02*
X46755D01*
Y56314D02*
Y57314D01*
X48290Y55790D02*
X49290D01*
Y54790D02*
Y55790D01*
X76330Y52210D02*
Y53210D01*
X75330Y52210D02*
X76330D01*
X75330Y57290D02*
X76330D01*
Y56290D02*
Y57290D01*
X39130Y54790D02*
Y55790D01*
X40130D01*
X39130Y50710D02*
X40130D01*
X39130D02*
Y51710D01*
X49295Y50710D02*
Y51710D01*
X48295Y50710D02*
X49295D01*
X41665Y56314D02*
Y57314D01*
X42665D01*
X81205Y936D02*
Y1936D01*
X5750Y54210D02*
Y61790D01*
X78670Y2460D02*
Y3460D01*
X81205Y936D02*
X82205D01*
X8250Y54210D02*
Y61790D01*
X9750Y54210D02*
Y61790D01*
X5750D02*
X8250D01*
X5750Y54210D02*
X8250D01*
X87830Y2460D02*
X88830D01*
X86295Y936D02*
Y1936D01*
X88830Y6540D02*
Y7540D01*
Y2460D02*
Y3460D01*
X78665Y7540D02*
X79665D01*
X78670Y2460D02*
X79670D01*
X85295Y936D02*
X86295D01*
X78665Y6540D02*
Y7540D01*
X12250Y54210D02*
Y61790D01*
X9750D02*
X12250D01*
X9750Y54210D02*
X12250D01*
X87830Y7540D02*
X88830D01*
X50420Y54790D02*
Y55790D01*
X51420D01*
X50420Y50710D02*
X51420D01*
X50420D02*
Y51710D01*
X60585Y50710D02*
Y51710D01*
X59585Y50710D02*
X60585D01*
X52955Y56314D02*
Y57314D01*
X53955D01*
X66165Y56290D02*
Y57290D01*
X67165D01*
X73795Y50686D02*
Y51686D01*
X72795Y50686D02*
X73795D01*
X68705D02*
X69705D01*
X68705D02*
Y51686D01*
X66170Y52210D02*
X67170D01*
X66170D02*
Y53210D01*
X66915Y6540D02*
Y7540D01*
X67915D01*
X74545Y936D02*
Y1936D01*
X73545Y936D02*
X74545D01*
X69455D02*
X70455D01*
X69455D02*
Y1936D01*
X66920Y2460D02*
X67920D01*
X66920D02*
Y3460D01*
X57045Y57314D02*
X58045D01*
Y56314D02*
Y57314D01*
X59580Y55790D02*
X60580D01*
Y54790D02*
Y55790D01*
X77080Y2460D02*
Y3460D01*
X76080Y2460D02*
X77080D01*
X76080Y7540D02*
X77080D01*
Y6540D02*
Y7540D01*
D27*
X18100Y58250D02*
X18900D01*
X20100D02*
X20900D01*
X94500Y9225D02*
Y10275D01*
X95690Y47770D02*
Y49770D01*
X93690D02*
X95690D01*
X93690Y11770D02*
X95690D01*
Y13770D01*
X27690Y11770D02*
Y13770D01*
Y11770D02*
X29690D01*
X27690Y49770D02*
X29690D01*
X27690Y47770D02*
Y49770D01*
X26750Y27250D02*
Y29250D01*
X24750Y27250D02*
X26750D01*
X24734Y50803D02*
X26734D01*
Y48803D02*
Y50803D01*
X4507Y50794D02*
X6507D01*
X10100Y26500D02*
X12100D01*
X10100Y11750D02*
X12100D01*
X24900D02*
X26900D01*
X10100Y24500D02*
Y26500D01*
Y11750D02*
Y13750D01*
X24510Y7100D02*
Y8600D01*
X24510Y1000D02*
Y2500D01*
X9330Y8600D02*
X10830D01*
X23010D02*
X24510D01*
X4516Y27257D02*
Y29257D01*
X4507Y48794D02*
Y50794D01*
X23010Y1000D02*
X24510D01*
X4516Y27257D02*
X6516D01*
X24900Y26500D02*
X26900D01*
X16170Y1000D02*
X17670D01*
X26900Y11750D02*
Y13750D01*
Y24500D02*
Y26500D01*
X9330Y1000D02*
Y2500D01*
Y7100D02*
Y8600D01*
X16170D02*
X17670D01*
X9330Y1000D02*
X10830D01*
X24100Y58250D02*
X24900D01*
X22100D02*
X22900D01*
X26100D02*
X26900D01*
X7833Y17800D02*
X7500D01*
X7667D01*
Y16967D01*
X7500Y16800D01*
X7334D01*
X7167Y16967D01*
X8167Y17633D02*
X8333Y17800D01*
X8666D01*
X8833Y17633D01*
Y17467D01*
X8666Y17300D01*
X8500D01*
X8666D01*
X8833Y17134D01*
Y16967D01*
X8666Y16800D01*
X8333D01*
X8167Y16967D01*
X91517Y10250D02*
Y9250D01*
X92184D01*
X92517D02*
X92850D01*
X92683D01*
Y10250D01*
X92517Y10083D01*
X27000Y55159D02*
X26000D01*
Y55659D01*
X26167Y55825D01*
X26500D01*
X26667Y55659D01*
Y55159D01*
Y55492D02*
X27000Y55825D01*
X26000Y56825D02*
Y56159D01*
X26500D01*
X26333Y56492D01*
Y56658D01*
X26500Y56825D01*
X26833D01*
X27000Y56658D01*
Y56325D01*
X26833Y56159D01*
X23000Y55159D02*
X22000D01*
Y55659D01*
X22167Y55825D01*
X22500D01*
X22667Y55659D01*
Y55159D01*
Y55492D02*
X23000Y55825D01*
X22167Y56159D02*
X22000Y56325D01*
Y56658D01*
X22167Y56825D01*
X22333D01*
X22500Y56658D01*
Y56492D01*
Y56658D01*
X22667Y56825D01*
X22833D01*
X23000Y56658D01*
Y56325D01*
X22833Y56159D01*
X21000Y55159D02*
X20000D01*
Y55659D01*
X20167Y55825D01*
X20500D01*
X20667Y55659D01*
Y55159D01*
Y55492D02*
X21000Y55825D01*
Y56825D02*
Y56159D01*
X20333Y56825D01*
X20167D01*
X20000Y56658D01*
Y56325D01*
X20167Y56159D01*
X19000Y55492D02*
X18000D01*
Y55992D01*
X18167Y56159D01*
X18500D01*
X18667Y55992D01*
Y55492D01*
Y55825D02*
X19000Y56159D01*
Y56492D02*
Y56825D01*
Y56658D01*
X18000D01*
X18167Y56492D01*
X25000Y55159D02*
X24000D01*
Y55659D01*
X24167Y55825D01*
X24500D01*
X24667Y55659D01*
Y55159D01*
Y55492D02*
X25000Y55825D01*
Y56658D02*
X24000D01*
X24500Y56159D01*
Y56825D01*
X25996Y62930D02*
X26995D01*
Y63430D01*
X26829Y63597D01*
X26162D01*
X25996Y63430D01*
Y62930D01*
Y64597D02*
Y63930D01*
X26495D01*
X26329Y64263D01*
Y64430D01*
X26495Y64597D01*
X26829D01*
X26995Y64430D01*
Y64097D01*
X26829Y63930D01*
X23996Y62930D02*
X24995D01*
Y63430D01*
X24829Y63597D01*
X24162D01*
X23996Y63430D01*
Y62930D01*
X24995Y64430D02*
X23996D01*
X24495Y63930D01*
Y64597D01*
X21996Y62930D02*
X22995D01*
Y63430D01*
X22829Y63597D01*
X22162D01*
X21996Y63430D01*
Y62930D01*
X22162Y63930D02*
X21996Y64097D01*
Y64430D01*
X22162Y64597D01*
X22329D01*
X22495Y64430D01*
Y64263D01*
Y64430D01*
X22662Y64597D01*
X22829D01*
X22995Y64430D01*
Y64097D01*
X22829Y63930D01*
X19996Y62930D02*
X20995D01*
Y63430D01*
X20829Y63597D01*
X20162D01*
X19996Y63430D01*
Y62930D01*
X20995Y64597D02*
Y63930D01*
X20329Y64597D01*
X20162D01*
X19996Y64430D01*
Y64097D01*
X20162Y63930D01*
X17996Y62930D02*
X18995D01*
Y63430D01*
X18829Y63597D01*
X18162D01*
X17996Y63430D01*
Y62930D01*
X18995Y63930D02*
Y64263D01*
Y64097D01*
X17996D01*
X18162Y63930D01*
X10833Y53510D02*
X10500D01*
X10667D01*
Y52677D01*
X10500Y52510D01*
X10334D01*
X10167Y52677D01*
X11833Y52510D02*
X11167D01*
X11833Y53177D01*
Y53343D01*
X11666Y53510D01*
X11333D01*
X11167Y53343D01*
X7000Y53510D02*
X6667D01*
X6833D01*
Y52677D01*
X6667Y52510D01*
X6500D01*
X6334Y52677D01*
X7333Y52510D02*
X7666D01*
X7500D01*
Y53510D01*
X7333Y53343D01*
X25134Y11250D02*
X25800Y10250D01*
Y11250D02*
X25134Y10250D01*
X26134Y11083D02*
X26300Y11250D01*
X26633D01*
X26800Y11083D01*
Y10917D01*
X26633Y10750D01*
X26467D01*
X26633D01*
X26800Y10583D01*
Y10417D01*
X26633Y10250D01*
X26300D01*
X26134Y10417D01*
X6804Y8400D02*
X7470Y7400D01*
Y8400D02*
X6804Y7400D01*
X8304D02*
Y8400D01*
X7804Y7900D01*
X8470D01*
X2967Y39530D02*
X3634Y38530D01*
Y39530D02*
X2967Y38530D01*
X3967D02*
X4300D01*
X4133D01*
Y39530D01*
X3967Y39363D01*
X95890Y31270D02*
X96556Y30270D01*
Y31270D02*
X95890Y30270D01*
X97556D02*
X96890D01*
X97556Y30937D01*
Y31103D01*
X97390Y31270D01*
X97056D01*
X96890Y31103D01*
X81040Y51886D02*
Y50886D01*
Y51386D01*
X81707D01*
Y51886D01*
Y50886D01*
X82040D02*
X82373D01*
X82207D01*
Y51886D01*
X82040Y51719D01*
X82873D02*
X83040Y51886D01*
X83373D01*
X83540Y51719D01*
Y51053D01*
X83373Y50886D01*
X83040D01*
X82873Y51053D01*
Y51719D01*
X81457Y64364D02*
Y63364D01*
Y63864D01*
X82123D01*
Y64364D01*
Y63364D01*
X83123Y64364D02*
X82457D01*
Y63864D01*
X82790Y64031D01*
X82956D01*
X83123Y63864D01*
Y63531D01*
X82956Y63364D01*
X82623D01*
X82457Y63531D01*
X31957Y57114D02*
Y56114D01*
Y56614D01*
X32623D01*
Y57114D01*
Y56114D01*
X33623Y57114D02*
X33290Y56947D01*
X32957Y56614D01*
Y56281D01*
X33123Y56114D01*
X33456D01*
X33623Y56281D01*
Y56448D01*
X33456Y56614D01*
X32957D01*
X43377Y57114D02*
Y56114D01*
Y56614D01*
X44043D01*
Y57114D01*
Y56114D01*
X44377Y57114D02*
X45043D01*
Y56947D01*
X44377Y56281D01*
Y56114D01*
X70417Y51886D02*
Y50886D01*
Y51386D01*
X71083D01*
Y51886D01*
Y50886D01*
X71417Y51053D02*
X71583Y50886D01*
X71916D01*
X72083Y51053D01*
Y51719D01*
X71916Y51886D01*
X71583D01*
X71417Y51719D01*
Y51552D01*
X71583Y51386D01*
X72083D01*
X70417Y64364D02*
Y63364D01*
Y63864D01*
X71083D01*
Y64364D01*
Y63364D01*
X71916D02*
Y64364D01*
X71417Y63864D01*
X72083D01*
X30167Y2200D02*
Y1200D01*
Y1700D01*
X30833D01*
Y2200D01*
Y1200D01*
X31167D02*
X31500D01*
X31333D01*
Y2200D01*
X31167Y2033D01*
X32000Y1200D02*
X32333D01*
X32166D01*
Y2200D01*
X32000Y2033D01*
X54667Y57114D02*
Y56114D01*
Y56614D01*
X55333D01*
Y57114D01*
Y56114D01*
X55667Y56947D02*
X55833Y57114D01*
X56166D01*
X56333Y56947D01*
Y56781D01*
X56166Y56614D01*
X56333Y56448D01*
Y56281D01*
X56166Y56114D01*
X55833D01*
X55667Y56281D01*
Y56448D01*
X55833Y56614D01*
X55667Y56781D01*
Y56947D01*
X55833Y56614D02*
X56166D01*
X75667Y78000D02*
Y77000D01*
Y77500D01*
X76333D01*
Y78000D01*
Y77000D01*
X76667Y77833D02*
X76833Y78000D01*
X77166D01*
X77333Y77833D01*
Y77667D01*
X77166Y77500D01*
X77000D01*
X77166D01*
X77333Y77334D01*
Y77167D01*
X77166Y77000D01*
X76833D01*
X76667Y77167D01*
X44410Y2200D02*
Y1200D01*
Y1700D01*
X45077D01*
Y2200D01*
Y1200D01*
X45410D02*
X45743D01*
X45577D01*
Y2200D01*
X45410Y2033D01*
X46910Y2200D02*
X46243D01*
Y1700D01*
X46576Y1866D01*
X46743D01*
X46910Y1700D01*
Y1367D01*
X46743Y1200D01*
X46410D01*
X46243Y1367D01*
X48667Y78000D02*
Y77000D01*
Y77500D01*
X49333D01*
Y78000D01*
Y77000D01*
X50333D02*
X49667D01*
X50333Y77667D01*
Y77833D01*
X50166Y78000D01*
X49833D01*
X49667Y77833D01*
X59210Y2200D02*
Y1200D01*
Y1700D01*
X59877D01*
Y2200D01*
Y1200D01*
X60210D02*
X60543D01*
X60377D01*
Y2200D01*
X60210Y2033D01*
X61710Y1200D02*
X61043D01*
X61710Y1866D01*
Y2033D01*
X61543Y2200D01*
X61210D01*
X61043Y2033D01*
X82500Y2200D02*
Y1200D01*
Y1700D01*
X83167D01*
Y2200D01*
Y1200D01*
X83500D02*
X83833D01*
X83667D01*
Y2200D01*
X83500Y2033D01*
X84833Y1200D02*
Y2200D01*
X84333Y1700D01*
X85000D01*
X70750Y2200D02*
Y1200D01*
Y1700D01*
X71417D01*
Y2200D01*
Y1200D01*
X71750D02*
X72083D01*
X71917D01*
Y2200D01*
X71750Y2033D01*
X72583D02*
X72750Y2200D01*
X73083D01*
X73250Y2033D01*
Y1866D01*
X73083Y1700D01*
X72916D01*
X73083D01*
X73250Y1533D01*
Y1367D01*
X73083Y1200D01*
X72750D01*
X72583Y1367D01*
X21834Y78000D02*
Y77000D01*
Y77500D01*
X22500D01*
Y78000D01*
Y77000D01*
X22833D02*
X23166D01*
X23000D01*
Y78000D01*
X22833Y77833D01*
D28*
X17997Y61648D02*
X18198D01*
X19988Y60996D02*
X20496Y61504D01*
X21004Y60996D01*
X17988D02*
X18496Y61504D01*
X19004Y60996D01*
X17997Y61448D02*
Y61648D01*
X18188Y61458D01*
X21988Y60996D02*
X22496Y61504D01*
X23004Y60996D01*
X21997Y61448D02*
Y61648D01*
X22188Y61458D01*
X19997Y61448D02*
Y61648D01*
X20188Y61458D01*
X19997Y61648D02*
X20198D01*
X21997D02*
X22198D01*
X23997D02*
X24198D01*
X23997Y61448D02*
Y61648D01*
X26496Y61504D02*
X27004Y60996D01*
X24496Y61504D02*
X25004Y60996D01*
X23997Y61648D02*
X24188Y61458D01*
X23988Y60996D02*
X24496Y61504D01*
X25997Y61648D02*
X26188Y61458D01*
X25988Y60996D02*
X26496Y61504D01*
X25997Y61648D02*
X26198D01*
X25997Y61448D02*
Y61648D01*
D29*
X54000Y64500D02*
X58000D01*
X54000Y61500D02*
X58000D01*
X54000D02*
Y64500D01*
X58000Y61500D02*
Y64500D01*
X32106Y63630D02*
Y65129D01*
X32856D01*
X33106Y64880D01*
Y64380D01*
X32856Y64130D01*
X32106D01*
X32606D02*
X33106Y63630D01*
X33606D02*
Y65129D01*
X34356D01*
X34606Y64880D01*
Y64380D01*
X34356Y64130D01*
X33606D01*
X36105Y63630D02*
X35105D01*
X36105Y64630D01*
Y64880D01*
X35855Y65129D01*
X35355D01*
X35105Y64880D01*
X36605D02*
X36855Y65129D01*
X37355D01*
X37605Y64880D01*
Y64630D01*
X37355Y64380D01*
X37105D01*
X37355D01*
X37605Y64130D01*
Y63880D01*
X37355Y63630D01*
X36855D01*
X36605Y63880D01*
X39104Y65129D02*
X38104D01*
Y64380D01*
X38604Y64630D01*
X38854D01*
X39104Y64380D01*
Y63880D01*
X38854Y63630D01*
X38354D01*
X38104Y63880D01*
X39604Y64880D02*
X39854Y65129D01*
X40354D01*
X40604Y64880D01*
Y63880D01*
X40354Y63630D01*
X39854D01*
X39604Y63880D01*
Y64880D01*
X43603D02*
X43353Y65129D01*
X42853D01*
X42603Y64880D01*
Y63880D01*
X42853Y63630D01*
X43353D01*
X43603Y63880D01*
X44352Y63630D02*
X44852D01*
X45102Y63880D01*
Y64380D01*
X44852Y64630D01*
X44352D01*
X44103Y64380D01*
Y63880D01*
X44352Y63630D01*
X45602D02*
Y64630D01*
X46352D01*
X46602Y64380D01*
Y63630D01*
X47351Y64880D02*
Y64630D01*
X47102D01*
X47601D01*
X47351D01*
Y63880D01*
X47601Y63630D01*
X48351Y64630D02*
Y63630D01*
Y64130D01*
X48601Y64380D01*
X48851Y64630D01*
X49101D01*
X50101Y63630D02*
X50600D01*
X50850Y63880D01*
Y64380D01*
X50600Y64630D01*
X50101D01*
X49851Y64380D01*
Y63880D01*
X50101Y63630D01*
X51350D02*
X51850D01*
X51600D01*
Y65129D01*
X51350D01*
X44852Y62370D02*
Y60871D01*
X45602D01*
X45852Y61120D01*
Y61370D01*
X45602Y61620D01*
X44852D01*
X45602D01*
X45852Y61870D01*
Y62120D01*
X45602Y62370D01*
X44852D01*
X46602Y60871D02*
X47102D01*
X47351Y61120D01*
Y61620D01*
X47102Y61870D01*
X46602D01*
X46352Y61620D01*
Y61120D01*
X46602Y60871D01*
X48101Y61870D02*
X48601D01*
X48851Y61620D01*
Y60871D01*
X48101D01*
X47851Y61120D01*
X48101Y61370D01*
X48851D01*
X49351Y61870D02*
Y60871D01*
Y61370D01*
X49601Y61620D01*
X49851Y61870D01*
X50101D01*
X51850Y62370D02*
Y60871D01*
X51100D01*
X50850Y61120D01*
Y61620D01*
X51100Y61870D01*
X51850D01*
X54750Y63750D02*
Y62750D01*
X55250Y62250D01*
X55750Y62750D01*
Y63750D01*
X57250Y62250D02*
X56250D01*
X57250Y63250D01*
Y63500D01*
X57000Y63750D01*
X56500D01*
X56250Y63500D01*
%TF.MD5,51e425afcb33c555db14db99bec92c33*%
M02*
