%TF.GenerationSoftware,Altium Limited,Altium Designer,25.2.1 (25)*%
G04 Layer_Color=6740479*
%FSLAX43Y43*%
%MOMM*%
%TF.SameCoordinates,13C9EE94-67B1-431B-914D-B35A32CB9B67*%
%TF.FilePolarity,Positive*%
%TF.FileFunction,Legend,Bot*%
%TF.Part,Single*%
G01*
G75*
%TA.AperFunction,NonConductor*%
%ADD14C,0.300*%
%ADD26C,0.254*%
%ADD27C,0.200*%
%ADD30C,0.250*%
G36*
X54809Y40489D02*
X54989D01*
Y40475D01*
X55085D01*
Y40461D01*
X55182D01*
Y40447D01*
X55251D01*
Y40433D01*
X55334D01*
Y40419D01*
X55362D01*
Y40406D01*
X55431D01*
Y40392D01*
X55487D01*
Y40378D01*
X55528D01*
Y40364D01*
X55584D01*
Y40350D01*
X55611D01*
Y40336D01*
X55653D01*
Y40323D01*
X55694D01*
Y40309D01*
X55722D01*
Y40295D01*
X55763D01*
Y40281D01*
X55791D01*
Y40267D01*
X55846D01*
Y40253D01*
X55860D01*
Y40240D01*
X55902D01*
Y40226D01*
X55916D01*
Y40212D01*
X55943D01*
Y40198D01*
X55985D01*
Y40184D01*
X55999D01*
Y40170D01*
X56040D01*
Y40157D01*
X56068D01*
Y40143D01*
X56095D01*
Y40129D01*
X56109D01*
Y40115D01*
X56137D01*
Y40101D01*
X56165D01*
Y40087D01*
X56179D01*
Y40074D01*
X56206D01*
Y40060D01*
X56234D01*
Y40046D01*
X56248D01*
Y40032D01*
X56275D01*
Y40018D01*
X56289D01*
Y40004D01*
X56317D01*
Y39991D01*
X56331D01*
Y39977D01*
X56358D01*
Y39963D01*
X56372D01*
Y39949D01*
X56386D01*
Y39935D01*
X56414D01*
Y39921D01*
X56428D01*
Y39908D01*
X56455D01*
Y39894D01*
X56469D01*
Y39880D01*
X56483D01*
Y39866D01*
X56511D01*
Y39852D01*
X56524D01*
Y39838D01*
X56538D01*
Y39825D01*
X56552D01*
Y39811D01*
X56566D01*
Y39797D01*
X56594D01*
Y39769D01*
X56621D01*
Y39755D01*
X56635D01*
Y39742D01*
X56649D01*
Y39728D01*
X56663D01*
Y39714D01*
X56677D01*
Y39700D01*
X56690D01*
Y39686D01*
X56704D01*
Y39672D01*
X56732D01*
Y39645D01*
X56760D01*
Y39617D01*
X56773D01*
Y39603D01*
X56787D01*
Y39589D01*
X56801D01*
Y39575D01*
X56815D01*
Y39562D01*
X56829D01*
Y39548D01*
X56843D01*
Y39534D01*
X56856D01*
Y39520D01*
X56870D01*
Y39506D01*
X56884D01*
Y39492D01*
X56898D01*
Y39465D01*
X56912D01*
Y39451D01*
X56926D01*
Y39437D01*
X56939D01*
Y39423D01*
X56953D01*
Y39409D01*
X56967D01*
Y39382D01*
X56981D01*
Y39368D01*
X56995D01*
Y39354D01*
X57009D01*
Y39340D01*
X57023D01*
Y39313D01*
X57036D01*
Y39299D01*
X57050D01*
Y39271D01*
X57064D01*
Y39257D01*
X57078D01*
Y39243D01*
X57092D01*
Y39216D01*
X57106D01*
Y39202D01*
X57119D01*
Y39174D01*
X57133D01*
Y39160D01*
X57147D01*
Y39147D01*
X57161D01*
Y39105D01*
X57175D01*
Y39091D01*
X57189D01*
Y39064D01*
X57202D01*
Y39050D01*
X57216D01*
Y39022D01*
X57230D01*
Y38994D01*
X57244D01*
Y38981D01*
X57258D01*
Y38953D01*
X57272D01*
Y38925D01*
X57285D01*
Y38898D01*
X57299D01*
Y38856D01*
X57313D01*
Y38842D01*
X57327D01*
Y38801D01*
X57341D01*
Y38787D01*
X57355D01*
Y38745D01*
X57368D01*
Y38718D01*
X57382D01*
Y38690D01*
X57396D01*
Y38648D01*
X57410D01*
Y38621D01*
X57424D01*
Y38565D01*
X57438D01*
Y38538D01*
X57451D01*
Y38496D01*
X57465D01*
Y38455D01*
X57479D01*
Y38427D01*
X57493D01*
Y38358D01*
X57507D01*
Y38316D01*
X57521D01*
Y38247D01*
X57534D01*
Y38206D01*
X57548D01*
Y38150D01*
X57562D01*
Y38054D01*
X57576D01*
Y37984D01*
X57590D01*
Y37860D01*
X57604D01*
Y37680D01*
X57617D01*
Y26320D01*
X57604D01*
Y26141D01*
X57590D01*
Y26016D01*
X57576D01*
Y25947D01*
X57562D01*
Y25850D01*
X57548D01*
Y25795D01*
X57534D01*
Y25753D01*
X57521D01*
Y25684D01*
X57507D01*
Y25642D01*
X57493D01*
Y25573D01*
X57479D01*
Y25546D01*
X57465D01*
Y25504D01*
X57451D01*
Y25463D01*
X57438D01*
Y25435D01*
X57424D01*
Y25380D01*
X57410D01*
Y25352D01*
X57396D01*
Y25310D01*
X57382D01*
Y25283D01*
X57368D01*
Y25255D01*
X57355D01*
Y25214D01*
X57341D01*
Y25200D01*
X57327D01*
Y25158D01*
X57313D01*
Y25144D01*
X57299D01*
Y25103D01*
X57285D01*
Y25075D01*
X57272D01*
Y25048D01*
X57258D01*
Y25020D01*
X57244D01*
Y25006D01*
X57230D01*
Y24978D01*
X57216D01*
Y24951D01*
X57202D01*
Y24937D01*
X57189D01*
Y24909D01*
X57175D01*
Y24895D01*
X57161D01*
Y24854D01*
X57147D01*
Y24840D01*
X57133D01*
Y24826D01*
X57119D01*
Y24799D01*
X57106D01*
Y24785D01*
X57092D01*
Y24757D01*
X57078D01*
Y24743D01*
X57064D01*
Y24729D01*
X57050D01*
Y24702D01*
X57036D01*
Y24688D01*
X57023D01*
Y24660D01*
X57009D01*
Y24646D01*
X56995D01*
Y24632D01*
X56981D01*
Y24619D01*
X56967D01*
Y24591D01*
X56953D01*
Y24577D01*
X56939D01*
Y24563D01*
X56926D01*
Y24549D01*
X56912D01*
Y24536D01*
X56898D01*
Y24508D01*
X56884D01*
Y24494D01*
X56870D01*
Y24480D01*
X56856D01*
Y24466D01*
X56843D01*
Y24453D01*
X56829D01*
Y24439D01*
X56815D01*
Y24425D01*
X56801D01*
Y24411D01*
X56787D01*
Y24397D01*
X56773D01*
Y24383D01*
X56760D01*
Y24356D01*
X56732D01*
Y24328D01*
X56704D01*
Y24314D01*
X56690D01*
Y24300D01*
X56677D01*
Y24287D01*
X56663D01*
Y24273D01*
X56649D01*
Y24259D01*
X56635D01*
Y24245D01*
X56621D01*
Y24231D01*
X56594D01*
Y24204D01*
X56566D01*
Y24190D01*
X56552D01*
Y24176D01*
X56538D01*
Y24162D01*
X56524D01*
Y24148D01*
X56511D01*
Y24134D01*
X56483D01*
Y24121D01*
X56469D01*
Y24107D01*
X56455D01*
Y24093D01*
X56428D01*
Y24079D01*
X56414D01*
Y24065D01*
X56386D01*
Y24051D01*
X56372D01*
Y24038D01*
X56358D01*
Y24024D01*
X56331D01*
Y24010D01*
X56317D01*
Y23996D01*
X56289D01*
Y23982D01*
X56275D01*
Y23968D01*
X56248D01*
Y23954D01*
X56234D01*
Y23941D01*
X56206D01*
Y23927D01*
X56179D01*
Y23913D01*
X56165D01*
Y23899D01*
X56137D01*
Y23885D01*
X56109D01*
Y23871D01*
X56095D01*
Y23858D01*
X56068D01*
Y23844D01*
X56040D01*
Y23830D01*
X55999D01*
Y23816D01*
X55985D01*
Y23802D01*
X55943D01*
Y23788D01*
X55916D01*
Y23775D01*
X55902D01*
Y23761D01*
X55860D01*
Y23747D01*
X55846D01*
Y23733D01*
X55791D01*
Y23719D01*
X55763D01*
Y23705D01*
X55722D01*
Y23692D01*
X55694D01*
Y23678D01*
X55653D01*
Y23664D01*
X55611D01*
Y23650D01*
X55584D01*
Y23636D01*
X55528D01*
Y23622D01*
X55487D01*
Y23609D01*
X55431D01*
Y23595D01*
X55362D01*
Y23581D01*
X55334D01*
Y23567D01*
X55251D01*
Y23553D01*
X55182D01*
Y23539D01*
X55085D01*
Y23526D01*
X54989D01*
Y23512D01*
X54809D01*
Y23498D01*
X38192D01*
Y23512D01*
X38012D01*
Y23526D01*
X37915D01*
Y23539D01*
X37818D01*
Y23553D01*
X37749D01*
Y23567D01*
X37666D01*
Y23581D01*
X37638D01*
Y23595D01*
X37569D01*
Y23609D01*
X37514D01*
Y23622D01*
X37472D01*
Y23636D01*
X37417D01*
Y23650D01*
X37389D01*
Y23664D01*
X37348D01*
Y23678D01*
X37306D01*
Y23692D01*
X37278D01*
Y23705D01*
X37237D01*
Y23719D01*
X37209D01*
Y23733D01*
X37154D01*
Y23747D01*
X37140D01*
Y23761D01*
X37098D01*
Y23775D01*
X37085D01*
Y23788D01*
X37057D01*
Y23802D01*
X37015D01*
Y23816D01*
X37002D01*
Y23830D01*
X36960D01*
Y23844D01*
X36932D01*
Y23858D01*
X36905D01*
Y23871D01*
X36891D01*
Y23885D01*
X36863D01*
Y23899D01*
X36836D01*
Y23913D01*
X36822D01*
Y23927D01*
X36794D01*
Y23941D01*
X36766D01*
Y23954D01*
X36753D01*
Y23968D01*
X36725D01*
Y23982D01*
X36711D01*
Y23996D01*
X36683D01*
Y24010D01*
X36670D01*
Y24024D01*
X36642D01*
Y24038D01*
X36628D01*
Y24051D01*
X36614D01*
Y24065D01*
X36587D01*
Y24079D01*
X36573D01*
Y24093D01*
X36545D01*
Y24107D01*
X36531D01*
Y24121D01*
X36517D01*
Y24134D01*
X36490D01*
Y24148D01*
X36476D01*
Y24162D01*
X36462D01*
Y24176D01*
X36448D01*
Y24190D01*
X36434D01*
Y24204D01*
X36407D01*
Y24231D01*
X36379D01*
Y24245D01*
X36365D01*
Y24259D01*
X36351D01*
Y24273D01*
X36337D01*
Y24287D01*
X36324D01*
Y24300D01*
X36310D01*
Y24314D01*
X36296D01*
Y24328D01*
X36268D01*
Y24356D01*
X36241D01*
Y24383D01*
X36227D01*
Y24397D01*
X36213D01*
Y24411D01*
X36199D01*
Y24425D01*
X36185D01*
Y24439D01*
X36171D01*
Y24453D01*
X36158D01*
Y24466D01*
X36144D01*
Y24480D01*
X36130D01*
Y24494D01*
X36116D01*
Y24508D01*
X36102D01*
Y24536D01*
X36088D01*
Y24549D01*
X36075D01*
Y24563D01*
X36061D01*
Y24577D01*
X36047D01*
Y24591D01*
X36033D01*
Y24619D01*
X36019D01*
Y24632D01*
X36005D01*
Y24646D01*
X35992D01*
Y24660D01*
X35978D01*
Y24688D01*
X35964D01*
Y24702D01*
X35950D01*
Y24729D01*
X35936D01*
Y24743D01*
X35922D01*
Y24757D01*
X35909D01*
Y24785D01*
X35895D01*
Y24799D01*
X35881D01*
Y24826D01*
X35867D01*
Y24840D01*
X35853D01*
Y24854D01*
X35839D01*
Y24895D01*
X35826D01*
Y24909D01*
X35812D01*
Y24937D01*
X35798D01*
Y24951D01*
X35784D01*
Y24978D01*
X35770D01*
Y25006D01*
X35756D01*
Y25020D01*
X35743D01*
Y25048D01*
X35729D01*
Y25075D01*
X35715D01*
Y25103D01*
X35701D01*
Y25144D01*
X35687D01*
Y25158D01*
X35673D01*
Y25200D01*
X35660D01*
Y25214D01*
X35646D01*
Y25255D01*
X35632D01*
Y25283D01*
X35618D01*
Y25310D01*
X35604D01*
Y25352D01*
X35590D01*
Y25380D01*
X35576D01*
Y25435D01*
X35563D01*
Y25463D01*
X35549D01*
Y25504D01*
X35535D01*
Y25546D01*
X35521D01*
Y25573D01*
X35507D01*
Y25642D01*
X35493D01*
Y25684D01*
X35480D01*
Y25753D01*
X35466D01*
Y25795D01*
X35452D01*
Y25850D01*
X35438D01*
Y25947D01*
X35424D01*
Y26016D01*
X35410D01*
Y26141D01*
X35397D01*
Y26320D01*
X35383D01*
Y37680D01*
X35397D01*
Y37860D01*
X35410D01*
Y37984D01*
X35424D01*
Y38054D01*
X35438D01*
Y38150D01*
X35452D01*
Y38206D01*
X35466D01*
Y38247D01*
X35480D01*
Y38316D01*
X35493D01*
Y38358D01*
X35507D01*
Y38427D01*
X35521D01*
Y38455D01*
X35535D01*
Y38496D01*
X35549D01*
Y38538D01*
X35563D01*
Y38565D01*
X35576D01*
Y38621D01*
X35590D01*
Y38648D01*
X35604D01*
Y38690D01*
X35618D01*
Y38718D01*
X35632D01*
Y38745D01*
X35646D01*
Y38787D01*
X35660D01*
Y38801D01*
X35673D01*
Y38842D01*
X35687D01*
Y38856D01*
X35701D01*
Y38898D01*
X35715D01*
Y38925D01*
X35729D01*
Y38953D01*
X35743D01*
Y38981D01*
X35756D01*
Y38994D01*
X35770D01*
Y39022D01*
X35784D01*
Y39050D01*
X35798D01*
Y39064D01*
X35812D01*
Y39091D01*
X35826D01*
Y39105D01*
X35839D01*
Y39147D01*
X35853D01*
Y39160D01*
X35867D01*
Y39174D01*
X35881D01*
Y39202D01*
X35895D01*
Y39216D01*
X35909D01*
Y39243D01*
X35922D01*
Y39257D01*
X35936D01*
Y39271D01*
X35950D01*
Y39299D01*
X35964D01*
Y39313D01*
X35978D01*
Y39340D01*
X35992D01*
Y39354D01*
X36005D01*
Y39368D01*
X36019D01*
Y39382D01*
X36033D01*
Y39409D01*
X36047D01*
Y39423D01*
X36061D01*
Y39437D01*
X36075D01*
Y39451D01*
X36088D01*
Y39465D01*
X36102D01*
Y39492D01*
X36116D01*
Y39506D01*
X36130D01*
Y39520D01*
X36144D01*
Y39534D01*
X36158D01*
Y39548D01*
X36171D01*
Y39562D01*
X36185D01*
Y39575D01*
X36199D01*
Y39589D01*
X36213D01*
Y39603D01*
X36227D01*
Y39617D01*
X36241D01*
Y39645D01*
X36268D01*
Y39672D01*
X36296D01*
Y39686D01*
X36310D01*
Y39700D01*
X36324D01*
Y39714D01*
X36337D01*
Y39728D01*
X36351D01*
Y39742D01*
X36365D01*
Y39755D01*
X36379D01*
Y39769D01*
X36407D01*
Y39797D01*
X36434D01*
Y39811D01*
X36448D01*
Y39825D01*
X36462D01*
Y39838D01*
X36476D01*
Y39852D01*
X36490D01*
Y39866D01*
X36517D01*
Y39880D01*
X36531D01*
Y39894D01*
X36545D01*
Y39908D01*
X36573D01*
Y39921D01*
X36587D01*
Y39935D01*
X36614D01*
Y39949D01*
X36628D01*
Y39963D01*
X36642D01*
Y39977D01*
X36670D01*
Y39991D01*
X36683D01*
Y40004D01*
X36711D01*
Y40018D01*
X36725D01*
Y40032D01*
X36753D01*
Y40046D01*
X36766D01*
Y40060D01*
X36794D01*
Y40074D01*
X36822D01*
Y40087D01*
X36836D01*
Y40101D01*
X36863D01*
Y40115D01*
X36891D01*
Y40129D01*
X36905D01*
Y40143D01*
X36932D01*
Y40157D01*
X36960D01*
Y40170D01*
X37002D01*
Y40184D01*
X37015D01*
Y40198D01*
X37057D01*
Y40212D01*
X37085D01*
Y40226D01*
X37098D01*
Y40240D01*
X37140D01*
Y40253D01*
X37154D01*
Y40267D01*
X37209D01*
Y40281D01*
X37237D01*
Y40295D01*
X37278D01*
Y40309D01*
X37306D01*
Y40323D01*
X37348D01*
Y40336D01*
X37389D01*
Y40350D01*
X37417D01*
Y40364D01*
X37472D01*
Y40378D01*
X37514D01*
Y40392D01*
X37569D01*
Y40406D01*
X37638D01*
Y40419D01*
X37666D01*
Y40433D01*
X37749D01*
Y40447D01*
X37818D01*
Y40461D01*
X37915D01*
Y40475D01*
X38012D01*
Y40489D01*
X38192D01*
Y40503D01*
X54809D01*
Y40489D01*
D02*
G37*
G36*
X84341Y35580D02*
X89114D01*
Y33196D01*
X89111D01*
Y33193D01*
X86728D01*
Y30807D01*
X89111D01*
Y30804D01*
X89114D01*
Y28421D01*
X91500D01*
Y23648D01*
X89114D01*
Y26034D01*
X86731D01*
Y26037D01*
X86728D01*
Y28421D01*
X84341D01*
Y26037D01*
X84338D01*
Y26034D01*
X81955D01*
Y28421D01*
X74796D01*
Y26034D01*
X77179D01*
Y26031D01*
X77182D01*
Y23648D01*
X74796D01*
Y26034D01*
X72413D01*
Y26037D01*
X72410D01*
Y28421D01*
X70023D01*
Y26037D01*
X70020D01*
Y26034D01*
X67637D01*
Y23648D01*
X65250D01*
Y28421D01*
X67637D01*
Y30804D01*
X67640D01*
Y30807D01*
X70023D01*
Y33193D01*
X67640D01*
Y33196D01*
X67637D01*
Y35580D01*
X65250D01*
Y37294D01*
Y37297D01*
Y37966D01*
X67634D01*
Y37963D01*
X67637D01*
Y35580D01*
X72410D01*
Y30807D01*
X74796D01*
Y35580D01*
X72410D01*
Y40352D01*
X74796D01*
Y37966D01*
X81955D01*
Y40352D01*
X84341D01*
Y35580D01*
D02*
G37*
G36*
X91500D02*
X89114D01*
Y36312D01*
Y36315D01*
Y37963D01*
X89117D01*
Y37966D01*
X91500D01*
Y35580D01*
D02*
G37*
G36*
X81955Y25847D02*
Y25844D01*
Y23648D01*
X79569D01*
Y26031D01*
X79572D01*
Y26034D01*
X81955D01*
Y25847D01*
D02*
G37*
%LPC*%
G36*
X54836Y39188D02*
X38164D01*
Y39174D01*
X38039D01*
Y39160D01*
X37970D01*
Y39147D01*
X37929D01*
Y39133D01*
X37859D01*
Y39119D01*
X37832D01*
Y39105D01*
X37776D01*
Y39091D01*
X37749D01*
Y39077D01*
X37707D01*
Y39064D01*
X37680D01*
Y39050D01*
X37652D01*
Y39036D01*
X37610D01*
Y39022D01*
X37597D01*
Y39008D01*
X37569D01*
Y38994D01*
X37541D01*
Y38981D01*
X37514D01*
Y38967D01*
X37486D01*
Y38953D01*
X37472D01*
Y38939D01*
X37444D01*
Y38925D01*
X37417D01*
Y38911D01*
X37403D01*
Y38898D01*
X37389D01*
Y38884D01*
X37361D01*
Y38870D01*
X37348D01*
Y38856D01*
X37334D01*
Y38842D01*
X37306D01*
Y38828D01*
X37292D01*
Y38814D01*
X37278D01*
Y38801D01*
X37265D01*
Y38787D01*
X37251D01*
Y38773D01*
X37223D01*
Y38759D01*
X37209D01*
Y38745D01*
X37195D01*
Y38731D01*
X37181D01*
Y38718D01*
X37168D01*
Y38704D01*
X37154D01*
Y38690D01*
X37140D01*
Y38676D01*
X37126D01*
Y38662D01*
X37112D01*
Y38635D01*
X37098D01*
Y38621D01*
X37085D01*
Y38607D01*
X37071D01*
Y38593D01*
X37057D01*
Y38579D01*
X37043D01*
Y38565D01*
X37029D01*
Y38538D01*
X37015D01*
Y38524D01*
X37002D01*
Y38496D01*
X36988D01*
Y38482D01*
X36974D01*
Y38469D01*
X36960D01*
Y38441D01*
X36946D01*
Y38413D01*
X36932D01*
Y38399D01*
X36919D01*
Y38372D01*
X36905D01*
Y38344D01*
X36891D01*
Y38330D01*
X36877D01*
Y38303D01*
X36863D01*
Y38261D01*
X36849D01*
Y38247D01*
X36836D01*
Y38206D01*
X36822D01*
Y38192D01*
X36808D01*
Y38137D01*
X36794D01*
Y38109D01*
X36780D01*
Y38067D01*
X36766D01*
Y38012D01*
X36753D01*
Y37971D01*
X36739D01*
Y37901D01*
X36725D01*
Y37846D01*
X36711D01*
Y37749D01*
X36697D01*
Y26251D01*
X36711D01*
Y26154D01*
X36725D01*
Y26099D01*
X36739D01*
Y26030D01*
X36753D01*
Y25988D01*
X36766D01*
Y25933D01*
X36780D01*
Y25892D01*
X36794D01*
Y25864D01*
X36808D01*
Y25809D01*
X36822D01*
Y25795D01*
X36836D01*
Y25753D01*
X36849D01*
Y25739D01*
X36863D01*
Y25698D01*
X36877D01*
Y25670D01*
X36891D01*
Y25656D01*
X36905D01*
Y25629D01*
X36919D01*
Y25601D01*
X36932D01*
Y25587D01*
X36946D01*
Y25559D01*
X36960D01*
Y25532D01*
X36974D01*
Y25518D01*
X36988D01*
Y25504D01*
X37002D01*
Y25476D01*
X37015D01*
Y25463D01*
X37029D01*
Y25435D01*
X37043D01*
Y25421D01*
X37057D01*
Y25407D01*
X37071D01*
Y25393D01*
X37085D01*
Y25380D01*
X37098D01*
Y25352D01*
X37112D01*
Y25338D01*
X37126D01*
Y25324D01*
X37140D01*
Y25310D01*
X37154D01*
Y25297D01*
X37168D01*
Y25283D01*
X37181D01*
Y25269D01*
X37195D01*
Y25255D01*
X37209D01*
Y25241D01*
X37223D01*
Y25227D01*
X37251D01*
Y25214D01*
X37265D01*
Y25200D01*
X37278D01*
Y25186D01*
X37292D01*
Y25172D01*
X37306D01*
Y25158D01*
X37334D01*
Y25144D01*
X37348D01*
Y25131D01*
X37361D01*
Y25117D01*
X37389D01*
Y25103D01*
X37403D01*
Y25089D01*
X37417D01*
Y25075D01*
X37444D01*
Y25061D01*
X37472D01*
Y25048D01*
X37486D01*
Y25034D01*
X37514D01*
Y25020D01*
X37541D01*
Y25006D01*
X37569D01*
Y24992D01*
X37597D01*
Y24978D01*
X37610D01*
Y24965D01*
X37652D01*
Y24951D01*
X37680D01*
Y24937D01*
X37707D01*
Y24923D01*
X37749D01*
Y24909D01*
X37776D01*
Y24895D01*
X37832D01*
Y24882D01*
X37859D01*
Y24868D01*
X37929D01*
Y24854D01*
X37970D01*
Y24840D01*
X38039D01*
Y24826D01*
X38164D01*
Y24812D01*
X54850D01*
Y24826D01*
X54961D01*
Y24840D01*
X55030D01*
Y24854D01*
X55072D01*
Y24868D01*
X55141D01*
Y24882D01*
X55168D01*
Y24895D01*
X55224D01*
Y24909D01*
X55251D01*
Y24923D01*
X55293D01*
Y24937D01*
X55321D01*
Y24951D01*
X55348D01*
Y24965D01*
X55390D01*
Y24978D01*
X55404D01*
Y24992D01*
X55431D01*
Y25006D01*
X55459D01*
Y25020D01*
X55487D01*
Y25034D01*
X55514D01*
Y25048D01*
X55528D01*
Y25061D01*
X55556D01*
Y25075D01*
X55584D01*
Y25089D01*
X55597D01*
Y25103D01*
X55611D01*
Y25117D01*
X55639D01*
Y25131D01*
X55653D01*
Y25144D01*
X55667D01*
Y25158D01*
X55694D01*
Y25172D01*
X55708D01*
Y25186D01*
X55722D01*
Y25200D01*
X55736D01*
Y25214D01*
X55750D01*
Y25227D01*
X55777D01*
Y25241D01*
X55791D01*
Y25255D01*
X55805D01*
Y25269D01*
X55819D01*
Y25283D01*
X55833D01*
Y25297D01*
X55846D01*
Y25310D01*
X55860D01*
Y25324D01*
X55874D01*
Y25338D01*
X55888D01*
Y25352D01*
X55902D01*
Y25380D01*
X55916D01*
Y25393D01*
X55929D01*
Y25407D01*
X55943D01*
Y25421D01*
X55957D01*
Y25435D01*
X55971D01*
Y25463D01*
X55985D01*
Y25476D01*
X55999D01*
Y25504D01*
X56012D01*
Y25518D01*
X56026D01*
Y25532D01*
X56040D01*
Y25559D01*
X56054D01*
Y25587D01*
X56068D01*
Y25601D01*
X56082D01*
Y25615D01*
X56095D01*
Y25656D01*
X56109D01*
Y25670D01*
X56123D01*
Y25698D01*
X56137D01*
Y25739D01*
X56151D01*
Y25753D01*
X56165D01*
Y25795D01*
X56179D01*
Y25809D01*
X56192D01*
Y25864D01*
X56206D01*
Y25892D01*
X56220D01*
Y25933D01*
X56234D01*
Y25988D01*
X56248D01*
Y26030D01*
X56262D01*
Y26099D01*
X56275D01*
Y26154D01*
X56289D01*
Y26251D01*
X56303D01*
Y37749D01*
X56289D01*
Y37846D01*
X56275D01*
Y37901D01*
X56262D01*
Y37971D01*
X56248D01*
Y38012D01*
X56234D01*
Y38067D01*
X56220D01*
Y38109D01*
X56206D01*
Y38137D01*
X56192D01*
Y38192D01*
X56179D01*
Y38206D01*
X56165D01*
Y38247D01*
X56151D01*
Y38261D01*
X56137D01*
Y38303D01*
X56123D01*
Y38330D01*
X56109D01*
Y38344D01*
X56095D01*
Y38372D01*
X56082D01*
Y38399D01*
X56068D01*
Y38413D01*
X56054D01*
Y38441D01*
X56040D01*
Y38469D01*
X56026D01*
Y38482D01*
X56012D01*
Y38496D01*
X55999D01*
Y38524D01*
X55985D01*
Y38538D01*
X55971D01*
Y38565D01*
X55957D01*
Y38579D01*
X55943D01*
Y38593D01*
X55929D01*
Y38607D01*
X55916D01*
Y38621D01*
X55902D01*
Y38648D01*
X55888D01*
Y38662D01*
X55874D01*
Y38676D01*
X55860D01*
Y38690D01*
X55846D01*
Y38704D01*
X55833D01*
Y38718D01*
X55819D01*
Y38731D01*
X55805D01*
Y38745D01*
X55791D01*
Y38759D01*
X55777D01*
Y38773D01*
X55750D01*
Y38787D01*
X55736D01*
Y38801D01*
X55722D01*
Y38814D01*
X55708D01*
Y38828D01*
X55694D01*
Y38842D01*
X55667D01*
Y38856D01*
X55653D01*
Y38870D01*
X55639D01*
Y38884D01*
X55611D01*
Y38898D01*
X55597D01*
Y38911D01*
X55584D01*
Y38925D01*
X55556D01*
Y38939D01*
X55528D01*
Y38953D01*
X55514D01*
Y38967D01*
X55487D01*
Y38981D01*
X55459D01*
Y38994D01*
X55431D01*
Y39008D01*
X55404D01*
Y39022D01*
X55390D01*
Y39036D01*
X55348D01*
Y39050D01*
X55321D01*
Y39064D01*
X55293D01*
Y39077D01*
X55251D01*
Y39091D01*
X55224D01*
Y39105D01*
X55168D01*
Y39119D01*
X55141D01*
Y39133D01*
X55072D01*
Y39147D01*
X55030D01*
Y39160D01*
X54961D01*
Y39174D01*
X54836D01*
Y39188D01*
D02*
G37*
%LPD*%
G36*
X46147Y38206D02*
X46175D01*
Y26791D01*
X46161D01*
Y26777D01*
X46147D01*
Y26763D01*
X46120D01*
Y26777D01*
X44252D01*
Y26763D01*
X44238D01*
Y26777D01*
X44210D01*
Y27414D01*
X44238D01*
Y27427D01*
X44266D01*
Y27414D01*
X44279D01*
Y27427D01*
X45456D01*
Y27414D01*
X45483D01*
Y27427D01*
X45511D01*
Y27441D01*
X45525D01*
Y28811D01*
Y28825D01*
Y31661D01*
X45511D01*
Y31689D01*
X45497D01*
Y31703D01*
X45483D01*
Y31717D01*
X45469D01*
Y31730D01*
X45442D01*
Y31744D01*
X45428D01*
Y31758D01*
X45414D01*
Y31772D01*
X45400D01*
Y31786D01*
X45386D01*
Y31800D01*
X45372D01*
Y31813D01*
X45359D01*
Y31827D01*
X45345D01*
Y31841D01*
X45331D01*
Y31855D01*
X45317D01*
Y31869D01*
X45303D01*
Y31883D01*
X45276D01*
Y31896D01*
X45262D01*
Y31910D01*
X45248D01*
Y31924D01*
X45234D01*
Y31938D01*
X45220D01*
Y31952D01*
X45206D01*
Y31966D01*
X45193D01*
Y31979D01*
X45179D01*
Y31993D01*
X45165D01*
Y32007D01*
X45151D01*
Y32021D01*
X45123D01*
Y32035D01*
X45110D01*
Y32049D01*
X45096D01*
Y32062D01*
X45082D01*
Y32076D01*
X45068D01*
Y32090D01*
X45054D01*
Y32104D01*
X45040D01*
Y32118D01*
X45027D01*
Y32132D01*
X45013D01*
Y32145D01*
X44985D01*
Y32159D01*
X44971D01*
Y32173D01*
X44957D01*
Y32187D01*
X44944D01*
Y32201D01*
X44930D01*
Y32215D01*
X44916D01*
Y32229D01*
X44902D01*
Y32242D01*
X44888D01*
Y32256D01*
X44874D01*
Y32270D01*
X44861D01*
Y32284D01*
X44847D01*
Y32298D01*
X44819D01*
Y32312D01*
X44805D01*
Y32325D01*
X44791D01*
Y32339D01*
X44778D01*
Y32353D01*
X44764D01*
Y32367D01*
X44750D01*
Y32381D01*
X44736D01*
Y32395D01*
X44722D01*
Y32408D01*
X44708D01*
Y32422D01*
X44681D01*
Y32436D01*
X44667D01*
Y32450D01*
X44653D01*
Y32464D01*
X44639D01*
Y32478D01*
X44625D01*
Y32491D01*
X44611D01*
Y32505D01*
X44598D01*
Y32519D01*
X44584D01*
Y32533D01*
X44570D01*
Y32547D01*
X44556D01*
Y32561D01*
X44542D01*
Y32574D01*
X44515D01*
Y32588D01*
X44501D01*
Y32602D01*
X44487D01*
Y32616D01*
X44473D01*
Y32630D01*
X44459D01*
Y32644D01*
X44445D01*
Y32657D01*
X44432D01*
Y32671D01*
X44418D01*
Y32685D01*
X44404D01*
Y32699D01*
X44376D01*
Y32713D01*
X44362D01*
Y32727D01*
X44349D01*
Y32740D01*
X44335D01*
Y32754D01*
X44321D01*
Y32768D01*
X44307D01*
Y32782D01*
X44293D01*
Y32796D01*
X44279D01*
Y32810D01*
X44266D01*
Y32823D01*
X44252D01*
Y32837D01*
X44224D01*
Y32851D01*
X44210D01*
Y32865D01*
X44196D01*
Y32879D01*
X44183D01*
Y32893D01*
X44169D01*
Y32906D01*
X44155D01*
Y32920D01*
X44141D01*
Y32934D01*
X44127D01*
Y32948D01*
X44113D01*
Y32962D01*
X44100D01*
Y32976D01*
X44086D01*
Y32989D01*
X44058D01*
Y33003D01*
X44044D01*
Y33017D01*
X44030D01*
Y33031D01*
X44017D01*
Y33045D01*
X44003D01*
Y33059D01*
X43989D01*
Y33073D01*
X43975D01*
Y33086D01*
X43961D01*
Y33100D01*
X43947D01*
Y33114D01*
X43920D01*
Y33128D01*
X43906D01*
Y33142D01*
X43892D01*
Y33156D01*
X43878D01*
Y33169D01*
X43864D01*
Y33183D01*
X43851D01*
Y33197D01*
X43837D01*
Y33211D01*
X43823D01*
Y33225D01*
X43809D01*
Y33239D01*
X43795D01*
Y33252D01*
X43781D01*
Y33266D01*
X43754D01*
Y33280D01*
X43740D01*
Y33294D01*
X43726D01*
Y33308D01*
X43712D01*
Y33322D01*
X43698D01*
Y33335D01*
X43684D01*
Y33349D01*
X43671D01*
Y33363D01*
X43657D01*
Y33377D01*
X43643D01*
Y33391D01*
X43615D01*
Y33405D01*
X43601D01*
Y33418D01*
X43588D01*
Y33432D01*
X43574D01*
Y33446D01*
X43560D01*
Y33460D01*
X43546D01*
Y33474D01*
X43532D01*
Y33488D01*
X43518D01*
Y33501D01*
X43505D01*
Y33515D01*
X43491D01*
Y33529D01*
X43477D01*
Y33543D01*
X43449D01*
Y33557D01*
X43435D01*
Y33571D01*
X43422D01*
Y33584D01*
X43408D01*
Y33598D01*
X43394D01*
Y33612D01*
X43380D01*
Y33626D01*
X43352D01*
Y33654D01*
X43339D01*
Y33667D01*
X43311D01*
Y33695D01*
X43283D01*
Y33709D01*
X43269D01*
Y33723D01*
X43256D01*
Y33737D01*
X43242D01*
Y33750D01*
X43228D01*
Y33764D01*
X43214D01*
Y33778D01*
X43200D01*
Y33792D01*
X43173D01*
Y33806D01*
X43159D01*
Y33820D01*
X43145D01*
Y33833D01*
X43131D01*
Y33847D01*
X43117D01*
Y33861D01*
X43103D01*
Y33875D01*
X43090D01*
Y33889D01*
X43076D01*
Y33903D01*
X43062D01*
Y33917D01*
X43048D01*
Y33930D01*
X43034D01*
Y33944D01*
X43020D01*
Y33958D01*
X42993D01*
Y33972D01*
X42979D01*
Y33986D01*
X42965D01*
Y34000D01*
X42951D01*
Y34013D01*
X42937D01*
Y34027D01*
X42923D01*
Y34041D01*
X42910D01*
Y34055D01*
X42896D01*
Y34069D01*
X42882D01*
Y34083D01*
X42854D01*
Y34096D01*
X42840D01*
Y34110D01*
X42827D01*
Y34124D01*
X42813D01*
Y34138D01*
X42799D01*
Y34152D01*
X42785D01*
Y34166D01*
X42771D01*
Y34179D01*
X42757D01*
Y34193D01*
X42744D01*
Y34207D01*
X42730D01*
Y34221D01*
X42716D01*
Y34235D01*
X42688D01*
Y34249D01*
X42674D01*
Y34262D01*
X42661D01*
Y34276D01*
X42647D01*
Y34290D01*
X42633D01*
Y34304D01*
X42619D01*
Y34318D01*
X42605D01*
Y34332D01*
X42591D01*
Y34345D01*
X42578D01*
Y34359D01*
X42550D01*
Y34373D01*
X42536D01*
Y34387D01*
X42522D01*
Y34401D01*
X42508D01*
Y34415D01*
X42495D01*
Y34428D01*
X42481D01*
Y34442D01*
X42467D01*
Y34456D01*
X42453D01*
Y34470D01*
X42439D01*
Y34484D01*
X42425D01*
Y34498D01*
X42398D01*
Y34511D01*
X42384D01*
Y34525D01*
X42370D01*
Y34539D01*
X42356D01*
Y34553D01*
X42342D01*
Y34567D01*
X42329D01*
Y34581D01*
X42315D01*
Y34594D01*
X42301D01*
Y34608D01*
X42287D01*
Y34622D01*
X42273D01*
Y34636D01*
X42259D01*
Y34650D01*
X42232D01*
Y34664D01*
X42218D01*
Y34678D01*
X42204D01*
Y34691D01*
X42190D01*
Y34705D01*
X42176D01*
Y34719D01*
X42162D01*
Y34733D01*
X42149D01*
Y34747D01*
X42135D01*
Y34761D01*
X42121D01*
Y34774D01*
X42093D01*
Y34788D01*
X42079D01*
Y34802D01*
X42066D01*
Y34816D01*
X42052D01*
Y34830D01*
X42038D01*
Y34844D01*
X42024D01*
Y34857D01*
X42010D01*
Y34871D01*
X41996D01*
Y34885D01*
X41969D01*
Y34913D01*
X41955D01*
Y34927D01*
X41927D01*
Y34913D01*
X41913D01*
Y34885D01*
X41900D01*
Y34844D01*
X41886D01*
Y34802D01*
X41872D01*
Y34761D01*
X41858D01*
Y34705D01*
X41844D01*
Y34664D01*
X41830D01*
Y34622D01*
X41817D01*
Y34581D01*
X41803D01*
Y34539D01*
X41789D01*
Y34498D01*
X41775D01*
Y34456D01*
X41761D01*
Y34401D01*
X41747D01*
Y34359D01*
X41734D01*
Y34318D01*
X41720D01*
Y34276D01*
X41706D01*
Y34235D01*
X41692D01*
Y34193D01*
X41678D01*
Y34152D01*
X41664D01*
Y34096D01*
X41651D01*
Y34055D01*
X41637D01*
Y34013D01*
X41623D01*
Y33972D01*
X41609D01*
Y33930D01*
X41595D01*
Y33889D01*
X41581D01*
Y33833D01*
X41568D01*
Y33806D01*
X41554D01*
Y33750D01*
X41540D01*
Y33709D01*
X41526D01*
Y33667D01*
X41512D01*
Y33626D01*
X41498D01*
Y33584D01*
X41485D01*
Y33529D01*
X41471D01*
Y33488D01*
X41457D01*
Y33446D01*
X41443D01*
Y33405D01*
X41429D01*
Y33363D01*
X41415D01*
Y33322D01*
X41402D01*
Y33280D01*
X41388D01*
Y33225D01*
X41374D01*
Y33197D01*
X41360D01*
Y33142D01*
X41346D01*
Y33100D01*
X41332D01*
Y33059D01*
X41318D01*
Y33017D01*
X41305D01*
Y32976D01*
X41291D01*
Y32920D01*
X41277D01*
Y32879D01*
X41263D01*
Y32837D01*
X41249D01*
Y32796D01*
X41235D01*
Y32754D01*
X41222D01*
Y32713D01*
X41208D01*
Y32671D01*
X41194D01*
Y32630D01*
X41180D01*
Y32574D01*
X41166D01*
Y32533D01*
X41152D01*
Y32491D01*
X41139D01*
Y32450D01*
X41125D01*
Y32408D01*
X41111D01*
Y32367D01*
X41097D01*
Y32325D01*
X41083D01*
Y32270D01*
X41069D01*
Y32229D01*
X41056D01*
Y32187D01*
X41042D01*
Y32145D01*
X41028D01*
Y32104D01*
X41014D01*
Y32062D01*
X41000D01*
Y32007D01*
X40986D01*
Y31966D01*
X40973D01*
Y31924D01*
X40959D01*
Y31883D01*
X40945D01*
Y31841D01*
X40931D01*
Y31800D01*
X40917D01*
Y31758D01*
X40903D01*
Y31717D01*
X40890D01*
Y31661D01*
X40876D01*
Y31634D01*
X40862D01*
Y31578D01*
X40848D01*
Y31537D01*
X40834D01*
Y31495D01*
X40820D01*
Y31454D01*
X40807D01*
Y31412D01*
X40793D01*
Y31357D01*
X40779D01*
Y31315D01*
X40765D01*
Y31274D01*
X40751D01*
Y31232D01*
X40737D01*
Y31191D01*
X40724D01*
Y31149D01*
X40710D01*
Y31108D01*
X40696D01*
Y31052D01*
X40682D01*
Y31011D01*
X40668D01*
Y30969D01*
X40654D01*
Y30928D01*
X40641D01*
Y30886D01*
X40627D01*
Y30845D01*
X40613D01*
Y30803D01*
X40599D01*
Y30748D01*
X40585D01*
Y30707D01*
X40571D01*
Y30665D01*
X40558D01*
Y30624D01*
X40544D01*
Y30582D01*
X40530D01*
Y30541D01*
X40516D01*
Y30499D01*
X40502D01*
Y30444D01*
X40488D01*
Y30402D01*
X40474D01*
Y30361D01*
X40461D01*
Y30319D01*
X40447D01*
Y30278D01*
X40433D01*
Y30236D01*
X40419D01*
Y30181D01*
X40405D01*
Y30153D01*
X40391D01*
Y30098D01*
X40378D01*
Y30056D01*
X40364D01*
Y30015D01*
X40350D01*
Y29973D01*
X40336D01*
Y29932D01*
X40322D01*
Y29876D01*
X40308D01*
Y29849D01*
X40295D01*
Y29793D01*
X40281D01*
Y29752D01*
X40267D01*
Y29710D01*
X40253D01*
Y29669D01*
X40239D01*
Y29627D01*
X40225D01*
Y29572D01*
X40212D01*
Y29544D01*
X40198D01*
Y29489D01*
X40184D01*
Y29447D01*
X40170D01*
Y29406D01*
X40156D01*
Y29364D01*
X40142D01*
Y29323D01*
X40129D01*
Y29268D01*
X40115D01*
Y29240D01*
X40101D01*
Y29185D01*
X40087D01*
Y29143D01*
X40073D01*
Y29102D01*
X40059D01*
Y29060D01*
X40046D01*
Y29019D01*
X40032D01*
Y28977D01*
X40018D01*
Y28922D01*
X40004D01*
Y28880D01*
X39990D01*
Y28839D01*
X39976D01*
Y28797D01*
X39963D01*
Y28756D01*
X39949D01*
Y28714D01*
X39935D01*
Y28673D01*
X39921D01*
Y28617D01*
X39907D01*
Y28576D01*
X39893D01*
Y28534D01*
X39880D01*
Y28493D01*
X39866D01*
Y28451D01*
X39852D01*
Y28410D01*
X39838D01*
Y28368D01*
X39824D01*
Y28313D01*
X39810D01*
Y28271D01*
X39797D01*
Y28230D01*
X39783D01*
Y28188D01*
X39769D01*
Y28147D01*
X39755D01*
Y28105D01*
X39741D01*
Y28064D01*
X39727D01*
Y28008D01*
X39714D01*
Y27967D01*
X39700D01*
Y27925D01*
X39686D01*
Y27884D01*
X39672D01*
Y27842D01*
X39658D01*
Y27801D01*
X39644D01*
Y27759D01*
X39658D01*
Y27746D01*
X40295D01*
Y27109D01*
X40281D01*
Y27095D01*
X37680D01*
Y27109D01*
X37666D01*
Y27732D01*
X37680D01*
Y27746D01*
X39298D01*
Y27759D01*
X39312D01*
Y27773D01*
X39326D01*
Y27829D01*
X39340D01*
Y27870D01*
X39354D01*
Y27912D01*
X39368D01*
Y27953D01*
X39381D01*
Y27995D01*
X39395D01*
Y28036D01*
X39409D01*
Y28078D01*
X39423D01*
Y28119D01*
X39437D01*
Y28161D01*
X39451D01*
Y28202D01*
X39464D01*
Y28258D01*
X39478D01*
Y28299D01*
X39492D01*
Y28341D01*
X39506D01*
Y28382D01*
X39520D01*
Y28424D01*
X39534D01*
Y28465D01*
X39547D01*
Y28507D01*
X39561D01*
Y28562D01*
X39575D01*
Y28590D01*
X39589D01*
Y28645D01*
X39603D01*
Y28686D01*
X39617D01*
Y28728D01*
X39630D01*
Y28769D01*
X39644D01*
Y28811D01*
X39658D01*
Y28852D01*
X39672D01*
Y28894D01*
X39686D01*
Y28935D01*
X39700D01*
Y28991D01*
X39714D01*
Y29032D01*
X39727D01*
Y29074D01*
X39741D01*
Y29115D01*
X39755D01*
Y29157D01*
X39769D01*
Y29198D01*
X39783D01*
Y29240D01*
X39797D01*
Y29281D01*
X39810D01*
Y29323D01*
X39824D01*
Y29378D01*
X39838D01*
Y29420D01*
X39852D01*
Y29461D01*
X39866D01*
Y29503D01*
X39880D01*
Y29544D01*
X39893D01*
Y29586D01*
X39907D01*
Y29627D01*
X39921D01*
Y29669D01*
X39935D01*
Y29710D01*
X39949D01*
Y29766D01*
X39963D01*
Y29807D01*
X39976D01*
Y29849D01*
X39990D01*
Y29890D01*
X40004D01*
Y29932D01*
X40018D01*
Y29973D01*
X40032D01*
Y30015D01*
X40046D01*
Y30056D01*
X40059D01*
Y30112D01*
X40073D01*
Y30153D01*
X40087D01*
Y30195D01*
X40101D01*
Y30236D01*
X40115D01*
Y30278D01*
X40129D01*
Y30319D01*
X40142D01*
Y30361D01*
X40156D01*
Y30402D01*
X40170D01*
Y30444D01*
X40184D01*
Y30499D01*
X40198D01*
Y30541D01*
X40212D01*
Y30582D01*
X40225D01*
Y30624D01*
X40239D01*
Y30665D01*
X40253D01*
Y30707D01*
X40267D01*
Y30748D01*
X40281D01*
Y30790D01*
X40295D01*
Y30831D01*
X40308D01*
Y30873D01*
X40322D01*
Y30928D01*
X40336D01*
Y30969D01*
X40350D01*
Y31011D01*
X40364D01*
Y31052D01*
X40378D01*
Y31094D01*
X40391D01*
Y31135D01*
X40405D01*
Y31177D01*
X40419D01*
Y31218D01*
X40433D01*
Y31274D01*
X40447D01*
Y31301D01*
X40461D01*
Y31357D01*
X40474D01*
Y31398D01*
X40488D01*
Y31440D01*
X40502D01*
Y31481D01*
X40516D01*
Y31523D01*
X40530D01*
Y31564D01*
X40544D01*
Y31606D01*
X40558D01*
Y31661D01*
X40571D01*
Y31703D01*
X40585D01*
Y31744D01*
X40599D01*
Y31786D01*
X40613D01*
Y31827D01*
X40627D01*
Y31869D01*
X40641D01*
Y31910D01*
X40654D01*
Y31952D01*
X40668D01*
Y31993D01*
X40682D01*
Y32035D01*
X40696D01*
Y32090D01*
X40710D01*
Y32132D01*
X40724D01*
Y32173D01*
X40737D01*
Y32215D01*
X40751D01*
Y32256D01*
X40765D01*
Y32298D01*
X40779D01*
Y32339D01*
X40793D01*
Y32395D01*
X40807D01*
Y32436D01*
X40820D01*
Y32478D01*
X40834D01*
Y32519D01*
X40848D01*
Y32561D01*
X40862D01*
Y32602D01*
X40876D01*
Y32644D01*
X40890D01*
Y32685D01*
X40903D01*
Y32727D01*
X40917D01*
Y32768D01*
X40931D01*
Y32823D01*
X40945D01*
Y32865D01*
X40959D01*
Y32906D01*
X40973D01*
Y32948D01*
X40986D01*
Y32989D01*
X41000D01*
Y33031D01*
X41014D01*
Y33073D01*
X41028D01*
Y33128D01*
X41042D01*
Y33156D01*
X41056D01*
Y33211D01*
X41069D01*
Y33252D01*
X41083D01*
Y33294D01*
X41097D01*
Y33335D01*
X41111D01*
Y33377D01*
X41125D01*
Y33418D01*
X41139D01*
Y33460D01*
X41152D01*
Y33501D01*
X41166D01*
Y33557D01*
X41180D01*
Y33598D01*
X41194D01*
Y33640D01*
X41208D01*
Y33667D01*
X41222D01*
Y33723D01*
X41235D01*
Y33764D01*
X41249D01*
Y33806D01*
X41263D01*
Y33847D01*
X41277D01*
Y33889D01*
X41291D01*
Y33944D01*
X41305D01*
Y33986D01*
X41318D01*
Y34027D01*
X41332D01*
Y34069D01*
X41346D01*
Y34110D01*
X41360D01*
Y34152D01*
X41374D01*
Y34193D01*
X41388D01*
Y34249D01*
X41402D01*
Y34276D01*
X41415D01*
Y34332D01*
X41429D01*
Y34373D01*
X41443D01*
Y34415D01*
X41457D01*
Y34456D01*
X41471D01*
Y34498D01*
X41485D01*
Y34539D01*
X41498D01*
Y34581D01*
X41512D01*
Y34622D01*
X41526D01*
Y34678D01*
X41540D01*
Y34719D01*
X41554D01*
Y34761D01*
X41568D01*
Y34802D01*
X41581D01*
Y34844D01*
X41595D01*
Y34885D01*
X41609D01*
Y34927D01*
X41623D01*
Y34968D01*
X41637D01*
Y35010D01*
X41651D01*
Y35065D01*
X41664D01*
Y35106D01*
X41678D01*
Y35148D01*
X41692D01*
Y35189D01*
X41706D01*
Y35231D01*
X41720D01*
Y35272D01*
X41734D01*
Y35314D01*
X41747D01*
Y35355D01*
X41761D01*
Y35411D01*
X41775D01*
Y35452D01*
X41789D01*
Y35494D01*
X41803D01*
Y35535D01*
X41817D01*
Y35577D01*
X41830D01*
Y35618D01*
X41844D01*
Y35660D01*
X41858D01*
Y35701D01*
X41872D01*
Y35743D01*
X41886D01*
Y35798D01*
X41900D01*
Y35826D01*
X41913D01*
Y35881D01*
X41927D01*
Y35923D01*
X41941D01*
Y35964D01*
X41955D01*
Y36006D01*
X41969D01*
Y36047D01*
X41983D01*
Y36089D01*
X41996D01*
Y36130D01*
X42010D01*
Y36186D01*
X42024D01*
Y36227D01*
X42038D01*
Y36269D01*
X42052D01*
Y36310D01*
X42066D01*
Y36352D01*
X42079D01*
Y36393D01*
X42093D01*
Y36435D01*
X42107D01*
Y36476D01*
X42121D01*
Y36532D01*
X42135D01*
Y36559D01*
X42149D01*
Y36615D01*
X42162D01*
Y36656D01*
X42176D01*
Y36698D01*
X42190D01*
Y36739D01*
X42204D01*
Y36781D01*
X42218D01*
Y36822D01*
X42232D01*
Y36864D01*
X42246D01*
Y36877D01*
X42259D01*
Y36891D01*
X42273D01*
Y36877D01*
X42287D01*
Y36864D01*
X42301D01*
Y36850D01*
X42315D01*
Y36836D01*
X42329D01*
Y36822D01*
X42342D01*
Y36808D01*
X42356D01*
Y36794D01*
X42370D01*
Y36781D01*
X42384D01*
Y36767D01*
X42398D01*
Y36753D01*
X42412D01*
Y36739D01*
X42425D01*
Y36725D01*
X42439D01*
Y36711D01*
X42453D01*
Y36698D01*
X42467D01*
Y36684D01*
X42481D01*
Y36670D01*
X42495D01*
Y36656D01*
X42508D01*
Y36642D01*
X42522D01*
Y36628D01*
X42536D01*
Y36615D01*
X42550D01*
Y36601D01*
X42564D01*
Y36587D01*
X42578D01*
Y36573D01*
X42591D01*
Y36559D01*
X42605D01*
Y36545D01*
X42619D01*
Y36532D01*
X42633D01*
Y36518D01*
X42647D01*
Y36504D01*
X42661D01*
Y36490D01*
X42674D01*
Y36476D01*
X42688D01*
Y36462D01*
X42702D01*
Y36449D01*
X42716D01*
Y36435D01*
X42730D01*
Y36421D01*
X42744D01*
Y36407D01*
X42757D01*
Y36393D01*
X42771D01*
Y36379D01*
X42785D01*
Y36366D01*
X42799D01*
Y36352D01*
X42813D01*
Y36338D01*
X42827D01*
Y36324D01*
X42840D01*
Y36310D01*
X42854D01*
Y36296D01*
X42868D01*
Y36282D01*
X42882D01*
Y36269D01*
X42896D01*
Y36255D01*
X42910D01*
Y36241D01*
X42923D01*
Y36227D01*
X42937D01*
Y36213D01*
X42951D01*
Y36199D01*
X42965D01*
Y36186D01*
X42979D01*
Y36172D01*
X42993D01*
Y36158D01*
X43007D01*
Y36144D01*
X43020D01*
Y36130D01*
X43034D01*
Y36116D01*
X43048D01*
Y36103D01*
X43062D01*
Y36089D01*
X43076D01*
Y36075D01*
X43090D01*
Y36061D01*
X43103D01*
Y36047D01*
X43117D01*
Y36033D01*
X43131D01*
Y36020D01*
X43145D01*
Y36006D01*
X43159D01*
Y35992D01*
X43173D01*
Y35978D01*
X43186D01*
Y35964D01*
X43200D01*
Y35950D01*
X43214D01*
Y35937D01*
X43228D01*
Y35923D01*
X43242D01*
Y35909D01*
X43256D01*
Y35895D01*
X43269D01*
Y35881D01*
X43283D01*
Y35867D01*
X43297D01*
Y35854D01*
X43311D01*
Y35840D01*
X43325D01*
Y35826D01*
X43339D01*
Y35812D01*
X43352D01*
Y35798D01*
X43366D01*
Y35784D01*
X43380D01*
Y35771D01*
X43394D01*
Y35757D01*
X43408D01*
Y35743D01*
X43422D01*
Y35729D01*
X43435D01*
Y35715D01*
X43449D01*
Y35701D01*
X43463D01*
Y35688D01*
X43477D01*
Y35674D01*
X43491D01*
Y35660D01*
X43505D01*
Y35646D01*
X43518D01*
Y35632D01*
X43532D01*
Y35618D01*
X43546D01*
Y35605D01*
X43560D01*
Y35591D01*
X43574D01*
Y35577D01*
X43588D01*
Y35563D01*
X43601D01*
Y35549D01*
X43615D01*
Y35535D01*
X43629D01*
Y35521D01*
X43643D01*
Y35508D01*
X43657D01*
Y35494D01*
X43671D01*
Y35480D01*
X43684D01*
Y35466D01*
X43698D01*
Y35452D01*
X43712D01*
Y35438D01*
X43726D01*
Y35425D01*
X43740D01*
Y35411D01*
X43754D01*
Y35397D01*
X43767D01*
Y35383D01*
X43781D01*
Y35369D01*
X43795D01*
Y35355D01*
X43809D01*
Y35342D01*
X43823D01*
Y35328D01*
X43837D01*
Y35314D01*
X43851D01*
Y35300D01*
X43864D01*
Y35286D01*
X43878D01*
Y35272D01*
X43892D01*
Y35259D01*
X43906D01*
Y35245D01*
X43920D01*
Y35231D01*
X43934D01*
Y35217D01*
X43947D01*
Y35203D01*
X43961D01*
Y35189D01*
X43975D01*
Y35176D01*
X43989D01*
Y35162D01*
X44003D01*
Y35148D01*
X44017D01*
Y35134D01*
X44030D01*
Y35120D01*
X44044D01*
Y35106D01*
X44058D01*
Y35093D01*
X44072D01*
Y35079D01*
X44086D01*
Y35065D01*
X44100D01*
Y35051D01*
X44113D01*
Y35037D01*
X44127D01*
Y35023D01*
X44141D01*
Y35010D01*
X44155D01*
Y34996D01*
X44169D01*
Y34982D01*
X44183D01*
Y34968D01*
X44196D01*
Y34954D01*
X44210D01*
Y34940D01*
X44224D01*
Y34927D01*
X44238D01*
Y34913D01*
X44252D01*
Y34885D01*
X44279D01*
Y34871D01*
X44293D01*
Y34857D01*
X44307D01*
Y34844D01*
X44321D01*
Y34830D01*
X44335D01*
Y34816D01*
X44349D01*
Y34802D01*
X44362D01*
Y34788D01*
X44376D01*
Y34774D01*
X44390D01*
Y34761D01*
X44404D01*
Y34747D01*
X44418D01*
Y34733D01*
X44432D01*
Y34719D01*
X44445D01*
Y34705D01*
X44459D01*
Y34691D01*
X44473D01*
Y34678D01*
X44487D01*
Y34664D01*
X44501D01*
Y34650D01*
X44515D01*
Y34636D01*
X44528D01*
Y34622D01*
X44542D01*
Y34608D01*
X44556D01*
Y34594D01*
X44570D01*
Y34581D01*
X44584D01*
Y34567D01*
X44598D01*
Y34553D01*
X44611D01*
Y34539D01*
X44625D01*
Y34525D01*
X44639D01*
Y34511D01*
X44653D01*
Y34498D01*
X44667D01*
Y34484D01*
X44681D01*
Y34470D01*
X44695D01*
Y34456D01*
X44708D01*
Y34442D01*
X44722D01*
Y34428D01*
X44736D01*
Y34415D01*
X44750D01*
Y34401D01*
X44764D01*
Y34387D01*
X44778D01*
Y34373D01*
X44791D01*
Y34359D01*
X44805D01*
Y34345D01*
X44819D01*
Y34332D01*
X44833D01*
Y34318D01*
X44847D01*
Y34304D01*
X44861D01*
Y34290D01*
X44874D01*
Y34276D01*
X44888D01*
Y34262D01*
X44902D01*
Y34249D01*
X44916D01*
Y34235D01*
X44930D01*
Y34221D01*
X44944D01*
Y34207D01*
X44957D01*
Y34193D01*
X44971D01*
Y34179D01*
X44985D01*
Y34166D01*
X44999D01*
Y34152D01*
X45013D01*
Y34138D01*
X45027D01*
Y34124D01*
X45040D01*
Y34110D01*
X45054D01*
Y34096D01*
X45068D01*
Y34083D01*
X45082D01*
Y34069D01*
X45096D01*
Y34055D01*
X45110D01*
Y34041D01*
X45123D01*
Y34027D01*
X45137D01*
Y34013D01*
X45151D01*
Y34000D01*
X45165D01*
Y33986D01*
X45179D01*
Y33972D01*
X45193D01*
Y33958D01*
X45206D01*
Y33944D01*
X45220D01*
Y33930D01*
X45234D01*
Y33917D01*
X45248D01*
Y33903D01*
X45262D01*
Y33889D01*
X45276D01*
Y33875D01*
X45289D01*
Y33861D01*
X45303D01*
Y33847D01*
X45317D01*
Y33833D01*
X45331D01*
Y33820D01*
X45345D01*
Y33806D01*
X45359D01*
Y33792D01*
X45372D01*
Y33778D01*
X45386D01*
Y33764D01*
X45400D01*
Y33750D01*
X45414D01*
Y33737D01*
X45428D01*
Y33723D01*
X45442D01*
Y33709D01*
X45456D01*
Y33695D01*
X45469D01*
Y33667D01*
X45525D01*
Y37542D01*
X45511D01*
Y37555D01*
X43892D01*
Y37583D01*
X43878D01*
Y38192D01*
X43892D01*
Y38206D01*
X46133D01*
Y38220D01*
X46147D01*
Y38206D01*
D02*
G37*
G36*
X46867D02*
X49122D01*
Y37569D01*
X49108D01*
Y37555D01*
X47489D01*
Y37528D01*
X47476D01*
Y37500D01*
X47489D01*
Y36919D01*
X47476D01*
Y36836D01*
X47489D01*
Y34968D01*
X47476D01*
Y34885D01*
X47489D01*
Y33709D01*
X47476D01*
Y33667D01*
X47489D01*
Y33654D01*
X47503D01*
Y33667D01*
X47531D01*
Y33695D01*
X47545D01*
Y33709D01*
X47559D01*
Y33723D01*
X47572D01*
Y33737D01*
X47586D01*
Y33750D01*
X47600D01*
Y33764D01*
X47614D01*
Y33778D01*
X47628D01*
Y33792D01*
X47642D01*
Y33806D01*
X47655D01*
Y33820D01*
X47669D01*
Y33833D01*
X47683D01*
Y33847D01*
X47697D01*
Y33861D01*
X47711D01*
Y33875D01*
X47725D01*
Y33889D01*
X47738D01*
Y33903D01*
X47752D01*
Y33917D01*
X47766D01*
Y33930D01*
X47780D01*
Y33944D01*
X47794D01*
Y33958D01*
X47808D01*
Y33972D01*
X47821D01*
Y33986D01*
X47835D01*
Y34000D01*
X47849D01*
Y34013D01*
X47863D01*
Y34027D01*
X47877D01*
Y34041D01*
X47891D01*
Y34055D01*
X47904D01*
Y34069D01*
X47918D01*
Y34083D01*
X47932D01*
Y34096D01*
X47946D01*
Y34110D01*
X47960D01*
Y34124D01*
X47974D01*
Y34138D01*
X47988D01*
Y34152D01*
X48001D01*
Y34166D01*
X48015D01*
Y34179D01*
X48029D01*
Y34193D01*
X48043D01*
Y34207D01*
X48057D01*
Y34221D01*
X48071D01*
Y34235D01*
X48084D01*
Y34249D01*
X48098D01*
Y34262D01*
X48112D01*
Y34276D01*
X48126D01*
Y34290D01*
X48140D01*
Y34304D01*
X48154D01*
Y34318D01*
X48167D01*
Y34332D01*
X48181D01*
Y34345D01*
X48195D01*
Y34359D01*
X48209D01*
Y34373D01*
X48223D01*
Y34387D01*
X48237D01*
Y34401D01*
X48250D01*
Y34415D01*
X48264D01*
Y34428D01*
X48278D01*
Y34442D01*
X48292D01*
Y34456D01*
X48306D01*
Y34470D01*
X48320D01*
Y34484D01*
X48333D01*
Y34498D01*
X48347D01*
Y34511D01*
X48361D01*
Y34525D01*
X48375D01*
Y34539D01*
X48389D01*
Y34553D01*
X48403D01*
Y34567D01*
X48416D01*
Y34581D01*
X48430D01*
Y34594D01*
X48444D01*
Y34608D01*
X48458D01*
Y34622D01*
X48472D01*
Y34636D01*
X48486D01*
Y34650D01*
X48499D01*
Y34664D01*
X48513D01*
Y34678D01*
X48527D01*
Y34691D01*
X48541D01*
Y34705D01*
X48555D01*
Y34719D01*
X48569D01*
Y34733D01*
X48582D01*
Y34747D01*
X48596D01*
Y34761D01*
X48610D01*
Y34774D01*
X48624D01*
Y34788D01*
X48638D01*
Y34802D01*
X48652D01*
Y34816D01*
X48665D01*
Y34830D01*
X48679D01*
Y34844D01*
X48693D01*
Y34857D01*
X48707D01*
Y34871D01*
X48721D01*
Y34885D01*
X48749D01*
Y34913D01*
X48762D01*
Y34927D01*
X48776D01*
Y34940D01*
X48790D01*
Y34954D01*
X48804D01*
Y34968D01*
X48818D01*
Y34982D01*
X48832D01*
Y34996D01*
X48845D01*
Y35010D01*
X48859D01*
Y35023D01*
X48873D01*
Y35037D01*
X48887D01*
Y35051D01*
X48901D01*
Y35065D01*
X48915D01*
Y35079D01*
X48928D01*
Y35093D01*
X48942D01*
Y35106D01*
X48956D01*
Y35120D01*
X48970D01*
Y35134D01*
X48984D01*
Y35148D01*
X48998D01*
Y35162D01*
X49011D01*
Y35176D01*
X49025D01*
Y35189D01*
X49039D01*
Y35203D01*
X49053D01*
Y35217D01*
X49067D01*
Y35231D01*
X49081D01*
Y35245D01*
X49094D01*
Y35259D01*
X49108D01*
Y35272D01*
X49122D01*
Y35286D01*
X49136D01*
Y35300D01*
X49150D01*
Y35314D01*
X49164D01*
Y35328D01*
X49177D01*
Y35342D01*
X49191D01*
Y35355D01*
X49205D01*
Y35369D01*
X49219D01*
Y35383D01*
X49233D01*
Y35397D01*
X49247D01*
Y35411D01*
X49260D01*
Y35425D01*
X49274D01*
Y35438D01*
X49288D01*
Y35452D01*
X49302D01*
Y35466D01*
X49316D01*
Y35480D01*
X49330D01*
Y35494D01*
X49343D01*
Y35508D01*
X49357D01*
Y35521D01*
X49371D01*
Y35535D01*
X49385D01*
Y35549D01*
X49399D01*
Y35563D01*
X49413D01*
Y35577D01*
X49426D01*
Y35591D01*
X49440D01*
Y35605D01*
X49454D01*
Y35618D01*
X49468D01*
Y35632D01*
X49482D01*
Y35646D01*
X49496D01*
Y35660D01*
X49509D01*
Y35674D01*
X49523D01*
Y35688D01*
X49537D01*
Y35701D01*
X49551D01*
Y35715D01*
X49565D01*
Y35729D01*
X49579D01*
Y35743D01*
X49592D01*
Y35757D01*
X49606D01*
Y35771D01*
X49620D01*
Y35784D01*
X49634D01*
Y35798D01*
X49648D01*
Y35812D01*
X49662D01*
Y35826D01*
X49676D01*
Y35840D01*
X49689D01*
Y35854D01*
X49703D01*
Y35867D01*
X49717D01*
Y35881D01*
X49731D01*
Y35895D01*
X49745D01*
Y35909D01*
X49759D01*
Y35923D01*
X49772D01*
Y35937D01*
X49786D01*
Y35950D01*
X49800D01*
Y35964D01*
X49814D01*
Y35978D01*
X49828D01*
Y35992D01*
X49842D01*
Y36006D01*
X49855D01*
Y36020D01*
X49869D01*
Y36033D01*
X49883D01*
Y36047D01*
X49897D01*
Y36061D01*
X49911D01*
Y36075D01*
X49925D01*
Y36089D01*
X49938D01*
Y36103D01*
X49952D01*
Y36116D01*
X49966D01*
Y36130D01*
X49980D01*
Y36144D01*
X49994D01*
Y36158D01*
X50008D01*
Y36172D01*
X50021D01*
Y36186D01*
X50035D01*
Y36199D01*
X50049D01*
Y36213D01*
X50063D01*
Y36227D01*
X50077D01*
Y36241D01*
X50091D01*
Y36255D01*
X50104D01*
Y36269D01*
X50118D01*
Y36282D01*
X50132D01*
Y36296D01*
X50146D01*
Y36310D01*
X50160D01*
Y36324D01*
X50174D01*
Y36338D01*
X50187D01*
Y36352D01*
X50201D01*
Y36366D01*
X50215D01*
Y36379D01*
X50229D01*
Y36393D01*
X50243D01*
Y36407D01*
X50257D01*
Y36421D01*
X50270D01*
Y36435D01*
X50284D01*
Y36449D01*
X50298D01*
Y36462D01*
X50312D01*
Y36476D01*
X50326D01*
Y36490D01*
X50340D01*
Y36504D01*
X50353D01*
Y36518D01*
X50367D01*
Y36532D01*
X50381D01*
Y36545D01*
X50395D01*
Y36559D01*
X50409D01*
Y36573D01*
X50423D01*
Y36587D01*
X50437D01*
Y36601D01*
X50450D01*
Y36615D01*
X50464D01*
Y36628D01*
X50478D01*
Y36642D01*
X50492D01*
Y36656D01*
X50506D01*
Y36670D01*
X50520D01*
Y36684D01*
X50533D01*
Y36698D01*
X50547D01*
Y36711D01*
X50561D01*
Y36725D01*
X50575D01*
Y36739D01*
X50589D01*
Y36753D01*
X50603D01*
Y36767D01*
X50616D01*
Y36781D01*
X50630D01*
Y36794D01*
X50644D01*
Y36808D01*
X50658D01*
Y36822D01*
X50672D01*
Y36836D01*
X50686D01*
Y36850D01*
X50699D01*
Y36864D01*
X50713D01*
Y36877D01*
X50727D01*
Y36891D01*
X50741D01*
Y36877D01*
X50755D01*
Y36864D01*
X50769D01*
Y36822D01*
X50782D01*
Y36781D01*
X50796D01*
Y36739D01*
X50810D01*
Y36698D01*
X50824D01*
Y36656D01*
X50838D01*
Y36615D01*
X50852D01*
Y36559D01*
X50865D01*
Y36532D01*
X50879D01*
Y36476D01*
X50893D01*
Y36435D01*
X50907D01*
Y36393D01*
X50921D01*
Y36352D01*
X50935D01*
Y36310D01*
X50948D01*
Y36269D01*
X50962D01*
Y36227D01*
X50976D01*
Y36186D01*
X50990D01*
Y36130D01*
X51004D01*
Y36089D01*
X51018D01*
Y36047D01*
X51031D01*
Y36006D01*
X51045D01*
Y35964D01*
X51059D01*
Y35923D01*
X51073D01*
Y35881D01*
X51087D01*
Y35840D01*
X51101D01*
Y35798D01*
X51114D01*
Y35743D01*
X51128D01*
Y35701D01*
X51142D01*
Y35660D01*
X51156D01*
Y35618D01*
X51170D01*
Y35577D01*
X51184D01*
Y35535D01*
X51197D01*
Y35494D01*
X51211D01*
Y35452D01*
X51225D01*
Y35411D01*
X51239D01*
Y35355D01*
X51253D01*
Y35314D01*
X51267D01*
Y35272D01*
X51281D01*
Y35231D01*
X51294D01*
Y35189D01*
X51308D01*
Y35148D01*
X51322D01*
Y35106D01*
X51336D01*
Y35065D01*
X51350D01*
Y35010D01*
X51364D01*
Y34982D01*
X51377D01*
Y34927D01*
X51391D01*
Y34885D01*
X51405D01*
Y34844D01*
X51419D01*
Y34802D01*
X51433D01*
Y34761D01*
X51447D01*
Y34719D01*
X51460D01*
Y34678D01*
X51474D01*
Y34622D01*
X51488D01*
Y34581D01*
X51502D01*
Y34539D01*
X51516D01*
Y34498D01*
X51530D01*
Y34456D01*
X51543D01*
Y34415D01*
X51557D01*
Y34373D01*
X51571D01*
Y34332D01*
X51585D01*
Y34290D01*
X51599D01*
Y34249D01*
X51613D01*
Y34193D01*
X51626D01*
Y34152D01*
X51640D01*
Y34110D01*
X51654D01*
Y34069D01*
X51668D01*
Y34027D01*
X51682D01*
Y33986D01*
X51696D01*
Y33944D01*
X51709D01*
Y33903D01*
X51723D01*
Y33861D01*
X51737D01*
Y33806D01*
X51751D01*
Y33764D01*
X51765D01*
Y33723D01*
X51779D01*
Y33667D01*
X51792D01*
Y33640D01*
X51806D01*
Y33598D01*
X51820D01*
Y33557D01*
X51834D01*
Y33515D01*
X51848D01*
Y33460D01*
X51862D01*
Y33432D01*
X51875D01*
Y33377D01*
X51889D01*
Y33335D01*
X51903D01*
Y33294D01*
X51917D01*
Y33252D01*
X51931D01*
Y33211D01*
X51945D01*
Y33169D01*
X51958D01*
Y33128D01*
X51972D01*
Y33086D01*
X51986D01*
Y33031D01*
X52000D01*
Y32989D01*
X52014D01*
Y32948D01*
X52028D01*
Y32906D01*
X52042D01*
Y32865D01*
X52055D01*
Y32823D01*
X52069D01*
Y32782D01*
X52083D01*
Y32740D01*
X52097D01*
Y32699D01*
X52111D01*
Y32644D01*
X52125D01*
Y32602D01*
X52138D01*
Y32561D01*
X52152D01*
Y32519D01*
X52166D01*
Y32478D01*
X52180D01*
Y32436D01*
X52194D01*
Y32395D01*
X52208D01*
Y32353D01*
X52221D01*
Y32312D01*
X52235D01*
Y32270D01*
X52249D01*
Y32215D01*
X52263D01*
Y32173D01*
X52277D01*
Y32132D01*
X52291D01*
Y32090D01*
X52304D01*
Y32049D01*
X52318D01*
Y32007D01*
X52332D01*
Y31966D01*
X52346D01*
Y31910D01*
X52360D01*
Y31883D01*
X52374D01*
Y31827D01*
X52387D01*
Y31786D01*
X52401D01*
Y31744D01*
X52415D01*
Y31703D01*
X52429D01*
Y31661D01*
X52443D01*
Y31620D01*
X52457D01*
Y31578D01*
X52470D01*
Y31537D01*
X52484D01*
Y31481D01*
X52498D01*
Y31440D01*
X52512D01*
Y31398D01*
X52526D01*
Y31357D01*
X52540D01*
Y31315D01*
X52553D01*
Y31274D01*
X52567D01*
Y31232D01*
X52581D01*
Y31177D01*
X52595D01*
Y31149D01*
X52609D01*
Y31094D01*
X52623D01*
Y31052D01*
X52636D01*
Y31011D01*
X52650D01*
Y30969D01*
X52664D01*
Y30928D01*
X52678D01*
Y30886D01*
X52692D01*
Y30845D01*
X52706D01*
Y30803D01*
X52719D01*
Y30762D01*
X52733D01*
Y30707D01*
X52747D01*
Y30665D01*
X52761D01*
Y30624D01*
X52775D01*
Y30582D01*
X52789D01*
Y30541D01*
X52802D01*
Y30499D01*
X52816D01*
Y30457D01*
X52830D01*
Y30416D01*
X52844D01*
Y30361D01*
X52858D01*
Y30333D01*
X52872D01*
Y30278D01*
X52886D01*
Y30236D01*
X52899D01*
Y30195D01*
X52913D01*
Y30153D01*
X52927D01*
Y30112D01*
X52941D01*
Y30070D01*
X52955D01*
Y30029D01*
X52969D01*
Y29973D01*
X52982D01*
Y29932D01*
X52996D01*
Y29890D01*
X53010D01*
Y29849D01*
X53024D01*
Y29807D01*
X53038D01*
Y29766D01*
X53052D01*
Y29724D01*
X53065D01*
Y29683D01*
X53079D01*
Y29641D01*
X53093D01*
Y29600D01*
X53107D01*
Y29544D01*
X53121D01*
Y29503D01*
X53135D01*
Y29461D01*
X53148D01*
Y29420D01*
X53162D01*
Y29378D01*
X53176D01*
Y29337D01*
X53190D01*
Y29295D01*
X53204D01*
Y29240D01*
X53218D01*
Y29212D01*
X53231D01*
Y29157D01*
X53245D01*
Y29115D01*
X53259D01*
Y29074D01*
X53273D01*
Y29032D01*
X53287D01*
Y28991D01*
X53301D01*
Y28949D01*
X53314D01*
Y28908D01*
X53328D01*
Y28866D01*
X53342D01*
Y28811D01*
X53356D01*
Y28769D01*
X53370D01*
Y28728D01*
X53384D01*
Y28686D01*
X53397D01*
Y28645D01*
X53411D01*
Y28603D01*
X53425D01*
Y28562D01*
X53439D01*
Y28520D01*
X53453D01*
Y28479D01*
X53467D01*
Y28437D01*
X53480D01*
Y28382D01*
X53494D01*
Y28341D01*
X53508D01*
Y28299D01*
X53522D01*
Y28258D01*
X53536D01*
Y28216D01*
X53550D01*
Y28175D01*
X53563D01*
Y28133D01*
X53577D01*
Y28078D01*
X53591D01*
Y28050D01*
X53605D01*
Y27995D01*
X53619D01*
Y27953D01*
X53633D01*
Y27912D01*
X53646D01*
Y27870D01*
X53660D01*
Y27829D01*
X53674D01*
Y27773D01*
X53688D01*
Y27759D01*
X53702D01*
Y27746D01*
X55334D01*
Y27109D01*
X55321D01*
Y27095D01*
X52719D01*
Y27123D01*
X52706D01*
Y27732D01*
X52719D01*
Y27746D01*
X53342D01*
Y27759D01*
X53356D01*
Y27801D01*
X53342D01*
Y27856D01*
X53328D01*
Y27884D01*
X53314D01*
Y27939D01*
X53301D01*
Y27981D01*
X53287D01*
Y28022D01*
X53273D01*
Y28064D01*
X53259D01*
Y28105D01*
X53245D01*
Y28147D01*
X53231D01*
Y28202D01*
X53218D01*
Y28244D01*
X53204D01*
Y28285D01*
X53190D01*
Y28327D01*
X53176D01*
Y28368D01*
X53162D01*
Y28410D01*
X53148D01*
Y28451D01*
X53135D01*
Y28507D01*
X53121D01*
Y28548D01*
X53107D01*
Y28590D01*
X53093D01*
Y28631D01*
X53079D01*
Y28673D01*
X53065D01*
Y28714D01*
X53052D01*
Y28756D01*
X53038D01*
Y28811D01*
X53024D01*
Y28852D01*
X53010D01*
Y28894D01*
X52996D01*
Y28935D01*
X52982D01*
Y28977D01*
X52969D01*
Y29019D01*
X52955D01*
Y29060D01*
X52941D01*
Y29115D01*
X52927D01*
Y29143D01*
X52913D01*
Y29198D01*
X52899D01*
Y29240D01*
X52886D01*
Y29281D01*
X52872D01*
Y29323D01*
X52858D01*
Y29364D01*
X52844D01*
Y29420D01*
X52830D01*
Y29447D01*
X52816D01*
Y29503D01*
X52802D01*
Y29544D01*
X52789D01*
Y29586D01*
X52775D01*
Y29627D01*
X52761D01*
Y29669D01*
X52747D01*
Y29710D01*
X52733D01*
Y29766D01*
X52719D01*
Y29807D01*
X52706D01*
Y29849D01*
X52692D01*
Y29890D01*
X52678D01*
Y29932D01*
X52664D01*
Y29973D01*
X52650D01*
Y30015D01*
X52636D01*
Y30070D01*
X52623D01*
Y30112D01*
X52609D01*
Y30153D01*
X52595D01*
Y30195D01*
X52581D01*
Y30236D01*
X52567D01*
Y30278D01*
X52553D01*
Y30333D01*
X52540D01*
Y30374D01*
X52526D01*
Y30416D01*
X52512D01*
Y30457D01*
X52498D01*
Y30499D01*
X52484D01*
Y30541D01*
X52470D01*
Y30582D01*
X52457D01*
Y30624D01*
X52443D01*
Y30679D01*
X52429D01*
Y30720D01*
X52415D01*
Y30762D01*
X52401D01*
Y30803D01*
X52387D01*
Y30845D01*
X52374D01*
Y30900D01*
X52360D01*
Y30928D01*
X52346D01*
Y30983D01*
X52332D01*
Y31025D01*
X52318D01*
Y31066D01*
X52304D01*
Y31108D01*
X52291D01*
Y31149D01*
X52277D01*
Y31191D01*
X52263D01*
Y31232D01*
X52249D01*
Y31288D01*
X52235D01*
Y31329D01*
X52221D01*
Y31371D01*
X52208D01*
Y31412D01*
X52194D01*
Y31454D01*
X52180D01*
Y31495D01*
X52166D01*
Y31537D01*
X52152D01*
Y31592D01*
X52138D01*
Y31634D01*
X52125D01*
Y31661D01*
X52111D01*
Y31717D01*
X52097D01*
Y31758D01*
X52083D01*
Y31800D01*
X52069D01*
Y31841D01*
X52055D01*
Y31896D01*
X52042D01*
Y31938D01*
X52028D01*
Y31979D01*
X52014D01*
Y32021D01*
X52000D01*
Y32062D01*
X51986D01*
Y32104D01*
X51972D01*
Y32159D01*
X51958D01*
Y32201D01*
X51945D01*
Y32242D01*
X51931D01*
Y32284D01*
X51917D01*
Y32325D01*
X51903D01*
Y32367D01*
X51889D01*
Y32408D01*
X51875D01*
Y32464D01*
X51862D01*
Y32505D01*
X51848D01*
Y32547D01*
X51834D01*
Y32588D01*
X51820D01*
Y32630D01*
X51806D01*
Y32671D01*
X51792D01*
Y32713D01*
X51779D01*
Y32768D01*
X51765D01*
Y32796D01*
X51751D01*
Y32851D01*
X51737D01*
Y32893D01*
X51723D01*
Y32934D01*
X51709D01*
Y32976D01*
X51696D01*
Y33017D01*
X51682D01*
Y33073D01*
X51668D01*
Y33100D01*
X51654D01*
Y33156D01*
X51640D01*
Y33197D01*
X51626D01*
Y33239D01*
X51613D01*
Y33280D01*
X51599D01*
Y33322D01*
X51585D01*
Y33363D01*
X51571D01*
Y33418D01*
X51557D01*
Y33460D01*
X51543D01*
Y33501D01*
X51530D01*
Y33543D01*
X51516D01*
Y33584D01*
X51502D01*
Y33626D01*
X51488D01*
Y33667D01*
X51474D01*
Y33723D01*
X51460D01*
Y33764D01*
X51447D01*
Y33806D01*
X51433D01*
Y33847D01*
X51419D01*
Y33889D01*
X51405D01*
Y33930D01*
X51391D01*
Y33986D01*
X51377D01*
Y34027D01*
X51364D01*
Y34069D01*
X51350D01*
Y34110D01*
X51336D01*
Y34152D01*
X51322D01*
Y34193D01*
X51308D01*
Y34235D01*
X51294D01*
Y34276D01*
X51281D01*
Y34332D01*
X51267D01*
Y34373D01*
X51253D01*
Y34415D01*
X51239D01*
Y34456D01*
X51225D01*
Y34498D01*
X51211D01*
Y34539D01*
X51197D01*
Y34581D01*
X51184D01*
Y34636D01*
X51170D01*
Y34678D01*
X51156D01*
Y34719D01*
X51142D01*
Y34761D01*
X51128D01*
Y34802D01*
X51114D01*
Y34844D01*
X51101D01*
Y34885D01*
X51087D01*
Y34927D01*
X51045D01*
Y34899D01*
X51031D01*
Y34885D01*
X51004D01*
Y34871D01*
X50990D01*
Y34857D01*
X50976D01*
Y34844D01*
X50962D01*
Y34830D01*
X50948D01*
Y34816D01*
X50935D01*
Y34802D01*
X50921D01*
Y34788D01*
X50907D01*
Y34774D01*
X50893D01*
Y34761D01*
X50879D01*
Y34747D01*
X50852D01*
Y34733D01*
X50838D01*
Y34719D01*
X50824D01*
Y34705D01*
X50810D01*
Y34691D01*
X50796D01*
Y34678D01*
X50782D01*
Y34664D01*
X50769D01*
Y34650D01*
X50755D01*
Y34636D01*
X50741D01*
Y34622D01*
X50713D01*
Y34608D01*
X50699D01*
Y34594D01*
X50686D01*
Y34581D01*
X50672D01*
Y34567D01*
X50658D01*
Y34553D01*
X50644D01*
Y34539D01*
X50630D01*
Y34525D01*
X50616D01*
Y34511D01*
X50603D01*
Y34498D01*
X50589D01*
Y34484D01*
X50575D01*
Y34470D01*
X50547D01*
Y34456D01*
X50533D01*
Y34442D01*
X50520D01*
Y34428D01*
X50506D01*
Y34415D01*
X50492D01*
Y34401D01*
X50478D01*
Y34387D01*
X50464D01*
Y34373D01*
X50450D01*
Y34359D01*
X50437D01*
Y34345D01*
X50423D01*
Y34332D01*
X50395D01*
Y34318D01*
X50381D01*
Y34304D01*
X50367D01*
Y34290D01*
X50353D01*
Y34276D01*
X50340D01*
Y34262D01*
X50326D01*
Y34249D01*
X50312D01*
Y34235D01*
X50298D01*
Y34221D01*
X50284D01*
Y34207D01*
X50257D01*
Y34193D01*
X50243D01*
Y34179D01*
X50229D01*
Y34166D01*
X50215D01*
Y34152D01*
X50201D01*
Y34138D01*
X50187D01*
Y34124D01*
X50174D01*
Y34110D01*
X50160D01*
Y34096D01*
X50146D01*
Y34083D01*
X50132D01*
Y34069D01*
X50118D01*
Y34055D01*
X50091D01*
Y34041D01*
X50077D01*
Y34027D01*
X50063D01*
Y34013D01*
X50049D01*
Y34000D01*
X50035D01*
Y33986D01*
X50021D01*
Y33972D01*
X50008D01*
Y33958D01*
X49994D01*
Y33944D01*
X49980D01*
Y33930D01*
X49952D01*
Y33917D01*
X49938D01*
Y33903D01*
X49925D01*
Y33889D01*
X49911D01*
Y33875D01*
X49897D01*
Y33861D01*
X49883D01*
Y33847D01*
X49869D01*
Y33833D01*
X49855D01*
Y33820D01*
X49842D01*
Y33806D01*
X49828D01*
Y33792D01*
X49814D01*
Y33778D01*
X49786D01*
Y33764D01*
X49772D01*
Y33750D01*
X49759D01*
Y33737D01*
X49745D01*
Y33723D01*
X49731D01*
Y33709D01*
X49717D01*
Y33695D01*
X49703D01*
Y33681D01*
X49689D01*
Y33667D01*
X49676D01*
Y33654D01*
X49648D01*
Y33626D01*
X49620D01*
Y33612D01*
X49606D01*
Y33598D01*
X49592D01*
Y33584D01*
X49579D01*
Y33571D01*
X49565D01*
Y33557D01*
X49551D01*
Y33543D01*
X49537D01*
Y33529D01*
X49523D01*
Y33515D01*
X49496D01*
Y33501D01*
X49482D01*
Y33488D01*
X49468D01*
Y33474D01*
X49454D01*
Y33460D01*
X49440D01*
Y33446D01*
X49426D01*
Y33432D01*
X49413D01*
Y33418D01*
X49399D01*
Y33405D01*
X49385D01*
Y33391D01*
X49371D01*
Y33377D01*
X49357D01*
Y33363D01*
X49330D01*
Y33349D01*
X49316D01*
Y33335D01*
X49302D01*
Y33322D01*
X49288D01*
Y33308D01*
X49274D01*
Y33294D01*
X49260D01*
Y33280D01*
X49247D01*
Y33266D01*
X49233D01*
Y33252D01*
X49219D01*
Y33239D01*
X49191D01*
Y33225D01*
X49177D01*
Y33211D01*
X49164D01*
Y33197D01*
X49150D01*
Y33183D01*
X49136D01*
Y33169D01*
X49122D01*
Y33156D01*
X49108D01*
Y33142D01*
X49094D01*
Y33128D01*
X49081D01*
Y33114D01*
X49067D01*
Y33100D01*
X49053D01*
Y33086D01*
X49025D01*
Y33073D01*
X49011D01*
Y33059D01*
X48998D01*
Y33045D01*
X48984D01*
Y33031D01*
X48970D01*
Y33017D01*
X48956D01*
Y33003D01*
X48942D01*
Y32989D01*
X48928D01*
Y32976D01*
X48915D01*
Y32962D01*
X48887D01*
Y32948D01*
X48873D01*
Y32934D01*
X48859D01*
Y32920D01*
X48845D01*
Y32906D01*
X48832D01*
Y32893D01*
X48818D01*
Y32879D01*
X48804D01*
Y32865D01*
X48790D01*
Y32851D01*
X48776D01*
Y32837D01*
X48762D01*
Y32823D01*
X48735D01*
Y32810D01*
X48721D01*
Y32796D01*
X48707D01*
Y32782D01*
X48693D01*
Y32768D01*
X48679D01*
Y32754D01*
X48665D01*
Y32740D01*
X48652D01*
Y32727D01*
X48638D01*
Y32713D01*
X48624D01*
Y32699D01*
X48610D01*
Y32685D01*
X48582D01*
Y32671D01*
X48569D01*
Y32657D01*
X48555D01*
Y32644D01*
X48541D01*
Y32630D01*
X48527D01*
Y32616D01*
X48513D01*
Y32602D01*
X48499D01*
Y32588D01*
X48486D01*
Y32574D01*
X48472D01*
Y32561D01*
X48458D01*
Y32547D01*
X48430D01*
Y32533D01*
X48416D01*
Y32519D01*
X48403D01*
Y32505D01*
X48389D01*
Y32491D01*
X48375D01*
Y32478D01*
X48361D01*
Y32464D01*
X48347D01*
Y32450D01*
X48333D01*
Y32436D01*
X48320D01*
Y32422D01*
X48306D01*
Y32408D01*
X48292D01*
Y32395D01*
X48264D01*
Y32381D01*
X48250D01*
Y32367D01*
X48237D01*
Y32353D01*
X48223D01*
Y32339D01*
X48209D01*
Y32325D01*
X48195D01*
Y32312D01*
X48181D01*
Y32298D01*
X48167D01*
Y32284D01*
X48140D01*
Y32270D01*
X48126D01*
Y32256D01*
X48112D01*
Y32242D01*
X48098D01*
Y32229D01*
X48084D01*
Y32215D01*
X48071D01*
Y32201D01*
X48057D01*
Y32187D01*
X48043D01*
Y32173D01*
X48029D01*
Y32159D01*
X48015D01*
Y32145D01*
X48001D01*
Y32132D01*
X47974D01*
Y32118D01*
X47960D01*
Y32104D01*
X47946D01*
Y32090D01*
X47932D01*
Y32076D01*
X47918D01*
Y32062D01*
X47904D01*
Y32049D01*
X47891D01*
Y32035D01*
X47877D01*
Y32021D01*
X47863D01*
Y32007D01*
X47835D01*
Y31993D01*
X47821D01*
Y31979D01*
X47808D01*
Y31966D01*
X47794D01*
Y31952D01*
X47780D01*
Y31938D01*
X47766D01*
Y31924D01*
X47752D01*
Y31910D01*
X47738D01*
Y31896D01*
X47725D01*
Y31883D01*
X47711D01*
Y31869D01*
X47697D01*
Y31855D01*
X47669D01*
Y31841D01*
X47655D01*
Y31827D01*
X47642D01*
Y31813D01*
X47628D01*
Y31800D01*
X47614D01*
Y31786D01*
X47600D01*
Y31772D01*
X47586D01*
Y31758D01*
X47572D01*
Y31744D01*
X47559D01*
Y31730D01*
X47545D01*
Y31717D01*
X47517D01*
Y31703D01*
X47503D01*
Y31689D01*
X47489D01*
Y31647D01*
X47476D01*
Y31620D01*
X47489D01*
Y27469D01*
X47476D01*
Y27441D01*
X47489D01*
Y27427D01*
X47517D01*
Y27414D01*
X47545D01*
Y27427D01*
X48721D01*
Y27414D01*
X48735D01*
Y27427D01*
X48776D01*
Y27414D01*
X48790D01*
Y26777D01*
X48762D01*
Y26763D01*
X48749D01*
Y26777D01*
X46881D01*
Y26763D01*
X46853D01*
Y26777D01*
X46839D01*
Y26791D01*
X46825D01*
Y38206D01*
X46853D01*
Y38220D01*
X46867D01*
Y38206D01*
D02*
G37*
G36*
X55321Y26417D02*
X55334D01*
Y25809D01*
X55321D01*
Y25795D01*
X37680D01*
Y25809D01*
X37666D01*
Y26417D01*
X37680D01*
Y26445D01*
X55321D01*
Y26417D01*
D02*
G37*
%LPC*%
G36*
X84341Y35580D02*
X81955D01*
Y30807D01*
X84341D01*
Y35580D01*
D02*
G37*
%LPD*%
D14*
X84673Y21579D02*
Y20380D01*
X84074D01*
X83874Y20580D01*
Y21380D01*
X84074Y21579D01*
X84673D01*
X82874Y20380D02*
X83274D01*
X83474Y20580D01*
Y20980D01*
X83274Y21180D01*
X82874D01*
X82674Y20980D01*
Y20780D01*
X83474D01*
X82274Y20380D02*
X81674D01*
X81474Y20580D01*
X81674Y20780D01*
X82074D01*
X82274Y20980D01*
X82074Y21180D01*
X81474D01*
X81075Y20380D02*
X80675D01*
X80875D01*
Y21180D01*
X81075D01*
X79675Y19980D02*
X79475D01*
X79275Y20180D01*
Y21180D01*
X79875D01*
X80075Y20980D01*
Y20580D01*
X79875Y20380D01*
X79275D01*
X78875D02*
Y21180D01*
X78275D01*
X78076Y20980D01*
Y20380D01*
X77076D02*
X77476D01*
X77676Y20580D01*
Y20980D01*
X77476Y21180D01*
X77076D01*
X76876Y20980D01*
Y20780D01*
X77676D01*
X75676Y21579D02*
Y20380D01*
X76276D01*
X76476Y20580D01*
Y20980D01*
X76276Y21180D01*
X75676D01*
X74077Y21579D02*
Y20380D01*
X73477D01*
X73277Y20580D01*
Y20780D01*
Y20980D01*
X73477Y21180D01*
X74077D01*
X72877D02*
Y20580D01*
X72677Y20380D01*
X72077D01*
Y20180D01*
X72277Y19980D01*
X72477D01*
X72077Y20380D02*
Y21180D01*
X88072Y17820D02*
Y19020D01*
X87473D01*
X87273Y18820D01*
Y18420D01*
X87473Y18220D01*
X88072D01*
X87672D02*
X87273Y17820D01*
X86873Y18620D02*
Y18020D01*
X86673Y17820D01*
X86073D01*
Y18620D01*
X85673Y17820D02*
X85073D01*
X84873Y18020D01*
X85073Y18220D01*
X85473D01*
X85673Y18420D01*
X85473Y18620D01*
X84873D01*
X84473Y17820D02*
X83874D01*
X83674Y18020D01*
X83874Y18220D01*
X84274D01*
X84473Y18420D01*
X84274Y18620D01*
X83674D01*
X82674Y17820D02*
X83074D01*
X83274Y18020D01*
Y18420D01*
X83074Y18620D01*
X82674D01*
X82474Y18420D01*
Y18220D01*
X83274D01*
X82074Y17820D02*
X81674D01*
X81874D01*
Y19020D01*
X82074D01*
X81075Y17820D02*
X80675D01*
X80875D01*
Y19020D01*
X81075D01*
X78875Y17820D02*
Y19020D01*
X78475Y18620D01*
X78076Y19020D01*
Y17820D01*
X77476Y18620D02*
X77076D01*
X76876Y18420D01*
Y17820D01*
X77476D01*
X77676Y18020D01*
X77476Y18220D01*
X76876D01*
X75676Y18620D02*
X76276D01*
X76476Y18420D01*
Y18020D01*
X76276Y17820D01*
X75676D01*
X74477Y18820D02*
X74677Y19020D01*
X75077D01*
X75276Y18820D01*
Y18020D01*
X75077Y17820D01*
X74677D01*
X74477Y18020D01*
Y18420D01*
X74877D01*
X74077Y18620D02*
Y17820D01*
Y18220D01*
X73877Y18420D01*
X73677Y18620D01*
X73477D01*
X72277Y17820D02*
X72677D01*
X72877Y18020D01*
Y18420D01*
X72677Y18620D01*
X72277D01*
X72077Y18420D01*
Y18220D01*
X72877D01*
X71278Y17421D02*
X71078D01*
X70878Y17620D01*
Y18620D01*
X71478D01*
X71678Y18420D01*
Y18020D01*
X71478Y17820D01*
X70878D01*
X70278D02*
X69878D01*
X69678Y18020D01*
Y18420D01*
X69878Y18620D01*
X70278D01*
X70478Y18420D01*
Y18020D01*
X70278Y17820D01*
X69278Y18620D02*
Y17820D01*
Y18220D01*
X69078Y18420D01*
X68879Y18620D01*
X68679D01*
X6400Y62590D02*
X7600D01*
X7200Y62990D01*
X7600Y63390D01*
X6400D01*
X7600Y64389D02*
Y63990D01*
X7400Y63790D01*
X6600D01*
X6400Y63990D01*
Y64389D01*
X6600Y64589D01*
X7400D01*
X7600Y64389D01*
Y64989D02*
X6400D01*
Y65589D01*
X6600Y65789D01*
X7400D01*
X7600Y65589D01*
Y64989D01*
Y66989D02*
Y66189D01*
X6400D01*
Y66989D01*
X7000Y66189D02*
Y66589D01*
X11600Y62590D02*
X10800D01*
X10400Y62990D01*
X10800Y63390D01*
X11600D01*
X11400Y64589D02*
X11600Y64389D01*
Y63990D01*
X11400Y63790D01*
X10600D01*
X10400Y63990D01*
Y64389D01*
X10600Y64589D01*
X11600Y65589D02*
Y65189D01*
X11400Y64989D01*
X10600D01*
X10400Y65189D01*
Y65589D01*
X10600Y65789D01*
X11400D01*
X11600Y65589D01*
X10400Y66189D02*
X11600D01*
X10400Y66989D01*
X11600D01*
D26*
X94500Y68558D02*
Y70258D01*
X94492D02*
X95000Y69750D01*
X93992D02*
X94500Y70258D01*
X11500Y19750D02*
X12008Y19242D01*
X11000D02*
X11508Y19750D01*
X4250Y12500D02*
X11500D01*
X4250Y12500D02*
X4758Y13008D01*
X11500Y12500D02*
Y19750D01*
X4250Y12508D02*
X4758Y12000D01*
D27*
X6720Y39545D02*
Y40235D01*
Y37005D02*
Y37695D01*
Y34465D02*
Y35155D01*
Y31925D02*
Y32615D01*
X24500Y39545D02*
Y40235D01*
Y37005D02*
Y37695D01*
Y34465D02*
Y35155D01*
Y31925D02*
Y32615D01*
X71753Y68301D02*
X71920Y68134D01*
Y67801D01*
X71753Y67634D01*
X71087D01*
X70920Y67801D01*
Y68134D01*
X71087Y68301D01*
X71420D01*
Y67967D01*
X70920Y68634D02*
X71920D01*
X70920Y69300D01*
X71920D01*
Y69634D02*
X70920D01*
Y70133D01*
X71087Y70300D01*
X71753D01*
X71920Y70133D01*
Y69634D01*
X78540Y67634D02*
X79540D01*
Y68134D01*
X79373Y68301D01*
X79040D01*
X78873Y68134D01*
Y67634D01*
X79540Y68634D02*
X78540D01*
X78873Y68967D01*
X78540Y69300D01*
X79540D01*
X78540Y69634D02*
X79540D01*
X79207Y69967D01*
X79540Y70300D01*
X78540D01*
X74293Y69300D02*
X74460Y69134D01*
Y68800D01*
X74293Y68634D01*
X73627D01*
X73460Y68800D01*
Y69134D01*
X73627Y69300D01*
X73460Y70300D02*
Y69634D01*
X74127Y70300D01*
X74293D01*
X74460Y70133D01*
Y69800D01*
X74293Y69634D01*
X76833Y69634D02*
X77000Y69467D01*
Y69134D01*
X76833Y68967D01*
X76167D01*
X76000Y69134D01*
Y69467D01*
X76167Y69634D01*
X76000Y69967D02*
Y70300D01*
Y70133D01*
X77000D01*
X76833Y69967D01*
X81580Y66635D02*
Y67301D01*
X81913Y66968D02*
X81247D01*
X81913Y67634D02*
X82080Y67801D01*
Y68134D01*
X81913Y68301D01*
X81747D01*
X81580Y68134D01*
Y67967D01*
Y68134D01*
X81413Y68301D01*
X81247D01*
X81080Y68134D01*
Y67801D01*
X81247Y67634D01*
X82080Y68634D02*
X81413D01*
X81080Y68967D01*
X81413Y69300D01*
X82080D01*
X81913Y69634D02*
X82080Y69800D01*
Y70133D01*
X81913Y70300D01*
X81747D01*
X81580Y70133D01*
Y69967D01*
Y70133D01*
X81413Y70300D01*
X81247D01*
X81080Y70133D01*
Y69800D01*
X81247Y69634D01*
X54580Y66635D02*
Y67301D01*
X54913Y66968D02*
X54247D01*
X54913Y67634D02*
X55080Y67801D01*
Y68134D01*
X54913Y68301D01*
X54747D01*
X54580Y68134D01*
Y67967D01*
Y68134D01*
X54413Y68301D01*
X54247D01*
X54080Y68134D01*
Y67801D01*
X54247Y67634D01*
X55080Y68634D02*
X54413D01*
X54080Y68967D01*
X54413Y69300D01*
X55080D01*
X54913Y69634D02*
X55080Y69800D01*
Y70133D01*
X54913Y70300D01*
X54747D01*
X54580Y70133D01*
Y69967D01*
Y70133D01*
X54413Y70300D01*
X54247D01*
X54080Y70133D01*
Y69800D01*
X54247Y69634D01*
X51540Y67634D02*
X52540D01*
Y68134D01*
X52373Y68301D01*
X52040D01*
X51873Y68134D01*
Y67634D01*
X52540Y68634D02*
X51540D01*
X51873Y68967D01*
X51540Y69300D01*
X52540D01*
X51540Y69634D02*
X52540D01*
X52207Y69967D01*
X52540Y70300D01*
X51540D01*
X44753Y68301D02*
X44920Y68134D01*
Y67801D01*
X44753Y67634D01*
X44087D01*
X43920Y67801D01*
Y68134D01*
X44087Y68301D01*
X44420D01*
Y67967D01*
X43920Y68634D02*
X44920D01*
X43920Y69300D01*
X44920D01*
Y69634D02*
X43920D01*
Y70133D01*
X44087Y70300D01*
X44753D01*
X44920Y70133D01*
Y69634D01*
X47293Y69300D02*
X47460Y69134D01*
Y68800D01*
X47293Y68634D01*
X46627D01*
X46460Y68800D01*
Y69134D01*
X46627Y69300D01*
X46460Y70300D02*
Y69634D01*
X47127Y70300D01*
X47293D01*
X47460Y70133D01*
Y69800D01*
X47293Y69634D01*
X49833Y69634D02*
X50000Y69467D01*
Y69134D01*
X49833Y68967D01*
X49167D01*
X49000Y69134D01*
Y69467D01*
X49167Y69634D01*
X49000Y69967D02*
Y70300D01*
Y70133D01*
X50000D01*
X49833Y69967D01*
X27580Y66635D02*
Y67301D01*
X27913Y66968D02*
X27247D01*
X27913Y67634D02*
X28080Y67801D01*
Y68134D01*
X27913Y68301D01*
X27747D01*
X27580Y68134D01*
Y67967D01*
Y68134D01*
X27413Y68301D01*
X27247D01*
X27080Y68134D01*
Y67801D01*
X27247Y67634D01*
X28080Y68634D02*
X27413D01*
X27080Y68967D01*
X27413Y69300D01*
X28080D01*
X27913Y69634D02*
X28080Y69800D01*
Y70133D01*
X27913Y70300D01*
X27747D01*
X27580Y70133D01*
Y69967D01*
Y70133D01*
X27413Y70300D01*
X27247D01*
X27080Y70133D01*
Y69800D01*
X27247Y69634D01*
X17753Y68301D02*
X17920Y68134D01*
Y67801D01*
X17753Y67634D01*
X17087D01*
X16920Y67801D01*
Y68134D01*
X17087Y68301D01*
X17420D01*
Y67967D01*
X16920Y68634D02*
X17920D01*
X16920Y69300D01*
X17920D01*
Y69634D02*
X16920D01*
Y70133D01*
X17087Y70300D01*
X17753D01*
X17920Y70133D01*
Y69634D01*
X24540Y67634D02*
X25540D01*
Y68134D01*
X25373Y68301D01*
X25040D01*
X24873Y68134D01*
Y67634D01*
X25540Y68634D02*
X24540D01*
X24873Y68967D01*
X24540Y69300D01*
X25540D01*
X24540Y69634D02*
X25540D01*
X25207Y69967D01*
X25540Y70300D01*
X24540D01*
X20293Y69300D02*
X20460Y69134D01*
Y68800D01*
X20293Y68634D01*
X19627D01*
X19460Y68800D01*
Y69134D01*
X19627Y69300D01*
X19460Y70300D02*
Y69634D01*
X20127Y70300D01*
X20293D01*
X20460Y70133D01*
Y69800D01*
X20293Y69634D01*
X22833Y69634D02*
X23000Y69467D01*
Y69134D01*
X22833Y68967D01*
X22167D01*
X22000Y69134D01*
Y69467D01*
X22167Y69634D01*
X22000Y69967D02*
Y70300D01*
Y70133D01*
X23000D01*
X22833Y69967D01*
X16084Y31500D02*
Y30833D01*
X15751Y30500D01*
X15418Y30833D01*
Y31500D01*
X14418Y31333D02*
X14585Y31500D01*
X14918D01*
X15085Y31333D01*
Y30667D01*
X14918Y30500D01*
X14585D01*
X14418Y30667D01*
X13585Y31500D02*
X13918D01*
X14085Y31333D01*
Y30667D01*
X13918Y30500D01*
X13585D01*
X13418Y30667D01*
Y31333D01*
X13585Y31500D01*
X13085Y30500D02*
Y31500D01*
X12419Y30500D01*
Y31500D01*
X12085D02*
X11419D01*
X11752D01*
Y30500D01*
X11086D02*
Y31500D01*
X10586D01*
X10419Y31333D01*
Y31000D01*
X10586Y30833D01*
X11086D01*
X10753D02*
X10419Y30500D01*
X9586Y31500D02*
X9920D01*
X10086Y31333D01*
Y30667D01*
X9920Y30500D01*
X9586D01*
X9420Y30667D01*
Y31333D01*
X9586Y31500D01*
X9086D02*
Y30500D01*
X8420D01*
X11752Y33040D02*
Y34040D01*
X11252D01*
X11086Y33873D01*
Y33540D01*
X11252Y33373D01*
X11752D01*
X10753Y34040D02*
Y33040D01*
X10419Y33373D01*
X10086Y33040D01*
Y34040D01*
X9753Y33040D02*
Y34040D01*
X9420Y33707D01*
X9086Y34040D01*
Y33040D01*
X8753D02*
X8420D01*
X8587D01*
Y34040D01*
X8753Y33873D01*
X12085Y35580D02*
Y36580D01*
X11586D01*
X11419Y36413D01*
Y36080D01*
X11586Y35913D01*
X12085D01*
X11086Y36580D02*
Y35580D01*
X10753Y35913D01*
X10419Y35580D01*
Y36580D01*
X10086Y35580D02*
Y36580D01*
X9753Y36247D01*
X9420Y36580D01*
Y35580D01*
X8420D02*
X9086D01*
X8420Y36247D01*
Y36413D01*
X8587Y36580D01*
X8920D01*
X9086Y36413D01*
X12085Y38120D02*
Y39120D01*
X11586D01*
X11419Y38953D01*
Y38620D01*
X11586Y38453D01*
X12085D01*
X11086Y39120D02*
Y38120D01*
X10753Y38453D01*
X10419Y38120D01*
Y39120D01*
X10086Y38120D02*
Y39120D01*
X9753Y38787D01*
X9420Y39120D01*
Y38120D01*
X9086Y38953D02*
X8920Y39120D01*
X8587D01*
X8420Y38953D01*
Y38787D01*
X8587Y38620D01*
X8753D01*
X8587D01*
X8420Y38453D01*
Y38287D01*
X8587Y38120D01*
X8920D01*
X9086Y38287D01*
X12085Y40660D02*
Y41660D01*
X11586D01*
X11419Y41493D01*
Y41160D01*
X11586Y40993D01*
X12085D01*
X11086Y41660D02*
Y40660D01*
X10753Y40993D01*
X10419Y40660D01*
Y41660D01*
X10086Y40660D02*
Y41660D01*
X9753Y41327D01*
X9420Y41660D01*
Y40660D01*
X8587D02*
Y41660D01*
X9086Y41160D01*
X8420D01*
X12085Y48280D02*
Y49280D01*
X11752Y48947D01*
X11419Y49280D01*
Y48280D01*
X10586Y49280D02*
X10919D01*
X11086Y49113D01*
Y48447D01*
X10919Y48280D01*
X10586D01*
X10419Y48447D01*
Y49113D01*
X10586Y49280D01*
X10086D02*
Y48280D01*
X9586D01*
X9420Y48447D01*
Y49113D01*
X9586Y49280D01*
X10086D01*
X8420D02*
X9086D01*
Y48280D01*
X8420D01*
X9086Y48780D02*
X8753D01*
X22800Y40660D02*
Y41660D01*
X22300D01*
X22134Y41493D01*
Y41160D01*
X22300Y40993D01*
X22800D01*
X21800Y41660D02*
Y40660D01*
X21467Y40993D01*
X21134Y40660D01*
Y41660D01*
X20801Y40660D02*
Y41660D01*
X20467Y41327D01*
X20134Y41660D01*
Y40660D01*
X19301D02*
Y41660D01*
X19801Y41160D01*
X19135D01*
X22800Y38120D02*
Y39120D01*
X22300D01*
X22134Y38953D01*
Y38620D01*
X22300Y38453D01*
X22800D01*
X21800Y39120D02*
Y38120D01*
X21467Y38453D01*
X21134Y38120D01*
Y39120D01*
X20801Y38120D02*
Y39120D01*
X20467Y38787D01*
X20134Y39120D01*
Y38120D01*
X19801Y38953D02*
X19634Y39120D01*
X19301D01*
X19135Y38953D01*
Y38787D01*
X19301Y38620D01*
X19468D01*
X19301D01*
X19135Y38453D01*
Y38287D01*
X19301Y38120D01*
X19634D01*
X19801Y38287D01*
X22800Y35580D02*
Y36580D01*
X22300D01*
X22134Y36413D01*
Y36080D01*
X22300Y35913D01*
X22800D01*
X21800Y36580D02*
Y35580D01*
X21467Y35913D01*
X21134Y35580D01*
Y36580D01*
X20801Y35580D02*
Y36580D01*
X20467Y36247D01*
X20134Y36580D01*
Y35580D01*
X19135D02*
X19801D01*
X19135Y36247D01*
Y36413D01*
X19301Y36580D01*
X19634D01*
X19801Y36413D01*
X22800Y33040D02*
Y34040D01*
X22300D01*
X22134Y33873D01*
Y33540D01*
X22300Y33373D01*
X22800D01*
X21800Y34040D02*
Y33040D01*
X21467Y33373D01*
X21134Y33040D01*
Y34040D01*
X20801Y33040D02*
Y34040D01*
X20467Y33707D01*
X20134Y34040D01*
Y33040D01*
X19801D02*
X19468D01*
X19634D01*
Y34040D01*
X19801Y33873D01*
X22800Y31000D02*
X22134D01*
X22467Y31333D02*
Y30667D01*
X21800Y31333D02*
X21634Y31500D01*
X21300D01*
X21134Y31333D01*
Y31167D01*
X21300Y31000D01*
X21467D01*
X21300D01*
X21134Y30833D01*
Y30667D01*
X21300Y30500D01*
X21634D01*
X21800Y30667D01*
X20801Y31500D02*
Y30833D01*
X20467Y30500D01*
X20134Y30833D01*
Y31500D01*
X19801Y31333D02*
X19634Y31500D01*
X19301D01*
X19135Y31333D01*
Y31167D01*
X19301Y31000D01*
X19468D01*
X19301D01*
X19135Y30833D01*
Y30667D01*
X19301Y30500D01*
X19634D01*
X19801Y30667D01*
X22134Y49113D02*
X22300Y49280D01*
X22633D01*
X22800Y49113D01*
Y48447D01*
X22633Y48280D01*
X22300D01*
X22134Y48447D01*
Y48780D01*
X22467D01*
X21800Y48280D02*
Y49280D01*
X21134Y48280D01*
Y49280D01*
X20801D02*
Y48280D01*
X20301D01*
X20134Y48447D01*
Y49113D01*
X20301Y49280D01*
X20801D01*
X22800Y19290D02*
X22134D01*
X22467Y19623D02*
Y18957D01*
X21800Y19623D02*
X21634Y19790D01*
X21300D01*
X21134Y19623D01*
Y19457D01*
X21300Y19290D01*
X21467D01*
X21300D01*
X21134Y19123D01*
Y18957D01*
X21300Y18790D01*
X21634D01*
X21800Y18957D01*
X20801Y19790D02*
Y19123D01*
X20467Y18790D01*
X20134Y19123D01*
Y19790D01*
X19801Y19623D02*
X19634Y19790D01*
X19301D01*
X19135Y19623D01*
Y19457D01*
X19301Y19290D01*
X19468D01*
X19301D01*
X19135Y19123D01*
Y18957D01*
X19301Y18790D01*
X19634D01*
X19801Y18957D01*
X22800Y16750D02*
X22134D01*
X22467Y17083D02*
Y16417D01*
X21134Y17250D02*
X21800D01*
Y16750D01*
X21467Y16917D01*
X21300D01*
X21134Y16750D01*
Y16417D01*
X21300Y16250D01*
X21634D01*
X21800Y16417D01*
X20801Y17250D02*
Y16583D01*
X20467Y16250D01*
X20134Y16583D01*
Y17250D01*
X22134Y22330D02*
X22800D01*
Y21330D01*
X22134D01*
X22800Y21830D02*
X22467D01*
X21800Y21330D02*
Y22330D01*
X21134Y21330D01*
Y22330D01*
X22134Y24703D02*
X22300Y24870D01*
X22633D01*
X22800Y24703D01*
Y24037D01*
X22633Y23870D01*
X22300D01*
X22134Y24037D01*
Y24370D01*
X22467D01*
X21800Y23870D02*
Y24870D01*
X21134Y23870D01*
Y24870D01*
X20801D02*
Y23870D01*
X20301D01*
X20134Y24037D01*
Y24703D01*
X20301Y24870D01*
X20801D01*
X15616Y55460D02*
X14949D01*
X15283Y55793D02*
Y55127D01*
X13950Y55960D02*
X14616D01*
Y55460D01*
X14283Y55627D01*
X14116D01*
X13950Y55460D01*
Y55127D01*
X14116Y54960D01*
X14450D01*
X14616Y55127D01*
X13616Y55960D02*
Y55293D01*
X13283Y54960D01*
X12950Y55293D01*
Y55960D01*
X20614Y58500D02*
Y57833D01*
X20281Y57500D01*
X19948Y57833D01*
Y58500D01*
X18948Y58333D02*
X19115Y58500D01*
X19448D01*
X19615Y58333D01*
Y57667D01*
X19448Y57500D01*
X19115D01*
X18948Y57667D01*
X18115Y58500D02*
X18448D01*
X18615Y58333D01*
Y57667D01*
X18448Y57500D01*
X18115D01*
X17948Y57667D01*
Y58333D01*
X18115Y58500D01*
X17615Y57500D02*
Y58500D01*
X16949Y57500D01*
Y58500D01*
X16615D02*
X15949D01*
X16282D01*
Y57500D01*
X15616D02*
Y58500D01*
X15116D01*
X14949Y58333D01*
Y58000D01*
X15116Y57833D01*
X15616D01*
X15283D02*
X14949Y57500D01*
X14116Y58500D02*
X14450D01*
X14616Y58333D01*
Y57667D01*
X14450Y57500D01*
X14116D01*
X13950Y57667D01*
Y58333D01*
X14116Y58500D01*
X13616D02*
Y57500D01*
X12950D01*
X14949Y60873D02*
X15116Y61040D01*
X15449D01*
X15616Y60873D01*
Y60207D01*
X15449Y60040D01*
X15116D01*
X14949Y60207D01*
Y60540D01*
X15283D01*
X14616Y60040D02*
Y61040D01*
X13950Y60040D01*
Y61040D01*
X13616D02*
Y60040D01*
X13117D01*
X12950Y60207D01*
Y60873D01*
X13117Y61040D01*
X13616D01*
X4384Y55793D02*
X4550Y55960D01*
X4884D01*
X5050Y55793D01*
Y55127D01*
X4884Y54960D01*
X4550D01*
X4384Y55127D01*
Y55460D01*
X4717D01*
X4051Y54960D02*
Y55960D01*
X3384Y54960D01*
Y55960D01*
X3051D02*
Y54960D01*
X2551D01*
X2384Y55127D01*
Y55793D01*
X2551Y55960D01*
X3051D01*
X5050Y57500D02*
Y58500D01*
X4717Y58167D01*
X4384Y58500D01*
Y57500D01*
X3551Y58500D02*
X3884D01*
X4051Y58333D01*
Y57667D01*
X3884Y57500D01*
X3551D01*
X3384Y57667D01*
Y58333D01*
X3551Y58500D01*
X3051D02*
Y57500D01*
X2551D01*
X2384Y57667D01*
Y58333D01*
X2551Y58500D01*
X3051D01*
X1385D02*
X2051D01*
Y57500D01*
X1385D01*
X2051Y58000D02*
X1718D01*
X5050Y60540D02*
X4384D01*
X4717Y60873D02*
Y60207D01*
X4051Y60873D02*
X3884Y61040D01*
X3551D01*
X3384Y60873D01*
Y60707D01*
X3551Y60540D01*
X3717D01*
X3551D01*
X3384Y60373D01*
Y60207D01*
X3551Y60040D01*
X3884D01*
X4051Y60207D01*
X3051Y61040D02*
Y60373D01*
X2718Y60040D01*
X2384Y60373D01*
Y61040D01*
X2051Y60873D02*
X1885Y61040D01*
X1551D01*
X1385Y60873D01*
Y60707D01*
X1551Y60540D01*
X1718D01*
X1551D01*
X1385Y60373D01*
Y60207D01*
X1551Y60040D01*
X1885D01*
X2051Y60207D01*
X5384Y25163D02*
X5550Y25330D01*
X5884D01*
X6050Y25163D01*
Y24497D01*
X5884Y24330D01*
X5550D01*
X5384Y24497D01*
Y24830D01*
X5717D01*
X5051Y24330D02*
Y25330D01*
X4384Y24330D01*
Y25330D01*
X4051D02*
Y24330D01*
X3551D01*
X3384Y24497D01*
Y25163D01*
X3551Y25330D01*
X4051D01*
X5384Y22790D02*
X6050D01*
Y21790D01*
X5384D01*
X6050Y22290D02*
X5717D01*
X5051Y21790D02*
Y22790D01*
X4384Y21790D01*
Y22790D01*
X6050Y19750D02*
X5384D01*
X5717Y20083D02*
Y19417D01*
X4384Y20250D02*
X5051D01*
Y19750D01*
X4717Y19917D01*
X4551D01*
X4384Y19750D01*
Y19417D01*
X4551Y19250D01*
X4884D01*
X5051Y19417D01*
X4051Y20250D02*
Y19583D01*
X3718Y19250D01*
X3384Y19583D01*
Y20250D01*
X81710Y6450D02*
Y7116D01*
Y6783D01*
X80710D01*
X81710Y7450D02*
X80710Y8116D01*
X81710D02*
X80710Y7450D01*
X81543Y8449D02*
X81710Y8616D01*
Y8949D01*
X81543Y9116D01*
X80877D01*
X80710Y8949D01*
Y8616D01*
X80877Y8449D01*
X81543D01*
X83250Y6450D02*
X84250D01*
Y6950D01*
X84083Y7116D01*
X83750D01*
X83583Y6950D01*
Y6450D01*
Y6783D02*
X83250Y7116D01*
X84250Y7450D02*
X83250Y8116D01*
X84250D02*
X83250Y7450D01*
X84083Y8449D02*
X84250Y8616D01*
Y8949D01*
X84083Y9116D01*
X83417D01*
X83250Y8949D01*
Y8616D01*
X83417Y8449D01*
X84083D01*
X86623Y7116D02*
X86790Y6950D01*
Y6617D01*
X86623Y6450D01*
X85957D01*
X85790Y6617D01*
Y6950D01*
X85957Y7116D01*
X86290D01*
Y6783D01*
X85790Y7450D02*
X86790D01*
X85790Y8116D01*
X86790D01*
Y8449D02*
X85790D01*
Y8949D01*
X85957Y9116D01*
X86623D01*
X86790Y8949D01*
Y8449D01*
X74873Y7116D02*
X75040Y6950D01*
Y6617D01*
X74873Y6450D01*
X74207D01*
X74040Y6617D01*
Y6950D01*
X74207Y7116D01*
X74540D01*
Y6783D01*
X74040Y7450D02*
X75040D01*
X74040Y8116D01*
X75040D01*
Y8449D02*
X74040D01*
Y8949D01*
X74207Y9116D01*
X74873D01*
X75040Y8949D01*
Y8449D01*
X71500Y6450D02*
X72500D01*
Y6950D01*
X72333Y7116D01*
X72000D01*
X71833Y6950D01*
Y6450D01*
Y6783D02*
X71500Y7116D01*
X72500Y7450D02*
X71500Y8116D01*
X72500D02*
X71500Y7450D01*
Y8449D02*
Y8783D01*
Y8616D01*
X72500D01*
X72333Y8449D01*
X69960Y6450D02*
Y7116D01*
Y6783D01*
X68960D01*
X69960Y7450D02*
X68960Y8116D01*
X69960D02*
X68960Y7450D01*
Y8449D02*
Y8783D01*
Y8616D01*
X69960D01*
X69793Y8449D01*
X58253Y7116D02*
X58420Y6950D01*
Y6617D01*
X58253Y6450D01*
X57587D01*
X57420Y6617D01*
Y6950D01*
X57587Y7116D01*
X57920D01*
Y6783D01*
X57420Y7450D02*
X58420D01*
X57420Y8116D01*
X58420D01*
Y8449D02*
X57420D01*
Y8949D01*
X57587Y9116D01*
X58253D01*
X58420Y8949D01*
Y8449D01*
X60793Y7116D02*
X60960Y6950D01*
Y6617D01*
X60793Y6450D01*
X60627D01*
X60460Y6617D01*
Y6950D01*
X60293Y7116D01*
X60127D01*
X59960Y6950D01*
Y6617D01*
X60127Y6450D01*
X60793Y8116D02*
X60960Y7950D01*
Y7616D01*
X60793Y7450D01*
X60127D01*
X59960Y7616D01*
Y7950D01*
X60127Y8116D01*
X60960Y8449D02*
X59960D01*
Y9116D01*
X60793Y9449D02*
X60960Y9616D01*
Y9949D01*
X60793Y10115D01*
X60127D01*
X59960Y9949D01*
Y9616D01*
X60127Y9449D01*
X60793D01*
X63333Y7116D02*
X63500Y6950D01*
Y6617D01*
X63333Y6450D01*
X63167D01*
X63000Y6617D01*
Y6950D01*
X62833Y7116D01*
X62667D01*
X62500Y6950D01*
Y6617D01*
X62667Y6450D01*
X63500Y7450D02*
X62500D01*
Y7950D01*
X62667Y8116D01*
X63333D01*
X63500Y7950D01*
Y7450D01*
X62500Y8449D02*
X63167D01*
X63500Y8783D01*
X63167Y9116D01*
X62500D01*
X63000D01*
Y8449D01*
X63333Y9449D02*
X63500Y9616D01*
Y9949D01*
X63333Y10115D01*
X62667D01*
X62500Y9949D01*
Y9616D01*
X62667Y9449D01*
X63333D01*
X52243Y7116D02*
X52410Y6950D01*
Y6617D01*
X52243Y6450D01*
X51577D01*
X51410Y6617D01*
Y6950D01*
X51577Y7116D01*
X52410Y8116D02*
Y7450D01*
X51410D01*
Y8116D01*
X51910Y7450D02*
Y7783D01*
X49703Y7116D02*
X49870Y6950D01*
Y6617D01*
X49703Y6450D01*
X49037D01*
X48870Y6617D01*
Y6950D01*
X49037Y7116D01*
X49703Y8116D02*
X49870Y7950D01*
Y7616D01*
X49703Y7450D01*
X49537D01*
X49370Y7616D01*
Y7950D01*
X49203Y8116D01*
X49037D01*
X48870Y7950D01*
Y7616D01*
X49037Y7450D01*
X46330Y6450D02*
X47330D01*
X46997Y6783D01*
X47330Y7116D01*
X46330D01*
X47330Y7950D02*
Y7616D01*
X47163Y7450D01*
X46497D01*
X46330Y7616D01*
Y7950D01*
X46497Y8116D01*
X47163D01*
X47330Y7950D01*
X47163Y9116D02*
X47330Y8949D01*
Y8616D01*
X47163Y8449D01*
X46997D01*
X46830Y8616D01*
Y8949D01*
X46663Y9116D01*
X46497D01*
X46330Y8949D01*
Y8616D01*
X46497Y8449D01*
X47330Y9449D02*
Y9782D01*
Y9616D01*
X46330D01*
Y9449D01*
Y9782D01*
X44623Y7116D02*
X44790Y6950D01*
Y6617D01*
X44623Y6450D01*
X44457D01*
X44290Y6617D01*
Y6950D01*
X44123Y7116D01*
X43957D01*
X43790Y6950D01*
Y6617D01*
X43957Y6450D01*
X44623Y8116D02*
X44790Y7950D01*
Y7616D01*
X44623Y7450D01*
X43957D01*
X43790Y7616D01*
Y7950D01*
X43957Y8116D01*
X44790Y8449D02*
X43790D01*
X44123D01*
X44790Y9116D01*
X44290Y8616D01*
X43790Y9116D01*
X42250Y6450D02*
Y6783D01*
Y6617D01*
X41250D01*
Y6450D01*
Y6783D01*
Y7283D02*
X42250D01*
X41250Y7950D01*
X42250D01*
Y8283D02*
Y8949D01*
Y8616D01*
X41250D01*
X38710Y6450D02*
X39710D01*
X39377Y6783D01*
X39710Y7116D01*
X38710D01*
X39710Y7450D02*
Y7783D01*
Y7616D01*
X38710D01*
Y7450D01*
Y7783D01*
X39543Y8949D02*
X39710Y8783D01*
Y8449D01*
X39543Y8283D01*
X39377D01*
X39210Y8449D01*
Y8783D01*
X39043Y8949D01*
X38877D01*
X38710Y8783D01*
Y8449D01*
X38877Y8283D01*
X39710Y9782D02*
Y9449D01*
X39543Y9282D01*
X38877D01*
X38710Y9449D01*
Y9782D01*
X38877Y9949D01*
X39543D01*
X39710Y9782D01*
X33020Y6450D02*
X32020D01*
Y6950D01*
X32187Y7116D01*
X32353D01*
X32520Y6950D01*
Y6450D01*
Y6950D01*
X32687Y7116D01*
X32853D01*
X33020Y6950D01*
Y6450D01*
Y7450D02*
X32187D01*
X32020Y7616D01*
Y7950D01*
X32187Y8116D01*
X33020D01*
Y8449D02*
Y9116D01*
X32853D01*
X32187Y8449D01*
X32020D01*
Y9116D01*
X33020Y9449D02*
Y10115D01*
X32853D01*
X32187Y9449D01*
X32020D01*
Y10115D01*
X30313Y7116D02*
X30480Y6950D01*
Y6617D01*
X30313Y6450D01*
X29647D01*
X29480Y6617D01*
Y6950D01*
X29647Y7116D01*
X29980D01*
Y6783D01*
X29480Y7450D02*
X30480D01*
X29480Y8116D01*
X30480D01*
Y8449D02*
X29480D01*
Y8949D01*
X29647Y9116D01*
X30313D01*
X30480Y8949D01*
Y8449D01*
X11840Y6450D02*
Y7116D01*
X12173Y6783D02*
X11507D01*
X12340Y8116D02*
Y7450D01*
X11840D01*
X12007Y7783D01*
Y7950D01*
X11840Y8116D01*
X11507D01*
X11340Y7950D01*
Y7616D01*
X11507Y7450D01*
X12340Y8449D02*
X11673D01*
X11340Y8783D01*
X11673Y9116D01*
X12340D01*
X17420Y6450D02*
X16753D01*
X16420Y6783D01*
X16753Y7116D01*
X17420D01*
X17253Y8116D02*
X17420Y7950D01*
Y7616D01*
X17253Y7450D01*
X17087D01*
X16920Y7616D01*
Y7950D01*
X16753Y8116D01*
X16587D01*
X16420Y7950D01*
Y7616D01*
X16587Y7450D01*
X22333Y7116D02*
X22500Y6950D01*
Y6617D01*
X22333Y6450D01*
X21667D01*
X21500Y6617D01*
Y6950D01*
X21667Y7116D01*
X22000D01*
Y6783D01*
X21500Y7450D02*
X22500D01*
X21500Y8116D01*
X22500D01*
Y8449D02*
X21500D01*
Y8949D01*
X21667Y9116D01*
X22333D01*
X22500Y8949D01*
Y8449D01*
X73290Y49635D02*
X74290D01*
Y50134D01*
X74123Y50301D01*
X73790D01*
X73623Y50134D01*
Y49635D01*
X74290Y50634D02*
X73290D01*
X73623Y50967D01*
X73290Y51301D01*
X74290D01*
X73290Y51634D02*
X74290D01*
X73957Y51967D01*
X74290Y52300D01*
X73290D01*
X74123Y52634D02*
X74290Y52800D01*
Y53133D01*
X74123Y53300D01*
X73957D01*
X73790Y53133D01*
Y52967D01*
Y53133D01*
X73623Y53300D01*
X73457D01*
X73290Y53133D01*
Y52800D01*
X73457Y52634D01*
X84330Y49635D02*
X85330D01*
Y50134D01*
X85163Y50301D01*
X84830D01*
X84663Y50134D01*
Y49635D01*
X85330Y50634D02*
X84330D01*
X84663Y50967D01*
X84330Y51301D01*
X85330D01*
X84330Y51634D02*
X85330D01*
X84997Y51967D01*
X85330Y52300D01*
X84330D01*
Y53133D02*
X85330D01*
X84830Y52634D01*
Y53300D01*
X82790Y51634D02*
X82123D01*
X81790Y51967D01*
X82123Y52300D01*
X82790D01*
X82623Y53300D02*
X82790Y53133D01*
Y52800D01*
X82623Y52634D01*
X82457D01*
X82290Y52800D01*
Y53133D01*
X82123Y53300D01*
X81957D01*
X81790Y53133D01*
Y52800D01*
X81957Y52634D01*
X71750Y51634D02*
X71083D01*
X70750Y51967D01*
X71083Y52300D01*
X71750D01*
X71583Y53300D02*
X71750Y53133D01*
Y52800D01*
X71583Y52634D01*
X71417D01*
X71250Y52800D01*
Y53133D01*
X71083Y53300D01*
X70917D01*
X70750Y53133D01*
Y52800D01*
X70917Y52634D01*
X68210Y61950D02*
X69210D01*
Y62450D01*
X69043Y62616D01*
X68710D01*
X68543Y62450D01*
Y61950D01*
X69210Y62950D02*
X68210D01*
X68543Y63283D01*
X68210Y63616D01*
X69210D01*
X68210Y63949D02*
X69210D01*
X68877Y64283D01*
X69210Y64616D01*
X68210D01*
Y64949D02*
Y65282D01*
Y65116D01*
X69210D01*
X69043Y64949D01*
X79250Y61950D02*
X80250D01*
Y62450D01*
X80083Y62616D01*
X79750D01*
X79583Y62450D01*
Y61950D01*
X80250Y62950D02*
X79250D01*
X79583Y63283D01*
X79250Y63616D01*
X80250D01*
X79250Y63949D02*
X80250D01*
X79917Y64283D01*
X80250Y64616D01*
X79250D01*
Y65615D02*
Y64949D01*
X79917Y65615D01*
X80083D01*
X80250Y65449D01*
Y65116D01*
X80083Y64949D01*
X71750Y61950D02*
X71083D01*
X70750Y62283D01*
X71083Y62616D01*
X71750D01*
X71583Y63616D02*
X71750Y63450D01*
Y63116D01*
X71583Y62950D01*
X71417D01*
X71250Y63116D01*
Y63450D01*
X71083Y63616D01*
X70917D01*
X70750Y63450D01*
Y63116D01*
X70917Y62950D01*
X82790Y61950D02*
X82123D01*
X81790Y62283D01*
X82123Y62616D01*
X82790D01*
X82623Y63616D02*
X82790Y63450D01*
Y63116D01*
X82623Y62950D01*
X82457D01*
X82290Y63116D01*
Y63450D01*
X82123Y63616D01*
X81957D01*
X81790Y63450D01*
Y63116D01*
X81957Y62950D01*
X80083Y51301D02*
X80250Y51134D01*
Y50801D01*
X80083Y50634D01*
X79417D01*
X79250Y50801D01*
Y51134D01*
X79417Y51301D01*
X79750D01*
Y50967D01*
X79250Y51634D02*
X80250D01*
X79250Y52300D01*
X80250D01*
Y52634D02*
X79250D01*
Y53133D01*
X79417Y53300D01*
X80083D01*
X80250Y53133D01*
Y52634D01*
X69043Y51301D02*
X69210Y51134D01*
Y50801D01*
X69043Y50634D01*
X68377D01*
X68210Y50801D01*
Y51134D01*
X68377Y51301D01*
X68710D01*
Y50967D01*
X68210Y51634D02*
X69210D01*
X68210Y52300D01*
X69210D01*
Y52634D02*
X68210D01*
Y53133D01*
X68377Y53300D01*
X69043D01*
X69210Y53133D01*
Y52634D01*
X85163Y62616D02*
X85330Y62450D01*
Y62117D01*
X85163Y61950D01*
X84497D01*
X84330Y62117D01*
Y62450D01*
X84497Y62616D01*
X84830D01*
Y62283D01*
X84330Y62950D02*
X85330D01*
X84330Y63616D01*
X85330D01*
Y63949D02*
X84330D01*
Y64449D01*
X84497Y64616D01*
X85163D01*
X85330Y64449D01*
Y63949D01*
X74123Y62616D02*
X74290Y62450D01*
Y62117D01*
X74123Y61950D01*
X73457D01*
X73290Y62117D01*
Y62450D01*
X73457Y62616D01*
X73790D01*
Y62283D01*
X73290Y62950D02*
X74290D01*
X73290Y63616D01*
X74290D01*
Y63949D02*
X73290D01*
Y64449D01*
X73457Y64616D01*
X74123D01*
X74290Y64449D01*
Y63949D01*
X58373Y55366D02*
X58540Y55200D01*
Y54867D01*
X58373Y54700D01*
X57707D01*
X57540Y54867D01*
Y55200D01*
X57707Y55366D01*
X58040D01*
Y55033D01*
X57540Y55700D02*
X58540D01*
X57540Y56366D01*
X58540D01*
Y56699D02*
X57540D01*
Y57199D01*
X57707Y57366D01*
X58373D01*
X58540Y57199D01*
Y56699D01*
X35663Y55366D02*
X35830Y55200D01*
Y54867D01*
X35663Y54700D01*
X34997D01*
X34830Y54867D01*
Y55200D01*
X34997Y55366D01*
X35330D01*
Y55033D01*
X34830Y55700D02*
X35830D01*
X34830Y56366D01*
X35830D01*
Y56699D02*
X34830D01*
Y57199D01*
X34997Y57366D01*
X35663D01*
X35830Y57199D01*
Y56699D01*
X47083Y55366D02*
X47250Y55200D01*
Y54867D01*
X47083Y54700D01*
X46417D01*
X46250Y54867D01*
Y55200D01*
X46417Y55366D01*
X46750D01*
Y55033D01*
X46250Y55700D02*
X47250D01*
X46250Y56366D01*
X47250D01*
Y56699D02*
X46250D01*
Y57199D01*
X46417Y57366D01*
X47083D01*
X47250Y57199D01*
Y56699D01*
X30583Y55366D02*
X30750Y55200D01*
Y54867D01*
X30583Y54700D01*
X30417D01*
X30250Y54867D01*
Y55200D01*
X30083Y55366D01*
X29917D01*
X29750Y55200D01*
Y54867D01*
X29917Y54700D01*
X30750Y55700D02*
X29750D01*
Y56200D01*
X29917Y56366D01*
X30583D01*
X30750Y56200D01*
Y55700D01*
X29750Y56699D02*
X30417D01*
X30750Y57033D01*
X30417Y57366D01*
X29750D01*
X30250D01*
Y56699D01*
X29750Y57699D02*
Y58032D01*
Y57866D01*
X30750D01*
X30583Y57699D01*
X33123Y55366D02*
X33290Y55200D01*
Y54867D01*
X33123Y54700D01*
X32957D01*
X32790Y54867D01*
Y55200D01*
X32623Y55366D01*
X32457D01*
X32290Y55200D01*
Y54867D01*
X32457Y54700D01*
X33123Y56366D02*
X33290Y56200D01*
Y55866D01*
X33123Y55700D01*
X32457D01*
X32290Y55866D01*
Y56200D01*
X32457Y56366D01*
X33290Y56699D02*
X32290D01*
Y57366D01*
Y57699D02*
Y58032D01*
Y57866D01*
X33290D01*
X33123Y57699D01*
X44543Y55366D02*
X44710Y55200D01*
Y54867D01*
X44543Y54700D01*
X44377D01*
X44210Y54867D01*
Y55200D01*
X44043Y55366D01*
X43877D01*
X43710Y55200D01*
Y54867D01*
X43877Y54700D01*
X44543Y56366D02*
X44710Y56200D01*
Y55866D01*
X44543Y55700D01*
X43877D01*
X43710Y55866D01*
Y56200D01*
X43877Y56366D01*
X44710Y56699D02*
X43710D01*
Y57366D01*
Y57699D02*
Y58032D01*
Y57866D01*
X44710D01*
X44543Y57699D01*
X42003Y55366D02*
X42170Y55200D01*
Y54867D01*
X42003Y54700D01*
X41837D01*
X41670Y54867D01*
Y55200D01*
X41503Y55366D01*
X41337D01*
X41170Y55200D01*
Y54867D01*
X41337Y54700D01*
X42170Y55700D02*
X41170D01*
Y56200D01*
X41337Y56366D01*
X42003D01*
X42170Y56200D01*
Y55700D01*
X41170Y56699D02*
X41837D01*
X42170Y57033D01*
X41837Y57366D01*
X41170D01*
X41670D01*
Y56699D01*
X41170Y57699D02*
Y58032D01*
Y57866D01*
X42170D01*
X42003Y57699D01*
X53460Y55366D02*
Y54700D01*
X52460D01*
Y55366D01*
X52960Y54700D02*
Y55033D01*
X52460Y55700D02*
X53460D01*
X52460Y56366D01*
X53460D01*
X56000Y55366D02*
Y54700D01*
X55500D01*
Y55033D01*
Y54700D01*
X55000D01*
X56000Y55700D02*
X55000D01*
Y56200D01*
X55167Y56366D01*
X55333D01*
X55500Y56200D01*
Y55700D01*
Y56200D01*
X55667Y56366D01*
X55833D01*
X56000Y56200D01*
Y55700D01*
D30*
X95500Y66150D02*
Y67350D01*
X95100Y66950D01*
X94700Y67350D01*
Y66150D01*
X94300Y67150D02*
X94100Y67350D01*
X93701D01*
X93501Y67150D01*
Y66950D01*
X93701Y66750D01*
X93901D01*
X93701D01*
X93501Y66550D01*
Y66350D01*
X93701Y66150D01*
X94100D01*
X94300Y66350D01*
X10074Y11000D02*
X9874Y10800D01*
X9474D01*
X9275Y11000D01*
Y11800D01*
X9474Y12000D01*
X9874D01*
X10074Y11800D01*
Y11600D01*
X9874Y11400D01*
X9275D01*
X8875Y11000D02*
X8675Y10800D01*
X8275D01*
X8075Y11000D01*
Y11800D01*
X8275Y12000D01*
X8675D01*
X8875Y11800D01*
Y11600D01*
X8675Y11400D01*
X8075D01*
X7675Y10800D02*
Y11600D01*
X7475D01*
X7275Y11400D01*
Y10800D01*
Y11400D01*
X7075Y11600D01*
X6875Y11400D01*
Y10800D01*
X6475D02*
Y11600D01*
X6276D01*
X6076Y11400D01*
Y10800D01*
Y11400D01*
X5876Y11600D01*
X5676Y11400D01*
Y10800D01*
X10750Y16250D02*
Y15050D01*
X10150D01*
X9950Y15250D01*
Y15450D01*
X10150Y15650D01*
X10750D01*
X10150D01*
X9950Y15850D01*
Y16050D01*
X10150Y16250D01*
X10750D01*
X9350Y15050D02*
X8951D01*
X8751Y15250D01*
Y15650D01*
X8951Y15850D01*
X9350D01*
X9550Y15650D01*
Y15250D01*
X9350Y15050D01*
X8151Y15850D02*
X7751D01*
X7551Y15650D01*
Y15050D01*
X8151D01*
X8351Y15250D01*
X8151Y15450D01*
X7551D01*
X7151Y15850D02*
Y15050D01*
Y15450D01*
X6951Y15650D01*
X6751Y15850D01*
X6551D01*
X5152Y16250D02*
Y15050D01*
X5752D01*
X5952Y15250D01*
Y15650D01*
X5752Y15850D01*
X5152D01*
X10750Y14450D02*
Y13250D01*
X10150D01*
X9950Y13450D01*
Y14250D01*
X10150Y14450D01*
X10750D01*
X9550Y13250D02*
X9151D01*
X9350D01*
Y14050D01*
X9550D01*
X8551Y13250D02*
Y14050D01*
X8351D01*
X8151Y13850D01*
Y13250D01*
Y13850D01*
X7951Y14050D01*
X7751Y13850D01*
Y13250D01*
X13450Y12826D02*
Y13626D01*
X13250D01*
X12450Y12826D01*
X12250D01*
X12450Y14026D02*
X12250Y14226D01*
Y14625D01*
X12450Y14825D01*
X13250D01*
X13450Y14625D01*
Y14226D01*
X13250Y14026D01*
X13050D01*
X12850Y14226D01*
Y14825D01*
X12250Y15225D02*
X13050D01*
Y15425D01*
X12850Y15625D01*
X12250D01*
X12850D01*
X13050Y15825D01*
X12850Y16025D01*
X12250D01*
Y16425D02*
X13050D01*
Y16625D01*
X12850Y16825D01*
X12250D01*
X12850D01*
X13050Y17025D01*
X12850Y17225D01*
X12250D01*
X19719Y1301D02*
Y2500D01*
X19119D01*
X18919Y2300D01*
Y1900D01*
X19119Y1701D01*
X19719D01*
X17920Y2500D02*
X18320D01*
X18519Y2300D01*
Y1501D01*
X18320Y1301D01*
X17920D01*
X17720Y1501D01*
Y2300D01*
X17920Y2500D01*
X17320D02*
Y1301D01*
X16920Y1701D01*
X16520Y1301D01*
Y2500D01*
X15321D02*
X16120D01*
Y1301D01*
X15321D01*
X16120Y1900D02*
X15720D01*
X14921Y1301D02*
Y2500D01*
X14321D01*
X14121Y2300D01*
Y1900D01*
X14321Y1701D01*
X14921D01*
X14521D02*
X14121Y1301D01*
X33449Y3000D02*
Y1800D01*
X32849D01*
X32650Y2000D01*
Y2200D01*
X32849Y2400D01*
X33449D01*
X32849D01*
X32650Y2600D01*
Y2800D01*
X32849Y3000D01*
X33449D01*
X32250D02*
Y2000D01*
X32050Y1800D01*
X31650D01*
X31450Y2000D01*
Y3000D01*
X31050D02*
X30250D01*
Y2800D01*
X31050Y2000D01*
Y1800D01*
X30250D01*
X29850Y3000D02*
X29051D01*
Y2800D01*
X29850Y2000D01*
Y1800D01*
X29051D01*
X50658D02*
Y2600D01*
X50059D01*
X49859Y2400D01*
Y1800D01*
X49459D02*
Y3000D01*
X48859D01*
X48659Y2800D01*
Y2400D01*
X48859Y2200D01*
X49459D01*
X49059D02*
X48659Y1800D01*
X47459Y3000D02*
X48259D01*
Y2400D01*
X47859D01*
X48259D01*
Y1800D01*
X46260D02*
X47060D01*
X46260Y2600D01*
Y2800D01*
X46460Y3000D01*
X46860D01*
X47060Y2800D01*
X45260Y1800D02*
Y3000D01*
X45860Y2400D01*
X45060D01*
X44660Y3000D02*
Y1800D01*
X43861D01*
X43461Y2800D02*
X43261Y3000D01*
X42861D01*
X42661Y2800D01*
Y2000D01*
X42861Y1800D01*
X43261D01*
X43461Y2000D01*
Y2800D01*
X42261Y1800D02*
X41861D01*
X42061D01*
Y3000D01*
X42261Y2800D01*
X41261Y1800D02*
Y3000D01*
X40662D01*
X40462Y2800D01*
Y2400D01*
X40662Y2200D01*
X41261D01*
X86349Y2800D02*
X86549Y3000D01*
X86949D01*
X87149Y2800D01*
Y2600D01*
X86949Y2400D01*
X86549D01*
X86349Y2200D01*
Y2000D01*
X86549Y1800D01*
X86949D01*
X87149Y2000D01*
X85150Y3000D02*
X85949D01*
Y1800D01*
X85150D01*
X85949Y2400D02*
X85549D01*
X84750Y1800D02*
Y3000D01*
X83950Y1800D01*
Y3000D01*
X82750Y2800D02*
X82950Y3000D01*
X83350D01*
X83550Y2800D01*
Y2600D01*
X83350Y2400D01*
X82950D01*
X82750Y2200D01*
Y2000D01*
X82950Y1800D01*
X83350D01*
X83550Y2000D01*
X81751Y3000D02*
X82151D01*
X82350Y2800D01*
Y2000D01*
X82151Y1800D01*
X81751D01*
X81551Y2000D01*
Y2800D01*
X81751Y3000D01*
X81151Y1800D02*
Y3000D01*
X80551D01*
X80351Y2800D01*
Y2400D01*
X80551Y2200D01*
X81151D01*
X80751D02*
X80351Y1800D01*
X75999Y3000D02*
Y1800D01*
X75399D01*
X75199Y2000D01*
Y2200D01*
X75399Y2400D01*
X75999D01*
X75399D01*
X75199Y2600D01*
Y2800D01*
X75399Y3000D01*
X75999D01*
X74799Y1800D02*
Y2600D01*
X74399Y3000D01*
X73999Y2600D01*
Y1800D01*
Y2400D01*
X74799D01*
X73599Y3000D02*
X72800D01*
X73200D01*
Y1800D01*
X72400Y3000D02*
X71600D01*
X72000D01*
Y1800D01*
X71200D02*
Y3000D01*
X70800Y2600D01*
X70401Y3000D01*
Y1800D01*
X69401Y3000D02*
X69801D01*
X70001Y2800D01*
Y2000D01*
X69801Y1800D01*
X69401D01*
X69201Y2000D01*
Y2800D01*
X69401Y3000D01*
X68801Y1800D02*
Y3000D01*
X68001Y1800D01*
Y3000D01*
X61860Y1800D02*
Y3000D01*
X61260D01*
X61060Y2800D01*
Y2400D01*
X61260Y2200D01*
X61860D01*
X61460D02*
X61060Y1800D01*
X60660D02*
Y3000D01*
X60060D01*
X59860Y2800D01*
Y2400D01*
X60060Y2200D01*
X60660D01*
X59460Y3000D02*
X59060D01*
X59260D01*
Y1800D01*
X59460D01*
X59060D01*
X79369Y58025D02*
X79569Y58225D01*
X79969D01*
X80169Y58025D01*
Y57825D01*
X79969Y57625D01*
X79569D01*
X79369Y57425D01*
Y57225D01*
X79569Y57025D01*
X79969D01*
X80169Y57225D01*
X78170Y58225D02*
X78969D01*
Y57025D01*
X78170D01*
X78969Y57625D02*
X78569D01*
X77770Y57025D02*
Y58225D01*
X77170D01*
X76970Y58025D01*
Y57625D01*
X77170Y57425D01*
X77770D01*
X77370D02*
X76970Y57025D01*
X76570Y58225D02*
Y57425D01*
X76170Y57025D01*
X75770Y57425D01*
Y58225D01*
X74771D02*
X75171D01*
X75370Y58025D01*
Y57225D01*
X75171Y57025D01*
X74771D01*
X74571Y57225D01*
Y58025D01*
X74771Y58225D01*
X73371Y58025D02*
X73571Y58225D01*
X73971D01*
X74171Y58025D01*
Y57825D01*
X73971Y57625D01*
X73571D01*
X73371Y57425D01*
Y57225D01*
X73571Y57025D01*
X73971D01*
X74171Y57225D01*
X36089Y50050D02*
Y51250D01*
X35489D01*
X35289Y51050D01*
Y50650D01*
X35489Y50450D01*
X36089D01*
X34090Y51250D02*
X34889D01*
Y50050D01*
X34090D01*
X34889Y50650D02*
X34489D01*
X33690Y50050D02*
Y51250D01*
X33090D01*
X32890Y51050D01*
Y50650D01*
X33090Y50450D01*
X33690D01*
X33290D02*
X32890Y50050D01*
X32490Y51250D02*
X32090D01*
X32290D01*
Y50050D01*
X32490D01*
X32090D01*
X31490D02*
Y51250D01*
X30891D01*
X30691Y51050D01*
Y50650D01*
X30891Y50450D01*
X31490D01*
X30291Y51250D02*
Y50050D01*
Y50650D01*
X29491D01*
Y51250D01*
Y50050D01*
X46209Y51250D02*
X47009D01*
Y50050D01*
X46209D01*
X47009Y50650D02*
X46609D01*
X45010Y51050D02*
X45210Y51250D01*
X45610D01*
X45809Y51050D01*
Y50850D01*
X45610Y50650D01*
X45210D01*
X45010Y50450D01*
Y50250D01*
X45210Y50050D01*
X45610D01*
X45809Y50250D01*
X44610Y50050D02*
Y51250D01*
X44010D01*
X43810Y51050D01*
Y50650D01*
X44010Y50450D01*
X44610D01*
X43410Y51050D02*
X43210Y51250D01*
X42810D01*
X42611Y51050D01*
Y50850D01*
X42810Y50650D01*
X43010D01*
X42810D01*
X42611Y50450D01*
Y50250D01*
X42810Y50050D01*
X43210D01*
X43410Y50250D01*
X41411Y50050D02*
X42211D01*
X41411Y50850D01*
Y51050D01*
X41611Y51250D01*
X42011D01*
X42211Y51050D01*
X58299Y50050D02*
Y51250D01*
X57699D01*
X57499Y51050D01*
Y50650D01*
X57699Y50450D01*
X58299D01*
X57899D02*
X57499Y50050D01*
X56300Y51250D02*
X57099D01*
Y50050D01*
X56300D01*
X57099Y50650D02*
X56700D01*
X55900Y51250D02*
Y50050D01*
X55100D01*
X54700D02*
Y50850D01*
X54300Y51250D01*
X53901Y50850D01*
Y50050D01*
Y50650D01*
X54700D01*
X53501Y51250D02*
Y51050D01*
X53101Y50650D01*
X52701Y51050D01*
Y51250D01*
X53101Y50650D02*
Y50050D01*
%TF.MD5,bfa6fd58a7de00734e36816ef0dbfc27*%
M02*
