%TF.GenerationSoftware,Altium Limited,Altium Designer,25.2.1 (25)*%
G04 Layer_Physical_Order=4*
G04 Layer_Color=16711680*
%FSLAX43Y43*%
%MOMM*%
%TF.SameCoordinates,13C9EE94-67B1-431B-914D-B35A32CB9B67*%
%TF.FilePolarity,Positive*%
%TF.FileFunction,Copper,L4,Bot,Signal*%
%TF.Part,Single*%
G01*
G75*
%TA.AperFunction,NonConductor*%
%ADD10C,0.203*%
%ADD14C,0.300*%
%TA.AperFunction,Conductor*%
%ADD16C,0.200*%
%TA.AperFunction,ComponentPad*%
%ADD18C,6.000*%
%ADD19C,1.500*%
%ADD20C,1.725*%
%ADD21C,1.524*%
%ADD22C,2.000*%
%ADD23C,2.500*%
%TA.AperFunction,ViaPad*%
%ADD24C,0.700*%
D10*
X98498Y74500D02*
G03*
X94505Y78498I-3998J0D01*
G01*
X94500Y502D02*
G03*
X98498Y4500I0J3998D01*
G01*
X4496Y78498D02*
G03*
X502Y74500I5J-3998D01*
G01*
Y4500D02*
G03*
X4500Y502I3998J0D01*
G01*
X95144Y77902D02*
X95589Y78347D01*
X94866Y78482D02*
X95446Y77902D01*
X95777Y78289D02*
X96164Y77902D01*
X94130Y78498D02*
X94727Y77902D01*
X94425D02*
X94992Y78468D01*
X96164Y77902D02*
X97902Y76164D01*
X95862Y77902D02*
X96117Y78157D01*
X96391Y77712D02*
X96589Y77910D01*
X93412Y78498D02*
X94009Y77902D01*
X92799D02*
X96201D01*
X92694Y78498D02*
X93290Y77902D01*
X92988D02*
X93585Y78498D01*
X93707Y77902D02*
X94304Y78498D01*
X91098Y76012D02*
X92988Y77902D01*
X91975Y78498D02*
X92686Y77788D01*
X91098Y76201D02*
X92799Y77902D01*
X97902Y75446D02*
X98482Y74866D01*
X97902Y74194D02*
X98489Y74781D01*
X97902Y75631D02*
X98225Y75954D01*
X97902Y74912D02*
X98395Y75405D01*
X97902Y74009D02*
X98498Y73412D01*
X97902Y73290D02*
X98498Y72694D01*
X97902Y74727D02*
X98498Y74130D01*
X97902Y73475D02*
X98498Y74072D01*
X97468Y76634D02*
X97713Y76879D01*
X97828Y76275D02*
X97995Y76442D01*
X96750Y77353D02*
X97010Y77613D01*
X97109Y76993D02*
X97385Y77269D01*
X97902Y76164D02*
X98289Y75777D01*
X97788Y72686D02*
X98498Y71975D01*
X96201Y77902D02*
X97902Y76201D01*
Y72799D02*
Y76201D01*
X90538Y78498D02*
X91967Y77070D01*
X89820Y78498D02*
X91608Y76710D01*
X91257Y78498D02*
X92326Y77429D01*
X88383Y78498D02*
X91098Y75783D01*
X89102Y78498D02*
X91249Y76351D01*
X86228Y78498D02*
X91098Y73628D01*
X85509Y78498D02*
X91098Y72909D01*
X87665Y78498D02*
X91098Y75065D01*
X86946Y78498D02*
X91098Y74346D01*
X82431Y75247D02*
X85683Y78498D01*
X82732Y74829D02*
X86401Y78498D01*
X81269Y75522D02*
X84246Y78498D01*
X81987Y75522D02*
X84964Y78498D01*
X82598Y72540D02*
X88556Y78498D01*
X82732Y71955D02*
X89275Y78498D01*
X82732Y74111D02*
X87119Y78498D01*
X82238Y72899D02*
X87838Y78498D01*
X82732Y73794D02*
Y74946D01*
X82156Y73218D02*
X82732Y73794D01*
X82156Y75522D02*
X82732Y74946D01*
X81004Y72982D02*
X82156D01*
X91098Y72799D02*
Y76201D01*
X82156Y72982D02*
X82732Y72406D01*
X81450Y73218D02*
X81687Y72982D01*
X81603D02*
X81839Y73218D01*
X80428Y74946D02*
X81004Y75522D01*
X82156D01*
X80192Y73794D02*
Y74946D01*
X80428Y73794D02*
Y74946D01*
X80192Y72289D02*
X81121Y73218D01*
X81004D02*
X82156D01*
X80428Y73794D02*
X81004Y73218D01*
X80428Y72406D02*
X81004Y72982D01*
X84791Y78498D02*
X98498Y64791D01*
X84073Y78498D02*
X98498Y64073D01*
X89574Y64429D02*
X98498Y73354D01*
X97429Y72326D02*
X98498Y71257D01*
X97070Y71967D02*
X98498Y70538D01*
X83354Y78498D02*
X98498Y63354D01*
X82732Y71937D02*
X98498Y56170D01*
X89933Y64070D02*
X98498Y72635D01*
X90292Y63710D02*
X98498Y71917D01*
X81199Y78498D02*
X98498Y61199D01*
X80480Y78498D02*
X98498Y60480D01*
X82636Y78498D02*
X98498Y62636D01*
X81917Y78498D02*
X98498Y61917D01*
X82521Y73584D02*
X98498Y57607D01*
X82162Y73225D02*
X98498Y56888D01*
X82732Y74810D02*
X98498Y59044D01*
X82732Y74092D02*
X98498Y58325D01*
X95783Y71098D02*
X98498Y68383D01*
X95065Y71098D02*
X98498Y67665D01*
X96710Y71608D02*
X98498Y69820D01*
X96351Y71249D02*
X98498Y69102D01*
X92909Y71098D02*
X98498Y65509D01*
X90502Y57454D02*
X98498Y65451D01*
X94346Y71098D02*
X98498Y66946D01*
X93628Y71098D02*
X98498Y66228D01*
X90502Y61765D02*
X98498Y69762D01*
X90502Y61046D02*
X98498Y69043D01*
X90502Y63202D02*
X98498Y71198D01*
X90502Y62483D02*
X98498Y70480D01*
X90502Y58891D02*
X98498Y66888D01*
X90502Y58173D02*
X98498Y66169D01*
X90502Y60328D02*
X98498Y68325D01*
X90502Y59609D02*
X98498Y67606D01*
X91098Y72909D02*
X92909Y71098D01*
X96201D02*
X97902Y72799D01*
X82962Y65002D02*
X91098Y73138D01*
Y72799D02*
X92799Y71098D01*
X85117Y65002D02*
X92007Y71891D01*
X85836Y65002D02*
X92366Y71532D01*
X83681Y65002D02*
X91288Y72609D01*
X84399Y65002D02*
X91647Y72250D01*
X80428Y71254D02*
Y72406D01*
X80192Y71603D02*
X80428Y71366D01*
X80192Y71254D02*
Y72406D01*
Y71571D02*
X80428Y71807D01*
X81525Y65002D02*
X91098Y74575D01*
X82244Y65002D02*
X91098Y73856D01*
X80807Y65002D02*
X91098Y75293D01*
X82732Y71254D02*
Y72406D01*
X87991Y65002D02*
X94088Y71098D01*
X92799D02*
X96201D01*
X87273Y65002D02*
X93369Y71098D01*
X88499Y65002D02*
X89001D01*
X88710D02*
X94806Y71098D01*
X89214Y64788D02*
X95525Y71098D01*
X88499Y65002D02*
X89001D01*
X89252Y64751D01*
X82156Y70678D02*
X82732Y71254D01*
X81116Y70678D02*
X86793Y65002D01*
X80428Y71254D02*
X81004Y70678D01*
X82156D01*
X82714Y71236D02*
X88948Y65002D01*
X86554D02*
X92725Y71172D01*
X82354Y70877D02*
X88230Y65002D01*
X81835Y70678D02*
X87511Y65002D01*
X79114Y75522D02*
X82091Y78498D01*
X79044D02*
X82020Y75522D01*
X79724Y75413D02*
X82809Y78498D01*
X77607D02*
X80794Y75311D01*
X78325Y78498D02*
X81302Y75522D01*
X77652Y74778D02*
X81372Y78498D01*
X80083Y75054D02*
X83527Y78498D01*
X77376Y75221D02*
X80654Y78498D01*
X77888Y74946D02*
X78464Y75522D01*
X76240D02*
X79217Y78498D01*
X76958Y75522D02*
X79935Y78498D01*
X75451D02*
X78446Y75504D01*
X76170Y78498D02*
X79147Y75522D01*
X75029Y75029D02*
X78498Y78498D01*
X76888D02*
X80435Y74952D01*
X74733Y78498D02*
X78087Y75144D01*
X75029Y75029D02*
X78498Y78498D01*
X80192Y74444D02*
X80428Y74681D01*
X80192Y74477D02*
X80428Y74240D01*
X79616Y75522D02*
X80192Y74946D01*
X79616Y73218D02*
X80192Y73794D01*
X80174Y73776D02*
X80986Y72964D01*
X79891Y72707D02*
X80703Y73519D01*
X79447Y72982D02*
X80428Y73963D01*
X79295Y73218D02*
X79531Y72982D01*
X78464Y73218D02*
X79616D01*
X78464Y72982D02*
X79616D01*
X78464Y75522D02*
X79616D01*
X77888Y73794D02*
X78464Y73218D01*
X78576D02*
X78813Y72982D01*
X78729D02*
X78966Y73218D01*
X77184Y72873D02*
X77997Y73686D01*
X77467Y73609D02*
X78279Y72797D01*
X74669Y75388D02*
X77780Y78498D01*
X77076Y75522D02*
X77652Y74946D01*
X75348D02*
X75924Y75522D01*
X77076D01*
X76991D02*
X77652Y74861D01*
Y73794D02*
Y74946D01*
X75112Y73794D02*
Y74946D01*
X75348Y73794D02*
Y74946D01*
X74015Y78498D02*
X76991Y75522D01*
X74085D02*
X77062Y78498D01*
X72578D02*
X75739Y75337D01*
X73296Y78498D02*
X76273Y75522D01*
X72287Y75161D02*
X75625Y78498D01*
X72526Y74681D02*
X76343Y78498D01*
X71859D02*
X75380Y74978D01*
X74536Y75522D02*
X75112Y74946D01*
X77888Y73794D02*
Y74946D01*
X77652Y74143D02*
X77888Y73906D01*
X77652Y74861D02*
X77888Y74625D01*
X77652Y74059D02*
X77888Y74296D01*
X77076Y73218D02*
X77652Y73794D01*
X75924Y72982D02*
X77076D01*
X76421Y73218D02*
X76658Y72982D01*
X76574D02*
X76811Y73218D01*
X75112Y74528D02*
X75348Y74291D01*
Y73794D02*
X75924Y73218D01*
X75112Y74393D02*
X75348Y74630D01*
X74536Y73218D02*
X75112Y73794D01*
Y73809D02*
X75939Y72982D01*
X75924Y73218D02*
X77076D01*
X74418Y72982D02*
X75348Y73912D01*
X74836Y72681D02*
X75649Y73494D01*
X80192Y72321D02*
X80428Y72085D01*
X79814Y73417D02*
X80627Y72604D01*
X79616Y70678D02*
X80192Y71254D01*
X79616Y72982D02*
X80192Y72406D01*
X79531Y72982D02*
X80192Y72321D01*
X79370Y65002D02*
X92867Y78498D01*
X79762D02*
X98498Y59762D01*
X78652Y65002D02*
X92148Y78498D01*
X80088Y65002D02*
X91098Y76012D01*
X77888Y71254D02*
X78464Y70678D01*
X74341Y65002D02*
X80511Y71172D01*
X77543Y72514D02*
X78356Y73327D01*
X77888Y72406D02*
X78464Y72982D01*
X77215Y65002D02*
X90712Y78498D01*
X77933Y65002D02*
X91430Y78498D01*
X76496Y65002D02*
X89993Y78498D01*
X77652Y71269D02*
X83919Y65002D01*
X76806Y70678D02*
X82482Y65002D01*
X76094Y70672D02*
X81764Y65002D01*
X78464Y70678D02*
X79616D01*
X75778Y65002D02*
X81455Y70678D01*
X80007Y71069D02*
X86075Y65002D01*
X79648Y70710D02*
X85356Y65002D01*
X77300Y70903D02*
X83201Y65002D01*
X78961Y70678D02*
X84638Y65002D01*
X73623D02*
X79299Y70678D01*
X74144Y69748D02*
X78890Y65002D01*
X72904D02*
X78581Y70678D01*
X73425Y69748D02*
X78172Y65002D01*
X75060D02*
X80870Y70812D01*
X75735Y70312D02*
X81046Y65002D01*
X75376Y69953D02*
X80327Y65002D01*
X74862Y69748D02*
X79609Y65002D01*
X77108Y73250D02*
X77920Y72438D01*
X77652Y71904D02*
X77888Y72141D01*
X75348Y72406D02*
X75924Y72982D01*
X77076D02*
X77652Y72406D01*
X77888Y71254D02*
Y72406D01*
X77652Y71988D02*
X77888Y71751D01*
X75348Y71431D02*
Y72406D01*
X77652Y71254D02*
Y72406D01*
X74760Y73443D02*
X75573Y72630D01*
X75112Y72238D02*
X76092Y73218D01*
X74536Y72982D02*
X75112Y72406D01*
X74503Y72982D02*
X75112Y72372D01*
X75348Y72136D01*
X75112Y71519D02*
X75348Y71756D01*
X75112Y71254D02*
Y72406D01*
Y71654D02*
X75342Y71424D01*
X77076Y70678D02*
X77652Y71254D01*
X76101Y70678D02*
X77076D01*
X74669Y70752D02*
X75348Y71431D01*
X75422Y69999D02*
X76101Y70678D01*
X75171Y69748D02*
X75422Y69999D01*
X75171Y69748D02*
X75422Y69999D01*
X74669Y69748D02*
X75171D01*
X74669D02*
X75171D01*
X70749Y65002D02*
X76426Y70678D01*
X71270Y69748D02*
X76017Y65002D01*
X74609Y70752D02*
X75112Y71254D01*
X70551Y69748D02*
X75298Y65002D01*
X71467D02*
X77888Y71423D01*
X72186Y65002D02*
X78163Y70979D01*
X71988Y69748D02*
X76735Y65002D01*
X72707Y69748D02*
X77454Y65002D01*
X90251Y63752D02*
X90502Y63501D01*
X90251Y63752D02*
X90502Y63501D01*
Y62999D02*
Y63501D01*
X89001Y65002D02*
X89252Y64751D01*
X90251Y63752D01*
X90502Y56736D02*
X98498Y64733D01*
X90502Y56017D02*
X98498Y64014D01*
X90502Y62999D02*
Y63501D01*
X87499Y63248D02*
X88248Y62499D01*
X87109Y63248D02*
X88248Y62109D01*
X86391Y63248D02*
X88248Y61391D01*
X84708Y61718D02*
X86238Y63248D01*
X85426Y61718D02*
X86956Y63248D01*
X84954D02*
X88248Y59954D01*
X84236Y63248D02*
X88248Y59236D01*
X85673Y63248D02*
X88248Y60673D01*
X85792Y61365D02*
X87587Y63161D01*
X88248Y57501D02*
Y62499D01*
X86048Y59999D02*
X88248Y57799D01*
X86048Y60185D02*
X88248Y62385D01*
X86048Y60718D02*
X88248Y58517D01*
X90502Y56251D02*
Y62999D01*
X87749Y57002D02*
X88248Y57501D01*
X86457Y57002D02*
X88248Y58793D01*
X87175Y57002D02*
X88248Y58075D01*
X83583Y57002D02*
X88248Y61667D01*
X84302Y57002D02*
X88248Y60948D01*
X86048Y60903D02*
X87946Y62801D01*
X85743Y59586D02*
X88038Y57291D01*
X85020Y57002D02*
X88248Y60230D01*
X85738Y57002D02*
X88248Y59512D01*
X84610Y59282D02*
X86890Y57002D01*
X85329Y59282D02*
X87609Y57002D01*
X84221Y61718D02*
X85439D01*
X83517Y63248D02*
X85048Y61718D01*
X85439D02*
X86048Y61109D01*
X83612D02*
X84221Y61718D01*
X86048Y59891D02*
Y61109D01*
X83554Y59868D02*
Y61132D01*
X83612Y59891D02*
Y61109D01*
X82799Y63248D02*
X84329Y61718D01*
X83119Y61567D02*
X84801Y63248D01*
X81880Y61764D02*
X83364Y63248D01*
X82598Y61764D02*
X84083Y63248D01*
X82080D02*
X83916Y61413D01*
X83479Y61208D02*
X85519Y63248D01*
X82922Y61764D02*
X83554Y61132D01*
X82846Y61764D02*
X83554Y61056D01*
Y60338D02*
X83612Y60280D01*
X83554Y61056D02*
X83612Y60999D01*
X83554Y60565D02*
X83612Y60622D01*
X85439Y59282D02*
X86048Y59891D01*
X83612D02*
X84221Y59282D01*
X85439D01*
X82146Y57002D02*
X84427Y59282D01*
X82501Y59236D02*
X84735Y57002D01*
X82922Y59236D02*
X83554Y59868D01*
X81782Y59236D02*
X84017Y57002D01*
X83430Y59744D02*
X86172Y57002D01*
X83071Y59384D02*
X85454Y57002D01*
X82865D02*
X85145Y59282D01*
X82938Y55998D02*
X84182D01*
X90502Y61293D02*
X98498Y53296D01*
X90502Y62011D02*
X98498Y54015D01*
X90502Y60575D02*
X98498Y52578D01*
X90502Y63448D02*
X98498Y55451D01*
X90502Y62730D02*
X98498Y54733D01*
X90502Y58419D02*
X98498Y50423D01*
X90502Y57701D02*
X98498Y49704D01*
X90502Y59856D02*
X98498Y51859D01*
X90502Y59138D02*
X98498Y51141D01*
X87935Y48422D02*
X98498Y58985D01*
X88653Y48422D02*
X98498Y58267D01*
X83624Y48422D02*
X98498Y63296D01*
X85780Y48422D02*
X98498Y61140D01*
X84099Y48178D02*
X98498Y62577D01*
X86806Y48011D02*
X98498Y59704D01*
X86447Y48371D02*
X98498Y60422D01*
X89154Y48204D02*
X98498Y57548D01*
X92964Y48422D02*
X98498Y53956D01*
X93682Y48422D02*
X98498Y53238D01*
X90808Y48422D02*
X98498Y56112D01*
X92864Y48422D02*
X94016D01*
X91861Y48037D02*
X98498Y54675D01*
X94567Y47870D02*
X98498Y51801D01*
X91501Y48396D02*
X98498Y55393D01*
X94208Y48229D02*
X98498Y52519D01*
X90502Y56982D02*
X98498Y48986D01*
X87488Y54248D02*
X93315Y48422D01*
X90251Y55498D02*
X90502Y55749D01*
X85779Y53803D02*
X91160Y48422D01*
X90502Y56264D02*
X98498Y48267D01*
X86770Y54248D02*
X92730Y48288D01*
X86094Y54206D02*
X92371Y47929D01*
X90324Y48422D02*
X91476D01*
X90502Y55749D02*
Y56251D01*
X90251Y55498D02*
X90502Y55749D01*
Y56251D01*
X89252Y54499D02*
X90251Y55498D01*
X89001Y54248D02*
X89252Y54499D01*
X89001Y54248D02*
X89252Y54499D01*
X86094Y54118D02*
Y54248D01*
X88499D01*
X83583Y55998D02*
X83883Y55699D01*
X83477Y55459D02*
X84017Y55998D01*
X83118Y55818D02*
X83298Y55998D01*
X82938D02*
X83554Y55382D01*
X83566D02*
X84182Y55998D01*
X81752Y47986D02*
X88014Y54248D01*
X83554Y54118D02*
Y55382D01*
X83566Y54118D02*
Y55382D01*
X88499Y54248D02*
X89001D01*
X88499D02*
X89001D01*
X85462Y53486D02*
X86094Y54118D01*
X84198Y53486D02*
X85462D01*
X84659D02*
X90024Y48121D01*
X85377Y53486D02*
X90441Y48422D01*
X85244D02*
X86396D01*
X87784D02*
X88936D01*
X83566Y54118D02*
X84198Y53486D01*
X82704Y48422D02*
X83856D01*
X82922Y53486D02*
X83554Y54118D01*
X81658Y53486D02*
X82922D01*
X82906Y48422D02*
X88733Y54248D01*
X83072Y53636D02*
X88286Y48422D01*
X81785Y53486D02*
X87317Y47954D01*
X82503Y53486D02*
X87676Y48313D01*
X81362Y63248D02*
X82846Y61764D01*
X80644Y63248D02*
X82128Y61764D01*
X81658D02*
X82922D01*
X79725D02*
X81209Y63248D01*
X80413Y61734D02*
X81927Y63248D01*
X80772Y61374D02*
X82646Y63248D01*
X81026Y61132D02*
X81658Y61764D01*
X79925Y63248D02*
X81534Y61640D01*
X80382Y61764D02*
X81014Y61132D01*
X79122Y61880D02*
X80491Y63248D01*
X77754D02*
X87499D01*
X78763Y62239D02*
X79772Y63248D01*
X78488D02*
X79973Y61764D01*
X79207Y63248D02*
X81174Y61281D01*
X75646Y62498D02*
X81143Y57002D01*
X74928Y62498D02*
X80425Y57002D01*
X79238Y61764D02*
X80382D01*
X81026Y59868D02*
Y61132D01*
Y59868D02*
X81658Y59236D01*
X81014Y59868D02*
Y61132D01*
X80382Y59236D02*
X81014Y59868D01*
X80710Y57002D02*
X83612Y59904D01*
X81428Y57002D02*
X83965Y59538D01*
X80723Y59577D02*
X83298Y57002D01*
X81658Y59236D02*
X82922D01*
X78554Y57002D02*
X81223Y59671D01*
X75791Y57002D02*
X87749D01*
X77836D02*
X80070Y59236D01*
X79118D02*
X80382D01*
X79991Y57002D02*
X82225Y59236D01*
X80346D02*
X82580Y57002D01*
X79273D02*
X81582Y59311D01*
X79627Y59236D02*
X81861Y57002D01*
X77754Y63248D02*
X79238Y61764D01*
X77770Y63248D02*
X79254Y61764D01*
X78045Y62958D02*
X78335Y63248D01*
X78404Y62599D02*
X79054Y63248D01*
X78486Y59868D02*
Y61012D01*
X75008Y60981D02*
X78988Y57002D01*
X76999Y62498D02*
X78486Y61012D01*
X76365Y62498D02*
X78486Y60377D01*
X75008Y60640D02*
X76867Y62498D01*
X67464D02*
X76999D01*
X74524Y61593D02*
X75430Y62498D01*
X74884Y61234D02*
X76148Y62498D01*
X74209D02*
X79706Y57002D01*
X73256Y56014D02*
X78370Y61128D01*
X75008Y59921D02*
X77292Y62205D01*
X71819Y56014D02*
X77651Y61846D01*
X78486Y59868D02*
X79118Y59236D01*
X75681Y57002D02*
X78516Y59837D01*
X75289Y57002D02*
X75791D01*
X75289D02*
X75791D01*
X76399D02*
X78876Y59478D01*
X77117Y57002D02*
X79352Y59236D01*
X75038Y56751D02*
X75289Y57002D01*
X75038Y56751D02*
X75289Y57002D01*
X72514Y59883D02*
X75396Y57002D01*
X73834Y59282D02*
X76114Y57002D01*
X74369Y59282D02*
X75008Y59921D01*
X74399Y59282D02*
X75008Y59891D01*
Y60263D02*
X78269Y57002D01*
X74835Y59718D02*
X77551Y57002D01*
X74476Y59358D02*
X76832Y57002D01*
X74302Y56014D02*
X75038Y56751D01*
X81428Y55998D02*
X81535Y55891D01*
X80736Y55591D02*
X81143Y55998D01*
X81026Y55382D02*
X81642Y55998D01*
X80968Y55105D02*
X81026Y55163D01*
X80968Y55021D02*
X81026Y54963D01*
Y54118D02*
Y55382D01*
X80968Y54303D02*
X81026Y54245D01*
X80968Y54141D02*
Y55359D01*
Y54387D02*
X81026Y54444D01*
X80709Y55998D02*
X81176Y55532D01*
X75791Y55998D02*
X81642D01*
X80359Y55968D02*
X80968Y55359D01*
X75736Y55943D02*
X83257Y48422D01*
X75376Y55584D02*
X82622Y48339D01*
X75054Y55188D02*
X82262Y47980D01*
X75054Y54469D02*
X81102Y48422D01*
X81026Y54118D02*
X81658Y53486D01*
X80164Y48422D02*
X81316D01*
X80359Y53532D02*
X80968Y54141D01*
X80751Y48422D02*
X86577Y54248D01*
X81392Y48345D02*
X87296Y54248D01*
X80690Y53863D02*
X86131Y48422D01*
X80302Y53532D02*
X85412Y48422D01*
X77877D02*
X83570Y54114D01*
X78595Y48422D02*
X83929Y53755D01*
X74871Y53935D02*
X80384Y48422D01*
X75722D02*
X81222Y53922D01*
X79584Y53532D02*
X84969Y48147D01*
X79045Y48153D02*
X84378Y53486D01*
X76338Y48319D02*
X81581Y53563D01*
X76697Y47960D02*
X82223Y53486D01*
X79141Y55968D02*
X80359D01*
X78554Y55998D02*
X78863Y55690D01*
X78532Y55359D02*
X79141Y55968D01*
X77117Y55998D02*
X78532Y54584D01*
Y54141D02*
Y55359D01*
X77836Y55998D02*
X78532Y55302D01*
X75054Y54118D02*
Y55262D01*
X72210Y55686D02*
X78011Y61487D01*
X73975Y56014D02*
X78486Y60525D01*
X75054Y55262D02*
X75791Y55998D01*
X75054Y54938D02*
X76114Y55998D01*
X71283Y48294D02*
X78988Y55998D01*
X71643Y47935D02*
X78532Y54824D01*
X75054Y54220D02*
X76833Y55998D01*
X70693Y48422D02*
X78269Y55998D01*
X79141Y53532D02*
X80359D01*
X74320Y53486D02*
X75054Y54220D01*
X78532Y54141D02*
X79141Y53532D01*
X74511Y53575D02*
X79915Y48172D01*
X77624Y48422D02*
X78776D01*
X74422Y53486D02*
X75054Y54118D01*
X75084Y48422D02*
X76236D01*
X72848D02*
X78550Y54123D01*
X73164Y53486D02*
X78228Y48422D01*
X69782Y53995D02*
X75355Y48422D01*
X71009Y53486D02*
X76073Y48422D01*
X73566D02*
X78909Y53764D01*
X73990Y48127D02*
X79395Y53532D01*
X72164Y53768D02*
X77567Y48364D01*
X71727Y53486D02*
X77208Y48005D01*
X73384Y75522D02*
X74536D01*
X72808Y74946D02*
X73384Y75522D01*
X72526Y74240D02*
X72808Y73957D01*
X71973Y75476D02*
X72526Y74923D01*
Y73962D02*
X72808Y74245D01*
Y73794D02*
Y74946D01*
Y73794D02*
X73384Y73218D01*
X72210Y73502D02*
X72526Y73817D01*
X72378Y73669D02*
X72546Y73502D01*
X71165Y75476D02*
X74188Y78498D01*
X71883Y75476D02*
X74906Y78498D01*
X70423D02*
X73399Y75522D01*
X71141Y78498D02*
X74118Y75522D01*
X69704Y78498D02*
X73033Y75170D01*
X68473Y73502D02*
X73469Y78498D01*
X67754Y73502D02*
X72751Y78498D01*
X68986D02*
X72808Y74676D01*
X73292Y73251D02*
X73561Y72982D01*
X73384Y73218D02*
X74536D01*
X73041Y73502D02*
X73292Y73251D01*
X73041Y73502D02*
X73292Y73251D01*
X74266Y73218D02*
X74503Y72982D01*
X73561D02*
X74536D01*
X73547Y73218D02*
X73784Y72982D01*
X73700D02*
X73937Y73218D01*
X72539Y73502D02*
X73041D01*
X72539D02*
X73041D01*
X72783D02*
X72942Y73661D01*
X72210Y73502D02*
X72539D01*
Y72498D02*
X72808Y72229D01*
X72526Y71807D02*
X72808Y72090D01*
X72410Y72498D02*
X72526Y72383D01*
X72410Y72498D02*
X72539D01*
X66830Y78498D02*
X70360Y74969D01*
X66112Y78498D02*
X70314Y74296D01*
X67549Y78498D02*
X70719Y75328D01*
X63957Y78498D02*
X68954Y73502D01*
X64162D02*
X69159Y78498D01*
X65394D02*
X70390Y73502D01*
X65599D02*
X70596Y78498D01*
X64675D02*
X69672Y73502D01*
X64881D02*
X69877Y78498D01*
X61801D02*
X66798Y73502D01*
X62007D02*
X67004Y78498D01*
X61083D02*
X66080Y73502D01*
X61288D02*
X66285Y78498D01*
X63238D02*
X68235Y73502D01*
X63444D02*
X68440Y78498D01*
X62520D02*
X67517Y73502D01*
X62725D02*
X67722Y78498D01*
X72526Y73817D02*
Y74923D01*
X70867Y75476D02*
X71973D01*
X70314Y73817D02*
X70630Y73502D01*
X70314Y72383D02*
X70430Y72498D01*
X68267Y78498D02*
X71290Y75476D01*
X66317Y73502D02*
X71314Y78498D01*
X70314Y74923D02*
X70867Y75476D01*
X70314Y73817D02*
Y74923D01*
X67036Y73502D02*
X72033Y78498D01*
X69957Y72498D02*
X70314Y72141D01*
X69191Y73502D02*
X70314Y74625D01*
X69909Y73502D02*
X70314Y73907D01*
X72808Y71254D02*
Y72229D01*
X72526Y72085D02*
X72808Y71802D01*
X72000Y70752D02*
X72526Y71277D01*
Y72383D01*
Y71366D02*
X73140Y70752D01*
X72808Y71254D02*
X73311Y70752D01*
X72188D02*
X72808Y71372D01*
X72211Y70963D02*
X72422Y70752D01*
X70314Y71277D02*
Y72383D01*
X68520Y72498D02*
X70267Y70752D01*
X69238Y72498D02*
X70314Y71422D01*
Y71277D02*
X70840Y70752D01*
X70033D02*
X70437Y71155D01*
X68596Y70752D02*
X70343Y72498D01*
X69315Y70752D02*
X70314Y71751D01*
X72907Y70752D02*
X73109Y70954D01*
X72000Y70752D02*
X73311D01*
X67678Y69748D02*
X72425Y65002D01*
X67875D02*
X72622Y69748D01*
X69115D02*
X73861Y65002D01*
X69312D02*
X74059Y69748D01*
X68396D02*
X73143Y65002D01*
X68594D02*
X73341Y69748D01*
X65523D02*
X70269Y65002D01*
X65720D02*
X70467Y69748D01*
X65002Y65002D02*
X69748Y69748D01*
X65002Y65002D02*
X69748Y69748D01*
X66959D02*
X71706Y65002D01*
X67157D02*
X71904Y69748D01*
X66241D02*
X70988Y65002D01*
X66438D02*
X71185Y69748D01*
X64286Y70752D02*
X66033Y72498D01*
X64928D02*
X66675Y70752D01*
X63567D02*
X65314Y72498D01*
X64209D02*
X65956Y70752D01*
X65723D02*
X67469Y72498D01*
X66365D02*
X68111Y70752D01*
X65004D02*
X66751Y72498D01*
X65646D02*
X67393Y70752D01*
X61412D02*
X63159Y72498D01*
X62054D02*
X63801Y70752D01*
X60694D02*
X62440Y72498D01*
X61336D02*
X63083Y70752D01*
X62849D02*
X64596Y72498D01*
X63491D02*
X65238Y70752D01*
X62131D02*
X63877Y72498D01*
X62773D02*
X64519Y70752D01*
X67159D02*
X68906Y72498D01*
X67801D02*
X69548Y70752D01*
X66441D02*
X68188Y72498D01*
X67083D02*
X68830Y70752D01*
X67878D02*
X69625Y72498D01*
X64804Y69748D02*
X69551Y65002D01*
X64086Y69748D02*
X68832Y65002D01*
X64283D02*
X69030Y69748D01*
X61409Y65002D02*
X66156Y69748D01*
X61930D02*
X66677Y65002D01*
X60691D02*
X65438Y69748D01*
X61212D02*
X65959Y65002D01*
X63367Y69748D02*
X68114Y65002D01*
X63565D02*
X68312Y69748D01*
X62128Y65002D02*
X66875Y69748D01*
X62846Y65002D02*
X67593Y69748D01*
X57491Y78498D02*
X62488Y73502D01*
X53899Y78498D02*
X58896Y73502D01*
X57696D02*
X62693Y78498D01*
X54687Y75522D02*
X57664Y78498D01*
X55281Y75397D02*
X58383Y78498D01*
X58928D02*
X63925Y73502D01*
X59133D02*
X64130Y78498D01*
X58209D02*
X63206Y73502D01*
X58415D02*
X63412Y78498D01*
X52532Y75522D02*
X55509Y78498D01*
X52933Y75204D02*
X56227Y78498D01*
X51744D02*
X54720Y75522D01*
X51814D02*
X54791Y78498D01*
X52462D02*
X57459Y73502D01*
X53180Y78498D02*
X58177Y73502D01*
X50586Y75012D02*
X54072Y78498D01*
X53192Y74744D02*
X56946Y78498D01*
X55732Y74411D02*
X59819Y78498D01*
X55732Y74510D02*
X56740Y73502D01*
X55732Y73794D02*
Y74946D01*
X55730Y73793D02*
X56022Y73502D01*
X56773Y78498D02*
X61769Y73502D01*
X56978D02*
X61975Y78498D01*
X56054D02*
X61051Y73502D01*
X56259D02*
X61256Y78498D01*
X55640Y75037D02*
X59101Y78498D01*
X54617D02*
X59614Y73502D01*
X54004Y75522D02*
X55156D01*
X55732Y74946D01*
X55541Y73502D02*
X60538Y78498D01*
X55439Y73502D02*
X70630D01*
X55336Y78498D02*
X60333Y73502D01*
X55439D02*
X55732Y73794D01*
X51025Y78498D02*
X54003Y75520D01*
X52616Y75522D02*
X53192Y74946D01*
X50888D02*
X51464Y75522D01*
X52616D01*
X53428Y74946D02*
X54004Y75522D01*
X53192Y73794D02*
Y74946D01*
X52565Y75522D02*
X53192Y74895D01*
X50888Y73794D02*
Y74946D01*
X49588Y78498D02*
X52565Y75522D01*
X49658D02*
X52635Y78498D01*
X48940Y75522D02*
X51917Y78498D01*
X48924Y75522D02*
X50076D01*
X50226Y75371D02*
X53354Y78498D01*
X50307D02*
X53644Y75161D01*
X50076Y75522D02*
X50652Y74946D01*
Y73794D02*
Y74946D01*
X53428Y73794D02*
Y74946D01*
X53192Y74177D02*
X53428Y73940D01*
X53192Y74895D02*
X53428Y74658D01*
X53192Y74026D02*
X53428Y74263D01*
Y73794D02*
X53721Y73502D01*
X52899D02*
X53721D01*
X53386D02*
X53553Y73669D01*
X53024Y73626D02*
X53148Y73502D01*
X50652Y74561D02*
X50888Y74325D01*
X50359Y73502D02*
X51181D01*
X50652Y74359D02*
X50888Y74596D01*
X50359Y73502D02*
X50652Y73794D01*
X50888D02*
X51181Y73502D01*
X52899D02*
X53192Y73794D01*
X50512Y73502D02*
X50888Y73878D01*
X50652Y73843D02*
X50993Y73502D01*
X60365Y78498D02*
X65361Y73502D01*
X59852D02*
X64848Y78498D01*
X60570Y73502D02*
X65567Y78498D01*
X59646D02*
X64643Y73502D01*
X59180Y72498D02*
X60927Y70752D01*
X59975D02*
X61722Y72498D01*
X60617D02*
X62364Y70752D01*
X59257D02*
X61004Y72498D01*
X59899D02*
X61646Y70752D01*
X55639Y72498D02*
X70430D01*
X55229Y70752D02*
X70840D01*
X57744Y72498D02*
X59490Y70752D01*
X57820D02*
X59567Y72498D01*
X58538Y70752D02*
X60285Y72498D01*
X56901Y69748D02*
X61648Y65002D01*
X58462Y72498D02*
X60209Y70752D01*
X54225Y65002D02*
X58972Y69748D01*
X58536Y65002D02*
X63283Y69748D01*
X59057D02*
X63804Y65002D01*
X57817D02*
X62564Y69748D01*
X58338D02*
X63085Y65002D01*
X59973D02*
X64719Y69748D01*
X60494D02*
X65240Y65002D01*
X59254D02*
X64001Y69748D01*
X59775D02*
X64522Y65002D01*
X55465Y69748D02*
X60211Y65002D01*
X55662D02*
X60409Y69748D01*
X54746D02*
X59493Y65002D01*
X54944D02*
X59690Y69748D01*
X57099Y65002D02*
X61846Y69748D01*
X57620D02*
X62367Y65002D01*
X56183Y69748D02*
X60930Y65002D01*
X56381D02*
X61127Y69748D01*
X55732Y71537D02*
X56693Y72498D01*
X55732Y72355D02*
X57335Y70752D01*
X55732Y71254D02*
Y72406D01*
Y71637D02*
X56617Y70752D01*
X57025Y72498D02*
X58772Y70752D01*
X57102D02*
X58848Y72498D01*
X56307D02*
X58054Y70752D01*
X56383D02*
X58130Y72498D01*
X55732Y72255D02*
X55975Y72498D01*
X55564Y71086D02*
X55898Y70752D01*
X55639Y72498D02*
X55732Y72406D01*
X55229Y70752D02*
X55732Y71254D01*
X55665Y70752D02*
X57412Y72498D01*
X49506Y70678D02*
X55182Y65002D01*
X48924Y70678D02*
X49899D01*
X50578Y69999D01*
X52070Y65002D02*
X56817Y69748D01*
X52591D02*
X57338Y65002D01*
X51352D02*
X56098Y69748D01*
X51873D02*
X56619Y65002D01*
X53507D02*
X58254Y69748D01*
X54028D02*
X58775Y65002D01*
X52788D02*
X57535Y69748D01*
X53309D02*
X58056Y65002D01*
X50829Y69748D02*
X51331D01*
X50829D02*
X51331D01*
X50578Y69999D02*
X50829Y69748D01*
X50578Y69999D02*
X50829Y69748D01*
X50633Y65002D02*
X55380Y69748D01*
X51154D02*
X55901Y65002D01*
X49196D02*
X53943Y69748D01*
X49915Y65002D02*
X54662Y69748D01*
X73931Y61718D02*
X74712Y62498D01*
X73491D02*
X74271Y61718D01*
X73181D02*
X74399D01*
X72773Y62498D02*
X73553Y61718D01*
X73213D02*
X73993Y62498D01*
X74399Y61718D02*
X75008Y61109D01*
X72572D02*
X73181Y61718D01*
X69833Y69748D02*
X74580Y65002D01*
X70031D02*
X74777Y69748D01*
X71822Y61764D02*
X72556Y62498D01*
X72054D02*
X73008Y61545D01*
X72211Y61435D02*
X73275Y62498D01*
X72572Y61077D02*
X73213Y61718D01*
X71336Y62498D02*
X72648Y61186D01*
X71882Y61764D02*
X72514Y61132D01*
X75008Y59891D02*
Y61109D01*
X72572Y59891D02*
Y61109D01*
X72514Y60301D02*
X72572Y60359D01*
X73181Y59282D02*
X74399D01*
X72572Y59891D02*
X73181Y59282D01*
X73158Y56014D02*
X74302D01*
X72514Y61019D02*
X72572Y61077D01*
X72514Y60602D02*
X72572Y60544D01*
X72514Y59868D02*
Y61132D01*
X71882Y59236D02*
X72514Y59868D01*
X72162Y59516D02*
X74983Y56696D01*
X71725Y59236D02*
X74624Y56336D01*
X69815Y59709D02*
X73509Y56014D01*
X71006Y59236D02*
X74228Y56014D01*
X71104Y61764D02*
X71838Y62498D01*
X70617D02*
X71352Y61764D01*
X70618D02*
X71882D01*
X69504Y61602D02*
X70401Y62498D01*
X69899D02*
X70633Y61764D01*
X69864Y61243D02*
X71119Y62498D01*
X69986Y61132D02*
X70618Y61764D01*
X69180Y62498D02*
X70266Y61412D01*
X69342Y61764D02*
X69974Y61132D01*
X67855Y62108D02*
X68246Y62498D01*
X67744D02*
X68478Y61764D01*
X62649Y69748D02*
X67396Y65002D01*
X67464Y62498D02*
X68198Y61764D01*
X68948D02*
X69683Y62498D01*
X68198Y61764D02*
X69342D01*
X68230D02*
X68964Y62498D01*
X68462D02*
X69196Y61764D01*
X69986Y59868D02*
Y61132D01*
X69342Y59236D02*
X69974Y59868D01*
Y61132D01*
X69294Y59236D02*
X69974Y59916D01*
X70618Y59236D02*
X71882D01*
X70618Y56014D02*
X71882D01*
X69986Y59868D02*
X70618Y59236D01*
X68132D02*
X71354Y56014D01*
X65620Y61748D02*
X67446Y59922D01*
Y59868D02*
Y61012D01*
X66709Y61748D02*
X67446Y61012D01*
X66338Y61748D02*
X67446Y60641D01*
X64901Y61748D02*
X70636Y56014D01*
X68078Y59236D02*
X69342D01*
X67446Y59922D02*
X68132Y59236D01*
X67446Y59868D02*
X68078Y59236D01*
X69828Y55459D02*
X73650Y59282D01*
X69469Y55819D02*
X73056Y59406D01*
X71101Y56014D02*
X74369Y59282D01*
X69986Y55382D02*
X70618Y56014D01*
X71882D02*
X72514Y55382D01*
X72526D02*
X73158Y56014D01*
X72526Y55284D02*
X73256Y56014D01*
X72514Y54118D02*
Y55382D01*
X72526Y54118D02*
Y55382D01*
X68900Y55968D02*
X72697Y59766D01*
X69456Y59349D02*
X72975Y55831D01*
X64183Y61748D02*
X70268Y55664D01*
X68181Y55968D02*
X71449Y59236D01*
X59873Y61748D02*
X73199Y48422D01*
X68851Y59236D02*
X72615Y55471D01*
X59916Y48422D02*
X70731Y59236D01*
X63881Y48076D02*
X69986Y54181D01*
X72526Y54124D02*
X73164Y53486D01*
X71882D02*
X72514Y54118D01*
X69986D02*
X70618Y53486D01*
X71882D01*
X73158D02*
X74422D01*
X72544Y48422D02*
X73696D01*
X72526Y54118D02*
X73158Y53486D01*
X70004Y48422D02*
X71156D01*
X67819D02*
X73021Y53623D01*
X68537Y48422D02*
X73602Y53486D01*
X64945Y48422D02*
X70314Y53790D01*
X65664Y48422D02*
X70728Y53486D01*
X69422Y53635D02*
X74860Y48198D01*
X68936Y48102D02*
X74320Y53486D01*
X66588Y47909D02*
X72661Y53982D01*
X66229Y48268D02*
X71446Y53486D01*
X69319Y55968D02*
X69928Y55359D01*
X68101Y55968D02*
X69319D01*
X69986Y54118D02*
Y55382D01*
X69928Y55285D02*
X69986Y55227D01*
X69245Y55968D02*
X69928Y55285D01*
Y54141D02*
Y55359D01*
X62746Y61748D02*
X68527Y55968D01*
X63465Y61748D02*
X69245Y55968D01*
X61309Y61748D02*
X67595Y55462D01*
X62028Y61748D02*
X67955Y55822D01*
X67492Y55359D02*
X68101Y55968D01*
X67492Y55279D02*
X68181Y55968D01*
X60591Y61748D02*
X67492Y54847D01*
Y54141D02*
Y55359D01*
X69928Y54841D02*
X69986Y54899D01*
X69928Y54567D02*
X69986Y54509D01*
X69319Y53532D02*
X69928Y54141D01*
X68101Y53532D02*
X69319D01*
X67492Y54141D02*
X68101Y53532D01*
X67464Y48422D02*
X68616D01*
X60635D02*
X67492Y55279D01*
X62790Y48422D02*
X68001Y53632D01*
X59844Y48422D02*
X60996D01*
X62384D02*
X63536D01*
X61534Y47884D02*
X67641Y53991D01*
X63508Y48422D02*
X68619Y53532D01*
X61174Y48243D02*
X67492Y54560D01*
X64924Y48422D02*
X66076D01*
X58060Y54468D02*
X65341Y61748D01*
X56401Y54245D02*
X63904Y61748D01*
X58714Y54403D02*
X66059Y61748D01*
X55233Y54514D02*
X62467Y61748D01*
X55951Y54514D02*
X63185Y61748D01*
X59258Y53511D02*
X67102Y61355D01*
X59258Y52792D02*
X67446Y60980D01*
X56760Y53886D02*
X64622Y61748D01*
X59073Y54044D02*
X66743Y61714D01*
X51331Y69748D02*
X74669D01*
X53077Y54514D02*
X60312Y61748D01*
X50533D02*
X57813Y54468D01*
X52359Y54514D02*
X59593Y61748D01*
X54053Y54053D02*
X61748Y61748D01*
X54053Y54053D02*
X61748Y61748D01*
X51251D02*
X58532Y54468D01*
X53694Y54412D02*
X61030Y61748D01*
X58649Y54468D02*
X59258Y53859D01*
Y52641D02*
Y53859D01*
X58343Y51159D02*
X67446Y60262D01*
X58703Y50800D02*
X67608Y59706D01*
X58649Y52032D02*
X59258Y52641D01*
X57984Y51518D02*
X58498Y52032D01*
X57431Y54468D02*
X58649D01*
X56822Y53859D02*
X57431Y54468D01*
X57625Y51878D02*
X57779Y52032D01*
X57471D02*
X58649D01*
X56822Y52681D02*
X57471Y52032D01*
X56822Y52641D02*
X57431Y52032D01*
X56132Y54514D02*
X56764Y53882D01*
Y53362D02*
X56822Y53304D01*
X54236Y53882D02*
X54868Y54514D01*
X56132D01*
X56822Y52681D02*
Y53859D01*
X56764Y53172D02*
X56822Y53230D01*
X54236Y52618D02*
Y53882D01*
X56764Y52738D02*
Y53882D01*
X49096Y61748D02*
X56904Y53941D01*
X49815Y61748D02*
X57263Y54300D01*
X51696Y53882D02*
X52328Y54514D01*
X53592D01*
X54224Y53882D01*
Y52618D02*
Y53882D01*
X51696Y53851D02*
X52359Y54514D01*
X51696Y52618D02*
Y53882D01*
X56764Y52738D02*
X56822Y52681D01*
X54868Y51986D02*
X56012D01*
X54236Y52618D02*
X54868Y51986D01*
X54079Y51924D02*
X54505Y52349D01*
X55156Y50846D02*
X56154Y51844D01*
X55516Y50487D02*
X56513Y51484D01*
X54438Y51564D02*
X54864Y51990D01*
X54797Y51205D02*
X55578Y51986D01*
X53804Y52198D02*
X54224Y52618D01*
X52328Y51986D02*
X52641D01*
X51696Y52683D02*
X52393Y51986D01*
X51696Y52618D02*
X52328Y51986D01*
X52641Y51857D02*
X52892Y51606D01*
X52641Y51857D02*
X52892Y51606D01*
X52641Y51857D02*
Y51986D01*
Y51857D02*
Y51986D01*
X59752Y48975D02*
X70315Y59539D01*
X59421Y50081D02*
X68575Y59236D01*
X59752Y49694D02*
X69294Y59236D01*
X59062Y50441D02*
X67967Y59346D01*
X59090Y52473D02*
X63141Y48422D01*
X58436Y61748D02*
X72153Y48031D01*
X59154Y61748D02*
X72513Y48390D01*
X59258Y53742D02*
X64751Y48249D01*
X59258Y53023D02*
X64392Y47889D01*
X54844Y61748D02*
X68170Y48422D01*
X56999Y61748D02*
X70326Y48422D01*
X51970Y61748D02*
X65297Y48422D01*
X52688Y61748D02*
X66015Y48422D01*
X56280Y61748D02*
X69806Y48223D01*
X57717Y61748D02*
X71044Y48422D01*
X53407Y61748D02*
X67099Y48056D01*
X54125Y61748D02*
X67458Y48415D01*
X59752Y49249D02*
Y49751D01*
Y49249D02*
Y49751D01*
X59501Y50002D02*
X59752Y49751D01*
X59501Y50002D02*
X59752Y49751D01*
Y49656D02*
X60986Y48422D01*
X59752Y48938D02*
X60268Y48422D01*
X59752Y48329D02*
Y49249D01*
Y48329D02*
X59844Y48422D01*
X58731Y52114D02*
X62423Y48422D01*
X57471Y52032D02*
X59501Y50002D01*
X55985Y51986D02*
X58748Y49223D01*
X55267Y51986D02*
X58748Y48504D01*
X58094Y52032D02*
X62044Y48082D01*
X58748Y48129D02*
Y49249D01*
X58468Y48410D02*
X58748Y48690D01*
X58456Y48422D02*
X58748Y48129D01*
X56234Y49768D02*
X57232Y50766D01*
X56593Y49409D02*
X57591Y50407D01*
X53804Y52198D02*
X56751Y49252D01*
X55875Y50128D02*
X56872Y51125D01*
X56012Y51986D02*
X58748Y49249D01*
X57002Y48381D02*
X58309Y49688D01*
X54070Y52464D02*
X58112Y48422D01*
X56953Y49050D02*
X57950Y50047D01*
X52892Y51606D02*
X55998Y48499D01*
X52732Y48422D02*
X54404Y50094D01*
X49858Y48422D02*
X52967Y51530D01*
X50577Y48422D02*
X53326Y51171D01*
X52393Y51986D02*
X55998Y48380D01*
X53772Y48025D02*
X55122Y49375D01*
X51066Y48192D02*
X53686Y50812D01*
X53413Y48384D02*
X54763Y49734D01*
X57002Y48499D02*
Y49001D01*
Y48814D02*
X57394Y48422D01*
X56751Y49252D02*
X57002Y49001D01*
Y48499D02*
Y49001D01*
X57761Y48422D02*
X58669Y49329D01*
X57304Y48422D02*
X58456D01*
X57002Y48119D02*
Y48499D01*
Y48119D02*
X57304Y48422D01*
X56751Y49252D02*
X57002Y49001D01*
X54764Y48422D02*
X55916D01*
X49684D02*
X50836D01*
X52224D02*
X53376D01*
X55998Y48339D02*
Y48499D01*
X55916Y48422D02*
X55998Y48339D01*
X54887Y48422D02*
X55482Y49016D01*
X55606Y48422D02*
X55841Y48657D01*
X94592Y47176D02*
X98498Y51083D01*
X90400Y55647D02*
X98498Y47549D01*
X94016Y48422D02*
X94592Y47846D01*
X91476Y48422D02*
X92052Y47846D01*
X92288D02*
X92864Y48422D01*
X90041Y55288D02*
X98498Y46830D01*
X94592Y46694D02*
Y47846D01*
X92052Y46694D02*
Y47846D01*
X92288Y46694D02*
Y47846D01*
X84432Y47792D02*
X98498Y61859D01*
X89512Y47843D02*
X98498Y56830D01*
X89748Y47846D02*
X90324Y48422D01*
X89748Y46694D02*
Y47846D01*
X88925Y54248D02*
X98498Y44675D01*
X88207Y54248D02*
X98498Y43957D01*
X89681Y54929D02*
X98498Y46112D01*
X89322Y54570D02*
X98498Y45394D01*
X94016Y46118D02*
X94592Y46694D01*
X92864Y46118D02*
X94016D01*
X92052Y46791D02*
X92288Y47028D01*
Y46694D02*
X92864Y46118D01*
X94099Y46201D02*
X98498Y41801D01*
X93463Y46118D02*
X98498Y41083D01*
X94592Y47145D02*
X98498Y43238D01*
X94458Y46560D02*
X98498Y42520D01*
X92052Y47509D02*
X92288Y47746D01*
X92052Y47530D02*
X92288Y47293D01*
X89512Y47125D02*
X89748Y47362D01*
X89512Y47196D02*
X89748Y46959D01*
X91379Y46118D02*
X92052Y46791D01*
X91476Y46118D02*
X92052Y46694D01*
X89748D02*
X90324Y46118D01*
X91476D01*
X88936Y48422D02*
X89512Y47846D01*
X87208D02*
X87784Y48422D01*
X86972Y47458D02*
X87208Y47695D01*
X84668Y47846D02*
X85244Y48422D01*
X86396D02*
X86972Y47846D01*
X87208Y46694D02*
Y47846D01*
X89512Y46694D02*
Y47846D01*
X84668Y46694D02*
Y47846D01*
X86972Y46694D02*
Y47846D01*
X83431Y53995D02*
X89748Y47678D01*
X83856Y48422D02*
X84432Y47846D01*
X81316Y48422D02*
X81892Y47846D01*
X82128D02*
X82704Y48422D01*
X82128Y46694D02*
Y47846D01*
X84432Y46694D02*
Y47846D01*
X81892Y46694D02*
Y47846D01*
Y47407D02*
X82128Y47644D01*
X86972Y47581D02*
X87208Y47344D01*
X86972Y46740D02*
X87208Y46977D01*
X86350Y46118D02*
X86972Y46740D01*
X85244Y46118D02*
X86396D01*
X88936D02*
X89512Y46694D01*
X87784Y46118D02*
X88936D01*
X86396D02*
X86972Y46694D01*
X87208D02*
X87784Y46118D01*
X84432Y47074D02*
X84668Y47311D01*
X84432Y47247D02*
X84668Y47010D01*
X81892Y47632D02*
X82128Y47395D01*
X81316Y46118D02*
X81892Y46694D01*
X83856Y46118D02*
X84432Y46694D01*
X84668D02*
X85244Y46118D01*
X82128Y46694D02*
X82704Y46118D01*
X83856D01*
X91308D02*
X98498Y38928D01*
X89403Y46586D02*
X98498Y37491D01*
X90589Y46118D02*
X98498Y38209D01*
X92052Y46811D02*
X98498Y40365D01*
X91751Y46394D02*
X98498Y39646D01*
Y4500D02*
Y74500D01*
X86972Y46862D02*
X98498Y35336D01*
X89044Y46227D02*
X98498Y36773D01*
X88434Y46118D02*
X98498Y36054D01*
X84349Y46612D02*
X98498Y32462D01*
X85560Y46118D02*
X98498Y33180D01*
X86697Y46419D02*
X98498Y34617D01*
X86279Y46118D02*
X98498Y33899D01*
X81406Y15311D02*
X98498Y32404D01*
X81765Y14952D02*
X98498Y31685D01*
X83990Y46252D02*
X98498Y31744D01*
X83405Y46118D02*
X98498Y31025D01*
X89167Y15170D02*
X98498Y24501D01*
X91874Y15003D02*
X98498Y21627D01*
X91515Y15362D02*
X98498Y22346D01*
X94222Y15196D02*
X98498Y19472D01*
X94592Y14128D02*
X98498Y18035D01*
X91206Y10024D02*
X98498Y17317D01*
X89512Y14796D02*
X98498Y23783D01*
X94581Y14836D02*
X98498Y18754D01*
X84113Y15144D02*
X98498Y29530D01*
X86820Y14978D02*
X98498Y26656D01*
X82933Y15402D02*
X98498Y30967D01*
X86461Y15337D02*
X98498Y27375D01*
X87508Y4890D02*
X98498Y15880D01*
X83838Y502D02*
X98498Y15162D01*
X84432Y14745D02*
X98498Y28812D01*
X87508Y5608D02*
X98498Y16598D01*
X85807Y15402D02*
X98498Y28093D01*
X87962Y15402D02*
X98498Y25938D01*
X83652Y15402D02*
X98498Y30248D01*
X82704Y15402D02*
X83856D01*
X92991D02*
X98498Y20909D01*
X93710Y15402D02*
X98498Y20190D01*
X88681Y15402D02*
X98498Y25219D01*
X90836Y15402D02*
X98498Y23064D01*
X81250Y46118D02*
X98498Y28870D01*
X80531Y46118D02*
X98498Y28151D01*
X81892Y46914D02*
X98498Y30307D01*
X81642Y46445D02*
X98498Y29588D01*
X80778Y15402D02*
X98498Y33122D01*
X82128Y14826D02*
X82704Y15402D01*
X80164D02*
X81316D01*
X81892Y14826D01*
X91476Y15402D02*
X92052Y14826D01*
X92864Y15402D02*
X94016D01*
X89748Y14826D02*
X90324Y15402D01*
X91476D01*
X94006D02*
X94592Y14816D01*
Y13674D02*
Y14826D01*
X92288D02*
X92864Y15402D01*
X94016D02*
X94592Y14826D01*
X85244Y15402D02*
X86396D01*
X87784D02*
X88936D01*
X83856D02*
X84432Y14826D01*
X84668D02*
X85244Y15402D01*
X88936D02*
X89512Y14826D01*
Y13674D02*
Y14826D01*
X86396Y15402D02*
X86972Y14826D01*
X87208D02*
X87784Y15402D01*
X79352Y47741D02*
X85096Y53486D01*
X79294Y46637D02*
X98498Y27433D01*
X78935Y46278D02*
X98498Y26715D01*
X76399Y55998D02*
X84668Y47729D01*
X68542Y29747D02*
X85079Y46284D01*
X71533Y46496D02*
X98498Y19530D01*
X73881Y46303D02*
X98498Y21686D01*
X74240Y46663D02*
X98498Y22404D01*
X76588Y46470D02*
X98498Y24559D01*
X68542Y25436D02*
X89774Y46669D01*
X68542Y27592D02*
X87426Y46476D01*
X68542Y30465D02*
X84719Y46643D01*
X68542Y32621D02*
X82372Y46451D01*
X68542Y20407D02*
X98498Y50364D01*
X68542Y19689D02*
X98498Y49646D01*
X68542Y22563D02*
X92481Y46502D01*
X68542Y24718D02*
X90133Y46309D01*
X78376Y46118D02*
X98498Y25996D01*
X77658Y46118D02*
X98498Y25278D01*
X68542Y26155D02*
X88505Y46118D01*
X68542Y23999D02*
X90661Y46118D01*
X73347D02*
X98498Y20967D01*
X72629Y46118D02*
X98498Y20249D01*
X76221Y46118D02*
X98498Y23841D01*
X75503Y46118D02*
X98498Y23123D01*
X68542Y29028D02*
X85632Y46118D01*
X68542Y28310D02*
X86350Y46118D01*
X68542Y31902D02*
X82758Y46118D01*
X68542Y31184D02*
X83476Y46118D01*
X68542Y21844D02*
X92840Y46143D01*
X68542Y21126D02*
X93534Y46118D01*
X68542Y26873D02*
X87787Y46118D01*
X68542Y23281D02*
X91379Y46118D01*
X79588Y47846D02*
X80164Y48422D01*
X79352Y47298D02*
X79588Y47061D01*
X77048Y47846D02*
X77624Y48422D01*
X78776D02*
X79352Y47846D01*
X79588Y46694D02*
Y47846D01*
X79352Y47023D02*
X79588Y47259D01*
X77048Y46694D02*
Y47846D01*
X79352Y46694D02*
Y47846D01*
X74272Y47690D02*
X80113Y53532D01*
X73882Y53486D02*
X79588Y47780D01*
X69192Y47639D02*
X77551Y55998D01*
X76236Y48422D02*
X76812Y47846D01*
Y47356D02*
X77048Y47593D01*
X76812Y46965D02*
X77048Y46728D01*
X76812Y46694D02*
Y47846D01*
Y47683D02*
X77048Y47446D01*
Y46728D02*
X77658Y46118D01*
X77048Y46694D02*
X77624Y46118D01*
X76236D02*
X76812Y46694D01*
X75084Y46118D02*
X76236D01*
X79588Y46694D02*
X80164Y46118D01*
X81316D01*
X78776D02*
X79352Y46694D01*
X77624Y46118D02*
X78776D01*
X68306Y36696D02*
X77729Y46118D01*
X68542Y36213D02*
X78447Y46118D01*
X67588Y37414D02*
X77048Y46875D01*
X67947Y37055D02*
X77317Y46425D01*
X68542Y33339D02*
X82128Y46926D01*
X68542Y34057D02*
X80603Y46118D01*
X68542Y35494D02*
X79665Y46618D01*
X68542Y34776D02*
X80024Y46258D01*
X69185Y46688D02*
X98498Y17375D01*
X68542Y17534D02*
X98498Y47490D01*
X70474Y46118D02*
X98498Y18094D01*
X68542Y18252D02*
X98498Y48209D01*
X71174Y46137D02*
X98498Y18812D01*
X68542Y16097D02*
X98498Y46054D01*
X68565Y15402D02*
X98498Y45335D01*
X68542Y16815D02*
X98498Y46772D01*
X68826Y46329D02*
X98498Y16657D01*
X66479Y46521D02*
X98498Y14501D01*
X67600Y46118D02*
X98498Y15220D01*
X68542Y18971D02*
X98498Y48927D01*
X68318Y46118D02*
X98498Y15938D01*
X64112Y46733D02*
X98498Y12346D01*
X63772Y46354D02*
X98498Y11628D01*
X66119Y46162D02*
X98498Y13783D01*
X65445Y46118D02*
X98498Y13065D01*
X76352Y15286D02*
X98498Y37433D01*
X78623Y15402D02*
X98498Y35277D01*
X75749Y15402D02*
X98498Y38151D01*
X77904Y15402D02*
X98498Y35996D01*
X74272Y14643D02*
X98498Y38869D01*
X79352Y14694D02*
X98498Y33840D01*
X76711Y14927D02*
X98498Y36714D01*
X79058Y15119D02*
X98498Y34559D01*
X71297Y15260D02*
X98498Y42462D01*
X73594Y15402D02*
X98498Y40306D01*
X70720Y15402D02*
X98498Y43180D01*
X72875Y15402D02*
X98498Y41025D01*
X69192Y14592D02*
X98498Y43898D01*
X71656Y14901D02*
X98498Y41743D01*
X68950Y15068D02*
X98498Y44617D01*
X74004Y15093D02*
X98498Y39588D01*
X68542Y35119D02*
X88259Y15402D01*
X68542Y32964D02*
X86104Y15402D01*
X68542Y32245D02*
X85385Y15402D01*
X68542Y30090D02*
X83230Y15402D01*
X68542Y34400D02*
X87662Y15280D01*
X68542Y33682D02*
X87303Y14920D01*
X68542Y31527D02*
X84955Y15113D01*
X68542Y30808D02*
X84668Y14681D01*
X62571Y46118D02*
X93288Y15402D01*
X63289Y46118D02*
X94006Y15402D01*
X60416Y46118D02*
X91132Y15402D01*
X59752Y46064D02*
X90414Y15402D01*
X61424Y46547D02*
X92717Y15254D01*
X61065Y46188D02*
X92358Y14895D01*
X59752Y45346D02*
X90010Y15087D01*
X68542Y35837D02*
X89748Y14630D01*
X68542Y23624D02*
X77194Y14972D01*
X77624Y15402D02*
X78776D01*
X68542Y22906D02*
X76046Y15402D01*
X75084D02*
X76236D01*
X78776D02*
X79352Y14826D01*
X79588D02*
X80164Y15402D01*
X76236D02*
X76812Y14826D01*
X77048D02*
X77624Y15402D01*
X68542Y27935D02*
X81075Y15402D01*
X68542Y27216D02*
X80356Y15402D01*
X68542Y25061D02*
X78201Y15402D01*
X68542Y24343D02*
X77553Y15331D01*
X68542Y29372D02*
X82608Y15305D01*
X68542Y28653D02*
X82249Y14946D01*
X68542Y26498D02*
X79901Y15138D01*
X68542Y25779D02*
X79588Y14733D01*
X94592Y14816D02*
X98498Y10909D01*
X92288Y13674D02*
X92864Y13098D01*
X94016D02*
X94592Y13674D01*
X92288D02*
Y14826D01*
X92052Y13744D02*
X92288Y13980D01*
X92052Y13764D02*
X98498Y7317D01*
X94085Y13168D02*
X98498Y8754D01*
X94592Y14098D02*
X98498Y10191D01*
X94444Y13527D02*
X98498Y9473D01*
X92052Y14462D02*
X92288Y14699D01*
X92052Y14482D02*
X92288Y14246D01*
X92052Y13674D02*
Y14826D01*
X91406Y13098D02*
X92052Y13744D01*
X89390Y13552D02*
X95040Y7902D01*
X89030Y13193D02*
X94322Y7902D01*
X91476Y13098D02*
X92052Y13674D01*
X90200Y10456D02*
X92854Y13109D01*
X94112Y7902D02*
X98498Y12288D01*
X94831Y7902D02*
X98498Y11569D01*
X93436Y13098D02*
X98498Y8036D01*
X93394Y7902D02*
X98498Y13006D01*
X96593Y7509D02*
X98498Y9414D01*
X96953Y7150D02*
X98498Y8696D01*
X95549Y7902D02*
X98498Y10851D01*
X96234Y7868D02*
X98498Y10133D01*
X92864Y13098D02*
X94016D01*
X90562D02*
X95759Y7902D01*
X90886Y10423D02*
X93562Y13098D01*
X88407D02*
X93604Y7902D01*
X91206Y9581D02*
X92885Y7902D01*
X92799D02*
X96201D01*
X90938Y9130D02*
X92483Y7585D01*
X90305Y9044D02*
X92124Y7226D01*
X89748Y13674D02*
Y14826D01*
X89512Y14077D02*
X89748Y14314D01*
X89512Y14149D02*
X89748Y13912D01*
X87208Y13674D02*
Y14826D01*
X86972Y13693D02*
X87208Y13929D01*
X86972Y13815D02*
X90331Y10456D01*
X89748Y13674D02*
X90324Y13098D01*
X87208Y13674D02*
X87784Y13098D01*
X88936D02*
X89512Y13674D01*
X86972Y14411D02*
X87208Y14648D01*
X86972Y14534D02*
X87208Y14297D01*
X86972Y13674D02*
Y14826D01*
X85244Y13098D02*
X86396D01*
X86683Y13385D02*
X89880Y10188D01*
X86251Y13098D02*
X89794Y9555D01*
X86377Y13098D02*
X86972Y13693D01*
X86396Y13098D02*
X86972Y13674D01*
X90324Y13098D02*
X91476D01*
X90853Y10456D02*
X91206Y10103D01*
X90147Y10456D02*
X90853D01*
X91206Y9397D02*
Y10103D01*
X90853Y9044D02*
X91206Y9397D01*
X90147Y9044D02*
X90853D01*
X89794Y10050D02*
X90200Y10456D01*
X87784Y13098D02*
X88936D01*
X89794Y10103D02*
X90147Y10456D01*
X85533Y13098D02*
X91765Y6867D01*
X89794Y9397D02*
Y10103D01*
Y9397D02*
X90147Y9044D01*
X97902Y5759D02*
X98498Y5162D01*
X97902Y5225D02*
X98498Y5822D01*
X97902Y4507D02*
X98498Y5104D01*
X97902Y5040D02*
X98498Y4444D01*
X97902Y4322D02*
X98435Y3789D01*
X97902Y3788D02*
X98497Y4384D01*
X97902Y3070D02*
X98385Y3553D01*
X97902Y2799D02*
Y6201D01*
Y3604D02*
X98287Y3218D01*
X91737Y13360D02*
X98498Y6599D01*
X97671Y6431D02*
X98498Y7259D01*
X97312Y6791D02*
X98498Y7977D01*
X96201Y7902D02*
X97902Y6201D01*
X85275Y502D02*
X98498Y13725D01*
X91280Y13098D02*
X98498Y5880D01*
X97902Y5944D02*
X98498Y6540D01*
X97902Y2885D02*
X98076Y2711D01*
X97585Y2483D02*
X97811Y2258D01*
X97226Y2124D02*
X97497Y1853D01*
X96867Y1765D02*
X97137Y1494D01*
X96201Y1098D02*
X97902Y2799D01*
X96734Y1184D02*
X97816Y2266D01*
X96508Y1405D02*
X96731Y1182D01*
X96096Y1098D02*
X96277Y918D01*
X95930Y1098D02*
X97902Y3070D01*
X92799Y1098D02*
X96201D01*
X95378D02*
X95768Y708D01*
X95447Y615D02*
X95930Y1098D01*
X94659D02*
X95195Y563D01*
X94616Y503D02*
X95212Y1098D01*
X93896Y502D02*
X94493Y1098D01*
X93941D02*
X94538Y502D01*
X87149Y5968D02*
X90226Y9044D01*
X91098Y6201D02*
X92799Y7902D01*
X86899Y6218D02*
X87508Y5609D01*
Y4391D02*
Y5609D01*
Y5376D02*
X92383Y502D01*
X87508Y4658D02*
X91664Y502D01*
X91098Y2799D02*
Y6201D01*
X85963Y6218D02*
X89794Y10050D01*
X86681Y6218D02*
X89827Y9364D01*
X85681Y6218D02*
X86899D01*
X85994Y502D02*
X91098Y5606D01*
X86712Y502D02*
X91098Y4888D01*
Y2799D02*
X92799Y1098D01*
X91023Y502D02*
X92209Y1688D01*
X89586Y502D02*
X91491Y2407D01*
X90304Y502D02*
X91850Y2047D01*
X93178Y502D02*
X93775Y1098D01*
X93223D02*
X93819Y502D01*
X91741D02*
X92569Y1329D01*
X92460Y502D02*
X93056Y1098D01*
X86923Y3806D02*
X90227Y502D01*
X86229Y3782D02*
X89509Y502D01*
X86899Y3782D02*
X87508Y4391D01*
X85681Y3782D02*
X86899D01*
X88149Y502D02*
X91098Y3451D01*
X88867Y502D02*
X91132Y2766D01*
X87431Y502D02*
X91098Y4169D01*
X87282Y4165D02*
X90946Y502D01*
X84668Y13674D02*
Y14826D01*
X84432Y14026D02*
X84668Y14263D01*
X84432Y14200D02*
X84668Y13963D01*
X84432Y13674D02*
Y14826D01*
X83856Y13098D02*
X84432Y13674D01*
X84335Y13578D02*
X91405Y6508D01*
X84836Y5810D02*
X92494Y13468D01*
X84668Y13674D02*
X85244Y13098D01*
X83135Y6264D02*
X90147Y13276D01*
X82128Y13674D02*
X82704Y13098D01*
X76574Y13437D02*
X83746Y6264D01*
X82128Y13674D02*
Y14826D01*
X81892Y14360D02*
X82128Y14597D01*
X82129Y5977D02*
X89788Y13635D01*
X79281Y13603D02*
X86666Y6218D01*
X74468D02*
X82128Y13878D01*
X75168Y6199D02*
X82386Y13417D01*
X83854Y6264D02*
X90688Y13098D01*
X84477Y6169D02*
X91406Y13098D01*
X82704D02*
X83856D01*
X83118Y6264D02*
X84382D01*
X83976Y13219D02*
X91098Y6096D01*
X84382Y6264D02*
X85014Y5632D01*
X81842Y6264D02*
X82474Y5632D01*
X82486D02*
X83118Y6264D01*
X80980D02*
X87814Y13098D01*
X81698Y6264D02*
X88533Y13098D01*
X78922Y13244D02*
X85948Y6218D01*
X76194Y13098D02*
X83073Y6219D01*
X77631Y13098D02*
X85096Y5633D01*
X78349Y13098D02*
X85455Y5992D01*
X75475Y13098D02*
X82714Y5860D01*
X75527Y5840D02*
X82785Y13098D01*
X81892Y14585D02*
X82128Y14348D01*
X79352Y13975D02*
X79588Y14212D01*
X79352Y13674D02*
Y14826D01*
Y14251D02*
X79588Y14014D01*
Y13674D02*
Y14826D01*
X81892Y13674D02*
Y14826D01*
X77048Y13674D02*
X77624Y13098D01*
X78776D02*
X79352Y13674D01*
X76812Y14309D02*
X77048Y14546D01*
X76812Y13917D02*
X77048Y13681D01*
X76812Y13674D02*
Y14826D01*
Y14636D02*
X77048Y14399D01*
X69485Y6264D02*
X77048Y13827D01*
Y13681D02*
X77631Y13098D01*
X77048Y13674D02*
Y14826D01*
X76236Y13098D02*
X76812Y13674D01*
X79588D02*
X80164Y13098D01*
X81316D01*
X75084D02*
X76236D01*
X77624D02*
X78776D01*
X81316D02*
X81892Y13674D01*
X80578Y6264D02*
X81842D01*
X74226Y13629D02*
X81591Y6264D01*
X73867Y13270D02*
X80873Y6264D01*
X72359D02*
X79679Y13584D01*
X73320Y13098D02*
X80366Y6052D01*
X70148Y6208D02*
X77331Y13392D01*
X71640Y6264D02*
X78475Y13098D01*
X72855Y6041D02*
X80038Y13225D01*
X73214Y5682D02*
X80630Y13098D01*
X70507Y5849D02*
X77756Y13098D01*
X72602D02*
X80007Y5693D01*
X83378Y13098D02*
X91098Y5378D01*
X81892Y13866D02*
X91098Y4659D01*
X85072Y5609D02*
X85681Y6218D01*
X85072Y4391D02*
Y5609D01*
X85014Y5269D02*
X85072Y5327D01*
X84557Y502D02*
X98498Y14443D01*
X81223Y13098D02*
X91098Y3223D01*
X81628Y13411D02*
X91098Y3941D01*
X85014Y4368D02*
Y5632D01*
X75758Y4634D02*
X84733Y13609D01*
X72344Y502D02*
X85092Y13250D01*
X71160Y13103D02*
X83762Y502D01*
X75758Y5353D02*
X83504Y13098D01*
X74499Y502D02*
X87440Y13443D01*
X80504Y13098D02*
X93101Y502D01*
X73062D02*
X85659Y13098D01*
X73781Y502D02*
X86377Y13098D01*
X85014Y4551D02*
X85072Y4609D01*
Y4391D02*
X85681Y3782D01*
X85014Y4996D02*
X85072Y4939D01*
X84382Y3736D02*
X85014Y4368D01*
X84969Y4323D02*
X88790Y502D01*
X84610Y3964D02*
X88072Y502D01*
X83401Y3736D02*
X86635Y502D01*
X84119Y3736D02*
X87354Y502D01*
X81683D02*
X85322Y4141D01*
X81246Y3736D02*
X84480Y502D01*
X80965D02*
X84199Y3736D01*
X83118D02*
X84382D01*
X82262Y4156D02*
X85917Y502D01*
X83120D02*
X86400Y3782D01*
X81903Y3797D02*
X85198Y502D01*
X82402D02*
X85682Y3782D01*
X79946Y5632D02*
X80578Y6264D01*
X82486Y5615D02*
X83135Y6264D01*
X79946Y4368D02*
Y5632D01*
X75758Y4391D02*
Y5609D01*
X82474Y4368D02*
Y5632D01*
X82486Y4368D02*
Y5632D01*
X75758Y4913D02*
X80169Y502D01*
X75936D02*
X79946Y4512D01*
X71519Y13462D02*
X79946Y5036D01*
X69391Y11998D02*
X80888Y502D01*
X75149Y6218D02*
X75758Y5609D01*
X75149Y3782D02*
X75758Y4391D01*
X71024Y12521D02*
X83043Y502D01*
X70664Y12162D02*
X82325Y502D01*
X70109Y11998D02*
X81606Y502D01*
X75217D02*
X79946Y5230D01*
X81842Y3736D02*
X82474Y4368D01*
X82486D02*
X83118Y3736D01*
X79946Y4368D02*
X80578Y3736D01*
X81842D01*
X79528Y502D02*
X82940Y3914D01*
X80246Y502D02*
X83481Y3736D01*
X78810Y502D02*
X82581Y4273D01*
X78091Y502D02*
X81325Y3736D01*
X74015Y3782D02*
X77296Y502D01*
X74734Y3782D02*
X78014Y502D01*
X72988Y4091D02*
X76577Y502D01*
X72625Y3736D02*
X75859Y502D01*
X76654D02*
X80233Y4081D01*
X77373Y502D02*
X80607Y3736D01*
X75660Y4293D02*
X79451Y502D01*
X75301Y3934D02*
X78733Y502D01*
X74508Y47846D02*
X75084Y48422D01*
X73696D02*
X74272Y47846D01*
Y47349D02*
X74508Y47113D01*
X71968Y47846D02*
X72544Y48422D01*
X71732Y47305D02*
X71968Y47542D01*
X74508Y46694D02*
Y47846D01*
X74272Y46972D02*
X74508Y47208D01*
X71968Y46694D02*
Y47846D01*
X74272Y46694D02*
Y47846D01*
X68807Y53532D02*
X74508Y47831D01*
X71732Y47734D02*
X71968Y47497D01*
X69428Y47846D02*
X70004Y48422D01*
X71156D02*
X71732Y47846D01*
X69428Y46694D02*
Y47846D01*
X71732Y46694D02*
Y47846D01*
X69192Y46694D02*
Y47846D01*
Y47400D02*
X69428Y47164D01*
X71732Y47016D02*
X71968Y46779D01*
X72629Y46118D01*
X71156D02*
X71732Y46694D01*
X70004Y46118D02*
X71156D01*
X73696D02*
X74272Y46694D01*
X74508D02*
X75084Y46118D01*
X71968Y46694D02*
X72544Y46118D01*
X73696D01*
X69428Y46694D02*
X70004Y46118D01*
X64355Y40647D02*
X69915Y46207D01*
X69192Y46921D02*
X69428Y47157D01*
X63996Y41006D02*
X69556Y46567D01*
X65433Y39570D02*
X72263Y46400D01*
X65792Y39210D02*
X72700Y46118D01*
X65074Y39929D02*
X71968Y46824D01*
X64714Y40288D02*
X70545Y46118D01*
X68616Y48422D02*
X69192Y47846D01*
X66888D02*
X67464Y48422D01*
X66652Y47785D02*
X66888Y47548D01*
X66076Y48422D02*
X66652Y47846D01*
X66015Y48422D02*
X66652Y47785D01*
X66888Y46694D02*
Y47846D01*
X66652Y47254D02*
X66888Y47491D01*
X64348Y46694D02*
Y47846D01*
X66652Y46694D02*
Y47846D01*
X64348D02*
X64924Y48422D01*
X64348Y47825D02*
X64945Y48422D01*
X61808Y47846D02*
X62384Y48422D01*
X63536D02*
X64112Y47846D01*
Y47451D02*
X64348Y47215D01*
X64112Y46869D02*
X64348Y47106D01*
X64112Y46694D02*
Y47846D01*
Y47588D02*
X64348Y47825D01*
X66652Y47067D02*
X66888Y46830D01*
X66076Y46118D02*
X66652Y46694D01*
X64348D02*
X64924Y46118D01*
X66076D01*
X68616D02*
X69192Y46694D01*
X67464Y46118D02*
X68616D01*
X66888Y46694D02*
X67464Y46118D01*
X63637Y41366D02*
X68389Y46118D01*
X63536D02*
X64112Y46694D01*
X61841Y43162D02*
X64861Y46182D01*
X61808Y46694D02*
X62384Y46118D01*
X63536D01*
X62918Y42084D02*
X67208Y46374D01*
X63278Y41725D02*
X67671Y46118D01*
X62559Y42443D02*
X66888Y46773D01*
X62200Y42803D02*
X65516Y46118D01*
X70004Y15402D02*
X71156D01*
X68542Y19314D02*
X72499Y15356D01*
X72544Y15402D02*
X73696D01*
X68542Y17877D02*
X71017Y15402D01*
X68542Y17158D02*
X70298Y15402D01*
X68542Y18595D02*
X72140Y14997D01*
X69428Y14826D02*
X70004Y15402D01*
X68542Y16440D02*
X69792Y15189D01*
X68542Y15722D02*
X69433Y14830D01*
X66870Y38133D02*
X74970Y46233D01*
X67229Y37774D02*
X75574Y46118D01*
X66510Y38492D02*
X74611Y46592D01*
X66151Y38851D02*
X73418Y46118D01*
X68542Y22187D02*
X75327Y15402D01*
X68542Y21469D02*
X74847Y15164D01*
X68542Y20750D02*
X74508Y14784D01*
X68542Y20032D02*
X73172Y15402D01*
X74508Y14826D02*
X75084Y15402D01*
X74272Y13924D02*
X74508Y14161D01*
X73696Y15402D02*
X74272Y14826D01*
Y14302D02*
X74508Y14065D01*
X74272Y13674D02*
Y14826D01*
X74508Y13674D02*
Y14826D01*
X71968Y13674D02*
Y14826D01*
Y13732D02*
X72602Y13098D01*
X71968Y14826D02*
X72544Y15402D01*
X71732Y14258D02*
X71968Y14495D01*
X71156Y15402D02*
X71732Y14826D01*
Y14687D02*
X71968Y14450D01*
X71732Y13968D02*
X71968Y13732D01*
X71082Y12889D02*
X71968Y13776D01*
X71732Y13674D02*
Y14826D01*
X69428Y13674D02*
X70004Y13098D01*
X68542Y35959D02*
Y36461D01*
Y35959D02*
Y36461D01*
X68291Y36712D02*
X68542Y36461D01*
X68291Y36712D02*
X68542Y36461D01*
Y15402D02*
Y35959D01*
X66248Y15229D02*
Y34249D01*
X64973Y15402D02*
X66248Y16677D01*
X65691Y15402D02*
X66248Y15959D01*
X63536Y15402D02*
X66248Y18114D01*
X63895Y15042D02*
X66248Y17396D01*
X62817Y15402D02*
X66248Y18833D01*
X62384Y15402D02*
X63536D01*
X64348Y14826D02*
X64924Y15402D01*
X64348Y14777D02*
X64973Y15402D01*
X61808Y14826D02*
X62384Y15402D01*
X63536D02*
X64112Y14826D01*
X68616Y15402D02*
X69192Y14826D01*
Y14353D02*
X69428Y14116D01*
X64924Y15402D02*
X66076D01*
X66248Y15229D01*
X69428Y13674D02*
Y14826D01*
X69192Y13873D02*
X69428Y14110D01*
X69192Y13674D02*
Y14826D01*
X68616Y13098D02*
X69192Y13674D01*
X64112Y14404D02*
X64348Y14167D01*
X64112Y13822D02*
X64348Y14059D01*
X61808Y13674D02*
Y14826D01*
X64112Y14541D02*
X64348Y14777D01*
Y13674D02*
Y14826D01*
X64112Y13686D02*
X64998Y12799D01*
X64112Y13674D02*
Y14826D01*
X63536Y13098D02*
X64112Y13674D01*
X61572Y47203D02*
X61808Y47440D01*
X61572Y47836D02*
X61808Y47599D01*
X61572Y47118D02*
X61808Y46881D01*
X60996Y48422D02*
X61572Y47846D01*
X60986Y48422D02*
X61572Y47836D01*
X61808Y46694D02*
Y47846D01*
X61481Y43521D02*
X64502Y46541D01*
X61572Y46694D02*
Y47846D01*
X60996Y46118D02*
X61572Y46694D01*
X55562Y61748D02*
X69447Y47864D01*
X60404Y44599D02*
X62154Y46349D01*
X60045Y44958D02*
X61808Y46722D01*
X59752Y45251D02*
Y46211D01*
X48872Y46886D02*
X66248Y29509D01*
X50956Y46239D02*
X66248Y30946D01*
X51315Y46598D02*
X66248Y31665D01*
X53663Y46405D02*
X66248Y33820D01*
X59752Y45383D02*
X60487Y46118D01*
X59844D02*
X60996D01*
X59752Y46211D02*
X59844Y46118D01*
X59752Y46102D02*
X59806Y46156D01*
X59752Y45251D02*
X68291Y36712D01*
X56249Y44248D02*
X66248Y34249D01*
X60763Y44239D02*
X62642Y46118D01*
X61122Y43880D02*
X63361Y46118D01*
X55998Y44499D02*
Y45001D01*
Y44499D02*
X56249Y44248D01*
X55916Y46118D02*
X55998Y46201D01*
Y45001D02*
Y46201D01*
X52513Y46118D02*
X66248Y32383D01*
X50358Y46118D02*
X66248Y30228D01*
X53231Y46118D02*
X66248Y33101D01*
X55998Y44499D02*
X56249Y44248D01*
X54188Y47846D02*
X54764Y48422D01*
X53952Y47486D02*
X54188Y47723D01*
X51648Y47846D02*
X52224Y48422D01*
X53376D02*
X53952Y47846D01*
X54188Y46694D02*
Y47846D01*
X53952Y47554D02*
X54188Y47317D01*
X51648Y46694D02*
Y47846D01*
X53952Y46694D02*
Y47846D01*
X51412Y47819D02*
X54045Y50453D01*
X50836Y48422D02*
X51412Y47846D01*
X49108D02*
X49684Y48422D01*
X48872Y47435D02*
X49108Y47672D01*
Y46694D02*
Y47846D01*
X51412Y46694D02*
Y47846D01*
X48872Y46694D02*
Y47846D01*
Y47605D02*
X49108Y47368D01*
X53952Y46767D02*
X54188Y47004D01*
Y46694D02*
X54764Y46118D01*
X53303D02*
X53952Y46767D01*
X53376Y46118D02*
X53952Y46694D01*
Y46835D02*
X55998Y44788D01*
Y44499D02*
Y45001D01*
X54764Y46118D02*
X55916D01*
X55387D02*
X55998Y45507D01*
X51412Y47101D02*
X51648Y47338D01*
X51412Y47220D02*
X51648Y46983D01*
X48872Y46716D02*
X49108Y46953D01*
Y46694D02*
X49684Y46118D01*
X51648Y46694D02*
X52224Y46118D01*
X53376D01*
X50836D02*
X51412Y46694D01*
X49684Y46118D02*
X50836D01*
X59944Y15402D02*
X66248Y21706D01*
X58481Y15376D02*
X66248Y23143D01*
X60662Y15402D02*
X66248Y20988D01*
X55633Y15402D02*
X66248Y26017D01*
X57788Y15402D02*
X66248Y23862D01*
X56492Y14823D02*
X66248Y24580D01*
X58841Y15017D02*
X66248Y22425D01*
X56134Y15184D02*
X66248Y25298D01*
X61188Y15209D02*
X66248Y20269D01*
X52759Y15402D02*
X66248Y28890D01*
X54915Y15402D02*
X66248Y26735D01*
X49886Y15402D02*
X66248Y31764D01*
X50604Y15402D02*
X66248Y31046D01*
X51412Y14772D02*
X66248Y29609D01*
X53786Y14991D02*
X66248Y27454D01*
X51079Y15158D02*
X66248Y30327D01*
X53427Y15351D02*
X66248Y28172D01*
X61547Y14850D02*
X66248Y19551D01*
X60959Y15402D02*
X61572Y14789D01*
X59844Y15402D02*
X60996D01*
X61572Y14826D01*
Y14156D02*
X61808Y14393D01*
X61572Y14070D02*
X61808Y13834D01*
X61572Y13674D02*
Y14826D01*
Y14789D02*
X61808Y14552D01*
X59268Y14826D02*
X59844Y15402D01*
X59032Y14455D02*
X59268Y14218D01*
X58456Y15402D02*
X59032Y14826D01*
Y14489D02*
X59268Y14726D01*
X53952Y13788D02*
X59994Y7746D01*
X59032Y13737D02*
X62508Y10260D01*
X59268Y13674D02*
Y14826D01*
X59032Y13771D02*
X59268Y14008D01*
X54764Y15402D02*
X55916D01*
X57304D02*
X58456D01*
X52224D02*
X53376D01*
X53952Y14826D01*
X55916Y15402D02*
X56492Y14826D01*
X56728D02*
X57304Y15402D01*
X54188Y14826D02*
X54764Y15402D01*
X53952Y13674D02*
Y14826D01*
X50836Y15402D02*
X51412Y14826D01*
X51648D02*
X52224Y15402D01*
X49108Y14826D02*
X49684Y15402D01*
X50836D01*
X51412Y13674D02*
Y14826D01*
X51648Y13674D02*
Y14826D01*
X48872Y13674D02*
Y14826D01*
X49108Y13674D02*
Y14826D01*
X56492Y14105D02*
X56728Y14342D01*
X56492Y14122D02*
X56728Y13885D01*
X54188Y13674D02*
Y14826D01*
X53952Y13720D02*
X54188Y13957D01*
X59032Y13674D02*
Y14826D01*
X58359Y13098D02*
X59032Y13771D01*
X56492Y13674D02*
Y14826D01*
X56728Y13674D02*
Y14826D01*
X53952Y14438D02*
X54188Y14675D01*
X53952Y14506D02*
X54188Y14269D01*
X48872Y14387D02*
X49108Y14624D01*
X48872Y14557D02*
X49108Y14321D01*
X48872Y13839D02*
X56902Y5809D01*
X53330Y13098D02*
X53952Y13720D01*
X51412Y14054D02*
X51648Y14290D01*
X51412Y14173D02*
X51648Y13936D01*
X74508Y13674D02*
X75084Y13098D01*
X73696D02*
X74272Y13674D01*
X72544Y13098D02*
X73696D01*
X71156D02*
X71732Y13674D01*
X71968D02*
X72544Y13098D01*
X70831Y12328D02*
X71082Y12579D01*
X70831Y12328D02*
X71082Y12579D01*
Y13081D01*
Y12579D02*
Y13081D01*
X69172Y13654D02*
X69825Y13002D01*
X67501D02*
X69999D01*
X69038D02*
X69570Y13533D01*
X68813Y13295D02*
X69106Y13002D01*
X66002Y12514D02*
X72252Y6264D01*
X70752Y12249D02*
X70831Y12328D01*
X69757Y13002D02*
X69929Y13174D01*
X69999Y13002D02*
X70078Y13081D01*
X70501Y11998D02*
X70752Y12249D01*
X70501Y11998D02*
X70752Y12249D01*
X69999Y11998D02*
X70501D01*
X69999D02*
X70501D01*
X68673D02*
X74453Y6218D01*
X73931D02*
X75149D01*
X68828Y6264D02*
X70092D01*
X71368D02*
X72632D01*
X65775Y12022D02*
X71533Y6264D01*
X67501Y11998D02*
X69999D01*
X63019Y6264D02*
X68754Y11998D01*
X64697Y10945D02*
X69378Y6264D01*
X67954Y11998D02*
X73833Y6120D01*
X65416Y11663D02*
X71091Y5988D01*
X63685Y6211D02*
X69472Y11998D01*
X64044Y5852D02*
X70191Y11998D01*
X67573Y13098D02*
X67669Y13002D01*
X67602D02*
X67698Y13098D01*
X67252Y13311D02*
X67464Y13098D01*
X67252Y13251D02*
X67501Y13002D01*
X66248Y12749D02*
Y13251D01*
X68291Y13098D02*
X68388Y13002D01*
X66248Y12749D02*
Y13251D01*
X66106Y13128D02*
X66248Y12986D01*
X66076Y13098D02*
X66248Y13271D01*
X64998Y12751D02*
Y13098D01*
X64348Y13674D02*
X64924Y13098D01*
X62384D02*
X63536D01*
X63758Y13321D02*
X64663Y12416D01*
X66002Y12751D02*
Y13098D01*
X62544D02*
X63945Y11697D01*
X63262Y13098D02*
X64304Y12056D01*
X68320Y13002D02*
X68417Y13098D01*
X67464D02*
X68616D01*
X66248Y12749D02*
X66499Y12498D01*
X66748Y12249D01*
X66999Y11998D02*
X67501D01*
X66999D02*
X67501D01*
X66748Y12249D02*
X66999Y11998D01*
X66748Y12249D02*
X66999Y11998D01*
X66002Y12838D02*
X66248Y13085D01*
Y12749D02*
X66499Y12498D01*
X66002Y12249D02*
Y12751D01*
Y12249D02*
Y12751D01*
X65751Y11998D02*
X66002Y12249D01*
X64338Y10586D02*
X68744Y6180D01*
X65751Y11998D02*
X66002Y12249D01*
X62368Y6264D02*
X63632D01*
X73322Y5609D02*
X73931Y6218D01*
X73264Y5252D02*
X73322Y5194D01*
X73264Y5014D02*
X73322Y5072D01*
Y4475D02*
X74015Y3782D01*
X73322Y4391D02*
Y5609D01*
X73264Y4533D02*
X73322Y4475D01*
X67236Y11998D02*
X73474Y5761D01*
X72632Y6264D02*
X73264Y5632D01*
X64264Y5354D02*
X72277Y13366D01*
X64264Y4635D02*
X72727Y13098D01*
X62286Y502D02*
X74983Y13199D01*
X63004Y502D02*
X75601Y13098D01*
X62901Y9149D02*
X71548Y502D01*
X73264Y4368D02*
Y5632D01*
X73931Y3782D02*
X75149D01*
X73322Y4391D02*
X73931Y3782D01*
X71368Y3736D02*
X72632D01*
X71625Y502D02*
X74906Y3782D01*
X71906Y3736D02*
X75140Y502D01*
X72632Y3736D02*
X73264Y4368D01*
X70907Y502D02*
X74187Y3782D01*
X69470Y502D02*
X73341Y4372D01*
X69033Y3736D02*
X72267Y502D01*
X70736Y4368D02*
X71368Y3736D01*
X68752Y502D02*
X71986Y3736D01*
X70640Y4284D02*
X74422Y502D01*
X70281Y3925D02*
X73704Y502D01*
X70188D02*
X73700Y4013D01*
X69751Y3736D02*
X72985Y502D01*
X65056Y11304D02*
X70736Y5625D01*
Y5632D02*
X71368Y6264D01*
X68196Y5632D02*
X68828Y6264D01*
X70092D02*
X70724Y5632D01*
Y4368D02*
Y5632D01*
X70736Y4368D02*
Y5632D01*
X68196Y4368D02*
Y5632D01*
X64264Y5631D02*
X69393Y502D01*
X63979Y10226D02*
X68385Y5821D01*
X63620Y9867D02*
X68196Y5291D01*
X63632Y6264D02*
X64264Y5632D01*
X63631Y6264D02*
X64264Y5631D01*
X62542Y8790D02*
X70830Y502D01*
X63723D02*
X68196Y4975D01*
X63260Y9508D02*
X68196Y4573D01*
X64264Y4368D02*
Y5632D01*
X70092Y3736D02*
X70724Y4368D01*
X68828Y3736D02*
X70092D01*
X68196Y4368D02*
X68828Y3736D01*
X65160Y502D02*
X68611Y3953D01*
X67315Y502D02*
X70959Y4145D01*
X68033Y502D02*
X71318Y3786D01*
X65878Y502D02*
X69112Y3736D01*
X66596Y502D02*
X69831Y3736D01*
X62567D02*
X65801Y502D01*
X63285Y3736D02*
X66519Y502D01*
X63632Y3736D02*
X64264Y4368D01*
X62368Y3736D02*
X63632D01*
X64264Y4912D02*
X68675Y502D01*
X64441D02*
X68252Y4312D01*
X64177Y4281D02*
X67956Y502D01*
X63818Y3922D02*
X67238Y502D01*
X61808Y13674D02*
X62384Y13098D01*
X61411Y13513D02*
X63586Y11338D01*
X61051Y13154D02*
X63226Y10979D01*
X60996Y13098D02*
X61572Y13674D01*
X59844Y13098D02*
X60996D01*
X60209Y7962D02*
X64998Y12751D01*
X60962Y7080D02*
X66440Y12558D01*
X58704Y13346D02*
X62149Y9901D01*
X60388Y13098D02*
X62867Y10620D01*
X57515Y13098D02*
X61430Y9183D01*
X58233Y13098D02*
X61790Y9542D01*
X56356Y13539D02*
X61071Y8824D01*
X55997Y13179D02*
X60712Y8464D01*
X57944Y6218D02*
X64874Y13148D01*
X53214Y5798D02*
X60514Y13098D01*
X53204D02*
X59958Y6344D01*
X55359Y13098D02*
X60353Y8105D01*
X61824Y8071D02*
X63631Y6264D01*
X61464Y7712D02*
X62912Y6264D01*
X60962D02*
Y7209D01*
Y6264D02*
X61092D01*
X61337Y6019D02*
X67317Y11998D01*
X61696Y5660D02*
X68035Y11998D01*
X61105Y7353D02*
X62281Y6177D01*
X60962Y6778D02*
X61922Y5818D01*
X60962Y6362D02*
X66799Y12199D01*
X60962Y7209D02*
X65751Y11998D01*
X59958Y7711D02*
X60209Y7962D01*
X59958Y7711D02*
X60209Y7962D01*
X58596Y6151D02*
X59958Y7514D01*
X58955Y5792D02*
X59958Y6795D01*
Y6264D02*
Y7209D01*
X59828Y6264D02*
X59958D01*
X55916Y13098D02*
X56492Y13674D01*
X56728D02*
X57304Y13098D01*
X53376D02*
X53952Y13674D01*
X54188D02*
X54764Y13098D01*
X59268Y13674D02*
X59844Y13098D01*
X53649Y13372D02*
X59958Y7063D01*
X58456Y13098D02*
X59032Y13674D01*
X52855Y6158D02*
X59820Y13123D01*
X51648Y13674D02*
X52224Y13098D01*
X49507Y6402D02*
X56754Y13649D01*
X49108Y13674D02*
X49684Y13098D01*
X50836D02*
X51412Y13674D01*
X51302Y13564D02*
X59215Y5651D01*
X52381Y6402D02*
X59461Y13482D01*
X50148Y6324D02*
X57113Y13289D01*
X50942Y13205D02*
X57929Y6218D01*
X59958Y7209D02*
Y7711D01*
Y7209D02*
Y7711D01*
X54764Y13098D02*
X55916D01*
X57304D02*
X58456D01*
X52486D02*
X59574Y6010D01*
X59196Y5632D02*
X59828Y6264D01*
X52611Y6402D02*
X53312Y5701D01*
X57311Y6218D02*
X58529D01*
X52224Y13098D02*
X53376D01*
X51662Y6402D02*
X58359Y13098D01*
X49684D02*
X50836D01*
X51209Y6402D02*
X52611D01*
X50331Y13098D02*
X57261Y6168D01*
X50507Y5965D02*
X57641Y13098D01*
X50071Y6402D02*
X50640Y5832D01*
X51209Y6402D01*
X61736Y4368D02*
Y5632D01*
X62368Y6264D01*
X61092Y3736D02*
X61724Y4368D01*
X61092Y6264D02*
X61724Y5632D01*
Y4368D02*
Y5632D01*
X61567Y502D02*
X74624Y13558D01*
X60849Y502D02*
X73446Y13098D01*
X62183Y8430D02*
X70112Y502D01*
X61736Y4368D02*
X62368Y3736D01*
X53312Y5177D02*
X61808Y13674D01*
X59138Y4538D02*
X59196Y4596D01*
X59138Y5257D02*
X59196Y5314D01*
X59138Y5009D02*
X59196Y4951D01*
X51510Y502D02*
X64515Y13507D01*
X50791Y502D02*
X63388Y13098D01*
X53312Y4459D02*
X62168Y13315D01*
X50073Y502D02*
X62669Y13098D01*
X59088Y4341D02*
X62927Y502D01*
X59412D02*
X62646Y3736D01*
X59196Y4368D02*
X59828Y3736D01*
X61092D01*
X61470Y4114D02*
X65083Y502D01*
X61111Y3755D02*
X64364Y502D01*
X60131D02*
X63365Y3736D01*
X60411D02*
X63646Y502D01*
X57492Y3782D02*
X60772Y502D01*
X57257D02*
X60491Y3736D01*
X55820Y502D02*
X59441Y4123D01*
X56538Y502D02*
X59800Y3763D01*
X58729Y3982D02*
X62209Y502D01*
X58694D02*
X62148Y3956D01*
X57975Y502D02*
X61789Y4315D01*
X58210Y3782D02*
X61490Y502D01*
X58529Y6218D02*
X59138Y5609D01*
Y4391D02*
Y5609D01*
X59196Y4368D02*
Y5632D01*
X58529Y3782D02*
X59138Y4391D01*
X56702Y5609D02*
X57311Y6218D01*
X56702Y4391D02*
X57311Y3782D01*
X53312Y4299D02*
Y5701D01*
X56702Y4391D02*
Y5609D01*
X53312Y5088D02*
X57898Y502D01*
X53312Y4370D02*
X57180Y502D01*
X52228D02*
X56702Y4976D01*
X52946Y502D02*
X56769Y4324D01*
X57311Y3782D02*
X58529D01*
X52629Y3616D02*
X55743Y502D01*
X52611Y3598D02*
X53312Y4299D01*
X51928Y3598D02*
X55025Y502D01*
X54383D02*
X57663Y3782D01*
X55102Y502D02*
X58382Y3782D01*
X52988Y3975D02*
X56462Y502D01*
X53665D02*
X57128Y3965D01*
X49054Y3598D02*
X52151Y502D01*
X51209Y3598D02*
X52611D01*
X50071D02*
X50640Y4168D01*
X51209Y3598D01*
X50281Y3809D02*
X53588Y502D01*
X51209Y3598D02*
X54306Y502D01*
X49354D02*
X52451Y3598D01*
X49773D02*
X52869Y502D01*
X48151Y78498D02*
X51296Y75354D01*
X47879Y75179D02*
X51198Y78498D01*
X48870D02*
X51847Y75522D01*
X46785D02*
X49762Y78498D01*
X47503Y75522D02*
X50480Y78498D01*
X47433D02*
X50937Y74994D01*
X48348Y74930D02*
X48940Y75522D01*
X47536D02*
X48112Y74946D01*
X48348D02*
X48924Y75522D01*
X45996Y78498D02*
X48973Y75522D01*
X46715Y78498D02*
X49691Y75522D01*
X44583Y75476D02*
X47606Y78498D01*
X46384Y75522D02*
X47536D01*
X45278Y78498D02*
X48589Y75187D01*
X45497Y74952D02*
X49043Y78498D01*
X45137Y75311D02*
X48325Y78498D01*
X44559D02*
X48348Y74709D01*
X48112Y74228D02*
X48348Y73991D01*
X48112Y73975D02*
X48348Y74212D01*
X48112Y73794D02*
Y74946D01*
Y74693D02*
X48348Y74930D01*
Y73794D02*
X48641Y73502D01*
X48357D02*
X48499Y73644D01*
X48348Y73794D02*
Y74946D01*
Y72406D02*
X48441Y72498D01*
X47819Y73502D02*
X48112Y73794D01*
X47969Y73652D02*
X48119Y73502D01*
X47819D02*
X48001D01*
X47819D02*
X48001D01*
X48641D01*
X48019Y72498D02*
X48441D01*
X47058Y73060D02*
X47216Y73218D01*
X48019Y72498D02*
X48112Y72406D01*
X45808Y74946D02*
X46384Y75522D01*
X45526Y74659D02*
X45808Y74376D01*
X45526Y74262D02*
X45808Y74545D01*
X44973Y75476D02*
X45526Y74923D01*
X45808Y73794D02*
Y74946D01*
X45526Y73940D02*
X46484Y72982D01*
X45526Y73817D02*
Y74923D01*
X43123Y78498D02*
X46242Y75379D01*
X43841Y78498D02*
X46818Y75522D01*
X42404Y78498D02*
X45883Y75020D01*
X43867Y75476D02*
X44973D01*
X43314Y74923D02*
X43867Y75476D01*
X43314Y73817D02*
Y74923D01*
X46966Y73218D02*
X47091Y73093D01*
X46384Y73218D02*
X47216D01*
X45808Y73794D02*
X46384Y73218D01*
Y72982D02*
X46979D01*
X47058Y73060D01*
X46979Y72982D02*
X47058Y73060D01*
X45304Y72604D02*
X46151Y73451D01*
X46400Y72982D02*
X46637Y73218D01*
X44973Y73264D02*
X45526Y73817D01*
X43867Y72936D02*
X44973D01*
X43314Y73817D02*
X43867Y73264D01*
X44973D01*
X44917Y72936D02*
X45808Y73827D01*
X45228Y73519D02*
X46075Y72672D01*
X44046Y73264D02*
X44375Y72936D01*
X44199D02*
X44528Y73264D01*
X47350Y70678D02*
X53027Y65002D01*
X46632Y70678D02*
X52309Y65002D01*
X47041D02*
X51788Y69748D01*
X45604Y65002D02*
X50590Y69987D01*
X46323Y65002D02*
X51069Y69748D01*
X48112Y71354D02*
X54464Y65002D01*
X47802Y70945D02*
X53746Y65002D01*
X47759D02*
X52506Y69748D01*
X48478Y65002D02*
X53225Y69748D01*
X45420Y71172D02*
X51590Y65002D01*
X45504Y61748D02*
X52738Y54514D01*
X45061Y70813D02*
X50872Y65002D01*
X44886D02*
X50231Y70347D01*
X44786Y61748D02*
X52174Y54360D01*
X45008Y54348D02*
X52409Y61748D01*
X42630D02*
X51696Y52683D01*
X44067Y61748D02*
X51815Y54001D01*
X47659Y61748D02*
X54894Y54514D01*
X48378Y61748D02*
X55612Y54514D01*
X46565Y54468D02*
X53846Y61748D01*
X47284Y54468D02*
X54564Y61748D01*
X47968Y53715D02*
X56001Y61748D01*
X47968Y52997D02*
X56719Y61748D01*
X46941D02*
X54522Y54168D01*
X47681Y54146D02*
X55283Y61748D01*
X44456Y54514D02*
X51690Y61748D01*
X46223D02*
X53457Y54514D01*
X42661Y54155D02*
X50254Y61748D01*
X43738Y54514D02*
X50972Y61748D01*
X43663Y47974D02*
X57438Y61748D01*
X44829Y48422D02*
X58156Y61748D01*
X43349D02*
X51696Y53401D01*
X45368Y53989D02*
X53127Y61748D01*
X48112Y72073D02*
X48348Y71836D01*
X48112Y71820D02*
X48348Y72056D01*
X45808Y72406D02*
X46384Y72982D01*
X45808Y72390D02*
X46400Y72982D01*
X48112Y71254D02*
Y72406D01*
X48348Y71254D02*
Y72406D01*
X45808Y71254D02*
Y72406D01*
X45526Y71785D02*
X45808Y71502D01*
X44973Y72936D02*
X45526Y72383D01*
X43314D02*
X43867Y72936D01*
X44764Y73264D02*
X45808Y72220D01*
X45526Y72107D02*
X45808Y72390D01*
X43314Y71277D02*
Y72383D01*
X45526Y71277D02*
Y72383D01*
Y71389D02*
X45808Y71672D01*
Y71254D02*
X46384Y70678D01*
X44973Y70724D02*
X45526Y71277D01*
X48348Y71254D02*
X48924Y70678D01*
X44431Y70724D02*
X50154Y65002D01*
X47536Y70678D02*
X48112Y71254D01*
X46384Y70678D02*
X47536D01*
X42012Y65002D02*
X48348Y71338D01*
X43867Y70724D02*
X44973D01*
X43314Y71277D02*
X43867Y70724D01*
X44167Y65002D02*
X49844Y70678D01*
X42301Y54514D02*
X49535Y61748D01*
X42731Y65002D02*
X48666Y70937D01*
X43449Y65002D02*
X49126Y70678D01*
X40967Y78498D02*
X43990Y75476D01*
X40249Y78498D02*
X43569Y75178D01*
X41686Y78498D02*
X44708Y75476D01*
X28732Y73992D02*
X33238Y78498D01*
X28298Y72840D02*
X33956Y78498D01*
X26599D02*
X40096Y65002D01*
X38094Y78498D02*
X43762Y72830D01*
X28657Y72481D02*
X34675Y78498D01*
X28732Y71837D02*
X35393Y78498D01*
X24052Y65002D02*
X37548Y78498D01*
X4496D02*
X94505D01*
X22615Y65002D02*
X36112Y78498D01*
X23333Y65002D02*
X36830Y78498D01*
X25880D02*
X39377Y65002D01*
X26207D02*
X39704Y78498D01*
X24770Y65002D02*
X38267Y78498D01*
X25488Y65002D02*
X38985Y78498D01*
X36657D02*
X43314Y71841D01*
X37375Y78498D02*
X43403Y72471D01*
X39530Y78498D02*
X43314Y74714D01*
X38812Y78498D02*
X43314Y73996D01*
X28362Y65002D02*
X41859Y78498D01*
X41294Y65002D02*
X46971Y70678D01*
X28580Y73643D02*
X37222Y65002D01*
X28414Y70936D02*
X34348Y65002D01*
X27317Y78498D02*
X40814Y65002D01*
X15751D02*
X88499D01*
X26925D02*
X40422Y78498D01*
X27235Y70678D02*
X32912Y65002D01*
X27644D02*
X41140Y78498D01*
X28036D02*
X41533Y65002D01*
X28221Y73284D02*
X36504Y65002D01*
X27953Y70678D02*
X33630Y65002D01*
X28106Y75522D02*
X31083Y78498D01*
X28490Y75187D02*
X31801Y78498D01*
X27387Y75522D02*
X30364Y78498D01*
X28156Y75522D02*
X28732Y74946D01*
Y74711D02*
X32519Y78498D01*
X28156Y73218D02*
X28732Y73794D01*
X28139Y75522D02*
X28732Y74929D01*
Y73794D02*
Y74946D01*
X25162Y78498D02*
X28139Y75522D01*
X25232D02*
X28209Y78498D01*
X24444D02*
X27420Y75522D01*
X24514D02*
X27490Y78498D01*
X25783Y75354D02*
X28927Y78498D01*
X26142Y74995D02*
X29646Y78498D01*
X27004Y75522D02*
X28156D01*
X26192Y72171D02*
X27239Y73218D01*
X27004D02*
X28156D01*
X27004Y72982D02*
X28156D01*
X27568Y73218D02*
X27805Y72982D01*
X27721D02*
X27958Y73218D01*
X28732Y71254D02*
Y72406D01*
X28156Y70678D02*
X28732Y71254D01*
X28156Y72982D02*
X28732Y72406D01*
X27004Y70678D02*
X28156D01*
X23359Y70962D02*
X29319Y65002D01*
X22924Y70678D02*
X28601Y65002D01*
X21896D02*
X27573Y70678D01*
X22206D02*
X27883Y65002D01*
X26066Y71129D02*
X32193Y65002D01*
X25707Y70769D02*
X31475Y65002D01*
X23652Y71388D02*
X30038Y65002D01*
X25079Y70678D02*
X30756Y65002D01*
X33783Y78498D02*
X47280Y65002D01*
X33391D02*
X46888Y78498D01*
X34501D02*
X47998Y65002D01*
X33065Y78498D02*
X46561Y65002D01*
X34828D02*
X43479Y73653D01*
X35220Y78498D02*
X48717Y65002D01*
X35938Y78498D02*
X49435Y65002D01*
X35546D02*
X43838Y73293D01*
X36265Y65002D02*
X43314Y72051D01*
X30909Y78498D02*
X44406Y65002D01*
X31236D02*
X44733Y78498D01*
X30191D02*
X43688Y65002D01*
X30517D02*
X44014Y78498D01*
X32346D02*
X45843Y65002D01*
X32673D02*
X46169Y78498D01*
X31628D02*
X45125Y65002D01*
X31954D02*
X45451Y78498D01*
X39857Y65002D02*
X45959Y71104D01*
X40575Y65002D02*
X46318Y70744D01*
X38420Y65002D02*
X44143Y70724D01*
X39138Y65002D02*
X44861Y70724D01*
X41194Y61748D02*
X54642Y48300D01*
X41912Y61748D02*
X55239Y48422D01*
X41583Y54514D02*
X48817Y61748D01*
X40475D02*
X54283Y47940D01*
X37601Y61748D02*
X44836Y54514D01*
X38320Y61748D02*
X45871Y54198D01*
X36983Y65002D02*
X43314Y71333D01*
X37702Y65002D02*
X43646Y70946D01*
X32616Y48422D02*
X45943Y61748D01*
X34772Y48422D02*
X48098Y61748D01*
X31136D02*
X44533Y48351D01*
X36548Y53072D02*
X45225Y61748D01*
X28754Y78498D02*
X42251Y65002D01*
X29081D02*
X42577Y78498D01*
X28732Y72055D02*
X35785Y65002D01*
X28732Y71337D02*
X35067Y65002D01*
X29799D02*
X43296Y78498D01*
X34109Y65002D02*
X43314Y74207D01*
X29473Y78498D02*
X42969Y65002D01*
X28810Y61748D02*
X28956Y61603D01*
X28732Y74929D02*
X38659Y65002D01*
X28732Y74210D02*
X37940Y65002D01*
X27544Y61748D02*
X27617Y61675D01*
X17251Y61748D02*
X27690D01*
X27544Y61603D02*
X27690Y61748D01*
X20359D02*
X28986Y53122D01*
X15252Y49736D02*
X27264Y61748D01*
X26825D02*
X27544Y61029D01*
X32961Y54514D02*
X40196Y61748D01*
X34009D02*
X41244Y54514D01*
X28956Y61285D02*
X29419Y61748D01*
X32243Y54514D02*
X39477Y61748D01*
X33291D02*
X40782Y54258D01*
X33551Y54385D02*
X40914Y61748D01*
X31854D02*
X40406Y53197D01*
X32573Y61748D02*
X40422Y53899D01*
X22515Y61748D02*
X29749Y54514D01*
X23233Y61748D02*
X30467Y54514D01*
X21078Y61748D02*
X28986Y53840D01*
X21796Y61748D02*
X29324Y54220D01*
X17486Y61748D02*
X31358Y47876D01*
X24022Y49886D02*
X35885Y61748D01*
X15252Y46862D02*
X30138Y61748D01*
X15252Y46144D02*
X30856Y61748D01*
X47359Y54468D02*
X47968Y53859D01*
Y52641D02*
Y53859D01*
X46141Y54468D02*
X47359D01*
X45548Y48422D02*
X58875Y61748D01*
X47968Y53537D02*
X53084Y48422D01*
X47968Y52819D02*
X52365Y48422D01*
X39038Y61748D02*
X46319Y54468D01*
X39757Y61748D02*
X47037Y54468D01*
X45532Y53859D02*
X46141Y54468D01*
X45474Y53876D02*
X45532Y53818D01*
Y52641D02*
Y53859D01*
X45474Y52658D02*
X45532Y52716D01*
X45474Y53377D02*
X45532Y53435D01*
X45474Y53157D02*
X45532Y53100D01*
X47359Y52032D02*
X47968Y52641D01*
X46600Y52032D02*
X50210Y48422D01*
X46141Y52032D02*
X47359D01*
X48359Y48359D02*
X52157Y52157D01*
X48359Y48359D02*
X52157Y52157D01*
X47703Y48422D02*
X51798Y52516D01*
X47144Y48422D02*
X48296D01*
X42674D02*
X46285Y52032D01*
X43772Y51986D02*
X47336Y48422D01*
X44802Y51986D02*
X45474Y52658D01*
X45532Y52641D02*
X46141Y52032D01*
X45385Y52528D02*
X49588Y48325D01*
X44490Y51986D02*
X48055Y48422D01*
X43304Y48333D02*
X47003Y52032D01*
X44604Y48422D02*
X45756D01*
X43578Y54514D02*
X44842D01*
X42946Y53882D02*
X43578Y54514D01*
X44842D02*
X45474Y53882D01*
X41038Y54514D02*
X42302D01*
X42934Y53882D01*
X44836Y54514D02*
X45474Y53876D01*
Y52618D02*
Y53882D01*
X42934Y52618D02*
Y53882D01*
X42946Y52618D02*
Y53882D01*
X36223Y54184D02*
X43788Y61748D01*
X36883D02*
X44117Y54514D01*
X36165Y61748D02*
X43488Y54425D01*
X40406Y53882D02*
X41038Y54514D01*
X36548Y53790D02*
X44506Y61748D01*
X40406Y52618D02*
Y53882D01*
X35939Y54468D02*
X36548Y53859D01*
Y52641D02*
Y53859D01*
X42946Y52618D02*
X43578Y51986D01*
X44842D01*
X42302D02*
X42934Y52618D01*
X41038Y51986D02*
X42302D01*
X44842D02*
X45474Y52618D01*
X41617Y51986D02*
X45181Y48422D01*
X40519D02*
X44083Y51986D01*
X42064Y48422D02*
X43216D01*
X40406Y52618D02*
X41038Y51986D01*
X36240Y52333D02*
X40152Y48422D01*
X35939Y52032D02*
X36548Y52641D01*
X36984Y48422D02*
X38136D01*
X39801D02*
X43471Y52092D01*
X38250Y48308D02*
X41928Y51986D01*
X37645Y48422D02*
X41210Y51986D01*
X39524Y48422D02*
X40676D01*
X47698Y52371D02*
X51935Y48133D01*
X46011Y48166D02*
X51696Y53851D01*
X48718Y47999D02*
X52641Y51922D01*
X45756Y48422D02*
X46332Y47846D01*
X46568D02*
X47144Y48422D01*
X46332Y47768D02*
X51696Y53133D01*
X47318Y52032D02*
X51648Y47701D01*
X48296Y48422D02*
X48872Y47846D01*
X46332Y46694D02*
Y47846D01*
X42678Y52362D02*
X46881Y48158D01*
X45025Y52169D02*
X49229Y47966D01*
X40957Y48141D02*
X44802Y51986D01*
X43216Y48422D02*
X43792Y47846D01*
X41252Y47717D02*
X45854Y52319D01*
X42319Y52002D02*
X46568Y47753D01*
X44028Y47846D02*
X44604Y48422D01*
X43792Y46694D02*
Y47846D01*
X46568Y46694D02*
Y47846D01*
X46332Y47271D02*
X46568Y47034D01*
X46332Y47050D02*
X46568Y47287D01*
X45756Y46118D02*
X46332Y46694D01*
X48274Y46118D02*
X48872Y46716D01*
X48296Y46118D02*
X48872Y46694D01*
X46568D02*
X47144Y46118D01*
X48296D01*
X44028Y46694D02*
Y47846D01*
X43792Y46937D02*
X44028Y46701D01*
X43792Y47656D02*
X44028Y47419D01*
X43792Y47384D02*
X44028Y47621D01*
Y46701D02*
X44611Y46118D01*
X44604D02*
X45756D01*
X43216D02*
X43792Y46694D01*
X44028D02*
X44604Y46118D01*
X38609Y47948D02*
X43112Y52452D01*
X41488Y47846D02*
X42064Y48422D01*
X38948Y47846D02*
X39524Y48422D01*
X40676D02*
X41252Y47846D01*
Y46694D02*
Y47846D01*
X41488Y46694D02*
Y47846D01*
X38712Y46694D02*
Y47846D01*
X38948Y46694D02*
Y47846D01*
X36548Y53462D02*
X41827Y48184D01*
X35902Y48115D02*
X40406Y52619D01*
X36408Y47846D02*
X36984Y48422D01*
X38136D02*
X38712Y47846D01*
X36548Y52744D02*
X41488Y47804D01*
X36172Y47666D02*
X40765Y52259D01*
X36172Y46694D02*
Y47846D01*
X36408Y46694D02*
Y47846D01*
X41252Y47322D02*
X41488Y47085D01*
X41252Y46999D02*
X41488Y47236D01*
X38948Y46752D02*
X39582Y46118D01*
X38948Y46694D02*
X39524Y46118D01*
X41488Y46694D02*
X42064Y46118D01*
X43216D01*
X40676D02*
X41252Y46694D01*
X39524Y46118D02*
X40676D01*
X38712Y47707D02*
X38948Y47470D01*
X38712Y47333D02*
X38948Y47569D01*
X36172Y47373D02*
X36408Y47136D01*
X36172Y46948D02*
X36408Y47185D01*
X38712Y46988D02*
X38948Y46752D01*
X38136Y46118D02*
X38712Y46694D01*
X36408D02*
X36984Y46118D01*
X38136D01*
X35071Y54468D02*
X42351Y61748D01*
X34728D02*
X41962Y54514D01*
X35789Y54468D02*
X43069Y61748D01*
X30806Y54514D02*
X38041Y61748D01*
X31203Y54193D02*
X38759Y61748D01*
X33910Y54026D02*
X41633Y61748D01*
X35446D02*
X43129Y54065D01*
X33422Y54514D02*
X34054Y53882D01*
X33341Y54514D02*
X34054Y53801D01*
X30088Y54514D02*
X37322Y61748D01*
X28810D02*
X66709D01*
X28956Y61055D02*
X35542Y54468D01*
X28675Y60617D02*
X34824Y54468D01*
X28981Y61748D02*
X42307Y48422D01*
X29699Y61748D02*
X43026Y48422D01*
X24741Y49886D02*
X36604Y61748D01*
X28029Y60544D02*
X34413Y54160D01*
X34721Y54468D02*
X35939D01*
X34112Y52641D02*
Y53859D01*
X34721Y52032D02*
X35939D01*
X34112Y52641D02*
X34721Y52032D01*
X34112Y53859D02*
X34721Y54468D01*
X34054Y53083D02*
X34112Y53025D01*
X34054Y53801D02*
X34112Y53743D01*
X34054Y53451D02*
X34112Y53509D01*
X34054Y52733D02*
X34112Y52791D01*
X31220Y52324D02*
X35123Y48422D01*
X34054Y52618D02*
Y53882D01*
X33422Y51986D02*
X34054Y52618D01*
X28956Y60897D02*
Y61603D01*
X28986Y53882D02*
X29618Y54514D01*
X30882D01*
X28603Y60544D02*
X28956Y60897D01*
X27897Y60544D02*
X28603D01*
X25388Y61748D02*
X32623Y54514D01*
X27544Y60897D02*
Y61603D01*
Y60897D02*
X27897Y60544D01*
X24670Y61748D02*
X32031Y54387D01*
X26107Y61748D02*
X33341Y54514D01*
X23952Y61748D02*
X31672Y54028D01*
X15252Y49017D02*
X27544Y61310D01*
X31526Y53797D02*
X32243Y54514D01*
X32158D02*
X33422D01*
X31526Y53882D02*
X32158Y54514D01*
X31514Y52618D02*
Y53882D01*
X31526Y52618D02*
X32158Y51986D01*
X33422D01*
X31526Y52618D02*
Y53882D01*
X30882Y51986D02*
X31514Y52618D01*
X30882Y54514D02*
X31514Y53882D01*
X29618Y51986D02*
X30882D01*
X28986Y52618D02*
Y53882D01*
Y52618D02*
X29618Y51986D01*
X25606Y48595D02*
X29307Y52297D01*
X29364Y48422D02*
X30516D01*
X25256Y49682D02*
X28986Y53412D01*
X25606Y49313D02*
X28986Y52694D01*
X35490Y48422D02*
X40406Y53337D01*
X33195Y48282D02*
X46662Y61748D01*
X35823Y52032D02*
X39479Y48376D01*
X33927Y52491D02*
X37997Y48422D01*
X33568Y52132D02*
X37278Y48422D01*
X33554Y47923D02*
X47380Y61748D01*
X35105Y52032D02*
X39120Y48017D01*
X32277Y51986D02*
X36413Y47850D01*
X32996Y51986D02*
X36772Y48209D01*
X30848Y48090D02*
X34790Y52032D01*
X30840Y51986D02*
X34424Y48402D01*
X30461Y48422D02*
X34396Y52357D01*
X29743Y48422D02*
X33307Y51986D01*
X30417Y61748D02*
X44174Y47992D01*
X31092Y47615D02*
X35508Y52032D01*
X15252Y43270D02*
X33730Y61748D01*
X30122Y51986D02*
X34065Y48043D01*
X34444Y48422D02*
X35596D01*
X36172Y47846D01*
X33868D02*
X34444Y48422D01*
X33632Y47039D02*
X33868Y46803D01*
X35596Y46118D02*
X36172Y46694D01*
X34444Y46118D02*
X35596D01*
X33868Y46694D02*
Y47846D01*
Y46694D02*
X34444Y46118D01*
X32968Y48422D02*
X33632Y47758D01*
X33868Y47521D01*
X31904Y48422D02*
X33056D01*
X33632Y47846D01*
Y47282D02*
X33868Y47518D01*
X33056Y46118D02*
X33632Y46694D01*
Y47846D01*
X31904Y46118D02*
X33056D01*
X18923Y61748D02*
X32249Y48422D01*
X19641Y61748D02*
X32968Y48422D01*
X17009Y61507D02*
X30094Y48422D01*
X16650Y61147D02*
X29376Y48422D01*
X18204Y61748D02*
X31718Y48235D01*
X25606Y45721D02*
X32014Y52130D01*
X25606Y46440D02*
X31655Y52489D01*
X25064Y47335D02*
X29715Y51986D01*
X16291Y60788D02*
X29011Y48068D01*
X15931Y60429D02*
X28788Y47572D01*
X15252Y48299D02*
X27697Y60744D01*
X15252Y47581D02*
X28215Y60544D01*
X15252Y44707D02*
X32293Y61748D01*
X15252Y43988D02*
X33012Y61748D01*
X15252Y45425D02*
X31575Y61748D01*
X15572Y60070D02*
X28788Y46854D01*
X31328Y47846D02*
X31904Y48422D01*
X31092Y46897D02*
X31328Y47134D01*
X30516Y48422D02*
X31092Y47846D01*
Y47424D02*
X31328Y47187D01*
Y46694D02*
Y47846D01*
Y46694D02*
X31904Y46118D01*
X31092Y46694D02*
Y47846D01*
X30516Y46118D02*
X31092Y46694D01*
X25423Y46976D02*
X30433Y51986D01*
X28788Y46694D02*
X29364Y46118D01*
X28788Y47846D02*
X29364Y48422D01*
X28788Y46694D02*
Y47846D01*
X25231Y44628D02*
X32589Y51986D01*
X29364Y46118D02*
X30516D01*
X25590Y44269D02*
X28788Y47467D01*
X25606Y43566D02*
X28788Y46749D01*
X23436Y75162D02*
X26772Y78498D01*
X23076Y75521D02*
X26054Y78498D01*
X23725D02*
X26853Y75370D01*
X23076Y75522D02*
X23652Y74946D01*
X24464Y75522D02*
X25616D01*
X26192Y74946D01*
X26428D02*
X27004Y75522D01*
X23888Y74946D02*
X24464Y75522D01*
X23888Y74896D02*
X24514Y75522D01*
X22288Y78498D02*
X25265Y75522D01*
X22358D02*
X25335Y78498D01*
X20729Y75329D02*
X23898Y78498D01*
X21570D02*
X24547Y75522D01*
X21088Y74969D02*
X24617Y78498D01*
X23007D02*
X26494Y75011D01*
X20133Y78498D02*
X23888Y74743D01*
X20851Y78498D02*
X24146Y75204D01*
X26428Y73794D02*
Y74946D01*
X26192Y74326D02*
X26428Y74563D01*
X26192Y73794D02*
Y74946D01*
Y74595D02*
X26428Y74358D01*
X25616Y73218D02*
X26192Y73794D01*
X26428D02*
X27004Y73218D01*
X24695D02*
X24932Y72982D01*
X24847D02*
X25084Y73218D01*
X23652Y74262D02*
X23888Y74025D01*
X23652Y73941D02*
X23888Y74178D01*
X23652Y73794D02*
Y74946D01*
Y74660D02*
X23888Y74896D01*
Y73794D02*
X24464Y73218D01*
X25616D01*
X23888Y73794D02*
Y74946D01*
X23076Y73218D02*
X23652Y73794D01*
X20203Y75522D02*
X23180Y78498D01*
X19485Y75522D02*
X22462Y78498D01*
X21924Y75522D02*
X23076D01*
X19415Y78498D02*
X22392Y75522D01*
X19384D02*
X20536D01*
X21348Y74946D02*
X21924Y75522D01*
X21348Y73794D02*
Y74946D01*
X20536Y75522D02*
X21112Y74946D01*
Y73794D02*
Y74946D01*
X18347Y75102D02*
X21743Y78498D01*
X18696D02*
X21799Y75396D01*
X17987Y75461D02*
X21025Y78498D01*
X17978D02*
X21439Y75037D01*
X18808Y74946D02*
X19384Y75522D01*
X18808Y73794D02*
Y74946D01*
X17973Y75476D02*
X18526Y74923D01*
Y73817D02*
Y74923D01*
X21112Y74275D02*
X21348Y74512D01*
Y73794D02*
X21924Y73218D01*
X21112Y74646D02*
X21348Y74409D01*
X20536Y73218D02*
X21112Y73794D01*
X21924Y73218D02*
X23076D01*
X21924Y72982D02*
X23076D01*
X21112Y73928D02*
X22058Y72982D01*
X19666Y73218D02*
X19903Y72982D01*
X18526Y74359D02*
X18808Y74076D01*
X18526Y73844D02*
X18808Y74127D01*
X18526Y74562D02*
X18808Y74845D01*
Y73794D02*
X19384Y73218D01*
X20536D01*
X17946Y73264D02*
X18526Y73844D01*
X17973Y73264D02*
X18526Y73817D01*
X26192Y73877D02*
X27087Y72982D01*
X25874Y73476D02*
X26686Y72664D01*
X25950Y72647D02*
X26763Y73460D01*
X25566Y72982D02*
X26428Y73844D01*
X24464Y72982D02*
X25616D01*
X25413Y73218D02*
X26428Y72203D01*
Y72406D02*
X27004Y72982D01*
X25616D02*
X26192Y72406D01*
Y71254D02*
Y72406D01*
X23526Y73669D02*
X24339Y72856D01*
X23602Y72455D02*
X24415Y73268D01*
X23243Y72814D02*
X24056Y73627D01*
X23167Y73309D02*
X23979Y72497D01*
X23888Y72406D02*
X24464Y72982D01*
X23888Y71254D02*
Y72406D01*
X23076Y72982D02*
X23652Y72406D01*
Y71254D02*
Y72406D01*
X26192Y71722D02*
X26428Y71485D01*
X26192Y71452D02*
X26428Y71689D01*
X23652Y72106D02*
X23888Y71869D01*
X23652Y71786D02*
X23888Y72023D01*
X26428Y71254D02*
Y72406D01*
Y71254D02*
X27004Y70678D01*
X23888Y71254D02*
X24464Y70678D01*
X25616D02*
X26192Y71254D01*
X18526Y71485D02*
X25009Y65002D01*
X18270Y71022D02*
X24290Y65002D01*
X23076Y70678D02*
X23652Y71254D01*
X18304Y65002D02*
X24223Y70920D01*
X21012Y71154D02*
X27164Y65002D01*
X21178D02*
X26929Y70753D01*
X20459Y65002D02*
X26570Y71112D01*
X20652Y70795D02*
X26446Y65002D01*
X22539Y73218D02*
X22776Y72982D01*
X22692D02*
X22929Y73218D01*
X20536Y72981D02*
X21349Y73794D01*
X21974Y72982D02*
X22210Y73218D01*
X20896Y72622D02*
X21708Y73434D01*
X21348Y72406D02*
X21924Y72982D01*
X20819Y73502D02*
X21632Y72689D01*
X20536Y72982D02*
X21112Y72406D01*
X19818Y72982D02*
X20055Y73218D01*
X19384Y72982D02*
X20536D01*
X18437Y73729D02*
X19284Y72882D01*
X18154Y72754D02*
X19001Y73601D01*
X20384Y73218D02*
X21348Y72254D01*
X18808Y72406D02*
X19384Y72982D01*
X18078Y73369D02*
X18925Y72522D01*
X18513Y72395D02*
X19361Y73242D01*
X21348Y72356D02*
X21974Y72982D01*
X21112Y71401D02*
X21348Y71638D01*
X21112Y72120D02*
X21348Y72356D01*
X21112Y71773D02*
X21348Y71536D01*
Y71254D02*
Y72406D01*
Y71254D02*
X21924Y70678D01*
X21112Y71254D02*
Y72406D01*
X20536Y70678D02*
X21112Y71254D01*
X18526Y72203D02*
X18808Y71921D01*
X18526Y71689D02*
X18808Y71972D01*
X17973Y72936D02*
X18526Y72383D01*
X18808Y71254D02*
Y72406D01*
Y71254D02*
X19384Y70678D01*
X18526Y71277D02*
Y72383D01*
X17973Y70724D02*
X18526Y71277D01*
X17259Y78498D02*
X20236Y75522D01*
X16541Y78498D02*
X19518Y75522D01*
X17283Y75476D02*
X20306Y78498D01*
X13667D02*
X16779Y75387D01*
X15823Y78498D02*
X19092Y75229D01*
X10794Y78498D02*
X16612Y72680D01*
X15104Y78498D02*
X18808Y74794D01*
X12231Y78498D02*
X16314Y74415D01*
X12949Y78498D02*
X16419Y75028D01*
X7567Y76535D02*
X9530Y78498D01*
X7902Y76152D02*
X10248Y78498D01*
X6849Y77254D02*
X8093Y78498D01*
X7208Y76895D02*
X8812Y78498D01*
X7902Y73996D02*
X12404Y78498D01*
X7902Y73278D02*
X13122Y78498D01*
X7902Y75433D02*
X10967Y78498D01*
X7902Y74715D02*
X11685Y78498D01*
X16867Y73264D02*
X17973D01*
X16867Y75476D02*
X17973D01*
X17617Y72936D02*
X17946Y73264D01*
X16867Y72936D02*
X17973D01*
X16899D02*
X17228Y73264D01*
X17465D02*
X17793Y72936D01*
X14386Y78498D02*
X17409Y75476D01*
X16314Y74923D02*
X16867Y75476D01*
X16314Y73817D02*
Y74923D01*
X11512Y78498D02*
X17075Y72936D01*
X16314Y72351D02*
X16899Y72936D01*
X16314Y73817D02*
X16867Y73264D01*
X16314Y72383D02*
X16867Y72936D01*
X4623Y77902D02*
X5219Y78498D01*
X5046D02*
X5643Y77902D01*
X3904D02*
X4501Y78498D01*
X4331Y78495D02*
X4925Y77902D01*
X6489Y77613D02*
X7375Y78498D01*
X6201Y77902D02*
X7902Y76201D01*
X5341Y77902D02*
X5938Y78498D01*
X6059Y77902D02*
X6656Y78498D01*
X3692Y78416D02*
X4206Y77902D01*
X2799D02*
X6201D01*
X3186D02*
X3702Y78418D01*
X3132Y78257D02*
X3488Y77902D01*
X1098Y76201D02*
X2799Y77902D01*
X2634Y78037D02*
X2784Y77887D01*
X1001Y76436D02*
X2564Y77999D01*
X2189Y77763D02*
X2425Y77528D01*
X1792Y77442D02*
X2066Y77168D01*
X1441Y77075D02*
X1707Y76809D01*
X1136Y76661D02*
X1347Y76450D01*
X1098Y72799D02*
Y76201D01*
X7902Y72799D02*
Y76201D01*
X880Y76199D02*
X1098Y75981D01*
X680Y75681D02*
X1098Y75262D01*
X502Y74499D02*
X1098Y75096D01*
X502Y74422D02*
X1098Y73825D01*
X582Y75298D02*
X1098Y75814D01*
X546Y75096D02*
X1098Y74544D01*
X502Y73062D02*
X1098Y73659D01*
X502Y72344D02*
X1098Y72941D01*
X502Y73781D02*
X1098Y74377D01*
X502Y73704D02*
X1098Y73107D01*
X6483Y78498D02*
X19980Y65002D01*
X5765Y78498D02*
X19262Y65002D01*
X7202Y78498D02*
X20698Y65002D01*
X7902Y75643D02*
X18543Y65002D01*
X7902Y74925D02*
X17825Y65002D01*
X7920Y78498D02*
X21417Y65002D01*
X8638Y78498D02*
X22135Y65002D01*
X7902Y74206D02*
X17106Y65002D01*
X7902Y73488D02*
X16388Y65002D01*
X502Y60849D02*
X18151Y78498D01*
X502Y60131D02*
X18869Y78498D01*
X502Y62286D02*
X16714Y78498D01*
X502Y61567D02*
X17433Y78498D01*
X502Y59412D02*
X19588Y78498D01*
X502Y57257D02*
X16688Y73443D01*
X502Y58694D02*
X16314Y74507D01*
X502Y57975D02*
X16329Y73803D01*
X16314Y71277D02*
Y72383D01*
X17586Y65002D02*
X23888Y71304D01*
X16149Y65002D02*
X21875Y70728D01*
X16314Y71277D02*
X16867Y70724D01*
X17973D01*
X15431Y65002D02*
X21516Y71087D01*
X8061Y61224D02*
X17561Y70724D01*
X7104Y61704D02*
X16496Y71096D01*
X7702Y61583D02*
X16855Y70737D01*
X8164Y60608D02*
X18809Y71254D01*
X7437Y59164D02*
X19168Y70894D01*
X502Y56538D02*
X16314Y72351D01*
X502Y55820D02*
X16314Y71633D01*
X10075Y78498D02*
X16314Y72259D01*
X9357Y78498D02*
X16314Y71541D01*
X1098Y72799D02*
X2799Y71098D01*
X6201D02*
X7902Y72799D01*
X7887Y72784D02*
X15669Y65002D01*
X7528Y72425D02*
X15100Y64853D01*
X7168Y72066D02*
X14741Y64493D01*
X502Y70188D02*
X2105Y71792D01*
X502Y65160D02*
X13840Y78498D01*
X502Y64441D02*
X14559Y78498D01*
X502Y71625D02*
X1387Y72511D01*
X502Y70907D02*
X1746Y72151D01*
X502Y63723D02*
X15277Y78498D01*
X502Y63004D02*
X15996Y78498D01*
X502Y72985D02*
X11998Y61488D01*
X502Y72267D02*
X11065Y61704D01*
X6809Y71707D02*
X14382Y64134D01*
X6450Y71347D02*
X14022Y63775D01*
X2799Y71098D02*
X6201D01*
X5981D02*
X13663Y63416D01*
X4544Y71098D02*
X12945Y62697D01*
X5262Y71098D02*
X13304Y63056D01*
X3107Y71098D02*
X12226Y61979D01*
X3825Y71098D02*
X12586Y62338D01*
X502Y68033D02*
X3567Y71098D01*
X502Y67315D02*
X4285Y71098D01*
X502Y69470D02*
X2465Y71433D01*
X502Y68752D02*
X2848Y71098D01*
X502Y71548D02*
X10382Y61668D01*
X502Y70830D02*
X10023Y61308D01*
X502Y66596D02*
X5004Y71098D01*
X502Y65878D02*
X5722Y71098D01*
X21924Y70678D02*
X23076D01*
X17131Y70724D02*
X22854Y65002D01*
X24464Y70678D02*
X25616D01*
X19384D02*
X20536D01*
X16867Y65002D02*
X22544Y70678D01*
X19741Y65002D02*
X25418Y70678D01*
X20051D02*
X25727Y65002D01*
X17849Y70724D02*
X23572Y65002D01*
X19023D02*
X24699Y70678D01*
X15249Y65002D02*
X15751D01*
X15249D02*
X15751D01*
X14998Y64751D02*
X15249Y65002D01*
X14998Y64751D02*
X15249Y65002D01*
X10696Y61704D02*
X19670Y70678D01*
X11414Y61704D02*
X20389Y70678D01*
X12249Y62002D02*
X14998Y64751D01*
X11998Y61751D02*
X12249Y62002D01*
X15252Y58357D02*
X18643Y61748D01*
X15252Y57638D02*
X19362Y61748D01*
X15252Y59749D02*
X17251Y61748D01*
X15252Y59075D02*
X17925Y61748D01*
X15252Y55483D02*
X21517Y61748D01*
X15252Y54765D02*
X22235Y61748D01*
X15252Y56920D02*
X20080Y61748D01*
X15252Y56202D02*
X20798Y61748D01*
X11998Y61751D02*
X12249Y62002D01*
X11998Y58747D02*
Y59793D01*
X11665Y59081D02*
X11998Y59414D01*
X11582Y59164D02*
X11998Y58747D01*
X11582Y56624D02*
X11998Y56207D01*
X11832Y56374D02*
X11998Y56541D01*
X11582Y56836D02*
X11998Y57253D01*
X11602Y56856D02*
X11998Y56459D01*
Y61287D02*
Y61751D01*
Y61287D02*
Y61751D01*
X11582Y61704D02*
X11998Y61287D01*
X11857Y61428D02*
X11998Y61569D01*
X11582Y59376D02*
X11998Y59793D01*
X11768Y59563D02*
X11998Y59333D01*
X10518Y59376D02*
X10731Y59164D01*
X11029D02*
X11242Y59376D01*
X9836Y61122D02*
X10418Y61704D01*
X11582D01*
X8164Y59958D02*
Y61122D01*
X9836Y59958D02*
Y61122D01*
X8164Y61013D02*
X10215Y58961D01*
X9836Y59958D02*
X10418Y59376D01*
X8164Y60294D02*
X9856Y58602D01*
X8164Y57735D02*
X10112Y59683D01*
X10418Y56836D02*
X11582D01*
X10418Y56624D02*
X11582D01*
X11237Y59376D02*
X11450Y59164D01*
X10645Y56624D02*
X10857Y56836D01*
X11998Y56207D02*
Y57253D01*
X11794Y54509D02*
X11998Y54304D01*
X10903Y56836D02*
X11116Y56624D01*
X11363D02*
X11576Y56836D01*
X10418Y59376D02*
X11582D01*
X10418Y59164D02*
X11582D01*
X9836Y58582D02*
X10418Y59164D01*
X8164Y57418D02*
Y58582D01*
X9836Y57418D02*
X10418Y56836D01*
X9836Y56042D02*
X10418Y56624D01*
X9836Y57418D02*
Y58582D01*
Y54878D02*
Y56042D01*
X25053Y49886D02*
X25606Y49333D01*
X25038Y49886D02*
X25606Y49318D01*
Y48227D02*
Y49333D01*
X25053Y47674D02*
X25606Y48227D01*
X23947Y47674D02*
X25053D01*
X24356Y47346D02*
X24685Y47674D01*
X24376D02*
X24704Y47346D01*
X15252Y51173D02*
X25827Y61748D01*
X15252Y50454D02*
X26546Y61748D01*
X15252Y52610D02*
X24390Y61748D01*
X15252Y51891D02*
X25109Y61748D01*
X15252Y59672D02*
X25038Y49886D01*
X23947D02*
X25053D01*
X15252Y58954D02*
X24320Y49886D01*
X23394Y49258D02*
X24022Y49886D01*
X25606Y45687D02*
Y46793D01*
X25019Y45134D02*
X25606Y45721D01*
X25053Y47346D02*
X25606Y46793D01*
X25053Y44806D02*
X25606Y44253D01*
Y43147D02*
Y44253D01*
X25053Y45134D02*
X25606Y45687D01*
X23947Y45134D02*
X25053D01*
X23947Y47346D02*
X25053D01*
X23394Y45782D02*
X24042Y45134D01*
X24690Y44806D02*
X25019Y45134D01*
X23947Y44806D02*
X25053D01*
X23971D02*
X24300Y45134D01*
X24042D02*
X24371Y44806D01*
X15252Y58235D02*
X23774Y49713D01*
X15252Y56080D02*
X23986Y47346D01*
X15252Y57517D02*
X23415Y49353D01*
X15252Y56798D02*
X23394Y48656D01*
X15252Y55362D02*
X23607Y47006D01*
X15252Y53206D02*
X23800Y44658D01*
X15252Y54643D02*
X23394Y46500D01*
X15252Y53925D02*
X23394Y45782D01*
X15252Y54046D02*
X22954Y61748D01*
X11582Y54296D02*
X11998Y54713D01*
X9836Y54878D02*
X10418Y54296D01*
X11582D01*
X15252Y53328D02*
X23672Y61748D01*
X11998Y43251D02*
Y54713D01*
X11288Y54296D02*
X11998Y53586D01*
X10569Y54296D02*
X11998Y52867D01*
X23394Y44229D02*
X23971Y44806D01*
X23394Y44253D02*
X23947Y44806D01*
X23394Y43147D02*
Y44253D01*
Y48227D02*
X23947Y47674D01*
X23394Y46793D02*
X23947Y47346D01*
X23394Y49333D02*
X23947Y49886D01*
X23394Y48227D02*
Y49333D01*
X15252Y52488D02*
X23441Y44299D01*
X23394Y45687D02*
X23947Y45134D01*
X15252Y51769D02*
X23394Y43627D01*
Y45687D02*
Y46793D01*
X8164Y58453D02*
X9836Y60126D01*
X7869Y58877D02*
X9836Y60844D01*
X7972Y59767D02*
X9836Y57903D01*
X7582Y59376D02*
X8164Y59958D01*
X7582Y59164D02*
X8164Y58582D01*
X7613Y59408D02*
X10408Y56613D01*
X7642Y56495D02*
X10524Y59376D01*
X8164Y58139D02*
X10049Y56254D01*
X8001Y56135D02*
X9836Y57971D01*
X502Y70112D02*
X9836Y60777D01*
X7582Y61704D02*
X8164Y61122D01*
X502Y68675D02*
X7473Y61704D01*
X6418D02*
X7582D01*
X502Y69393D02*
X9836Y60058D01*
X6418Y59164D02*
X7582D01*
X6926Y59376D02*
X7139Y59164D01*
X6418Y59376D02*
X7582D01*
X8118Y55533D02*
X9919Y57335D01*
X7806Y57060D02*
X9836Y55029D01*
X8164Y57421D02*
X9836Y55748D01*
X7582Y56836D02*
X8164Y57418D01*
X8118Y55311D02*
X11998Y51431D01*
X7963Y54747D02*
X11998Y50712D01*
X8118Y54901D02*
Y56019D01*
X7559Y54342D02*
X8118Y54901D01*
X6418Y56836D02*
X7582D01*
X7559Y56578D02*
X8118Y56019D01*
X7007Y56578D02*
X7265Y56836D01*
X6441Y56578D02*
X7559D01*
X7311Y56836D02*
X11998Y52149D01*
X6441Y54342D02*
X7559D01*
X5836Y61122D02*
X6418Y61704D01*
X5836Y59958D02*
X6418Y59376D01*
X502Y62209D02*
X6287Y56423D01*
X5836Y59958D02*
Y61122D01*
X502Y61490D02*
X5928Y56064D01*
X502Y54383D02*
X5957Y59838D01*
X502Y60772D02*
X5882Y55391D01*
X502Y55102D02*
X5836Y60436D01*
X502Y67956D02*
X6754Y61704D01*
X502Y67238D02*
X6227Y61512D01*
X502Y66519D02*
X5868Y61153D01*
X502Y65801D02*
X5836Y60466D01*
X502Y65083D02*
X6421Y59164D01*
X502Y64364D02*
X6060Y58806D01*
X502Y63646D02*
X5836Y58311D01*
X502Y62927D02*
X5836Y57593D01*
X6719Y59164D02*
X6932Y59376D01*
X6593Y56836D02*
X6851Y56578D01*
X5836Y57418D02*
X6418Y56836D01*
X5882Y56019D02*
X6441Y56578D01*
X5882Y54901D02*
Y56019D01*
Y54901D02*
X6441Y54342D01*
X502Y53665D02*
X6316Y59479D01*
X5836Y58582D02*
X6418Y59164D01*
X5836Y57418D02*
Y58582D01*
X502Y52946D02*
X5836Y58281D01*
X502Y51510D02*
X6123Y57131D01*
X502Y50791D02*
X6547Y56836D01*
X502Y52228D02*
X5836Y57563D01*
X502Y50073D02*
X5882Y55453D01*
X7420Y49807D02*
X11998Y54385D01*
X6931Y54342D02*
X11998Y49275D01*
X7779Y49448D02*
X11998Y53667D01*
X7604Y54388D02*
X11998Y49994D01*
X6826Y49932D02*
X11191Y54296D01*
X7872Y48822D02*
X11998Y52948D01*
X7160Y47392D02*
X11998Y52230D01*
X502Y45044D02*
X10086Y54628D01*
X502Y44325D02*
X10473Y54296D01*
X502Y59335D02*
X11998Y47838D01*
X502Y58617D02*
X11998Y47120D01*
X502Y60054D02*
X11998Y48557D01*
X502Y47199D02*
X10279Y56976D01*
X502Y57898D02*
X11998Y46402D01*
X502Y57180D02*
X11998Y45683D01*
X502Y46481D02*
X9836Y55815D01*
X502Y45762D02*
X9836Y55097D01*
X7872Y46666D02*
X11998Y50793D01*
X7872Y45948D02*
X11998Y50075D01*
X7872Y48204D02*
Y49356D01*
Y45664D02*
Y46816D01*
Y48373D02*
X11998Y44246D01*
X7872Y43793D02*
X11998Y47919D01*
X7872Y49092D02*
X11998Y44965D01*
X7754Y44393D02*
X11998Y48638D01*
X7587Y47100D02*
X11998Y51512D01*
X7296Y47392D02*
X7872Y46816D01*
X7296Y49932D02*
X7872Y49356D01*
X7296Y47628D02*
X7872Y48204D01*
X7395Y44753D02*
X11998Y49356D01*
X7597Y47929D02*
X11998Y43528D01*
X7296Y45088D02*
X7872Y45664D01*
X7296Y44852D02*
X7872Y44276D01*
X5568Y49356D02*
X6144Y49932D01*
X7296D01*
X502Y52869D02*
X6062Y47309D01*
X5568Y48204D02*
Y49356D01*
X502Y50714D02*
X6364Y44852D01*
X502Y49996D02*
X5895Y44602D01*
X502Y52151D02*
X5703Y46950D01*
X502Y51433D02*
X5568Y46366D01*
X502Y56462D02*
X7032Y49932D01*
X502Y55743D02*
X6313Y49932D01*
X502Y55025D02*
X5869Y49657D01*
X502Y49354D02*
X5965Y54818D01*
X502Y48636D02*
X6325Y54459D01*
X502Y47917D02*
X6927Y54342D01*
X502Y54306D02*
X5568Y49239D01*
X502Y53588D02*
X5568Y48521D01*
X6144Y47628D02*
X7296D01*
X6144Y47392D02*
X7296D01*
X6442D02*
X6678Y47628D01*
X6461D02*
X6698Y47392D01*
X6144Y45088D02*
X7296D01*
X6144Y44852D02*
X7296D01*
X6775D02*
X7012Y45088D01*
X6846D02*
X7083Y44852D01*
X5568Y46816D02*
X6144Y47392D01*
X5568Y45664D02*
X6144Y45088D01*
X5568Y48204D02*
X6144Y47628D01*
X5568Y45664D02*
Y46816D01*
X502Y48559D02*
X5568Y43492D01*
Y44276D02*
X6144Y44852D01*
X502Y49277D02*
X5568Y44211D01*
X502Y43607D02*
X5568Y48674D01*
X43554Y46457D02*
X66248Y23762D01*
X41206Y46649D02*
X66248Y21607D01*
X45902Y46264D02*
X66248Y25917D01*
X46261Y46623D02*
X66248Y26636D01*
X48608Y46431D02*
X66248Y28791D01*
X38499Y46482D02*
X66248Y18733D01*
X39582Y46118D02*
X66248Y19452D01*
X40847Y46290D02*
X66248Y20888D01*
X40300Y46118D02*
X66248Y20170D01*
X25440Y17537D02*
X54393Y46490D01*
X38140Y46123D02*
X66248Y18015D01*
X25632Y19885D02*
X52045Y46298D01*
X25652Y19186D02*
X52584Y46118D01*
X36152Y46674D02*
X66248Y16578D01*
X35793Y46315D02*
X66248Y15859D01*
X25652Y17031D02*
X54752Y46131D01*
X25652Y16312D02*
X55458Y46118D01*
X45329D02*
X66248Y25199D01*
X44611Y46118D02*
X66248Y24481D01*
X48203Y46118D02*
X66248Y28073D01*
X47484Y46118D02*
X66248Y27354D01*
X43174Y46118D02*
X66248Y23044D01*
X42455Y46118D02*
X66248Y22325D01*
X39828Y15402D02*
X62462Y38036D01*
X40546Y15402D02*
X62821Y37676D01*
X34553Y46118D02*
X65269Y15402D01*
X37426Y46118D02*
X66248Y17296D01*
X25266Y45347D02*
X55212Y15402D01*
X25458Y43000D02*
X53056Y15402D01*
X35271Y46118D02*
X65988Y15402D01*
X37673D02*
X61384Y39113D01*
X34799Y15402D02*
X59947Y40550D01*
X35517Y15402D02*
X60307Y40191D01*
X25652Y35709D02*
X36522Y46580D01*
X25652Y38583D02*
X33868Y46800D01*
X25652Y36428D02*
X35342Y46118D01*
X25652Y40738D02*
X31468Y46555D01*
X25652Y41457D02*
X30313Y46118D01*
X25652Y30681D02*
X41577Y46606D01*
X25606Y24169D02*
X47555Y46118D01*
X25652Y33554D02*
X38948Y46851D01*
X25652Y31399D02*
X40371Y46118D01*
X25406Y36901D02*
X34624Y46118D01*
X25573Y34194D02*
X37497Y46118D01*
X25432Y41956D02*
X29595Y46118D01*
X25599Y39249D02*
X32468Y46118D01*
X25273Y20244D02*
X51686Y46657D01*
X25466Y22592D02*
X49338Y46464D01*
X25606Y24887D02*
X46991Y46272D01*
X25381Y31847D02*
X39653Y46118D01*
X25652Y32964D02*
Y34116D01*
Y30424D02*
Y31576D01*
Y38044D02*
Y39196D01*
Y35504D02*
Y36656D01*
Y21972D02*
X32222Y15402D01*
X25652Y16174D02*
Y17326D01*
Y21254D02*
Y22406D01*
Y18714D02*
Y19866D01*
Y22059D02*
X49711Y46118D01*
X25652Y21341D02*
X50429Y46118D01*
X25652Y40584D02*
Y41736D01*
X25606Y23817D02*
Y24923D01*
X25518Y37911D02*
X48027Y15402D01*
X25544Y32856D02*
X42998Y15402D01*
X25377Y30149D02*
X40125Y15402D01*
X25606Y24892D02*
X35096Y15402D01*
X32397Y46118D02*
X63114Y15402D01*
X31092Y46706D02*
X62396Y15402D01*
X33209Y15248D02*
X59229Y41269D01*
X31925Y15402D02*
X58511Y41987D01*
X32644Y15402D02*
X58870Y41628D01*
X33445Y46508D02*
X64738Y15215D01*
X33086Y46148D02*
X64378Y14856D01*
X30827Y15022D02*
X58151Y42346D01*
X33568Y14889D02*
X59588Y40909D01*
X29524Y46118D02*
X60240Y15402D01*
X30242Y46118D02*
X60959Y15402D01*
X25433Y48054D02*
X58085Y15402D01*
X29724Y15356D02*
X57433Y43065D01*
X25606Y49318D02*
X59683Y15241D01*
X30738Y46341D02*
X62031Y15048D01*
X25606Y48600D02*
X59324Y14881D01*
X30442Y15356D02*
X57792Y42705D01*
X47731Y15402D02*
X66248Y33919D01*
X48372Y15325D02*
X66248Y33201D01*
X44857Y15402D02*
X64976Y35521D01*
X45575Y15402D02*
X65336Y35162D01*
X46332Y14721D02*
X66054Y34444D01*
X48732Y14966D02*
X66248Y32483D01*
X43677Y14940D02*
X64617Y35880D01*
X46025Y15133D02*
X65695Y34803D01*
X42702Y15402D02*
X63899Y36599D01*
X43318Y15299D02*
X64258Y36240D01*
X38263Y15274D02*
X61744Y38754D01*
X40970Y15107D02*
X63180Y37317D01*
X38623Y14915D02*
X62103Y38395D01*
X41252Y14670D02*
X63540Y36958D01*
X35916Y15082D02*
X60666Y39832D01*
X36172Y14619D02*
X61025Y39472D01*
X25652Y41369D02*
X51922Y15099D01*
X25652Y36340D02*
X46867Y15125D01*
X25652Y33467D02*
X44160Y14958D01*
X25652Y31312D02*
X41813Y15150D01*
X25652Y40651D02*
X51648Y14654D01*
X25652Y38496D02*
X49215Y14932D01*
X25652Y35622D02*
X46568Y14705D01*
X25652Y30593D02*
X41488Y14756D01*
X25326Y40258D02*
X50183Y15402D01*
X25351Y35204D02*
X45154Y15402D01*
X25606Y24173D02*
X34411Y15368D01*
X25651Y21254D02*
X31704Y15201D01*
X25606Y46444D02*
X56976Y15074D01*
X25606Y45726D02*
X56728Y14603D01*
X25606Y43571D02*
X54269Y14907D01*
X25424Y23636D02*
X34052Y15009D01*
X42064Y15402D02*
X43216D01*
X44604D02*
X45756D01*
X31904D02*
X33056D01*
X36984D02*
X38136D01*
X41488Y14826D02*
X42064Y15402D01*
X47144D02*
X48296D01*
X31328Y14805D02*
X31925Y15402D01*
X36408Y14826D02*
X36984Y15402D01*
X25292Y20895D02*
X31345Y14842D01*
X25652Y19817D02*
X30113Y15356D01*
X25652Y19098D02*
X29394Y15356D01*
X25484Y18547D02*
X29032Y15000D01*
X25652Y16225D02*
X41375Y502D01*
X25318Y15840D02*
X40656Y502D01*
X25652Y16943D02*
X28834Y13760D01*
X31328Y14826D02*
X31904Y15402D01*
X25239Y39608D02*
X31827Y46196D01*
X25069Y42312D02*
X29120Y46362D01*
X25076Y39772D02*
X25652Y39196D01*
X25076Y42312D02*
X25652Y41736D01*
X25076Y40008D02*
X25652Y40584D01*
X25264Y25264D02*
X46631Y46631D01*
X25106Y22951D02*
X48274Y46118D01*
X25264Y25264D02*
X46631Y46631D01*
X25214Y34553D02*
X36882Y46221D01*
X15252Y42552D02*
X34448Y61748D01*
X15252Y41833D02*
X35167Y61748D01*
X25053Y42594D02*
X25606Y43147D01*
X24039Y25476D02*
X44682Y46118D01*
X24757Y25476D02*
X45400Y46118D01*
X24967Y32152D02*
X39229Y46413D01*
X25018Y37232D02*
X34175Y46388D01*
X25076Y34928D02*
X25652Y35504D01*
X25076Y34692D02*
X25652Y34116D01*
X25076Y37468D02*
X25652Y38044D01*
X25076Y37232D02*
X25652Y36656D01*
X25076Y29848D02*
X25652Y30424D01*
X25076Y22982D02*
X25652Y22406D01*
X25076Y32388D02*
X25652Y32964D01*
X25076Y32152D02*
X25652Y31576D01*
X25053Y25476D02*
X25606Y24923D01*
X25022Y25476D02*
X25606Y24892D01*
X23924Y32388D02*
X25076D01*
X25053Y23264D02*
X25606Y23817D01*
X24989Y20678D02*
X25652Y21341D01*
X23924Y22982D02*
X25076D01*
X24427Y42594D02*
X24709Y42312D01*
X23947Y42594D02*
X25053D01*
X24351Y42312D02*
X24634Y42594D01*
X23966Y39772D02*
X24203Y40008D01*
X24685Y39772D02*
X24922Y40008D01*
X24524Y37468D02*
X24760Y37232D01*
X24139Y40008D02*
X24376Y39772D01*
X24300Y37232D02*
X24537Y37468D01*
X23924Y39772D02*
X25076D01*
X23924Y37468D02*
X25076D01*
X23924Y42312D02*
X25076D01*
X23924Y40008D02*
X25076D01*
X23924Y37232D02*
X25076D01*
X14750Y35747D02*
X25022Y25476D01*
X15252Y46022D02*
X24042Y37232D01*
X15252Y40993D02*
X24093Y32152D01*
X24634Y34692D02*
X24871Y34928D01*
X24575Y32388D02*
X24812Y32152D01*
X24190Y34928D02*
X24427Y34692D01*
X24249Y32152D02*
X24486Y32388D01*
X23947Y25476D02*
X25053D01*
X23947Y23264D02*
X25053D01*
X24359D02*
X24642Y22982D01*
X24418D02*
X24701Y23264D01*
X23924Y32152D02*
X25076D01*
X23924Y29848D02*
X25076D01*
X23924Y34928D02*
X25076D01*
X23924Y34692D02*
X25076D01*
X14391Y35388D02*
X24303Y25476D01*
X23394Y24831D02*
X24039Y25476D01*
X25081Y17897D02*
X53303Y46118D01*
X25073Y47695D02*
X57367Y15402D01*
X25099Y42641D02*
X52338Y15402D01*
X24857Y40008D02*
X49574Y15292D01*
X25159Y37552D02*
X47309Y15402D01*
X18415Y5483D02*
X56715Y43783D01*
X18572Y4922D02*
X57074Y43424D01*
X24760Y45134D02*
X54629Y15266D01*
X18055Y5842D02*
X56355Y44142D01*
X5028Y7902D02*
X44028Y46902D01*
X4310Y7902D02*
X42526Y46118D01*
X3591Y7902D02*
X41936Y46247D01*
X15252Y38119D02*
X37969Y15402D01*
X16928Y6152D02*
X55998Y45222D01*
X17647Y6152D02*
X55998Y44504D01*
X5746Y7902D02*
X44284Y46439D01*
X16210Y6152D02*
X55998Y45940D01*
X24908Y34928D02*
X44520Y15317D01*
X25184Y32497D02*
X42280Y15402D01*
X24959Y29848D02*
X39465Y15343D01*
X25065Y23277D02*
X32940Y15402D01*
X24123Y15598D02*
X39219Y502D01*
X24841Y15598D02*
X39938Y502D01*
X15252Y36683D02*
X36758Y15176D01*
X24241Y29848D02*
X39106Y14983D01*
X15252Y37401D02*
X37251Y15402D01*
X15109Y36107D02*
X36408Y14807D01*
X7872Y31131D02*
X32738Y6264D01*
X7866Y30418D02*
X32020Y6264D01*
X7507Y30059D02*
X31595Y5971D01*
X8692Y23845D02*
X32035Y502D01*
X6999Y29848D02*
X31256Y5591D01*
X9164Y22655D02*
X31317Y502D01*
X25076Y20678D02*
X25652Y21254D01*
X24752Y20442D02*
X24989Y20678D01*
X24034Y20442D02*
X24271Y20678D01*
X24072D02*
X24308Y20442D01*
X9118Y24856D02*
X28762Y5212D01*
X9164Y21936D02*
X30598Y502D01*
X9164Y19940D02*
X24152Y34928D01*
X24790Y20678D02*
X25027Y20442D01*
X502Y34909D02*
X29282Y6129D01*
X6281Y29848D02*
X29911Y6218D01*
X502Y6249D02*
X24101Y29848D01*
X2873Y7902D02*
X24819Y29848D01*
X8918Y21463D02*
X29880Y502D01*
X8537Y21126D02*
X29162Y502D01*
X502Y34190D02*
X28922Y5770D01*
X9051Y24204D02*
X28762Y4493D01*
X25027Y20442D02*
X25652Y19817D01*
X25076Y18138D02*
X25652Y18714D01*
X25076Y20442D02*
X25652Y19866D01*
X24367Y17902D02*
X24604Y18138D01*
X25125Y18188D02*
X28834Y14479D01*
X25076Y15598D02*
X25652Y16174D01*
X24456Y18138D02*
X24693Y17902D01*
X25076D02*
X25652Y17326D01*
X23924Y18138D02*
X25076D01*
X23924Y17902D02*
X25076D01*
X23924Y20678D02*
X25076D01*
X23924Y20442D02*
X25076D01*
X9164Y19781D02*
X28443Y502D01*
X23924Y15598D02*
X25076D01*
X13492Y4871D02*
X24219Y15598D01*
X13492Y4152D02*
X24938Y15598D01*
X48296Y15402D02*
X48872Y14826D01*
X46568D02*
X47144Y15402D01*
X46332Y14224D02*
X46568Y13987D01*
X46332Y13674D02*
Y14826D01*
Y14003D02*
X46568Y14239D01*
X48296Y13098D02*
X48872Y13674D01*
X47352Y6402D02*
X54406Y13456D01*
X46568Y13674D02*
Y14826D01*
Y13674D02*
X47144Y13098D01*
X41604Y6402D02*
X49108Y13906D01*
X39449Y6402D02*
X46645Y13598D01*
X45756Y15402D02*
X46332Y14826D01*
X45756Y13098D02*
X46332Y13674D01*
X43792Y13890D02*
X51280Y6402D01*
X44478D02*
X51699Y13623D01*
X41193Y13615D02*
X48538Y6270D01*
X42323Y6402D02*
X49352Y13431D01*
X45302Y13098D02*
X51998Y6402D01*
X46633D02*
X53330Y13098D01*
X47144D02*
X48296D01*
X46129Y6402D02*
X47531D01*
X47800Y6132D02*
X54767Y13098D01*
X48788Y6402D02*
X55485Y13098D01*
X45094Y6299D02*
X52059Y13264D01*
X48669Y6402D02*
X50071D01*
X39554Y13098D02*
X46251Y6402D01*
X40273Y13098D02*
X46969Y6402D01*
X38731D02*
X45427Y13098D01*
X44604D02*
X45756D01*
X43146D02*
X49843Y6402D01*
X43759D02*
X50456Y13098D01*
X40039Y6273D02*
X47004Y13238D01*
X42428Y13098D02*
X49125Y6402D01*
X44028Y14826D02*
X44604Y15402D01*
X43792Y14608D02*
X44028Y14372D01*
X43792Y14336D02*
X44028Y14573D01*
X43216Y15402D02*
X43792Y14826D01*
X41252Y14275D02*
X41488Y14038D01*
X43792Y13674D02*
Y14826D01*
X44028Y13674D02*
Y14826D01*
X41252Y13674D02*
Y14826D01*
X41488Y13674D02*
Y14826D01*
X39524Y15402D02*
X40676D01*
X41252Y14826D01*
X38136Y15402D02*
X38712Y14826D01*
X38948D02*
X39524Y15402D01*
X38948Y13674D02*
Y14826D01*
X38712Y14285D02*
X38948Y14522D01*
X38712Y13674D02*
Y14826D01*
Y14659D02*
X38948Y14423D01*
X41488Y13674D02*
X42064Y13098D01*
X43216D01*
X41252Y13952D02*
X41488Y14188D01*
X40676Y13098D02*
X41252Y13674D01*
X44028D02*
X44604Y13098D01*
X43589Y6402D02*
X44991D01*
X43216Y13098D02*
X43792Y13674D01*
X41049Y6402D02*
X42451D01*
X38948Y13704D02*
X39554Y13098D01*
X38948Y13674D02*
X39524Y13098D01*
X38712Y13941D02*
X38948Y13704D01*
X38136Y13098D02*
X38712Y13674D01*
X37399Y13098D02*
X44096Y6402D01*
X38117Y13098D02*
X44814Y6402D01*
X39524Y13098D02*
X40676D01*
X38509Y6402D02*
X39911D01*
X48595Y13397D02*
X56702Y5290D01*
X48175Y13098D02*
X56702Y4572D01*
X48100Y5832D02*
X48669Y6402D01*
X47531D02*
X48100Y5832D01*
X47531Y3598D02*
X48100Y4168D01*
X46247Y13590D02*
X59335Y502D01*
X47457Y13098D02*
X60054Y502D01*
X48100Y4168D02*
X48669Y3598D01*
X47199Y502D02*
X50752Y4055D01*
X43540Y13423D02*
X50885Y6078D01*
X45453Y5940D02*
X52612Y13098D01*
X40398Y5914D02*
X47583Y13098D01*
X42746Y6106D02*
X49738Y13098D01*
X40833Y13256D02*
X48179Y5911D01*
X45888Y13231D02*
X58617Y502D01*
X45560Y4168D02*
X46129Y3598D01*
X42879Y4026D02*
X46404Y502D01*
X46899Y3598D02*
X49996Y502D01*
X48669Y3598D02*
X50071D01*
X46181D02*
X49277Y502D01*
X46481D02*
X49577Y3598D01*
X47933Y4001D02*
X51433Y502D01*
X48636D02*
X51733Y3598D01*
X47917Y502D02*
X51112Y3696D01*
X47574Y3642D02*
X50714Y502D01*
X44325D02*
X47422Y3598D01*
X46129D02*
X47531D01*
X43607Y502D02*
X46704Y3598D01*
X44025D02*
X47122Y502D01*
X45226Y3834D02*
X48559Y502D01*
X45762D02*
X48859Y3598D01*
X45044Y502D02*
X48405Y3863D01*
X44744Y3598D02*
X47840Y502D01*
X44991Y6402D02*
X45560Y5832D01*
X46129Y6402D01*
X42451D02*
X43020Y5832D01*
X43589Y6402D01*
X44991Y3598D02*
X45560Y4168D01*
X42170Y502D02*
X45698Y4030D01*
X42451Y3598D02*
X43020Y4168D01*
X43589Y3598D01*
X38486Y13448D02*
X45831Y6103D01*
X40480Y5832D02*
X41049Y6402D01*
X37808Y5701D02*
X38509Y6402D01*
X39911D02*
X40480Y5832D01*
X39911Y3598D02*
X40480Y4168D01*
X41049Y3598D01*
X37808Y4299D02*
Y5701D01*
Y4299D02*
X38509Y3598D01*
X41152D02*
X44248Y502D01*
X43589Y3598D02*
X44991D01*
X41049D02*
X42451D01*
X40733Y502D02*
X43830Y3598D01*
X42888Y502D02*
X46057Y3670D01*
X42520Y3667D02*
X45685Y502D01*
X41452D02*
X44548Y3598D01*
X41870D02*
X44967Y502D01*
X38578D02*
X41675Y3598D01*
X38996D02*
X42093Y502D01*
X37860D02*
X41003Y3645D01*
X38509Y3598D02*
X39911D01*
X40172Y3860D02*
X43530Y502D01*
X40015D02*
X43350Y3837D01*
X39296Y502D02*
X42393Y3598D01*
X39715D02*
X42812Y502D01*
X36172Y14326D02*
X36408Y14089D01*
X36172Y13674D02*
Y14826D01*
Y13901D02*
X36408Y14137D01*
X34444Y15402D02*
X35596D01*
X36172Y14826D01*
X36408Y13674D02*
Y14826D01*
Y13674D02*
X36984Y13098D01*
X33868Y13674D02*
X34444Y13098D01*
X35596D02*
X36172Y13674D01*
X33868Y14826D02*
X34444Y15402D01*
X33632Y13992D02*
X33868Y13755D01*
X33632Y14710D02*
X33868Y14474D01*
X33632Y14234D02*
X33868Y14471D01*
X30976Y5831D02*
X38948Y13804D01*
X31046Y13704D02*
X38429Y6321D01*
X33868Y13674D02*
Y14826D01*
Y13755D02*
X34525Y13098D01*
X41222Y6402D01*
X35244Y13098D02*
X41940Y6402D01*
X34444Y13098D02*
X35596D01*
X36984D02*
X38136D01*
X36138Y13641D02*
X43483Y6296D01*
X35779Y13282D02*
X43124Y5936D01*
X33717Y5699D02*
X41591Y13572D01*
X33431Y13474D02*
X40776Y6129D01*
X33072Y13115D02*
X39785Y6402D01*
X32846Y6264D02*
X39680Y13098D01*
X32127Y6264D02*
X39243Y13380D01*
X32370Y13098D02*
X39067Y6402D01*
X30690Y13342D02*
X38070Y5962D01*
X33358Y6058D02*
X40398Y13098D01*
X29926Y6218D02*
X36895Y13187D01*
X30617Y6190D02*
X37525Y13098D01*
X33056Y15402D02*
X33632Y14826D01*
X31046Y14423D02*
X31328Y14140D01*
X30493Y15356D02*
X31046Y14803D01*
Y14522D02*
X31328Y14805D01*
Y13674D02*
Y14826D01*
X33632Y13674D02*
Y14826D01*
X31046Y13697D02*
Y14803D01*
Y13803D02*
X31328Y14086D01*
X29387Y15356D02*
X30493D01*
X28834Y14803D02*
X29387Y15356D01*
X28834Y13697D02*
Y14803D01*
Y13760D02*
X29450Y13144D01*
X33056Y13098D02*
X33632Y13674D01*
X31904Y13098D02*
X33056D01*
X30493Y13144D02*
X31046Y13697D01*
X31328Y13674D02*
X31904Y13098D01*
X31888Y6264D02*
X33152D01*
X33784Y5632D01*
X31256D02*
X31888Y6264D01*
X30589Y6218D02*
X31198Y5609D01*
X29387Y13144D02*
X30493D01*
X29371Y6218D02*
X30589D01*
X28834Y13697D02*
X29387Y13144D01*
X21911Y6106D02*
X29168Y13363D01*
X22630Y6106D02*
X29668Y13144D01*
X23075Y5833D02*
X30387Y13144D01*
X28762Y5609D02*
X29371Y6218D01*
X31394Y502D02*
X44297Y13405D01*
X30675Y502D02*
X44028Y13855D01*
X33784Y5047D02*
X41950Y13213D01*
X30169Y13144D02*
X37808Y5505D01*
X33784Y4368D02*
Y5632D01*
X32112Y502D02*
X44709Y13098D01*
X33784Y5219D02*
X38501Y502D01*
X32831D02*
X37808Y5479D01*
X33549Y502D02*
X37808Y4761D01*
X21336Y502D02*
X34188Y13354D01*
X29450Y13144D02*
X37808Y4786D01*
X20617Y502D02*
X33868Y13753D01*
X23606Y4208D02*
X32496Y13098D01*
X23491Y502D02*
X36536Y13547D01*
X29957Y502D02*
X42554Y13098D01*
X22054Y502D02*
X34651Y13098D01*
X22773Y502D02*
X35369Y13098D01*
X33784Y4500D02*
X37783Y502D01*
X34267D02*
X37937Y4171D01*
X33152Y3736D02*
X33784Y4368D01*
X33491Y4075D02*
X37064Y502D01*
X37141D02*
X40644Y4004D01*
X36423Y502D02*
X39519Y3598D01*
X34986Y502D02*
X38296Y3812D01*
X35704Y502D02*
X38801Y3598D01*
X30192Y3782D02*
X33472Y502D01*
X4500D02*
X94500D01*
X29473Y3782D02*
X32754Y502D01*
X31888Y3736D02*
X33152D01*
X32393D02*
X35627Y502D01*
X33111Y3736D02*
X36346Y502D01*
X31109Y4302D02*
X34909Y502D01*
X30750Y3942D02*
X34190Y502D01*
X31198Y4931D02*
X31256Y4873D01*
X31198Y4617D02*
X31256Y4674D01*
X31198Y5335D02*
X31256Y5393D01*
Y4368D02*
Y5632D01*
X31198Y4391D02*
Y5609D01*
X23435Y5474D02*
X31482Y13521D01*
X23606Y4927D02*
X31841Y13162D01*
X18572Y4203D02*
X28834Y14466D01*
X28762Y4391D02*
Y5609D01*
X15588Y502D02*
X28834Y13748D01*
X28762Y4493D02*
X29473Y3782D01*
X24209Y502D02*
X28762Y5054D01*
X23606Y4621D02*
X27725Y502D01*
X30589Y3782D02*
X31198Y4391D01*
X31256Y4368D02*
X31888Y3736D01*
X28762Y4391D02*
X29371Y3782D01*
X30589D01*
X28520Y502D02*
X31821Y3803D01*
X29238Y502D02*
X32473Y3736D01*
X27802Y502D02*
X31462Y4162D01*
X27083Y502D02*
X30363Y3782D01*
X23349Y3441D02*
X26288Y502D01*
X22990Y3081D02*
X25569Y502D01*
X21740Y2895D02*
X24133Y502D01*
X22458Y2895D02*
X24851Y502D01*
X25646D02*
X29149Y4004D01*
X26365Y502D02*
X29645Y3782D01*
X24928Y502D02*
X28790Y4363D01*
X23606Y3902D02*
X27006Y502D01*
X15252Y38959D02*
X23966Y47674D01*
X15252Y39678D02*
X23598Y48024D01*
X15252Y47459D02*
X23432Y39279D01*
X15252Y46740D02*
X23348Y38644D01*
X15252Y36804D02*
X23764Y45317D01*
X15252Y45304D02*
X23624Y36931D01*
X15252Y38241D02*
X23394Y46384D01*
X15252Y37523D02*
X23405Y45676D01*
X15252Y51051D02*
X23991Y42312D01*
X15252Y50333D02*
X23598Y41986D01*
X15252Y49614D02*
X23348Y41517D01*
X15252Y41115D02*
X23394Y49258D01*
X15252Y40396D02*
X23394Y48539D01*
X15252Y48177D02*
X23791Y39638D01*
X15252Y36751D02*
Y59749D01*
Y48896D02*
X23348Y40799D01*
X23394Y43147D02*
X23947Y42594D01*
X23348Y40584D02*
X23924Y40008D01*
X23348Y41736D02*
X23924Y42312D01*
X23348Y40584D02*
Y41736D01*
Y39154D02*
X23966Y39772D01*
X23348Y38044D02*
X23924Y37468D01*
X23348Y39196D02*
X23924Y39772D01*
X23348Y38044D02*
Y39196D01*
X13498Y39501D02*
Y40996D01*
X14078Y38575D02*
X14248Y38404D01*
X13296Y40794D02*
X13498Y40591D01*
X12937Y40434D02*
X13498Y39873D01*
X14248Y36751D02*
Y38746D01*
X13359Y37857D02*
X14248Y36967D01*
X10872Y38369D02*
X13498Y40996D01*
X13718Y38216D02*
X14248Y37686D01*
X12748Y41751D02*
Y42496D01*
X11162Y40909D02*
X12748Y42496D01*
X12530Y42278D02*
X12748Y42059D01*
X12171Y41919D02*
X12544Y41546D01*
X11812Y41559D02*
X12184Y41187D01*
X11453Y41200D02*
X11825Y40827D01*
X11093Y40841D02*
X11466Y40468D01*
X10911Y40658D02*
X11162Y40909D01*
X10911Y40658D02*
X11162Y40909D01*
X10051Y41662D02*
X11998Y43609D01*
X10409Y41662D02*
X11998Y43251D01*
X8614Y41662D02*
X11998Y45046D01*
X9333Y41662D02*
X11998Y44327D01*
X9666Y39122D02*
X12748Y42204D01*
X10119Y39122D02*
X12748Y41751D01*
X9121Y40658D02*
X10388Y39391D01*
X10557Y40658D02*
X11107Y40109D01*
X12578Y40075D02*
X13325Y39327D01*
X12218Y39716D02*
X12966Y38968D01*
X11859Y39357D02*
X12607Y38609D01*
X11500Y38997D02*
X12247Y38250D01*
X11141Y38638D02*
X11888Y37891D01*
X10781Y38279D02*
X11529Y37531D01*
X10621Y38118D02*
X10872Y38369D01*
X10621Y38118D02*
X10872Y38369D01*
X10409Y40658D02*
X10911D01*
X10409D02*
X10911D01*
X8948Y39122D02*
X10485Y40658D01*
X9839D02*
X10747Y39750D01*
X9505Y38118D02*
X10811Y36813D01*
X10224Y38118D02*
X11170Y37172D01*
X10119Y38118D02*
X10621D01*
X10119D02*
X10621D01*
X15252Y42430D02*
X23457Y34224D01*
X15252Y43148D02*
X23816Y34584D01*
X23348Y36656D02*
X23924Y37232D01*
X15252Y36249D02*
Y36751D01*
X23348Y35504D02*
Y36656D01*
X15252Y40275D02*
X23649Y31877D01*
X15252Y38838D02*
X23348Y30741D01*
X15252Y41712D02*
X23348Y33615D01*
X15252Y39556D02*
X23348Y31459D01*
X8632Y25874D02*
X23348Y40591D01*
X8991Y25515D02*
X23704Y40228D01*
X15252Y44585D02*
X23348Y36488D01*
X15252Y43867D02*
X23348Y35770D01*
X8833Y23202D02*
X23512Y37881D01*
X9164Y22814D02*
X23871Y37521D01*
X9118Y24923D02*
X23348Y39154D01*
X9164Y22095D02*
X23348Y36280D01*
Y35504D02*
X23924Y34928D01*
X23348Y34116D02*
X23924Y34692D01*
X14031Y35029D02*
X23766Y25294D01*
X23348Y32964D02*
Y34116D01*
X12954Y33951D02*
X23924Y22981D01*
X12595Y33592D02*
X23565Y22622D01*
X13672Y34670D02*
X23407Y24935D01*
X13313Y34311D02*
X23394Y24229D01*
X8641Y20854D02*
X23348Y35562D01*
X9000Y20495D02*
X23679Y35174D01*
X12235Y33233D02*
X23348Y22120D01*
X11712Y33038D02*
X23348Y21402D01*
X10275Y33038D02*
X23398Y19915D01*
X8838Y33038D02*
X23975Y17902D01*
X9164Y19222D02*
X23348Y33406D01*
X9556Y33038D02*
X23348Y19246D01*
X15252Y36249D02*
Y36751D01*
X15001Y35998D02*
X15252Y36249D01*
X13000Y37497D02*
X13997Y36500D01*
X12641Y37138D02*
X13638Y36141D01*
X11332Y35829D02*
X14248Y38746D01*
X11539Y34042D02*
X14248Y36751D01*
X12281Y36779D02*
X13279Y35781D01*
X11922Y36420D02*
X12920Y35422D01*
X9282Y36582D02*
X13498Y40798D01*
X10000Y36582D02*
X13498Y40080D01*
X8563Y36582D02*
X10100Y38118D01*
X8787D02*
X10324Y36582D01*
X10334Y34042D02*
X14248Y37956D01*
X11052Y34042D02*
X14248Y37238D01*
X10579Y36582D02*
X13498Y39501D01*
X9615Y34042D02*
X14248Y38675D01*
X15001Y35998D02*
X15252Y36249D01*
X12292Y33289D02*
X15001Y35998D01*
X11563Y36061D02*
X12561Y35063D01*
X11204Y35701D02*
X12201Y34704D01*
X12041Y33038D02*
X12292Y33289D01*
X12041Y33038D02*
X12292Y33289D01*
X11539Y33038D02*
X12041D01*
X11539D02*
X12041D01*
X11081Y35578D02*
X11332Y35829D01*
X11081Y35578D02*
X11332Y35829D01*
X10579Y35578D02*
X11081D01*
X10579D02*
X11081D01*
X9890D02*
X11427Y34042D01*
X10608Y35578D02*
X11842Y34345D01*
X8897Y34042D02*
X10434Y35578D01*
X9172D02*
X10708Y34042D01*
X7872Y46218D02*
X11419Y42671D01*
X7562Y42046D02*
X11998Y46483D01*
X7789Y45582D02*
X11059Y42312D01*
X7872Y43124D02*
Y44276D01*
X7622Y42875D02*
X8836Y41662D01*
X7896D02*
X11998Y45764D01*
X7872Y41662D02*
X10409D01*
X7872Y44063D02*
X10273Y41662D01*
X7872Y43344D02*
X9554Y41662D01*
X7179Y47628D02*
X11778Y43030D01*
X7296Y42548D02*
X7872Y43124D01*
X6144Y42548D02*
X7296D01*
X6144Y42312D02*
X7296D01*
X7109D02*
X11998Y47201D01*
X7430Y45223D02*
X10700Y41952D01*
X7231Y42548D02*
X8117Y41662D01*
X7296Y42312D02*
X7872Y41736D01*
Y40658D02*
X10409D01*
X7872Y39122D02*
X10119D01*
X7728Y39339D02*
X9048Y40658D01*
X7815Y40527D02*
X9220Y39122D01*
X8402Y40658D02*
X9939Y39122D01*
X7872Y38118D02*
X10119D01*
X8229Y39122D02*
X9766Y40658D01*
X7872Y38045D02*
X7945Y38118D01*
X7369Y39698D02*
X8329Y40658D01*
X7296Y39772D02*
X7872Y39196D01*
X7296Y40008D02*
X7872Y40584D01*
X6144Y39772D02*
X7296D01*
X7456Y40168D02*
X8502Y39122D01*
X7296Y37468D02*
X7872Y38044D01*
X7295Y37468D02*
X7872Y38045D01*
X6144Y37468D02*
X7296D01*
X502Y44967D02*
X5920Y39548D01*
X5568Y43124D02*
X6144Y42548D01*
X502Y40015D02*
X5860Y45373D01*
X5568Y43124D02*
Y44276D01*
X502Y39296D02*
X6294Y45088D01*
X502Y43530D02*
X5568Y38463D01*
X502Y44248D02*
X5568Y39182D01*
X502Y38578D02*
X5568Y43645D01*
X502Y47840D02*
X6087Y42255D01*
X502Y42170D02*
X6052Y47721D01*
X502Y42888D02*
X5693Y48080D01*
X502Y47122D02*
X5728Y41896D01*
X502Y40733D02*
X5568Y45800D01*
X502Y45685D02*
X5568Y40618D01*
X502Y41452D02*
X5568Y46518D01*
X502Y46404D02*
X5568Y41337D01*
X6512Y42548D02*
X6749Y42312D01*
X6144Y40008D02*
X7296D01*
X6391Y42312D02*
X6627Y42548D01*
X6178Y40008D02*
X6415Y39772D01*
X6897Y40008D02*
X7134Y39772D01*
X7058Y37232D02*
X7295Y37468D01*
X6724Y39772D02*
X6961Y40008D01*
X6563Y37468D02*
X6800Y37232D01*
X5568Y40618D02*
X6178Y40008D01*
X5568Y40584D02*
X6144Y40008D01*
X5568Y41736D02*
X6144Y42312D01*
X5568Y40584D02*
Y41736D01*
Y39196D02*
X6144Y39772D01*
X5568Y38044D02*
X6144Y37468D01*
X502Y37860D02*
X5667Y43025D01*
X5568Y38044D02*
Y39196D01*
X8068Y38118D02*
X9605Y36582D01*
X7872Y36608D02*
X9382Y38118D01*
X7872Y36582D02*
X10579D01*
X7536Y36991D02*
X8663Y38118D01*
X7648Y37820D02*
X8887Y36582D01*
X7987Y25948D02*
X23348Y41309D01*
X8367Y23454D02*
X23348Y38435D01*
X8178Y34042D02*
X9715Y35578D01*
X8453D02*
X9990Y34042D01*
X7282Y37468D02*
X8168Y36582D01*
X7296Y37232D02*
X7872Y36656D01*
X6339Y37232D02*
X6576Y37468D01*
X6144Y37232D02*
X7296D01*
X502Y19899D02*
X23572Y42969D01*
X502Y19181D02*
X23931Y42610D01*
X502Y21336D02*
X23394Y44229D01*
X502Y20617D02*
X23394Y43510D01*
X7703Y34284D02*
X8997Y35578D01*
X7872D02*
X10579D01*
X7344Y34644D02*
X8278Y35578D01*
X7481Y35114D02*
X8553Y34042D01*
X7872D02*
X11539D01*
X7870Y31578D02*
X9330Y33038D01*
X7840Y35473D02*
X9272Y34042D01*
X7511Y31937D02*
X8612Y33038D01*
X7296Y34928D02*
X7872Y35504D01*
X6144Y34692D02*
X7296D01*
X6673D02*
X6910Y34928D01*
X6144D02*
X7296D01*
X502Y33472D02*
X8026Y25948D01*
X502Y22054D02*
X11486Y33038D01*
X6948Y34928D02*
X7185Y34692D01*
X7296D02*
X7872Y34116D01*
X502Y34267D02*
X6243Y40008D01*
X502Y39938D02*
X5946Y34493D01*
X502Y34986D02*
X5834Y40318D01*
X502Y39219D02*
X5587Y34134D01*
X502Y32831D02*
X5642Y37971D01*
X502Y37783D02*
X6138Y32146D01*
X502Y33549D02*
X5568Y38616D01*
X502Y38501D02*
X5568Y33434D01*
X502Y42812D02*
X6113Y37200D01*
X502Y37141D02*
X6027Y42666D01*
X502Y42093D02*
X5754Y36841D01*
X502Y36423D02*
X5568Y41489D01*
X502Y35704D02*
X5568Y40771D01*
X502Y40656D02*
X5568Y35589D01*
X502Y4500D02*
Y74500D01*
Y41375D02*
X5568Y36308D01*
Y35589D02*
X6229Y34928D01*
X5568Y35504D02*
X6144Y34928D01*
X5568Y36656D02*
X6144Y37232D01*
X5568Y35504D02*
Y36656D01*
X6229Y34928D02*
X6466Y34692D01*
X5568Y34116D02*
X6144Y34692D01*
X5568Y32964D02*
Y34116D01*
X502Y28520D02*
X5568Y33587D01*
X502Y32112D02*
X6001Y37612D01*
X502Y37064D02*
X5779Y31787D01*
X502Y31394D02*
X5568Y36461D01*
X502Y36346D02*
X5568Y31279D01*
X502Y29957D02*
X5809Y35264D01*
X502Y29238D02*
X6192Y34928D01*
X502Y30675D02*
X5568Y35742D01*
X502Y35627D02*
X5568Y30561D01*
X23348Y30424D02*
X23924Y29848D01*
X23348Y31576D02*
X23924Y32152D01*
X23394Y24923D02*
X23947Y25476D01*
X23348Y30424D02*
Y31576D01*
X23394Y23817D02*
Y24923D01*
Y23817D02*
X23947Y23264D01*
X23348Y21254D02*
X23924Y20678D01*
X23348Y22406D02*
X23924Y22982D01*
X23348Y21254D02*
Y22406D01*
X10993Y33038D02*
X23757Y20274D01*
X23348Y32964D02*
X23924Y32388D01*
X8119Y33038D02*
X23590Y17568D01*
X7673Y32766D02*
X23348Y17091D01*
X7410Y6692D02*
X23983Y23264D01*
X7902Y5746D02*
X23379Y21224D01*
X7314Y32407D02*
X23348Y16373D01*
X7770Y6333D02*
X23348Y21912D01*
Y18714D02*
X23924Y18138D01*
X23348Y17326D02*
X23924Y17902D01*
X23348Y19866D02*
X23924Y20442D01*
X23348Y18714D02*
Y19866D01*
Y16174D02*
Y17326D01*
Y16174D02*
X23924Y15598D01*
X21197Y6106D02*
X22803D01*
X11181Y6152D02*
X23546Y18517D01*
X11899Y6152D02*
X23905Y18158D01*
X8752Y18756D02*
X21402Y6106D01*
X12618Y6152D02*
X23348Y16883D01*
X13001Y5817D02*
X23353Y16169D01*
X13360Y5457D02*
X23713Y15810D01*
X9111Y19115D02*
X22120Y6106D01*
X7872Y33038D02*
X11539D01*
X8559Y25948D02*
X9118Y25389D01*
X7872Y30424D02*
Y31576D01*
X9118Y24271D02*
Y25389D01*
X8559Y23712D02*
X9118Y24271D01*
X8106Y23712D02*
X8365Y23454D01*
X7872Y30861D02*
X10049Y33038D01*
X7296Y29848D02*
X7872Y30424D01*
X7296Y32388D02*
X7872Y32964D01*
X7296Y32152D02*
X7872Y31576D01*
X7441Y23712D02*
X8559D01*
X7418Y23454D02*
X8582D01*
X7441Y25948D02*
X8559D01*
X7648Y23454D02*
X7907Y23712D01*
X8582Y21126D02*
X9164Y21708D01*
X8582Y20914D02*
X9164Y20332D01*
X8582Y23454D02*
X9164Y22872D01*
Y21708D02*
Y22872D01*
X11014Y6152D02*
X12666D01*
X16094D02*
X17746D01*
X9164Y19168D02*
Y20332D01*
X8582Y18586D02*
X9164Y19168D01*
X7418Y21126D02*
X8582D01*
X7418Y20914D02*
X8582D01*
X7818Y21126D02*
X8031Y20914D01*
X7982D02*
X8195Y21126D01*
X7485Y18586D02*
X20581Y5490D01*
X8203Y18586D02*
X20940Y5849D01*
X8528Y18586D02*
X9164Y19222D01*
X7418Y18586D02*
X8582D01*
X22803Y6106D02*
X23606Y5303D01*
X20394D02*
X21197Y6106D01*
X23606Y3697D02*
Y5303D01*
X18572Y3674D02*
Y5326D01*
X20394Y3697D02*
Y5303D01*
X18572Y4626D02*
X22696Y502D01*
X22803Y2895D02*
X23606Y3697D01*
X18572Y3907D02*
X21977Y502D01*
X20394Y3697D02*
X21197Y2895D01*
X7902Y5028D02*
X23738Y20864D01*
X7902Y3591D02*
X23348Y19038D01*
X7902Y4310D02*
X23348Y19756D01*
X17746Y6152D02*
X18572Y5326D01*
X16307Y502D02*
X20394Y4589D01*
X17025Y502D02*
X20394Y3871D01*
X13492Y4677D02*
X17667Y502D01*
X13492Y3958D02*
X16948Y502D01*
X21197Y2895D02*
X22803D01*
X17970Y3072D02*
X20540Y502D01*
X19181D02*
X21574Y2895D01*
X19899Y502D02*
X22292Y2895D01*
X18329Y3432D02*
X21259Y502D01*
X18462D02*
X21026Y3066D01*
X17746Y2849D02*
X18572Y3674D01*
X16094Y2849D02*
X17746D01*
X13274Y3457D02*
X16230Y502D01*
X14152D02*
X16499Y2849D01*
X17744Y502D02*
X20667Y3425D01*
X17475Y2849D02*
X19822Y502D01*
X14870D02*
X17217Y2849D01*
X16757D02*
X19104Y502D01*
X15268Y5326D02*
X16094Y6152D01*
X15268Y5210D02*
X16210Y6152D01*
X12666D02*
X13492Y5326D01*
Y3674D02*
Y5326D01*
X11278Y502D02*
X15268Y4492D01*
X11996Y502D02*
X15268Y3774D01*
Y3674D02*
Y5326D01*
X10559Y502D02*
X15268Y5210D01*
X10188Y5326D02*
X11014Y6152D01*
X7902Y2873D02*
X10188Y5159D01*
X7902Y2799D02*
Y6201D01*
X10188Y3674D02*
Y5326D01*
X7902Y5956D02*
X13356Y502D01*
X7902Y5238D02*
X12638Y502D01*
X7902Y4519D02*
X11919Y502D01*
X7902Y3801D02*
X11201Y502D01*
X15268Y3674D02*
X16094Y2849D01*
X11728D02*
X14075Y502D01*
X12666Y2849D02*
X13492Y3674D01*
X11014Y2849D02*
X12666D01*
X12715Y502D02*
X15578Y3365D01*
X13433Y502D02*
X15937Y3006D01*
X12915Y3098D02*
X15512Y502D01*
X12446Y2849D02*
X14793Y502D01*
X10188Y3674D02*
X11014Y2849D01*
X7686Y502D02*
X10524Y3339D01*
X7684Y2582D02*
X9764Y502D01*
X7325Y2222D02*
X9046Y502D01*
X9123D02*
X11470Y2849D01*
X9841Y502D02*
X12188Y2849D01*
X7902Y3083D02*
X10483Y502D01*
X8404D02*
X10883Y2980D01*
X7244Y32388D02*
X7872Y33016D01*
X6144Y32152D02*
X7296D01*
X6144Y29848D02*
X7296D01*
X7007Y32152D02*
X7244Y32388D01*
X6144D02*
X7296D01*
X502Y27725D02*
X7365Y20861D01*
X6882Y25389D02*
X7441Y25948D01*
X502Y29880D02*
X7173Y23208D01*
X502Y27006D02*
X7006Y20502D01*
X502Y22773D02*
X10767Y33038D01*
X502Y30598D02*
X7646Y23454D01*
X502Y32754D02*
X7374Y25881D01*
X502Y32035D02*
X7015Y25522D01*
X502Y9841D02*
X23487Y32826D01*
X502Y9123D02*
X23846Y32467D01*
X502Y8404D02*
X23348Y31251D01*
X502Y7686D02*
X23348Y30533D01*
X6882Y24271D02*
X7441Y23712D01*
X6836Y22872D02*
X7418Y23454D01*
X6836Y19235D02*
X7485Y18586D01*
X6836Y19168D02*
X7418Y18586D01*
X6836Y21708D02*
X7418Y21126D01*
X6836Y20332D02*
X7418Y20914D01*
X502Y17025D02*
X7315Y23839D01*
X502Y14152D02*
X7476Y21126D01*
X502Y17744D02*
X6956Y24198D01*
X502Y14870D02*
X7088Y21457D01*
X6333Y7770D02*
X23394Y24831D01*
X502Y10559D02*
X8528Y18586D01*
X502Y11996D02*
X7255Y18750D01*
X502Y11278D02*
X7810Y18586D01*
X6288Y32152D02*
X6525Y32388D01*
X6614D02*
X6851Y32152D01*
X5568Y32964D02*
X6144Y32388D01*
X5568Y31576D02*
X6144Y32152D01*
X502Y29162D02*
X6836Y22827D01*
X502Y28443D02*
X6836Y22108D01*
X5568Y30424D02*
Y31576D01*
Y30424D02*
X6144Y29848D01*
X502Y27802D02*
X5616Y32916D01*
X502Y27083D02*
X5976Y32557D01*
X502Y26365D02*
X5568Y31432D01*
X502Y25646D02*
X5568Y30713D01*
X502Y31317D02*
X6882Y24936D01*
X502Y23491D02*
X6859Y29848D01*
X502Y24928D02*
X5783Y30209D01*
X502Y24209D02*
X6142Y29850D01*
X6882Y24271D02*
Y25389D01*
X6836Y19168D02*
Y20332D01*
Y21708D02*
Y22872D01*
X502Y12638D02*
X5238Y7902D01*
X502Y11919D02*
X4519Y7902D01*
X2799D02*
X6201D01*
X502Y11201D02*
X3801Y7902D01*
X502Y10483D02*
X3083Y7902D01*
X502Y18462D02*
X6882Y24843D01*
X502Y16307D02*
X6836Y22642D01*
X502Y26288D02*
X6836Y19953D01*
X502Y25569D02*
X6836Y19235D01*
X502Y13433D02*
X6836Y19768D01*
X502Y12715D02*
X6896Y19109D01*
X502Y15588D02*
X6836Y21923D01*
X502Y13356D02*
X5956Y7902D01*
X7051Y7051D02*
X23606Y23606D01*
X6692Y7410D02*
X23394Y24113D01*
X7051Y7051D02*
X23606Y23606D01*
X502Y17667D02*
X12017Y6152D01*
X502Y16948D02*
X11298Y6152D01*
X502Y19104D02*
X15268Y4337D01*
X502Y18385D02*
X18385Y502D01*
X502Y19822D02*
X15268Y5055D01*
X502Y16230D02*
X10797Y5935D01*
X502Y6967D02*
X23653Y30119D01*
X502Y22696D02*
X17045Y6152D01*
X502Y21977D02*
X16327Y6152D01*
X502Y21259D02*
X15851Y5909D01*
X502Y24133D02*
X20394Y4240D01*
X502Y23414D02*
X23414Y502D01*
X502Y24851D02*
X20394Y4958D01*
X502Y20540D02*
X15492Y5550D01*
X6127Y1098D02*
X7902Y2873D01*
X6201Y1098D02*
X7902Y2799D01*
X6201Y7902D02*
X7902Y6201D01*
X6247Y1145D02*
X6890Y502D01*
X6249D02*
X10188Y4441D01*
X6967Y502D02*
X10188Y3723D01*
X6966Y1863D02*
X8327Y502D01*
X6606Y1504D02*
X7609Y502D01*
X502Y15512D02*
X10438Y5575D01*
X502Y14075D02*
X10188Y4388D01*
X502Y14793D02*
X10188Y5106D01*
X5956Y7902D02*
X7902Y5956D01*
X5575Y1098D02*
X6172Y502D01*
X2799Y1098D02*
X6201D01*
X4857D02*
X5454Y502D01*
X5531D02*
X6127Y1098D01*
X1098Y6201D02*
X2799Y7902D01*
X1098Y6127D02*
X2873Y7902D01*
X502Y4812D02*
X1098Y5409D01*
X502Y4735D02*
X1098Y4138D01*
Y2799D02*
Y6201D01*
X520Y4113D02*
X1098Y4691D01*
X535Y3983D02*
X1098Y3420D01*
X502Y9764D02*
X2582Y7684D01*
X502Y9046D02*
X2222Y7325D01*
X502Y8327D02*
X1863Y6966D01*
X502Y7609D02*
X1504Y6606D01*
X502Y6890D02*
X1145Y6247D01*
X502Y5454D02*
X1098Y4857D01*
X502Y6172D02*
X1098Y5575D01*
X502Y5531D02*
X1098Y6127D01*
X2964Y808D02*
X3254Y1098D01*
X3502Y628D02*
X3972Y1098D01*
X2055Y1336D02*
X2308Y1590D01*
X2484Y1047D02*
X2667Y1230D01*
X4138Y1098D02*
X4735Y502D01*
X4812D02*
X5409Y1098D01*
X3420D02*
X3983Y535D01*
X4113Y520D02*
X4691Y1098D01*
X1047Y2484D02*
X1230Y2667D01*
X1336Y2055D02*
X1590Y2308D01*
X628Y3502D02*
X1098Y3972D01*
X808Y2964D02*
X1098Y3254D01*
X789Y3011D02*
X3011Y789D01*
X1098Y2799D02*
X2799Y1098D01*
X1673Y1673D02*
X1949Y1949D01*
X1673Y1673D02*
X1949Y1949D01*
D14*
X84041Y61289D02*
X84220Y61110D01*
X85440D02*
X85619Y61289D01*
X84041Y59711D02*
X84220Y59890D01*
X85440D02*
X85619Y59711D01*
X80360Y55360D02*
X80539Y55539D01*
X80360Y54140D02*
X80539Y53961D01*
X78961Y55539D02*
X79140Y55360D01*
X78961Y53961D02*
X79140Y54140D01*
X71950Y74900D02*
X72130Y75080D01*
X70710D02*
X70890Y74900D01*
X70710Y73660D02*
X70890Y73840D01*
X71950D02*
X72130Y73660D01*
X71950Y71300D02*
X72130Y71120D01*
X70710D02*
X70890Y71300D01*
X74400Y61110D02*
X74579Y61289D01*
X73001D02*
X73180Y61110D01*
X73001Y59711D02*
X73180Y59890D01*
X74400D02*
X74579Y59711D01*
X69320Y55360D02*
X69499Y55539D01*
X67921D02*
X68100Y55360D01*
X67921Y53961D02*
X68100Y54140D01*
X69320D02*
X69499Y53961D01*
X58650Y53860D02*
X58829Y54039D01*
X58650Y52640D02*
X58829Y52461D01*
X57251D02*
X57430Y52640D01*
X57251Y54039D02*
X57430Y53860D01*
X90747Y9997D02*
X90927Y10177D01*
X90747Y9503D02*
X90927Y9323D01*
X90073Y10177D02*
X90253Y9997D01*
X90073Y9323D02*
X90253Y9503D01*
X86900Y4390D02*
X87079Y4211D01*
X85501Y5789D02*
X85680Y5610D01*
X86900D02*
X87079Y5789D01*
X85501Y4211D02*
X85680Y4390D01*
X73751Y5789D02*
X73930Y5610D01*
X75150D02*
X75329Y5789D01*
X73751Y4211D02*
X73930Y4390D01*
X75150D02*
X75329Y4211D01*
X57131Y5789D02*
X57310Y5610D01*
X58530D02*
X58709Y5789D01*
X57131Y4211D02*
X57310Y4390D01*
X58530D02*
X58709Y4211D01*
X44950Y74900D02*
X45130Y75080D01*
X44950Y73840D02*
X45130Y73660D01*
X43710Y75080D02*
X43890Y74900D01*
X43710Y73660D02*
X43890Y73840D01*
X44950Y72360D02*
X45130Y72540D01*
X43710D02*
X43890Y72360D01*
X44950Y71300D02*
X45130Y71120D01*
X43710D02*
X43890Y71300D01*
X47360Y53860D02*
X47539Y54039D01*
X45961D02*
X46140Y53860D01*
X45961Y52461D02*
X46140Y52640D01*
X47360D02*
X47539Y52461D01*
X35940Y53860D02*
X36119Y54039D01*
X34541D02*
X34720Y53860D01*
X35940Y52640D02*
X36119Y52461D01*
X34541D02*
X34720Y52640D01*
X28497Y61003D02*
X28677Y60823D01*
X28497Y61497D02*
X28677Y61677D01*
X27823Y60823D02*
X28003Y61003D01*
X27823Y61677D02*
X28003Y61497D01*
X17950Y73840D02*
X18130Y73660D01*
X17950Y72360D02*
X18130Y72540D01*
X17950Y74900D02*
X18130Y75080D01*
X16710Y73660D02*
X16890Y73840D01*
X16710Y75080D02*
X16890Y74900D01*
X16710Y71120D02*
X16890Y71300D01*
X17950D02*
X18130Y71120D01*
X16710Y72540D02*
X16890Y72360D01*
X25030Y49310D02*
X25210Y49490D01*
X25030Y48250D02*
X25210Y48070D01*
X25030Y45710D02*
X25210Y45530D01*
X25030Y44230D02*
X25210Y44410D01*
X25030Y46770D02*
X25210Y46950D01*
X23790D02*
X23970Y46770D01*
X23790Y45530D02*
X23970Y45710D01*
X23790Y49490D02*
X23970Y49310D01*
X23790Y48070D02*
X23970Y48250D01*
X23790Y44410D02*
X23970Y44230D01*
X7539Y54921D02*
X7718Y54742D01*
X7539Y55999D02*
X7718Y56178D01*
X6282D02*
X6461Y55999D01*
X6282Y54742D02*
X6461Y54921D01*
X25030Y43170D02*
X25210Y42990D01*
X25030Y24900D02*
X25210Y25080D01*
X25030Y23840D02*
X25210Y23660D01*
X23790Y25080D02*
X23970Y24900D01*
X23790Y23660D02*
X23970Y23840D01*
X30470Y14780D02*
X30650Y14960D01*
X29230D02*
X29410Y14780D01*
X29230Y13540D02*
X29410Y13720D01*
X30470D02*
X30650Y13540D01*
X29191Y5789D02*
X29370Y5610D01*
X30590D02*
X30769Y5789D01*
X29191Y4211D02*
X29370Y4390D01*
X30590D02*
X30769Y4211D01*
X23790Y42990D02*
X23970Y43170D01*
X22884Y5384D02*
X23063Y5564D01*
X20937D02*
X21116Y5384D01*
X8539Y25369D02*
X8718Y25548D01*
X8539Y24291D02*
X8718Y24112D01*
X22884Y3616D02*
X23063Y3437D01*
X20937D02*
X21116Y3616D01*
X7282Y25548D02*
X7461Y25369D01*
X7282Y24112D02*
X7461Y24291D01*
D16*
X74920Y70250D02*
X76500Y71830D01*
X51080Y70250D02*
X74920D01*
X49500Y71830D02*
X51080Y70250D01*
X46960Y72182D02*
X47308Y72530D01*
X46960Y71830D02*
Y72182D01*
X47750Y73000D02*
X72790D01*
X47308Y72530D02*
Y72558D01*
X47750Y73000D01*
X72790D02*
X73960Y71830D01*
X66750Y13000D02*
Y34500D01*
X56500Y44750D02*
X66750Y34500D01*
X56500Y44750D02*
Y48750D01*
X14750Y36500D02*
Y60000D01*
X11790Y33540D02*
X14750Y36500D01*
X6720Y33540D02*
X11790D01*
X14750Y60000D02*
X17000Y62250D01*
X14000Y60750D02*
X16250Y63000D01*
X14000Y39250D02*
Y60750D01*
X10830Y36080D02*
X14000Y39250D01*
X10370Y38620D02*
X13250Y41500D01*
Y61250D02*
X15750Y63750D01*
X13250Y41500D02*
Y61250D01*
X66960Y62250D02*
X68710Y60500D01*
X17000Y62250D02*
X66960D01*
X15750Y63750D02*
X87750D01*
X16250Y63000D02*
X77250D01*
X12500Y43000D02*
Y61500D01*
X15500Y64500D01*
X88750D01*
X77250Y63000D02*
X79750Y60500D01*
X6720Y36080D02*
X10830D01*
X73790Y54750D02*
X75540Y56500D01*
X88000D01*
X88750Y57250D01*
Y62750D01*
X87750Y63750D02*
X88750Y62750D01*
X6720Y38620D02*
X10370D01*
X10660Y41160D02*
X12500Y43000D01*
X84790Y54750D02*
X88750D01*
X90000Y56000D01*
Y63250D01*
X88750Y64500D02*
X90000Y63250D01*
X6720Y41160D02*
X10660D01*
X55500Y53250D02*
X59250Y49500D01*
Y45000D02*
Y49500D01*
Y45000D02*
X68040Y36210D01*
X70580Y12830D02*
Y14250D01*
X67250Y12500D02*
X70250D01*
X70580Y12830D01*
X66750Y13000D02*
X67250Y12500D01*
X53143Y52107D02*
X56500Y48750D01*
X53143Y52107D02*
Y53068D01*
X52960Y53250D02*
X53143Y53068D01*
X68040Y14250D02*
Y36210D01*
X65500Y12500D02*
Y14250D01*
X60460Y7460D02*
X65500Y12500D01*
X60460Y5000D02*
Y7460D01*
D18*
X4500Y74500D02*
D03*
X94500D02*
D03*
X4500Y4500D02*
D03*
X94500D02*
D03*
D19*
X17420Y71830D02*
D03*
Y74370D02*
D03*
X19960Y71830D02*
D03*
Y74370D02*
D03*
X22500Y71830D02*
D03*
Y74370D02*
D03*
X25040Y71830D02*
D03*
Y74370D02*
D03*
X27580Y71830D02*
D03*
Y74370D02*
D03*
X71420Y71830D02*
D03*
Y74370D02*
D03*
X73960Y71830D02*
D03*
Y74370D02*
D03*
X76500Y71830D02*
D03*
Y74370D02*
D03*
X79040Y71830D02*
D03*
Y74370D02*
D03*
X81580Y71830D02*
D03*
Y74370D02*
D03*
X44420Y71830D02*
D03*
Y74370D02*
D03*
X46960Y71830D02*
D03*
Y74370D02*
D03*
X49500Y71830D02*
D03*
Y74370D02*
D03*
X52040Y71830D02*
D03*
Y74370D02*
D03*
X54580Y71830D02*
D03*
Y74370D02*
D03*
X93440Y14250D02*
D03*
X90900D02*
D03*
X88360D02*
D03*
X85820D02*
D03*
X83280D02*
D03*
X80740D02*
D03*
X78200D02*
D03*
X75660D02*
D03*
X73120D02*
D03*
X70580D02*
D03*
X68040D02*
D03*
X65500D02*
D03*
X62960D02*
D03*
X60420D02*
D03*
X57880D02*
D03*
X55340D02*
D03*
X52800D02*
D03*
X50260D02*
D03*
X47720D02*
D03*
X45180D02*
D03*
X42640D02*
D03*
X40100D02*
D03*
X37560D02*
D03*
X35020D02*
D03*
X32480D02*
D03*
X29940D02*
D03*
Y47270D02*
D03*
X32480D02*
D03*
X35020D02*
D03*
X37560D02*
D03*
X40100D02*
D03*
X42640D02*
D03*
X45180D02*
D03*
X47720D02*
D03*
X50260D02*
D03*
X52800D02*
D03*
X55340D02*
D03*
X57880D02*
D03*
X60420D02*
D03*
X62960D02*
D03*
X65500D02*
D03*
X68040D02*
D03*
X70580D02*
D03*
X73120D02*
D03*
X75660D02*
D03*
X78200D02*
D03*
X80740D02*
D03*
X83280D02*
D03*
X85820D02*
D03*
X88360D02*
D03*
X90900D02*
D03*
X93440D02*
D03*
X24500Y48780D02*
D03*
Y43700D02*
D03*
Y46240D02*
D03*
Y38620D02*
D03*
Y41160D02*
D03*
Y31000D02*
D03*
Y33540D02*
D03*
Y36080D02*
D03*
X6720Y31000D02*
D03*
Y36080D02*
D03*
Y33540D02*
D03*
Y41160D02*
D03*
Y38620D02*
D03*
Y48780D02*
D03*
Y46240D02*
D03*
Y43700D02*
D03*
X24500Y24370D02*
D03*
Y21830D02*
D03*
Y19290D02*
D03*
Y16750D02*
D03*
D20*
X68710Y60500D02*
D03*
X71250D02*
D03*
X73790D02*
D03*
X29980Y5000D02*
D03*
X32520D02*
D03*
X63000D02*
D03*
X60460D02*
D03*
X57920D02*
D03*
X30250Y53250D02*
D03*
X32790D02*
D03*
X35330D02*
D03*
X84830Y54750D02*
D03*
X82290D02*
D03*
X79750D02*
D03*
X81210Y5000D02*
D03*
X83750D02*
D03*
X86290D02*
D03*
X69460D02*
D03*
X72000D02*
D03*
X74540D02*
D03*
X58040Y53250D02*
D03*
X55500D02*
D03*
X52960D02*
D03*
X68710Y54750D02*
D03*
X71250D02*
D03*
X73790D02*
D03*
X46750Y53250D02*
D03*
X44210D02*
D03*
X41670D02*
D03*
X84830Y60500D02*
D03*
X82290D02*
D03*
X79750D02*
D03*
D21*
X8000Y22290D02*
D03*
Y19750D02*
D03*
Y24830D02*
D03*
X11000Y58000D02*
D03*
Y60540D02*
D03*
Y55460D02*
D03*
X7000Y58000D02*
D03*
Y60540D02*
D03*
Y55460D02*
D03*
D22*
X39210Y5000D02*
D03*
X41750D02*
D03*
X44290D02*
D03*
X46830D02*
D03*
X49370D02*
D03*
X51910D02*
D03*
D23*
X22000Y4500D02*
D03*
X16920D02*
D03*
X11840D02*
D03*
D24*
X28250Y61250D02*
D03*
X90500Y9750D02*
D03*
%TF.MD5,1746f049770f8d1271da78c90a3fb5a4*%
M02*
