M48
;Layer_Color=9474304
;FILE_FORMAT=4:3
METRIC,LZ
;TYPE=PLATED
T01F00S00C0.300
T02F00S00C0.750
T03F00S00C1.150
T04F00S00C1.500
T05F00S00C1.750
T06F00S00C3.200
T07F00S00C3.500
%
T01
X0015Y000225
X00275Y001425
X00455Y001325
X00445Y001575
Y0023
X004442Y00244
Y00254
X003925Y00256
Y00246
X00365Y00245
Y00235
Y002175
X00315Y002575
X003925Y0028
X00445Y00345
X002875Y004025
X00185
X001575Y002975
X0014288Y0029712
X0017642Y0026358
X0017Y0024
X00275Y0017
X00105Y0021
X001375Y0032
T02
X0043735Y00214
X004367Y00286
T03
X002373Y0005
X002627
T04
X0041735Y002068
Y002932
T05
X0046785Y002068
Y002932
T06
X00375Y0045395
X00125
X0025Y0082795
T07
X00045Y00045
X00455
Y00455
X00045
M30
