M48
;Layer_Color=9474304
;FILE_FORMAT=4:3
METRIC,LZ
;TYPE=PLATED
T01F00S00C0.300
T02F00S00C1.300
T04F00S00C1.600
T05F00S00C2.500
T06F00S00C3.500
%
T01
X003Y0049
T02
X0006Y00048
Y000988
Y001488
Y001996
Y002496
Y003004
Y003504
Y004012
Y004512
Y00502
T04
X001554Y00108
Y00142
X002546
Y00108
Y001855
Y002195
Y00263
Y00297
Y003405
Y003745
Y004175
Y004515
X001554
Y004175
Y003745
Y003405
Y00297
Y00263
Y002195
Y001855
X004104Y00333
Y00367
X005096
Y00333
T05
X003861Y001
X0046
X005339
T06
X00205Y00045
X006Y00045
Y0051
X00205Y005125
M30
