%TF.GenerationSoftware,Altium Limited,Altium Designer,25.2.1 (25)*%
G04 Layer_Color=32768*
%FSLAX43Y43*%
%MOMM*%
%TF.SameCoordinates,FC4E0D8B-961B-4709-82B6-B3404D815502*%
%TF.FilePolarity,Positive*%
%TF.FileFunction,Other,Mechanical_15*%
%TF.Part,Single*%
G01*
G75*
%TA.AperFunction,NonConductor*%
%ADD22C,0.200*%
%ADD31C,0.100*%
D22*
X10500Y1550D02*
Y53450D01*
X2200D02*
X10500D01*
X2200Y1550D02*
X10500D01*
X2200Y1550D02*
Y53450D01*
X28860Y39750D02*
Y47150D01*
X12140Y39750D02*
Y47150D01*
X28860D01*
X12140Y39750D02*
X28860D01*
Y32050D02*
Y39450D01*
X12140Y32050D02*
Y39450D01*
X28860D01*
X12140Y32050D02*
X28860D01*
Y16550D02*
Y23950D01*
X12140Y16550D02*
Y23950D01*
X28860D01*
X12140Y16550D02*
X28860D01*
Y8800D02*
Y16200D01*
X12140Y8800D02*
Y16200D01*
X28860D01*
X12140Y8800D02*
X28860D01*
Y24300D02*
Y31700D01*
X12140Y24300D02*
Y31700D01*
X28860D01*
X12140Y24300D02*
X28860D01*
X37640Y38700D02*
X54360D01*
X37640Y31300D02*
X54360D01*
Y38700D01*
X37640Y31300D02*
Y38700D01*
X36000Y0D02*
X56000D01*
Y30500D01*
X36000Y7000D02*
X56000D01*
X36000Y0D02*
Y30500D01*
X56000D01*
D31*
X63500Y4500D02*
G03*
X63500Y4500I-3500J0D01*
G01*
X24000Y51250D02*
G03*
X24000Y51250I-3500J0D01*
G01*
X63500Y51000D02*
G03*
X63500Y51000I-3500J0D01*
G01*
X24000Y4500D02*
G03*
X24000Y4500I-3500J0D01*
G01*
X24300Y49900D02*
X27200D01*
X24300Y48100D02*
X27200D01*
X24300D02*
Y49900D01*
X27200Y48100D02*
Y49900D01*
%TF.MD5,2f2f7d4c238175ebaca92cb6f4951393*%
M02*
