%TF.GenerationSoftware,Altium Limited,Altium Designer,25.2.1 (25)*%
G04 Layer_Color=128*
%FSLAX43Y43*%
%MOMM*%
%TF.SameCoordinates,FC4E0D8B-961B-4709-82B6-B3404D815502*%
%TF.FilePolarity,Positive*%
%TF.FileFunction,Drillmap*%
%TF.Part,Single*%
G01*
G75*
%TA.AperFunction,NonConductor*%
%ADD32C,0.127*%
D32*
X5350Y50200D02*
X6650D01*
X6000Y49550D02*
Y50850D01*
X5350Y45120D02*
X6650D01*
X6000Y44470D02*
Y45770D01*
X5350Y40120D02*
X6650D01*
X6000Y39470D02*
Y40770D01*
X5350Y35040D02*
X6650D01*
X6000Y34390D02*
Y35690D01*
X5350Y30040D02*
X6650D01*
X6000Y29390D02*
Y30690D01*
X5350Y24960D02*
X6650D01*
X6000Y24310D02*
Y25610D01*
X5350Y19960D02*
X6650D01*
X6000Y19310D02*
Y20610D01*
X5350Y14880D02*
X6650D01*
X6000Y14230D02*
Y15530D01*
X5350Y9880D02*
X6650D01*
X6000Y9230D02*
Y10530D01*
X5350Y4800D02*
X6650D01*
X6000Y4150D02*
Y5450D01*
X14740Y41750D02*
X16340D01*
X15540Y40950D02*
Y42550D01*
X14740Y45150D02*
X16340D01*
X15540Y44350D02*
Y45950D01*
X24660Y41750D02*
X26260D01*
X25460Y40950D02*
Y42550D01*
X24660Y45150D02*
X26260D01*
X25460Y44350D02*
Y45950D01*
X14740Y34050D02*
X16340D01*
X15540Y33250D02*
Y34850D01*
X14740Y37450D02*
X16340D01*
X15540Y36650D02*
Y38250D01*
X24660Y34050D02*
X26260D01*
X25460Y33250D02*
Y34850D01*
X24660Y37450D02*
X26260D01*
X25460Y36650D02*
Y38250D01*
X14740Y18550D02*
X16340D01*
X15540Y17750D02*
Y19350D01*
X14740Y21950D02*
X16340D01*
X15540Y21150D02*
Y22750D01*
X24660Y18550D02*
X26260D01*
X25460Y17750D02*
Y19350D01*
X24660Y21950D02*
X26260D01*
X25460Y21150D02*
Y22750D01*
X14740Y10800D02*
X16340D01*
X15540Y10000D02*
Y11600D01*
X14740Y14200D02*
X16340D01*
X15540Y13400D02*
Y15000D01*
X24660Y10800D02*
X26260D01*
X25460Y10000D02*
Y11600D01*
X24660Y14200D02*
X26260D01*
X25460Y13400D02*
Y15000D01*
X14740Y26300D02*
X16340D01*
X15540Y25500D02*
Y27100D01*
X14740Y29700D02*
X16340D01*
X15540Y28900D02*
Y30500D01*
X24660Y26300D02*
X26260D01*
X25460Y25500D02*
Y27100D01*
X24660Y29700D02*
X26260D01*
X25460Y28900D02*
Y30500D01*
X58250Y4500D02*
X61750D01*
X60000Y2750D02*
Y6250D01*
X18750Y51250D02*
X22250D01*
X20500Y49500D02*
Y53000D01*
X40240Y33300D02*
X41840D01*
X41040Y32500D02*
Y34100D01*
X40240Y36700D02*
X41840D01*
X41040Y35900D02*
Y37500D01*
X50160Y33300D02*
X51760D01*
X50960Y32500D02*
Y34100D01*
X50160Y36700D02*
X51760D01*
X50960Y35900D02*
Y37500D01*
X44750Y10000D02*
X47250D01*
X46000Y8750D02*
Y11250D01*
X37360Y10000D02*
X39860D01*
X38610Y8750D02*
Y11250D01*
X52140Y10000D02*
X54640D01*
X53390Y8750D02*
Y11250D01*
X41300Y28240D02*
X42800D01*
X42050Y27490D02*
Y28990D01*
X49200Y28240D02*
X50700D01*
X49950Y27490D02*
Y28990D01*
X58250Y51000D02*
X61750D01*
X60000Y49250D02*
Y52750D01*
X18750Y4500D02*
X22250D01*
X20500Y2750D02*
Y6250D01*
X29850Y49000D02*
X30150D01*
X30000Y48850D02*
Y49150D01*
%TF.MD5,6117cfc2e3be21ac307216d6402c09b2*%
M02*
