%TF.GenerationSoftware,Altium Limited,Altium Designer,25.2.1 (25)*%
G04 Layer_Color=2752767*
%FSLAX43Y43*%
%MOMM*%
%TF.SameCoordinates,FC4E0D8B-961B-4709-82B6-B3404D815502*%
%TF.FilePolarity,Positive*%
%TF.FileFunction,Drawing*%
%TF.Part,Single*%
G01*
G75*
%TA.AperFunction,NonConductor*%
%ADD32C,0.127*%
%ADD41C,0.169*%
D32*
X6000Y49692D02*
X6254Y49946D01*
X6508D01*
X6254Y50200D01*
X6508Y50454D01*
X6254D01*
X6000Y50708D01*
X5746Y50454D01*
X5492D01*
X5746Y50200D01*
X5492Y49946D01*
X5746D01*
X6000Y49692D01*
Y44612D02*
X6254Y44866D01*
X6508D01*
X6254Y45120D01*
X6508Y45374D01*
X6254D01*
X6000Y45628D01*
X5746Y45374D01*
X5492D01*
X5746Y45120D01*
X5492Y44866D01*
X5746D01*
X6000Y44612D01*
Y39612D02*
X6254Y39866D01*
X6508D01*
X6254Y40120D01*
X6508Y40374D01*
X6254D01*
X6000Y40628D01*
X5746Y40374D01*
X5492D01*
X5746Y40120D01*
X5492Y39866D01*
X5746D01*
X6000Y39612D01*
Y34532D02*
X6254Y34786D01*
X6508D01*
X6254Y35040D01*
X6508Y35294D01*
X6254D01*
X6000Y35548D01*
X5746Y35294D01*
X5492D01*
X5746Y35040D01*
X5492Y34786D01*
X5746D01*
X6000Y34532D01*
Y29532D02*
X6254Y29786D01*
X6508D01*
X6254Y30040D01*
X6508Y30294D01*
X6254D01*
X6000Y30548D01*
X5746Y30294D01*
X5492D01*
X5746Y30040D01*
X5492Y29786D01*
X5746D01*
X6000Y29532D01*
Y24452D02*
X6254Y24706D01*
X6508D01*
X6254Y24960D01*
X6508Y25214D01*
X6254D01*
X6000Y25468D01*
X5746Y25214D01*
X5492D01*
X5746Y24960D01*
X5492Y24706D01*
X5746D01*
X6000Y24452D01*
Y19452D02*
X6254Y19706D01*
X6508D01*
X6254Y19960D01*
X6508Y20214D01*
X6254D01*
X6000Y20468D01*
X5746Y20214D01*
X5492D01*
X5746Y19960D01*
X5492Y19706D01*
X5746D01*
X6000Y19452D01*
Y14372D02*
X6254Y14626D01*
X6508D01*
X6254Y14880D01*
X6508Y15134D01*
X6254D01*
X6000Y15388D01*
X5746Y15134D01*
X5492D01*
X5746Y14880D01*
X5492Y14626D01*
X5746D01*
X6000Y14372D01*
Y9372D02*
X6254Y9626D01*
X6508D01*
X6254Y9880D01*
X6508Y10134D01*
X6254D01*
X6000Y10388D01*
X5746Y10134D01*
X5492D01*
X5746Y9880D01*
X5492Y9626D01*
X5746D01*
X6000Y9372D01*
Y4292D02*
X6254Y4546D01*
X6508D01*
X6254Y4800D01*
X6508Y5054D01*
X6254D01*
X6000Y5308D01*
X5746Y5054D01*
X5492D01*
X5746Y4800D01*
X5492Y4546D01*
X5746D01*
X6000Y4292D01*
X15032Y41242D02*
Y42258D01*
X16048D01*
Y41242D01*
X15032D01*
Y44642D02*
Y45658D01*
X16048D01*
Y44642D01*
X15032D01*
X24952Y41242D02*
Y42258D01*
X25968D01*
Y41242D01*
X24952D01*
Y44642D02*
Y45658D01*
X25968D01*
Y44642D01*
X24952D01*
X15032Y33542D02*
Y34558D01*
X16048D01*
Y33542D01*
X15032D01*
Y36942D02*
Y37958D01*
X16048D01*
Y36942D01*
X15032D01*
X24952Y33542D02*
Y34558D01*
X25968D01*
Y33542D01*
X24952D01*
Y36942D02*
Y37958D01*
X25968D01*
Y36942D01*
X24952D01*
X15032Y18042D02*
Y19058D01*
X16048D01*
Y18042D01*
X15032D01*
Y21442D02*
Y22458D01*
X16048D01*
Y21442D01*
X15032D01*
X24952Y18042D02*
Y19058D01*
X25968D01*
Y18042D01*
X24952D01*
Y21442D02*
Y22458D01*
X25968D01*
Y21442D01*
X24952D01*
X15032Y10292D02*
Y11308D01*
X16048D01*
Y10292D01*
X15032D01*
Y13692D02*
Y14708D01*
X16048D01*
Y13692D01*
X15032D01*
X24952Y10292D02*
Y11308D01*
X25968D01*
Y10292D01*
X24952D01*
Y13692D02*
Y14708D01*
X25968D01*
Y13692D01*
X24952D01*
X15032Y25792D02*
Y26808D01*
X16048D01*
Y25792D01*
X15032D01*
Y29192D02*
Y30208D01*
X16048D01*
Y29192D01*
X15032D01*
X24952Y25792D02*
Y26808D01*
X25968D01*
Y25792D01*
X24952D01*
Y29192D02*
Y30208D01*
X25968D01*
Y29192D01*
X24952D01*
X59492Y3992D02*
X59746Y4500D01*
X59492Y5008D01*
X60000Y4754D01*
X60508Y5008D01*
X60254Y4500D01*
X60508Y3992D01*
X60000Y4246D01*
X59492Y3992D01*
X19992Y50742D02*
X20246Y51250D01*
X19992Y51758D01*
X20500Y51504D01*
X21008Y51758D01*
X20754Y51250D01*
X21008Y50742D01*
X20500Y50996D01*
X19992Y50742D01*
X40532Y32792D02*
Y33808D01*
X41548D01*
Y32792D01*
X40532D01*
Y36192D02*
Y37208D01*
X41548D01*
Y36192D01*
X40532D01*
X50452Y32792D02*
Y33808D01*
X51468D01*
Y32792D01*
X50452D01*
Y36192D02*
Y37208D01*
X51468D01*
Y36192D01*
X50452D01*
X42050Y27732D02*
X41542Y28748D01*
X42558D01*
X42050Y27732D01*
X49950D02*
X49442Y28748D01*
X50458D01*
X49950Y27732D01*
X59492Y50492D02*
X59746Y51000D01*
X59492Y51508D01*
X60000Y51254D01*
X60508Y51508D01*
X60254Y51000D01*
X60508Y50492D01*
X60000Y50746D01*
X59492Y50492D01*
X19992Y3992D02*
X20246Y4500D01*
X19992Y5008D01*
X20500Y4754D01*
X21008Y5008D01*
X20754Y4500D01*
X21008Y3992D01*
X20500Y4246D01*
X19992Y3992D01*
X29746Y48746D02*
Y48492D01*
X30254D01*
Y48746D01*
X30508D01*
Y49254D01*
X30254D01*
Y49508D01*
X29746D01*
Y49254D01*
X29492D01*
Y48746D01*
X29746D01*
D41*
X46508Y10000D02*
G03*
X46508Y10000I-508J0D01*
G01*
X39118D02*
G03*
X39118Y10000I-508J0D01*
G01*
X53898D02*
G03*
X53898Y10000I-508J0D01*
G01*
%TF.MD5,9505df7da6b2306a3dd5e58dc3f84357*%
M02*
