%TF.GenerationSoftware,Altium Limited,Altium Designer,25.2.1 (25)*%
G04 Layer_Color=255*
%FSLAX43Y43*%
%MOMM*%
%TF.SameCoordinates,15E4D4AB-41CD-4887-95FF-7FA6A238CDF5*%
%TF.FilePolarity,Positive*%
%TF.FileFunction,Pads,Bot*%
%TF.Part,Single*%
G01*
G75*
%TA.AperFunction,SMDPad,CuDef*%
%ADD11R,1.250X0.600*%
%TA.AperFunction,ComponentPad*%
%ADD14C,1.508*%
%ADD15R,1.508X1.508*%
%ADD16C,4.000*%
%ADD17R,1.800X1.800*%
%ADD18C,1.800*%
%ADD19R,1.275X1.275*%
%ADD20C,1.275*%
%ADD21C,1.725*%
%ADD22R,1.725X1.725*%
%ADD23C,1.350*%
%ADD24R,1.350X1.350*%
%ADD25R,1.725X1.725*%
%ADD26C,1.400*%
%ADD27R,1.400X1.400*%
%ADD28C,5.000*%
%ADD29C,2.300*%
%ADD30C,2.000*%
%ADD31C,6.000*%
%ADD32R,1.800X1.800*%
%ADD33C,1.500*%
%ADD34R,1.500X1.500*%
%TA.AperFunction,SMDPad,CuDef*%
%ADD38R,0.600X1.250*%
%ADD39R,2.320X3.810*%
%ADD40R,11.000X9.650*%
%ADD41R,0.910X2.160*%
%ADD42R,10.800X10.410*%
%ADD43R,1.250X4.700*%
D11*
X51280Y42100D02*
D03*
Y43900D02*
D03*
X66140Y42100D02*
D03*
Y43900D02*
D03*
X70993Y56400D02*
D03*
Y54600D02*
D03*
X41280Y56400D02*
D03*
Y54600D02*
D03*
X56140Y56400D02*
D03*
Y54600D02*
D03*
X81000Y42100D02*
D03*
Y43900D02*
D03*
X66560Y26350D02*
D03*
Y28150D02*
D03*
X80560Y26350D02*
D03*
Y28150D02*
D03*
X52560Y26350D02*
D03*
Y28150D02*
D03*
X38560Y26350D02*
D03*
Y28150D02*
D03*
X24560Y26350D02*
D03*
Y28150D02*
D03*
X16940Y38350D02*
D03*
Y40150D02*
D03*
X58940Y38350D02*
D03*
Y40150D02*
D03*
X30940Y38350D02*
D03*
Y40150D02*
D03*
X86350Y85100D02*
D03*
Y86900D02*
D03*
X72940Y38350D02*
D03*
Y40150D02*
D03*
X44940Y38350D02*
D03*
Y40150D02*
D03*
D14*
X7500Y70500D02*
D03*
Y68000D02*
D03*
Y66000D02*
D03*
D15*
Y63500D02*
D03*
D16*
X4790Y73570D02*
D03*
Y60430D02*
D03*
D17*
X95250Y15748D02*
D03*
D18*
Y13208D02*
D03*
X55650Y20000D02*
D03*
X58190D02*
D03*
X60730D02*
D03*
X63270D02*
D03*
X65810D02*
D03*
D19*
X43982Y64750D02*
D03*
X79018Y70000D02*
D03*
X61518D02*
D03*
X52768D02*
D03*
X44018D02*
D03*
X70268D02*
D03*
X78982Y64750D02*
D03*
X70232D02*
D03*
X61482D02*
D03*
X52732D02*
D03*
D20*
X43982Y61250D02*
D03*
X79018Y73500D02*
D03*
X61518D02*
D03*
X52768D02*
D03*
X44018D02*
D03*
X70268D02*
D03*
X78982Y61250D02*
D03*
X70232D02*
D03*
X61482D02*
D03*
X52732D02*
D03*
D21*
X56960Y83000D02*
D03*
X59500D02*
D03*
X36020Y36250D02*
D03*
X33480D02*
D03*
X30940D02*
D03*
X50020D02*
D03*
X47480D02*
D03*
X44940D02*
D03*
X64020D02*
D03*
X61480D02*
D03*
X58940D02*
D03*
X22020D02*
D03*
X19480D02*
D03*
X16940D02*
D03*
X78020D02*
D03*
X75480D02*
D03*
X72940D02*
D03*
X5834Y7151D02*
D03*
Y9691D02*
D03*
Y18151D02*
D03*
Y20691D02*
D03*
X11834Y7151D02*
D03*
Y4611D02*
D03*
Y18151D02*
D03*
Y15611D02*
D03*
X52560Y30250D02*
D03*
X50020D02*
D03*
X47480D02*
D03*
X24560D02*
D03*
X22020D02*
D03*
X19480D02*
D03*
X38560D02*
D03*
X36020D02*
D03*
X33480D02*
D03*
X66560D02*
D03*
X64020D02*
D03*
X61480D02*
D03*
X80560D02*
D03*
X78020D02*
D03*
X75480D02*
D03*
D22*
X62040Y83000D02*
D03*
X38560Y36250D02*
D03*
X52560D02*
D03*
X66560D02*
D03*
X24560D02*
D03*
X80560D02*
D03*
X44940Y30250D02*
D03*
X16940D02*
D03*
X30940D02*
D03*
X58940D02*
D03*
X72940D02*
D03*
D23*
X66140Y52500D02*
D03*
X64140D02*
D03*
X62140D02*
D03*
X60140D02*
D03*
X56140D02*
D03*
X81000D02*
D03*
X79000D02*
D03*
X77000D02*
D03*
X75000D02*
D03*
X71000D02*
D03*
Y46000D02*
D03*
X73000D02*
D03*
X75000D02*
D03*
X77000D02*
D03*
X81000D02*
D03*
X56140D02*
D03*
X58140D02*
D03*
X60140D02*
D03*
X62140D02*
D03*
X66140D02*
D03*
X51280Y52500D02*
D03*
X49280D02*
D03*
X47280D02*
D03*
X45280D02*
D03*
X41280D02*
D03*
Y46000D02*
D03*
X43280D02*
D03*
X45280D02*
D03*
X47280D02*
D03*
X51280D02*
D03*
D24*
X58140Y52500D02*
D03*
X73000D02*
D03*
X79000Y46000D02*
D03*
X64140D02*
D03*
X43280Y52500D02*
D03*
X49280Y46000D02*
D03*
D25*
X5834Y4611D02*
D03*
Y15611D02*
D03*
X11834Y9691D02*
D03*
Y20691D02*
D03*
D26*
X71110Y82190D02*
D03*
X86350D02*
D03*
X83810D02*
D03*
X81270D02*
D03*
X78730D02*
D03*
X76190D02*
D03*
X73650D02*
D03*
X86350Y89810D02*
D03*
X83810D02*
D03*
X81270D02*
D03*
X78730D02*
D03*
X76190D02*
D03*
X73650D02*
D03*
X51260Y95620D02*
D03*
Y88000D02*
D03*
X48720Y95620D02*
D03*
Y88000D02*
D03*
X46180Y95620D02*
D03*
X43640D02*
D03*
Y88000D02*
D03*
X41100D02*
D03*
X38560Y95620D02*
D03*
Y88000D02*
D03*
X36020Y95620D02*
D03*
X33480D02*
D03*
Y88000D02*
D03*
X30940Y95620D02*
D03*
Y88000D02*
D03*
X28400Y95620D02*
D03*
Y88000D02*
D03*
X25860Y95620D02*
D03*
Y88000D02*
D03*
X23320Y95620D02*
D03*
Y88000D02*
D03*
X20780D02*
D03*
X18240Y95620D02*
D03*
Y88000D02*
D03*
X15700Y95620D02*
D03*
X13160D02*
D03*
Y88000D02*
D03*
X10620Y95620D02*
D03*
X8080D02*
D03*
Y88000D02*
D03*
X5540Y95620D02*
D03*
Y88000D02*
D03*
X3000D02*
D03*
D27*
X88890Y82190D02*
D03*
Y89810D02*
D03*
X71110D02*
D03*
X46180Y88000D02*
D03*
X41100Y95620D02*
D03*
X36020Y88000D02*
D03*
X20780Y95620D02*
D03*
X15700Y88000D02*
D03*
X10620D02*
D03*
X3000Y95620D02*
D03*
D28*
X92500Y94395D02*
D03*
X67500D02*
D03*
X80000Y131795D02*
D03*
D29*
X89960Y43540D02*
D03*
X92500D02*
D03*
X95040D02*
D03*
Y38460D02*
D03*
X92500D02*
D03*
X89960D02*
D03*
Y53540D02*
D03*
X92500D02*
D03*
X95040D02*
D03*
Y48460D02*
D03*
X92500D02*
D03*
X89960D02*
D03*
Y63540D02*
D03*
X92500D02*
D03*
X95040D02*
D03*
Y58460D02*
D03*
X92500D02*
D03*
X89960D02*
D03*
Y33540D02*
D03*
X92500D02*
D03*
X95040D02*
D03*
Y28460D02*
D03*
X92500D02*
D03*
X89960D02*
D03*
D30*
X4500Y44500D02*
D03*
Y39420D02*
D03*
Y49500D02*
D03*
Y54580D02*
D03*
D31*
X94996Y82169D02*
D03*
X4500Y80000D02*
D03*
X94500Y4500D02*
D03*
X4500Y32000D02*
D03*
D32*
X68350Y20000D02*
D03*
D33*
X33130Y19080D02*
D03*
X35670D02*
D03*
X33130Y16540D02*
D03*
X35670D02*
D03*
X33130Y14000D02*
D03*
X35670D02*
D03*
X33130Y11460D02*
D03*
X35670D02*
D03*
X63600Y2500D02*
D03*
X61060D02*
D03*
X58520Y2500D02*
D03*
X55980Y2500D02*
D03*
X73760D02*
D03*
X71220D02*
D03*
X68680Y2500D02*
D03*
X66140Y2500D02*
D03*
X76300D02*
D03*
X89000Y2500D02*
D03*
X86460D02*
D03*
X83920D02*
D03*
X81380Y2500D02*
D03*
X78840Y2500D02*
D03*
X63600Y6730D02*
D03*
X61060Y6730D02*
D03*
X55980D02*
D03*
X58520D02*
D03*
X78840Y6730D02*
D03*
X81380Y6730D02*
D03*
X83920Y6730D02*
D03*
X86460D02*
D03*
X89000D02*
D03*
X76300Y6730D02*
D03*
X66140D02*
D03*
X68680Y6730D02*
D03*
X71220Y6730D02*
D03*
X73760D02*
D03*
X89000Y9270D02*
D03*
X63600Y9270D02*
D03*
X61060Y9270D02*
D03*
X58520D02*
D03*
X78840Y9270D02*
D03*
X81380Y9270D02*
D03*
X83920Y9270D02*
D03*
X86460D02*
D03*
X76300Y9270D02*
D03*
X66140D02*
D03*
X68680Y9270D02*
D03*
X71220Y9270D02*
D03*
X73760D02*
D03*
X55980Y9270D02*
D03*
X46670Y11460D02*
D03*
X44130D02*
D03*
X46670Y14000D02*
D03*
X44130D02*
D03*
X46670Y16540D02*
D03*
X44130D02*
D03*
X46670Y19080D02*
D03*
X44130D02*
D03*
X24670Y11460D02*
D03*
X22130D02*
D03*
X24670Y14000D02*
D03*
X22130D02*
D03*
X24670Y16540D02*
D03*
X22130D02*
D03*
X24670Y19080D02*
D03*
X22130D02*
D03*
D34*
X33130Y8920D02*
D03*
X35670D02*
D03*
X46670D02*
D03*
X44130D02*
D03*
X24670D02*
D03*
X22130D02*
D03*
D38*
X5345Y70375D02*
D03*
X3545D02*
D03*
D39*
X33525Y67140D02*
D03*
X28475D02*
D03*
X20525D02*
D03*
X15475D02*
D03*
D40*
X31000Y76860D02*
D03*
X18000D02*
D03*
D41*
X27190Y55750D02*
D03*
X28460D02*
D03*
X29730D02*
D03*
X31000D02*
D03*
X32270D02*
D03*
X33540D02*
D03*
X34810D02*
D03*
X21810D02*
D03*
X20540D02*
D03*
X19270D02*
D03*
X18000D02*
D03*
X16730D02*
D03*
X15460D02*
D03*
X14190D02*
D03*
D42*
X31000Y47430D02*
D03*
X18000D02*
D03*
D43*
X30375Y60706D02*
D03*
X27125D02*
D03*
X14125Y60750D02*
D03*
X17375D02*
D03*
%TF.MD5,61767663d44fed14e71c73c62850009b*%
M02*
