%TF.GenerationSoftware,Altium Limited,Altium Designer,25.2.1 (25)*%
G04 Layer_Color=0*
%FSLAX43Y43*%
%MOMM*%
%TF.SameCoordinates,15E4D4AB-41CD-4887-95FF-7FA6A238CDF5*%
%TF.FilePolarity,Positive*%
%TF.FileFunction,Plated,1,4,PTH,Drill*%
%TF.Part,Single*%
G01*
G75*
%TA.AperFunction,ComponentDrill*%
%ADD88C,1.000*%
%ADD89C,2.380*%
%ADD90C,1.200*%
%ADD91C,0.850*%
%ADD92C,1.150*%
%ADD93C,0.900*%
%ADD94C,1.150*%
%ADD95C,3.200*%
%ADD96C,1.600*%
%ADD97C,1.300*%
%ADD98C,3.500*%
%ADD99C,1.200*%
%ADD100C,3.500*%
%ADD101C,0.900*%
%TA.AperFunction,ViaDrill,NotFilled*%
%ADD102C,0.300*%
D88*
X7500Y70500D02*
D03*
Y68000D02*
D03*
Y66000D02*
D03*
Y63500D02*
D03*
X33130Y19080D02*
D03*
X35670D02*
D03*
X33130Y16540D02*
D03*
X35670D02*
D03*
X33130Y14000D02*
D03*
X35670D02*
D03*
X33130Y11460D02*
D03*
X35670D02*
D03*
X33130Y8920D02*
D03*
X35670D02*
D03*
X46670D02*
D03*
X44130D02*
D03*
X46670Y11460D02*
D03*
X44130D02*
D03*
X46670Y14000D02*
D03*
X44130D02*
D03*
X46670Y16540D02*
D03*
X44130D02*
D03*
X46670Y19080D02*
D03*
X44130D02*
D03*
X24670Y8920D02*
D03*
X22130D02*
D03*
X24670Y11460D02*
D03*
X22130D02*
D03*
X24670Y14000D02*
D03*
X22130D02*
D03*
X24670Y16540D02*
D03*
X22130D02*
D03*
X24670Y19080D02*
D03*
X22130D02*
D03*
D89*
X4790Y73570D02*
D03*
Y60430D02*
D03*
D90*
X95250Y15748D02*
D03*
Y13208D02*
D03*
D91*
X43982Y64750D02*
D03*
Y61250D02*
D03*
X79018Y70000D02*
D03*
Y73500D02*
D03*
X61518D02*
D03*
Y70000D02*
D03*
X52768Y73500D02*
D03*
Y70000D02*
D03*
X44018Y73500D02*
D03*
Y70000D02*
D03*
X70268Y73500D02*
D03*
Y70000D02*
D03*
X78982Y61250D02*
D03*
Y64750D02*
D03*
X70232Y61250D02*
D03*
Y64750D02*
D03*
X61482Y61250D02*
D03*
Y64750D02*
D03*
X52732Y61250D02*
D03*
Y64750D02*
D03*
D92*
X56960Y83000D02*
D03*
X59500D02*
D03*
X62040D02*
D03*
X38560Y36250D02*
D03*
X36020D02*
D03*
X33480D02*
D03*
X30940D02*
D03*
X52560D02*
D03*
X50020D02*
D03*
X47480D02*
D03*
X44940D02*
D03*
X66560D02*
D03*
X64020D02*
D03*
X61480D02*
D03*
X58940D02*
D03*
X24560D02*
D03*
X22020D02*
D03*
X19480D02*
D03*
X16940D02*
D03*
X80560D02*
D03*
X78020D02*
D03*
X75480D02*
D03*
X72940D02*
D03*
X52560Y30250D02*
D03*
X50020D02*
D03*
X47480D02*
D03*
X44940D02*
D03*
X24560D02*
D03*
X22020D02*
D03*
X19480D02*
D03*
X16940D02*
D03*
X38560D02*
D03*
X36020D02*
D03*
X33480D02*
D03*
X30940D02*
D03*
X66560D02*
D03*
X64020D02*
D03*
X61480D02*
D03*
X58940D02*
D03*
X80560D02*
D03*
X78020D02*
D03*
X75480D02*
D03*
X72940D02*
D03*
D93*
X66140Y52500D02*
D03*
X64140D02*
D03*
X62140D02*
D03*
X60140D02*
D03*
X58140D02*
D03*
X56140D02*
D03*
X81000D02*
D03*
X79000D02*
D03*
X77000D02*
D03*
X75000D02*
D03*
X73000D02*
D03*
X71000D02*
D03*
Y46000D02*
D03*
X73000D02*
D03*
X75000D02*
D03*
X77000D02*
D03*
X79000D02*
D03*
X81000D02*
D03*
X56140D02*
D03*
X58140D02*
D03*
X60140D02*
D03*
X62140D02*
D03*
X64140D02*
D03*
X66140D02*
D03*
X51280Y52500D02*
D03*
X49280D02*
D03*
X47280D02*
D03*
X45280D02*
D03*
X43280D02*
D03*
X41280D02*
D03*
Y46000D02*
D03*
X43280D02*
D03*
X45280D02*
D03*
X47280D02*
D03*
X49280D02*
D03*
X51280D02*
D03*
X71110Y82190D02*
D03*
X88890D02*
D03*
X86350D02*
D03*
X83810D02*
D03*
X81270D02*
D03*
X78730D02*
D03*
X76190D02*
D03*
X73650D02*
D03*
X88890Y89810D02*
D03*
X86350D02*
D03*
X83810D02*
D03*
X81270D02*
D03*
X78730D02*
D03*
X76190D02*
D03*
X73650D02*
D03*
X71110D02*
D03*
X63600Y2500D02*
D03*
X61060D02*
D03*
X58520Y2500D02*
D03*
X55980Y2500D02*
D03*
X73760D02*
D03*
X71220D02*
D03*
X68680Y2500D02*
D03*
X66140Y2500D02*
D03*
X76300D02*
D03*
X89000Y2500D02*
D03*
X86460D02*
D03*
X83920D02*
D03*
X81380Y2500D02*
D03*
X78840Y2500D02*
D03*
X63600Y6730D02*
D03*
X61060Y6730D02*
D03*
X55980D02*
D03*
X58520D02*
D03*
X78840Y6730D02*
D03*
X81380Y6730D02*
D03*
X83920Y6730D02*
D03*
X86460D02*
D03*
X89000D02*
D03*
X76300Y6730D02*
D03*
X66140D02*
D03*
X68680Y6730D02*
D03*
X71220Y6730D02*
D03*
X73760D02*
D03*
X63600Y9270D02*
D03*
X61060Y9270D02*
D03*
X58520D02*
D03*
X78840Y9270D02*
D03*
X81380Y9270D02*
D03*
X83920Y9270D02*
D03*
X86460D02*
D03*
X76300Y9270D02*
D03*
X66140D02*
D03*
X68680Y9270D02*
D03*
X71220Y9270D02*
D03*
X73760D02*
D03*
X55980Y9270D02*
D03*
X51260Y95620D02*
D03*
Y88000D02*
D03*
X48720Y95620D02*
D03*
Y88000D02*
D03*
X46180Y95620D02*
D03*
Y88000D02*
D03*
X43640Y95620D02*
D03*
Y88000D02*
D03*
X41100Y95620D02*
D03*
Y88000D02*
D03*
X38560Y95620D02*
D03*
Y88000D02*
D03*
X36020Y95620D02*
D03*
Y88000D02*
D03*
X33480Y95620D02*
D03*
Y88000D02*
D03*
X30940Y95620D02*
D03*
Y88000D02*
D03*
X28400Y95620D02*
D03*
Y88000D02*
D03*
X25860Y95620D02*
D03*
Y88000D02*
D03*
X23320Y95620D02*
D03*
Y88000D02*
D03*
X20780Y95620D02*
D03*
Y88000D02*
D03*
X18240Y95620D02*
D03*
Y88000D02*
D03*
X15700Y95620D02*
D03*
Y88000D02*
D03*
X13160Y95620D02*
D03*
Y88000D02*
D03*
X10620Y95620D02*
D03*
Y88000D02*
D03*
X8080Y95620D02*
D03*
Y88000D02*
D03*
X5540Y95620D02*
D03*
Y88000D02*
D03*
X3000Y95620D02*
D03*
Y88000D02*
D03*
D94*
X5834Y4611D02*
D03*
Y7151D02*
D03*
Y9691D02*
D03*
Y15611D02*
D03*
Y18151D02*
D03*
Y20691D02*
D03*
X11834Y9691D02*
D03*
Y7151D02*
D03*
Y4611D02*
D03*
Y20691D02*
D03*
Y18151D02*
D03*
Y15611D02*
D03*
D95*
X92500Y94395D02*
D03*
X67500D02*
D03*
X80000Y131795D02*
D03*
D96*
X89960Y43540D02*
D03*
X92500D02*
D03*
X95040D02*
D03*
Y38460D02*
D03*
X92500D02*
D03*
X89960D02*
D03*
Y53540D02*
D03*
X92500D02*
D03*
X95040D02*
D03*
Y48460D02*
D03*
X92500D02*
D03*
X89960D02*
D03*
Y63540D02*
D03*
X92500D02*
D03*
X95040D02*
D03*
Y58460D02*
D03*
X92500D02*
D03*
X89960D02*
D03*
Y33540D02*
D03*
X92500D02*
D03*
X95040D02*
D03*
Y28460D02*
D03*
X92500D02*
D03*
X89960D02*
D03*
D97*
X4500Y44500D02*
D03*
Y39420D02*
D03*
Y49500D02*
D03*
Y54580D02*
D03*
D98*
X94996Y82169D02*
D03*
X94500Y4500D02*
D03*
X4500Y32000D02*
D03*
D99*
X68350Y20000D02*
D03*
X55650D02*
D03*
X58190D02*
D03*
X60730D02*
D03*
X63270D02*
D03*
X65810D02*
D03*
D100*
X4500Y80000D02*
D03*
D101*
X89000Y9270D02*
D03*
D102*
X13500Y79500D02*
D03*
X22500D02*
D03*
X13500Y73000D02*
D03*
X26250Y81000D02*
D03*
X35500Y73000D02*
D03*
X31675Y76860D02*
D03*
X18000D02*
D03*
X33540Y64250D02*
D03*
Y57300D02*
D03*
X18000Y44000D02*
D03*
X31000D02*
D03*
X18000Y51000D02*
D03*
X80391Y77597D02*
D03*
X28250Y60750D02*
D03*
X10000Y66250D02*
D03*
X12000D02*
D03*
Y59000D02*
D03*
X29730Y57300D02*
D03*
X16730D02*
D03*
X29000Y53700D02*
D03*
X20000D02*
D03*
X15470Y53750D02*
D03*
X34800D02*
D03*
X31000Y47500D02*
D03*
Y51000D02*
D03*
X34520Y47500D02*
D03*
X27480D02*
D03*
X16000D02*
D03*
X21520D02*
D03*
X18000D02*
D03*
Y57300D02*
D03*
X31000D02*
D03*
X32500Y61750D02*
D03*
Y62750D02*
D03*
Y58750D02*
D03*
Y59750D02*
D03*
Y60750D02*
D03*
X19500Y60794D02*
D03*
Y59794D02*
D03*
Y58794D02*
D03*
Y62794D02*
D03*
Y61794D02*
D03*
X16940Y41250D02*
D03*
X30940D02*
D03*
X44940D02*
D03*
X72940D02*
D03*
X66140Y41000D02*
D03*
X58940Y41250D02*
D03*
X51280Y41000D02*
D03*
%TF.MD5,8c6c56d72d80acbaf7463e661c837cb8*%
M02*
