%TF.GenerationSoftware,Altium Limited,Altium Designer,25.2.1 (25)*%
G04 Layer_Color=128*
%FSLAX43Y43*%
%MOMM*%
%TF.SameCoordinates,1E4C7E7B-F919-4A3B-B485-5DB5AB6177BA*%
%TF.FilePolarity,Positive*%
%TF.FileFunction,Drillmap*%
%TF.Part,Single*%
G01*
G75*
%TA.AperFunction,NonConductor*%
%ADD50C,0.127*%
D50*
X56385Y83000D02*
X57535D01*
X56960Y82425D02*
Y83575D01*
X58925Y83000D02*
X60075D01*
X59500Y82425D02*
Y83575D01*
X61465Y83000D02*
X62615D01*
X62040Y82425D02*
Y83575D01*
X61093Y73500D02*
X61943D01*
X61518Y73075D02*
Y73925D01*
X61093Y70000D02*
X61943D01*
X61518Y69575D02*
Y70425D01*
X78593Y73500D02*
X79443D01*
X79018Y73075D02*
Y73925D01*
X78593Y70000D02*
X79443D01*
X79018Y69575D02*
Y70425D01*
X52343Y73500D02*
X53193D01*
X52768Y73075D02*
Y73925D01*
X52343Y70000D02*
X53193D01*
X52768Y69575D02*
Y70425D01*
X43593Y73500D02*
X44443D01*
X44018Y73075D02*
Y73925D01*
X43593Y70000D02*
X44443D01*
X44018Y69575D02*
Y70425D01*
X69843Y73500D02*
X70693D01*
X70268Y73075D02*
Y73925D01*
X69843Y70000D02*
X70693D01*
X70268Y69575D02*
Y70425D01*
X78557Y61250D02*
X79407D01*
X78982Y60825D02*
Y61675D01*
X78557Y64750D02*
X79407D01*
X78982Y64325D02*
Y65175D01*
X69807Y61250D02*
X70657D01*
X70232Y60825D02*
Y61675D01*
X69807Y64750D02*
X70657D01*
X70232Y64325D02*
Y65175D01*
X43557Y61250D02*
X44407D01*
X43982Y60825D02*
Y61675D01*
X43557Y64750D02*
X44407D01*
X43982Y64325D02*
Y65175D01*
X61057Y61250D02*
X61907D01*
X61482Y60825D02*
Y61675D01*
X61057Y64750D02*
X61907D01*
X61482Y64325D02*
Y65175D01*
X52307Y61250D02*
X53157D01*
X52732Y60825D02*
Y61675D01*
X52307Y64750D02*
X53157D01*
X52732Y64325D02*
Y65175D01*
X37985Y36250D02*
X39135D01*
X38560Y35675D02*
Y36825D01*
X35445Y36250D02*
X36595D01*
X36020Y35675D02*
Y36825D01*
X32905Y36250D02*
X34055D01*
X33480Y35675D02*
Y36825D01*
X30365Y36250D02*
X31515D01*
X30940Y35675D02*
Y36825D01*
X51985Y36250D02*
X53135D01*
X52560Y35675D02*
Y36825D01*
X49445Y36250D02*
X50595D01*
X50020Y35675D02*
Y36825D01*
X46905Y36250D02*
X48055D01*
X47480Y35675D02*
Y36825D01*
X44365Y36250D02*
X45515D01*
X44940Y35675D02*
Y36825D01*
X65985Y36250D02*
X67135D01*
X66560Y35675D02*
Y36825D01*
X63445Y36250D02*
X64595D01*
X64020Y35675D02*
Y36825D01*
X60905Y36250D02*
X62055D01*
X61480Y35675D02*
Y36825D01*
X58365Y36250D02*
X59515D01*
X58940Y35675D02*
Y36825D01*
X23985Y36250D02*
X25135D01*
X24560Y35675D02*
Y36825D01*
X21445Y36250D02*
X22595D01*
X22020Y35675D02*
Y36825D01*
X18905Y36250D02*
X20055D01*
X19480Y35675D02*
Y36825D01*
X16365Y36250D02*
X17515D01*
X16940Y35675D02*
Y36825D01*
X79985Y36250D02*
X81135D01*
X80560Y35675D02*
Y36825D01*
X77445Y36250D02*
X78595D01*
X78020Y35675D02*
Y36825D01*
X74905Y36250D02*
X76055D01*
X75480Y35675D02*
Y36825D01*
X72365Y36250D02*
X73515D01*
X72940Y35675D02*
Y36825D01*
X65690Y52500D02*
X66590D01*
X66140Y52050D02*
Y52950D01*
X63690Y52500D02*
X64590D01*
X64140Y52050D02*
Y52950D01*
X61690Y52500D02*
X62590D01*
X62140Y52050D02*
Y52950D01*
X59690Y52500D02*
X60590D01*
X60140Y52050D02*
Y52950D01*
X57690Y52500D02*
X58590D01*
X58140Y52050D02*
Y52950D01*
X55690Y52500D02*
X56590D01*
X56140Y52050D02*
Y52950D01*
X5259Y4611D02*
X6409D01*
X5834Y4036D02*
Y5186D01*
X5259Y7151D02*
X6409D01*
X5834Y6576D02*
Y7726D01*
X5259Y9691D02*
X6409D01*
X5834Y9116D02*
Y10266D01*
X5259Y15611D02*
X6409D01*
X5834Y15036D02*
Y16186D01*
X5259Y18151D02*
X6409D01*
X5834Y17576D02*
Y18726D01*
X5259Y20691D02*
X6409D01*
X5834Y20116D02*
Y21266D01*
X11259Y9691D02*
X12409D01*
X11834Y9116D02*
Y10266D01*
X11259Y7151D02*
X12409D01*
X11834Y6576D02*
Y7726D01*
X11259Y4611D02*
X12409D01*
X11834Y4036D02*
Y5186D01*
X11259Y20691D02*
X12409D01*
X11834Y20116D02*
Y21266D01*
X11259Y18151D02*
X12409D01*
X11834Y17576D02*
Y18726D01*
X11259Y15611D02*
X12409D01*
X11834Y15036D02*
Y16186D01*
X80550Y52500D02*
X81450D01*
X81000Y52050D02*
Y52950D01*
X78550Y52500D02*
X79450D01*
X79000Y52050D02*
Y52950D01*
X76550Y52500D02*
X77450D01*
X77000Y52050D02*
Y52950D01*
X74550Y52500D02*
X75450D01*
X75000Y52050D02*
Y52950D01*
X72550Y52500D02*
X73450D01*
X73000Y52050D02*
Y52950D01*
X70550Y52500D02*
X71450D01*
X71000Y52050D02*
Y52950D01*
X70550Y46000D02*
X71450D01*
X71000Y45550D02*
Y46450D01*
X72550Y46000D02*
X73450D01*
X73000Y45550D02*
Y46450D01*
X74550Y46000D02*
X75450D01*
X75000Y45550D02*
Y46450D01*
X76550Y46000D02*
X77450D01*
X77000Y45550D02*
Y46450D01*
X78550Y46000D02*
X79450D01*
X79000Y45550D02*
Y46450D01*
X80550Y46000D02*
X81450D01*
X81000Y45550D02*
Y46450D01*
X55690Y46000D02*
X56590D01*
X56140Y45550D02*
Y46450D01*
X57690Y46000D02*
X58590D01*
X58140Y45550D02*
Y46450D01*
X59690Y46000D02*
X60590D01*
X60140Y45550D02*
Y46450D01*
X61690Y46000D02*
X62590D01*
X62140Y45550D02*
Y46450D01*
X63690Y46000D02*
X64590D01*
X64140Y45550D02*
Y46450D01*
X65690Y46000D02*
X66590D01*
X66140Y45550D02*
Y46450D01*
X50830Y52500D02*
X51730D01*
X51280Y52050D02*
Y52950D01*
X48830Y52500D02*
X49730D01*
X49280Y52050D02*
Y52950D01*
X46830Y52500D02*
X47730D01*
X47280Y52050D02*
Y52950D01*
X44830Y52500D02*
X45730D01*
X45280Y52050D02*
Y52950D01*
X42830Y52500D02*
X43730D01*
X43280Y52050D02*
Y52950D01*
X40830Y52500D02*
X41730D01*
X41280Y52050D02*
Y52950D01*
X40830Y46000D02*
X41730D01*
X41280Y45550D02*
Y46450D01*
X42830Y46000D02*
X43730D01*
X43280Y45550D02*
Y46450D01*
X44830Y46000D02*
X45730D01*
X45280Y45550D02*
Y46450D01*
X46830Y46000D02*
X47730D01*
X47280Y45550D02*
Y46450D01*
X48830Y46000D02*
X49730D01*
X49280Y45550D02*
Y46450D01*
X50830Y46000D02*
X51730D01*
X51280Y45550D02*
Y46450D01*
X70660Y82190D02*
X71560D01*
X71110Y81740D02*
Y82640D01*
X88440Y82190D02*
X89340D01*
X88890Y81740D02*
Y82640D01*
X85900Y82190D02*
X86800D01*
X86350Y81740D02*
Y82640D01*
X83360Y82190D02*
X84260D01*
X83810Y81740D02*
Y82640D01*
X80820Y82190D02*
X81720D01*
X81270Y81740D02*
Y82640D01*
X78280Y82190D02*
X79180D01*
X78730Y81740D02*
Y82640D01*
X75740Y82190D02*
X76640D01*
X76190Y81740D02*
Y82640D01*
X73200Y82190D02*
X74100D01*
X73650Y81740D02*
Y82640D01*
X88440Y89810D02*
X89340D01*
X88890Y89360D02*
Y90260D01*
X85900Y89810D02*
X86800D01*
X86350Y89360D02*
Y90260D01*
X83360Y89810D02*
X84260D01*
X83810Y89360D02*
Y90260D01*
X80820Y89810D02*
X81720D01*
X81270Y89360D02*
Y90260D01*
X78280Y89810D02*
X79180D01*
X78730Y89360D02*
Y90260D01*
X75740Y89810D02*
X76640D01*
X76190Y89360D02*
Y90260D01*
X73200Y89810D02*
X74100D01*
X73650Y89360D02*
Y90260D01*
X70660Y89810D02*
X71560D01*
X71110Y89360D02*
Y90260D01*
X90900Y94395D02*
X94100D01*
X92500Y92795D02*
Y95995D01*
X65900Y94395D02*
X69100D01*
X67500Y92795D02*
Y95995D01*
X78400Y131795D02*
X81600D01*
X80000Y130195D02*
Y133395D01*
X51985Y30250D02*
X53135D01*
X52560Y29675D02*
Y30825D01*
X49445Y30250D02*
X50595D01*
X50020Y29675D02*
Y30825D01*
X46905Y30250D02*
X48055D01*
X47480Y29675D02*
Y30825D01*
X44365Y30250D02*
X45515D01*
X44940Y29675D02*
Y30825D01*
X23985Y30250D02*
X25135D01*
X24560Y29675D02*
Y30825D01*
X21445Y30250D02*
X22595D01*
X22020Y29675D02*
Y30825D01*
X18905Y30250D02*
X20055D01*
X19480Y29675D02*
Y30825D01*
X16365Y30250D02*
X17515D01*
X16940Y29675D02*
Y30825D01*
X37985Y30250D02*
X39135D01*
X38560Y29675D02*
Y30825D01*
X35445Y30250D02*
X36595D01*
X36020Y29675D02*
Y30825D01*
X32905Y30250D02*
X34055D01*
X33480Y29675D02*
Y30825D01*
X30365Y30250D02*
X31515D01*
X30940Y29675D02*
Y30825D01*
X65985Y30250D02*
X67135D01*
X66560Y29675D02*
Y30825D01*
X63445Y30250D02*
X64595D01*
X64020Y29675D02*
Y30825D01*
X60905Y30250D02*
X62055D01*
X61480Y29675D02*
Y30825D01*
X58365Y30250D02*
X59515D01*
X58940Y29675D02*
Y30825D01*
X79985Y30250D02*
X81135D01*
X80560Y29675D02*
Y30825D01*
X77445Y30250D02*
X78595D01*
X78020Y29675D02*
Y30825D01*
X74905Y30250D02*
X76055D01*
X75480Y29675D02*
Y30825D01*
X72365Y30250D02*
X73515D01*
X72940Y29675D02*
Y30825D01*
X89160Y43540D02*
X90760D01*
X89960Y42740D02*
Y44340D01*
X91700Y43540D02*
X93300D01*
X92500Y42740D02*
Y44340D01*
X94240Y43540D02*
X95840D01*
X95040Y42740D02*
Y44340D01*
X94240Y38460D02*
X95840D01*
X95040Y37660D02*
Y39260D01*
X91700Y38460D02*
X93300D01*
X92500Y37660D02*
Y39260D01*
X89160Y38460D02*
X90760D01*
X89960Y37660D02*
Y39260D01*
X89160Y53540D02*
X90760D01*
X89960Y52740D02*
Y54340D01*
X91700Y53540D02*
X93300D01*
X92500Y52740D02*
Y54340D01*
X94240Y53540D02*
X95840D01*
X95040Y52740D02*
Y54340D01*
X94240Y48460D02*
X95840D01*
X95040Y47660D02*
Y49260D01*
X91700Y48460D02*
X93300D01*
X92500Y47660D02*
Y49260D01*
X89160Y48460D02*
X90760D01*
X89960Y47660D02*
Y49260D01*
X89160Y63540D02*
X90760D01*
X89960Y62740D02*
Y64340D01*
X91700Y63540D02*
X93300D01*
X92500Y62740D02*
Y64340D01*
X94240Y63540D02*
X95840D01*
X95040Y62740D02*
Y64340D01*
X94240Y58460D02*
X95840D01*
X95040Y57660D02*
Y59260D01*
X91700Y58460D02*
X93300D01*
X92500Y57660D02*
Y59260D01*
X89160Y58460D02*
X90760D01*
X89960Y57660D02*
Y59260D01*
X89160Y33540D02*
X90760D01*
X89960Y32740D02*
Y34340D01*
X91700Y33540D02*
X93300D01*
X92500Y32740D02*
Y34340D01*
X94240Y33540D02*
X95840D01*
X95040Y32740D02*
Y34340D01*
X94240Y28460D02*
X95840D01*
X95040Y27660D02*
Y29260D01*
X91700Y28460D02*
X93300D01*
X92500Y27660D02*
Y29260D01*
X89160Y28460D02*
X90760D01*
X89960Y27660D02*
Y29260D01*
X3850Y44500D02*
X5150D01*
X4500Y43850D02*
Y45150D01*
X3850Y39420D02*
X5150D01*
X4500Y38770D02*
Y40070D01*
X3850Y49500D02*
X5150D01*
X4500Y48850D02*
Y50150D01*
X3850Y54580D02*
X5150D01*
X4500Y53930D02*
Y55230D01*
X93246Y82169D02*
X96746D01*
X94996Y80419D02*
Y83919D01*
X67750Y20000D02*
X68950D01*
X68350Y19400D02*
Y20600D01*
X55050Y20000D02*
X56250D01*
X55650Y19400D02*
Y20600D01*
X57590Y20000D02*
X58790D01*
X58190Y19400D02*
Y20600D01*
X60130Y20000D02*
X61330D01*
X60730Y19400D02*
Y20600D01*
X62670Y20000D02*
X63870D01*
X63270Y19400D02*
Y20600D01*
X65210Y20000D02*
X66410D01*
X65810Y19400D02*
Y20600D01*
X2750Y64000D02*
X6250D01*
X4500Y62250D02*
Y65750D01*
X3600Y69430D02*
X5980D01*
X4790Y68240D02*
Y70620D01*
X3600Y82570D02*
X5980D01*
X4790Y81380D02*
Y83760D01*
X7000Y72500D02*
X8000D01*
X7500Y72000D02*
Y73000D01*
X7000Y75000D02*
X8000D01*
X7500Y74500D02*
Y75500D01*
X7000Y77000D02*
X8000D01*
X7500Y76500D02*
Y77500D01*
X7000Y79500D02*
X8000D01*
X7500Y79000D02*
Y80000D01*
X32630Y19080D02*
X33630D01*
X33130Y18580D02*
Y19580D01*
X35170Y19080D02*
X36170D01*
X35670Y18580D02*
Y19580D01*
X32630Y16540D02*
X33630D01*
X33130Y16040D02*
Y17040D01*
X35170Y16540D02*
X36170D01*
X35670Y16040D02*
Y17040D01*
X32630Y14000D02*
X33630D01*
X33130Y13500D02*
Y14500D01*
X35170Y14000D02*
X36170D01*
X35670Y13500D02*
Y14500D01*
X32630Y11460D02*
X33630D01*
X33130Y10960D02*
Y11960D01*
X35170Y11460D02*
X36170D01*
X35670Y10960D02*
Y11960D01*
X32630Y8920D02*
X33630D01*
X33130Y8420D02*
Y9420D01*
X35170Y8920D02*
X36170D01*
X35670Y8420D02*
Y9420D01*
X63150Y2500D02*
X64050D01*
X63600Y2050D02*
Y2950D01*
X60610Y2500D02*
X61510D01*
X61060Y2050D02*
Y2950D01*
X58070Y2500D02*
X58970D01*
X58520Y2050D02*
Y2950D01*
X55530Y2500D02*
X56430D01*
X55980Y2050D02*
Y2950D01*
X73310Y2500D02*
X74210D01*
X73760Y2050D02*
Y2950D01*
X70770Y2500D02*
X71670D01*
X71220Y2050D02*
Y2950D01*
X68230Y2500D02*
X69130D01*
X68680Y2050D02*
Y2950D01*
X65690Y2500D02*
X66590D01*
X66140Y2050D02*
Y2950D01*
X75850Y2500D02*
X76750D01*
X76300Y2050D02*
Y2950D01*
X88550Y2500D02*
X89450D01*
X89000Y2050D02*
Y2950D01*
X86010Y2500D02*
X86910D01*
X86460Y2050D02*
Y2950D01*
X83470Y2500D02*
X84370D01*
X83920Y2050D02*
Y2950D01*
X80930Y2500D02*
X81830D01*
X81380Y2050D02*
Y2950D01*
X78390Y2500D02*
X79290D01*
X78840Y2050D02*
Y2950D01*
X63150Y6730D02*
X64050D01*
X63600Y6280D02*
Y7180D01*
X60610Y6730D02*
X61510D01*
X61060Y6280D02*
Y7180D01*
X55530Y6730D02*
X56430D01*
X55980Y6280D02*
Y7180D01*
X58070Y6730D02*
X58970D01*
X58520Y6280D02*
Y7180D01*
X78390Y6730D02*
X79290D01*
X78840Y6280D02*
Y7180D01*
X80930Y6730D02*
X81830D01*
X81380Y6280D02*
Y7180D01*
X83470Y6730D02*
X84370D01*
X83920Y6280D02*
Y7180D01*
X86010Y6730D02*
X86910D01*
X86460Y6280D02*
Y7180D01*
X88550Y6730D02*
X89450D01*
X89000Y6280D02*
Y7180D01*
X75850Y6730D02*
X76750D01*
X76300Y6280D02*
Y7180D01*
X65690Y6730D02*
X66590D01*
X66140Y6280D02*
Y7180D01*
X68230Y6730D02*
X69130D01*
X68680Y6280D02*
Y7180D01*
X70770Y6730D02*
X71670D01*
X71220Y6280D02*
Y7180D01*
X73310Y6730D02*
X74210D01*
X73760Y6280D02*
Y7180D01*
X88550Y9270D02*
X89450D01*
X89000Y8820D02*
Y9720D01*
X63150Y9270D02*
X64050D01*
X63600Y8820D02*
Y9720D01*
X60610Y9270D02*
X61510D01*
X61060Y8820D02*
Y9720D01*
X58070Y9270D02*
X58970D01*
X58520Y8820D02*
Y9720D01*
X78390Y9270D02*
X79290D01*
X78840Y8820D02*
Y9720D01*
X80930Y9270D02*
X81830D01*
X81380Y8820D02*
Y9720D01*
X83470Y9270D02*
X84370D01*
X83920Y8820D02*
Y9720D01*
X86010Y9270D02*
X86910D01*
X86460Y8820D02*
Y9720D01*
X75850Y9270D02*
X76750D01*
X76300Y8820D02*
Y9720D01*
X65690Y9270D02*
X66590D01*
X66140Y8820D02*
Y9720D01*
X68230Y9270D02*
X69130D01*
X68680Y8820D02*
Y9720D01*
X70770Y9270D02*
X71670D01*
X71220Y8820D02*
Y9720D01*
X73310Y9270D02*
X74210D01*
X73760Y8820D02*
Y9720D01*
X55530Y9270D02*
X56430D01*
X55980Y8820D02*
Y9720D01*
X92750Y4500D02*
X96250D01*
X94500Y2750D02*
Y6250D01*
X2750Y32000D02*
X6250D01*
X4500Y30250D02*
Y33750D01*
X94650Y13208D02*
X95850D01*
X95250Y12608D02*
Y13808D01*
X94650Y15748D02*
X95850D01*
X95250Y15148D02*
Y16348D01*
X46170Y8920D02*
X47170D01*
X46670Y8420D02*
Y9420D01*
X43630Y8920D02*
X44630D01*
X44130Y8420D02*
Y9420D01*
X46170Y11460D02*
X47170D01*
X46670Y10960D02*
Y11960D01*
X43630Y11460D02*
X44630D01*
X44130Y10960D02*
Y11960D01*
X46170Y14000D02*
X47170D01*
X46670Y13500D02*
Y14500D01*
X43630Y14000D02*
X44630D01*
X44130Y13500D02*
Y14500D01*
X46170Y16540D02*
X47170D01*
X46670Y16040D02*
Y17040D01*
X43630Y16540D02*
X44630D01*
X44130Y16040D02*
Y17040D01*
X46170Y19080D02*
X47170D01*
X46670Y18580D02*
Y19580D01*
X43630Y19080D02*
X44630D01*
X44130Y18580D02*
Y19580D01*
X24170Y8920D02*
X25170D01*
X24670Y8420D02*
Y9420D01*
X21630Y8920D02*
X22630D01*
X22130Y8420D02*
Y9420D01*
X24170Y11460D02*
X25170D01*
X24670Y10960D02*
Y11960D01*
X21630Y11460D02*
X22630D01*
X22130Y10960D02*
Y11960D01*
X24170Y14000D02*
X25170D01*
X24670Y13500D02*
Y14500D01*
X21630Y14000D02*
X22630D01*
X22130Y13500D02*
Y14500D01*
X24170Y16540D02*
X25170D01*
X24670Y16040D02*
Y17040D01*
X21630Y16540D02*
X22630D01*
X22130Y16040D02*
Y17040D01*
X24170Y19080D02*
X25170D01*
X24670Y18580D02*
Y19580D01*
X21630Y19080D02*
X22630D01*
X22130Y18580D02*
Y19580D01*
X50810Y95620D02*
X51710D01*
X51260Y95170D02*
Y96070D01*
X50810Y88000D02*
X51710D01*
X51260Y87550D02*
Y88450D01*
X48270Y95620D02*
X49170D01*
X48720Y95170D02*
Y96070D01*
X48270Y88000D02*
X49170D01*
X48720Y87550D02*
Y88450D01*
X45730Y95620D02*
X46630D01*
X46180Y95170D02*
Y96070D01*
X45730Y88000D02*
X46630D01*
X46180Y87550D02*
Y88450D01*
X43190Y95620D02*
X44090D01*
X43640Y95170D02*
Y96070D01*
X43190Y88000D02*
X44090D01*
X43640Y87550D02*
Y88450D01*
X40650Y95620D02*
X41550D01*
X41100Y95170D02*
Y96070D01*
X40650Y88000D02*
X41550D01*
X41100Y87550D02*
Y88450D01*
X38110Y95620D02*
X39010D01*
X38560Y95170D02*
Y96070D01*
X38110Y88000D02*
X39010D01*
X38560Y87550D02*
Y88450D01*
X35570Y95620D02*
X36470D01*
X36020Y95170D02*
Y96070D01*
X35570Y88000D02*
X36470D01*
X36020Y87550D02*
Y88450D01*
X33030Y95620D02*
X33930D01*
X33480Y95170D02*
Y96070D01*
X33030Y88000D02*
X33930D01*
X33480Y87550D02*
Y88450D01*
X30490Y95620D02*
X31390D01*
X30940Y95170D02*
Y96070D01*
X30490Y88000D02*
X31390D01*
X30940Y87550D02*
Y88450D01*
X27950Y95620D02*
X28850D01*
X28400Y95170D02*
Y96070D01*
X27950Y88000D02*
X28850D01*
X28400Y87550D02*
Y88450D01*
X25410Y95620D02*
X26310D01*
X25860Y95170D02*
Y96070D01*
X25410Y88000D02*
X26310D01*
X25860Y87550D02*
Y88450D01*
X22870Y95620D02*
X23770D01*
X23320Y95170D02*
Y96070D01*
X22870Y88000D02*
X23770D01*
X23320Y87550D02*
Y88450D01*
X20330Y95620D02*
X21230D01*
X20780Y95170D02*
Y96070D01*
X20330Y88000D02*
X21230D01*
X20780Y87550D02*
Y88450D01*
X17790Y95620D02*
X18690D01*
X18240Y95170D02*
Y96070D01*
X17790Y88000D02*
X18690D01*
X18240Y87550D02*
Y88450D01*
X15250Y95620D02*
X16150D01*
X15700Y95170D02*
Y96070D01*
X15250Y88000D02*
X16150D01*
X15700Y87550D02*
Y88450D01*
X12710Y95620D02*
X13610D01*
X13160Y95170D02*
Y96070D01*
X12710Y88000D02*
X13610D01*
X13160Y87550D02*
Y88450D01*
X10170Y95620D02*
X11070D01*
X10620Y95170D02*
Y96070D01*
X10170Y88000D02*
X11070D01*
X10620Y87550D02*
Y88450D01*
X7630Y95620D02*
X8530D01*
X8080Y95170D02*
Y96070D01*
X7630Y88000D02*
X8530D01*
X8080Y87550D02*
Y88450D01*
X5090Y95620D02*
X5990D01*
X5540Y95170D02*
Y96070D01*
X5090Y88000D02*
X5990D01*
X5540Y87550D02*
Y88450D01*
X2550Y95620D02*
X3450D01*
X3000Y95170D02*
Y96070D01*
X2550Y88000D02*
X3450D01*
X3000Y87550D02*
Y88450D01*
X33390Y64250D02*
X33690D01*
X33540Y64100D02*
Y64400D01*
X33390Y57300D02*
X33690D01*
X33540Y57150D02*
Y57450D01*
X17850Y44000D02*
X18150D01*
X18000Y43850D02*
Y44150D01*
X30850Y44000D02*
X31150D01*
X31000Y43850D02*
Y44150D01*
X17850Y51000D02*
X18150D01*
X18000Y50850D02*
Y51150D01*
X80241Y77597D02*
X80541D01*
X80391Y77447D02*
Y77747D01*
X28100Y60750D02*
X28400D01*
X28250Y60600D02*
Y60900D01*
X8850Y66250D02*
X9150D01*
X9000Y66100D02*
Y66400D01*
X10850Y66250D02*
X11150D01*
X11000Y66100D02*
Y66400D01*
X10350Y59500D02*
X10650D01*
X10500Y59350D02*
Y59650D01*
X29580Y57300D02*
X29880D01*
X29730Y57150D02*
Y57450D01*
X16580Y57300D02*
X16880D01*
X16730Y57150D02*
Y57450D01*
X28850Y53700D02*
X29150D01*
X29000Y53550D02*
Y53850D01*
X19850Y53700D02*
X20150D01*
X20000Y53550D02*
Y53850D01*
X15320Y53750D02*
X15620D01*
X15470Y53600D02*
Y53900D01*
X34650Y53750D02*
X34950D01*
X34800Y53600D02*
Y53900D01*
X30850Y47500D02*
X31150D01*
X31000Y47350D02*
Y47650D01*
X30850Y51000D02*
X31150D01*
X31000Y50850D02*
Y51150D01*
X34370Y47500D02*
X34670D01*
X34520Y47350D02*
Y47650D01*
X27330Y47500D02*
X27630D01*
X27480Y47350D02*
Y47650D01*
X15850Y47500D02*
X16150D01*
X16000Y47350D02*
Y47650D01*
X21370Y47500D02*
X21670D01*
X21520Y47350D02*
Y47650D01*
X17850Y47500D02*
X18150D01*
X18000Y47350D02*
Y47650D01*
X17850Y57300D02*
X18150D01*
X18000Y57150D02*
Y57450D01*
X30850Y57300D02*
X31150D01*
X31000Y57150D02*
Y57450D01*
X32350Y61750D02*
X32650D01*
X32500Y61600D02*
Y61900D01*
X32350Y62750D02*
X32650D01*
X32500Y62600D02*
Y62900D01*
X32350Y58750D02*
X32650D01*
X32500Y58600D02*
Y58900D01*
X32350Y59750D02*
X32650D01*
X32500Y59600D02*
Y59900D01*
X32350Y60750D02*
X32650D01*
X32500Y60600D02*
Y60900D01*
X19350Y60794D02*
X19650D01*
X19500Y60644D02*
Y60944D01*
X19350Y59794D02*
X19650D01*
X19500Y59644D02*
Y59944D01*
X19350Y58794D02*
X19650D01*
X19500Y58644D02*
Y58944D01*
X19350Y62794D02*
X19650D01*
X19500Y62644D02*
Y62944D01*
X19350Y61794D02*
X19650D01*
X19500Y61644D02*
Y61944D01*
X16790Y41250D02*
X17090D01*
X16940Y41100D02*
Y41400D01*
X30790Y41250D02*
X31090D01*
X30940Y41100D02*
Y41400D01*
X44790Y41250D02*
X45090D01*
X44940Y41100D02*
Y41400D01*
X72790Y41250D02*
X73090D01*
X72940Y41100D02*
Y41400D01*
X65990Y41000D02*
X66290D01*
X66140Y40850D02*
Y41150D01*
X58790Y41250D02*
X59090D01*
X58940Y41100D02*
Y41400D01*
X51130Y41000D02*
X51430D01*
X51280Y40850D02*
Y41150D01*
%TF.MD5,b3bed049269257bd32b81274a6b5c61c*%
M02*
