%TF.GenerationSoftware,Altium Limited,Altium Designer,25.2.1 (25)*%
G04 Layer_Physical_Order=1*
G04 Layer_Color=255*
%FSLAX43Y43*%
%MOMM*%
%TF.SameCoordinates,1E4C7E7B-F919-4A3B-B485-5DB5AB6177BA*%
%TF.FilePolarity,Positive*%
%TF.FileFunction,Copper,L1,Top,Signal*%
%TF.Part,Single*%
G01*
G75*
%TA.AperFunction,SMDPad,CuDef*%
%ADD10R,1.250X0.600*%
%TA.AperFunction,Conductor*%
%ADD11C,0.300*%
%ADD12C,0.400*%
%TA.AperFunction,ComponentPad*%
%ADD13C,1.725*%
%ADD14R,1.725X1.725*%
%ADD15C,1.275*%
%ADD16R,1.275X1.275*%
%ADD17C,1.350*%
%ADD18R,1.350X1.350*%
%ADD19R,1.725X1.725*%
%ADD20C,1.400*%
%ADD21R,1.400X1.400*%
%ADD22C,5.000*%
%ADD23C,2.300*%
%ADD24C,2.000*%
%ADD25C,6.000*%
%ADD26R,1.800X1.800*%
%ADD27C,1.800*%
%ADD28C,4.000*%
%ADD29R,1.508X1.508*%
%ADD30C,1.508*%
%ADD31C,1.500*%
%ADD32R,1.500X1.500*%
%ADD33R,1.800X1.800*%
%TA.AperFunction,ViaPad*%
%ADD34C,0.700*%
G36*
X55000Y58000D02*
X31750D01*
Y63500D01*
X55000D01*
Y58000D01*
D02*
G37*
G36*
Y72000D02*
X20500D01*
Y58000D01*
X16250D01*
Y76000D01*
X55000D01*
Y72000D01*
D02*
G37*
G36*
X88000Y56000D02*
X96500D01*
Y36000D01*
X85000D01*
Y42000D01*
X83500D01*
Y58750D01*
X57500D01*
Y65750D01*
X27000D01*
Y56000D01*
X35500D01*
Y52000D01*
X14750D01*
Y56000D01*
X22000D01*
Y69000D01*
X57500D01*
Y76000D01*
X88000D01*
Y56000D01*
D02*
G37*
%LPC*%
G36*
X79955Y70938D02*
X78080D01*
Y69063D01*
X79955D01*
Y70938D01*
D02*
G37*
G36*
X71205D02*
X69330D01*
Y69063D01*
X71205D01*
Y70938D01*
D02*
G37*
G36*
X62455D02*
X60580D01*
Y69063D01*
X62455D01*
Y70938D01*
D02*
G37*
G36*
X79920Y65687D02*
X78045D01*
Y63812D01*
X79920D01*
Y65687D01*
D02*
G37*
G36*
X71170D02*
X69295D01*
Y63812D01*
X71170D01*
Y65687D01*
D02*
G37*
G36*
X62420D02*
X60545D01*
Y63812D01*
X62420D01*
Y65687D01*
D02*
G37*
%LPD*%
D10*
X11000Y63100D02*
D03*
Y64900D02*
D03*
X15494Y52335D02*
D03*
Y50535D02*
D03*
X29083Y52081D02*
D03*
Y50281D02*
D03*
X9000Y64900D02*
D03*
Y63100D02*
D03*
D11*
X30281Y50281D02*
X31000Y51000D01*
X29083Y50281D02*
X30281D01*
X15494Y50535D02*
X17503D01*
X17968Y51000D01*
X18000D01*
X22130Y14000D02*
X24670D01*
X41100Y88000D02*
X46100Y83000D01*
X56960D01*
X43640Y88000D02*
X46423Y85217D01*
X58801D01*
X59500Y84518D01*
Y83000D02*
Y84518D01*
X80391Y77597D02*
X81757D01*
X86350Y82190D01*
X11000Y64900D02*
Y66250D01*
X9000Y64900D02*
X9017Y64917D01*
Y66294D01*
X10675Y63100D02*
X11000D01*
X10525Y62950D02*
X10675Y63100D01*
X10525Y59525D02*
Y62950D01*
X10500Y59500D02*
X10525Y59525D01*
X10772Y57300D02*
X16730D01*
X9000Y59072D02*
X10772Y57300D01*
X9000Y59072D02*
Y63100D01*
X83920Y9270D02*
Y18569D01*
X77724Y24765D02*
X83920Y18569D01*
X81380Y9270D02*
Y18442D01*
X75946Y23876D02*
X81380Y18442D01*
X78840Y9270D02*
Y18823D01*
X74930Y22733D02*
X78840Y18823D01*
X76300Y9270D02*
X76343Y9313D01*
Y12938D01*
X46670Y16540D02*
X72741D01*
X76343Y12938D01*
X44130Y16540D02*
X46670D01*
X35670D02*
X44130D01*
X18923Y24765D02*
X77724D01*
X16891Y22733D02*
X18923Y24765D01*
X16891Y15367D02*
Y22733D01*
Y15367D02*
X20798Y11460D01*
X22130D01*
X19812Y23876D02*
X75946D01*
X17780Y21844D02*
X19812Y23876D01*
X17780Y16510D02*
Y21844D01*
Y16510D02*
X20290Y14000D01*
X22130D01*
X20066Y22733D02*
X74930D01*
X18796Y21463D02*
X20066Y22733D01*
X18796Y17907D02*
Y21463D01*
Y17907D02*
X20163Y16540D01*
X22130D01*
X24670D01*
X33130D01*
X22130Y11460D02*
X24670D01*
X33130D01*
X24670Y14000D02*
X33130D01*
X22020Y35864D02*
Y36250D01*
Y35864D02*
X22381Y35504D01*
Y35404D02*
X23453Y34332D01*
X22381Y35404D02*
Y35504D01*
X23453Y34332D02*
X36020D01*
X19480Y30250D02*
X21398Y32168D01*
X33480D01*
X19480Y30250D02*
Y33710D01*
X22020Y36250D01*
X45280Y46000D02*
X46905Y47625D01*
X59562D01*
X45280Y46000D02*
Y49453D01*
X47280Y51453D02*
Y52500D01*
X45280Y49453D02*
X47280Y51453D01*
X75000Y42221D02*
Y46000D01*
Y42221D02*
X78020Y39201D01*
Y36250D02*
Y39201D01*
X77000Y51441D02*
Y52500D01*
X60706Y47625D02*
X73375D01*
X75000Y46000D01*
X62140Y51453D02*
Y52500D01*
X62718Y50875D02*
X76434D01*
X62140Y51453D02*
X62718Y50875D01*
X76434D02*
X77000Y51441D01*
X62140D02*
Y52500D01*
X47858Y50875D02*
X61574D01*
X47280Y51453D02*
X47858Y50875D01*
X61574D02*
X62140Y51441D01*
X60140Y46000D02*
Y47059D01*
X60706Y47625D01*
X60140Y46000D02*
Y47047D01*
X59562Y47625D02*
X60140Y47047D01*
X61480Y30250D02*
Y32168D01*
X47480D02*
X61480D01*
X33480D02*
X47480D01*
Y30250D02*
Y32168D01*
X74893D02*
X75480Y31581D01*
X61480Y32168D02*
X74893D01*
X75480Y30250D02*
Y31581D01*
X33480Y30250D02*
Y32168D01*
X64020Y34332D02*
Y36250D01*
X50020Y34332D02*
X64020D01*
X36020D02*
X50020D01*
Y36250D01*
X77433Y34332D02*
X78020Y34919D01*
X64020Y34332D02*
X77433D01*
X78020Y34919D02*
Y36250D01*
X36020Y34332D02*
Y36250D01*
X86350Y81958D02*
Y82190D01*
D12*
X9000Y64900D02*
X9000Y64900D01*
X52324Y14097D02*
X68326D01*
X71220Y11203D01*
Y9270D02*
Y11203D01*
X70739Y15240D02*
X73760Y12219D01*
X50546Y15240D02*
X70739D01*
X73760Y9270D02*
Y12219D01*
X49306Y14000D02*
X50546Y15240D01*
X46670Y14000D02*
X49306D01*
X49687Y11460D02*
X52324Y14097D01*
X46670Y11460D02*
X49687D01*
X35670Y14000D02*
X44130D01*
X46670D01*
X44130Y11460D02*
X46670D01*
X35670D02*
X44130D01*
X14986Y11176D02*
Y21336D01*
X18923Y7239D02*
X48133D01*
X14986Y11176D02*
X18923Y7239D01*
X7239Y24130D02*
X12192D01*
X14986Y21336D01*
X19001Y5969D02*
X48387D01*
X12573Y12397D02*
X19001Y5969D01*
X5834Y11549D02*
X6682Y12397D01*
X12573D01*
X61060Y9270D02*
Y10314D01*
X53975Y11557D02*
X59817D01*
X61060Y10314D01*
X48387Y5969D02*
X53975Y11557D01*
X5834Y9691D02*
Y11549D01*
X48133Y7239D02*
X53594Y12700D01*
X61087D01*
X63557Y10230D01*
Y9314D02*
X63600Y9270D01*
X63557Y9314D02*
Y10230D01*
X5834Y20691D02*
Y22725D01*
X7239Y24130D01*
X55980Y2501D02*
Y6730D01*
X61060Y2500D02*
Y6730D01*
X58520Y2500D02*
Y6730D01*
X73760Y2500D02*
Y6730D01*
X71220Y2500D02*
Y6730D01*
X66140Y2500D02*
Y6730D01*
X68680Y2500D02*
Y6730D01*
X63600Y2500D02*
Y6730D01*
X78840Y2500D02*
Y6730D01*
X76300Y2500D02*
Y6730D01*
X83920Y2500D02*
Y6730D01*
X81380Y2500D02*
Y6730D01*
X86460Y6730D02*
X86460Y6730D01*
Y2500D02*
Y6730D01*
Y2500D02*
X86460Y2500D01*
X89000Y2500D02*
X89000Y2500D01*
X89000Y2500D02*
Y6730D01*
X89000Y6730D02*
X89000Y6730D01*
D13*
X56960Y83000D02*
D03*
X59500D02*
D03*
X36020Y36250D02*
D03*
X33480D02*
D03*
X30940D02*
D03*
X50020D02*
D03*
X47480D02*
D03*
X44940D02*
D03*
X64020D02*
D03*
X61480D02*
D03*
X58940D02*
D03*
X22020D02*
D03*
X19480D02*
D03*
X16940D02*
D03*
X78020D02*
D03*
X75480D02*
D03*
X72940D02*
D03*
X5834Y7151D02*
D03*
Y9691D02*
D03*
Y18151D02*
D03*
Y20691D02*
D03*
X11834Y7151D02*
D03*
Y4611D02*
D03*
Y18151D02*
D03*
Y15611D02*
D03*
X52560Y30250D02*
D03*
X50020D02*
D03*
X47480D02*
D03*
X24560D02*
D03*
X22020D02*
D03*
X19480D02*
D03*
X38560D02*
D03*
X36020D02*
D03*
X33480D02*
D03*
X66560D02*
D03*
X64020D02*
D03*
X61480D02*
D03*
X80560D02*
D03*
X78020D02*
D03*
X75480D02*
D03*
D14*
X62040Y83000D02*
D03*
X38560Y36250D02*
D03*
X52560D02*
D03*
X66560D02*
D03*
X24560D02*
D03*
X80560D02*
D03*
X44940Y30250D02*
D03*
X16940D02*
D03*
X30940D02*
D03*
X58940D02*
D03*
X72940D02*
D03*
D15*
X61518Y73500D02*
D03*
X79018D02*
D03*
X52768D02*
D03*
X44018D02*
D03*
X70268D02*
D03*
X78982Y61250D02*
D03*
X70232D02*
D03*
X43982D02*
D03*
X61482D02*
D03*
X52732D02*
D03*
D16*
X61518Y70000D02*
D03*
X79018D02*
D03*
X52768D02*
D03*
X44018D02*
D03*
X70268D02*
D03*
X78982Y64750D02*
D03*
X70232D02*
D03*
X43982D02*
D03*
X61482D02*
D03*
X52732D02*
D03*
D17*
X66140Y52500D02*
D03*
X64140D02*
D03*
X62140D02*
D03*
X60140D02*
D03*
X56140D02*
D03*
X81000D02*
D03*
X79000D02*
D03*
X77000D02*
D03*
X75000D02*
D03*
X71000D02*
D03*
Y46000D02*
D03*
X73000D02*
D03*
X75000D02*
D03*
X77000D02*
D03*
X81000D02*
D03*
X56140D02*
D03*
X58140D02*
D03*
X60140D02*
D03*
X62140D02*
D03*
X66140D02*
D03*
X51280Y52500D02*
D03*
X49280D02*
D03*
X47280D02*
D03*
X45280D02*
D03*
X41280D02*
D03*
Y46000D02*
D03*
X43280D02*
D03*
X45280D02*
D03*
X47280D02*
D03*
X51280D02*
D03*
D18*
X58140Y52500D02*
D03*
X73000D02*
D03*
X79000Y46000D02*
D03*
X64140D02*
D03*
X43280Y52500D02*
D03*
X49280Y46000D02*
D03*
D19*
X5834Y4611D02*
D03*
Y15611D02*
D03*
X11834Y9691D02*
D03*
Y20691D02*
D03*
D20*
X71110Y82190D02*
D03*
X86350D02*
D03*
X83810D02*
D03*
X81270D02*
D03*
X78730D02*
D03*
X76190D02*
D03*
X73650D02*
D03*
X86350Y89810D02*
D03*
X83810D02*
D03*
X81270D02*
D03*
X78730D02*
D03*
X76190D02*
D03*
X73650D02*
D03*
X51260Y95620D02*
D03*
Y88000D02*
D03*
X48720Y95620D02*
D03*
Y88000D02*
D03*
X46180Y95620D02*
D03*
X43640D02*
D03*
Y88000D02*
D03*
X41100D02*
D03*
X38560Y95620D02*
D03*
Y88000D02*
D03*
X36020Y95620D02*
D03*
X33480D02*
D03*
Y88000D02*
D03*
X30940Y95620D02*
D03*
Y88000D02*
D03*
X28400Y95620D02*
D03*
Y88000D02*
D03*
X25860Y95620D02*
D03*
Y88000D02*
D03*
X23320Y95620D02*
D03*
Y88000D02*
D03*
X20780D02*
D03*
X18240Y95620D02*
D03*
Y88000D02*
D03*
X15700Y95620D02*
D03*
X13160D02*
D03*
Y88000D02*
D03*
X10620Y95620D02*
D03*
X8080D02*
D03*
Y88000D02*
D03*
X5540Y95620D02*
D03*
Y88000D02*
D03*
X3000D02*
D03*
D21*
X88890Y82190D02*
D03*
Y89810D02*
D03*
X71110D02*
D03*
X46180Y88000D02*
D03*
X41100Y95620D02*
D03*
X36020Y88000D02*
D03*
X20780Y95620D02*
D03*
X15700Y88000D02*
D03*
X10620D02*
D03*
X3000Y95620D02*
D03*
D22*
X92500Y94395D02*
D03*
X67500D02*
D03*
X80000Y131795D02*
D03*
D23*
X89960Y43540D02*
D03*
X92500D02*
D03*
X95040D02*
D03*
Y38460D02*
D03*
X92500D02*
D03*
X89960D02*
D03*
Y53540D02*
D03*
X92500D02*
D03*
X95040D02*
D03*
Y48460D02*
D03*
X92500D02*
D03*
X89960D02*
D03*
Y63540D02*
D03*
X92500D02*
D03*
X95040D02*
D03*
Y58460D02*
D03*
X92500D02*
D03*
X89960D02*
D03*
Y33540D02*
D03*
X92500D02*
D03*
X95040D02*
D03*
Y28460D02*
D03*
X92500D02*
D03*
X89960D02*
D03*
D24*
X4500Y44500D02*
D03*
Y39420D02*
D03*
Y49500D02*
D03*
Y54580D02*
D03*
D25*
X94996Y82169D02*
D03*
X4500Y64000D02*
D03*
X94500Y4500D02*
D03*
X4500Y32000D02*
D03*
D26*
X68350Y20000D02*
D03*
D27*
X55650D02*
D03*
X58190D02*
D03*
X60730D02*
D03*
X63270D02*
D03*
X65810D02*
D03*
X95250Y13208D02*
D03*
D28*
X4790Y69430D02*
D03*
Y82570D02*
D03*
D29*
X7500Y72500D02*
D03*
D30*
Y75000D02*
D03*
Y77000D02*
D03*
Y79500D02*
D03*
D31*
X33130Y19080D02*
D03*
X35670D02*
D03*
X33130Y16540D02*
D03*
X35670D02*
D03*
X33130Y14000D02*
D03*
X35670D02*
D03*
X33130Y11460D02*
D03*
X35670D02*
D03*
X63600Y2500D02*
D03*
X61060D02*
D03*
X58520Y2500D02*
D03*
X55980Y2500D02*
D03*
X73760D02*
D03*
X71220D02*
D03*
X68680Y2500D02*
D03*
X66140Y2500D02*
D03*
X76300D02*
D03*
X89000Y2500D02*
D03*
X86460D02*
D03*
X83920D02*
D03*
X81380Y2500D02*
D03*
X78840Y2500D02*
D03*
X63600Y6730D02*
D03*
X61060Y6730D02*
D03*
X55980D02*
D03*
X58520D02*
D03*
X78840Y6730D02*
D03*
X81380Y6730D02*
D03*
X83920Y6730D02*
D03*
X86460D02*
D03*
X89000D02*
D03*
X76300Y6730D02*
D03*
X66140D02*
D03*
X68680Y6730D02*
D03*
X71220Y6730D02*
D03*
X73760D02*
D03*
X89000Y9270D02*
D03*
X63600Y9270D02*
D03*
X61060Y9270D02*
D03*
X58520D02*
D03*
X78840Y9270D02*
D03*
X81380Y9270D02*
D03*
X83920Y9270D02*
D03*
X86460D02*
D03*
X76300Y9270D02*
D03*
X66140D02*
D03*
X68680Y9270D02*
D03*
X71220Y9270D02*
D03*
X73760D02*
D03*
X55980Y9270D02*
D03*
X46670Y11460D02*
D03*
X44130D02*
D03*
X46670Y14000D02*
D03*
X44130D02*
D03*
X46670Y16540D02*
D03*
X44130D02*
D03*
X46670Y19080D02*
D03*
X44130D02*
D03*
X24670Y11460D02*
D03*
X22130D02*
D03*
X24670Y14000D02*
D03*
X22130D02*
D03*
X24670Y16540D02*
D03*
X22130D02*
D03*
X24670Y19080D02*
D03*
X22130D02*
D03*
D32*
X33130Y8920D02*
D03*
X35670D02*
D03*
X46670D02*
D03*
X44130D02*
D03*
X24670D02*
D03*
X22130D02*
D03*
D33*
X95250Y15748D02*
D03*
D34*
X33540Y64250D02*
D03*
Y57300D02*
D03*
X18000Y44000D02*
D03*
X31000D02*
D03*
X18000Y51000D02*
D03*
X80391Y77597D02*
D03*
X28250Y60750D02*
D03*
X9000Y66250D02*
D03*
X11000D02*
D03*
X10500Y59500D02*
D03*
X29730Y57300D02*
D03*
X16730D02*
D03*
X29000Y53700D02*
D03*
X20000D02*
D03*
X15470Y53750D02*
D03*
X34800D02*
D03*
X31000Y47500D02*
D03*
Y51000D02*
D03*
X34520Y47500D02*
D03*
X27480D02*
D03*
X16000D02*
D03*
X21520D02*
D03*
X18000D02*
D03*
Y57300D02*
D03*
X31000D02*
D03*
X32500Y61750D02*
D03*
Y62750D02*
D03*
Y58750D02*
D03*
Y59750D02*
D03*
Y60750D02*
D03*
X19500Y60794D02*
D03*
Y59794D02*
D03*
Y58794D02*
D03*
Y62794D02*
D03*
Y61794D02*
D03*
X16940Y41250D02*
D03*
X30940D02*
D03*
X44940D02*
D03*
X72940D02*
D03*
X66140Y41000D02*
D03*
X58940Y41250D02*
D03*
X51280Y41000D02*
D03*
%TF.MD5,6ae0a66f963a6c01ff32bbdf91eeae92*%
M02*
