%TF.GenerationSoftware,Altium Limited,Altium Designer,25.2.1 (25)*%
G04 Layer_Color=255*
%FSLAX43Y43*%
%MOMM*%
%TF.SameCoordinates,1E4C7E7B-F919-4A3B-B485-5DB5AB6177BA*%
%TF.FilePolarity,Positive*%
%TF.FileFunction,Pads,Top*%
%TF.Part,Single*%
G01*
G75*
%TA.AperFunction,SMDPad,CuDef*%
%ADD10R,1.250X0.600*%
%TA.AperFunction,ComponentPad*%
%ADD13C,1.725*%
%ADD14R,1.725X1.725*%
%ADD15C,1.275*%
%ADD16R,1.275X1.275*%
%ADD17C,1.350*%
%ADD18R,1.350X1.350*%
%ADD19R,1.725X1.725*%
%ADD20C,1.400*%
%ADD21R,1.400X1.400*%
%ADD22C,5.000*%
%ADD23C,2.300*%
%ADD24C,2.000*%
%ADD25C,6.000*%
%ADD26R,1.800X1.800*%
%ADD27C,1.800*%
%ADD28C,4.000*%
%ADD29R,1.508X1.508*%
%ADD30C,1.508*%
%ADD31C,1.500*%
%ADD32R,1.500X1.500*%
%ADD33R,1.800X1.800*%
D10*
X11000Y63100D02*
D03*
Y64900D02*
D03*
X15494Y52335D02*
D03*
Y50535D02*
D03*
X29083Y52081D02*
D03*
Y50281D02*
D03*
X9000Y64900D02*
D03*
Y63100D02*
D03*
D13*
X56960Y83000D02*
D03*
X59500D02*
D03*
X36020Y36250D02*
D03*
X33480D02*
D03*
X30940D02*
D03*
X50020D02*
D03*
X47480D02*
D03*
X44940D02*
D03*
X64020D02*
D03*
X61480D02*
D03*
X58940D02*
D03*
X22020D02*
D03*
X19480D02*
D03*
X16940D02*
D03*
X78020D02*
D03*
X75480D02*
D03*
X72940D02*
D03*
X5834Y7151D02*
D03*
Y9691D02*
D03*
Y18151D02*
D03*
Y20691D02*
D03*
X11834Y7151D02*
D03*
Y4611D02*
D03*
Y18151D02*
D03*
Y15611D02*
D03*
X52560Y30250D02*
D03*
X50020D02*
D03*
X47480D02*
D03*
X24560D02*
D03*
X22020D02*
D03*
X19480D02*
D03*
X38560D02*
D03*
X36020D02*
D03*
X33480D02*
D03*
X66560D02*
D03*
X64020D02*
D03*
X61480D02*
D03*
X80560D02*
D03*
X78020D02*
D03*
X75480D02*
D03*
D14*
X62040Y83000D02*
D03*
X38560Y36250D02*
D03*
X52560D02*
D03*
X66560D02*
D03*
X24560D02*
D03*
X80560D02*
D03*
X44940Y30250D02*
D03*
X16940D02*
D03*
X30940D02*
D03*
X58940D02*
D03*
X72940D02*
D03*
D15*
X61518Y73500D02*
D03*
X79018D02*
D03*
X52768D02*
D03*
X44018D02*
D03*
X70268D02*
D03*
X78982Y61250D02*
D03*
X70232D02*
D03*
X43982D02*
D03*
X61482D02*
D03*
X52732D02*
D03*
D16*
X61518Y70000D02*
D03*
X79018D02*
D03*
X52768D02*
D03*
X44018D02*
D03*
X70268D02*
D03*
X78982Y64750D02*
D03*
X70232D02*
D03*
X43982D02*
D03*
X61482D02*
D03*
X52732D02*
D03*
D17*
X66140Y52500D02*
D03*
X64140D02*
D03*
X62140D02*
D03*
X60140D02*
D03*
X56140D02*
D03*
X81000D02*
D03*
X79000D02*
D03*
X77000D02*
D03*
X75000D02*
D03*
X71000D02*
D03*
Y46000D02*
D03*
X73000D02*
D03*
X75000D02*
D03*
X77000D02*
D03*
X81000D02*
D03*
X56140D02*
D03*
X58140D02*
D03*
X60140D02*
D03*
X62140D02*
D03*
X66140D02*
D03*
X51280Y52500D02*
D03*
X49280D02*
D03*
X47280D02*
D03*
X45280D02*
D03*
X41280D02*
D03*
Y46000D02*
D03*
X43280D02*
D03*
X45280D02*
D03*
X47280D02*
D03*
X51280D02*
D03*
D18*
X58140Y52500D02*
D03*
X73000D02*
D03*
X79000Y46000D02*
D03*
X64140D02*
D03*
X43280Y52500D02*
D03*
X49280Y46000D02*
D03*
D19*
X5834Y4611D02*
D03*
Y15611D02*
D03*
X11834Y9691D02*
D03*
Y20691D02*
D03*
D20*
X71110Y82190D02*
D03*
X86350D02*
D03*
X83810D02*
D03*
X81270D02*
D03*
X78730D02*
D03*
X76190D02*
D03*
X73650D02*
D03*
X86350Y89810D02*
D03*
X83810D02*
D03*
X81270D02*
D03*
X78730D02*
D03*
X76190D02*
D03*
X73650D02*
D03*
X51260Y95620D02*
D03*
Y88000D02*
D03*
X48720Y95620D02*
D03*
Y88000D02*
D03*
X46180Y95620D02*
D03*
X43640D02*
D03*
Y88000D02*
D03*
X41100D02*
D03*
X38560Y95620D02*
D03*
Y88000D02*
D03*
X36020Y95620D02*
D03*
X33480D02*
D03*
Y88000D02*
D03*
X30940Y95620D02*
D03*
Y88000D02*
D03*
X28400Y95620D02*
D03*
Y88000D02*
D03*
X25860Y95620D02*
D03*
Y88000D02*
D03*
X23320Y95620D02*
D03*
Y88000D02*
D03*
X20780D02*
D03*
X18240Y95620D02*
D03*
Y88000D02*
D03*
X15700Y95620D02*
D03*
X13160D02*
D03*
Y88000D02*
D03*
X10620Y95620D02*
D03*
X8080D02*
D03*
Y88000D02*
D03*
X5540Y95620D02*
D03*
Y88000D02*
D03*
X3000D02*
D03*
D21*
X88890Y82190D02*
D03*
Y89810D02*
D03*
X71110D02*
D03*
X46180Y88000D02*
D03*
X41100Y95620D02*
D03*
X36020Y88000D02*
D03*
X20780Y95620D02*
D03*
X15700Y88000D02*
D03*
X10620D02*
D03*
X3000Y95620D02*
D03*
D22*
X92500Y94395D02*
D03*
X67500D02*
D03*
X80000Y131795D02*
D03*
D23*
X89960Y43540D02*
D03*
X92500D02*
D03*
X95040D02*
D03*
Y38460D02*
D03*
X92500D02*
D03*
X89960D02*
D03*
Y53540D02*
D03*
X92500D02*
D03*
X95040D02*
D03*
Y48460D02*
D03*
X92500D02*
D03*
X89960D02*
D03*
Y63540D02*
D03*
X92500D02*
D03*
X95040D02*
D03*
Y58460D02*
D03*
X92500D02*
D03*
X89960D02*
D03*
Y33540D02*
D03*
X92500D02*
D03*
X95040D02*
D03*
Y28460D02*
D03*
X92500D02*
D03*
X89960D02*
D03*
D24*
X4500Y44500D02*
D03*
Y39420D02*
D03*
Y49500D02*
D03*
Y54580D02*
D03*
D25*
X94996Y82169D02*
D03*
X4500Y64000D02*
D03*
X94500Y4500D02*
D03*
X4500Y32000D02*
D03*
D26*
X68350Y20000D02*
D03*
D27*
X55650D02*
D03*
X58190D02*
D03*
X60730D02*
D03*
X63270D02*
D03*
X65810D02*
D03*
X95250Y13208D02*
D03*
D28*
X4790Y69430D02*
D03*
Y82570D02*
D03*
D29*
X7500Y72500D02*
D03*
D30*
Y75000D02*
D03*
Y77000D02*
D03*
Y79500D02*
D03*
D31*
X33130Y19080D02*
D03*
X35670D02*
D03*
X33130Y16540D02*
D03*
X35670D02*
D03*
X33130Y14000D02*
D03*
X35670D02*
D03*
X33130Y11460D02*
D03*
X35670D02*
D03*
X63600Y2500D02*
D03*
X61060D02*
D03*
X58520Y2500D02*
D03*
X55980Y2500D02*
D03*
X73760D02*
D03*
X71220D02*
D03*
X68680Y2500D02*
D03*
X66140Y2500D02*
D03*
X76300D02*
D03*
X89000Y2500D02*
D03*
X86460D02*
D03*
X83920D02*
D03*
X81380Y2500D02*
D03*
X78840Y2500D02*
D03*
X63600Y6730D02*
D03*
X61060Y6730D02*
D03*
X55980D02*
D03*
X58520D02*
D03*
X78840Y6730D02*
D03*
X81380Y6730D02*
D03*
X83920Y6730D02*
D03*
X86460D02*
D03*
X89000D02*
D03*
X76300Y6730D02*
D03*
X66140D02*
D03*
X68680Y6730D02*
D03*
X71220Y6730D02*
D03*
X73760D02*
D03*
X89000Y9270D02*
D03*
X63600Y9270D02*
D03*
X61060Y9270D02*
D03*
X58520D02*
D03*
X78840Y9270D02*
D03*
X81380Y9270D02*
D03*
X83920Y9270D02*
D03*
X86460D02*
D03*
X76300Y9270D02*
D03*
X66140D02*
D03*
X68680Y9270D02*
D03*
X71220Y9270D02*
D03*
X73760D02*
D03*
X55980Y9270D02*
D03*
X46670Y11460D02*
D03*
X44130D02*
D03*
X46670Y14000D02*
D03*
X44130D02*
D03*
X46670Y16540D02*
D03*
X44130D02*
D03*
X46670Y19080D02*
D03*
X44130D02*
D03*
X24670Y11460D02*
D03*
X22130D02*
D03*
X24670Y14000D02*
D03*
X22130D02*
D03*
X24670Y16540D02*
D03*
X22130D02*
D03*
X24670Y19080D02*
D03*
X22130D02*
D03*
D32*
X33130Y8920D02*
D03*
X35670D02*
D03*
X46670D02*
D03*
X44130D02*
D03*
X24670D02*
D03*
X22130D02*
D03*
D33*
X95250Y15748D02*
D03*
%TF.MD5,3c4151601e730684e5bd1ba705b6c610*%
M02*
