%TF.GenerationSoftware,Altium Limited,Altium Designer,25.2.1 (25)*%
G04 Layer_Color=65535*
%FSLAX43Y43*%
%MOMM*%
%TF.SameCoordinates,1E4C7E7B-F919-4A3B-B485-5DB5AB6177BA*%
%TF.FilePolarity,Positive*%
%TF.FileFunction,Legend,Top*%
%TF.Part,Single*%
G01*
G75*
%TA.AperFunction,NonConductor*%
%ADD45C,0.200*%
%ADD46C,0.254*%
%ADD47C,0.250*%
%ADD48C,0.500*%
%ADD49C,0.100*%
%ADD50C,0.127*%
%ADD51C,0.750*%
%ADD52C,0.400*%
%ADD53C,0.300*%
%ADD54C,0.150*%
G36*
X31338Y74454D02*
X31454D01*
Y74445D01*
X31516D01*
Y74436D01*
X31578D01*
Y74427D01*
X31622D01*
Y74419D01*
X31676D01*
Y74410D01*
X31694D01*
Y74401D01*
X31738D01*
Y74392D01*
X31774D01*
Y74383D01*
X31800D01*
Y74374D01*
X31836D01*
Y74365D01*
X31854D01*
Y74356D01*
X31880D01*
Y74347D01*
X31907D01*
Y74339D01*
X31925D01*
Y74330D01*
X31951D01*
Y74321D01*
X31969D01*
Y74312D01*
X32005D01*
Y74303D01*
X32014D01*
Y74294D01*
X32040D01*
Y74285D01*
X32049D01*
Y74276D01*
X32067D01*
Y74267D01*
X32094D01*
Y74259D01*
X32103D01*
Y74250D01*
X32129D01*
Y74241D01*
X32147D01*
Y74232D01*
X32165D01*
Y74223D01*
X32174D01*
Y74214D01*
X32191D01*
Y74205D01*
X32209D01*
Y74196D01*
X32218D01*
Y74187D01*
X32236D01*
Y74179D01*
X32254D01*
Y74170D01*
X32263D01*
Y74161D01*
X32280D01*
Y74152D01*
X32289D01*
Y74143D01*
X32307D01*
Y74134D01*
X32316D01*
Y74125D01*
X32334D01*
Y74116D01*
X32343D01*
Y74107D01*
X32351D01*
Y74099D01*
X32369D01*
Y74090D01*
X32378D01*
Y74081D01*
X32396D01*
Y74072D01*
X32405D01*
Y74063D01*
X32414D01*
Y74054D01*
X32431D01*
Y74045D01*
X32440D01*
Y74036D01*
X32449D01*
Y74027D01*
X32458D01*
Y74019D01*
X32467D01*
Y74010D01*
X32485D01*
Y73992D01*
X32503D01*
Y73983D01*
X32511D01*
Y73974D01*
X32520D01*
Y73965D01*
X32529D01*
Y73956D01*
X32538D01*
Y73947D01*
X32547D01*
Y73938D01*
X32556D01*
Y73930D01*
X32574D01*
Y73912D01*
X32591D01*
Y73894D01*
X32600D01*
Y73885D01*
X32609D01*
Y73876D01*
X32618D01*
Y73867D01*
X32627D01*
Y73858D01*
X32636D01*
Y73850D01*
X32645D01*
Y73841D01*
X32654D01*
Y73832D01*
X32663D01*
Y73823D01*
X32671D01*
Y73814D01*
X32680D01*
Y73796D01*
X32689D01*
Y73787D01*
X32698D01*
Y73778D01*
X32707D01*
Y73770D01*
X32716D01*
Y73761D01*
X32725D01*
Y73743D01*
X32734D01*
Y73734D01*
X32743D01*
Y73725D01*
X32751D01*
Y73716D01*
X32760D01*
Y73698D01*
X32769D01*
Y73690D01*
X32778D01*
Y73672D01*
X32787D01*
Y73663D01*
X32796D01*
Y73654D01*
X32805D01*
Y73636D01*
X32814D01*
Y73627D01*
X32823D01*
Y73610D01*
X32831D01*
Y73601D01*
X32840D01*
Y73592D01*
X32849D01*
Y73565D01*
X32858D01*
Y73556D01*
X32867D01*
Y73538D01*
X32876D01*
Y73530D01*
X32885D01*
Y73512D01*
X32894D01*
Y73494D01*
X32903D01*
Y73485D01*
X32911D01*
Y73467D01*
X32920D01*
Y73450D01*
X32929D01*
Y73432D01*
X32938D01*
Y73405D01*
X32947D01*
Y73396D01*
X32956D01*
Y73370D01*
X32965D01*
Y73361D01*
X32974D01*
Y73334D01*
X32983D01*
Y73316D01*
X32991D01*
Y73298D01*
X33000D01*
Y73272D01*
X33009D01*
Y73254D01*
X33018D01*
Y73218D01*
X33027D01*
Y73201D01*
X33036D01*
Y73174D01*
X33045D01*
Y73147D01*
X33054D01*
Y73130D01*
X33063D01*
Y73085D01*
X33071D01*
Y73058D01*
X33080D01*
Y73014D01*
X33089D01*
Y72987D01*
X33098D01*
Y72952D01*
X33107D01*
Y72890D01*
X33116D01*
Y72845D01*
X33125D01*
Y72765D01*
X33134D01*
Y72650D01*
X33143D01*
Y65351D01*
X33134D01*
Y65236D01*
X33125D01*
Y65156D01*
X33116D01*
Y65111D01*
X33107D01*
Y65049D01*
X33098D01*
Y65014D01*
X33089D01*
Y64987D01*
X33080D01*
Y64943D01*
X33071D01*
Y64916D01*
X33063D01*
Y64871D01*
X33054D01*
Y64854D01*
X33045D01*
Y64827D01*
X33036D01*
Y64800D01*
X33027D01*
Y64783D01*
X33018D01*
Y64747D01*
X33009D01*
Y64729D01*
X33000D01*
Y64702D01*
X32991D01*
Y64685D01*
X32983D01*
Y64667D01*
X32974D01*
Y64640D01*
X32965D01*
Y64631D01*
X32956D01*
Y64605D01*
X32947D01*
Y64596D01*
X32938D01*
Y64569D01*
X32929D01*
Y64551D01*
X32920D01*
Y64534D01*
X32911D01*
Y64516D01*
X32903D01*
Y64507D01*
X32894D01*
Y64489D01*
X32885D01*
Y64471D01*
X32876D01*
Y64462D01*
X32867D01*
Y64445D01*
X32858D01*
Y64436D01*
X32849D01*
Y64409D01*
X32840D01*
Y64400D01*
X32831D01*
Y64391D01*
X32823D01*
Y64374D01*
X32814D01*
Y64365D01*
X32805D01*
Y64347D01*
X32796D01*
Y64338D01*
X32787D01*
Y64329D01*
X32778D01*
Y64311D01*
X32769D01*
Y64302D01*
X32760D01*
Y64285D01*
X32751D01*
Y64276D01*
X32743D01*
Y64267D01*
X32734D01*
Y64258D01*
X32725D01*
Y64240D01*
X32716D01*
Y64231D01*
X32707D01*
Y64222D01*
X32698D01*
Y64214D01*
X32689D01*
Y64205D01*
X32680D01*
Y64187D01*
X32671D01*
Y64178D01*
X32663D01*
Y64169D01*
X32654D01*
Y64160D01*
X32645D01*
Y64151D01*
X32636D01*
Y64142D01*
X32627D01*
Y64134D01*
X32618D01*
Y64125D01*
X32609D01*
Y64116D01*
X32600D01*
Y64107D01*
X32591D01*
Y64089D01*
X32574D01*
Y64071D01*
X32556D01*
Y64062D01*
X32547D01*
Y64054D01*
X32538D01*
Y64045D01*
X32529D01*
Y64036D01*
X32520D01*
Y64027D01*
X32511D01*
Y64018D01*
X32503D01*
Y64009D01*
X32485D01*
Y63991D01*
X32467D01*
Y63982D01*
X32458D01*
Y63974D01*
X32449D01*
Y63965D01*
X32440D01*
Y63956D01*
X32431D01*
Y63947D01*
X32414D01*
Y63938D01*
X32405D01*
Y63929D01*
X32396D01*
Y63920D01*
X32378D01*
Y63911D01*
X32369D01*
Y63902D01*
X32351D01*
Y63894D01*
X32343D01*
Y63885D01*
X32334D01*
Y63876D01*
X32316D01*
Y63867D01*
X32307D01*
Y63858D01*
X32289D01*
Y63849D01*
X32280D01*
Y63840D01*
X32263D01*
Y63831D01*
X32254D01*
Y63822D01*
X32236D01*
Y63814D01*
X32218D01*
Y63805D01*
X32209D01*
Y63796D01*
X32191D01*
Y63787D01*
X32174D01*
Y63778D01*
X32165D01*
Y63769D01*
X32147D01*
Y63760D01*
X32129D01*
Y63751D01*
X32103D01*
Y63742D01*
X32094D01*
Y63734D01*
X32067D01*
Y63725D01*
X32049D01*
Y63716D01*
X32040D01*
Y63707D01*
X32014D01*
Y63698D01*
X32005D01*
Y63689D01*
X31969D01*
Y63680D01*
X31951D01*
Y63671D01*
X31925D01*
Y63662D01*
X31907D01*
Y63654D01*
X31880D01*
Y63645D01*
X31854D01*
Y63636D01*
X31836D01*
Y63627D01*
X31800D01*
Y63618D01*
X31774D01*
Y63609D01*
X31738D01*
Y63600D01*
X31694D01*
Y63591D01*
X31676D01*
Y63582D01*
X31622D01*
Y63574D01*
X31578D01*
Y63565D01*
X31516D01*
Y63556D01*
X31454D01*
Y63547D01*
X31338D01*
Y63538D01*
X20662D01*
Y63547D01*
X20546D01*
Y63556D01*
X20484D01*
Y63565D01*
X20422D01*
Y63574D01*
X20378D01*
Y63582D01*
X20324D01*
Y63591D01*
X20306D01*
Y63600D01*
X20262D01*
Y63609D01*
X20226D01*
Y63618D01*
X20200D01*
Y63627D01*
X20164D01*
Y63636D01*
X20146D01*
Y63645D01*
X20120D01*
Y63654D01*
X20093D01*
Y63662D01*
X20075D01*
Y63671D01*
X20049D01*
Y63680D01*
X20031D01*
Y63689D01*
X19995D01*
Y63698D01*
X19986D01*
Y63707D01*
X19960D01*
Y63716D01*
X19951D01*
Y63725D01*
X19933D01*
Y63734D01*
X19906D01*
Y63742D01*
X19897D01*
Y63751D01*
X19871D01*
Y63760D01*
X19853D01*
Y63769D01*
X19835D01*
Y63778D01*
X19826D01*
Y63787D01*
X19809D01*
Y63796D01*
X19791D01*
Y63805D01*
X19782D01*
Y63814D01*
X19764D01*
Y63822D01*
X19746D01*
Y63831D01*
X19737D01*
Y63840D01*
X19720D01*
Y63849D01*
X19711D01*
Y63858D01*
X19693D01*
Y63867D01*
X19684D01*
Y63876D01*
X19666D01*
Y63885D01*
X19657D01*
Y63894D01*
X19649D01*
Y63902D01*
X19631D01*
Y63911D01*
X19622D01*
Y63920D01*
X19604D01*
Y63929D01*
X19595D01*
Y63938D01*
X19586D01*
Y63947D01*
X19569D01*
Y63956D01*
X19560D01*
Y63965D01*
X19551D01*
Y63974D01*
X19542D01*
Y63982D01*
X19533D01*
Y63991D01*
X19515D01*
Y64009D01*
X19497D01*
Y64018D01*
X19489D01*
Y64027D01*
X19480D01*
Y64036D01*
X19471D01*
Y64045D01*
X19462D01*
Y64054D01*
X19453D01*
Y64062D01*
X19444D01*
Y64071D01*
X19426D01*
Y64089D01*
X19409D01*
Y64107D01*
X19400D01*
Y64116D01*
X19391D01*
Y64125D01*
X19382D01*
Y64134D01*
X19373D01*
Y64142D01*
X19364D01*
Y64151D01*
X19355D01*
Y64160D01*
X19346D01*
Y64169D01*
X19337D01*
Y64178D01*
X19329D01*
Y64187D01*
X19320D01*
Y64205D01*
X19311D01*
Y64214D01*
X19302D01*
Y64222D01*
X19293D01*
Y64231D01*
X19284D01*
Y64240D01*
X19275D01*
Y64258D01*
X19266D01*
Y64267D01*
X19257D01*
Y64276D01*
X19249D01*
Y64285D01*
X19240D01*
Y64302D01*
X19231D01*
Y64311D01*
X19222D01*
Y64329D01*
X19213D01*
Y64338D01*
X19204D01*
Y64347D01*
X19195D01*
Y64365D01*
X19186D01*
Y64374D01*
X19177D01*
Y64391D01*
X19169D01*
Y64400D01*
X19160D01*
Y64409D01*
X19151D01*
Y64436D01*
X19142D01*
Y64445D01*
X19133D01*
Y64462D01*
X19124D01*
Y64471D01*
X19115D01*
Y64489D01*
X19106D01*
Y64507D01*
X19097D01*
Y64516D01*
X19089D01*
Y64534D01*
X19080D01*
Y64551D01*
X19071D01*
Y64569D01*
X19062D01*
Y64596D01*
X19053D01*
Y64605D01*
X19044D01*
Y64631D01*
X19035D01*
Y64640D01*
X19026D01*
Y64667D01*
X19017D01*
Y64685D01*
X19009D01*
Y64702D01*
X19000D01*
Y64729D01*
X18991D01*
Y64747D01*
X18982D01*
Y64783D01*
X18973D01*
Y64800D01*
X18964D01*
Y64827D01*
X18955D01*
Y64854D01*
X18946D01*
Y64871D01*
X18937D01*
Y64916D01*
X18929D01*
Y64943D01*
X18920D01*
Y64987D01*
X18911D01*
Y65014D01*
X18902D01*
Y65049D01*
X18893D01*
Y65111D01*
X18884D01*
Y65156D01*
X18875D01*
Y65236D01*
X18866D01*
Y65351D01*
X18857D01*
Y72650D01*
X18866D01*
Y72765D01*
X18875D01*
Y72845D01*
X18884D01*
Y72890D01*
X18893D01*
Y72952D01*
X18902D01*
Y72987D01*
X18911D01*
Y73014D01*
X18920D01*
Y73058D01*
X18929D01*
Y73085D01*
X18937D01*
Y73130D01*
X18946D01*
Y73147D01*
X18955D01*
Y73174D01*
X18964D01*
Y73201D01*
X18973D01*
Y73218D01*
X18982D01*
Y73254D01*
X18991D01*
Y73272D01*
X19000D01*
Y73298D01*
X19009D01*
Y73316D01*
X19017D01*
Y73334D01*
X19026D01*
Y73361D01*
X19035D01*
Y73370D01*
X19044D01*
Y73396D01*
X19053D01*
Y73405D01*
X19062D01*
Y73432D01*
X19071D01*
Y73450D01*
X19080D01*
Y73467D01*
X19089D01*
Y73485D01*
X19097D01*
Y73494D01*
X19106D01*
Y73512D01*
X19115D01*
Y73530D01*
X19124D01*
Y73538D01*
X19133D01*
Y73556D01*
X19142D01*
Y73565D01*
X19151D01*
Y73592D01*
X19160D01*
Y73601D01*
X19169D01*
Y73610D01*
X19177D01*
Y73627D01*
X19186D01*
Y73636D01*
X19195D01*
Y73654D01*
X19204D01*
Y73663D01*
X19213D01*
Y73672D01*
X19222D01*
Y73690D01*
X19231D01*
Y73698D01*
X19240D01*
Y73716D01*
X19249D01*
Y73725D01*
X19257D01*
Y73734D01*
X19266D01*
Y73743D01*
X19275D01*
Y73761D01*
X19284D01*
Y73770D01*
X19293D01*
Y73778D01*
X19302D01*
Y73787D01*
X19311D01*
Y73796D01*
X19320D01*
Y73814D01*
X19329D01*
Y73823D01*
X19337D01*
Y73832D01*
X19346D01*
Y73841D01*
X19355D01*
Y73850D01*
X19364D01*
Y73858D01*
X19373D01*
Y73867D01*
X19382D01*
Y73876D01*
X19391D01*
Y73885D01*
X19400D01*
Y73894D01*
X19409D01*
Y73912D01*
X19426D01*
Y73930D01*
X19444D01*
Y73938D01*
X19453D01*
Y73947D01*
X19462D01*
Y73956D01*
X19471D01*
Y73965D01*
X19480D01*
Y73974D01*
X19489D01*
Y73983D01*
X19497D01*
Y73992D01*
X19515D01*
Y74010D01*
X19533D01*
Y74019D01*
X19542D01*
Y74027D01*
X19551D01*
Y74036D01*
X19560D01*
Y74045D01*
X19569D01*
Y74054D01*
X19586D01*
Y74063D01*
X19595D01*
Y74072D01*
X19604D01*
Y74081D01*
X19622D01*
Y74090D01*
X19631D01*
Y74099D01*
X19649D01*
Y74107D01*
X19657D01*
Y74116D01*
X19666D01*
Y74125D01*
X19684D01*
Y74134D01*
X19693D01*
Y74143D01*
X19711D01*
Y74152D01*
X19720D01*
Y74161D01*
X19737D01*
Y74170D01*
X19746D01*
Y74179D01*
X19764D01*
Y74187D01*
X19782D01*
Y74196D01*
X19791D01*
Y74205D01*
X19809D01*
Y74214D01*
X19826D01*
Y74223D01*
X19835D01*
Y74232D01*
X19853D01*
Y74241D01*
X19871D01*
Y74250D01*
X19897D01*
Y74259D01*
X19906D01*
Y74267D01*
X19933D01*
Y74276D01*
X19951D01*
Y74285D01*
X19960D01*
Y74294D01*
X19986D01*
Y74303D01*
X19995D01*
Y74312D01*
X20031D01*
Y74321D01*
X20049D01*
Y74330D01*
X20075D01*
Y74339D01*
X20093D01*
Y74347D01*
X20120D01*
Y74356D01*
X20146D01*
Y74365D01*
X20164D01*
Y74374D01*
X20200D01*
Y74383D01*
X20226D01*
Y74392D01*
X20262D01*
Y74401D01*
X20306D01*
Y74410D01*
X20324D01*
Y74419D01*
X20378D01*
Y74427D01*
X20422D01*
Y74436D01*
X20484D01*
Y74445D01*
X20546D01*
Y74454D01*
X20662D01*
Y74463D01*
X31338D01*
Y74454D01*
D02*
G37*
G36*
X61399Y91200D02*
X63015D01*
Y90393D01*
X63014D01*
Y90392D01*
X62207D01*
Y89584D01*
X63014D01*
Y89583D01*
X63015D01*
Y88776D01*
X63823D01*
Y87159D01*
X63015D01*
Y87967D01*
X62208D01*
Y87968D01*
X62207D01*
Y88776D01*
X61399D01*
Y87968D01*
X61398D01*
Y87967D01*
X60591D01*
Y88776D01*
X58166D01*
Y87967D01*
X58973D01*
Y87966D01*
X58974D01*
Y87159D01*
X58166D01*
Y87967D01*
X57359D01*
Y87968D01*
X57358D01*
Y88776D01*
X56550D01*
Y87968D01*
X56549D01*
Y87967D01*
X55741D01*
Y87159D01*
X54933D01*
Y88776D01*
X55741D01*
Y89583D01*
X55742D01*
Y89584D01*
X56550D01*
Y90392D01*
X55742D01*
Y90393D01*
X55741D01*
Y91200D01*
X54933D01*
Y91781D01*
Y91782D01*
Y92008D01*
X55740D01*
Y92007D01*
X55741D01*
Y91200D01*
X57358D01*
Y89584D01*
X58166D01*
Y91200D01*
X57358D01*
Y92817D01*
X58166D01*
Y92008D01*
X60591D01*
Y92817D01*
X61399D01*
Y91200D01*
D02*
G37*
G36*
X63823D02*
X63015D01*
Y91448D01*
Y91449D01*
Y92007D01*
X63016D01*
Y92008D01*
X63823D01*
Y91200D01*
D02*
G37*
G36*
X60591Y87904D02*
Y87903D01*
Y87159D01*
X59782D01*
Y87966D01*
X59783D01*
Y87967D01*
X60591D01*
Y87904D01*
D02*
G37*
%LPC*%
G36*
X31356Y73618D02*
X20644D01*
Y73610D01*
X20564D01*
Y73601D01*
X20520D01*
Y73592D01*
X20493D01*
Y73583D01*
X20449D01*
Y73574D01*
X20431D01*
Y73565D01*
X20395D01*
Y73556D01*
X20378D01*
Y73547D01*
X20351D01*
Y73538D01*
X20333D01*
Y73530D01*
X20315D01*
Y73521D01*
X20289D01*
Y73512D01*
X20280D01*
Y73503D01*
X20262D01*
Y73494D01*
X20244D01*
Y73485D01*
X20226D01*
Y73476D01*
X20209D01*
Y73467D01*
X20200D01*
Y73458D01*
X20182D01*
Y73450D01*
X20164D01*
Y73441D01*
X20155D01*
Y73432D01*
X20146D01*
Y73423D01*
X20129D01*
Y73414D01*
X20120D01*
Y73405D01*
X20111D01*
Y73396D01*
X20093D01*
Y73387D01*
X20084D01*
Y73378D01*
X20075D01*
Y73370D01*
X20066D01*
Y73361D01*
X20058D01*
Y73352D01*
X20040D01*
Y73343D01*
X20031D01*
Y73334D01*
X20022D01*
Y73325D01*
X20013D01*
Y73316D01*
X20004D01*
Y73307D01*
X19995D01*
Y73298D01*
X19986D01*
Y73290D01*
X19977D01*
Y73281D01*
X19969D01*
Y73263D01*
X19960D01*
Y73254D01*
X19951D01*
Y73245D01*
X19942D01*
Y73236D01*
X19933D01*
Y73227D01*
X19924D01*
Y73218D01*
X19915D01*
Y73201D01*
X19906D01*
Y73192D01*
X19897D01*
Y73174D01*
X19889D01*
Y73165D01*
X19880D01*
Y73156D01*
X19871D01*
Y73138D01*
X19862D01*
Y73121D01*
X19853D01*
Y73112D01*
X19844D01*
Y73094D01*
X19835D01*
Y73076D01*
X19826D01*
Y73067D01*
X19817D01*
Y73050D01*
X19809D01*
Y73023D01*
X19800D01*
Y73014D01*
X19791D01*
Y72987D01*
X19782D01*
Y72978D01*
X19773D01*
Y72943D01*
X19764D01*
Y72925D01*
X19755D01*
Y72898D01*
X19746D01*
Y72863D01*
X19737D01*
Y72836D01*
X19729D01*
Y72792D01*
X19720D01*
Y72756D01*
X19711D01*
Y72694D01*
X19702D01*
Y65307D01*
X19711D01*
Y65245D01*
X19720D01*
Y65209D01*
X19729D01*
Y65165D01*
X19737D01*
Y65138D01*
X19746D01*
Y65103D01*
X19755D01*
Y65076D01*
X19764D01*
Y65058D01*
X19773D01*
Y65023D01*
X19782D01*
Y65014D01*
X19791D01*
Y64987D01*
X19800D01*
Y64978D01*
X19809D01*
Y64951D01*
X19817D01*
Y64934D01*
X19826D01*
Y64925D01*
X19835D01*
Y64907D01*
X19844D01*
Y64889D01*
X19853D01*
Y64880D01*
X19862D01*
Y64863D01*
X19871D01*
Y64845D01*
X19880D01*
Y64836D01*
X19889D01*
Y64827D01*
X19897D01*
Y64809D01*
X19906D01*
Y64800D01*
X19915D01*
Y64783D01*
X19924D01*
Y64774D01*
X19933D01*
Y64765D01*
X19942D01*
Y64756D01*
X19951D01*
Y64747D01*
X19960D01*
Y64729D01*
X19969D01*
Y64720D01*
X19977D01*
Y64711D01*
X19986D01*
Y64702D01*
X19995D01*
Y64694D01*
X20004D01*
Y64685D01*
X20013D01*
Y64676D01*
X20022D01*
Y64667D01*
X20031D01*
Y64658D01*
X20040D01*
Y64649D01*
X20058D01*
Y64640D01*
X20066D01*
Y64631D01*
X20075D01*
Y64622D01*
X20084D01*
Y64614D01*
X20093D01*
Y64605D01*
X20111D01*
Y64596D01*
X20120D01*
Y64587D01*
X20129D01*
Y64578D01*
X20146D01*
Y64569D01*
X20155D01*
Y64560D01*
X20164D01*
Y64551D01*
X20182D01*
Y64542D01*
X20200D01*
Y64534D01*
X20209D01*
Y64525D01*
X20226D01*
Y64516D01*
X20244D01*
Y64507D01*
X20262D01*
Y64498D01*
X20280D01*
Y64489D01*
X20289D01*
Y64480D01*
X20315D01*
Y64471D01*
X20333D01*
Y64462D01*
X20351D01*
Y64454D01*
X20378D01*
Y64445D01*
X20395D01*
Y64436D01*
X20431D01*
Y64427D01*
X20449D01*
Y64418D01*
X20493D01*
Y64409D01*
X20520D01*
Y64400D01*
X20564D01*
Y64391D01*
X20644D01*
Y64382D01*
X31365D01*
Y64391D01*
X31436D01*
Y64400D01*
X31480D01*
Y64409D01*
X31507D01*
Y64418D01*
X31551D01*
Y64427D01*
X31569D01*
Y64436D01*
X31605D01*
Y64445D01*
X31622D01*
Y64454D01*
X31649D01*
Y64462D01*
X31667D01*
Y64471D01*
X31685D01*
Y64480D01*
X31711D01*
Y64489D01*
X31720D01*
Y64498D01*
X31738D01*
Y64507D01*
X31756D01*
Y64516D01*
X31774D01*
Y64525D01*
X31791D01*
Y64534D01*
X31800D01*
Y64542D01*
X31818D01*
Y64551D01*
X31836D01*
Y64560D01*
X31845D01*
Y64569D01*
X31854D01*
Y64578D01*
X31871D01*
Y64587D01*
X31880D01*
Y64596D01*
X31889D01*
Y64605D01*
X31907D01*
Y64614D01*
X31916D01*
Y64622D01*
X31925D01*
Y64631D01*
X31934D01*
Y64640D01*
X31943D01*
Y64649D01*
X31960D01*
Y64658D01*
X31969D01*
Y64667D01*
X31978D01*
Y64676D01*
X31987D01*
Y64685D01*
X31996D01*
Y64694D01*
X32005D01*
Y64702D01*
X32014D01*
Y64711D01*
X32023D01*
Y64720D01*
X32031D01*
Y64729D01*
X32040D01*
Y64747D01*
X32049D01*
Y64756D01*
X32058D01*
Y64765D01*
X32067D01*
Y64774D01*
X32076D01*
Y64783D01*
X32085D01*
Y64800D01*
X32094D01*
Y64809D01*
X32103D01*
Y64827D01*
X32111D01*
Y64836D01*
X32120D01*
Y64845D01*
X32129D01*
Y64863D01*
X32138D01*
Y64880D01*
X32147D01*
Y64889D01*
X32156D01*
Y64898D01*
X32165D01*
Y64925D01*
X32174D01*
Y64934D01*
X32183D01*
Y64951D01*
X32191D01*
Y64978D01*
X32200D01*
Y64987D01*
X32209D01*
Y65014D01*
X32218D01*
Y65023D01*
X32227D01*
Y65058D01*
X32236D01*
Y65076D01*
X32245D01*
Y65103D01*
X32254D01*
Y65138D01*
X32263D01*
Y65165D01*
X32271D01*
Y65209D01*
X32280D01*
Y65245D01*
X32289D01*
Y65307D01*
X32298D01*
Y72694D01*
X32289D01*
Y72756D01*
X32280D01*
Y72792D01*
X32271D01*
Y72836D01*
X32263D01*
Y72863D01*
X32254D01*
Y72898D01*
X32245D01*
Y72925D01*
X32236D01*
Y72943D01*
X32227D01*
Y72978D01*
X32218D01*
Y72987D01*
X32209D01*
Y73014D01*
X32200D01*
Y73023D01*
X32191D01*
Y73050D01*
X32183D01*
Y73067D01*
X32174D01*
Y73076D01*
X32165D01*
Y73094D01*
X32156D01*
Y73112D01*
X32147D01*
Y73121D01*
X32138D01*
Y73138D01*
X32129D01*
Y73156D01*
X32120D01*
Y73165D01*
X32111D01*
Y73174D01*
X32103D01*
Y73192D01*
X32094D01*
Y73201D01*
X32085D01*
Y73218D01*
X32076D01*
Y73227D01*
X32067D01*
Y73236D01*
X32058D01*
Y73245D01*
X32049D01*
Y73254D01*
X32040D01*
Y73272D01*
X32031D01*
Y73281D01*
X32023D01*
Y73290D01*
X32014D01*
Y73298D01*
X32005D01*
Y73307D01*
X31996D01*
Y73316D01*
X31987D01*
Y73325D01*
X31978D01*
Y73334D01*
X31969D01*
Y73343D01*
X31960D01*
Y73352D01*
X31943D01*
Y73361D01*
X31934D01*
Y73370D01*
X31925D01*
Y73378D01*
X31916D01*
Y73387D01*
X31907D01*
Y73396D01*
X31889D01*
Y73405D01*
X31880D01*
Y73414D01*
X31871D01*
Y73423D01*
X31854D01*
Y73432D01*
X31845D01*
Y73441D01*
X31836D01*
Y73450D01*
X31818D01*
Y73458D01*
X31800D01*
Y73467D01*
X31791D01*
Y73476D01*
X31774D01*
Y73485D01*
X31756D01*
Y73494D01*
X31738D01*
Y73503D01*
X31720D01*
Y73512D01*
X31711D01*
Y73521D01*
X31685D01*
Y73530D01*
X31667D01*
Y73538D01*
X31649D01*
Y73547D01*
X31622D01*
Y73556D01*
X31605D01*
Y73565D01*
X31569D01*
Y73574D01*
X31551D01*
Y73583D01*
X31507D01*
Y73592D01*
X31480D01*
Y73601D01*
X31436D01*
Y73610D01*
X31356D01*
Y73618D01*
D02*
G37*
%LPD*%
G36*
X25773Y72987D02*
X25791D01*
Y65654D01*
X25782D01*
Y65645D01*
X25773D01*
Y65636D01*
X25756D01*
Y65645D01*
X24555D01*
Y65636D01*
X24547D01*
Y65645D01*
X24529D01*
Y66054D01*
X24547D01*
Y66063D01*
X24564D01*
Y66054D01*
X24573D01*
Y66063D01*
X25329D01*
Y66054D01*
X25347D01*
Y66063D01*
X25364D01*
Y66071D01*
X25373D01*
Y66951D01*
Y66960D01*
Y68783D01*
X25364D01*
Y68800D01*
X25356D01*
Y68809D01*
X25347D01*
Y68818D01*
X25338D01*
Y68827D01*
X25320D01*
Y68836D01*
X25311D01*
Y68845D01*
X25302D01*
Y68854D01*
X25293D01*
Y68863D01*
X25284D01*
Y68872D01*
X25276D01*
Y68880D01*
X25267D01*
Y68889D01*
X25258D01*
Y68898D01*
X25249D01*
Y68907D01*
X25240D01*
Y68916D01*
X25231D01*
Y68925D01*
X25213D01*
Y68934D01*
X25204D01*
Y68943D01*
X25196D01*
Y68952D01*
X25187D01*
Y68960D01*
X25178D01*
Y68969D01*
X25169D01*
Y68978D01*
X25160D01*
Y68987D01*
X25151D01*
Y68996D01*
X25142D01*
Y69005D01*
X25133D01*
Y69014D01*
X25116D01*
Y69023D01*
X25107D01*
Y69032D01*
X25098D01*
Y69040D01*
X25089D01*
Y69049D01*
X25080D01*
Y69058D01*
X25071D01*
Y69067D01*
X25062D01*
Y69076D01*
X25053D01*
Y69085D01*
X25044D01*
Y69094D01*
X25027D01*
Y69103D01*
X25018D01*
Y69112D01*
X25009D01*
Y69120D01*
X25000D01*
Y69129D01*
X24991D01*
Y69138D01*
X24982D01*
Y69147D01*
X24973D01*
Y69156D01*
X24964D01*
Y69165D01*
X24956D01*
Y69174D01*
X24947D01*
Y69183D01*
X24938D01*
Y69192D01*
X24920D01*
Y69200D01*
X24911D01*
Y69209D01*
X24902D01*
Y69218D01*
X24893D01*
Y69227D01*
X24884D01*
Y69236D01*
X24875D01*
Y69245D01*
X24867D01*
Y69254D01*
X24858D01*
Y69263D01*
X24849D01*
Y69272D01*
X24831D01*
Y69280D01*
X24822D01*
Y69289D01*
X24813D01*
Y69298D01*
X24804D01*
Y69307D01*
X24795D01*
Y69316D01*
X24787D01*
Y69325D01*
X24778D01*
Y69334D01*
X24769D01*
Y69343D01*
X24760D01*
Y69352D01*
X24751D01*
Y69360D01*
X24742D01*
Y69369D01*
X24724D01*
Y69378D01*
X24715D01*
Y69387D01*
X24707D01*
Y69396D01*
X24698D01*
Y69405D01*
X24689D01*
Y69414D01*
X24680D01*
Y69423D01*
X24671D01*
Y69432D01*
X24662D01*
Y69440D01*
X24653D01*
Y69449D01*
X24635D01*
Y69458D01*
X24627D01*
Y69467D01*
X24618D01*
Y69476D01*
X24609D01*
Y69485D01*
X24600D01*
Y69494D01*
X24591D01*
Y69503D01*
X24582D01*
Y69512D01*
X24573D01*
Y69521D01*
X24564D01*
Y69529D01*
X24555D01*
Y69538D01*
X24538D01*
Y69547D01*
X24529D01*
Y69556D01*
X24520D01*
Y69565D01*
X24511D01*
Y69574D01*
X24502D01*
Y69583D01*
X24493D01*
Y69592D01*
X24484D01*
Y69601D01*
X24475D01*
Y69609D01*
X24467D01*
Y69618D01*
X24458D01*
Y69627D01*
X24449D01*
Y69636D01*
X24431D01*
Y69645D01*
X24422D01*
Y69654D01*
X24413D01*
Y69663D01*
X24404D01*
Y69672D01*
X24395D01*
Y69681D01*
X24387D01*
Y69689D01*
X24378D01*
Y69698D01*
X24369D01*
Y69707D01*
X24360D01*
Y69716D01*
X24342D01*
Y69725D01*
X24333D01*
Y69734D01*
X24324D01*
Y69743D01*
X24315D01*
Y69752D01*
X24307D01*
Y69761D01*
X24298D01*
Y69769D01*
X24289D01*
Y69778D01*
X24280D01*
Y69787D01*
X24271D01*
Y69796D01*
X24262D01*
Y69805D01*
X24253D01*
Y69814D01*
X24235D01*
Y69823D01*
X24227D01*
Y69832D01*
X24218D01*
Y69841D01*
X24209D01*
Y69849D01*
X24200D01*
Y69858D01*
X24191D01*
Y69867D01*
X24182D01*
Y69876D01*
X24173D01*
Y69885D01*
X24164D01*
Y69894D01*
X24147D01*
Y69903D01*
X24138D01*
Y69912D01*
X24129D01*
Y69921D01*
X24120D01*
Y69929D01*
X24111D01*
Y69938D01*
X24102D01*
Y69947D01*
X24093D01*
Y69956D01*
X24084D01*
Y69965D01*
X24075D01*
Y69974D01*
X24067D01*
Y69983D01*
X24058D01*
Y69992D01*
X24040D01*
Y70001D01*
X24031D01*
Y70009D01*
X24022D01*
Y70018D01*
X24013D01*
Y70027D01*
X24004D01*
Y70036D01*
X23995D01*
Y70045D01*
X23978D01*
Y70063D01*
X23969D01*
Y70072D01*
X23951D01*
Y70089D01*
X23933D01*
Y70098D01*
X23924D01*
Y70107D01*
X23915D01*
Y70116D01*
X23907D01*
Y70125D01*
X23898D01*
Y70134D01*
X23889D01*
Y70143D01*
X23880D01*
Y70152D01*
X23862D01*
Y70161D01*
X23853D01*
Y70169D01*
X23844D01*
Y70178D01*
X23835D01*
Y70187D01*
X23827D01*
Y70196D01*
X23818D01*
Y70205D01*
X23809D01*
Y70214D01*
X23800D01*
Y70223D01*
X23791D01*
Y70232D01*
X23782D01*
Y70241D01*
X23773D01*
Y70249D01*
X23764D01*
Y70258D01*
X23747D01*
Y70267D01*
X23738D01*
Y70276D01*
X23729D01*
Y70285D01*
X23720D01*
Y70294D01*
X23711D01*
Y70303D01*
X23702D01*
Y70312D01*
X23693D01*
Y70321D01*
X23684D01*
Y70329D01*
X23675D01*
Y70338D01*
X23658D01*
Y70347D01*
X23649D01*
Y70356D01*
X23640D01*
Y70365D01*
X23631D01*
Y70374D01*
X23622D01*
Y70383D01*
X23613D01*
Y70392D01*
X23604D01*
Y70401D01*
X23595D01*
Y70409D01*
X23587D01*
Y70418D01*
X23578D01*
Y70427D01*
X23569D01*
Y70436D01*
X23551D01*
Y70445D01*
X23542D01*
Y70454D01*
X23533D01*
Y70463D01*
X23524D01*
Y70472D01*
X23515D01*
Y70481D01*
X23507D01*
Y70489D01*
X23498D01*
Y70498D01*
X23489D01*
Y70507D01*
X23480D01*
Y70516D01*
X23462D01*
Y70525D01*
X23453D01*
Y70534D01*
X23444D01*
Y70543D01*
X23435D01*
Y70552D01*
X23427D01*
Y70561D01*
X23418D01*
Y70569D01*
X23409D01*
Y70578D01*
X23400D01*
Y70587D01*
X23391D01*
Y70596D01*
X23382D01*
Y70605D01*
X23364D01*
Y70614D01*
X23355D01*
Y70623D01*
X23347D01*
Y70632D01*
X23338D01*
Y70641D01*
X23329D01*
Y70649D01*
X23320D01*
Y70658D01*
X23311D01*
Y70667D01*
X23302D01*
Y70676D01*
X23293D01*
Y70685D01*
X23284D01*
Y70694D01*
X23275D01*
Y70703D01*
X23258D01*
Y70712D01*
X23249D01*
Y70721D01*
X23240D01*
Y70729D01*
X23231D01*
Y70738D01*
X23222D01*
Y70747D01*
X23213D01*
Y70756D01*
X23204D01*
Y70765D01*
X23195D01*
Y70774D01*
X23187D01*
Y70783D01*
X23169D01*
Y70792D01*
X23160D01*
Y70801D01*
X23151D01*
Y70809D01*
X23142D01*
Y70818D01*
X23133D01*
Y70827D01*
X23124D01*
Y70836D01*
X23115D01*
Y70845D01*
X23107D01*
Y70854D01*
X23089D01*
Y70872D01*
X23080D01*
Y70881D01*
X23062D01*
Y70872D01*
X23053D01*
Y70854D01*
X23044D01*
Y70827D01*
X23035D01*
Y70801D01*
X23027D01*
Y70774D01*
X23018D01*
Y70738D01*
X23009D01*
Y70712D01*
X23000D01*
Y70685D01*
X22991D01*
Y70658D01*
X22982D01*
Y70632D01*
X22973D01*
Y70605D01*
X22964D01*
Y70578D01*
X22955D01*
Y70543D01*
X22947D01*
Y70516D01*
X22938D01*
Y70489D01*
X22929D01*
Y70463D01*
X22920D01*
Y70436D01*
X22911D01*
Y70409D01*
X22902D01*
Y70383D01*
X22893D01*
Y70347D01*
X22884D01*
Y70321D01*
X22875D01*
Y70294D01*
X22867D01*
Y70267D01*
X22858D01*
Y70241D01*
X22849D01*
Y70214D01*
X22840D01*
Y70178D01*
X22831D01*
Y70161D01*
X22822D01*
Y70125D01*
X22813D01*
Y70098D01*
X22804D01*
Y70072D01*
X22795D01*
Y70045D01*
X22787D01*
Y70018D01*
X22778D01*
Y69983D01*
X22769D01*
Y69956D01*
X22760D01*
Y69929D01*
X22751D01*
Y69903D01*
X22742D01*
Y69876D01*
X22733D01*
Y69849D01*
X22724D01*
Y69823D01*
X22715D01*
Y69787D01*
X22707D01*
Y69769D01*
X22698D01*
Y69734D01*
X22689D01*
Y69707D01*
X22680D01*
Y69681D01*
X22671D01*
Y69654D01*
X22662D01*
Y69627D01*
X22653D01*
Y69592D01*
X22644D01*
Y69565D01*
X22635D01*
Y69538D01*
X22627D01*
Y69512D01*
X22618D01*
Y69485D01*
X22609D01*
Y69458D01*
X22600D01*
Y69432D01*
X22591D01*
Y69405D01*
X22582D01*
Y69369D01*
X22573D01*
Y69343D01*
X22564D01*
Y69316D01*
X22555D01*
Y69289D01*
X22546D01*
Y69263D01*
X22538D01*
Y69236D01*
X22529D01*
Y69209D01*
X22520D01*
Y69174D01*
X22511D01*
Y69147D01*
X22502D01*
Y69120D01*
X22493D01*
Y69094D01*
X22484D01*
Y69067D01*
X22475D01*
Y69040D01*
X22466D01*
Y69005D01*
X22458D01*
Y68978D01*
X22449D01*
Y68952D01*
X22440D01*
Y68925D01*
X22431D01*
Y68898D01*
X22422D01*
Y68872D01*
X22413D01*
Y68845D01*
X22404D01*
Y68818D01*
X22395D01*
Y68783D01*
X22386D01*
Y68765D01*
X22378D01*
Y68729D01*
X22369D01*
Y68703D01*
X22360D01*
Y68676D01*
X22351D01*
Y68649D01*
X22342D01*
Y68623D01*
X22333D01*
Y68587D01*
X22324D01*
Y68560D01*
X22315D01*
Y68534D01*
X22306D01*
Y68507D01*
X22298D01*
Y68480D01*
X22289D01*
Y68454D01*
X22280D01*
Y68427D01*
X22271D01*
Y68392D01*
X22262D01*
Y68365D01*
X22253D01*
Y68338D01*
X22244D01*
Y68312D01*
X22235D01*
Y68285D01*
X22226D01*
Y68258D01*
X22218D01*
Y68232D01*
X22209D01*
Y68196D01*
X22200D01*
Y68169D01*
X22191D01*
Y68143D01*
X22182D01*
Y68116D01*
X22173D01*
Y68089D01*
X22164D01*
Y68063D01*
X22155D01*
Y68036D01*
X22146D01*
Y68000D01*
X22138D01*
Y67974D01*
X22129D01*
Y67947D01*
X22120D01*
Y67920D01*
X22111D01*
Y67894D01*
X22102D01*
Y67867D01*
X22093D01*
Y67832D01*
X22084D01*
Y67814D01*
X22075D01*
Y67778D01*
X22066D01*
Y67752D01*
X22058D01*
Y67725D01*
X22049D01*
Y67698D01*
X22040D01*
Y67672D01*
X22031D01*
Y67636D01*
X22022D01*
Y67618D01*
X22013D01*
Y67583D01*
X22004D01*
Y67556D01*
X21995D01*
Y67529D01*
X21986D01*
Y67503D01*
X21978D01*
Y67476D01*
X21969D01*
Y67440D01*
X21960D01*
Y67423D01*
X21951D01*
Y67387D01*
X21942D01*
Y67360D01*
X21933D01*
Y67334D01*
X21924D01*
Y67307D01*
X21915D01*
Y67280D01*
X21906D01*
Y67245D01*
X21898D01*
Y67227D01*
X21889D01*
Y67192D01*
X21880D01*
Y67165D01*
X21871D01*
Y67138D01*
X21862D01*
Y67112D01*
X21853D01*
Y67085D01*
X21844D01*
Y67058D01*
X21835D01*
Y67023D01*
X21826D01*
Y66996D01*
X21818D01*
Y66969D01*
X21809D01*
Y66943D01*
X21800D01*
Y66916D01*
X21791D01*
Y66889D01*
X21782D01*
Y66863D01*
X21773D01*
Y66827D01*
X21764D01*
Y66800D01*
X21755D01*
Y66774D01*
X21746D01*
Y66747D01*
X21738D01*
Y66720D01*
X21729D01*
Y66694D01*
X21720D01*
Y66667D01*
X21711D01*
Y66631D01*
X21702D01*
Y66605D01*
X21693D01*
Y66578D01*
X21684D01*
Y66551D01*
X21675D01*
Y66525D01*
X21666D01*
Y66498D01*
X21658D01*
Y66471D01*
X21649D01*
Y66436D01*
X21640D01*
Y66409D01*
X21631D01*
Y66383D01*
X21622D01*
Y66356D01*
X21613D01*
Y66329D01*
X21604D01*
Y66303D01*
X21595D01*
Y66276D01*
X21604D01*
Y66267D01*
X22013D01*
Y65858D01*
X22004D01*
Y65849D01*
X20333D01*
Y65858D01*
X20324D01*
Y66258D01*
X20333D01*
Y66267D01*
X21373D01*
Y66276D01*
X21382D01*
Y66285D01*
X21391D01*
Y66320D01*
X21400D01*
Y66347D01*
X21409D01*
Y66374D01*
X21418D01*
Y66400D01*
X21426D01*
Y66427D01*
X21435D01*
Y66454D01*
X21444D01*
Y66480D01*
X21453D01*
Y66507D01*
X21462D01*
Y66534D01*
X21471D01*
Y66560D01*
X21480D01*
Y66596D01*
X21489D01*
Y66623D01*
X21498D01*
Y66649D01*
X21506D01*
Y66676D01*
X21515D01*
Y66703D01*
X21524D01*
Y66729D01*
X21533D01*
Y66756D01*
X21542D01*
Y66791D01*
X21551D01*
Y66809D01*
X21560D01*
Y66845D01*
X21569D01*
Y66871D01*
X21578D01*
Y66898D01*
X21586D01*
Y66925D01*
X21595D01*
Y66951D01*
X21604D01*
Y66978D01*
X21613D01*
Y67005D01*
X21622D01*
Y67032D01*
X21631D01*
Y67067D01*
X21640D01*
Y67094D01*
X21649D01*
Y67120D01*
X21658D01*
Y67147D01*
X21666D01*
Y67174D01*
X21675D01*
Y67200D01*
X21684D01*
Y67227D01*
X21693D01*
Y67254D01*
X21702D01*
Y67280D01*
X21711D01*
Y67316D01*
X21720D01*
Y67343D01*
X21729D01*
Y67369D01*
X21738D01*
Y67396D01*
X21746D01*
Y67423D01*
X21755D01*
Y67449D01*
X21764D01*
Y67476D01*
X21773D01*
Y67503D01*
X21782D01*
Y67529D01*
X21791D01*
Y67565D01*
X21800D01*
Y67592D01*
X21809D01*
Y67618D01*
X21818D01*
Y67645D01*
X21826D01*
Y67672D01*
X21835D01*
Y67698D01*
X21844D01*
Y67725D01*
X21853D01*
Y67752D01*
X21862D01*
Y67787D01*
X21871D01*
Y67814D01*
X21880D01*
Y67840D01*
X21889D01*
Y67867D01*
X21898D01*
Y67894D01*
X21906D01*
Y67920D01*
X21915D01*
Y67947D01*
X21924D01*
Y67974D01*
X21933D01*
Y68000D01*
X21942D01*
Y68036D01*
X21951D01*
Y68063D01*
X21960D01*
Y68089D01*
X21969D01*
Y68116D01*
X21978D01*
Y68143D01*
X21986D01*
Y68169D01*
X21995D01*
Y68196D01*
X22004D01*
Y68223D01*
X22013D01*
Y68249D01*
X22022D01*
Y68276D01*
X22031D01*
Y68312D01*
X22040D01*
Y68338D01*
X22049D01*
Y68365D01*
X22058D01*
Y68392D01*
X22066D01*
Y68418D01*
X22075D01*
Y68445D01*
X22084D01*
Y68472D01*
X22093D01*
Y68498D01*
X22102D01*
Y68534D01*
X22111D01*
Y68552D01*
X22120D01*
Y68587D01*
X22129D01*
Y68614D01*
X22138D01*
Y68640D01*
X22146D01*
Y68667D01*
X22155D01*
Y68694D01*
X22164D01*
Y68720D01*
X22173D01*
Y68747D01*
X22182D01*
Y68783D01*
X22191D01*
Y68809D01*
X22200D01*
Y68836D01*
X22209D01*
Y68863D01*
X22218D01*
Y68889D01*
X22226D01*
Y68916D01*
X22235D01*
Y68943D01*
X22244D01*
Y68969D01*
X22253D01*
Y68996D01*
X22262D01*
Y69023D01*
X22271D01*
Y69058D01*
X22280D01*
Y69085D01*
X22289D01*
Y69112D01*
X22298D01*
Y69138D01*
X22306D01*
Y69165D01*
X22315D01*
Y69192D01*
X22324D01*
Y69218D01*
X22333D01*
Y69254D01*
X22342D01*
Y69280D01*
X22351D01*
Y69307D01*
X22360D01*
Y69334D01*
X22369D01*
Y69360D01*
X22378D01*
Y69387D01*
X22386D01*
Y69414D01*
X22395D01*
Y69440D01*
X22404D01*
Y69467D01*
X22413D01*
Y69494D01*
X22422D01*
Y69529D01*
X22431D01*
Y69556D01*
X22440D01*
Y69583D01*
X22449D01*
Y69609D01*
X22458D01*
Y69636D01*
X22466D01*
Y69663D01*
X22475D01*
Y69689D01*
X22484D01*
Y69725D01*
X22493D01*
Y69743D01*
X22502D01*
Y69778D01*
X22511D01*
Y69805D01*
X22520D01*
Y69832D01*
X22529D01*
Y69858D01*
X22538D01*
Y69885D01*
X22546D01*
Y69912D01*
X22555D01*
Y69938D01*
X22564D01*
Y69965D01*
X22573D01*
Y70001D01*
X22582D01*
Y70027D01*
X22591D01*
Y70054D01*
X22600D01*
Y70072D01*
X22609D01*
Y70107D01*
X22618D01*
Y70134D01*
X22627D01*
Y70161D01*
X22635D01*
Y70187D01*
X22644D01*
Y70214D01*
X22653D01*
Y70249D01*
X22662D01*
Y70276D01*
X22671D01*
Y70303D01*
X22680D01*
Y70329D01*
X22689D01*
Y70356D01*
X22698D01*
Y70383D01*
X22707D01*
Y70409D01*
X22715D01*
Y70445D01*
X22724D01*
Y70463D01*
X22733D01*
Y70498D01*
X22742D01*
Y70525D01*
X22751D01*
Y70552D01*
X22760D01*
Y70578D01*
X22769D01*
Y70605D01*
X22778D01*
Y70632D01*
X22787D01*
Y70658D01*
X22795D01*
Y70685D01*
X22804D01*
Y70721D01*
X22813D01*
Y70747D01*
X22822D01*
Y70774D01*
X22831D01*
Y70801D01*
X22840D01*
Y70827D01*
X22849D01*
Y70854D01*
X22858D01*
Y70881D01*
X22867D01*
Y70907D01*
X22875D01*
Y70934D01*
X22884D01*
Y70969D01*
X22893D01*
Y70996D01*
X22902D01*
Y71023D01*
X22911D01*
Y71049D01*
X22920D01*
Y71076D01*
X22929D01*
Y71103D01*
X22938D01*
Y71129D01*
X22947D01*
Y71156D01*
X22955D01*
Y71192D01*
X22964D01*
Y71218D01*
X22973D01*
Y71245D01*
X22982D01*
Y71272D01*
X22991D01*
Y71298D01*
X23000D01*
Y71325D01*
X23009D01*
Y71352D01*
X23018D01*
Y71378D01*
X23027D01*
Y71405D01*
X23035D01*
Y71441D01*
X23044D01*
Y71458D01*
X23053D01*
Y71494D01*
X23062D01*
Y71521D01*
X23071D01*
Y71547D01*
X23080D01*
Y71574D01*
X23089D01*
Y71601D01*
X23098D01*
Y71627D01*
X23107D01*
Y71654D01*
X23115D01*
Y71689D01*
X23124D01*
Y71716D01*
X23133D01*
Y71743D01*
X23142D01*
Y71770D01*
X23151D01*
Y71796D01*
X23160D01*
Y71823D01*
X23169D01*
Y71850D01*
X23178D01*
Y71876D01*
X23187D01*
Y71912D01*
X23195D01*
Y71930D01*
X23204D01*
Y71965D01*
X23213D01*
Y71992D01*
X23222D01*
Y72018D01*
X23231D01*
Y72045D01*
X23240D01*
Y72072D01*
X23249D01*
Y72098D01*
X23258D01*
Y72125D01*
X23267D01*
Y72134D01*
X23275D01*
Y72143D01*
X23284D01*
Y72134D01*
X23293D01*
Y72125D01*
X23302D01*
Y72116D01*
X23311D01*
Y72107D01*
X23320D01*
Y72098D01*
X23329D01*
Y72090D01*
X23338D01*
Y72081D01*
X23347D01*
Y72072D01*
X23355D01*
Y72063D01*
X23364D01*
Y72054D01*
X23373D01*
Y72045D01*
X23382D01*
Y72036D01*
X23391D01*
Y72027D01*
X23400D01*
Y72018D01*
X23409D01*
Y72010D01*
X23418D01*
Y72001D01*
X23427D01*
Y71992D01*
X23435D01*
Y71983D01*
X23444D01*
Y71974D01*
X23453D01*
Y71965D01*
X23462D01*
Y71956D01*
X23471D01*
Y71947D01*
X23480D01*
Y71938D01*
X23489D01*
Y71930D01*
X23498D01*
Y71921D01*
X23507D01*
Y71912D01*
X23515D01*
Y71903D01*
X23524D01*
Y71894D01*
X23533D01*
Y71885D01*
X23542D01*
Y71876D01*
X23551D01*
Y71867D01*
X23560D01*
Y71858D01*
X23569D01*
Y71850D01*
X23578D01*
Y71841D01*
X23587D01*
Y71832D01*
X23595D01*
Y71823D01*
X23604D01*
Y71814D01*
X23613D01*
Y71805D01*
X23622D01*
Y71796D01*
X23631D01*
Y71787D01*
X23640D01*
Y71778D01*
X23649D01*
Y71770D01*
X23658D01*
Y71761D01*
X23667D01*
Y71752D01*
X23675D01*
Y71743D01*
X23684D01*
Y71734D01*
X23693D01*
Y71725D01*
X23702D01*
Y71716D01*
X23711D01*
Y71707D01*
X23720D01*
Y71698D01*
X23729D01*
Y71689D01*
X23738D01*
Y71681D01*
X23747D01*
Y71672D01*
X23755D01*
Y71663D01*
X23764D01*
Y71654D01*
X23773D01*
Y71645D01*
X23782D01*
Y71636D01*
X23791D01*
Y71627D01*
X23800D01*
Y71618D01*
X23809D01*
Y71609D01*
X23818D01*
Y71601D01*
X23827D01*
Y71592D01*
X23835D01*
Y71583D01*
X23844D01*
Y71574D01*
X23853D01*
Y71565D01*
X23862D01*
Y71556D01*
X23871D01*
Y71547D01*
X23880D01*
Y71538D01*
X23889D01*
Y71529D01*
X23898D01*
Y71521D01*
X23907D01*
Y71512D01*
X23915D01*
Y71503D01*
X23924D01*
Y71494D01*
X23933D01*
Y71485D01*
X23942D01*
Y71476D01*
X23951D01*
Y71467D01*
X23960D01*
Y71458D01*
X23969D01*
Y71449D01*
X23978D01*
Y71441D01*
X23987D01*
Y71432D01*
X23995D01*
Y71423D01*
X24004D01*
Y71414D01*
X24013D01*
Y71405D01*
X24022D01*
Y71396D01*
X24031D01*
Y71387D01*
X24040D01*
Y71378D01*
X24049D01*
Y71369D01*
X24058D01*
Y71361D01*
X24067D01*
Y71352D01*
X24075D01*
Y71343D01*
X24084D01*
Y71334D01*
X24093D01*
Y71325D01*
X24102D01*
Y71316D01*
X24111D01*
Y71307D01*
X24120D01*
Y71298D01*
X24129D01*
Y71289D01*
X24138D01*
Y71281D01*
X24147D01*
Y71272D01*
X24155D01*
Y71263D01*
X24164D01*
Y71254D01*
X24173D01*
Y71245D01*
X24182D01*
Y71236D01*
X24191D01*
Y71227D01*
X24200D01*
Y71218D01*
X24209D01*
Y71209D01*
X24218D01*
Y71201D01*
X24227D01*
Y71192D01*
X24235D01*
Y71183D01*
X24244D01*
Y71174D01*
X24253D01*
Y71165D01*
X24262D01*
Y71156D01*
X24271D01*
Y71147D01*
X24280D01*
Y71138D01*
X24289D01*
Y71129D01*
X24298D01*
Y71121D01*
X24307D01*
Y71112D01*
X24315D01*
Y71103D01*
X24324D01*
Y71094D01*
X24333D01*
Y71085D01*
X24342D01*
Y71076D01*
X24351D01*
Y71067D01*
X24360D01*
Y71058D01*
X24369D01*
Y71049D01*
X24378D01*
Y71041D01*
X24387D01*
Y71032D01*
X24395D01*
Y71023D01*
X24404D01*
Y71014D01*
X24413D01*
Y71005D01*
X24422D01*
Y70996D01*
X24431D01*
Y70987D01*
X24440D01*
Y70978D01*
X24449D01*
Y70969D01*
X24458D01*
Y70961D01*
X24467D01*
Y70952D01*
X24475D01*
Y70943D01*
X24484D01*
Y70934D01*
X24493D01*
Y70925D01*
X24502D01*
Y70916D01*
X24511D01*
Y70907D01*
X24520D01*
Y70898D01*
X24529D01*
Y70889D01*
X24538D01*
Y70881D01*
X24547D01*
Y70872D01*
X24555D01*
Y70854D01*
X24573D01*
Y70845D01*
X24582D01*
Y70836D01*
X24591D01*
Y70827D01*
X24600D01*
Y70818D01*
X24609D01*
Y70809D01*
X24618D01*
Y70801D01*
X24627D01*
Y70792D01*
X24635D01*
Y70783D01*
X24644D01*
Y70774D01*
X24653D01*
Y70765D01*
X24662D01*
Y70756D01*
X24671D01*
Y70747D01*
X24680D01*
Y70738D01*
X24689D01*
Y70729D01*
X24698D01*
Y70721D01*
X24707D01*
Y70712D01*
X24715D01*
Y70703D01*
X24724D01*
Y70694D01*
X24733D01*
Y70685D01*
X24742D01*
Y70676D01*
X24751D01*
Y70667D01*
X24760D01*
Y70658D01*
X24769D01*
Y70649D01*
X24778D01*
Y70641D01*
X24787D01*
Y70632D01*
X24795D01*
Y70623D01*
X24804D01*
Y70614D01*
X24813D01*
Y70605D01*
X24822D01*
Y70596D01*
X24831D01*
Y70587D01*
X24840D01*
Y70578D01*
X24849D01*
Y70569D01*
X24858D01*
Y70561D01*
X24867D01*
Y70552D01*
X24875D01*
Y70543D01*
X24884D01*
Y70534D01*
X24893D01*
Y70525D01*
X24902D01*
Y70516D01*
X24911D01*
Y70507D01*
X24920D01*
Y70498D01*
X24929D01*
Y70489D01*
X24938D01*
Y70481D01*
X24947D01*
Y70472D01*
X24956D01*
Y70463D01*
X24964D01*
Y70454D01*
X24973D01*
Y70445D01*
X24982D01*
Y70436D01*
X24991D01*
Y70427D01*
X25000D01*
Y70418D01*
X25009D01*
Y70409D01*
X25018D01*
Y70401D01*
X25027D01*
Y70392D01*
X25036D01*
Y70383D01*
X25044D01*
Y70374D01*
X25053D01*
Y70365D01*
X25062D01*
Y70356D01*
X25071D01*
Y70347D01*
X25080D01*
Y70338D01*
X25089D01*
Y70329D01*
X25098D01*
Y70321D01*
X25107D01*
Y70312D01*
X25116D01*
Y70303D01*
X25124D01*
Y70294D01*
X25133D01*
Y70285D01*
X25142D01*
Y70276D01*
X25151D01*
Y70267D01*
X25160D01*
Y70258D01*
X25169D01*
Y70249D01*
X25178D01*
Y70241D01*
X25187D01*
Y70232D01*
X25196D01*
Y70223D01*
X25204D01*
Y70214D01*
X25213D01*
Y70205D01*
X25222D01*
Y70196D01*
X25231D01*
Y70187D01*
X25240D01*
Y70178D01*
X25249D01*
Y70169D01*
X25258D01*
Y70161D01*
X25267D01*
Y70152D01*
X25276D01*
Y70143D01*
X25284D01*
Y70134D01*
X25293D01*
Y70125D01*
X25302D01*
Y70116D01*
X25311D01*
Y70107D01*
X25320D01*
Y70098D01*
X25329D01*
Y70089D01*
X25338D01*
Y70072D01*
X25373D01*
Y72561D01*
X25364D01*
Y72570D01*
X24324D01*
Y72587D01*
X24315D01*
Y72978D01*
X24324D01*
Y72987D01*
X25764D01*
Y72996D01*
X25773D01*
Y72987D01*
D02*
G37*
G36*
X26236D02*
X27685D01*
Y72578D01*
X27676D01*
Y72570D01*
X26636D01*
Y72552D01*
X26627D01*
Y72534D01*
X26636D01*
Y72161D01*
X26627D01*
Y72107D01*
X26636D01*
Y70907D01*
X26627D01*
Y70854D01*
X26636D01*
Y70098D01*
X26627D01*
Y70072D01*
X26636D01*
Y70063D01*
X26644D01*
Y70072D01*
X26662D01*
Y70089D01*
X26671D01*
Y70098D01*
X26680D01*
Y70107D01*
X26689D01*
Y70116D01*
X26698D01*
Y70125D01*
X26707D01*
Y70134D01*
X26716D01*
Y70143D01*
X26724D01*
Y70152D01*
X26733D01*
Y70161D01*
X26742D01*
Y70169D01*
X26751D01*
Y70178D01*
X26760D01*
Y70187D01*
X26769D01*
Y70196D01*
X26778D01*
Y70205D01*
X26787D01*
Y70214D01*
X26796D01*
Y70223D01*
X26804D01*
Y70232D01*
X26813D01*
Y70241D01*
X26822D01*
Y70249D01*
X26831D01*
Y70258D01*
X26840D01*
Y70267D01*
X26849D01*
Y70276D01*
X26858D01*
Y70285D01*
X26867D01*
Y70294D01*
X26876D01*
Y70303D01*
X26884D01*
Y70312D01*
X26893D01*
Y70321D01*
X26902D01*
Y70329D01*
X26911D01*
Y70338D01*
X26920D01*
Y70347D01*
X26929D01*
Y70356D01*
X26938D01*
Y70365D01*
X26947D01*
Y70374D01*
X26956D01*
Y70383D01*
X26964D01*
Y70392D01*
X26973D01*
Y70401D01*
X26982D01*
Y70409D01*
X26991D01*
Y70418D01*
X27000D01*
Y70427D01*
X27009D01*
Y70436D01*
X27018D01*
Y70445D01*
X27027D01*
Y70454D01*
X27036D01*
Y70463D01*
X27045D01*
Y70472D01*
X27053D01*
Y70481D01*
X27062D01*
Y70489D01*
X27071D01*
Y70498D01*
X27080D01*
Y70507D01*
X27089D01*
Y70516D01*
X27098D01*
Y70525D01*
X27107D01*
Y70534D01*
X27116D01*
Y70543D01*
X27125D01*
Y70552D01*
X27133D01*
Y70561D01*
X27142D01*
Y70569D01*
X27151D01*
Y70578D01*
X27160D01*
Y70587D01*
X27169D01*
Y70596D01*
X27178D01*
Y70605D01*
X27187D01*
Y70614D01*
X27196D01*
Y70623D01*
X27205D01*
Y70632D01*
X27213D01*
Y70641D01*
X27222D01*
Y70649D01*
X27231D01*
Y70658D01*
X27240D01*
Y70667D01*
X27249D01*
Y70676D01*
X27258D01*
Y70685D01*
X27267D01*
Y70694D01*
X27276D01*
Y70703D01*
X27285D01*
Y70712D01*
X27293D01*
Y70721D01*
X27302D01*
Y70729D01*
X27311D01*
Y70738D01*
X27320D01*
Y70747D01*
X27329D01*
Y70756D01*
X27338D01*
Y70765D01*
X27347D01*
Y70774D01*
X27356D01*
Y70783D01*
X27365D01*
Y70792D01*
X27373D01*
Y70801D01*
X27382D01*
Y70809D01*
X27391D01*
Y70818D01*
X27400D01*
Y70827D01*
X27409D01*
Y70836D01*
X27418D01*
Y70845D01*
X27427D01*
Y70854D01*
X27445D01*
Y70872D01*
X27453D01*
Y70881D01*
X27462D01*
Y70889D01*
X27471D01*
Y70898D01*
X27480D01*
Y70907D01*
X27489D01*
Y70916D01*
X27498D01*
Y70925D01*
X27507D01*
Y70934D01*
X27516D01*
Y70943D01*
X27525D01*
Y70952D01*
X27533D01*
Y70961D01*
X27542D01*
Y70969D01*
X27551D01*
Y70978D01*
X27560D01*
Y70987D01*
X27569D01*
Y70996D01*
X27578D01*
Y71005D01*
X27587D01*
Y71014D01*
X27596D01*
Y71023D01*
X27605D01*
Y71032D01*
X27613D01*
Y71041D01*
X27622D01*
Y71049D01*
X27631D01*
Y71058D01*
X27640D01*
Y71067D01*
X27649D01*
Y71076D01*
X27658D01*
Y71085D01*
X27667D01*
Y71094D01*
X27676D01*
Y71103D01*
X27685D01*
Y71112D01*
X27693D01*
Y71121D01*
X27702D01*
Y71129D01*
X27711D01*
Y71138D01*
X27720D01*
Y71147D01*
X27729D01*
Y71156D01*
X27738D01*
Y71165D01*
X27747D01*
Y71174D01*
X27756D01*
Y71183D01*
X27765D01*
Y71192D01*
X27773D01*
Y71201D01*
X27782D01*
Y71209D01*
X27791D01*
Y71218D01*
X27800D01*
Y71227D01*
X27809D01*
Y71236D01*
X27818D01*
Y71245D01*
X27827D01*
Y71254D01*
X27836D01*
Y71263D01*
X27845D01*
Y71272D01*
X27853D01*
Y71281D01*
X27862D01*
Y71289D01*
X27871D01*
Y71298D01*
X27880D01*
Y71307D01*
X27889D01*
Y71316D01*
X27898D01*
Y71325D01*
X27907D01*
Y71334D01*
X27916D01*
Y71343D01*
X27925D01*
Y71352D01*
X27933D01*
Y71361D01*
X27942D01*
Y71369D01*
X27951D01*
Y71378D01*
X27960D01*
Y71387D01*
X27969D01*
Y71396D01*
X27978D01*
Y71405D01*
X27987D01*
Y71414D01*
X27996D01*
Y71423D01*
X28005D01*
Y71432D01*
X28013D01*
Y71441D01*
X28022D01*
Y71449D01*
X28031D01*
Y71458D01*
X28040D01*
Y71467D01*
X28049D01*
Y71476D01*
X28058D01*
Y71485D01*
X28067D01*
Y71494D01*
X28076D01*
Y71503D01*
X28085D01*
Y71512D01*
X28093D01*
Y71521D01*
X28102D01*
Y71529D01*
X28111D01*
Y71538D01*
X28120D01*
Y71547D01*
X28129D01*
Y71556D01*
X28138D01*
Y71565D01*
X28147D01*
Y71574D01*
X28156D01*
Y71583D01*
X28165D01*
Y71592D01*
X28173D01*
Y71601D01*
X28182D01*
Y71609D01*
X28191D01*
Y71618D01*
X28200D01*
Y71627D01*
X28209D01*
Y71636D01*
X28218D01*
Y71645D01*
X28227D01*
Y71654D01*
X28236D01*
Y71663D01*
X28245D01*
Y71672D01*
X28253D01*
Y71681D01*
X28262D01*
Y71689D01*
X28271D01*
Y71698D01*
X28280D01*
Y71707D01*
X28289D01*
Y71716D01*
X28298D01*
Y71725D01*
X28307D01*
Y71734D01*
X28316D01*
Y71743D01*
X28325D01*
Y71752D01*
X28333D01*
Y71761D01*
X28342D01*
Y71770D01*
X28351D01*
Y71778D01*
X28360D01*
Y71787D01*
X28369D01*
Y71796D01*
X28378D01*
Y71805D01*
X28387D01*
Y71814D01*
X28396D01*
Y71823D01*
X28405D01*
Y71832D01*
X28413D01*
Y71841D01*
X28422D01*
Y71850D01*
X28431D01*
Y71858D01*
X28440D01*
Y71867D01*
X28449D01*
Y71876D01*
X28458D01*
Y71885D01*
X28467D01*
Y71894D01*
X28476D01*
Y71903D01*
X28485D01*
Y71912D01*
X28493D01*
Y71921D01*
X28502D01*
Y71930D01*
X28511D01*
Y71938D01*
X28520D01*
Y71947D01*
X28529D01*
Y71956D01*
X28538D01*
Y71965D01*
X28547D01*
Y71974D01*
X28556D01*
Y71983D01*
X28565D01*
Y71992D01*
X28573D01*
Y72001D01*
X28582D01*
Y72010D01*
X28591D01*
Y72018D01*
X28600D01*
Y72027D01*
X28609D01*
Y72036D01*
X28618D01*
Y72045D01*
X28627D01*
Y72054D01*
X28636D01*
Y72063D01*
X28645D01*
Y72072D01*
X28653D01*
Y72081D01*
X28662D01*
Y72090D01*
X28671D01*
Y72098D01*
X28680D01*
Y72107D01*
X28689D01*
Y72116D01*
X28698D01*
Y72125D01*
X28707D01*
Y72134D01*
X28716D01*
Y72143D01*
X28725D01*
Y72134D01*
X28733D01*
Y72125D01*
X28742D01*
Y72098D01*
X28751D01*
Y72072D01*
X28760D01*
Y72045D01*
X28769D01*
Y72018D01*
X28778D01*
Y71992D01*
X28787D01*
Y71965D01*
X28796D01*
Y71930D01*
X28805D01*
Y71912D01*
X28813D01*
Y71876D01*
X28822D01*
Y71850D01*
X28831D01*
Y71823D01*
X28840D01*
Y71796D01*
X28849D01*
Y71770D01*
X28858D01*
Y71743D01*
X28867D01*
Y71716D01*
X28876D01*
Y71689D01*
X28885D01*
Y71654D01*
X28893D01*
Y71627D01*
X28902D01*
Y71601D01*
X28911D01*
Y71574D01*
X28920D01*
Y71547D01*
X28929D01*
Y71521D01*
X28938D01*
Y71494D01*
X28947D01*
Y71467D01*
X28956D01*
Y71441D01*
X28965D01*
Y71405D01*
X28973D01*
Y71378D01*
X28982D01*
Y71352D01*
X28991D01*
Y71325D01*
X29000D01*
Y71298D01*
X29009D01*
Y71272D01*
X29018D01*
Y71245D01*
X29027D01*
Y71218D01*
X29036D01*
Y71192D01*
X29045D01*
Y71156D01*
X29053D01*
Y71129D01*
X29062D01*
Y71103D01*
X29071D01*
Y71076D01*
X29080D01*
Y71049D01*
X29089D01*
Y71023D01*
X29098D01*
Y70996D01*
X29107D01*
Y70969D01*
X29116D01*
Y70934D01*
X29125D01*
Y70916D01*
X29133D01*
Y70881D01*
X29142D01*
Y70854D01*
X29151D01*
Y70827D01*
X29160D01*
Y70801D01*
X29169D01*
Y70774D01*
X29178D01*
Y70747D01*
X29187D01*
Y70721D01*
X29196D01*
Y70685D01*
X29205D01*
Y70658D01*
X29213D01*
Y70632D01*
X29222D01*
Y70605D01*
X29231D01*
Y70578D01*
X29240D01*
Y70552D01*
X29249D01*
Y70525D01*
X29258D01*
Y70498D01*
X29267D01*
Y70472D01*
X29276D01*
Y70445D01*
X29285D01*
Y70409D01*
X29293D01*
Y70383D01*
X29302D01*
Y70356D01*
X29311D01*
Y70329D01*
X29320D01*
Y70303D01*
X29329D01*
Y70276D01*
X29338D01*
Y70249D01*
X29347D01*
Y70223D01*
X29356D01*
Y70196D01*
X29365D01*
Y70161D01*
X29373D01*
Y70134D01*
X29382D01*
Y70107D01*
X29391D01*
Y70072D01*
X29400D01*
Y70054D01*
X29409D01*
Y70027D01*
X29418D01*
Y70001D01*
X29427D01*
Y69974D01*
X29436D01*
Y69938D01*
X29445D01*
Y69921D01*
X29454D01*
Y69885D01*
X29462D01*
Y69858D01*
X29471D01*
Y69832D01*
X29480D01*
Y69805D01*
X29489D01*
Y69778D01*
X29498D01*
Y69752D01*
X29507D01*
Y69725D01*
X29516D01*
Y69698D01*
X29525D01*
Y69663D01*
X29534D01*
Y69636D01*
X29542D01*
Y69609D01*
X29551D01*
Y69583D01*
X29560D01*
Y69556D01*
X29569D01*
Y69529D01*
X29578D01*
Y69503D01*
X29587D01*
Y69476D01*
X29596D01*
Y69449D01*
X29605D01*
Y69414D01*
X29614D01*
Y69387D01*
X29622D01*
Y69360D01*
X29631D01*
Y69334D01*
X29640D01*
Y69307D01*
X29649D01*
Y69280D01*
X29658D01*
Y69254D01*
X29667D01*
Y69227D01*
X29676D01*
Y69200D01*
X29685D01*
Y69174D01*
X29694D01*
Y69138D01*
X29702D01*
Y69112D01*
X29711D01*
Y69085D01*
X29720D01*
Y69058D01*
X29729D01*
Y69032D01*
X29738D01*
Y69005D01*
X29747D01*
Y68978D01*
X29756D01*
Y68943D01*
X29765D01*
Y68925D01*
X29774D01*
Y68889D01*
X29782D01*
Y68863D01*
X29791D01*
Y68836D01*
X29800D01*
Y68809D01*
X29809D01*
Y68783D01*
X29818D01*
Y68756D01*
X29827D01*
Y68729D01*
X29836D01*
Y68703D01*
X29845D01*
Y68667D01*
X29854D01*
Y68640D01*
X29862D01*
Y68614D01*
X29871D01*
Y68587D01*
X29880D01*
Y68560D01*
X29889D01*
Y68534D01*
X29898D01*
Y68507D01*
X29907D01*
Y68472D01*
X29916D01*
Y68454D01*
X29925D01*
Y68418D01*
X29934D01*
Y68392D01*
X29942D01*
Y68365D01*
X29951D01*
Y68338D01*
X29960D01*
Y68312D01*
X29969D01*
Y68285D01*
X29978D01*
Y68258D01*
X29987D01*
Y68232D01*
X29996D01*
Y68205D01*
X30005D01*
Y68169D01*
X30014D01*
Y68143D01*
X30022D01*
Y68116D01*
X30031D01*
Y68089D01*
X30040D01*
Y68063D01*
X30049D01*
Y68036D01*
X30058D01*
Y68009D01*
X30067D01*
Y67983D01*
X30076D01*
Y67947D01*
X30085D01*
Y67929D01*
X30094D01*
Y67894D01*
X30102D01*
Y67867D01*
X30111D01*
Y67840D01*
X30120D01*
Y67814D01*
X30129D01*
Y67787D01*
X30138D01*
Y67760D01*
X30147D01*
Y67734D01*
X30156D01*
Y67698D01*
X30165D01*
Y67672D01*
X30174D01*
Y67645D01*
X30182D01*
Y67618D01*
X30191D01*
Y67592D01*
X30200D01*
Y67565D01*
X30209D01*
Y67538D01*
X30218D01*
Y67512D01*
X30227D01*
Y67485D01*
X30236D01*
Y67458D01*
X30245D01*
Y67423D01*
X30254D01*
Y67396D01*
X30262D01*
Y67369D01*
X30271D01*
Y67343D01*
X30280D01*
Y67316D01*
X30289D01*
Y67289D01*
X30298D01*
Y67263D01*
X30307D01*
Y67227D01*
X30316D01*
Y67209D01*
X30325D01*
Y67174D01*
X30334D01*
Y67147D01*
X30342D01*
Y67120D01*
X30351D01*
Y67094D01*
X30360D01*
Y67067D01*
X30369D01*
Y67040D01*
X30378D01*
Y67014D01*
X30387D01*
Y66987D01*
X30396D01*
Y66951D01*
X30405D01*
Y66925D01*
X30414D01*
Y66898D01*
X30422D01*
Y66871D01*
X30431D01*
Y66845D01*
X30440D01*
Y66818D01*
X30449D01*
Y66791D01*
X30458D01*
Y66765D01*
X30467D01*
Y66738D01*
X30476D01*
Y66711D01*
X30485D01*
Y66676D01*
X30494D01*
Y66649D01*
X30502D01*
Y66623D01*
X30511D01*
Y66596D01*
X30520D01*
Y66569D01*
X30529D01*
Y66543D01*
X30538D01*
Y66516D01*
X30547D01*
Y66480D01*
X30556D01*
Y66463D01*
X30565D01*
Y66427D01*
X30574D01*
Y66400D01*
X30582D01*
Y66374D01*
X30591D01*
Y66347D01*
X30600D01*
Y66320D01*
X30609D01*
Y66285D01*
X30618D01*
Y66276D01*
X30627D01*
Y66267D01*
X31676D01*
Y65858D01*
X31667D01*
Y65849D01*
X29996D01*
Y65867D01*
X29987D01*
Y66258D01*
X29996D01*
Y66267D01*
X30396D01*
Y66276D01*
X30405D01*
Y66303D01*
X30396D01*
Y66338D01*
X30387D01*
Y66356D01*
X30378D01*
Y66391D01*
X30369D01*
Y66418D01*
X30360D01*
Y66445D01*
X30351D01*
Y66471D01*
X30342D01*
Y66498D01*
X30334D01*
Y66525D01*
X30325D01*
Y66560D01*
X30316D01*
Y66587D01*
X30307D01*
Y66614D01*
X30298D01*
Y66640D01*
X30289D01*
Y66667D01*
X30280D01*
Y66694D01*
X30271D01*
Y66720D01*
X30262D01*
Y66756D01*
X30254D01*
Y66783D01*
X30245D01*
Y66809D01*
X30236D01*
Y66836D01*
X30227D01*
Y66863D01*
X30218D01*
Y66889D01*
X30209D01*
Y66916D01*
X30200D01*
Y66951D01*
X30191D01*
Y66978D01*
X30182D01*
Y67005D01*
X30174D01*
Y67032D01*
X30165D01*
Y67058D01*
X30156D01*
Y67085D01*
X30147D01*
Y67112D01*
X30138D01*
Y67147D01*
X30129D01*
Y67165D01*
X30120D01*
Y67200D01*
X30111D01*
Y67227D01*
X30102D01*
Y67254D01*
X30094D01*
Y67280D01*
X30085D01*
Y67307D01*
X30076D01*
Y67343D01*
X30067D01*
Y67360D01*
X30058D01*
Y67396D01*
X30049D01*
Y67423D01*
X30040D01*
Y67449D01*
X30031D01*
Y67476D01*
X30022D01*
Y67503D01*
X30014D01*
Y67529D01*
X30005D01*
Y67565D01*
X29996D01*
Y67592D01*
X29987D01*
Y67618D01*
X29978D01*
Y67645D01*
X29969D01*
Y67672D01*
X29960D01*
Y67698D01*
X29951D01*
Y67725D01*
X29942D01*
Y67760D01*
X29934D01*
Y67787D01*
X29925D01*
Y67814D01*
X29916D01*
Y67840D01*
X29907D01*
Y67867D01*
X29898D01*
Y67894D01*
X29889D01*
Y67929D01*
X29880D01*
Y67956D01*
X29871D01*
Y67983D01*
X29862D01*
Y68009D01*
X29854D01*
Y68036D01*
X29845D01*
Y68063D01*
X29836D01*
Y68089D01*
X29827D01*
Y68116D01*
X29818D01*
Y68152D01*
X29809D01*
Y68178D01*
X29800D01*
Y68205D01*
X29791D01*
Y68232D01*
X29782D01*
Y68258D01*
X29774D01*
Y68294D01*
X29765D01*
Y68312D01*
X29756D01*
Y68347D01*
X29747D01*
Y68374D01*
X29738D01*
Y68400D01*
X29729D01*
Y68427D01*
X29720D01*
Y68454D01*
X29711D01*
Y68480D01*
X29702D01*
Y68507D01*
X29694D01*
Y68543D01*
X29685D01*
Y68569D01*
X29676D01*
Y68596D01*
X29667D01*
Y68623D01*
X29658D01*
Y68649D01*
X29649D01*
Y68676D01*
X29640D01*
Y68703D01*
X29631D01*
Y68738D01*
X29622D01*
Y68765D01*
X29614D01*
Y68783D01*
X29605D01*
Y68818D01*
X29596D01*
Y68845D01*
X29587D01*
Y68872D01*
X29578D01*
Y68898D01*
X29569D01*
Y68934D01*
X29560D01*
Y68960D01*
X29551D01*
Y68987D01*
X29542D01*
Y69014D01*
X29534D01*
Y69040D01*
X29525D01*
Y69067D01*
X29516D01*
Y69103D01*
X29507D01*
Y69129D01*
X29498D01*
Y69156D01*
X29489D01*
Y69183D01*
X29480D01*
Y69209D01*
X29471D01*
Y69236D01*
X29462D01*
Y69263D01*
X29454D01*
Y69298D01*
X29445D01*
Y69325D01*
X29436D01*
Y69352D01*
X29427D01*
Y69378D01*
X29418D01*
Y69405D01*
X29409D01*
Y69432D01*
X29400D01*
Y69458D01*
X29391D01*
Y69494D01*
X29382D01*
Y69512D01*
X29373D01*
Y69547D01*
X29365D01*
Y69574D01*
X29356D01*
Y69601D01*
X29347D01*
Y69627D01*
X29338D01*
Y69654D01*
X29329D01*
Y69689D01*
X29320D01*
Y69707D01*
X29311D01*
Y69743D01*
X29302D01*
Y69769D01*
X29293D01*
Y69796D01*
X29285D01*
Y69823D01*
X29276D01*
Y69849D01*
X29267D01*
Y69876D01*
X29258D01*
Y69912D01*
X29249D01*
Y69938D01*
X29240D01*
Y69965D01*
X29231D01*
Y69992D01*
X29222D01*
Y70018D01*
X29213D01*
Y70045D01*
X29205D01*
Y70072D01*
X29196D01*
Y70107D01*
X29187D01*
Y70134D01*
X29178D01*
Y70161D01*
X29169D01*
Y70187D01*
X29160D01*
Y70214D01*
X29151D01*
Y70241D01*
X29142D01*
Y70276D01*
X29133D01*
Y70303D01*
X29125D01*
Y70329D01*
X29116D01*
Y70356D01*
X29107D01*
Y70383D01*
X29098D01*
Y70409D01*
X29089D01*
Y70436D01*
X29080D01*
Y70463D01*
X29071D01*
Y70498D01*
X29062D01*
Y70525D01*
X29053D01*
Y70552D01*
X29045D01*
Y70578D01*
X29036D01*
Y70605D01*
X29027D01*
Y70632D01*
X29018D01*
Y70658D01*
X29009D01*
Y70694D01*
X29000D01*
Y70721D01*
X28991D01*
Y70747D01*
X28982D01*
Y70774D01*
X28973D01*
Y70801D01*
X28965D01*
Y70827D01*
X28956D01*
Y70854D01*
X28947D01*
Y70881D01*
X28920D01*
Y70863D01*
X28911D01*
Y70854D01*
X28893D01*
Y70845D01*
X28885D01*
Y70836D01*
X28876D01*
Y70827D01*
X28867D01*
Y70818D01*
X28858D01*
Y70809D01*
X28849D01*
Y70801D01*
X28840D01*
Y70792D01*
X28831D01*
Y70783D01*
X28822D01*
Y70774D01*
X28813D01*
Y70765D01*
X28796D01*
Y70756D01*
X28787D01*
Y70747D01*
X28778D01*
Y70738D01*
X28769D01*
Y70729D01*
X28760D01*
Y70721D01*
X28751D01*
Y70712D01*
X28742D01*
Y70703D01*
X28733D01*
Y70694D01*
X28725D01*
Y70685D01*
X28707D01*
Y70676D01*
X28698D01*
Y70667D01*
X28689D01*
Y70658D01*
X28680D01*
Y70649D01*
X28671D01*
Y70641D01*
X28662D01*
Y70632D01*
X28653D01*
Y70623D01*
X28645D01*
Y70614D01*
X28636D01*
Y70605D01*
X28627D01*
Y70596D01*
X28618D01*
Y70587D01*
X28600D01*
Y70578D01*
X28591D01*
Y70569D01*
X28582D01*
Y70561D01*
X28573D01*
Y70552D01*
X28565D01*
Y70543D01*
X28556D01*
Y70534D01*
X28547D01*
Y70525D01*
X28538D01*
Y70516D01*
X28529D01*
Y70507D01*
X28520D01*
Y70498D01*
X28502D01*
Y70489D01*
X28493D01*
Y70481D01*
X28485D01*
Y70472D01*
X28476D01*
Y70463D01*
X28467D01*
Y70454D01*
X28458D01*
Y70445D01*
X28449D01*
Y70436D01*
X28440D01*
Y70427D01*
X28431D01*
Y70418D01*
X28413D01*
Y70409D01*
X28405D01*
Y70401D01*
X28396D01*
Y70392D01*
X28387D01*
Y70383D01*
X28378D01*
Y70374D01*
X28369D01*
Y70365D01*
X28360D01*
Y70356D01*
X28351D01*
Y70347D01*
X28342D01*
Y70338D01*
X28333D01*
Y70329D01*
X28325D01*
Y70321D01*
X28307D01*
Y70312D01*
X28298D01*
Y70303D01*
X28289D01*
Y70294D01*
X28280D01*
Y70285D01*
X28271D01*
Y70276D01*
X28262D01*
Y70267D01*
X28253D01*
Y70258D01*
X28245D01*
Y70249D01*
X28236D01*
Y70241D01*
X28218D01*
Y70232D01*
X28209D01*
Y70223D01*
X28200D01*
Y70214D01*
X28191D01*
Y70205D01*
X28182D01*
Y70196D01*
X28173D01*
Y70187D01*
X28165D01*
Y70178D01*
X28156D01*
Y70169D01*
X28147D01*
Y70161D01*
X28138D01*
Y70152D01*
X28129D01*
Y70143D01*
X28111D01*
Y70134D01*
X28102D01*
Y70125D01*
X28093D01*
Y70116D01*
X28085D01*
Y70107D01*
X28076D01*
Y70098D01*
X28067D01*
Y70089D01*
X28058D01*
Y70081D01*
X28049D01*
Y70072D01*
X28040D01*
Y70063D01*
X28022D01*
Y70045D01*
X28005D01*
Y70036D01*
X27996D01*
Y70027D01*
X27987D01*
Y70018D01*
X27978D01*
Y70009D01*
X27969D01*
Y70001D01*
X27960D01*
Y69992D01*
X27951D01*
Y69983D01*
X27942D01*
Y69974D01*
X27925D01*
Y69965D01*
X27916D01*
Y69956D01*
X27907D01*
Y69947D01*
X27898D01*
Y69938D01*
X27889D01*
Y69929D01*
X27880D01*
Y69921D01*
X27871D01*
Y69912D01*
X27862D01*
Y69903D01*
X27853D01*
Y69894D01*
X27845D01*
Y69885D01*
X27836D01*
Y69876D01*
X27818D01*
Y69867D01*
X27809D01*
Y69858D01*
X27800D01*
Y69849D01*
X27791D01*
Y69841D01*
X27782D01*
Y69832D01*
X27773D01*
Y69823D01*
X27765D01*
Y69814D01*
X27756D01*
Y69805D01*
X27747D01*
Y69796D01*
X27729D01*
Y69787D01*
X27720D01*
Y69778D01*
X27711D01*
Y69769D01*
X27702D01*
Y69761D01*
X27693D01*
Y69752D01*
X27685D01*
Y69743D01*
X27676D01*
Y69734D01*
X27667D01*
Y69725D01*
X27658D01*
Y69716D01*
X27649D01*
Y69707D01*
X27640D01*
Y69698D01*
X27622D01*
Y69689D01*
X27613D01*
Y69681D01*
X27605D01*
Y69672D01*
X27596D01*
Y69663D01*
X27587D01*
Y69654D01*
X27578D01*
Y69645D01*
X27569D01*
Y69636D01*
X27560D01*
Y69627D01*
X27551D01*
Y69618D01*
X27533D01*
Y69609D01*
X27525D01*
Y69601D01*
X27516D01*
Y69592D01*
X27507D01*
Y69583D01*
X27498D01*
Y69574D01*
X27489D01*
Y69565D01*
X27480D01*
Y69556D01*
X27471D01*
Y69547D01*
X27462D01*
Y69538D01*
X27453D01*
Y69529D01*
X27436D01*
Y69521D01*
X27427D01*
Y69512D01*
X27418D01*
Y69503D01*
X27409D01*
Y69494D01*
X27400D01*
Y69485D01*
X27391D01*
Y69476D01*
X27382D01*
Y69467D01*
X27373D01*
Y69458D01*
X27365D01*
Y69449D01*
X27356D01*
Y69440D01*
X27338D01*
Y69432D01*
X27329D01*
Y69423D01*
X27320D01*
Y69414D01*
X27311D01*
Y69405D01*
X27302D01*
Y69396D01*
X27293D01*
Y69387D01*
X27285D01*
Y69378D01*
X27276D01*
Y69369D01*
X27267D01*
Y69360D01*
X27258D01*
Y69352D01*
X27240D01*
Y69343D01*
X27231D01*
Y69334D01*
X27222D01*
Y69325D01*
X27213D01*
Y69316D01*
X27205D01*
Y69307D01*
X27196D01*
Y69298D01*
X27187D01*
Y69289D01*
X27178D01*
Y69280D01*
X27169D01*
Y69272D01*
X27160D01*
Y69263D01*
X27151D01*
Y69254D01*
X27133D01*
Y69245D01*
X27125D01*
Y69236D01*
X27116D01*
Y69227D01*
X27107D01*
Y69218D01*
X27098D01*
Y69209D01*
X27089D01*
Y69200D01*
X27080D01*
Y69192D01*
X27071D01*
Y69183D01*
X27053D01*
Y69174D01*
X27045D01*
Y69165D01*
X27036D01*
Y69156D01*
X27027D01*
Y69147D01*
X27018D01*
Y69138D01*
X27009D01*
Y69129D01*
X27000D01*
Y69120D01*
X26991D01*
Y69112D01*
X26982D01*
Y69103D01*
X26973D01*
Y69094D01*
X26964D01*
Y69085D01*
X26947D01*
Y69076D01*
X26938D01*
Y69067D01*
X26929D01*
Y69058D01*
X26920D01*
Y69049D01*
X26911D01*
Y69040D01*
X26902D01*
Y69032D01*
X26893D01*
Y69023D01*
X26884D01*
Y69014D01*
X26876D01*
Y69005D01*
X26858D01*
Y68996D01*
X26849D01*
Y68987D01*
X26840D01*
Y68978D01*
X26831D01*
Y68969D01*
X26822D01*
Y68960D01*
X26813D01*
Y68952D01*
X26804D01*
Y68943D01*
X26796D01*
Y68934D01*
X26787D01*
Y68925D01*
X26778D01*
Y68916D01*
X26769D01*
Y68907D01*
X26751D01*
Y68898D01*
X26742D01*
Y68889D01*
X26733D01*
Y68880D01*
X26724D01*
Y68872D01*
X26716D01*
Y68863D01*
X26707D01*
Y68854D01*
X26698D01*
Y68845D01*
X26689D01*
Y68836D01*
X26680D01*
Y68827D01*
X26671D01*
Y68818D01*
X26653D01*
Y68809D01*
X26644D01*
Y68800D01*
X26636D01*
Y68774D01*
X26627D01*
Y68756D01*
X26636D01*
Y66089D01*
X26627D01*
Y66071D01*
X26636D01*
Y66063D01*
X26653D01*
Y66054D01*
X26671D01*
Y66063D01*
X27427D01*
Y66054D01*
X27436D01*
Y66063D01*
X27462D01*
Y66054D01*
X27471D01*
Y65645D01*
X27453D01*
Y65636D01*
X27445D01*
Y65645D01*
X26244D01*
Y65636D01*
X26227D01*
Y65645D01*
X26218D01*
Y65654D01*
X26209D01*
Y72987D01*
X26227D01*
Y72996D01*
X26236D01*
Y72987D01*
D02*
G37*
G36*
X31667Y65414D02*
X31676D01*
Y65023D01*
X31667D01*
Y65014D01*
X20333D01*
Y65023D01*
X20324D01*
Y65414D01*
X20333D01*
Y65431D01*
X31667D01*
Y65414D01*
D02*
G37*
%LPC*%
G36*
X61399Y91200D02*
X60591D01*
Y89584D01*
X61399D01*
Y91200D01*
D02*
G37*
%LPD*%
D45*
X74268Y71750D02*
G03*
X74268Y71750I-4000J0D01*
G01*
X82982Y63000D02*
G03*
X82982Y63000I-4000J0D01*
G01*
X74232D02*
G03*
X74232Y63000I-4000J0D01*
G01*
X48018Y71750D02*
G03*
X48018Y71750I-4000J0D01*
G01*
X65518D02*
G03*
X65518Y71750I-4000J0D01*
G01*
X83018D02*
G03*
X83018Y71750I-4000J0D01*
G01*
X56768D02*
G03*
X56768Y71750I-4000J0D01*
G01*
X47982Y63000D02*
G03*
X47982Y63000I-4000J0D01*
G01*
X65482D02*
G03*
X65482Y63000I-4000J0D01*
G01*
X56732D02*
G03*
X56732Y63000I-4000J0D01*
G01*
X7600Y84510D02*
G03*
X7600Y84510I-100J0D01*
G01*
X13750Y25000D02*
Y41500D01*
X300Y25000D02*
X18000D01*
X38000Y41500D02*
Y57000D01*
X84250D01*
X73402Y41500D02*
X84250D01*
X66300D02*
X72478D01*
X59402D02*
X65980D01*
X51440D02*
X58478D01*
X45402D02*
X51120D01*
X31402D02*
X44478D01*
X17402D02*
X30478D01*
X13750D02*
X16478D01*
X28558Y51181D02*
X29608D01*
X14969Y51435D02*
X16019D01*
X10475Y64000D02*
X11525D01*
X8475D02*
X9525D01*
X53500Y86250D02*
X65501D01*
Y77000D02*
Y86250D01*
X53500Y77000D02*
X65501D01*
X53506D02*
Y86250D01*
X84250Y25000D02*
Y67000D01*
X98700D01*
X91750Y10778D02*
Y18178D01*
X54710Y10540D02*
X90270D01*
X54710Y5460D02*
Y10540D01*
X91750Y18178D02*
X97550D01*
Y10778D02*
Y18178D01*
X91750Y10778D02*
X97550D01*
X90270Y5460D02*
Y10540D01*
X90270Y1230D02*
Y3770D01*
X54710Y1230D02*
Y3770D01*
X54710Y5460D02*
X90270D01*
X54710Y3770D02*
X90270D01*
X54710Y1230D02*
X90270D01*
X51000Y25000D02*
X98700D01*
X51000Y300D02*
Y25000D01*
X84250Y46000D02*
X98700D01*
X18000Y300D02*
Y25000D01*
X51000D01*
D46*
X68850Y54080D02*
Y55080D01*
X14898Y15606D02*
X15898D01*
Y16606D01*
X68850Y49530D02*
Y50530D01*
Y49530D02*
X69850D01*
X68850Y55080D02*
X69850D01*
X13374Y13071D02*
X14374D01*
X15898Y19696D02*
Y20696D01*
X14898D02*
X15898D01*
X14374Y22231D02*
Y23231D01*
Y13071D02*
Y14071D01*
X9294Y13066D02*
Y14066D01*
Y13066D02*
X10294D01*
X68850Y48970D02*
X69850D01*
X68850Y47970D02*
Y48970D01*
X83150Y47970D02*
Y48970D01*
X68290Y43420D02*
Y44420D01*
X68850Y43420D02*
Y44420D01*
Y43420D02*
X69850D01*
X82150Y48970D02*
X83150D01*
X82150Y55080D02*
X83150D01*
X82150Y49530D02*
X83150D01*
Y50530D01*
X82150Y43420D02*
X83150D01*
Y44420D01*
Y54080D02*
Y55080D01*
X1770Y19696D02*
Y20696D01*
X3294Y23231D02*
X4294D01*
X3294Y22231D02*
Y23231D01*
X9294Y12231D02*
X10294D01*
X9294Y11231D02*
Y12231D01*
X1770Y20696D02*
X2770D01*
X8374Y22236D02*
Y23236D01*
X3294Y13071D02*
Y14071D01*
Y13071D02*
X4294D01*
X7374D02*
X8374D01*
X7374Y23236D02*
X8374D01*
X1770Y15606D02*
Y16606D01*
Y15606D02*
X2770D01*
X14898Y4606D02*
X15898D01*
Y5606D01*
X13374Y2071D02*
X14374D01*
X13374Y23231D02*
X14374D01*
X9294D02*
X10294D01*
X9294Y22231D02*
Y23231D01*
X14374Y2071D02*
Y3071D01*
X14898Y9696D02*
X15898D01*
X14374Y11231D02*
Y12231D01*
X13374D02*
X14374D01*
X9294Y2066D02*
Y3066D01*
Y2066D02*
X10294D01*
X15898Y8696D02*
Y9696D01*
X44935Y26186D02*
X45935D01*
X42400Y27710D02*
Y28710D01*
Y27710D02*
X43400D01*
X51565Y26186D02*
X52565D01*
Y27186D01*
X44935Y26186D02*
Y27186D01*
X54100Y27710D02*
X55100D01*
X42395Y32790D02*
X43395D01*
X42395Y31790D02*
Y32790D01*
X55100Y27710D02*
Y28710D01*
Y31790D02*
Y32790D01*
X54100D02*
X55100D01*
X39130Y49530D02*
X40130D01*
X39130Y55080D02*
X40130D01*
X39130Y54080D02*
Y55080D01*
X52430Y49530D02*
X53430D01*
Y50530D01*
X39130Y49530D02*
Y50530D01*
X53990Y43420D02*
Y44420D01*
X68290Y47970D02*
Y48970D01*
X67290D02*
X68290D01*
X67290Y43420D02*
X68290D01*
X53990D02*
X54990D01*
X53990Y48970D02*
X54990D01*
X53990Y47970D02*
Y48970D01*
X39130Y43420D02*
Y44420D01*
Y43420D02*
X40130D01*
X39130Y48970D02*
X40130D01*
X39130Y47970D02*
Y48970D01*
X53430Y43420D02*
Y44420D01*
Y54080D02*
Y55080D01*
X52430D02*
X53430D01*
Y47970D02*
Y48970D01*
X52430D02*
X53430D01*
X52430Y43420D02*
X53430D01*
X8374Y13071D02*
Y14071D01*
X41105Y33710D02*
Y34710D01*
X40105Y33710D02*
X41105D01*
X28400D02*
X29400D01*
X52565Y39314D02*
Y40314D01*
X44935Y39314D02*
Y40314D01*
X45935D01*
X28400Y33710D02*
Y34710D01*
X41100Y37790D02*
Y38790D01*
X37565Y40314D02*
X38565D01*
Y39314D02*
Y40314D01*
X28400Y37790D02*
Y38790D01*
X29400D01*
X40100D02*
X41100D01*
X58935Y40314D02*
X59935D01*
X55105Y33710D02*
Y34710D01*
X54105Y33710D02*
X55105D01*
X65565Y40314D02*
X66565D01*
Y39314D02*
Y40314D01*
X58935Y39314D02*
Y40314D01*
X42400Y33710D02*
X43400D01*
X54100Y38790D02*
X55100D01*
Y37790D02*
Y38790D01*
X51565Y40314D02*
X52565D01*
X42400Y33710D02*
Y34710D01*
Y37790D02*
Y38790D01*
X43400D01*
X54415Y84540D02*
Y85540D01*
X55415D01*
X54420Y80460D02*
X55420D01*
X63580D02*
X64580D01*
X62045Y78936D02*
Y79936D01*
X61045Y78936D02*
X62045D01*
X54420Y80460D02*
Y81460D01*
X56955Y78936D02*
X57955D01*
X56955D02*
Y79936D01*
X30935Y39314D02*
Y40314D01*
X31935D01*
X63580Y85540D02*
X64580D01*
Y84540D02*
Y85540D01*
Y80460D02*
Y81460D01*
X53990Y49530D02*
Y50530D01*
Y49530D02*
X54990D01*
X53990Y55080D02*
X54990D01*
X67290D02*
X68290D01*
X67290Y49530D02*
X68290D01*
Y50530D01*
X53990Y54080D02*
Y55080D01*
X70400Y33710D02*
Y34710D01*
Y37790D02*
Y38790D01*
X71400D01*
X83105Y33710D02*
Y34710D01*
X82105Y33710D02*
X83105D01*
X70400D02*
X71400D01*
X3294Y11231D02*
Y12231D01*
X8374Y11236D02*
Y12236D01*
X7374D02*
X8374D01*
X1770Y9696D02*
X2770D01*
X1770Y8696D02*
Y9696D01*
X3294Y12231D02*
X4294D01*
X1770Y4606D02*
Y5606D01*
X7374Y2071D02*
X8374D01*
Y3071D01*
X68290Y54080D02*
Y55080D01*
X1770Y4606D02*
X2770D01*
X3294Y2071D02*
Y3071D01*
Y2071D02*
X4294D01*
X16935Y39314D02*
Y40314D01*
X17935D01*
X69105Y33710D02*
Y34710D01*
X27100Y37790D02*
Y38790D01*
X23565Y40314D02*
X24565D01*
Y39314D02*
Y40314D01*
X68105Y33710D02*
X69105D01*
X56400Y38790D02*
X57400D01*
X68100D02*
X69100D01*
Y37790D02*
Y38790D01*
X56400Y33710D02*
X57400D01*
X56400D02*
Y34710D01*
Y37790D02*
Y38790D01*
X80565Y39314D02*
Y40314D01*
X72935Y39314D02*
Y40314D01*
X73935D01*
X82100Y38790D02*
X83100D01*
Y37790D02*
Y38790D01*
X79565Y40314D02*
X80565D01*
X27105Y33710D02*
Y34710D01*
X14400Y37790D02*
Y38790D01*
X15400D01*
X26100D02*
X27100D01*
X26105Y33710D02*
X27105D01*
X14400D02*
X15400D01*
X14400D02*
Y34710D01*
X40980Y11750D02*
X41980D01*
Y16250D01*
X40980D02*
X41980D01*
X26520Y3850D02*
X28020D01*
X18980Y22650D02*
Y24150D01*
X20480D01*
X50020Y22650D02*
Y24150D01*
Y3850D02*
Y5350D01*
X48520Y3850D02*
X50020D01*
X40980Y22650D02*
Y24150D01*
X48520D02*
X50020D01*
X40980Y3850D02*
Y5350D01*
Y3850D02*
X42480D01*
X18980Y11750D02*
X19980D01*
Y16250D01*
X18980Y3850D02*
Y5350D01*
Y3850D02*
X20480D01*
X28020D02*
Y5350D01*
X18980Y16250D02*
X19980D01*
X28020Y22650D02*
Y24150D01*
X26520D02*
X28020D01*
X40980D02*
X42480D01*
X65565Y26186D02*
X66565D01*
Y27186D01*
X58935Y26186D02*
Y27186D01*
X82100Y32790D02*
X83100D01*
X70395D02*
X71395D01*
X70395Y31790D02*
Y32790D01*
X58935Y26186D02*
X59935D01*
X69100Y27710D02*
Y28710D01*
Y31790D02*
Y32790D01*
X68100D02*
X69100D01*
X56400Y27710D02*
Y28710D01*
Y27710D02*
X57400D01*
X68100D02*
X69100D01*
X79565Y26186D02*
X80565D01*
Y27186D01*
X72935Y26186D02*
Y27186D01*
X82100Y27710D02*
X83100D01*
Y28710D01*
Y31790D02*
Y32790D01*
X72935Y26186D02*
X73935D01*
X70400Y27710D02*
Y28710D01*
Y27710D02*
X71400D01*
X16935Y26186D02*
Y27186D01*
Y26186D02*
X17935D01*
X14400Y27710D02*
Y28710D01*
X28395Y31790D02*
Y32790D01*
X23565Y26186D02*
X24565D01*
Y27186D01*
X14400Y27710D02*
X15400D01*
X26100Y32790D02*
X27100D01*
X14395D02*
X15395D01*
X14395Y31790D02*
Y32790D01*
X26100Y27710D02*
X27100D01*
Y28710D01*
Y31790D02*
Y32790D01*
X38565Y26186D02*
Y27186D01*
X30935Y26186D02*
Y27186D01*
Y26186D02*
X31935D01*
X56395Y32790D02*
X57395D01*
X56395Y31790D02*
Y32790D01*
X37565Y26186D02*
X38565D01*
X28400Y27710D02*
Y28710D01*
X41100Y31790D02*
Y32790D01*
X40100D02*
X41100D01*
X28395D02*
X29395D01*
X28400Y27710D02*
X29400D01*
X40100D02*
X41100D01*
Y28710D01*
X29980Y3850D02*
X31480D01*
X29980D02*
Y5350D01*
X37520Y24150D02*
X39020D01*
X29980Y22650D02*
Y24150D01*
X37520Y3850D02*
X39020D01*
Y5350D01*
Y22650D02*
Y24150D01*
X29980Y16250D02*
X30980D01*
Y11750D02*
Y16250D01*
X29980Y11750D02*
X30980D01*
X29980Y24150D02*
X31480D01*
X1000Y36800D02*
Y57200D01*
X9000Y36800D02*
Y57200D01*
X1000Y36800D02*
X9000D01*
X1000Y57200D02*
X9000D01*
X53250Y23475D02*
X54250D01*
X53250Y22475D02*
Y23475D01*
X70750Y22475D02*
Y23475D01*
X69750D02*
X70750D01*
X53250Y17725D02*
X54250D01*
X69750D02*
X70750D01*
Y18725D01*
X53250Y17725D02*
Y18725D01*
D47*
X65000Y91895D02*
X66000D01*
X65000D02*
Y92895D01*
X69840Y88250D02*
Y90250D01*
X95000Y91895D02*
Y92895D01*
X94000Y91895D02*
X95000D01*
X90160Y88250D02*
Y90250D01*
Y81750D02*
Y83750D01*
X69840Y81750D02*
Y83750D01*
X10166Y39753D02*
X10000Y39920D01*
X9667D01*
X9500Y39753D01*
Y39087D01*
X9667Y38920D01*
X10000D01*
X10166Y39087D01*
Y39420D01*
X9833D01*
X10500Y38920D02*
Y39920D01*
X11166Y38920D01*
Y39920D01*
X11499D02*
Y38920D01*
X11999D01*
X12166Y39087D01*
Y39753D01*
X11999Y39920D01*
X11499D01*
X10166Y44833D02*
X10000Y45000D01*
X9667D01*
X9500Y44833D01*
Y44167D01*
X9667Y44000D01*
X10000D01*
X10166Y44167D01*
Y44500D01*
X9833D01*
X10500Y44000D02*
Y45000D01*
X11166Y44000D01*
Y45000D01*
X11499D02*
Y44000D01*
X11999D01*
X12166Y44167D01*
Y44833D01*
X11999Y45000D01*
X11499D01*
X9500Y49500D02*
X10166D01*
X9833Y49833D02*
Y49167D01*
X10500Y49833D02*
X10666Y50000D01*
X11000D01*
X11166Y49833D01*
Y49667D01*
X11000Y49500D01*
X10833D01*
X11000D01*
X11166Y49333D01*
Y49167D01*
X11000Y49000D01*
X10666D01*
X10500Y49167D01*
X11499Y50000D02*
Y49333D01*
X11833Y49000D01*
X12166Y49333D01*
Y50000D01*
X12499Y49833D02*
X12666Y50000D01*
X12999D01*
X13165Y49833D01*
Y49667D01*
X12999Y49500D01*
X12832D01*
X12999D01*
X13165Y49333D01*
Y49167D01*
X12999Y49000D01*
X12666D01*
X12499Y49167D01*
X9500Y54580D02*
X10166D01*
X9833Y54913D02*
Y54247D01*
X11166Y55080D02*
X10500D01*
Y54580D01*
X10833Y54747D01*
X11000D01*
X11166Y54580D01*
Y54247D01*
X11000Y54080D01*
X10666D01*
X10500Y54247D01*
X11499Y55080D02*
Y54413D01*
X11833Y54080D01*
X12166Y54413D01*
Y55080D01*
X88723Y87750D02*
X89057D01*
X88890D01*
Y88750D01*
X88723Y88583D01*
X86960Y11250D02*
X85960D01*
X86293Y11583D01*
X85960Y11916D01*
X86960D01*
Y12249D02*
X86293D01*
X85960Y12583D01*
X86293Y12916D01*
X86960D01*
X86460D01*
Y12249D01*
X85960Y13249D02*
Y13582D01*
Y13416D01*
X86960D01*
Y13249D01*
Y13582D01*
Y14082D02*
X85960D01*
X86960Y14749D01*
X85960D01*
Y16082D02*
Y16748D01*
X86127D01*
X86793Y16082D01*
X86960D01*
X89500Y11250D02*
X88500D01*
X88833Y11583D01*
X88500Y11916D01*
X89500D01*
Y12249D02*
X88833D01*
X88500Y12583D01*
X88833Y12916D01*
X89500D01*
X89000D01*
Y12249D01*
X88500Y13249D02*
Y13582D01*
Y13416D01*
X89500D01*
Y13249D01*
Y13582D01*
Y14082D02*
X88500D01*
X89500Y14749D01*
X88500D01*
X88667Y16082D02*
X88500Y16248D01*
Y16581D01*
X88667Y16748D01*
X88833D01*
X89000Y16581D01*
X89167Y16748D01*
X89333D01*
X89500Y16581D01*
Y16248D01*
X89333Y16082D01*
X89167D01*
X89000Y16248D01*
X88833Y16082D01*
X88667D01*
X89000Y16248D02*
Y16581D01*
X81880Y11250D02*
X80880D01*
X81213Y11583D01*
X80880Y11916D01*
X81880D01*
Y12249D02*
X81213D01*
X80880Y12582D01*
X81213Y12916D01*
X81880D01*
X81380D01*
Y12249D01*
X80880Y13249D02*
Y13582D01*
Y13416D01*
X81880D01*
Y13249D01*
Y13582D01*
Y14082D02*
X80880D01*
X81880Y14748D01*
X80880D01*
Y16748D02*
Y16081D01*
X81380D01*
X81213Y16415D01*
Y16581D01*
X81380Y16748D01*
X81713D01*
X81880Y16581D01*
Y16248D01*
X81713Y16081D01*
X84420Y11250D02*
X83420D01*
X83753Y11583D01*
X83420Y11916D01*
X84420D01*
Y12249D02*
X83753D01*
X83420Y12582D01*
X83753Y12916D01*
X84420D01*
X83920D01*
Y12249D01*
X83420Y13249D02*
Y13582D01*
Y13416D01*
X84420D01*
Y13249D01*
Y13582D01*
Y14082D02*
X83420D01*
X84420Y14748D01*
X83420D01*
Y16748D02*
X83587Y16415D01*
X83920Y16081D01*
X84253D01*
X84420Y16248D01*
Y16581D01*
X84253Y16748D01*
X84087D01*
X83920Y16581D01*
Y16081D01*
X76800Y11250D02*
X75800D01*
X76133Y11583D01*
X75800Y11916D01*
X76800D01*
Y12250D02*
X76133D01*
X75800Y12583D01*
X76133Y12916D01*
X76800D01*
X76300D01*
Y12250D01*
X75800Y13249D02*
Y13583D01*
Y13416D01*
X76800D01*
Y13249D01*
Y13583D01*
Y14082D02*
X75800D01*
X76800Y14749D01*
X75800D01*
X75967Y16082D02*
X75800Y16248D01*
Y16582D01*
X75967Y16748D01*
X76133D01*
X76300Y16582D01*
Y16415D01*
Y16582D01*
X76467Y16748D01*
X76633D01*
X76800Y16582D01*
Y16248D01*
X76633Y16082D01*
X79340Y11250D02*
X78340D01*
X78673Y11583D01*
X78340Y11916D01*
X79340D01*
Y12250D02*
X78673D01*
X78340Y12583D01*
X78673Y12916D01*
X79340D01*
X78840D01*
Y12250D01*
X78340Y13249D02*
Y13583D01*
Y13416D01*
X79340D01*
Y13249D01*
Y13583D01*
Y14082D02*
X78340D01*
X79340Y14749D01*
X78340D01*
X79340Y16582D02*
X78340D01*
X78840Y16082D01*
Y16748D01*
X74260Y11250D02*
X73260D01*
X73593Y11583D01*
X73260Y11916D01*
X74260D01*
Y12250D02*
X73593D01*
X73260Y12583D01*
X73593Y12916D01*
X74260D01*
X73760D01*
Y12250D01*
X73260Y13249D02*
Y13583D01*
Y13416D01*
X74260D01*
Y13249D01*
Y13583D01*
Y14082D02*
X73260D01*
X74260Y14749D01*
X73260D01*
X74260Y16748D02*
Y16082D01*
X73593Y16748D01*
X73427D01*
X73260Y16582D01*
Y16248D01*
X73427Y16082D01*
X71720Y11250D02*
X70720D01*
X71053Y11583D01*
X70720Y11916D01*
X71720D01*
Y12250D02*
X71053D01*
X70720Y12583D01*
X71053Y12916D01*
X71720D01*
X71220D01*
Y12250D01*
X70720Y13249D02*
Y13583D01*
Y13416D01*
X71720D01*
Y13249D01*
Y13583D01*
Y14082D02*
X70720D01*
X71720Y14749D01*
X70720D01*
X71720Y16082D02*
Y16415D01*
Y16248D01*
X70720D01*
X70887Y16082D01*
X69180Y11250D02*
X68513D01*
X68180Y11583D01*
X68513Y11916D01*
X69180D01*
X68680D01*
Y11250D01*
X68180Y12249D02*
X69013D01*
X69180Y12416D01*
Y12749D01*
X69013Y12916D01*
X68180D01*
Y13249D02*
X69180Y13916D01*
X68180D02*
X69180Y13249D01*
X68180Y15915D02*
X68347Y15582D01*
X68680Y15248D01*
X69013D01*
X69180Y15415D01*
Y15748D01*
X69013Y15915D01*
X68847D01*
X68680Y15748D01*
Y15248D01*
X66640Y11250D02*
X65973D01*
X65640Y11583D01*
X65973Y11916D01*
X66640D01*
X66140D01*
Y11250D01*
X65640Y12250D02*
X66473D01*
X66640Y12416D01*
Y12750D01*
X66473Y12916D01*
X65640D01*
Y13249D02*
X66640Y13916D01*
X65640D02*
X66640Y13249D01*
X65640Y15915D02*
Y15249D01*
X66140D01*
X65973Y15582D01*
Y15749D01*
X66140Y15915D01*
X66473D01*
X66640Y15749D01*
Y15415D01*
X66473Y15249D01*
X64100Y11250D02*
X63433D01*
X63100Y11583D01*
X63433Y11916D01*
X64100D01*
X63600D01*
Y11250D01*
X63100Y12250D02*
X63933D01*
X64100Y12416D01*
Y12750D01*
X63933Y12916D01*
X63100D01*
Y13249D02*
X64100Y13916D01*
X63100D02*
X64100Y13249D01*
Y15749D02*
X63100D01*
X63600Y15249D01*
Y15915D01*
X61560Y11250D02*
X60893D01*
X60560Y11583D01*
X60893Y11916D01*
X61560D01*
X61060D01*
Y11250D01*
X60560Y12250D02*
X61393D01*
X61560Y12416D01*
Y12750D01*
X61393Y12916D01*
X60560D01*
Y13249D02*
X61560Y13916D01*
X60560D02*
X61560Y13249D01*
X60727Y15249D02*
X60560Y15415D01*
Y15749D01*
X60727Y15915D01*
X60893D01*
X61060Y15749D01*
Y15582D01*
Y15749D01*
X61227Y15915D01*
X61393D01*
X61560Y15749D01*
Y15415D01*
X61393Y15249D01*
X59020Y11250D02*
X58353D01*
X58020Y11583D01*
X58353Y11916D01*
X59020D01*
X58520D01*
Y11250D01*
X58020Y12250D02*
X58853D01*
X59020Y12416D01*
Y12750D01*
X58853Y12916D01*
X58020D01*
Y13249D02*
X59020Y13916D01*
X58020D02*
X59020Y13249D01*
Y15915D02*
Y15249D01*
X58353Y15915D01*
X58187D01*
X58020Y15749D01*
Y15415D01*
X58187Y15249D01*
X56480Y11250D02*
X55813D01*
X55480Y11583D01*
X55813Y11916D01*
X56480D01*
X55980D01*
Y11250D01*
X55480Y12250D02*
X56313D01*
X56480Y12416D01*
Y12750D01*
X56313Y12916D01*
X55480D01*
Y13249D02*
X56480Y13916D01*
X55480D02*
X56480Y13249D01*
Y15249D02*
Y15582D01*
Y15415D01*
X55480D01*
X55647Y15249D01*
X9333Y61634D02*
X9500Y61800D01*
Y62133D01*
X9333Y62300D01*
X8667D01*
X8500Y62133D01*
Y61800D01*
X8667Y61634D01*
X9333Y61300D02*
X9500Y61134D01*
Y60800D01*
X9333Y60634D01*
X9167D01*
X9000Y60800D01*
Y60967D01*
Y60800D01*
X8833Y60634D01*
X8667D01*
X8500Y60800D01*
Y61134D01*
X8667Y61300D01*
X8500Y59634D02*
Y60301D01*
X9167Y59634D01*
X9333D01*
X9500Y59801D01*
Y60134D01*
X9333Y60301D01*
X43518Y67083D02*
X43351Y67250D01*
X43018D01*
X42852Y67083D01*
Y66417D01*
X43018Y66250D01*
X43351D01*
X43518Y66417D01*
X43851Y67083D02*
X44018Y67250D01*
X44351D01*
X44518Y67083D01*
Y66917D01*
X44351Y66750D01*
X44184D01*
X44351D01*
X44518Y66584D01*
Y66417D01*
X44351Y66250D01*
X44018D01*
X43851Y66417D01*
X44851Y66250D02*
X45184D01*
X45018D01*
Y67250D01*
X44851Y67083D01*
X52101D02*
X51935Y67250D01*
X51602D01*
X51435Y67083D01*
Y66417D01*
X51602Y66250D01*
X51935D01*
X52101Y66417D01*
X52435Y67083D02*
X52601Y67250D01*
X52934D01*
X53101Y67083D01*
Y66917D01*
X52934Y66750D01*
X52768D01*
X52934D01*
X53101Y66584D01*
Y66417D01*
X52934Y66250D01*
X52601D01*
X52435Y66417D01*
X53434Y67083D02*
X53601Y67250D01*
X53934D01*
X54101Y67083D01*
Y66417D01*
X53934Y66250D01*
X53601D01*
X53434Y66417D01*
Y67083D01*
X74667Y56330D02*
Y55330D01*
Y55830D01*
X75334D01*
Y56330D01*
Y55330D01*
X76333D02*
X75667D01*
X76333Y55996D01*
Y56163D01*
X76167Y56330D01*
X75833D01*
X75667Y56163D01*
X77333Y56330D02*
X77000Y56163D01*
X76666Y55830D01*
Y55497D01*
X76833Y55330D01*
X77166D01*
X77333Y55497D01*
Y55663D01*
X77166Y55830D01*
X76666D01*
X74667Y43170D02*
Y42170D01*
Y42670D01*
X75334D01*
Y43170D01*
Y42170D01*
X76333D02*
X75667D01*
X76333Y42837D01*
Y43003D01*
X76167Y43170D01*
X75833D01*
X75667Y43003D01*
X77333Y43170D02*
X76666D01*
Y42670D01*
X77000Y42837D01*
X77166D01*
X77333Y42670D01*
Y42337D01*
X77166Y42170D01*
X76833D01*
X76666Y42337D01*
X59807Y43170D02*
Y42170D01*
Y42670D01*
X60474D01*
Y43170D01*
Y42170D01*
X61473D02*
X60807D01*
X61473Y42837D01*
Y43003D01*
X61307Y43170D01*
X60973D01*
X60807Y43003D01*
X61806D02*
X61973Y43170D01*
X62306D01*
X62473Y43003D01*
Y42837D01*
X62306Y42670D01*
X62140D01*
X62306D01*
X62473Y42504D01*
Y42337D01*
X62306Y42170D01*
X61973D01*
X61806Y42337D01*
X59807Y56330D02*
Y55330D01*
Y55830D01*
X60474D01*
Y56330D01*
Y55330D01*
X61473D02*
X60807D01*
X61473Y55996D01*
Y56163D01*
X61307Y56330D01*
X60973D01*
X60807Y56163D01*
X62306Y55330D02*
Y56330D01*
X61806Y55830D01*
X62473D01*
X44947Y56330D02*
Y55330D01*
Y55830D01*
X45614D01*
Y56330D01*
Y55330D01*
X46613D02*
X45947D01*
X46613Y55996D01*
Y56163D01*
X46447Y56330D01*
X46113D01*
X45947Y56163D01*
X47613Y55330D02*
X46946D01*
X47613Y55996D01*
Y56163D01*
X47446Y56330D01*
X47113D01*
X46946Y56163D01*
X45114Y43170D02*
Y42170D01*
Y42670D01*
X45780D01*
Y43170D01*
Y42170D01*
X46780D02*
X46113D01*
X46780Y42837D01*
Y43003D01*
X46613Y43170D01*
X46280D01*
X46113Y43003D01*
X47113Y42170D02*
X47446D01*
X47280D01*
Y43170D01*
X47113Y43003D01*
X43316Y68333D02*
X43149Y68500D01*
X42816D01*
X42649Y68333D01*
Y67667D01*
X42816Y67500D01*
X43149D01*
X43316Y67667D01*
X44315Y67500D02*
X43649D01*
X44315Y68166D01*
Y68333D01*
X44149Y68500D01*
X43816D01*
X43649Y68333D01*
X44649D02*
X44815Y68500D01*
X45148D01*
X45315Y68333D01*
Y68166D01*
X45148Y68000D01*
X44982D01*
X45148D01*
X45315Y67833D01*
Y67667D01*
X45148Y67500D01*
X44815D01*
X44649Y67667D01*
X52066Y68333D02*
X51899Y68500D01*
X51566D01*
X51399Y68333D01*
Y67667D01*
X51566Y67500D01*
X51899D01*
X52066Y67667D01*
X53065Y67500D02*
X52399D01*
X53065Y68166D01*
Y68333D01*
X52899Y68500D01*
X52566D01*
X52399Y68333D01*
X54065Y67500D02*
X53399D01*
X54065Y68166D01*
Y68333D01*
X53898Y68500D01*
X53565D01*
X53399Y68333D01*
X29416Y48815D02*
X29583Y48981D01*
Y49314D01*
X29416Y49481D01*
X28750D01*
X28583Y49314D01*
Y48981D01*
X28750Y48815D01*
X28583Y47815D02*
Y48481D01*
X29250Y47815D01*
X29416D01*
X29583Y47981D01*
Y48315D01*
X29416Y48481D01*
X28583Y47482D02*
Y47148D01*
Y47315D01*
X29583D01*
X29416Y47482D01*
X71250Y18750D02*
X71916Y17750D01*
Y18750D02*
X71250Y17750D01*
X72916Y18750D02*
X72583Y18583D01*
X72250Y18250D01*
Y17917D01*
X72416Y17750D01*
X72750D01*
X72916Y17917D01*
Y18083D01*
X72750Y18250D01*
X72250D01*
X15954Y49062D02*
X16121Y49228D01*
Y49561D01*
X15954Y49728D01*
X15288D01*
X15121Y49561D01*
Y49228D01*
X15288Y49062D01*
X16121Y48728D02*
Y48062D01*
X15954D01*
X15288Y48728D01*
X15121D01*
X25250Y40250D02*
Y39250D01*
Y39750D01*
X25916D01*
Y40250D01*
Y39250D01*
X26916D02*
X26250D01*
X26916Y39916D01*
Y40083D01*
X26750Y40250D01*
X26416D01*
X26250Y40083D01*
X27249D02*
X27416Y40250D01*
X27749D01*
X27916Y40083D01*
Y39417D01*
X27749Y39250D01*
X27416D01*
X27249Y39417D01*
Y40083D01*
X9090Y69240D02*
X9756Y68240D01*
Y69240D02*
X9090Y68240D01*
X10090Y69073D02*
X10256Y69240D01*
X10590D01*
X10756Y69073D01*
Y68906D01*
X10590Y68740D01*
X10756Y68573D01*
Y68407D01*
X10590Y68240D01*
X10256D01*
X10090Y68407D01*
Y68573D01*
X10256Y68740D01*
X10090Y68906D01*
Y69073D01*
X10256Y68740D02*
X10590D01*
X51501Y8374D02*
Y7374D01*
Y7874D01*
X52167D01*
Y8374D01*
Y7374D01*
X52500D02*
X52834D01*
X52667D01*
Y8374D01*
X52500Y8207D01*
X53334Y7541D02*
X53500Y7374D01*
X53833D01*
X54000Y7541D01*
Y8207D01*
X53833Y8374D01*
X53500D01*
X53334Y8207D01*
Y8041D01*
X53500Y7874D01*
X54000D01*
X9250Y36550D02*
X9916Y35550D01*
Y36550D02*
X9250Y35550D01*
X10250Y35717D02*
X10416Y35550D01*
X10750D01*
X10916Y35717D01*
Y36383D01*
X10750Y36550D01*
X10416D01*
X10250Y36383D01*
Y36217D01*
X10416Y36050D01*
X10916D01*
X58250Y78440D02*
Y77440D01*
Y77940D01*
X58917D01*
Y78440D01*
Y77440D01*
X59250D02*
X59583D01*
X59417D01*
Y78440D01*
X59250Y78273D01*
X60083D02*
X60250Y78440D01*
X60583D01*
X60750Y78273D01*
Y78107D01*
X60583Y77940D01*
X60750Y77774D01*
Y77607D01*
X60583Y77440D01*
X60250D01*
X60083Y77607D01*
Y77774D01*
X60250Y77940D01*
X60083Y78107D01*
Y78273D01*
X60250Y77940D02*
X60583D01*
X93817Y10250D02*
X94483Y9250D01*
Y10250D02*
X93817Y9250D01*
X94817Y10250D02*
X95483D01*
Y10083D01*
X94817Y9417D01*
Y9250D01*
X25250Y27000D02*
Y26000D01*
Y26500D01*
X25916D01*
Y27000D01*
Y26000D01*
X26250D02*
X26583D01*
X26416D01*
Y27000D01*
X26250Y26833D01*
X27083Y27000D02*
X27749D01*
Y26833D01*
X27083Y26167D01*
Y26000D01*
X38815Y40250D02*
Y39250D01*
Y39750D01*
X39481D01*
Y40250D01*
Y39250D01*
X39815D02*
X40148D01*
X39981D01*
Y40250D01*
X39815Y40083D01*
X41314Y40250D02*
X40981Y40083D01*
X40648Y39750D01*
Y39417D01*
X40814Y39250D01*
X41148D01*
X41314Y39417D01*
Y39583D01*
X41148Y39750D01*
X40648D01*
X67250Y27000D02*
Y26000D01*
Y26500D01*
X67916D01*
Y27000D01*
Y26000D01*
X68250D02*
X68583D01*
X68416D01*
Y27000D01*
X68250Y26833D01*
X69083Y26000D02*
X69416D01*
X69249D01*
Y27000D01*
X69083Y26833D01*
X69685Y67083D02*
X69518Y67250D01*
X69185D01*
X69018Y67083D01*
Y66417D01*
X69185Y66250D01*
X69518D01*
X69685Y66417D01*
X70018Y66250D02*
X70351D01*
X70185D01*
Y67250D01*
X70018Y67083D01*
X70851D02*
X71018Y67250D01*
X71351D01*
X71517Y67083D01*
Y66417D01*
X71351Y66250D01*
X71018D01*
X70851Y66417D01*
Y67083D01*
X85894Y28960D02*
X86560Y27960D01*
Y28960D02*
X85894Y27960D01*
X87560Y28960D02*
X86894D01*
Y28460D01*
X87227Y28627D01*
X87393D01*
X87560Y28460D01*
Y28127D01*
X87393Y27960D01*
X87060D01*
X86894Y28127D01*
X85894Y64040D02*
X86560Y63040D01*
Y64040D02*
X85894Y63040D01*
X87393D02*
Y64040D01*
X86894Y63540D01*
X87560D01*
X85894Y48960D02*
X86560Y47960D01*
Y48960D02*
X85894Y47960D01*
X86894Y48793D02*
X87060Y48960D01*
X87393D01*
X87560Y48793D01*
Y48627D01*
X87393Y48460D01*
X87227D01*
X87393D01*
X87560Y48293D01*
Y48127D01*
X87393Y47960D01*
X87060D01*
X86894Y48127D01*
X85894Y44040D02*
X86560Y43040D01*
Y44040D02*
X85894Y43040D01*
X87560D02*
X86894D01*
X87560Y43707D01*
Y43873D01*
X87393Y44040D01*
X87060D01*
X86894Y43873D01*
X47848Y92194D02*
X48514Y91194D01*
Y92194D02*
X47848Y91194D01*
X48847D02*
X49180D01*
X49014D01*
Y92194D01*
X48847Y92027D01*
X77418Y94000D02*
Y95000D01*
X77917D01*
X78084Y94833D01*
Y94500D01*
X77917Y94333D01*
X77418D01*
X77751D02*
X78084Y94000D01*
X78584Y94667D02*
X78917D01*
X79084Y94500D01*
Y94000D01*
X78584D01*
X78417Y94167D01*
X78584Y94333D01*
X79084D01*
X80083Y95000D02*
Y94000D01*
X79583D01*
X79417Y94167D01*
Y94500D01*
X79583Y94667D01*
X80083D01*
X80417Y94000D02*
X80750D01*
X80583D01*
Y94667D01*
X80417D01*
X81416Y94000D02*
X81749D01*
X81916Y94167D01*
Y94500D01*
X81749Y94667D01*
X81416D01*
X81250Y94500D01*
Y94167D01*
X81416Y94000D01*
X82249D02*
X82582D01*
X82416D01*
Y95000D01*
X82249Y94833D01*
X4241Y24736D02*
Y23736D01*
Y24236D01*
X4907D01*
Y24736D01*
Y23736D01*
X5907Y24736D02*
X5241D01*
Y24236D01*
X5574Y24402D01*
X5740D01*
X5907Y24236D01*
Y23903D01*
X5740Y23736D01*
X5407D01*
X5241Y23903D01*
X39250Y27000D02*
Y26000D01*
Y26500D01*
X39916D01*
Y27000D01*
Y26000D01*
X40250D02*
X40583D01*
X40416D01*
Y27000D01*
X40250Y26833D01*
X41749Y27000D02*
X41083D01*
Y26500D01*
X41416Y26667D01*
X41583D01*
X41749Y26500D01*
Y26167D01*
X41583Y26000D01*
X41249D01*
X41083Y26167D01*
X53250Y40250D02*
Y39250D01*
Y39750D01*
X53916D01*
Y40250D01*
Y39250D01*
X54250D02*
X54583D01*
X54416D01*
Y40250D01*
X54250Y40083D01*
X55583Y39250D02*
Y40250D01*
X55083Y39750D01*
X55749D01*
X53250Y27000D02*
Y26000D01*
Y26500D01*
X53916D01*
Y27000D01*
Y26000D01*
X54250D02*
X54583D01*
X54416D01*
Y27000D01*
X54250Y26833D01*
X55083D02*
X55249Y27000D01*
X55583D01*
X55749Y26833D01*
Y26667D01*
X55583Y26500D01*
X55416D01*
X55583D01*
X55749Y26334D01*
Y26167D01*
X55583Y26000D01*
X55249D01*
X55083Y26167D01*
X67250Y40250D02*
Y39250D01*
Y39750D01*
X67916D01*
Y40250D01*
Y39250D01*
X68250D02*
X68583D01*
X68416D01*
Y40250D01*
X68250Y40083D01*
X69749Y39250D02*
X69083D01*
X69749Y39916D01*
Y40083D01*
X69583Y40250D01*
X69249D01*
X69083Y40083D01*
X81250Y40250D02*
Y39250D01*
Y39750D01*
X81916D01*
Y40250D01*
Y39250D01*
X82250D02*
X82583D01*
X82416D01*
Y40250D01*
X82250Y40083D01*
X83083D02*
X83249Y40250D01*
X83583D01*
X83749Y40083D01*
Y39417D01*
X83583Y39250D01*
X83249D01*
X83083Y39417D01*
Y40083D01*
X81250Y27000D02*
Y26000D01*
Y26500D01*
X81916D01*
Y27000D01*
Y26000D01*
X82250Y26167D02*
X82416Y26000D01*
X82750D01*
X82916Y26167D01*
Y26833D01*
X82750Y27000D01*
X82416D01*
X82250Y26833D01*
Y26667D01*
X82416Y26500D01*
X82916D01*
X48484Y3270D02*
Y2270D01*
Y2770D01*
X49150D01*
Y3270D01*
Y2270D01*
X49484Y3103D02*
X49650Y3270D01*
X49983D01*
X50150Y3103D01*
Y2937D01*
X49983Y2770D01*
X50150Y2603D01*
Y2437D01*
X49983Y2270D01*
X49650D01*
X49484Y2437D01*
Y2603D01*
X49650Y2770D01*
X49484Y2937D01*
Y3103D01*
X49650Y2770D02*
X49983D01*
X18850Y3270D02*
Y2270D01*
Y2770D01*
X19516D01*
Y3270D01*
Y2270D01*
X20516Y3270D02*
X20183Y3103D01*
X19850Y2770D01*
Y2437D01*
X20016Y2270D01*
X20350D01*
X20516Y2437D01*
Y2604D01*
X20350Y2770D01*
X19850D01*
X4241Y1566D02*
Y566D01*
Y1066D01*
X4907D01*
Y1566D01*
Y566D01*
X5740D02*
Y1566D01*
X5241Y1066D01*
X5907D01*
X11761Y1566D02*
Y566D01*
Y1066D01*
X12427D01*
Y1566D01*
Y566D01*
X12761Y1399D02*
X12927Y1566D01*
X13260D01*
X13427Y1399D01*
Y1233D01*
X13260Y1066D01*
X13094D01*
X13260D01*
X13427Y900D01*
Y733D01*
X13260Y566D01*
X12927D01*
X12761Y733D01*
X11761Y24736D02*
Y23736D01*
Y24236D01*
X12427D01*
Y24736D01*
Y23736D01*
X13427D02*
X12761D01*
X13427Y24402D01*
Y24569D01*
X13260Y24736D01*
X12927D01*
X12761Y24569D01*
X52667Y3040D02*
Y2040D01*
Y2540D01*
X53334D01*
Y3040D01*
Y2040D01*
X53667D02*
X54000D01*
X53833D01*
Y3040D01*
X53667Y2873D01*
X61351Y67083D02*
X61185Y67250D01*
X60851D01*
X60685Y67083D01*
Y66417D01*
X60851Y66250D01*
X61185D01*
X61351Y66417D01*
X61684D02*
X61851Y66250D01*
X62184D01*
X62351Y66417D01*
Y67083D01*
X62184Y67250D01*
X61851D01*
X61684Y67083D01*
Y66917D01*
X61851Y66750D01*
X62351D01*
X78851Y67083D02*
X78685Y67250D01*
X78351D01*
X78185Y67083D01*
Y66417D01*
X78351Y66250D01*
X78685D01*
X78851Y66417D01*
X79184Y67083D02*
X79351Y67250D01*
X79684D01*
X79851Y67083D01*
Y66917D01*
X79684Y66750D01*
X79851Y66584D01*
Y66417D01*
X79684Y66250D01*
X79351D01*
X79184Y66417D01*
Y66584D01*
X79351Y66750D01*
X79184Y66917D01*
Y67083D01*
X79351Y66750D02*
X79684D01*
X11333Y61634D02*
X11500Y61800D01*
Y62133D01*
X11333Y62300D01*
X10667D01*
X10500Y62133D01*
Y61800D01*
X10667Y61634D01*
X11500Y60634D02*
X11333Y60967D01*
X11000Y61300D01*
X10667D01*
X10500Y61134D01*
Y60800D01*
X10667Y60634D01*
X10833D01*
X11000Y60800D01*
Y61300D01*
X78816Y68333D02*
X78649Y68500D01*
X78316D01*
X78149Y68333D01*
Y67667D01*
X78316Y67500D01*
X78649D01*
X78816Y67667D01*
X79815Y68500D02*
X79149D01*
Y68000D01*
X79482Y68166D01*
X79649D01*
X79815Y68000D01*
Y67667D01*
X79649Y67500D01*
X79315D01*
X79149Y67667D01*
X70066Y68333D02*
X69899Y68500D01*
X69566D01*
X69399Y68333D01*
Y67667D01*
X69566Y67500D01*
X69899D01*
X70066Y67667D01*
X70899Y67500D02*
Y68500D01*
X70399Y68000D01*
X71065D01*
X61316Y68333D02*
X61149Y68500D01*
X60816D01*
X60649Y68333D01*
Y67667D01*
X60816Y67500D01*
X61149D01*
X61316Y67667D01*
X61649Y68333D02*
X61815Y68500D01*
X62149D01*
X62315Y68333D01*
Y68166D01*
X62149Y68000D01*
X61982D01*
X62149D01*
X62315Y67833D01*
Y67667D01*
X62149Y67500D01*
X61815D01*
X61649Y67667D01*
D48*
X28500Y61377D02*
Y62500D01*
Y58500D02*
Y60123D01*
X23500Y62500D02*
X28500D01*
X23500Y58500D02*
X28500D01*
X23500D02*
Y62500D01*
X24334Y61500D02*
Y60167D01*
X25000Y59500D01*
X25667Y60167D01*
Y61500D01*
X26333Y61166D02*
X26666Y61500D01*
X27333D01*
X27666Y61166D01*
Y59834D01*
X27333Y59500D01*
X26666D01*
X26333Y59834D01*
Y61166D01*
D49*
X1730Y87560D02*
Y95620D01*
X52530Y87560D02*
Y96060D01*
X96000Y39500D02*
Y42500D01*
X89000Y39500D02*
Y42500D01*
X96000Y59500D02*
Y62500D01*
X89000Y49500D02*
Y52500D01*
X96000Y49500D02*
Y52500D01*
X89000Y29500D02*
Y32500D01*
X96000Y29500D02*
Y32500D01*
X89000Y59500D02*
Y62500D01*
D50*
X8590Y68750D02*
Y83250D01*
X6818Y68750D02*
X8590D01*
X6818Y83250D02*
X8590D01*
X264D02*
X2762D01*
X264Y68750D02*
X2762D01*
D51*
X13504Y84148D02*
X14504D01*
X14004D01*
Y81149D01*
X13504D01*
X14504D01*
X16003D02*
Y83148D01*
X17503D01*
X18003Y82648D01*
Y81149D01*
X19502Y83648D02*
Y83148D01*
X19002D01*
X20002D01*
X19502D01*
Y81649D01*
X20002Y81149D01*
X23001D02*
X22001D01*
X21501Y81649D01*
Y82648D01*
X22001Y83148D01*
X23001D01*
X23501Y82648D01*
Y82149D01*
X21501D01*
X24500Y83148D02*
Y81149D01*
Y82149D01*
X25000Y82648D01*
X25500Y83148D01*
X26000D01*
X27999Y81149D02*
Y83648D01*
Y82648D01*
X27499D01*
X28499D01*
X27999D01*
Y83648D01*
X28499Y84148D01*
X30498Y83148D02*
X31498D01*
X31998Y82648D01*
Y81149D01*
X30498D01*
X29999Y81649D01*
X30498Y82149D01*
X31998D01*
X34997Y83148D02*
X33497D01*
X32998Y82648D01*
Y81649D01*
X33497Y81149D01*
X34997D01*
X37496D02*
X36497D01*
X35997Y81649D01*
Y82648D01*
X36497Y83148D01*
X37496D01*
X37996Y82648D01*
Y82149D01*
X35997D01*
X18752Y78749D02*
Y75750D01*
X20252D01*
X20752Y76250D01*
Y76750D01*
X20252Y77250D01*
X18752D01*
X20252D01*
X20752Y77749D01*
Y78249D01*
X20252Y78749D01*
X18752D01*
X22251Y75750D02*
X23251D01*
X23751Y76250D01*
Y77250D01*
X23251Y77749D01*
X22251D01*
X21751Y77250D01*
Y76250D01*
X22251Y75750D01*
X25250Y77749D02*
X26250D01*
X26750Y77250D01*
Y75750D01*
X25250D01*
X24750Y76250D01*
X25250Y76750D01*
X26750D01*
X27749Y77749D02*
Y75750D01*
Y76750D01*
X28249Y77250D01*
X28749Y77749D01*
X29249D01*
X32748Y78749D02*
Y75750D01*
X31248D01*
X30748Y76250D01*
Y77250D01*
X31248Y77749D01*
X32748D01*
D52*
X47602Y78900D02*
Y77650D01*
X47852Y77400D01*
X48352D01*
X48602Y77650D01*
Y78900D01*
X49102Y77400D02*
Y78400D01*
X49602Y78900D01*
X50101Y78400D01*
Y77400D01*
Y78150D01*
X49102D01*
X50601Y77400D02*
Y78900D01*
X51351D01*
X51601Y78650D01*
Y78150D01*
X51351Y77900D01*
X50601D01*
X51101D02*
X51601Y77400D01*
X52101Y78900D02*
X53100D01*
X52601D01*
Y77400D01*
X10783Y70250D02*
X9283D01*
Y71000D01*
X9533Y71250D01*
X10033D01*
X10283Y71000D01*
Y70250D01*
X10783Y71750D02*
Y72249D01*
Y71999D01*
X9783D01*
Y71750D01*
X10783Y74499D02*
X9283D01*
Y75248D01*
X9533Y75498D01*
X10033D01*
X10283Y75248D01*
Y74499D01*
X9283Y75998D02*
X10783D01*
X10283Y76498D01*
X10783Y76998D01*
X9283D01*
X10783Y77498D02*
X9283D01*
Y78247D01*
X9533Y78497D01*
X10033D01*
X10283Y78247D01*
Y77498D01*
Y77997D02*
X10783Y78497D01*
X35850Y47251D02*
Y48250D01*
Y47750D01*
X37350D01*
Y49000D02*
Y49500D01*
X37100Y49750D01*
X36600D01*
X36350Y49500D01*
Y49000D01*
X36600Y48750D01*
X37100D01*
X37350Y49000D01*
X35850Y51249D02*
Y50250D01*
X36600D01*
Y50750D01*
Y50250D01*
X37350D01*
X25253Y1150D02*
Y2650D01*
X25753Y2150D01*
X26253Y2650D01*
Y1150D01*
X27002D02*
X27502D01*
X27752Y1400D01*
Y1900D01*
X27502Y2150D01*
X27002D01*
X26753Y1900D01*
Y1400D01*
X27002Y1150D01*
X28502Y2400D02*
Y2150D01*
X28252D01*
X28752D01*
X28502D01*
Y1400D01*
X28752Y1150D01*
X29752D02*
X30251D01*
X30501Y1400D01*
Y1900D01*
X30251Y2150D01*
X29752D01*
X29502Y1900D01*
Y1400D01*
X29752Y1150D01*
X31001Y2150D02*
Y1150D01*
Y1650D01*
X31251Y1900D01*
X31501Y2150D01*
X31751D01*
X34000Y2650D02*
Y1150D01*
X34750D01*
X35000Y1400D01*
Y2400D01*
X34750Y2650D01*
X34000D01*
X35500Y2150D02*
Y1150D01*
Y1650D01*
X35750Y1900D01*
X36000Y2150D01*
X36249D01*
X36999Y1150D02*
X37499D01*
X37249D01*
Y2150D01*
X36999D01*
X38249D02*
X38749Y1150D01*
X39248Y2150D01*
X40498Y1150D02*
X39998D01*
X39748Y1400D01*
Y1900D01*
X39998Y2150D01*
X40498D01*
X40748Y1900D01*
Y1650D01*
X39748D01*
X41248Y2150D02*
Y1150D01*
Y1650D01*
X41498Y1900D01*
X41748Y2150D01*
X41998D01*
X42747Y1150D02*
X43497D01*
X43747Y1400D01*
X43497Y1650D01*
X42997D01*
X42747Y1900D01*
X42997Y2150D01*
X43747D01*
X3001Y57900D02*
Y59400D01*
X3750D01*
X4000Y59150D01*
Y58650D01*
X3750Y58400D01*
X3001D01*
X4500Y59400D02*
Y57900D01*
X5000Y58400D01*
X5500Y57900D01*
Y59400D01*
X6000Y57900D02*
Y59400D01*
X6749D01*
X6999Y59150D01*
Y58650D01*
X6749Y58400D01*
X6000D01*
X6500D02*
X6999Y57900D01*
X14650Y43650D02*
X15150D01*
X14900D01*
Y42150D01*
X14650D01*
X15150D01*
X16899D02*
X15900D01*
X16899Y43150D01*
Y43400D01*
X16649Y43650D01*
X16150D01*
X15900Y43400D01*
X18399D02*
X18149Y43650D01*
X17649D01*
X17399Y43400D01*
Y42400D01*
X17649Y42150D01*
X18149D01*
X18399Y42400D01*
X21398Y43400D02*
X21148Y43650D01*
X20648D01*
X20398Y43400D01*
Y42400D01*
X20648Y42150D01*
X21148D01*
X21398Y42400D01*
X22148Y42150D02*
X22647D01*
X22897Y42400D01*
Y42900D01*
X22647Y43150D01*
X22148D01*
X21898Y42900D01*
Y42400D01*
X22148Y42150D01*
X23397D02*
Y43150D01*
X24147D01*
X24397Y42900D01*
Y42150D01*
X24897D02*
Y43150D01*
X25646D01*
X25896Y42900D01*
Y42150D01*
X27146D02*
X26646D01*
X26396Y42400D01*
Y42900D01*
X26646Y43150D01*
X27146D01*
X27396Y42900D01*
Y42650D01*
X26396D01*
X28895Y43150D02*
X28146D01*
X27896Y42900D01*
Y42400D01*
X28146Y42150D01*
X28895D01*
X29645Y43400D02*
Y43150D01*
X29395D01*
X29895D01*
X29645D01*
Y42400D01*
X29895Y42150D01*
X30645D02*
X31145D01*
X30895D01*
Y43150D01*
X30645D01*
X32144Y42150D02*
X32644D01*
X32894Y42400D01*
Y42900D01*
X32644Y43150D01*
X32144D01*
X31894Y42900D01*
Y42400D01*
X32144Y42150D01*
X33394D02*
Y43150D01*
X34144D01*
X34394Y42900D01*
Y42150D01*
X34893D02*
X35643D01*
X35893Y42400D01*
X35643Y42650D01*
X35143D01*
X34893Y42900D01*
X35143Y43150D01*
X35893D01*
X3400Y26900D02*
X3150Y27150D01*
X2650D01*
X2400Y26900D01*
Y26650D01*
X2650Y26400D01*
X3150D01*
X3400Y26150D01*
Y25900D01*
X3150Y25650D01*
X2650D01*
X2400Y25900D01*
X4649Y25650D02*
X4149D01*
X3900Y25900D01*
Y26400D01*
X4149Y26650D01*
X4649D01*
X4899Y26400D01*
Y26150D01*
X3900D01*
X5399Y26650D02*
Y25650D01*
Y26150D01*
X5649Y26400D01*
X5899Y26650D01*
X6149D01*
X6899D02*
X7398Y25650D01*
X7898Y26650D01*
X8648Y25650D02*
X9148D01*
X9398Y25900D01*
Y26400D01*
X9148Y26650D01*
X8648D01*
X8398Y26400D01*
Y25900D01*
X8648Y25650D01*
X9898D02*
X10647D01*
X10897Y25900D01*
X10647Y26150D01*
X10147D01*
X9898Y26400D01*
X10147Y26650D01*
X10897D01*
X85600Y31002D02*
X87100D01*
Y31751D01*
X86850Y32001D01*
X86600D01*
X86350Y31751D01*
Y31002D01*
Y31751D01*
X86100Y32001D01*
X85850D01*
X85600Y31751D01*
Y31002D01*
X87100Y32501D02*
X86100D01*
X85600Y33001D01*
X86100Y33501D01*
X87100D01*
X86350D01*
Y32501D01*
X85600Y34001D02*
Y35000D01*
Y34500D01*
X87100D01*
X85600Y35500D02*
Y36500D01*
Y36000D01*
X87100D01*
X85600Y37999D02*
Y37000D01*
X87100D01*
Y37999D01*
X86350Y37000D02*
Y37500D01*
X87100Y38499D02*
X85600D01*
Y39249D01*
X85850Y39499D01*
X86350D01*
X86600Y39249D01*
Y38499D01*
Y38999D02*
X87100Y39499D01*
X85600Y39999D02*
X85850D01*
X86350Y40499D01*
X85850Y40998D01*
X85600D01*
X86350Y40499D02*
X87100D01*
X97500Y60500D02*
Y61500D01*
Y50500D02*
Y51500D01*
X97000Y51000D02*
X98000D01*
X97500Y30500D02*
Y31500D01*
Y40500D02*
Y41500D01*
X97000Y41000D02*
X98000D01*
X87100Y51751D02*
X85600D01*
X86100Y52251D01*
X85600Y52751D01*
X87100D01*
X85600Y54001D02*
Y53501D01*
X85850Y53251D01*
X86850D01*
X87100Y53501D01*
Y54001D01*
X86850Y54251D01*
X85850D01*
X85600Y54001D01*
Y54750D02*
Y55750D01*
Y55250D01*
X87100D01*
X85600Y57000D02*
Y56500D01*
X85850Y56250D01*
X86850D01*
X87100Y56500D01*
Y57000D01*
X86850Y57250D01*
X85850D01*
X85600Y57000D01*
X87100Y57749D02*
X85600D01*
Y58499D01*
X85850Y58749D01*
X86350D01*
X86600Y58499D01*
Y57749D01*
Y58249D02*
X87100Y58749D01*
X85850Y60249D02*
X85600Y59999D01*
Y59499D01*
X85850Y59249D01*
X86100D01*
X86350Y59499D01*
Y59999D01*
X86600Y60249D01*
X86850D01*
X87100Y59999D01*
Y59499D01*
X86850Y59249D01*
X83406Y23621D02*
X83156Y23871D01*
X82656D01*
X82406Y23621D01*
Y22621D01*
X82656Y22371D01*
X83156D01*
X83406Y22621D01*
X83906Y23371D02*
Y22621D01*
X84156Y22371D01*
X84905D01*
Y23371D01*
X85405Y23871D02*
Y22371D01*
X86155D01*
X86405Y22621D01*
Y22871D01*
Y23121D01*
X86155Y23371D01*
X85405D01*
X87654Y22371D02*
X87155D01*
X86905Y22621D01*
Y23121D01*
X87155Y23371D01*
X87654D01*
X87904Y23121D01*
Y22871D01*
X86905D01*
X89904Y22371D02*
Y23871D01*
X90654D01*
X90903Y23621D01*
Y23121D01*
X90654Y22871D01*
X89904D01*
X91403Y22371D02*
X91903D01*
X91653D01*
Y23371D01*
X91403D01*
X92653Y22371D02*
X93153D01*
X92903D01*
Y23871D01*
X92653D01*
X94152Y22371D02*
X94652D01*
X94902Y22621D01*
Y23121D01*
X94652Y23371D01*
X94152D01*
X93902Y23121D01*
Y22621D01*
X94152Y22371D01*
X95652Y23621D02*
Y23371D01*
X95402D01*
X95902D01*
X95652D01*
Y22621D01*
X95902Y22371D01*
D53*
X63278Y73933D02*
Y73067D01*
X63711Y73500D02*
X62845D01*
X80778Y73933D02*
Y73067D01*
X81211Y73500D02*
X80345D01*
X54528Y73933D02*
Y73067D01*
X54961Y73500D02*
X54095D01*
X45778Y73933D02*
Y73067D01*
X46211Y73500D02*
X45345D01*
X72028Y73933D02*
Y73067D01*
X72461Y73500D02*
X71595D01*
X77222Y60817D02*
Y61683D01*
X76789Y61250D02*
X77655D01*
X68472Y60817D02*
Y61683D01*
X68039Y61250D02*
X68905D01*
X42222Y60817D02*
Y61683D01*
X41789Y61250D02*
X42655D01*
X59722Y60817D02*
Y61683D01*
X59289Y61250D02*
X60155D01*
X50972Y60817D02*
Y61683D01*
X50539Y61250D02*
X51405D01*
X91801Y19950D02*
X92801D01*
X92301Y20450D02*
Y19450D01*
X93300Y20450D02*
X93550Y20700D01*
X94050D01*
X94300Y20450D01*
Y20200D01*
X94050Y19950D01*
X93800D01*
X94050D01*
X94300Y19700D01*
Y19450D01*
X94050Y19200D01*
X93550D01*
X93300Y19450D01*
X94800Y20700D02*
Y19700D01*
X95300Y19200D01*
X95800Y19700D01*
Y20700D01*
X96299Y20450D02*
X96549Y20700D01*
X97049D01*
X97299Y20450D01*
Y20200D01*
X97049Y19950D01*
X96799D01*
X97049D01*
X97299Y19700D01*
Y19450D01*
X97049Y19200D01*
X96549D01*
X96299Y19450D01*
X71300Y23450D02*
X72300D01*
X71800D01*
Y21950D01*
X73799Y23450D02*
X72800D01*
Y21950D01*
X73799D01*
X72800Y22700D02*
X73299D01*
X74299Y23450D02*
Y21950D01*
X75299D01*
X76798Y23450D02*
X75799D01*
Y21950D01*
X76798D01*
X75799Y22700D02*
X76298D01*
X77298Y21950D02*
Y23450D01*
X77798Y22950D01*
X78298Y23450D01*
Y21950D01*
X78798D02*
X79297D01*
X79047D01*
Y23450D01*
X78798Y23200D01*
D54*
X1458Y56212D02*
Y56462D01*
X2208D01*
Y56212D01*
Y55337D02*
Y55837D01*
X1833D01*
Y55587D01*
Y55837D01*
X1458D01*
X1958Y55087D02*
X1458D01*
X1708D01*
X1833Y54962D01*
X1958Y54838D01*
Y54713D01*
X1458Y54213D02*
Y53963D01*
X1583Y53838D01*
X1833D01*
X1958Y53963D01*
Y54213D01*
X1833Y54338D01*
X1583D01*
X1458Y54213D01*
Y53588D02*
X1958D01*
Y53213D01*
X1833Y53088D01*
X1458D01*
X2083Y52713D02*
X1958D01*
Y52838D01*
Y52588D01*
Y52713D01*
X1583D01*
X1458Y52588D01*
Y52213D02*
Y51963D01*
X2208D01*
Y52213D01*
X7681Y56087D02*
X8431D01*
X8056Y56462D01*
Y55962D01*
Y55712D02*
Y55212D01*
X7681Y54962D02*
X8431D01*
Y54588D01*
X8306Y54463D01*
X8056D01*
X7931Y54588D01*
Y54962D01*
X7681Y54213D02*
Y53963D01*
Y54088D01*
X8181D01*
Y54213D01*
X7681Y53588D02*
X8181D01*
Y53213D01*
X8056Y53088D01*
X7681D01*
X8306Y51589D02*
X8431Y51714D01*
Y51963D01*
X8306Y52088D01*
X8181D01*
X8056Y51963D01*
Y51714D01*
X7931Y51589D01*
X7806D01*
X7681Y51714D01*
Y51963D01*
X7806Y52088D01*
X8181Y50839D02*
Y51214D01*
X8056Y51339D01*
X7806D01*
X7681Y51214D01*
Y50839D01*
X8181Y50589D02*
X7681D01*
X7931D01*
X8056Y50464D01*
X8181Y50339D01*
Y50214D01*
X7681Y49464D02*
Y49714D01*
X7806Y49839D01*
X8056D01*
X8181Y49714D01*
Y49464D01*
X8056Y49339D01*
X7931D01*
Y49839D01*
X8181Y49089D02*
X7806D01*
X7681Y48964D01*
X7806Y48839D01*
X7681Y48714D01*
X7806Y48590D01*
X8181D01*
X8431Y47590D02*
Y47090D01*
Y47340D01*
X7681D01*
Y46465D02*
Y46715D01*
X7806Y46840D01*
X8056D01*
X8181Y46715D01*
Y46465D01*
X8056Y46340D01*
X7931D01*
Y46840D01*
X8181Y46090D02*
X7681D01*
X7931D01*
X8056Y45965D01*
X8181Y45840D01*
Y45715D01*
X7681Y45341D02*
X8181D01*
Y45216D01*
X8056Y45091D01*
X7681D01*
X8056D01*
X8181Y44966D01*
X8056Y44841D01*
X7681D01*
%TF.MD5,a9c11343d455c40153741d2c0cc35c25*%
M02*
