%TF.GenerationSoftware,Altium Limited,Altium Designer,25.2.1 (25)*%
G04 Layer_Color=65280*
%FSLAX43Y43*%
%MOMM*%
%TF.SameCoordinates,15E4D4AB-41CD-4887-95FF-7FA6A238CDF5*%
%TF.FilePolarity,Positive*%
%TF.FileFunction,Other,Planning*%
%TF.Part,Single*%
G01*
G75*
%TA.AperFunction,NonConductor*%
%ADD52C,0.100*%
D52*
X69500Y81250D02*
X90500D01*
X69500Y90750D02*
X90500D01*
Y81250D02*
Y90750D01*
X69500Y81250D02*
Y90750D01*
X14750Y52000D02*
X35500D01*
X83500Y42000D02*
X85000D01*
Y36000D02*
Y42000D01*
X83500D02*
Y58750D01*
X88000Y56000D02*
Y76000D01*
Y56000D02*
X88011Y56011D01*
X88000Y56000D02*
X96500D01*
Y36000D02*
Y56000D01*
X85000Y36000D02*
X96500D01*
X27000Y56000D02*
X35500D01*
X14750D02*
X22000D01*
X57500Y58750D02*
Y65750D01*
X27000Y56000D02*
Y65750D01*
X57500D01*
X22000Y69000D02*
X57500D01*
X22000Y56000D02*
Y69000D01*
X55000Y58000D02*
Y63500D01*
X20500Y58000D02*
Y72000D01*
X14000Y26000D02*
X83500D01*
X14000Y40500D02*
X83500D01*
X14000Y26000D02*
Y40500D01*
X83500Y26000D02*
Y40500D01*
X50400Y17850D02*
Y24500D01*
X1500D02*
X50400D01*
X20500Y72000D02*
X55000D01*
X33250Y58000D02*
Y63500D01*
X31750Y58000D02*
Y63500D01*
X55000Y72000D02*
Y76000D01*
X16250D02*
X55000D01*
X57500Y69000D02*
Y76000D01*
Y58750D02*
X83500D01*
X57500Y76000D02*
X88000D01*
X39130Y55080D02*
X82000D01*
X39130Y43420D02*
Y55080D01*
Y43420D02*
X82000D01*
Y55080D01*
X29250Y58000D02*
Y63500D01*
X55000D01*
X29250Y58000D02*
X55000D01*
X16250D02*
X20500D01*
X16250D02*
Y76000D01*
X35500Y52000D02*
Y56000D01*
X14750Y52000D02*
Y56000D01*
X16000Y17850D02*
X50400D01*
X16000Y2000D02*
Y17850D01*
X1500Y2000D02*
Y24500D01*
Y2000D02*
X16000D01*
X39000Y41000D02*
X39000Y41000D01*
%TF.MD5,2df05331a1cb9b1ea19dad32a2d46339*%
M02*
