M48
;Layer_Color=9474304
;FILE_FORMAT=4:3
METRIC,LZ
;TYPE=PLATED
T01F00S00C0.300
T02F00S00C0.850
T03F00S00C0.900
T04F00S00C1.000
T05F00S00C1.150
T06F00S00C1.200
T07F00S00C1.300
T08F00S00C1.600
T09F00S00C2.380
T10F00S00C3.200
T11F00S00C3.500
%
T01
X005894Y004125
X006614Y0041
X007294Y004125
X005128Y0041
X004494Y004125
X003094
X0031Y0044
Y00475
Y0051
X0029Y00537
X00348Y005375
X003452Y00475
X002748
X002152
X0018
X0016
X0018Y0044
X001694Y004125
X0018Y0051
X002Y00537
X001547Y005375
X00105Y00595
X0011Y006625
X0009
X00195Y0062794
Y0061794
Y0060794
Y0059794
Y0058794
X0018Y00573
X001673
X002973
X0031
X003354
X00325Y005875
Y005975
Y006075
Y006175
Y006275
X003354Y006425
X002825Y006075
X0080391Y0077597
T02
X0043982Y006125
Y006475
X0044018Y007
Y00735
X0052768
Y007
X0052732Y006475
Y006125
X0061482
Y006475
X0061518Y007
Y00735
X0070268
Y007
X0070232Y006475
Y006125
X0078982
Y006475
X0079018Y007
Y00735
T03
X005598Y00025
X005852Y00025
X006106Y00025
X00636
X006614
X006868Y00025
X007122Y00025
X007376
X00763
X007884Y00025
X008138Y00025
X008392Y00025
X008646
X0089
X0089Y000673
X008646
X008392
Y000927
X008646
X0089
X008138Y000927
Y000673
X007884Y000673
Y000927
X00763Y000927
Y000673
X007376
X007122
Y000927
X007376
X006868Y000927
Y000673
X006614Y000673
Y000927
X00636Y000927
Y000673
X006106Y000673
X005852
X005598
Y000927
X005852
X006106
X006014Y0046
X005814
X005614
X006214
X006414
X006614
X0071
X0073
X0075
X0077
X0079
X0081
Y00525
X0079
X0077
X0075
X0073
X0071
X006614
X006414
X006214
X006014
X005814
X005614
X005128
X004928
X004728
X004528
X004328
X004128
Y0046
X004328
X004528
X004728
X004928
X005128
X001316Y0088
X001062
X000808
X000554
X0003
X00157
X001824
X002078
X002332
X002586
X00284
X003094
X003348
X003602
X003856
X00411
X004364
X004618
X004872
X005126
X007111Y008981
X007365
X007619
X007873
X008127
X008381
X008635
X008889
Y008219
X008635
X008381
X008127
X007873
X007619
X007365
X007111
X005126Y009562
X004872
X004618
X004364
X00411
X003856
X003602
X003348
X003094
X00284
X002586
X002332
X002078
X001824
X00157
X001316
X001062
X000808
X000554
X0003
T04
X002213Y000892
X002467
Y001146
X002213
Y0014
X002467
X003313
X003567
Y001146
X003313
Y000892
X003567
X004413
X004667
Y001146
X004413
Y0014
X004667
Y001654
X004413
Y001908
X004667
X003567
X003313
Y001654
X003567
X002467
X002213
Y001908
X002467
X00075Y00725
Y0075
Y0077
Y00795
T05
X0005834Y0004611
Y0007151
Y0009691
X0011834
Y0007151
Y0004611
X005894Y003025
X006148
X006402
X006656
Y003625
X006402
X006148
X005894
X007294
X007548
X007802
X008056
Y003025
X007802
X007548
X007294
X005256
X005002
X004748
X004494
Y003625
X004748
X005002
X005256
X003856
X003602
X003348
X003094
Y003025
X003348
X003602
X003856
X002456
X002202
X001948
X001694
Y003625
X001948
X002202
X002456
X0011834Y0020691
Y0018151
Y0015611
X0005834
Y0018151
Y0020691
X005696Y0083
X00595
X006204
T06
X009525Y0013208
Y0015748
X006835Y002
X006581
X006327
X006073
X005819
X005565
T07
X00045Y003942
Y00445
Y00495
Y005458
T08
X009504Y002846
Y003354
Y003846
Y004354
Y004846
Y005354
X00925
X008996
Y004846
X00925
Y004354
X008996
Y003846
X00925
Y003354
X008996
Y002846
X00925
Y005846
X008996
Y006354
X00925
X009504
Y005846
T09
X000479Y006943
Y008257
T10
X00675Y0094395
X00925
X008Y0131795
T11
X00945Y00045
X00045Y0032
Y0064
X0094996Y0082169
M30
