%TF.GenerationSoftware,Altium Limited,Altium Designer,25.2.1 (25)*%
G04 Layer_Color=6809061*
%FSLAX43Y43*%
%MOMM*%
%TF.SameCoordinates,2635E17B-F086-4753-8714-BA37E3CCEC02*%
%TF.FilePolarity,Positive*%
%TF.FileFunction,Legend,Bot*%
%TF.Part,Single*%
G01*
G75*
%TA.AperFunction,NonConductor*%
%ADD45C,0.254*%
%ADD49C,0.300*%
%ADD51C,0.500*%
%ADD52C,0.250*%
%ADD53C,0.700*%
G36*
X32073Y68411D02*
X32161D01*
Y68404D01*
X32209D01*
Y68398D01*
X32256D01*
Y68391D01*
X32290D01*
Y68384D01*
X32331D01*
Y68377D01*
X32344D01*
Y68370D01*
X32378D01*
Y68364D01*
X32405D01*
Y68357D01*
X32426D01*
Y68350D01*
X32453D01*
Y68343D01*
X32466D01*
Y68337D01*
X32487D01*
Y68330D01*
X32507D01*
Y68323D01*
X32521D01*
Y68316D01*
X32541D01*
Y68309D01*
X32554D01*
Y68303D01*
X32582D01*
Y68296D01*
X32588D01*
Y68289D01*
X32609D01*
Y68282D01*
X32616D01*
Y68276D01*
X32629D01*
Y68269D01*
X32649D01*
Y68262D01*
X32656D01*
Y68255D01*
X32677D01*
Y68248D01*
X32690D01*
Y68242D01*
X32704D01*
Y68235D01*
X32710D01*
Y68228D01*
X32724D01*
Y68221D01*
X32738D01*
Y68214D01*
X32744D01*
Y68208D01*
X32758D01*
Y68201D01*
X32772D01*
Y68194D01*
X32778D01*
Y68187D01*
X32792D01*
Y68181D01*
X32799D01*
Y68174D01*
X32812D01*
Y68167D01*
X32819D01*
Y68160D01*
X32833D01*
Y68153D01*
X32839D01*
Y68147D01*
X32846D01*
Y68140D01*
X32860D01*
Y68133D01*
X32866D01*
Y68126D01*
X32880D01*
Y68120D01*
X32887D01*
Y68113D01*
X32894D01*
Y68106D01*
X32907D01*
Y68099D01*
X32914D01*
Y68092D01*
X32921D01*
Y68086D01*
X32928D01*
Y68079D01*
X32934D01*
Y68072D01*
X32948D01*
Y68058D01*
X32961D01*
Y68052D01*
X32968D01*
Y68045D01*
X32975D01*
Y68038D01*
X32982D01*
Y68031D01*
X32989D01*
Y68025D01*
X32995D01*
Y68018D01*
X33002D01*
Y68011D01*
X33016D01*
Y67997D01*
X33029D01*
Y67984D01*
X33036D01*
Y67977D01*
X33043D01*
Y67970D01*
X33050D01*
Y67964D01*
X33056D01*
Y67957D01*
X33063D01*
Y67950D01*
X33070D01*
Y67943D01*
X33077D01*
Y67936D01*
X33083D01*
Y67930D01*
X33090D01*
Y67923D01*
X33097D01*
Y67909D01*
X33104D01*
Y67902D01*
X33111D01*
Y67896D01*
X33117D01*
Y67889D01*
X33124D01*
Y67882D01*
X33131D01*
Y67869D01*
X33138D01*
Y67862D01*
X33145D01*
Y67855D01*
X33151D01*
Y67848D01*
X33158D01*
Y67835D01*
X33165D01*
Y67828D01*
X33172D01*
Y67814D01*
X33178D01*
Y67808D01*
X33185D01*
Y67801D01*
X33192D01*
Y67787D01*
X33199D01*
Y67780D01*
X33206D01*
Y67767D01*
X33212D01*
Y67760D01*
X33219D01*
Y67753D01*
X33226D01*
Y67733D01*
X33233D01*
Y67726D01*
X33239D01*
Y67713D01*
X33246D01*
Y67706D01*
X33253D01*
Y67692D01*
X33260D01*
Y67679D01*
X33267D01*
Y67672D01*
X33273D01*
Y67658D01*
X33280D01*
Y67645D01*
X33287D01*
Y67631D01*
X33294D01*
Y67611D01*
X33301D01*
Y67604D01*
X33307D01*
Y67584D01*
X33314D01*
Y67577D01*
X33321D01*
Y67557D01*
X33328D01*
Y67543D01*
X33334D01*
Y67529D01*
X33341D01*
Y67509D01*
X33348D01*
Y67496D01*
X33355D01*
Y67468D01*
X33362D01*
Y67455D01*
X33368D01*
Y67434D01*
X33375D01*
Y67414D01*
X33382D01*
Y67401D01*
X33389D01*
Y67367D01*
X33395D01*
Y67346D01*
X33402D01*
Y67312D01*
X33409D01*
Y67292D01*
X33416D01*
Y67265D01*
X33423D01*
Y67217D01*
X33429D01*
Y67184D01*
X33436D01*
Y67122D01*
X33443D01*
Y67034D01*
X33450D01*
Y61466D01*
X33443D01*
Y61378D01*
X33436D01*
Y61317D01*
X33429D01*
Y61283D01*
X33423D01*
Y61235D01*
X33416D01*
Y61208D01*
X33409D01*
Y61188D01*
X33402D01*
Y61154D01*
X33395D01*
Y61134D01*
X33389D01*
Y61100D01*
X33382D01*
Y61086D01*
X33375D01*
Y61066D01*
X33368D01*
Y61045D01*
X33362D01*
Y61032D01*
X33355D01*
Y61005D01*
X33348D01*
Y60991D01*
X33341D01*
Y60971D01*
X33334D01*
Y60957D01*
X33328D01*
Y60944D01*
X33321D01*
Y60923D01*
X33314D01*
Y60917D01*
X33307D01*
Y60896D01*
X33301D01*
Y60889D01*
X33294D01*
Y60869D01*
X33287D01*
Y60856D01*
X33280D01*
Y60842D01*
X33273D01*
Y60828D01*
X33267D01*
Y60822D01*
X33260D01*
Y60808D01*
X33253D01*
Y60794D01*
X33246D01*
Y60788D01*
X33239D01*
Y60774D01*
X33233D01*
Y60767D01*
X33226D01*
Y60747D01*
X33219D01*
Y60740D01*
X33212D01*
Y60733D01*
X33206D01*
Y60720D01*
X33199D01*
Y60713D01*
X33192D01*
Y60700D01*
X33185D01*
Y60693D01*
X33178D01*
Y60686D01*
X33172D01*
Y60672D01*
X33165D01*
Y60666D01*
X33158D01*
Y60652D01*
X33151D01*
Y60645D01*
X33145D01*
Y60639D01*
X33138D01*
Y60632D01*
X33131D01*
Y60618D01*
X33124D01*
Y60611D01*
X33117D01*
Y60605D01*
X33111D01*
Y60598D01*
X33104D01*
Y60591D01*
X33097D01*
Y60577D01*
X33090D01*
Y60571D01*
X33083D01*
Y60564D01*
X33077D01*
Y60557D01*
X33070D01*
Y60550D01*
X33063D01*
Y60544D01*
X33056D01*
Y60537D01*
X33050D01*
Y60530D01*
X33043D01*
Y60523D01*
X33036D01*
Y60516D01*
X33029D01*
Y60503D01*
X33016D01*
Y60489D01*
X33002D01*
Y60483D01*
X32995D01*
Y60476D01*
X32989D01*
Y60469D01*
X32982D01*
Y60462D01*
X32975D01*
Y60455D01*
X32968D01*
Y60449D01*
X32961D01*
Y60442D01*
X32948D01*
Y60428D01*
X32934D01*
Y60421D01*
X32928D01*
Y60415D01*
X32921D01*
Y60408D01*
X32914D01*
Y60401D01*
X32907D01*
Y60394D01*
X32894D01*
Y60388D01*
X32887D01*
Y60381D01*
X32880D01*
Y60374D01*
X32866D01*
Y60367D01*
X32860D01*
Y60360D01*
X32846D01*
Y60354D01*
X32839D01*
Y60347D01*
X32833D01*
Y60340D01*
X32819D01*
Y60333D01*
X32812D01*
Y60327D01*
X32799D01*
Y60320D01*
X32792D01*
Y60313D01*
X32778D01*
Y60306D01*
X32772D01*
Y60299D01*
X32758D01*
Y60293D01*
X32744D01*
Y60286D01*
X32738D01*
Y60279D01*
X32724D01*
Y60272D01*
X32710D01*
Y60265D01*
X32704D01*
Y60259D01*
X32690D01*
Y60252D01*
X32677D01*
Y60245D01*
X32656D01*
Y60238D01*
X32649D01*
Y60232D01*
X32629D01*
Y60225D01*
X32616D01*
Y60218D01*
X32609D01*
Y60211D01*
X32588D01*
Y60204D01*
X32582D01*
Y60198D01*
X32554D01*
Y60191D01*
X32541D01*
Y60184D01*
X32521D01*
Y60177D01*
X32507D01*
Y60171D01*
X32487D01*
Y60164D01*
X32466D01*
Y60157D01*
X32453D01*
Y60150D01*
X32426D01*
Y60143D01*
X32405D01*
Y60137D01*
X32378D01*
Y60130D01*
X32344D01*
Y60123D01*
X32331D01*
Y60116D01*
X32290D01*
Y60109D01*
X32256D01*
Y60103D01*
X32209D01*
Y60096D01*
X32161D01*
Y60089D01*
X32073D01*
Y60082D01*
X23927D01*
Y60089D01*
X23839D01*
Y60096D01*
X23792D01*
Y60103D01*
X23744D01*
Y60109D01*
X23710D01*
Y60116D01*
X23670D01*
Y60123D01*
X23656D01*
Y60130D01*
X23622D01*
Y60137D01*
X23595D01*
Y60143D01*
X23575D01*
Y60150D01*
X23547D01*
Y60157D01*
X23534D01*
Y60164D01*
X23514D01*
Y60171D01*
X23493D01*
Y60177D01*
X23480D01*
Y60184D01*
X23459D01*
Y60191D01*
X23446D01*
Y60198D01*
X23419D01*
Y60204D01*
X23412D01*
Y60211D01*
X23391D01*
Y60218D01*
X23385D01*
Y60225D01*
X23371D01*
Y60232D01*
X23351D01*
Y60238D01*
X23344D01*
Y60245D01*
X23324D01*
Y60252D01*
X23310D01*
Y60259D01*
X23296D01*
Y60265D01*
X23290D01*
Y60272D01*
X23276D01*
Y60279D01*
X23263D01*
Y60286D01*
X23256D01*
Y60293D01*
X23242D01*
Y60299D01*
X23229D01*
Y60306D01*
X23222D01*
Y60313D01*
X23208D01*
Y60320D01*
X23202D01*
Y60327D01*
X23188D01*
Y60333D01*
X23181D01*
Y60340D01*
X23168D01*
Y60347D01*
X23161D01*
Y60354D01*
X23154D01*
Y60360D01*
X23140D01*
Y60367D01*
X23134D01*
Y60374D01*
X23120D01*
Y60381D01*
X23113D01*
Y60388D01*
X23107D01*
Y60394D01*
X23093D01*
Y60401D01*
X23086D01*
Y60408D01*
X23079D01*
Y60415D01*
X23073D01*
Y60421D01*
X23066D01*
Y60428D01*
X23052D01*
Y60442D01*
X23039D01*
Y60449D01*
X23032D01*
Y60455D01*
X23025D01*
Y60462D01*
X23018D01*
Y60469D01*
X23012D01*
Y60476D01*
X23005D01*
Y60483D01*
X22998D01*
Y60489D01*
X22984D01*
Y60503D01*
X22971D01*
Y60516D01*
X22964D01*
Y60523D01*
X22957D01*
Y60530D01*
X22951D01*
Y60537D01*
X22944D01*
Y60544D01*
X22937D01*
Y60550D01*
X22930D01*
Y60557D01*
X22923D01*
Y60564D01*
X22917D01*
Y60571D01*
X22910D01*
Y60577D01*
X22903D01*
Y60591D01*
X22896D01*
Y60598D01*
X22890D01*
Y60605D01*
X22883D01*
Y60611D01*
X22876D01*
Y60618D01*
X22869D01*
Y60632D01*
X22862D01*
Y60639D01*
X22856D01*
Y60645D01*
X22849D01*
Y60652D01*
X22842D01*
Y60666D01*
X22835D01*
Y60672D01*
X22828D01*
Y60686D01*
X22822D01*
Y60693D01*
X22815D01*
Y60700D01*
X22808D01*
Y60713D01*
X22801D01*
Y60720D01*
X22795D01*
Y60733D01*
X22788D01*
Y60740D01*
X22781D01*
Y60747D01*
X22774D01*
Y60767D01*
X22767D01*
Y60774D01*
X22761D01*
Y60788D01*
X22754D01*
Y60794D01*
X22747D01*
Y60808D01*
X22740D01*
Y60822D01*
X22734D01*
Y60828D01*
X22727D01*
Y60842D01*
X22720D01*
Y60856D01*
X22713D01*
Y60869D01*
X22706D01*
Y60889D01*
X22700D01*
Y60896D01*
X22693D01*
Y60917D01*
X22686D01*
Y60923D01*
X22679D01*
Y60944D01*
X22672D01*
Y60957D01*
X22666D01*
Y60971D01*
X22659D01*
Y60991D01*
X22652D01*
Y61005D01*
X22645D01*
Y61032D01*
X22639D01*
Y61045D01*
X22632D01*
Y61066D01*
X22625D01*
Y61086D01*
X22618D01*
Y61100D01*
X22611D01*
Y61134D01*
X22605D01*
Y61154D01*
X22598D01*
Y61188D01*
X22591D01*
Y61208D01*
X22584D01*
Y61235D01*
X22578D01*
Y61283D01*
X22571D01*
Y61317D01*
X22564D01*
Y61378D01*
X22557D01*
Y61466D01*
X22550D01*
Y67034D01*
X22557D01*
Y67122D01*
X22564D01*
Y67184D01*
X22571D01*
Y67217D01*
X22578D01*
Y67265D01*
X22584D01*
Y67292D01*
X22591D01*
Y67312D01*
X22598D01*
Y67346D01*
X22605D01*
Y67367D01*
X22611D01*
Y67401D01*
X22618D01*
Y67414D01*
X22625D01*
Y67434D01*
X22632D01*
Y67455D01*
X22639D01*
Y67468D01*
X22645D01*
Y67496D01*
X22652D01*
Y67509D01*
X22659D01*
Y67529D01*
X22666D01*
Y67543D01*
X22672D01*
Y67557D01*
X22679D01*
Y67577D01*
X22686D01*
Y67584D01*
X22693D01*
Y67604D01*
X22700D01*
Y67611D01*
X22706D01*
Y67631D01*
X22713D01*
Y67645D01*
X22720D01*
Y67658D01*
X22727D01*
Y67672D01*
X22734D01*
Y67679D01*
X22740D01*
Y67692D01*
X22747D01*
Y67706D01*
X22754D01*
Y67713D01*
X22761D01*
Y67726D01*
X22767D01*
Y67733D01*
X22774D01*
Y67753D01*
X22781D01*
Y67760D01*
X22788D01*
Y67767D01*
X22795D01*
Y67780D01*
X22801D01*
Y67787D01*
X22808D01*
Y67801D01*
X22815D01*
Y67808D01*
X22822D01*
Y67814D01*
X22828D01*
Y67828D01*
X22835D01*
Y67835D01*
X22842D01*
Y67848D01*
X22849D01*
Y67855D01*
X22856D01*
Y67862D01*
X22862D01*
Y67869D01*
X22869D01*
Y67882D01*
X22876D01*
Y67889D01*
X22883D01*
Y67896D01*
X22890D01*
Y67902D01*
X22896D01*
Y67909D01*
X22903D01*
Y67923D01*
X22910D01*
Y67930D01*
X22917D01*
Y67936D01*
X22923D01*
Y67943D01*
X22930D01*
Y67950D01*
X22937D01*
Y67957D01*
X22944D01*
Y67964D01*
X22951D01*
Y67970D01*
X22957D01*
Y67977D01*
X22964D01*
Y67984D01*
X22971D01*
Y67997D01*
X22984D01*
Y68011D01*
X22998D01*
Y68018D01*
X23005D01*
Y68025D01*
X23012D01*
Y68031D01*
X23018D01*
Y68038D01*
X23025D01*
Y68045D01*
X23032D01*
Y68052D01*
X23039D01*
Y68058D01*
X23052D01*
Y68072D01*
X23066D01*
Y68079D01*
X23073D01*
Y68086D01*
X23079D01*
Y68092D01*
X23086D01*
Y68099D01*
X23093D01*
Y68106D01*
X23107D01*
Y68113D01*
X23113D01*
Y68120D01*
X23120D01*
Y68126D01*
X23134D01*
Y68133D01*
X23140D01*
Y68140D01*
X23154D01*
Y68147D01*
X23161D01*
Y68153D01*
X23168D01*
Y68160D01*
X23181D01*
Y68167D01*
X23188D01*
Y68174D01*
X23202D01*
Y68181D01*
X23208D01*
Y68187D01*
X23222D01*
Y68194D01*
X23229D01*
Y68201D01*
X23242D01*
Y68208D01*
X23256D01*
Y68214D01*
X23263D01*
Y68221D01*
X23276D01*
Y68228D01*
X23290D01*
Y68235D01*
X23296D01*
Y68242D01*
X23310D01*
Y68248D01*
X23324D01*
Y68255D01*
X23344D01*
Y68262D01*
X23351D01*
Y68269D01*
X23371D01*
Y68276D01*
X23385D01*
Y68282D01*
X23391D01*
Y68289D01*
X23412D01*
Y68296D01*
X23419D01*
Y68303D01*
X23446D01*
Y68309D01*
X23459D01*
Y68316D01*
X23480D01*
Y68323D01*
X23493D01*
Y68330D01*
X23514D01*
Y68337D01*
X23534D01*
Y68343D01*
X23547D01*
Y68350D01*
X23575D01*
Y68357D01*
X23595D01*
Y68364D01*
X23622D01*
Y68370D01*
X23656D01*
Y68377D01*
X23670D01*
Y68384D01*
X23710D01*
Y68391D01*
X23744D01*
Y68398D01*
X23792D01*
Y68404D01*
X23839D01*
Y68411D01*
X23927D01*
Y68418D01*
X32073D01*
Y68411D01*
D02*
G37*
G36*
X67670Y59852D02*
X69807D01*
Y58785D01*
X69805D01*
Y58784D01*
X68738D01*
Y57716D01*
X69805D01*
Y57714D01*
X69807D01*
Y56648D01*
X70875D01*
Y54511D01*
X69807D01*
Y55579D01*
X68740D01*
Y55581D01*
X68738D01*
Y56648D01*
X67670D01*
Y55581D01*
X67669D01*
Y55579D01*
X66602D01*
Y56648D01*
X63397D01*
Y55579D01*
X64464D01*
Y55578D01*
X64466D01*
Y54511D01*
X63397D01*
Y55579D01*
X62331D01*
Y55581D01*
X62329D01*
Y56648D01*
X61261D01*
Y55581D01*
X61260D01*
Y55579D01*
X60193D01*
Y54511D01*
X59125D01*
Y56648D01*
X60193D01*
Y57714D01*
X60194D01*
Y57716D01*
X61261D01*
Y58784D01*
X60194D01*
Y58785D01*
X60193D01*
Y59852D01*
X59125D01*
Y60620D01*
Y60621D01*
Y60920D01*
X60192D01*
Y60919D01*
X60193D01*
Y59852D01*
X62329D01*
Y57716D01*
X63397D01*
Y59852D01*
X62329D01*
Y61989D01*
X63397D01*
Y60920D01*
X66602D01*
Y61989D01*
X67670D01*
Y59852D01*
D02*
G37*
G36*
X70875D02*
X69807D01*
Y60180D01*
Y60181D01*
Y60919D01*
X69808D01*
Y60920D01*
X70875D01*
Y59852D01*
D02*
G37*
G36*
X66602Y55496D02*
Y55494D01*
Y54511D01*
X65534D01*
Y55578D01*
X65535D01*
Y55579D01*
X66602D01*
Y55496D01*
D02*
G37*
%LPC*%
G36*
X32086Y67774D02*
X23914D01*
Y67767D01*
X23853D01*
Y67760D01*
X23819D01*
Y67753D01*
X23798D01*
Y67746D01*
X23764D01*
Y67740D01*
X23751D01*
Y67733D01*
X23724D01*
Y67726D01*
X23710D01*
Y67719D01*
X23690D01*
Y67713D01*
X23676D01*
Y67706D01*
X23663D01*
Y67699D01*
X23642D01*
Y67692D01*
X23636D01*
Y67685D01*
X23622D01*
Y67679D01*
X23608D01*
Y67672D01*
X23595D01*
Y67665D01*
X23581D01*
Y67658D01*
X23575D01*
Y67652D01*
X23561D01*
Y67645D01*
X23547D01*
Y67638D01*
X23541D01*
Y67631D01*
X23534D01*
Y67624D01*
X23520D01*
Y67618D01*
X23514D01*
Y67611D01*
X23507D01*
Y67604D01*
X23493D01*
Y67597D01*
X23486D01*
Y67590D01*
X23480D01*
Y67584D01*
X23473D01*
Y67577D01*
X23466D01*
Y67570D01*
X23452D01*
Y67563D01*
X23446D01*
Y67557D01*
X23439D01*
Y67550D01*
X23432D01*
Y67543D01*
X23425D01*
Y67536D01*
X23419D01*
Y67529D01*
X23412D01*
Y67523D01*
X23405D01*
Y67516D01*
X23398D01*
Y67502D01*
X23391D01*
Y67496D01*
X23385D01*
Y67489D01*
X23378D01*
Y67482D01*
X23371D01*
Y67475D01*
X23364D01*
Y67468D01*
X23358D01*
Y67455D01*
X23351D01*
Y67448D01*
X23344D01*
Y67434D01*
X23337D01*
Y67428D01*
X23330D01*
Y67421D01*
X23324D01*
Y67407D01*
X23317D01*
Y67394D01*
X23310D01*
Y67387D01*
X23303D01*
Y67373D01*
X23296D01*
Y67360D01*
X23290D01*
Y67353D01*
X23283D01*
Y67340D01*
X23276D01*
Y67319D01*
X23269D01*
Y67312D01*
X23263D01*
Y67292D01*
X23256D01*
Y67285D01*
X23249D01*
Y67258D01*
X23242D01*
Y67245D01*
X23235D01*
Y67224D01*
X23229D01*
Y67197D01*
X23222D01*
Y67177D01*
X23215D01*
Y67143D01*
X23208D01*
Y67116D01*
X23202D01*
Y67068D01*
X23195D01*
Y61432D01*
X23202D01*
Y61385D01*
X23208D01*
Y61357D01*
X23215D01*
Y61324D01*
X23222D01*
Y61303D01*
X23229D01*
Y61276D01*
X23235D01*
Y61256D01*
X23242D01*
Y61242D01*
X23249D01*
Y61215D01*
X23256D01*
Y61208D01*
X23263D01*
Y61188D01*
X23269D01*
Y61181D01*
X23276D01*
Y61161D01*
X23283D01*
Y61147D01*
X23290D01*
Y61140D01*
X23296D01*
Y61127D01*
X23303D01*
Y61113D01*
X23310D01*
Y61106D01*
X23317D01*
Y61093D01*
X23324D01*
Y61079D01*
X23330D01*
Y61073D01*
X23337D01*
Y61066D01*
X23344D01*
Y61052D01*
X23351D01*
Y61045D01*
X23358D01*
Y61032D01*
X23364D01*
Y61025D01*
X23371D01*
Y61018D01*
X23378D01*
Y61012D01*
X23385D01*
Y61005D01*
X23391D01*
Y60991D01*
X23398D01*
Y60984D01*
X23405D01*
Y60978D01*
X23412D01*
Y60971D01*
X23419D01*
Y60964D01*
X23425D01*
Y60957D01*
X23432D01*
Y60951D01*
X23439D01*
Y60944D01*
X23446D01*
Y60937D01*
X23452D01*
Y60930D01*
X23466D01*
Y60923D01*
X23473D01*
Y60917D01*
X23480D01*
Y60910D01*
X23486D01*
Y60903D01*
X23493D01*
Y60896D01*
X23507D01*
Y60889D01*
X23514D01*
Y60883D01*
X23520D01*
Y60876D01*
X23534D01*
Y60869D01*
X23541D01*
Y60862D01*
X23547D01*
Y60856D01*
X23561D01*
Y60849D01*
X23575D01*
Y60842D01*
X23581D01*
Y60835D01*
X23595D01*
Y60828D01*
X23608D01*
Y60822D01*
X23622D01*
Y60815D01*
X23636D01*
Y60808D01*
X23642D01*
Y60801D01*
X23663D01*
Y60794D01*
X23676D01*
Y60788D01*
X23690D01*
Y60781D01*
X23710D01*
Y60774D01*
X23724D01*
Y60767D01*
X23751D01*
Y60761D01*
X23764D01*
Y60754D01*
X23798D01*
Y60747D01*
X23819D01*
Y60740D01*
X23853D01*
Y60733D01*
X23914D01*
Y60727D01*
X32093D01*
Y60733D01*
X32148D01*
Y60740D01*
X32181D01*
Y60747D01*
X32202D01*
Y60754D01*
X32236D01*
Y60761D01*
X32249D01*
Y60767D01*
X32276D01*
Y60774D01*
X32290D01*
Y60781D01*
X32310D01*
Y60788D01*
X32324D01*
Y60794D01*
X32337D01*
Y60801D01*
X32358D01*
Y60808D01*
X32365D01*
Y60815D01*
X32378D01*
Y60822D01*
X32392D01*
Y60828D01*
X32405D01*
Y60835D01*
X32419D01*
Y60842D01*
X32426D01*
Y60849D01*
X32439D01*
Y60856D01*
X32453D01*
Y60862D01*
X32460D01*
Y60869D01*
X32466D01*
Y60876D01*
X32480D01*
Y60883D01*
X32487D01*
Y60889D01*
X32493D01*
Y60896D01*
X32507D01*
Y60903D01*
X32514D01*
Y60910D01*
X32521D01*
Y60917D01*
X32527D01*
Y60923D01*
X32534D01*
Y60930D01*
X32548D01*
Y60937D01*
X32554D01*
Y60944D01*
X32561D01*
Y60951D01*
X32568D01*
Y60957D01*
X32575D01*
Y60964D01*
X32582D01*
Y60971D01*
X32588D01*
Y60978D01*
X32595D01*
Y60984D01*
X32602D01*
Y60991D01*
X32609D01*
Y61005D01*
X32616D01*
Y61012D01*
X32622D01*
Y61018D01*
X32629D01*
Y61025D01*
X32636D01*
Y61032D01*
X32643D01*
Y61045D01*
X32649D01*
Y61052D01*
X32656D01*
Y61066D01*
X32663D01*
Y61073D01*
X32670D01*
Y61079D01*
X32677D01*
Y61093D01*
X32683D01*
Y61106D01*
X32690D01*
Y61113D01*
X32697D01*
Y61120D01*
X32704D01*
Y61140D01*
X32710D01*
Y61147D01*
X32717D01*
Y61161D01*
X32724D01*
Y61181D01*
X32731D01*
Y61188D01*
X32738D01*
Y61208D01*
X32744D01*
Y61215D01*
X32751D01*
Y61242D01*
X32758D01*
Y61256D01*
X32765D01*
Y61276D01*
X32772D01*
Y61303D01*
X32778D01*
Y61324D01*
X32785D01*
Y61357D01*
X32792D01*
Y61385D01*
X32799D01*
Y61432D01*
X32805D01*
Y67068D01*
X32799D01*
Y67116D01*
X32792D01*
Y67143D01*
X32785D01*
Y67177D01*
X32778D01*
Y67197D01*
X32772D01*
Y67224D01*
X32765D01*
Y67245D01*
X32758D01*
Y67258D01*
X32751D01*
Y67285D01*
X32744D01*
Y67292D01*
X32738D01*
Y67312D01*
X32731D01*
Y67319D01*
X32724D01*
Y67340D01*
X32717D01*
Y67353D01*
X32710D01*
Y67360D01*
X32704D01*
Y67373D01*
X32697D01*
Y67387D01*
X32690D01*
Y67394D01*
X32683D01*
Y67407D01*
X32677D01*
Y67421D01*
X32670D01*
Y67428D01*
X32663D01*
Y67434D01*
X32656D01*
Y67448D01*
X32649D01*
Y67455D01*
X32643D01*
Y67468D01*
X32636D01*
Y67475D01*
X32629D01*
Y67482D01*
X32622D01*
Y67489D01*
X32616D01*
Y67496D01*
X32609D01*
Y67509D01*
X32602D01*
Y67516D01*
X32595D01*
Y67523D01*
X32588D01*
Y67529D01*
X32582D01*
Y67536D01*
X32575D01*
Y67543D01*
X32568D01*
Y67550D01*
X32561D01*
Y67557D01*
X32554D01*
Y67563D01*
X32548D01*
Y67570D01*
X32534D01*
Y67577D01*
X32527D01*
Y67584D01*
X32521D01*
Y67590D01*
X32514D01*
Y67597D01*
X32507D01*
Y67604D01*
X32493D01*
Y67611D01*
X32487D01*
Y67618D01*
X32480D01*
Y67624D01*
X32466D01*
Y67631D01*
X32460D01*
Y67638D01*
X32453D01*
Y67645D01*
X32439D01*
Y67652D01*
X32426D01*
Y67658D01*
X32419D01*
Y67665D01*
X32405D01*
Y67672D01*
X32392D01*
Y67679D01*
X32378D01*
Y67685D01*
X32365D01*
Y67692D01*
X32358D01*
Y67699D01*
X32337D01*
Y67706D01*
X32324D01*
Y67713D01*
X32310D01*
Y67719D01*
X32290D01*
Y67726D01*
X32276D01*
Y67733D01*
X32249D01*
Y67740D01*
X32236D01*
Y67746D01*
X32202D01*
Y67753D01*
X32181D01*
Y67760D01*
X32148D01*
Y67767D01*
X32086D01*
Y67774D01*
D02*
G37*
%LPD*%
G36*
X27827Y67292D02*
X27841D01*
Y61697D01*
X27834D01*
Y61690D01*
X27827D01*
Y61683D01*
X27814D01*
Y61690D01*
X26898D01*
Y61683D01*
X26891D01*
Y61690D01*
X26878D01*
Y62002D01*
X26891D01*
Y62009D01*
X26905D01*
Y62002D01*
X26912D01*
Y62009D01*
X27488D01*
Y62002D01*
X27502D01*
Y62009D01*
X27515D01*
Y62015D01*
X27522D01*
Y62687D01*
Y62694D01*
Y64084D01*
X27515D01*
Y64098D01*
X27508D01*
Y64104D01*
X27502D01*
Y64111D01*
X27495D01*
Y64118D01*
X27481D01*
Y64125D01*
X27474D01*
Y64131D01*
X27468D01*
Y64138D01*
X27461D01*
Y64145D01*
X27454D01*
Y64152D01*
X27447D01*
Y64159D01*
X27441D01*
Y64165D01*
X27434D01*
Y64172D01*
X27427D01*
Y64179D01*
X27420D01*
Y64186D01*
X27413D01*
Y64192D01*
X27400D01*
Y64199D01*
X27393D01*
Y64206D01*
X27386D01*
Y64213D01*
X27379D01*
Y64220D01*
X27373D01*
Y64226D01*
X27366D01*
Y64233D01*
X27359D01*
Y64240D01*
X27352D01*
Y64247D01*
X27346D01*
Y64254D01*
X27339D01*
Y64260D01*
X27325D01*
Y64267D01*
X27318D01*
Y64274D01*
X27312D01*
Y64281D01*
X27305D01*
Y64287D01*
X27298D01*
Y64294D01*
X27291D01*
Y64301D01*
X27285D01*
Y64308D01*
X27278D01*
Y64315D01*
X27271D01*
Y64321D01*
X27257D01*
Y64328D01*
X27251D01*
Y64335D01*
X27244D01*
Y64342D01*
X27237D01*
Y64348D01*
X27230D01*
Y64355D01*
X27223D01*
Y64362D01*
X27217D01*
Y64369D01*
X27210D01*
Y64376D01*
X27203D01*
Y64382D01*
X27196D01*
Y64389D01*
X27190D01*
Y64396D01*
X27176D01*
Y64403D01*
X27169D01*
Y64410D01*
X27162D01*
Y64416D01*
X27156D01*
Y64423D01*
X27149D01*
Y64430D01*
X27142D01*
Y64437D01*
X27135D01*
Y64443D01*
X27129D01*
Y64450D01*
X27122D01*
Y64457D01*
X27108D01*
Y64464D01*
X27101D01*
Y64471D01*
X27095D01*
Y64477D01*
X27088D01*
Y64484D01*
X27081D01*
Y64491D01*
X27074D01*
Y64498D01*
X27067D01*
Y64504D01*
X27061D01*
Y64511D01*
X27054D01*
Y64518D01*
X27047D01*
Y64525D01*
X27040D01*
Y64532D01*
X27027D01*
Y64538D01*
X27020D01*
Y64545D01*
X27013D01*
Y64552D01*
X27006D01*
Y64559D01*
X27000D01*
Y64566D01*
X26993D01*
Y64572D01*
X26986D01*
Y64579D01*
X26979D01*
Y64586D01*
X26973D01*
Y64593D01*
X26959D01*
Y64599D01*
X26952D01*
Y64606D01*
X26945D01*
Y64613D01*
X26939D01*
Y64620D01*
X26932D01*
Y64627D01*
X26925D01*
Y64633D01*
X26918D01*
Y64640D01*
X26912D01*
Y64647D01*
X26905D01*
Y64654D01*
X26898D01*
Y64660D01*
X26884D01*
Y64667D01*
X26878D01*
Y64674D01*
X26871D01*
Y64681D01*
X26864D01*
Y64688D01*
X26857D01*
Y64694D01*
X26850D01*
Y64701D01*
X26844D01*
Y64708D01*
X26837D01*
Y64715D01*
X26830D01*
Y64722D01*
X26823D01*
Y64728D01*
X26817D01*
Y64735D01*
X26803D01*
Y64742D01*
X26796D01*
Y64749D01*
X26789D01*
Y64755D01*
X26783D01*
Y64762D01*
X26776D01*
Y64769D01*
X26769D01*
Y64776D01*
X26762D01*
Y64783D01*
X26756D01*
Y64789D01*
X26749D01*
Y64796D01*
X26735D01*
Y64803D01*
X26728D01*
Y64810D01*
X26722D01*
Y64816D01*
X26715D01*
Y64823D01*
X26708D01*
Y64830D01*
X26701D01*
Y64837D01*
X26694D01*
Y64844D01*
X26688D01*
Y64850D01*
X26681D01*
Y64857D01*
X26674D01*
Y64864D01*
X26667D01*
Y64871D01*
X26654D01*
Y64878D01*
X26647D01*
Y64884D01*
X26640D01*
Y64891D01*
X26633D01*
Y64898D01*
X26627D01*
Y64905D01*
X26620D01*
Y64911D01*
X26613D01*
Y64918D01*
X26606D01*
Y64925D01*
X26600D01*
Y64932D01*
X26586D01*
Y64939D01*
X26579D01*
Y64945D01*
X26572D01*
Y64952D01*
X26566D01*
Y64959D01*
X26559D01*
Y64966D01*
X26552D01*
Y64972D01*
X26545D01*
Y64979D01*
X26538D01*
Y64986D01*
X26532D01*
Y64993D01*
X26525D01*
Y65000D01*
X26518D01*
Y65006D01*
X26505D01*
Y65013D01*
X26498D01*
Y65020D01*
X26491D01*
Y65027D01*
X26484D01*
Y65034D01*
X26477D01*
Y65040D01*
X26471D01*
Y65047D01*
X26457D01*
Y65061D01*
X26450D01*
Y65067D01*
X26437D01*
Y65081D01*
X26423D01*
Y65088D01*
X26416D01*
Y65095D01*
X26410D01*
Y65101D01*
X26403D01*
Y65108D01*
X26396D01*
Y65115D01*
X26389D01*
Y65122D01*
X26382D01*
Y65128D01*
X26369D01*
Y65135D01*
X26362D01*
Y65142D01*
X26355D01*
Y65149D01*
X26349D01*
Y65156D01*
X26342D01*
Y65162D01*
X26335D01*
Y65169D01*
X26328D01*
Y65176D01*
X26321D01*
Y65183D01*
X26315D01*
Y65190D01*
X26308D01*
Y65196D01*
X26301D01*
Y65203D01*
X26294D01*
Y65210D01*
X26281D01*
Y65217D01*
X26274D01*
Y65223D01*
X26267D01*
Y65230D01*
X26260D01*
Y65237D01*
X26254D01*
Y65244D01*
X26247D01*
Y65251D01*
X26240D01*
Y65257D01*
X26233D01*
Y65264D01*
X26226D01*
Y65271D01*
X26213D01*
Y65278D01*
X26206D01*
Y65284D01*
X26199D01*
Y65291D01*
X26193D01*
Y65298D01*
X26186D01*
Y65305D01*
X26179D01*
Y65312D01*
X26172D01*
Y65318D01*
X26165D01*
Y65325D01*
X26159D01*
Y65332D01*
X26152D01*
Y65339D01*
X26145D01*
Y65346D01*
X26132D01*
Y65352D01*
X26125D01*
Y65359D01*
X26118D01*
Y65366D01*
X26111D01*
Y65373D01*
X26104D01*
Y65379D01*
X26098D01*
Y65386D01*
X26091D01*
Y65393D01*
X26084D01*
Y65400D01*
X26077D01*
Y65407D01*
X26064D01*
Y65413D01*
X26057D01*
Y65420D01*
X26050D01*
Y65427D01*
X26043D01*
Y65434D01*
X26037D01*
Y65440D01*
X26030D01*
Y65447D01*
X26023D01*
Y65454D01*
X26016D01*
Y65461D01*
X26009D01*
Y65468D01*
X26003D01*
Y65474D01*
X25989D01*
Y65481D01*
X25982D01*
Y65488D01*
X25976D01*
Y65495D01*
X25969D01*
Y65502D01*
X25962D01*
Y65508D01*
X25955D01*
Y65515D01*
X25948D01*
Y65522D01*
X25942D01*
Y65529D01*
X25935D01*
Y65535D01*
X25928D01*
Y65542D01*
X25921D01*
Y65549D01*
X25908D01*
Y65556D01*
X25901D01*
Y65563D01*
X25894D01*
Y65569D01*
X25887D01*
Y65576D01*
X25881D01*
Y65583D01*
X25874D01*
Y65590D01*
X25867D01*
Y65596D01*
X25860D01*
Y65603D01*
X25853D01*
Y65610D01*
X25840D01*
Y65617D01*
X25833D01*
Y65624D01*
X25826D01*
Y65630D01*
X25820D01*
Y65637D01*
X25813D01*
Y65644D01*
X25806D01*
Y65651D01*
X25799D01*
Y65658D01*
X25792D01*
Y65664D01*
X25779D01*
Y65678D01*
X25772D01*
Y65685D01*
X25758D01*
Y65678D01*
X25752D01*
Y65664D01*
X25745D01*
Y65644D01*
X25738D01*
Y65624D01*
X25731D01*
Y65603D01*
X25725D01*
Y65576D01*
X25718D01*
Y65556D01*
X25711D01*
Y65535D01*
X25704D01*
Y65515D01*
X25697D01*
Y65495D01*
X25691D01*
Y65474D01*
X25684D01*
Y65454D01*
X25677D01*
Y65427D01*
X25670D01*
Y65407D01*
X25664D01*
Y65386D01*
X25657D01*
Y65366D01*
X25650D01*
Y65346D01*
X25643D01*
Y65325D01*
X25636D01*
Y65305D01*
X25630D01*
Y65278D01*
X25623D01*
Y65257D01*
X25616D01*
Y65237D01*
X25609D01*
Y65217D01*
X25602D01*
Y65196D01*
X25596D01*
Y65176D01*
X25589D01*
Y65149D01*
X25582D01*
Y65135D01*
X25575D01*
Y65108D01*
X25569D01*
Y65088D01*
X25562D01*
Y65067D01*
X25555D01*
Y65047D01*
X25548D01*
Y65027D01*
X25541D01*
Y65000D01*
X25535D01*
Y64979D01*
X25528D01*
Y64959D01*
X25521D01*
Y64939D01*
X25514D01*
Y64918D01*
X25508D01*
Y64898D01*
X25501D01*
Y64878D01*
X25494D01*
Y64850D01*
X25487D01*
Y64837D01*
X25480D01*
Y64810D01*
X25474D01*
Y64789D01*
X25467D01*
Y64769D01*
X25460D01*
Y64749D01*
X25453D01*
Y64728D01*
X25446D01*
Y64701D01*
X25440D01*
Y64681D01*
X25433D01*
Y64660D01*
X25426D01*
Y64640D01*
X25419D01*
Y64620D01*
X25413D01*
Y64599D01*
X25406D01*
Y64579D01*
X25399D01*
Y64559D01*
X25392D01*
Y64532D01*
X25385D01*
Y64511D01*
X25379D01*
Y64491D01*
X25372D01*
Y64471D01*
X25365D01*
Y64450D01*
X25358D01*
Y64430D01*
X25352D01*
Y64410D01*
X25345D01*
Y64382D01*
X25338D01*
Y64362D01*
X25331D01*
Y64342D01*
X25324D01*
Y64321D01*
X25318D01*
Y64301D01*
X25311D01*
Y64281D01*
X25304D01*
Y64254D01*
X25297D01*
Y64233D01*
X25291D01*
Y64213D01*
X25284D01*
Y64192D01*
X25277D01*
Y64172D01*
X25270D01*
Y64152D01*
X25263D01*
Y64131D01*
X25257D01*
Y64111D01*
X25250D01*
Y64084D01*
X25243D01*
Y64070D01*
X25236D01*
Y64043D01*
X25229D01*
Y64023D01*
X25223D01*
Y64003D01*
X25216D01*
Y63982D01*
X25209D01*
Y63962D01*
X25202D01*
Y63935D01*
X25196D01*
Y63914D01*
X25189D01*
Y63894D01*
X25182D01*
Y63874D01*
X25175D01*
Y63853D01*
X25168D01*
Y63833D01*
X25162D01*
Y63813D01*
X25155D01*
Y63786D01*
X25148D01*
Y63765D01*
X25141D01*
Y63745D01*
X25135D01*
Y63725D01*
X25128D01*
Y63704D01*
X25121D01*
Y63684D01*
X25114D01*
Y63663D01*
X25107D01*
Y63636D01*
X25101D01*
Y63616D01*
X25094D01*
Y63596D01*
X25087D01*
Y63575D01*
X25080D01*
Y63555D01*
X25073D01*
Y63535D01*
X25067D01*
Y63514D01*
X25060D01*
Y63487D01*
X25053D01*
Y63467D01*
X25046D01*
Y63446D01*
X25040D01*
Y63426D01*
X25033D01*
Y63406D01*
X25026D01*
Y63385D01*
X25019D01*
Y63358D01*
X25012D01*
Y63345D01*
X25006D01*
Y63318D01*
X24999D01*
Y63297D01*
X24992D01*
Y63277D01*
X24985D01*
Y63257D01*
X24979D01*
Y63236D01*
X24972D01*
Y63209D01*
X24965D01*
Y63195D01*
X24958D01*
Y63168D01*
X24951D01*
Y63148D01*
X24945D01*
Y63128D01*
X24938D01*
Y63107D01*
X24931D01*
Y63087D01*
X24924D01*
Y63060D01*
X24917D01*
Y63046D01*
X24911D01*
Y63019D01*
X24904D01*
Y62999D01*
X24897D01*
Y62978D01*
X24890D01*
Y62958D01*
X24884D01*
Y62938D01*
X24877D01*
Y62911D01*
X24870D01*
Y62897D01*
X24863D01*
Y62870D01*
X24856D01*
Y62850D01*
X24850D01*
Y62829D01*
X24843D01*
Y62809D01*
X24836D01*
Y62789D01*
X24829D01*
Y62768D01*
X24823D01*
Y62741D01*
X24816D01*
Y62721D01*
X24809D01*
Y62700D01*
X24802D01*
Y62680D01*
X24795D01*
Y62660D01*
X24789D01*
Y62639D01*
X24782D01*
Y62619D01*
X24775D01*
Y62592D01*
X24768D01*
Y62571D01*
X24761D01*
Y62551D01*
X24755D01*
Y62531D01*
X24748D01*
Y62510D01*
X24741D01*
Y62490D01*
X24734D01*
Y62470D01*
X24728D01*
Y62443D01*
X24721D01*
Y62422D01*
X24714D01*
Y62402D01*
X24707D01*
Y62382D01*
X24700D01*
Y62361D01*
X24694D01*
Y62341D01*
X24687D01*
Y62321D01*
X24680D01*
Y62293D01*
X24673D01*
Y62273D01*
X24667D01*
Y62253D01*
X24660D01*
Y62232D01*
X24653D01*
Y62212D01*
X24646D01*
Y62192D01*
X24639D01*
Y62171D01*
X24646D01*
Y62165D01*
X24958D01*
Y61853D01*
X24951D01*
Y61846D01*
X23676D01*
Y61853D01*
X23670D01*
Y62158D01*
X23676D01*
Y62165D01*
X24470D01*
Y62171D01*
X24477D01*
Y62178D01*
X24483D01*
Y62205D01*
X24490D01*
Y62226D01*
X24497D01*
Y62246D01*
X24504D01*
Y62266D01*
X24511D01*
Y62287D01*
X24517D01*
Y62307D01*
X24524D01*
Y62327D01*
X24531D01*
Y62348D01*
X24538D01*
Y62368D01*
X24544D01*
Y62388D01*
X24551D01*
Y62416D01*
X24558D01*
Y62436D01*
X24565D01*
Y62456D01*
X24572D01*
Y62477D01*
X24578D01*
Y62497D01*
X24585D01*
Y62517D01*
X24592D01*
Y62538D01*
X24599D01*
Y62565D01*
X24605D01*
Y62578D01*
X24612D01*
Y62605D01*
X24619D01*
Y62626D01*
X24626D01*
Y62646D01*
X24633D01*
Y62666D01*
X24639D01*
Y62687D01*
X24646D01*
Y62707D01*
X24653D01*
Y62727D01*
X24660D01*
Y62748D01*
X24667D01*
Y62775D01*
X24673D01*
Y62795D01*
X24680D01*
Y62816D01*
X24687D01*
Y62836D01*
X24694D01*
Y62856D01*
X24700D01*
Y62877D01*
X24707D01*
Y62897D01*
X24714D01*
Y62917D01*
X24721D01*
Y62938D01*
X24728D01*
Y62965D01*
X24734D01*
Y62985D01*
X24741D01*
Y63006D01*
X24748D01*
Y63026D01*
X24755D01*
Y63046D01*
X24761D01*
Y63067D01*
X24768D01*
Y63087D01*
X24775D01*
Y63107D01*
X24782D01*
Y63128D01*
X24789D01*
Y63155D01*
X24795D01*
Y63175D01*
X24802D01*
Y63195D01*
X24809D01*
Y63216D01*
X24816D01*
Y63236D01*
X24823D01*
Y63257D01*
X24829D01*
Y63277D01*
X24836D01*
Y63297D01*
X24843D01*
Y63324D01*
X24850D01*
Y63345D01*
X24856D01*
Y63365D01*
X24863D01*
Y63385D01*
X24870D01*
Y63406D01*
X24877D01*
Y63426D01*
X24884D01*
Y63446D01*
X24890D01*
Y63467D01*
X24897D01*
Y63487D01*
X24904D01*
Y63514D01*
X24911D01*
Y63535D01*
X24917D01*
Y63555D01*
X24924D01*
Y63575D01*
X24931D01*
Y63596D01*
X24938D01*
Y63616D01*
X24945D01*
Y63636D01*
X24951D01*
Y63657D01*
X24958D01*
Y63677D01*
X24965D01*
Y63697D01*
X24972D01*
Y63725D01*
X24979D01*
Y63745D01*
X24985D01*
Y63765D01*
X24992D01*
Y63786D01*
X24999D01*
Y63806D01*
X25006D01*
Y63826D01*
X25012D01*
Y63847D01*
X25019D01*
Y63867D01*
X25026D01*
Y63894D01*
X25033D01*
Y63908D01*
X25040D01*
Y63935D01*
X25046D01*
Y63955D01*
X25053D01*
Y63975D01*
X25060D01*
Y63996D01*
X25067D01*
Y64016D01*
X25073D01*
Y64036D01*
X25080D01*
Y64057D01*
X25087D01*
Y64084D01*
X25094D01*
Y64104D01*
X25101D01*
Y64125D01*
X25107D01*
Y64145D01*
X25114D01*
Y64165D01*
X25121D01*
Y64186D01*
X25128D01*
Y64206D01*
X25135D01*
Y64226D01*
X25141D01*
Y64247D01*
X25148D01*
Y64267D01*
X25155D01*
Y64294D01*
X25162D01*
Y64315D01*
X25168D01*
Y64335D01*
X25175D01*
Y64355D01*
X25182D01*
Y64376D01*
X25189D01*
Y64396D01*
X25196D01*
Y64416D01*
X25202D01*
Y64443D01*
X25209D01*
Y64464D01*
X25216D01*
Y64484D01*
X25223D01*
Y64504D01*
X25229D01*
Y64525D01*
X25236D01*
Y64545D01*
X25243D01*
Y64566D01*
X25250D01*
Y64586D01*
X25257D01*
Y64606D01*
X25263D01*
Y64627D01*
X25270D01*
Y64654D01*
X25277D01*
Y64674D01*
X25284D01*
Y64694D01*
X25291D01*
Y64715D01*
X25297D01*
Y64735D01*
X25304D01*
Y64755D01*
X25311D01*
Y64776D01*
X25318D01*
Y64803D01*
X25324D01*
Y64816D01*
X25331D01*
Y64844D01*
X25338D01*
Y64864D01*
X25345D01*
Y64884D01*
X25352D01*
Y64905D01*
X25358D01*
Y64925D01*
X25365D01*
Y64945D01*
X25372D01*
Y64966D01*
X25379D01*
Y64986D01*
X25385D01*
Y65013D01*
X25392D01*
Y65034D01*
X25399D01*
Y65054D01*
X25406D01*
Y65067D01*
X25413D01*
Y65095D01*
X25419D01*
Y65115D01*
X25426D01*
Y65135D01*
X25433D01*
Y65156D01*
X25440D01*
Y65176D01*
X25446D01*
Y65203D01*
X25453D01*
Y65223D01*
X25460D01*
Y65244D01*
X25467D01*
Y65264D01*
X25474D01*
Y65284D01*
X25480D01*
Y65305D01*
X25487D01*
Y65325D01*
X25494D01*
Y65352D01*
X25501D01*
Y65366D01*
X25508D01*
Y65393D01*
X25514D01*
Y65413D01*
X25521D01*
Y65434D01*
X25528D01*
Y65454D01*
X25535D01*
Y65474D01*
X25541D01*
Y65495D01*
X25548D01*
Y65515D01*
X25555D01*
Y65535D01*
X25562D01*
Y65563D01*
X25569D01*
Y65583D01*
X25575D01*
Y65603D01*
X25582D01*
Y65624D01*
X25589D01*
Y65644D01*
X25596D01*
Y65664D01*
X25602D01*
Y65685D01*
X25609D01*
Y65705D01*
X25616D01*
Y65725D01*
X25623D01*
Y65752D01*
X25630D01*
Y65773D01*
X25636D01*
Y65793D01*
X25643D01*
Y65813D01*
X25650D01*
Y65834D01*
X25657D01*
Y65854D01*
X25664D01*
Y65875D01*
X25670D01*
Y65895D01*
X25677D01*
Y65922D01*
X25684D01*
Y65942D01*
X25691D01*
Y65963D01*
X25697D01*
Y65983D01*
X25704D01*
Y66003D01*
X25711D01*
Y66024D01*
X25718D01*
Y66044D01*
X25725D01*
Y66064D01*
X25731D01*
Y66085D01*
X25738D01*
Y66112D01*
X25745D01*
Y66125D01*
X25752D01*
Y66153D01*
X25758D01*
Y66173D01*
X25765D01*
Y66193D01*
X25772D01*
Y66214D01*
X25779D01*
Y66234D01*
X25786D01*
Y66254D01*
X25792D01*
Y66275D01*
X25799D01*
Y66302D01*
X25806D01*
Y66322D01*
X25813D01*
Y66343D01*
X25820D01*
Y66363D01*
X25826D01*
Y66383D01*
X25833D01*
Y66404D01*
X25840D01*
Y66424D01*
X25847D01*
Y66444D01*
X25853D01*
Y66471D01*
X25860D01*
Y66485D01*
X25867D01*
Y66512D01*
X25874D01*
Y66532D01*
X25881D01*
Y66553D01*
X25887D01*
Y66573D01*
X25894D01*
Y66593D01*
X25901D01*
Y66614D01*
X25908D01*
Y66634D01*
X25914D01*
Y66641D01*
X25921D01*
Y66648D01*
X25928D01*
Y66641D01*
X25935D01*
Y66634D01*
X25942D01*
Y66627D01*
X25948D01*
Y66621D01*
X25955D01*
Y66614D01*
X25962D01*
Y66607D01*
X25969D01*
Y66600D01*
X25976D01*
Y66593D01*
X25982D01*
Y66587D01*
X25989D01*
Y66580D01*
X25996D01*
Y66573D01*
X26003D01*
Y66566D01*
X26009D01*
Y66560D01*
X26016D01*
Y66553D01*
X26023D01*
Y66546D01*
X26030D01*
Y66539D01*
X26037D01*
Y66532D01*
X26043D01*
Y66526D01*
X26050D01*
Y66519D01*
X26057D01*
Y66512D01*
X26064D01*
Y66505D01*
X26070D01*
Y66499D01*
X26077D01*
Y66492D01*
X26084D01*
Y66485D01*
X26091D01*
Y66478D01*
X26098D01*
Y66471D01*
X26104D01*
Y66465D01*
X26111D01*
Y66458D01*
X26118D01*
Y66451D01*
X26125D01*
Y66444D01*
X26132D01*
Y66437D01*
X26138D01*
Y66431D01*
X26145D01*
Y66424D01*
X26152D01*
Y66417D01*
X26159D01*
Y66410D01*
X26165D01*
Y66404D01*
X26172D01*
Y66397D01*
X26179D01*
Y66390D01*
X26186D01*
Y66383D01*
X26193D01*
Y66376D01*
X26199D01*
Y66370D01*
X26206D01*
Y66363D01*
X26213D01*
Y66356D01*
X26220D01*
Y66349D01*
X26226D01*
Y66343D01*
X26233D01*
Y66336D01*
X26240D01*
Y66329D01*
X26247D01*
Y66322D01*
X26254D01*
Y66315D01*
X26260D01*
Y66309D01*
X26267D01*
Y66302D01*
X26274D01*
Y66295D01*
X26281D01*
Y66288D01*
X26288D01*
Y66281D01*
X26294D01*
Y66275D01*
X26301D01*
Y66268D01*
X26308D01*
Y66261D01*
X26315D01*
Y66254D01*
X26321D01*
Y66248D01*
X26328D01*
Y66241D01*
X26335D01*
Y66234D01*
X26342D01*
Y66227D01*
X26349D01*
Y66220D01*
X26355D01*
Y66214D01*
X26362D01*
Y66207D01*
X26369D01*
Y66200D01*
X26376D01*
Y66193D01*
X26382D01*
Y66187D01*
X26389D01*
Y66180D01*
X26396D01*
Y66173D01*
X26403D01*
Y66166D01*
X26410D01*
Y66159D01*
X26416D01*
Y66153D01*
X26423D01*
Y66146D01*
X26430D01*
Y66139D01*
X26437D01*
Y66132D01*
X26444D01*
Y66125D01*
X26450D01*
Y66119D01*
X26457D01*
Y66112D01*
X26464D01*
Y66105D01*
X26471D01*
Y66098D01*
X26477D01*
Y66092D01*
X26484D01*
Y66085D01*
X26491D01*
Y66078D01*
X26498D01*
Y66071D01*
X26505D01*
Y66064D01*
X26511D01*
Y66058D01*
X26518D01*
Y66051D01*
X26525D01*
Y66044D01*
X26532D01*
Y66037D01*
X26538D01*
Y66031D01*
X26545D01*
Y66024D01*
X26552D01*
Y66017D01*
X26559D01*
Y66010D01*
X26566D01*
Y66003D01*
X26572D01*
Y65997D01*
X26579D01*
Y65990D01*
X26586D01*
Y65983D01*
X26593D01*
Y65976D01*
X26600D01*
Y65969D01*
X26606D01*
Y65963D01*
X26613D01*
Y65956D01*
X26620D01*
Y65949D01*
X26627D01*
Y65942D01*
X26633D01*
Y65936D01*
X26640D01*
Y65929D01*
X26647D01*
Y65922D01*
X26654D01*
Y65915D01*
X26661D01*
Y65908D01*
X26667D01*
Y65902D01*
X26674D01*
Y65895D01*
X26681D01*
Y65888D01*
X26688D01*
Y65881D01*
X26694D01*
Y65875D01*
X26701D01*
Y65868D01*
X26708D01*
Y65861D01*
X26715D01*
Y65854D01*
X26722D01*
Y65847D01*
X26728D01*
Y65841D01*
X26735D01*
Y65834D01*
X26742D01*
Y65827D01*
X26749D01*
Y65820D01*
X26756D01*
Y65813D01*
X26762D01*
Y65807D01*
X26769D01*
Y65800D01*
X26776D01*
Y65793D01*
X26783D01*
Y65786D01*
X26789D01*
Y65780D01*
X26796D01*
Y65773D01*
X26803D01*
Y65766D01*
X26810D01*
Y65759D01*
X26817D01*
Y65752D01*
X26823D01*
Y65746D01*
X26830D01*
Y65739D01*
X26837D01*
Y65732D01*
X26844D01*
Y65725D01*
X26850D01*
Y65719D01*
X26857D01*
Y65712D01*
X26864D01*
Y65705D01*
X26871D01*
Y65698D01*
X26878D01*
Y65691D01*
X26884D01*
Y65685D01*
X26891D01*
Y65678D01*
X26898D01*
Y65664D01*
X26912D01*
Y65658D01*
X26918D01*
Y65651D01*
X26925D01*
Y65644D01*
X26932D01*
Y65637D01*
X26939D01*
Y65630D01*
X26945D01*
Y65624D01*
X26952D01*
Y65617D01*
X26959D01*
Y65610D01*
X26966D01*
Y65603D01*
X26973D01*
Y65596D01*
X26979D01*
Y65590D01*
X26986D01*
Y65583D01*
X26993D01*
Y65576D01*
X27000D01*
Y65569D01*
X27006D01*
Y65563D01*
X27013D01*
Y65556D01*
X27020D01*
Y65549D01*
X27027D01*
Y65542D01*
X27034D01*
Y65535D01*
X27040D01*
Y65529D01*
X27047D01*
Y65522D01*
X27054D01*
Y65515D01*
X27061D01*
Y65508D01*
X27067D01*
Y65502D01*
X27074D01*
Y65495D01*
X27081D01*
Y65488D01*
X27088D01*
Y65481D01*
X27095D01*
Y65474D01*
X27101D01*
Y65468D01*
X27108D01*
Y65461D01*
X27115D01*
Y65454D01*
X27122D01*
Y65447D01*
X27129D01*
Y65440D01*
X27135D01*
Y65434D01*
X27142D01*
Y65427D01*
X27149D01*
Y65420D01*
X27156D01*
Y65413D01*
X27162D01*
Y65407D01*
X27169D01*
Y65400D01*
X27176D01*
Y65393D01*
X27183D01*
Y65386D01*
X27190D01*
Y65379D01*
X27196D01*
Y65373D01*
X27203D01*
Y65366D01*
X27210D01*
Y65359D01*
X27217D01*
Y65352D01*
X27223D01*
Y65346D01*
X27230D01*
Y65339D01*
X27237D01*
Y65332D01*
X27244D01*
Y65325D01*
X27251D01*
Y65318D01*
X27257D01*
Y65312D01*
X27264D01*
Y65305D01*
X27271D01*
Y65298D01*
X27278D01*
Y65291D01*
X27285D01*
Y65284D01*
X27291D01*
Y65278D01*
X27298D01*
Y65271D01*
X27305D01*
Y65264D01*
X27312D01*
Y65257D01*
X27318D01*
Y65251D01*
X27325D01*
Y65244D01*
X27332D01*
Y65237D01*
X27339D01*
Y65230D01*
X27346D01*
Y65223D01*
X27352D01*
Y65217D01*
X27359D01*
Y65210D01*
X27366D01*
Y65203D01*
X27373D01*
Y65196D01*
X27379D01*
Y65190D01*
X27386D01*
Y65183D01*
X27393D01*
Y65176D01*
X27400D01*
Y65169D01*
X27407D01*
Y65162D01*
X27413D01*
Y65156D01*
X27420D01*
Y65149D01*
X27427D01*
Y65142D01*
X27434D01*
Y65135D01*
X27441D01*
Y65128D01*
X27447D01*
Y65122D01*
X27454D01*
Y65115D01*
X27461D01*
Y65108D01*
X27468D01*
Y65101D01*
X27474D01*
Y65095D01*
X27481D01*
Y65088D01*
X27488D01*
Y65081D01*
X27495D01*
Y65067D01*
X27522D01*
Y66967D01*
X27515D01*
Y66973D01*
X26722D01*
Y66987D01*
X26715D01*
Y67285D01*
X26722D01*
Y67292D01*
X27820D01*
Y67299D01*
X27827D01*
Y67292D01*
D02*
G37*
G36*
X28180D02*
X29285D01*
Y66980D01*
X29279D01*
Y66973D01*
X28485D01*
Y66960D01*
X28478D01*
Y66946D01*
X28485D01*
Y66661D01*
X28478D01*
Y66621D01*
X28485D01*
Y65705D01*
X28478D01*
Y65664D01*
X28485D01*
Y65088D01*
X28478D01*
Y65067D01*
X28485D01*
Y65061D01*
X28492D01*
Y65067D01*
X28505D01*
Y65081D01*
X28512D01*
Y65088D01*
X28519D01*
Y65095D01*
X28526D01*
Y65101D01*
X28532D01*
Y65108D01*
X28539D01*
Y65115D01*
X28546D01*
Y65122D01*
X28553D01*
Y65128D01*
X28560D01*
Y65135D01*
X28566D01*
Y65142D01*
X28573D01*
Y65149D01*
X28580D01*
Y65156D01*
X28587D01*
Y65162D01*
X28594D01*
Y65169D01*
X28600D01*
Y65176D01*
X28607D01*
Y65183D01*
X28614D01*
Y65190D01*
X28621D01*
Y65196D01*
X28627D01*
Y65203D01*
X28634D01*
Y65210D01*
X28641D01*
Y65217D01*
X28648D01*
Y65223D01*
X28655D01*
Y65230D01*
X28661D01*
Y65237D01*
X28668D01*
Y65244D01*
X28675D01*
Y65251D01*
X28682D01*
Y65257D01*
X28688D01*
Y65264D01*
X28695D01*
Y65271D01*
X28702D01*
Y65278D01*
X28709D01*
Y65284D01*
X28716D01*
Y65291D01*
X28722D01*
Y65298D01*
X28729D01*
Y65305D01*
X28736D01*
Y65312D01*
X28743D01*
Y65318D01*
X28750D01*
Y65325D01*
X28756D01*
Y65332D01*
X28763D01*
Y65339D01*
X28770D01*
Y65346D01*
X28777D01*
Y65352D01*
X28783D01*
Y65359D01*
X28790D01*
Y65366D01*
X28797D01*
Y65373D01*
X28804D01*
Y65379D01*
X28811D01*
Y65386D01*
X28817D01*
Y65393D01*
X28824D01*
Y65400D01*
X28831D01*
Y65407D01*
X28838D01*
Y65413D01*
X28844D01*
Y65420D01*
X28851D01*
Y65427D01*
X28858D01*
Y65434D01*
X28865D01*
Y65440D01*
X28872D01*
Y65447D01*
X28878D01*
Y65454D01*
X28885D01*
Y65461D01*
X28892D01*
Y65468D01*
X28899D01*
Y65474D01*
X28906D01*
Y65481D01*
X28912D01*
Y65488D01*
X28919D01*
Y65495D01*
X28926D01*
Y65502D01*
X28933D01*
Y65508D01*
X28939D01*
Y65515D01*
X28946D01*
Y65522D01*
X28953D01*
Y65529D01*
X28960D01*
Y65535D01*
X28967D01*
Y65542D01*
X28973D01*
Y65549D01*
X28980D01*
Y65556D01*
X28987D01*
Y65563D01*
X28994D01*
Y65569D01*
X29000D01*
Y65576D01*
X29007D01*
Y65583D01*
X29014D01*
Y65590D01*
X29021D01*
Y65596D01*
X29028D01*
Y65603D01*
X29034D01*
Y65610D01*
X29041D01*
Y65617D01*
X29048D01*
Y65624D01*
X29055D01*
Y65630D01*
X29062D01*
Y65637D01*
X29068D01*
Y65644D01*
X29075D01*
Y65651D01*
X29082D01*
Y65658D01*
X29089D01*
Y65664D01*
X29102D01*
Y65678D01*
X29109D01*
Y65685D01*
X29116D01*
Y65691D01*
X29123D01*
Y65698D01*
X29129D01*
Y65705D01*
X29136D01*
Y65712D01*
X29143D01*
Y65719D01*
X29150D01*
Y65725D01*
X29156D01*
Y65732D01*
X29163D01*
Y65739D01*
X29170D01*
Y65746D01*
X29177D01*
Y65752D01*
X29184D01*
Y65759D01*
X29190D01*
Y65766D01*
X29197D01*
Y65773D01*
X29204D01*
Y65780D01*
X29211D01*
Y65786D01*
X29218D01*
Y65793D01*
X29224D01*
Y65800D01*
X29231D01*
Y65807D01*
X29238D01*
Y65813D01*
X29245D01*
Y65820D01*
X29251D01*
Y65827D01*
X29258D01*
Y65834D01*
X29265D01*
Y65841D01*
X29272D01*
Y65847D01*
X29279D01*
Y65854D01*
X29285D01*
Y65861D01*
X29292D01*
Y65868D01*
X29299D01*
Y65875D01*
X29306D01*
Y65881D01*
X29312D01*
Y65888D01*
X29319D01*
Y65895D01*
X29326D01*
Y65902D01*
X29333D01*
Y65908D01*
X29340D01*
Y65915D01*
X29346D01*
Y65922D01*
X29353D01*
Y65929D01*
X29360D01*
Y65936D01*
X29367D01*
Y65942D01*
X29374D01*
Y65949D01*
X29380D01*
Y65956D01*
X29387D01*
Y65963D01*
X29394D01*
Y65969D01*
X29401D01*
Y65976D01*
X29407D01*
Y65983D01*
X29414D01*
Y65990D01*
X29421D01*
Y65997D01*
X29428D01*
Y66003D01*
X29435D01*
Y66010D01*
X29441D01*
Y66017D01*
X29448D01*
Y66024D01*
X29455D01*
Y66031D01*
X29462D01*
Y66037D01*
X29468D01*
Y66044D01*
X29475D01*
Y66051D01*
X29482D01*
Y66058D01*
X29489D01*
Y66064D01*
X29496D01*
Y66071D01*
X29502D01*
Y66078D01*
X29509D01*
Y66085D01*
X29516D01*
Y66092D01*
X29523D01*
Y66098D01*
X29530D01*
Y66105D01*
X29536D01*
Y66112D01*
X29543D01*
Y66119D01*
X29550D01*
Y66125D01*
X29557D01*
Y66132D01*
X29563D01*
Y66139D01*
X29570D01*
Y66146D01*
X29577D01*
Y66153D01*
X29584D01*
Y66159D01*
X29591D01*
Y66166D01*
X29597D01*
Y66173D01*
X29604D01*
Y66180D01*
X29611D01*
Y66187D01*
X29618D01*
Y66193D01*
X29624D01*
Y66200D01*
X29631D01*
Y66207D01*
X29638D01*
Y66214D01*
X29645D01*
Y66220D01*
X29652D01*
Y66227D01*
X29658D01*
Y66234D01*
X29665D01*
Y66241D01*
X29672D01*
Y66248D01*
X29679D01*
Y66254D01*
X29686D01*
Y66261D01*
X29692D01*
Y66268D01*
X29699D01*
Y66275D01*
X29706D01*
Y66281D01*
X29713D01*
Y66288D01*
X29719D01*
Y66295D01*
X29726D01*
Y66302D01*
X29733D01*
Y66309D01*
X29740D01*
Y66315D01*
X29747D01*
Y66322D01*
X29753D01*
Y66329D01*
X29760D01*
Y66336D01*
X29767D01*
Y66343D01*
X29774D01*
Y66349D01*
X29780D01*
Y66356D01*
X29787D01*
Y66363D01*
X29794D01*
Y66370D01*
X29801D01*
Y66376D01*
X29808D01*
Y66383D01*
X29814D01*
Y66390D01*
X29821D01*
Y66397D01*
X29828D01*
Y66404D01*
X29835D01*
Y66410D01*
X29841D01*
Y66417D01*
X29848D01*
Y66424D01*
X29855D01*
Y66431D01*
X29862D01*
Y66437D01*
X29869D01*
Y66444D01*
X29875D01*
Y66451D01*
X29882D01*
Y66458D01*
X29889D01*
Y66465D01*
X29896D01*
Y66471D01*
X29903D01*
Y66478D01*
X29909D01*
Y66485D01*
X29916D01*
Y66492D01*
X29923D01*
Y66499D01*
X29930D01*
Y66505D01*
X29936D01*
Y66512D01*
X29943D01*
Y66519D01*
X29950D01*
Y66526D01*
X29957D01*
Y66532D01*
X29964D01*
Y66539D01*
X29970D01*
Y66546D01*
X29977D01*
Y66553D01*
X29984D01*
Y66560D01*
X29991D01*
Y66566D01*
X29997D01*
Y66573D01*
X30004D01*
Y66580D01*
X30011D01*
Y66587D01*
X30018D01*
Y66593D01*
X30025D01*
Y66600D01*
X30031D01*
Y66607D01*
X30038D01*
Y66614D01*
X30045D01*
Y66621D01*
X30052D01*
Y66627D01*
X30059D01*
Y66634D01*
X30065D01*
Y66641D01*
X30072D01*
Y66648D01*
X30079D01*
Y66641D01*
X30086D01*
Y66634D01*
X30092D01*
Y66614D01*
X30099D01*
Y66593D01*
X30106D01*
Y66573D01*
X30113D01*
Y66553D01*
X30120D01*
Y66532D01*
X30126D01*
Y66512D01*
X30133D01*
Y66485D01*
X30140D01*
Y66471D01*
X30147D01*
Y66444D01*
X30153D01*
Y66424D01*
X30160D01*
Y66404D01*
X30167D01*
Y66383D01*
X30174D01*
Y66363D01*
X30181D01*
Y66343D01*
X30187D01*
Y66322D01*
X30194D01*
Y66302D01*
X30201D01*
Y66275D01*
X30208D01*
Y66254D01*
X30215D01*
Y66234D01*
X30221D01*
Y66214D01*
X30228D01*
Y66193D01*
X30235D01*
Y66173D01*
X30242D01*
Y66153D01*
X30248D01*
Y66132D01*
X30255D01*
Y66112D01*
X30262D01*
Y66085D01*
X30269D01*
Y66064D01*
X30276D01*
Y66044D01*
X30282D01*
Y66024D01*
X30289D01*
Y66003D01*
X30296D01*
Y65983D01*
X30303D01*
Y65963D01*
X30309D01*
Y65942D01*
X30316D01*
Y65922D01*
X30323D01*
Y65895D01*
X30330D01*
Y65875D01*
X30337D01*
Y65854D01*
X30343D01*
Y65834D01*
X30350D01*
Y65813D01*
X30357D01*
Y65793D01*
X30364D01*
Y65773D01*
X30371D01*
Y65752D01*
X30377D01*
Y65725D01*
X30384D01*
Y65712D01*
X30391D01*
Y65685D01*
X30398D01*
Y65664D01*
X30404D01*
Y65644D01*
X30411D01*
Y65624D01*
X30418D01*
Y65603D01*
X30425D01*
Y65583D01*
X30432D01*
Y65563D01*
X30438D01*
Y65535D01*
X30445D01*
Y65515D01*
X30452D01*
Y65495D01*
X30459D01*
Y65474D01*
X30465D01*
Y65454D01*
X30472D01*
Y65434D01*
X30479D01*
Y65413D01*
X30486D01*
Y65393D01*
X30493D01*
Y65373D01*
X30499D01*
Y65352D01*
X30506D01*
Y65325D01*
X30513D01*
Y65305D01*
X30520D01*
Y65284D01*
X30527D01*
Y65264D01*
X30533D01*
Y65244D01*
X30540D01*
Y65223D01*
X30547D01*
Y65203D01*
X30554D01*
Y65183D01*
X30560D01*
Y65162D01*
X30567D01*
Y65135D01*
X30574D01*
Y65115D01*
X30581D01*
Y65095D01*
X30588D01*
Y65067D01*
X30594D01*
Y65054D01*
X30601D01*
Y65034D01*
X30608D01*
Y65013D01*
X30615D01*
Y64993D01*
X30621D01*
Y64966D01*
X30628D01*
Y64952D01*
X30635D01*
Y64925D01*
X30642D01*
Y64905D01*
X30649D01*
Y64884D01*
X30655D01*
Y64864D01*
X30662D01*
Y64844D01*
X30669D01*
Y64823D01*
X30676D01*
Y64803D01*
X30683D01*
Y64783D01*
X30689D01*
Y64755D01*
X30696D01*
Y64735D01*
X30703D01*
Y64715D01*
X30710D01*
Y64694D01*
X30716D01*
Y64674D01*
X30723D01*
Y64654D01*
X30730D01*
Y64633D01*
X30737D01*
Y64613D01*
X30744D01*
Y64593D01*
X30750D01*
Y64566D01*
X30757D01*
Y64545D01*
X30764D01*
Y64525D01*
X30771D01*
Y64504D01*
X30777D01*
Y64484D01*
X30784D01*
Y64464D01*
X30791D01*
Y64443D01*
X30798D01*
Y64423D01*
X30805D01*
Y64403D01*
X30811D01*
Y64382D01*
X30818D01*
Y64355D01*
X30825D01*
Y64335D01*
X30832D01*
Y64315D01*
X30839D01*
Y64294D01*
X30845D01*
Y64274D01*
X30852D01*
Y64254D01*
X30859D01*
Y64233D01*
X30866D01*
Y64206D01*
X30872D01*
Y64192D01*
X30879D01*
Y64165D01*
X30886D01*
Y64145D01*
X30893D01*
Y64125D01*
X30900D01*
Y64104D01*
X30906D01*
Y64084D01*
X30913D01*
Y64064D01*
X30920D01*
Y64043D01*
X30927D01*
Y64023D01*
X30933D01*
Y63996D01*
X30940D01*
Y63975D01*
X30947D01*
Y63955D01*
X30954D01*
Y63935D01*
X30961D01*
Y63914D01*
X30967D01*
Y63894D01*
X30974D01*
Y63874D01*
X30981D01*
Y63847D01*
X30988D01*
Y63833D01*
X30995D01*
Y63806D01*
X31001D01*
Y63786D01*
X31008D01*
Y63765D01*
X31015D01*
Y63745D01*
X31022D01*
Y63725D01*
X31028D01*
Y63704D01*
X31035D01*
Y63684D01*
X31042D01*
Y63663D01*
X31049D01*
Y63643D01*
X31056D01*
Y63616D01*
X31062D01*
Y63596D01*
X31069D01*
Y63575D01*
X31076D01*
Y63555D01*
X31083D01*
Y63535D01*
X31089D01*
Y63514D01*
X31096D01*
Y63494D01*
X31103D01*
Y63474D01*
X31110D01*
Y63446D01*
X31117D01*
Y63433D01*
X31123D01*
Y63406D01*
X31130D01*
Y63385D01*
X31137D01*
Y63365D01*
X31144D01*
Y63345D01*
X31151D01*
Y63324D01*
X31157D01*
Y63304D01*
X31164D01*
Y63284D01*
X31171D01*
Y63257D01*
X31178D01*
Y63236D01*
X31184D01*
Y63216D01*
X31191D01*
Y63195D01*
X31198D01*
Y63175D01*
X31205D01*
Y63155D01*
X31212D01*
Y63134D01*
X31218D01*
Y63114D01*
X31225D01*
Y63094D01*
X31232D01*
Y63073D01*
X31239D01*
Y63046D01*
X31245D01*
Y63026D01*
X31252D01*
Y63006D01*
X31259D01*
Y62985D01*
X31266D01*
Y62965D01*
X31273D01*
Y62945D01*
X31279D01*
Y62924D01*
X31286D01*
Y62897D01*
X31293D01*
Y62883D01*
X31300D01*
Y62856D01*
X31306D01*
Y62836D01*
X31313D01*
Y62816D01*
X31320D01*
Y62795D01*
X31327D01*
Y62775D01*
X31334D01*
Y62755D01*
X31340D01*
Y62734D01*
X31347D01*
Y62714D01*
X31354D01*
Y62687D01*
X31361D01*
Y62666D01*
X31368D01*
Y62646D01*
X31374D01*
Y62626D01*
X31381D01*
Y62605D01*
X31388D01*
Y62585D01*
X31395D01*
Y62565D01*
X31401D01*
Y62544D01*
X31408D01*
Y62524D01*
X31415D01*
Y62504D01*
X31422D01*
Y62477D01*
X31429D01*
Y62456D01*
X31435D01*
Y62436D01*
X31442D01*
Y62416D01*
X31449D01*
Y62395D01*
X31456D01*
Y62375D01*
X31462D01*
Y62354D01*
X31469D01*
Y62327D01*
X31476D01*
Y62314D01*
X31483D01*
Y62287D01*
X31490D01*
Y62266D01*
X31496D01*
Y62246D01*
X31503D01*
Y62226D01*
X31510D01*
Y62205D01*
X31517D01*
Y62178D01*
X31524D01*
Y62171D01*
X31530D01*
Y62165D01*
X32331D01*
Y61853D01*
X32324D01*
Y61846D01*
X31049D01*
Y61859D01*
X31042D01*
Y62158D01*
X31049D01*
Y62165D01*
X31354D01*
Y62171D01*
X31361D01*
Y62192D01*
X31354D01*
Y62219D01*
X31347D01*
Y62232D01*
X31340D01*
Y62259D01*
X31334D01*
Y62280D01*
X31327D01*
Y62300D01*
X31320D01*
Y62321D01*
X31313D01*
Y62341D01*
X31306D01*
Y62361D01*
X31300D01*
Y62388D01*
X31293D01*
Y62409D01*
X31286D01*
Y62429D01*
X31279D01*
Y62449D01*
X31273D01*
Y62470D01*
X31266D01*
Y62490D01*
X31259D01*
Y62510D01*
X31252D01*
Y62538D01*
X31245D01*
Y62558D01*
X31239D01*
Y62578D01*
X31232D01*
Y62599D01*
X31225D01*
Y62619D01*
X31218D01*
Y62639D01*
X31212D01*
Y62660D01*
X31205D01*
Y62687D01*
X31198D01*
Y62707D01*
X31191D01*
Y62727D01*
X31184D01*
Y62748D01*
X31178D01*
Y62768D01*
X31171D01*
Y62789D01*
X31164D01*
Y62809D01*
X31157D01*
Y62836D01*
X31151D01*
Y62850D01*
X31144D01*
Y62877D01*
X31137D01*
Y62897D01*
X31130D01*
Y62917D01*
X31123D01*
Y62938D01*
X31117D01*
Y62958D01*
X31110D01*
Y62985D01*
X31103D01*
Y62999D01*
X31096D01*
Y63026D01*
X31089D01*
Y63046D01*
X31083D01*
Y63067D01*
X31076D01*
Y63087D01*
X31069D01*
Y63107D01*
X31062D01*
Y63128D01*
X31056D01*
Y63155D01*
X31049D01*
Y63175D01*
X31042D01*
Y63195D01*
X31035D01*
Y63216D01*
X31028D01*
Y63236D01*
X31022D01*
Y63257D01*
X31015D01*
Y63277D01*
X31008D01*
Y63304D01*
X31001D01*
Y63324D01*
X30995D01*
Y63345D01*
X30988D01*
Y63365D01*
X30981D01*
Y63385D01*
X30974D01*
Y63406D01*
X30967D01*
Y63433D01*
X30961D01*
Y63453D01*
X30954D01*
Y63474D01*
X30947D01*
Y63494D01*
X30940D01*
Y63514D01*
X30933D01*
Y63535D01*
X30927D01*
Y63555D01*
X30920D01*
Y63575D01*
X30913D01*
Y63602D01*
X30906D01*
Y63623D01*
X30900D01*
Y63643D01*
X30893D01*
Y63663D01*
X30886D01*
Y63684D01*
X30879D01*
Y63711D01*
X30872D01*
Y63725D01*
X30866D01*
Y63752D01*
X30859D01*
Y63772D01*
X30852D01*
Y63792D01*
X30845D01*
Y63813D01*
X30839D01*
Y63833D01*
X30832D01*
Y63853D01*
X30825D01*
Y63874D01*
X30818D01*
Y63901D01*
X30811D01*
Y63921D01*
X30805D01*
Y63942D01*
X30798D01*
Y63962D01*
X30791D01*
Y63982D01*
X30784D01*
Y64003D01*
X30777D01*
Y64023D01*
X30771D01*
Y64050D01*
X30764D01*
Y64070D01*
X30757D01*
Y64084D01*
X30750D01*
Y64111D01*
X30744D01*
Y64131D01*
X30737D01*
Y64152D01*
X30730D01*
Y64172D01*
X30723D01*
Y64199D01*
X30716D01*
Y64220D01*
X30710D01*
Y64240D01*
X30703D01*
Y64260D01*
X30696D01*
Y64281D01*
X30689D01*
Y64301D01*
X30683D01*
Y64328D01*
X30676D01*
Y64348D01*
X30669D01*
Y64369D01*
X30662D01*
Y64389D01*
X30655D01*
Y64410D01*
X30649D01*
Y64430D01*
X30642D01*
Y64450D01*
X30635D01*
Y64477D01*
X30628D01*
Y64498D01*
X30621D01*
Y64518D01*
X30615D01*
Y64538D01*
X30608D01*
Y64559D01*
X30601D01*
Y64579D01*
X30594D01*
Y64599D01*
X30588D01*
Y64627D01*
X30581D01*
Y64640D01*
X30574D01*
Y64667D01*
X30567D01*
Y64688D01*
X30560D01*
Y64708D01*
X30554D01*
Y64728D01*
X30547D01*
Y64749D01*
X30540D01*
Y64776D01*
X30533D01*
Y64789D01*
X30527D01*
Y64816D01*
X30520D01*
Y64837D01*
X30513D01*
Y64857D01*
X30506D01*
Y64878D01*
X30499D01*
Y64898D01*
X30493D01*
Y64918D01*
X30486D01*
Y64945D01*
X30479D01*
Y64966D01*
X30472D01*
Y64986D01*
X30465D01*
Y65006D01*
X30459D01*
Y65027D01*
X30452D01*
Y65047D01*
X30445D01*
Y65067D01*
X30438D01*
Y65095D01*
X30432D01*
Y65115D01*
X30425D01*
Y65135D01*
X30418D01*
Y65156D01*
X30411D01*
Y65176D01*
X30404D01*
Y65196D01*
X30398D01*
Y65223D01*
X30391D01*
Y65244D01*
X30384D01*
Y65264D01*
X30377D01*
Y65284D01*
X30371D01*
Y65305D01*
X30364D01*
Y65325D01*
X30357D01*
Y65346D01*
X30350D01*
Y65366D01*
X30343D01*
Y65393D01*
X30337D01*
Y65413D01*
X30330D01*
Y65434D01*
X30323D01*
Y65454D01*
X30316D01*
Y65474D01*
X30309D01*
Y65495D01*
X30303D01*
Y65515D01*
X30296D01*
Y65542D01*
X30289D01*
Y65563D01*
X30282D01*
Y65583D01*
X30276D01*
Y65603D01*
X30269D01*
Y65624D01*
X30262D01*
Y65644D01*
X30255D01*
Y65664D01*
X30248D01*
Y65685D01*
X30228D01*
Y65671D01*
X30221D01*
Y65664D01*
X30208D01*
Y65658D01*
X30201D01*
Y65651D01*
X30194D01*
Y65644D01*
X30187D01*
Y65637D01*
X30181D01*
Y65630D01*
X30174D01*
Y65624D01*
X30167D01*
Y65617D01*
X30160D01*
Y65610D01*
X30153D01*
Y65603D01*
X30147D01*
Y65596D01*
X30133D01*
Y65590D01*
X30126D01*
Y65583D01*
X30120D01*
Y65576D01*
X30113D01*
Y65569D01*
X30106D01*
Y65563D01*
X30099D01*
Y65556D01*
X30092D01*
Y65549D01*
X30086D01*
Y65542D01*
X30079D01*
Y65535D01*
X30065D01*
Y65529D01*
X30059D01*
Y65522D01*
X30052D01*
Y65515D01*
X30045D01*
Y65508D01*
X30038D01*
Y65502D01*
X30031D01*
Y65495D01*
X30025D01*
Y65488D01*
X30018D01*
Y65481D01*
X30011D01*
Y65474D01*
X30004D01*
Y65468D01*
X29997D01*
Y65461D01*
X29984D01*
Y65454D01*
X29977D01*
Y65447D01*
X29970D01*
Y65440D01*
X29964D01*
Y65434D01*
X29957D01*
Y65427D01*
X29950D01*
Y65420D01*
X29943D01*
Y65413D01*
X29936D01*
Y65407D01*
X29930D01*
Y65400D01*
X29923D01*
Y65393D01*
X29909D01*
Y65386D01*
X29903D01*
Y65379D01*
X29896D01*
Y65373D01*
X29889D01*
Y65366D01*
X29882D01*
Y65359D01*
X29875D01*
Y65352D01*
X29869D01*
Y65346D01*
X29862D01*
Y65339D01*
X29855D01*
Y65332D01*
X29841D01*
Y65325D01*
X29835D01*
Y65318D01*
X29828D01*
Y65312D01*
X29821D01*
Y65305D01*
X29814D01*
Y65298D01*
X29808D01*
Y65291D01*
X29801D01*
Y65284D01*
X29794D01*
Y65278D01*
X29787D01*
Y65271D01*
X29780D01*
Y65264D01*
X29774D01*
Y65257D01*
X29760D01*
Y65251D01*
X29753D01*
Y65244D01*
X29747D01*
Y65237D01*
X29740D01*
Y65230D01*
X29733D01*
Y65223D01*
X29726D01*
Y65217D01*
X29719D01*
Y65210D01*
X29713D01*
Y65203D01*
X29706D01*
Y65196D01*
X29692D01*
Y65190D01*
X29686D01*
Y65183D01*
X29679D01*
Y65176D01*
X29672D01*
Y65169D01*
X29665D01*
Y65162D01*
X29658D01*
Y65156D01*
X29652D01*
Y65149D01*
X29645D01*
Y65142D01*
X29638D01*
Y65135D01*
X29631D01*
Y65128D01*
X29624D01*
Y65122D01*
X29611D01*
Y65115D01*
X29604D01*
Y65108D01*
X29597D01*
Y65101D01*
X29591D01*
Y65095D01*
X29584D01*
Y65088D01*
X29577D01*
Y65081D01*
X29570D01*
Y65074D01*
X29563D01*
Y65067D01*
X29557D01*
Y65061D01*
X29543D01*
Y65047D01*
X29530D01*
Y65040D01*
X29523D01*
Y65034D01*
X29516D01*
Y65027D01*
X29509D01*
Y65020D01*
X29502D01*
Y65013D01*
X29496D01*
Y65006D01*
X29489D01*
Y65000D01*
X29482D01*
Y64993D01*
X29468D01*
Y64986D01*
X29462D01*
Y64979D01*
X29455D01*
Y64972D01*
X29448D01*
Y64966D01*
X29441D01*
Y64959D01*
X29435D01*
Y64952D01*
X29428D01*
Y64945D01*
X29421D01*
Y64939D01*
X29414D01*
Y64932D01*
X29407D01*
Y64925D01*
X29401D01*
Y64918D01*
X29387D01*
Y64911D01*
X29380D01*
Y64905D01*
X29374D01*
Y64898D01*
X29367D01*
Y64891D01*
X29360D01*
Y64884D01*
X29353D01*
Y64878D01*
X29346D01*
Y64871D01*
X29340D01*
Y64864D01*
X29333D01*
Y64857D01*
X29319D01*
Y64850D01*
X29312D01*
Y64844D01*
X29306D01*
Y64837D01*
X29299D01*
Y64830D01*
X29292D01*
Y64823D01*
X29285D01*
Y64816D01*
X29279D01*
Y64810D01*
X29272D01*
Y64803D01*
X29265D01*
Y64796D01*
X29258D01*
Y64789D01*
X29251D01*
Y64783D01*
X29238D01*
Y64776D01*
X29231D01*
Y64769D01*
X29224D01*
Y64762D01*
X29218D01*
Y64755D01*
X29211D01*
Y64749D01*
X29204D01*
Y64742D01*
X29197D01*
Y64735D01*
X29190D01*
Y64728D01*
X29184D01*
Y64722D01*
X29170D01*
Y64715D01*
X29163D01*
Y64708D01*
X29156D01*
Y64701D01*
X29150D01*
Y64694D01*
X29143D01*
Y64688D01*
X29136D01*
Y64681D01*
X29129D01*
Y64674D01*
X29123D01*
Y64667D01*
X29116D01*
Y64660D01*
X29109D01*
Y64654D01*
X29095D01*
Y64647D01*
X29089D01*
Y64640D01*
X29082D01*
Y64633D01*
X29075D01*
Y64627D01*
X29068D01*
Y64620D01*
X29062D01*
Y64613D01*
X29055D01*
Y64606D01*
X29048D01*
Y64599D01*
X29041D01*
Y64593D01*
X29034D01*
Y64586D01*
X29021D01*
Y64579D01*
X29014D01*
Y64572D01*
X29007D01*
Y64566D01*
X29000D01*
Y64559D01*
X28994D01*
Y64552D01*
X28987D01*
Y64545D01*
X28980D01*
Y64538D01*
X28973D01*
Y64532D01*
X28967D01*
Y64525D01*
X28960D01*
Y64518D01*
X28946D01*
Y64511D01*
X28939D01*
Y64504D01*
X28933D01*
Y64498D01*
X28926D01*
Y64491D01*
X28919D01*
Y64484D01*
X28912D01*
Y64477D01*
X28906D01*
Y64471D01*
X28899D01*
Y64464D01*
X28892D01*
Y64457D01*
X28885D01*
Y64450D01*
X28878D01*
Y64443D01*
X28865D01*
Y64437D01*
X28858D01*
Y64430D01*
X28851D01*
Y64423D01*
X28844D01*
Y64416D01*
X28838D01*
Y64410D01*
X28831D01*
Y64403D01*
X28824D01*
Y64396D01*
X28817D01*
Y64389D01*
X28804D01*
Y64382D01*
X28797D01*
Y64376D01*
X28790D01*
Y64369D01*
X28783D01*
Y64362D01*
X28777D01*
Y64355D01*
X28770D01*
Y64348D01*
X28763D01*
Y64342D01*
X28756D01*
Y64335D01*
X28750D01*
Y64328D01*
X28743D01*
Y64321D01*
X28736D01*
Y64315D01*
X28722D01*
Y64308D01*
X28716D01*
Y64301D01*
X28709D01*
Y64294D01*
X28702D01*
Y64287D01*
X28695D01*
Y64281D01*
X28688D01*
Y64274D01*
X28682D01*
Y64267D01*
X28675D01*
Y64260D01*
X28668D01*
Y64254D01*
X28655D01*
Y64247D01*
X28648D01*
Y64240D01*
X28641D01*
Y64233D01*
X28634D01*
Y64226D01*
X28627D01*
Y64220D01*
X28621D01*
Y64213D01*
X28614D01*
Y64206D01*
X28607D01*
Y64199D01*
X28600D01*
Y64192D01*
X28594D01*
Y64186D01*
X28587D01*
Y64179D01*
X28573D01*
Y64172D01*
X28566D01*
Y64165D01*
X28560D01*
Y64159D01*
X28553D01*
Y64152D01*
X28546D01*
Y64145D01*
X28539D01*
Y64138D01*
X28532D01*
Y64131D01*
X28526D01*
Y64125D01*
X28519D01*
Y64118D01*
X28512D01*
Y64111D01*
X28499D01*
Y64104D01*
X28492D01*
Y64098D01*
X28485D01*
Y64077D01*
X28478D01*
Y64064D01*
X28485D01*
Y62029D01*
X28478D01*
Y62015D01*
X28485D01*
Y62009D01*
X28499D01*
Y62002D01*
X28512D01*
Y62009D01*
X29089D01*
Y62002D01*
X29095D01*
Y62009D01*
X29116D01*
Y62002D01*
X29123D01*
Y61690D01*
X29109D01*
Y61683D01*
X29102D01*
Y61690D01*
X28187D01*
Y61683D01*
X28173D01*
Y61690D01*
X28166D01*
Y61697D01*
X28159D01*
Y67292D01*
X28173D01*
Y67299D01*
X28180D01*
Y67292D01*
D02*
G37*
G36*
X32324Y61513D02*
X32331D01*
Y61215D01*
X32324D01*
Y61208D01*
X23676D01*
Y61215D01*
X23670D01*
Y61513D01*
X23676D01*
Y61527D01*
X32324D01*
Y61513D01*
D02*
G37*
%LPC*%
G36*
X67670Y59852D02*
X66602D01*
Y57716D01*
X67670D01*
Y59852D01*
D02*
G37*
%LPD*%
D45*
X89000Y66500D02*
X90700D01*
X15625Y12050D02*
X16133Y11542D01*
X8375Y4800D02*
X8883Y5308D01*
X15625Y4800D02*
Y12050D01*
X15125Y11542D02*
X15633Y12050D01*
X90192Y67008D02*
X90700Y66500D01*
X90192Y66000D02*
X90700Y66508D01*
X8375Y4800D02*
X15625D01*
X8375Y4808D02*
X8883Y4300D01*
D49*
X84896Y59079D02*
Y57880D01*
X84296D01*
X84096Y58080D01*
Y58880D01*
X84296Y59079D01*
X84896D01*
X83097Y57880D02*
X83496D01*
X83696Y58080D01*
Y58480D01*
X83496Y58680D01*
X83097D01*
X82897Y58480D01*
Y58280D01*
X83696D01*
X82497Y57880D02*
X81897D01*
X81697Y58080D01*
X81897Y58280D01*
X82297D01*
X82497Y58480D01*
X82297Y58680D01*
X81697D01*
X81297Y57880D02*
X80897D01*
X81097D01*
Y58680D01*
X81297D01*
X79898Y57480D02*
X79698D01*
X79498Y57680D01*
Y58680D01*
X80097D01*
X80297Y58480D01*
Y58080D01*
X80097Y57880D01*
X79498D01*
X79098D02*
Y58680D01*
X78498D01*
X78298Y58480D01*
Y57880D01*
X77298D02*
X77698D01*
X77898Y58080D01*
Y58480D01*
X77698Y58680D01*
X77298D01*
X77098Y58480D01*
Y58280D01*
X77898D01*
X75899Y59079D02*
Y57880D01*
X76499D01*
X76699Y58080D01*
Y58480D01*
X76499Y58680D01*
X75899D01*
X74299Y59079D02*
Y57880D01*
X73700D01*
X73500Y58080D01*
Y58280D01*
Y58480D01*
X73700Y58680D01*
X74299D01*
X73100D02*
Y58080D01*
X72900Y57880D01*
X72300D01*
Y57680D01*
X72500Y57480D01*
X72700D01*
X72300Y57880D02*
Y58680D01*
X91694Y55320D02*
Y56520D01*
X91094D01*
X90894Y56320D01*
Y55920D01*
X91094Y55720D01*
X91694D01*
X91294D02*
X90894Y55320D01*
X90494Y56120D02*
Y55520D01*
X90294Y55320D01*
X89694D01*
Y56120D01*
X89295Y55320D02*
X88695D01*
X88495Y55520D01*
X88695Y55720D01*
X89095D01*
X89295Y55920D01*
X89095Y56120D01*
X88495D01*
X88095Y55320D02*
X87495D01*
X87295Y55520D01*
X87495Y55720D01*
X87895D01*
X88095Y55920D01*
X87895Y56120D01*
X87295D01*
X86295Y55320D02*
X86695D01*
X86895Y55520D01*
Y55920D01*
X86695Y56120D01*
X86295D01*
X86096Y55920D01*
Y55720D01*
X86895D01*
X85696Y55320D02*
X85296D01*
X85496D01*
Y56520D01*
X85696D01*
X84696Y55320D02*
X84296D01*
X84496D01*
Y56520D01*
X84696D01*
X82497Y55320D02*
Y56520D01*
X82097Y56120D01*
X81697Y56520D01*
Y55320D01*
X81097Y56120D02*
X80697D01*
X80497Y55920D01*
Y55320D01*
X81097D01*
X81297Y55520D01*
X81097Y55720D01*
X80497D01*
X79298Y56120D02*
X79898D01*
X80097Y55920D01*
Y55520D01*
X79898Y55320D01*
X79298D01*
X78098Y56320D02*
X78298Y56520D01*
X78698D01*
X78898Y56320D01*
Y55520D01*
X78698Y55320D01*
X78298D01*
X78098Y55520D01*
Y55920D01*
X78498D01*
X77698Y56120D02*
Y55320D01*
Y55720D01*
X77498Y55920D01*
X77298Y56120D01*
X77098D01*
X75899Y55320D02*
X76299D01*
X76499Y55520D01*
Y55920D01*
X76299Y56120D01*
X75899D01*
X75699Y55920D01*
Y55720D01*
X76499D01*
X74899Y54921D02*
X74699D01*
X74499Y55120D01*
Y56120D01*
X75099D01*
X75299Y55920D01*
Y55520D01*
X75099Y55320D01*
X74499D01*
X73899D02*
X73500D01*
X73300Y55520D01*
Y55920D01*
X73500Y56120D01*
X73899D01*
X74099Y55920D01*
Y55520D01*
X73899Y55320D01*
X72900Y56120D02*
Y55320D01*
Y55720D01*
X72700Y55920D01*
X72500Y56120D01*
X72300D01*
D51*
X39500Y11250D02*
X45500D01*
X39500Y6750D02*
X45500D01*
X39500D02*
Y11250D01*
X45500Y6750D02*
Y11250D01*
X44166Y10250D02*
Y8583D01*
X43333Y7750D01*
X42500Y8583D01*
Y10250D01*
X41667Y7750D02*
X40834D01*
X41250D01*
Y10250D01*
X41667Y9833D01*
D52*
X88000Y65900D02*
Y67100D01*
X87600Y66700D01*
X87200Y67100D01*
Y65900D01*
X86800Y66900D02*
X86600Y67100D01*
X86201D01*
X86001Y66900D01*
Y66700D01*
X86201Y66500D01*
X86401D01*
X86201D01*
X86001Y66300D01*
Y66100D01*
X86201Y65900D01*
X86600D01*
X86800Y66100D01*
X17575Y5126D02*
Y5926D01*
X17375D01*
X16575Y5126D01*
X16375D01*
Y6326D02*
Y6726D01*
Y6526D01*
X17575D01*
X17375Y6326D01*
X16375Y7325D02*
X17175D01*
Y7525D01*
X16975Y7725D01*
X16375D01*
X16975D01*
X17175Y7925D01*
X16975Y8125D01*
X16375D01*
Y8525D02*
X17175D01*
Y8725D01*
X16975Y8925D01*
X16375D01*
X16975D01*
X17175Y9125D01*
X16975Y9325D01*
X16375D01*
X14199Y3300D02*
X13999Y3100D01*
X13599D01*
X13400Y3300D01*
Y4100D01*
X13599Y4300D01*
X13999D01*
X14199Y4100D01*
Y3900D01*
X13999Y3700D01*
X13400D01*
X13000Y3300D02*
X12800Y3100D01*
X12400D01*
X12200Y3300D01*
Y4100D01*
X12400Y4300D01*
X12800D01*
X13000Y4100D01*
Y3900D01*
X12800Y3700D01*
X12200D01*
X11800Y3100D02*
Y3900D01*
X11600D01*
X11400Y3700D01*
Y3100D01*
Y3700D01*
X11200Y3900D01*
X11000Y3700D01*
Y3100D01*
X10600D02*
Y3900D01*
X10401D01*
X10201Y3700D01*
Y3100D01*
Y3700D01*
X10001Y3900D01*
X9801Y3700D01*
Y3100D01*
X14875Y6750D02*
Y5550D01*
X14275D01*
X14075Y5750D01*
Y6550D01*
X14275Y6750D01*
X14875D01*
X13675Y5550D02*
X13276D01*
X13475D01*
Y6350D01*
X13675D01*
X12676Y5550D02*
Y6350D01*
X12476D01*
X12276Y6150D01*
Y5550D01*
Y6150D01*
X12076Y6350D01*
X11876Y6150D01*
Y5550D01*
X14875Y8550D02*
Y7350D01*
X14275D01*
X14075Y7550D01*
Y7750D01*
X14275Y7950D01*
X14875D01*
X14275D01*
X14075Y8150D01*
Y8350D01*
X14275Y8550D01*
X14875D01*
X13475Y7350D02*
X13076D01*
X12876Y7550D01*
Y7950D01*
X13076Y8150D01*
X13475D01*
X13675Y7950D01*
Y7550D01*
X13475Y7350D01*
X12276Y8150D02*
X11876D01*
X11676Y7950D01*
Y7350D01*
X12276D01*
X12476Y7550D01*
X12276Y7750D01*
X11676D01*
X11276Y8150D02*
Y7350D01*
Y7750D01*
X11076Y7950D01*
X10876Y8150D01*
X10676D01*
X9277Y8550D02*
Y7350D01*
X9877D01*
X10077Y7550D01*
Y7950D01*
X9877Y8150D01*
X9277D01*
D53*
X67492Y13500D02*
Y16500D01*
X65992D01*
X65493Y16000D01*
Y15000D01*
X65992Y14500D01*
X67492D01*
X66492D02*
X65493Y13500D01*
X63993D02*
X62993D01*
X62494Y14000D01*
Y15000D01*
X62993Y15500D01*
X63993D01*
X64493Y15000D01*
Y14000D01*
X63993Y13500D01*
X61494Y15500D02*
X60494Y13500D01*
X59494Y15500D01*
X56995Y13500D02*
X57995D01*
X58495Y14000D01*
Y15000D01*
X57995Y15500D01*
X56995D01*
X56495Y15000D01*
Y14500D01*
X58495D01*
X55496Y15500D02*
Y13500D01*
Y14500D01*
X54996Y15000D01*
X54496Y15500D01*
X53996D01*
X49498Y13500D02*
Y16500D01*
X47998D01*
X47498Y16000D01*
Y15000D01*
X47998Y14500D01*
X49498D01*
X45999Y13500D02*
X44999D01*
X44499Y14000D01*
Y15000D01*
X44999Y15500D01*
X45999D01*
X46499Y15000D01*
Y14000D01*
X45999Y13500D01*
X43500Y15500D02*
Y14000D01*
X43000Y13500D01*
X42500Y14000D01*
X42000Y13500D01*
X41500Y14000D01*
Y15500D01*
X39001Y13500D02*
X40001D01*
X40501Y14000D01*
Y15000D01*
X40001Y15500D01*
X39001D01*
X38501Y15000D01*
Y14500D01*
X40501D01*
X37502Y15500D02*
Y13500D01*
Y14500D01*
X37002Y15000D01*
X36502Y15500D01*
X36002D01*
X31504Y16500D02*
Y13500D01*
X30004D01*
X29504Y14000D01*
Y14500D01*
X30004Y15000D01*
X31504D01*
X30004D01*
X29504Y15500D01*
Y16000D01*
X30004Y16500D01*
X31504D01*
X28005Y13500D02*
X27005D01*
X26505Y14000D01*
Y15000D01*
X27005Y15500D01*
X28005D01*
X28505Y15000D01*
Y14000D01*
X28005Y13500D01*
X25006Y15500D02*
X24006D01*
X23506Y15000D01*
Y13500D01*
X25006D01*
X25506Y14000D01*
X25006Y14500D01*
X23506D01*
X22506Y15500D02*
Y13500D01*
Y14500D01*
X22007Y15000D01*
X21507Y15500D01*
X21007D01*
X17508Y16500D02*
Y13500D01*
X19008D01*
X19507Y14000D01*
Y15000D01*
X19008Y15500D01*
X17508D01*
%TF.MD5,74bebeeea2a649a2548e49218580b4ce*%
M02*
