%TF.GenerationSoftware,Altium Limited,Altium Designer,25.2.1 (25)*%
G04 Layer_Color=16711833*
%FSLAX43Y43*%
%MOMM*%
%TF.SameCoordinates,F200B209-1327-4569-A0A9-47A55D8EC772*%
%TF.FilePolarity,Positive*%
%TF.FileFunction,Other,Mechanical_13*%
%TF.Part,Single*%
G01*
G75*
%TA.AperFunction,NonConductor*%
%ADD50C,0.100*%
D50*
X3875Y9500D02*
Y11500D01*
X5125D01*
Y9500D02*
Y11500D01*
X3875Y9500D02*
X5125D01*
X44875D02*
Y11500D01*
X46125D01*
Y9500D02*
Y11500D01*
X44875Y9500D02*
X46125D01*
X10105Y460D02*
Y5540D01*
X27895D01*
Y460D02*
Y5540D01*
X10105Y460D02*
X27895D01*
X39683Y438D02*
Y7042D01*
X32317D02*
X39683D01*
X32317Y438D02*
Y7042D01*
Y438D02*
X39683D01*
X33200Y15170D02*
Y17170D01*
Y15170D02*
X34800D01*
Y17170D01*
X33200D02*
X34800D01*
X32150Y15345D02*
Y16945D01*
X31350Y15345D02*
X32150D01*
X31350D02*
Y16945D01*
X32150D01*
X26475Y33600D02*
Y34400D01*
X24875D02*
X26475D01*
X24875Y33600D02*
Y34400D01*
Y33600D02*
X26475D01*
X25100Y25800D02*
X25900D01*
X25100Y24200D02*
Y25800D01*
Y24200D02*
X25900D01*
Y25800D01*
X25100Y21450D02*
Y23050D01*
X25900D01*
Y21450D02*
Y23050D01*
X25100Y21450D02*
X25900D01*
X26475Y35100D02*
Y35900D01*
X24875D02*
X26475D01*
X24875Y35100D02*
Y35900D01*
Y35100D02*
X26475D01*
X24600Y36950D02*
Y38550D01*
X25400D01*
Y36950D02*
Y38550D01*
X24600Y36950D02*
X25400D01*
X26475Y39600D02*
Y40400D01*
X24875D02*
X26475D01*
X24875Y39600D02*
Y40400D01*
Y39600D02*
X26475D01*
X28200Y20400D02*
X29800D01*
Y19600D02*
Y20400D01*
X28200Y19600D02*
X29800D01*
X28200D02*
Y20400D01*
X24500Y13500D02*
X25000Y13000D01*
X24500D02*
X28500D01*
Y17000D01*
X24500D02*
X28500D01*
X24500Y13000D02*
Y17000D01*
X25375Y26850D02*
Y27650D01*
Y26850D02*
X26975D01*
Y27650D01*
X25375D02*
X26975D01*
X25375Y19600D02*
X26975D01*
X25375D02*
Y20400D01*
X26975D01*
Y19600D02*
Y20400D01*
X20200Y15100D02*
Y15900D01*
Y15100D02*
X21800D01*
Y15900D01*
X20200D02*
X21800D01*
X34800Y11850D02*
Y12650D01*
X33200D02*
X34800D01*
X33200Y11850D02*
Y12650D01*
Y11850D02*
X34800D01*
X20200Y13600D02*
Y14400D01*
Y13600D02*
X21800D01*
Y14400D01*
X20200D02*
X21800D01*
X20200Y17400D02*
X21800D01*
Y16600D02*
Y17400D01*
X20200Y16600D02*
X21800D01*
X20200D02*
Y17400D01*
X30850Y21475D02*
X31650D01*
X30850Y19875D02*
Y21475D01*
Y19875D02*
X31650D01*
Y21475D01*
X32350D02*
X33150D01*
X32350Y19875D02*
Y21475D01*
Y19875D02*
X33150D01*
Y21475D01*
X33200Y18100D02*
Y18900D01*
Y18100D02*
X34800D01*
Y18900D01*
X33200D02*
X34800D01*
X33200Y13350D02*
Y14150D01*
Y13350D02*
X34800D01*
Y14150D01*
X33200D02*
X34800D01*
X22500Y56600D02*
X27575D01*
X22425Y56200D02*
X27575Y56600D01*
X22425Y56200D02*
X27500D01*
X22150Y55800D02*
X27500Y56200D01*
X22150Y55800D02*
X27850D01*
X22500Y55400D02*
X27850Y55800D01*
X22500Y55400D02*
X27575D01*
X22150Y55000D02*
X27575Y55400D01*
X22150Y55000D02*
X27850D01*
X22500Y54600D02*
X27850Y55000D01*
X22500Y54600D02*
X27500D01*
X22150Y54200D02*
X27500Y54600D01*
X22150Y54200D02*
X27850D01*
X22500Y53800D02*
X27850Y54200D01*
X22500Y53800D02*
X27575D01*
X22150Y53400D02*
X27575Y53800D01*
X22150Y53400D02*
X27850D01*
X22500Y53000D02*
X27850Y53400D01*
X22500Y53000D02*
X27575D01*
X22150Y52600D02*
X27575Y53000D01*
X22150Y52600D02*
X27850D01*
X22500Y52200D02*
X27850Y52600D01*
X22500Y52200D02*
X27500D01*
X22150Y51800D02*
X27500Y52200D01*
X22150Y51800D02*
X27850D01*
X22500Y51500D02*
X27850Y51800D01*
X22500Y51500D02*
X27500Y51400D01*
Y49000D02*
Y51500D01*
X27850Y51800D01*
X27500Y52200D02*
X27850Y51800D01*
X27500Y52200D02*
X27850Y52600D01*
X27575Y53000D02*
X27850Y52600D01*
X27575Y53000D02*
X27850Y53400D01*
X27500Y53800D02*
X27850Y53400D01*
X27500Y53800D02*
X27850Y54200D01*
X27500Y54600D02*
X27850Y54200D01*
X27500Y54600D02*
X27850Y55000D01*
X27500Y55400D02*
X27850Y55000D01*
X27500Y55400D02*
X27850Y55800D01*
X27500Y56200D02*
X27850Y55800D01*
X27500Y56200D02*
X27850Y56600D01*
X27500D02*
X27850D01*
X27500D02*
Y57100D01*
X22500D02*
X27500D01*
X22500Y56600D02*
Y57100D01*
X22150Y56600D02*
X22500D01*
X22150D02*
X22500Y56200D01*
X22150Y55800D02*
X22500Y56200D01*
X22150Y55800D02*
X22500Y55400D01*
X22150Y55000D02*
X22500Y55400D01*
X22150Y55000D02*
X22500Y54600D01*
X22150Y54200D02*
X22500Y54600D01*
X22150Y54200D02*
X22500Y53800D01*
X22150Y53400D02*
X22500Y53800D01*
X22150Y53400D02*
X22500Y53000D01*
X22150Y52600D02*
X22500Y53000D01*
X22150Y52600D02*
X22500Y52200D01*
X22150Y51800D02*
X22500Y52200D01*
X22150Y51800D02*
X22425Y51500D01*
Y49000D02*
Y51500D01*
X21500Y42000D02*
Y49000D01*
Y42000D02*
X28500D01*
Y49000D01*
X21500D02*
X28500D01*
X23250Y29500D02*
X23750Y29000D01*
X23250D02*
X26250D01*
Y32000D01*
X23250D02*
X26250D01*
X23250Y29000D02*
Y32000D01*
X28450Y29100D02*
X30050D01*
X28450D02*
Y29900D01*
X30050D01*
Y29100D02*
Y29900D01*
X28450Y30600D02*
X30050D01*
X28450D02*
Y31400D01*
X30050D01*
Y30600D02*
Y31400D01*
X19450Y29100D02*
Y29900D01*
Y29100D02*
X21050D01*
Y29900D01*
X19450D02*
X21050D01*
X19450Y30600D02*
Y31400D01*
Y30600D02*
X21050D01*
Y31400D01*
X19450D02*
X21050D01*
%TF.MD5,c14e2cd6e3546c9f5384a5ed742068b5*%
M02*
