M48
;Layer_Color=9474304
;FILE_FORMAT=4:3
METRIC,LZ
;TYPE=PLATED
T01F00S00C0.300
T02F00S00C1.100
T03F00S00C1.150
T04F00S00C1.400
T05F00S00C1.600
T06F00S00C3.500
%
T01
X0006Y00114
X002025Y001275
X002175
X002675Y001075
X002875
X003025Y001375
X00345Y0011
X0044Y00114
X003025Y001475
X00265Y0015
X0023Y001475
Y0016
Y0018
X0021Y002825
X00195
X0022445Y0032086
X0022334Y0034942
X0022318Y0035896
X0022437Y0041068
X0021589Y0044717
Y0045671
X002417Y0048911
X0025124
X0028411Y0045952
Y0044999
X0027679Y0040426
X0027676Y0037756
X0027711Y0036803
X0027555Y003204
X002475Y00305
X002825Y002725
X003Y002825
X00345Y002125
T02
X001265Y0003
X001519
X001773
X002027
X002281
X002535
T03
X003473Y00045
X003727
T04
X0025Y00455
T05
X0022425Y0042925
Y0048075
X0027575
Y0042925
T06
X00045Y00045
X00455
Y00455
X00045
M30
