%TF.GenerationSoftware,Altium Limited,Altium Designer,25.2.1 (25)*%
G04 Layer_Color=16711935*
%FSLAX43Y43*%
%MOMM*%
%TF.SameCoordinates,F200B209-1327-4569-A0A9-47A55D8EC772*%
%TF.FilePolarity,Negative*%
%TF.FileFunction,Soldermask,Bot*%
%TF.Part,Single*%
G01*
G75*
%TA.AperFunction,ComponentPad*%
%ADD44C,6.150*%
%ADD45C,2.150*%
%ADD46C,1.875*%
%ADD47C,2.550*%
%ADD48R,2.250X2.250*%
%TA.AperFunction,ViaPad*%
%ADD49C,0.850*%
D44*
X45500Y4500D02*
D03*
Y45500D02*
D03*
X4500D02*
D03*
Y4500D02*
D03*
D45*
X12650Y3000D02*
D03*
X15190D02*
D03*
X17730D02*
D03*
X20270D02*
D03*
X22810D02*
D03*
X25350D02*
D03*
D46*
X37270Y4500D02*
D03*
X34730D02*
D03*
D47*
X22425Y48075D02*
D03*
X27575D02*
D03*
Y42925D02*
D03*
X22425D02*
D03*
D48*
X25000Y45500D02*
D03*
D49*
X6000Y11400D02*
D03*
X44000D02*
D03*
X23000Y14750D02*
D03*
X25124Y48911D02*
D03*
X24170D02*
D03*
X21589Y45671D02*
D03*
Y44717D02*
D03*
X22437Y41068D02*
D03*
X27679Y40426D02*
D03*
X28411Y44999D02*
D03*
Y45952D02*
D03*
X22318Y35896D02*
D03*
X22334Y34942D02*
D03*
X22445Y32086D02*
D03*
X27555Y32040D02*
D03*
X27711Y36803D02*
D03*
X27676Y37756D02*
D03*
X21000Y28250D02*
D03*
X19500D02*
D03*
X24750Y30500D02*
D03*
X30000Y28250D02*
D03*
X28250Y27250D02*
D03*
X34500Y11000D02*
D03*
Y21250D02*
D03*
X30250Y13750D02*
D03*
Y14750D02*
D03*
X23000Y18000D02*
D03*
Y16000D02*
D03*
X21750Y12750D02*
D03*
X20250D02*
D03*
X26500Y15000D02*
D03*
X28750Y10750D02*
D03*
X26750D02*
D03*
%TF.MD5,f34e91388d8b2000b1aa106b17640954*%
M02*
