%TF.GenerationSoftware,Altium Limited,Altium Designer,25.2.1 (25)*%
G04 Layer_Color=8421504*
%FSLAX43Y43*%
%MOMM*%
%TF.SameCoordinates,F200B209-1327-4569-A0A9-47A55D8EC772*%
%TF.FilePolarity,Positive*%
%TF.FileFunction,Paste,Top*%
%TF.Part,Single*%
G01*
G75*
%TA.AperFunction,SMDPad,CuDef*%
%ADD11R,1.250X0.600*%
%ADD12R,0.650X0.750*%
%ADD13R,0.700X0.650*%
%ADD14R,0.650X0.700*%
%ADD15R,2.700X2.700*%
%ADD16R,0.850X0.300*%
%ADD17R,0.300X0.850*%
%ADD18R,1.750X1.750*%
%ADD19R,0.800X0.300*%
%ADD20R,0.300X0.800*%
G36*
X4500Y7500D02*
X1500Y4500D01*
X4500Y1500D01*
X7500Y4500D01*
X4500Y7500D01*
D02*
G37*
G36*
Y48500D02*
X1500Y45500D01*
X4500Y42500D01*
X7500Y45500D01*
X4500Y48500D01*
D02*
G37*
G36*
X45500Y7500D02*
X42500Y4500D01*
X45500Y1500D01*
X48500Y4500D01*
X45500Y7500D01*
D02*
G37*
G36*
Y48500D02*
X42500Y45500D01*
X45500Y42500D01*
X48500Y45500D01*
X45500Y48500D01*
D02*
G37*
D11*
X4500Y9600D02*
D03*
Y11400D02*
D03*
X45500Y9600D02*
D03*
Y11400D02*
D03*
D12*
X33500Y16820D02*
D03*
Y15520D02*
D03*
X34500D02*
D03*
Y16820D02*
D03*
D13*
X31750D02*
D03*
Y15470D02*
D03*
X25500Y24325D02*
D03*
Y25675D02*
D03*
Y21575D02*
D03*
Y22925D02*
D03*
X25000Y37075D02*
D03*
Y38425D02*
D03*
X31250Y20000D02*
D03*
Y21350D02*
D03*
X32750Y20000D02*
D03*
Y21350D02*
D03*
D14*
X25000Y34000D02*
D03*
X26350D02*
D03*
X25000Y35500D02*
D03*
X26350D02*
D03*
X25000Y40000D02*
D03*
X26350D02*
D03*
X28325Y20000D02*
D03*
X29675D02*
D03*
X26850Y27250D02*
D03*
X25500D02*
D03*
X26850Y20000D02*
D03*
X25500D02*
D03*
X21675Y15500D02*
D03*
X20325D02*
D03*
X33325Y12250D02*
D03*
X34675D02*
D03*
X21675Y14000D02*
D03*
X20325D02*
D03*
Y17000D02*
D03*
X21675D02*
D03*
X34675Y18500D02*
D03*
X33325D02*
D03*
X34675Y13750D02*
D03*
X33325D02*
D03*
X29925Y29500D02*
D03*
X28575D02*
D03*
X29925Y31000D02*
D03*
X28575D02*
D03*
X20925Y29500D02*
D03*
X19575D02*
D03*
X20925Y31000D02*
D03*
X19575D02*
D03*
D15*
X26500Y15000D02*
D03*
D16*
X24550Y14000D02*
D03*
Y14500D02*
D03*
Y15000D02*
D03*
Y15500D02*
D03*
Y16000D02*
D03*
X28450D02*
D03*
Y15500D02*
D03*
Y15000D02*
D03*
Y14500D02*
D03*
Y14000D02*
D03*
D17*
X25500Y16950D02*
D03*
X26000D02*
D03*
X26500D02*
D03*
X27000D02*
D03*
X27500D02*
D03*
Y13050D02*
D03*
X27000D02*
D03*
X26500D02*
D03*
X26000D02*
D03*
X25500D02*
D03*
D18*
X24750Y30500D02*
D03*
D19*
X23250Y29750D02*
D03*
Y30250D02*
D03*
Y30750D02*
D03*
Y31250D02*
D03*
X26250D02*
D03*
Y30750D02*
D03*
Y30250D02*
D03*
Y29750D02*
D03*
D20*
X24000Y32000D02*
D03*
X24500D02*
D03*
X25000D02*
D03*
X25500D02*
D03*
Y29000D02*
D03*
X25000D02*
D03*
X24500D02*
D03*
X24000D02*
D03*
%TF.MD5,90cd79b1d8978e273506f9d98f61ef26*%
M02*
