%TF.GenerationSoftware,Altium Limited,Altium Designer,25.2.1 (25)*%
G04 Layer_Color=8388736*
%FSLAX43Y43*%
%MOMM*%
%TF.SameCoordinates,3E8C3AF6-32D8-460F-991F-00D2D819B343*%
%TF.FilePolarity,Negative*%
%TF.FileFunction,Soldermask,Top*%
%TF.Part,Single*%
G01*
G75*
%TA.AperFunction,SMDPad,CuDef*%
G04:AMPARAMS|DCode=49|XSize=1.46mm|YSize=0.64mm|CornerRadius=0.136mm|HoleSize=0mm|Usage=FLASHONLY|Rotation=180.000|XOffset=0mm|YOffset=0mm|HoleType=Round|Shape=RoundedRectangle|*
%AMROUNDEDRECTD49*
21,1,1.460,0.368,0,0,180.0*
21,1,1.188,0.640,0,0,180.0*
1,1,0.273,-0.594,0.184*
1,1,0.273,0.594,0.184*
1,1,0.273,0.594,-0.184*
1,1,0.273,-0.594,-0.184*
%
%ADD49ROUNDEDRECTD49*%
%ADD50R,1.750X3.650*%
%ADD51R,1.400X0.750*%
%ADD52R,3.650X1.750*%
%ADD53R,0.850X0.800*%
G04:AMPARAMS|DCode=54|XSize=1.05mm|YSize=0.45mm|CornerRadius=0.15mm|HoleSize=0mm|Usage=FLASHONLY|Rotation=0.000|XOffset=0mm|YOffset=0mm|HoleType=Round|Shape=RoundedRectangle|*
%AMROUNDEDRECTD54*
21,1,1.050,0.150,0,0,0.0*
21,1,0.750,0.450,0,0,0.0*
1,1,0.300,0.375,-0.075*
1,1,0.300,-0.375,-0.075*
1,1,0.300,-0.375,0.075*
1,1,0.300,0.375,0.075*
%
%ADD54ROUNDEDRECTD54*%
G04:AMPARAMS|DCode=55|XSize=1.7mm|YSize=0.4mm|CornerRadius=0.138mm|HoleSize=0mm|Usage=FLASHONLY|Rotation=0.000|XOffset=0mm|YOffset=0mm|HoleType=Round|Shape=RoundedRectangle|*
%AMROUNDEDRECTD55*
21,1,1.700,0.125,0,0,0.0*
21,1,1.425,0.400,0,0,0.0*
1,1,0.275,0.713,-0.063*
1,1,0.275,-0.713,-0.063*
1,1,0.275,-0.713,0.063*
1,1,0.275,0.713,0.063*
%
%ADD55ROUNDEDRECTD55*%
G04:AMPARAMS|DCode=56|XSize=1.05mm|YSize=0.45mm|CornerRadius=0.15mm|HoleSize=0mm|Usage=FLASHONLY|Rotation=90.000|XOffset=0mm|YOffset=0mm|HoleType=Round|Shape=RoundedRectangle|*
%AMROUNDEDRECTD56*
21,1,1.050,0.150,0,0,90.0*
21,1,0.750,0.450,0,0,90.0*
1,1,0.300,0.075,0.375*
1,1,0.300,0.075,-0.375*
1,1,0.300,-0.075,-0.375*
1,1,0.300,-0.075,0.375*
%
%ADD56ROUNDEDRECTD56*%
%ADD57R,0.800X0.850*%
%ADD58R,0.750X1.400*%
%ADD59R,2.650X3.350*%
%TA.AperFunction,ComponentPad*%
%ADD60C,1.875*%
%ADD61C,3.400*%
%ADD62C,2.150*%
%ADD63C,1.475*%
%ADD64C,2.550*%
%ADD65C,6.150*%
%TA.AperFunction,ViaPad*%
%ADD66C,0.850*%
G36*
X60480Y38750D02*
X60486Y38749D01*
X60486Y38749D01*
X60486Y38749D01*
X60492Y38748D01*
X60498Y38747D01*
X60498Y38747D01*
X60498Y38747D01*
X60503Y38744D01*
X60509Y38742D01*
X60509Y38742D01*
X60509Y38742D01*
X60514Y38739D01*
X60519Y38736D01*
X60519Y38736D01*
X60519Y38736D01*
X60524Y38732D01*
X60528Y38728D01*
X60528Y38728D01*
X60528Y38728D01*
X60532Y38723D01*
X60535Y38719D01*
X60535Y38719D01*
X60535Y38719D01*
X60539Y38714D01*
X60541Y38709D01*
X60541Y38709D01*
X60542Y38709D01*
X60544Y38704D01*
X60546Y38698D01*
X60546Y38698D01*
X60546Y38698D01*
X60547Y38693D01*
X60549Y38687D01*
X60549Y38687D01*
X60549Y38687D01*
X60549Y38681D01*
X60550Y38675D01*
X60550Y38425D01*
X60550Y38425D01*
X60550Y38425D01*
X60550Y38419D01*
X60549Y38413D01*
X60549Y38413D01*
X60549Y38413D01*
X60548Y38407D01*
X60547Y38402D01*
X60547Y38402D01*
X60547Y38402D01*
X60544Y38396D01*
X60542Y38391D01*
X60542Y38391D01*
X60542Y38391D01*
X60539Y38386D01*
X60536Y38381D01*
X60536Y38381D01*
X60536Y38381D01*
X60532Y38376D01*
X60528Y38372D01*
X60528Y38372D01*
X60528Y38372D01*
X60524Y38368D01*
X60519Y38364D01*
X60519Y38364D01*
X60519Y38364D01*
X60514Y38361D01*
X60509Y38358D01*
X60509Y38358D01*
X60509Y38358D01*
X60504Y38356D01*
X60498Y38354D01*
X60498Y38353D01*
X60498Y38353D01*
X60493Y38352D01*
X60487Y38351D01*
X60487Y38351D01*
X60487Y38351D01*
X60481Y38350D01*
X60475Y38350D01*
X60475Y38350D01*
X60475Y38350D01*
X59975D01*
Y37800D01*
X59974Y37788D01*
X59972Y37777D01*
X59967Y37766D01*
X59961Y37756D01*
X59953Y37747D01*
X59944Y37739D01*
X59934Y37733D01*
X59923Y37728D01*
X59912Y37726D01*
X59900Y37725D01*
X59450D01*
X59438Y37726D01*
X59427Y37728D01*
X59416Y37733D01*
X59406Y37739D01*
X59397Y37747D01*
X59389Y37756D01*
X59383Y37766D01*
X59378Y37777D01*
X59376Y37788D01*
X59375Y37800D01*
Y38350D01*
X58925D01*
X58913Y38351D01*
X58902Y38353D01*
X58891Y38358D01*
X58881Y38364D01*
X58872Y38372D01*
X58864Y38381D01*
X58858Y38391D01*
X58853Y38402D01*
X58851Y38413D01*
X58850Y38425D01*
Y38675D01*
X58851Y38687D01*
X58853Y38698D01*
X58858Y38709D01*
X58864Y38719D01*
X58872Y38728D01*
X58881Y38736D01*
X58891Y38742D01*
X58902Y38747D01*
X58913Y38749D01*
X58925Y38750D01*
X60474D01*
X60480Y38750D01*
D02*
G37*
G36*
X61312Y39799D02*
X61323Y39797D01*
X61334Y39792D01*
X61344Y39786D01*
X61353Y39778D01*
X61361Y39769D01*
X61367Y39759D01*
X61372Y39748D01*
X61374Y39737D01*
X61375Y39725D01*
Y37800D01*
X61374Y37788D01*
X61372Y37777D01*
X61367Y37766D01*
X61361Y37756D01*
X61353Y37747D01*
X61344Y37739D01*
X61334Y37733D01*
X61323Y37728D01*
X61312Y37726D01*
X61300Y37725D01*
X60700D01*
X60688Y37726D01*
X60677Y37728D01*
X60666Y37733D01*
X60656Y37739D01*
X60647Y37747D01*
X60639Y37756D01*
X60633Y37766D01*
X60628Y37777D01*
X60626Y37788D01*
X60625Y37800D01*
Y39725D01*
X60626Y39737D01*
X60628Y39748D01*
X60633Y39759D01*
X60639Y39769D01*
X60647Y39778D01*
X60656Y39786D01*
X60666Y39792D01*
X60677Y39797D01*
X60688Y39799D01*
X60700Y39800D01*
X61300D01*
X61312Y39799D01*
D02*
G37*
G36*
X63087Y38749D02*
X63098Y38747D01*
X63109Y38742D01*
X63119Y38736D01*
X63128Y38728D01*
X63136Y38719D01*
X63142Y38709D01*
X63147Y38698D01*
X63149Y38687D01*
X63150Y38675D01*
Y38425D01*
X63149Y38413D01*
X63147Y38402D01*
X63142Y38391D01*
X63136Y38381D01*
X63128Y38372D01*
X63119Y38364D01*
X63109Y38358D01*
X63098Y38353D01*
X63087Y38351D01*
X63075Y38350D01*
X62625D01*
Y37800D01*
X62624Y37788D01*
X62622Y37777D01*
X62617Y37766D01*
X62611Y37756D01*
X62603Y37747D01*
X62594Y37739D01*
X62584Y37733D01*
X62573Y37728D01*
X62562Y37726D01*
X62550Y37725D01*
X62100D01*
X62088Y37726D01*
X62077Y37728D01*
X62066Y37733D01*
X62056Y37739D01*
X62047Y37747D01*
X62039Y37756D01*
X62033Y37766D01*
X62028Y37777D01*
X62026Y37788D01*
X62025Y37800D01*
Y38350D01*
X61525D01*
X61525Y38350D01*
X61525Y38350D01*
X61519Y38350D01*
X61513Y38351D01*
X61513Y38351D01*
X61513Y38351D01*
X61507Y38352D01*
X61502Y38353D01*
X61502Y38353D01*
X61502Y38354D01*
X61496Y38356D01*
X61491Y38358D01*
X61491Y38358D01*
X61491Y38358D01*
X61486Y38361D01*
X61481Y38364D01*
X61481Y38364D01*
X61481Y38364D01*
X61476Y38368D01*
X61472Y38372D01*
X61472Y38372D01*
X61472Y38372D01*
X61468Y38376D01*
X61464Y38381D01*
X61464Y38381D01*
X61464Y38381D01*
X61461Y38386D01*
X61458Y38391D01*
X61458Y38391D01*
X61458Y38391D01*
X61456Y38396D01*
X61453Y38402D01*
X61453Y38402D01*
X61453Y38402D01*
X61452Y38407D01*
X61451Y38413D01*
X61451Y38413D01*
X61451Y38413D01*
X61450Y38419D01*
X61450Y38425D01*
X61450Y38425D01*
X61450Y38425D01*
X61450Y38675D01*
X61451Y38681D01*
X61451Y38687D01*
X61451Y38687D01*
X61451Y38687D01*
X61453Y38693D01*
X61454Y38698D01*
X61454Y38698D01*
X61454Y38698D01*
X61456Y38704D01*
X61458Y38709D01*
X61459Y38709D01*
X61459Y38709D01*
X61461Y38714D01*
X61465Y38719D01*
X61465Y38719D01*
X61465Y38719D01*
X61468Y38723D01*
X61472Y38728D01*
X61472Y38728D01*
X61472Y38728D01*
X61476Y38732D01*
X61481Y38736D01*
X61481Y38736D01*
X61481Y38736D01*
X61486Y38739D01*
X61491Y38742D01*
X61491Y38742D01*
X61491Y38742D01*
X61497Y38744D01*
X61502Y38747D01*
X61502Y38747D01*
X61502Y38747D01*
X61508Y38748D01*
X61514Y38749D01*
X61514Y38749D01*
X61514Y38749D01*
X61520Y38750D01*
X61526Y38750D01*
X63075D01*
X63087Y38749D01*
D02*
G37*
G36*
X59937Y42274D02*
X59948Y42272D01*
X59959Y42267D01*
X59969Y42261D01*
X59978Y42253D01*
X59986Y42244D01*
X59992Y42234D01*
X59997Y42223D01*
X59999Y42212D01*
X60000Y42200D01*
Y41300D01*
X59999Y41288D01*
X59997Y41277D01*
X59992Y41266D01*
X59986Y41256D01*
X59978Y41247D01*
X59969Y41239D01*
X59959Y41233D01*
X59948Y41228D01*
X59937Y41226D01*
X59925Y41225D01*
X58950D01*
X58938Y41226D01*
X58927Y41228D01*
X58916Y41233D01*
X58906Y41239D01*
X58897Y41247D01*
X58889Y41256D01*
X58883Y41266D01*
X58878Y41277D01*
X58876Y41288D01*
X58875Y41300D01*
X58875Y41650D01*
X58876Y41662D01*
X58878Y41673D01*
X58883Y41684D01*
X58889Y41694D01*
X58897Y41703D01*
X58906Y41711D01*
X58916Y41717D01*
X58927Y41722D01*
X58938Y41724D01*
X58950Y41725D01*
X59400D01*
Y42200D01*
X59401Y42212D01*
X59403Y42223D01*
X59408Y42234D01*
X59414Y42244D01*
X59422Y42253D01*
X59431Y42261D01*
X59441Y42267D01*
X59452Y42272D01*
X59463Y42274D01*
X59475Y42275D01*
X59925D01*
X59937Y42274D01*
D02*
G37*
G36*
X62537D02*
X62548Y42272D01*
X62559Y42267D01*
X62569Y42261D01*
X62578Y42253D01*
X62586Y42244D01*
X62592Y42234D01*
X62596Y42223D01*
X62599Y42212D01*
X62600Y42200D01*
Y41725D01*
X63050D01*
X63062Y41724D01*
X63073Y41722D01*
X63084Y41717D01*
X63094Y41711D01*
X63103Y41703D01*
X63111Y41694D01*
X63117Y41684D01*
X63121Y41673D01*
X63124Y41662D01*
X63125Y41650D01*
X63125Y41300D01*
X63124Y41288D01*
X63121Y41277D01*
X63117Y41266D01*
X63111Y41256D01*
X63103Y41247D01*
X63094Y41239D01*
X63084Y41233D01*
X63073Y41228D01*
X63062Y41226D01*
X63050Y41225D01*
X62075D01*
X62063Y41226D01*
X62052Y41228D01*
X62041Y41233D01*
X62031Y41239D01*
X62022Y41247D01*
X62014Y41256D01*
X62008Y41266D01*
X62003Y41277D01*
X62001Y41288D01*
X62000Y41300D01*
Y42200D01*
X62001Y42212D01*
X62003Y42223D01*
X62008Y42234D01*
X62014Y42244D01*
X62022Y42253D01*
X62031Y42261D01*
X62041Y42267D01*
X62052Y42272D01*
X62063Y42274D01*
X62075Y42275D01*
X62525D01*
X62537Y42274D01*
D02*
G37*
G36*
Y65274D02*
X62548Y65272D01*
X62559Y65267D01*
X62569Y65261D01*
X62578Y65253D01*
X62586Y65244D01*
X62592Y65234D01*
X62596Y65223D01*
X62599Y65212D01*
X62600Y65200D01*
Y64725D01*
X63050D01*
X63062Y64724D01*
X63073Y64722D01*
X63084Y64717D01*
X63094Y64711D01*
X63103Y64703D01*
X63111Y64694D01*
X63117Y64684D01*
X63121Y64673D01*
X63124Y64662D01*
X63125Y64650D01*
X63125Y64300D01*
X63124Y64288D01*
X63121Y64277D01*
X63117Y64266D01*
X63111Y64256D01*
X63103Y64247D01*
X63094Y64239D01*
X63084Y64233D01*
X63073Y64228D01*
X63062Y64226D01*
X63050Y64225D01*
X62075D01*
X62063Y64226D01*
X62052Y64228D01*
X62041Y64233D01*
X62031Y64239D01*
X62022Y64247D01*
X62014Y64256D01*
X62008Y64266D01*
X62003Y64277D01*
X62001Y64288D01*
X62000Y64300D01*
Y65200D01*
X62001Y65212D01*
X62003Y65223D01*
X62008Y65234D01*
X62014Y65244D01*
X62022Y65253D01*
X62031Y65261D01*
X62041Y65267D01*
X62052Y65272D01*
X62063Y65274D01*
X62075Y65275D01*
X62525D01*
X62537Y65274D01*
D02*
G37*
G36*
X59937D02*
X59948Y65272D01*
X59959Y65267D01*
X59969Y65261D01*
X59978Y65253D01*
X59986Y65244D01*
X59992Y65234D01*
X59997Y65223D01*
X59999Y65212D01*
X60000Y65200D01*
Y64300D01*
X59999Y64288D01*
X59997Y64277D01*
X59992Y64266D01*
X59986Y64256D01*
X59978Y64247D01*
X59969Y64239D01*
X59959Y64233D01*
X59948Y64228D01*
X59937Y64226D01*
X59925Y64225D01*
X58950D01*
X58938Y64226D01*
X58927Y64228D01*
X58916Y64233D01*
X58906Y64239D01*
X58897Y64247D01*
X58889Y64256D01*
X58883Y64266D01*
X58878Y64277D01*
X58876Y64288D01*
X58875Y64300D01*
X58875Y64650D01*
X58876Y64662D01*
X58878Y64673D01*
X58883Y64684D01*
X58889Y64694D01*
X58897Y64703D01*
X58906Y64711D01*
X58916Y64717D01*
X58927Y64722D01*
X58938Y64724D01*
X58950Y64725D01*
X59400D01*
Y65200D01*
X59401Y65212D01*
X59403Y65223D01*
X59408Y65234D01*
X59414Y65244D01*
X59422Y65253D01*
X59431Y65261D01*
X59441Y65267D01*
X59452Y65272D01*
X59463Y65274D01*
X59475Y65275D01*
X59925D01*
X59937Y65274D01*
D02*
G37*
G36*
X60480Y61750D02*
X60486Y61749D01*
X60486Y61749D01*
X60486Y61749D01*
X60492Y61748D01*
X60498Y61747D01*
X60498Y61747D01*
X60498Y61747D01*
X60503Y61744D01*
X60509Y61742D01*
X60509Y61742D01*
X60509Y61742D01*
X60514Y61739D01*
X60519Y61736D01*
X60519Y61736D01*
X60519Y61736D01*
X60524Y61732D01*
X60528Y61728D01*
X60528Y61728D01*
X60528Y61728D01*
X60532Y61723D01*
X60535Y61719D01*
X60535Y61719D01*
X60535Y61719D01*
X60539Y61714D01*
X60541Y61709D01*
X60541Y61709D01*
X60542Y61709D01*
X60544Y61704D01*
X60546Y61698D01*
X60546Y61698D01*
X60546Y61698D01*
X60547Y61693D01*
X60549Y61687D01*
X60549Y61687D01*
X60549Y61687D01*
X60549Y61681D01*
X60550Y61675D01*
X60550Y61425D01*
X60550Y61425D01*
X60550Y61425D01*
X60550Y61419D01*
X60549Y61413D01*
X60549Y61413D01*
X60549Y61413D01*
X60548Y61407D01*
X60547Y61402D01*
X60547Y61402D01*
X60547Y61402D01*
X60544Y61396D01*
X60542Y61391D01*
X60542Y61391D01*
X60542Y61391D01*
X60539Y61386D01*
X60536Y61381D01*
X60536Y61381D01*
X60536Y61381D01*
X60532Y61376D01*
X60528Y61372D01*
X60528Y61372D01*
X60528Y61372D01*
X60524Y61368D01*
X60519Y61364D01*
X60519Y61364D01*
X60519Y61364D01*
X60514Y61361D01*
X60509Y61358D01*
X60509Y61358D01*
X60509Y61358D01*
X60504Y61356D01*
X60498Y61354D01*
X60498Y61353D01*
X60498Y61353D01*
X60493Y61352D01*
X60487Y61351D01*
X60487Y61351D01*
X60487Y61351D01*
X60481Y61350D01*
X60475Y61350D01*
X60475Y61350D01*
X60475Y61350D01*
X59975D01*
Y60800D01*
X59974Y60788D01*
X59972Y60777D01*
X59967Y60766D01*
X59961Y60756D01*
X59953Y60747D01*
X59944Y60739D01*
X59934Y60733D01*
X59923Y60728D01*
X59912Y60726D01*
X59900Y60725D01*
X59450D01*
X59438Y60726D01*
X59427Y60728D01*
X59416Y60733D01*
X59406Y60739D01*
X59397Y60747D01*
X59389Y60756D01*
X59383Y60766D01*
X59378Y60777D01*
X59376Y60788D01*
X59375Y60800D01*
Y61350D01*
X58925D01*
X58913Y61351D01*
X58902Y61353D01*
X58891Y61358D01*
X58881Y61364D01*
X58872Y61372D01*
X58864Y61381D01*
X58858Y61391D01*
X58853Y61402D01*
X58851Y61413D01*
X58850Y61425D01*
Y61675D01*
X58851Y61687D01*
X58853Y61698D01*
X58858Y61709D01*
X58864Y61719D01*
X58872Y61728D01*
X58881Y61736D01*
X58891Y61742D01*
X58902Y61747D01*
X58913Y61749D01*
X58925Y61750D01*
X60474D01*
X60480Y61750D01*
D02*
G37*
G36*
X63087Y61749D02*
X63098Y61747D01*
X63109Y61742D01*
X63119Y61736D01*
X63128Y61728D01*
X63136Y61719D01*
X63142Y61709D01*
X63147Y61698D01*
X63149Y61687D01*
X63150Y61675D01*
Y61425D01*
X63149Y61413D01*
X63147Y61402D01*
X63142Y61391D01*
X63136Y61381D01*
X63128Y61372D01*
X63119Y61364D01*
X63109Y61358D01*
X63098Y61353D01*
X63087Y61351D01*
X63075Y61350D01*
X62625D01*
Y60800D01*
X62624Y60788D01*
X62622Y60777D01*
X62617Y60766D01*
X62611Y60756D01*
X62603Y60747D01*
X62594Y60739D01*
X62584Y60733D01*
X62573Y60728D01*
X62562Y60726D01*
X62550Y60725D01*
X62100D01*
X62088Y60726D01*
X62077Y60728D01*
X62066Y60733D01*
X62056Y60739D01*
X62047Y60747D01*
X62039Y60756D01*
X62033Y60766D01*
X62028Y60777D01*
X62026Y60788D01*
X62025Y60800D01*
Y61350D01*
X61525D01*
X61525Y61350D01*
X61525Y61350D01*
X61519Y61350D01*
X61513Y61351D01*
X61513Y61351D01*
X61513Y61351D01*
X61507Y61352D01*
X61502Y61353D01*
X61502Y61353D01*
X61502Y61354D01*
X61496Y61356D01*
X61491Y61358D01*
X61491Y61358D01*
X61491Y61358D01*
X61486Y61361D01*
X61481Y61364D01*
X61481Y61364D01*
X61481Y61364D01*
X61476Y61368D01*
X61472Y61372D01*
X61472Y61372D01*
X61472Y61372D01*
X61468Y61376D01*
X61464Y61381D01*
X61464Y61381D01*
X61464Y61381D01*
X61461Y61386D01*
X61458Y61391D01*
X61458Y61391D01*
X61458Y61391D01*
X61456Y61396D01*
X61453Y61402D01*
X61453Y61402D01*
X61453Y61402D01*
X61452Y61407D01*
X61451Y61413D01*
X61451Y61413D01*
X61451Y61413D01*
X61450Y61419D01*
X61450Y61425D01*
X61450Y61425D01*
X61450Y61425D01*
X61450Y61675D01*
X61451Y61681D01*
X61451Y61687D01*
X61451Y61687D01*
X61451Y61687D01*
X61453Y61693D01*
X61454Y61698D01*
X61454Y61698D01*
X61454Y61698D01*
X61456Y61704D01*
X61458Y61709D01*
X61459Y61709D01*
X61459Y61709D01*
X61461Y61714D01*
X61465Y61719D01*
X61465Y61719D01*
X61465Y61719D01*
X61468Y61723D01*
X61472Y61728D01*
X61472Y61728D01*
X61472Y61728D01*
X61476Y61732D01*
X61481Y61736D01*
X61481Y61736D01*
X61481Y61736D01*
X61486Y61739D01*
X61491Y61742D01*
X61491Y61742D01*
X61491Y61742D01*
X61497Y61744D01*
X61502Y61747D01*
X61502Y61747D01*
X61502Y61747D01*
X61508Y61748D01*
X61514Y61749D01*
X61514Y61749D01*
X61514Y61749D01*
X61520Y61750D01*
X61526Y61750D01*
X63075D01*
X63087Y61749D01*
D02*
G37*
G36*
X61312Y62799D02*
X61323Y62797D01*
X61334Y62792D01*
X61344Y62786D01*
X61353Y62778D01*
X61361Y62769D01*
X61367Y62759D01*
X61372Y62748D01*
X61374Y62737D01*
X61375Y62725D01*
Y60800D01*
X61374Y60788D01*
X61372Y60777D01*
X61367Y60766D01*
X61361Y60756D01*
X61353Y60747D01*
X61344Y60739D01*
X61334Y60733D01*
X61323Y60728D01*
X61312Y60726D01*
X61300Y60725D01*
X60700D01*
X60688Y60726D01*
X60677Y60728D01*
X60666Y60733D01*
X60656Y60739D01*
X60647Y60747D01*
X60639Y60756D01*
X60633Y60766D01*
X60628Y60777D01*
X60626Y60788D01*
X60625Y60800D01*
Y62725D01*
X60626Y62737D01*
X60628Y62748D01*
X60633Y62759D01*
X60639Y62769D01*
X60647Y62778D01*
X60656Y62786D01*
X60666Y62792D01*
X60677Y62797D01*
X60688Y62799D01*
X60700Y62800D01*
X61300D01*
X61312Y62799D01*
D02*
G37*
D49*
X36075Y77500D02*
D03*
X37925Y76850D02*
D03*
Y78150D02*
D03*
X36075Y81000D02*
D03*
X37925Y80350D02*
D03*
Y81650D02*
D03*
X36075Y74000D02*
D03*
X37925Y73350D02*
D03*
Y74650D02*
D03*
X36075Y70500D02*
D03*
X37925Y69850D02*
D03*
Y71150D02*
D03*
D50*
X79500Y50700D02*
D03*
Y56300D02*
D03*
Y42800D02*
D03*
Y37200D02*
D03*
Y27700D02*
D03*
Y33300D02*
D03*
Y65800D02*
D03*
Y60200D02*
D03*
X72250Y50700D02*
D03*
Y56300D02*
D03*
Y65800D02*
D03*
Y60200D02*
D03*
Y42800D02*
D03*
Y37200D02*
D03*
Y27700D02*
D03*
Y33300D02*
D03*
D51*
X91500Y8850D02*
D03*
Y10650D02*
D03*
D52*
X48700Y63000D02*
D03*
X54300D02*
D03*
X48700Y55500D02*
D03*
X54300D02*
D03*
X48700Y40000D02*
D03*
X54300D02*
D03*
X48700Y32500D02*
D03*
X54300D02*
D03*
D53*
X6800Y67163D02*
D03*
Y65813D02*
D03*
X30000Y74437D02*
D03*
Y73087D02*
D03*
X6800D02*
D03*
Y74437D02*
D03*
X30000Y67163D02*
D03*
Y65813D02*
D03*
X66750Y68675D02*
D03*
Y67325D02*
D03*
X58000D02*
D03*
Y68675D02*
D03*
X66750Y45675D02*
D03*
Y44325D02*
D03*
X58000D02*
D03*
Y45675D02*
D03*
D54*
X59388Y63950D02*
D03*
X62612D02*
D03*
Y63450D02*
D03*
X59388D02*
D03*
Y40950D02*
D03*
X62612D02*
D03*
Y40450D02*
D03*
X59388D02*
D03*
D55*
X59701Y62950D02*
D03*
X62299D02*
D03*
Y62250D02*
D03*
X59701D02*
D03*
Y39950D02*
D03*
X62299D02*
D03*
Y39250D02*
D03*
X59701D02*
D03*
D56*
X60750Y64737D02*
D03*
X61250Y64737D02*
D03*
X61750Y64736D02*
D03*
X60250Y64738D02*
D03*
X60750Y41737D02*
D03*
X61250Y41736D02*
D03*
X61750Y41736D02*
D03*
X60250Y41737D02*
D03*
D57*
X44175Y33250D02*
D03*
X42825D02*
D03*
X50325Y68500D02*
D03*
X51675D02*
D03*
X50325Y70000D02*
D03*
X51675D02*
D03*
X49325Y46000D02*
D03*
X50675D02*
D03*
X49325Y44500D02*
D03*
X50675D02*
D03*
D58*
X59850Y68000D02*
D03*
X61650D02*
D03*
X63100D02*
D03*
X64900D02*
D03*
X63100Y45000D02*
D03*
X64900D02*
D03*
X59850D02*
D03*
X61650D02*
D03*
D59*
X64950Y32500D02*
D03*
X59050D02*
D03*
X64950Y55500D02*
D03*
X59050D02*
D03*
D60*
X15540Y73000D02*
D03*
X13000D02*
D03*
X10460D02*
D03*
Y67250D02*
D03*
X13000D02*
D03*
X15540D02*
D03*
X21310D02*
D03*
X23850D02*
D03*
X26390D02*
D03*
Y73000D02*
D03*
X23850D02*
D03*
X21310D02*
D03*
D61*
X27100Y12490D02*
D03*
Y22650D02*
D03*
X37260Y12490D02*
D03*
Y22650D02*
D03*
X47420Y12490D02*
D03*
Y22650D02*
D03*
X57580Y12490D02*
D03*
Y22650D02*
D03*
X67740Y12490D02*
D03*
Y22650D02*
D03*
X77900Y12490D02*
D03*
Y22650D02*
D03*
D62*
X8000Y17460D02*
D03*
Y12380D02*
D03*
Y27540D02*
D03*
Y22460D02*
D03*
Y37620D02*
D03*
Y32540D02*
D03*
X43650Y79500D02*
D03*
X46190D02*
D03*
X48730D02*
D03*
X51270D02*
D03*
X53810D02*
D03*
X56350D02*
D03*
X89000Y57570D02*
D03*
Y62650D02*
D03*
Y47490D02*
D03*
Y52570D02*
D03*
Y37410D02*
D03*
Y42490D02*
D03*
Y27330D02*
D03*
Y32410D02*
D03*
Y22330D02*
D03*
Y17250D02*
D03*
D63*
X31000Y56955D02*
D03*
Y36045D02*
D03*
Y43045D02*
D03*
Y50045D02*
D03*
Y29045D02*
D03*
D64*
X24960Y55750D02*
D03*
Y58250D02*
D03*
X28460Y55750D02*
D03*
Y58250D02*
D03*
X33540Y55750D02*
D03*
Y58250D02*
D03*
X37040Y55750D02*
D03*
Y58250D02*
D03*
Y37250D02*
D03*
Y34750D02*
D03*
X33540Y37250D02*
D03*
Y34750D02*
D03*
X28460Y37250D02*
D03*
Y34750D02*
D03*
X24960Y37250D02*
D03*
Y34750D02*
D03*
X37040Y44250D02*
D03*
Y41750D02*
D03*
X33540Y44250D02*
D03*
Y41750D02*
D03*
X28460Y44250D02*
D03*
Y41750D02*
D03*
X24960Y44250D02*
D03*
Y41750D02*
D03*
X37040Y51250D02*
D03*
Y48750D02*
D03*
X33540Y51250D02*
D03*
Y48750D02*
D03*
X28460Y51250D02*
D03*
Y48750D02*
D03*
X24960Y51250D02*
D03*
Y48750D02*
D03*
X37040Y30250D02*
D03*
Y27750D02*
D03*
X33540Y30250D02*
D03*
Y27750D02*
D03*
X28460Y30250D02*
D03*
Y27750D02*
D03*
X24960Y30250D02*
D03*
Y27750D02*
D03*
D65*
X91500Y80500D02*
D03*
X4500D02*
D03*
X91500Y4500D02*
D03*
X4500D02*
D03*
D66*
X29600Y60600D02*
D03*
X27600D02*
D03*
X26600Y58600D02*
D03*
Y54600D02*
D03*
X24600Y70600D02*
D03*
Y62600D02*
D03*
X25600Y60600D02*
D03*
X23600Y68600D02*
D03*
X22600Y62600D02*
D03*
X23600Y60600D02*
D03*
X22600Y58600D02*
D03*
Y54600D02*
D03*
X20600Y62600D02*
D03*
X21600Y60600D02*
D03*
Y56600D02*
D03*
X20600Y54600D02*
D03*
X18600Y62600D02*
D03*
X16600D02*
D03*
X17600Y60600D02*
D03*
X16600Y58600D02*
D03*
X17600Y56600D02*
D03*
X16600Y54600D02*
D03*
X14600Y62600D02*
D03*
X15600Y60600D02*
D03*
X14600Y58600D02*
D03*
X15600Y56600D02*
D03*
X14600Y54600D02*
D03*
X12600Y70600D02*
D03*
X13600Y68600D02*
D03*
X12600Y62600D02*
D03*
X13600Y60600D02*
D03*
X12600Y58600D02*
D03*
X13600Y56600D02*
D03*
X12600Y54600D02*
D03*
X55000Y66750D02*
D03*
X36500Y63500D02*
D03*
Y66000D02*
D03*
X91500Y11750D02*
D03*
X48250Y46000D02*
D03*
X48700Y60550D02*
D03*
Y57950D02*
D03*
X58000Y46750D02*
D03*
X59700Y61237D02*
D03*
X62300D02*
D03*
X58000Y69750D02*
D03*
X48700Y34950D02*
D03*
Y37550D02*
D03*
X77050Y27700D02*
D03*
X74700D02*
D03*
X72250Y45250D02*
D03*
X79500D02*
D03*
Y48250D02*
D03*
X72250D02*
D03*
X79500Y68250D02*
D03*
X72250D02*
D03*
X66750Y69750D02*
D03*
X60500Y63750D02*
D03*
X58000Y66250D02*
D03*
Y43250D02*
D03*
X60500Y40750D02*
D03*
X31750Y74500D02*
D03*
Y67250D02*
D03*
X8500Y65750D02*
D03*
X35170Y72750D02*
D03*
X38830Y71750D02*
D03*
Y75250D02*
D03*
Y82250D02*
D03*
Y78750D02*
D03*
X81600Y60600D02*
D03*
X80600Y58600D02*
D03*
X81600Y56600D02*
D03*
X80600Y54600D02*
D03*
X79600Y60600D02*
D03*
X78600Y58600D02*
D03*
X79600Y56600D02*
D03*
X78600Y54600D02*
D03*
X77600Y72600D02*
D03*
X76600Y70600D02*
D03*
X77600Y68600D02*
D03*
X76600Y66600D02*
D03*
X77600Y64600D02*
D03*
X76600Y62600D02*
D03*
X77600Y60600D02*
D03*
X76600Y58600D02*
D03*
X77600Y56600D02*
D03*
X76600Y54600D02*
D03*
X75600Y72600D02*
D03*
X74600Y70600D02*
D03*
X75600Y68600D02*
D03*
X74600Y66600D02*
D03*
X75600Y64600D02*
D03*
X74600Y62600D02*
D03*
X75600Y60600D02*
D03*
X74600Y58600D02*
D03*
X75600Y56600D02*
D03*
X74600Y54600D02*
D03*
X73600Y72600D02*
D03*
Y60600D02*
D03*
X72600Y58600D02*
D03*
X73600Y56600D02*
D03*
X72600Y54600D02*
D03*
X71600Y72600D02*
D03*
Y60600D02*
D03*
X70600Y58600D02*
D03*
X71600Y56600D02*
D03*
X70600Y54600D02*
D03*
X69600Y72600D02*
D03*
Y60600D02*
D03*
Y56600D02*
D03*
X68600Y54600D02*
D03*
X67600Y72600D02*
D03*
Y56600D02*
D03*
X66600Y54600D02*
D03*
X65600Y72600D02*
D03*
Y56600D02*
D03*
X64600Y54600D02*
D03*
X63600Y72600D02*
D03*
Y56600D02*
D03*
X61600Y72600D02*
D03*
X59600D02*
D03*
X57600D02*
D03*
X55600D02*
D03*
X53600D02*
D03*
X51600D02*
D03*
X49600D02*
D03*
X47600D02*
D03*
X45600D02*
D03*
X44600Y70600D02*
D03*
Y66600D02*
D03*
Y62600D02*
D03*
Y58600D02*
D03*
Y54600D02*
D03*
X43600Y72600D02*
D03*
X42600Y70600D02*
D03*
X43600Y68600D02*
D03*
X42600Y66600D02*
D03*
X43600Y64600D02*
D03*
X42600Y62600D02*
D03*
X43600Y60600D02*
D03*
X42600Y58600D02*
D03*
X43600Y56600D02*
D03*
X42600Y54600D02*
D03*
X41600Y72600D02*
D03*
Y68600D02*
D03*
Y64600D02*
D03*
Y60600D02*
D03*
X40600Y58600D02*
D03*
X41600Y56600D02*
D03*
X40600Y54600D02*
D03*
X39600Y56600D02*
D03*
X38600Y54600D02*
D03*
X35600Y56600D02*
D03*
X60100Y60100D02*
D03*
X60850Y58600D02*
D03*
X60100Y57100D02*
D03*
X60850Y55600D02*
D03*
X58600Y60100D02*
D03*
X59350Y58600D02*
D03*
X58600Y57100D02*
D03*
X61000Y61763D02*
D03*
X60850Y36100D02*
D03*
X60100Y34600D02*
D03*
X60850Y33100D02*
D03*
X58600Y37600D02*
D03*
X59350Y36100D02*
D03*
X58600Y34600D02*
D03*
X90600Y56600D02*
D03*
Y48600D02*
D03*
X91600Y46600D02*
D03*
Y38600D02*
D03*
X90600Y36600D02*
D03*
Y28600D02*
D03*
X91600Y26600D02*
D03*
X90600Y16600D02*
D03*
X89600Y18600D02*
D03*
X86600Y56600D02*
D03*
Y52600D02*
D03*
Y48600D02*
D03*
X87600Y46600D02*
D03*
X86600Y44600D02*
D03*
Y40600D02*
D03*
X87600Y38600D02*
D03*
X86600Y36600D02*
D03*
Y32600D02*
D03*
Y28600D02*
D03*
X87600Y26600D02*
D03*
X86600Y24600D02*
D03*
Y20600D02*
D03*
X87600Y18600D02*
D03*
X86600Y16600D02*
D03*
X84600Y56600D02*
D03*
X85600Y54600D02*
D03*
X84600Y52600D02*
D03*
X85600Y50600D02*
D03*
X84600Y48600D02*
D03*
X85600Y46600D02*
D03*
X84600Y44600D02*
D03*
X85600Y42600D02*
D03*
X84600Y40600D02*
D03*
X85600Y38600D02*
D03*
X84600Y36600D02*
D03*
X85600Y34600D02*
D03*
X84600Y32600D02*
D03*
X85600Y30600D02*
D03*
X84600Y28600D02*
D03*
X85600Y26600D02*
D03*
X84600Y24600D02*
D03*
X85600Y22600D02*
D03*
X84600Y20600D02*
D03*
X85600Y18600D02*
D03*
X84600Y16600D02*
D03*
X83600Y50600D02*
D03*
Y46600D02*
D03*
Y42600D02*
D03*
Y38600D02*
D03*
X82600Y36600D02*
D03*
X83600Y34600D02*
D03*
X82600Y32600D02*
D03*
X83600Y26600D02*
D03*
Y22600D02*
D03*
Y18600D02*
D03*
X81600Y38600D02*
D03*
Y34600D02*
D03*
Y30600D02*
D03*
X79600D02*
D03*
X77600Y38600D02*
D03*
X76600Y36600D02*
D03*
X77600Y34600D02*
D03*
X76600Y32600D02*
D03*
X77600Y30600D02*
D03*
X75600Y38600D02*
D03*
X74600Y36600D02*
D03*
X75600Y34600D02*
D03*
X74600Y32600D02*
D03*
X75600Y30600D02*
D03*
X73600Y38600D02*
D03*
Y30600D02*
D03*
X70600Y36600D02*
D03*
Y32600D02*
D03*
X71600Y30600D02*
D03*
X69600Y38600D02*
D03*
Y34600D02*
D03*
X68600Y32600D02*
D03*
X69600Y30600D02*
D03*
X67600Y34600D02*
D03*
X66600Y32600D02*
D03*
X67600Y30600D02*
D03*
X65600Y34600D02*
D03*
Y30600D02*
D03*
X61000Y38763D02*
D03*
X62300Y38237D02*
D03*
X59700D02*
D03*
%TF.MD5,0e26ab719af1deb5f0fac53f1e319fea*%
M02*
