%TF.GenerationSoftware,Altium Limited,Altium Designer,25.2.1 (25)*%
G04 Layer_Color=2752767*
%FSLAX43Y43*%
%MOMM*%
%TF.SameCoordinates,3E8C3AF6-32D8-460F-991F-00D2D819B343*%
%TF.FilePolarity,Positive*%
%TF.FileFunction,Drawing*%
%TF.Part,Single*%
G01*
G75*
%TA.AperFunction,NonConductor*%
%ADD42C,0.127*%
%ADD78C,0.169*%
D42*
X26846Y12236D02*
Y11982D01*
X27354D01*
Y12236D01*
X27608D01*
Y12744D01*
X27354D01*
Y12998D01*
X26846D01*
Y12744D01*
X26592D01*
Y12236D01*
X26846D01*
Y22396D02*
Y22142D01*
X27354D01*
Y22396D01*
X27608D01*
Y22904D01*
X27354D01*
Y23158D01*
X26846D01*
Y22904D01*
X26592D01*
Y22396D01*
X26846D01*
X37006Y12236D02*
Y11982D01*
X37514D01*
Y12236D01*
X37768D01*
Y12744D01*
X37514D01*
Y12998D01*
X37006D01*
Y12744D01*
X36752D01*
Y12236D01*
X37006D01*
Y22396D02*
Y22142D01*
X37514D01*
Y22396D01*
X37768D01*
Y22904D01*
X37514D01*
Y23158D01*
X37006D01*
Y22904D01*
X36752D01*
Y22396D01*
X37006D01*
X47166Y12236D02*
Y11982D01*
X47674D01*
Y12236D01*
X47928D01*
Y12744D01*
X47674D01*
Y12998D01*
X47166D01*
Y12744D01*
X46912D01*
Y12236D01*
X47166D01*
Y22396D02*
Y22142D01*
X47674D01*
Y22396D01*
X47928D01*
Y22904D01*
X47674D01*
Y23158D01*
X47166D01*
Y22904D01*
X46912D01*
Y22396D01*
X47166D01*
X57326Y12236D02*
Y11982D01*
X57834D01*
Y12236D01*
X58088D01*
Y12744D01*
X57834D01*
Y12998D01*
X57326D01*
Y12744D01*
X57072D01*
Y12236D01*
X57326D01*
Y22396D02*
Y22142D01*
X57834D01*
Y22396D01*
X58088D01*
Y22904D01*
X57834D01*
Y23158D01*
X57326D01*
Y22904D01*
X57072D01*
Y22396D01*
X57326D01*
X67486Y12236D02*
Y11982D01*
X67994D01*
Y12236D01*
X68248D01*
Y12744D01*
X67994D01*
Y12998D01*
X67486D01*
Y12744D01*
X67232D01*
Y12236D01*
X67486D01*
Y22396D02*
Y22142D01*
X67994D01*
Y22396D01*
X68248D01*
Y22904D01*
X67994D01*
Y23158D01*
X67486D01*
Y22904D01*
X67232D01*
Y22396D01*
X67486D01*
X77646Y12236D02*
Y11982D01*
X78154D01*
Y12236D01*
X78408D01*
Y12744D01*
X78154D01*
Y12998D01*
X77646D01*
Y12744D01*
X77392D01*
Y12236D01*
X77646D01*
Y22396D02*
Y22142D01*
X78154D01*
Y22396D01*
X78408D01*
Y22904D01*
X78154D01*
Y23158D01*
X77646D01*
Y22904D01*
X77392D01*
Y22396D01*
X77646D01*
X7492Y16952D02*
X7746D01*
X8000Y17206D01*
X8254Y16952D01*
X8508D01*
Y17206D01*
X8254Y17460D01*
X8508Y17714D01*
Y17968D01*
X8254D01*
X8000Y17714D01*
X7746Y17968D01*
X7492D01*
Y17714D01*
X7746Y17460D01*
X7492Y17206D01*
Y16952D01*
Y11872D02*
X7746D01*
X8000Y12126D01*
X8254Y11872D01*
X8508D01*
Y12126D01*
X8254Y12380D01*
X8508Y12634D01*
Y12888D01*
X8254D01*
X8000Y12634D01*
X7746Y12888D01*
X7492D01*
Y12634D01*
X7746Y12380D01*
X7492Y12126D01*
Y11872D01*
Y27032D02*
X7746D01*
X8000Y27286D01*
X8254Y27032D01*
X8508D01*
Y27286D01*
X8254Y27540D01*
X8508Y27794D01*
Y28048D01*
X8254D01*
X8000Y27794D01*
X7746Y28048D01*
X7492D01*
Y27794D01*
X7746Y27540D01*
X7492Y27286D01*
Y27032D01*
Y21952D02*
X7746D01*
X8000Y22206D01*
X8254Y21952D01*
X8508D01*
Y22206D01*
X8254Y22460D01*
X8508Y22714D01*
Y22968D01*
X8254D01*
X8000Y22714D01*
X7746Y22968D01*
X7492D01*
Y22714D01*
X7746Y22460D01*
X7492Y22206D01*
Y21952D01*
Y37112D02*
X7746D01*
X8000Y37366D01*
X8254Y37112D01*
X8508D01*
Y37366D01*
X8254Y37620D01*
X8508Y37874D01*
Y38128D01*
X8254D01*
X8000Y37874D01*
X7746Y38128D01*
X7492D01*
Y37874D01*
X7746Y37620D01*
X7492Y37366D01*
Y37112D01*
Y32032D02*
X7746D01*
X8000Y32286D01*
X8254Y32032D01*
X8508D01*
Y32286D01*
X8254Y32540D01*
X8508Y32794D01*
Y33048D01*
X8254D01*
X8000Y32794D01*
X7746Y33048D01*
X7492D01*
Y32794D01*
X7746Y32540D01*
X7492Y32286D01*
Y32032D01*
X43650Y78992D02*
X43142Y80008D01*
X44158D01*
X43650Y78992D01*
X46190D02*
X45682Y80008D01*
X46698D01*
X46190Y78992D01*
X48730D02*
X48222Y80008D01*
X49238D01*
X48730Y78992D01*
X51270D02*
X50762Y80008D01*
X51778D01*
X51270Y78992D01*
X53810D02*
X53302Y80008D01*
X54318D01*
X53810Y78992D01*
X56350D02*
X55842Y80008D01*
X56858D01*
X56350Y78992D01*
X30492Y56447D02*
X30746Y56955D01*
X30492Y57463D01*
X31000Y57209D01*
X31508Y57463D01*
X31254Y56955D01*
X31508Y56447D01*
X31000Y56701D01*
X30492Y56447D01*
X24960Y55242D02*
X25214Y55496D01*
X25468D01*
X25214Y55750D01*
X25468Y56004D01*
X25214D01*
X24960Y56258D01*
X24706Y56004D01*
X24452D01*
X24706Y55750D01*
X24452Y55496D01*
X24706D01*
X24960Y55242D01*
Y57742D02*
X25214Y57996D01*
X25468D01*
X25214Y58250D01*
X25468Y58504D01*
X25214D01*
X24960Y58758D01*
X24706Y58504D01*
X24452D01*
X24706Y58250D01*
X24452Y57996D01*
X24706D01*
X24960Y57742D01*
X28460Y55242D02*
X28714Y55496D01*
X28968D01*
X28714Y55750D01*
X28968Y56004D01*
X28714D01*
X28460Y56258D01*
X28206Y56004D01*
X27952D01*
X28206Y55750D01*
X27952Y55496D01*
X28206D01*
X28460Y55242D01*
Y57742D02*
X28714Y57996D01*
X28968D01*
X28714Y58250D01*
X28968Y58504D01*
X28714D01*
X28460Y58758D01*
X28206Y58504D01*
X27952D01*
X28206Y58250D01*
X27952Y57996D01*
X28206D01*
X28460Y57742D01*
X33540Y55242D02*
X33794Y55496D01*
X34048D01*
X33794Y55750D01*
X34048Y56004D01*
X33794D01*
X33540Y56258D01*
X33286Y56004D01*
X33032D01*
X33286Y55750D01*
X33032Y55496D01*
X33286D01*
X33540Y55242D01*
Y57742D02*
X33794Y57996D01*
X34048D01*
X33794Y58250D01*
X34048Y58504D01*
X33794D01*
X33540Y58758D01*
X33286Y58504D01*
X33032D01*
X33286Y58250D01*
X33032Y57996D01*
X33286D01*
X33540Y57742D01*
X37040Y55242D02*
X37294Y55496D01*
X37548D01*
X37294Y55750D01*
X37548Y56004D01*
X37294D01*
X37040Y56258D01*
X36786Y56004D01*
X36532D01*
X36786Y55750D01*
X36532Y55496D01*
X36786D01*
X37040Y55242D01*
Y57742D02*
X37294Y57996D01*
X37548D01*
X37294Y58250D01*
X37548Y58504D01*
X37294D01*
X37040Y58758D01*
X36786Y58504D01*
X36532D01*
X36786Y58250D01*
X36532Y57996D01*
X36786D01*
X37040Y57742D01*
X88492Y57062D02*
X88746D01*
X89000Y57316D01*
X89254Y57062D01*
X89508D01*
Y57316D01*
X89254Y57570D01*
X89508Y57824D01*
Y58078D01*
X89254D01*
X89000Y57824D01*
X88746Y58078D01*
X88492D01*
Y57824D01*
X88746Y57570D01*
X88492Y57316D01*
Y57062D01*
Y62142D02*
X88746D01*
X89000Y62396D01*
X89254Y62142D01*
X89508D01*
Y62396D01*
X89254Y62650D01*
X89508Y62904D01*
Y63158D01*
X89254D01*
X89000Y62904D01*
X88746Y63158D01*
X88492D01*
Y62904D01*
X88746Y62650D01*
X88492Y62396D01*
Y62142D01*
Y46982D02*
X88746D01*
X89000Y47236D01*
X89254Y46982D01*
X89508D01*
Y47236D01*
X89254Y47490D01*
X89508Y47744D01*
Y47998D01*
X89254D01*
X89000Y47744D01*
X88746Y47998D01*
X88492D01*
Y47744D01*
X88746Y47490D01*
X88492Y47236D01*
Y46982D01*
Y52062D02*
X88746D01*
X89000Y52316D01*
X89254Y52062D01*
X89508D01*
Y52316D01*
X89254Y52570D01*
X89508Y52824D01*
Y53078D01*
X89254D01*
X89000Y52824D01*
X88746Y53078D01*
X88492D01*
Y52824D01*
X88746Y52570D01*
X88492Y52316D01*
Y52062D01*
Y36902D02*
X88746D01*
X89000Y37156D01*
X89254Y36902D01*
X89508D01*
Y37156D01*
X89254Y37410D01*
X89508Y37664D01*
Y37918D01*
X89254D01*
X89000Y37664D01*
X88746Y37918D01*
X88492D01*
Y37664D01*
X88746Y37410D01*
X88492Y37156D01*
Y36902D01*
Y41982D02*
X88746D01*
X89000Y42236D01*
X89254Y41982D01*
X89508D01*
Y42236D01*
X89254Y42490D01*
X89508Y42744D01*
Y42998D01*
X89254D01*
X89000Y42744D01*
X88746Y42998D01*
X88492D01*
Y42744D01*
X88746Y42490D01*
X88492Y42236D01*
Y41982D01*
Y26822D02*
X88746D01*
X89000Y27076D01*
X89254Y26822D01*
X89508D01*
Y27076D01*
X89254Y27330D01*
X89508Y27584D01*
Y27838D01*
X89254D01*
X89000Y27584D01*
X88746Y27838D01*
X88492D01*
Y27584D01*
X88746Y27330D01*
X88492Y27076D01*
Y26822D01*
Y31902D02*
X88746D01*
X89000Y32156D01*
X89254Y31902D01*
X89508D01*
Y32156D01*
X89254Y32410D01*
X89508Y32664D01*
Y32918D01*
X89254D01*
X89000Y32664D01*
X88746Y32918D01*
X88492D01*
Y32664D01*
X88746Y32410D01*
X88492Y32156D01*
Y31902D01*
Y21822D02*
X88746D01*
X89000Y22076D01*
X89254Y21822D01*
X89508D01*
Y22076D01*
X89254Y22330D01*
X89508Y22584D01*
Y22838D01*
X89254D01*
X89000Y22584D01*
X88746Y22838D01*
X88492D01*
Y22584D01*
X88746Y22330D01*
X88492Y22076D01*
Y21822D01*
Y16742D02*
X88746D01*
X89000Y16996D01*
X89254Y16742D01*
X89508D01*
Y16996D01*
X89254Y17250D01*
X89508Y17504D01*
Y17758D01*
X89254D01*
X89000Y17504D01*
X88746Y17758D01*
X88492D01*
Y17504D01*
X88746Y17250D01*
X88492Y16996D01*
Y16742D01*
X90992Y80500D02*
X91500Y81008D01*
X92008Y80500D01*
X91500Y79992D01*
X90992Y80500D01*
X30492Y35537D02*
X30746Y36045D01*
X30492Y36553D01*
X31000Y36299D01*
X31508Y36553D01*
X31254Y36045D01*
X31508Y35537D01*
X31000Y35791D01*
X30492Y35537D01*
X37040Y36742D02*
X37294Y36996D01*
X37548D01*
X37294Y37250D01*
X37548Y37504D01*
X37294D01*
X37040Y37758D01*
X36786Y37504D01*
X36532D01*
X36786Y37250D01*
X36532Y36996D01*
X36786D01*
X37040Y36742D01*
Y34242D02*
X37294Y34496D01*
X37548D01*
X37294Y34750D01*
X37548Y35004D01*
X37294D01*
X37040Y35258D01*
X36786Y35004D01*
X36532D01*
X36786Y34750D01*
X36532Y34496D01*
X36786D01*
X37040Y34242D01*
X33540Y36742D02*
X33794Y36996D01*
X34048D01*
X33794Y37250D01*
X34048Y37504D01*
X33794D01*
X33540Y37758D01*
X33286Y37504D01*
X33032D01*
X33286Y37250D01*
X33032Y36996D01*
X33286D01*
X33540Y36742D01*
Y34242D02*
X33794Y34496D01*
X34048D01*
X33794Y34750D01*
X34048Y35004D01*
X33794D01*
X33540Y35258D01*
X33286Y35004D01*
X33032D01*
X33286Y34750D01*
X33032Y34496D01*
X33286D01*
X33540Y34242D01*
X28460Y36742D02*
X28714Y36996D01*
X28968D01*
X28714Y37250D01*
X28968Y37504D01*
X28714D01*
X28460Y37758D01*
X28206Y37504D01*
X27952D01*
X28206Y37250D01*
X27952Y36996D01*
X28206D01*
X28460Y36742D01*
Y34242D02*
X28714Y34496D01*
X28968D01*
X28714Y34750D01*
X28968Y35004D01*
X28714D01*
X28460Y35258D01*
X28206Y35004D01*
X27952D01*
X28206Y34750D01*
X27952Y34496D01*
X28206D01*
X28460Y34242D01*
X24960Y36742D02*
X25214Y36996D01*
X25468D01*
X25214Y37250D01*
X25468Y37504D01*
X25214D01*
X24960Y37758D01*
X24706Y37504D01*
X24452D01*
X24706Y37250D01*
X24452Y36996D01*
X24706D01*
X24960Y36742D01*
Y34242D02*
X25214Y34496D01*
X25468D01*
X25214Y34750D01*
X25468Y35004D01*
X25214D01*
X24960Y35258D01*
X24706Y35004D01*
X24452D01*
X24706Y34750D01*
X24452Y34496D01*
X24706D01*
X24960Y34242D01*
X30492Y42537D02*
X30746Y43045D01*
X30492Y43553D01*
X31000Y43299D01*
X31508Y43553D01*
X31254Y43045D01*
X31508Y42537D01*
X31000Y42791D01*
X30492Y42537D01*
X37040Y43742D02*
X37294Y43996D01*
X37548D01*
X37294Y44250D01*
X37548Y44504D01*
X37294D01*
X37040Y44758D01*
X36786Y44504D01*
X36532D01*
X36786Y44250D01*
X36532Y43996D01*
X36786D01*
X37040Y43742D01*
Y41242D02*
X37294Y41496D01*
X37548D01*
X37294Y41750D01*
X37548Y42004D01*
X37294D01*
X37040Y42258D01*
X36786Y42004D01*
X36532D01*
X36786Y41750D01*
X36532Y41496D01*
X36786D01*
X37040Y41242D01*
X33540Y43742D02*
X33794Y43996D01*
X34048D01*
X33794Y44250D01*
X34048Y44504D01*
X33794D01*
X33540Y44758D01*
X33286Y44504D01*
X33032D01*
X33286Y44250D01*
X33032Y43996D01*
X33286D01*
X33540Y43742D01*
Y41242D02*
X33794Y41496D01*
X34048D01*
X33794Y41750D01*
X34048Y42004D01*
X33794D01*
X33540Y42258D01*
X33286Y42004D01*
X33032D01*
X33286Y41750D01*
X33032Y41496D01*
X33286D01*
X33540Y41242D01*
X28460Y43742D02*
X28714Y43996D01*
X28968D01*
X28714Y44250D01*
X28968Y44504D01*
X28714D01*
X28460Y44758D01*
X28206Y44504D01*
X27952D01*
X28206Y44250D01*
X27952Y43996D01*
X28206D01*
X28460Y43742D01*
Y41242D02*
X28714Y41496D01*
X28968D01*
X28714Y41750D01*
X28968Y42004D01*
X28714D01*
X28460Y42258D01*
X28206Y42004D01*
X27952D01*
X28206Y41750D01*
X27952Y41496D01*
X28206D01*
X28460Y41242D01*
X24960Y43742D02*
X25214Y43996D01*
X25468D01*
X25214Y44250D01*
X25468Y44504D01*
X25214D01*
X24960Y44758D01*
X24706Y44504D01*
X24452D01*
X24706Y44250D01*
X24452Y43996D01*
X24706D01*
X24960Y43742D01*
Y41242D02*
X25214Y41496D01*
X25468D01*
X25214Y41750D01*
X25468Y42004D01*
X25214D01*
X24960Y42258D01*
X24706Y42004D01*
X24452D01*
X24706Y41750D01*
X24452Y41496D01*
X24706D01*
X24960Y41242D01*
X30492Y49537D02*
X30746Y50045D01*
X30492Y50553D01*
X31000Y50299D01*
X31508Y50553D01*
X31254Y50045D01*
X31508Y49537D01*
X31000Y49791D01*
X30492Y49537D01*
X37040Y50742D02*
X37294Y50996D01*
X37548D01*
X37294Y51250D01*
X37548Y51504D01*
X37294D01*
X37040Y51758D01*
X36786Y51504D01*
X36532D01*
X36786Y51250D01*
X36532Y50996D01*
X36786D01*
X37040Y50742D01*
Y48242D02*
X37294Y48496D01*
X37548D01*
X37294Y48750D01*
X37548Y49004D01*
X37294D01*
X37040Y49258D01*
X36786Y49004D01*
X36532D01*
X36786Y48750D01*
X36532Y48496D01*
X36786D01*
X37040Y48242D01*
X33540Y50742D02*
X33794Y50996D01*
X34048D01*
X33794Y51250D01*
X34048Y51504D01*
X33794D01*
X33540Y51758D01*
X33286Y51504D01*
X33032D01*
X33286Y51250D01*
X33032Y50996D01*
X33286D01*
X33540Y50742D01*
Y48242D02*
X33794Y48496D01*
X34048D01*
X33794Y48750D01*
X34048Y49004D01*
X33794D01*
X33540Y49258D01*
X33286Y49004D01*
X33032D01*
X33286Y48750D01*
X33032Y48496D01*
X33286D01*
X33540Y48242D01*
X28460Y50742D02*
X28714Y50996D01*
X28968D01*
X28714Y51250D01*
X28968Y51504D01*
X28714D01*
X28460Y51758D01*
X28206Y51504D01*
X27952D01*
X28206Y51250D01*
X27952Y50996D01*
X28206D01*
X28460Y50742D01*
Y48242D02*
X28714Y48496D01*
X28968D01*
X28714Y48750D01*
X28968Y49004D01*
X28714D01*
X28460Y49258D01*
X28206Y49004D01*
X27952D01*
X28206Y48750D01*
X27952Y48496D01*
X28206D01*
X28460Y48242D01*
X24960Y50742D02*
X25214Y50996D01*
X25468D01*
X25214Y51250D01*
X25468Y51504D01*
X25214D01*
X24960Y51758D01*
X24706Y51504D01*
X24452D01*
X24706Y51250D01*
X24452Y50996D01*
X24706D01*
X24960Y50742D01*
Y48242D02*
X25214Y48496D01*
X25468D01*
X25214Y48750D01*
X25468Y49004D01*
X25214D01*
X24960Y49258D01*
X24706Y49004D01*
X24452D01*
X24706Y48750D01*
X24452Y48496D01*
X24706D01*
X24960Y48242D01*
X30492Y28537D02*
X30746Y29045D01*
X30492Y29553D01*
X31000Y29299D01*
X31508Y29553D01*
X31254Y29045D01*
X31508Y28537D01*
X31000Y28791D01*
X30492Y28537D01*
X37040Y29742D02*
X37294Y29996D01*
X37548D01*
X37294Y30250D01*
X37548Y30504D01*
X37294D01*
X37040Y30758D01*
X36786Y30504D01*
X36532D01*
X36786Y30250D01*
X36532Y29996D01*
X36786D01*
X37040Y29742D01*
Y27242D02*
X37294Y27496D01*
X37548D01*
X37294Y27750D01*
X37548Y28004D01*
X37294D01*
X37040Y28258D01*
X36786Y28004D01*
X36532D01*
X36786Y27750D01*
X36532Y27496D01*
X36786D01*
X37040Y27242D01*
X33540Y29742D02*
X33794Y29996D01*
X34048D01*
X33794Y30250D01*
X34048Y30504D01*
X33794D01*
X33540Y30758D01*
X33286Y30504D01*
X33032D01*
X33286Y30250D01*
X33032Y29996D01*
X33286D01*
X33540Y29742D01*
Y27242D02*
X33794Y27496D01*
X34048D01*
X33794Y27750D01*
X34048Y28004D01*
X33794D01*
X33540Y28258D01*
X33286Y28004D01*
X33032D01*
X33286Y27750D01*
X33032Y27496D01*
X33286D01*
X33540Y27242D01*
X28460Y29742D02*
X28714Y29996D01*
X28968D01*
X28714Y30250D01*
X28968Y30504D01*
X28714D01*
X28460Y30758D01*
X28206Y30504D01*
X27952D01*
X28206Y30250D01*
X27952Y29996D01*
X28206D01*
X28460Y29742D01*
Y27242D02*
X28714Y27496D01*
X28968D01*
X28714Y27750D01*
X28968Y28004D01*
X28714D01*
X28460Y28258D01*
X28206Y28004D01*
X27952D01*
X28206Y27750D01*
X27952Y27496D01*
X28206D01*
X28460Y27242D01*
X24960Y29742D02*
X25214Y29996D01*
X25468D01*
X25214Y30250D01*
X25468Y30504D01*
X25214D01*
X24960Y30758D01*
X24706Y30504D01*
X24452D01*
X24706Y30250D01*
X24452Y29996D01*
X24706D01*
X24960Y29742D01*
Y27242D02*
X25214Y27496D01*
X25468D01*
X25214Y27750D01*
X25468Y28004D01*
X25214D01*
X24960Y28258D01*
X24706Y28004D01*
X24452D01*
X24706Y27750D01*
X24452Y27496D01*
X24706D01*
X24960Y27242D01*
X3992Y80500D02*
X4500Y81008D01*
X5008Y80500D01*
X4500Y79992D01*
X3992Y80500D01*
X90992Y4500D02*
X91500Y5008D01*
X92008Y4500D01*
X91500Y3992D01*
X90992Y4500D01*
X3992D02*
X4500Y5008D01*
X5008Y4500D01*
X4500Y3992D01*
X3992Y4500D01*
X29092Y60092D02*
Y61108D01*
X30108D01*
Y60092D01*
X29092D01*
X27092D02*
Y61108D01*
X28108D01*
Y60092D01*
X27092D01*
X26092Y58092D02*
Y59108D01*
X27108D01*
Y58092D01*
X26092D01*
Y54092D02*
Y55108D01*
X27108D01*
Y54092D01*
X26092D01*
X24092Y70092D02*
Y71108D01*
X25108D01*
Y70092D01*
X24092D01*
Y62092D02*
Y63108D01*
X25108D01*
Y62092D01*
X24092D01*
X25092Y60092D02*
Y61108D01*
X26108D01*
Y60092D01*
X25092D01*
X23092Y68092D02*
Y69108D01*
X24108D01*
Y68092D01*
X23092D01*
X22092Y62092D02*
Y63108D01*
X23108D01*
Y62092D01*
X22092D01*
X23092Y60092D02*
Y61108D01*
X24108D01*
Y60092D01*
X23092D01*
X22092Y58092D02*
Y59108D01*
X23108D01*
Y58092D01*
X22092D01*
Y54092D02*
Y55108D01*
X23108D01*
Y54092D01*
X22092D01*
X20092Y62092D02*
Y63108D01*
X21108D01*
Y62092D01*
X20092D01*
X21092Y60092D02*
Y61108D01*
X22108D01*
Y60092D01*
X21092D01*
Y56092D02*
Y57108D01*
X22108D01*
Y56092D01*
X21092D01*
X20092Y54092D02*
Y55108D01*
X21108D01*
Y54092D01*
X20092D01*
X18092Y62092D02*
Y63108D01*
X19108D01*
Y62092D01*
X18092D01*
X16092D02*
Y63108D01*
X17108D01*
Y62092D01*
X16092D01*
X17092Y60092D02*
Y61108D01*
X18108D01*
Y60092D01*
X17092D01*
X16092Y58092D02*
Y59108D01*
X17108D01*
Y58092D01*
X16092D01*
X17092Y56092D02*
Y57108D01*
X18108D01*
Y56092D01*
X17092D01*
X16092Y54092D02*
Y55108D01*
X17108D01*
Y54092D01*
X16092D01*
X14092Y62092D02*
Y63108D01*
X15108D01*
Y62092D01*
X14092D01*
X15092Y60092D02*
Y61108D01*
X16108D01*
Y60092D01*
X15092D01*
X14092Y58092D02*
Y59108D01*
X15108D01*
Y58092D01*
X14092D01*
X15092Y56092D02*
Y57108D01*
X16108D01*
Y56092D01*
X15092D01*
X14092Y54092D02*
Y55108D01*
X15108D01*
Y54092D01*
X14092D01*
X12092Y70092D02*
Y71108D01*
X13108D01*
Y70092D01*
X12092D01*
X13092Y68092D02*
Y69108D01*
X14108D01*
Y68092D01*
X13092D01*
X12092Y62092D02*
Y63108D01*
X13108D01*
Y62092D01*
X12092D01*
X13092Y60092D02*
Y61108D01*
X14108D01*
Y60092D01*
X13092D01*
X12092Y58092D02*
Y59108D01*
X13108D01*
Y58092D01*
X12092D01*
X13092Y56092D02*
Y57108D01*
X14108D01*
Y56092D01*
X13092D01*
X12092Y54092D02*
Y55108D01*
X13108D01*
Y54092D01*
X12092D01*
X54492Y66242D02*
Y67258D01*
X55508D01*
Y66242D01*
X54492D01*
X35992Y62992D02*
Y64008D01*
X37008D01*
Y62992D01*
X35992D01*
Y65492D02*
Y66508D01*
X37008D01*
Y65492D01*
X35992D01*
X90992Y11242D02*
Y12258D01*
X92008D01*
Y11242D01*
X90992D01*
X47742Y45492D02*
Y46508D01*
X48758D01*
Y45492D01*
X47742D01*
X48192Y60042D02*
Y61058D01*
X49208D01*
Y60042D01*
X48192D01*
Y57442D02*
Y58458D01*
X49208D01*
Y57442D01*
X48192D01*
X57492Y46242D02*
Y47258D01*
X58508D01*
Y46242D01*
X57492D01*
X59192Y60729D02*
Y61745D01*
X60208D01*
Y60729D01*
X59192D01*
X61792D02*
Y61745D01*
X62808D01*
Y60729D01*
X61792D01*
X57492Y69242D02*
Y70258D01*
X58508D01*
Y69242D01*
X57492D01*
X48192Y34442D02*
Y35458D01*
X49208D01*
Y34442D01*
X48192D01*
Y37042D02*
Y38058D01*
X49208D01*
Y37042D01*
X48192D01*
X76542Y27192D02*
Y28208D01*
X77558D01*
Y27192D01*
X76542D01*
X74192D02*
Y28208D01*
X75208D01*
Y27192D01*
X74192D01*
X71742Y44742D02*
Y45758D01*
X72758D01*
Y44742D01*
X71742D01*
X78992D02*
Y45758D01*
X80008D01*
Y44742D01*
X78992D01*
Y47742D02*
Y48758D01*
X80008D01*
Y47742D01*
X78992D01*
X71742D02*
Y48758D01*
X72758D01*
Y47742D01*
X71742D01*
X78992Y67742D02*
Y68758D01*
X80008D01*
Y67742D01*
X78992D01*
X71742D02*
Y68758D01*
X72758D01*
Y67742D01*
X71742D01*
X66242Y69242D02*
Y70258D01*
X67258D01*
Y69242D01*
X66242D01*
X59992Y63242D02*
Y64258D01*
X61008D01*
Y63242D01*
X59992D01*
X57492Y65742D02*
Y66758D01*
X58508D01*
Y65742D01*
X57492D01*
Y42742D02*
Y43758D01*
X58508D01*
Y42742D01*
X57492D01*
X59992Y40242D02*
Y41258D01*
X61008D01*
Y40242D01*
X59992D01*
X31242Y73992D02*
Y75008D01*
X32258D01*
Y73992D01*
X31242D01*
Y66742D02*
Y67758D01*
X32258D01*
Y66742D01*
X31242D01*
X7992Y65242D02*
Y66258D01*
X9008D01*
Y65242D01*
X7992D01*
X34662Y72242D02*
Y73258D01*
X35678D01*
Y72242D01*
X34662D01*
X38322Y71242D02*
Y72258D01*
X39338D01*
Y71242D01*
X38322D01*
Y74742D02*
Y75758D01*
X39338D01*
Y74742D01*
X38322D01*
Y81742D02*
Y82758D01*
X39338D01*
Y81742D01*
X38322D01*
Y78242D02*
Y79258D01*
X39338D01*
Y78242D01*
X38322D01*
X81092Y60092D02*
Y61108D01*
X82108D01*
Y60092D01*
X81092D01*
X80092Y58092D02*
Y59108D01*
X81108D01*
Y58092D01*
X80092D01*
X81092Y56092D02*
Y57108D01*
X82108D01*
Y56092D01*
X81092D01*
X80092Y54092D02*
Y55108D01*
X81108D01*
Y54092D01*
X80092D01*
X79092Y60092D02*
Y61108D01*
X80108D01*
Y60092D01*
X79092D01*
X78092Y58092D02*
Y59108D01*
X79108D01*
Y58092D01*
X78092D01*
X79092Y56092D02*
Y57108D01*
X80108D01*
Y56092D01*
X79092D01*
X78092Y54092D02*
Y55108D01*
X79108D01*
Y54092D01*
X78092D01*
X77092Y72092D02*
Y73108D01*
X78108D01*
Y72092D01*
X77092D01*
X76092Y70092D02*
Y71108D01*
X77108D01*
Y70092D01*
X76092D01*
X77092Y68092D02*
Y69108D01*
X78108D01*
Y68092D01*
X77092D01*
X76092Y66092D02*
Y67108D01*
X77108D01*
Y66092D01*
X76092D01*
X77092Y64092D02*
Y65108D01*
X78108D01*
Y64092D01*
X77092D01*
X76092Y62092D02*
Y63108D01*
X77108D01*
Y62092D01*
X76092D01*
X77092Y60092D02*
Y61108D01*
X78108D01*
Y60092D01*
X77092D01*
X76092Y58092D02*
Y59108D01*
X77108D01*
Y58092D01*
X76092D01*
X77092Y56092D02*
Y57108D01*
X78108D01*
Y56092D01*
X77092D01*
X76092Y54092D02*
Y55108D01*
X77108D01*
Y54092D01*
X76092D01*
X75092Y72092D02*
Y73108D01*
X76108D01*
Y72092D01*
X75092D01*
X74092Y70092D02*
Y71108D01*
X75108D01*
Y70092D01*
X74092D01*
X75092Y68092D02*
Y69108D01*
X76108D01*
Y68092D01*
X75092D01*
X74092Y66092D02*
Y67108D01*
X75108D01*
Y66092D01*
X74092D01*
X75092Y64092D02*
Y65108D01*
X76108D01*
Y64092D01*
X75092D01*
X74092Y62092D02*
Y63108D01*
X75108D01*
Y62092D01*
X74092D01*
X75092Y60092D02*
Y61108D01*
X76108D01*
Y60092D01*
X75092D01*
X74092Y58092D02*
Y59108D01*
X75108D01*
Y58092D01*
X74092D01*
X75092Y56092D02*
Y57108D01*
X76108D01*
Y56092D01*
X75092D01*
X74092Y54092D02*
Y55108D01*
X75108D01*
Y54092D01*
X74092D01*
X73092Y72092D02*
Y73108D01*
X74108D01*
Y72092D01*
X73092D01*
Y60092D02*
Y61108D01*
X74108D01*
Y60092D01*
X73092D01*
X72092Y58092D02*
Y59108D01*
X73108D01*
Y58092D01*
X72092D01*
X73092Y56092D02*
Y57108D01*
X74108D01*
Y56092D01*
X73092D01*
X72092Y54092D02*
Y55108D01*
X73108D01*
Y54092D01*
X72092D01*
X71092Y72092D02*
Y73108D01*
X72108D01*
Y72092D01*
X71092D01*
Y60092D02*
Y61108D01*
X72108D01*
Y60092D01*
X71092D01*
X70092Y58092D02*
Y59108D01*
X71108D01*
Y58092D01*
X70092D01*
X71092Y56092D02*
Y57108D01*
X72108D01*
Y56092D01*
X71092D01*
X70092Y54092D02*
Y55108D01*
X71108D01*
Y54092D01*
X70092D01*
X69092Y72092D02*
Y73108D01*
X70108D01*
Y72092D01*
X69092D01*
Y60092D02*
Y61108D01*
X70108D01*
Y60092D01*
X69092D01*
Y56092D02*
Y57108D01*
X70108D01*
Y56092D01*
X69092D01*
X68092Y54092D02*
Y55108D01*
X69108D01*
Y54092D01*
X68092D01*
X67092Y72092D02*
Y73108D01*
X68108D01*
Y72092D01*
X67092D01*
Y56092D02*
Y57108D01*
X68108D01*
Y56092D01*
X67092D01*
X66092Y54092D02*
Y55108D01*
X67108D01*
Y54092D01*
X66092D01*
X65092Y72092D02*
Y73108D01*
X66108D01*
Y72092D01*
X65092D01*
Y56092D02*
Y57108D01*
X66108D01*
Y56092D01*
X65092D01*
X64092Y54092D02*
Y55108D01*
X65108D01*
Y54092D01*
X64092D01*
X63092Y72092D02*
Y73108D01*
X64108D01*
Y72092D01*
X63092D01*
Y56092D02*
Y57108D01*
X64108D01*
Y56092D01*
X63092D01*
X61092Y72092D02*
Y73108D01*
X62108D01*
Y72092D01*
X61092D01*
X59092D02*
Y73108D01*
X60108D01*
Y72092D01*
X59092D01*
X57092D02*
Y73108D01*
X58108D01*
Y72092D01*
X57092D01*
X55092D02*
Y73108D01*
X56108D01*
Y72092D01*
X55092D01*
X53092D02*
Y73108D01*
X54108D01*
Y72092D01*
X53092D01*
X51092D02*
Y73108D01*
X52108D01*
Y72092D01*
X51092D01*
X49092D02*
Y73108D01*
X50108D01*
Y72092D01*
X49092D01*
X47092D02*
Y73108D01*
X48108D01*
Y72092D01*
X47092D01*
X45092D02*
Y73108D01*
X46108D01*
Y72092D01*
X45092D01*
X44092Y70092D02*
Y71108D01*
X45108D01*
Y70092D01*
X44092D01*
Y66092D02*
Y67108D01*
X45108D01*
Y66092D01*
X44092D01*
Y62092D02*
Y63108D01*
X45108D01*
Y62092D01*
X44092D01*
Y58092D02*
Y59108D01*
X45108D01*
Y58092D01*
X44092D01*
Y54092D02*
Y55108D01*
X45108D01*
Y54092D01*
X44092D01*
X43092Y72092D02*
Y73108D01*
X44108D01*
Y72092D01*
X43092D01*
X42092Y70092D02*
Y71108D01*
X43108D01*
Y70092D01*
X42092D01*
X43092Y68092D02*
Y69108D01*
X44108D01*
Y68092D01*
X43092D01*
X42092Y66092D02*
Y67108D01*
X43108D01*
Y66092D01*
X42092D01*
X43092Y64092D02*
Y65108D01*
X44108D01*
Y64092D01*
X43092D01*
X42092Y62092D02*
Y63108D01*
X43108D01*
Y62092D01*
X42092D01*
X43092Y60092D02*
Y61108D01*
X44108D01*
Y60092D01*
X43092D01*
X42092Y58092D02*
Y59108D01*
X43108D01*
Y58092D01*
X42092D01*
X43092Y56092D02*
Y57108D01*
X44108D01*
Y56092D01*
X43092D01*
X42092Y54092D02*
Y55108D01*
X43108D01*
Y54092D01*
X42092D01*
X41092Y72092D02*
Y73108D01*
X42108D01*
Y72092D01*
X41092D01*
Y68092D02*
Y69108D01*
X42108D01*
Y68092D01*
X41092D01*
Y64092D02*
Y65108D01*
X42108D01*
Y64092D01*
X41092D01*
Y60092D02*
Y61108D01*
X42108D01*
Y60092D01*
X41092D01*
X40092Y58092D02*
Y59108D01*
X41108D01*
Y58092D01*
X40092D01*
X41092Y56092D02*
Y57108D01*
X42108D01*
Y56092D01*
X41092D01*
X40092Y54092D02*
Y55108D01*
X41108D01*
Y54092D01*
X40092D01*
X39092Y56092D02*
Y57108D01*
X40108D01*
Y56092D01*
X39092D01*
X38092Y54092D02*
Y55108D01*
X39108D01*
Y54092D01*
X38092D01*
X35092Y56092D02*
Y57108D01*
X36108D01*
Y56092D01*
X35092D01*
X59592Y59592D02*
Y60608D01*
X60608D01*
Y59592D01*
X59592D01*
X60342Y58092D02*
Y59108D01*
X61358D01*
Y58092D01*
X60342D01*
X59592Y56592D02*
Y57608D01*
X60608D01*
Y56592D01*
X59592D01*
X60342Y55092D02*
Y56108D01*
X61358D01*
Y55092D01*
X60342D01*
X58092Y59592D02*
Y60608D01*
X59108D01*
Y59592D01*
X58092D01*
X58842Y58092D02*
Y59108D01*
X59858D01*
Y58092D01*
X58842D01*
X58092Y56592D02*
Y57608D01*
X59108D01*
Y56592D01*
X58092D01*
X60492Y61255D02*
Y62271D01*
X61508D01*
Y61255D01*
X60492D01*
X60342Y35592D02*
Y36608D01*
X61358D01*
Y35592D01*
X60342D01*
X59592Y34092D02*
Y35108D01*
X60608D01*
Y34092D01*
X59592D01*
X60342Y32592D02*
Y33608D01*
X61358D01*
Y32592D01*
X60342D01*
X58092Y37092D02*
Y38108D01*
X59108D01*
Y37092D01*
X58092D01*
X58842Y35592D02*
Y36608D01*
X59858D01*
Y35592D01*
X58842D01*
X58092Y34092D02*
Y35108D01*
X59108D01*
Y34092D01*
X58092D01*
X90092Y56092D02*
Y57108D01*
X91108D01*
Y56092D01*
X90092D01*
Y48092D02*
Y49108D01*
X91108D01*
Y48092D01*
X90092D01*
X91092Y46092D02*
Y47108D01*
X92108D01*
Y46092D01*
X91092D01*
Y38092D02*
Y39108D01*
X92108D01*
Y38092D01*
X91092D01*
X90092Y36092D02*
Y37108D01*
X91108D01*
Y36092D01*
X90092D01*
Y28092D02*
Y29108D01*
X91108D01*
Y28092D01*
X90092D01*
X91092Y26092D02*
Y27108D01*
X92108D01*
Y26092D01*
X91092D01*
X90092Y16092D02*
Y17108D01*
X91108D01*
Y16092D01*
X90092D01*
X89092Y18092D02*
Y19108D01*
X90108D01*
Y18092D01*
X89092D01*
X86092Y56092D02*
Y57108D01*
X87108D01*
Y56092D01*
X86092D01*
Y52092D02*
Y53108D01*
X87108D01*
Y52092D01*
X86092D01*
Y48092D02*
Y49108D01*
X87108D01*
Y48092D01*
X86092D01*
X87092Y46092D02*
Y47108D01*
X88108D01*
Y46092D01*
X87092D01*
X86092Y44092D02*
Y45108D01*
X87108D01*
Y44092D01*
X86092D01*
Y40092D02*
Y41108D01*
X87108D01*
Y40092D01*
X86092D01*
X87092Y38092D02*
Y39108D01*
X88108D01*
Y38092D01*
X87092D01*
X86092Y36092D02*
Y37108D01*
X87108D01*
Y36092D01*
X86092D01*
Y32092D02*
Y33108D01*
X87108D01*
Y32092D01*
X86092D01*
Y28092D02*
Y29108D01*
X87108D01*
Y28092D01*
X86092D01*
X87092Y26092D02*
Y27108D01*
X88108D01*
Y26092D01*
X87092D01*
X86092Y24092D02*
Y25108D01*
X87108D01*
Y24092D01*
X86092D01*
Y20092D02*
Y21108D01*
X87108D01*
Y20092D01*
X86092D01*
X87092Y18092D02*
Y19108D01*
X88108D01*
Y18092D01*
X87092D01*
X86092Y16092D02*
Y17108D01*
X87108D01*
Y16092D01*
X86092D01*
X84092Y56092D02*
Y57108D01*
X85108D01*
Y56092D01*
X84092D01*
X85092Y54092D02*
Y55108D01*
X86108D01*
Y54092D01*
X85092D01*
X84092Y52092D02*
Y53108D01*
X85108D01*
Y52092D01*
X84092D01*
X85092Y50092D02*
Y51108D01*
X86108D01*
Y50092D01*
X85092D01*
X84092Y48092D02*
Y49108D01*
X85108D01*
Y48092D01*
X84092D01*
X85092Y46092D02*
Y47108D01*
X86108D01*
Y46092D01*
X85092D01*
X84092Y44092D02*
Y45108D01*
X85108D01*
Y44092D01*
X84092D01*
X85092Y42092D02*
Y43108D01*
X86108D01*
Y42092D01*
X85092D01*
X84092Y40092D02*
Y41108D01*
X85108D01*
Y40092D01*
X84092D01*
X85092Y38092D02*
Y39108D01*
X86108D01*
Y38092D01*
X85092D01*
X84092Y36092D02*
Y37108D01*
X85108D01*
Y36092D01*
X84092D01*
X85092Y34092D02*
Y35108D01*
X86108D01*
Y34092D01*
X85092D01*
X84092Y32092D02*
Y33108D01*
X85108D01*
Y32092D01*
X84092D01*
X85092Y30092D02*
Y31108D01*
X86108D01*
Y30092D01*
X85092D01*
X84092Y28092D02*
Y29108D01*
X85108D01*
Y28092D01*
X84092D01*
X85092Y26092D02*
Y27108D01*
X86108D01*
Y26092D01*
X85092D01*
X84092Y24092D02*
Y25108D01*
X85108D01*
Y24092D01*
X84092D01*
X85092Y22092D02*
Y23108D01*
X86108D01*
Y22092D01*
X85092D01*
X84092Y20092D02*
Y21108D01*
X85108D01*
Y20092D01*
X84092D01*
X85092Y18092D02*
Y19108D01*
X86108D01*
Y18092D01*
X85092D01*
X84092Y16092D02*
Y17108D01*
X85108D01*
Y16092D01*
X84092D01*
X83092Y50092D02*
Y51108D01*
X84108D01*
Y50092D01*
X83092D01*
Y46092D02*
Y47108D01*
X84108D01*
Y46092D01*
X83092D01*
Y42092D02*
Y43108D01*
X84108D01*
Y42092D01*
X83092D01*
Y38092D02*
Y39108D01*
X84108D01*
Y38092D01*
X83092D01*
X82092Y36092D02*
Y37108D01*
X83108D01*
Y36092D01*
X82092D01*
X83092Y34092D02*
Y35108D01*
X84108D01*
Y34092D01*
X83092D01*
X82092Y32092D02*
Y33108D01*
X83108D01*
Y32092D01*
X82092D01*
X83092Y26092D02*
Y27108D01*
X84108D01*
Y26092D01*
X83092D01*
Y22092D02*
Y23108D01*
X84108D01*
Y22092D01*
X83092D01*
Y18092D02*
Y19108D01*
X84108D01*
Y18092D01*
X83092D01*
X81092Y38092D02*
Y39108D01*
X82108D01*
Y38092D01*
X81092D01*
Y34092D02*
Y35108D01*
X82108D01*
Y34092D01*
X81092D01*
Y30092D02*
Y31108D01*
X82108D01*
Y30092D01*
X81092D01*
X79092D02*
Y31108D01*
X80108D01*
Y30092D01*
X79092D01*
X77092Y38092D02*
Y39108D01*
X78108D01*
Y38092D01*
X77092D01*
X76092Y36092D02*
Y37108D01*
X77108D01*
Y36092D01*
X76092D01*
X77092Y34092D02*
Y35108D01*
X78108D01*
Y34092D01*
X77092D01*
X76092Y32092D02*
Y33108D01*
X77108D01*
Y32092D01*
X76092D01*
X77092Y30092D02*
Y31108D01*
X78108D01*
Y30092D01*
X77092D01*
X75092Y38092D02*
Y39108D01*
X76108D01*
Y38092D01*
X75092D01*
X74092Y36092D02*
Y37108D01*
X75108D01*
Y36092D01*
X74092D01*
X75092Y34092D02*
Y35108D01*
X76108D01*
Y34092D01*
X75092D01*
X74092Y32092D02*
Y33108D01*
X75108D01*
Y32092D01*
X74092D01*
X75092Y30092D02*
Y31108D01*
X76108D01*
Y30092D01*
X75092D01*
X73092Y38092D02*
Y39108D01*
X74108D01*
Y38092D01*
X73092D01*
Y30092D02*
Y31108D01*
X74108D01*
Y30092D01*
X73092D01*
X70092Y36092D02*
Y37108D01*
X71108D01*
Y36092D01*
X70092D01*
Y32092D02*
Y33108D01*
X71108D01*
Y32092D01*
X70092D01*
X71092Y30092D02*
Y31108D01*
X72108D01*
Y30092D01*
X71092D01*
X69092Y38092D02*
Y39108D01*
X70108D01*
Y38092D01*
X69092D01*
Y34092D02*
Y35108D01*
X70108D01*
Y34092D01*
X69092D01*
X68092Y32092D02*
Y33108D01*
X69108D01*
Y32092D01*
X68092D01*
X69092Y30092D02*
Y31108D01*
X70108D01*
Y30092D01*
X69092D01*
X67092Y34092D02*
Y35108D01*
X68108D01*
Y34092D01*
X67092D01*
X66092Y32092D02*
Y33108D01*
X67108D01*
Y32092D01*
X66092D01*
X67092Y30092D02*
Y31108D01*
X68108D01*
Y30092D01*
X67092D01*
X65092Y34092D02*
Y35108D01*
X66108D01*
Y34092D01*
X65092D01*
Y30092D02*
Y31108D01*
X66108D01*
Y30092D01*
X65092D01*
X60492Y38255D02*
Y39271D01*
X61508D01*
Y38255D01*
X60492D01*
X61792Y37729D02*
Y38745D01*
X62808D01*
Y37729D01*
X61792D01*
X59192D02*
Y38745D01*
X60208D01*
Y37729D01*
X59192D01*
D78*
X16048Y73000D02*
G03*
X16048Y73000I-508J0D01*
G01*
X13508D02*
G03*
X13508Y73000I-508J0D01*
G01*
X10968D02*
G03*
X10968Y73000I-508J0D01*
G01*
Y67250D02*
G03*
X10968Y67250I-508J0D01*
G01*
X13508D02*
G03*
X13508Y67250I-508J0D01*
G01*
X16048D02*
G03*
X16048Y67250I-508J0D01*
G01*
X21818D02*
G03*
X21818Y67250I-508J0D01*
G01*
X24358D02*
G03*
X24358Y67250I-508J0D01*
G01*
X26898D02*
G03*
X26898Y67250I-508J0D01*
G01*
Y73000D02*
G03*
X26898Y73000I-508J0D01*
G01*
X24358D02*
G03*
X24358Y73000I-508J0D01*
G01*
X21818D02*
G03*
X21818Y73000I-508J0D01*
G01*
%TF.MD5,6e3597f155dca2e5ab26c7e756932d88*%
M02*
