%TF.GenerationSoftware,Altium Limited,Altium Designer,25.2.1 (25)*%
G04 Layer_Color=16711833*
%FSLAX43Y43*%
%MOMM*%
%TF.SameCoordinates,C3C72CCD-19DF-4086-A731-6AB0B0A2BFE7*%
%TF.FilePolarity,Positive*%
%TF.FileFunction,Other,Mechanical_13*%
%TF.Part,Single*%
G01*
G75*
%TA.AperFunction,NonConductor*%
%ADD40C,0.200*%
%ADD41C,0.100*%
%ADD44C,0.254*%
D40*
X88590Y1500D02*
Y9100D01*
X73410Y1500D02*
X88590D01*
X73410Y9100D02*
X88590D01*
X73410Y1500D02*
Y9100D01*
X80225Y37380D02*
Y40620D01*
X84775D01*
Y37380D02*
Y40620D01*
X80225Y37380D02*
X84775D01*
D41*
X47600Y19200D02*
X48400D01*
X47600D02*
Y20800D01*
X48400D01*
Y19200D02*
Y20800D01*
X56145Y2460D02*
Y7540D01*
X38355Y2460D02*
X56145D01*
X38355D02*
Y7540D01*
X56145D01*
X7540Y18170D02*
Y28335D01*
X936Y25795D02*
X941Y25800D01*
X2460D01*
X936Y25795D02*
X941Y25800D01*
X936Y20705D02*
Y25795D01*
X2460Y28335D02*
X7540D01*
X2460Y25800D02*
Y28335D01*
X936Y20705D02*
X2460D01*
X2460Y18170D02*
X7540D01*
X2460D02*
Y20705D01*
X27600Y16450D02*
Y18050D01*
X28400D01*
Y16450D02*
Y18050D01*
X27600Y16450D02*
X28400D01*
X27375Y15000D02*
X28625D01*
X27375Y13000D02*
Y15000D01*
Y13000D02*
X28625D01*
Y15000D01*
X25375D02*
X26625D01*
X25375Y13000D02*
Y15000D01*
Y13000D02*
X26625D01*
Y15000D01*
X25600Y16450D02*
Y18050D01*
X26400D01*
Y16450D02*
Y18050D01*
X25600Y16450D02*
X26400D01*
X85300Y58850D02*
Y59650D01*
X83700Y58850D02*
X85300D01*
X83700D02*
Y59650D01*
X85300D01*
X31300Y56350D02*
Y57150D01*
X29700Y56350D02*
X31300D01*
X29700D02*
Y57150D01*
X31300D01*
X58300Y56350D02*
Y57150D01*
X56700Y56350D02*
X58300D01*
X56700D02*
Y57150D01*
X58300D01*
Y58850D02*
Y59650D01*
X56700Y58850D02*
X58300D01*
X56700D02*
Y59650D01*
X58300D01*
X31300Y58850D02*
Y59650D01*
X29700Y58850D02*
X31300D01*
X29700D02*
Y59650D01*
X31300D01*
X85300Y56350D02*
Y57150D01*
X83700Y56350D02*
X85300D01*
X83700D02*
Y57150D01*
X85300D01*
X73075Y18550D02*
X76925D01*
X73075D02*
Y23450D01*
X76925D01*
Y18550D02*
Y23450D01*
X75655Y18550D02*
X76925Y19820D01*
X38700Y32850D02*
Y33650D01*
X40300D01*
Y32850D02*
Y33650D01*
X38700Y32850D02*
X40300D01*
X52100Y40800D02*
X52900D01*
Y39200D02*
Y40800D01*
X52100Y39200D02*
X52900D01*
X52100D02*
Y40800D01*
X49100D02*
X49900D01*
Y39200D02*
Y40800D01*
X49100Y39200D02*
X49900D01*
X49100D02*
Y40800D01*
X60300Y33600D02*
Y34400D01*
X58700Y33600D02*
X60300D01*
X58700D02*
Y34400D01*
X60300D01*
X72100Y30200D02*
Y31800D01*
Y30200D02*
X72900D01*
Y31800D01*
X72100D02*
X72900D01*
X32900Y11200D02*
Y12800D01*
X32100D02*
X32900D01*
X32100Y11200D02*
Y12800D01*
Y11200D02*
X32900D01*
X16400D02*
Y12800D01*
X15600D02*
X16400D01*
X15600Y11200D02*
Y12800D01*
Y11200D02*
X16400D01*
X18900D02*
Y12800D01*
X18100D02*
X18900D01*
X18100Y11200D02*
Y12800D01*
Y11200D02*
X18900D01*
X30400D02*
Y12800D01*
X29600D02*
X30400D01*
X29600Y11200D02*
Y12800D01*
Y11200D02*
X30400D01*
X72100Y38700D02*
Y40300D01*
Y38700D02*
X72900D01*
Y40300D01*
X72100D02*
X72900D01*
X55100Y39200D02*
Y40800D01*
Y39200D02*
X55900D01*
Y40800D01*
X55100D02*
X55900D01*
X58900Y39200D02*
Y40800D01*
X58100D02*
X58900D01*
X58100Y39200D02*
Y40800D01*
Y39200D02*
X58900D01*
X56600D02*
X57400D01*
X56600D02*
Y40800D01*
X57400D01*
Y39200D02*
Y40800D01*
X59600D02*
X60400D01*
Y39200D02*
Y40800D01*
X59600Y39200D02*
X60400D01*
X59600D02*
Y40800D01*
X60300Y30600D02*
Y31400D01*
X58700Y30600D02*
X60300D01*
X58700D02*
Y31400D01*
X60300D01*
X50600Y19200D02*
X51400D01*
X50600D02*
Y20800D01*
X51400D01*
Y19200D02*
Y20800D01*
X38700Y30350D02*
Y31150D01*
X40300D01*
Y30350D02*
Y31150D01*
X38700Y30350D02*
X40300D01*
X38700Y27350D02*
Y28150D01*
X40300D01*
Y27350D02*
Y28150D01*
X38700Y27350D02*
X40300D01*
X46100Y19200D02*
X46900D01*
X46100D02*
Y20800D01*
X46900D01*
Y19200D02*
Y20800D01*
X53600Y40800D02*
X54400D01*
Y39200D02*
Y40800D01*
X53600Y39200D02*
X54400D01*
X53600D02*
Y40800D01*
X45600D02*
X46400D01*
Y39200D02*
Y40800D01*
X45600Y39200D02*
X46400D01*
X45600D02*
Y40800D01*
X60300Y29100D02*
Y29900D01*
X58700Y29100D02*
X60300D01*
X58700D02*
Y29900D01*
X60300D01*
Y25600D02*
Y26400D01*
X58700Y25600D02*
X60300D01*
X58700D02*
Y26400D01*
X60300D01*
X52900Y19200D02*
Y20800D01*
X52100Y19200D02*
X52900D01*
X52100D02*
Y20800D01*
X52900D01*
X48500Y20600D02*
X51000D01*
X48500Y17400D02*
Y20600D01*
Y17400D02*
X51000D01*
Y20600D01*
X52100Y16450D02*
X52900D01*
Y18050D01*
X52100D02*
X52900D01*
X52100Y16450D02*
Y18050D01*
X46600Y18700D02*
X47400D01*
Y20300D01*
X46600D02*
X47400D01*
X46600Y18700D02*
Y20300D01*
X84450Y44850D02*
X86050D01*
X84450D02*
Y45650D01*
X86050D01*
Y44850D02*
Y45650D01*
X84450Y46350D02*
X86050D01*
X84450D02*
Y47150D01*
X86050D01*
Y46350D02*
Y47150D01*
X93500Y9375D02*
X95500D01*
X93500D02*
Y10625D01*
X95500D01*
Y9375D02*
Y10625D01*
X89915Y41530D02*
X98085D01*
Y50470D01*
X89915D02*
X98085D01*
X89915Y41530D02*
Y50470D01*
X89700Y52600D02*
X91300D01*
X89700D02*
Y53400D01*
X91300D01*
Y52600D02*
Y53400D01*
X89700Y38600D02*
X91300D01*
X89700D02*
Y39400D01*
X91300D01*
Y38600D02*
Y39400D01*
X40385Y44115D02*
X45616D01*
Y38885D02*
Y44115D01*
X40385Y38885D02*
X45616D01*
X40385D02*
Y44115D01*
Y42845D02*
X41655Y44115D01*
X47050Y45100D02*
Y45900D01*
X45450D02*
X47050D01*
X45450Y45100D02*
Y45900D01*
Y45100D02*
X47050D01*
X82650Y21550D02*
X83150Y22050D01*
X82650Y19950D02*
Y22050D01*
Y19950D02*
X83850D01*
Y22050D01*
X82650D02*
X83850D01*
X73300Y24350D02*
Y25150D01*
X71700D02*
X73300D01*
X71700Y24350D02*
Y25150D01*
Y24350D02*
X73300D01*
X76700D02*
Y25150D01*
Y24350D02*
X78300D01*
Y25150D01*
X76700D02*
X78300D01*
X66875Y15000D02*
X68125D01*
X66875Y13000D02*
Y15000D01*
Y13000D02*
X68125D01*
Y15000D01*
X70150Y13200D02*
Y14800D01*
X69350Y13200D02*
X70150D01*
X69350D02*
Y14800D01*
X70150D01*
X91460Y26415D02*
Y36580D01*
X98059Y28950D02*
X98064Y28955D01*
X96540Y28950D02*
X98059D01*
X98064Y28955D01*
Y34045D01*
X91460Y26415D02*
X96540D01*
Y28950D01*
X96540Y34045D02*
X98064D01*
X91460Y36580D02*
X96540D01*
Y34045D02*
Y36580D01*
X91460Y12915D02*
Y23080D01*
X98059Y15450D02*
X98064Y15455D01*
X96540Y15450D02*
X98059D01*
X98064Y15455D01*
Y20545D01*
X91460Y12915D02*
X96540D01*
Y15450D01*
X96540Y20545D02*
X98064D01*
X91460Y23080D02*
X96540D01*
Y20545D02*
Y23080D01*
X29375Y15000D02*
X30625D01*
X29375Y13000D02*
Y15000D01*
Y13000D02*
X30625D01*
Y15000D01*
X29600Y16450D02*
Y18050D01*
X30400D01*
Y16450D02*
Y18050D01*
X29600Y16450D02*
X30400D01*
X31375Y15000D02*
X32625D01*
X31375Y13000D02*
Y15000D01*
Y13000D02*
X32625D01*
Y15000D01*
X10915Y7540D02*
X21080D01*
X13450Y941D02*
X13455Y936D01*
X13450Y941D02*
Y2460D01*
Y941D02*
X13455Y936D01*
X18545D01*
X10915Y2460D02*
Y7540D01*
Y2460D02*
X13450D01*
X18545Y936D02*
Y2460D01*
X21080Y2460D02*
Y7540D01*
X18545Y2460D02*
X21080D01*
X24915Y7540D02*
X35080D01*
X27450Y941D02*
X27455Y936D01*
X27450Y941D02*
Y2460D01*
Y941D02*
X27455Y936D01*
X32545D01*
X24915Y2460D02*
Y7540D01*
Y2460D02*
X27450D01*
X32545Y936D02*
Y2460D01*
X35080Y2460D02*
Y7540D01*
X32545Y2460D02*
X35080D01*
X31600Y16450D02*
Y18050D01*
X32400D01*
Y16450D02*
Y18050D01*
X31600Y16450D02*
X32400D01*
X33375Y15000D02*
X34625D01*
X33375Y13000D02*
Y15000D01*
Y13000D02*
X34625D01*
Y15000D01*
X33600Y16450D02*
Y18050D01*
X34400D01*
Y16450D02*
Y18050D01*
X33600Y16450D02*
X34400D01*
X59915Y7540D02*
X70080D01*
X62450Y941D02*
X62455Y936D01*
X62450Y941D02*
Y2460D01*
Y941D02*
X62455Y936D01*
X67545D01*
X59915Y2460D02*
Y7540D01*
Y2460D02*
X62450D01*
X67545Y936D02*
Y2460D01*
X70080Y2460D02*
Y7540D01*
X67545Y2460D02*
X70080D01*
X938Y9317D02*
X7542D01*
Y16683D01*
X938D02*
X7542D01*
X938Y9317D02*
Y16683D01*
X7540Y30420D02*
Y40585D01*
X936Y38045D02*
X941Y38050D01*
X2460D01*
X936Y38045D02*
X941Y38050D01*
X936Y32955D02*
Y38045D01*
X2460Y40585D02*
X7540D01*
X2460Y38050D02*
Y40585D01*
X936Y32955D02*
X2460D01*
X2460Y30420D02*
X7540D01*
X2460D02*
Y32955D01*
X7540Y41420D02*
Y51585D01*
X936Y49045D02*
X941Y49050D01*
X2460D01*
X936Y49045D02*
X941Y49050D01*
X936Y43955D02*
Y49045D01*
X2460Y51585D02*
X7540D01*
X2460Y49050D02*
Y51585D01*
X936Y43955D02*
X2460D01*
X2460Y41420D02*
X7540D01*
X2460D02*
Y43955D01*
X25550Y44350D02*
Y45150D01*
X23950D02*
X25550D01*
X23950Y44350D02*
Y45150D01*
Y44350D02*
X25550D01*
X20050D02*
Y45150D01*
X18450D02*
X20050D01*
X18450Y44350D02*
Y45150D01*
Y44350D02*
X20050D01*
X8460Y30415D02*
Y40580D01*
X15059Y32950D02*
X15064Y32955D01*
X13540Y32950D02*
X15059D01*
X15064Y32955D01*
Y38045D01*
X8460Y30415D02*
X13540D01*
Y32950D01*
X13540Y38045D02*
X15064D01*
X8460Y40580D02*
X13540D01*
Y38045D02*
Y40580D01*
X8460Y41415D02*
Y51580D01*
X15059Y43950D02*
X15064Y43955D01*
X13540Y43950D02*
X15059D01*
X15064Y43955D01*
Y49045D01*
X8460Y41415D02*
X13540D01*
Y43950D01*
X13540Y49045D02*
X15064D01*
X8460Y51580D02*
X13540D01*
Y49045D02*
Y51580D01*
X19800Y42850D02*
X20450Y43500D01*
X19800Y38500D02*
Y43500D01*
Y38500D02*
X24200D01*
Y43500D01*
X19800D02*
X24200D01*
D44*
X69505Y26505D02*
X75495D01*
X69505D02*
Y32495D01*
X75495D01*
Y26505D02*
Y32495D01*
X69505Y40995D02*
X75495D01*
Y35005D02*
Y40995D01*
X69505Y35005D02*
X75495D01*
X69505D02*
Y40995D01*
%TF.MD5,65407bc3be53d7eb17268ef56a1a40fa*%
M02*
