%TF.GenerationSoftware,Altium Limited,Altium Designer,25.2.1 (25)*%
G04 Layer_Color=128*
%FSLAX43Y43*%
%MOMM*%
%TF.SameCoordinates,C3C72CCD-19DF-4086-A731-6AB0B0A2BFE7*%
%TF.FilePolarity,Positive*%
%TF.FileFunction,Drillmap*%
%TF.Part,Single*%
G01*
G75*
%TA.AperFunction,NonConductor*%
%ADD73C,0.127*%
D73*
X75270Y5000D02*
X76570D01*
X75920Y4350D02*
Y5650D01*
X80350Y5000D02*
X81650D01*
X81000Y4350D02*
Y5650D01*
X85430Y5000D02*
X86730D01*
X86080Y4350D02*
Y5650D01*
X28619Y42000D02*
X29381D01*
X29000Y41619D02*
Y42381D01*
X28619Y44540D02*
X29381D01*
X29000Y44159D02*
Y44921D01*
X28619Y39460D02*
X29381D01*
X29000Y39079D02*
Y39841D01*
X92750Y4500D02*
X96250D01*
X94500Y2750D02*
Y6250D01*
X2750Y4500D02*
X6250D01*
X4500Y2750D02*
Y6250D01*
X2750Y59500D02*
X6250D01*
X4500Y57750D02*
Y61250D01*
X92750Y59500D02*
X96250D01*
X94500Y57750D02*
Y61250D01*
X53050Y5000D02*
X54150D01*
X53600Y4450D02*
Y5550D01*
X50510Y5000D02*
X51610D01*
X51060Y4450D02*
Y5550D01*
X47970Y5000D02*
X49070D01*
X48520Y4450D02*
Y5550D01*
X45430Y5000D02*
X46530D01*
X45980Y4450D02*
Y5550D01*
X42890Y5000D02*
X43990D01*
X43440Y4450D02*
Y5550D01*
X40350Y5000D02*
X41450D01*
X40900Y4450D02*
Y5550D01*
X4425Y25790D02*
X5575D01*
X5000Y25215D02*
Y26365D01*
X4425Y23250D02*
X5575D01*
X5000Y22675D02*
Y23825D01*
X4425Y20710D02*
X5575D01*
X5000Y20135D02*
Y21285D01*
X75250Y27250D02*
X76250D01*
X75750Y26750D02*
Y27750D01*
X68750Y27250D02*
X69750D01*
X69250Y26750D02*
Y27750D01*
X75250Y31750D02*
X76250D01*
X75750Y31250D02*
Y32250D01*
X68750Y31750D02*
X69750D01*
X69250Y31250D02*
Y32250D01*
X92360Y42400D02*
X93110D01*
X92735Y42025D02*
Y42775D01*
X92295Y49600D02*
X93045D01*
X92670Y49225D02*
Y49975D01*
X94910Y50320D02*
X96660D01*
X95785Y49445D02*
Y51195D01*
X94910Y41680D02*
X96660D01*
X95785Y40805D02*
Y42555D01*
X89985Y50320D02*
X91485D01*
X90735Y49570D02*
Y51070D01*
X89985Y41680D02*
X91485D01*
X90735Y40930D02*
Y42430D01*
X68750Y40250D02*
X69750D01*
X69250Y39750D02*
Y40750D01*
X75250Y40250D02*
X76250D01*
X75750Y39750D02*
Y40750D01*
X68750Y35750D02*
X69750D01*
X69250Y35250D02*
Y36250D01*
X75250Y35750D02*
X76250D01*
X75750Y35250D02*
Y36250D01*
X93425Y28960D02*
X94575D01*
X94000Y28385D02*
Y29535D01*
X93425Y31500D02*
X94575D01*
X94000Y30925D02*
Y32075D01*
X93425Y34040D02*
X94575D01*
X94000Y33465D02*
Y34615D01*
X93425Y15460D02*
X94575D01*
X94000Y14885D02*
Y16035D01*
X93425Y18000D02*
X94575D01*
X94000Y17425D02*
Y18575D01*
X93425Y20540D02*
X94575D01*
X94000Y19965D02*
Y21115D01*
X12885Y5000D02*
X14035D01*
X13460Y4425D02*
Y5575D01*
X15425Y5000D02*
X16575D01*
X16000Y4425D02*
Y5575D01*
X17965Y5000D02*
X19115D01*
X18540Y4425D02*
Y5575D01*
X26885Y5000D02*
X28035D01*
X27460Y4425D02*
Y5575D01*
X29425Y5000D02*
X30575D01*
X30000Y4425D02*
Y5575D01*
X31965Y5000D02*
X33115D01*
X32540Y4425D02*
Y5575D01*
X61885Y5000D02*
X63035D01*
X62460Y4425D02*
Y5575D01*
X64425Y5000D02*
X65575D01*
X65000Y4425D02*
Y5575D01*
X66965Y5000D02*
X68115D01*
X67540Y4425D02*
Y5575D01*
X4425Y11730D02*
X5575D01*
X5000Y11155D02*
Y12305D01*
X4425Y14270D02*
X5575D01*
X5000Y13695D02*
Y14845D01*
X27080Y59370D02*
X28080D01*
X27580Y58870D02*
Y59870D01*
X27080Y56830D02*
X28080D01*
X27580Y56330D02*
Y57330D01*
X24540Y59370D02*
X25540D01*
X25040Y58870D02*
Y59870D01*
X24540Y56830D02*
X25540D01*
X25040Y56330D02*
Y57330D01*
X22000Y59370D02*
X23000D01*
X22500Y58870D02*
Y59870D01*
X22000Y56830D02*
X23000D01*
X22500Y56330D02*
Y57330D01*
X19460Y59370D02*
X20460D01*
X19960Y58870D02*
Y59870D01*
X19460Y56830D02*
X20460D01*
X19960Y56330D02*
Y57330D01*
X16920Y59370D02*
X17920D01*
X17420Y58870D02*
Y59870D01*
X16920Y56830D02*
X17920D01*
X17420Y56330D02*
Y57330D01*
X54080Y59370D02*
X55080D01*
X54580Y58870D02*
Y59870D01*
X54080Y56830D02*
X55080D01*
X54580Y56330D02*
Y57330D01*
X51540Y59370D02*
X52540D01*
X52040Y58870D02*
Y59870D01*
X51540Y56830D02*
X52540D01*
X52040Y56330D02*
Y57330D01*
X49000Y59370D02*
X50000D01*
X49500Y58870D02*
Y59870D01*
X49000Y56830D02*
X50000D01*
X49500Y56330D02*
Y57330D01*
X46460Y59370D02*
X47460D01*
X46960Y58870D02*
Y59870D01*
X46460Y56830D02*
X47460D01*
X46960Y56330D02*
Y57330D01*
X43920Y59370D02*
X44920D01*
X44420Y58870D02*
Y59870D01*
X43920Y56830D02*
X44920D01*
X44420Y56330D02*
Y57330D01*
X81080Y59370D02*
X82080D01*
X81580Y58870D02*
Y59870D01*
X81080Y56830D02*
X82080D01*
X81580Y56330D02*
Y57330D01*
X78540Y59370D02*
X79540D01*
X79040Y58870D02*
Y59870D01*
X78540Y56830D02*
X79540D01*
X79040Y56330D02*
Y57330D01*
X76000Y59370D02*
X77000D01*
X76500Y58870D02*
Y59870D01*
X76000Y56830D02*
X77000D01*
X76500Y56330D02*
Y57330D01*
X73460Y59370D02*
X74460D01*
X73960Y58870D02*
Y59870D01*
X73460Y56830D02*
X74460D01*
X73960Y56330D02*
Y57330D01*
X70920Y59370D02*
X71920D01*
X71420Y58870D02*
Y59870D01*
X70920Y56830D02*
X71920D01*
X71420Y56330D02*
Y57330D01*
X4425Y38040D02*
X5575D01*
X5000Y37465D02*
Y38615D01*
X4425Y35500D02*
X5575D01*
X5000Y34925D02*
Y36075D01*
X4425Y32960D02*
X5575D01*
X5000Y32385D02*
Y33535D01*
X4425Y49040D02*
X5575D01*
X5000Y48465D02*
Y49615D01*
X4425Y46500D02*
X5575D01*
X5000Y45925D02*
Y47075D01*
X4425Y43960D02*
X5575D01*
X5000Y43385D02*
Y44535D01*
X10425Y32960D02*
X11575D01*
X11000Y32385D02*
Y33535D01*
X10425Y35500D02*
X11575D01*
X11000Y34925D02*
Y36075D01*
X10425Y38040D02*
X11575D01*
X11000Y37465D02*
Y38615D01*
X10425Y43960D02*
X11575D01*
X11000Y43385D02*
Y44535D01*
X10425Y46500D02*
X11575D01*
X11000Y45925D02*
Y47075D01*
X10425Y49040D02*
X11575D01*
X11000Y48465D02*
Y49615D01*
X92100Y10000D02*
X92400D01*
X92250Y9850D02*
Y10150D01*
X77850Y26000D02*
X78150D01*
X78000Y25850D02*
Y26150D01*
X31850Y38000D02*
X32150D01*
X32000Y37850D02*
Y38150D01*
X32850Y38000D02*
X33150D01*
X33000Y37850D02*
Y38150D01*
X33850Y38000D02*
X34150D01*
X34000Y37850D02*
Y38150D01*
X50100Y16000D02*
X50400D01*
X50250Y15850D02*
Y16150D01*
X33850Y11750D02*
X34150D01*
X34000Y11600D02*
Y11900D01*
X40850Y37000D02*
X41150D01*
X41000Y36850D02*
Y37150D01*
X50100Y45500D02*
X50400D01*
X50250Y45350D02*
Y45650D01*
X18350Y48000D02*
X18650D01*
X18500Y47850D02*
Y48150D01*
X41850Y19000D02*
X42150D01*
X42000Y18850D02*
Y19150D01*
X40850Y19000D02*
X41150D01*
X41000Y18850D02*
Y19150D01*
X52850Y27250D02*
X53150D01*
X53000Y27100D02*
Y27400D01*
X52850Y28250D02*
X53150D01*
X53000Y28100D02*
Y28400D01*
X19850Y11750D02*
X20150D01*
X20000Y11600D02*
Y11900D01*
X34600Y30750D02*
X34900D01*
X34750Y30600D02*
Y30900D01*
X34600Y27750D02*
X34900D01*
X34750Y27600D02*
Y27900D01*
X60100Y35250D02*
X60400D01*
X60250Y35100D02*
Y35400D01*
X60100Y28250D02*
X60400D01*
X60250Y28100D02*
Y28400D01*
X44600Y41000D02*
X44900D01*
X44750Y40850D02*
Y41150D01*
X61100Y39250D02*
X61400D01*
X61250Y39100D02*
Y39400D01*
X61100Y40750D02*
X61400D01*
X61250Y40600D02*
Y40900D01*
X27100Y26750D02*
X27400D01*
X27250Y26600D02*
Y26900D01*
X51100Y16000D02*
X51400D01*
X51250Y15850D02*
Y16150D01*
X45100Y18750D02*
X45400D01*
X45250Y18600D02*
Y18900D01*
X44100Y21750D02*
X44400D01*
X44250Y21600D02*
Y21900D01*
X65850Y13000D02*
X66150D01*
X66000Y12850D02*
Y13150D01*
X41100Y43250D02*
X41400D01*
X41250Y43100D02*
Y43400D01*
X72350Y28250D02*
X72650D01*
X72500Y28100D02*
Y28400D01*
X51100Y26250D02*
X51400D01*
X51250Y26100D02*
Y26400D01*
X35600Y13000D02*
X35900D01*
X35750Y12850D02*
Y13150D01*
X47350Y21750D02*
X47650D01*
X47500Y21600D02*
Y21900D01*
X21850Y44750D02*
X22150D01*
X22000Y44600D02*
Y44900D01*
X85100Y58000D02*
X85400D01*
X85250Y57850D02*
Y58150D01*
X58100Y58000D02*
X58400D01*
X58250Y57850D02*
Y58150D01*
X31100Y58000D02*
X31400D01*
X31250Y57850D02*
Y58150D01*
X74850Y24750D02*
X75150D01*
X75000Y24600D02*
Y24900D01*
X81100Y22000D02*
X81400D01*
X81250Y21850D02*
Y22150D01*
X70350Y20500D02*
X70650D01*
X70500Y20350D02*
Y20650D01*
X70350Y23000D02*
X70650D01*
X70500Y22850D02*
Y23150D01*
X70350Y21750D02*
X70650D01*
X70500Y21600D02*
Y21900D01*
X74850Y21000D02*
X75150D01*
X75000Y20850D02*
Y21150D01*
X77600Y17500D02*
X77900D01*
X77750Y17350D02*
Y17650D01*
X80350Y36000D02*
X80650D01*
X80500Y35850D02*
Y36150D01*
X84600Y41750D02*
X84900D01*
X84750Y41600D02*
Y41900D01*
X84100Y19250D02*
X84400D01*
X84250Y19100D02*
Y19400D01*
X82100Y19250D02*
X82400D01*
X82250Y19100D02*
Y19400D01*
X88350Y53000D02*
X88650D01*
X88500Y52850D02*
Y53150D01*
X88350Y49000D02*
X88650D01*
X88500Y48850D02*
Y49150D01*
X88350Y47500D02*
X88650D01*
X88500Y47350D02*
Y47650D01*
X93100Y44250D02*
X93400D01*
X93250Y44100D02*
Y44400D01*
X88350Y43500D02*
X88650D01*
X88500Y43350D02*
Y43650D01*
X92350Y39000D02*
X92650D01*
X92500Y38850D02*
Y39150D01*
X85350Y20750D02*
X85650D01*
X85500Y20600D02*
Y20900D01*
X83100Y45500D02*
X83400D01*
X83250Y45350D02*
Y45650D01*
X83100Y46500D02*
X83400D01*
X83250Y46350D02*
Y46650D01*
X56600Y45500D02*
X56900D01*
X56750Y45350D02*
Y45650D01*
X56600Y46500D02*
X56900D01*
X56750Y46350D02*
Y46650D01*
X93100Y45250D02*
X93400D01*
X93250Y45100D02*
Y45400D01*
X93100Y46250D02*
X93400D01*
X93250Y46100D02*
Y46400D01*
X87100Y46500D02*
X87400D01*
X87250Y46350D02*
Y46650D01*
X87100Y45500D02*
X87400D01*
X87250Y45350D02*
Y45650D01*
X57350Y30000D02*
X57650D01*
X57500Y29850D02*
Y30150D01*
X26600Y41750D02*
X26900D01*
X26750Y41600D02*
Y41900D01*
X26600Y40250D02*
X26900D01*
X26750Y40100D02*
Y40400D01*
X17350Y38750D02*
X17650D01*
X17500Y38600D02*
Y38900D01*
X17350Y41250D02*
X17650D01*
X17500Y41100D02*
Y41400D01*
X26600Y39250D02*
X26900D01*
X26750Y39100D02*
Y39400D01*
X41350Y30750D02*
X41650D01*
X41500Y30600D02*
Y30900D01*
X41350Y33250D02*
X41650D01*
X41500Y33100D02*
Y33400D01*
X49350Y31000D02*
X49650D01*
X49500Y30850D02*
Y31150D01*
X49350Y29000D02*
X49650D01*
X49500Y28850D02*
Y29150D01*
X49350Y30000D02*
X49650D01*
X49500Y29850D02*
Y30150D01*
X41350Y39500D02*
X41650D01*
X41500Y39350D02*
Y39650D01*
X45350Y46750D02*
X45650D01*
X45500Y46600D02*
Y46900D01*
X52350Y38000D02*
X52650D01*
X52500Y37850D02*
Y38150D01*
X53850Y38000D02*
X54150D01*
X54000Y37850D02*
Y38150D01*
X55350Y38000D02*
X55650D01*
X55500Y37850D02*
Y38150D01*
X56850Y38000D02*
X57150D01*
X57000Y37850D02*
Y38150D01*
X58350Y38000D02*
X58650D01*
X58500Y37850D02*
Y38150D01*
X57350Y34000D02*
X57650D01*
X57500Y33850D02*
Y34150D01*
X57350Y31000D02*
X57650D01*
X57500Y30850D02*
Y31150D01*
X57350Y26000D02*
X57650D01*
X57500Y25850D02*
Y26150D01*
X50850Y22000D02*
X51150D01*
X51000Y21850D02*
Y22150D01*
X41350Y27750D02*
X41650D01*
X41500Y27600D02*
Y27900D01*
X49350Y38000D02*
X49650D01*
X49500Y37850D02*
Y38150D01*
%TF.MD5,976d417fdceda4c6afdb39118a880e8f*%
M02*
