%TF.GenerationSoftware,Altium Limited,Altium Designer,25.2.1 (25)*%
G04 Layer_Color=255*
%FSLAX43Y43*%
%MOMM*%
%TF.SameCoordinates,C3C72CCD-19DF-4086-A731-6AB0B0A2BFE7*%
%TF.FilePolarity,Positive*%
%TF.FileFunction,Pads,Top*%
%TF.Part,Single*%
G01*
G75*
%TA.AperFunction,SMDPad,CuDef*%
%ADD13R,0.700X0.650*%
G04:AMPARAMS|DCode=14|XSize=1.25mm|YSize=0.6mm|CornerRadius=0.06mm|HoleSize=0mm|Usage=FLASHONLY|Rotation=180.000|XOffset=0mm|YOffset=0mm|HoleType=Round|Shape=RoundedRectangle|*
%AMROUNDEDRECTD14*
21,1,1.250,0.480,0,0,180.0*
21,1,1.130,0.600,0,0,180.0*
1,1,0.120,-0.565,0.240*
1,1,0.120,0.565,0.240*
1,1,0.120,0.565,-0.240*
1,1,0.120,-0.565,-0.240*
%
%ADD14ROUNDEDRECTD14*%
%ADD15R,1.525X0.650*%
%ADD16R,2.710X3.350*%
%ADD17R,1.500X3.200*%
%ADD18R,1.050X1.300*%
G04:AMPARAMS|DCode=19|XSize=0.78mm|YSize=0.22mm|CornerRadius=0.028mm|HoleSize=0mm|Usage=FLASHONLY|Rotation=180.000|XOffset=0mm|YOffset=0mm|HoleType=Round|Shape=RoundedRectangle|*
%AMROUNDEDRECTD19*
21,1,0.780,0.165,0,0,180.0*
21,1,0.725,0.220,0,0,180.0*
1,1,0.055,-0.363,0.083*
1,1,0.055,0.363,0.083*
1,1,0.055,0.363,-0.083*
1,1,0.055,-0.363,-0.083*
%
%ADD19ROUNDEDRECTD19*%
G04:AMPARAMS|DCode=20|XSize=3.4mm|YSize=3.4mm|CornerRadius=0.425mm|HoleSize=0mm|Usage=FLASHONLY|Rotation=90.000|XOffset=0mm|YOffset=0mm|HoleType=Round|Shape=RoundedRectangle|*
%AMROUNDEDRECTD20*
21,1,3.400,2.550,0,0,90.0*
21,1,2.550,3.400,0,0,90.0*
1,1,0.850,1.275,1.275*
1,1,0.850,1.275,-1.275*
1,1,0.850,-1.275,-1.275*
1,1,0.850,-1.275,1.275*
%
%ADD20ROUNDEDRECTD20*%
G04:AMPARAMS|DCode=21|XSize=0.78mm|YSize=0.22mm|CornerRadius=0.028mm|HoleSize=0mm|Usage=FLASHONLY|Rotation=270.000|XOffset=0mm|YOffset=0mm|HoleType=Round|Shape=RoundedRectangle|*
%AMROUNDEDRECTD21*
21,1,0.780,0.165,0,0,270.0*
21,1,0.725,0.220,0,0,270.0*
1,1,0.055,-0.083,-0.363*
1,1,0.055,-0.083,0.363*
1,1,0.055,0.083,0.363*
1,1,0.055,0.083,-0.363*
%
%ADD21ROUNDEDRECTD21*%
%ADD22R,0.650X0.700*%
%ADD23R,0.600X1.250*%
%ADD24R,0.800X0.270*%
%ADD25R,0.900X0.270*%
%ADD26R,1.600X0.650*%
%ADD27R,0.475X0.300*%
%ADD28R,1.450X0.450*%
%TA.AperFunction,ComponentPad*%
%ADD29C,2.500*%
%ADD30C,1.524*%
%ADD31C,6.000*%
%ADD32C,2.000*%
%ADD33C,1.725*%
%ADD34C,1.250*%
%ADD35C,2.750*%
%ADD36C,2.250*%
%ADD37C,1.500*%
D13*
X28000Y16575D02*
D03*
Y17925D02*
D03*
X26000Y16575D02*
D03*
Y17925D02*
D03*
X52500Y20675D02*
D03*
Y19325D02*
D03*
Y17925D02*
D03*
Y16575D02*
D03*
X47000Y20175D02*
D03*
Y18825D02*
D03*
X69750Y14675D02*
D03*
Y13325D02*
D03*
X30000Y16575D02*
D03*
Y17925D02*
D03*
X32000Y16575D02*
D03*
Y17925D02*
D03*
X34000Y16575D02*
D03*
Y17925D02*
D03*
D14*
X28000Y14900D02*
D03*
Y13100D02*
D03*
X26000Y14900D02*
D03*
Y13100D02*
D03*
X67500Y14900D02*
D03*
Y13100D02*
D03*
X30000Y14900D02*
D03*
Y13100D02*
D03*
X32000Y14900D02*
D03*
Y13100D02*
D03*
X34000Y14900D02*
D03*
Y13100D02*
D03*
D15*
X77688Y19095D02*
D03*
Y20365D02*
D03*
Y21635D02*
D03*
Y22905D02*
D03*
X72312D02*
D03*
Y21635D02*
D03*
Y20365D02*
D03*
Y19095D02*
D03*
D16*
X75000Y21000D02*
D03*
D17*
X84600Y39000D02*
D03*
X80400D02*
D03*
D18*
X50625Y20150D02*
D03*
Y17850D02*
D03*
X48875D02*
D03*
Y20150D02*
D03*
D19*
X44500Y29800D02*
D03*
Y30200D02*
D03*
Y30600D02*
D03*
Y31000D02*
D03*
Y31400D02*
D03*
Y31800D02*
D03*
Y32200D02*
D03*
Y32600D02*
D03*
Y33000D02*
D03*
Y33400D02*
D03*
Y33800D02*
D03*
Y29400D02*
D03*
Y29000D02*
D03*
Y28600D02*
D03*
Y28200D02*
D03*
Y27800D02*
D03*
Y27400D02*
D03*
Y27000D02*
D03*
Y26600D02*
D03*
Y26200D02*
D03*
X54500Y30200D02*
D03*
Y29800D02*
D03*
Y29400D02*
D03*
Y29000D02*
D03*
Y28600D02*
D03*
Y28200D02*
D03*
Y27800D02*
D03*
Y27400D02*
D03*
Y27000D02*
D03*
Y26600D02*
D03*
Y26200D02*
D03*
Y30600D02*
D03*
Y31000D02*
D03*
Y31400D02*
D03*
Y31800D02*
D03*
Y32200D02*
D03*
Y32600D02*
D03*
Y33000D02*
D03*
Y33400D02*
D03*
Y33800D02*
D03*
D20*
X49500Y30000D02*
D03*
D21*
X49700Y25000D02*
D03*
X49300D02*
D03*
X48900D02*
D03*
X48500D02*
D03*
X48100D02*
D03*
X47700D02*
D03*
X47300D02*
D03*
X46900D02*
D03*
X46500D02*
D03*
X46100D02*
D03*
X45700D02*
D03*
X50100D02*
D03*
X50500D02*
D03*
X50900D02*
D03*
X51300D02*
D03*
X51700D02*
D03*
X52100D02*
D03*
X52500D02*
D03*
X52900D02*
D03*
X53300D02*
D03*
X49300Y35000D02*
D03*
X49700D02*
D03*
X50100D02*
D03*
X50500D02*
D03*
X50900D02*
D03*
X51300D02*
D03*
X51700D02*
D03*
X52100D02*
D03*
X52500D02*
D03*
X52900D02*
D03*
X53300D02*
D03*
X48900D02*
D03*
X48500D02*
D03*
X48100D02*
D03*
X47700D02*
D03*
X47300D02*
D03*
X46900D02*
D03*
X46500D02*
D03*
X46100D02*
D03*
X45700D02*
D03*
D22*
X85925Y45250D02*
D03*
X84575D02*
D03*
X85925Y46750D02*
D03*
X84575D02*
D03*
X91175Y53000D02*
D03*
X89825D02*
D03*
X91175Y39000D02*
D03*
X89825D02*
D03*
X45575Y45500D02*
D03*
X46925D02*
D03*
X71825Y24750D02*
D03*
X73175D02*
D03*
X78175D02*
D03*
X76825D02*
D03*
X24075Y44750D02*
D03*
X25425D02*
D03*
X18575D02*
D03*
X19925D02*
D03*
D23*
X95400Y10000D02*
D03*
X93600D02*
D03*
D24*
X91635Y43125D02*
D03*
Y43625D02*
D03*
Y44125D02*
D03*
Y44625D02*
D03*
Y45125D02*
D03*
Y45625D02*
D03*
Y46125D02*
D03*
Y46625D02*
D03*
Y47125D02*
D03*
Y47625D02*
D03*
Y48125D02*
D03*
Y48625D02*
D03*
D25*
X90035Y48875D02*
D03*
Y48375D02*
D03*
Y47875D02*
D03*
Y47375D02*
D03*
Y46875D02*
D03*
Y46375D02*
D03*
Y45875D02*
D03*
Y45375D02*
D03*
Y44875D02*
D03*
Y44375D02*
D03*
Y43875D02*
D03*
Y43375D02*
D03*
D26*
X39451Y43405D02*
D03*
Y42135D02*
D03*
Y40865D02*
D03*
Y39595D02*
D03*
X46550D02*
D03*
Y40865D02*
D03*
Y42135D02*
D03*
Y43405D02*
D03*
D27*
X84088Y21750D02*
D03*
Y21250D02*
D03*
Y20750D02*
D03*
Y20250D02*
D03*
X82412D02*
D03*
Y20750D02*
D03*
Y21250D02*
D03*
Y21750D02*
D03*
D28*
X24925Y43275D02*
D03*
Y42625D02*
D03*
Y41975D02*
D03*
Y41325D02*
D03*
Y40675D02*
D03*
Y40025D02*
D03*
Y39375D02*
D03*
Y38725D02*
D03*
X19075D02*
D03*
Y39375D02*
D03*
Y40025D02*
D03*
Y40675D02*
D03*
Y41325D02*
D03*
Y41975D02*
D03*
Y42625D02*
D03*
Y43275D02*
D03*
D29*
X75920Y5000D02*
D03*
X81000D02*
D03*
X86080D02*
D03*
D30*
X29000Y42000D02*
D03*
Y44540D02*
D03*
Y39460D02*
D03*
D31*
X94500Y4500D02*
D03*
X4500D02*
D03*
Y59500D02*
D03*
X94500D02*
D03*
D32*
X53600Y5000D02*
D03*
X51060D02*
D03*
X48520D02*
D03*
X45980D02*
D03*
X43440D02*
D03*
X40900D02*
D03*
X75750Y27250D02*
D03*
X69250D02*
D03*
X75750Y31750D02*
D03*
X69250D02*
D03*
Y40250D02*
D03*
X75750D02*
D03*
X69250Y35750D02*
D03*
X75750D02*
D03*
D33*
X5000Y25790D02*
D03*
Y23250D02*
D03*
Y20710D02*
D03*
X94000Y28960D02*
D03*
Y31500D02*
D03*
Y34040D02*
D03*
Y15460D02*
D03*
Y18000D02*
D03*
Y20540D02*
D03*
X13460Y5000D02*
D03*
X16000D02*
D03*
X18540D02*
D03*
X27460D02*
D03*
X30000D02*
D03*
X32540D02*
D03*
X62460D02*
D03*
X65000D02*
D03*
X67540D02*
D03*
X5000Y11730D02*
D03*
Y14270D02*
D03*
Y38040D02*
D03*
Y35500D02*
D03*
Y32960D02*
D03*
Y49040D02*
D03*
Y46500D02*
D03*
Y43960D02*
D03*
X11000Y32960D02*
D03*
Y35500D02*
D03*
Y38040D02*
D03*
Y43960D02*
D03*
Y46500D02*
D03*
Y49040D02*
D03*
D34*
X92735Y42400D02*
D03*
X92670Y49600D02*
D03*
D35*
X95785Y50320D02*
D03*
Y41680D02*
D03*
D36*
X90735Y50320D02*
D03*
Y41680D02*
D03*
D37*
X27580Y59370D02*
D03*
Y56830D02*
D03*
X25040Y59370D02*
D03*
Y56830D02*
D03*
X22500Y59370D02*
D03*
Y56830D02*
D03*
X19960Y59370D02*
D03*
Y56830D02*
D03*
X17420Y59370D02*
D03*
Y56830D02*
D03*
X54580Y59370D02*
D03*
Y56830D02*
D03*
X52040Y59370D02*
D03*
Y56830D02*
D03*
X49500Y59370D02*
D03*
Y56830D02*
D03*
X46960Y59370D02*
D03*
Y56830D02*
D03*
X44420Y59370D02*
D03*
Y56830D02*
D03*
X81580Y59370D02*
D03*
Y56830D02*
D03*
X79040Y59370D02*
D03*
Y56830D02*
D03*
X76500Y59370D02*
D03*
Y56830D02*
D03*
X73960Y59370D02*
D03*
Y56830D02*
D03*
X71420Y59370D02*
D03*
Y56830D02*
D03*
%TF.MD5,93c7b9b6f69a9d1d552aaa185b8e02eb*%
M02*
