%TF.GenerationSoftware,Altium Limited,Altium Designer,25.2.1 (25)*%
G04 Layer_Physical_Order=2*
G04 Layer_Color=36540*
%FSLAX43Y43*%
%MOMM*%
%TF.SameCoordinates,C3C72CCD-19DF-4086-A731-6AB0B0A2BFE7*%
%TF.FilePolarity,Positive*%
%TF.FileFunction,Copper,L2,Inr,Signal*%
%TF.Part,Single*%
G01*
G75*
%TA.AperFunction,ComponentPad*%
%ADD29C,2.500*%
%ADD30C,1.524*%
%ADD31C,6.000*%
%ADD32C,2.000*%
%ADD33C,1.725*%
%ADD34C,1.250*%
%ADD35C,2.750*%
%ADD36C,2.250*%
%ADD37C,1.500*%
%TA.AperFunction,ViaPad*%
%ADD38C,0.700*%
G36*
X95141Y63549D02*
X95767Y63399D01*
X96361Y63153D01*
X96910Y62817D01*
X97399Y62399D01*
X97817Y61910D01*
X98153Y61361D01*
X98399Y60767D01*
X98549Y60141D01*
X98598Y59528D01*
X98592Y59500D01*
Y4500D01*
X98598Y4472D01*
X98549Y3859D01*
X98399Y3233D01*
X98153Y2639D01*
X97817Y2090D01*
X97399Y1601D01*
X96910Y1183D01*
X96361Y847D01*
X95767Y601D01*
X95141Y451D01*
X94528Y402D01*
X94500Y408D01*
X4500D01*
X4472Y402D01*
X3859Y451D01*
X3233Y601D01*
X2639Y847D01*
X2090Y1183D01*
X1601Y1601D01*
X1183Y2090D01*
X847Y2639D01*
X601Y3233D01*
X451Y3859D01*
X402Y4472D01*
X408Y4500D01*
Y59500D01*
X402Y59528D01*
X451Y60141D01*
X601Y60767D01*
X847Y61361D01*
X1183Y61910D01*
X1601Y62399D01*
X2090Y62817D01*
X2639Y63153D01*
X3233Y63399D01*
X3859Y63549D01*
X4472Y63598D01*
X4500Y63592D01*
X94500D01*
X94528Y63598D01*
X95141Y63549D01*
D02*
G37*
%LPC*%
G36*
X81718Y60420D02*
X81442D01*
X81175Y60348D01*
X80935Y60210D01*
X80740Y60015D01*
X80602Y59775D01*
X80530Y59508D01*
Y59232D01*
X80602Y58965D01*
X80740Y58725D01*
X80935Y58530D01*
X81175Y58392D01*
X81442Y58320D01*
X81718D01*
X81985Y58392D01*
X82225Y58530D01*
X82420Y58725D01*
X82558Y58965D01*
X82630Y59232D01*
Y59508D01*
X82558Y59775D01*
X82420Y60015D01*
X82225Y60210D01*
X81985Y60348D01*
X81718Y60420D01*
D02*
G37*
G36*
X79178D02*
X78902D01*
X78635Y60348D01*
X78395Y60210D01*
X78200Y60015D01*
X78062Y59775D01*
X77990Y59508D01*
Y59232D01*
X78062Y58965D01*
X78200Y58725D01*
X78395Y58530D01*
X78635Y58392D01*
X78902Y58320D01*
X79178D01*
X79445Y58392D01*
X79685Y58530D01*
X79880Y58725D01*
X80018Y58965D01*
X80090Y59232D01*
Y59508D01*
X80018Y59775D01*
X79880Y60015D01*
X79685Y60210D01*
X79445Y60348D01*
X79178Y60420D01*
D02*
G37*
G36*
X76638D02*
X76362D01*
X76095Y60348D01*
X75855Y60210D01*
X75660Y60015D01*
X75522Y59775D01*
X75450Y59508D01*
Y59232D01*
X75522Y58965D01*
X75660Y58725D01*
X75855Y58530D01*
X76095Y58392D01*
X76362Y58320D01*
X76638D01*
X76905Y58392D01*
X77145Y58530D01*
X77340Y58725D01*
X77478Y58965D01*
X77550Y59232D01*
Y59508D01*
X77478Y59775D01*
X77340Y60015D01*
X77145Y60210D01*
X76905Y60348D01*
X76638Y60420D01*
D02*
G37*
G36*
X74098D02*
X73822D01*
X73555Y60348D01*
X73315Y60210D01*
X73120Y60015D01*
X72982Y59775D01*
X72910Y59508D01*
Y59232D01*
X72982Y58965D01*
X73120Y58725D01*
X73315Y58530D01*
X73555Y58392D01*
X73822Y58320D01*
X74098D01*
X74365Y58392D01*
X74605Y58530D01*
X74800Y58725D01*
X74938Y58965D01*
X75010Y59232D01*
Y59508D01*
X74938Y59775D01*
X74800Y60015D01*
X74605Y60210D01*
X74365Y60348D01*
X74098Y60420D01*
D02*
G37*
G36*
X54718D02*
X54442D01*
X54175Y60348D01*
X53935Y60210D01*
X53740Y60015D01*
X53602Y59775D01*
X53530Y59508D01*
Y59232D01*
X53602Y58965D01*
X53740Y58725D01*
X53935Y58530D01*
X54175Y58392D01*
X54442Y58320D01*
X54718D01*
X54985Y58392D01*
X55225Y58530D01*
X55420Y58725D01*
X55558Y58965D01*
X55630Y59232D01*
Y59508D01*
X55558Y59775D01*
X55420Y60015D01*
X55225Y60210D01*
X54985Y60348D01*
X54718Y60420D01*
D02*
G37*
G36*
X52178D02*
X51902D01*
X51635Y60348D01*
X51395Y60210D01*
X51200Y60015D01*
X51062Y59775D01*
X50990Y59508D01*
Y59232D01*
X51062Y58965D01*
X51200Y58725D01*
X51395Y58530D01*
X51635Y58392D01*
X51902Y58320D01*
X52178D01*
X52445Y58392D01*
X52685Y58530D01*
X52880Y58725D01*
X53018Y58965D01*
X53090Y59232D01*
Y59508D01*
X53018Y59775D01*
X52880Y60015D01*
X52685Y60210D01*
X52445Y60348D01*
X52178Y60420D01*
D02*
G37*
G36*
X49638D02*
X49362D01*
X49095Y60348D01*
X48855Y60210D01*
X48660Y60015D01*
X48522Y59775D01*
X48450Y59508D01*
Y59232D01*
X48522Y58965D01*
X48660Y58725D01*
X48855Y58530D01*
X49095Y58392D01*
X49362Y58320D01*
X49638D01*
X49905Y58392D01*
X50145Y58530D01*
X50340Y58725D01*
X50478Y58965D01*
X50550Y59232D01*
Y59508D01*
X50478Y59775D01*
X50340Y60015D01*
X50145Y60210D01*
X49905Y60348D01*
X49638Y60420D01*
D02*
G37*
G36*
X47098D02*
X46822D01*
X46555Y60348D01*
X46315Y60210D01*
X46120Y60015D01*
X45982Y59775D01*
X45910Y59508D01*
Y59232D01*
X45982Y58965D01*
X46120Y58725D01*
X46315Y58530D01*
X46555Y58392D01*
X46822Y58320D01*
X47098D01*
X47365Y58392D01*
X47605Y58530D01*
X47800Y58725D01*
X47938Y58965D01*
X48010Y59232D01*
Y59508D01*
X47938Y59775D01*
X47800Y60015D01*
X47605Y60210D01*
X47365Y60348D01*
X47098Y60420D01*
D02*
G37*
G36*
X27718D02*
X27442D01*
X27175Y60348D01*
X26935Y60210D01*
X26740Y60015D01*
X26602Y59775D01*
X26530Y59508D01*
Y59232D01*
X26602Y58965D01*
X26740Y58725D01*
X26935Y58530D01*
X27175Y58392D01*
X27442Y58320D01*
X27718D01*
X27985Y58392D01*
X28225Y58530D01*
X28420Y58725D01*
X28558Y58965D01*
X28630Y59232D01*
Y59508D01*
X28558Y59775D01*
X28420Y60015D01*
X28225Y60210D01*
X27985Y60348D01*
X27718Y60420D01*
D02*
G37*
G36*
X25178D02*
X24902D01*
X24635Y60348D01*
X24395Y60210D01*
X24200Y60015D01*
X24062Y59775D01*
X23990Y59508D01*
Y59232D01*
X24062Y58965D01*
X24200Y58725D01*
X24395Y58530D01*
X24635Y58392D01*
X24902Y58320D01*
X25178D01*
X25445Y58392D01*
X25685Y58530D01*
X25880Y58725D01*
X26018Y58965D01*
X26090Y59232D01*
Y59508D01*
X26018Y59775D01*
X25880Y60015D01*
X25685Y60210D01*
X25445Y60348D01*
X25178Y60420D01*
D02*
G37*
G36*
X22638D02*
X22362D01*
X22095Y60348D01*
X21855Y60210D01*
X21660Y60015D01*
X21522Y59775D01*
X21450Y59508D01*
Y59232D01*
X21522Y58965D01*
X21660Y58725D01*
X21855Y58530D01*
X22095Y58392D01*
X22362Y58320D01*
X22638D01*
X22905Y58392D01*
X23145Y58530D01*
X23340Y58725D01*
X23478Y58965D01*
X23550Y59232D01*
Y59508D01*
X23478Y59775D01*
X23340Y60015D01*
X23145Y60210D01*
X22905Y60348D01*
X22638Y60420D01*
D02*
G37*
G36*
X20098D02*
X19822D01*
X19555Y60348D01*
X19315Y60210D01*
X19120Y60015D01*
X18982Y59775D01*
X18910Y59508D01*
Y59232D01*
X18982Y58965D01*
X19120Y58725D01*
X19315Y58530D01*
X19555Y58392D01*
X19822Y58320D01*
X20098D01*
X20365Y58392D01*
X20605Y58530D01*
X20800Y58725D01*
X20938Y58965D01*
X21010Y59232D01*
Y59508D01*
X20938Y59775D01*
X20800Y60015D01*
X20605Y60210D01*
X20365Y60348D01*
X20098Y60420D01*
D02*
G37*
G36*
X94760Y62800D02*
X94240D01*
X93727Y62719D01*
X93233Y62558D01*
X92770Y62322D01*
X92350Y62017D01*
X91983Y61650D01*
X91678Y61230D01*
X91442Y60767D01*
X91281Y60273D01*
X91200Y59760D01*
Y59240D01*
X91281Y58727D01*
X91442Y58233D01*
X91678Y57770D01*
X91983Y57350D01*
X92350Y56983D01*
X92770Y56678D01*
X93233Y56442D01*
X93727Y56281D01*
X94240Y56200D01*
X94760D01*
X95273Y56281D01*
X95767Y56442D01*
X96230Y56678D01*
X96650Y56983D01*
X97017Y57350D01*
X97322Y57770D01*
X97558Y58233D01*
X97719Y58727D01*
X97800Y59240D01*
Y59760D01*
X97719Y60273D01*
X97558Y60767D01*
X97322Y61230D01*
X97017Y61650D01*
X96650Y62017D01*
X96230Y62322D01*
X95767Y62558D01*
X95273Y62719D01*
X94760Y62800D01*
D02*
G37*
G36*
X4760D02*
X4240D01*
X3727Y62719D01*
X3233Y62558D01*
X2770Y62322D01*
X2350Y62017D01*
X1983Y61650D01*
X1678Y61230D01*
X1442Y60767D01*
X1281Y60273D01*
X1200Y59760D01*
Y59240D01*
X1281Y58727D01*
X1442Y58233D01*
X1678Y57770D01*
X1983Y57350D01*
X2350Y56983D01*
X2770Y56678D01*
X3233Y56442D01*
X3727Y56281D01*
X4240Y56200D01*
X4760D01*
X5273Y56281D01*
X5767Y56442D01*
X6230Y56678D01*
X6650Y56983D01*
X7017Y57350D01*
X7322Y57770D01*
X7558Y58233D01*
X7719Y58727D01*
X7800Y59240D01*
Y59760D01*
X7719Y60273D01*
X7558Y60767D01*
X7322Y61230D01*
X7017Y61650D01*
X6650Y62017D01*
X6230Y62322D01*
X5767Y62558D01*
X5273Y62719D01*
X4760Y62800D01*
D02*
G37*
G36*
X81718Y57880D02*
X81442D01*
X81175Y57808D01*
X80935Y57670D01*
X80740Y57475D01*
X80602Y57235D01*
X80530Y56968D01*
Y56692D01*
X80602Y56425D01*
X80740Y56185D01*
X80935Y55990D01*
X81175Y55852D01*
X81442Y55780D01*
X81718D01*
X81985Y55852D01*
X82225Y55990D01*
X82420Y56185D01*
X82558Y56425D01*
X82630Y56692D01*
Y56968D01*
X82558Y57235D01*
X82420Y57475D01*
X82225Y57670D01*
X81985Y57808D01*
X81718Y57880D01*
D02*
G37*
G36*
X79178D02*
X78902D01*
X78635Y57808D01*
X78395Y57670D01*
X78200Y57475D01*
X78062Y57235D01*
X77990Y56968D01*
Y56692D01*
X78062Y56425D01*
X78200Y56185D01*
X78395Y55990D01*
X78635Y55852D01*
X78902Y55780D01*
X79178D01*
X79445Y55852D01*
X79685Y55990D01*
X79880Y56185D01*
X80018Y56425D01*
X80090Y56692D01*
Y56968D01*
X80018Y57235D01*
X79880Y57475D01*
X79685Y57670D01*
X79445Y57808D01*
X79178Y57880D01*
D02*
G37*
G36*
X76638D02*
X76362D01*
X76095Y57808D01*
X75855Y57670D01*
X75660Y57475D01*
X75522Y57235D01*
X75450Y56968D01*
Y56692D01*
X75522Y56425D01*
X75660Y56185D01*
X75855Y55990D01*
X76095Y55852D01*
X76362Y55780D01*
X76638D01*
X76905Y55852D01*
X77145Y55990D01*
X77340Y56185D01*
X77478Y56425D01*
X77550Y56692D01*
Y56968D01*
X77478Y57235D01*
X77340Y57475D01*
X77145Y57670D01*
X76905Y57808D01*
X76638Y57880D01*
D02*
G37*
G36*
X74098D02*
X73822D01*
X73555Y57808D01*
X73315Y57670D01*
X73120Y57475D01*
X72982Y57235D01*
X72910Y56968D01*
Y56692D01*
X72982Y56425D01*
X73120Y56185D01*
X73315Y55990D01*
X73555Y55852D01*
X73822Y55780D01*
X74098D01*
X74365Y55852D01*
X74605Y55990D01*
X74800Y56185D01*
X74938Y56425D01*
X75010Y56692D01*
Y56968D01*
X74938Y57235D01*
X74800Y57475D01*
X74605Y57670D01*
X74365Y57808D01*
X74098Y57880D01*
D02*
G37*
G36*
X54718D02*
X54442D01*
X54175Y57808D01*
X53935Y57670D01*
X53740Y57475D01*
X53602Y57235D01*
X53530Y56968D01*
Y56692D01*
X53602Y56425D01*
X53740Y56185D01*
X53935Y55990D01*
X54175Y55852D01*
X54442Y55780D01*
X54718D01*
X54985Y55852D01*
X55225Y55990D01*
X55420Y56185D01*
X55558Y56425D01*
X55630Y56692D01*
Y56968D01*
X55558Y57235D01*
X55420Y57475D01*
X55225Y57670D01*
X54985Y57808D01*
X54718Y57880D01*
D02*
G37*
G36*
X52178D02*
X51902D01*
X51635Y57808D01*
X51395Y57670D01*
X51200Y57475D01*
X51062Y57235D01*
X50990Y56968D01*
Y56692D01*
X51062Y56425D01*
X51200Y56185D01*
X51395Y55990D01*
X51635Y55852D01*
X51902Y55780D01*
X52178D01*
X52445Y55852D01*
X52685Y55990D01*
X52880Y56185D01*
X53018Y56425D01*
X53090Y56692D01*
Y56968D01*
X53018Y57235D01*
X52880Y57475D01*
X52685Y57670D01*
X52445Y57808D01*
X52178Y57880D01*
D02*
G37*
G36*
X49638D02*
X49362D01*
X49095Y57808D01*
X48855Y57670D01*
X48660Y57475D01*
X48522Y57235D01*
X48450Y56968D01*
Y56692D01*
X48522Y56425D01*
X48660Y56185D01*
X48855Y55990D01*
X49095Y55852D01*
X49362Y55780D01*
X49638D01*
X49905Y55852D01*
X50145Y55990D01*
X50340Y56185D01*
X50478Y56425D01*
X50550Y56692D01*
Y56968D01*
X50478Y57235D01*
X50340Y57475D01*
X50145Y57670D01*
X49905Y57808D01*
X49638Y57880D01*
D02*
G37*
G36*
X47098D02*
X46822D01*
X46555Y57808D01*
X46315Y57670D01*
X46120Y57475D01*
X45982Y57235D01*
X45910Y56968D01*
Y56692D01*
X45982Y56425D01*
X46120Y56185D01*
X46315Y55990D01*
X46555Y55852D01*
X46822Y55780D01*
X47098D01*
X47365Y55852D01*
X47605Y55990D01*
X47800Y56185D01*
X47938Y56425D01*
X48010Y56692D01*
Y56968D01*
X47938Y57235D01*
X47800Y57475D01*
X47605Y57670D01*
X47365Y57808D01*
X47098Y57880D01*
D02*
G37*
G36*
X27718D02*
X27442D01*
X27175Y57808D01*
X26935Y57670D01*
X26740Y57475D01*
X26602Y57235D01*
X26530Y56968D01*
Y56692D01*
X26602Y56425D01*
X26740Y56185D01*
X26935Y55990D01*
X27175Y55852D01*
X27442Y55780D01*
X27718D01*
X27985Y55852D01*
X28225Y55990D01*
X28420Y56185D01*
X28558Y56425D01*
X28630Y56692D01*
Y56968D01*
X28558Y57235D01*
X28420Y57475D01*
X28225Y57670D01*
X27985Y57808D01*
X27718Y57880D01*
D02*
G37*
G36*
X25178D02*
X24902D01*
X24635Y57808D01*
X24395Y57670D01*
X24200Y57475D01*
X24062Y57235D01*
X23990Y56968D01*
Y56692D01*
X24062Y56425D01*
X24200Y56185D01*
X24395Y55990D01*
X24635Y55852D01*
X24902Y55780D01*
X25178D01*
X25445Y55852D01*
X25685Y55990D01*
X25880Y56185D01*
X26018Y56425D01*
X26090Y56692D01*
Y56968D01*
X26018Y57235D01*
X25880Y57475D01*
X25685Y57670D01*
X25445Y57808D01*
X25178Y57880D01*
D02*
G37*
G36*
X22638D02*
X22362D01*
X22095Y57808D01*
X21855Y57670D01*
X21660Y57475D01*
X21522Y57235D01*
X21450Y56968D01*
Y56692D01*
X21522Y56425D01*
X21660Y56185D01*
X21855Y55990D01*
X22095Y55852D01*
X22362Y55780D01*
X22638D01*
X22905Y55852D01*
X23145Y55990D01*
X23340Y56185D01*
X23478Y56425D01*
X23550Y56692D01*
Y56968D01*
X23478Y57235D01*
X23340Y57475D01*
X23145Y57670D01*
X22905Y57808D01*
X22638Y57880D01*
D02*
G37*
G36*
X20098D02*
X19822D01*
X19555Y57808D01*
X19315Y57670D01*
X19120Y57475D01*
X18982Y57235D01*
X18910Y56968D01*
Y56692D01*
X18982Y56425D01*
X19120Y56185D01*
X19315Y55990D01*
X19555Y55852D01*
X19822Y55780D01*
X20098D01*
X20365Y55852D01*
X20605Y55990D01*
X20800Y56185D01*
X20938Y56425D01*
X21010Y56692D01*
Y56968D01*
X20938Y57235D01*
X20800Y57475D01*
X20605Y57670D01*
X20365Y57808D01*
X20098Y57880D01*
D02*
G37*
G36*
X90923Y51745D02*
X90547D01*
X90185Y51648D01*
X89860Y51460D01*
X89595Y51195D01*
X89407Y50870D01*
X89310Y50508D01*
Y50132D01*
X89407Y49770D01*
X89595Y49445D01*
X89860Y49180D01*
X90185Y48992D01*
X90547Y48895D01*
X90923D01*
X91285Y48992D01*
X91610Y49180D01*
X91688Y49258D01*
X91824Y49215D01*
X91930Y49032D01*
X92102Y48860D01*
X92313Y48738D01*
X92548Y48675D01*
X92792D01*
X93027Y48738D01*
X93238Y48860D01*
X93410Y49032D01*
X93532Y49243D01*
X93595Y49478D01*
Y49722D01*
X93532Y49957D01*
X93410Y50168D01*
X93238Y50340D01*
X93027Y50462D01*
X92792Y50525D01*
X92548D01*
X92313Y50462D01*
X92270Y50437D01*
X92178Y50490D01*
X92157Y50519D01*
X92063Y50870D01*
X91875Y51195D01*
X91610Y51460D01*
X91285Y51648D01*
X90923Y51745D01*
D02*
G37*
G36*
X95950Y51995D02*
X95620D01*
X95296Y51931D01*
X94992Y51804D01*
X94717Y51621D01*
X94484Y51388D01*
X94301Y51113D01*
X94174Y50809D01*
X94110Y50485D01*
Y50155D01*
X94174Y49831D01*
X94301Y49527D01*
X94484Y49252D01*
X94717Y49019D01*
X94992Y48836D01*
X95296Y48709D01*
X95620Y48645D01*
X95950D01*
X96274Y48709D01*
X96578Y48836D01*
X96853Y49019D01*
X97086Y49252D01*
X97269Y49527D01*
X97396Y49831D01*
X97460Y50155D01*
Y50485D01*
X97396Y50809D01*
X97269Y51113D01*
X97086Y51388D01*
X96853Y51621D01*
X96578Y51804D01*
X96274Y51931D01*
X95950Y51995D01*
D02*
G37*
G36*
X11153Y50202D02*
X10847D01*
X10551Y50123D01*
X10286Y49970D01*
X10070Y49754D01*
X9917Y49489D01*
X9837Y49193D01*
Y48887D01*
X9917Y48591D01*
X10070Y48326D01*
X10286Y48110D01*
X10551Y47957D01*
X10847Y47877D01*
X11153D01*
X11449Y47957D01*
X11714Y48110D01*
X11930Y48326D01*
X12083Y48591D01*
X12163Y48887D01*
Y49193D01*
X12083Y49489D01*
X11930Y49754D01*
X11714Y49970D01*
X11449Y50123D01*
X11153Y50202D01*
D02*
G37*
G36*
X18586Y48650D02*
X18414D01*
X18249Y48606D01*
X18101Y48520D01*
X17980Y48399D01*
X17894Y48251D01*
X17850Y48086D01*
Y47914D01*
X17894Y47749D01*
X17980Y47601D01*
X18101Y47480D01*
X18249Y47394D01*
X18414Y47350D01*
X18586D01*
X18751Y47394D01*
X18899Y47480D01*
X19020Y47601D01*
X19106Y47749D01*
X19150Y47914D01*
Y48086D01*
X19106Y48251D01*
X19020Y48399D01*
X18899Y48520D01*
X18751Y48606D01*
X18586Y48650D01*
D02*
G37*
G36*
X88586Y48150D02*
X88414D01*
X88249Y48106D01*
X88101Y48020D01*
X87980Y47899D01*
X87894Y47751D01*
X87850Y47586D01*
Y47414D01*
X87894Y47249D01*
X87980Y47101D01*
X88101Y46980D01*
X88249Y46894D01*
X88414Y46850D01*
X88586D01*
X88751Y46894D01*
X88899Y46980D01*
X89020Y47101D01*
X89106Y47249D01*
X89150Y47414D01*
Y47586D01*
X89106Y47751D01*
X89020Y47899D01*
X88899Y48020D01*
X88751Y48106D01*
X88586Y48150D01*
D02*
G37*
G36*
X11153Y47662D02*
X10847D01*
X10551Y47583D01*
X10286Y47430D01*
X10070Y47214D01*
X9917Y46949D01*
X9837Y46653D01*
Y46347D01*
X9917Y46051D01*
X10070Y45786D01*
X10286Y45570D01*
X10551Y45417D01*
X10847Y45338D01*
X11153D01*
X11449Y45417D01*
X11714Y45570D01*
X11930Y45786D01*
X12083Y46051D01*
X12163Y46347D01*
Y46653D01*
X12083Y46949D01*
X11930Y47214D01*
X11714Y47430D01*
X11449Y47583D01*
X11153Y47662D01*
D02*
G37*
G36*
X5153D02*
X4847D01*
X4551Y47583D01*
X4286Y47430D01*
X4070Y47214D01*
X3917Y46949D01*
X3838Y46653D01*
Y46347D01*
X3917Y46051D01*
X4070Y45786D01*
X4286Y45570D01*
X4551Y45417D01*
X4847Y45338D01*
X5153D01*
X5449Y45417D01*
X5714Y45570D01*
X5930Y45786D01*
X6083Y46051D01*
X6162Y46347D01*
Y46653D01*
X6083Y46949D01*
X5930Y47214D01*
X5714Y47430D01*
X5449Y47583D01*
X5153Y47662D01*
D02*
G37*
G36*
X83336Y47150D02*
X83164D01*
X82999Y47106D01*
X82851Y47020D01*
X82730Y46899D01*
X82644Y46751D01*
X82600Y46586D01*
Y46414D01*
X82644Y46249D01*
X82730Y46101D01*
X82831Y46000D01*
X82730Y45899D01*
X82644Y45751D01*
X82600Y45586D01*
Y45414D01*
X82644Y45249D01*
X82730Y45101D01*
X82851Y44980D01*
X82999Y44894D01*
X83164Y44850D01*
X83336D01*
X83501Y44894D01*
X83649Y44980D01*
X83770Y45101D01*
X83856Y45249D01*
X83900Y45414D01*
Y45586D01*
X83856Y45751D01*
X83770Y45899D01*
X83669Y46000D01*
X83770Y46101D01*
X83856Y46249D01*
X83900Y46414D01*
Y46586D01*
X83856Y46751D01*
X83770Y46899D01*
X83649Y47020D01*
X83501Y47106D01*
X83336Y47150D01*
D02*
G37*
G36*
X56836D02*
X56664D01*
X56499Y47106D01*
X56351Y47020D01*
X56230Y46899D01*
X56144Y46751D01*
X56100Y46586D01*
Y46414D01*
X56144Y46249D01*
X56230Y46101D01*
X56331Y46000D01*
X56230Y45899D01*
X56144Y45751D01*
X56100Y45586D01*
Y45414D01*
X56144Y45249D01*
X56230Y45101D01*
X56351Y44980D01*
X56499Y44894D01*
X56664Y44850D01*
X56836D01*
X57001Y44894D01*
X57149Y44980D01*
X57270Y45101D01*
X57356Y45249D01*
X57400Y45414D01*
Y45586D01*
X57356Y45751D01*
X57270Y45899D01*
X57169Y46000D01*
X57270Y46101D01*
X57356Y46249D01*
X57400Y46414D01*
Y46586D01*
X57356Y46751D01*
X57270Y46899D01*
X57149Y47020D01*
X57001Y47106D01*
X56836Y47150D01*
D02*
G37*
G36*
X87336Y47150D02*
X87164D01*
X86999Y47106D01*
X86851Y47020D01*
X86730Y46899D01*
X86644Y46751D01*
X86600Y46586D01*
Y46414D01*
X86644Y46249D01*
X86730Y46101D01*
X86831Y46000D01*
X86730Y45899D01*
X86644Y45751D01*
X86600Y45586D01*
Y45414D01*
X86644Y45249D01*
X86730Y45101D01*
X86851Y44980D01*
X86999Y44894D01*
X87164Y44850D01*
X87336D01*
X87501Y44894D01*
X87649Y44980D01*
X87770Y45101D01*
X87856Y45249D01*
X87900Y45414D01*
Y45586D01*
X87856Y45751D01*
X87770Y45899D01*
X87669Y46000D01*
X87770Y46101D01*
X87856Y46249D01*
X87900Y46414D01*
Y46586D01*
X87856Y46751D01*
X87770Y46899D01*
X87649Y47020D01*
X87501Y47106D01*
X87336Y47150D01*
D02*
G37*
G36*
X50336Y46150D02*
X50164D01*
X49999Y46106D01*
X49851Y46020D01*
X49730Y45899D01*
X49644Y45751D01*
X49600Y45586D01*
Y45414D01*
X49644Y45249D01*
X49730Y45101D01*
X49851Y44980D01*
X49999Y44894D01*
X50164Y44850D01*
X50336D01*
X50501Y44894D01*
X50649Y44980D01*
X50770Y45101D01*
X50856Y45249D01*
X50900Y45414D01*
Y45586D01*
X50856Y45751D01*
X50770Y45899D01*
X50649Y46020D01*
X50501Y46106D01*
X50336Y46150D01*
D02*
G37*
G36*
X93336Y46900D02*
X93164D01*
X92999Y46856D01*
X92851Y46770D01*
X92730Y46649D01*
X92644Y46501D01*
X92600Y46336D01*
Y46164D01*
X92644Y45999D01*
X92730Y45851D01*
X92831Y45750D01*
X92730Y45649D01*
X92644Y45501D01*
X92600Y45336D01*
Y45164D01*
X92644Y44999D01*
X92730Y44851D01*
X92831Y44750D01*
X92730Y44649D01*
X92644Y44501D01*
X92600Y44336D01*
Y44164D01*
X92644Y43999D01*
X92730Y43851D01*
X92851Y43730D01*
X92999Y43644D01*
X93164Y43600D01*
X93336D01*
X93501Y43644D01*
X93649Y43730D01*
X93770Y43851D01*
X93856Y43999D01*
X93900Y44164D01*
Y44336D01*
X93856Y44501D01*
X93770Y44649D01*
X93669Y44750D01*
X93770Y44851D01*
X93856Y44999D01*
X93900Y45164D01*
Y45336D01*
X93856Y45501D01*
X93770Y45649D01*
X93669Y45750D01*
X93770Y45851D01*
X93856Y45999D01*
X93900Y46164D01*
Y46336D01*
X93856Y46501D01*
X93770Y46649D01*
X93649Y46770D01*
X93501Y46856D01*
X93336Y46900D01*
D02*
G37*
G36*
X29140Y45602D02*
X28860D01*
X28590Y45530D01*
X28348Y45390D01*
X28150Y45192D01*
X28010Y44950D01*
X27938Y44680D01*
Y44400D01*
X28010Y44130D01*
X28150Y43888D01*
X28348Y43690D01*
X28590Y43550D01*
X28860Y43478D01*
X29140D01*
X29410Y43550D01*
X29652Y43690D01*
X29850Y43888D01*
X29990Y44130D01*
X30062Y44400D01*
Y44680D01*
X29990Y44950D01*
X29850Y45192D01*
X29652Y45390D01*
X29410Y45530D01*
X29140Y45602D01*
D02*
G37*
G36*
X5153Y45123D02*
X4847D01*
X4551Y45043D01*
X4286Y44890D01*
X4070Y44674D01*
X3917Y44409D01*
X3838Y44113D01*
Y43807D01*
X3917Y43511D01*
X4070Y43246D01*
X4286Y43030D01*
X4551Y42877D01*
X4847Y42798D01*
X5153D01*
X5449Y42877D01*
X5714Y43030D01*
X5930Y43246D01*
X6083Y43511D01*
X6162Y43807D01*
Y44113D01*
X6083Y44409D01*
X5930Y44674D01*
X5714Y44890D01*
X5449Y45043D01*
X5153Y45123D01*
D02*
G37*
G36*
X92857Y43325D02*
X92613D01*
X92378Y43262D01*
X92167Y43140D01*
X91995Y42968D01*
X91873Y42757D01*
X91864Y42722D01*
X91741Y42689D01*
X91610Y42820D01*
X91285Y43008D01*
X90923Y43105D01*
X90547D01*
X90185Y43008D01*
X89860Y42820D01*
X89595Y42555D01*
X89407Y42230D01*
X89310Y41868D01*
Y41492D01*
X89407Y41130D01*
X89595Y40805D01*
X89860Y40540D01*
X90185Y40352D01*
X90547Y40255D01*
X90923D01*
X91285Y40352D01*
X91610Y40540D01*
X91875Y40805D01*
X92063Y41130D01*
X92160Y41492D01*
Y41517D01*
X92287Y41591D01*
X92378Y41538D01*
X92613Y41475D01*
X92857D01*
X93092Y41538D01*
X93303Y41660D01*
X93475Y41832D01*
X93597Y42043D01*
X93660Y42278D01*
Y42522D01*
X93597Y42757D01*
X93475Y42968D01*
X93303Y43140D01*
X93092Y43262D01*
X92857Y43325D01*
D02*
G37*
G36*
X41336Y43900D02*
X41164D01*
X40999Y43856D01*
X40851Y43770D01*
X40730Y43649D01*
X40644Y43501D01*
X40600Y43336D01*
Y43164D01*
X40644Y42999D01*
X40730Y42851D01*
X40851Y42730D01*
X40999Y42644D01*
X41164Y42600D01*
X41336D01*
X41501Y42644D01*
X41649Y42730D01*
X41770Y42851D01*
X41856Y42999D01*
X41900Y43164D01*
Y43336D01*
X41856Y43501D01*
X41770Y43649D01*
X41649Y43770D01*
X41501Y43856D01*
X41336Y43900D01*
D02*
G37*
G36*
X84836Y42400D02*
X84664D01*
X84499Y42356D01*
X84351Y42270D01*
X84230Y42149D01*
X84144Y42001D01*
X84100Y41836D01*
Y41664D01*
X84144Y41499D01*
X84230Y41351D01*
X84351Y41230D01*
X84499Y41144D01*
X84664Y41100D01*
X84836D01*
X85001Y41144D01*
X85149Y41230D01*
X85270Y41351D01*
X85356Y41499D01*
X85400Y41664D01*
Y41836D01*
X85356Y42001D01*
X85270Y42149D01*
X85149Y42270D01*
X85001Y42356D01*
X84836Y42400D01*
D02*
G37*
G36*
X29140Y43062D02*
X28860D01*
X28590Y42990D01*
X28348Y42850D01*
X28150Y42652D01*
X28010Y42410D01*
X27938Y42140D01*
Y41860D01*
X28010Y41590D01*
X28150Y41348D01*
X28348Y41150D01*
X28590Y41010D01*
X28860Y40938D01*
X29140D01*
X29410Y41010D01*
X29652Y41150D01*
X29850Y41348D01*
X29990Y41590D01*
X30062Y41860D01*
Y42140D01*
X29990Y42410D01*
X29850Y42652D01*
X29652Y42850D01*
X29410Y42990D01*
X29140Y43062D01*
D02*
G37*
G36*
X17586Y41900D02*
X17414D01*
X17249Y41856D01*
X17101Y41770D01*
X16980Y41649D01*
X16894Y41501D01*
X16850Y41336D01*
Y41164D01*
X16894Y40999D01*
X16980Y40851D01*
X17101Y40730D01*
X17249Y40644D01*
X17414Y40600D01*
X17586D01*
X17751Y40644D01*
X17899Y40730D01*
X18020Y40851D01*
X18106Y40999D01*
X18150Y41164D01*
Y41336D01*
X18106Y41501D01*
X18020Y41649D01*
X17899Y41770D01*
X17751Y41856D01*
X17586Y41900D01*
D02*
G37*
G36*
X61336Y41400D02*
X61164D01*
X60999Y41356D01*
X60851Y41270D01*
X60730Y41149D01*
X60644Y41001D01*
X60600Y40836D01*
Y40664D01*
X60644Y40499D01*
X60730Y40351D01*
X60851Y40230D01*
X60999Y40144D01*
X61164Y40100D01*
X61336D01*
X61501Y40144D01*
X61649Y40230D01*
X61770Y40351D01*
X61856Y40499D01*
X61900Y40664D01*
Y40836D01*
X61856Y41001D01*
X61770Y41149D01*
X61649Y41270D01*
X61501Y41356D01*
X61336Y41400D01*
D02*
G37*
G36*
X95950Y43355D02*
X95620D01*
X95296Y43291D01*
X94992Y43164D01*
X94717Y42981D01*
X94484Y42748D01*
X94301Y42473D01*
X94174Y42169D01*
X94110Y41845D01*
Y41515D01*
X94174Y41191D01*
X94301Y40887D01*
X94484Y40612D01*
X94717Y40379D01*
X94992Y40196D01*
X95296Y40069D01*
X95620Y40005D01*
X95950D01*
X96274Y40069D01*
X96578Y40196D01*
X96853Y40379D01*
X97086Y40612D01*
X97269Y40887D01*
X97396Y41191D01*
X97460Y41515D01*
Y41845D01*
X97396Y42169D01*
X97269Y42473D01*
X97086Y42748D01*
X96853Y42981D01*
X96578Y43164D01*
X96274Y43291D01*
X95950Y43355D01*
D02*
G37*
G36*
X75921Y41550D02*
X75579D01*
X75248Y41461D01*
X74952Y41290D01*
X74710Y41048D01*
X74539Y40752D01*
X74450Y40421D01*
Y40079D01*
X74539Y39748D01*
X74710Y39452D01*
X74952Y39210D01*
X75248Y39039D01*
X75579Y38950D01*
X75921D01*
X76252Y39039D01*
X76548Y39210D01*
X76790Y39452D01*
X76961Y39748D01*
X77050Y40079D01*
Y40421D01*
X76961Y40752D01*
X76790Y41048D01*
X76548Y41290D01*
X76252Y41461D01*
X75921Y41550D01*
D02*
G37*
G36*
X69421D02*
X69079D01*
X68748Y41461D01*
X68452Y41290D01*
X68210Y41048D01*
X68039Y40752D01*
X67950Y40421D01*
Y40079D01*
X68039Y39748D01*
X68210Y39452D01*
X68452Y39210D01*
X68748Y39039D01*
X69079Y38950D01*
X69421D01*
X69752Y39039D01*
X70048Y39210D01*
X70290Y39452D01*
X70461Y39748D01*
X70550Y40079D01*
Y40421D01*
X70461Y40752D01*
X70290Y41048D01*
X70048Y41290D01*
X69752Y41461D01*
X69421Y41550D01*
D02*
G37*
G36*
X26836Y39900D02*
X26664D01*
X26499Y39856D01*
X26351Y39770D01*
X26230Y39649D01*
X26144Y39501D01*
X26100Y39336D01*
Y39164D01*
X26144Y38999D01*
X26230Y38851D01*
X26351Y38730D01*
X26499Y38644D01*
X26664Y38600D01*
X26836D01*
X27001Y38644D01*
X27149Y38730D01*
X27270Y38851D01*
X27356Y38999D01*
X27400Y39164D01*
Y39336D01*
X27356Y39501D01*
X27270Y39649D01*
X27149Y39770D01*
X27001Y39856D01*
X26836Y39900D01*
D02*
G37*
G36*
X34086Y38650D02*
X33914D01*
X33749Y38606D01*
X33601Y38520D01*
X33500Y38419D01*
X33399Y38520D01*
X33251Y38606D01*
X33086Y38650D01*
X32914D01*
X32749Y38606D01*
X32601Y38520D01*
X32500Y38419D01*
X32399Y38520D01*
X32251Y38606D01*
X32086Y38650D01*
X31914D01*
X31749Y38606D01*
X31601Y38520D01*
X31480Y38399D01*
X31394Y38251D01*
X31350Y38086D01*
Y37914D01*
X31394Y37749D01*
X31480Y37601D01*
X31601Y37480D01*
X31749Y37394D01*
X31914Y37350D01*
X32086D01*
X32251Y37394D01*
X32399Y37480D01*
X32500Y37581D01*
X32601Y37480D01*
X32749Y37394D01*
X32914Y37350D01*
X33086D01*
X33251Y37394D01*
X33399Y37480D01*
X33500Y37581D01*
X33601Y37480D01*
X33749Y37394D01*
X33914Y37350D01*
X34086D01*
X34251Y37394D01*
X34399Y37480D01*
X34520Y37601D01*
X34606Y37749D01*
X34650Y37914D01*
Y38086D01*
X34606Y38251D01*
X34520Y38399D01*
X34399Y38520D01*
X34251Y38606D01*
X34086Y38650D01*
D02*
G37*
G36*
X29140Y40522D02*
X28860D01*
X28590Y40450D01*
X28348Y40310D01*
X28150Y40112D01*
X28010Y39870D01*
X27938Y39600D01*
Y39320D01*
X28010Y39050D01*
X28150Y38808D01*
X28348Y38610D01*
X28590Y38470D01*
X28860Y38398D01*
X29140D01*
X29410Y38470D01*
X29652Y38610D01*
X29850Y38808D01*
X29990Y39050D01*
X30062Y39320D01*
Y39600D01*
X29990Y39870D01*
X29850Y40112D01*
X29652Y40310D01*
X29410Y40450D01*
X29140Y40522D01*
D02*
G37*
G36*
X58586Y38650D02*
X58414D01*
X58249Y38606D01*
X58101Y38520D01*
X57980Y38399D01*
X57894Y38251D01*
X57850Y38086D01*
Y37914D01*
X57894Y37749D01*
X57980Y37601D01*
X58101Y37480D01*
X58249Y37394D01*
X58414Y37350D01*
X58586D01*
X58751Y37394D01*
X58899Y37480D01*
X59020Y37601D01*
X59106Y37749D01*
X59150Y37914D01*
Y38086D01*
X59106Y38251D01*
X59020Y38399D01*
X58899Y38520D01*
X58751Y38606D01*
X58586Y38650D01*
D02*
G37*
G36*
X55586D02*
X55414D01*
X55249Y38606D01*
X55101Y38520D01*
X54980Y38399D01*
X54894Y38251D01*
X54850Y38086D01*
Y37914D01*
X54894Y37749D01*
X54980Y37601D01*
X55101Y37480D01*
X55249Y37394D01*
X55414Y37350D01*
X55586D01*
X55751Y37394D01*
X55899Y37480D01*
X56020Y37601D01*
X56106Y37749D01*
X56150Y37914D01*
Y38086D01*
X56106Y38251D01*
X56020Y38399D01*
X55899Y38520D01*
X55751Y38606D01*
X55586Y38650D01*
D02*
G37*
G36*
X54086D02*
X53914D01*
X53749Y38606D01*
X53601Y38520D01*
X53480Y38399D01*
X53394Y38251D01*
X53350Y38086D01*
Y37914D01*
X53394Y37749D01*
X53480Y37601D01*
X53601Y37480D01*
X53749Y37394D01*
X53914Y37350D01*
X54086D01*
X54251Y37394D01*
X54399Y37480D01*
X54520Y37601D01*
X54606Y37749D01*
X54650Y37914D01*
Y38086D01*
X54606Y38251D01*
X54520Y38399D01*
X54399Y38520D01*
X54251Y38606D01*
X54086Y38650D01*
D02*
G37*
G36*
X52586D02*
X52414D01*
X52249Y38606D01*
X52101Y38520D01*
X51980Y38399D01*
X51894Y38251D01*
X51850Y38086D01*
Y37914D01*
X51894Y37749D01*
X51980Y37601D01*
X52101Y37480D01*
X52249Y37394D01*
X52414Y37350D01*
X52586D01*
X52751Y37394D01*
X52899Y37480D01*
X53020Y37601D01*
X53106Y37749D01*
X53150Y37914D01*
Y38086D01*
X53106Y38251D01*
X53020Y38399D01*
X52899Y38520D01*
X52751Y38606D01*
X52586Y38650D01*
D02*
G37*
G36*
X49586D02*
X49414D01*
X49249Y38606D01*
X49101Y38520D01*
X48980Y38399D01*
X48894Y38251D01*
X48850Y38086D01*
Y37914D01*
X48894Y37749D01*
X48980Y37601D01*
X49101Y37480D01*
X49249Y37394D01*
X49414Y37350D01*
X49586D01*
X49751Y37394D01*
X49899Y37480D01*
X50020Y37601D01*
X50106Y37749D01*
X50150Y37914D01*
Y38086D01*
X50106Y38251D01*
X50020Y38399D01*
X49899Y38520D01*
X49751Y38606D01*
X49586Y38650D01*
D02*
G37*
G36*
X11153Y39202D02*
X10847D01*
X10551Y39123D01*
X10286Y38970D01*
X10070Y38754D01*
X9917Y38489D01*
X9837Y38193D01*
Y37887D01*
X9917Y37591D01*
X10070Y37326D01*
X10286Y37110D01*
X10551Y36957D01*
X10847Y36877D01*
X11153D01*
X11449Y36957D01*
X11714Y37110D01*
X11930Y37326D01*
X12083Y37591D01*
X12163Y37887D01*
Y38193D01*
X12083Y38489D01*
X11930Y38754D01*
X11714Y38970D01*
X11449Y39123D01*
X11153Y39202D01*
D02*
G37*
G36*
X41086Y37650D02*
X40914D01*
X40749Y37606D01*
X40601Y37520D01*
X40480Y37399D01*
X40394Y37251D01*
X40350Y37086D01*
Y36914D01*
X40394Y36749D01*
X40480Y36601D01*
X40601Y36480D01*
X40749Y36394D01*
X40914Y36350D01*
X41086D01*
X41251Y36394D01*
X41399Y36480D01*
X41520Y36601D01*
X41606Y36749D01*
X41650Y36914D01*
Y37086D01*
X41606Y37251D01*
X41520Y37399D01*
X41399Y37520D01*
X41251Y37606D01*
X41086Y37650D01*
D02*
G37*
G36*
X80586Y36650D02*
X80414D01*
X80249Y36606D01*
X80101Y36520D01*
X79980Y36399D01*
X79894Y36251D01*
X79850Y36086D01*
Y35914D01*
X79894Y35749D01*
X79980Y35601D01*
X80101Y35480D01*
X80249Y35394D01*
X80414Y35350D01*
X80586D01*
X80751Y35394D01*
X80899Y35480D01*
X81020Y35601D01*
X81106Y35749D01*
X81150Y35914D01*
Y36086D01*
X81106Y36251D01*
X81020Y36399D01*
X80899Y36520D01*
X80751Y36606D01*
X80586Y36650D01*
D02*
G37*
G36*
X11153Y36662D02*
X10847D01*
X10551Y36583D01*
X10286Y36430D01*
X10070Y36214D01*
X9917Y35949D01*
X9837Y35653D01*
Y35347D01*
X9917Y35051D01*
X10070Y34786D01*
X10286Y34570D01*
X10551Y34417D01*
X10847Y34338D01*
X11153D01*
X11449Y34417D01*
X11714Y34570D01*
X11930Y34786D01*
X12083Y35051D01*
X12163Y35347D01*
Y35653D01*
X12083Y35949D01*
X11930Y36214D01*
X11714Y36430D01*
X11449Y36583D01*
X11153Y36662D01*
D02*
G37*
G36*
X5153D02*
X4847D01*
X4551Y36583D01*
X4286Y36430D01*
X4070Y36214D01*
X3917Y35949D01*
X3838Y35653D01*
Y35347D01*
X3917Y35051D01*
X4070Y34786D01*
X4286Y34570D01*
X4551Y34417D01*
X4847Y34338D01*
X5153D01*
X5449Y34417D01*
X5714Y34570D01*
X5930Y34786D01*
X6083Y35051D01*
X6162Y35347D01*
Y35653D01*
X6083Y35949D01*
X5930Y36214D01*
X5714Y36430D01*
X5449Y36583D01*
X5153Y36662D01*
D02*
G37*
G36*
X57586Y34650D02*
X57414D01*
X57249Y34606D01*
X57101Y34520D01*
X56980Y34399D01*
X56894Y34251D01*
X56850Y34086D01*
Y33914D01*
X56894Y33749D01*
X56980Y33601D01*
X57101Y33480D01*
X57249Y33394D01*
X57414Y33350D01*
X57586D01*
X57751Y33394D01*
X57899Y33480D01*
X58020Y33601D01*
X58106Y33749D01*
X58150Y33914D01*
Y34086D01*
X58106Y34251D01*
X58020Y34399D01*
X57899Y34520D01*
X57751Y34606D01*
X57586Y34650D01*
D02*
G37*
G36*
X41586Y33900D02*
X41414D01*
X41249Y33856D01*
X41101Y33770D01*
X40980Y33649D01*
X40894Y33501D01*
X40850Y33336D01*
Y33164D01*
X40894Y32999D01*
X40980Y32851D01*
X41101Y32730D01*
X41249Y32644D01*
X41414Y32600D01*
X41586D01*
X41751Y32644D01*
X41899Y32730D01*
X42020Y32851D01*
X42106Y32999D01*
X42150Y33164D01*
Y33336D01*
X42106Y33501D01*
X42020Y33649D01*
X41899Y33770D01*
X41751Y33856D01*
X41586Y33900D01*
D02*
G37*
G36*
X5153Y34123D02*
X4847D01*
X4551Y34043D01*
X4286Y33890D01*
X4070Y33674D01*
X3917Y33409D01*
X3838Y33113D01*
Y32807D01*
X3917Y32511D01*
X4070Y32246D01*
X4286Y32030D01*
X4551Y31877D01*
X4847Y31798D01*
X5153D01*
X5449Y31877D01*
X5714Y32030D01*
X5930Y32246D01*
X6083Y32511D01*
X6162Y32807D01*
Y33113D01*
X6083Y33409D01*
X5930Y33674D01*
X5714Y33890D01*
X5449Y34043D01*
X5153Y34123D01*
D02*
G37*
G36*
X75921Y33050D02*
X75579D01*
X75248Y32961D01*
X74952Y32790D01*
X74710Y32548D01*
X74539Y32252D01*
X74450Y31921D01*
Y31579D01*
X74539Y31248D01*
X74710Y30952D01*
X74952Y30710D01*
X75248Y30539D01*
X75579Y30450D01*
X75921D01*
X76252Y30539D01*
X76548Y30710D01*
X76790Y30952D01*
X76961Y31248D01*
X77050Y31579D01*
Y31921D01*
X76961Y32252D01*
X76790Y32548D01*
X76548Y32790D01*
X76252Y32961D01*
X75921Y33050D01*
D02*
G37*
G36*
X69421D02*
X69079D01*
X68748Y32961D01*
X68452Y32790D01*
X68210Y32548D01*
X68039Y32252D01*
X67950Y31921D01*
Y31579D01*
X68039Y31248D01*
X68210Y30952D01*
X68452Y30710D01*
X68748Y30539D01*
X69079Y30450D01*
X69421D01*
X69752Y30539D01*
X70048Y30710D01*
X70290Y30952D01*
X70461Y31248D01*
X70550Y31579D01*
Y31921D01*
X70461Y32252D01*
X70290Y32548D01*
X70048Y32790D01*
X69752Y32961D01*
X69421Y33050D01*
D02*
G37*
G36*
X94153Y32662D02*
X93847D01*
X93551Y32583D01*
X93286Y32430D01*
X93070Y32214D01*
X92917Y31949D01*
X92838Y31653D01*
Y31347D01*
X92917Y31051D01*
X93070Y30786D01*
X93286Y30570D01*
X93551Y30417D01*
X93847Y30337D01*
X94153D01*
X94449Y30417D01*
X94714Y30570D01*
X94930Y30786D01*
X95083Y31051D01*
X95162Y31347D01*
Y31653D01*
X95083Y31949D01*
X94930Y32214D01*
X94714Y32430D01*
X94449Y32583D01*
X94153Y32662D01*
D02*
G37*
G36*
X41586Y31400D02*
X41414D01*
X41249Y31356D01*
X41101Y31270D01*
X40980Y31149D01*
X40894Y31001D01*
X40850Y30836D01*
Y30664D01*
X40894Y30499D01*
X40980Y30351D01*
X41101Y30230D01*
X41249Y30144D01*
X41414Y30100D01*
X41586D01*
X41751Y30144D01*
X41899Y30230D01*
X42020Y30351D01*
X42106Y30499D01*
X42150Y30664D01*
Y30836D01*
X42106Y31001D01*
X42020Y31149D01*
X41899Y31270D01*
X41751Y31356D01*
X41586Y31400D01*
D02*
G37*
G36*
X57586Y31650D02*
X57414D01*
X57249Y31606D01*
X57101Y31520D01*
X56980Y31399D01*
X56894Y31251D01*
X56850Y31086D01*
Y30914D01*
X56894Y30749D01*
X56980Y30601D01*
X57081Y30500D01*
X56980Y30399D01*
X56894Y30251D01*
X56850Y30086D01*
Y29914D01*
X56894Y29749D01*
X56980Y29601D01*
X57101Y29480D01*
X57249Y29394D01*
X57414Y29350D01*
X57586D01*
X57751Y29394D01*
X57899Y29480D01*
X58020Y29601D01*
X58106Y29749D01*
X58150Y29914D01*
Y30086D01*
X58106Y30251D01*
X58020Y30399D01*
X57919Y30500D01*
X58020Y30601D01*
X58106Y30749D01*
X58150Y30914D01*
Y31086D01*
X58106Y31251D01*
X58020Y31399D01*
X57899Y31520D01*
X57751Y31606D01*
X57586Y31650D01*
D02*
G37*
G36*
X94153Y30122D02*
X93847D01*
X93551Y30043D01*
X93286Y29890D01*
X93070Y29674D01*
X92917Y29409D01*
X92838Y29113D01*
Y28807D01*
X92917Y28511D01*
X93070Y28246D01*
X93286Y28030D01*
X93551Y27877D01*
X93847Y27798D01*
X94153D01*
X94449Y27877D01*
X94714Y28030D01*
X94930Y28246D01*
X95083Y28511D01*
X95162Y28807D01*
Y29113D01*
X95083Y29409D01*
X94930Y29674D01*
X94714Y29890D01*
X94449Y30043D01*
X94153Y30122D01*
D02*
G37*
G36*
X41586Y28400D02*
X41414D01*
X41249Y28356D01*
X41101Y28270D01*
X40980Y28149D01*
X40894Y28001D01*
X40850Y27836D01*
Y27664D01*
X40894Y27499D01*
X40980Y27351D01*
X41101Y27230D01*
X41249Y27144D01*
X41414Y27100D01*
X41586D01*
X41751Y27144D01*
X41899Y27230D01*
X42020Y27351D01*
X42106Y27499D01*
X42150Y27664D01*
Y27836D01*
X42106Y28001D01*
X42020Y28149D01*
X41899Y28270D01*
X41751Y28356D01*
X41586Y28400D01*
D02*
G37*
G36*
X53086Y28900D02*
X52914D01*
X52749Y28856D01*
X52601Y28770D01*
X52480Y28649D01*
X52394Y28501D01*
X52350Y28336D01*
Y28164D01*
X52394Y27999D01*
X52480Y27851D01*
X52581Y27750D01*
X52480Y27649D01*
X52394Y27501D01*
X52350Y27336D01*
Y27164D01*
X52394Y26999D01*
X52480Y26851D01*
X52601Y26730D01*
X52749Y26644D01*
X52914Y26600D01*
X53086D01*
X53251Y26644D01*
X53399Y26730D01*
X53520Y26851D01*
X53606Y26999D01*
X53650Y27164D01*
Y27336D01*
X53606Y27501D01*
X53520Y27649D01*
X53419Y27750D01*
X53520Y27851D01*
X53606Y27999D01*
X53650Y28164D01*
Y28336D01*
X53606Y28501D01*
X53520Y28649D01*
X53399Y28770D01*
X53251Y28856D01*
X53086Y28900D01*
D02*
G37*
G36*
X27336Y27400D02*
X27164D01*
X26999Y27356D01*
X26851Y27270D01*
X26730Y27149D01*
X26644Y27001D01*
X26600Y26836D01*
Y26664D01*
X26644Y26499D01*
X26730Y26351D01*
X26851Y26230D01*
X26999Y26144D01*
X27164Y26100D01*
X27336D01*
X27501Y26144D01*
X27649Y26230D01*
X27770Y26351D01*
X27856Y26499D01*
X27900Y26664D01*
Y26836D01*
X27856Y27001D01*
X27770Y27149D01*
X27649Y27270D01*
X27501Y27356D01*
X27336Y27400D01*
D02*
G37*
G36*
X75921Y28550D02*
X75579D01*
X75248Y28461D01*
X74952Y28290D01*
X74710Y28048D01*
X74539Y27752D01*
X74450Y27421D01*
Y27079D01*
X74539Y26748D01*
X74710Y26452D01*
X74952Y26210D01*
X75248Y26039D01*
X75579Y25950D01*
X75921D01*
X76252Y26039D01*
X76548Y26210D01*
X76790Y26452D01*
X76961Y26748D01*
X77050Y27079D01*
Y27421D01*
X76961Y27752D01*
X76790Y28048D01*
X76548Y28290D01*
X76252Y28461D01*
X75921Y28550D01*
D02*
G37*
G36*
X69421D02*
X69079D01*
X68748Y28461D01*
X68452Y28290D01*
X68210Y28048D01*
X68039Y27752D01*
X67950Y27421D01*
Y27079D01*
X68039Y26748D01*
X68210Y26452D01*
X68452Y26210D01*
X68748Y26039D01*
X69079Y25950D01*
X69421D01*
X69752Y26039D01*
X70048Y26210D01*
X70290Y26452D01*
X70461Y26748D01*
X70550Y27079D01*
Y27421D01*
X70461Y27752D01*
X70290Y28048D01*
X70048Y28290D01*
X69752Y28461D01*
X69421Y28550D01*
D02*
G37*
G36*
X51336Y26900D02*
X51164D01*
X50999Y26856D01*
X50851Y26770D01*
X50730Y26649D01*
X50644Y26501D01*
X50600Y26336D01*
Y26164D01*
X50644Y25999D01*
X50730Y25851D01*
X50851Y25730D01*
X50999Y25644D01*
X51164Y25600D01*
X51336D01*
X51501Y25644D01*
X51649Y25730D01*
X51770Y25851D01*
X51856Y25999D01*
X51900Y26164D01*
Y26336D01*
X51856Y26501D01*
X51770Y26649D01*
X51649Y26770D01*
X51501Y26856D01*
X51336Y26900D01*
D02*
G37*
G36*
X78086Y26650D02*
X77914D01*
X77749Y26606D01*
X77601Y26520D01*
X77480Y26399D01*
X77394Y26251D01*
X77350Y26086D01*
Y25914D01*
X77394Y25749D01*
X77480Y25601D01*
X77601Y25480D01*
X77749Y25394D01*
X77914Y25350D01*
X78086D01*
X78251Y25394D01*
X78399Y25480D01*
X78520Y25601D01*
X78606Y25749D01*
X78650Y25914D01*
Y26086D01*
X78606Y26251D01*
X78520Y26399D01*
X78399Y26520D01*
X78251Y26606D01*
X78086Y26650D01*
D02*
G37*
G36*
X57586Y26650D02*
X57414D01*
X57249Y26606D01*
X57101Y26520D01*
X56980Y26399D01*
X56894Y26251D01*
X56850Y26086D01*
Y25914D01*
X56894Y25749D01*
X56980Y25601D01*
X57101Y25480D01*
X57249Y25394D01*
X57414Y25350D01*
X57586D01*
X57751Y25394D01*
X57899Y25480D01*
X58020Y25601D01*
X58106Y25749D01*
X58150Y25914D01*
Y26086D01*
X58106Y26251D01*
X58020Y26399D01*
X57899Y26520D01*
X57751Y26606D01*
X57586Y26650D01*
D02*
G37*
G36*
X5153Y24413D02*
X4847D01*
X4551Y24333D01*
X4286Y24180D01*
X4070Y23964D01*
X3917Y23699D01*
X3838Y23403D01*
Y23097D01*
X3917Y22801D01*
X4070Y22536D01*
X4286Y22320D01*
X4551Y22167D01*
X4847Y22087D01*
X5153D01*
X5449Y22167D01*
X5714Y22320D01*
X5930Y22536D01*
X6083Y22801D01*
X6162Y23097D01*
Y23403D01*
X6083Y23699D01*
X5930Y23964D01*
X5714Y24180D01*
X5449Y24333D01*
X5153Y24413D01*
D02*
G37*
G36*
X51086Y22650D02*
X50914D01*
X50749Y22606D01*
X50601Y22520D01*
X50480Y22399D01*
X50394Y22251D01*
X50350Y22086D01*
Y21914D01*
X50394Y21749D01*
X50480Y21601D01*
X50601Y21480D01*
X50749Y21394D01*
X50914Y21350D01*
X51086D01*
X51251Y21394D01*
X51399Y21480D01*
X51520Y21601D01*
X51606Y21749D01*
X51650Y21914D01*
Y22086D01*
X51606Y22251D01*
X51520Y22399D01*
X51399Y22520D01*
X51251Y22606D01*
X51086Y22650D01*
D02*
G37*
G36*
X47586Y22400D02*
X47414D01*
X47249Y22356D01*
X47101Y22270D01*
X46980Y22149D01*
X46894Y22001D01*
X46850Y21836D01*
Y21664D01*
X46894Y21499D01*
X46980Y21351D01*
X47101Y21230D01*
X47249Y21144D01*
X47414Y21100D01*
X47586D01*
X47751Y21144D01*
X47899Y21230D01*
X48020Y21351D01*
X48106Y21499D01*
X48150Y21664D01*
Y21836D01*
X48106Y22001D01*
X48020Y22149D01*
X47899Y22270D01*
X47751Y22356D01*
X47586Y22400D01*
D02*
G37*
G36*
X44336D02*
X44164D01*
X43999Y22356D01*
X43851Y22270D01*
X43730Y22149D01*
X43644Y22001D01*
X43600Y21836D01*
Y21664D01*
X43644Y21499D01*
X43730Y21351D01*
X43851Y21230D01*
X43999Y21144D01*
X44164Y21100D01*
X44336D01*
X44501Y21144D01*
X44649Y21230D01*
X44770Y21351D01*
X44856Y21499D01*
X44900Y21664D01*
Y21836D01*
X44856Y22001D01*
X44770Y22149D01*
X44649Y22270D01*
X44501Y22356D01*
X44336Y22400D01*
D02*
G37*
G36*
X85586Y21400D02*
X85414D01*
X85249Y21356D01*
X85101Y21270D01*
X84980Y21149D01*
X84894Y21001D01*
X84850Y20836D01*
Y20664D01*
X84894Y20499D01*
X84980Y20351D01*
X85101Y20230D01*
X85249Y20144D01*
X85414Y20100D01*
X85586D01*
X85751Y20144D01*
X85899Y20230D01*
X86020Y20351D01*
X86106Y20499D01*
X86150Y20664D01*
Y20836D01*
X86106Y21001D01*
X86020Y21149D01*
X85899Y21270D01*
X85751Y21356D01*
X85586Y21400D01*
D02*
G37*
G36*
X70586Y23650D02*
X70414D01*
X70249Y23606D01*
X70101Y23520D01*
X69980Y23399D01*
X69894Y23251D01*
X69850Y23086D01*
Y22914D01*
X69894Y22749D01*
X69980Y22601D01*
X70101Y22480D01*
X70156Y22448D01*
Y22302D01*
X70101Y22270D01*
X69980Y22149D01*
X69894Y22001D01*
X69850Y21836D01*
Y21664D01*
X69894Y21499D01*
X69980Y21351D01*
X70101Y21230D01*
X70156Y21198D01*
Y21052D01*
X70101Y21020D01*
X69980Y20899D01*
X69894Y20751D01*
X69850Y20586D01*
Y20414D01*
X69894Y20249D01*
X69980Y20101D01*
X70101Y19980D01*
X70249Y19894D01*
X70414Y19850D01*
X70586D01*
X70751Y19894D01*
X70899Y19980D01*
X71020Y20101D01*
X71106Y20249D01*
X71150Y20414D01*
Y20586D01*
X71106Y20751D01*
X71020Y20899D01*
X70899Y21020D01*
X70844Y21052D01*
Y21198D01*
X70899Y21230D01*
X71020Y21351D01*
X71106Y21499D01*
X71150Y21664D01*
Y21836D01*
X71106Y22001D01*
X71020Y22149D01*
X70899Y22270D01*
X70844Y22302D01*
Y22448D01*
X70899Y22480D01*
X71020Y22601D01*
X71106Y22749D01*
X71150Y22914D01*
Y23086D01*
X71106Y23251D01*
X71020Y23399D01*
X70899Y23520D01*
X70751Y23606D01*
X70586Y23650D01*
D02*
G37*
G36*
X5153Y21872D02*
X4847D01*
X4551Y21793D01*
X4286Y21640D01*
X4070Y21424D01*
X3917Y21159D01*
X3838Y20863D01*
Y20557D01*
X3917Y20261D01*
X4070Y19996D01*
X4286Y19780D01*
X4551Y19627D01*
X4847Y19548D01*
X5153D01*
X5449Y19627D01*
X5714Y19780D01*
X5930Y19996D01*
X6083Y20261D01*
X6162Y20557D01*
Y20863D01*
X6083Y21159D01*
X5930Y21424D01*
X5714Y21640D01*
X5449Y21793D01*
X5153Y21872D01*
D02*
G37*
G36*
X42086Y19650D02*
X41914D01*
X41749Y19606D01*
X41601Y19520D01*
X41500Y19419D01*
X41399Y19520D01*
X41251Y19606D01*
X41086Y19650D01*
X40914D01*
X40749Y19606D01*
X40601Y19520D01*
X40480Y19399D01*
X40394Y19251D01*
X40350Y19086D01*
Y18914D01*
X40394Y18749D01*
X40480Y18601D01*
X40601Y18480D01*
X40749Y18394D01*
X40914Y18350D01*
X41086D01*
X41251Y18394D01*
X41399Y18480D01*
X41500Y18581D01*
X41601Y18480D01*
X41749Y18394D01*
X41914Y18350D01*
X42086D01*
X42251Y18394D01*
X42399Y18480D01*
X42520Y18601D01*
X42606Y18749D01*
X42650Y18914D01*
Y19086D01*
X42606Y19251D01*
X42520Y19399D01*
X42399Y19520D01*
X42251Y19606D01*
X42086Y19650D01*
D02*
G37*
G36*
X94153Y19163D02*
X93847D01*
X93551Y19083D01*
X93286Y18930D01*
X93070Y18714D01*
X92917Y18449D01*
X92838Y18153D01*
Y17847D01*
X92917Y17551D01*
X93070Y17286D01*
X93286Y17070D01*
X93551Y16917D01*
X93847Y16837D01*
X94153D01*
X94449Y16917D01*
X94714Y17070D01*
X94930Y17286D01*
X95083Y17551D01*
X95162Y17847D01*
Y18153D01*
X95083Y18449D01*
X94930Y18714D01*
X94714Y18930D01*
X94449Y19083D01*
X94153Y19163D01*
D02*
G37*
G36*
Y16622D02*
X93847D01*
X93551Y16543D01*
X93286Y16390D01*
X93070Y16174D01*
X92917Y15909D01*
X92838Y15613D01*
Y15307D01*
X92917Y15011D01*
X93070Y14746D01*
X93286Y14530D01*
X93551Y14377D01*
X93847Y14297D01*
X94153D01*
X94449Y14377D01*
X94714Y14530D01*
X94930Y14746D01*
X95083Y15011D01*
X95162Y15307D01*
Y15613D01*
X95083Y15909D01*
X94930Y16174D01*
X94714Y16390D01*
X94449Y16543D01*
X94153Y16622D01*
D02*
G37*
G36*
X34086Y12400D02*
X33914D01*
X33749Y12356D01*
X33601Y12270D01*
X33480Y12149D01*
X33394Y12001D01*
X33350Y11836D01*
Y11664D01*
X33394Y11499D01*
X33480Y11351D01*
X33601Y11230D01*
X33749Y11144D01*
X33914Y11100D01*
X34086D01*
X34251Y11144D01*
X34399Y11230D01*
X34520Y11351D01*
X34606Y11499D01*
X34650Y11664D01*
Y11836D01*
X34606Y12001D01*
X34520Y12149D01*
X34399Y12270D01*
X34251Y12356D01*
X34086Y12400D01*
D02*
G37*
G36*
X20086D02*
X19914D01*
X19749Y12356D01*
X19601Y12270D01*
X19480Y12149D01*
X19394Y12001D01*
X19350Y11836D01*
Y11664D01*
X19394Y11499D01*
X19480Y11351D01*
X19601Y11230D01*
X19749Y11144D01*
X19914Y11100D01*
X20086D01*
X20251Y11144D01*
X20399Y11230D01*
X20520Y11351D01*
X20606Y11499D01*
X20650Y11664D01*
Y11836D01*
X20606Y12001D01*
X20520Y12149D01*
X20399Y12270D01*
X20251Y12356D01*
X20086Y12400D01*
D02*
G37*
G36*
X5153Y12892D02*
X4847D01*
X4551Y12813D01*
X4286Y12660D01*
X4070Y12444D01*
X3917Y12179D01*
X3838Y11883D01*
Y11577D01*
X3917Y11281D01*
X4070Y11016D01*
X4286Y10800D01*
X4551Y10647D01*
X4847Y10568D01*
X5153D01*
X5449Y10647D01*
X5714Y10800D01*
X5930Y11016D01*
X6083Y11281D01*
X6162Y11577D01*
Y11883D01*
X6083Y12179D01*
X5930Y12444D01*
X5714Y12660D01*
X5449Y12813D01*
X5153Y12892D01*
D02*
G37*
G36*
X53771Y6300D02*
X53429D01*
X53098Y6211D01*
X52802Y6040D01*
X52560Y5798D01*
X52398Y5519D01*
X52330Y5510D01*
X52262Y5519D01*
X52100Y5798D01*
X51858Y6040D01*
X51562Y6211D01*
X51231Y6300D01*
X50889D01*
X50558Y6211D01*
X50262Y6040D01*
X50020Y5798D01*
X49858Y5519D01*
X49790Y5510D01*
X49722Y5519D01*
X49560Y5798D01*
X49318Y6040D01*
X49022Y6211D01*
X48691Y6300D01*
X48349D01*
X48018Y6211D01*
X47722Y6040D01*
X47480Y5798D01*
X47318Y5519D01*
X47250Y5510D01*
X47182Y5519D01*
X47020Y5798D01*
X46778Y6040D01*
X46482Y6211D01*
X46151Y6300D01*
X45809D01*
X45478Y6211D01*
X45182Y6040D01*
X44940Y5798D01*
X44778Y5519D01*
X44710Y5510D01*
X44642Y5519D01*
X44480Y5798D01*
X44238Y6040D01*
X43942Y6211D01*
X43611Y6300D01*
X43269D01*
X42938Y6211D01*
X42642Y6040D01*
X42400Y5798D01*
X42238Y5519D01*
X42170Y5510D01*
X42102Y5519D01*
X41940Y5798D01*
X41698Y6040D01*
X41402Y6211D01*
X41071Y6300D01*
X40729D01*
X40398Y6211D01*
X40102Y6040D01*
X39860Y5798D01*
X39689Y5502D01*
X39600Y5171D01*
Y4829D01*
X39689Y4498D01*
X39860Y4202D01*
X40102Y3960D01*
X40398Y3789D01*
X40729Y3700D01*
X41071D01*
X41402Y3789D01*
X41698Y3960D01*
X41940Y4202D01*
X42102Y4481D01*
X42170Y4490D01*
X42238Y4481D01*
X42400Y4202D01*
X42642Y3960D01*
X42938Y3789D01*
X43269Y3700D01*
X43611D01*
X43942Y3789D01*
X44238Y3960D01*
X44480Y4202D01*
X44642Y4481D01*
X44710Y4490D01*
X44778Y4481D01*
X44940Y4202D01*
X45182Y3960D01*
X45478Y3789D01*
X45809Y3700D01*
X46151D01*
X46482Y3789D01*
X46778Y3960D01*
X47020Y4202D01*
X47182Y4481D01*
X47250Y4490D01*
X47318Y4481D01*
X47480Y4202D01*
X47722Y3960D01*
X48018Y3789D01*
X48349Y3700D01*
X48691D01*
X49022Y3789D01*
X49318Y3960D01*
X49560Y4202D01*
X49722Y4481D01*
X49790Y4490D01*
X49858Y4481D01*
X50020Y4202D01*
X50262Y3960D01*
X50558Y3789D01*
X50889Y3700D01*
X51231D01*
X51562Y3789D01*
X51858Y3960D01*
X52100Y4202D01*
X52262Y4481D01*
X52330Y4490D01*
X52398Y4481D01*
X52560Y4202D01*
X52802Y3960D01*
X53098Y3789D01*
X53429Y3700D01*
X53771D01*
X54102Y3789D01*
X54398Y3960D01*
X54640Y4202D01*
X54811Y4498D01*
X54900Y4829D01*
Y5171D01*
X54811Y5502D01*
X54640Y5798D01*
X54398Y6040D01*
X54102Y6211D01*
X53771Y6300D01*
D02*
G37*
G36*
X67693Y6162D02*
X67387D01*
X67091Y6083D01*
X66826Y5930D01*
X66610Y5714D01*
X66457Y5449D01*
X66378Y5153D01*
Y4847D01*
X66457Y4551D01*
X66610Y4286D01*
X66826Y4070D01*
X67091Y3917D01*
X67387Y3838D01*
X67693D01*
X67989Y3917D01*
X68254Y4070D01*
X68470Y4286D01*
X68623Y4551D01*
X68702Y4847D01*
Y5153D01*
X68623Y5449D01*
X68470Y5714D01*
X68254Y5930D01*
X67989Y6083D01*
X67693Y6162D01*
D02*
G37*
G36*
X65153D02*
X64847D01*
X64551Y6083D01*
X64286Y5930D01*
X64070Y5714D01*
X63917Y5449D01*
X63838Y5153D01*
Y4847D01*
X63917Y4551D01*
X64070Y4286D01*
X64286Y4070D01*
X64551Y3917D01*
X64847Y3838D01*
X65153D01*
X65449Y3917D01*
X65714Y4070D01*
X65930Y4286D01*
X66083Y4551D01*
X66162Y4847D01*
Y5153D01*
X66083Y5449D01*
X65930Y5714D01*
X65714Y5930D01*
X65449Y6083D01*
X65153Y6162D01*
D02*
G37*
G36*
X32693D02*
X32387D01*
X32091Y6083D01*
X31826Y5930D01*
X31610Y5714D01*
X31457Y5449D01*
X31378Y5153D01*
Y4847D01*
X31457Y4551D01*
X31610Y4286D01*
X31826Y4070D01*
X32091Y3917D01*
X32387Y3838D01*
X32693D01*
X32989Y3917D01*
X33254Y4070D01*
X33470Y4286D01*
X33623Y4551D01*
X33702Y4847D01*
Y5153D01*
X33623Y5449D01*
X33470Y5714D01*
X33254Y5930D01*
X32989Y6083D01*
X32693Y6162D01*
D02*
G37*
G36*
X30153D02*
X29847D01*
X29551Y6083D01*
X29286Y5930D01*
X29070Y5714D01*
X28917Y5449D01*
X28837Y5153D01*
Y4847D01*
X28917Y4551D01*
X29070Y4286D01*
X29286Y4070D01*
X29551Y3917D01*
X29847Y3838D01*
X30153D01*
X30449Y3917D01*
X30714Y4070D01*
X30930Y4286D01*
X31083Y4551D01*
X31163Y4847D01*
Y5153D01*
X31083Y5449D01*
X30930Y5714D01*
X30714Y5930D01*
X30449Y6083D01*
X30153Y6162D01*
D02*
G37*
G36*
X18693D02*
X18387D01*
X18091Y6083D01*
X17826Y5930D01*
X17610Y5714D01*
X17457Y5449D01*
X17378Y5153D01*
Y4847D01*
X17457Y4551D01*
X17610Y4286D01*
X17826Y4070D01*
X18091Y3917D01*
X18387Y3838D01*
X18693D01*
X18989Y3917D01*
X19254Y4070D01*
X19470Y4286D01*
X19623Y4551D01*
X19702Y4847D01*
Y5153D01*
X19623Y5449D01*
X19470Y5714D01*
X19254Y5930D01*
X18989Y6083D01*
X18693Y6162D01*
D02*
G37*
G36*
X16153D02*
X15847D01*
X15551Y6083D01*
X15286Y5930D01*
X15070Y5714D01*
X14917Y5449D01*
X14837Y5153D01*
Y4847D01*
X14917Y4551D01*
X15070Y4286D01*
X15286Y4070D01*
X15551Y3917D01*
X15847Y3838D01*
X16153D01*
X16449Y3917D01*
X16714Y4070D01*
X16930Y4286D01*
X17083Y4551D01*
X17163Y4847D01*
Y5153D01*
X17083Y5449D01*
X16930Y5714D01*
X16714Y5930D01*
X16449Y6083D01*
X16153Y6162D01*
D02*
G37*
G36*
X81153Y6550D02*
X80847D01*
X80548Y6491D01*
X80266Y6374D01*
X80012Y6204D01*
X79796Y5988D01*
X79626Y5734D01*
X79509Y5452D01*
X79450Y5153D01*
Y4848D01*
X79509Y4548D01*
X79626Y4266D01*
X79796Y4012D01*
X80012Y3796D01*
X80266Y3627D01*
X80548Y3510D01*
X80847Y3450D01*
X81153D01*
X81452Y3510D01*
X81734Y3627D01*
X81988Y3796D01*
X82204Y4012D01*
X82373Y4266D01*
X82490Y4548D01*
X82550Y4848D01*
Y5153D01*
X82490Y5452D01*
X82373Y5734D01*
X82204Y5988D01*
X81988Y6204D01*
X81734Y6374D01*
X81452Y6491D01*
X81153Y6550D01*
D02*
G37*
G36*
X76073D02*
X75767D01*
X75468Y6491D01*
X75186Y6374D01*
X74932Y6204D01*
X74716Y5988D01*
X74546Y5734D01*
X74429Y5452D01*
X74370Y5153D01*
Y4848D01*
X74429Y4548D01*
X74546Y4266D01*
X74716Y4012D01*
X74932Y3796D01*
X75186Y3627D01*
X75468Y3510D01*
X75767Y3450D01*
X76073D01*
X76372Y3510D01*
X76654Y3627D01*
X76908Y3796D01*
X77124Y4012D01*
X77293Y4266D01*
X77410Y4548D01*
X77470Y4848D01*
Y5153D01*
X77410Y5452D01*
X77293Y5734D01*
X77124Y5988D01*
X76908Y6204D01*
X76654Y6374D01*
X76372Y6491D01*
X76073Y6550D01*
D02*
G37*
G36*
X94760Y7800D02*
X94240D01*
X93727Y7719D01*
X93233Y7558D01*
X92770Y7322D01*
X92350Y7017D01*
X91983Y6650D01*
X91678Y6230D01*
X91442Y5767D01*
X91281Y5273D01*
X91200Y4760D01*
Y4240D01*
X91281Y3727D01*
X91442Y3233D01*
X91678Y2770D01*
X91983Y2350D01*
X92350Y1983D01*
X92770Y1678D01*
X93233Y1442D01*
X93727Y1281D01*
X94240Y1200D01*
X94760D01*
X95273Y1281D01*
X95767Y1442D01*
X96230Y1678D01*
X96650Y1983D01*
X97017Y2350D01*
X97322Y2770D01*
X97558Y3233D01*
X97719Y3727D01*
X97800Y4240D01*
Y4760D01*
X97719Y5273D01*
X97558Y5767D01*
X97322Y6230D01*
X97017Y6650D01*
X96650Y7017D01*
X96230Y7322D01*
X95767Y7558D01*
X95273Y7719D01*
X94760Y7800D01*
D02*
G37*
G36*
X4760D02*
X4240D01*
X3727Y7719D01*
X3233Y7558D01*
X2770Y7322D01*
X2350Y7017D01*
X1983Y6650D01*
X1678Y6230D01*
X1442Y5767D01*
X1281Y5273D01*
X1200Y4760D01*
Y4240D01*
X1281Y3727D01*
X1442Y3233D01*
X1678Y2770D01*
X1983Y2350D01*
X2350Y1983D01*
X2770Y1678D01*
X3233Y1442D01*
X3727Y1281D01*
X4240Y1200D01*
X4760D01*
X5273Y1281D01*
X5767Y1442D01*
X6230Y1678D01*
X6650Y1983D01*
X7017Y2350D01*
X7322Y2770D01*
X7558Y3233D01*
X7719Y3727D01*
X7800Y4240D01*
Y4760D01*
X7719Y5273D01*
X7558Y5767D01*
X7322Y6230D01*
X7017Y6650D01*
X6650Y7017D01*
X6230Y7322D01*
X5767Y7558D01*
X5273Y7719D01*
X4760Y7800D01*
D02*
G37*
%LPD*%
D29*
X75920Y5000D02*
D03*
X81000D02*
D03*
X86080D02*
D03*
D30*
X29000Y42000D02*
D03*
Y44540D02*
D03*
Y39460D02*
D03*
D31*
X94500Y4500D02*
D03*
X4500D02*
D03*
Y59500D02*
D03*
X94500D02*
D03*
D32*
X53600Y5000D02*
D03*
X51060D02*
D03*
X48520D02*
D03*
X45980D02*
D03*
X43440D02*
D03*
X40900D02*
D03*
X75750Y27250D02*
D03*
X69250D02*
D03*
X75750Y31750D02*
D03*
X69250D02*
D03*
Y40250D02*
D03*
X75750D02*
D03*
X69250Y35750D02*
D03*
X75750D02*
D03*
D33*
X5000Y25790D02*
D03*
Y23250D02*
D03*
Y20710D02*
D03*
X94000Y28960D02*
D03*
Y31500D02*
D03*
Y34040D02*
D03*
Y15460D02*
D03*
Y18000D02*
D03*
Y20540D02*
D03*
X13460Y5000D02*
D03*
X16000D02*
D03*
X18540D02*
D03*
X27460D02*
D03*
X30000D02*
D03*
X32540D02*
D03*
X62460D02*
D03*
X65000D02*
D03*
X67540D02*
D03*
X5000Y11730D02*
D03*
Y14270D02*
D03*
Y38040D02*
D03*
Y35500D02*
D03*
Y32960D02*
D03*
Y49040D02*
D03*
Y46500D02*
D03*
Y43960D02*
D03*
X11000Y32960D02*
D03*
Y35500D02*
D03*
Y38040D02*
D03*
Y43960D02*
D03*
Y46500D02*
D03*
Y49040D02*
D03*
D34*
X92735Y42400D02*
D03*
X92670Y49600D02*
D03*
D35*
X95785Y50320D02*
D03*
Y41680D02*
D03*
D36*
X90735Y50320D02*
D03*
Y41680D02*
D03*
D37*
X27580Y59370D02*
D03*
Y56830D02*
D03*
X25040Y59370D02*
D03*
Y56830D02*
D03*
X22500Y59370D02*
D03*
Y56830D02*
D03*
X19960Y59370D02*
D03*
Y56830D02*
D03*
X17420Y59370D02*
D03*
Y56830D02*
D03*
X54580Y59370D02*
D03*
Y56830D02*
D03*
X52040Y59370D02*
D03*
Y56830D02*
D03*
X49500Y59370D02*
D03*
Y56830D02*
D03*
X46960Y59370D02*
D03*
Y56830D02*
D03*
X44420Y59370D02*
D03*
Y56830D02*
D03*
X81580Y59370D02*
D03*
Y56830D02*
D03*
X79040Y59370D02*
D03*
Y56830D02*
D03*
X76500Y59370D02*
D03*
Y56830D02*
D03*
X73960Y59370D02*
D03*
Y56830D02*
D03*
X71420Y59370D02*
D03*
Y56830D02*
D03*
D38*
X92250Y10000D02*
D03*
X78000Y26000D02*
D03*
X32000Y38000D02*
D03*
X33000D02*
D03*
X34000D02*
D03*
X50250Y16000D02*
D03*
X34000Y11750D02*
D03*
X41000Y37000D02*
D03*
X50250Y45500D02*
D03*
X18500Y48000D02*
D03*
X42000Y19000D02*
D03*
X41000D02*
D03*
X53000Y27250D02*
D03*
Y28250D02*
D03*
X20000Y11750D02*
D03*
X34750Y30750D02*
D03*
Y27750D02*
D03*
X60250Y35250D02*
D03*
Y28250D02*
D03*
X44750Y41000D02*
D03*
X61250Y39250D02*
D03*
Y40750D02*
D03*
X27250Y26750D02*
D03*
X51250Y16000D02*
D03*
X45250Y18750D02*
D03*
X44250Y21750D02*
D03*
X66000Y13000D02*
D03*
X41250Y43250D02*
D03*
X72500Y28250D02*
D03*
X51250Y26250D02*
D03*
X35750Y13000D02*
D03*
X47500Y21750D02*
D03*
X22000Y44750D02*
D03*
X85250Y58000D02*
D03*
X58250D02*
D03*
X31250D02*
D03*
X75000Y24750D02*
D03*
X81250Y22000D02*
D03*
X70500Y20500D02*
D03*
Y23000D02*
D03*
Y21750D02*
D03*
X75000Y21000D02*
D03*
X77750Y17500D02*
D03*
X80500Y36000D02*
D03*
X84750Y41750D02*
D03*
X84250Y19250D02*
D03*
X82250D02*
D03*
X88500Y53000D02*
D03*
Y49000D02*
D03*
Y47500D02*
D03*
X93250Y44250D02*
D03*
X88500Y43500D02*
D03*
X92500Y39000D02*
D03*
X85500Y20750D02*
D03*
X83250Y45500D02*
D03*
Y46500D02*
D03*
X56750Y45500D02*
D03*
Y46500D02*
D03*
X93250Y45250D02*
D03*
Y46250D02*
D03*
X87250Y46500D02*
D03*
Y45500D02*
D03*
X57500Y30000D02*
D03*
X26750Y41750D02*
D03*
Y40250D02*
D03*
X17500Y38750D02*
D03*
Y41250D02*
D03*
X26750Y39250D02*
D03*
X41500Y30750D02*
D03*
Y33250D02*
D03*
X49500Y31000D02*
D03*
Y29000D02*
D03*
Y30000D02*
D03*
X41500Y39500D02*
D03*
X45500Y46750D02*
D03*
X52500Y38000D02*
D03*
X54000D02*
D03*
X55500D02*
D03*
X57000D02*
D03*
X58500D02*
D03*
X57500Y34000D02*
D03*
Y31000D02*
D03*
Y26000D02*
D03*
X51000Y22000D02*
D03*
X41500Y27750D02*
D03*
X49500Y38000D02*
D03*
%TF.MD5,3e735b3c55b32262fdd87499f0e57df6*%
M02*
