%TF.GenerationSoftware,Altium Limited,Altium Designer,25.2.1 (25)*%
G04 Layer_Color=2752767*
%FSLAX43Y43*%
%MOMM*%
%TF.SameCoordinates,04BFB8AD-8686-48F5-A47E-F6A4234CF6E9*%
%TF.FilePolarity,Positive*%
%TF.FileFunction,Drawing*%
%TF.Part,Single*%
G01*
G75*
%TA.AperFunction,NonConductor*%
%ADD68C,0.127*%
%ADD69C,0.169*%
D68*
X45246Y45246D02*
Y44992D01*
X45754D01*
Y45246D01*
X46008D01*
Y45754D01*
X45754D01*
Y46008D01*
X45246D01*
Y45754D01*
X44992D01*
Y45246D01*
X45246D01*
Y4246D02*
Y3992D01*
X45754D01*
Y4246D01*
X46008D01*
Y4754D01*
X45754D01*
Y5008D01*
X45246D01*
Y4754D01*
X44992D01*
Y4246D01*
X45246D01*
X4246D02*
Y3992D01*
X4754D01*
Y4246D01*
X5008D01*
Y4754D01*
X4754D01*
Y5008D01*
X4246D01*
Y4754D01*
X3992D01*
Y4246D01*
X4246D01*
Y45246D02*
Y44992D01*
X4754D01*
Y45246D01*
X5008D01*
Y45754D01*
X4754D01*
Y46008D01*
X4246D01*
Y45754D01*
X3992D01*
Y45246D01*
X4246D01*
X5757Y23092D02*
Y24108D01*
X6773D01*
Y23092D01*
X5757D01*
X5822Y15892D02*
Y16908D01*
X6838D01*
Y15892D01*
X5822D01*
X8265Y15172D02*
X7757Y16188D01*
X8773D01*
X8265Y15172D01*
Y23812D02*
X7757Y24828D01*
X8773D01*
X8265Y23812D01*
X30952Y4992D02*
X31206D01*
X31460Y5246D01*
X31714Y4992D01*
X31968D01*
Y5246D01*
X31714Y5500D01*
X31968Y5754D01*
Y6008D01*
X31714D01*
X31460Y5754D01*
X31206Y6008D01*
X30952D01*
Y5754D01*
X31206Y5500D01*
X30952Y5246D01*
Y4992D01*
X33492D02*
X33746D01*
X34000Y5246D01*
X34254Y4992D01*
X34508D01*
Y5246D01*
X34254Y5500D01*
X34508Y5754D01*
Y6008D01*
X34254D01*
X34000Y5754D01*
X33746Y6008D01*
X33492D01*
Y5754D01*
X33746Y5500D01*
X33492Y5246D01*
Y4992D01*
X36032D02*
X36286D01*
X36540Y5246D01*
X36794Y4992D01*
X37048D01*
Y5246D01*
X36794Y5500D01*
X37048Y5754D01*
Y6008D01*
X36794D01*
X36540Y5754D01*
X36286Y6008D01*
X36032D01*
Y5754D01*
X36286Y5500D01*
X36032Y5246D01*
Y4992D01*
X11412D02*
X11666D01*
X11920Y5246D01*
X12174Y4992D01*
X12428D01*
Y5246D01*
X12174Y5500D01*
X12428Y5754D01*
Y6008D01*
X12174D01*
X11920Y5754D01*
X11666Y6008D01*
X11412D01*
Y5754D01*
X11666Y5500D01*
X11412Y5246D01*
Y4992D01*
X13952D02*
X14206D01*
X14460Y5246D01*
X14714Y4992D01*
X14968D01*
Y5246D01*
X14714Y5500D01*
X14968Y5754D01*
Y6008D01*
X14714D01*
X14460Y5754D01*
X14206Y6008D01*
X13952D01*
Y5754D01*
X14206Y5500D01*
X13952Y5246D01*
Y4992D01*
X16492D02*
X16746D01*
X17000Y5246D01*
X17254Y4992D01*
X17508D01*
Y5246D01*
X17254Y5500D01*
X17508Y5754D01*
Y6008D01*
X17254D01*
X17000Y5754D01*
X16746Y6008D01*
X16492D01*
Y5754D01*
X16746Y5500D01*
X16492Y5246D01*
Y4992D01*
X19032D02*
X19286D01*
X19540Y5246D01*
X19794Y4992D01*
X20048D01*
Y5246D01*
X19794Y5500D01*
X20048Y5754D01*
Y6008D01*
X19794D01*
X19540Y5754D01*
X19286Y6008D01*
X19032D01*
Y5754D01*
X19286Y5500D01*
X19032Y5246D01*
Y4992D01*
X22425Y47567D02*
X22679Y47821D01*
X22933D01*
X22679Y48075D01*
X22933Y48329D01*
X22679D01*
X22425Y48583D01*
X22171Y48329D01*
X21917D01*
X22171Y48075D01*
X21917Y47821D01*
X22171D01*
X22425Y47567D01*
X27575D02*
X27829Y47821D01*
X28083D01*
X27829Y48075D01*
X28083Y48329D01*
X27829D01*
X27575Y48583D01*
X27321Y48329D01*
X27067D01*
X27321Y48075D01*
X27067Y47821D01*
X27321D01*
X27575Y47567D01*
Y42417D02*
X27829Y42671D01*
X28083D01*
X27829Y42925D01*
X28083Y43179D01*
X27829D01*
X27575Y43433D01*
X27321Y43179D01*
X27067D01*
X27321Y42925D01*
X27067Y42671D01*
X27321D01*
X27575Y42417D01*
X22425D02*
X22679Y42671D01*
X22933D01*
X22679Y42925D01*
X22933Y43179D01*
X22679D01*
X22425Y43433D01*
X22171Y43179D01*
X21917D01*
X22171Y42925D01*
X21917Y42671D01*
X22171D01*
X22425Y42417D01*
X24492Y44992D02*
X24746Y45500D01*
X24492Y46008D01*
X25000Y45754D01*
X25508Y46008D01*
X25254Y45500D01*
X25508Y44992D01*
X25000Y45246D01*
X24492Y44992D01*
X33992Y30750D02*
X34500Y31258D01*
X35008Y30750D01*
X34500Y30242D01*
X33992Y30750D01*
X22292Y26750D02*
X22800Y27258D01*
X23308Y26750D01*
X22800Y26242D01*
X22292Y26750D01*
Y29250D02*
X22800Y29758D01*
X23308Y29250D01*
X22800Y28742D01*
X22292Y29250D01*
X29492Y33500D02*
X30000Y34008D01*
X30508Y33500D01*
X30000Y32992D01*
X29492Y33500D01*
X21992Y38000D02*
X22500Y38508D01*
X23008Y38000D01*
X22500Y37492D01*
X21992Y38000D01*
X27167Y35500D02*
X27675Y36008D01*
X28183Y35500D01*
X27675Y34992D01*
X27167Y35500D01*
Y39500D02*
X27675Y40008D01*
X28183Y39500D01*
X27675Y38992D01*
X27167Y39500D01*
X14667Y36675D02*
X15175Y37183D01*
X15683Y36675D01*
X15175Y36167D01*
X14667Y36675D01*
Y35325D02*
X15175Y35833D01*
X15683Y35325D01*
X15175Y34817D01*
X14667Y35325D01*
X21992Y34000D02*
X22500Y34508D01*
X23008Y34000D01*
X22500Y33492D01*
X21992Y34000D01*
X30492Y17500D02*
X31000Y18008D01*
X31508Y17500D01*
X31000Y16992D01*
X30492Y17500D01*
X30992Y33500D02*
X31500Y34008D01*
X32008Y33500D01*
X31500Y32992D01*
X30992Y33500D01*
X32242Y24500D02*
X32750Y25008D01*
X33258Y24500D01*
X32750Y23992D01*
X32242Y24500D01*
X16242Y15000D02*
X16750Y15508D01*
X17258Y15000D01*
X16750Y14492D01*
X16242Y15000D01*
Y19250D02*
X16750Y19758D01*
X17258Y19250D01*
X16750Y18742D01*
X16242Y19250D01*
X12242Y22750D02*
X12750Y23258D01*
X13258Y22750D01*
X12750Y22242D01*
X12242Y22750D01*
Y28500D02*
X12750Y29008D01*
X13258Y28500D01*
X12750Y27992D01*
X12242Y28500D01*
X44992Y13250D02*
X45500Y13758D01*
X46008Y13250D01*
X45500Y12742D01*
X44992Y13250D01*
X26992Y30000D02*
X27500Y30508D01*
X28008Y30000D01*
X27500Y29492D01*
X26992Y30000D01*
X9992Y21500D02*
X10500Y22008D01*
X11008Y21500D01*
X10500Y20992D01*
X9992Y21500D01*
X3742Y21750D02*
X4250Y22258D01*
X4758Y21750D01*
X4250Y21242D01*
X3742Y21750D01*
X9992Y22500D02*
X10500Y23008D01*
X11008Y22500D01*
X10500Y21992D01*
X9992Y22500D01*
Y17000D02*
X10500Y17508D01*
X11008Y17000D01*
X10500Y16492D01*
X9992Y17000D01*
Y18500D02*
X10500Y19008D01*
X11008Y18500D01*
X10500Y17992D01*
X9992Y18500D01*
X5492Y19750D02*
X6000Y20258D01*
X6508Y19750D01*
X6000Y19242D01*
X5492Y19750D01*
Y20750D02*
X6000Y21258D01*
X6508Y20750D01*
X6000Y20242D01*
X5492Y20750D01*
X9992Y19500D02*
X10500Y20008D01*
X11008Y19500D01*
X10500Y18992D01*
X9992Y19500D01*
Y20500D02*
X10500Y21008D01*
X11008Y20500D01*
X10500Y19992D01*
X9992Y20500D01*
X16242Y22500D02*
X16750Y23008D01*
X17258Y22500D01*
X16750Y21992D01*
X16242Y22500D01*
X12242Y25250D02*
X12750Y25758D01*
X13258Y25250D01*
X12750Y24742D01*
X12242Y25250D01*
Y24250D02*
X12750Y24758D01*
X13258Y24250D01*
X12750Y23742D01*
X12242Y24250D01*
X16242D02*
X16750Y24758D01*
X17258Y24250D01*
X16750Y23742D01*
X16242Y24250D01*
Y25250D02*
X16750Y25758D01*
X17258Y25250D01*
X16750Y24742D01*
X16242Y25250D01*
X27492Y19000D02*
X28000Y19508D01*
X28508Y19000D01*
X28000Y18492D01*
X27492Y19000D01*
X24242Y17500D02*
X24750Y18008D01*
X25258Y17500D01*
X24750Y16992D01*
X24242Y17500D01*
X20242Y19000D02*
X20750Y19508D01*
X21258Y19000D01*
X20750Y18492D01*
X20242Y19000D01*
Y17500D02*
X20750Y18008D01*
X21258Y17500D01*
X20750Y16992D01*
X20242Y17500D01*
X21992Y21250D02*
X22500Y21758D01*
X23008Y21250D01*
X22500Y20742D01*
X21992Y21250D01*
X19992Y22000D02*
X20500Y22508D01*
X21008Y22000D01*
X20500Y21492D01*
X19992Y22000D01*
X24742Y21250D02*
X25250Y21758D01*
X25758Y21250D01*
X25250Y20742D01*
X24742Y21250D01*
X18992Y22000D02*
X19500Y22508D01*
X20008Y22000D01*
X19500Y21492D01*
X18992Y22000D01*
X16242Y27000D02*
X16750Y27508D01*
X17258Y27000D01*
X16750Y26492D01*
X16242Y27000D01*
Y28500D02*
X16750Y29008D01*
X17258Y28500D01*
X16750Y27992D01*
X16242Y28500D01*
X22292Y28000D02*
X22800Y28508D01*
X23308Y28000D01*
X22800Y27492D01*
X22292Y28000D01*
X27242Y27500D02*
X27750Y28008D01*
X28258Y27500D01*
X27750Y26992D01*
X27242Y27500D01*
X28242Y30500D02*
X28750Y31008D01*
X29258Y30500D01*
X28750Y29992D01*
X28242Y30500D01*
Y24500D02*
X28750Y25008D01*
X29258Y24500D01*
X28750Y23992D01*
X28242Y24500D01*
D69*
X3723Y15680D02*
G03*
X3723Y15680I-508J0D01*
G01*
Y24320D02*
G03*
X3723Y24320I-508J0D01*
G01*
%TF.MD5,feed1328a221ab74c0aca0e927aefc56*%
M02*
