%TF.GenerationSoftware,Altium Limited,Altium Designer,25.2.1 (25)*%
G04 Layer_Color=8388736*
%FSLAX43Y43*%
%MOMM*%
%TF.SameCoordinates,04BFB8AD-8686-48F5-A47E-F6A4234CF6E9*%
%TF.FilePolarity,Negative*%
%TF.FileFunction,Soldermask,Top*%
%TF.Part,Single*%
G01*
G75*
%TA.AperFunction,SMDPad,CuDef*%
%ADD39R,4.200X4.200*%
%ADD40R,1.000X0.350*%
%ADD41R,0.350X1.000*%
%ADD42R,0.950X0.420*%
%ADD43R,1.050X0.420*%
%ADD44R,1.750X0.800*%
%ADD45R,0.800X0.850*%
%ADD46R,0.850X0.800*%
%ADD47R,0.800X0.900*%
%ADD48R,1.400X0.750*%
%TA.AperFunction,ComponentPad*%
%ADD49C,6.150*%
%ADD50C,1.400*%
%ADD51C,2.900*%
%ADD52C,2.400*%
%ADD53C,1.875*%
%ADD54C,2.550*%
%ADD55R,2.250X2.250*%
%TA.AperFunction,ViaPad*%
%ADD56C,0.850*%
D39*
X22800Y28000D02*
D03*
D40*
X26250Y30600D02*
D03*
Y30200D02*
D03*
Y29800D02*
D03*
Y29400D02*
D03*
Y29000D02*
D03*
Y28600D02*
D03*
Y28200D02*
D03*
Y27800D02*
D03*
Y27400D02*
D03*
Y27000D02*
D03*
Y26600D02*
D03*
Y26200D02*
D03*
Y25800D02*
D03*
Y25400D02*
D03*
X19350D02*
D03*
Y25800D02*
D03*
Y26200D02*
D03*
Y26600D02*
D03*
Y27000D02*
D03*
Y27400D02*
D03*
Y27800D02*
D03*
Y28200D02*
D03*
Y28600D02*
D03*
Y29000D02*
D03*
Y29400D02*
D03*
Y29800D02*
D03*
Y30200D02*
D03*
Y30600D02*
D03*
D41*
X25400Y24550D02*
D03*
X25000D02*
D03*
X24600D02*
D03*
X24200D02*
D03*
X23800D02*
D03*
X23400D02*
D03*
X23000D02*
D03*
X22600D02*
D03*
X22200D02*
D03*
X21800D02*
D03*
X21400D02*
D03*
X21000D02*
D03*
X20600D02*
D03*
X20200D02*
D03*
Y31450D02*
D03*
X20600D02*
D03*
X21000D02*
D03*
X21400D02*
D03*
X21800D02*
D03*
X22200D02*
D03*
X22600D02*
D03*
X23000D02*
D03*
X23400D02*
D03*
X23800D02*
D03*
X24200D02*
D03*
X24600D02*
D03*
X25000D02*
D03*
X25400D02*
D03*
D42*
X7365Y22875D02*
D03*
Y22375D02*
D03*
Y21875D02*
D03*
Y21375D02*
D03*
Y20875D02*
D03*
Y20375D02*
D03*
Y19875D02*
D03*
Y19375D02*
D03*
Y18875D02*
D03*
Y18375D02*
D03*
Y17875D02*
D03*
Y17375D02*
D03*
D43*
X8965Y17125D02*
D03*
Y17625D02*
D03*
Y18125D02*
D03*
Y18625D02*
D03*
Y19125D02*
D03*
Y19625D02*
D03*
Y20125D02*
D03*
Y20625D02*
D03*
Y21125D02*
D03*
Y21625D02*
D03*
Y22125D02*
D03*
Y22625D02*
D03*
D44*
X19292Y18905D02*
D03*
Y17635D02*
D03*
Y16365D02*
D03*
Y15095D02*
D03*
X26392D02*
D03*
Y16365D02*
D03*
Y17635D02*
D03*
Y18905D02*
D03*
D45*
X25000Y39500D02*
D03*
X26350D02*
D03*
X25000Y35500D02*
D03*
X26350D02*
D03*
X33175Y26250D02*
D03*
X31825D02*
D03*
Y30750D02*
D03*
X33175D02*
D03*
D46*
X30250Y27825D02*
D03*
Y29175D02*
D03*
X25000Y38175D02*
D03*
Y36825D02*
D03*
D47*
X33000Y29150D02*
D03*
Y27850D02*
D03*
X32000D02*
D03*
Y29150D02*
D03*
D48*
X45500Y10100D02*
D03*
Y11900D02*
D03*
D49*
Y45500D02*
D03*
Y4500D02*
D03*
X4500D02*
D03*
Y45500D02*
D03*
D50*
X6265Y23600D02*
D03*
X6330Y16400D02*
D03*
D51*
X3215Y15680D02*
D03*
Y24320D02*
D03*
D52*
X8265Y15680D02*
D03*
Y24320D02*
D03*
D53*
X31460Y5500D02*
D03*
X34000D02*
D03*
X36540D02*
D03*
X11920D02*
D03*
X14460D02*
D03*
X17000D02*
D03*
X19540D02*
D03*
D54*
X22425Y48075D02*
D03*
X27575D02*
D03*
Y42925D02*
D03*
X22425D02*
D03*
D55*
X25000Y45500D02*
D03*
D56*
X34500Y30750D02*
D03*
X22800Y26750D02*
D03*
Y29250D02*
D03*
X30000Y33500D02*
D03*
X22500Y38000D02*
D03*
X27675Y35500D02*
D03*
Y39500D02*
D03*
X15175Y36675D02*
D03*
Y35325D02*
D03*
X22500Y34000D02*
D03*
X31000Y17500D02*
D03*
X31500Y33500D02*
D03*
X32750Y24500D02*
D03*
X16750Y15000D02*
D03*
Y19250D02*
D03*
X12750Y22750D02*
D03*
Y28500D02*
D03*
X45500Y13250D02*
D03*
X27500Y30000D02*
D03*
X10500Y21500D02*
D03*
X4250Y21750D02*
D03*
X10500Y22500D02*
D03*
Y17000D02*
D03*
Y18500D02*
D03*
X6000Y19750D02*
D03*
Y20750D02*
D03*
X10500Y19500D02*
D03*
Y20500D02*
D03*
X16750Y22500D02*
D03*
X12750Y25250D02*
D03*
Y24250D02*
D03*
X16750D02*
D03*
Y25250D02*
D03*
X28000Y19000D02*
D03*
X24750Y17500D02*
D03*
X20750Y19000D02*
D03*
Y17500D02*
D03*
X22500Y21250D02*
D03*
X20500Y22000D02*
D03*
X25250Y21250D02*
D03*
X19500Y22000D02*
D03*
X16750Y27000D02*
D03*
Y28500D02*
D03*
X22800Y28000D02*
D03*
X27750Y27500D02*
D03*
X28750Y30500D02*
D03*
Y24500D02*
D03*
%TF.MD5,a4b0fa6fbd328d8ce96203304fadcf5b*%
M02*
