%TF.GenerationSoftware,Altium Limited,Altium Designer,25.2.1 (25)*%
G04 Layer_Color=8421504*
%FSLAX43Y43*%
%MOMM*%
%TF.SameCoordinates,04BFB8AD-8686-48F5-A47E-F6A4234CF6E9*%
%TF.FilePolarity,Positive*%
%TF.FileFunction,Paste,Top*%
%TF.Part,Single*%
G01*
G75*
%TA.AperFunction,SMDPad,CuDef*%
%ADD12R,4.050X4.050*%
%ADD13R,0.850X0.200*%
%ADD14R,0.200X0.850*%
%ADD15R,0.800X0.270*%
%ADD16R,0.900X0.270*%
%ADD17R,1.600X0.650*%
%ADD18R,0.650X0.700*%
%ADD19R,0.700X0.650*%
%ADD20R,0.650X0.750*%
%ADD21R,1.250X0.600*%
G36*
X4500Y7500D02*
X1500Y4500D01*
X4500Y1500D01*
X7500Y4500D01*
X4500Y7500D01*
D02*
G37*
G36*
Y48500D02*
X1500Y45500D01*
X4500Y42500D01*
X7500Y45500D01*
X4500Y48500D01*
D02*
G37*
G36*
X45500Y7500D02*
X42500Y4500D01*
X45500Y1500D01*
X48500Y4500D01*
X45500Y7500D01*
D02*
G37*
G36*
Y48500D02*
X42500Y45500D01*
X45500Y42500D01*
X48500Y45500D01*
X45500Y48500D01*
D02*
G37*
D12*
X22800Y28000D02*
D03*
D13*
X26250Y30600D02*
D03*
Y30200D02*
D03*
Y29800D02*
D03*
Y29400D02*
D03*
Y29000D02*
D03*
Y28600D02*
D03*
Y28200D02*
D03*
Y27800D02*
D03*
Y27400D02*
D03*
Y27000D02*
D03*
Y26600D02*
D03*
Y26200D02*
D03*
Y25800D02*
D03*
Y25400D02*
D03*
X19350D02*
D03*
Y25800D02*
D03*
Y26200D02*
D03*
Y26600D02*
D03*
Y27000D02*
D03*
Y27400D02*
D03*
Y27800D02*
D03*
Y28200D02*
D03*
Y28600D02*
D03*
Y29000D02*
D03*
Y29400D02*
D03*
Y29800D02*
D03*
Y30200D02*
D03*
Y30600D02*
D03*
D14*
X25400Y24550D02*
D03*
X25000D02*
D03*
X24600D02*
D03*
X24200D02*
D03*
X23800D02*
D03*
X23400D02*
D03*
X23000D02*
D03*
X22600D02*
D03*
X22200D02*
D03*
X21800D02*
D03*
X21400D02*
D03*
X21000D02*
D03*
X20600D02*
D03*
X20200D02*
D03*
Y31450D02*
D03*
X20600D02*
D03*
X21000D02*
D03*
X21400D02*
D03*
X21800D02*
D03*
X22200D02*
D03*
X22600D02*
D03*
X23000D02*
D03*
X23400D02*
D03*
X23800D02*
D03*
X24200D02*
D03*
X24600D02*
D03*
X25000D02*
D03*
X25400D02*
D03*
D15*
X7365Y22875D02*
D03*
Y22375D02*
D03*
Y21875D02*
D03*
Y21375D02*
D03*
Y20875D02*
D03*
Y20375D02*
D03*
Y19875D02*
D03*
Y19375D02*
D03*
Y18875D02*
D03*
Y18375D02*
D03*
Y17875D02*
D03*
Y17375D02*
D03*
D16*
X8965Y17125D02*
D03*
Y17625D02*
D03*
Y18125D02*
D03*
Y18625D02*
D03*
Y19125D02*
D03*
Y19625D02*
D03*
Y20125D02*
D03*
Y20625D02*
D03*
Y21125D02*
D03*
Y21625D02*
D03*
Y22125D02*
D03*
Y22625D02*
D03*
D17*
X19292Y18905D02*
D03*
Y17635D02*
D03*
Y16365D02*
D03*
Y15095D02*
D03*
X26392D02*
D03*
Y16365D02*
D03*
Y17635D02*
D03*
Y18905D02*
D03*
D18*
X25000Y39500D02*
D03*
X26350D02*
D03*
X25000Y35500D02*
D03*
X26350D02*
D03*
X33175Y26250D02*
D03*
X31825D02*
D03*
Y30750D02*
D03*
X33175D02*
D03*
D19*
X30250Y27825D02*
D03*
Y29175D02*
D03*
X25000Y38175D02*
D03*
Y36825D02*
D03*
D20*
X33000Y29150D02*
D03*
Y27850D02*
D03*
X32000D02*
D03*
Y29150D02*
D03*
D21*
X45500Y10100D02*
D03*
Y11900D02*
D03*
%TF.MD5,dfbac1be05e2451b8bb0064ac5fd8426*%
M02*
