%TF.GenerationSoftware,Altium Limited,Altium Designer,25.2.1 (25)*%
G04 Layer_Color=16711935*
%FSLAX43Y43*%
%MOMM*%
%TF.SameCoordinates,04BFB8AD-8686-48F5-A47E-F6A4234CF6E9*%
%TF.FilePolarity,Negative*%
%TF.FileFunction,Soldermask,Bot*%
%TF.Part,Single*%
G01*
G75*
%TA.AperFunction,SMDPad,CuDef*%
%ADD45R,0.800X0.850*%
%ADD46R,0.850X0.800*%
%TA.AperFunction,ComponentPad*%
%ADD49C,6.150*%
%ADD50C,1.400*%
%ADD51C,2.900*%
%ADD52C,2.400*%
%ADD53C,1.875*%
%ADD54C,2.550*%
%ADD55R,2.250X2.250*%
%TA.AperFunction,ViaPad*%
%ADD56C,0.850*%
D45*
X12925Y21500D02*
D03*
X11575D02*
D03*
X3175Y21750D02*
D03*
X1825D02*
D03*
X15425Y22500D02*
D03*
X14075D02*
D03*
Y25500D02*
D03*
X15425D02*
D03*
X14075Y24000D02*
D03*
X15425D02*
D03*
X30075Y27500D02*
D03*
X31425D02*
D03*
X30075Y29000D02*
D03*
X31425D02*
D03*
X30075Y24500D02*
D03*
X31425D02*
D03*
X15425Y28500D02*
D03*
X14075D02*
D03*
X31425Y30500D02*
D03*
X30075D02*
D03*
X14075Y27000D02*
D03*
X15425D02*
D03*
X30075Y32000D02*
D03*
X31425D02*
D03*
X30075Y26000D02*
D03*
X31425D02*
D03*
D46*
X36540Y3175D02*
D03*
Y1825D02*
D03*
X34000Y3175D02*
D03*
Y1825D02*
D03*
X18000Y20675D02*
D03*
Y19325D02*
D03*
X19500Y20675D02*
D03*
Y19325D02*
D03*
X29250Y18925D02*
D03*
Y17575D02*
D03*
X21000Y36675D02*
D03*
Y35325D02*
D03*
X22500D02*
D03*
Y36675D02*
D03*
X16500Y35325D02*
D03*
Y36675D02*
D03*
X19500Y35325D02*
D03*
Y36675D02*
D03*
X18000Y35325D02*
D03*
Y36675D02*
D03*
D49*
X45500Y45500D02*
D03*
Y4500D02*
D03*
X4500D02*
D03*
Y45500D02*
D03*
D50*
X6265Y23600D02*
D03*
X6330Y16400D02*
D03*
D51*
X3215Y15680D02*
D03*
Y24320D02*
D03*
D52*
X8265Y15680D02*
D03*
Y24320D02*
D03*
D53*
X31460Y5500D02*
D03*
X34000D02*
D03*
X36540D02*
D03*
X11920D02*
D03*
X14460D02*
D03*
X17000D02*
D03*
X19540D02*
D03*
D54*
X22425Y48075D02*
D03*
X27575D02*
D03*
Y42925D02*
D03*
X22425D02*
D03*
D55*
X25000Y45500D02*
D03*
D56*
X34500Y30750D02*
D03*
X22800Y26750D02*
D03*
Y29250D02*
D03*
X30000Y33500D02*
D03*
X22500Y38000D02*
D03*
X27675Y35500D02*
D03*
Y39500D02*
D03*
X15175Y36675D02*
D03*
Y35325D02*
D03*
X22500Y34000D02*
D03*
X31000Y17500D02*
D03*
X31500Y33500D02*
D03*
X32750Y24500D02*
D03*
X16750Y15000D02*
D03*
Y19250D02*
D03*
X12750Y22750D02*
D03*
Y28500D02*
D03*
X45500Y13250D02*
D03*
X27500Y30000D02*
D03*
X10500Y21500D02*
D03*
X4250Y21750D02*
D03*
X10500Y22500D02*
D03*
Y17000D02*
D03*
Y18500D02*
D03*
X6000Y19750D02*
D03*
Y20750D02*
D03*
X10500Y19500D02*
D03*
Y20500D02*
D03*
X16750Y22500D02*
D03*
X12750Y25250D02*
D03*
Y24250D02*
D03*
X16750D02*
D03*
Y25250D02*
D03*
X28000Y19000D02*
D03*
X24750Y17500D02*
D03*
X20750Y19000D02*
D03*
Y17500D02*
D03*
X22500Y21250D02*
D03*
X20500Y22000D02*
D03*
X25250Y21250D02*
D03*
X19500Y22000D02*
D03*
X16750Y27000D02*
D03*
Y28500D02*
D03*
X22800Y28000D02*
D03*
X27750Y27500D02*
D03*
X28750Y30500D02*
D03*
Y24500D02*
D03*
%TF.MD5,b3c15f8305de62865858e3b1aaa98619*%
M02*
