M48
;Layer_Color=9474304
;FILE_FORMAT=4:3
METRIC,LZ
;TYPE=PLATED
T01F00S00C0.300
T02F00S00C0.750
T03F00S00C1.150
T04F00S00C1.400
T05F00S00C1.500
T06F00S00C1.600
T07F00S00C1.750
T08F00S00C3.500
%
T01
X00455Y001325
X0031Y00175
X0028Y0019
X002475Y00175
X002075
Y0019
X00205Y0022
X00195
X001675Y00225
Y002425
Y002525
Y0027
Y00285
X00228Y0028
Y002675
Y002925
X00225Y0034
Y0038
X0027675Y00395
Y00355
X003Y00335
X00315
X00345Y003075
X002875Y00305
X00275Y003
X002775Y00275
X002875Y00245
X003275
X002525Y002125
X00225
X001675Y001925
Y0015
X0015175Y0035325
Y0036675
X001275Y00285
X001275Y002525
Y002425
X001275Y002275
X00105Y00225
Y00215
Y00205
Y00195
Y00185
Y0017
X0006Y001975
Y002075
X000425Y002175
T02
X000633Y00164
X0006265Y00236
T03
X001192Y00055
X001446
X0017
X001954
X003146
X0034
X003654
T04
X0025Y00455
T05
X0008265Y001568
Y002432
T06
X0022425Y0042925
Y0048075
X0027575
Y0042925
T07
X0003215Y001568
Y002432
T08
X00045Y00045
X00455
Y00455
X00045
M30
