%TF.GenerationSoftware,Altium Limited,Altium Designer,24.9.1 (31)*%
G04 Layer_Color=16711935*
%FSLAX43Y43*%
%MOMM*%
%TF.SameCoordinates,04BDF6C9-F0B3-4FCF-A2E1-49DD01746DB9*%
%TF.FilePolarity,Positive*%
%TF.FileFunction,Other,Mechanical_13*%
%TF.Part,Single*%
G01*
G75*
%TA.AperFunction,NonConductor*%
%ADD54C,0.200*%
%ADD55C,0.127*%
%ADD56C,0.100*%
%ADD61C,0.152*%
%ADD96C,0.000*%
%ADD97C,0.025*%
%ADD98C,0.050*%
G36*
X12700Y66925D02*
X12726Y66926D01*
X12752Y66928D01*
X12778Y66931D01*
X12804Y66936D01*
X12829Y66942D01*
X12855Y66949D01*
X12879Y66958D01*
X12903Y66968D01*
X12927Y66979D01*
X12950Y66992D01*
X12972Y67006D01*
X12994Y67020D01*
X13015Y67036D01*
X13035Y67053D01*
X13054Y67071D01*
X13072Y67090D01*
X13089Y67110D01*
X13105Y67131D01*
X13119Y67153D01*
X13133Y67175D01*
X13146Y67198D01*
X13157Y67222D01*
X13167Y67246D01*
X13176Y67270D01*
X13183Y67296D01*
X13189Y67321D01*
X13194Y67347D01*
X13197Y67373D01*
X13199Y67399D01*
X13200Y67425D01*
X13199Y67451D01*
X13197Y67477D01*
X13194Y67503D01*
X13189Y67529D01*
X13183Y67554D01*
X13176Y67580D01*
X13167Y67604D01*
X13157Y67628D01*
X13146Y67652D01*
X13133Y67675D01*
X13119Y67697D01*
X13105Y67719D01*
X13089Y67740D01*
X13072Y67760D01*
X13054Y67779D01*
X13035Y67797D01*
X13015Y67814D01*
X12994Y67830D01*
X12972Y67844D01*
X12950Y67858D01*
X12927Y67871D01*
X12903Y67882D01*
X12879Y67892D01*
X12855Y67901D01*
X12829Y67908D01*
X12804Y67914D01*
X12778Y67919D01*
X12752Y67922D01*
X12726Y67924D01*
X12700Y67925D01*
Y69025D01*
X13700D01*
Y65825D01*
X12700D01*
Y66925D01*
D02*
G37*
G36*
X16400Y69025D02*
X17300D01*
Y67925D01*
X17274Y67924D01*
X17248Y67922D01*
X17222Y67919D01*
X17196Y67914D01*
X17171Y67908D01*
X17145Y67901D01*
X17121Y67892D01*
X17097Y67882D01*
X17073Y67871D01*
X17050Y67858D01*
X17028Y67844D01*
X17006Y67830D01*
X16985Y67814D01*
X16965Y67797D01*
X16946Y67779D01*
X16928Y67760D01*
X16911Y67740D01*
X16895Y67719D01*
X16881Y67697D01*
X16867Y67675D01*
X16854Y67652D01*
X16843Y67628D01*
X16833Y67604D01*
X16824Y67580D01*
X16817Y67554D01*
X16811Y67529D01*
X16806Y67503D01*
X16803Y67477D01*
X16801Y67451D01*
X16800Y67425D01*
X16801Y67399D01*
X16803Y67373D01*
X16806Y67347D01*
X16811Y67321D01*
X16817Y67296D01*
X16824Y67270D01*
X16833Y67246D01*
X16843Y67222D01*
X16854Y67198D01*
X16867Y67175D01*
X16881Y67153D01*
X16895Y67131D01*
X16911Y67110D01*
X16928Y67090D01*
X16946Y67071D01*
X16965Y67053D01*
X16985Y67036D01*
X17006Y67020D01*
X17028Y67006D01*
X17050Y66992D01*
X17073Y66979D01*
X17097Y66968D01*
X17121Y66958D01*
X17145Y66949D01*
X17171Y66942D01*
X17196Y66936D01*
X17222Y66931D01*
X17248Y66928D01*
X17274Y66926D01*
X17300Y66925D01*
Y65825D01*
X16400D01*
Y69025D01*
D02*
G37*
D54*
X28700Y63450D02*
G03*
X28700Y63450I-100J0D01*
G01*
X33310Y30336D02*
G03*
X33310Y30336I-100J0D01*
G01*
X68865Y40300D02*
G03*
X68865Y40300I-100J0D01*
G01*
X36875Y10880D02*
G03*
X36875Y10880I-100J0D01*
G01*
X39720Y59950D02*
G03*
X39720Y59950I-100J0D01*
G01*
X58390Y27025D02*
G03*
X58390Y27025I-100J0D01*
G01*
X25040Y31575D02*
G03*
X25040Y31575I-100J0D01*
G01*
X32105Y59950D02*
G03*
X32105Y59950I-100J0D01*
G01*
D55*
X17300Y67925D02*
G03*
X17300Y66925I0J-500D01*
G01*
X12700D02*
G03*
X12700Y67925I0J500D01*
G01*
X6600Y55097D02*
Y60002D01*
X2700Y55097D02*
Y60002D01*
Y55097D02*
X6600D01*
X2700Y60002D02*
X6600D01*
X16150Y65825D02*
X17300D01*
X12700D02*
X13950D01*
X12700D02*
Y66925D01*
Y67925D02*
Y69025D01*
X13950D01*
X16150D02*
X17300D01*
Y67925D02*
Y69025D01*
Y65825D02*
Y66925D01*
X34170Y24036D02*
X41170D01*
X34170Y31036D02*
X41170D01*
Y24036D02*
Y31036D01*
X34170Y24036D02*
Y31036D01*
X13391Y49825D02*
X19891D01*
X13391D02*
Y53325D01*
X19891D01*
Y49825D02*
Y53325D01*
X64175Y40200D02*
Y43150D01*
X66975Y40200D02*
Y43150D01*
X64175D02*
X66975D01*
X64175Y40200D02*
X66975D01*
X36325Y11775D02*
Y14275D01*
X39525D01*
Y11775D02*
Y14275D01*
X36325Y11775D02*
X39525D01*
X36605Y59520D02*
X38205D01*
X36605D02*
Y60380D01*
X38205D01*
Y59520D02*
Y60380D01*
X51900Y27350D02*
X56300D01*
X51900Y20850D02*
X56300D01*
Y27350D01*
X51900Y20850D02*
Y27350D01*
X18550Y25400D02*
Y31900D01*
X22950Y25400D02*
Y31900D01*
X18550Y25400D02*
X22950D01*
X18550Y31900D02*
X22950D01*
X33420Y60380D02*
X35020D01*
Y59520D02*
Y60380D01*
X33420Y59520D02*
X35020D01*
X33420D02*
Y60380D01*
D56*
X29300Y62350D02*
X41400D01*
X29300D02*
Y78550D01*
X41400D01*
Y62350D02*
Y78550D01*
X3190Y41570D02*
X3450Y42170D01*
X3960D02*
X4220Y41570D01*
X8030Y52930D02*
X8290Y52330D01*
X8800D02*
X9060Y52930D01*
X3190Y41570D02*
X4220D01*
X8030Y52930D02*
X9060D01*
X2850Y42170D02*
X3450D01*
X3960D02*
X10950D01*
X2850Y52330D02*
X8290D01*
X8800D02*
X10950D01*
Y42170D02*
Y52330D01*
X2850Y42170D02*
Y52330D01*
X53650Y28500D02*
Y30250D01*
X52700Y28500D02*
Y30250D01*
Y28500D02*
X53650D01*
X52700Y30250D02*
X53650D01*
X63225Y12150D02*
X64975D01*
X63225Y11200D02*
X64975D01*
Y12150D01*
X63225Y11200D02*
Y12150D01*
X21500Y35600D02*
X22450D01*
X21500Y33850D02*
X22450D01*
X21500D02*
Y35600D01*
X22450Y33850D02*
Y35600D01*
X19200Y33850D02*
X20150D01*
X19200Y35600D02*
X20150D01*
Y33850D02*
Y35600D01*
X19200Y33850D02*
Y35600D01*
X59750Y11125D02*
Y12075D01*
X61500Y11125D02*
Y12075D01*
X59750Y11125D02*
X61500D01*
X59750Y12075D02*
X61500D01*
X54475Y30300D02*
X55425D01*
X54475Y28550D02*
X55425D01*
X54475D02*
Y30300D01*
X55425Y28550D02*
Y30300D01*
X63200Y35775D02*
Y36725D01*
X64950Y35775D02*
Y36725D01*
X63200Y35775D02*
X64950D01*
X63200Y36725D02*
X64950D01*
X63225Y17975D02*
Y18925D01*
X64975Y17975D02*
Y18925D01*
X63225Y17975D02*
X64975D01*
X63225Y18925D02*
X64975D01*
X59850Y29000D02*
Y29950D01*
X61600Y29000D02*
Y29950D01*
X59850Y29000D02*
X61600D01*
X59850Y29950D02*
X61600D01*
X63100Y29000D02*
Y29950D01*
X64850Y29000D02*
Y29950D01*
X63100Y29000D02*
X64850D01*
X63100Y29950D02*
X64850D01*
X70200Y11164D02*
X71950D01*
X70200Y12114D02*
X71950D01*
X70200Y11164D02*
Y12114D01*
X71950Y11164D02*
Y12114D01*
X70200Y31600D02*
X71950D01*
X70200Y32550D02*
X71950D01*
X70200Y31600D02*
Y32550D01*
X71950Y31600D02*
Y32550D01*
X59900Y36725D02*
X61650D01*
X59900Y35775D02*
X61650D01*
Y36725D01*
X59900Y35775D02*
Y36725D01*
X70125Y18000D02*
X71875D01*
X70125Y18950D02*
X71875D01*
X70125Y18000D02*
Y18950D01*
X71875Y18000D02*
Y18950D01*
X70156Y24764D02*
X71906D01*
X70156Y25714D02*
X71906D01*
X70156Y24764D02*
Y25714D01*
X71906Y24764D02*
Y25714D01*
X59875Y18925D02*
X61625D01*
X59875Y17975D02*
X61625D01*
Y18925D01*
X59875Y17975D02*
Y18925D01*
X5125Y46400D02*
Y48150D01*
X4175Y46400D02*
Y48150D01*
Y46400D02*
X5125D01*
X4175Y48150D02*
X5125D01*
X2900Y34800D02*
Y36550D01*
X1950Y34800D02*
Y36550D01*
Y34800D02*
X2900D01*
X1950Y36550D02*
X2900D01*
X10725Y34775D02*
Y36525D01*
X9775Y34775D02*
Y36525D01*
Y34775D02*
X10725D01*
X9775Y36525D02*
X10725D01*
X10900Y22400D02*
Y24150D01*
X9950Y22400D02*
Y24150D01*
Y22400D02*
X10900D01*
X9950Y24150D02*
X10900D01*
X2950Y22425D02*
Y24175D01*
X2000Y22425D02*
Y24175D01*
Y22425D02*
X2950D01*
X2000Y24175D02*
X2950D01*
X46500Y25600D02*
Y26550D01*
X48250Y25600D02*
Y26550D01*
X46500D02*
X48250D01*
X46500Y25600D02*
X48250D01*
X49525Y4625D02*
X50475D01*
X49525Y6375D02*
X50475D01*
X49525Y4625D02*
Y6375D01*
X50475Y4625D02*
Y6375D01*
X29100Y31675D02*
Y32625D01*
X27350Y31675D02*
Y32625D01*
Y31675D02*
X29100D01*
X27350Y32625D02*
X29100D01*
X38800Y33200D02*
Y34150D01*
X40550Y33200D02*
Y34150D01*
X38800D02*
X40550D01*
X38800Y33200D02*
X40550D01*
X32850Y36800D02*
X33800D01*
X32850Y38550D02*
X33800D01*
X32850Y36800D02*
Y38550D01*
X33800Y36800D02*
Y38550D01*
X38800Y34900D02*
Y35850D01*
X40550Y34900D02*
Y35850D01*
X38800D02*
X40550D01*
X38800Y34900D02*
X40550D01*
X31150Y36825D02*
X32100D01*
X31150Y38575D02*
X32100D01*
X31150Y36825D02*
Y38575D01*
X32100Y36825D02*
Y38575D01*
X33750Y47150D02*
X34700D01*
X33750Y48900D02*
X34700D01*
X33750Y47150D02*
Y48900D01*
X34700Y47150D02*
Y48900D01*
X38975Y15975D02*
X40725D01*
X38975Y16925D02*
X40725D01*
Y15975D02*
Y16925D01*
X38975Y15975D02*
Y16925D01*
X44800Y19475D02*
Y20425D01*
X46550Y19475D02*
Y20425D01*
X44800D02*
X46550D01*
X44800Y19475D02*
X46550D01*
X38550Y20550D02*
X39500D01*
X38550Y18800D02*
X39500D01*
Y20550D01*
X38550Y18800D02*
Y20550D01*
X46525Y27450D02*
Y28400D01*
X48275Y27450D02*
Y28400D01*
X46525D02*
X48275D01*
X46525Y27450D02*
X48275D01*
X29700Y24325D02*
Y25275D01*
X27950Y24325D02*
Y25275D01*
Y24325D02*
X29700D01*
X27950Y25275D02*
X29700D01*
X36825Y15975D02*
Y16925D01*
X35075Y15975D02*
Y16925D01*
Y15975D02*
X36825D01*
X35075Y16925D02*
X36825D01*
X26275Y28850D02*
X28025D01*
X26275Y27900D02*
X28025D01*
X26275D02*
Y28850D01*
X28025Y27900D02*
Y28850D01*
X46525Y33550D02*
X48275D01*
X46525Y34500D02*
X48275D01*
Y33550D02*
Y34500D01*
X46525Y33550D02*
Y34500D01*
X42425Y32500D02*
Y34250D01*
X43375Y32500D02*
Y34250D01*
X42425Y32500D02*
X43375D01*
X42425Y34250D02*
X43375D01*
X42425Y36025D02*
Y37775D01*
X43375Y36025D02*
Y37775D01*
X42425Y36025D02*
X43375D01*
X42425Y37775D02*
X43375D01*
X46525Y31850D02*
X48275D01*
X46525Y32800D02*
X48275D01*
Y31850D02*
Y32800D01*
X46525Y31850D02*
Y32800D01*
X34875Y20575D02*
X35825D01*
X34875Y18825D02*
X35825D01*
Y20575D01*
X34875Y18825D02*
Y20575D01*
X37800Y18800D02*
Y20550D01*
X36850Y18800D02*
Y20550D01*
X37800D01*
X36850Y18800D02*
X37800D01*
X24650Y49875D02*
X26400D01*
X24650Y50825D02*
X26400D01*
Y49875D02*
Y50825D01*
X24650Y49875D02*
Y50825D01*
X34525Y36825D02*
Y38575D01*
X35475Y36825D02*
Y38575D01*
X34525Y36825D02*
X35475D01*
X34525Y38575D02*
X35475D01*
X9875Y65925D02*
X10825D01*
X9875Y67675D02*
X10825D01*
X9875Y65925D02*
Y67675D01*
X10825Y65925D02*
Y67675D01*
X3775Y62500D02*
X5525D01*
X3775Y61550D02*
X5525D01*
X3775D02*
Y62500D01*
X5525Y61550D02*
Y62500D01*
X71900Y47250D02*
X72850D01*
X71900Y45500D02*
X72850D01*
Y47250D01*
X71900Y45500D02*
Y47250D01*
X68300D02*
X69250D01*
X68300Y45500D02*
X69250D01*
Y47250D01*
X68300Y45500D02*
Y47250D01*
X70100Y47250D02*
X71050D01*
X70100Y45500D02*
X71050D01*
Y47250D01*
X70100Y45500D02*
Y47250D01*
X70000Y41450D02*
X70950D01*
X70000Y39700D02*
X70950D01*
Y41450D01*
X70000Y39700D02*
Y41450D01*
X61600Y47250D02*
X62550D01*
X61600Y45500D02*
X62550D01*
Y47250D01*
X61600Y45500D02*
Y47250D01*
X58000D02*
X58950D01*
X58000Y45500D02*
X58950D01*
Y47250D01*
X58000Y45500D02*
Y47250D01*
X59800D02*
X60750D01*
X59800Y45500D02*
X60750D01*
Y47250D01*
X59800Y45500D02*
Y47250D01*
X58000Y42350D02*
X58950D01*
X58000Y40600D02*
X58950D01*
Y42350D01*
X58000Y40600D02*
Y42350D01*
X60650Y40600D02*
Y42350D01*
X59700Y40600D02*
Y42350D01*
X60650D01*
X59700Y40600D02*
X60650D01*
X36150Y36825D02*
Y38575D01*
X37100Y36825D02*
Y38575D01*
X36150Y36825D02*
X37100D01*
X36150Y38575D02*
X37100D01*
D61*
X57752Y11130D02*
X74059D01*
Y16616D01*
X57752D02*
X74059D01*
X57752Y11130D02*
Y16616D01*
X22880Y2381D02*
Y7359D01*
X48280D01*
Y2381D02*
Y7359D01*
X22880Y2381D02*
X48280D01*
X57752Y17921D02*
Y23407D01*
X74059D01*
Y17921D02*
Y23407D01*
X57752Y17921D02*
X74059D01*
X57785Y24730D02*
Y30216D01*
X74092D01*
Y24730D02*
Y30216D01*
X57785Y24730D02*
X74092D01*
X57785Y31521D02*
Y37007D01*
X74092D01*
Y31521D02*
Y37007D01*
X57785Y31521D02*
X74092D01*
D96*
X27945Y48042D02*
G03*
X28555Y48042I305J0D01*
G01*
X65048Y47749D02*
G03*
X65658Y47749I305J0D01*
G01*
X24404Y6978D02*
G03*
X23896Y6978I-254J0D01*
G01*
D02*
G03*
X24404Y6978I254J0D01*
G01*
D97*
X5801Y65145D02*
X7198D01*
X5801D02*
Y68143D01*
X7198D01*
Y65145D02*
Y68143D01*
X5255Y66403D02*
X5801D01*
X5255D02*
Y66885D01*
X5801D01*
Y66403D02*
Y66885D01*
X7198Y67835D02*
X7744D01*
Y67353D02*
Y67835D01*
X7198Y67353D02*
X7744D01*
X7198D02*
Y67835D01*
Y65935D02*
X7744D01*
Y65453D02*
Y65935D01*
X7198Y65453D02*
X7744D01*
X7198D02*
Y65935D01*
X18482Y41752D02*
Y46248D01*
X13986Y41752D02*
X18482D01*
X13986D02*
Y46248D01*
X18482D01*
X17358D02*
X18482Y45124D01*
X17358Y41752D02*
X18482Y42876D01*
X25558Y42658D02*
Y48042D01*
X30942D01*
Y42658D02*
Y48042D01*
X25558Y42658D02*
X30942D01*
Y47496D02*
X32301D01*
Y47014D02*
Y47496D01*
X30942Y47014D02*
X32301D01*
X30942D02*
Y47496D01*
Y46226D02*
X32301D01*
Y45744D02*
Y46226D01*
X30942Y45744D02*
X32301D01*
X30942D02*
Y46226D01*
Y44956D02*
X32301D01*
Y44474D02*
Y44956D01*
X30942Y44474D02*
X32301D01*
X30942D02*
Y44956D01*
Y43686D02*
X32301D01*
Y43204D02*
Y43686D01*
X30942Y43204D02*
X32301D01*
X30942D02*
Y43686D01*
X24199Y43204D02*
X25558D01*
X24199D02*
Y43686D01*
X25558D01*
Y43204D02*
Y43686D01*
X24199Y44474D02*
X25558D01*
X24199D02*
Y44956D01*
X25558D01*
Y44474D02*
Y44956D01*
X24199Y45744D02*
X25558D01*
X24199D02*
Y46226D01*
X25558D01*
Y45744D02*
Y46226D01*
X24199Y47014D02*
X25558D01*
X24199D02*
Y47496D01*
X25558D01*
Y47014D02*
Y47496D01*
X64477Y46921D02*
Y47429D01*
X63829D02*
X64477D01*
X63829Y46921D02*
Y47429D01*
Y46921D02*
X64477D01*
Y45971D02*
Y46479D01*
X63829D02*
X64477D01*
X63829Y45971D02*
Y46479D01*
Y45971D02*
X64477D01*
Y45021D02*
Y45529D01*
X63829D02*
X64477D01*
X63829Y45021D02*
Y45529D01*
Y45021D02*
X64477D01*
X66229D02*
Y45529D01*
Y45021D02*
X66877D01*
Y45529D01*
X66229D02*
X66877D01*
X66229Y46921D02*
Y47429D01*
Y46921D02*
X66877D01*
Y47429D01*
X66229D02*
X66877D01*
X64477Y44701D02*
X66229D01*
Y47749D01*
X64477D02*
X66229D01*
X64477Y44701D02*
Y47749D01*
X13986Y60774D02*
X15110Y61898D01*
X13986Y58526D02*
X15110Y57402D01*
X13986D02*
X18482D01*
Y61898D01*
X13986D02*
X18482D01*
X13986Y57402D02*
Y61898D01*
D98*
X14975Y24425D02*
X15325D01*
X14975Y17725D02*
X15325D01*
X14425Y23225D02*
X14975D01*
Y24425D01*
X14425Y18925D02*
X14975D01*
Y17725D02*
Y18925D01*
X14425D02*
Y23225D01*
X15325Y15925D02*
Y17725D01*
Y24425D02*
Y26225D01*
X9825D02*
X15325D01*
X9825Y15925D02*
Y26225D01*
Y15925D02*
X15325D01*
X6775Y36825D02*
X7125D01*
X6775Y30125D02*
X7125D01*
X6225Y35625D02*
X6775D01*
Y36825D01*
X6225Y31325D02*
X6775D01*
Y30125D02*
Y31325D01*
X6225D02*
Y35625D01*
X7125Y28325D02*
Y30125D01*
Y36825D02*
Y38625D01*
X1625D02*
X7125D01*
X1625Y28325D02*
Y38625D01*
Y28325D02*
X7125D01*
X6775Y24425D02*
X7125D01*
X6775Y17725D02*
X7125D01*
X6225Y23225D02*
X6775D01*
Y24425D01*
X6225Y18925D02*
X6775D01*
Y17725D02*
Y18925D01*
X6225D02*
Y23225D01*
X7125Y15925D02*
Y17725D01*
Y24425D02*
Y26225D01*
X1625D02*
X7125D01*
X1625Y15925D02*
Y26225D01*
Y15925D02*
X7125D01*
X9825Y28325D02*
X15325D01*
X9825D02*
Y38625D01*
X15325D01*
Y36825D02*
Y38625D01*
Y28325D02*
Y30125D01*
X14425Y31325D02*
Y35625D01*
X14975Y30125D02*
Y31325D01*
X14425D02*
X14975D01*
Y35625D02*
Y36825D01*
X14425Y35625D02*
X14975D01*
Y30125D02*
X15325D01*
X14975Y36825D02*
X15325D01*
%TF.MD5,36d11425a5e02099a090200034231dfb*%
M02*
