M48
;Layer_Color=9474304
;FILE_FORMAT=4:3
METRIC,LZ
;TYPE=PLATED
T01F00S00C0.250
T02F00S00C0.787
T03F00S00C0.800
T04F00S00C0.900
T05F00S00C1.000
T06F00S00C1.194
T07F00S00C1.300
T08F00S00C2.300
T09F00S00C2.540
%
T01
X003535Y00139
X0034025Y001645
Y0018475
X0035325Y0022225
X0037975Y0021725
Y0025375
X0037661Y0026175
Y0027489
X00363
Y0026175
X0039025
Y0027489
X0039825Y00279
X0039025Y00289
X0037636
X003785Y0029725
X00363Y00289
X00355Y0028325
X004195Y00316
X004515Y0027925
X0049631Y0027887
X0049625Y00261
X0047825Y0019925
X0043Y0022875
X0040225Y001885
X0041775Y0016425
X00404Y001215
X0049983Y0003327
X0026798Y0024802
X0025125Y00284
X0029331Y0028326
X0029325Y0029275
X002985Y002985
X002615Y0032175
X0026175Y00434
X001182Y0043989
X001125Y00618
X001035Y006445
X002035Y005965
X0018425Y0056525
X002805Y0057725
X0025825Y0069775
X000255Y00556
X003425Y005035
X0033325Y003975
X0031625
X003785Y00352
X003785Y003455
X004145Y0035
Y0034025
X0049625Y0034
X004954Y0032385
X00593Y00422
X0060077Y0044123
X00668Y00441
X0067Y00413
X00654Y00396
T02
X0057936Y0013595
X0059917
X0061924
X006393
X0065937
X0067918
X0069925
Y0020386
X0067918
X0065937
X006393
X0061924
X0059917
X0057936
X0057969Y0027195
X005995
X0061957
X0063963
X006597
X0067951
X0069958
X0069958Y0033986
X0067951
X006597
X0063963
X0061957
X005995
X0057969
T03
X0012975Y00064
Y00084
Y00104
X00146Y0018225
Y0020225
Y0022225
Y0024225
Y0030625
X00064
Y0024225
Y0022225
Y0020225
Y0018225
Y0032625
Y0034625
Y0036625
X00146
Y0034625
Y0032625
T04
X00341Y006345
Y006545
X00366
Y006345
T05
X0045525Y00099
X0050025
Y00164
X0045525
X0024875Y0053225
Y0057725
X0031375
Y0053225
T06
X003177Y00036
X003431
X003685
X003939
X004193
X004447
X004701
Y000614
X004447
X004193
X003939
X003685
X003431
X003177
X002923
Y00036
X002669
Y000614
X002415
Y00036
T07
X00069Y004471
Y004979
T08
X002933Y006815
X004137
T09
X00695Y0
X0
X00695Y00755
X0
M30
