%TF.GenerationSoftware,Altium Limited,Altium Designer,25.2.1 (25)*%
G04 Layer_Color=255*
%FSLAX43Y43*%
%MOMM*%
%TF.SameCoordinates,5E82134D-FD09-4B07-97D7-8D5D892D8837*%
%TF.FilePolarity,Positive*%
%TF.FileFunction,Pads,Top*%
%TF.Part,Single*%
G01*
G75*
%TA.AperFunction,SMDPad,CuDef*%
%ADD10R,2.184X1.143*%
%ADD11R,1.000X0.950*%
%ADD12R,1.000X1.050*%
%ADD13R,0.950X1.000*%
G04:AMPARAMS|DCode=14|XSize=0.2mm|YSize=0.81mm|CornerRadius=0.025mm|HoleSize=0mm|Usage=FLASHONLY|Rotation=0.000|XOffset=0mm|YOffset=0mm|HoleType=Round|Shape=RoundedRectangle|*
%AMROUNDEDRECTD14*
21,1,0.200,0.760,0,0,0.0*
21,1,0.150,0.810,0,0,0.0*
1,1,0.050,0.075,-0.380*
1,1,0.050,-0.075,-0.380*
1,1,0.050,-0.075,0.380*
1,1,0.050,0.075,0.380*
%
%ADD14ROUNDEDRECTD14*%
G04:AMPARAMS|DCode=15|XSize=0.81mm|YSize=0.2mm|CornerRadius=0.025mm|HoleSize=0mm|Usage=FLASHONLY|Rotation=0.000|XOffset=0mm|YOffset=0mm|HoleType=Round|Shape=RoundedRectangle|*
%AMROUNDEDRECTD15*
21,1,0.810,0.150,0,0,0.0*
21,1,0.760,0.200,0,0,0.0*
1,1,0.050,0.380,-0.075*
1,1,0.050,-0.380,-0.075*
1,1,0.050,-0.380,0.075*
1,1,0.050,0.380,0.075*
%
%ADD15ROUNDEDRECTD15*%
%ADD16R,3.400X3.400*%
%ADD17R,1.300X1.050*%
%ADD18R,1.000X1.600*%
%ADD19R,1.524X0.533*%
%ADD20R,1.500X2.000*%
%ADD21R,3.800X2.000*%
G04:AMPARAMS|DCode=22|XSize=1.97mm|YSize=0.6mm|CornerRadius=0.075mm|HoleSize=0mm|Usage=FLASHONLY|Rotation=0.000|XOffset=0mm|YOffset=0mm|HoleType=Round|Shape=RoundedRectangle|*
%AMROUNDEDRECTD22*
21,1,1.970,0.450,0,0,0.0*
21,1,1.820,0.600,0,0,0.0*
1,1,0.150,0.910,-0.225*
1,1,0.150,-0.910,-0.225*
1,1,0.150,-0.910,0.225*
1,1,0.150,0.910,0.225*
%
%ADD22ROUNDEDRECTD22*%
%ADD23R,1.050X1.000*%
G04:AMPARAMS|DCode=24|XSize=1.016mm|YSize=1.397mm|CornerRadius=0.127mm|HoleSize=0mm|Usage=FLASHONLY|Rotation=270.000|XOffset=0mm|YOffset=0mm|HoleType=Round|Shape=RoundedRectangle|*
%AMROUNDEDRECTD24*
21,1,1.016,1.143,0,0,270.0*
21,1,0.762,1.397,0,0,270.0*
1,1,0.254,-0.572,-0.381*
1,1,0.254,-0.572,0.381*
1,1,0.254,0.572,0.381*
1,1,0.254,0.572,-0.381*
%
%ADD24ROUNDEDRECTD24*%
%ADD25R,1.000X1.400*%
G04:AMPARAMS|DCode=26|XSize=0.87mm|YSize=1.02mm|CornerRadius=0.109mm|HoleSize=0mm|Usage=FLASHONLY|Rotation=0.000|XOffset=0mm|YOffset=0mm|HoleType=Round|Shape=RoundedRectangle|*
%AMROUNDEDRECTD26*
21,1,0.870,0.803,0,0,0.0*
21,1,0.653,1.020,0,0,0.0*
1,1,0.217,0.326,-0.401*
1,1,0.217,-0.326,-0.401*
1,1,0.217,-0.326,0.401*
1,1,0.217,0.326,0.401*
%
%ADD26ROUNDEDRECTD26*%
%ADD27R,1.500X3.200*%
%ADD28R,1.003X0.508*%
G04:AMPARAMS|DCode=29|XSize=1.42mm|YSize=0.4mm|CornerRadius=0.05mm|HoleSize=0mm|Usage=FLASHONLY|Rotation=180.000|XOffset=0mm|YOffset=0mm|HoleType=Round|Shape=RoundedRectangle|*
%AMROUNDEDRECTD29*
21,1,1.420,0.300,0,0,180.0*
21,1,1.320,0.400,0,0,180.0*
1,1,0.100,-0.660,0.150*
1,1,0.100,0.660,0.150*
1,1,0.100,0.660,-0.150*
1,1,0.100,-0.660,-0.150*
%
%ADD29ROUNDEDRECTD29*%
%TA.AperFunction,ComponentPad*%
%ADD37R,1.900X1.900*%
%ADD38C,3.316*%
%ADD39C,1.408*%
%ADD40R,1.408X1.408*%
%ADD41R,1.143X1.143*%
%ADD42C,1.143*%
%ADD43O,1.905X1.397*%
%ADD44R,1.905X1.397*%
%ADD45C,1.950*%
%ADD46R,1.900X1.900*%
%ADD47C,1.702*%
%ADD48R,1.702X1.702*%
%TA.AperFunction,ViaPad*%
%ADD49C,3.810*%
G36*
G01X30504Y49725D02*
G01Y50925D01*
G01X29996D01*
G01X29996Y50925D01*
G03Y49725I0J-600D01*
G01X30504D01*
D02*
G37*
G36*
G01X30956D02*
G01Y50925D01*
G01X31464D01*
G01X31464Y50925D01*
G02Y49725I0J-600D01*
G01X30956D01*
D02*
G37*
G36*
G01X25225Y72149D02*
G01X26425D01*
G01Y71641D01*
G01X26425Y71641D01*
G02X25225I-600J0D01*
G01Y72149D01*
D02*
G37*
G36*
G01Y72601D02*
G01X26425D01*
G01Y73109D01*
G01X26425Y73109D01*
G03X25225I-600J0D01*
G01Y72601D01*
D02*
G37*
D10*
X14075Y59650D02*
D03*
X18393D02*
D03*
Y44000D02*
D03*
X14075D02*
D03*
D11*
X46575Y26075D02*
D03*
X48175D02*
D03*
X29025Y32150D02*
D03*
X27425D02*
D03*
X38875Y33675D02*
D03*
X40475D02*
D03*
X38875Y35375D02*
D03*
X40475D02*
D03*
X40650Y16450D02*
D03*
X39050D02*
D03*
X44875Y19950D02*
D03*
X46475D02*
D03*
X46600Y27925D02*
D03*
X48200D02*
D03*
X29625Y24800D02*
D03*
X28025D02*
D03*
X36750Y16450D02*
D03*
X35150D02*
D03*
X26350Y28375D02*
D03*
X27950D02*
D03*
X48200Y34025D02*
D03*
X46600D02*
D03*
X48200Y32325D02*
D03*
X46600D02*
D03*
X9850Y61800D02*
D03*
X8250D02*
D03*
D12*
X50000Y4700D02*
D03*
Y6300D02*
D03*
X42900Y36100D02*
D03*
Y37700D02*
D03*
X37325Y20475D02*
D03*
Y18875D02*
D03*
X35000Y36900D02*
D03*
Y38500D02*
D03*
X70400Y47100D02*
D03*
Y45500D02*
D03*
X68600Y47100D02*
D03*
Y45500D02*
D03*
X68500Y41300D02*
D03*
Y39700D02*
D03*
X56500Y47100D02*
D03*
Y45500D02*
D03*
X58300Y47100D02*
D03*
Y45500D02*
D03*
X56500Y42200D02*
D03*
Y40600D02*
D03*
X36625Y36900D02*
D03*
Y38500D02*
D03*
D13*
X33325Y36875D02*
D03*
Y38475D02*
D03*
X31625Y36900D02*
D03*
Y38500D02*
D03*
X34225Y47225D02*
D03*
Y48825D02*
D03*
X39025Y20475D02*
D03*
Y18875D02*
D03*
X42900Y32575D02*
D03*
Y34175D02*
D03*
X35350Y20500D02*
D03*
Y18900D02*
D03*
X10350Y66000D02*
D03*
Y67600D02*
D03*
X66800Y47100D02*
D03*
Y45500D02*
D03*
X60100Y47100D02*
D03*
Y45500D02*
D03*
X58200Y42200D02*
D03*
Y40600D02*
D03*
D14*
X34870Y24086D02*
D03*
X35270D02*
D03*
X35670D02*
D03*
X36070D02*
D03*
X36470D02*
D03*
X36870D02*
D03*
X37270D02*
D03*
X37670D02*
D03*
X38070D02*
D03*
X38470D02*
D03*
X38870D02*
D03*
X39270D02*
D03*
X39670D02*
D03*
X40070D02*
D03*
X40470D02*
D03*
Y30986D02*
D03*
X40070D02*
D03*
X39670D02*
D03*
X39270D02*
D03*
X38870D02*
D03*
X38470D02*
D03*
X38070D02*
D03*
X37670D02*
D03*
X37270D02*
D03*
X36870D02*
D03*
X36470D02*
D03*
X36070D02*
D03*
X35670D02*
D03*
X35270D02*
D03*
X34870D02*
D03*
D15*
X34220Y30336D02*
D03*
Y29936D02*
D03*
Y29536D02*
D03*
Y29136D02*
D03*
Y28736D02*
D03*
Y28336D02*
D03*
Y27936D02*
D03*
Y27536D02*
D03*
Y27136D02*
D03*
Y26736D02*
D03*
Y26336D02*
D03*
Y25936D02*
D03*
Y25536D02*
D03*
Y25136D02*
D03*
Y24736D02*
D03*
X41120D02*
D03*
Y25136D02*
D03*
Y25536D02*
D03*
Y25936D02*
D03*
Y26336D02*
D03*
Y26736D02*
D03*
Y27136D02*
D03*
Y27536D02*
D03*
Y27936D02*
D03*
Y28336D02*
D03*
Y28736D02*
D03*
Y29136D02*
D03*
Y29536D02*
D03*
Y29936D02*
D03*
Y30336D02*
D03*
D16*
X37670Y27536D02*
D03*
D17*
X39075Y12150D02*
D03*
X36775D02*
D03*
Y13900D02*
D03*
X39075D02*
D03*
D18*
X38675Y37400D02*
D03*
X40675D02*
D03*
D19*
X24605Y47255D02*
D03*
Y45985D02*
D03*
Y44715D02*
D03*
Y43445D02*
D03*
X31895D02*
D03*
Y44715D02*
D03*
Y45985D02*
D03*
Y47255D02*
D03*
D20*
X14341Y54725D02*
D03*
X18941D02*
D03*
X16641D02*
D03*
D21*
Y48425D02*
D03*
D22*
X4605Y59430D02*
D03*
Y58160D02*
D03*
Y56890D02*
D03*
Y55620D02*
D03*
X9545D02*
D03*
Y56890D02*
D03*
Y58160D02*
D03*
Y59430D02*
D03*
D23*
X26325Y50350D02*
D03*
X24725D02*
D03*
D24*
X25800Y77539D02*
D03*
Y75761D02*
D03*
D25*
X7275Y67325D02*
D03*
X8225Y65125D02*
D03*
X6325D02*
D03*
D26*
X33440Y59950D02*
D03*
X35000D02*
D03*
X36625D02*
D03*
X38185D02*
D03*
D27*
X12950Y67425D02*
D03*
X17150D02*
D03*
D28*
X64756Y47100D02*
D03*
Y45200D02*
D03*
X62000D02*
D03*
Y46150D02*
D03*
Y47100D02*
D03*
D29*
X65370Y40625D02*
D03*
Y41275D02*
D03*
Y41925D02*
D03*
Y42575D02*
D03*
X61830D02*
D03*
Y41925D02*
D03*
Y41275D02*
D03*
Y40625D02*
D03*
D37*
X31375Y57725D02*
D03*
Y53225D02*
D03*
X24875D02*
D03*
Y57725D02*
D03*
D38*
X29330Y68150D02*
D03*
X41370D02*
D03*
D39*
X34100Y65450D02*
D03*
X36600D02*
D03*
Y63450D02*
D03*
D40*
X34100D02*
D03*
D41*
X69925Y20386D02*
D03*
X69958Y27195D02*
D03*
X69958Y33986D02*
D03*
X69925Y13595D02*
D03*
D42*
X67918Y20386D02*
D03*
X65937D02*
D03*
X63930D02*
D03*
X61924D02*
D03*
X59917D02*
D03*
X57936D02*
D03*
X67951Y27195D02*
D03*
X65970D02*
D03*
X63963D02*
D03*
X61957D02*
D03*
X59950D02*
D03*
X57969D02*
D03*
X67951Y33986D02*
D03*
X65970D02*
D03*
X63963D02*
D03*
X61957D02*
D03*
X59950D02*
D03*
X57969D02*
D03*
X67918Y13595D02*
D03*
X65937D02*
D03*
X63930D02*
D03*
X61924D02*
D03*
X59917D02*
D03*
X57936D02*
D03*
D43*
X6400Y30625D02*
D03*
Y34625D02*
D03*
Y32625D02*
D03*
Y20225D02*
D03*
Y22225D02*
D03*
Y18225D02*
D03*
X12975Y6400D02*
D03*
Y8400D02*
D03*
X14600Y18225D02*
D03*
Y22225D02*
D03*
Y20225D02*
D03*
Y30625D02*
D03*
Y34625D02*
D03*
Y32625D02*
D03*
D44*
X6400Y36625D02*
D03*
Y24225D02*
D03*
X12975Y10400D02*
D03*
X14600Y24225D02*
D03*
Y36625D02*
D03*
D45*
X6900Y49790D02*
D03*
Y44710D02*
D03*
D46*
X50025Y9900D02*
D03*
X45525D02*
D03*
Y16400D02*
D03*
X50025D02*
D03*
D47*
X47010Y3600D02*
D03*
Y6140D02*
D03*
X44470Y3600D02*
D03*
Y6140D02*
D03*
X41930Y3600D02*
D03*
Y6140D02*
D03*
X39390Y3600D02*
D03*
Y6140D02*
D03*
X36850Y3600D02*
D03*
Y6140D02*
D03*
X34310Y3600D02*
D03*
Y6140D02*
D03*
X31770Y3600D02*
D03*
Y6140D02*
D03*
X29230Y3600D02*
D03*
Y6140D02*
D03*
X26690Y3600D02*
D03*
Y6140D02*
D03*
X24150Y3600D02*
D03*
D48*
Y6140D02*
D03*
D49*
X69500Y75500D02*
D03*
X0D02*
D03*
Y0D02*
D03*
X69500D02*
D03*
%TF.MD5,34da6baa1537f44fbacc81f983d6aff6*%
M02*
