%TF.GenerationSoftware,Altium Limited,Altium Designer,25.2.1 (25)*%
G04 Layer_Color=128*
%FSLAX43Y43*%
%MOMM*%
%TF.SameCoordinates,5E82134D-FD09-4B07-97D7-8D5D892D8837*%
%TF.FilePolarity,Positive*%
%TF.FileFunction,Drillmap*%
%TF.Part,Single*%
G01*
G75*
%TA.AperFunction,NonConductor*%
%ADD54C,0.127*%
D54*
X30875Y57725D02*
X31875D01*
X31375Y57225D02*
Y58225D01*
X30875Y53225D02*
X31875D01*
X31375Y52725D02*
Y53725D01*
X24375Y53225D02*
X25375D01*
X24875Y52725D02*
Y53725D01*
X24375Y57725D02*
X25375D01*
X24875Y57225D02*
Y58225D01*
X28180Y68150D02*
X30480D01*
X29330Y67000D02*
Y69300D01*
X40220Y68150D02*
X42520D01*
X41370Y67000D02*
Y69300D01*
X33650Y65450D02*
X34550D01*
X34100Y65000D02*
Y65900D01*
X36150Y65450D02*
X37050D01*
X36600Y65000D02*
Y65900D01*
X36150Y63450D02*
X37050D01*
X36600Y63000D02*
Y63900D01*
X33650Y63450D02*
X34550D01*
X34100Y63000D02*
Y63900D01*
X69531Y20386D02*
X70318D01*
X69925Y19992D02*
Y20780D01*
X67524Y20386D02*
X68312D01*
X67918Y19992D02*
Y20780D01*
X65543Y20386D02*
X66331D01*
X65937Y19992D02*
Y20780D01*
X63537Y20386D02*
X64324D01*
X63930Y19992D02*
Y20780D01*
X61530Y20386D02*
X62318D01*
X61924Y19992D02*
Y20780D01*
X59523Y20386D02*
X60311D01*
X59917Y19992D02*
Y20780D01*
X57542Y20386D02*
X58330D01*
X57936Y19992D02*
Y20780D01*
X69564Y27195D02*
X70351D01*
X69958Y26801D02*
Y27589D01*
X67557Y27195D02*
X68345D01*
X67951Y26801D02*
Y27589D01*
X65576Y27195D02*
X66364D01*
X65970Y26801D02*
Y27589D01*
X63569Y27195D02*
X64357D01*
X63963Y26801D02*
Y27589D01*
X61563Y27195D02*
X62350D01*
X61957Y26801D02*
Y27589D01*
X59556Y27195D02*
X60344D01*
X59950Y26801D02*
Y27589D01*
X57575Y27195D02*
X58362D01*
X57969Y26801D02*
Y27589D01*
X69564Y33986D02*
X70351D01*
X69958Y33592D02*
Y34380D01*
X67557Y33986D02*
X68345D01*
X67951Y33592D02*
Y34380D01*
X65576Y33986D02*
X66363D01*
X65970Y33592D02*
Y34380D01*
X63569Y33986D02*
X64357D01*
X63963Y33592D02*
Y34380D01*
X61563Y33986D02*
X62350D01*
X61957Y33592D02*
Y34380D01*
X59556Y33986D02*
X60344D01*
X59950Y33592D02*
Y34380D01*
X57575Y33986D02*
X58362D01*
X57969Y33592D02*
Y34380D01*
X69531Y13595D02*
X70318D01*
X69925Y13201D02*
Y13989D01*
X67524Y13595D02*
X68312D01*
X67918Y13201D02*
Y13989D01*
X65543Y13595D02*
X66331D01*
X65937Y13201D02*
Y13989D01*
X63537Y13595D02*
X64324D01*
X63930Y13201D02*
Y13989D01*
X61530Y13595D02*
X62318D01*
X61924Y13201D02*
Y13989D01*
X59523Y13595D02*
X60311D01*
X59917Y13201D02*
Y13989D01*
X57542Y13595D02*
X58330D01*
X57936Y13201D02*
Y13989D01*
X6000Y30625D02*
X6800D01*
X6400Y30225D02*
Y31025D01*
X6000Y34625D02*
X6800D01*
X6400Y34225D02*
Y35025D01*
X6000Y36625D02*
X6800D01*
X6400Y36225D02*
Y37025D01*
X6000Y32625D02*
X6800D01*
X6400Y32225D02*
Y33025D01*
X6000Y20225D02*
X6800D01*
X6400Y19825D02*
Y20625D01*
X6000Y24225D02*
X6800D01*
X6400Y23825D02*
Y24625D01*
X6000Y22225D02*
X6800D01*
X6400Y21825D02*
Y22625D01*
X6000Y18225D02*
X6800D01*
X6400Y17825D02*
Y18625D01*
X6250Y49790D02*
X7550D01*
X6900Y49140D02*
Y50440D01*
X6250Y44710D02*
X7550D01*
X6900Y44060D02*
Y45360D01*
X49525Y9900D02*
X50525D01*
X50025Y9400D02*
Y10400D01*
X45025Y9900D02*
X46025D01*
X45525Y9400D02*
Y10400D01*
X45025Y16400D02*
X46025D01*
X45525Y15900D02*
Y16900D01*
X49525Y16400D02*
X50525D01*
X50025Y15900D02*
Y16900D01*
X12575Y6400D02*
X13375D01*
X12975Y6000D02*
Y6800D01*
X12575Y10400D02*
X13375D01*
X12975Y10000D02*
Y10800D01*
X12575Y8400D02*
X13375D01*
X12975Y8000D02*
Y8800D01*
X46413Y3600D02*
X47607D01*
X47010Y3003D02*
Y4197D01*
X46413Y6140D02*
X47607D01*
X47010Y5543D02*
Y6737D01*
X43873Y3600D02*
X45067D01*
X44470Y3003D02*
Y4197D01*
X43873Y6140D02*
X45067D01*
X44470Y5543D02*
Y6737D01*
X41333Y3600D02*
X42527D01*
X41930Y3003D02*
Y4197D01*
X41333Y6140D02*
X42527D01*
X41930Y5543D02*
Y6737D01*
X38793Y3600D02*
X39987D01*
X39390Y3003D02*
Y4197D01*
X38793Y6140D02*
X39987D01*
X39390Y5543D02*
Y6737D01*
X36253Y3600D02*
X37447D01*
X36850Y3003D02*
Y4197D01*
X36253Y6140D02*
X37447D01*
X36850Y5543D02*
Y6737D01*
X33713Y3600D02*
X34907D01*
X34310Y3003D02*
Y4197D01*
X33713Y6140D02*
X34907D01*
X34310Y5543D02*
Y6737D01*
X31173Y3600D02*
X32367D01*
X31770Y3003D02*
Y4197D01*
X31173Y6140D02*
X32367D01*
X31770Y5543D02*
Y6737D01*
X28633Y3600D02*
X29827D01*
X29230Y3003D02*
Y4197D01*
X28633Y6140D02*
X29827D01*
X29230Y5543D02*
Y6737D01*
X26093Y3600D02*
X27287D01*
X26690Y3003D02*
Y4197D01*
X26093Y6140D02*
X27287D01*
X26690Y5543D02*
Y6737D01*
X23553Y3600D02*
X24747D01*
X24150Y3003D02*
Y4197D01*
X23553Y6140D02*
X24747D01*
X24150Y5543D02*
Y6737D01*
X14200Y18225D02*
X15000D01*
X14600Y17825D02*
Y18625D01*
X14200Y22225D02*
X15000D01*
X14600Y21825D02*
Y22625D01*
X14200Y24225D02*
X15000D01*
X14600Y23825D02*
Y24625D01*
X14200Y20225D02*
X15000D01*
X14600Y19825D02*
Y20625D01*
X14200Y30625D02*
X15000D01*
X14600Y30225D02*
Y31025D01*
X14200Y34625D02*
X15000D01*
X14600Y34225D02*
Y35025D01*
X14200Y36625D02*
X15000D01*
X14600Y36225D02*
Y37025D01*
X14200Y32625D02*
X15000D01*
X14600Y32225D02*
Y33025D01*
X68230Y75500D02*
X70770D01*
X69500Y74230D02*
Y76770D01*
X-1270Y75500D02*
X1270D01*
X0Y74230D02*
Y76770D01*
X-1270Y0D02*
X1270D01*
X0Y-1270D02*
Y1270D01*
X68230Y0D02*
X70770D01*
X69500Y-1270D02*
Y1270D01*
X65275Y39600D02*
X65525D01*
X65400Y39475D02*
Y39725D01*
X66675Y44100D02*
X66925D01*
X66800Y43975D02*
Y44225D01*
X66875Y41300D02*
X67125D01*
X67000Y41175D02*
Y41425D01*
X40100Y18850D02*
X40350D01*
X40225Y18725D02*
Y18975D01*
X38900Y28900D02*
X39150D01*
X39025Y28775D02*
Y29025D01*
X37850Y25375D02*
X38100D01*
X37975Y25250D02*
Y25500D01*
X37536Y27489D02*
X37786D01*
X37661Y27364D02*
Y27614D01*
X38900Y26175D02*
X39150D01*
X39025Y26050D02*
Y26300D01*
X37850Y21725D02*
X38100D01*
X37975Y21600D02*
Y21850D01*
X38900Y27489D02*
X39150D01*
X39025Y27364D02*
Y27614D01*
X37536Y26175D02*
X37786D01*
X37661Y26050D02*
Y26300D01*
X39700Y27900D02*
X39950D01*
X39825Y27775D02*
Y28025D01*
X41325Y35000D02*
X41575D01*
X41450Y34875D02*
Y35125D01*
X10225Y64450D02*
X10475D01*
X10350Y64325D02*
Y64575D01*
X42875Y22875D02*
X43125D01*
X43000Y22750D02*
Y23000D01*
X35225Y13900D02*
X35475D01*
X35350Y13775D02*
Y14025D01*
X45025Y27925D02*
X45275D01*
X45150Y27800D02*
Y28050D01*
X49506Y27887D02*
X49756D01*
X49631Y27762D02*
Y28012D01*
X49858Y3327D02*
X50108D01*
X49983Y3202D02*
Y3452D01*
X25700Y69775D02*
X25950D01*
X25825Y69650D02*
Y69900D01*
X37725Y29725D02*
X37975D01*
X37850Y29600D02*
Y29850D01*
X25000Y28400D02*
X25250D01*
X25125Y28275D02*
Y28525D01*
X11125Y61800D02*
X11375D01*
X11250Y61675D02*
Y61925D01*
X18300Y56525D02*
X18550D01*
X18425Y56400D02*
Y56650D01*
X11695Y43989D02*
X11945D01*
X11820Y43864D02*
Y44114D01*
X20225Y59650D02*
X20475D01*
X20350Y59525D02*
Y59775D01*
X35375Y28325D02*
X35625D01*
X35500Y28200D02*
Y28450D01*
X35200Y22225D02*
X35450D01*
X35325Y22100D02*
Y22350D01*
X33900Y18475D02*
X34150D01*
X34025Y18350D02*
Y18600D01*
X33900Y16450D02*
X34150D01*
X34025Y16325D02*
Y16575D01*
X36175Y27489D02*
X36425D01*
X36300Y27364D02*
Y27614D01*
X29725Y29850D02*
X29975D01*
X29850Y29725D02*
Y29975D01*
X36175Y28900D02*
X36425D01*
X36300Y28775D02*
Y29025D01*
X36175Y26175D02*
X36425D01*
X36300Y26050D02*
Y26300D01*
X29206Y28326D02*
X29456D01*
X29331Y28201D02*
Y28451D01*
X29200Y29275D02*
X29450D01*
X29325Y29150D02*
Y29400D01*
X27925Y57725D02*
X28175D01*
X28050Y57600D02*
Y57850D01*
X41825Y31600D02*
X42075D01*
X41950Y31475D02*
Y31725D01*
X49500Y34000D02*
X49750D01*
X49625Y33875D02*
Y34125D01*
X41325Y34025D02*
X41575D01*
X41450Y33900D02*
Y34150D01*
X49415Y32385D02*
X49665D01*
X49540Y32260D02*
Y32510D01*
X49500Y26100D02*
X49750D01*
X49625Y25975D02*
Y26225D01*
X34125Y50350D02*
X34375D01*
X34250Y50225D02*
Y50475D01*
X59952Y44123D02*
X60202D01*
X60077Y43998D02*
Y44248D01*
X59175Y42200D02*
X59425D01*
X59300Y42075D02*
Y42325D01*
X2425Y55600D02*
X2675D01*
X2550Y55475D02*
Y55725D01*
X37725Y35200D02*
X37975D01*
X37850Y35075D02*
Y35325D01*
X37511Y28900D02*
X37761D01*
X37636Y28775D02*
Y29025D01*
X31500Y39750D02*
X31750D01*
X31625Y39625D02*
Y39875D01*
X33200Y39750D02*
X33450D01*
X33325Y39625D02*
Y39875D01*
X26050Y43400D02*
X26300D01*
X26175Y43275D02*
Y43525D01*
X37725Y34550D02*
X37975D01*
X37850Y34425D02*
Y34675D01*
X26025Y32175D02*
X26275D01*
X26150Y32050D02*
Y32300D01*
X26673Y24802D02*
X26923D01*
X26798Y24677D02*
Y24927D01*
X47700Y19925D02*
X47950D01*
X47825Y19800D02*
Y20050D01*
X41650Y16425D02*
X41900D01*
X41775Y16300D02*
Y16550D01*
X40275Y12150D02*
X40525D01*
X40400Y12025D02*
Y12275D01*
%TF.MD5,4be342639ae218d2b29214a8762b182f*%
M02*
