M48
;Layer_Color=9474304
;FILE_FORMAT=4:3
METRIC,LZ
;TYPE=PLATED
T01F00S00C0.250
T02F00S00C0.787
T03F00S00C0.800
T04F00S00C0.900
T05F00S00C1.000
T06F00S00C1.194
T07F00S00C1.300
T08F00S00C2.300
T09F00S00C2.540
%
T01
X003535Y00139
X0034025Y001645
Y0018475
X0035325Y0022225
X0037975Y0021725
X0038927Y0022248
X0039025Y0026175
Y0027489
X0039825Y00279
X0039025Y00289
X0037636
X003785Y0029725
X00363Y00289
X00355Y0028325
X00363Y0027489
Y0026175
X0037661
X0037975Y0025375
X0037661Y0027489
X0031552Y002635
X0031412Y0030424
X004195Y00316
X0044218Y002933
X00448Y0028725
X004515Y0027925
X0045184Y0025459
X0045375Y0024525
X0045725Y0023775
X004605Y0023125
X00463Y0022375
X004705Y00218
X00478Y0021275
X0047825Y0019925
X004925Y0026075
X0049275Y0027875
X0053175Y002725
X0040225Y001885
X0041775Y0016425
X0040731Y0011819
X0049983Y0003327
X003065Y00266
X002985Y002695
X0029324Y0027449
X0029125Y002835
X0029325Y0029275
X002985Y00298
X003055Y0030175
X0026798Y0024802
X0019275Y00258
X0021925Y0032475
X002615Y0032175
X0026175Y00434
X001182Y0043989
X001885Y005661
X002035Y005965
X002805Y0057725
X0025825Y0069775
X001035Y006445
X000245Y0062025
X0000125Y0055625
X003425Y005035
X0033325Y003975
X0031625
X003785Y00352
X003785Y003455
X004145Y0035
Y0034025
X0049625Y0034
X004954Y0032385
X0061275Y0042275
X0062052Y0044198
X0068775Y0044175
X0068975Y0041375
X0067375Y0039675
T02
X00719Y001367
Y0020461
X0071933Y002727
X0069926
X0067945
X0065938
X0063932
X0061925
X0059944
X0059911Y0020461
X0061892
X0063899
X0065905
X0067912
X0069893
Y001367
X0067912
X0065905
X0063899
X0061892
X0059911
X0059944Y0034061
X0061925
X0063932
X0065938
X0067945
X0069926
X0071933
T03
X0012975Y00064
Y00084
Y00104
X0012775Y0018075
Y0020075
Y0022075
Y0024075
Y0030475
X0004575
Y0024075
Y0022075
Y0020075
Y0018075
Y0032475
Y0034475
Y0036475
X0012775
Y0034475
Y0032475
T04
X00341Y006345
Y006545
X00366
Y006345
T05
X0045525Y00099
X0050025
Y00164
X0045525
X0024875Y0053225
Y0057725
X0031375
Y0053225
T06
X003177Y00036
X003431
X003685
X003939
X004193
X004447
X004701
Y000614
X004447
X004193
X003939
X003685
X003431
X003177
X002923
Y00036
X002669
Y000614
X002415
Y00036
T07
X00069Y004471
Y004979
T08
X002933Y006815
X004137
T09
X00705Y0
X0
X00705Y00755
X0Y00755
M30
