%TF.GenerationSoftware,Altium Limited,Altium Designer,24.9.1 (31)*%
G04 Layer_Color=65535*
%FSLAX43Y43*%
%MOMM*%
%TF.SameCoordinates,5C383A44-20C7-455A-B4DF-5BACE1E8B961*%
%TF.FilePolarity,Positive*%
%TF.FileFunction,Legend,Top*%
%TF.Part,Single*%
G01*
G75*
%TA.AperFunction,NonConductor*%
%ADD54C,0.200*%
%ADD55C,0.127*%
%ADD56C,0.100*%
%ADD57C,0.508*%
%ADD58C,0.400*%
%ADD59C,0.254*%
%ADD60C,0.305*%
%ADD61C,0.152*%
%ADD62C,0.203*%
G36*
X11936Y78390D02*
X11978Y78376D01*
X12157Y78293D01*
X12233Y78273D01*
X12309Y78224D01*
X12351Y78183D01*
X12378Y78169D01*
X12495Y78080D01*
X12509Y78052D01*
X12544Y78017D01*
X12571Y78004D01*
X12592Y77983D01*
X12606Y77955D01*
X12675Y77859D01*
X12716Y77817D01*
X12792Y77603D01*
X12813Y77583D01*
X12854Y77445D01*
X12868Y77224D01*
X12854Y72462D01*
X12827Y72393D01*
X12758Y72241D01*
X12709Y72110D01*
X12633Y72034D01*
X12578Y71937D01*
X12558Y71916D01*
X12530Y71902D01*
X12482Y71854D01*
X12468Y71827D01*
X12447Y71806D01*
X12420Y71792D01*
X12323Y71723D01*
X12281Y71682D01*
X12212Y71654D01*
X12157Y71640D01*
X12005Y71571D01*
X11909Y71544D01*
X11771Y71530D01*
X6111D01*
X4800Y71544D01*
X4731Y71571D01*
X4579Y71640D01*
X4503Y71661D01*
X4427Y71709D01*
X4386Y71751D01*
X4358Y71764D01*
X4255Y71840D01*
X4241Y71868D01*
X4193Y71916D01*
X4165Y71930D01*
X4110Y72013D01*
X4041Y72096D01*
X4020Y72116D01*
X3958Y72289D01*
X3896Y72434D01*
X3882Y72489D01*
X3868Y72751D01*
X3882Y77472D01*
X3910Y77541D01*
X3979Y77693D01*
X4027Y77824D01*
X4089Y77886D01*
X4103Y77914D01*
X4193Y78031D01*
X4220Y78045D01*
X4255Y78080D01*
X4269Y78107D01*
X4289Y78128D01*
X4317Y78142D01*
X4441Y78238D01*
X4565Y78293D01*
X4655Y78328D01*
X4800Y78390D01*
X4979Y78404D01*
X11936Y78390D01*
D02*
G37*
%LPC*%
G36*
X11729Y77879D02*
X4883Y77866D01*
X4759Y77797D01*
X4586Y77679D01*
X4558Y77652D01*
X4545Y77624D01*
X4489Y77541D01*
X4476Y77514D01*
X4420Y77431D01*
X4407Y77334D01*
X4393Y77113D01*
X4407Y72544D01*
X4476Y72420D01*
X4531Y72337D01*
X4545Y72310D01*
X4607Y72234D01*
X4703Y72165D01*
X4800Y72110D01*
X4897Y72068D01*
X5035Y72054D01*
X11854Y72068D01*
X12047Y72179D01*
X12164Y72268D01*
X12178Y72296D01*
X12206Y72323D01*
X12275Y72448D01*
X12316Y72517D01*
X12330Y72613D01*
X12344Y72834D01*
X12330Y77389D01*
X12275Y77486D01*
X12219Y77569D01*
X12178Y77638D01*
X12116Y77714D01*
X12088Y77728D01*
X12005Y77783D01*
X11978Y77797D01*
X11971Y77803D01*
X11881Y77852D01*
X11826Y77866D01*
X11729Y77879D01*
D02*
G37*
%LPD*%
G36*
X8720Y77479D02*
X9397Y77465D01*
X9417Y77445D01*
X9431Y77389D01*
X9417Y77251D01*
X9397Y77231D01*
X9341Y77217D01*
X8851Y77224D01*
X8782Y77196D01*
X8755Y77127D01*
X8769Y76865D01*
X8762Y75781D01*
X8789Y75712D01*
X8844Y75698D01*
X8872Y75712D01*
X8920Y75761D01*
X8934Y75788D01*
X8996Y75864D01*
X9942Y76810D01*
X9956Y76837D01*
X10004Y76886D01*
X10073Y76872D01*
X10121Y76823D01*
X10190Y76672D01*
X10218Y76561D01*
X10252Y76402D01*
X10314Y76285D01*
X10342Y76188D01*
X10356Y76092D01*
X10384Y75968D01*
X10439Y75912D01*
X10480Y75816D01*
X10494Y75678D01*
X10515Y75574D01*
X10563Y75498D01*
X10618Y75374D01*
X10632Y75236D01*
X10646Y75153D01*
X10729Y75029D01*
X10756Y74932D01*
X10770Y74767D01*
X10825Y74670D01*
X10853Y74642D01*
X10880Y74573D01*
X10894Y74435D01*
X10915Y74318D01*
X10936Y74297D01*
X10949Y74270D01*
X10977Y74242D01*
X11018Y74146D01*
X11039Y73945D01*
X11067Y73876D01*
X11115Y73828D01*
X11143Y73759D01*
X11177Y73517D01*
X11226Y73442D01*
X11281Y73317D01*
X11315Y73255D01*
X11370Y73241D01*
X11847Y73248D01*
X11902Y73235D01*
X11943Y73193D01*
X11957Y73083D01*
X11909Y72993D01*
X11854Y72979D01*
X10915Y72993D01*
X10894Y73014D01*
X10880Y73069D01*
X10894Y73207D01*
X10929Y73241D01*
X11094Y73255D01*
X11129Y73290D01*
X11143Y73373D01*
X11108Y73435D01*
X11081Y73448D01*
X11046Y73483D01*
X11018Y73593D01*
X11005Y73690D01*
X10991Y73814D01*
X10963Y73842D01*
X10949Y73869D01*
X10922Y73897D01*
X10894Y73966D01*
X10867Y74159D01*
X10853Y74228D01*
X10784Y74325D01*
X10756Y74422D01*
X10742Y74477D01*
X10729Y74629D01*
X10687Y74698D01*
X10660Y74725D01*
X10632Y74794D01*
X10618Y74850D01*
X10591Y75070D01*
X10528Y75146D01*
X10494Y75222D01*
X10480Y75319D01*
X10459Y75478D01*
X10425Y75526D01*
X10397Y75553D01*
X10356Y75650D01*
X10335Y75864D01*
X10314Y75912D01*
X10183Y76085D01*
X10142Y76099D01*
X10080Y76050D01*
X10066Y76023D01*
X9935Y75892D01*
X9907Y75878D01*
X9880Y75850D01*
X9859Y75843D01*
X9845Y75816D01*
X9783Y75754D01*
X9755Y75740D01*
X9631Y75616D01*
X9604Y75602D01*
X9555Y75553D01*
X9541Y75526D01*
X9479Y75478D01*
X9452Y75464D01*
X9417Y75429D01*
X9403Y75402D01*
X9383Y75381D01*
X9355Y75367D01*
X9328Y75340D01*
X9300Y75326D01*
X9265Y75277D01*
X9231Y75243D01*
X9203Y75229D01*
X9079Y75105D01*
X9051Y75091D01*
X8941Y74981D01*
X8913Y74967D01*
X8782Y74836D01*
X8755Y74725D01*
X8769Y74504D01*
X8762Y73186D01*
X8782Y73138D01*
X8803Y73117D01*
X8900Y73103D01*
X9024Y73117D01*
X9065Y73103D01*
X9120Y73117D01*
X9259Y73103D01*
X9279Y73083D01*
X9307Y73014D01*
X9293Y72903D01*
X9259Y72869D01*
X9162Y72855D01*
X8982Y72869D01*
X8561Y72862D01*
X8492Y72917D01*
X8506Y73345D01*
X8499Y75685D01*
X8506Y75968D01*
Y75981D01*
X8499Y77424D01*
X8527Y77465D01*
X8624Y77493D01*
X8720Y77479D01*
D02*
G37*
G36*
X8216Y77458D02*
X8244Y77389D01*
X8230Y77003D01*
X8237Y74843D01*
X8230Y73083D01*
X8244Y73041D01*
X8230Y72903D01*
X8196Y72869D01*
X8140Y72855D01*
X7754Y72869D01*
X7519Y72855D01*
X7450Y72896D01*
X7430Y72958D01*
X7443Y73055D01*
X7478Y73103D01*
X7575Y73117D01*
X7706Y73110D01*
X7768Y73117D01*
X7809Y73103D01*
X7933Y73117D01*
X7968Y73152D01*
X7982Y73248D01*
X7968Y73428D01*
X7975Y74760D01*
X7961Y74815D01*
X7906Y74898D01*
X7864Y74939D01*
X7837Y74953D01*
X7782Y75008D01*
X7754Y75022D01*
X7719Y75070D01*
X7671Y75105D01*
X7595Y75167D01*
X7561Y75215D01*
X7533Y75229D01*
X7505Y75257D01*
X7478Y75271D01*
X7457Y75291D01*
X7443Y75319D01*
X7409Y75353D01*
X7381Y75367D01*
X7257Y75491D01*
X7229Y75505D01*
X7105Y75629D01*
X7078Y75643D01*
X6953Y75767D01*
X6926Y75781D01*
X6905Y75802D01*
X6891Y75830D01*
X6843Y75878D01*
X6815Y75892D01*
X6739Y75954D01*
X6712Y75981D01*
X6698Y76009D01*
X6608Y76099D01*
X6539Y76085D01*
X6519Y76064D01*
X6463Y75968D01*
X6422Y75926D01*
X6394Y75830D01*
X6380Y75636D01*
X6291Y75505D01*
X6270Y75443D01*
X6242Y75208D01*
X6173Y75112D01*
X6132Y75015D01*
X6118Y74822D01*
X6049Y74698D01*
X6022Y74670D01*
X6008Y74615D01*
Y74573D01*
X6001Y74567D01*
X5987Y74442D01*
X5973Y74387D01*
X5946Y74318D01*
X5925Y74297D01*
X5911Y74270D01*
X5870Y74173D01*
X5856Y74007D01*
X5842Y73966D01*
X5787Y73869D01*
X5759Y73842D01*
X5746Y73787D01*
X5732Y73690D01*
X5711Y73559D01*
X5697Y73504D01*
X5663Y73455D01*
X5642Y73435D01*
X5621Y73428D01*
X5594Y73359D01*
X5614Y73283D01*
X5642Y73255D01*
X5697Y73241D01*
X5821Y73228D01*
X5842Y73207D01*
X5870Y73096D01*
X5856Y73055D01*
X5821Y72993D01*
X5766Y72979D01*
X4828Y72993D01*
X4807Y73014D01*
X4779Y73110D01*
X4800Y73200D01*
X4841Y73241D01*
X4931Y73248D01*
X5394Y73241D01*
X5442Y73276D01*
X5469Y73345D01*
X5483Y73400D01*
X5552Y73497D01*
X5566Y73552D01*
X5580Y73649D01*
X5601Y73780D01*
X5649Y73856D01*
X5677Y73883D01*
X5704Y73980D01*
X5725Y74152D01*
X5739Y74208D01*
X5759Y74228D01*
X5773Y74256D01*
X5801Y74284D01*
X5828Y74353D01*
X5842Y74449D01*
X5856Y74587D01*
X5946Y74718D01*
X5966Y74794D01*
X5980Y74932D01*
X6001Y75008D01*
X6029Y75077D01*
X6077Y75126D01*
X6104Y75222D01*
X6118Y75388D01*
X6146Y75457D01*
X6160Y75484D01*
X6187Y75512D01*
X6201Y75540D01*
X6229Y75609D01*
X6242Y75664D01*
X6256Y75830D01*
X6311Y75926D01*
X6353Y75968D01*
X6367Y76023D01*
X6380Y76119D01*
X6415Y76264D01*
X6443Y76333D01*
X6463Y76354D01*
X6491Y76423D01*
X6505Y76478D01*
X6525Y76596D01*
X6539Y76651D01*
X6567Y76720D01*
X6629Y76837D01*
X6663Y76886D01*
X6705Y76899D01*
X6781Y76837D01*
X6822Y76796D01*
X6836Y76768D01*
X7713Y75892D01*
X7740Y75878D01*
X7775Y75830D01*
X7871Y75705D01*
X7933Y75698D01*
X7954Y75719D01*
X7982Y75816D01*
X7968Y76161D01*
X7975Y77148D01*
X7954Y77196D01*
X7864Y77231D01*
X7726Y77217D01*
X7340Y77231D01*
X7305Y77293D01*
X7319Y77445D01*
X7340Y77465D01*
X7395Y77479D01*
X8147Y77486D01*
X8216Y77458D01*
D02*
G37*
G36*
X11909Y72703D02*
X11929Y72682D01*
X11957Y72586D01*
X11936Y72496D01*
X11895Y72455D01*
X4828Y72468D01*
X4793Y72503D01*
X4779Y72613D01*
X4828Y72703D01*
X4883Y72717D01*
X8258Y72710D01*
X8472Y72717D01*
X8513Y72703D01*
X10956Y72717D01*
X10970D01*
X11909Y72703D01*
D02*
G37*
D54*
X661Y59455D02*
G03*
X661Y59455I-100J0D01*
G01*
X28700Y63450D02*
G03*
X28700Y63450I-100J0D01*
G01*
X37675Y37300D02*
G03*
X37675Y37500I0J100D01*
G01*
D02*
G03*
X37675Y37300I0J-100D01*
G01*
X33310Y30336D02*
G03*
X33310Y30336I-100J0D01*
G01*
X20241Y55325D02*
G03*
X20241Y55325I-100J0D01*
G01*
X68865Y40300D02*
G03*
X68865Y40300I-100J0D01*
G01*
X36875Y10880D02*
G03*
X36875Y10880I-100J0D01*
G01*
X39720Y59950D02*
G03*
X39720Y59950I-100J0D01*
G01*
X32105D02*
G03*
X32105Y59950I-100J0D01*
G01*
X29300Y61927D02*
X41400D01*
X29300D02*
Y66140D01*
X41400Y70160D02*
Y78818D01*
Y61927D02*
Y66140D01*
X29300Y78818D02*
X41400D01*
X29300Y70160D02*
Y78818D01*
X39675Y36600D02*
Y38200D01*
X50775Y11350D02*
Y15050D01*
X44775Y11350D02*
Y15050D01*
Y13150D02*
Y15050D01*
X47075Y10150D02*
X48375D01*
X47075Y16150D02*
X48375D01*
X8900Y52430D02*
X11050D01*
X8900D02*
X9160Y53030D01*
X7930D02*
X9160D01*
X7930D02*
X8190Y52430D01*
X2750D02*
X8190D01*
X2750Y42070D02*
Y52430D01*
Y42070D02*
X3350D01*
X3090Y41470D02*
X3350Y42070D01*
X3090Y41470D02*
X4340D01*
X4060Y42070D02*
X4340Y41470D01*
X4060Y42070D02*
X11050D01*
Y52430D01*
X25125Y54775D02*
Y56075D01*
X31125Y54775D02*
Y56075D01*
X26225Y52475D02*
X28125D01*
X26225D02*
X29925D01*
X26225Y58475D02*
X29925D01*
D55*
X18352Y67425D02*
G03*
X18352Y67425I-127J0D01*
G01*
X24747Y48525D02*
G03*
X24747Y48525I-180J0D01*
G01*
X2700Y55025D02*
X6600D01*
X2700Y60075D02*
X6600D01*
X13950Y65825D02*
X16150D01*
X13950Y69025D02*
X16150D01*
X26689Y74999D02*
Y78301D01*
X24911D02*
X26689D01*
X24911Y74999D02*
Y78301D01*
Y74999D02*
X26689D01*
X29080Y49425D02*
Y51225D01*
X32380Y49425D02*
Y51225D01*
X29080D02*
X32380D01*
X29120Y49425D02*
X32340D01*
X4593Y10527D02*
Y12559D01*
Y4177D02*
Y6209D01*
X5101D02*
Y10527D01*
X4593D02*
X5101D01*
X4593Y6209D02*
X5101D01*
X5990Y3542D02*
Y4177D01*
Y12559D02*
Y13194D01*
X4593Y12559D02*
X5990D01*
X4593Y4177D02*
X5990D01*
X12975Y3542D02*
Y4304D01*
X5990Y3542D02*
X12975D01*
X5990Y13194D02*
X12975D01*
Y12432D02*
Y13194D01*
Y4304D02*
X15007D01*
Y5447D01*
X14425D02*
X15007D01*
X14425Y11289D02*
X14880D01*
Y12432D01*
X12975D02*
X14880D01*
X14425Y5447D02*
Y7825D01*
Y8975D01*
Y11289D01*
X9825Y15925D02*
X15325D01*
X9825D02*
Y26225D01*
X15325D01*
Y24425D02*
Y26225D01*
X14975Y24425D02*
X15325D01*
X14975Y23225D02*
Y24425D01*
X15325Y15925D02*
Y17725D01*
X14975D02*
X15325D01*
X14975D02*
Y18925D01*
X14425D02*
X14975D01*
X14425D02*
Y23225D01*
X14975D01*
X40890Y24036D02*
X41170D01*
X40890Y31036D02*
X41170D01*
X34170Y24036D02*
X34450D01*
X34170Y31036D02*
X34450D01*
X41170Y24036D02*
Y24316D01*
Y30756D02*
Y31036D01*
X34170Y24036D02*
Y24316D01*
Y30756D02*
Y31036D01*
X13391Y49825D02*
X19891D01*
X13391D02*
Y53325D01*
X19891D01*
Y49825D02*
Y53325D01*
X64175Y43170D02*
X66975D01*
X64175Y40180D02*
X66975D01*
X37840Y14275D02*
X38010D01*
X37840Y11775D02*
X38010D01*
X36605Y59120D02*
X38205D01*
X36605Y60780D02*
X38205D01*
X1625Y28325D02*
X7125D01*
X1625D02*
Y38625D01*
X7125D01*
Y36825D02*
Y38625D01*
X6775Y36825D02*
X7125D01*
X6775Y35625D02*
Y36825D01*
X7125Y28325D02*
Y30125D01*
X6775D02*
X7125D01*
X6775D02*
Y31325D01*
X6225D02*
X6775D01*
X6225D02*
Y35625D01*
X6775D01*
X1625Y15925D02*
X7125D01*
X1625D02*
Y26225D01*
X7125D01*
Y24425D02*
Y26225D01*
X6775Y24425D02*
X7125D01*
X6775Y23225D02*
Y24425D01*
X7125Y15925D02*
Y17725D01*
X6775D02*
X7125D01*
X6775D02*
Y18925D01*
X6225D02*
X6775D01*
X6225D02*
Y23225D01*
X6775D01*
X14425Y35625D02*
X14975D01*
X14425Y31325D02*
Y35625D01*
Y31325D02*
X14975D01*
Y30125D02*
Y31325D01*
Y30125D02*
X15325D01*
Y28325D02*
Y30125D01*
X14975Y35625D02*
Y36825D01*
X15325D01*
Y38625D01*
X9825D02*
X15325D01*
X9825Y28325D02*
Y38625D01*
Y28325D02*
X15325D01*
X24925Y74025D02*
X26725D01*
X24925Y70725D02*
X26725D01*
Y74025D01*
X24925Y70765D02*
Y73985D01*
X33420Y60780D02*
X35020D01*
X33420Y59120D02*
X35020D01*
X25971Y-674D02*
X26055Y-588D01*
X26224Y-586D01*
X26310Y-670D01*
X26311Y-755D01*
X26227Y-840D01*
X26142Y-841D01*
X26227Y-840D01*
X26313Y-924D01*
X26313Y-1009D01*
X26230Y-1094D01*
X26060Y-1096D01*
X25975Y-1012D01*
X26478Y-584D02*
X26482Y-922D01*
X26653Y-1090D01*
X26820Y-919D01*
X26817Y-580D01*
X26987Y-663D02*
X27071Y-578D01*
X27240Y-576D01*
X27326Y-660D01*
X27326Y-745D01*
X27243Y-830D01*
X27158Y-831D01*
X27243Y-830D01*
X27328Y-914D01*
X27329Y-998D01*
X27245Y-1084D01*
X27076Y-1086D01*
X26990Y-1002D01*
X23116Y1100D02*
X23031Y1185D01*
X22862D01*
X22777Y1100D01*
Y762D01*
X22862Y677D01*
X23031D01*
X23116Y762D01*
Y931D01*
X22946D01*
X23285Y677D02*
Y1185D01*
X23539D01*
X23623Y1100D01*
Y931D01*
X23539Y846D01*
X23285D01*
X23793Y1185D02*
X23962D01*
X23877D01*
Y677D01*
X23793D01*
X23962D01*
X24470Y1185D02*
X24301D01*
X24216Y1100D01*
Y762D01*
X24301Y677D01*
X24470D01*
X24554Y762D01*
Y1100D01*
X24470Y1185D01*
X24724Y677D02*
X24893D01*
X24808D01*
Y1185D01*
X24724Y1100D01*
X25147D02*
X25232Y1185D01*
X25401D01*
X25485Y1100D01*
Y762D01*
X25401Y677D01*
X25232D01*
X25147Y762D01*
Y1100D01*
X64452Y3452D02*
X64621D01*
X64537D01*
Y3960D01*
X64452Y3875D01*
X64875Y3960D02*
Y3621D01*
X65044Y3452D01*
X65214Y3621D01*
Y3960D01*
X65383Y3875D02*
X65468Y3960D01*
X65637D01*
X65722Y3875D01*
Y3791D01*
X65637Y3706D01*
X65722Y3621D01*
Y3537D01*
X65637Y3452D01*
X65468D01*
X65383Y3537D01*
Y3621D01*
X65468Y3706D01*
X65383Y3791D01*
Y3875D01*
X65468Y3706D02*
X65637D01*
X33971Y-650D02*
X33887Y-565D01*
X33718D01*
X33633Y-650D01*
Y-988D01*
X33718Y-1073D01*
X33887D01*
X33971Y-988D01*
Y-819D01*
X33802D01*
X34141Y-1073D02*
Y-565D01*
X34479Y-1073D01*
Y-565D01*
X34649D02*
Y-1073D01*
X34902D01*
X34987Y-988D01*
Y-650D01*
X34902Y-565D01*
X34649D01*
X28891Y-650D02*
X28807Y-565D01*
X28638D01*
X28553Y-650D01*
Y-988D01*
X28638Y-1073D01*
X28807D01*
X28891Y-988D01*
Y-819D01*
X28722D01*
X29061Y-1073D02*
Y-565D01*
X29399Y-1073D01*
Y-565D01*
X29569D02*
Y-1073D01*
X29822D01*
X29907Y-988D01*
Y-650D01*
X29822Y-565D01*
X29569D01*
X31431Y-650D02*
X31347Y-565D01*
X31178D01*
X31093Y-650D01*
Y-988D01*
X31178Y-1073D01*
X31347D01*
X31431Y-988D01*
Y-819D01*
X31262D01*
X31601Y-1073D02*
Y-565D01*
X31939Y-1073D01*
Y-565D01*
X32109D02*
Y-1073D01*
X32362D01*
X32447Y-988D01*
Y-650D01*
X32362Y-565D01*
X32109D01*
X41549Y470D02*
X41718D01*
X41634D01*
Y978D01*
X41549Y894D01*
X41972Y978D02*
X42311D01*
Y894D01*
X41972Y555D01*
Y470D01*
X46671Y-650D02*
X46587Y-565D01*
X46418D01*
X46333Y-650D01*
Y-988D01*
X46418Y-1073D01*
X46587D01*
X46671Y-988D01*
Y-819D01*
X46502D01*
X46841Y-1073D02*
Y-565D01*
X47179Y-1073D01*
Y-565D01*
X47349D02*
Y-1073D01*
X47602D01*
X47687Y-988D01*
Y-650D01*
X47602Y-565D01*
X47349D01*
X44131Y-550D02*
X44047Y-465D01*
X43878D01*
X43793Y-550D01*
Y-888D01*
X43878Y-973D01*
X44047D01*
X44131Y-888D01*
Y-719D01*
X43962D01*
X44301Y-973D02*
Y-465D01*
X44639Y-973D01*
Y-465D01*
X44809D02*
Y-973D01*
X45062D01*
X45147Y-888D01*
Y-550D01*
X45062Y-465D01*
X44809D01*
X36469Y470D02*
X36638D01*
X36554D01*
Y978D01*
X36469Y894D01*
X37231Y978D02*
X36892D01*
Y724D01*
X37062Y809D01*
X37146D01*
X37231Y724D01*
Y555D01*
X37146Y470D01*
X36977D01*
X36892Y555D01*
X36511Y-650D02*
X36427Y-565D01*
X36258D01*
X36173Y-650D01*
Y-988D01*
X36258Y-1073D01*
X36427D01*
X36511Y-988D01*
Y-819D01*
X36342D01*
X36681Y-1073D02*
Y-565D01*
X37019Y-1073D01*
Y-565D01*
X37189D02*
Y-1073D01*
X37442D01*
X37527Y-988D01*
Y-650D01*
X37442Y-565D01*
X37189D01*
X33929Y470D02*
X34098D01*
X34014D01*
Y978D01*
X33929Y894D01*
X34606Y470D02*
Y978D01*
X34352Y724D01*
X34691D01*
X31389Y470D02*
X31558D01*
X31474D01*
Y978D01*
X31389Y894D01*
X31812D02*
X31897Y978D01*
X32066D01*
X32151Y894D01*
Y809D01*
X32066Y724D01*
X31982D01*
X32066D01*
X32151Y640D01*
Y555D01*
X32066Y470D01*
X31897D01*
X31812Y555D01*
X44089Y470D02*
X44258D01*
X44174D01*
Y978D01*
X44089Y894D01*
X44512D02*
X44597Y978D01*
X44766D01*
X44851Y894D01*
Y809D01*
X44766Y724D01*
X44851Y640D01*
Y555D01*
X44766Y470D01*
X44597D01*
X44512Y555D01*
Y640D01*
X44597Y724D01*
X44512Y809D01*
Y894D01*
X44597Y724D02*
X44766D01*
X39051Y-650D02*
X38967Y-565D01*
X38798D01*
X38713Y-650D01*
Y-988D01*
X38798Y-1073D01*
X38967D01*
X39051Y-988D01*
Y-819D01*
X38882D01*
X39221Y-1073D02*
Y-565D01*
X39559Y-1073D01*
Y-565D01*
X39729D02*
Y-1073D01*
X39982D01*
X40067Y-988D01*
Y-650D01*
X39982Y-565D01*
X39729D01*
X39009Y470D02*
X39178D01*
X39094D01*
Y978D01*
X39009Y894D01*
X39771Y978D02*
X39602Y894D01*
X39432Y724D01*
Y555D01*
X39517Y470D01*
X39686D01*
X39771Y555D01*
Y640D01*
X39686Y724D01*
X39432D01*
X41591Y-650D02*
X41507Y-565D01*
X41338D01*
X41253Y-650D01*
Y-988D01*
X41338Y-1073D01*
X41507D01*
X41591Y-988D01*
Y-819D01*
X41422D01*
X41761Y-1073D02*
Y-565D01*
X42099Y-1073D01*
Y-565D01*
X42269D02*
Y-1073D01*
X42522D01*
X42607Y-988D01*
Y-650D01*
X42522Y-565D01*
X42269D01*
X23471Y-649D02*
X23555Y-563D01*
X23724Y-561D01*
X23810Y-645D01*
X23811Y-730D01*
X23727Y-815D01*
X23642Y-816D01*
X23727Y-815D01*
X23813Y-899D01*
X23813Y-984D01*
X23730Y-1069D01*
X23560Y-1071D01*
X23475Y-987D01*
X23978Y-559D02*
X23982Y-897D01*
X24153Y-1065D01*
X24320Y-894D01*
X24317Y-555D01*
X24487Y-638D02*
X24571Y-553D01*
X24740Y-551D01*
X24826Y-635D01*
X24826Y-720D01*
X24743Y-805D01*
X24658Y-806D01*
X24743Y-805D01*
X24828Y-889D01*
X24829Y-973D01*
X24745Y-1059D01*
X24576Y-1061D01*
X24490Y-977D01*
X45994Y850D02*
X45910Y935D01*
X45740D01*
X45656Y850D01*
Y512D01*
X45740Y427D01*
X45910D01*
X45994Y512D01*
Y681D01*
X45825D01*
X46164Y427D02*
Y935D01*
X46418D01*
X46502Y850D01*
Y681D01*
X46418Y596D01*
X46164D01*
X46671Y935D02*
X46841D01*
X46756D01*
Y427D01*
X46671D01*
X46841D01*
X47349Y935D02*
X47179D01*
X47095Y850D01*
Y512D01*
X47179Y427D01*
X47349D01*
X47433Y512D01*
Y850D01*
X47349Y935D01*
X47602Y427D02*
X47772D01*
X47687D01*
Y935D01*
X47602Y850D01*
X48026Y512D02*
X48110Y427D01*
X48280D01*
X48364Y512D01*
Y850D01*
X48280Y935D01*
X48110D01*
X48026Y850D01*
Y766D01*
X48110Y681D01*
X48364D01*
X26394Y627D02*
X26563D01*
X26478D01*
Y1135D01*
X26394Y1050D01*
X26817Y627D02*
X26986D01*
X26902D01*
Y1135D01*
X26817Y1050D01*
X28849Y570D02*
X29018D01*
X28934D01*
Y1078D01*
X28849Y994D01*
X29611Y570D02*
X29272D01*
X29611Y909D01*
Y994D01*
X29526Y1078D01*
X29357D01*
X29272Y994D01*
X59736Y43644D02*
X59652Y43729D01*
X59483D01*
X59398Y43644D01*
Y43306D01*
X59483Y43221D01*
X59652D01*
X59736Y43306D01*
X59906Y43644D02*
X59990Y43729D01*
X60160D01*
X60244Y43644D01*
Y43560D01*
X60160Y43475D01*
X60075D01*
X60160D01*
X60244Y43390D01*
Y43306D01*
X60160Y43221D01*
X59990D01*
X59906Y43306D01*
X60414Y43644D02*
X60498Y43729D01*
X60667D01*
X60752Y43644D01*
Y43560D01*
X60667Y43475D01*
X60752Y43390D01*
Y43306D01*
X60667Y43221D01*
X60498D01*
X60414Y43306D01*
Y43390D01*
X60498Y43475D01*
X60414Y43560D01*
Y43644D01*
X60498Y43475D02*
X60667D01*
X3011Y53821D02*
Y54329D01*
X3265D01*
X3350Y54244D01*
Y54075D01*
X3265Y53990D01*
X3011D01*
X3519Y53821D02*
X3689D01*
X3604D01*
Y54329D01*
X3519Y54244D01*
X45111Y18304D02*
Y17796D01*
X45365D01*
X45450Y17881D01*
Y17965D01*
X45365Y18050D01*
X45111D01*
X45365D01*
X45450Y18135D01*
Y18219D01*
X45365Y18304D01*
X45111D01*
X45619Y17796D02*
X45789D01*
X45704D01*
Y18304D01*
X45619Y18219D01*
X30988Y28469D02*
X30904Y28554D01*
X30734D01*
X30650Y28469D01*
Y28131D01*
X30734Y28046D01*
X30904D01*
X30988Y28131D01*
X31158Y28046D02*
X31327D01*
X31242D01*
Y28554D01*
X31158Y28469D01*
X31581Y28046D02*
X31750D01*
X31666D01*
Y28554D01*
X31581Y28469D01*
X25415Y8454D02*
X25246D01*
X25331D01*
Y8031D01*
X25246Y7946D01*
X25161D01*
X25077Y8031D01*
X25585Y8369D02*
X25669Y8454D01*
X25839D01*
X25923Y8369D01*
Y8285D01*
X25839Y8200D01*
X25754D01*
X25839D01*
X25923Y8115D01*
Y8031D01*
X25839Y7946D01*
X25669D01*
X25585Y8031D01*
X39177Y61004D02*
X39515D01*
Y60919D01*
X39177Y60581D01*
Y60496D01*
X39515D01*
X40023D02*
X39685D01*
X40023Y60835D01*
Y60919D01*
X39939Y61004D01*
X39769D01*
X39685Y60919D01*
X31676Y61029D02*
X32015D01*
Y60944D01*
X31676Y60606D01*
Y60521D01*
X32015D01*
X32184D02*
X32354D01*
X32269D01*
Y61029D01*
X32184Y60944D01*
X37536Y11054D02*
Y10969D01*
X37706Y10800D01*
X37875Y10969D01*
Y11054D01*
X37706Y10800D02*
Y10546D01*
X38044D02*
X38214D01*
X38129D01*
Y11054D01*
X38044Y10969D01*
X65052Y44129D02*
Y43706D01*
X65136Y43621D01*
X65306D01*
X65390Y43706D01*
Y44129D01*
X65898D02*
X65729Y44044D01*
X65560Y43875D01*
Y43706D01*
X65644Y43621D01*
X65814D01*
X65898Y43706D01*
Y43790D01*
X65814Y43875D01*
X65560D01*
X64852Y48929D02*
Y48506D01*
X64936Y48421D01*
X65106D01*
X65190Y48506D01*
Y48929D01*
X65698D02*
X65360D01*
Y48675D01*
X65529Y48760D01*
X65614D01*
X65698Y48675D01*
Y48506D01*
X65614Y48421D01*
X65444D01*
X65360Y48506D01*
X25477Y49154D02*
Y48731D01*
X25561Y48646D01*
X25731D01*
X25815Y48731D01*
Y49154D01*
X26239Y48646D02*
Y49154D01*
X25985Y48900D01*
X26323D01*
X1077Y60954D02*
Y60531D01*
X1161Y60446D01*
X1331D01*
X1415Y60531D01*
Y60954D01*
X1585Y60869D02*
X1669Y60954D01*
X1839D01*
X1923Y60869D01*
Y60785D01*
X1839Y60700D01*
X1754D01*
X1839D01*
X1923Y60615D01*
Y60531D01*
X1839Y60446D01*
X1669D01*
X1585Y60531D01*
X13418Y48554D02*
Y48131D01*
X13502Y48046D01*
X13671D01*
X13756Y48131D01*
Y48554D01*
X14264Y48046D02*
X13925D01*
X14264Y48385D01*
Y48469D01*
X14179Y48554D01*
X14010D01*
X13925Y48469D01*
X33136Y32815D02*
Y32391D01*
X33220Y32307D01*
X33390D01*
X33474Y32391D01*
Y32815D01*
X33643Y32307D02*
X33813D01*
X33728D01*
Y32815D01*
X33643Y32730D01*
X71740Y48221D02*
Y48729D01*
X71994D01*
X72079Y48644D01*
Y48475D01*
X71994Y48390D01*
X71740D01*
X71909D02*
X72079Y48221D01*
X72248D02*
X72417D01*
X72333D01*
Y48729D01*
X72248Y48644D01*
X73010Y48221D02*
X72671D01*
X73010Y48560D01*
Y48644D01*
X72925Y48729D01*
X72756D01*
X72671Y48644D01*
X70025Y48221D02*
Y48729D01*
X70279D01*
X70363Y48644D01*
Y48475D01*
X70279Y48390D01*
X70025D01*
X70194D02*
X70363Y48221D01*
X70533D02*
X70702D01*
X70617D01*
Y48729D01*
X70533Y48644D01*
X70956Y48221D02*
X71125D01*
X71041D01*
Y48729D01*
X70956Y48644D01*
X58052Y48221D02*
Y48729D01*
X58306D01*
X58390Y48644D01*
Y48475D01*
X58306Y48390D01*
X58052D01*
X58221D02*
X58390Y48221D01*
X58560Y48306D02*
X58644Y48221D01*
X58814D01*
X58898Y48306D01*
Y48644D01*
X58814Y48729D01*
X58644D01*
X58560Y48644D01*
Y48560D01*
X58644Y48475D01*
X58898D01*
X59752Y48221D02*
Y48729D01*
X60006D01*
X60090Y48644D01*
Y48475D01*
X60006Y48390D01*
X59752D01*
X59921D02*
X60090Y48221D01*
X60260Y48644D02*
X60344Y48729D01*
X60514D01*
X60598Y48644D01*
Y48560D01*
X60514Y48475D01*
X60598Y48390D01*
Y48306D01*
X60514Y48221D01*
X60344D01*
X60260Y48306D01*
Y48390D01*
X60344Y48475D01*
X60260Y48560D01*
Y48644D01*
X60344Y48475D02*
X60514D01*
X69840Y42421D02*
Y42929D01*
X70094D01*
X70179Y42844D01*
Y42675D01*
X70094Y42590D01*
X69840D01*
X70009D02*
X70179Y42421D01*
X70348D02*
X70517D01*
X70433D01*
Y42929D01*
X70348Y42844D01*
X70771D02*
X70856Y42929D01*
X71025D01*
X71110Y42844D01*
Y42506D01*
X71025Y42421D01*
X70856D01*
X70771Y42506D01*
Y42844D01*
X58052Y43221D02*
Y43729D01*
X58306D01*
X58390Y43644D01*
Y43475D01*
X58306Y43390D01*
X58052D01*
X58221D02*
X58390Y43221D01*
X58560Y43729D02*
X58898D01*
Y43644D01*
X58560Y43306D01*
Y43221D01*
X22877Y50046D02*
Y50554D01*
X23131D01*
X23215Y50469D01*
Y50300D01*
X23131Y50215D01*
X22877D01*
X23046D02*
X23215Y50046D01*
X23723Y50554D02*
X23554Y50469D01*
X23385Y50300D01*
Y50131D01*
X23469Y50046D01*
X23639D01*
X23723Y50131D01*
Y50215D01*
X23639Y50300D01*
X23385D01*
X36727Y21471D02*
Y21979D01*
X36981D01*
X37065Y21894D01*
Y21725D01*
X36981Y21640D01*
X36727D01*
X36896D02*
X37065Y21471D01*
X37573Y21979D02*
X37235D01*
Y21725D01*
X37404Y21810D01*
X37489D01*
X37573Y21725D01*
Y21556D01*
X37489Y21471D01*
X37319D01*
X37235Y21556D01*
X49577Y2146D02*
Y2654D01*
X49831D01*
X49915Y2569D01*
Y2400D01*
X49831Y2315D01*
X49577D01*
X49746D02*
X49915Y2146D01*
X50339D02*
Y2654D01*
X50085Y2400D01*
X50423D01*
X34552Y40271D02*
Y40779D01*
X34806D01*
X34890Y40694D01*
Y40525D01*
X34806Y40440D01*
X34552D01*
X34721D02*
X34890Y40271D01*
X35060Y40694D02*
X35144Y40779D01*
X35314D01*
X35398Y40694D01*
Y40610D01*
X35314Y40525D01*
X35229D01*
X35314D01*
X35398Y40440D01*
Y40356D01*
X35314Y40271D01*
X35144D01*
X35060Y40356D01*
X36252Y40246D02*
Y40754D01*
X36506D01*
X36590Y40669D01*
Y40500D01*
X36506Y40415D01*
X36252D01*
X36421D02*
X36590Y40246D01*
X37098D02*
X36760D01*
X37098Y40585D01*
Y40669D01*
X37014Y40754D01*
X36844D01*
X36760Y40669D01*
X43911Y36671D02*
Y37179D01*
X44165D01*
X44250Y37094D01*
Y36925D01*
X44165Y36840D01*
X43911D01*
X44081D02*
X44250Y36671D01*
X44419D02*
X44589D01*
X44504D01*
Y37179D01*
X44419Y37094D01*
X15552Y11621D02*
Y12129D01*
X15806D01*
X15890Y12044D01*
Y11875D01*
X15806Y11790D01*
X15552D01*
X16398Y11621D02*
X16060D01*
X16398Y11960D01*
Y12044D01*
X16314Y12129D01*
X16144D01*
X16060Y12044D01*
X39336Y39204D02*
Y38696D01*
X39675D01*
X39844D02*
X40014D01*
X39929D01*
Y39204D01*
X39844Y39119D01*
X28040Y50604D02*
X27871D01*
X27956D01*
Y50181D01*
X27871Y50096D01*
X27786D01*
X27702Y50181D01*
X28464Y50096D02*
Y50604D01*
X28210Y50350D01*
X28548D01*
X23946Y72315D02*
Y72146D01*
Y72231D01*
X24369D01*
X24454Y72146D01*
Y72061D01*
X24369Y71977D01*
X24454Y72823D02*
Y72485D01*
X24115Y72823D01*
X24031D01*
X23946Y72739D01*
Y72569D01*
X24031Y72485D01*
X28300Y79404D02*
X28131D01*
X28215D01*
Y78981D01*
X28131Y78896D01*
X28046D01*
X27961Y78981D01*
X28469Y78896D02*
X28639D01*
X28554D01*
Y79404D01*
X28469Y79319D01*
X23946Y76446D02*
Y76108D01*
X24200D01*
Y76277D01*
Y76108D01*
X24454D01*
X23946Y76615D02*
X24454D01*
Y76869D01*
X24369Y76954D01*
X24285D01*
X24200Y76869D01*
Y76615D01*
Y76869D01*
X24115Y76954D01*
X24031D01*
X23946Y76869D01*
Y76615D01*
X24454Y77123D02*
Y77292D01*
Y77208D01*
X23946D01*
X24031Y77123D01*
X19300Y68354D02*
X18961D01*
Y68100D01*
X19131D01*
X18961D01*
Y67846D01*
X19469D02*
X19639D01*
X19554D01*
Y68354D01*
X19469Y68269D01*
X68436Y48644D02*
X68352Y48729D01*
X68183D01*
X68098Y48644D01*
Y48306D01*
X68183Y48221D01*
X68352D01*
X68436Y48306D01*
X68944Y48221D02*
X68606D01*
X68944Y48560D01*
Y48644D01*
X68860Y48729D01*
X68690D01*
X68606Y48644D01*
X69452Y48729D02*
X69283Y48644D01*
X69114Y48475D01*
Y48306D01*
X69198Y48221D01*
X69367D01*
X69452Y48306D01*
Y48390D01*
X69367Y48475D01*
X69114D01*
X61736Y48644D02*
X61652Y48729D01*
X61483D01*
X61398Y48644D01*
Y48306D01*
X61483Y48221D01*
X61652D01*
X61736Y48306D01*
X62244Y48221D02*
X61906D01*
X62244Y48560D01*
Y48644D01*
X62160Y48729D01*
X61990D01*
X61906Y48644D01*
X62752Y48729D02*
X62414D01*
Y48475D01*
X62583Y48560D01*
X62667D01*
X62752Y48475D01*
Y48306D01*
X62667Y48221D01*
X62498D01*
X62414Y48306D01*
X42661Y16594D02*
X42577Y16679D01*
X42408D01*
X42323Y16594D01*
Y16256D01*
X42408Y16171D01*
X42577D01*
X42661Y16256D01*
X43169Y16171D02*
X42831D01*
X43169Y16510D01*
Y16594D01*
X43085Y16679D01*
X42915D01*
X42831Y16594D01*
X43339D02*
X43423Y16679D01*
X43592D01*
X43677Y16594D01*
Y16510D01*
X43592Y16425D01*
X43508D01*
X43592D01*
X43677Y16340D01*
Y16256D01*
X43592Y16171D01*
X43423D01*
X43339Y16256D01*
X32511Y16619D02*
X32427Y16704D01*
X32258D01*
X32173Y16619D01*
Y16281D01*
X32258Y16196D01*
X32427D01*
X32511Y16281D01*
X33019Y16196D02*
X32681D01*
X33019Y16535D01*
Y16619D01*
X32935Y16704D01*
X32765D01*
X32681Y16619D01*
X33527Y16196D02*
X33189D01*
X33527Y16535D01*
Y16619D01*
X33442Y16704D01*
X33273D01*
X33189Y16619D01*
X33996Y46119D02*
X33911Y46204D01*
X33742D01*
X33658Y46119D01*
Y45781D01*
X33742Y45696D01*
X33911D01*
X33996Y45781D01*
X34504Y45696D02*
X34165D01*
X34504Y46035D01*
Y46119D01*
X34419Y46204D01*
X34250D01*
X34165Y46119D01*
X34673Y45696D02*
X34842D01*
X34758D01*
Y46204D01*
X34673Y46119D01*
X31236Y40719D02*
X31152Y40804D01*
X30983D01*
X30898Y40719D01*
Y40381D01*
X30983Y40296D01*
X31152D01*
X31236Y40381D01*
X31744Y40296D02*
X31406D01*
X31744Y40635D01*
Y40719D01*
X31660Y40804D01*
X31490D01*
X31406Y40719D01*
X31914D02*
X31998Y40804D01*
X32167D01*
X32252Y40719D01*
Y40381D01*
X32167Y40296D01*
X31998D01*
X31914Y40381D01*
Y40719D01*
X44704Y34069D02*
X44619Y34154D01*
X44450D01*
X44365Y34069D01*
Y33731D01*
X44450Y33646D01*
X44619D01*
X44704Y33731D01*
X44873Y33646D02*
X45042D01*
X44958D01*
Y34154D01*
X44873Y34069D01*
X45296Y33731D02*
X45381Y33646D01*
X45550D01*
X45635Y33731D01*
Y34069D01*
X45550Y34154D01*
X45381D01*
X45296Y34069D01*
Y33985D01*
X45381Y33900D01*
X45635D01*
X33054Y40694D02*
X32969Y40779D01*
X32800D01*
X32715Y40694D01*
Y40356D01*
X32800Y40271D01*
X32969D01*
X33054Y40356D01*
X33223Y40271D02*
X33392D01*
X33308D01*
Y40779D01*
X33223Y40694D01*
X33646D02*
X33731Y40779D01*
X33900D01*
X33985Y40694D01*
Y40610D01*
X33900Y40525D01*
X33985Y40440D01*
Y40356D01*
X33900Y40271D01*
X33731D01*
X33646Y40356D01*
Y40440D01*
X33731Y40525D01*
X33646Y40610D01*
Y40694D01*
X33731Y40525D02*
X33900D01*
X31004Y24869D02*
X30919Y24954D01*
X30750D01*
X30665Y24869D01*
Y24531D01*
X30750Y24446D01*
X30919D01*
X31004Y24531D01*
X31173Y24446D02*
X31342D01*
X31258D01*
Y24954D01*
X31173Y24869D01*
X31596Y24954D02*
X31935D01*
Y24869D01*
X31596Y24531D01*
Y24446D01*
X30704Y32269D02*
X30619Y32354D01*
X30450D01*
X30365Y32269D01*
Y31931D01*
X30450Y31846D01*
X30619D01*
X30704Y31931D01*
X30873Y31846D02*
X31042D01*
X30958D01*
Y32354D01*
X30873Y32269D01*
X31635Y32354D02*
X31466Y32269D01*
X31296Y32100D01*
Y31931D01*
X31381Y31846D01*
X31550D01*
X31635Y31931D01*
Y32015D01*
X31550Y32100D01*
X31296D01*
X35079Y21994D02*
X34994Y22079D01*
X34825D01*
X34740Y21994D01*
Y21656D01*
X34825Y21571D01*
X34994D01*
X35079Y21656D01*
X35248Y21571D02*
X35417D01*
X35333D01*
Y22079D01*
X35248Y21994D01*
X36010Y22079D02*
X35671D01*
Y21825D01*
X35841Y21910D01*
X35925D01*
X36010Y21825D01*
Y21656D01*
X35925Y21571D01*
X35756D01*
X35671Y21656D01*
X44704Y32469D02*
X44619Y32554D01*
X44450D01*
X44365Y32469D01*
Y32131D01*
X44450Y32046D01*
X44619D01*
X44704Y32131D01*
X44873Y32046D02*
X45042D01*
X44958D01*
Y32554D01*
X44873Y32469D01*
X45550Y32046D02*
Y32554D01*
X45296Y32300D01*
X45635D01*
X44029Y26294D02*
X43944Y26379D01*
X43775D01*
X43690Y26294D01*
Y25956D01*
X43775Y25871D01*
X43944D01*
X44029Y25956D01*
X44198Y25871D02*
X44367D01*
X44283D01*
Y26379D01*
X44198Y26294D01*
X44621D02*
X44706Y26379D01*
X44875D01*
X44960Y26294D01*
Y26210D01*
X44875Y26125D01*
X44791D01*
X44875D01*
X44960Y26040D01*
Y25956D01*
X44875Y25871D01*
X44706D01*
X44621Y25956D01*
X42879Y20119D02*
X42794Y20204D01*
X42625D01*
X42540Y20119D01*
Y19781D01*
X42625Y19696D01*
X42794D01*
X42879Y19781D01*
X43048Y19696D02*
X43217D01*
X43133D01*
Y20204D01*
X43048Y20119D01*
X43810Y19696D02*
X43471D01*
X43810Y20035D01*
Y20119D01*
X43725Y20204D01*
X43556D01*
X43471Y20119D01*
X38804Y21869D02*
X38719Y21954D01*
X38550D01*
X38465Y21869D01*
Y21531D01*
X38550Y21446D01*
X38719D01*
X38804Y21531D01*
X38973Y21446D02*
X39142D01*
X39058D01*
Y21954D01*
X38973Y21869D01*
X39396D02*
X39481Y21954D01*
X39650D01*
X39735Y21869D01*
Y21531D01*
X39650Y21446D01*
X39481D01*
X39396Y21531D01*
Y21869D01*
X44015Y28069D02*
X43931Y28154D01*
X43761D01*
X43677Y28069D01*
Y27731D01*
X43761Y27646D01*
X43931D01*
X44015Y27731D01*
X44185D02*
X44269Y27646D01*
X44439D01*
X44523Y27731D01*
Y28069D01*
X44439Y28154D01*
X44269D01*
X44185Y28069D01*
Y27985D01*
X44269Y27900D01*
X44523D01*
X10265Y69119D02*
X10181Y69204D01*
X10011D01*
X9927Y69119D01*
Y68781D01*
X10011Y68696D01*
X10181D01*
X10265Y68781D01*
X10435Y69119D02*
X10519Y69204D01*
X10689D01*
X10773Y69119D01*
Y69035D01*
X10689Y68950D01*
X10773Y68865D01*
Y68781D01*
X10689Y68696D01*
X10519D01*
X10435Y68781D01*
Y68865D01*
X10519Y68950D01*
X10435Y69035D01*
Y69119D01*
X10519Y68950D02*
X10689D01*
X1219Y62317D02*
X1135Y62402D01*
X965D01*
X881Y62317D01*
Y61979D01*
X965Y61894D01*
X1135D01*
X1219Y61979D01*
X1389Y62402D02*
X1727D01*
Y62317D01*
X1389Y61979D01*
Y61894D01*
X36890Y35519D02*
X36806Y35604D01*
X36636D01*
X36552Y35519D01*
Y35181D01*
X36636Y35096D01*
X36806D01*
X36890Y35181D01*
X37398Y35604D02*
X37229Y35519D01*
X37060Y35350D01*
Y35181D01*
X37144Y35096D01*
X37314D01*
X37398Y35181D01*
Y35265D01*
X37314Y35350D01*
X37060D01*
X42815Y31469D02*
X42731Y31554D01*
X42561D01*
X42477Y31469D01*
Y31131D01*
X42561Y31046D01*
X42731D01*
X42815Y31131D01*
X43323Y31554D02*
X42985D01*
Y31300D01*
X43154Y31385D01*
X43239D01*
X43323Y31300D01*
Y31131D01*
X43239Y31046D01*
X43069D01*
X42985Y31131D01*
X36940Y33944D02*
X36856Y34029D01*
X36686D01*
X36602Y33944D01*
Y33606D01*
X36686Y33521D01*
X36856D01*
X36940Y33606D01*
X37364Y33521D02*
Y34029D01*
X37110Y33775D01*
X37448D01*
X12849Y45519D02*
X12765Y45604D01*
X12595D01*
X12511Y45519D01*
Y45181D01*
X12595Y45096D01*
X12765D01*
X12849Y45181D01*
X13357Y45096D02*
X13019D01*
X13357Y45435D01*
Y45519D01*
X13273Y45604D01*
X13103D01*
X13019Y45519D01*
X12850Y61244D02*
X12765Y61329D01*
X12596D01*
X12511Y61244D01*
Y60906D01*
X12596Y60821D01*
X12765D01*
X12850Y60906D01*
X13019Y60821D02*
X13189D01*
X13104D01*
Y61329D01*
X13019Y61244D01*
X24427Y59654D02*
Y59146D01*
X24681D01*
X24765Y59231D01*
Y59315D01*
X24681Y59400D01*
X24427D01*
X24681D01*
X24765Y59485D01*
Y59569D01*
X24681Y59654D01*
X24427D01*
X25273Y59146D02*
X24935D01*
X25273Y59485D01*
Y59569D01*
X25189Y59654D01*
X25019D01*
X24935Y59569D01*
D56*
X63829Y47876D02*
G03*
X63829Y47876I-127J0D01*
G01*
D57*
X24404Y8197D02*
G03*
X23896Y8197I-254J0D01*
G01*
D02*
G03*
X24404Y8197I254J0D01*
G01*
D58*
X8700Y50950D02*
G03*
X8700Y50950I-100J0D01*
G01*
D59*
X67900Y4925D02*
G03*
X68550Y5575I0J650D01*
G01*
X61550D02*
G03*
X62200Y4925I650J0D01*
G01*
X68925Y5200D02*
X73125D01*
X58625D02*
X61100D01*
X62200Y4925D02*
X67900D01*
X65050Y4425D02*
Y4925D01*
X73175Y5200D02*
Y10450D01*
X58600Y5200D02*
Y10450D01*
X73175D01*
X-3450Y37750D02*
X1075D01*
X-3450Y29450D02*
Y37750D01*
Y29450D02*
X1075D01*
X-3150Y50400D02*
X750D01*
X-3150Y44900D02*
Y50400D01*
Y44900D02*
X750D01*
Y50400D01*
X1075Y29450D02*
Y37750D01*
X-2675Y5225D02*
Y11650D01*
X1550D01*
Y5225D02*
Y11650D01*
X-2675Y5225D02*
X1550D01*
X11804Y59650D02*
X12396D01*
X12100Y59946D02*
Y59354D01*
X20029Y44025D02*
X20621D01*
X20325Y44321D02*
Y43729D01*
X42004Y77170D02*
Y76154D01*
X42512D01*
X42681Y76323D01*
Y77000D01*
X42512Y77170D01*
X42004D01*
X43020Y76154D02*
X43358D01*
X43189D01*
Y76831D01*
X43020D01*
X43866Y76154D02*
X44374D01*
X44543Y76323D01*
X44374Y76493D01*
X44035D01*
X43866Y76662D01*
X44035Y76831D01*
X44543D01*
X45051Y77000D02*
Y76831D01*
X44882D01*
X45220D01*
X45051D01*
Y76323D01*
X45220Y76154D01*
X45897Y76831D02*
X46236D01*
X46405Y76662D01*
Y76154D01*
X45897D01*
X45728Y76323D01*
X45897Y76493D01*
X46405D01*
X46744Y76154D02*
Y76831D01*
X47252D01*
X47421Y76662D01*
Y76154D01*
X48437Y76831D02*
X47929D01*
X47759Y76662D01*
Y76323D01*
X47929Y76154D01*
X48437D01*
X49283D02*
X48944D01*
X48775Y76323D01*
Y76662D01*
X48944Y76831D01*
X49283D01*
X49452Y76662D01*
Y76493D01*
X48775D01*
X51484Y77000D02*
X51314Y77170D01*
X50976D01*
X50806Y77000D01*
Y76831D01*
X50976Y76662D01*
X51314D01*
X51484Y76493D01*
Y76323D01*
X51314Y76154D01*
X50976D01*
X50806Y76323D01*
X52330Y76154D02*
X51991D01*
X51822Y76323D01*
Y76662D01*
X51991Y76831D01*
X52330D01*
X52499Y76662D01*
Y76493D01*
X51822D01*
X52838Y76154D02*
Y76831D01*
X53346D01*
X53515Y76662D01*
Y76154D01*
X53854D02*
X54361D01*
X54531Y76323D01*
X54361Y76493D01*
X54023D01*
X53854Y76662D01*
X54023Y76831D01*
X54531D01*
X55038Y76154D02*
X55377D01*
X55546Y76323D01*
Y76662D01*
X55377Y76831D01*
X55038D01*
X54869Y76662D01*
Y76323D01*
X55038Y76154D01*
X55885Y76831D02*
Y76154D01*
Y76493D01*
X56054Y76662D01*
X56223Y76831D01*
X56393D01*
X57916Y77170D02*
Y76154D01*
X58424D01*
X58593Y76323D01*
Y76493D01*
X58424Y76662D01*
X57916D01*
X58424D01*
X58593Y76831D01*
Y77000D01*
X58424Y77170D01*
X57916D01*
X59101Y76154D02*
X59440D01*
X59609Y76323D01*
Y76662D01*
X59440Y76831D01*
X59101D01*
X58932Y76662D01*
Y76323D01*
X59101Y76154D01*
X60117Y76831D02*
X60455D01*
X60625Y76662D01*
Y76154D01*
X60117D01*
X59948Y76323D01*
X60117Y76493D01*
X60625D01*
X60963Y76831D02*
Y76154D01*
Y76493D01*
X61132Y76662D01*
X61302Y76831D01*
X61471D01*
X62656Y77170D02*
Y76154D01*
X62148D01*
X61979Y76323D01*
Y76662D01*
X62148Y76831D01*
X62656D01*
X64349Y76154D02*
X64010D01*
Y77170D01*
X64349D01*
X64857Y76831D02*
X65195Y76154D01*
X65534Y76831D01*
X66549Y76154D02*
X65872D01*
X66549Y76831D01*
Y77000D01*
X66380Y77170D01*
X66042D01*
X65872Y77000D01*
X66888Y76154D02*
X67227D01*
Y77170D01*
X66888D01*
X42029Y74493D02*
Y75170D01*
X42368Y75508D01*
X42706Y75170D01*
Y74493D01*
Y75000D01*
X42029D01*
X43045Y74493D02*
X43383D01*
X43214D01*
Y75170D01*
X43045D01*
X44568Y75508D02*
Y74493D01*
X44060D01*
X43891Y74662D01*
Y75000D01*
X44060Y75170D01*
X44568D01*
X45415Y74493D02*
X45076D01*
X44907Y74662D01*
Y75000D01*
X45076Y75170D01*
X45415D01*
X45584Y75000D01*
Y74831D01*
X44907D01*
X45922Y74493D02*
Y75170D01*
X46430D01*
X46600Y75000D01*
Y74493D01*
X48631Y75339D02*
X48462Y75508D01*
X48123D01*
X47954Y75339D01*
Y75170D01*
X48123Y75000D01*
X48462D01*
X48631Y74831D01*
Y74662D01*
X48462Y74493D01*
X48123D01*
X47954Y74662D01*
X48969Y75508D02*
Y74493D01*
Y75000D01*
X49139Y75170D01*
X49477D01*
X49647Y75000D01*
Y74493D01*
X50493D02*
X50154D01*
X49985Y74662D01*
Y75000D01*
X50154Y75170D01*
X50493D01*
X50662Y75000D01*
Y74831D01*
X49985D01*
X51001Y74154D02*
Y75170D01*
X51509D01*
X51678Y75000D01*
Y74662D01*
X51509Y74493D01*
X51001D01*
X52016D02*
X52355D01*
X52186D01*
Y75508D01*
X52016D01*
X53371Y74493D02*
X53032D01*
X52863Y74662D01*
Y75000D01*
X53032Y75170D01*
X53371D01*
X53540Y75000D01*
Y74831D01*
X52863D01*
X53879Y75170D02*
Y74493D01*
Y74831D01*
X54048Y75000D01*
X54217Y75170D01*
X54386D01*
X57704Y74554D02*
X58043D01*
X57873D01*
Y75570D01*
X57704Y75400D01*
X58550Y74554D02*
X59228Y75231D01*
X60243Y74554D02*
X59566D01*
X60243Y75231D01*
Y75400D01*
X60074Y75570D01*
X59735D01*
X59566Y75400D01*
X61259Y75570D02*
X60582D01*
Y75062D01*
X60920Y75231D01*
X61090D01*
X61259Y75062D01*
Y74723D01*
X61090Y74554D01*
X60751D01*
X60582Y74723D01*
X61597Y74554D02*
X62275Y75231D01*
X63290Y74554D02*
X62613D01*
X63290Y75231D01*
Y75400D01*
X63121Y75570D01*
X62782D01*
X62613Y75400D01*
X63629D02*
X63798Y75570D01*
X64137D01*
X64306Y75400D01*
Y74723D01*
X64137Y74554D01*
X63798D01*
X63629Y74723D01*
Y75400D01*
X65322Y74554D02*
X64644D01*
X65322Y75231D01*
Y75400D01*
X65152Y75570D01*
X64814D01*
X64644Y75400D01*
X66337Y75570D02*
X65999Y75400D01*
X65660Y75062D01*
Y74723D01*
X65829Y74554D01*
X66168D01*
X66337Y74723D01*
Y74893D01*
X66168Y75062D01*
X65660D01*
D60*
X55075Y3745D02*
G03*
X56345Y2475I1270J0D01*
G01*
X21100Y14400D02*
G03*
X22283Y15583I0J1183D01*
G01*
X53075Y-25D02*
G03*
X53875Y775I0J800D01*
G01*
X53975Y66705D02*
G03*
X52705Y67975I-1270J0D01*
G01*
X21400Y69230D02*
G03*
X20130Y70500I-1270J0D01*
G01*
X23570Y68100D02*
G03*
X22300Y66830I0J-1270D01*
G01*
X56445Y50075D02*
G03*
X55175Y48805I0J-1270D01*
G01*
X20198Y15300D02*
G03*
X21381Y16484I0J1183D01*
G01*
X21400Y38396D02*
G03*
X20078Y39718I-1322J0D01*
G01*
X20048Y40998D02*
G03*
X21400Y42349I0J1352D01*
G01*
X49200Y-25D02*
X53075D01*
X3750Y0D02*
X21800Y43D01*
X56345Y2475D02*
X73975D01*
X-2500Y70489D02*
X14200Y70495D01*
X21400Y42349D02*
X21400Y69300D01*
X22283Y15600D02*
X22300Y66800D01*
X55075Y28575D02*
X55075Y3845D01*
X-2600Y14360D02*
X21200Y14402D01*
X53875Y50750D02*
X53875Y750D01*
X43625Y67975D02*
X52675D01*
X23500Y68100D02*
X26900D01*
X56445Y50075D02*
X73875D01*
X-2500Y15260D02*
X20198Y15300D01*
X-2500Y40989D02*
X20048Y40998D01*
X-2500Y39689D02*
X3500Y39700D01*
X21381Y16484D02*
X21400Y38396D01*
D61*
X5674Y65018D02*
Y66045D01*
Y65018D02*
X7325D01*
X5674Y67243D02*
Y68270D01*
X7325D01*
Y66293D02*
Y66995D01*
X13859Y41625D02*
Y43096D01*
X18609Y44904D02*
Y46375D01*
Y41625D02*
Y43096D01*
X13859Y41625D02*
X18609D01*
X13859Y44904D02*
Y46375D01*
X18609D01*
X57752Y11130D02*
Y16616D01*
Y11130D02*
X74059D01*
Y16616D01*
X57752D02*
X74059D01*
X31069Y47848D02*
Y48169D01*
X25431Y42531D02*
Y42852D01*
Y47848D02*
Y48169D01*
X31069D01*
Y42531D02*
Y42852D01*
X25431Y42531D02*
X31069D01*
X64350Y44574D02*
X66356D01*
Y45862D02*
Y46588D01*
X64350Y47876D02*
X66356D01*
X22753Y2254D02*
Y7486D01*
X48407D01*
Y2254D02*
Y7486D01*
X22753Y2254D02*
X48407D01*
X57752Y23407D02*
X74059D01*
Y17921D02*
Y23407D01*
X57752Y17921D02*
X74059D01*
X57752D02*
Y23407D01*
X57785Y30216D02*
X74092D01*
Y24730D02*
Y30216D01*
X57785Y24730D02*
X74092D01*
X57785D02*
Y30216D01*
X57785Y37007D02*
X74092D01*
Y31521D02*
Y37007D01*
X57785Y31521D02*
X74092D01*
X57785D02*
Y37007D01*
X13859Y57275D02*
X18609D01*
Y58746D01*
X13859Y62025D02*
X18609D01*
X13859Y60554D02*
Y62025D01*
Y57275D02*
Y58746D01*
X18609Y60554D02*
Y62025D01*
D62*
X64850Y5525D02*
X64856Y9913D01*
X22300Y-1800D02*
Y1675D01*
X48800D01*
X22300Y-1800D02*
X48800D01*
Y1675D01*
X53574Y66022D02*
X54463D01*
X54167Y65726D01*
X54463Y65429D01*
X53574D01*
X54315Y64541D02*
X54463Y64689D01*
Y64985D01*
X54315Y65133D01*
X53723D01*
X53574Y64985D01*
Y64689D01*
X53723Y64541D01*
X54463Y64244D02*
X53723D01*
X53574Y64096D01*
Y63800D01*
X53723Y63652D01*
X54463D01*
X53574Y61874D02*
X53723Y62023D01*
X53574Y62171D01*
Y62319D01*
X53723Y62467D01*
X53871D01*
X54019Y62319D01*
X54167Y62467D01*
X54315D01*
X54463Y62319D01*
Y62171D01*
X54315Y62023D01*
X54167D01*
X54019Y62171D01*
X53871Y62023D01*
X53723D01*
X54019Y61874D02*
X53871Y62023D01*
X54019Y62319D02*
Y62171D01*
X53574Y60690D02*
X54463D01*
Y60245D01*
X54315Y60097D01*
X54019D01*
X53871Y60245D01*
Y60690D01*
X53574Y59356D02*
Y59653D01*
X53723Y59801D01*
X54019D01*
X54167Y59653D01*
Y59356D01*
X54019Y59208D01*
X53871D01*
Y59801D01*
X54167Y58912D02*
X53574D01*
X53871D01*
X54019Y58764D01*
X54167Y58616D01*
Y58468D01*
X53574Y58023D02*
Y57727D01*
Y57875D01*
X54167D01*
Y58023D01*
X53278Y57283D02*
X54167D01*
Y56838D01*
X54019Y56690D01*
X53723D01*
X53574Y56838D01*
Y57283D01*
X54463Y56394D02*
X53574D01*
X54019D01*
X54167Y56246D01*
Y55950D01*
X54019Y55802D01*
X53574D01*
Y55061D02*
Y55357D01*
X53723Y55505D01*
X54019D01*
X54167Y55357D01*
Y55061D01*
X54019Y54913D01*
X53871D01*
Y55505D01*
X54167Y54617D02*
X53574D01*
X53871D01*
X54019Y54469D01*
X54167Y54320D01*
Y54172D01*
Y53580D02*
Y53284D01*
X54019Y53135D01*
X53574D01*
Y53580D01*
X53723Y53728D01*
X53871Y53580D01*
Y53135D01*
X53574Y52839D02*
Y52543D01*
Y52691D01*
X54463D01*
Y52839D01*
X53574Y52099D02*
Y51654D01*
X53723Y51506D01*
X53871Y51654D01*
Y51951D01*
X54019Y52099D01*
X54167Y51951D01*
Y51506D01*
X72377Y7865D02*
Y8457D01*
X71933D01*
X72081Y8161D01*
Y8013D01*
X71933Y7865D01*
X71636D01*
X71488Y8013D01*
Y8309D01*
X71636Y8457D01*
X72377Y7568D02*
X71784D01*
X71488Y7272D01*
X71784Y6976D01*
X72377D01*
X70222Y8309D02*
X70370Y8457D01*
Y8753D01*
X70222Y8901D01*
X69630D01*
X69482Y8753D01*
Y8457D01*
X69630Y8309D01*
X69926D01*
Y8605D01*
X69482Y8013D02*
X70370D01*
X69482Y7420D01*
X70370D01*
Y7124D02*
X69482D01*
Y6680D01*
X69630Y6532D01*
X70222D01*
X70370Y6680D01*
Y7124D01*
X68319Y9179D02*
X68467Y9327D01*
Y9624D01*
X68319Y9772D01*
X68171D01*
X68023Y9624D01*
Y9327D01*
X67874Y9179D01*
X67726D01*
X67578Y9327D01*
Y9624D01*
X67726Y9772D01*
X68319Y8291D02*
X68467Y8439D01*
Y8735D01*
X68319Y8883D01*
X67726D01*
X67578Y8735D01*
Y8439D01*
X67726Y8291D01*
X68467Y7994D02*
X67578D01*
Y7402D01*
X59499Y8827D02*
Y8531D01*
Y8679D01*
X60388D01*
X60240Y8827D01*
X60388Y8087D02*
X59796D01*
X59499Y7791D01*
X59796Y7494D01*
X60388D01*
X60240Y7198D02*
X60388Y7050D01*
Y6754D01*
X60240Y6606D01*
X60092D01*
X59944Y6754D01*
X59796Y6606D01*
X59648D01*
X59499Y6754D01*
Y7050D01*
X59648Y7198D01*
X59796D01*
X59944Y7050D01*
X60092Y7198D01*
X60240D01*
X59944Y7050D02*
Y6754D01*
X64376Y9790D02*
X63487Y9198D01*
X64376D02*
X63487Y9790D01*
X64228Y8309D02*
X64376Y8457D01*
Y8753D01*
X64228Y8901D01*
X64080D01*
X63932Y8753D01*
Y8457D01*
X63783Y8309D01*
X63635D01*
X63487Y8457D01*
Y8753D01*
X63635Y8901D01*
X64376Y8013D02*
X63487D01*
X63932D01*
Y7420D01*
X64376D01*
X63487D01*
X64376Y7124D02*
X63635D01*
X63487Y6976D01*
Y6680D01*
X63635Y6532D01*
X64376D01*
Y6235D02*
Y5643D01*
Y5939D01*
X63487D01*
X66219Y9179D02*
X66367Y9327D01*
Y9624D01*
X66219Y9772D01*
X66071D01*
X65923Y9624D01*
Y9327D01*
X65774Y9179D01*
X65626D01*
X65478Y9327D01*
Y9624D01*
X65626Y9772D01*
X66367Y8883D02*
X65478D01*
Y8439D01*
X65626Y8291D01*
X66219D01*
X66367Y8439D01*
Y8883D01*
X65478Y7994D02*
X66071D01*
X66367Y7698D01*
X66071Y7402D01*
X65478D01*
X65923D01*
Y7994D01*
X62369Y9272D02*
Y8976D01*
Y9124D01*
X61481D01*
Y9272D01*
Y8976D01*
Y8531D02*
X62369D01*
X61481Y7939D01*
X62369D01*
Y7642D02*
Y7050D01*
Y7346D01*
X61481D01*
X62221Y6754D02*
X62369Y6606D01*
Y6309D01*
X62221Y6161D01*
X61629D01*
X61481Y6309D01*
Y6606D01*
X61629Y6754D01*
X62221D01*
X15103Y70203D02*
Y71092D01*
X15548D01*
X15696Y70944D01*
Y70648D01*
X15548Y70499D01*
X15103D01*
X16140Y70203D02*
X16436D01*
X16584Y70351D01*
Y70648D01*
X16436Y70796D01*
X16140D01*
X15992Y70648D01*
Y70351D01*
X16140Y70203D01*
X16881Y70796D02*
Y70351D01*
X17029Y70203D01*
X17177Y70351D01*
X17325Y70203D01*
X17473Y70351D01*
Y70796D01*
X18214Y70203D02*
X17917D01*
X17769Y70351D01*
Y70648D01*
X17917Y70796D01*
X18214D01*
X18362Y70648D01*
Y70499D01*
X17769D01*
X18658Y70796D02*
Y70203D01*
Y70499D01*
X18806Y70648D01*
X18954Y70796D01*
X19102D01*
X55663Y47872D02*
Y47279D01*
Y47576D01*
X54774D01*
Y46983D02*
Y46687D01*
Y46835D01*
X55367D01*
Y46983D01*
X54774Y46243D02*
X55367D01*
Y46094D01*
X55219Y45946D01*
X54774D01*
X55219D01*
X55367Y45798D01*
X55219Y45650D01*
X54774D01*
Y44909D02*
Y45206D01*
X54923Y45354D01*
X55219D01*
X55367Y45206D01*
Y44909D01*
X55219Y44761D01*
X55071D01*
Y45354D01*
X54774Y43428D02*
Y43132D01*
X54923Y42984D01*
X55219D01*
X55367Y43132D01*
Y43428D01*
X55219Y43576D01*
X54923D01*
X54774Y43428D01*
Y42540D02*
X55515D01*
X55219D01*
Y42688D01*
Y42391D01*
Y42540D01*
X55515D01*
X55663Y42391D01*
Y40466D02*
Y41058D01*
X55219D01*
Y40762D01*
Y41058D01*
X54774D01*
Y40170D02*
Y39873D01*
Y40022D01*
X55663D01*
Y40170D01*
X54774Y39429D02*
Y39133D01*
Y39281D01*
X55367D01*
Y39429D01*
X54478Y38392D02*
Y38244D01*
X54626Y38096D01*
X55367D01*
Y38540D01*
X55219Y38688D01*
X54923D01*
X54774Y38540D01*
Y38096D01*
X55663Y37800D02*
X54774D01*
X55219D01*
X55367Y37652D01*
Y37355D01*
X55219Y37207D01*
X54774D01*
X55515Y36763D02*
X55367D01*
Y36911D01*
Y36615D01*
Y36763D01*
X54923D01*
X54774Y36615D01*
X55515Y34689D02*
X55663Y34837D01*
Y35134D01*
X55515Y35282D01*
X55367D01*
X55219Y35134D01*
Y34837D01*
X55071Y34689D01*
X54923D01*
X54774Y34837D01*
Y35134D01*
X54923Y35282D01*
X54774Y33949D02*
Y34245D01*
X54923Y34393D01*
X55219D01*
X55367Y34245D01*
Y33949D01*
X55219Y33801D01*
X55071D01*
Y34393D01*
X54774Y33504D02*
X55367D01*
Y33060D01*
X55219Y32912D01*
X54774D01*
Y32616D02*
Y32171D01*
X54923Y32023D01*
X55071Y32171D01*
Y32467D01*
X55219Y32616D01*
X55367Y32467D01*
Y32023D01*
X54774Y31579D02*
Y31282D01*
X54923Y31134D01*
X55219D01*
X55367Y31282D01*
Y31579D01*
X55219Y31727D01*
X54923D01*
X54774Y31579D01*
X55367Y30838D02*
X54774D01*
X55071D01*
X55219Y30690D01*
X55367Y30542D01*
Y30394D01*
X54774Y29949D02*
Y29505D01*
X54923Y29357D01*
X55071Y29505D01*
Y29801D01*
X55219Y29949D01*
X55367Y29801D01*
Y29357D01*
X-1415Y37094D02*
X-2007D01*
Y36650D01*
X-1711Y36798D01*
X-1563D01*
X-1415Y36650D01*
Y36354D01*
X-1563Y36206D01*
X-1859D01*
X-2007Y36354D01*
X-1118Y37094D02*
Y36502D01*
X-822Y36206D01*
X-526Y36502D01*
Y37094D01*
X-1804Y46769D02*
X-1952Y46917D01*
X-2249D01*
X-2397Y46769D01*
Y46176D01*
X-2249Y46028D01*
X-1952D01*
X-1804Y46176D01*
Y46473D01*
X-2101D01*
X-1508Y46028D02*
Y46917D01*
X-916Y46028D01*
Y46917D01*
X-619D02*
Y46028D01*
X-175D01*
X-27Y46176D01*
Y46769D01*
X-175Y46917D01*
X-619D01*
X-1304Y49117D02*
X-1897D01*
Y48673D01*
X-1601Y48821D01*
X-1452D01*
X-1304Y48673D01*
Y48376D01*
X-1452Y48228D01*
X-1749D01*
X-1897Y48376D01*
X-1008Y49117D02*
Y48524D01*
X-712Y48228D01*
X-416Y48524D01*
Y49117D01*
X-1859Y30946D02*
X-2007Y31094D01*
X-2303D01*
X-2451Y30946D01*
Y30354D01*
X-2303Y30206D01*
X-2007D01*
X-1859Y30354D01*
Y30650D01*
X-2155D01*
X-1563Y30206D02*
Y31094D01*
X-970Y30206D01*
Y31094D01*
X-674D02*
Y30206D01*
X-230D01*
X-82Y30354D01*
Y30946D01*
X-230Y31094D01*
X-674D01*
X-2154Y33117D02*
X-2747D01*
Y32228D01*
X-2154D01*
X-2747Y32673D02*
X-2451D01*
X-1266Y32969D02*
X-1414Y33117D01*
X-1710D01*
X-1858Y32969D01*
Y32376D01*
X-1710Y32228D01*
X-1414D01*
X-1266Y32376D01*
X-969Y33117D02*
Y32228D01*
Y32673D01*
X-377D01*
Y33117D01*
Y32228D01*
X364Y33117D02*
X67D01*
X-81Y32969D01*
Y32376D01*
X67Y32228D01*
X364D01*
X512Y32376D01*
Y32969D01*
X364Y33117D01*
X-2847Y35117D02*
X-2254D01*
X-2551D01*
Y34228D01*
X-1958D02*
Y35117D01*
X-1514D01*
X-1366Y34969D01*
Y34673D01*
X-1514Y34524D01*
X-1958D01*
X-1662D02*
X-1366Y34228D01*
X-1069Y35117D02*
X-773D01*
X-921D01*
Y34228D01*
X-1069D01*
X-773D01*
X264Y34969D02*
X116Y35117D01*
X-181D01*
X-329Y34969D01*
Y34376D01*
X-181Y34228D01*
X116D01*
X264Y34376D01*
Y34673D01*
X-33D01*
X4103Y40192D02*
Y39451D01*
X4251Y39303D01*
X4548D01*
X4696Y39451D01*
Y40192D01*
X4992Y39303D02*
X5288D01*
X5140D01*
Y40192D01*
X4992D01*
X5881Y40044D02*
Y39896D01*
X5733D01*
X6029D01*
X5881D01*
Y39451D01*
X6029Y39303D01*
X6473Y39896D02*
Y39303D01*
Y39599D01*
X6621Y39748D01*
X6769Y39896D01*
X6917D01*
X7510D02*
X7806D01*
X7954Y39748D01*
Y39303D01*
X7510D01*
X7362Y39451D01*
X7510Y39599D01*
X7954D01*
X8251Y39303D02*
X8695D01*
X8843Y39451D01*
X8695Y39599D01*
X8399D01*
X8251Y39748D01*
X8399Y39896D01*
X8843D01*
X9287Y39303D02*
X9584D01*
X9732Y39451D01*
Y39748D01*
X9584Y39896D01*
X9287D01*
X9139Y39748D01*
Y39451D01*
X9287Y39303D01*
X10028D02*
Y39896D01*
X10472D01*
X10620Y39748D01*
Y39303D01*
X10917D02*
X11213D01*
X11065D01*
Y39896D01*
X10917D01*
X12250D02*
X11805D01*
X11657Y39748D01*
Y39451D01*
X11805Y39303D01*
X12250D01*
X14027Y40044D02*
X13879Y40192D01*
X13583D01*
X13435Y40044D01*
Y39896D01*
X13583Y39748D01*
X13879D01*
X14027Y39599D01*
Y39451D01*
X13879Y39303D01*
X13583D01*
X13435Y39451D01*
X14768Y39303D02*
X14472D01*
X14323Y39451D01*
Y39748D01*
X14472Y39896D01*
X14768D01*
X14916Y39748D01*
Y39599D01*
X14323D01*
X15212Y39303D02*
Y39896D01*
X15656D01*
X15805Y39748D01*
Y39303D01*
X16101D02*
X16545D01*
X16693Y39451D01*
X16545Y39599D01*
X16249D01*
X16101Y39748D01*
X16249Y39896D01*
X16693D01*
X17138Y39303D02*
X17434D01*
X17582Y39451D01*
Y39748D01*
X17434Y39896D01*
X17138D01*
X16990Y39748D01*
Y39451D01*
X17138Y39303D01*
X17878Y39896D02*
Y39303D01*
Y39599D01*
X18026Y39748D01*
X18174Y39896D01*
X18323D01*
X18767Y39303D02*
X19211D01*
X19359Y39451D01*
X19211Y39599D01*
X18915D01*
X18767Y39748D01*
X18915Y39896D01*
X19359D01*
X-1877Y9858D02*
Y10746D01*
X-1432D01*
X-1284Y10598D01*
Y10302D01*
X-1432Y10154D01*
X-1877D01*
X-988Y11042D02*
X-395D01*
X-692D01*
Y10154D01*
X-99Y11042D02*
X493Y10154D01*
Y11042D02*
X-99Y10154D01*
X-1284Y6746D02*
X-1432Y6894D01*
X-1728D01*
X-1877Y6746D01*
Y6154D01*
X-1728Y6006D01*
X-1432D01*
X-1284Y6154D01*
Y6450D01*
X-1580D01*
X-988Y6006D02*
Y6894D01*
X-395Y6006D01*
Y6894D01*
X-99D02*
Y6006D01*
X345D01*
X493Y6154D01*
Y6746D01*
X345Y6894D01*
X-99D01*
X-1877Y7858D02*
Y8746D01*
X-1432D01*
X-1284Y8598D01*
Y8302D01*
X-1432Y8154D01*
X-1877D01*
X-988D02*
Y9042D01*
X-543D01*
X-395Y8894D01*
Y8598D01*
X-543Y8450D01*
X-988D01*
X-692D02*
X-395Y8154D01*
X-99Y9042D02*
X493Y8154D01*
Y9042D02*
X-99Y8154D01*
X5094Y69949D02*
Y69209D01*
X5242Y69061D01*
X5538D01*
X5686Y69209D01*
Y69949D01*
X5983Y69209D02*
X6131Y69061D01*
X6427D01*
X6575Y69209D01*
Y69801D01*
X6427Y69949D01*
X6131D01*
X5983Y69801D01*
Y69653D01*
X6131Y69505D01*
X6575D01*
X16794Y21960D02*
X16054D01*
X15906Y21812D01*
Y21516D01*
X16054Y21367D01*
X16794D01*
X16646Y20479D02*
X16794Y20627D01*
Y20923D01*
X16646Y21071D01*
X16498D01*
X16350Y20923D01*
Y20627D01*
X16202Y20479D01*
X16054D01*
X15906Y20627D01*
Y20923D01*
X16054Y21071D01*
X15906Y19738D02*
X16794D01*
X16350Y20183D01*
Y19590D01*
X8519Y22285D02*
X7779D01*
X7631Y22137D01*
Y21841D01*
X7779Y21692D01*
X8519D01*
X8371Y20804D02*
X8519Y20952D01*
Y21248D01*
X8371Y21396D01*
X8223D01*
X8075Y21248D01*
Y20952D01*
X7927Y20804D01*
X7779D01*
X7631Y20952D01*
Y21248D01*
X7779Y21396D01*
X8371Y20508D02*
X8519Y20359D01*
Y20063D01*
X8371Y19915D01*
X8223D01*
X8075Y20063D01*
Y20211D01*
Y20063D01*
X7927Y19915D01*
X7779D01*
X7631Y20063D01*
Y20359D01*
X7779Y20508D01*
X16494Y34710D02*
X15754D01*
X15606Y34562D01*
Y34266D01*
X15754Y34117D01*
X16494D01*
X16346Y33229D02*
X16494Y33377D01*
Y33673D01*
X16346Y33821D01*
X16198D01*
X16050Y33673D01*
Y33377D01*
X15902Y33229D01*
X15754D01*
X15606Y33377D01*
Y33673D01*
X15754Y33821D01*
X15606Y32340D02*
Y32933D01*
X16198Y32340D01*
X16346D01*
X16494Y32488D01*
Y32784D01*
X16346Y32933D01*
X8319Y34737D02*
X7579D01*
X7431Y34589D01*
Y34292D01*
X7579Y34144D01*
X8319D01*
X8171Y33256D02*
X8319Y33404D01*
Y33700D01*
X8171Y33848D01*
X8023D01*
X7875Y33700D01*
Y33404D01*
X7727Y33256D01*
X7579D01*
X7431Y33404D01*
Y33700D01*
X7579Y33848D01*
X7431Y32959D02*
Y32663D01*
Y32811D01*
X8319D01*
X8171Y32959D01*
X57219Y15304D02*
Y14712D01*
Y15008D01*
X56331D01*
Y14267D02*
Y13971D01*
X56479Y13823D01*
X56775D01*
X56923Y13971D01*
Y14267D01*
X56775Y14416D01*
X56479D01*
X56331Y14267D01*
X57219Y12934D02*
Y13527D01*
X56775D01*
Y13231D01*
Y13527D01*
X56331D01*
Y12194D02*
X57219D01*
X56775Y12638D01*
Y12046D01*
X57319Y22104D02*
Y21512D01*
Y21808D01*
X56431D01*
Y21067D02*
Y20771D01*
X56579Y20623D01*
X56875D01*
X57023Y20771D01*
Y21067D01*
X56875Y21216D01*
X56579D01*
X56431Y21067D01*
X57319Y19734D02*
Y20327D01*
X56875D01*
Y20031D01*
Y20327D01*
X56431D01*
X57171Y19438D02*
X57319Y19290D01*
Y18994D01*
X57171Y18846D01*
X57023D01*
X56875Y18994D01*
Y19142D01*
Y18994D01*
X56727Y18846D01*
X56579D01*
X56431Y18994D01*
Y19290D01*
X56579Y19438D01*
X57319Y28904D02*
Y28312D01*
Y28608D01*
X56431D01*
Y27867D02*
Y27571D01*
X56579Y27423D01*
X56875D01*
X57023Y27571D01*
Y27867D01*
X56875Y28016D01*
X56579D01*
X56431Y27867D01*
X57319Y26534D02*
Y27127D01*
X56875D01*
Y26831D01*
Y27127D01*
X56431D01*
Y25646D02*
Y26238D01*
X57023Y25646D01*
X57171D01*
X57319Y25794D01*
Y26090D01*
X57171Y26238D01*
X57319Y35556D02*
Y34964D01*
Y35260D01*
X56431D01*
Y34519D02*
Y34223D01*
X56579Y34075D01*
X56875D01*
X57023Y34223D01*
Y34519D01*
X56875Y34667D01*
X56579D01*
X56431Y34519D01*
X57319Y33186D02*
Y33779D01*
X56875D01*
Y33483D01*
Y33779D01*
X56431D01*
Y32890D02*
Y32594D01*
Y32742D01*
X57319D01*
X57171Y32890D01*
%TF.MD5,8ce70e5aadff1b935e6f315af24a35a5*%
M02*
