%TF.GenerationSoftware,Altium Limited,Altium Designer,25.2.1 (25)*%
G04 Layer_Color=16711935*
%FSLAX43Y43*%
%MOMM*%
%TF.SameCoordinates,5E82134D-FD09-4B07-97D7-8D5D892D8837*%
%TF.FilePolarity,Positive*%
%TF.FileFunction,Keep-out,Top*%
%TF.Part,Single*%
G01*
G75*
%TA.AperFunction,NonConductor*%
%ADD91C,0.500*%
G36*
X16996Y44622D02*
Y43378D01*
X15472D01*
Y44622D01*
X16996D01*
D02*
G37*
G36*
X15472Y59028D02*
Y60272D01*
X16996D01*
Y59028D01*
X15472D01*
D02*
G37*
D91*
X72398Y78602D02*
G03*
X70230Y79500I-2168J-2168D01*
G01*
X-730D02*
G03*
X-2898Y78602I0J-3066D01*
G01*
X73500Y76230D02*
G03*
X72602Y78398I-3066J0D01*
G01*
X-3102Y78398D02*
G03*
X-4000Y76230I2168J-2168D01*
G01*
X72602Y-2898D02*
G03*
X73500Y-730I-2168J2168D01*
G01*
X70230Y-4000D02*
G03*
X72398Y-3102I0J3066D01*
G01*
X-2898D02*
G03*
X-730Y-4000I2168J2168D01*
G01*
X-4000Y-730D02*
G03*
X-3102Y-2898I3066J0D01*
G01*
X-730Y79500D02*
X70230D01*
X-3102Y78398D02*
X-2898Y78602D01*
X72398D02*
X72602Y78398D01*
X73500Y-730D02*
Y76230D01*
X-4000Y-730D02*
Y76230D01*
X-3102Y-2898D02*
X-2898Y-3102D01*
X72398D02*
X72602Y-2898D01*
X-500Y-4000D02*
X70230D01*
%TF.MD5,51759dec5135bfc280ad47e3269afe6f*%
M02*
