%TF.GenerationSoftware,Altium Limited,Altium Designer,25.2.1 (25)*%
G04 Layer_Color=16711833*
%FSLAX43Y43*%
%MOMM*%
%TF.SameCoordinates,5E82134D-FD09-4B07-97D7-8D5D892D8837*%
%TF.FilePolarity,Positive*%
%TF.FileFunction,Other,Mechanical_13*%
%TF.Part,Single*%
G01*
G75*
%TA.AperFunction,NonConductor*%
%ADD51C,0.200*%
%ADD54C,0.127*%
%ADD55C,0.100*%
%ADD57C,0.152*%
%ADD92C,0.000*%
%ADD93C,0.025*%
%ADD94C,0.050*%
G36*
X6564Y65513D02*
Y64929D01*
X6106D01*
Y65513D01*
X6564D01*
D02*
G37*
G36*
X7503Y67521D02*
Y66936D01*
X7047D01*
Y67521D01*
X7503D01*
D02*
G37*
G36*
X8445Y65514D02*
Y64928D01*
X7986D01*
Y65514D01*
X8445D01*
D02*
G37*
G36*
X12700Y66925D02*
X12726Y66926D01*
X12752Y66928D01*
X12778Y66931D01*
X12804Y66936D01*
X12829Y66942D01*
X12855Y66949D01*
X12879Y66958D01*
X12903Y66968D01*
X12927Y66979D01*
X12950Y66992D01*
X12972Y67006D01*
X12994Y67020D01*
X13015Y67036D01*
X13035Y67053D01*
X13054Y67071D01*
X13072Y67090D01*
X13089Y67110D01*
X13105Y67131D01*
X13119Y67153D01*
X13133Y67175D01*
X13146Y67198D01*
X13157Y67222D01*
X13167Y67246D01*
X13176Y67270D01*
X13183Y67296D01*
X13189Y67321D01*
X13194Y67347D01*
X13197Y67373D01*
X13199Y67399D01*
X13200Y67425D01*
X13199Y67451D01*
X13197Y67477D01*
X13194Y67503D01*
X13189Y67529D01*
X13183Y67554D01*
X13176Y67580D01*
X13167Y67604D01*
X13157Y67628D01*
X13146Y67652D01*
X13133Y67675D01*
X13119Y67697D01*
X13105Y67719D01*
X13089Y67740D01*
X13072Y67760D01*
X13054Y67779D01*
X13035Y67797D01*
X13015Y67814D01*
X12994Y67830D01*
X12972Y67844D01*
X12950Y67858D01*
X12927Y67871D01*
X12903Y67882D01*
X12879Y67892D01*
X12855Y67901D01*
X12829Y67908D01*
X12804Y67914D01*
X12778Y67919D01*
X12752Y67922D01*
X12726Y67924D01*
X12700Y67925D01*
Y69025D01*
X13700D01*
Y65825D01*
X12700D01*
Y66925D01*
D02*
G37*
G36*
X16400Y69025D02*
X17300D01*
Y67925D01*
X17274Y67924D01*
X17248Y67922D01*
X17222Y67919D01*
X17196Y67914D01*
X17171Y67908D01*
X17145Y67901D01*
X17121Y67892D01*
X17097Y67882D01*
X17073Y67871D01*
X17050Y67858D01*
X17028Y67844D01*
X17006Y67830D01*
X16985Y67814D01*
X16965Y67797D01*
X16946Y67779D01*
X16928Y67760D01*
X16911Y67740D01*
X16895Y67719D01*
X16881Y67697D01*
X16867Y67675D01*
X16854Y67652D01*
X16843Y67628D01*
X16833Y67604D01*
X16824Y67580D01*
X16817Y67554D01*
X16811Y67529D01*
X16806Y67503D01*
X16803Y67477D01*
X16801Y67451D01*
X16800Y67425D01*
X16801Y67399D01*
X16803Y67373D01*
X16806Y67347D01*
X16811Y67321D01*
X16817Y67296D01*
X16824Y67270D01*
X16833Y67246D01*
X16843Y67222D01*
X16854Y67198D01*
X16867Y67175D01*
X16881Y67153D01*
X16895Y67131D01*
X16911Y67110D01*
X16928Y67090D01*
X16946Y67071D01*
X16965Y67053D01*
X16985Y67036D01*
X17006Y67020D01*
X17028Y67006D01*
X17050Y66992D01*
X17073Y66979D01*
X17097Y66968D01*
X17121Y66958D01*
X17145Y66949D01*
X17171Y66942D01*
X17196Y66936D01*
X17222Y66931D01*
X17248Y66928D01*
X17274Y66926D01*
X17300Y66925D01*
Y65825D01*
X16400D01*
Y69025D01*
D02*
G37*
D51*
X28700Y63450D02*
G03*
X28700Y63450I-100J0D01*
G01*
X33310Y30336D02*
G03*
X33310Y30336I-100J0D01*
G01*
X36875Y10880D02*
G03*
X36875Y10880I-100J0D01*
G01*
X32105Y59950D02*
G03*
X32105Y59950I-100J0D01*
G01*
X39720D02*
G03*
X39720Y59950I-100J0D01*
G01*
X66890Y40225D02*
G03*
X66890Y40225I-100J0D01*
G01*
D54*
X12700Y66925D02*
G03*
X12700Y67925I0J500D01*
G01*
X17300D02*
G03*
X17300Y66925I0J-500D01*
G01*
X34170Y24036D02*
X41170D01*
X34170Y31036D02*
X41170D01*
Y24036D02*
Y31036D01*
X34170Y24036D02*
Y31036D01*
X36325Y11775D02*
X39525D01*
Y14275D01*
X36325D02*
X39525D01*
X36325Y11775D02*
Y14275D01*
X19891Y49825D02*
Y53325D01*
X13391D02*
X19891D01*
X13391Y49825D02*
Y53325D01*
Y49825D02*
X19891D01*
X5125Y59978D02*
X9025D01*
X5125Y55072D02*
X9025D01*
X5125D02*
Y59978D01*
X9025Y55072D02*
Y59978D01*
X6525Y66875D02*
X8025D01*
X5825Y65575D02*
Y66075D01*
Y65575D02*
X7025D01*
X7525D02*
X8725D01*
Y66075D01*
X33420Y60380D02*
X35020D01*
Y59520D02*
Y60380D01*
X33420Y59520D02*
X35020D01*
X33420D02*
Y60380D01*
X38205Y59520D02*
Y60380D01*
X36605D02*
X38205D01*
X36605Y59520D02*
Y60380D01*
Y59520D02*
X38205D01*
X17300Y65825D02*
Y66925D01*
Y67925D02*
Y69025D01*
X16150D02*
X17300D01*
X12700D02*
X13950D01*
X12700Y67925D02*
Y69025D01*
Y65825D02*
Y66925D01*
Y65825D02*
X13950D01*
X16150D02*
X17300D01*
X62200Y40125D02*
X65000D01*
X62200Y43075D02*
X65000D01*
Y40125D02*
Y43075D01*
X62200Y40125D02*
Y43075D01*
D55*
X41400Y62350D02*
Y78550D01*
X29300D02*
X41400D01*
X29300Y62350D02*
Y78550D01*
Y62350D02*
X41400D01*
X2850Y42170D02*
Y52330D01*
X10950Y42170D02*
Y52330D01*
X8800D02*
X10950D01*
X2850D02*
X8290D01*
X3960Y42170D02*
X10950D01*
X2850D02*
X3450D01*
X8030Y52930D02*
X9060D01*
X3190Y41570D02*
X4220D01*
X8800Y52330D02*
X9060Y52930D01*
X8030D02*
X8290Y52330D01*
X3960Y42170D02*
X4220Y41570D01*
X3190D02*
X3450Y42170D01*
X68225Y11089D02*
X69975D01*
X68225Y12039D02*
X69975D01*
X68225Y11089D02*
Y12039D01*
X69975Y11089D02*
Y12039D01*
X68225Y31525D02*
X69975D01*
X68225Y32475D02*
X69975D01*
X68225Y31525D02*
Y32475D01*
X69975Y31525D02*
Y32475D01*
X56281Y31525D02*
X58031D01*
X56281Y32475D02*
X58031D01*
X56281Y31525D02*
Y32475D01*
X58031Y31525D02*
Y32475D01*
X68150Y17925D02*
X69900D01*
X68150Y18875D02*
X69900D01*
X68150Y17925D02*
Y18875D01*
X69900Y17925D02*
Y18875D01*
X68181Y24689D02*
X69931D01*
X68181Y25639D02*
X69931D01*
X68181Y24689D02*
Y25639D01*
X69931Y24689D02*
Y25639D01*
X56225Y17925D02*
X57975D01*
X56225Y18875D02*
X57975D01*
X56225Y17925D02*
Y18875D01*
X57975Y17925D02*
Y18875D01*
X56256Y24689D02*
X58006D01*
X56256Y25639D02*
X58006D01*
X56256Y24689D02*
Y25639D01*
X58006Y24689D02*
Y25639D01*
X56250Y11089D02*
X58000D01*
X56250Y12039D02*
X58000D01*
X56250Y11089D02*
Y12039D01*
X58000Y11089D02*
Y12039D01*
X5125Y46400D02*
Y48150D01*
X4175Y46400D02*
Y48150D01*
Y46400D02*
X5125D01*
X4175Y48150D02*
X5125D01*
X9625Y34950D02*
Y36700D01*
X8675Y34950D02*
Y36700D01*
Y34950D02*
X9625D01*
X8675Y36700D02*
X9625D01*
X17975Y34950D02*
Y36700D01*
X17025Y34950D02*
Y36700D01*
Y34950D02*
X17975D01*
X17025Y36700D02*
X17975D01*
X17800Y22575D02*
Y24325D01*
X16850Y22575D02*
Y24325D01*
Y22575D02*
X17800D01*
X16850Y24325D02*
X17800D01*
X9650Y22625D02*
Y24375D01*
X8700Y22625D02*
Y24375D01*
Y22625D02*
X9650D01*
X8700Y24375D02*
X9650D01*
X46500Y25600D02*
Y26550D01*
X48250Y25600D02*
Y26550D01*
X46500D02*
X48250D01*
X46500Y25600D02*
X48250D01*
X49525Y4625D02*
X50475D01*
X49525Y6375D02*
X50475D01*
X49525Y4625D02*
Y6375D01*
X50475Y4625D02*
Y6375D01*
X29100Y31675D02*
Y32625D01*
X27350Y31675D02*
Y32625D01*
Y31675D02*
X29100D01*
X27350Y32625D02*
X29100D01*
X38800Y33200D02*
Y34150D01*
X40550Y33200D02*
Y34150D01*
X38800D02*
X40550D01*
X38800Y33200D02*
X40550D01*
X32850Y36800D02*
X33800D01*
X32850Y38550D02*
X33800D01*
X32850Y36800D02*
Y38550D01*
X33800Y36800D02*
Y38550D01*
X38800Y34900D02*
Y35850D01*
X40550Y34900D02*
Y35850D01*
X38800D02*
X40550D01*
X38800Y34900D02*
X40550D01*
X31150Y36825D02*
X32100D01*
X31150Y38575D02*
X32100D01*
X31150Y36825D02*
Y38575D01*
X32100Y36825D02*
Y38575D01*
X33750Y47150D02*
X34700D01*
X33750Y48900D02*
X34700D01*
X33750Y47150D02*
Y48900D01*
X34700Y47150D02*
Y48900D01*
X38975Y15975D02*
X40725D01*
X38975Y16925D02*
X40725D01*
Y15975D02*
Y16925D01*
X38975Y15975D02*
Y16925D01*
X44800Y19475D02*
Y20425D01*
X46550Y19475D02*
Y20425D01*
X44800D02*
X46550D01*
X44800Y19475D02*
X46550D01*
X38550Y20550D02*
X39500D01*
X38550Y18800D02*
X39500D01*
Y20550D01*
X38550Y18800D02*
Y20550D01*
X46525Y27450D02*
Y28400D01*
X48275Y27450D02*
Y28400D01*
X46525D02*
X48275D01*
X46525Y27450D02*
X48275D01*
X29700Y24325D02*
Y25275D01*
X27950Y24325D02*
Y25275D01*
Y24325D02*
X29700D01*
X27950Y25275D02*
X29700D01*
X36825Y15975D02*
Y16925D01*
X35075Y15975D02*
Y16925D01*
Y15975D02*
X36825D01*
X35075Y16925D02*
X36825D01*
X26275Y28850D02*
X28025D01*
X26275Y27900D02*
X28025D01*
X26275D02*
Y28850D01*
X28025Y27900D02*
Y28850D01*
X46525Y33550D02*
X48275D01*
X46525Y34500D02*
X48275D01*
Y33550D02*
Y34500D01*
X46525Y33550D02*
Y34500D01*
X42425Y32500D02*
Y34250D01*
X43375Y32500D02*
Y34250D01*
X42425Y32500D02*
X43375D01*
X42425Y34250D02*
X43375D01*
X42425Y36025D02*
Y37775D01*
X43375Y36025D02*
Y37775D01*
X42425Y36025D02*
X43375D01*
X42425Y37775D02*
X43375D01*
X46525Y31850D02*
X48275D01*
X46525Y32800D02*
X48275D01*
Y31850D02*
Y32800D01*
X46525Y31850D02*
Y32800D01*
X34875Y20575D02*
X35825D01*
X34875Y18825D02*
X35825D01*
Y20575D01*
X34875Y18825D02*
Y20575D01*
X37800Y18800D02*
Y20550D01*
X36850Y18800D02*
Y20550D01*
X37800D01*
X36850Y18800D02*
X37800D01*
X24650Y49875D02*
X26400D01*
X24650Y50825D02*
X26400D01*
Y49875D02*
Y50825D01*
X24650Y49875D02*
Y50825D01*
X34525Y36825D02*
Y38575D01*
X35475Y36825D02*
Y38575D01*
X34525Y36825D02*
X35475D01*
X34525Y38575D02*
X35475D01*
X9875Y65925D02*
X10825D01*
X9875Y67675D02*
X10825D01*
X9875Y65925D02*
Y67675D01*
X10825Y65925D02*
Y67675D01*
X8175Y61325D02*
X9925D01*
X8175Y62275D02*
X9925D01*
Y61325D02*
Y62275D01*
X8175Y61325D02*
Y62275D01*
X69925Y47175D02*
X70875D01*
X69925Y45425D02*
X70875D01*
Y47175D01*
X69925Y45425D02*
Y47175D01*
X66325D02*
X67275D01*
X66325Y45425D02*
X67275D01*
Y47175D01*
X66325Y45425D02*
Y47175D01*
X68125Y47175D02*
X69075D01*
X68125Y45425D02*
X69075D01*
Y47175D01*
X68125Y45425D02*
Y47175D01*
X68025Y41375D02*
X68975D01*
X68025Y39625D02*
X68975D01*
Y41375D01*
X68025Y39625D02*
Y41375D01*
X59625Y47175D02*
X60575D01*
X59625Y45425D02*
X60575D01*
Y47175D01*
X59625Y45425D02*
Y47175D01*
X56025D02*
X56975D01*
X56025Y45425D02*
X56975D01*
Y47175D01*
X56025Y45425D02*
Y47175D01*
X57825D02*
X58775D01*
X57825Y45425D02*
X58775D01*
Y47175D01*
X57825Y45425D02*
Y47175D01*
X56025Y42275D02*
X56975D01*
X56025Y40525D02*
X56975D01*
Y42275D01*
X56025Y40525D02*
Y42275D01*
X58675Y40525D02*
Y42275D01*
X57725Y40525D02*
Y42275D01*
X58675D01*
X57725Y40525D02*
X58675D01*
X36150Y36825D02*
Y38575D01*
X37100Y36825D02*
Y38575D01*
X36150Y36825D02*
X37100D01*
X36150Y38575D02*
X37100D01*
D57*
X55777Y17846D02*
X72084D01*
Y23332D01*
X55777D02*
X72084D01*
X55777Y17846D02*
Y23332D01*
X55810Y24655D02*
X72117D01*
Y30141D01*
X55810D02*
X72117D01*
X55810Y24655D02*
Y30141D01*
X55810Y31446D02*
X72117D01*
Y36932D01*
X55810D02*
X72117D01*
X55810Y31446D02*
Y36932D01*
X55777Y11055D02*
X72084D01*
Y16541D01*
X55777D02*
X72084D01*
X55777Y11055D02*
Y16541D01*
X22880Y2381D02*
Y7359D01*
X48280D01*
Y2381D02*
Y7359D01*
X22880Y2381D02*
X48280D01*
D92*
X24404Y6978D02*
G03*
X23896Y6978I-254J0D01*
G01*
D02*
G03*
X24404Y6978I254J0D01*
G01*
X27945Y48042D02*
G03*
X28555Y48042I305J0D01*
G01*
X63073Y47674D02*
G03*
X63683Y47674I305J0D01*
G01*
D93*
X13986Y60774D02*
X15110Y61898D01*
X13986Y58526D02*
X15110Y57402D01*
X13986D02*
X18482D01*
Y61898D01*
X13986D02*
X18482D01*
X13986Y57402D02*
Y61898D01*
X17358Y41752D02*
X18482Y42876D01*
X17358Y46248D02*
X18482Y45124D01*
X13986Y46248D02*
X18482D01*
X13986Y41752D02*
Y46248D01*
Y41752D02*
X18482D01*
Y46248D01*
X25558Y47014D02*
Y47496D01*
X24199D02*
X25558D01*
X24199Y47014D02*
Y47496D01*
Y47014D02*
X25558D01*
Y45744D02*
Y46226D01*
X24199D02*
X25558D01*
X24199Y45744D02*
Y46226D01*
Y45744D02*
X25558D01*
Y44474D02*
Y44956D01*
X24199D02*
X25558D01*
X24199Y44474D02*
Y44956D01*
Y44474D02*
X25558D01*
Y43204D02*
Y43686D01*
X24199D02*
X25558D01*
X24199Y43204D02*
Y43686D01*
Y43204D02*
X25558D01*
X30942D02*
Y43686D01*
Y43204D02*
X32301D01*
Y43686D01*
X30942D02*
X32301D01*
X30942Y44474D02*
Y44956D01*
Y44474D02*
X32301D01*
Y44956D01*
X30942D02*
X32301D01*
X30942Y45744D02*
Y46226D01*
Y45744D02*
X32301D01*
Y46226D01*
X30942D02*
X32301D01*
X30942Y47014D02*
Y47496D01*
Y47014D02*
X32301D01*
Y47496D01*
X30942D02*
X32301D01*
X25558Y42658D02*
X30942D01*
Y48042D01*
X25558D02*
X30942D01*
X25558Y42658D02*
Y48042D01*
X62502Y44626D02*
Y47674D01*
X64254D01*
Y44626D02*
Y47674D01*
X62502Y44626D02*
X64254D01*
Y47354D02*
X64902D01*
Y46846D02*
Y47354D01*
X64254Y46846D02*
X64902D01*
X64254D02*
Y47354D01*
Y45454D02*
X64902D01*
Y44946D02*
Y45454D01*
X64254Y44946D02*
X64902D01*
X64254D02*
Y45454D01*
X61854Y44946D02*
X62502D01*
X61854D02*
Y45454D01*
X62502D01*
Y44946D02*
Y45454D01*
X61854Y45896D02*
X62502D01*
X61854D02*
Y46404D01*
X62502D01*
Y45896D02*
Y46404D01*
X61854Y46846D02*
X62502D01*
X61854D02*
Y47354D01*
X62502D01*
Y46846D02*
Y47354D01*
D94*
X3450Y28475D02*
X8950D01*
X3450D02*
Y38775D01*
X8950D01*
Y36975D02*
Y38775D01*
Y28475D02*
Y30275D01*
X8050Y31475D02*
Y35775D01*
X8600Y30275D02*
Y31475D01*
X8050D02*
X8600D01*
Y35775D02*
Y36975D01*
X8050Y35775D02*
X8600D01*
Y30275D02*
X8950D01*
X8600Y36975D02*
X8950D01*
X8600Y24575D02*
X8950D01*
X8600Y17875D02*
X8950D01*
X8050Y23375D02*
X8600D01*
Y24575D01*
X8050Y19075D02*
X8600D01*
Y17875D02*
Y19075D01*
X8050D02*
Y23375D01*
X8950Y16075D02*
Y17875D01*
Y24575D02*
Y26375D01*
X3450D02*
X8950D01*
X3450Y16075D02*
Y26375D01*
Y16075D02*
X8950D01*
X11650D02*
X17150D01*
X11650D02*
Y26375D01*
X17150D01*
Y24575D02*
Y26375D01*
Y16075D02*
Y17875D01*
X16250Y19075D02*
Y23375D01*
X16800Y17875D02*
Y19075D01*
X16250D02*
X16800D01*
Y23375D02*
Y24575D01*
X16250Y23375D02*
X16800D01*
Y17875D02*
X17150D01*
X16800Y24575D02*
X17150D01*
X11650Y28475D02*
X17150D01*
X11650D02*
Y38775D01*
X17150D01*
Y36975D02*
Y38775D01*
Y28475D02*
Y30275D01*
X16250Y31475D02*
Y35775D01*
X16800Y30275D02*
Y31475D01*
X16250D02*
X16800D01*
Y35775D02*
Y36975D01*
X16250Y35775D02*
X16800D01*
Y30275D02*
X17150D01*
X16800Y36975D02*
X17150D01*
%TF.MD5,f5abfbcd307e8f894ccf66145b298325*%
M02*
