%TF.GenerationSoftware,Altium Limited,Altium Designer,25.2.1 (25)*%
G04 Layer_Color=255*
%FSLAX43Y43*%
%MOMM*%
%TF.SameCoordinates,5E82134D-FD09-4B07-97D7-8D5D892D8837*%
%TF.FilePolarity,Positive*%
%TF.FileFunction,Pads,Bot*%
%TF.Part,Single*%
G01*
G75*
%TA.AperFunction,SMDPad,CuDef*%
%ADD11R,1.000X0.950*%
%ADD13R,0.950X1.000*%
%TA.AperFunction,ComponentPad*%
%ADD37R,1.900X1.900*%
%ADD38C,3.316*%
%ADD39C,1.408*%
%ADD40R,1.408X1.408*%
%ADD41R,1.143X1.143*%
%ADD42C,1.143*%
%ADD43O,1.905X1.397*%
%ADD44R,1.905X1.397*%
%ADD45C,1.950*%
%ADD46R,1.900X1.900*%
%ADD47C,1.702*%
%ADD48R,1.702X1.702*%
%TA.AperFunction,ViaPad*%
%ADD49C,3.810*%
D11*
X68300Y11564D02*
D03*
X69900D02*
D03*
X68300Y32000D02*
D03*
X69900D02*
D03*
X56356D02*
D03*
X57956D02*
D03*
X68225Y18400D02*
D03*
X69825D02*
D03*
X68256Y25164D02*
D03*
X69856D02*
D03*
X56300Y18400D02*
D03*
X57900D02*
D03*
X56331Y25164D02*
D03*
X57931D02*
D03*
X56325Y11564D02*
D03*
X57925D02*
D03*
D13*
X4650Y46475D02*
D03*
Y48075D02*
D03*
X9150Y35025D02*
D03*
Y36625D02*
D03*
X17500Y35025D02*
D03*
Y36625D02*
D03*
X17325Y22650D02*
D03*
Y24250D02*
D03*
X9175Y22700D02*
D03*
Y24300D02*
D03*
D37*
X31375Y57725D02*
D03*
Y53225D02*
D03*
X24875D02*
D03*
Y57725D02*
D03*
D38*
X29330Y68150D02*
D03*
X41370D02*
D03*
D39*
X34100Y65450D02*
D03*
X36600D02*
D03*
Y63450D02*
D03*
D40*
X34100D02*
D03*
D41*
X69925Y20386D02*
D03*
X69958Y27195D02*
D03*
X69958Y33986D02*
D03*
X69925Y13595D02*
D03*
D42*
X67918Y20386D02*
D03*
X65937D02*
D03*
X63930D02*
D03*
X61924D02*
D03*
X59917D02*
D03*
X57936D02*
D03*
X67951Y27195D02*
D03*
X65970D02*
D03*
X63963D02*
D03*
X61957D02*
D03*
X59950D02*
D03*
X57969D02*
D03*
X67951Y33986D02*
D03*
X65970D02*
D03*
X63963D02*
D03*
X61957D02*
D03*
X59950D02*
D03*
X57969D02*
D03*
X67918Y13595D02*
D03*
X65937D02*
D03*
X63930D02*
D03*
X61924D02*
D03*
X59917D02*
D03*
X57936D02*
D03*
D43*
X6400Y30625D02*
D03*
Y34625D02*
D03*
Y32625D02*
D03*
Y20225D02*
D03*
Y22225D02*
D03*
Y18225D02*
D03*
X12975Y6400D02*
D03*
Y8400D02*
D03*
X14600Y18225D02*
D03*
Y22225D02*
D03*
Y20225D02*
D03*
Y30625D02*
D03*
Y34625D02*
D03*
Y32625D02*
D03*
D44*
X6400Y36625D02*
D03*
Y24225D02*
D03*
X12975Y10400D02*
D03*
X14600Y24225D02*
D03*
Y36625D02*
D03*
D45*
X6900Y49790D02*
D03*
Y44710D02*
D03*
D46*
X50025Y9900D02*
D03*
X45525D02*
D03*
Y16400D02*
D03*
X50025D02*
D03*
D47*
X47010Y3600D02*
D03*
Y6140D02*
D03*
X44470Y3600D02*
D03*
Y6140D02*
D03*
X41930Y3600D02*
D03*
Y6140D02*
D03*
X39390Y3600D02*
D03*
Y6140D02*
D03*
X36850Y3600D02*
D03*
Y6140D02*
D03*
X34310Y3600D02*
D03*
Y6140D02*
D03*
X31770Y3600D02*
D03*
Y6140D02*
D03*
X29230Y3600D02*
D03*
Y6140D02*
D03*
X26690Y3600D02*
D03*
Y6140D02*
D03*
X24150Y3600D02*
D03*
D48*
Y6140D02*
D03*
D49*
X69500Y75500D02*
D03*
X0D02*
D03*
Y0D02*
D03*
X69500D02*
D03*
%TF.MD5,e88c742d5834ac935cf709b918a0c289*%
M02*
