%TF.GenerationSoftware,Altium Limited,Altium Designer,25.2.1 (25)*%
G04 Layer_Physical_Order=1*
G04 Layer_Color=255*
%FSLAX43Y43*%
%MOMM*%
%TF.SameCoordinates,5E82134D-FD09-4B07-97D7-8D5D892D8837*%
%TF.FilePolarity,Positive*%
%TF.FileFunction,Copper,L1,Top,Signal*%
%TF.Part,Single*%
G01*
G75*
%TA.AperFunction,SMDPad,CuDef*%
%ADD10R,2.184X1.143*%
%ADD11R,1.000X0.950*%
%ADD12R,1.000X1.050*%
%ADD13R,0.950X1.000*%
G04:AMPARAMS|DCode=14|XSize=0.2mm|YSize=0.81mm|CornerRadius=0.025mm|HoleSize=0mm|Usage=FLASHONLY|Rotation=0.000|XOffset=0mm|YOffset=0mm|HoleType=Round|Shape=RoundedRectangle|*
%AMROUNDEDRECTD14*
21,1,0.200,0.760,0,0,0.0*
21,1,0.150,0.810,0,0,0.0*
1,1,0.050,0.075,-0.380*
1,1,0.050,-0.075,-0.380*
1,1,0.050,-0.075,0.380*
1,1,0.050,0.075,0.380*
%
%ADD14ROUNDEDRECTD14*%
G04:AMPARAMS|DCode=15|XSize=0.81mm|YSize=0.2mm|CornerRadius=0.025mm|HoleSize=0mm|Usage=FLASHONLY|Rotation=0.000|XOffset=0mm|YOffset=0mm|HoleType=Round|Shape=RoundedRectangle|*
%AMROUNDEDRECTD15*
21,1,0.810,0.150,0,0,0.0*
21,1,0.760,0.200,0,0,0.0*
1,1,0.050,0.380,-0.075*
1,1,0.050,-0.380,-0.075*
1,1,0.050,-0.380,0.075*
1,1,0.050,0.380,0.075*
%
%ADD15ROUNDEDRECTD15*%
%ADD16R,3.400X3.400*%
%ADD17R,1.300X1.050*%
%ADD18R,1.000X1.600*%
%ADD19R,1.524X0.533*%
%ADD20R,1.500X2.000*%
%ADD21R,3.800X2.000*%
G04:AMPARAMS|DCode=22|XSize=1.97mm|YSize=0.6mm|CornerRadius=0.075mm|HoleSize=0mm|Usage=FLASHONLY|Rotation=0.000|XOffset=0mm|YOffset=0mm|HoleType=Round|Shape=RoundedRectangle|*
%AMROUNDEDRECTD22*
21,1,1.970,0.450,0,0,0.0*
21,1,1.820,0.600,0,0,0.0*
1,1,0.150,0.910,-0.225*
1,1,0.150,-0.910,-0.225*
1,1,0.150,-0.910,0.225*
1,1,0.150,0.910,0.225*
%
%ADD22ROUNDEDRECTD22*%
%ADD23R,1.050X1.000*%
G04:AMPARAMS|DCode=24|XSize=1.016mm|YSize=1.397mm|CornerRadius=0.127mm|HoleSize=0mm|Usage=FLASHONLY|Rotation=270.000|XOffset=0mm|YOffset=0mm|HoleType=Round|Shape=RoundedRectangle|*
%AMROUNDEDRECTD24*
21,1,1.016,1.143,0,0,270.0*
21,1,0.762,1.397,0,0,270.0*
1,1,0.254,-0.572,-0.381*
1,1,0.254,-0.572,0.381*
1,1,0.254,0.572,0.381*
1,1,0.254,0.572,-0.381*
%
%ADD24ROUNDEDRECTD24*%
%ADD25R,1.000X1.400*%
G04:AMPARAMS|DCode=26|XSize=0.87mm|YSize=1.02mm|CornerRadius=0.109mm|HoleSize=0mm|Usage=FLASHONLY|Rotation=0.000|XOffset=0mm|YOffset=0mm|HoleType=Round|Shape=RoundedRectangle|*
%AMROUNDEDRECTD26*
21,1,0.870,0.803,0,0,0.0*
21,1,0.653,1.020,0,0,0.0*
1,1,0.217,0.326,-0.401*
1,1,0.217,-0.326,-0.401*
1,1,0.217,-0.326,0.401*
1,1,0.217,0.326,0.401*
%
%ADD26ROUNDEDRECTD26*%
%ADD27R,1.500X3.200*%
%ADD28R,1.003X0.508*%
G04:AMPARAMS|DCode=29|XSize=1.42mm|YSize=0.4mm|CornerRadius=0.05mm|HoleSize=0mm|Usage=FLASHONLY|Rotation=180.000|XOffset=0mm|YOffset=0mm|HoleType=Round|Shape=RoundedRectangle|*
%AMROUNDEDRECTD29*
21,1,1.420,0.300,0,0,180.0*
21,1,1.320,0.400,0,0,180.0*
1,1,0.100,-0.660,0.150*
1,1,0.100,0.660,0.150*
1,1,0.100,0.660,-0.150*
1,1,0.100,-0.660,-0.150*
%
%ADD29ROUNDEDRECTD29*%
%TA.AperFunction,Conductor*%
%ADD30C,0.200*%
%ADD31C,0.600*%
%ADD32C,0.400*%
%ADD33C,0.300*%
%ADD34C,0.500*%
%ADD35C,0.254*%
%ADD36C,0.203*%
%TA.AperFunction,ComponentPad*%
%ADD37R,1.900X1.900*%
%ADD38C,3.316*%
%ADD39C,1.408*%
%ADD40R,1.408X1.408*%
%ADD41R,1.143X1.143*%
%ADD42C,1.143*%
%ADD43O,1.905X1.397*%
%ADD44R,1.905X1.397*%
%ADD45C,1.950*%
%ADD46R,1.900X1.900*%
%ADD47C,1.702*%
%ADD48R,1.702X1.702*%
%TA.AperFunction,ViaPad*%
%ADD49C,3.810*%
%ADD50C,0.600*%
G36*
X70650Y79088D02*
X71060Y78989D01*
X71450Y78828D01*
X71809Y78607D01*
X72122Y78341D01*
X72128Y78332D01*
X72332Y78128D01*
X72341Y78122D01*
X72607Y77809D01*
X72828Y77450D01*
X72989Y77060D01*
X73088Y76650D01*
X73120Y76241D01*
X73118Y76230D01*
Y-730D01*
X73120Y-741D01*
X73088Y-1150D01*
X72989Y-1560D01*
X72828Y-1950D01*
X72607Y-2309D01*
X72341Y-2622D01*
X72332Y-2628D01*
X72128Y-2832D01*
X72122Y-2841D01*
X71809Y-3107D01*
X71450Y-3328D01*
X71060Y-3489D01*
X70650Y-3588D01*
X70241Y-3620D01*
X70230Y-3618D01*
X-500D01*
X-533Y-3624D01*
X-730Y-3618D01*
D01*
X-923Y-3605D01*
X-1150Y-3588D01*
X-1560Y-3489D01*
X-1950Y-3328D01*
X-2309Y-3107D01*
X-2622Y-2841D01*
X-2628Y-2832D01*
X-2832Y-2628D01*
X-2841Y-2622D01*
X-3107Y-2309D01*
X-3328Y-1950D01*
X-3489Y-1560D01*
X-3588Y-1150D01*
X-3620Y-741D01*
X-3618Y-730D01*
Y21873D01*
X-3476Y22014D01*
X3804Y21983D01*
X3804Y21984D01*
X3804Y21983D01*
X5222D01*
X5273Y21956D01*
X5381Y21884D01*
X5408Y21854D01*
X5410Y21849D01*
X5427Y21810D01*
X5559Y21638D01*
X5731Y21506D01*
X5931Y21423D01*
X6146Y21394D01*
X6654D01*
X6869Y21423D01*
X6875Y21425D01*
X7219Y21082D01*
X7087Y20931D01*
X7069Y20944D01*
X6869Y21027D01*
X6654Y21056D01*
X6146D01*
X5931Y21027D01*
X5731Y20944D01*
X5559Y20812D01*
X5427Y20640D01*
X5344Y20440D01*
X5315Y20225D01*
X5344Y20010D01*
X5427Y19810D01*
X5559Y19638D01*
X5731Y19506D01*
X5931Y19423D01*
X6146Y19394D01*
X6654D01*
X6869Y19423D01*
X6875Y19425D01*
X7219Y19082D01*
X7087Y18931D01*
X7069Y18944D01*
X6869Y19027D01*
X6654Y19056D01*
X6146D01*
X5931Y19027D01*
X5731Y18944D01*
X5559Y18812D01*
X5427Y18640D01*
X5344Y18440D01*
X5315Y18225D01*
X5344Y18010D01*
X5427Y17810D01*
X5559Y17638D01*
X5731Y17506D01*
X5931Y17423D01*
X6146Y17394D01*
X6654D01*
X6869Y17423D01*
X7069Y17506D01*
X7241Y17638D01*
X7373Y17810D01*
X7456Y18010D01*
X7485Y18225D01*
X7456Y18440D01*
X7373Y18640D01*
X7360Y18658D01*
X7511Y18790D01*
X10838Y15463D01*
X10912Y15413D01*
X11000Y15396D01*
X16800D01*
X16888Y15413D01*
X16962Y15463D01*
X26188Y24688D01*
X26410Y24628D01*
X26437Y24562D01*
X26557Y24442D01*
X26713Y24377D01*
X26882D01*
X27038Y24442D01*
X27158Y24562D01*
X27163Y24573D01*
X27400D01*
Y24200D01*
X28650D01*
Y25400D01*
X27400D01*
Y25032D01*
X27163D01*
X27158Y25043D01*
X27038Y25163D01*
X26972Y25190D01*
X26912Y25412D01*
X27470Y25971D01*
X31000D01*
X31088Y25988D01*
X31162Y26038D01*
X31631Y26507D01*
X33820D01*
X33840Y26499D01*
X34600D01*
X34714Y26546D01*
X34762Y26661D01*
Y26811D01*
X34714Y26926D01*
X34714Y26946D01*
X34762Y27061D01*
Y27211D01*
X34718Y27336D01*
X34762Y27461D01*
Y27611D01*
X34718Y27736D01*
X34762Y27861D01*
Y28011D01*
X34714Y28126D01*
X34714Y28146D01*
X34762Y28261D01*
Y28411D01*
X34718Y28536D01*
X34762Y28661D01*
Y28811D01*
X34718Y28936D01*
X34762Y29061D01*
Y29211D01*
X34714Y29326D01*
X34714Y29346D01*
X34762Y29461D01*
Y29611D01*
X34718Y29736D01*
X34762Y29861D01*
Y30011D01*
X34714Y30126D01*
X34600Y30173D01*
X33840D01*
X33820Y30165D01*
X33009D01*
X31862Y31312D01*
X31788Y31362D01*
X31700Y31379D01*
X29962D01*
X29779Y31421D01*
Y32023D01*
X29025D01*
X28271D01*
Y31542D01*
X28225Y31537D01*
X28050Y31699D01*
Y32750D01*
X26800D01*
Y32404D01*
X26515D01*
X26510Y32416D01*
X26391Y32535D01*
X26235Y32600D01*
X26065D01*
X25909Y32535D01*
X25790Y32416D01*
X25725Y32260D01*
Y32090D01*
X25790Y31934D01*
X25909Y31815D01*
X26065Y31750D01*
X26235D01*
X26391Y31815D01*
X26510Y31934D01*
X26515Y31946D01*
X26800D01*
Y31579D01*
X26800Y31550D01*
X26729Y31379D01*
X18424D01*
X16948Y32855D01*
X17014Y33050D01*
X17025Y33075D01*
X17044Y33094D01*
Y33121D01*
X17054Y33146D01*
Y37288D01*
X17034Y37336D01*
X17015Y37383D01*
X10735Y43704D01*
Y48094D01*
X14771Y52129D01*
X14810Y52225D01*
Y53471D01*
X14973Y53600D01*
X15216D01*
Y55850D01*
X14973D01*
X14810Y55979D01*
Y56661D01*
X15040D01*
X15554Y56146D01*
X15637Y55979D01*
X15637D01*
X15637Y55979D01*
Y54852D01*
X16514D01*
Y55979D01*
X16332D01*
X16329Y55996D01*
X16279Y56070D01*
X15297Y57052D01*
X15223Y57102D01*
X15135Y57119D01*
X14810D01*
Y57483D01*
X18266D01*
X18362Y57522D01*
X18401Y57618D01*
Y58754D01*
X18401Y58761D01*
X18526Y58953D01*
X19610D01*
Y59319D01*
X20080D01*
X20109Y59290D01*
X20265Y59225D01*
X20435D01*
X20591Y59290D01*
X20710Y59409D01*
X20775Y59565D01*
Y59735D01*
X20710Y59891D01*
X20591Y60010D01*
X20435Y60075D01*
X20265D01*
X20109Y60010D01*
X20080Y59981D01*
X19610D01*
Y60347D01*
X18526D01*
X18401Y60539D01*
X18401Y60547D01*
Y61682D01*
X18362Y61778D01*
X18266Y61817D01*
X14562D01*
X14471Y62002D01*
X14460Y62027D01*
Y62054D01*
X14441Y62073D01*
X14431Y62098D01*
X11185Y65344D01*
X11182Y65345D01*
X11180Y65348D01*
X11041Y65475D01*
X10995Y65492D01*
X10950Y65510D01*
Y66625D01*
X9870D01*
X9846Y66683D01*
X9754Y66775D01*
X9837Y66975D01*
X10950D01*
Y67253D01*
X12075D01*
Y65700D01*
X13825D01*
Y69150D01*
X12075D01*
Y67916D01*
X10950D01*
Y68225D01*
X9750D01*
Y67931D01*
X7900D01*
Y68150D01*
X6650D01*
Y67479D01*
X-3618D01*
Y76230D01*
X-3620Y76241D01*
X-3588Y76650D01*
X-3489Y77060D01*
X-3328Y77450D01*
X-3107Y77809D01*
X-2841Y78122D01*
X-2832Y78128D01*
X-2628Y78332D01*
X-2622Y78341D01*
X-2309Y78607D01*
X-1950Y78828D01*
X-1560Y78989D01*
X-1150Y79088D01*
X-741Y79120D01*
X-730Y79118D01*
X70230D01*
X70241Y79120D01*
X70650Y79088D01*
D02*
G37*
G36*
X6650Y66500D02*
X7900D01*
Y67269D01*
X9069D01*
X9750Y66588D01*
Y65375D01*
X10070D01*
Y64771D01*
X9990Y64691D01*
X9925Y64535D01*
Y64365D01*
X9990Y64209D01*
X10109Y64090D01*
X10265Y64025D01*
X10435D01*
X10591Y64090D01*
X10710Y64209D01*
X10775Y64365D01*
Y64535D01*
X10710Y64691D01*
X10630Y64771D01*
Y65375D01*
X10950D01*
X10950Y65375D01*
Y65375D01*
X11089Y65248D01*
X14335Y62002D01*
X14259Y61817D01*
X14202D01*
X14106Y61778D01*
X14067Y61682D01*
Y60539D01*
X14024Y60476D01*
X12729D01*
Y59777D01*
X14075D01*
Y59523D01*
X12729D01*
Y58825D01*
X14024D01*
X14067Y58761D01*
Y57618D01*
X14106Y57522D01*
X14202Y57483D01*
X14675D01*
Y57119D01*
X10658D01*
X10643Y57193D01*
X10599Y57259D01*
X10533Y57303D01*
X10455Y57319D01*
X8635D01*
X8557Y57303D01*
X8491Y57259D01*
X8447Y57193D01*
X8431Y57115D01*
Y56665D01*
X8447Y56587D01*
X8491Y56521D01*
X8557Y56477D01*
X8635Y56461D01*
X10455D01*
X10533Y56477D01*
X10599Y56521D01*
X10643Y56587D01*
X10658Y56661D01*
X14675D01*
Y55979D01*
X14468D01*
Y54725D01*
Y53471D01*
X14675D01*
Y52225D01*
X10600Y48150D01*
Y43648D01*
X16919Y37288D01*
Y33146D01*
X16734Y33069D01*
X15579Y34224D01*
X15656Y34410D01*
X15685Y34625D01*
X15656Y34840D01*
X15573Y35040D01*
X15441Y35212D01*
X15269Y35344D01*
X15069Y35427D01*
X14854Y35456D01*
X14346D01*
X14131Y35427D01*
X13931Y35344D01*
X13759Y35212D01*
X13627Y35040D01*
X13544Y34840D01*
X13515Y34625D01*
X13544Y34410D01*
X13627Y34210D01*
X13759Y34038D01*
X13931Y33906D01*
X14131Y33823D01*
X14346Y33794D01*
X14854D01*
X15069Y33823D01*
X15255Y33900D01*
X16919Y32236D01*
Y31146D01*
X16734Y31069D01*
X15579Y32224D01*
X15656Y32410D01*
X15685Y32625D01*
X15656Y32840D01*
X15573Y33040D01*
X15441Y33212D01*
X15269Y33344D01*
X15069Y33427D01*
X14854Y33456D01*
X14346D01*
X14131Y33427D01*
X13931Y33344D01*
X13759Y33212D01*
X13627Y33040D01*
X13544Y32840D01*
X13515Y32625D01*
X13544Y32410D01*
X13627Y32210D01*
X13759Y32038D01*
X13931Y31906D01*
X14131Y31823D01*
X14346Y31794D01*
X14854D01*
X15069Y31823D01*
X15255Y31900D01*
X16792Y30363D01*
X16866Y30313D01*
X16919Y30303D01*
Y23825D01*
X15758Y22664D01*
X15520Y22709D01*
X15441Y22812D01*
X15269Y22944D01*
X15069Y23027D01*
X14854Y23056D01*
X14346D01*
X14131Y23027D01*
X13931Y22944D01*
X13759Y22812D01*
X13627Y22640D01*
X13544Y22440D01*
X13515Y22225D01*
X13424Y22120D01*
X12900Y22119D01*
X7578D01*
X7485Y22225D01*
X7456Y22440D01*
X7373Y22640D01*
X7241Y22812D01*
X7069Y22944D01*
X6869Y23027D01*
X6654Y23056D01*
X6146D01*
X5931Y23027D01*
X5731Y22944D01*
X5559Y22812D01*
X5427Y22640D01*
X5344Y22440D01*
X5315Y22225D01*
X5222Y22119D01*
X3804D01*
X-3618Y22150D01*
Y67344D01*
X6650D01*
Y66500D01*
D02*
G37*
%LPC*%
G36*
X69700Y77530D02*
X69300D01*
X68908Y77452D01*
X68538Y77299D01*
X68206Y77077D01*
X67923Y76794D01*
X67701Y76462D01*
X67548Y76092D01*
X67470Y75700D01*
Y75300D01*
X67548Y74908D01*
X67701Y74538D01*
X67923Y74206D01*
X68206Y73923D01*
X68538Y73701D01*
X68908Y73548D01*
X69300Y73470D01*
X69700D01*
X70092Y73548D01*
X70462Y73701D01*
X70794Y73923D01*
X71077Y74206D01*
X71299Y74538D01*
X71452Y74908D01*
X71530Y75300D01*
Y75700D01*
X71452Y76092D01*
X71299Y76462D01*
X71077Y76794D01*
X70794Y77077D01*
X70462Y77299D01*
X70092Y77452D01*
X69700Y77530D01*
D02*
G37*
G36*
X200D02*
X-200D01*
X-592Y77452D01*
X-962Y77299D01*
X-1294Y77077D01*
X-1577Y76794D01*
X-1799Y76462D01*
X-1952Y76092D01*
X-2030Y75700D01*
Y75300D01*
X-1952Y74908D01*
X-1799Y74538D01*
X-1577Y74206D01*
X-1294Y73923D01*
X-962Y73701D01*
X-592Y73548D01*
X-200Y73470D01*
X200D01*
X592Y73548D01*
X962Y73701D01*
X1294Y73923D01*
X1577Y74206D01*
X1799Y74538D01*
X1952Y74908D01*
X2030Y75300D01*
Y75700D01*
X1952Y76092D01*
X1799Y76462D01*
X1577Y76794D01*
X1294Y77077D01*
X962Y77299D01*
X592Y77452D01*
X200Y77530D01*
D02*
G37*
G36*
X26372Y78177D02*
X25229D01*
X25130Y78157D01*
X25047Y78102D01*
X24991Y78018D01*
X24972Y77920D01*
Y77158D01*
X24991Y77060D01*
X25047Y76976D01*
X25130Y76921D01*
X25229Y76901D01*
X26372D01*
X26374Y76902D01*
X29101Y74175D01*
Y69922D01*
X28810Y69864D01*
X28485Y69730D01*
X28193Y69535D01*
X27945Y69287D01*
X27750Y68995D01*
X27616Y68670D01*
X27547Y68326D01*
Y67974D01*
X27616Y67630D01*
X27750Y67305D01*
X27945Y67013D01*
X28193Y66765D01*
X28485Y66570D01*
X28810Y66436D01*
X29154Y66367D01*
X29506D01*
X29850Y66436D01*
X30175Y66570D01*
X30467Y66765D01*
X30715Y67013D01*
X30910Y67305D01*
X31044Y67630D01*
X31102Y67921D01*
X33305D01*
X34921Y66305D01*
Y66071D01*
X34899Y66056D01*
X34721Y66002D01*
X34609Y66113D01*
X34420Y66223D01*
X34209Y66279D01*
X33991D01*
X33780Y66223D01*
X33591Y66113D01*
X33437Y65959D01*
X33327Y65770D01*
X33271Y65559D01*
Y65394D01*
X28730D01*
X27229Y66895D01*
Y71980D01*
X27212Y72068D01*
X27162Y72142D01*
X26560Y72744D01*
Y73109D01*
X26560Y73156D01*
X26556Y73167D01*
X26559Y73177D01*
X26544Y73271D01*
X26538Y73280D01*
X26539Y73291D01*
X26510Y73381D01*
X26502Y73390D01*
X26502Y73401D01*
X26459Y73485D01*
X26450Y73492D01*
X26448Y73503D01*
X26392Y73579D01*
X26383Y73585D01*
X26378Y73596D01*
X26312Y73662D01*
X26301Y73667D01*
X26295Y73676D01*
X26219Y73732D01*
X26208Y73734D01*
X26201Y73743D01*
X26117Y73786D01*
X26106Y73786D01*
X26097Y73794D01*
X26054Y73808D01*
Y75123D01*
X26372D01*
X26470Y75143D01*
X26553Y75198D01*
X26609Y75282D01*
X26628Y75380D01*
Y76142D01*
X26609Y76240D01*
X26553Y76324D01*
X26470Y76379D01*
X26372Y76399D01*
X25229D01*
X25130Y76379D01*
X25047Y76324D01*
X24991Y76240D01*
X24972Y76142D01*
Y75380D01*
X24991Y75282D01*
X25047Y75198D01*
X25130Y75143D01*
X25229Y75123D01*
X25596D01*
Y73808D01*
X25553Y73794D01*
X25544Y73786D01*
X25533Y73786D01*
X25449Y73743D01*
X25442Y73734D01*
X25431Y73732D01*
X25355Y73676D01*
X25349Y73667D01*
X25338Y73662D01*
X25272Y73596D01*
X25267Y73585D01*
X25258Y73579D01*
X25202Y73503D01*
X25200Y73492D01*
X25191Y73485D01*
X25148Y73401D01*
X25148Y73390D01*
X25140Y73381D01*
X25111Y73291D01*
X25112Y73280D01*
X25106Y73271D01*
X25091Y73177D01*
X25094Y73167D01*
X25090Y73156D01*
Y72601D01*
X25129Y72505D01*
X25203Y72475D01*
X25214Y72375D01*
X25203Y72275D01*
X25129Y72245D01*
X25090Y72149D01*
Y71594D01*
X25094Y71583D01*
X25091Y71573D01*
X25106Y71479D01*
X25112Y71470D01*
X25111Y71459D01*
X25140Y71369D01*
X25148Y71360D01*
X25148Y71349D01*
X25191Y71265D01*
X25200Y71258D01*
X25202Y71247D01*
X25258Y71171D01*
X25267Y71165D01*
X25272Y71154D01*
X25338Y71088D01*
X25349Y71083D01*
X25355Y71074D01*
X25431Y71018D01*
X25442Y71016D01*
X25449Y71007D01*
X25533Y70964D01*
X25544Y70964D01*
X25553Y70956D01*
X25596Y70942D01*
Y70140D01*
X25584Y70135D01*
X25465Y70016D01*
X25400Y69860D01*
Y69690D01*
X25465Y69534D01*
X25584Y69415D01*
X25740Y69350D01*
X25910D01*
X26066Y69415D01*
X26185Y69534D01*
X26250Y69690D01*
Y69860D01*
X26185Y70016D01*
X26066Y70135D01*
X26054Y70140D01*
Y70942D01*
X26097Y70956D01*
X26106Y70964D01*
X26117Y70964D01*
X26201Y71007D01*
X26208Y71016D01*
X26219Y71018D01*
X26295Y71074D01*
X26301Y71083D01*
X26312Y71088D01*
X26378Y71154D01*
X26383Y71165D01*
X26392Y71171D01*
X26448Y71247D01*
X26450Y71258D01*
X26459Y71265D01*
X26502Y71349D01*
X26502Y71360D01*
X26510Y71369D01*
X26539Y71459D01*
X26538Y71470D01*
X26544Y71479D01*
X26559Y71573D01*
X26556Y71583D01*
X26560Y71594D01*
Y71605D01*
X26635Y71667D01*
X26760Y71711D01*
X26771Y71705D01*
Y66800D01*
X26788Y66712D01*
X26838Y66638D01*
X28473Y65002D01*
X28548Y64953D01*
X28635Y64935D01*
X33379D01*
X33434Y64946D01*
X33437Y64941D01*
X33591Y64787D01*
X33780Y64677D01*
X33991Y64621D01*
X34209D01*
X34420Y64677D01*
X34609Y64787D01*
X34721Y64898D01*
X34899Y64844D01*
X34921Y64829D01*
Y64279D01*
X33271D01*
Y63781D01*
X28162D01*
X24284Y67659D01*
X24177Y67731D01*
X24050Y67756D01*
X18025D01*
Y69150D01*
X16275D01*
Y65700D01*
X18025D01*
Y67094D01*
X23913D01*
X27791Y63216D01*
X27898Y63144D01*
X28025Y63119D01*
X33271D01*
Y62621D01*
X34921D01*
Y61755D01*
X33755Y60590D01*
X33114D01*
X33023Y60571D01*
X32945Y60520D01*
X32894Y60442D01*
X32875Y60351D01*
Y59549D01*
X32894Y59458D01*
X32945Y59380D01*
X33023Y59329D01*
X33114Y59310D01*
X33766D01*
X33857Y59329D01*
X33935Y59380D01*
X33986Y59458D01*
X34005Y59549D01*
Y60191D01*
X34007Y60192D01*
X34248Y60433D01*
X34406Y60364D01*
X34435Y60338D01*
Y59549D01*
X34454Y59458D01*
X34505Y59380D01*
X34583Y59329D01*
X34674Y59310D01*
X35326D01*
X35336Y59302D01*
Y39186D01*
X35301Y39150D01*
X34375D01*
Y37850D01*
X35625D01*
Y38792D01*
X35787Y38916D01*
X35940Y38886D01*
X36000Y38826D01*
Y37850D01*
X37250D01*
Y39150D01*
X36324D01*
X36249Y39225D01*
Y59270D01*
X36299Y59310D01*
X36951D01*
X37042Y59329D01*
X37120Y59380D01*
X37171Y59458D01*
X37190Y59549D01*
Y60351D01*
X37171Y60442D01*
X37120Y60520D01*
X37042Y60571D01*
X36951Y60590D01*
X36405D01*
X36276Y60718D01*
Y62476D01*
X36465Y62628D01*
X36491Y62621D01*
X36709D01*
X36920Y62677D01*
X37109Y62787D01*
X37263Y62941D01*
X37373Y63130D01*
X37429Y63341D01*
Y63559D01*
X37373Y63770D01*
X37263Y63959D01*
X37109Y64113D01*
X36920Y64223D01*
X36709Y64279D01*
X36491D01*
X36280Y64223D01*
X36091Y64113D01*
X36022Y64045D01*
X35822Y64127D01*
Y64348D01*
X36199Y64724D01*
X36280Y64677D01*
X36491Y64621D01*
X36709D01*
X36920Y64677D01*
X37109Y64787D01*
X37263Y64941D01*
X37373Y65130D01*
X37429Y65341D01*
Y65559D01*
X37373Y65770D01*
X37263Y65959D01*
X37109Y66113D01*
X36920Y66223D01*
X36709Y66279D01*
X36491D01*
X36280Y66223D01*
X36091Y66113D01*
X35937Y65959D01*
X35827Y65770D01*
X35771Y65559D01*
Y65341D01*
X35827Y65130D01*
X35874Y65049D01*
X35579Y64754D01*
X35379Y64837D01*
Y66400D01*
X35362Y66488D01*
X35312Y66562D01*
X34139Y67736D01*
X34215Y67921D01*
X39598D01*
X39656Y67630D01*
X39790Y67305D01*
X39985Y67013D01*
X40233Y66765D01*
X40525Y66570D01*
X40721Y66489D01*
Y62810D01*
X38500Y60590D01*
X37859D01*
X37768Y60571D01*
X37690Y60520D01*
X37639Y60442D01*
X37620Y60351D01*
Y59549D01*
X37639Y59458D01*
X37690Y59380D01*
X37768Y59329D01*
X37859Y59310D01*
X38511D01*
X38602Y59329D01*
X38680Y59380D01*
X38731Y59458D01*
X38750Y59549D01*
Y60190D01*
X41112Y62553D01*
X41162Y62627D01*
X41179Y62715D01*
Y66355D01*
X41194Y66367D01*
X41546D01*
X41890Y66436D01*
X42215Y66570D01*
X42507Y66765D01*
X42755Y67013D01*
X42950Y67305D01*
X43084Y67630D01*
X43153Y67974D01*
Y68326D01*
X43084Y68670D01*
X42950Y68995D01*
X42755Y69287D01*
X42507Y69535D01*
X42215Y69730D01*
X41890Y69864D01*
X41546Y69933D01*
X41194D01*
X40850Y69864D01*
X40525Y69730D01*
X40233Y69535D01*
X39985Y69287D01*
X39790Y68995D01*
X39656Y68670D01*
X39598Y68379D01*
X31102D01*
X31044Y68670D01*
X30910Y68995D01*
X30715Y69287D01*
X30467Y69535D01*
X30175Y69730D01*
X29850Y69864D01*
X29559Y69922D01*
Y74270D01*
X29542Y74358D01*
X29492Y74432D01*
X26628Y77296D01*
Y77920D01*
X26609Y78018D01*
X26553Y78102D01*
X26470Y78157D01*
X26372Y78177D01*
D02*
G37*
G36*
X32450Y58800D02*
X30300D01*
Y57954D01*
X28415D01*
X28410Y57966D01*
X28291Y58085D01*
X28135Y58150D01*
X27965D01*
X27809Y58085D01*
X27690Y57966D01*
X27685Y57954D01*
X25950D01*
Y58800D01*
X23800D01*
Y56650D01*
X25950D01*
Y57496D01*
X27685D01*
X27690Y57484D01*
X27809Y57365D01*
X27965Y57300D01*
X28135D01*
X28291Y57365D01*
X28410Y57484D01*
X28415Y57496D01*
X30300D01*
Y56650D01*
X32450D01*
Y58800D01*
D02*
G37*
G36*
X17645Y55979D02*
X16768D01*
Y54852D01*
X17645D01*
Y55979D01*
D02*
G37*
G36*
X18510Y56950D02*
X18340D01*
X18184Y56885D01*
X18065Y56766D01*
X18000Y56610D01*
Y56440D01*
X18065Y56284D01*
X18094Y56255D01*
Y55850D01*
X18066D01*
Y53600D01*
X19816D01*
Y55850D01*
X18756D01*
Y56255D01*
X18785Y56284D01*
X18850Y56440D01*
Y56610D01*
X18785Y56766D01*
X18666Y56885D01*
X18510Y56950D01*
D02*
G37*
G36*
X17645Y54598D02*
X16768D01*
Y53471D01*
X17645D01*
Y54598D01*
D02*
G37*
G36*
X16514D02*
X15637D01*
Y53471D01*
X16514D01*
Y54598D01*
D02*
G37*
G36*
X32450Y54300D02*
X30300D01*
Y53454D01*
X25950D01*
Y54300D01*
X23800D01*
Y52150D01*
X24517D01*
Y51446D01*
X24521Y51426D01*
Y50975D01*
X24075D01*
Y49725D01*
X25089D01*
X25166Y49540D01*
X22663Y47037D01*
X22613Y46963D01*
X22596Y46875D01*
Y39975D01*
X22613Y39887D01*
X22663Y39813D01*
X29412Y33064D01*
X29335Y32879D01*
X29152D01*
Y32277D01*
X29779D01*
Y32435D01*
X29964Y32512D01*
X30013Y32463D01*
X30087Y32413D01*
X30175Y32396D01*
X33405D01*
X34632Y31168D01*
Y30606D01*
X34680Y30491D01*
X34795Y30444D01*
X34945D01*
X35070Y30488D01*
X35195Y30444D01*
X35345D01*
X35470Y30488D01*
X35595Y30444D01*
X35745D01*
X35870Y30488D01*
X35995Y30444D01*
X36145D01*
X36270Y30488D01*
X36395Y30444D01*
X36545D01*
X36670Y30488D01*
X36795Y30444D01*
X36945D01*
X37059Y30491D01*
X37107Y30606D01*
Y31366D01*
X37099Y31385D01*
Y31729D01*
Y31955D01*
X37082Y32043D01*
X37032Y32118D01*
X36859Y32290D01*
X34212Y34937D01*
X34138Y34987D01*
X34050Y35004D01*
X31945D01*
X31003Y35946D01*
X31086Y36146D01*
X31498D01*
Y36900D01*
Y37654D01*
X31079Y37654D01*
X31071Y37675D01*
X31071Y37682D01*
X31208Y37875D01*
X32225D01*
Y39125D01*
X31854D01*
Y39385D01*
X31866Y39390D01*
X31985Y39509D01*
X32050Y39665D01*
Y39835D01*
X31985Y39991D01*
X31866Y40110D01*
X31710Y40175D01*
X31649D01*
X31573Y40350D01*
X31690Y40496D01*
X32900D01*
X32988Y40513D01*
X33062Y40563D01*
X34287Y41788D01*
X34337Y41862D01*
X34354Y41950D01*
Y44300D01*
X34337Y44388D01*
X34287Y44462D01*
X32782Y45968D01*
Y46377D01*
X31008D01*
Y45593D01*
X31829D01*
X31852Y45589D01*
X32512D01*
X32802Y45298D01*
X32711Y45107D01*
X31008D01*
Y44323D01*
X32427D01*
X32714Y44037D01*
X32631Y43837D01*
X31008D01*
Y43674D01*
X30920D01*
X30832Y43657D01*
X30758Y43607D01*
X29413Y42262D01*
X29363Y42188D01*
X29346Y42100D01*
Y35587D01*
X29186Y35503D01*
X29152Y35498D01*
X28191Y36458D01*
Y42663D01*
X28173Y42751D01*
X28124Y42826D01*
X26087Y44862D01*
X26013Y44912D01*
X25925Y44929D01*
X25492D01*
Y45107D01*
X23839D01*
X23756Y45307D01*
X24043Y45593D01*
X25492D01*
Y46377D01*
X23718D01*
Y45918D01*
X23288Y45487D01*
X23095Y45559D01*
X23054Y45593D01*
Y46780D01*
X23533Y47259D01*
X23718Y47182D01*
Y46863D01*
X25492D01*
Y47046D01*
X29135D01*
X29223Y47063D01*
X29297Y47113D01*
X31697Y49513D01*
X31747Y49587D01*
X31760Y49650D01*
X31840Y49691D01*
X31847Y49700D01*
X31858Y49702D01*
X31934Y49758D01*
X31940Y49767D01*
X31951Y49772D01*
X32017Y49838D01*
X32022Y49849D01*
X32031Y49855D01*
X32087Y49931D01*
X32089Y49942D01*
X32098Y49949D01*
X32141Y50033D01*
X32141Y50044D01*
X32149Y50053D01*
X32178Y50143D01*
X32177Y50154D01*
X32183Y50163D01*
X32198Y50257D01*
X32195Y50267D01*
X32199Y50278D01*
Y50372D01*
X32195Y50383D01*
X32198Y50393D01*
X32183Y50487D01*
X32177Y50496D01*
X32178Y50507D01*
X32149Y50597D01*
X32141Y50606D01*
X32141Y50617D01*
X32098Y50701D01*
X32089Y50708D01*
X32087Y50719D01*
X32031Y50795D01*
X32022Y50801D01*
X32017Y50812D01*
X31951Y50878D01*
X31940Y50883D01*
X31934Y50892D01*
X31858Y50948D01*
X31847Y50950D01*
X31840Y50959D01*
X31756Y51002D01*
X31745Y51002D01*
X31736Y51010D01*
X31646Y51039D01*
X31635Y51038D01*
X31626Y51044D01*
X31532Y51059D01*
X31522Y51056D01*
X31511Y51060D01*
X31464D01*
X31464Y51060D01*
X30956D01*
X30860Y51021D01*
X30830Y50947D01*
X30730Y50936D01*
X30630Y50947D01*
X30600Y51021D01*
X30504Y51060D01*
X29996D01*
X29949Y51060D01*
X29938Y51056D01*
X29928Y51059D01*
X29834Y51044D01*
X29825Y51038D01*
X29814Y51039D01*
X29724Y51010D01*
X29715Y51002D01*
X29704Y51002D01*
X29620Y50959D01*
X29613Y50950D01*
X29602Y50948D01*
X29526Y50892D01*
X29520Y50883D01*
X29509Y50878D01*
X29443Y50812D01*
X29438Y50801D01*
X29429Y50795D01*
X29373Y50719D01*
X29371Y50708D01*
X29362Y50701D01*
X29319Y50617D01*
X29319Y50606D01*
X29311Y50597D01*
X29306Y50579D01*
X26975D01*
Y50975D01*
X25675D01*
Y50080D01*
X25569Y49996D01*
X25375Y50081D01*
Y50975D01*
X24979D01*
Y51450D01*
X24975Y51470D01*
Y52150D01*
X25950D01*
Y52996D01*
X30300D01*
Y52150D01*
X32450D01*
Y54300D01*
D02*
G37*
G36*
X18795Y49679D02*
X16768D01*
Y48552D01*
X18795D01*
Y49679D01*
D02*
G37*
G36*
X16514D02*
X14487D01*
Y48552D01*
X16514D01*
Y49679D01*
D02*
G37*
G36*
X34335Y50775D02*
X34165D01*
X34009Y50710D01*
X33890Y50591D01*
X33825Y50435D01*
Y50265D01*
X33890Y50109D01*
X34009Y49990D01*
X34021Y49985D01*
Y49450D01*
X33625D01*
Y48200D01*
X34825D01*
Y49450D01*
X34479D01*
Y49985D01*
X34491Y49990D01*
X34610Y50109D01*
X34675Y50265D01*
Y50435D01*
X34610Y50591D01*
X34491Y50710D01*
X34335Y50775D01*
D02*
G37*
G36*
X32911Y47776D02*
X32022D01*
Y47382D01*
X32911D01*
Y47776D01*
D02*
G37*
G36*
X31768D02*
X30879D01*
Y47382D01*
X31768D01*
Y47776D01*
D02*
G37*
G36*
X34954Y47979D02*
X34352D01*
Y47352D01*
X34954D01*
Y47979D01*
D02*
G37*
G36*
X34098D02*
X33496D01*
Y47352D01*
X34098D01*
Y47979D01*
D02*
G37*
G36*
X59973Y47854D02*
X59371D01*
Y47227D01*
X59973D01*
Y47854D01*
D02*
G37*
G36*
X59054Y47879D02*
X58427D01*
Y47227D01*
X59054D01*
Y47879D01*
D02*
G37*
G36*
X58173D02*
X57546D01*
Y47227D01*
X58173D01*
Y47879D01*
D02*
G37*
G36*
X57254D02*
X56627D01*
Y47227D01*
X57254D01*
Y47879D01*
D02*
G37*
G36*
X56373D02*
X55746D01*
Y47227D01*
X56373D01*
Y47879D01*
D02*
G37*
G36*
X62756Y47608D02*
X62127D01*
Y47227D01*
X62756D01*
Y47608D01*
D02*
G37*
G36*
X18795Y48298D02*
X16768D01*
Y47171D01*
X18795D01*
Y48298D01*
D02*
G37*
G36*
X16514D02*
X14487D01*
Y47171D01*
X16514D01*
Y48298D01*
D02*
G37*
G36*
X32911Y47128D02*
X32022D01*
Y46734D01*
X32911D01*
Y47128D01*
D02*
G37*
G36*
X31768D02*
X30879D01*
Y46734D01*
X31768D01*
Y47128D01*
D02*
G37*
G36*
X34954Y47098D02*
X34352D01*
Y46471D01*
X34954D01*
Y47098D01*
D02*
G37*
G36*
X34098D02*
X33496D01*
Y46471D01*
X34098D01*
Y47098D01*
D02*
G37*
G36*
X59973Y46973D02*
X59371D01*
Y46346D01*
X59973D01*
Y46973D01*
D02*
G37*
G36*
X65383Y45579D02*
X64129D01*
Y44821D01*
X65383D01*
Y45579D01*
D02*
G37*
G36*
X62756Y45073D02*
X62127D01*
Y44692D01*
X62756D01*
Y45073D01*
D02*
G37*
G36*
X61873D02*
X61244D01*
Y44692D01*
X61873D01*
Y45073D01*
D02*
G37*
G36*
X18266Y46167D02*
X14202D01*
X14106Y46128D01*
X14067Y46032D01*
Y44896D01*
X14067Y44889D01*
X13942Y44696D01*
X12858D01*
Y44320D01*
X12090D01*
X12061Y44349D01*
X11905Y44414D01*
X11736D01*
X11579Y44349D01*
X11460Y44230D01*
X11395Y44073D01*
Y43904D01*
X11460Y43748D01*
X11579Y43629D01*
X11736Y43564D01*
X11905D01*
X12061Y43629D01*
X12090Y43658D01*
X12858D01*
Y43304D01*
X13942D01*
X14067Y43111D01*
X14067Y43104D01*
Y41968D01*
X14106Y41872D01*
X14202Y41833D01*
X18266D01*
X18362Y41872D01*
X18401Y41968D01*
Y43111D01*
X18444Y43174D01*
X19739D01*
Y43873D01*
X18393D01*
Y44127D01*
X19739D01*
Y44826D01*
X18444D01*
X18401Y44889D01*
Y46032D01*
X18362Y46128D01*
X18266Y46167D01*
D02*
G37*
G36*
X60829Y47854D02*
X60227D01*
Y47100D01*
Y46346D01*
X60296D01*
X60403Y46146D01*
X60389Y46125D01*
X59500D01*
Y44875D01*
X59848D01*
Y44488D01*
X59837Y44483D01*
X59717Y44363D01*
X59652Y44207D01*
Y44055D01*
X59608Y44017D01*
X59471Y43953D01*
X58759Y44665D01*
X58836Y44850D01*
X58925D01*
Y46121D01*
X58925Y46150D01*
X58995Y46321D01*
X59054D01*
Y46973D01*
X57546D01*
Y46321D01*
X57605D01*
X57675Y46150D01*
X57675Y46121D01*
Y44850D01*
X58078D01*
Y44792D01*
X58096Y44704D01*
X58146Y44630D01*
X59146Y43629D01*
X59063Y43429D01*
X58195D01*
X56959Y44665D01*
X57036Y44850D01*
X57125D01*
Y46121D01*
X57125Y46150D01*
X57195Y46321D01*
X57254D01*
Y46973D01*
X55746D01*
Y46321D01*
X55805D01*
X55875Y46150D01*
X55875Y46121D01*
Y45831D01*
X55863Y45813D01*
X55846Y45725D01*
X55863Y45637D01*
X55875Y45619D01*
Y44850D01*
X56278D01*
Y44792D01*
X56296Y44704D01*
X56346Y44630D01*
X57938Y43038D01*
X57957Y43025D01*
X57896Y42825D01*
X57600D01*
Y41575D01*
X58800D01*
Y41816D01*
X59000Y41899D01*
X59059Y41840D01*
X59215Y41775D01*
X59385D01*
X59541Y41840D01*
X59660Y41959D01*
X59711Y42082D01*
X59837Y42135D01*
X59925Y42151D01*
X60298Y41778D01*
X60372Y41728D01*
X60460Y41711D01*
X60928D01*
X60973Y41649D01*
X61021Y41518D01*
X61005Y41493D01*
X60992Y41425D01*
Y41125D01*
X61005Y41057D01*
X61007Y41054D01*
X60935Y40874D01*
X60918Y40854D01*
X58800D01*
Y41225D01*
X57600D01*
Y40829D01*
X57125D01*
Y41221D01*
X57125Y41250D01*
X57195Y41421D01*
X57254D01*
Y42073D01*
X55746D01*
Y41421D01*
X55805D01*
X55875Y41250D01*
X55875Y41221D01*
Y39950D01*
X57125D01*
Y40371D01*
X57600D01*
Y39975D01*
X58800D01*
Y40396D01*
X61013D01*
X61044Y40349D01*
X61102Y40310D01*
X61170Y40297D01*
X62490D01*
X62558Y40310D01*
X62639Y40138D01*
X62652Y40081D01*
X62648Y40072D01*
X62305Y39729D01*
X59600D01*
X59512Y39712D01*
X59438Y39662D01*
X51205Y31429D01*
X47435D01*
X47354Y31596D01*
X47354Y31629D01*
Y32198D01*
X46600D01*
X45846D01*
Y31629D01*
X45846Y31596D01*
X45765Y31429D01*
X43775D01*
X43687Y31412D01*
X43613Y31362D01*
X42450Y30199D01*
X42016Y29765D01*
X41519D01*
X41500Y29773D01*
X40740D01*
X40625Y29726D01*
X40585Y29629D01*
X40577Y29611D01*
Y29461D01*
X40621Y29336D01*
X40577Y29211D01*
Y29061D01*
X40621Y28936D01*
X40577Y28811D01*
Y28661D01*
X40621Y28536D01*
D01*
X40577Y28411D01*
Y28261D01*
D01*
X40625Y28146D01*
X40625Y28126D01*
X40577Y28011D01*
Y27861D01*
X40625Y27746D01*
X40740Y27699D01*
X41500D01*
X41519Y27707D01*
X44780D01*
X44790Y27684D01*
X44909Y27565D01*
X45065Y27500D01*
X45235D01*
X45391Y27565D01*
X45510Y27684D01*
X45515Y27696D01*
X45975D01*
Y27325D01*
X47225D01*
Y28525D01*
X45975D01*
Y28154D01*
X45515D01*
X45510Y28166D01*
X45391Y28285D01*
X45235Y28350D01*
X45065D01*
X44909Y28285D01*
X44790Y28166D01*
X44790Y28165D01*
X43973D01*
X43890Y28365D01*
X44395Y28871D01*
X55064D01*
X55152Y28888D01*
X55226Y28938D01*
X59646Y33357D01*
X59681Y33337D01*
X59858Y33290D01*
X60042D01*
X60219Y33337D01*
X60378Y33429D01*
X60507Y33558D01*
X60599Y33717D01*
X60646Y33894D01*
Y34078D01*
X60599Y34255D01*
X60507Y34414D01*
X60450Y34471D01*
X60533Y34671D01*
X60948D01*
X61328Y34290D01*
X61308Y34255D01*
X61260Y34078D01*
Y33894D01*
X61308Y33717D01*
X61399Y33558D01*
X61529Y33429D01*
X61688Y33337D01*
X61865Y33290D01*
X62048D01*
X62225Y33337D01*
X62384Y33429D01*
X62514Y33558D01*
X62606Y33717D01*
X62653Y33894D01*
Y34078D01*
X62606Y34255D01*
X62514Y34414D01*
X62384Y34543D01*
X62225Y34635D01*
X62048Y34682D01*
X61865D01*
X61688Y34635D01*
X61652Y34615D01*
X61205Y35062D01*
X61130Y35112D01*
X61043Y35129D01*
X57091D01*
X57003Y35112D01*
X56928Y35062D01*
X51871Y30004D01*
X44054D01*
X43952Y30204D01*
X44000Y30271D01*
X51700D01*
X51788Y30288D01*
X51862Y30338D01*
X60195Y38671D01*
X62600D01*
X62688Y38688D01*
X62762Y38738D01*
X63371Y39346D01*
X63571Y39263D01*
Y34564D01*
X63536Y34543D01*
X63406Y34414D01*
X63314Y34255D01*
X63267Y34078D01*
Y33894D01*
X63314Y33717D01*
X63406Y33558D01*
X63536Y33429D01*
X63694Y33337D01*
X63717Y33331D01*
Y27850D01*
X63694Y27844D01*
X63536Y27752D01*
X63406Y27623D01*
X63314Y27464D01*
X63267Y27287D01*
Y27103D01*
X63314Y26926D01*
X63406Y26767D01*
X63536Y26638D01*
X63694Y26546D01*
X63717Y26540D01*
Y21050D01*
X63662Y21035D01*
X63503Y20943D01*
X63373Y20814D01*
X63281Y20655D01*
X63234Y20478D01*
Y20294D01*
X63281Y20117D01*
X63373Y19958D01*
X63503Y19829D01*
X63662Y19737D01*
X63717Y19722D01*
Y14259D01*
X63662Y14244D01*
X63503Y14152D01*
X63373Y14023D01*
X63281Y13864D01*
X63234Y13687D01*
Y13503D01*
X63281Y13326D01*
X63373Y13167D01*
X63503Y13038D01*
X63662Y12946D01*
X63839Y12899D01*
X64022D01*
X64199Y12946D01*
X64358Y13038D01*
X64488Y13167D01*
X64579Y13326D01*
X64627Y13503D01*
Y13687D01*
X64579Y13864D01*
X64488Y14023D01*
X64358Y14152D01*
X64199Y14244D01*
X64176Y14250D01*
Y19731D01*
X64199Y19737D01*
X64358Y19829D01*
X64488Y19958D01*
X64579Y20117D01*
X64627Y20294D01*
Y20478D01*
X64579Y20655D01*
X64488Y20814D01*
X64358Y20943D01*
X64199Y21035D01*
X64176Y21041D01*
Y26531D01*
X64232Y26546D01*
X64391Y26638D01*
X64521Y26767D01*
X64612Y26926D01*
X64660Y27103D01*
Y27287D01*
X64612Y27464D01*
X64521Y27623D01*
X64391Y27752D01*
X64232Y27844D01*
X64176Y27859D01*
Y33322D01*
X64232Y33337D01*
X64391Y33429D01*
X64521Y33558D01*
X64612Y33717D01*
X64660Y33894D01*
Y34078D01*
X64612Y34255D01*
X64521Y34414D01*
X64391Y34543D01*
X64232Y34635D01*
X64055Y34682D01*
X64029D01*
Y35319D01*
X64229Y35402D01*
X65341Y34290D01*
X65321Y34255D01*
X65273Y34078D01*
Y33894D01*
X65321Y33717D01*
X65412Y33558D01*
X65542Y33429D01*
X65701Y33337D01*
X65724Y33331D01*
Y27850D01*
X65701Y27844D01*
X65542Y27752D01*
X65412Y27623D01*
X65321Y27464D01*
X65273Y27287D01*
Y27103D01*
X65321Y26926D01*
X65412Y26767D01*
X65542Y26638D01*
X65701Y26546D01*
X65724Y26540D01*
Y21050D01*
X65668Y21035D01*
X65509Y20943D01*
X65380Y20814D01*
X65288Y20655D01*
X65241Y20478D01*
Y20294D01*
X65288Y20117D01*
X65380Y19958D01*
X65509Y19829D01*
X65668Y19737D01*
X65724Y19722D01*
Y14259D01*
X65668Y14244D01*
X65509Y14152D01*
X65380Y14023D01*
X65288Y13864D01*
X65241Y13687D01*
Y13503D01*
X65288Y13326D01*
X65380Y13167D01*
X65509Y13038D01*
X65668Y12946D01*
X65845Y12899D01*
X66029D01*
X66206Y12946D01*
X66365Y13038D01*
X66494Y13167D01*
X66586Y13326D01*
X66633Y13503D01*
Y13687D01*
X66586Y13864D01*
X66494Y14023D01*
X66365Y14152D01*
X66206Y14244D01*
X66183Y14250D01*
Y19731D01*
X66206Y19737D01*
X66365Y19829D01*
X66494Y19958D01*
X66586Y20117D01*
X66633Y20294D01*
Y20478D01*
X66586Y20655D01*
X66494Y20814D01*
X66365Y20943D01*
X66206Y21035D01*
X66183Y21041D01*
Y26531D01*
X66239Y26546D01*
X66397Y26638D01*
X66527Y26767D01*
X66619Y26926D01*
X66666Y27103D01*
Y27287D01*
X66619Y27464D01*
X66527Y27623D01*
X66397Y27752D01*
X66239Y27844D01*
X66183Y27859D01*
Y33322D01*
X66239Y33337D01*
X66397Y33429D01*
X66527Y33558D01*
X66619Y33717D01*
X66666Y33894D01*
Y34078D01*
X66619Y34255D01*
X66527Y34414D01*
X66397Y34543D01*
X66239Y34635D01*
X66061Y34682D01*
X65878D01*
X65701Y34635D01*
X65666Y34615D01*
X64529Y35751D01*
Y40145D01*
X64554Y40181D01*
X64710Y40297D01*
X65171D01*
Y39965D01*
X65159Y39960D01*
X65040Y39841D01*
X64975Y39685D01*
Y39515D01*
X65040Y39359D01*
X65159Y39240D01*
X65315Y39175D01*
X65485D01*
X65641Y39240D01*
X65760Y39359D01*
X65765Y39371D01*
X67875D01*
Y39050D01*
X69125D01*
Y40350D01*
X67875D01*
Y39829D01*
X65765D01*
X65760Y39841D01*
X65641Y39960D01*
X65629Y39965D01*
Y40297D01*
X66030D01*
X66098Y40310D01*
X66156Y40349D01*
X66195Y40407D01*
X66208Y40475D01*
Y40775D01*
X66195Y40843D01*
X66193Y40846D01*
X66265Y41026D01*
X66282Y41046D01*
X66653D01*
X66759Y40940D01*
X66915Y40875D01*
X67085D01*
X67241Y40940D01*
X67347Y41046D01*
X67875D01*
Y40650D01*
X69125D01*
Y41071D01*
X69200D01*
X69288Y41088D01*
X69362Y41138D01*
X71289Y43065D01*
X71339Y43139D01*
X71356Y43227D01*
Y46348D01*
X71339Y46436D01*
X71289Y46510D01*
X71025Y46774D01*
Y47750D01*
X69775D01*
Y47329D01*
X69225D01*
Y47750D01*
X67975D01*
Y47329D01*
X67400D01*
Y47725D01*
X66200D01*
Y47329D01*
X65383D01*
Y47479D01*
X64129D01*
Y46721D01*
X65383D01*
Y46871D01*
X66200D01*
Y46475D01*
X67400D01*
Y46871D01*
X67975D01*
Y46450D01*
X69225D01*
Y46871D01*
X69775D01*
Y46450D01*
X70639D01*
X70717Y46350D01*
X70625Y46150D01*
X69775D01*
Y44850D01*
X69789D01*
X69866Y44665D01*
X67355Y42154D01*
X66439D01*
X66419Y42354D01*
X66463Y42363D01*
X66537Y42413D01*
X68754Y44630D01*
X68804Y44704D01*
X68822Y44792D01*
Y44850D01*
X69225D01*
Y46150D01*
X67975D01*
Y44850D01*
X68064D01*
X68141Y44665D01*
X67406Y43931D01*
X67269Y43995D01*
X67225Y44032D01*
Y44185D01*
X67160Y44341D01*
X67041Y44460D01*
X67029Y44465D01*
Y44875D01*
X67400D01*
Y46125D01*
X66200D01*
Y44875D01*
X66571D01*
Y44465D01*
X66559Y44460D01*
X66440Y44341D01*
X66375Y44185D01*
Y44015D01*
X66440Y43859D01*
X66559Y43740D01*
X66715Y43675D01*
X66868D01*
X66905Y43631D01*
X66969Y43494D01*
X66360Y42884D01*
X66156Y42851D01*
X66098Y42890D01*
X66030Y42903D01*
X64710D01*
X64642Y42890D01*
X64584Y42851D01*
X64545Y42793D01*
X64532Y42725D01*
Y42704D01*
X64375D01*
X64287Y42687D01*
X64213Y42637D01*
X63802Y42226D01*
X63776Y42219D01*
X63562Y42252D01*
X63077Y42737D01*
X63002Y42787D01*
X62915Y42804D01*
X62647D01*
X62616Y42851D01*
X62558Y42890D01*
X62490Y42903D01*
X61170D01*
X61102Y42890D01*
X61044Y42851D01*
X61013Y42804D01*
X60620D01*
X59908Y43516D01*
X59972Y43653D01*
X60010Y43698D01*
X60162D01*
X60318Y43762D01*
X60438Y43882D01*
X60502Y44038D01*
Y44207D01*
X60438Y44363D01*
X60318Y44483D01*
X60307Y44488D01*
Y44875D01*
X60700D01*
Y45601D01*
X60981Y45882D01*
X61194Y45857D01*
X61255Y45721D01*
X61244Y45708D01*
X61244Y45624D01*
Y45327D01*
X62756D01*
Y45708D01*
X62627Y45855D01*
X62627Y45908D01*
Y46529D01*
X62756Y46592D01*
Y46973D01*
X62000D01*
Y47100D01*
X61873D01*
Y47608D01*
X61244D01*
Y47329D01*
X60829D01*
Y47854D01*
D02*
G37*
G36*
X57254Y42979D02*
X56627D01*
Y42327D01*
X57254D01*
Y42979D01*
D02*
G37*
G36*
X56373D02*
X55746D01*
Y42327D01*
X56373D01*
Y42979D01*
D02*
G37*
G36*
X33410Y40175D02*
X33240D01*
X33084Y40110D01*
X32965Y39991D01*
X32900Y39835D01*
Y39665D01*
X32965Y39509D01*
X33084Y39390D01*
X33096Y39385D01*
Y39100D01*
X32725D01*
Y37850D01*
X33925D01*
Y39100D01*
X33554D01*
Y39385D01*
X33566Y39390D01*
X33685Y39509D01*
X33750Y39665D01*
Y39835D01*
X33685Y39991D01*
X33566Y40110D01*
X33410Y40175D01*
D02*
G37*
G36*
X43654Y38479D02*
X43027D01*
Y37827D01*
X43654D01*
Y38479D01*
D02*
G37*
G36*
X42773D02*
X42146D01*
Y37827D01*
X42773D01*
Y38479D01*
D02*
G37*
G36*
X31752Y37654D02*
Y37027D01*
X32354D01*
Y37654D01*
X31752D01*
D02*
G37*
G36*
X34054Y37629D02*
X33452D01*
Y37002D01*
X34054D01*
Y37629D01*
D02*
G37*
G36*
X33198D02*
X32596D01*
Y37002D01*
X33198D01*
Y37629D01*
D02*
G37*
G36*
X32354Y36773D02*
X31752D01*
Y36146D01*
X32354D01*
Y36773D01*
D02*
G37*
G36*
X34054Y36748D02*
X33452D01*
Y36121D01*
X34054D01*
Y36748D01*
D02*
G37*
G36*
X33198D02*
X32596D01*
Y36121D01*
X33198D01*
Y36748D01*
D02*
G37*
G36*
X41300Y38325D02*
X40050D01*
Y36669D01*
X39488Y36107D01*
X39432Y36023D01*
X39423Y35975D01*
X38904D01*
Y36475D01*
X39300D01*
Y38325D01*
X38050D01*
Y36475D01*
X38446D01*
Y35975D01*
X38250D01*
Y35684D01*
X38189Y35636D01*
X38050Y35577D01*
X37935Y35625D01*
X37765D01*
X37609Y35560D01*
X37490Y35441D01*
X37425Y35285D01*
Y35115D01*
X37490Y34959D01*
X37574Y34875D01*
X37490Y34791D01*
X37425Y34635D01*
Y34465D01*
X37490Y34309D01*
X37609Y34190D01*
X37621Y34185D01*
Y33606D01*
X37436Y33529D01*
X36269Y34696D01*
Y36250D01*
X37250D01*
Y37550D01*
X36000D01*
Y36641D01*
X35994Y36637D01*
X35944Y36587D01*
X35812Y36542D01*
X35681Y36587D01*
X35631Y36637D01*
X35625Y36641D01*
Y37550D01*
X34375D01*
Y36250D01*
X35356D01*
Y34525D01*
X35374Y34437D01*
X35423Y34363D01*
X35425Y34361D01*
X35428Y34348D01*
X35477Y34273D01*
X37831Y31919D01*
D01*
X37840Y31910D01*
Y31385D01*
X37832Y31366D01*
Y30606D01*
X37880Y30491D01*
X37995Y30444D01*
X38145D01*
X38270Y30488D01*
X38395Y30444D01*
X38545D01*
X38670Y30488D01*
X38795Y30444D01*
X38945D01*
X39059Y30491D01*
X39105Y30601D01*
X39107Y30606D01*
X39143Y30639D01*
Y30986D01*
X39397D01*
Y30639D01*
X39432Y30606D01*
X39434Y30601D01*
X39480Y30491D01*
X39577Y30451D01*
X39595Y30444D01*
X39745D01*
X39870Y30488D01*
X39995Y30444D01*
X40145D01*
X40270Y30488D01*
X40395Y30444D01*
X40545D01*
X40659Y30491D01*
X40707Y30606D01*
Y30722D01*
Y31366D01*
X40699Y31385D01*
Y31534D01*
X41640Y32475D01*
X42115Y32950D01*
X42300Y32874D01*
Y32491D01*
X42086Y32277D01*
X41816Y32007D01*
X41784Y32000D01*
X41749Y31977D01*
X41709Y31960D01*
X41679Y31930D01*
X41644Y31906D01*
X41620Y31871D01*
X41590Y31841D01*
X41573Y31801D01*
X41550Y31766D01*
X41541Y31724D01*
X41525Y31685D01*
Y31642D01*
X41517Y31600D01*
X41525Y31558D01*
Y31515D01*
X41541Y31476D01*
X41550Y31434D01*
X41573Y31399D01*
X41590Y31359D01*
X41620Y31329D01*
X41644Y31294D01*
X41679Y31270D01*
X41709Y31240D01*
X41749Y31223D01*
X41784Y31200D01*
X41826Y31191D01*
X41865Y31175D01*
X41908D01*
X41950Y31167D01*
X41992Y31175D01*
X42035D01*
X42074Y31191D01*
X42116Y31200D01*
X42151Y31223D01*
X42191Y31240D01*
X42221Y31270D01*
X42256Y31294D01*
X42280Y31329D01*
X42310Y31359D01*
X42327Y31399D01*
X42350Y31434D01*
X42357Y31466D01*
X42841Y31950D01*
X43500D01*
Y33200D01*
X42626D01*
X42550Y33385D01*
X42687Y33522D01*
X42706Y33550D01*
X43500D01*
Y34800D01*
X43129D01*
Y35450D01*
X43525D01*
Y36721D01*
X43525Y36750D01*
X43595Y36921D01*
X43654D01*
Y37573D01*
X42146D01*
Y36921D01*
X42205D01*
X42275Y36750D01*
X42275Y36721D01*
Y35450D01*
X42671D01*
Y34800D01*
X42300D01*
Y33822D01*
X42296Y33800D01*
Y33779D01*
X40499Y31983D01*
X40299Y32066D01*
Y32586D01*
X40436Y32723D01*
X40492Y32806D01*
X40512Y32905D01*
Y33075D01*
X41100D01*
Y33513D01*
X41300Y33627D01*
X41365Y33600D01*
X41535D01*
X41691Y33665D01*
X41810Y33784D01*
X41875Y33940D01*
Y34110D01*
X41810Y34266D01*
X41691Y34385D01*
X41645Y34404D01*
Y34621D01*
X41691Y34640D01*
X41810Y34759D01*
X41875Y34915D01*
Y35085D01*
X41810Y35241D01*
X41691Y35360D01*
X41535Y35425D01*
X41365D01*
X41300Y35398D01*
X41103Y35511D01*
X41100Y35515D01*
Y35975D01*
X40344D01*
X40268Y36160D01*
X40583Y36475D01*
X41300D01*
Y38325D01*
D02*
G37*
G36*
X47354Y34754D02*
X46727D01*
Y34152D01*
X47354D01*
Y34754D01*
D02*
G37*
G36*
X46473D02*
X45846D01*
Y34152D01*
X46473D01*
Y34754D01*
D02*
G37*
G36*
X70783Y34812D02*
X70085D01*
Y34113D01*
X70783D01*
Y34812D01*
D02*
G37*
G36*
X69831D02*
X69132D01*
Y34113D01*
X69831D01*
Y34812D01*
D02*
G37*
G36*
X48825Y34625D02*
X47575D01*
Y33425D01*
X48825D01*
Y33771D01*
X49260D01*
X49265Y33759D01*
X49384Y33640D01*
X49540Y33575D01*
X49710D01*
X49866Y33640D01*
X49985Y33759D01*
X50050Y33915D01*
Y34085D01*
X49985Y34241D01*
X49866Y34360D01*
X49710Y34425D01*
X49540D01*
X49384Y34360D01*
X49265Y34241D01*
X49260Y34229D01*
X48825D01*
Y34625D01*
D02*
G37*
G36*
X47354Y33898D02*
X46727D01*
Y33296D01*
X47354D01*
Y33898D01*
D02*
G37*
G36*
X46473D02*
X45846D01*
Y33296D01*
X46473D01*
Y33898D01*
D02*
G37*
G36*
X68043Y34682D02*
X67859D01*
X67682Y34635D01*
X67523Y34543D01*
X67394Y34414D01*
X67302Y34255D01*
X67254Y34078D01*
Y33894D01*
X67302Y33717D01*
X67394Y33558D01*
X67523Y33429D01*
X67682Y33337D01*
X67859Y33290D01*
X68043D01*
X68220Y33337D01*
X68379Y33429D01*
X68508Y33558D01*
X68600Y33717D01*
X68647Y33894D01*
Y34078D01*
X68600Y34255D01*
X68508Y34414D01*
X68379Y34543D01*
X68220Y34635D01*
X68043Y34682D01*
D02*
G37*
G36*
X70783Y33859D02*
X70085D01*
Y33160D01*
X70783D01*
Y33859D01*
D02*
G37*
G36*
X69831D02*
X69132D01*
Y33160D01*
X69831D01*
Y33859D01*
D02*
G37*
G36*
X47354Y33054D02*
X46727D01*
Y32452D01*
X47354D01*
Y33054D01*
D02*
G37*
G36*
X46473D02*
X45846D01*
Y32452D01*
X46473D01*
Y33054D01*
D02*
G37*
G36*
X28898Y32879D02*
X28271D01*
Y32277D01*
X28898D01*
Y32879D01*
D02*
G37*
G36*
X48825Y32925D02*
X47575D01*
Y31725D01*
X48825D01*
Y32156D01*
X49175D01*
X49180Y32144D01*
X49299Y32025D01*
X49455Y31960D01*
X49624D01*
X49781Y32025D01*
X49900Y32144D01*
X49965Y32301D01*
Y32470D01*
X49900Y32626D01*
X49781Y32745D01*
X49624Y32810D01*
X49455D01*
X49299Y32745D01*
X49180Y32626D01*
X49175Y32615D01*
X48825D01*
Y32925D01*
D02*
G37*
G36*
X48825Y28525D02*
X47575D01*
Y27325D01*
X48825D01*
Y27657D01*
X49266D01*
X49271Y27646D01*
X49390Y27527D01*
X49547Y27462D01*
X49716D01*
X49872Y27527D01*
X49991Y27646D01*
X50056Y27802D01*
Y27971D01*
X49991Y28128D01*
X49872Y28247D01*
X49716Y28312D01*
X49547D01*
X49390Y28247D01*
X49271Y28128D01*
X49266Y28116D01*
X48825D01*
Y28525D01*
D02*
G37*
G36*
X70783Y28021D02*
X70085D01*
Y27322D01*
X70783D01*
Y28021D01*
D02*
G37*
G36*
X69831D02*
X69132D01*
Y27322D01*
X69831D01*
Y28021D01*
D02*
G37*
G36*
X68043Y27892D02*
X67859D01*
X67682Y27844D01*
X67523Y27752D01*
X67394Y27623D01*
X67302Y27464D01*
X67255Y27287D01*
Y27103D01*
X67302Y26926D01*
X67394Y26767D01*
X67523Y26638D01*
X67682Y26546D01*
X67859Y26499D01*
X68043D01*
X68220Y26546D01*
X68379Y26638D01*
X68508Y26767D01*
X68600Y26926D01*
X68647Y27103D01*
Y27287D01*
X68600Y27464D01*
X68508Y27623D01*
X68379Y27752D01*
X68220Y27844D01*
X68043Y27892D01*
D02*
G37*
G36*
X60752Y28629D02*
X56600D01*
X56512Y28612D01*
X56438Y28562D01*
X52805Y24929D01*
X46395D01*
X46163Y25161D01*
X46240Y25346D01*
X46448D01*
Y25948D01*
X45821D01*
Y25765D01*
X45636Y25688D01*
X44026Y27298D01*
X43952Y27348D01*
X43864Y27365D01*
X41519D01*
X41500Y27373D01*
X40740D01*
X40625Y27326D01*
X40577Y27211D01*
Y27061D01*
X40621Y26936D01*
X40577Y26811D01*
Y26661D01*
X40621Y26536D01*
X40577Y26411D01*
Y26261D01*
X40621Y26136D01*
X40577Y26011D01*
Y25861D01*
X40621Y25736D01*
X40577Y25611D01*
Y25461D01*
X40621Y25336D01*
X40577Y25211D01*
Y25061D01*
X40621Y24936D01*
X40577Y24811D01*
Y24661D01*
X40625Y24546D01*
X40740Y24499D01*
X41033D01*
X41045Y24486D01*
X41154Y24377D01*
X42381Y23150D01*
X42575Y22956D01*
Y22790D01*
X42640Y22634D01*
X42759Y22515D01*
X42915Y22450D01*
X43085D01*
X43241Y22515D01*
X43360Y22634D01*
X43411Y22757D01*
X43537Y22810D01*
X43625Y22826D01*
X45313Y21138D01*
X45387Y21088D01*
X45475Y21071D01*
X50205D01*
X56238Y15038D01*
X56312Y14988D01*
X56400Y14971D01*
X58522D01*
X59415Y14078D01*
X59360Y14023D01*
X59268Y13864D01*
X59221Y13687D01*
Y13503D01*
X59268Y13326D01*
X59360Y13167D01*
X59490Y13038D01*
X59648Y12946D01*
X59826Y12899D01*
X60009D01*
X60186Y12946D01*
X60345Y13038D01*
X60475Y13167D01*
X60566Y13326D01*
X60614Y13503D01*
Y13687D01*
X60566Y13864D01*
X60475Y14023D01*
X60345Y14152D01*
X60186Y14244D01*
X60009Y14292D01*
X59839D01*
X59816Y14326D01*
X58780Y15362D01*
X58705Y15412D01*
X58617Y15429D01*
X56495D01*
X50462Y21462D01*
X50450Y21471D01*
X50510Y21671D01*
X51405D01*
X56338Y16738D01*
X56412Y16688D01*
X56500Y16671D01*
X58524D01*
X61295Y13899D01*
X61275Y13864D01*
X61227Y13687D01*
Y13503D01*
X61275Y13326D01*
X61366Y13167D01*
X61496Y13038D01*
X61655Y12946D01*
X61832Y12899D01*
X62015D01*
X62193Y12946D01*
X62351Y13038D01*
X62481Y13167D01*
X62573Y13326D01*
X62620Y13503D01*
Y13687D01*
X62573Y13864D01*
X62481Y14023D01*
X62351Y14152D01*
X62193Y14244D01*
X62015Y14292D01*
X61832D01*
X61655Y14244D01*
X61620Y14224D01*
X58781Y17062D01*
X58707Y17112D01*
X58619Y17129D01*
X56595D01*
X51754Y21971D01*
X51837Y22171D01*
X58505D01*
X59497Y21179D01*
X59490Y20943D01*
X59360Y20814D01*
X59268Y20655D01*
X59221Y20478D01*
Y20294D01*
X59268Y20117D01*
X59360Y19958D01*
X59490Y19829D01*
X59648Y19737D01*
X59826Y19690D01*
X60009D01*
X60186Y19737D01*
X60345Y19829D01*
X60475Y19958D01*
X60566Y20117D01*
X60614Y20294D01*
Y20478D01*
X60566Y20655D01*
X60475Y20814D01*
X60345Y20943D01*
X60186Y21035D01*
X60089Y21061D01*
Y21140D01*
X60072Y21228D01*
X60022Y21303D01*
X58762Y22562D01*
X58688Y22612D01*
X58600Y22629D01*
X46185D01*
X46161Y22671D01*
X46274Y22871D01*
X59115D01*
X61295Y20690D01*
X61275Y20655D01*
X61227Y20478D01*
Y20294D01*
X61275Y20117D01*
X61366Y19958D01*
X61496Y19829D01*
X61655Y19737D01*
X61832Y19690D01*
X62015D01*
X62193Y19737D01*
X62351Y19829D01*
X62481Y19958D01*
X62573Y20117D01*
X62620Y20294D01*
Y20478D01*
X62573Y20655D01*
X62481Y20814D01*
X62351Y20943D01*
X62193Y21035D01*
X62015Y21083D01*
X61832D01*
X61655Y21035D01*
X61620Y21015D01*
X59372Y23262D01*
X59298Y23312D01*
X59210Y23329D01*
X46120D01*
X45933Y23516D01*
X46033Y23678D01*
X46046Y23686D01*
X46125Y23671D01*
X58400D01*
X58488Y23688D01*
X58562Y23738D01*
X60112Y25288D01*
X60162Y25362D01*
X60179Y25450D01*
Y26535D01*
X60219Y26546D01*
X60378Y26638D01*
X60507Y26767D01*
X60599Y26926D01*
X60646Y27103D01*
Y27287D01*
X60599Y27464D01*
X60507Y27623D01*
X60378Y27752D01*
X60219Y27844D01*
X60042Y27892D01*
X59858D01*
X59681Y27844D01*
X59522Y27752D01*
X59393Y27623D01*
X59301Y27464D01*
X59254Y27287D01*
Y27103D01*
X59301Y26926D01*
X59393Y26767D01*
X59522Y26638D01*
X59681Y26546D01*
X59721Y26535D01*
Y25545D01*
X58305Y24129D01*
X46220D01*
X43789Y26560D01*
X43855Y26777D01*
X43891Y26784D01*
X46138Y24538D01*
X46212Y24488D01*
X46300Y24471D01*
X52900D01*
X52988Y24488D01*
X53062Y24538D01*
X56695Y28171D01*
X60657D01*
X61328Y27499D01*
X61308Y27464D01*
X61260Y27287D01*
Y27103D01*
X61308Y26926D01*
X61399Y26767D01*
X61529Y26638D01*
X61688Y26546D01*
X61865Y26499D01*
X62048D01*
X62225Y26546D01*
X62384Y26638D01*
X62514Y26767D01*
X62606Y26926D01*
X62653Y27103D01*
Y27287D01*
X62606Y27464D01*
X62514Y27623D01*
X62384Y27752D01*
X62225Y27844D01*
X62048Y27892D01*
X61865D01*
X61688Y27844D01*
X61652Y27824D01*
X60914Y28562D01*
X60839Y28612D01*
X60752Y28629D01*
D02*
G37*
G36*
X58060Y27892D02*
X57877D01*
X57700Y27844D01*
X57541Y27752D01*
X57411Y27623D01*
X57320Y27464D01*
X57272Y27287D01*
Y27103D01*
X57320Y26926D01*
X57411Y26767D01*
X57541Y26638D01*
X57700Y26546D01*
X57877Y26499D01*
X58060D01*
X58238Y26546D01*
X58396Y26638D01*
X58526Y26767D01*
X58618Y26926D01*
X58665Y27103D01*
Y27287D01*
X58618Y27464D01*
X58526Y27623D01*
X58396Y27752D01*
X58238Y27844D01*
X58060Y27892D01*
D02*
G37*
G36*
X70783Y27068D02*
X70085D01*
Y26369D01*
X70783D01*
Y27068D01*
D02*
G37*
G36*
X69831D02*
X69132D01*
Y26369D01*
X69831D01*
Y27068D01*
D02*
G37*
G36*
X47329Y26804D02*
X46702D01*
Y26202D01*
X47329D01*
Y26804D01*
D02*
G37*
G36*
X46448D02*
X45821D01*
Y26202D01*
X46448D01*
Y26804D01*
D02*
G37*
G36*
X48800Y26675D02*
X47550D01*
Y25475D01*
X48800D01*
Y25871D01*
X49260D01*
X49265Y25859D01*
X49384Y25740D01*
X49540Y25675D01*
X49710D01*
X49866Y25740D01*
X49985Y25859D01*
X50050Y26015D01*
Y26185D01*
X49985Y26341D01*
X49866Y26460D01*
X49710Y26525D01*
X49540D01*
X49384Y26460D01*
X49265Y26341D01*
X49260Y26329D01*
X48800D01*
Y26675D01*
D02*
G37*
G36*
X47329Y25948D02*
X46702D01*
Y25346D01*
X47329D01*
Y25948D01*
D02*
G37*
G36*
X37935Y30150D02*
X37765D01*
X37609Y30085D01*
X37561Y30037D01*
X37490Y29966D01*
X37436Y29835D01*
X35500D01*
X35404Y29796D01*
X35365Y29700D01*
Y28729D01*
X35259Y28685D01*
X35140Y28566D01*
X35075Y28410D01*
Y28240D01*
X35140Y28084D01*
X35259Y27965D01*
X35365Y27921D01*
Y25300D01*
X35404Y25204D01*
X35500Y25165D01*
X37602D01*
X37615Y25134D01*
X37734Y25015D01*
X37890Y24950D01*
X38060D01*
X38216Y25015D01*
X38335Y25134D01*
X38348Y25165D01*
X39900D01*
X39996Y25204D01*
X40035Y25300D01*
Y27527D01*
X40066Y27540D01*
X40185Y27659D01*
X40250Y27815D01*
Y27985D01*
X40185Y28141D01*
X40066Y28260D01*
X40035Y28273D01*
D01*
Y29700D01*
X39996Y29796D01*
X39900Y29835D01*
X38264D01*
X38210Y29966D01*
X38091Y30085D01*
X38007Y30120D01*
X37955Y30142D01*
D01*
X37935Y30150D01*
D02*
G37*
G36*
X30379Y25529D02*
X29752D01*
Y24927D01*
X30379D01*
Y25529D01*
D02*
G37*
G36*
X29498D02*
X28871D01*
Y24927D01*
X29498D01*
Y25529D01*
D02*
G37*
G36*
X39745Y24628D02*
X39595D01*
X39470Y24584D01*
X39345Y24628D01*
X39195D01*
X39070Y24584D01*
X38945Y24628D01*
X38795D01*
X38670Y24584D01*
X38545Y24628D01*
X38395D01*
X38270Y24584D01*
X38145Y24628D01*
X37995D01*
X37870Y24584D01*
X37745Y24628D01*
X37595D01*
X37470Y24584D01*
X37345Y24628D01*
X37195D01*
X37070Y24584D01*
D01*
X36945Y24628D01*
X36795D01*
X36680Y24581D01*
X36632Y24466D01*
Y23706D01*
X36640Y23687D01*
Y22950D01*
Y21461D01*
X36338Y21158D01*
X36288Y21084D01*
X36279Y21038D01*
X36079Y21058D01*
Y21254D01*
X35477D01*
Y20500D01*
Y19746D01*
X36071D01*
X36079Y19746D01*
X36271Y19726D01*
Y18035D01*
X34469D01*
X34385Y18234D01*
X34450Y18390D01*
Y18470D01*
X34635Y18597D01*
X34750Y18551D01*
Y18275D01*
X35950D01*
Y19525D01*
X34750D01*
Y19129D01*
X34450D01*
X34362Y19112D01*
X34288Y19062D01*
X34121Y18895D01*
X34110Y18900D01*
X33940D01*
X33784Y18835D01*
X33665Y18716D01*
X33600Y18560D01*
Y18390D01*
X33665Y18234D01*
X33745Y18154D01*
X33783Y18093D01*
X33769Y17904D01*
X32999Y17043D01*
X32983Y16997D01*
X32965Y16952D01*
X32965Y9700D01*
X33004Y9604D01*
X33100Y9565D01*
X42600D01*
X42696Y9604D01*
X42735Y9700D01*
Y16925D01*
X42696Y17021D01*
X41721Y17996D01*
X41625Y18035D01*
X37975D01*
X37950Y18225D01*
X37950D01*
Y19525D01*
X36729D01*
Y19825D01*
X37950D01*
Y21115D01*
X37950Y21125D01*
X37976Y21201D01*
X38198Y21252D01*
X38425Y21026D01*
Y19850D01*
X39625D01*
Y20714D01*
X39810Y20791D01*
X43805Y16796D01*
X43879Y16746D01*
X43967Y16728D01*
X44450D01*
Y15325D01*
X45296D01*
Y10975D01*
X44450D01*
Y8825D01*
X46114D01*
X46191Y8640D01*
X46055Y8504D01*
X41525D01*
X41437Y8487D01*
X41363Y8437D01*
X39899Y6973D01*
X39767Y7049D01*
X39518Y7116D01*
X39262D01*
X39013Y7049D01*
X38791Y6921D01*
X38609Y6739D01*
X38481Y6517D01*
X38414Y6268D01*
Y6012D01*
X38481Y5763D01*
X38609Y5541D01*
X38791Y5359D01*
X39013Y5231D01*
X39262Y5164D01*
X39518D01*
X39767Y5231D01*
X39989Y5359D01*
X40171Y5541D01*
X40299Y5763D01*
X40366Y6012D01*
Y6268D01*
X40299Y6517D01*
X40223Y6649D01*
X41620Y8046D01*
X43321D01*
X43341Y7846D01*
X43335Y7844D01*
X43260Y7795D01*
X42439Y6973D01*
X42307Y7049D01*
X42058Y7116D01*
X41802D01*
X41553Y7049D01*
X41331Y6921D01*
X41149Y6739D01*
X41021Y6517D01*
X40954Y6268D01*
Y6012D01*
X41021Y5763D01*
X41149Y5541D01*
X41331Y5359D01*
X41553Y5231D01*
X41802Y5164D01*
X42058D01*
X42307Y5231D01*
X42529Y5359D01*
X42711Y5541D01*
X42839Y5763D01*
X42906Y6012D01*
Y6268D01*
X42839Y6517D01*
X42763Y6649D01*
X43517Y7403D01*
X45932D01*
X46015Y7203D01*
X45483Y6671D01*
X45281Y6687D01*
X45251Y6739D01*
X45069Y6921D01*
X44847Y7049D01*
X44598Y7116D01*
X44342D01*
X44093Y7049D01*
X43871Y6921D01*
X43689Y6739D01*
X43561Y6517D01*
X43494Y6268D01*
Y6012D01*
X43561Y5763D01*
X43689Y5541D01*
X43871Y5359D01*
X44093Y5231D01*
X44342Y5164D01*
X44598D01*
X44847Y5231D01*
X45069Y5359D01*
X45251Y5541D01*
X45379Y5763D01*
X45446Y6012D01*
Y6198D01*
X45564D01*
X45652Y6215D01*
X45726Y6265D01*
X45863Y6402D01*
X46042Y6298D01*
X46034Y6268D01*
Y6012D01*
X46101Y5763D01*
X46229Y5541D01*
X46411Y5359D01*
X46633Y5231D01*
X46882Y5164D01*
X47138D01*
X47387Y5231D01*
X47609Y5359D01*
X47791Y5541D01*
X47919Y5763D01*
X47986Y6012D01*
Y6268D01*
X47919Y6517D01*
X47791Y6739D01*
X47609Y6921D01*
X47387Y7049D01*
X47138Y7116D01*
X46882D01*
X46852Y7108D01*
X46748Y7287D01*
X48287Y8826D01*
X48337Y8901D01*
X48354Y8989D01*
Y17850D01*
X48337Y17938D01*
X48287Y18012D01*
X47137Y19162D01*
X47134Y19164D01*
X47100Y19350D01*
X47100Y19408D01*
Y19696D01*
X47460D01*
X47465Y19684D01*
X47584Y19565D01*
X47740Y19500D01*
X47910D01*
X48066Y19565D01*
X48185Y19684D01*
X48250Y19840D01*
Y20010D01*
X48185Y20166D01*
X48066Y20285D01*
X47910Y20350D01*
X47740D01*
X47584Y20285D01*
X47465Y20166D01*
X47460Y20154D01*
X47100D01*
Y20550D01*
X45850D01*
Y19545D01*
X45660Y19419D01*
X45650Y19419D01*
X45629Y19429D01*
Y19823D01*
X44875D01*
X44121D01*
Y19515D01*
X43936Y19438D01*
X40424Y22950D01*
X40299Y23075D01*
D01*
Y23343D01*
Y23687D01*
X40307Y23706D01*
Y24466D01*
X40259Y24581D01*
X40145Y24628D01*
X39995D01*
X39870Y24584D01*
X39745Y24628D01*
D02*
G37*
G36*
X29498Y24673D02*
X28871D01*
Y24071D01*
X29498D01*
Y24673D01*
D02*
G37*
G36*
X34600Y26173D02*
X33840D01*
X33820Y26165D01*
X32574D01*
X32486Y26148D01*
X32411Y26098D01*
X30579Y24266D01*
X30379Y24349D01*
Y24673D01*
X29752D01*
Y24071D01*
X30101D01*
X30184Y23871D01*
X29793Y23479D01*
X28125D01*
X28037Y23462D01*
X27963Y23412D01*
X16613Y12062D01*
X16563Y11988D01*
X16563Y11987D01*
X15205Y10629D01*
X14052D01*
Y11224D01*
X11898D01*
Y9576D01*
X14052D01*
Y10171D01*
X15300D01*
X15388Y10188D01*
X15462Y10238D01*
X16962Y11738D01*
X17012Y11812D01*
X17012Y11813D01*
X28220Y23021D01*
X29813D01*
X29902Y22827D01*
X22038Y14962D01*
X21988Y14888D01*
X21971Y14800D01*
Y12695D01*
X17905Y8629D01*
X14025D01*
X13948Y8815D01*
X13816Y8987D01*
X13644Y9119D01*
X13444Y9202D01*
X13229Y9231D01*
X12721D01*
X12506Y9202D01*
X12306Y9119D01*
X12134Y8987D01*
X12002Y8815D01*
X11919Y8615D01*
X11890Y8400D01*
X11919Y8185D01*
X12002Y7985D01*
X12134Y7813D01*
X12306Y7681D01*
X12506Y7598D01*
X12721Y7569D01*
X13229D01*
X13444Y7598D01*
X13644Y7681D01*
X13816Y7813D01*
X13948Y7985D01*
X14025Y8171D01*
X18000D01*
X18088Y8188D01*
X18162Y8238D01*
X22362Y12438D01*
X22412Y12512D01*
X22429Y12600D01*
Y14705D01*
X32958Y25234D01*
X33173D01*
X33249Y25049D01*
X23988Y15787D01*
X23938Y15713D01*
X23921Y15625D01*
Y7116D01*
X23174D01*
Y5164D01*
X25126D01*
Y7116D01*
X24379D01*
Y15530D01*
X33343Y24494D01*
X33565Y24433D01*
X33571Y24412D01*
X26528Y17369D01*
X26478Y17294D01*
X26461Y17206D01*
Y7089D01*
X26313Y7049D01*
X26091Y6921D01*
X25909Y6739D01*
X25781Y6517D01*
X25714Y6268D01*
Y6012D01*
X25781Y5763D01*
X25909Y5541D01*
X26091Y5359D01*
X26313Y5231D01*
X26562Y5164D01*
X26818D01*
X27067Y5231D01*
X27289Y5359D01*
X27471Y5541D01*
X27599Y5763D01*
X27666Y6012D01*
Y6268D01*
X27599Y6517D01*
X27471Y6739D01*
X27289Y6921D01*
X27067Y7049D01*
X26919Y7089D01*
Y17111D01*
X34125Y24316D01*
X34174Y24391D01*
X34192Y24479D01*
Y24499D01*
X34447D01*
X34472Y24494D01*
X34492Y24299D01*
X34488Y24298D01*
X34414Y24248D01*
X29068Y18902D01*
X29018Y18828D01*
X29001Y18740D01*
Y7089D01*
X28853Y7049D01*
X28631Y6921D01*
X28449Y6739D01*
X28321Y6517D01*
X28254Y6268D01*
Y6012D01*
X28321Y5763D01*
X28449Y5541D01*
X28631Y5359D01*
X28853Y5231D01*
X29102Y5164D01*
X29358D01*
X29607Y5231D01*
X29829Y5359D01*
X30011Y5541D01*
X30139Y5763D01*
X30206Y6012D01*
Y6268D01*
X30139Y6517D01*
X30011Y6739D01*
X29829Y6921D01*
X29607Y7049D01*
X29459Y7089D01*
Y18645D01*
X34400Y23585D01*
X34608Y23537D01*
X34645Y23395D01*
X30213Y18962D01*
X30163Y18888D01*
X30146Y18800D01*
Y7535D01*
X30163Y7447D01*
X30213Y7373D01*
X30937Y6649D01*
X30861Y6517D01*
X30794Y6268D01*
Y6012D01*
X30861Y5763D01*
X30989Y5541D01*
X31171Y5359D01*
X31393Y5231D01*
X31642Y5164D01*
X31898D01*
X32147Y5231D01*
X32369Y5359D01*
X32551Y5541D01*
X32679Y5763D01*
X32746Y6012D01*
Y6268D01*
X32679Y6517D01*
X32551Y6739D01*
X32369Y6921D01*
X32147Y7049D01*
X31898Y7116D01*
X31642D01*
X31393Y7049D01*
X31261Y6973D01*
X30604Y7630D01*
Y18705D01*
X30796Y18896D01*
X30996Y18813D01*
Y9225D01*
X31013Y9137D01*
X31063Y9063D01*
X33477Y6649D01*
X33401Y6517D01*
X33334Y6268D01*
Y6012D01*
X33401Y5763D01*
X33529Y5541D01*
X33711Y5359D01*
X33933Y5231D01*
X34182Y5164D01*
X34438D01*
X34687Y5231D01*
X34909Y5359D01*
X35091Y5541D01*
X35219Y5763D01*
X35286Y6012D01*
Y6268D01*
X35219Y6517D01*
X35091Y6739D01*
X34909Y6921D01*
X34687Y7049D01*
X34438Y7116D01*
X34182D01*
X33933Y7049D01*
X33801Y6973D01*
X31454Y9320D01*
Y18905D01*
X34700Y22151D01*
X34765Y22147D01*
X34921Y22089D01*
X34965Y21984D01*
X35084Y21865D01*
X35240Y21800D01*
X35410D01*
X35566Y21865D01*
X35685Y21984D01*
X35750Y22140D01*
Y22310D01*
X35745Y22321D01*
X36232Y22807D01*
X36282Y22882D01*
X36299Y22970D01*
Y22970D01*
Y23343D01*
Y23687D01*
X36307Y23706D01*
Y24466D01*
X36259Y24581D01*
X36145Y24628D01*
X35995D01*
X35870Y24584D01*
X35745Y24628D01*
X35595D01*
X35470Y24584D01*
X35345Y24628D01*
X35195D01*
X35070Y24584D01*
X34945Y24628D01*
X34790Y24656D01*
X34762Y24811D01*
X34718Y24936D01*
X34762Y25061D01*
Y25211D01*
X34718Y25336D01*
X34762Y25461D01*
Y25611D01*
X34714Y25726D01*
X34714Y25746D01*
X34762Y25861D01*
Y26011D01*
X34714Y26126D01*
X34600Y26173D01*
D02*
G37*
G36*
X35223Y21254D02*
X34621D01*
Y20627D01*
X35223D01*
Y21254D01*
D02*
G37*
G36*
X70750Y21212D02*
X70052D01*
Y20513D01*
X70750D01*
Y21212D01*
D02*
G37*
G36*
X69798D02*
X69099D01*
Y20513D01*
X69798D01*
Y21212D01*
D02*
G37*
G36*
X45629Y20679D02*
X45002D01*
Y20077D01*
X45629D01*
Y20679D01*
D02*
G37*
G36*
X44748D02*
X44121D01*
Y20077D01*
X44748D01*
Y20679D01*
D02*
G37*
G36*
X35223Y20373D02*
X34621D01*
Y19746D01*
X35223D01*
Y20373D01*
D02*
G37*
G36*
X68010Y21083D02*
X67826D01*
X67649Y21035D01*
X67491Y20943D01*
X67361Y20814D01*
X67269Y20655D01*
X67222Y20478D01*
Y20294D01*
X67269Y20117D01*
X67361Y19958D01*
X67491Y19829D01*
X67649Y19737D01*
X67826Y19690D01*
X68010D01*
X68187Y19737D01*
X68346Y19829D01*
X68476Y19958D01*
X68567Y20117D01*
X68615Y20294D01*
Y20478D01*
X68567Y20655D01*
X68476Y20814D01*
X68346Y20943D01*
X68187Y21035D01*
X68010Y21083D01*
D02*
G37*
G36*
X58028D02*
X57844D01*
X57667Y21035D01*
X57508Y20943D01*
X57379Y20814D01*
X57287Y20655D01*
X57239Y20478D01*
Y20294D01*
X57287Y20117D01*
X57379Y19958D01*
X57508Y19829D01*
X57667Y19737D01*
X57844Y19690D01*
X58028D01*
X58205Y19737D01*
X58364Y19829D01*
X58493Y19958D01*
X58585Y20117D01*
X58632Y20294D01*
Y20478D01*
X58585Y20655D01*
X58493Y20814D01*
X58364Y20943D01*
X58205Y21035D01*
X58028Y21083D01*
D02*
G37*
G36*
X70750Y20259D02*
X70052D01*
Y19560D01*
X70750D01*
Y20259D01*
D02*
G37*
G36*
X69798D02*
X69099D01*
Y19560D01*
X69798D01*
Y20259D01*
D02*
G37*
G36*
X39625Y19500D02*
X38425D01*
Y18250D01*
X39625D01*
Y18621D01*
X39860D01*
X39865Y18609D01*
X39984Y18490D01*
X40140Y18425D01*
X40310D01*
X40466Y18490D01*
X40585Y18609D01*
X40650Y18765D01*
Y18935D01*
X40585Y19091D01*
X40466Y19210D01*
X40310Y19275D01*
X40140D01*
X39984Y19210D01*
X39865Y19091D01*
X39860Y19079D01*
X39625D01*
Y19500D01*
D02*
G37*
G36*
X70750Y14420D02*
X70052D01*
Y13722D01*
X70750D01*
Y14420D01*
D02*
G37*
G36*
X69798D02*
X69099D01*
Y13722D01*
X69798D01*
Y14420D01*
D02*
G37*
G36*
X68010Y14292D02*
X67826D01*
X67649Y14244D01*
X67491Y14152D01*
X67361Y14023D01*
X67269Y13864D01*
X67222Y13687D01*
Y13503D01*
X67269Y13326D01*
X67361Y13167D01*
X67491Y13038D01*
X67649Y12946D01*
X67826Y12899D01*
X68010D01*
X68187Y12946D01*
X68346Y13038D01*
X68476Y13167D01*
X68567Y13326D01*
X68615Y13503D01*
Y13687D01*
X68567Y13864D01*
X68476Y14023D01*
X68346Y14152D01*
X68187Y14244D01*
X68010Y14292D01*
D02*
G37*
G36*
X58028D02*
X57844D01*
X57667Y14244D01*
X57508Y14152D01*
X57379Y14023D01*
X57287Y13864D01*
X57239Y13687D01*
Y13503D01*
X57287Y13326D01*
X57379Y13167D01*
X57508Y13038D01*
X57667Y12946D01*
X57844Y12899D01*
X58028D01*
X58205Y12946D01*
X58364Y13038D01*
X58493Y13167D01*
X58585Y13326D01*
X58632Y13503D01*
Y13687D01*
X58585Y13864D01*
X58493Y14023D01*
X58364Y14152D01*
X58205Y14244D01*
X58028Y14292D01*
D02*
G37*
G36*
X70750Y13468D02*
X70052D01*
Y12769D01*
X70750D01*
Y13468D01*
D02*
G37*
G36*
X69798D02*
X69099D01*
Y12769D01*
X69798D01*
Y13468D01*
D02*
G37*
G36*
X51100Y17475D02*
X48950D01*
Y15325D01*
X49796D01*
Y10975D01*
X48950D01*
Y8825D01*
X49796D01*
Y6950D01*
X49375D01*
Y5650D01*
X50625D01*
Y6950D01*
X50254D01*
Y8825D01*
X51100D01*
Y10975D01*
X50254D01*
Y15325D01*
X51100D01*
Y17475D01*
D02*
G37*
G36*
X13229Y7231D02*
X12721D01*
X12506Y7202D01*
X12306Y7119D01*
X12134Y6987D01*
X12002Y6815D01*
X11919Y6615D01*
X11890Y6400D01*
X11919Y6185D01*
X12002Y5985D01*
X12134Y5813D01*
X12306Y5681D01*
X12506Y5598D01*
X12721Y5569D01*
X13229D01*
X13444Y5598D01*
X13644Y5681D01*
X13816Y5813D01*
X13948Y5985D01*
X14031Y6185D01*
X14060Y6400D01*
X14031Y6615D01*
X13948Y6815D01*
X13816Y6987D01*
X13644Y7119D01*
X13444Y7202D01*
X13229Y7231D01*
D02*
G37*
G36*
X36978Y7116D02*
X36722D01*
X36473Y7049D01*
X36251Y6921D01*
X36069Y6739D01*
X35941Y6517D01*
X35874Y6268D01*
Y6012D01*
X35941Y5763D01*
X36069Y5541D01*
X36251Y5359D01*
X36473Y5231D01*
X36722Y5164D01*
X36978D01*
X37227Y5231D01*
X37449Y5359D01*
X37631Y5541D01*
X37759Y5763D01*
X37826Y6012D01*
Y6268D01*
X37759Y6517D01*
X37631Y6739D01*
X37449Y6921D01*
X37227Y7049D01*
X36978Y7116D01*
D02*
G37*
G36*
X26817Y4447D02*
Y3727D01*
X27537D01*
X27483Y3928D01*
X27371Y4122D01*
X27212Y4281D01*
X27018Y4393D01*
X26817Y4447D01*
D02*
G37*
G36*
X26563D02*
X26362Y4393D01*
X26168Y4281D01*
X26009Y4122D01*
X25897Y3928D01*
X25843Y3727D01*
X26563D01*
Y4447D01*
D02*
G37*
G36*
X24277D02*
Y3727D01*
X24997D01*
X24943Y3928D01*
X24831Y4122D01*
X24672Y4281D01*
X24478Y4393D01*
X24277Y4447D01*
D02*
G37*
G36*
X24023D02*
X23822Y4393D01*
X23628Y4281D01*
X23469Y4122D01*
X23357Y3928D01*
X23303Y3727D01*
X24023D01*
Y4447D01*
D02*
G37*
G36*
X50625Y5350D02*
X49375D01*
Y4050D01*
X49754D01*
Y3692D01*
X49743Y3687D01*
X49623Y3567D01*
X49558Y3411D01*
Y3242D01*
X49623Y3086D01*
X49743Y2966D01*
X49899Y2902D01*
X50068D01*
X50224Y2966D01*
X50344Y3086D01*
X50408Y3242D01*
Y3411D01*
X50344Y3567D01*
X50224Y3687D01*
X50213Y3692D01*
Y4050D01*
X50625D01*
Y5350D01*
D02*
G37*
G36*
X27537Y3473D02*
X26817D01*
Y2753D01*
X27018Y2807D01*
X27212Y2919D01*
X27371Y3078D01*
X27483Y3272D01*
X27537Y3473D01*
D02*
G37*
G36*
X26563D02*
X25843D01*
X25897Y3272D01*
X26009Y3078D01*
X26168Y2919D01*
X26362Y2807D01*
X26563Y2753D01*
Y3473D01*
D02*
G37*
G36*
X24997D02*
X24277D01*
Y2753D01*
X24478Y2807D01*
X24672Y2919D01*
X24831Y3078D01*
X24943Y3272D01*
X24997Y3473D01*
D02*
G37*
G36*
X24023D02*
X23303D01*
X23357Y3272D01*
X23469Y3078D01*
X23628Y2919D01*
X23822Y2807D01*
X24023Y2753D01*
Y3473D01*
D02*
G37*
G36*
X47138Y4576D02*
X46882D01*
X46633Y4509D01*
X46411Y4381D01*
X46229Y4199D01*
X46101Y3977D01*
X46034Y3728D01*
Y3472D01*
X46101Y3223D01*
X46229Y3001D01*
X46411Y2819D01*
X46633Y2691D01*
X46882Y2624D01*
X47138D01*
X47387Y2691D01*
X47609Y2819D01*
X47791Y3001D01*
X47919Y3223D01*
X47986Y3472D01*
Y3728D01*
X47919Y3977D01*
X47791Y4199D01*
X47609Y4381D01*
X47387Y4509D01*
X47138Y4576D01*
D02*
G37*
G36*
X44598D02*
X44342D01*
X44093Y4509D01*
X43871Y4381D01*
X43689Y4199D01*
X43561Y3977D01*
X43494Y3728D01*
Y3472D01*
X43561Y3223D01*
X43689Y3001D01*
X43871Y2819D01*
X44093Y2691D01*
X44342Y2624D01*
X44598D01*
X44847Y2691D01*
X45069Y2819D01*
X45251Y3001D01*
X45379Y3223D01*
X45446Y3472D01*
Y3728D01*
X45379Y3977D01*
X45251Y4199D01*
X45069Y4381D01*
X44847Y4509D01*
X44598Y4576D01*
D02*
G37*
G36*
X42058D02*
X41802D01*
X41553Y4509D01*
X41331Y4381D01*
X41149Y4199D01*
X41021Y3977D01*
X40954Y3728D01*
Y3472D01*
X41021Y3223D01*
X41149Y3001D01*
X41331Y2819D01*
X41553Y2691D01*
X41802Y2624D01*
X42058D01*
X42307Y2691D01*
X42529Y2819D01*
X42711Y3001D01*
X42839Y3223D01*
X42906Y3472D01*
Y3728D01*
X42839Y3977D01*
X42711Y4199D01*
X42529Y4381D01*
X42307Y4509D01*
X42058Y4576D01*
D02*
G37*
G36*
X39518D02*
X39262D01*
X39013Y4509D01*
X38791Y4381D01*
X38609Y4199D01*
X38481Y3977D01*
X38414Y3728D01*
Y3472D01*
X38481Y3223D01*
X38609Y3001D01*
X38791Y2819D01*
X39013Y2691D01*
X39262Y2624D01*
X39518D01*
X39767Y2691D01*
X39989Y2819D01*
X40171Y3001D01*
X40299Y3223D01*
X40366Y3472D01*
Y3728D01*
X40299Y3977D01*
X40171Y4199D01*
X39989Y4381D01*
X39767Y4509D01*
X39518Y4576D01*
D02*
G37*
G36*
X36978D02*
X36722D01*
X36473Y4509D01*
X36251Y4381D01*
X36069Y4199D01*
X35941Y3977D01*
X35874Y3728D01*
Y3472D01*
X35941Y3223D01*
X36069Y3001D01*
X36251Y2819D01*
X36473Y2691D01*
X36722Y2624D01*
X36978D01*
X37227Y2691D01*
X37449Y2819D01*
X37631Y3001D01*
X37759Y3223D01*
X37826Y3472D01*
Y3728D01*
X37759Y3977D01*
X37631Y4199D01*
X37449Y4381D01*
X37227Y4509D01*
X36978Y4576D01*
D02*
G37*
G36*
X34438D02*
X34182D01*
X33933Y4509D01*
X33711Y4381D01*
X33529Y4199D01*
X33401Y3977D01*
X33334Y3728D01*
Y3472D01*
X33401Y3223D01*
X33529Y3001D01*
X33711Y2819D01*
X33933Y2691D01*
X34182Y2624D01*
X34438D01*
X34687Y2691D01*
X34909Y2819D01*
X35091Y3001D01*
X35219Y3223D01*
X35286Y3472D01*
Y3728D01*
X35219Y3977D01*
X35091Y4199D01*
X34909Y4381D01*
X34687Y4509D01*
X34438Y4576D01*
D02*
G37*
G36*
X31898D02*
X31642D01*
X31393Y4509D01*
X31171Y4381D01*
X30989Y4199D01*
X30861Y3977D01*
X30794Y3728D01*
Y3472D01*
X30861Y3223D01*
X30989Y3001D01*
X31171Y2819D01*
X31393Y2691D01*
X31642Y2624D01*
X31898D01*
X32147Y2691D01*
X32369Y2819D01*
X32551Y3001D01*
X32679Y3223D01*
X32746Y3472D01*
Y3728D01*
X32679Y3977D01*
X32551Y4199D01*
X32369Y4381D01*
X32147Y4509D01*
X31898Y4576D01*
D02*
G37*
G36*
X29358D02*
X29102D01*
X28853Y4509D01*
X28631Y4381D01*
X28449Y4199D01*
X28321Y3977D01*
X28254Y3728D01*
Y3472D01*
X28321Y3223D01*
X28449Y3001D01*
X28631Y2819D01*
X28853Y2691D01*
X29102Y2624D01*
X29358D01*
X29607Y2691D01*
X29829Y2819D01*
X30011Y3001D01*
X30139Y3223D01*
X30206Y3472D01*
Y3728D01*
X30139Y3977D01*
X30011Y4199D01*
X29829Y4381D01*
X29607Y4509D01*
X29358Y4576D01*
D02*
G37*
G36*
X69700Y2030D02*
X69300D01*
X68908Y1952D01*
X68538Y1799D01*
X68206Y1577D01*
X67923Y1294D01*
X67701Y962D01*
X67548Y592D01*
X67470Y200D01*
Y-200D01*
X67548Y-592D01*
X67701Y-962D01*
X67923Y-1294D01*
X68206Y-1577D01*
X68538Y-1799D01*
X68908Y-1952D01*
X69300Y-2030D01*
X69700D01*
X70092Y-1952D01*
X70462Y-1799D01*
X70794Y-1577D01*
X71077Y-1294D01*
X71299Y-962D01*
X71452Y-592D01*
X71530Y-200D01*
Y200D01*
X71452Y592D01*
X71299Y962D01*
X71077Y1294D01*
X70794Y1577D01*
X70462Y1799D01*
X70092Y1952D01*
X69700Y2030D01*
D02*
G37*
G36*
X200D02*
X-200D01*
X-592Y1952D01*
X-962Y1799D01*
X-1294Y1577D01*
X-1577Y1294D01*
X-1799Y962D01*
X-1952Y592D01*
X-2030Y200D01*
Y-200D01*
X-1952Y-592D01*
X-1799Y-962D01*
X-1577Y-1294D01*
X-1294Y-1577D01*
X-962Y-1799D01*
X-592Y-1952D01*
X-200Y-2030D01*
X200D01*
X592Y-1952D01*
X962Y-1799D01*
X1294Y-1577D01*
X1577Y-1294D01*
X1799Y-962D01*
X1952Y-592D01*
X2030Y-200D01*
Y200D01*
X1952Y592D01*
X1799Y962D01*
X1577Y1294D01*
X1294Y1577D01*
X962Y1799D01*
X592Y1952D01*
X200Y2030D01*
D02*
G37*
%LPD*%
G36*
X39900Y25300D02*
X35500D01*
Y29700D01*
X39900D01*
Y25300D01*
D02*
G37*
%LPC*%
G36*
X39495Y29361D02*
X35845D01*
Y25711D01*
X39495D01*
Y29361D01*
D02*
G37*
%LPD*%
G36*
X42600Y16925D02*
Y9700D01*
X33100D01*
X33100Y16952D01*
X33947Y17900D01*
X36271D01*
Y17050D01*
X36125D01*
Y15850D01*
X37063D01*
X37471Y15442D01*
Y14679D01*
X36902D01*
Y13900D01*
Y13121D01*
X37146D01*
X37222Y12947D01*
X37112Y12800D01*
X36000D01*
Y11500D01*
X37550D01*
Y12553D01*
X37554Y12575D01*
Y12605D01*
X37862Y12913D01*
X37912Y12987D01*
X37929Y13075D01*
Y14313D01*
X38129Y14396D01*
X38300Y14226D01*
Y13250D01*
X39850D01*
Y14550D01*
X38624D01*
X38379Y14795D01*
Y15455D01*
X38774Y15850D01*
X39675D01*
Y17050D01*
X38425D01*
X38425Y17050D01*
Y17050D01*
X38271Y17153D01*
X37724Y17700D01*
X37807Y17900D01*
X41625D01*
X42600Y16925D01*
D02*
G37*
%LPC*%
G36*
X35904Y17179D02*
X35277D01*
Y16577D01*
X35904D01*
Y17179D01*
D02*
G37*
G36*
X40523D02*
X39896D01*
Y16577D01*
X40523D01*
Y17179D01*
D02*
G37*
G36*
X41404D02*
X40777D01*
Y16450D01*
Y15721D01*
X41404D01*
Y16196D01*
X41775D01*
X41863Y16213D01*
X41937Y16263D01*
X41987Y16337D01*
X42004Y16425D01*
X41987Y16513D01*
X41937Y16587D01*
X41863Y16637D01*
X41775Y16654D01*
X41404D01*
Y17179D01*
D02*
G37*
G36*
X40523Y16323D02*
X39896D01*
Y15721D01*
X40523D01*
Y16323D01*
D02*
G37*
G36*
X35904D02*
X35277D01*
Y15721D01*
X35904D01*
Y16323D01*
D02*
G37*
G36*
X35023Y17179D02*
X34396D01*
Y16679D01*
X34025D01*
X33937Y16662D01*
X33863Y16612D01*
X33813Y16538D01*
X33796Y16450D01*
X33813Y16362D01*
X33863Y16288D01*
X33937Y16238D01*
X34025Y16221D01*
X34396D01*
Y15721D01*
X35023D01*
Y16450D01*
Y17179D01*
D02*
G37*
G36*
X36648Y14679D02*
X35871D01*
Y14129D01*
X35350D01*
X35262Y14112D01*
X35188Y14062D01*
X35138Y13988D01*
X35121Y13900D01*
X35138Y13812D01*
X35188Y13738D01*
X35262Y13688D01*
X35350Y13671D01*
X35871D01*
Y13121D01*
X36648D01*
Y13900D01*
Y14679D01*
D02*
G37*
G36*
X38948Y12929D02*
X38171D01*
Y12277D01*
X38948D01*
Y12929D01*
D02*
G37*
G36*
X39979D02*
X39202D01*
Y12150D01*
Y11371D01*
X39979D01*
Y11921D01*
X40400D01*
X40488Y11938D01*
X40562Y11988D01*
X40612Y12062D01*
X40629Y12150D01*
X40612Y12238D01*
X40562Y12312D01*
X40488Y12362D01*
X40400Y12379D01*
X39979D01*
Y12929D01*
D02*
G37*
G36*
X38948Y12023D02*
X38171D01*
Y11371D01*
X38948D01*
Y12023D01*
D02*
G37*
G36*
X8979Y66079D02*
X8352D01*
Y65252D01*
X8979D01*
Y66079D01*
D02*
G37*
G36*
X8098D02*
X7471D01*
Y65252D01*
X8098D01*
Y66079D01*
D02*
G37*
G36*
X8979Y64998D02*
X8225D01*
X7471D01*
Y64171D01*
X7894D01*
Y62529D01*
X7496D01*
Y61927D01*
X8250D01*
X9004D01*
Y62529D01*
X8556D01*
Y64171D01*
X8979D01*
Y64998D01*
D02*
G37*
G36*
X10475Y62400D02*
X9225D01*
Y61200D01*
X10475D01*
Y61520D01*
X10929D01*
X11009Y61440D01*
X11165Y61375D01*
X11335D01*
X11491Y61440D01*
X11610Y61559D01*
X11675Y61715D01*
Y61885D01*
X11610Y62041D01*
X11491Y62160D01*
X11335Y62225D01*
X11165D01*
X11009Y62160D01*
X10929Y62080D01*
X10475D01*
Y62400D01*
D02*
G37*
G36*
X9004Y61673D02*
X8250D01*
X7496D01*
Y61071D01*
X8021D01*
Y60959D01*
X8046Y60833D01*
X8118Y60725D01*
X8671Y60172D01*
X8580Y59980D01*
X8507Y59965D01*
X8398Y59892D01*
X8325Y59783D01*
X8300Y59655D01*
Y59557D01*
X10790D01*
Y59655D01*
X10765Y59783D01*
X10692Y59892D01*
X10583Y59965D01*
X10455Y59990D01*
X9547D01*
Y60096D01*
X9522Y60222D01*
X9450Y60330D01*
X8894Y60886D01*
X8970Y61071D01*
X9004D01*
Y61673D01*
D02*
G37*
G36*
X5515Y59859D02*
X3695D01*
X3617Y59843D01*
X3551Y59799D01*
X3507Y59733D01*
X3491Y59655D01*
Y59205D01*
X3507Y59127D01*
X3551Y59061D01*
X3617Y59017D01*
X3695Y59001D01*
X5515D01*
X5593Y59017D01*
X5659Y59061D01*
X5703Y59127D01*
X5719Y59205D01*
Y59655D01*
X5703Y59733D01*
X5659Y59799D01*
X5593Y59843D01*
X5515Y59859D01*
D02*
G37*
G36*
X10790Y59303D02*
X9672D01*
Y58870D01*
X10455D01*
X10583Y58895D01*
X10692Y58968D01*
X10765Y59077D01*
X10790Y59205D01*
Y59303D01*
D02*
G37*
G36*
X9418D02*
X8300D01*
Y59205D01*
X8325Y59077D01*
X8398Y58968D01*
X8507Y58895D01*
X8635Y58870D01*
X9418D01*
Y59303D01*
D02*
G37*
G36*
X6950Y65950D02*
X5700D01*
Y64300D01*
X6096D01*
Y60100D01*
X6113Y60012D01*
X6163Y59938D01*
X8103Y57998D01*
X8177Y57948D01*
X8265Y57931D01*
X8432D01*
X8447Y57857D01*
X8491Y57791D01*
X8557Y57747D01*
X8635Y57731D01*
X10455D01*
X10533Y57747D01*
X10599Y57791D01*
X10643Y57857D01*
X10659Y57935D01*
Y58385D01*
X10643Y58463D01*
X10599Y58529D01*
X10533Y58573D01*
X10455Y58589D01*
X8635D01*
X8557Y58573D01*
X8491Y58529D01*
X8291Y58492D01*
X8250Y58500D01*
X6554Y60195D01*
Y64300D01*
X6950D01*
Y65950D01*
D02*
G37*
G36*
X5515Y58589D02*
X3695D01*
X3617Y58573D01*
X3551Y58529D01*
X3507Y58463D01*
X3491Y58385D01*
Y57935D01*
X3507Y57857D01*
X3551Y57791D01*
X3617Y57747D01*
X3695Y57731D01*
X5515D01*
X5593Y57747D01*
X5659Y57791D01*
X5703Y57857D01*
X5719Y57935D01*
Y58385D01*
X5703Y58463D01*
X5659Y58529D01*
X5593Y58573D01*
X5515Y58589D01*
D02*
G37*
G36*
Y57319D02*
X3695D01*
X3617Y57303D01*
X3551Y57259D01*
X3507Y57193D01*
X3491Y57115D01*
Y56665D01*
X3507Y56587D01*
X3551Y56521D01*
X3617Y56477D01*
X3695Y56461D01*
X5515D01*
X5593Y56477D01*
X5659Y56521D01*
X5703Y56587D01*
X5719Y56665D01*
Y57115D01*
X5703Y57193D01*
X5659Y57259D01*
X5593Y57303D01*
X5515Y57319D01*
D02*
G37*
G36*
Y56049D02*
X3695D01*
X3617Y56033D01*
X3551Y55989D01*
X3507Y55923D01*
X3492Y55849D01*
X2902D01*
X2791Y55960D01*
X2635Y56025D01*
X2465D01*
X2309Y55960D01*
X2190Y55841D01*
X2125Y55685D01*
Y55515D01*
X2190Y55359D01*
X2309Y55240D01*
X2465Y55175D01*
X2635D01*
X2791Y55240D01*
X2910Y55359D01*
X2923Y55391D01*
X3492D01*
X3507Y55317D01*
X3551Y55251D01*
X3617Y55207D01*
X3695Y55191D01*
X5515D01*
X5593Y55207D01*
X5659Y55251D01*
X5703Y55317D01*
X5719Y55395D01*
Y55845D01*
X5703Y55923D01*
X5659Y55989D01*
X5593Y56033D01*
X5515Y56049D01*
D02*
G37*
G36*
X10455Y56180D02*
X9672D01*
Y55747D01*
X10790D01*
Y55845D01*
X10765Y55973D01*
X10692Y56082D01*
X10583Y56155D01*
X10455Y56180D01*
D02*
G37*
G36*
X9418D02*
X8635D01*
X8507Y56155D01*
X8398Y56082D01*
X8325Y55973D01*
X8300Y55845D01*
Y55747D01*
X9418D01*
Y56180D01*
D02*
G37*
G36*
X10790Y55493D02*
X9672D01*
Y55060D01*
X10455D01*
X10583Y55085D01*
X10692Y55158D01*
X10765Y55267D01*
X10790Y55395D01*
Y55493D01*
D02*
G37*
G36*
X9418D02*
X8300D01*
Y55395D01*
X8325Y55267D01*
X8398Y55158D01*
X8507Y55085D01*
X8635Y55060D01*
X9418D01*
Y55493D01*
D02*
G37*
G36*
X14214Y55979D02*
X13337D01*
Y54852D01*
X14214D01*
Y55979D01*
D02*
G37*
G36*
Y54598D02*
X13337D01*
Y53471D01*
X14214D01*
Y54598D01*
D02*
G37*
G36*
X7062Y51019D02*
X7027D01*
Y49917D01*
X8129D01*
Y49952D01*
X8045Y50264D01*
X7883Y50545D01*
X7655Y50773D01*
X7374Y50935D01*
X7062Y51019D01*
D02*
G37*
G36*
X6773D02*
X6738D01*
X6426Y50935D01*
X6145Y50773D01*
X5917Y50545D01*
X5755Y50264D01*
X5671Y49952D01*
Y49917D01*
X6773D01*
Y51019D01*
D02*
G37*
G36*
X8129Y49663D02*
X7027D01*
Y48561D01*
X7062D01*
X7374Y48645D01*
X7655Y48807D01*
X7883Y49035D01*
X8045Y49316D01*
X8129Y49628D01*
Y49663D01*
D02*
G37*
G36*
X6773D02*
X5671D01*
Y49628D01*
X5755Y49316D01*
X5917Y49035D01*
X6145Y48807D01*
X6426Y48645D01*
X6738Y48561D01*
X6773D01*
Y49663D01*
D02*
G37*
G36*
X7045Y45810D02*
X6755D01*
X6475Y45735D01*
X6225Y45590D01*
X6020Y45385D01*
X5875Y45135D01*
X5800Y44855D01*
Y44565D01*
X5875Y44285D01*
X6020Y44035D01*
X6225Y43830D01*
X6475Y43685D01*
X6755Y43610D01*
X7045D01*
X7325Y43685D01*
X7575Y43830D01*
X7780Y44035D01*
X7925Y44285D01*
X8000Y44565D01*
Y44855D01*
X7925Y45135D01*
X7780Y45385D01*
X7575Y45590D01*
X7325Y45735D01*
X7045Y45810D01*
D02*
G37*
G36*
X15807Y37578D02*
X14727D01*
Y36752D01*
X15807D01*
Y37578D01*
D02*
G37*
G36*
X14473D02*
X13394D01*
Y36752D01*
X14473D01*
Y37578D01*
D02*
G37*
G36*
X7607D02*
X6527D01*
Y36752D01*
X7607D01*
Y37578D01*
D02*
G37*
G36*
X6273D02*
X5194D01*
Y36752D01*
X6273D01*
Y37578D01*
D02*
G37*
G36*
X15807Y36498D02*
X14727D01*
Y35673D01*
X15807D01*
Y36498D01*
D02*
G37*
G36*
X14473D02*
X13394D01*
Y35673D01*
X14473D01*
Y36498D01*
D02*
G37*
G36*
X7607Y36498D02*
X6527D01*
Y35673D01*
X7607D01*
Y36498D01*
D02*
G37*
G36*
X6273D02*
X5194D01*
Y35673D01*
X6273D01*
Y36498D01*
D02*
G37*
G36*
X6654Y35456D02*
X6146D01*
X5931Y35427D01*
X5731Y35344D01*
X5559Y35212D01*
X5427Y35040D01*
X5344Y34840D01*
X5315Y34625D01*
X5344Y34410D01*
X5427Y34210D01*
X5559Y34038D01*
X5731Y33906D01*
X5931Y33823D01*
X6146Y33794D01*
X6654D01*
X6869Y33823D01*
X7069Y33906D01*
X7241Y34038D01*
X7373Y34210D01*
X7456Y34410D01*
X7485Y34625D01*
X7456Y34840D01*
X7373Y35040D01*
X7241Y35212D01*
X7069Y35344D01*
X6869Y35427D01*
X6654Y35456D01*
D02*
G37*
G36*
Y33456D02*
X6146D01*
X5931Y33427D01*
X5731Y33344D01*
X5559Y33212D01*
X5427Y33040D01*
X5344Y32840D01*
X5315Y32625D01*
X5344Y32410D01*
X5427Y32210D01*
X5559Y32038D01*
X5731Y31906D01*
X5931Y31823D01*
X6146Y31794D01*
X6654D01*
X6869Y31823D01*
X7069Y31906D01*
X7241Y32038D01*
X7373Y32210D01*
X7456Y32410D01*
X7485Y32625D01*
X7456Y32840D01*
X7373Y33040D01*
X7241Y33212D01*
X7069Y33344D01*
X6869Y33427D01*
X6654Y33456D01*
D02*
G37*
G36*
X14854Y31456D02*
X14346D01*
X14131Y31427D01*
X13931Y31344D01*
X13759Y31212D01*
X13627Y31040D01*
X13544Y30840D01*
X13515Y30625D01*
X13544Y30410D01*
X13627Y30210D01*
X13759Y30038D01*
X13931Y29906D01*
X14131Y29823D01*
X14346Y29794D01*
X14854D01*
X15069Y29823D01*
X15269Y29906D01*
X15441Y30038D01*
X15573Y30210D01*
X15656Y30410D01*
X15685Y30625D01*
X15656Y30840D01*
X15573Y31040D01*
X15441Y31212D01*
X15269Y31344D01*
X15069Y31427D01*
X14854Y31456D01*
D02*
G37*
G36*
X6654D02*
X6146D01*
X5931Y31427D01*
X5731Y31344D01*
X5559Y31212D01*
X5427Y31040D01*
X5344Y30840D01*
X5315Y30625D01*
X5344Y30410D01*
X5427Y30210D01*
X5559Y30038D01*
X5731Y29906D01*
X5931Y29823D01*
X6146Y29794D01*
X6654D01*
X6869Y29823D01*
X7069Y29906D01*
X7241Y30038D01*
X7373Y30210D01*
X7456Y30410D01*
X7485Y30625D01*
X7456Y30840D01*
X7373Y31040D01*
X7241Y31212D01*
X7069Y31344D01*
X6869Y31427D01*
X6654Y31456D01*
D02*
G37*
G36*
X15807Y25178D02*
X14727D01*
Y24352D01*
X15807D01*
Y25178D01*
D02*
G37*
G36*
X14473D02*
X13394D01*
Y24352D01*
X14473D01*
Y25178D01*
D02*
G37*
G36*
X7607D02*
X6527D01*
Y24352D01*
X7607D01*
Y25178D01*
D02*
G37*
G36*
X6273D02*
X5194D01*
Y24352D01*
X6273D01*
Y25178D01*
D02*
G37*
G36*
X15807Y24098D02*
X14727D01*
Y23273D01*
X15807D01*
Y24098D01*
D02*
G37*
G36*
X14473D02*
X13394D01*
Y23273D01*
X14473D01*
Y24098D01*
D02*
G37*
G36*
X7607Y24098D02*
X6527D01*
Y23273D01*
X7607D01*
Y24098D01*
D02*
G37*
G36*
X6273D02*
X5194D01*
Y23273D01*
X6273D01*
Y24098D01*
D02*
G37*
%LPD*%
G36*
G01X30504Y49725D02*
G01Y50925D01*
G01X29996D01*
G01X29996Y50925D01*
G03Y49725I0J-600D01*
G01X30504D01*
D02*
G37*
G36*
G01X30956D02*
G01Y50925D01*
G01X31464D01*
G01X31464Y50925D01*
G02Y49725I0J-600D01*
G01X30956D01*
D02*
G37*
G36*
G01X25225Y72149D02*
G01X26425D01*
G01Y71641D01*
G01X26425Y71641D01*
G02X25225I-600J0D01*
G01Y72149D01*
D02*
G37*
G36*
G01Y72601D02*
G01X26425D01*
G01Y73109D01*
G01X26425Y73109D01*
G03X25225I-600J0D01*
G01Y72601D01*
D02*
G37*
D10*
X14075Y59650D02*
D03*
X18393D02*
D03*
Y44000D02*
D03*
X14075D02*
D03*
D11*
X46575Y26075D02*
D03*
X48175D02*
D03*
X29025Y32150D02*
D03*
X27425D02*
D03*
X38875Y33675D02*
D03*
X40475D02*
D03*
X38875Y35375D02*
D03*
X40475D02*
D03*
X40650Y16450D02*
D03*
X39050D02*
D03*
X44875Y19950D02*
D03*
X46475D02*
D03*
X46600Y27925D02*
D03*
X48200D02*
D03*
X29625Y24800D02*
D03*
X28025D02*
D03*
X36750Y16450D02*
D03*
X35150D02*
D03*
X26350Y28375D02*
D03*
X27950D02*
D03*
X48200Y34025D02*
D03*
X46600D02*
D03*
X48200Y32325D02*
D03*
X46600D02*
D03*
X9850Y61800D02*
D03*
X8250D02*
D03*
D12*
X50000Y4700D02*
D03*
Y6300D02*
D03*
X42900Y36100D02*
D03*
Y37700D02*
D03*
X37325Y20475D02*
D03*
Y18875D02*
D03*
X35000Y36900D02*
D03*
Y38500D02*
D03*
X70400Y47100D02*
D03*
Y45500D02*
D03*
X68600Y47100D02*
D03*
Y45500D02*
D03*
X68500Y41300D02*
D03*
Y39700D02*
D03*
X56500Y47100D02*
D03*
Y45500D02*
D03*
X58300Y47100D02*
D03*
Y45500D02*
D03*
X56500Y42200D02*
D03*
Y40600D02*
D03*
X36625Y36900D02*
D03*
Y38500D02*
D03*
D13*
X33325Y36875D02*
D03*
Y38475D02*
D03*
X31625Y36900D02*
D03*
Y38500D02*
D03*
X34225Y47225D02*
D03*
Y48825D02*
D03*
X39025Y20475D02*
D03*
Y18875D02*
D03*
X42900Y32575D02*
D03*
Y34175D02*
D03*
X35350Y20500D02*
D03*
Y18900D02*
D03*
X10350Y66000D02*
D03*
Y67600D02*
D03*
X66800Y47100D02*
D03*
Y45500D02*
D03*
X60100Y47100D02*
D03*
Y45500D02*
D03*
X58200Y42200D02*
D03*
Y40600D02*
D03*
D14*
X34870Y24086D02*
D03*
X35270D02*
D03*
X35670D02*
D03*
X36070D02*
D03*
X36470D02*
D03*
X36870D02*
D03*
X37270D02*
D03*
X37670D02*
D03*
X38070D02*
D03*
X38470D02*
D03*
X38870D02*
D03*
X39270D02*
D03*
X39670D02*
D03*
X40070D02*
D03*
X40470D02*
D03*
Y30986D02*
D03*
X40070D02*
D03*
X39670D02*
D03*
X39270D02*
D03*
X38870D02*
D03*
X38470D02*
D03*
X38070D02*
D03*
X37670D02*
D03*
X37270D02*
D03*
X36870D02*
D03*
X36470D02*
D03*
X36070D02*
D03*
X35670D02*
D03*
X35270D02*
D03*
X34870D02*
D03*
D15*
X34220Y30336D02*
D03*
Y29936D02*
D03*
Y29536D02*
D03*
Y29136D02*
D03*
Y28736D02*
D03*
Y28336D02*
D03*
Y27936D02*
D03*
Y27536D02*
D03*
Y27136D02*
D03*
Y26736D02*
D03*
Y26336D02*
D03*
Y25936D02*
D03*
Y25536D02*
D03*
Y25136D02*
D03*
Y24736D02*
D03*
X41120D02*
D03*
Y25136D02*
D03*
Y25536D02*
D03*
Y25936D02*
D03*
Y26336D02*
D03*
Y26736D02*
D03*
Y27136D02*
D03*
Y27536D02*
D03*
Y27936D02*
D03*
Y28336D02*
D03*
Y28736D02*
D03*
Y29136D02*
D03*
Y29536D02*
D03*
Y29936D02*
D03*
Y30336D02*
D03*
D16*
X37670Y27536D02*
D03*
D17*
X39075Y12150D02*
D03*
X36775D02*
D03*
Y13900D02*
D03*
X39075D02*
D03*
D18*
X38675Y37400D02*
D03*
X40675D02*
D03*
D19*
X24605Y47255D02*
D03*
Y45985D02*
D03*
Y44715D02*
D03*
Y43445D02*
D03*
X31895D02*
D03*
Y44715D02*
D03*
Y45985D02*
D03*
Y47255D02*
D03*
D20*
X14341Y54725D02*
D03*
X18941D02*
D03*
X16641D02*
D03*
D21*
Y48425D02*
D03*
D22*
X4605Y59430D02*
D03*
Y58160D02*
D03*
Y56890D02*
D03*
Y55620D02*
D03*
X9545D02*
D03*
Y56890D02*
D03*
Y58160D02*
D03*
Y59430D02*
D03*
D23*
X26325Y50350D02*
D03*
X24725D02*
D03*
D24*
X25800Y77539D02*
D03*
Y75761D02*
D03*
D25*
X7275Y67325D02*
D03*
X8225Y65125D02*
D03*
X6325D02*
D03*
D26*
X33440Y59950D02*
D03*
X35000D02*
D03*
X36625D02*
D03*
X38185D02*
D03*
D27*
X12950Y67425D02*
D03*
X17150D02*
D03*
D28*
X64756Y47100D02*
D03*
Y45200D02*
D03*
X62000D02*
D03*
Y46150D02*
D03*
Y47100D02*
D03*
D29*
X65370Y40625D02*
D03*
Y41275D02*
D03*
Y41925D02*
D03*
Y42575D02*
D03*
X61830D02*
D03*
Y41925D02*
D03*
Y41275D02*
D03*
Y40625D02*
D03*
D30*
X36625Y38500D02*
Y38525D01*
X36040Y34601D02*
Y36358D01*
X36225Y36475D02*
X36625Y36875D01*
Y36900D01*
X36040Y36358D02*
X36157Y36475D01*
X36225D01*
X35000Y36875D02*
X35400Y36475D01*
X35000Y38525D02*
X35566Y39091D01*
X35000Y36875D02*
Y36900D01*
X35468Y36475D02*
X35585Y36358D01*
X35400Y36475D02*
X35468D01*
X33325Y38475D02*
X33325Y38475D01*
X35000Y38500D02*
Y38525D01*
X35585Y34525D02*
Y36358D01*
X41120Y29536D02*
X42111D01*
X40470Y30986D02*
Y31629D01*
X33500Y32625D02*
X34834Y31291D01*
X34870D01*
X31700Y31150D02*
X32914Y29936D01*
X38675Y35575D02*
Y37400D01*
Y35575D02*
X38875Y35375D01*
X37850Y35200D02*
X38700D01*
X38875Y35375D01*
X35566Y39091D02*
Y59426D01*
X44300Y29100D02*
X55064D01*
X70400Y47075D02*
X71127Y46348D01*
X69200Y41300D02*
X71127Y43227D01*
Y46348D01*
X36020Y39130D02*
Y59448D01*
X26191Y77148D02*
X26452D01*
X29330Y74270D01*
Y68150D02*
Y74270D01*
X27000Y66800D02*
Y71980D01*
X25825Y73155D02*
Y75736D01*
Y69775D02*
Y71595D01*
Y73155D02*
X27000Y71980D01*
X25800Y75761D02*
X25825Y75736D01*
X33379Y65165D02*
X33433Y65219D01*
X29330Y68150D02*
X33400D01*
X28635Y65165D02*
X33379D01*
X40950Y67730D02*
X41370Y68150D01*
X33400D02*
X41370D01*
X33433Y65219D02*
X33869D01*
X36600Y63250D02*
Y63450D01*
X35593Y64443D02*
X36600Y65450D01*
X33869Y65219D02*
X34100Y65450D01*
X33400Y68150D02*
X35150Y66400D01*
X36295Y60230D02*
Y60375D01*
X35446Y59545D02*
X35566Y59426D01*
X35280Y59545D02*
X35446D01*
X36047Y60623D02*
X36295Y60375D01*
X35005Y60025D02*
X35593Y60613D01*
X34950Y59875D02*
X35280Y59545D01*
X36295Y59570D02*
X36625Y59900D01*
X36020Y59448D02*
X36142Y59570D01*
X36295Y60230D02*
X36625Y59900D01*
X36142Y59570D02*
X36295D01*
X33845Y60355D02*
X35150Y61660D01*
Y66400D01*
X27000Y66800D02*
X28635Y65165D01*
X7275Y67325D02*
X7550Y67600D01*
X34950Y60025D02*
X35005D01*
X33774Y60355D02*
X33845D01*
X33440Y60020D02*
X33774Y60355D01*
X34950Y59875D02*
Y60025D01*
X33440Y59950D02*
Y60020D01*
X25800Y77539D02*
X26191Y77148D01*
X16775Y11900D02*
X28125Y23250D01*
X16675Y16775D02*
X26527Y26627D01*
X22200Y14800D02*
X32863Y25463D01*
X24875Y57725D02*
X31375D01*
X24746Y53096D02*
X24875Y53225D01*
X31375D01*
X6325Y60100D02*
X8265Y58160D01*
X34225Y48825D02*
X34250Y48850D01*
X22825Y46875D02*
X26300Y50350D01*
X34250Y48850D02*
Y50350D01*
X43900Y29775D02*
X51966D01*
X36020Y39130D02*
X36625Y38525D01*
X22825Y39975D02*
X30175Y32625D01*
X43800Y30500D02*
X51700D01*
X43775Y31200D02*
X51300D01*
X40470Y31629D02*
X42525Y33684D01*
X18875Y20225D02*
X25700Y27050D01*
X16800Y15625D02*
X27375Y26200D01*
X24475Y27450D02*
X30025D01*
X18329Y31150D02*
X31700D01*
X24150Y15625D02*
X33661Y25136D01*
X16954Y30525D02*
X30325D01*
X6325Y60100D02*
Y65125D01*
X36047Y60623D02*
Y62697D01*
X40950Y62715D02*
Y67730D01*
X38185Y59950D02*
X40950Y62715D01*
X35593Y60613D02*
Y64443D01*
X36047Y62697D02*
X36600Y63250D01*
X44470Y6140D02*
X44757Y6427D01*
X43422Y7632D02*
X46170D01*
X44757Y6427D02*
X45564D01*
X41930Y6140D02*
X43422Y7632D01*
X50025Y6375D02*
Y9900D01*
X49983Y3327D02*
Y4683D01*
X50000Y4700D01*
X50025Y6375D02*
X50100Y6300D01*
X46170Y7632D02*
X47525Y8988D01*
X46150Y8275D02*
X46925Y9050D01*
X48225Y34000D02*
X49625D01*
X48260Y32385D02*
X49540D01*
X48200Y32325D02*
X48260Y32385D01*
X48200Y34025D02*
X48225Y34000D01*
X46925Y9050D02*
Y17425D01*
X50025Y9900D02*
Y16400D01*
X48125Y8989D02*
Y17850D01*
X47525Y8988D02*
Y17625D01*
X45564Y6427D02*
X48125Y8989D01*
X45525Y9900D02*
Y16400D01*
X42900Y34175D02*
Y36375D01*
X42525Y33684D02*
Y33800D01*
X42436Y29136D02*
X43800Y30500D01*
X42111Y29536D02*
X43775Y31200D01*
X42861Y28736D02*
X43900Y29775D01*
X43536Y28336D02*
X44300Y29100D01*
X42525Y33800D02*
X42900Y34175D01*
X24746Y51446D02*
X24750Y51450D01*
X29925Y50350D02*
X29950Y50325D01*
X26325Y50350D02*
X29925D01*
X26300D02*
X26325D01*
X24750D02*
Y51450D01*
X34125Y41950D02*
Y44300D01*
X32557Y44518D02*
Y44548D01*
X32900Y40725D02*
X34125Y41950D01*
X32607Y45818D02*
X34125Y44300D01*
X33400Y42225D02*
Y43675D01*
X32500Y41325D02*
X33400Y42225D01*
X32390Y44715D02*
X32557Y44548D01*
X31895Y44715D02*
X32390D01*
X31852Y45818D02*
X32607D01*
X31764Y45906D02*
X31852Y45818D01*
X30150Y40325D02*
X31150Y41325D01*
X32500D01*
X32557Y44518D02*
X33400Y43675D01*
X31575Y40725D02*
X32900D01*
X31625Y38500D02*
Y39750D01*
X30650Y39800D02*
X31575Y40725D01*
X30920Y43445D02*
X31895D01*
X33325Y38475D02*
Y39750D01*
X30650Y35975D02*
Y39800D01*
X23450Y45325D02*
X23943Y45818D01*
X24605Y44715D02*
X24620Y44700D01*
X29135Y47275D02*
X31535Y49675D01*
X23450Y40100D02*
Y45325D01*
Y40100D02*
X30450Y33100D01*
X30150Y35675D02*
Y40325D01*
X29575Y35525D02*
Y42100D01*
X27962Y36363D02*
X30792Y33534D01*
X31500Y34325D02*
X33950D01*
X30650Y35975D02*
X31850Y34775D01*
X30150Y35675D02*
X31500Y34325D01*
X31850Y34775D02*
X34050D01*
X26150Y32175D02*
X27400D01*
X27425Y32150D01*
X31150Y33950D02*
X33750D01*
X30792Y33534D02*
X33641D01*
X30450Y33100D02*
X33567D01*
X30175Y32625D02*
X33500D01*
X29575Y35525D02*
X31150Y33950D01*
X23943Y45818D02*
X24110Y45985D01*
X25925Y44700D02*
X27962Y42663D01*
X24518Y47275D02*
X29135D01*
X24110Y45985D02*
X24605D01*
X24620Y44700D02*
X25925D01*
X24605Y43445D02*
X24628Y43423D01*
X23943Y45818D02*
Y45818D01*
X24628Y43423D02*
X26153D01*
X26175Y43400D01*
X29575Y42100D02*
X30920Y43445D01*
X27962Y36363D02*
Y42663D01*
X39125Y20625D02*
Y20650D01*
X39050Y18850D02*
X40225D01*
X39025Y18875D02*
X39050Y18850D01*
X38050Y21725D02*
X39125Y20650D01*
X36870Y21366D02*
Y24086D01*
X31225Y19000D02*
X35670Y23445D01*
X37270Y20530D02*
Y24086D01*
X30375Y18800D02*
X35029Y23454D01*
X29230Y18740D02*
X34576Y24086D01*
X36500Y20996D02*
X36870Y21366D01*
X35350Y18900D02*
X35350Y18900D01*
X26690Y17206D02*
X33962Y24479D01*
X27752Y24827D02*
X27775Y24850D01*
X26798Y24802D02*
X27952D01*
X27375Y26200D02*
X31000D01*
X26527Y26627D02*
X30552D01*
X41120Y29136D02*
X42436D01*
X27950Y28336D02*
X27961D01*
X27950Y28325D02*
X27961Y28336D01*
X26325Y28400D02*
X26350Y28375D01*
X25125Y28400D02*
X26325D01*
X25700Y27050D02*
X30200D01*
X34025Y16450D02*
X35150D01*
X37125Y16075D02*
X37162D01*
X36500Y16700D02*
X37125Y16075D01*
X40675Y16425D02*
X41775D01*
X38650Y16050D02*
Y16075D01*
X37162D02*
X37700Y15537D01*
X38150Y15550D02*
X38650Y16050D01*
Y16075D02*
X38825Y16250D01*
X38850D01*
X40650Y16450D02*
X40675Y16425D01*
X37700Y13075D02*
Y15537D01*
X35350Y13900D02*
X36775D01*
X38150Y14700D02*
Y15550D01*
Y14700D02*
X38209Y14641D01*
X38950Y13900D02*
X39075D01*
X38209Y14641D02*
X38950Y13900D01*
X37325Y17775D02*
X38850Y16250D01*
X39075Y12150D02*
X40400D01*
X36775D02*
X36900D01*
X37325Y12575D01*
Y12700D02*
X37700Y13075D01*
X37325Y12575D02*
Y12700D01*
X34025Y18475D02*
X34450Y18900D01*
X37325Y17775D02*
Y18875D01*
X34450Y18900D02*
X35350D01*
X36500Y16700D02*
Y20996D01*
X37975Y21575D02*
Y21656D01*
Y21725D02*
X38050D01*
X35325Y22225D02*
X36070Y22970D01*
Y24086D01*
X35670Y23445D02*
Y24086D01*
X37670Y21962D02*
Y24086D01*
X38870Y22055D02*
Y24086D01*
X37670Y21962D02*
X37975Y21656D01*
X41120Y25136D02*
X41639D01*
X41120Y25936D02*
X42414D01*
X40070Y30986D02*
Y32720D01*
X39270Y22330D02*
Y24086D01*
X40070Y22980D02*
Y24086D01*
X39670Y22630D02*
Y24086D01*
X41120Y25536D02*
X41989D01*
X36870Y30986D02*
Y31955D01*
X36470Y30986D02*
Y31805D01*
X35639Y34436D02*
X38070Y32005D01*
X37850Y33300D02*
X38870Y32280D01*
X34050Y34775D02*
X36870Y31955D01*
X33950Y34325D02*
X36470Y31805D01*
X36040Y34601D02*
X38470Y32171D01*
X37850Y33300D02*
Y34550D01*
X33567Y33100D02*
X35270Y31397D01*
X33750Y33950D02*
X36070Y31630D01*
X33641Y33534D02*
X35670Y31505D01*
X35639Y34436D02*
Y34471D01*
X35585Y34525D02*
X35639Y34471D01*
X40475Y33675D02*
X40825Y34025D01*
X41450D01*
X29850Y29742D02*
Y29850D01*
X32914Y29936D02*
X34220D01*
X29850Y29742D02*
X30456Y29136D01*
X31314Y29536D02*
X34220D01*
X30456Y29136D02*
X34220D01*
X30325Y30525D02*
X31314Y29536D01*
X29325Y29187D02*
X29776Y28736D01*
X29325Y29187D02*
Y29275D01*
X29776Y28736D02*
X34220D01*
X30200Y27050D02*
X30686Y27536D01*
X27961Y28336D02*
X34220D01*
X30511Y27936D02*
X34220D01*
X30686Y27536D02*
X34220D01*
X31061Y27136D02*
X34220D01*
X31536Y26736D02*
X34220D01*
X30552Y26627D02*
X31061Y27136D01*
X30025Y27450D02*
X30511Y27936D01*
X31000Y26200D02*
X31536Y26736D01*
X35270Y30986D02*
Y31397D01*
X35670Y30986D02*
Y31505D01*
X34870Y30986D02*
Y31291D01*
X36070Y30986D02*
Y31630D01*
X38870Y30986D02*
Y32280D01*
X39270Y30986D02*
Y32720D01*
X38470Y30986D02*
Y32171D01*
X38070Y30986D02*
Y32005D01*
X32574Y25936D02*
X34220D01*
X33842Y25463D02*
X33915Y25536D01*
X32863Y25463D02*
X33842D01*
X33661Y25136D02*
X34220D01*
X33915Y25536D02*
X34220D01*
X29888Y23250D02*
X32574Y25936D01*
X28125Y23250D02*
X29888D01*
X35049Y23454D02*
X35270Y23675D01*
Y24086D01*
X33962Y24736D02*
X34220D01*
X34576Y24086D02*
X34870D01*
X33962Y24479D02*
Y24736D01*
X35029Y23454D02*
X35049D01*
X48200Y27925D02*
X48238Y27887D01*
X41120Y27936D02*
X45139D01*
X45150Y27925D02*
X46600D01*
X41120Y28336D02*
X43536D01*
X41120Y28736D02*
X42861D01*
X50300Y21300D02*
X56400Y15200D01*
X46625Y18525D02*
X47525Y17625D01*
X46300Y18050D02*
X46925Y17425D01*
X44967Y16958D02*
X45525Y16400D01*
X56500Y16900D02*
X58619D01*
X58617Y15200D02*
X59654Y14164D01*
X56400Y15200D02*
X58617D01*
X45475Y21300D02*
X50300D01*
X59654Y14114D02*
Y14164D01*
X46975Y19000D02*
X48125Y17850D01*
X41120Y26736D02*
X43289D01*
X41120Y27136D02*
X43864D01*
X56600Y28400D02*
X60752D01*
X48238Y27887D02*
X49631D01*
X52900Y24700D02*
X56600Y28400D01*
X43550Y18050D02*
X46300D01*
X43967Y16958D02*
X44967D01*
X45625Y21900D02*
X51500D01*
X41120Y24736D02*
X42990Y22865D01*
X41989Y25536D02*
X45625Y21900D01*
X41639Y25136D02*
X45475Y21300D01*
X42414Y25936D02*
X45950Y22400D01*
X42789Y26336D02*
X46025Y23100D01*
X43289Y26736D02*
X46125Y23900D01*
X43864Y27136D02*
X46300Y24700D01*
X51500Y21900D02*
X56500Y16900D01*
X58400Y23900D02*
X59950Y25450D01*
X46025Y23100D02*
X59210D01*
X59860Y20444D02*
Y21140D01*
Y20444D02*
X59917Y20386D01*
X46125Y23900D02*
X58400D01*
X45950Y22400D02*
X58600D01*
X59860Y21140D01*
X46300Y24700D02*
X52900D01*
X46475Y19950D02*
X46500Y19925D01*
X44050Y19000D02*
X46975D01*
X43775Y18525D02*
X46625D01*
X46500Y19925D02*
X47825D01*
X59950Y25450D02*
Y27195D01*
X41120Y26336D02*
X42789D01*
X48200Y26100D02*
X49625D01*
X48175Y26075D02*
X48200Y26100D01*
X38870Y22055D02*
X43967Y16958D01*
X39270Y22330D02*
X43550Y18050D01*
X40070Y22980D02*
X44050Y19000D01*
X39670Y22630D02*
X43775Y18525D01*
X8265Y58160D02*
X9545D01*
X2550Y55600D02*
Y55620D01*
X4605D01*
X9545Y56890D02*
X15135D01*
X24746Y51446D02*
Y53096D01*
X24617Y52967D02*
X24746Y53096D01*
X22825Y39975D02*
Y46875D01*
X14854Y34625D02*
X18329Y31150D01*
X11000Y15625D02*
X16800D01*
X6400Y22225D02*
X11850Y16775D01*
X6400Y20225D02*
X11000Y15625D01*
X14600Y22225D02*
X19250D01*
X18393Y59650D02*
X18418Y59675D01*
X15135Y56890D02*
X16117Y55908D01*
X18425Y54750D02*
X18450Y54725D01*
X16041D02*
X16117Y54801D01*
Y55908D01*
X14600Y32625D02*
X14854D01*
X16954Y30525D01*
X14600Y34625D02*
X14854D01*
X12975Y10400D02*
X15300D01*
X16800Y11900D01*
X11850Y16775D02*
X16675D01*
X14600Y20225D02*
X18875D01*
X22200Y12600D02*
Y14800D01*
X19250Y22225D02*
X24475Y27450D01*
X30375Y7535D02*
X31770Y6140D01*
X31225Y9225D02*
X34310Y6140D01*
X26690D02*
Y17206D01*
X24150Y6140D02*
Y15625D01*
X41525Y8275D02*
X46150D01*
X12975Y8400D02*
X18000D01*
X31225Y9225D02*
Y19000D01*
X30375Y7535D02*
Y18800D01*
X29230Y6140D02*
Y18740D01*
X18000Y8400D02*
X22200Y12600D01*
X39390Y6140D02*
X41525Y8275D01*
X61830Y41925D02*
X61930Y41825D01*
X65270Y42475D02*
X65370Y42575D01*
X61830D02*
X62915D01*
X64375Y42475D02*
X65270D01*
X62915Y42575D02*
X63400Y42090D01*
X55064Y29100D02*
X59950Y33986D01*
X51300Y31200D02*
X59600Y39500D01*
X51966Y29775D02*
X57091Y34900D01*
X51700Y30500D02*
X60100Y38900D01*
X60077Y44123D02*
Y45302D01*
X58200Y42200D02*
X58200Y42200D01*
X59200Y43200D02*
X60460Y41940D01*
X58100Y43200D02*
X59200D01*
X58200Y42200D02*
X59300D01*
X58308Y44792D02*
X60525Y42575D01*
X58300Y45500D02*
X58308Y45492D01*
X68400Y39600D02*
X68500Y39700D01*
X68475Y41275D02*
X68500Y41300D01*
X67450Y41925D02*
X70400Y44875D01*
X68500Y41300D02*
X69200D01*
X64300Y41646D02*
X64522Y41868D01*
X63800Y41900D02*
X64375Y42475D01*
X62482Y41825D02*
X63000Y41307D01*
X61830Y40625D02*
Y41275D01*
X61930Y41825D02*
X62482D01*
X64522Y41868D02*
X65313D01*
X65370Y41925D01*
X60100Y47100D02*
X62000D01*
X60077Y45302D02*
X60925Y46150D01*
X62000D01*
X63000Y40100D02*
Y41307D01*
X65400Y39600D02*
X68400D01*
X65370Y42575D02*
X66375D01*
X62600Y38900D02*
X63400Y39700D01*
X62400Y39500D02*
X63000Y40100D01*
X65370Y40625D02*
X65400Y40595D01*
X63400Y39700D02*
Y42090D01*
X65370Y41275D02*
X68475D01*
X65400Y39600D02*
Y40595D01*
X65370Y41925D02*
X67450D01*
X65937Y13595D02*
X65953Y13611D01*
X63800Y34149D02*
X63963Y33986D01*
X63947Y33970D02*
X63963Y33986D01*
X63947Y13611D02*
Y33970D01*
X65953D02*
X65970Y33986D01*
X65953Y13611D02*
Y33970D01*
X64300Y35656D02*
X65970Y33986D01*
X63930Y13595D02*
X63947Y13611D01*
X59654Y14114D02*
X59917Y13850D01*
Y13595D02*
Y13850D01*
X58619Y16900D02*
X61924Y13595D01*
X59210Y23100D02*
X61924Y20386D01*
X60752Y28400D02*
X61957Y27195D01*
X70400Y44875D02*
Y45500D01*
Y47075D02*
Y47100D01*
X66800D02*
X70400D01*
X68655Y45138D02*
X68938D01*
X68592Y45075D02*
X68655Y45138D01*
X56508Y44792D02*
X58100Y43200D01*
X56500Y45325D02*
X56508Y45317D01*
X56100Y45725D02*
X56500Y45325D01*
X56508Y44792D02*
Y45317D01*
X58308Y44792D02*
Y45492D01*
X56075Y45725D02*
X56100D01*
X56500Y45300D02*
Y45325D01*
X68592Y44792D02*
Y45075D01*
X64756Y47100D02*
X66800D01*
Y44100D02*
Y45300D01*
X66375Y42575D02*
X68592Y44792D01*
X58300Y40625D02*
X61430D01*
X59600Y39500D02*
X62400D01*
X60100Y38900D02*
X62600D01*
X63800Y34149D02*
Y41900D01*
X64300Y35656D02*
Y41646D01*
X60460Y41940D02*
X61645D01*
X60525Y42575D02*
X61817D01*
X57091Y34900D02*
X61043D01*
X61957Y33986D01*
X56400Y40600D02*
X58200D01*
X56500Y45325D02*
Y45500D01*
D31*
X41950Y31600D02*
Y31600D01*
X42888Y32537D02*
Y32552D01*
D32*
X28025Y63450D02*
X34100D01*
X10350Y67600D02*
X10366Y67584D01*
X7550Y67600D02*
X10350D01*
X12300Y67584D02*
X12850Y67034D01*
Y66275D02*
Y67034D01*
X17000Y67425D02*
X17150D01*
X10366Y67584D02*
X12300D01*
X17150Y67425D02*
X24050D01*
X28025Y63450D01*
X8352Y60959D02*
Y61698D01*
X8225Y61800D02*
Y65125D01*
X8250Y61800D02*
X8352Y61698D01*
X9216Y59530D02*
Y60096D01*
X8352Y60959D02*
X9216Y60096D01*
Y59530D02*
X9316Y59430D01*
X9545D01*
X18425Y54750D02*
Y56525D01*
X18443Y59650D02*
X18443Y59650D01*
X20350D01*
X18418Y59675D02*
X18443Y59650D01*
X11820Y43989D02*
X13727D01*
D33*
X9850Y61800D02*
X11250D01*
X10350Y64450D02*
Y66000D01*
D34*
X41950Y31600D02*
X42888Y32537D01*
D35*
X37270Y20530D02*
X37325Y20475D01*
X39670Y32774D02*
Y35925D01*
X40663Y36919D02*
Y37219D01*
X39670Y35925D02*
X40663Y36919D01*
X40476Y35390D02*
X40824Y35042D01*
X40070Y32720D02*
X40255Y32905D01*
Y33416D02*
X40451Y33612D01*
X40255Y32905D02*
Y33416D01*
X40824Y35042D02*
X41408D01*
X41450Y35000D01*
X39085Y32905D02*
X39270Y32720D01*
X38901Y33612D02*
X39085Y33428D01*
Y32905D02*
Y33428D01*
D36*
X39670Y30986D02*
Y32774D01*
D37*
X31375Y57725D02*
D03*
Y53225D02*
D03*
X24875D02*
D03*
Y57725D02*
D03*
D38*
X29330Y68150D02*
D03*
X41370D02*
D03*
D39*
X34100Y65450D02*
D03*
X36600D02*
D03*
Y63450D02*
D03*
D40*
X34100D02*
D03*
D41*
X69925Y20386D02*
D03*
X69958Y27195D02*
D03*
X69958Y33986D02*
D03*
X69925Y13595D02*
D03*
D42*
X67918Y20386D02*
D03*
X65937D02*
D03*
X63930D02*
D03*
X61924D02*
D03*
X59917D02*
D03*
X57936D02*
D03*
X67951Y27195D02*
D03*
X65970D02*
D03*
X63963D02*
D03*
X61957D02*
D03*
X59950D02*
D03*
X57969D02*
D03*
X67951Y33986D02*
D03*
X65970D02*
D03*
X63963D02*
D03*
X61957D02*
D03*
X59950D02*
D03*
X57969D02*
D03*
X67918Y13595D02*
D03*
X65937D02*
D03*
X63930D02*
D03*
X61924D02*
D03*
X59917D02*
D03*
X57936D02*
D03*
D43*
X6400Y30625D02*
D03*
Y34625D02*
D03*
Y32625D02*
D03*
Y20225D02*
D03*
Y22225D02*
D03*
Y18225D02*
D03*
X12975Y6400D02*
D03*
Y8400D02*
D03*
X14600Y18225D02*
D03*
Y22225D02*
D03*
Y20225D02*
D03*
Y30625D02*
D03*
Y34625D02*
D03*
Y32625D02*
D03*
D44*
X6400Y36625D02*
D03*
Y24225D02*
D03*
X12975Y10400D02*
D03*
X14600Y24225D02*
D03*
Y36625D02*
D03*
D45*
X6900Y49790D02*
D03*
Y44710D02*
D03*
D46*
X50025Y9900D02*
D03*
X45525D02*
D03*
Y16400D02*
D03*
X50025D02*
D03*
D47*
X47010Y3600D02*
D03*
Y6140D02*
D03*
X44470Y3600D02*
D03*
Y6140D02*
D03*
X41930Y3600D02*
D03*
Y6140D02*
D03*
X39390Y3600D02*
D03*
Y6140D02*
D03*
X36850Y3600D02*
D03*
Y6140D02*
D03*
X34310Y3600D02*
D03*
Y6140D02*
D03*
X31770Y3600D02*
D03*
Y6140D02*
D03*
X29230Y3600D02*
D03*
Y6140D02*
D03*
X26690Y3600D02*
D03*
Y6140D02*
D03*
X24150Y3600D02*
D03*
D48*
Y6140D02*
D03*
D49*
X69500Y75500D02*
D03*
X0D02*
D03*
Y0D02*
D03*
X69500D02*
D03*
D50*
X65400Y39600D02*
D03*
X66800Y44100D02*
D03*
X67000Y41300D02*
D03*
X40225Y18850D02*
D03*
X39025Y28900D02*
D03*
X37975Y25375D02*
D03*
X37661Y27489D02*
D03*
X39025Y26175D02*
D03*
X37975Y21725D02*
D03*
X39025Y27489D02*
D03*
X37661Y26175D02*
D03*
X39825Y27900D02*
D03*
X41450Y35000D02*
D03*
X10350Y64450D02*
D03*
X43000Y22875D02*
D03*
X35350Y13900D02*
D03*
X45150Y27925D02*
D03*
X49631Y27887D02*
D03*
X49983Y3327D02*
D03*
X25825Y69775D02*
D03*
X37850Y29725D02*
D03*
X25125Y28400D02*
D03*
X11250Y61800D02*
D03*
X18425Y56525D02*
D03*
X11820Y43989D02*
D03*
X20350Y59650D02*
D03*
X35500Y28325D02*
D03*
X35325Y22225D02*
D03*
X34025Y18475D02*
D03*
Y16450D02*
D03*
X36300Y27489D02*
D03*
X29850Y29850D02*
D03*
X36300Y28900D02*
D03*
Y26175D02*
D03*
X29331Y28326D02*
D03*
X29325Y29275D02*
D03*
X28050Y57725D02*
D03*
X41950Y31600D02*
D03*
X49625Y34000D02*
D03*
X41450Y34025D02*
D03*
X49540Y32385D02*
D03*
X49625Y26100D02*
D03*
X34250Y50350D02*
D03*
X60077Y44123D02*
D03*
X59300Y42200D02*
D03*
X2550Y55600D02*
D03*
X37850Y35200D02*
D03*
X37636Y28900D02*
D03*
X31625Y39750D02*
D03*
X33325D02*
D03*
X26175Y43400D02*
D03*
X37850Y34550D02*
D03*
X26150Y32175D02*
D03*
X26798Y24802D02*
D03*
X47825Y19925D02*
D03*
X41775Y16425D02*
D03*
X40400Y12150D02*
D03*
%TF.MD5,326c61d5db28d0440cb12ee700516353*%
M02*
