%TF.GenerationSoftware,Altium Limited,Altium Designer,25.2.1 (25)*%
G04 Layer_Color=6809061*
%FSLAX43Y43*%
%MOMM*%
%TF.SameCoordinates,04BFB8AD-8686-48F5-A47E-F6A4234CF6E9*%
%TF.FilePolarity,Positive*%
%TF.FileFunction,Legend,Bot*%
%TF.Part,Single*%
G01*
G75*
%TA.AperFunction,NonConductor*%
%ADD33C,0.200*%
%ADD36C,0.254*%
%ADD37C,0.300*%
%ADD38C,0.250*%
G36*
X43386Y23432D02*
X45295D01*
Y22479D01*
X45294D01*
Y22478D01*
X44341D01*
Y21523D01*
X45294D01*
Y21522D01*
X45295D01*
Y20568D01*
X46250D01*
Y18659D01*
X45295D01*
Y19614D01*
X44342D01*
Y19615D01*
X44341D01*
Y20568D01*
X43386D01*
Y19615D01*
X43385D01*
Y19614D01*
X42432D01*
Y20568D01*
X39568D01*
Y19614D01*
X40521D01*
Y19613D01*
X40523D01*
Y18659D01*
X39568D01*
Y19614D01*
X38615D01*
Y19615D01*
X38613D01*
Y20568D01*
X37659D01*
Y19615D01*
X37658D01*
Y19614D01*
X36704D01*
Y18659D01*
X35750D01*
Y20568D01*
X36704D01*
Y21522D01*
X36706D01*
Y21523D01*
X37659D01*
Y22478D01*
X36706D01*
Y22479D01*
X36704D01*
Y23432D01*
X35750D01*
Y24118D01*
Y24119D01*
Y24387D01*
X36703D01*
Y24385D01*
X36704D01*
Y23432D01*
X38613D01*
Y21523D01*
X39568D01*
Y23432D01*
X38613D01*
Y25341D01*
X39568D01*
Y24387D01*
X42432D01*
Y25341D01*
X43386D01*
Y23432D01*
D02*
G37*
G36*
X46250D02*
X45295D01*
Y23725D01*
Y23726D01*
Y24385D01*
X45296D01*
Y24387D01*
X46250D01*
Y23432D01*
D02*
G37*
G36*
X42432Y19539D02*
Y19538D01*
Y18659D01*
X41477D01*
Y19613D01*
X41478D01*
Y19614D01*
X42432D01*
Y19539D01*
D02*
G37*
%LPC*%
G36*
X43386Y23432D02*
X42432D01*
Y21523D01*
X43386D01*
Y23432D01*
D02*
G37*
%LPD*%
D33*
X30750Y25600D02*
Y26400D01*
Y31600D02*
Y32400D01*
X17600Y36000D02*
X18400D01*
X33600Y2500D02*
X34400D01*
X36140D02*
X36940D01*
X17600Y20000D02*
X18400D01*
X30750Y27100D02*
Y27900D01*
X19100Y20000D02*
X19900D01*
X2500Y21350D02*
Y22150D01*
X12250Y21100D02*
Y21900D01*
X14750Y22100D02*
Y22900D01*
Y23600D02*
Y24400D01*
Y25100D02*
Y25900D01*
X20600Y36000D02*
X21400D01*
X14750Y26600D02*
Y27400D01*
X22100Y36000D02*
X22900D01*
X19100D02*
X19900D01*
X16100D02*
X16900D01*
X30750Y24100D02*
Y24900D01*
Y28600D02*
Y29400D01*
X14750Y28100D02*
Y28900D01*
X30750Y30100D02*
Y30900D01*
X28850Y18250D02*
X29650D01*
X46248Y17673D02*
Y16673D01*
X45748D01*
X45582Y16840D01*
Y17506D01*
X45748Y17673D01*
X46248D01*
X44749Y16673D02*
X45082D01*
X45248Y16840D01*
Y17173D01*
X45082Y17340D01*
X44749D01*
X44582Y17173D01*
Y17006D01*
X45248D01*
X44249Y16673D02*
X43749D01*
X43582Y16840D01*
X43749Y17006D01*
X44082D01*
X44249Y17173D01*
X44082Y17340D01*
X43582D01*
X43249Y16673D02*
X42916D01*
X43082D01*
Y17340D01*
X43249D01*
X42083Y16340D02*
X41916D01*
X41750Y16507D01*
Y17340D01*
X42249D01*
X42416Y17173D01*
Y16840D01*
X42249Y16673D01*
X41750D01*
X41416D02*
Y17340D01*
X40917D01*
X40750Y17173D01*
Y16673D01*
X39917D02*
X40250D01*
X40417Y16840D01*
Y17173D01*
X40250Y17340D01*
X39917D01*
X39750Y17173D01*
Y17006D01*
X40417D01*
X38751Y17673D02*
Y16673D01*
X39250D01*
X39417Y16840D01*
Y17173D01*
X39250Y17340D01*
X38751D01*
X37418Y17673D02*
Y16673D01*
X36918D01*
X36751Y16840D01*
Y17006D01*
Y17173D01*
X36918Y17340D01*
X37418D01*
X36418D02*
Y16840D01*
X36251Y16673D01*
X35752D01*
Y16507D01*
X35918Y16340D01*
X36085D01*
X35752Y16673D02*
Y17340D01*
X49081Y14660D02*
Y15660D01*
X48581D01*
X48414Y15493D01*
Y15160D01*
X48581Y14994D01*
X49081D01*
X48747D02*
X48414Y14660D01*
X48081Y15327D02*
Y14827D01*
X47914Y14660D01*
X47414D01*
Y15327D01*
X47081Y14660D02*
X46581D01*
X46415Y14827D01*
X46581Y14994D01*
X46915D01*
X47081Y15160D01*
X46915Y15327D01*
X46415D01*
X46082Y14660D02*
X45582D01*
X45415Y14827D01*
X45582Y14994D01*
X45915D01*
X46082Y15160D01*
X45915Y15327D01*
X45415D01*
X44582Y14660D02*
X44915D01*
X45082Y14827D01*
Y15160D01*
X44915Y15327D01*
X44582D01*
X44415Y15160D01*
Y14994D01*
X45082D01*
X44082Y14660D02*
X43749D01*
X43916D01*
Y15660D01*
X44082D01*
X43249Y14660D02*
X42916D01*
X43082D01*
Y15660D01*
X43249D01*
X41416Y14660D02*
Y15660D01*
X41083Y15327D01*
X40750Y15660D01*
Y14660D01*
X40250Y15327D02*
X39917D01*
X39750Y15160D01*
Y14660D01*
X40250D01*
X40417Y14827D01*
X40250Y14994D01*
X39750D01*
X38751Y15327D02*
X39250D01*
X39417Y15160D01*
Y14827D01*
X39250Y14660D01*
X38751D01*
X37751Y15493D02*
X37917Y15660D01*
X38251D01*
X38417Y15493D01*
Y14827D01*
X38251Y14660D01*
X37917D01*
X37751Y14827D01*
Y15160D01*
X38084D01*
X37418Y15327D02*
Y14660D01*
Y14994D01*
X37251Y15160D01*
X37084Y15327D01*
X36918D01*
X35918Y14660D02*
X36251D01*
X36418Y14827D01*
Y15160D01*
X36251Y15327D01*
X35918D01*
X35752Y15160D01*
Y14994D01*
X36418D01*
X35085Y14327D02*
X34918D01*
X34752Y14494D01*
Y15327D01*
X35252D01*
X35418Y15160D01*
Y14827D01*
X35252Y14660D01*
X34752D01*
X34252D02*
X33919D01*
X33752Y14827D01*
Y15160D01*
X33919Y15327D01*
X34252D01*
X34419Y15160D01*
Y14827D01*
X34252Y14660D01*
X33419Y15327D02*
Y14660D01*
Y14994D01*
X33252Y15160D01*
X33086Y15327D01*
X32919D01*
X15608Y19867D02*
X15775Y19701D01*
Y19367D01*
X15608Y19201D01*
X14942D01*
X14775Y19367D01*
Y19701D01*
X14942Y19867D01*
X14775Y20200D02*
Y20534D01*
Y20367D01*
X15775D01*
X15608Y20200D01*
X14775Y21533D02*
X15775D01*
X15275Y21034D01*
Y21700D01*
X33200Y2000D02*
Y3000D01*
X32700D01*
X32534Y2833D01*
Y2500D01*
X32700Y2333D01*
X33200D01*
X32867D02*
X32534Y2000D01*
X32200Y2167D02*
X32034Y2000D01*
X31700D01*
X31534Y2167D01*
Y2833D01*
X31700Y3000D01*
X32034D01*
X32200Y2833D01*
Y2667D01*
X32034Y2500D01*
X31534D01*
X39006Y2000D02*
Y3000D01*
X38506D01*
X38340Y2833D01*
Y2500D01*
X38506Y2333D01*
X39006D01*
X38673D02*
X38340Y2000D01*
X38006Y2833D02*
X37840Y3000D01*
X37507D01*
X37340Y2833D01*
Y2667D01*
X37507Y2500D01*
X37340Y2333D01*
Y2167D01*
X37507Y2000D01*
X37840D01*
X38006Y2167D01*
Y2333D01*
X37840Y2500D01*
X38006Y2667D01*
Y2833D01*
X37840Y2500D02*
X37507D01*
X13325Y26500D02*
Y27500D01*
X12825D01*
X12659Y27333D01*
Y27000D01*
X12825Y26833D01*
X13325D01*
X12992D02*
X12659Y26500D01*
X12325Y27500D02*
X11659D01*
Y27333D01*
X12325Y26667D01*
Y26500D01*
X33841Y30000D02*
Y31000D01*
X33341D01*
X33175Y30833D01*
Y30500D01*
X33341Y30333D01*
X33841D01*
X33508D02*
X33175Y30000D01*
X32175Y31000D02*
X32508Y30833D01*
X32841Y30500D01*
Y30167D01*
X32675Y30000D01*
X32342D01*
X32175Y30167D01*
Y30333D01*
X32342Y30500D01*
X32841D01*
X3333Y19950D02*
Y20950D01*
X2833D01*
X2667Y20783D01*
Y20450D01*
X2833Y20284D01*
X3333D01*
X3000D02*
X2667Y19950D01*
X1834D02*
Y20950D01*
X2333Y20450D01*
X1667D01*
X13083Y19700D02*
Y20700D01*
X12583D01*
X12417Y20533D01*
Y20200D01*
X12583Y20034D01*
X13083D01*
X12750D02*
X12417Y19700D01*
X12083Y20533D02*
X11917Y20700D01*
X11584D01*
X11417Y20533D01*
Y20367D01*
X11584Y20200D01*
X11750D01*
X11584D01*
X11417Y20034D01*
Y19867D01*
X11584Y19700D01*
X11917D01*
X12083Y19867D01*
X19116Y25000D02*
Y26000D01*
X18616D01*
X18450Y25833D01*
Y25500D01*
X18616Y25333D01*
X19116D01*
X18783D02*
X18450Y25000D01*
X17450D02*
X18116D01*
X17450Y25667D01*
Y25833D01*
X17617Y26000D01*
X17950D01*
X18116Y25833D01*
X18783Y23500D02*
Y24500D01*
X18283D01*
X18116Y24333D01*
Y24000D01*
X18283Y23833D01*
X18783D01*
X18450D02*
X18116Y23500D01*
X17783D02*
X17450D01*
X17617D01*
Y24500D01*
X17783Y24333D01*
X21500Y37425D02*
X20500D01*
Y38091D01*
Y39091D02*
Y38425D01*
X21167Y39091D01*
X21333D01*
X21500Y38925D01*
Y38591D01*
X21333Y38425D01*
X34008Y29333D02*
X34174Y29500D01*
X34508D01*
X34674Y29333D01*
Y28667D01*
X34508Y28500D01*
X34174D01*
X34008Y28667D01*
X33675Y28500D02*
X33341D01*
X33508D01*
Y29500D01*
X33675Y29333D01*
X32841D02*
X32675Y29500D01*
X32342D01*
X32175Y29333D01*
Y29167D01*
X32342Y29000D01*
X32175Y28833D01*
Y28667D01*
X32342Y28500D01*
X32675D01*
X32841Y28667D01*
Y28833D01*
X32675Y29000D01*
X32841Y29167D01*
Y29333D01*
X32675Y29000D02*
X32342D01*
X19833Y16742D02*
X20000Y16576D01*
Y16242D01*
X19833Y16076D01*
X19167D01*
X19000Y16242D01*
Y16576D01*
X19167Y16742D01*
X19000Y17075D02*
Y17409D01*
Y17242D01*
X20000D01*
X19833Y17075D01*
X20000Y17909D02*
Y18575D01*
X19833D01*
X19167Y17909D01*
X19000D01*
X18333Y16742D02*
X18500Y16576D01*
Y16242D01*
X18333Y16076D01*
X17667D01*
X17500Y16242D01*
Y16576D01*
X17667Y16742D01*
X17500Y17075D02*
Y17409D01*
Y17242D01*
X18500D01*
X18333Y17075D01*
X18500Y18575D02*
X18333Y18242D01*
X18000Y17909D01*
X17667D01*
X17500Y18075D01*
Y18408D01*
X17667Y18575D01*
X17833D01*
X18000Y18408D01*
Y17909D01*
X31333Y23533D02*
X31500Y23700D01*
X31833D01*
X32000Y23533D01*
Y22867D01*
X31833Y22700D01*
X31500D01*
X31333Y22867D01*
X31000Y22700D02*
X30667D01*
X30833D01*
Y23700D01*
X31000Y23533D01*
X29500Y23700D02*
X30167D01*
Y23200D01*
X29834Y23367D01*
X29667D01*
X29500Y23200D01*
Y22867D01*
X29667Y22700D01*
X30000D01*
X30167Y22867D01*
X15333Y30133D02*
X15500Y30300D01*
X15833D01*
X16000Y30133D01*
Y29467D01*
X15833Y29300D01*
X15500D01*
X15333Y29467D01*
X15000Y29300D02*
X14667D01*
X14833D01*
Y30300D01*
X15000Y30133D01*
X14167D02*
X14000Y30300D01*
X13667D01*
X13500Y30133D01*
Y29966D01*
X13667Y29800D01*
X13834D01*
X13667D01*
X13500Y29633D01*
Y29467D01*
X13667Y29300D01*
X14000D01*
X14167Y29467D01*
X24133Y35417D02*
X24300Y35250D01*
Y34917D01*
X24133Y34750D01*
X23467D01*
X23300Y34917D01*
Y35250D01*
X23467Y35417D01*
X23300Y35750D02*
Y36083D01*
Y35917D01*
X24300D01*
X24133Y35750D01*
X23300Y37250D02*
Y36583D01*
X23966Y37250D01*
X24133D01*
X24300Y37083D01*
Y36750D01*
X24133Y36583D01*
X16833Y38091D02*
X17000Y37925D01*
Y37592D01*
X16833Y37425D01*
X16167D01*
X16000Y37592D01*
Y37925D01*
X16167Y38091D01*
X16000Y38425D02*
Y38758D01*
Y38591D01*
X17000D01*
X16833Y38425D01*
X16000Y39258D02*
Y39591D01*
Y39424D01*
X17000D01*
X16833Y39258D01*
X19833Y38091D02*
X20000Y37925D01*
Y37592D01*
X19833Y37425D01*
X19167D01*
X19000Y37592D01*
Y37925D01*
X19167Y38091D01*
X19000Y38425D02*
Y38758D01*
Y38591D01*
X20000D01*
X19833Y38425D01*
Y39258D02*
X20000Y39424D01*
Y39758D01*
X19833Y39924D01*
X19167D01*
X19000Y39758D01*
Y39424D01*
X19167Y39258D01*
X19833D01*
X18333Y38091D02*
X18500Y37925D01*
Y37592D01*
X18333Y37425D01*
X17667D01*
X17500Y37592D01*
Y37925D01*
X17667Y38091D01*
Y38425D02*
X17500Y38591D01*
Y38925D01*
X17667Y39091D01*
X18333D01*
X18500Y38925D01*
Y38591D01*
X18333Y38425D01*
X18167D01*
X18000Y38591D01*
Y39091D01*
X33175Y27833D02*
X33341Y28000D01*
X33675D01*
X33841Y27833D01*
Y27167D01*
X33675Y27000D01*
X33341D01*
X33175Y27167D01*
X32841Y27833D02*
X32675Y28000D01*
X32342D01*
X32175Y27833D01*
Y27667D01*
X32342Y27500D01*
X32175Y27333D01*
Y27167D01*
X32342Y27000D01*
X32675D01*
X32841Y27167D01*
Y27333D01*
X32675Y27500D01*
X32841Y27667D01*
Y27833D01*
X32675Y27500D02*
X32342D01*
X33175Y26333D02*
X33341Y26500D01*
X33675D01*
X33841Y26333D01*
Y25667D01*
X33675Y25500D01*
X33341D01*
X33175Y25667D01*
X32841Y26500D02*
X32175D01*
Y26333D01*
X32841Y25667D01*
Y25500D01*
X33175Y32333D02*
X33341Y32500D01*
X33675D01*
X33841Y32333D01*
Y31667D01*
X33675Y31500D01*
X33341D01*
X33175Y31667D01*
X32175Y32500D02*
X32508Y32333D01*
X32841Y32000D01*
Y31667D01*
X32675Y31500D01*
X32342D01*
X32175Y31667D01*
Y31833D01*
X32342Y32000D01*
X32841D01*
X29583Y20341D02*
X29750Y20175D01*
Y19842D01*
X29583Y19675D01*
X28917D01*
X28750Y19842D01*
Y20175D01*
X28917Y20341D01*
X29583Y20675D02*
X29750Y20841D01*
Y21175D01*
X29583Y21341D01*
X29417D01*
X29250Y21175D01*
Y21008D01*
Y21175D01*
X29083Y21341D01*
X28917D01*
X28750Y21175D01*
Y20841D01*
X28917Y20675D01*
D36*
X45000Y37666D02*
X45508Y38174D01*
X45500D02*
X46008Y37666D01*
X40992Y46008D02*
X41500Y45500D01*
X39800D02*
X41500D01*
X40992Y45000D02*
X41500Y45508D01*
X38250Y30932D02*
X38758Y30424D01*
X38250Y30924D02*
X38758Y31432D01*
X38250Y30924D02*
X45500D01*
Y30924D02*
Y38174D01*
D37*
X29700Y6100D02*
X29300D01*
X29500D01*
Y4900D01*
X29700D01*
X29300D01*
X27901D02*
X28700D01*
X27901Y5700D01*
Y5900D01*
X28101Y6100D01*
X28500D01*
X28700Y5900D01*
X26701D02*
X26901Y6100D01*
X27301D01*
X27501Y5900D01*
Y5100D01*
X27301Y4900D01*
X26901D01*
X26701Y5100D01*
X18529Y2500D02*
Y3700D01*
X17929D01*
X17729Y3500D01*
Y3100D01*
X17929Y2900D01*
X18529D01*
X16730Y3700D02*
X17130D01*
X17329Y3500D01*
Y2700D01*
X17130Y2500D01*
X16730D01*
X16530Y2700D01*
Y3500D01*
X16730Y3700D01*
X16130D02*
Y2500D01*
X15730Y2900D01*
X15330Y2500D01*
Y3700D01*
X14131D02*
X14930D01*
Y2500D01*
X14131D01*
X14930Y3100D02*
X14530D01*
X13731Y2500D02*
Y3700D01*
X13131D01*
X12931Y3500D01*
Y3100D01*
X13131Y2900D01*
X13731D01*
X13331D02*
X12931Y2500D01*
X12320Y8100D02*
X12520Y7900D01*
Y7500D01*
X12320Y7300D01*
X11520D01*
X11320Y7500D01*
Y7900D01*
X11520Y8100D01*
X11920D01*
Y7700D01*
X11320Y8500D02*
X12520D01*
X11320Y9299D01*
X12520D01*
Y9699D02*
X11320D01*
Y10299D01*
X11520Y10499D01*
X12320D01*
X12520Y10299D01*
Y9699D01*
X15060Y7300D02*
X14060D01*
X13860Y7500D01*
Y7900D01*
X14060Y8100D01*
X15060D01*
X14860Y9299D02*
X15060Y9099D01*
Y8700D01*
X14860Y8500D01*
X14660D01*
X14460Y8700D01*
Y9099D01*
X14260Y9299D01*
X14060D01*
X13860Y9099D01*
Y8700D01*
X14060Y8500D01*
X15060Y9699D02*
X13860D01*
Y10299D01*
X14060Y10499D01*
X14260D01*
X14460Y10299D01*
Y9699D01*
Y10299D01*
X14660Y10499D01*
X14860D01*
X15060Y10299D01*
Y9699D01*
X18940Y7300D02*
X20140D01*
X18940Y8100D01*
X20140D01*
X19940Y9299D02*
X20140Y9099D01*
Y8700D01*
X19940Y8500D01*
X19140D01*
X18940Y8700D01*
Y9099D01*
X19140Y9299D01*
X17000Y7300D02*
Y8100D01*
X17400Y7700D02*
X16600D01*
X17400Y8500D02*
X17600Y8700D01*
Y9099D01*
X17400Y9299D01*
X17200D01*
X17000Y9099D01*
Y8899D01*
Y9099D01*
X16800Y9299D01*
X16600D01*
X16400Y9099D01*
Y8700D01*
X16600Y8500D01*
X17600Y9699D02*
X16800D01*
X16400Y10099D01*
X16800Y10499D01*
X17600D01*
X17400Y10899D02*
X17600Y11099D01*
Y11499D01*
X17400Y11699D01*
X17200D01*
X17000Y11499D01*
Y11299D01*
Y11499D01*
X16800Y11699D01*
X16600D01*
X16400Y11499D01*
Y11099D01*
X16600Y10899D01*
X31860Y8100D02*
X32060Y7900D01*
Y7500D01*
X31860Y7300D01*
X31060D01*
X30860Y7500D01*
Y7900D01*
X31060Y8100D01*
X31460D01*
Y7700D01*
X30860Y8500D02*
X32060D01*
X30860Y9299D01*
X32060D01*
Y9699D02*
X30860D01*
Y10299D01*
X31060Y10499D01*
X31860D01*
X32060Y10299D01*
Y9699D01*
X34400Y8100D02*
X34600Y7900D01*
Y7500D01*
X34400Y7300D01*
X34200D01*
X34000Y7500D01*
Y7900D01*
X33800Y8100D01*
X33600D01*
X33400Y7900D01*
Y7500D01*
X33600Y7300D01*
X34400Y9299D02*
X34600Y9099D01*
Y8700D01*
X34400Y8500D01*
X33600D01*
X33400Y8700D01*
Y9099D01*
X33600Y9299D01*
X34600Y9699D02*
X33400D01*
Y10499D01*
X36940Y8100D02*
X37140Y7900D01*
Y7500D01*
X36940Y7300D01*
X36740D01*
X36540Y7500D01*
Y7900D01*
X36340Y8100D01*
X36140D01*
X35940Y7900D01*
Y7500D01*
X36140Y7300D01*
X37140Y8500D02*
X35940D01*
Y9099D01*
X36140Y9299D01*
X36940D01*
X37140Y9099D01*
Y8500D01*
X35940Y9699D02*
X36740D01*
X37140Y10099D01*
X36740Y10499D01*
X35940D01*
X36540D01*
Y9699D01*
D38*
X44750Y34674D02*
Y33474D01*
X44150D01*
X43950Y33674D01*
Y33874D01*
X44150Y34074D01*
X44750D01*
X44150D01*
X43950Y34274D01*
Y34474D01*
X44150Y34674D01*
X44750D01*
X43350Y33474D02*
X42951D01*
X42751Y33674D01*
Y34074D01*
X42951Y34274D01*
X43350D01*
X43550Y34074D01*
Y33674D01*
X43350Y33474D01*
X42151Y34274D02*
X41751D01*
X41551Y34074D01*
Y33474D01*
X42151D01*
X42351Y33674D01*
X42151Y33874D01*
X41551D01*
X41151Y34274D02*
Y33474D01*
Y33874D01*
X40951Y34074D01*
X40751Y34274D01*
X40551D01*
X39152Y34674D02*
Y33474D01*
X39752D01*
X39952Y33674D01*
Y34074D01*
X39752Y34274D01*
X39152D01*
X43275Y30424D02*
X44074D01*
Y29824D01*
X43674Y30024D01*
X43474D01*
X43275Y29824D01*
Y29424D01*
X43474Y29224D01*
X43874D01*
X44074Y29424D01*
X42875Y30224D02*
X42675Y30424D01*
X42275D01*
X42075Y30224D01*
Y29424D01*
X42275Y29224D01*
X42675D01*
X42875Y29424D01*
Y30224D01*
X41675Y29224D02*
Y30024D01*
X41475D01*
X41275Y29824D01*
Y29224D01*
Y29824D01*
X41075Y30024D01*
X40875Y29824D01*
Y29224D01*
X40475D02*
Y30024D01*
X40276D01*
X40076Y29824D01*
Y29224D01*
Y29824D01*
X39876Y30024D01*
X39676Y29824D01*
Y29224D01*
X44750Y32874D02*
Y31674D01*
X44150D01*
X43950Y31874D01*
Y32674D01*
X44150Y32874D01*
X44750D01*
X43550Y31674D02*
X43151D01*
X43350D01*
Y32474D01*
X43550D01*
X42551Y31674D02*
Y32474D01*
X42351D01*
X42151Y32274D01*
Y31674D01*
Y32274D01*
X41951Y32474D01*
X41751Y32274D01*
Y31674D01*
X47450Y32050D02*
Y31250D01*
X46850D01*
X47050Y31650D01*
Y31850D01*
X46850Y32050D01*
X46450D01*
X46250Y31850D01*
Y31450D01*
X46450Y31250D01*
X47250Y32450D02*
X47450Y32650D01*
Y33049D01*
X47250Y33249D01*
X46450D01*
X46250Y33049D01*
Y32650D01*
X46450Y32450D01*
X47250D01*
X46250Y33649D02*
X47050D01*
Y33849D01*
X46850Y34049D01*
X46250D01*
X46850D01*
X47050Y34249D01*
X46850Y34449D01*
X46250D01*
Y34849D02*
X47050D01*
Y35049D01*
X46850Y35249D01*
X46250D01*
X46850D01*
X47050Y35449D01*
X46850Y35649D01*
X46250D01*
X39250Y44900D02*
Y46100D01*
X38850Y45700D01*
X38450Y46100D01*
Y44900D01*
X38050Y45900D02*
X37850Y46100D01*
X37451D01*
X37251Y45900D01*
Y45700D01*
X37451Y45500D01*
X37651D01*
X37451D01*
X37251Y45300D01*
Y45100D01*
X37451Y44900D01*
X37850D01*
X38050Y45100D01*
%TF.MD5,da841c00328f646bc1c98342b785734f*%
M02*
