%TF.GenerationSoftware,Altium Limited,Altium Designer,25.2.1 (25)*%
G04 Layer_Physical_Order=2*
G04 Layer_Color=36540*
%FSLAX43Y43*%
%MOMM*%
%TF.SameCoordinates,04BFB8AD-8686-48F5-A47E-F6A4234CF6E9*%
%TF.FilePolarity,Positive*%
%TF.FileFunction,Copper,L2,Inr,Signal*%
%TF.Part,Single*%
G01*
G75*
%TA.AperFunction,ComponentPad*%
%ADD25C,6.000*%
%ADD26C,1.250*%
%ADD27C,2.750*%
%ADD28C,2.250*%
%ADD29C,1.725*%
%ADD30C,2.400*%
%ADD31R,2.100X2.100*%
%TA.AperFunction,ViaPad*%
%ADD32C,0.700*%
G36*
X46141Y49549D02*
X46767Y49399D01*
X47361Y49153D01*
X47910Y48817D01*
X48399Y48399D01*
X48817Y47910D01*
X49153Y47361D01*
X49399Y46767D01*
X49549Y46141D01*
X49598Y45528D01*
X49592Y45500D01*
Y4500D01*
X49598Y4472D01*
X49549Y3859D01*
X49399Y3233D01*
X49153Y2639D01*
X48817Y2090D01*
X48399Y1601D01*
X47910Y1183D01*
X47361Y847D01*
X46767Y601D01*
X46141Y451D01*
X45528Y402D01*
X45500Y408D01*
X4500D01*
X4472Y402D01*
X3859Y451D01*
X3233Y601D01*
X2639Y847D01*
X2090Y1183D01*
X1601Y1601D01*
X1183Y2090D01*
X847Y2639D01*
X601Y3233D01*
X451Y3859D01*
X402Y4472D01*
X408Y4500D01*
Y45500D01*
X402Y45528D01*
X451Y46141D01*
X601Y46767D01*
X847Y47361D01*
X1183Y47910D01*
X1601Y48399D01*
X2090Y48817D01*
X2639Y49153D01*
X3233Y49399D01*
X3859Y49549D01*
X4472Y49598D01*
X4500Y49592D01*
X45500D01*
X45528Y49598D01*
X46141Y49549D01*
D02*
G37*
%LPC*%
G36*
X26350Y46850D02*
X23650D01*
Y44150D01*
X26350D01*
Y46850D01*
D02*
G37*
G36*
X45760Y48800D02*
X45240D01*
X44727Y48719D01*
X44233Y48558D01*
X43770Y48322D01*
X43350Y48017D01*
X42983Y47650D01*
X42678Y47230D01*
X42442Y46767D01*
X42281Y46273D01*
X42200Y45760D01*
Y45240D01*
X42281Y44727D01*
X42442Y44233D01*
X42678Y43770D01*
X42983Y43350D01*
X43350Y42983D01*
X43770Y42678D01*
X44233Y42442D01*
X44727Y42281D01*
X45240Y42200D01*
X45760D01*
X46273Y42281D01*
X46767Y42442D01*
X47230Y42678D01*
X47650Y42983D01*
X48017Y43350D01*
X48322Y43770D01*
X48558Y44233D01*
X48719Y44727D01*
X48800Y45240D01*
Y45760D01*
X48719Y46273D01*
X48558Y46767D01*
X48322Y47230D01*
X48017Y47650D01*
X47650Y48017D01*
X47230Y48322D01*
X46767Y48558D01*
X46273Y48719D01*
X45760Y48800D01*
D02*
G37*
G36*
X4760D02*
X4240D01*
X3727Y48719D01*
X3233Y48558D01*
X2770Y48322D01*
X2350Y48017D01*
X1983Y47650D01*
X1678Y47230D01*
X1442Y46767D01*
X1281Y46273D01*
X1200Y45760D01*
Y45240D01*
X1281Y44727D01*
X1442Y44233D01*
X1678Y43770D01*
X1983Y43350D01*
X2350Y42983D01*
X2770Y42678D01*
X3233Y42442D01*
X3727Y42281D01*
X4240Y42200D01*
X4760D01*
X5273Y42281D01*
X5767Y42442D01*
X6230Y42678D01*
X6650Y42983D01*
X7017Y43350D01*
X7322Y43770D01*
X7558Y44233D01*
X7719Y44727D01*
X7800Y45240D01*
Y45760D01*
X7719Y46273D01*
X7558Y46767D01*
X7322Y47230D01*
X7017Y47650D01*
X6650Y48017D01*
X6230Y48322D01*
X5767Y48558D01*
X5273Y48719D01*
X4760Y48800D01*
D02*
G37*
G36*
X15261Y35975D02*
X15089D01*
X14924Y35931D01*
X14776Y35845D01*
X14655Y35724D01*
X14569Y35576D01*
X14525Y35411D01*
Y35239D01*
X14569Y35074D01*
X14655Y34926D01*
X14776Y34805D01*
X14924Y34719D01*
X15089Y34675D01*
X15261D01*
X15426Y34719D01*
X15574Y34805D01*
X15695Y34926D01*
X15781Y35074D01*
X15825Y35239D01*
Y35411D01*
X15781Y35576D01*
X15695Y35724D01*
X15574Y35845D01*
X15426Y35931D01*
X15261Y35975D01*
D02*
G37*
G36*
X22586Y34650D02*
X22414D01*
X22249Y34606D01*
X22101Y34520D01*
X21980Y34399D01*
X21894Y34251D01*
X21850Y34086D01*
Y33914D01*
X21894Y33749D01*
X21980Y33601D01*
X22101Y33480D01*
X22249Y33394D01*
X22414Y33350D01*
X22586D01*
X22751Y33394D01*
X22899Y33480D01*
X23020Y33601D01*
X23106Y33749D01*
X23150Y33914D01*
Y34086D01*
X23106Y34251D01*
X23020Y34399D01*
X22899Y34520D01*
X22751Y34606D01*
X22586Y34650D01*
D02*
G37*
G36*
X30086Y34150D02*
X29914D01*
X29749Y34106D01*
X29601Y34020D01*
X29480Y33899D01*
X29394Y33751D01*
X29350Y33586D01*
Y33414D01*
X29394Y33249D01*
X29480Y33101D01*
X29601Y32980D01*
X29749Y32894D01*
X29914Y32850D01*
X30086D01*
X30251Y32894D01*
X30399Y32980D01*
X30520Y33101D01*
X30606Y33249D01*
X30650Y33414D01*
Y33586D01*
X30606Y33751D01*
X30520Y33899D01*
X30399Y34020D01*
X30251Y34106D01*
X30086Y34150D01*
D02*
G37*
G36*
X28836Y31150D02*
X28664D01*
X28499Y31106D01*
X28351Y31020D01*
X28230Y30899D01*
X28144Y30751D01*
X28100Y30586D01*
Y30499D01*
X27973Y30446D01*
X27899Y30520D01*
X27751Y30606D01*
X27586Y30650D01*
X27414D01*
X27249Y30606D01*
X27101Y30520D01*
X26980Y30399D01*
X26894Y30251D01*
X26850Y30086D01*
Y29914D01*
X26894Y29749D01*
X26980Y29601D01*
X27101Y29480D01*
X27249Y29394D01*
X27414Y29350D01*
X27586D01*
X27751Y29394D01*
X27899Y29480D01*
X28020Y29601D01*
X28106Y29749D01*
X28150Y29914D01*
Y30001D01*
X28277Y30054D01*
X28351Y29980D01*
X28499Y29894D01*
X28664Y29850D01*
X28836D01*
X29001Y29894D01*
X29149Y29980D01*
X29270Y30101D01*
X29356Y30249D01*
X29400Y30414D01*
Y30586D01*
X29356Y30751D01*
X29270Y30899D01*
X29149Y31020D01*
X29001Y31106D01*
X28836Y31150D01*
D02*
G37*
G36*
X16836Y29150D02*
X16664D01*
X16499Y29106D01*
X16351Y29020D01*
X16230Y28899D01*
X16144Y28751D01*
X16100Y28586D01*
Y28414D01*
X16144Y28249D01*
X16230Y28101D01*
X16351Y27980D01*
X16499Y27894D01*
X16664Y27850D01*
X16836D01*
X17001Y27894D01*
X17149Y27980D01*
X17270Y28101D01*
X17356Y28249D01*
X17400Y28414D01*
Y28586D01*
X17356Y28751D01*
X17270Y28899D01*
X17149Y29020D01*
X17001Y29106D01*
X16836Y29150D01*
D02*
G37*
G36*
X27836Y28150D02*
X27664D01*
X27499Y28106D01*
X27351Y28020D01*
X27230Y27899D01*
X27144Y27751D01*
X27100Y27586D01*
Y27414D01*
X27144Y27249D01*
X27230Y27101D01*
X27351Y26980D01*
X27499Y26894D01*
X27664Y26850D01*
X27836D01*
X28001Y26894D01*
X28149Y26980D01*
X28270Y27101D01*
X28356Y27249D01*
X28400Y27414D01*
Y27586D01*
X28356Y27751D01*
X28270Y27899D01*
X28149Y28020D01*
X28001Y28106D01*
X27836Y28150D01*
D02*
G37*
G36*
X16836Y27650D02*
X16664D01*
X16499Y27606D01*
X16351Y27520D01*
X16230Y27399D01*
X16144Y27251D01*
X16100Y27086D01*
Y26914D01*
X16144Y26749D01*
X16230Y26601D01*
X16351Y26480D01*
X16499Y26394D01*
X16664Y26350D01*
X16836D01*
X17001Y26394D01*
X17149Y26480D01*
X17270Y26601D01*
X17356Y26749D01*
X17400Y26914D01*
Y27086D01*
X17356Y27251D01*
X17270Y27399D01*
X17149Y27520D01*
X17001Y27606D01*
X16836Y27650D01*
D02*
G37*
G36*
X8453Y25745D02*
X8077D01*
X7715Y25648D01*
X7390Y25460D01*
X7125Y25195D01*
X6937Y24870D01*
X6840Y24508D01*
Y24483D01*
X6713Y24409D01*
X6622Y24462D01*
X6387Y24525D01*
X6143D01*
X5908Y24462D01*
X5697Y24340D01*
X5525Y24168D01*
X5403Y23957D01*
X5340Y23722D01*
Y23478D01*
X5403Y23243D01*
X5525Y23032D01*
X5697Y22860D01*
X5908Y22738D01*
X6143Y22675D01*
X6387D01*
X6622Y22738D01*
X6833Y22860D01*
X7005Y23032D01*
X7127Y23243D01*
X7136Y23278D01*
X7259Y23311D01*
X7390Y23180D01*
X7715Y22992D01*
X8077Y22895D01*
X8453D01*
X8815Y22992D01*
X9140Y23180D01*
X9405Y23445D01*
X9593Y23770D01*
X9690Y24132D01*
Y24508D01*
X9593Y24870D01*
X9405Y25195D01*
X9140Y25460D01*
X8815Y25648D01*
X8453Y25745D01*
D02*
G37*
G36*
X28836Y25150D02*
X28664D01*
X28499Y25106D01*
X28351Y25020D01*
X28230Y24899D01*
X28144Y24751D01*
X28100Y24586D01*
Y24414D01*
X28144Y24249D01*
X28230Y24101D01*
X28351Y23980D01*
X28499Y23894D01*
X28664Y23850D01*
X28836D01*
X29001Y23894D01*
X29149Y23980D01*
X29270Y24101D01*
X29356Y24249D01*
X29400Y24414D01*
Y24586D01*
X29356Y24751D01*
X29270Y24899D01*
X29149Y25020D01*
X29001Y25106D01*
X28836Y25150D01*
D02*
G37*
G36*
X16836Y25900D02*
X16664D01*
X16499Y25856D01*
X16351Y25770D01*
X16230Y25649D01*
X16144Y25501D01*
X16100Y25336D01*
Y25164D01*
X16144Y24999D01*
X16230Y24851D01*
X16331Y24750D01*
X16230Y24649D01*
X16144Y24501D01*
X16100Y24336D01*
Y24164D01*
X16144Y23999D01*
X16230Y23851D01*
X16351Y23730D01*
X16499Y23644D01*
X16664Y23600D01*
X16836D01*
X17001Y23644D01*
X17149Y23730D01*
X17270Y23851D01*
X17356Y23999D01*
X17400Y24164D01*
Y24336D01*
X17356Y24501D01*
X17270Y24649D01*
X17169Y24750D01*
X17270Y24851D01*
X17356Y24999D01*
X17400Y25164D01*
Y25336D01*
X17356Y25501D01*
X17270Y25649D01*
X17149Y25770D01*
X17001Y25856D01*
X16836Y25900D01*
D02*
G37*
G36*
X12836D02*
X12664D01*
X12499Y25856D01*
X12351Y25770D01*
X12230Y25649D01*
X12144Y25501D01*
X12100Y25336D01*
Y25164D01*
X12144Y24999D01*
X12230Y24851D01*
X12331Y24750D01*
X12230Y24649D01*
X12144Y24501D01*
X12100Y24336D01*
Y24164D01*
X12144Y23999D01*
X12230Y23851D01*
X12351Y23730D01*
X12499Y23644D01*
X12664Y23600D01*
X12836D01*
X13001Y23644D01*
X13149Y23730D01*
X13270Y23851D01*
X13356Y23999D01*
X13400Y24164D01*
Y24336D01*
X13356Y24501D01*
X13270Y24649D01*
X13169Y24750D01*
X13270Y24851D01*
X13356Y24999D01*
X13400Y25164D01*
Y25336D01*
X13356Y25501D01*
X13270Y25649D01*
X13149Y25770D01*
X13001Y25856D01*
X12836Y25900D01*
D02*
G37*
G36*
X3380Y25995D02*
X3050D01*
X2726Y25931D01*
X2422Y25804D01*
X2147Y25621D01*
X1914Y25388D01*
X1731Y25113D01*
X1604Y24809D01*
X1540Y24485D01*
Y24155D01*
X1604Y23831D01*
X1731Y23527D01*
X1914Y23252D01*
X2147Y23019D01*
X2422Y22836D01*
X2726Y22709D01*
X3050Y22645D01*
X3380D01*
X3704Y22709D01*
X4008Y22836D01*
X4283Y23019D01*
X4516Y23252D01*
X4699Y23527D01*
X4826Y23831D01*
X4890Y24155D01*
Y24485D01*
X4826Y24809D01*
X4699Y25113D01*
X4516Y25388D01*
X4283Y25621D01*
X4008Y25804D01*
X3704Y25931D01*
X3380Y25995D01*
D02*
G37*
G36*
X20586Y22650D02*
X20414D01*
X20249Y22606D01*
X20101Y22520D01*
X20000Y22419D01*
X19899Y22520D01*
X19751Y22606D01*
X19586Y22650D01*
X19414D01*
X19249Y22606D01*
X19101Y22520D01*
X18980Y22399D01*
X18894Y22251D01*
X18850Y22086D01*
Y21914D01*
X18894Y21749D01*
X18980Y21601D01*
X19101Y21480D01*
X19249Y21394D01*
X19414Y21350D01*
X19586D01*
X19751Y21394D01*
X19899Y21480D01*
X20000Y21581D01*
X20101Y21480D01*
X20249Y21394D01*
X20414Y21350D01*
X20586D01*
X20751Y21394D01*
X20899Y21480D01*
X21020Y21601D01*
X21106Y21749D01*
X21150Y21914D01*
Y22086D01*
X21106Y22251D01*
X21020Y22399D01*
X20899Y22520D01*
X20751Y22606D01*
X20586Y22650D01*
D02*
G37*
G36*
X16836Y23150D02*
X16664D01*
X16499Y23106D01*
X16351Y23020D01*
X16230Y22899D01*
X16144Y22751D01*
X16100Y22586D01*
Y22414D01*
X16144Y22249D01*
X16230Y22101D01*
X16351Y21980D01*
X16499Y21894D01*
X16664Y21850D01*
X16836D01*
X17001Y21894D01*
X17149Y21980D01*
X17270Y22101D01*
X17356Y22249D01*
X17400Y22414D01*
Y22586D01*
X17356Y22751D01*
X17270Y22899D01*
X17149Y23020D01*
X17001Y23106D01*
X16836Y23150D01*
D02*
G37*
G36*
X4336Y22400D02*
X4164D01*
X3999Y22356D01*
X3851Y22270D01*
X3730Y22149D01*
X3644Y22001D01*
X3600Y21836D01*
Y21664D01*
X3644Y21499D01*
X3730Y21351D01*
X3851Y21230D01*
X3999Y21144D01*
X4164Y21100D01*
X4336D01*
X4501Y21144D01*
X4649Y21230D01*
X4770Y21351D01*
X4856Y21499D01*
X4900Y21664D01*
Y21836D01*
X4856Y22001D01*
X4770Y22149D01*
X4649Y22270D01*
X4501Y22356D01*
X4336Y22400D01*
D02*
G37*
G36*
X25336Y21900D02*
X25164D01*
X24999Y21856D01*
X24851Y21770D01*
X24730Y21649D01*
X24644Y21501D01*
X24600Y21336D01*
Y21164D01*
X24644Y20999D01*
X24730Y20851D01*
X24851Y20730D01*
X24999Y20644D01*
X25164Y20600D01*
X25336D01*
X25501Y20644D01*
X25649Y20730D01*
X25770Y20851D01*
X25856Y20999D01*
X25900Y21164D01*
Y21336D01*
X25856Y21501D01*
X25770Y21649D01*
X25649Y21770D01*
X25501Y21856D01*
X25336Y21900D01*
D02*
G37*
G36*
X22586D02*
X22414D01*
X22249Y21856D01*
X22101Y21770D01*
X21980Y21649D01*
X21894Y21501D01*
X21850Y21336D01*
Y21164D01*
X21894Y20999D01*
X21980Y20851D01*
X22101Y20730D01*
X22249Y20644D01*
X22414Y20600D01*
X22586D01*
X22751Y20644D01*
X22899Y20730D01*
X23020Y20851D01*
X23106Y20999D01*
X23150Y21164D01*
Y21336D01*
X23106Y21501D01*
X23020Y21649D01*
X22899Y21770D01*
X22751Y21856D01*
X22586Y21900D01*
D02*
G37*
G36*
X6086Y21400D02*
X5914D01*
X5749Y21356D01*
X5601Y21270D01*
X5480Y21149D01*
X5394Y21001D01*
X5350Y20836D01*
Y20664D01*
X5394Y20499D01*
X5480Y20351D01*
X5581Y20250D01*
X5480Y20149D01*
X5394Y20001D01*
X5350Y19836D01*
Y19664D01*
X5394Y19499D01*
X5480Y19351D01*
X5601Y19230D01*
X5749Y19144D01*
X5914Y19100D01*
X6086D01*
X6251Y19144D01*
X6399Y19230D01*
X6520Y19351D01*
X6606Y19499D01*
X6650Y19664D01*
Y19836D01*
X6606Y20001D01*
X6520Y20149D01*
X6419Y20250D01*
X6520Y20351D01*
X6606Y20499D01*
X6650Y20664D01*
Y20836D01*
X6606Y21001D01*
X6520Y21149D01*
X6399Y21270D01*
X6251Y21356D01*
X6086Y21400D01*
D02*
G37*
G36*
X28086Y19650D02*
X27914D01*
X27749Y19606D01*
X27601Y19520D01*
X27480Y19399D01*
X27394Y19251D01*
X27350Y19086D01*
Y18914D01*
X27394Y18749D01*
X27480Y18601D01*
X27601Y18480D01*
X27749Y18394D01*
X27914Y18350D01*
X28086D01*
X28251Y18394D01*
X28399Y18480D01*
X28520Y18601D01*
X28606Y18749D01*
X28650Y18914D01*
Y19086D01*
X28606Y19251D01*
X28520Y19399D01*
X28399Y19520D01*
X28251Y19606D01*
X28086Y19650D01*
D02*
G37*
G36*
X20836D02*
X20664D01*
X20499Y19606D01*
X20351Y19520D01*
X20230Y19399D01*
X20144Y19251D01*
X20100Y19086D01*
Y18914D01*
X20144Y18749D01*
X20230Y18601D01*
X20351Y18480D01*
X20499Y18394D01*
X20664Y18350D01*
X20836D01*
X21001Y18394D01*
X21149Y18480D01*
X21270Y18601D01*
X21356Y18749D01*
X21400Y18914D01*
Y19086D01*
X21356Y19251D01*
X21270Y19399D01*
X21149Y19520D01*
X21001Y19606D01*
X20836Y19650D01*
D02*
G37*
G36*
X10586Y22150D02*
X10414D01*
X10249Y22106D01*
X10101Y22020D01*
X9980Y21899D01*
X9894Y21751D01*
X9850Y21586D01*
Y21414D01*
X9894Y21249D01*
X9980Y21101D01*
X10081Y21000D01*
X9980Y20899D01*
X9894Y20751D01*
X9850Y20586D01*
Y20414D01*
X9894Y20249D01*
X9980Y20101D01*
X10081Y20000D01*
X9980Y19899D01*
X9894Y19751D01*
X9850Y19586D01*
Y19414D01*
X9894Y19249D01*
X9980Y19101D01*
X10081Y19000D01*
X9980Y18899D01*
X9894Y18751D01*
X9850Y18586D01*
Y18414D01*
X9894Y18249D01*
X9980Y18101D01*
X10101Y17980D01*
X10249Y17894D01*
X10414Y17850D01*
X10586D01*
X10751Y17894D01*
X10899Y17980D01*
X11020Y18101D01*
X11106Y18249D01*
X11150Y18414D01*
Y18586D01*
X11106Y18751D01*
X11020Y18899D01*
X10919Y19000D01*
X11020Y19101D01*
X11106Y19249D01*
X11150Y19414D01*
Y19586D01*
X11106Y19751D01*
X11020Y19899D01*
X10919Y20000D01*
X11020Y20101D01*
X11106Y20249D01*
X11150Y20414D01*
Y20586D01*
X11106Y20751D01*
X11020Y20899D01*
X10919Y21000D01*
X11020Y21101D01*
X11106Y21249D01*
X11150Y21414D01*
Y21586D01*
X11106Y21751D01*
X11020Y21899D01*
X10899Y22020D01*
X10751Y22106D01*
X10586Y22150D01*
D02*
G37*
G36*
X24836Y18150D02*
X24664D01*
X24499Y18106D01*
X24351Y18020D01*
X24230Y17899D01*
X24144Y17751D01*
X24100Y17586D01*
Y17414D01*
X24144Y17249D01*
X24230Y17101D01*
X24351Y16980D01*
X24499Y16894D01*
X24664Y16850D01*
X24836D01*
X25001Y16894D01*
X25149Y16980D01*
X25270Y17101D01*
X25356Y17249D01*
X25400Y17414D01*
Y17586D01*
X25356Y17751D01*
X25270Y17899D01*
X25149Y18020D01*
X25001Y18106D01*
X24836Y18150D01*
D02*
G37*
G36*
X20836D02*
X20664D01*
X20499Y18106D01*
X20351Y18020D01*
X20230Y17899D01*
X20144Y17751D01*
X20100Y17586D01*
Y17414D01*
X20144Y17249D01*
X20230Y17101D01*
X20351Y16980D01*
X20499Y16894D01*
X20664Y16850D01*
X20836D01*
X21001Y16894D01*
X21149Y16980D01*
X21270Y17101D01*
X21356Y17249D01*
X21400Y17414D01*
Y17586D01*
X21356Y17751D01*
X21270Y17899D01*
X21149Y18020D01*
X21001Y18106D01*
X20836Y18150D01*
D02*
G37*
G36*
X6452Y17325D02*
X6208D01*
X5973Y17262D01*
X5762Y17140D01*
X5590Y16968D01*
X5468Y16757D01*
X5405Y16522D01*
Y16278D01*
X5468Y16043D01*
X5590Y15832D01*
X5762Y15660D01*
X5973Y15538D01*
X6208Y15475D01*
X6452D01*
X6687Y15538D01*
X6730Y15563D01*
X6822Y15510D01*
X6843Y15481D01*
X6937Y15130D01*
X7125Y14805D01*
X7390Y14540D01*
X7715Y14352D01*
X8077Y14255D01*
X8453D01*
X8815Y14352D01*
X9140Y14540D01*
X9405Y14805D01*
X9593Y15130D01*
X9690Y15492D01*
Y15868D01*
X9593Y16230D01*
X9405Y16555D01*
X9140Y16820D01*
X8815Y17008D01*
X8453Y17105D01*
X8077D01*
X7715Y17008D01*
X7390Y16820D01*
X7312Y16742D01*
X7176Y16785D01*
X7070Y16968D01*
X6898Y17140D01*
X6687Y17262D01*
X6452Y17325D01*
D02*
G37*
G36*
X3380Y17355D02*
X3050D01*
X2726Y17291D01*
X2422Y17164D01*
X2147Y16981D01*
X1914Y16748D01*
X1731Y16473D01*
X1604Y16169D01*
X1540Y15845D01*
Y15515D01*
X1604Y15191D01*
X1731Y14887D01*
X1914Y14612D01*
X2147Y14379D01*
X2422Y14196D01*
X2726Y14069D01*
X3050Y14005D01*
X3380D01*
X3704Y14069D01*
X4008Y14196D01*
X4283Y14379D01*
X4516Y14612D01*
X4699Y14887D01*
X4826Y15191D01*
X4890Y15515D01*
Y15845D01*
X4826Y16169D01*
X4699Y16473D01*
X4516Y16748D01*
X4283Y16981D01*
X4008Y17164D01*
X3704Y17291D01*
X3380Y17355D01*
D02*
G37*
G36*
X36693Y6662D02*
X36387D01*
X36091Y6583D01*
X35826Y6430D01*
X35610Y6214D01*
X35457Y5949D01*
X35377Y5653D01*
Y5347D01*
X35457Y5051D01*
X35610Y4786D01*
X35826Y4570D01*
X36091Y4417D01*
X36387Y4338D01*
X36693D01*
X36989Y4417D01*
X37254Y4570D01*
X37470Y4786D01*
X37623Y5051D01*
X37702Y5347D01*
Y5653D01*
X37623Y5949D01*
X37470Y6214D01*
X37254Y6430D01*
X36989Y6583D01*
X36693Y6662D01*
D02*
G37*
G36*
X34153D02*
X33847D01*
X33551Y6583D01*
X33286Y6430D01*
X33070Y6214D01*
X32917Y5949D01*
X32838Y5653D01*
Y5347D01*
X32917Y5051D01*
X33070Y4786D01*
X33286Y4570D01*
X33551Y4417D01*
X33847Y4338D01*
X34153D01*
X34449Y4417D01*
X34714Y4570D01*
X34930Y4786D01*
X35083Y5051D01*
X35162Y5347D01*
Y5653D01*
X35083Y5949D01*
X34930Y6214D01*
X34714Y6430D01*
X34449Y6583D01*
X34153Y6662D01*
D02*
G37*
G36*
X19693D02*
X19387D01*
X19091Y6583D01*
X18826Y6430D01*
X18610Y6214D01*
X18457Y5949D01*
X18378Y5653D01*
Y5347D01*
X18457Y5051D01*
X18610Y4786D01*
X18826Y4570D01*
X19091Y4417D01*
X19387Y4338D01*
X19693D01*
X19989Y4417D01*
X20254Y4570D01*
X20470Y4786D01*
X20623Y5051D01*
X20702Y5347D01*
Y5653D01*
X20623Y5949D01*
X20470Y6214D01*
X20254Y6430D01*
X19989Y6583D01*
X19693Y6662D01*
D02*
G37*
G36*
X17153D02*
X16847D01*
X16551Y6583D01*
X16286Y6430D01*
X16070Y6214D01*
X15917Y5949D01*
X15837Y5653D01*
Y5347D01*
X15917Y5051D01*
X16070Y4786D01*
X16286Y4570D01*
X16551Y4417D01*
X16847Y4338D01*
X17153D01*
X17449Y4417D01*
X17714Y4570D01*
X17930Y4786D01*
X18083Y5051D01*
X18163Y5347D01*
Y5653D01*
X18083Y5949D01*
X17930Y6214D01*
X17714Y6430D01*
X17449Y6583D01*
X17153Y6662D01*
D02*
G37*
G36*
X14613D02*
X14307D01*
X14011Y6583D01*
X13746Y6430D01*
X13530Y6214D01*
X13377Y5949D01*
X13297Y5653D01*
Y5347D01*
X13377Y5051D01*
X13530Y4786D01*
X13746Y4570D01*
X14011Y4417D01*
X14307Y4338D01*
X14613D01*
X14909Y4417D01*
X15174Y4570D01*
X15390Y4786D01*
X15543Y5051D01*
X15623Y5347D01*
Y5653D01*
X15543Y5949D01*
X15390Y6214D01*
X15174Y6430D01*
X14909Y6583D01*
X14613Y6662D01*
D02*
G37*
G36*
X45760Y7800D02*
X45240D01*
X44727Y7719D01*
X44233Y7558D01*
X43770Y7322D01*
X43350Y7017D01*
X42983Y6650D01*
X42678Y6230D01*
X42442Y5767D01*
X42281Y5273D01*
X42200Y4760D01*
Y4240D01*
X42281Y3727D01*
X42442Y3233D01*
X42678Y2770D01*
X42983Y2350D01*
X43350Y1983D01*
X43770Y1678D01*
X44233Y1442D01*
X44727Y1281D01*
X45240Y1200D01*
X45760D01*
X46273Y1281D01*
X46767Y1442D01*
X47230Y1678D01*
X47650Y1983D01*
X48017Y2350D01*
X48322Y2770D01*
X48558Y3233D01*
X48719Y3727D01*
X48800Y4240D01*
Y4760D01*
X48719Y5273D01*
X48558Y5767D01*
X48322Y6230D01*
X48017Y6650D01*
X47650Y7017D01*
X47230Y7322D01*
X46767Y7558D01*
X46273Y7719D01*
X45760Y7800D01*
D02*
G37*
G36*
X4760D02*
X4240D01*
X3727Y7719D01*
X3233Y7558D01*
X2770Y7322D01*
X2350Y7017D01*
X1983Y6650D01*
X1678Y6230D01*
X1442Y5767D01*
X1281Y5273D01*
X1200Y4760D01*
Y4240D01*
X1281Y3727D01*
X1442Y3233D01*
X1678Y2770D01*
X1983Y2350D01*
X2350Y1983D01*
X2770Y1678D01*
X3233Y1442D01*
X3727Y1281D01*
X4240Y1200D01*
X4760D01*
X5273Y1281D01*
X5767Y1442D01*
X6230Y1678D01*
X6650Y1983D01*
X7017Y2350D01*
X7322Y2770D01*
X7558Y3233D01*
X7719Y3727D01*
X7800Y4240D01*
Y4760D01*
X7719Y5273D01*
X7558Y5767D01*
X7322Y6230D01*
X7017Y6650D01*
X6650Y7017D01*
X6230Y7322D01*
X5767Y7558D01*
X5273Y7719D01*
X4760Y7800D01*
D02*
G37*
%LPD*%
D25*
X45500Y45500D02*
D03*
Y4500D02*
D03*
X4500D02*
D03*
Y45500D02*
D03*
D26*
X6265Y23600D02*
D03*
X6330Y16400D02*
D03*
D27*
X3215Y15680D02*
D03*
Y24320D02*
D03*
D28*
X8265Y15680D02*
D03*
Y24320D02*
D03*
D29*
X31460Y5500D02*
D03*
X34000D02*
D03*
X36540D02*
D03*
X11920D02*
D03*
X14460D02*
D03*
X17000D02*
D03*
X19540D02*
D03*
D30*
X22425Y48075D02*
D03*
X27575D02*
D03*
Y42925D02*
D03*
X22425D02*
D03*
D31*
X25000Y45500D02*
D03*
D32*
X34500Y30750D02*
D03*
X22800Y26750D02*
D03*
Y29250D02*
D03*
X30000Y33500D02*
D03*
X22500Y38000D02*
D03*
X27675Y35500D02*
D03*
Y39500D02*
D03*
X15175Y36675D02*
D03*
Y35325D02*
D03*
X22500Y34000D02*
D03*
X31000Y17500D02*
D03*
X31500Y33500D02*
D03*
X32750Y24500D02*
D03*
X16750Y15000D02*
D03*
Y19250D02*
D03*
X12750Y22750D02*
D03*
Y28500D02*
D03*
X45500Y13250D02*
D03*
X27500Y30000D02*
D03*
X10500Y21500D02*
D03*
X4250Y21750D02*
D03*
X10500Y22500D02*
D03*
Y17000D02*
D03*
Y18500D02*
D03*
X6000Y19750D02*
D03*
Y20750D02*
D03*
X10500Y19500D02*
D03*
Y20500D02*
D03*
X16750Y22500D02*
D03*
X12750Y25250D02*
D03*
Y24250D02*
D03*
X16750D02*
D03*
Y25250D02*
D03*
X28000Y19000D02*
D03*
X24750Y17500D02*
D03*
X20750Y19000D02*
D03*
Y17500D02*
D03*
X22500Y21250D02*
D03*
X20500Y22000D02*
D03*
X25250Y21250D02*
D03*
X19500Y22000D02*
D03*
X16750Y27000D02*
D03*
Y28500D02*
D03*
X22800Y28000D02*
D03*
X27750Y27500D02*
D03*
X28750Y30500D02*
D03*
Y24500D02*
D03*
%TF.MD5,3f23293e4ba22aae7f8a80dc09d88862*%
M02*
