%TF.GenerationSoftware,Altium Limited,Altium Designer,25.2.1 (25)*%
G04 Layer_Color=128*
%FSLAX43Y43*%
%MOMM*%
%TF.SameCoordinates,04BFB8AD-8686-48F5-A47E-F6A4234CF6E9*%
%TF.FilePolarity,Positive*%
%TF.FileFunction,Paste,Bot*%
%TF.Part,Single*%
G01*
G75*
%TA.AperFunction,SMDPad,CuDef*%
%ADD18R,0.650X0.700*%
%ADD19R,0.700X0.650*%
D18*
X12925Y21500D02*
D03*
X11575D02*
D03*
X3175Y21750D02*
D03*
X1825D02*
D03*
X15425Y22500D02*
D03*
X14075D02*
D03*
Y25500D02*
D03*
X15425D02*
D03*
X14075Y24000D02*
D03*
X15425D02*
D03*
X30075Y27500D02*
D03*
X31425D02*
D03*
X30075Y29000D02*
D03*
X31425D02*
D03*
X30075Y24500D02*
D03*
X31425D02*
D03*
X15425Y28500D02*
D03*
X14075D02*
D03*
X31425Y30500D02*
D03*
X30075D02*
D03*
X14075Y27000D02*
D03*
X15425D02*
D03*
X30075Y32000D02*
D03*
X31425D02*
D03*
X30075Y26000D02*
D03*
X31425D02*
D03*
D19*
X36540Y3175D02*
D03*
Y1825D02*
D03*
X34000Y3175D02*
D03*
Y1825D02*
D03*
X18000Y20675D02*
D03*
Y19325D02*
D03*
X19500Y20675D02*
D03*
Y19325D02*
D03*
X29250Y18925D02*
D03*
Y17575D02*
D03*
X21000Y36675D02*
D03*
Y35325D02*
D03*
X22500D02*
D03*
Y36675D02*
D03*
X16500Y35325D02*
D03*
Y36675D02*
D03*
X19500Y35325D02*
D03*
Y36675D02*
D03*
X18000Y35325D02*
D03*
Y36675D02*
D03*
%TF.MD5,db0355e8837a4f1a300ac6c7efd9f338*%
M02*
