%TF.GenerationSoftware,Altium Limited,Altium Designer,25.2.1 (25)*%
G04 Layer_Color=0*
%FSLAX43Y43*%
%MOMM*%
%TF.SameCoordinates,04BFB8AD-8686-48F5-A47E-F6A4234CF6E9*%
%TF.FilePolarity,Positive*%
%TF.FileFunction,Plated,1,4,PTH,Drill*%
%TF.Part,Single*%
G01*
G75*
%TA.AperFunction,ComponentDrill*%
%ADD59C,3.500*%
%ADD60C,0.750*%
%ADD61C,1.750*%
%ADD62C,1.500*%
%ADD63C,1.150*%
%ADD64C,1.600*%
%ADD65C,1.400*%
%TA.AperFunction,ViaDrill,NotFilled*%
%ADD66C,0.300*%
D59*
X45500Y45500D02*
D03*
Y4500D02*
D03*
X4500D02*
D03*
Y45500D02*
D03*
D60*
X6265Y23600D02*
D03*
X6330Y16400D02*
D03*
D61*
X3215Y15680D02*
D03*
Y24320D02*
D03*
D62*
X8265Y15680D02*
D03*
Y24320D02*
D03*
D63*
X31460Y5500D02*
D03*
X34000D02*
D03*
X36540D02*
D03*
X11920D02*
D03*
X14460D02*
D03*
X17000D02*
D03*
X19540D02*
D03*
D64*
X22425Y48075D02*
D03*
X27575D02*
D03*
Y42925D02*
D03*
X22425D02*
D03*
D65*
X25000Y45500D02*
D03*
D66*
X34500Y30750D02*
D03*
X22800Y26750D02*
D03*
Y29250D02*
D03*
X30000Y33500D02*
D03*
X22500Y38000D02*
D03*
X27675Y35500D02*
D03*
Y39500D02*
D03*
X15175Y36675D02*
D03*
Y35325D02*
D03*
X22500Y34000D02*
D03*
X31000Y17500D02*
D03*
X31500Y33500D02*
D03*
X32750Y24500D02*
D03*
X16750Y15000D02*
D03*
Y19250D02*
D03*
X12750Y22750D02*
D03*
Y28500D02*
D03*
X45500Y13250D02*
D03*
X27500Y30000D02*
D03*
X10500Y21500D02*
D03*
X4250Y21750D02*
D03*
X10500Y22500D02*
D03*
Y17000D02*
D03*
Y18500D02*
D03*
X6000Y19750D02*
D03*
Y20750D02*
D03*
X10500Y19500D02*
D03*
Y20500D02*
D03*
X16750Y22500D02*
D03*
X12750Y25250D02*
D03*
Y24250D02*
D03*
X16750D02*
D03*
Y25250D02*
D03*
X28000Y19000D02*
D03*
X24750Y17500D02*
D03*
X20750Y19000D02*
D03*
Y17500D02*
D03*
X22500Y21250D02*
D03*
X20500Y22000D02*
D03*
X25250Y21250D02*
D03*
X19500Y22000D02*
D03*
X16750Y27000D02*
D03*
Y28500D02*
D03*
X22800Y28000D02*
D03*
X27750Y27500D02*
D03*
X28750Y30500D02*
D03*
Y24500D02*
D03*
%TF.MD5,88dbf2d6e93844667fddddea47d5498b*%
M02*
