%TF.GenerationSoftware,Altium Limited,Altium Designer,24.9.1 (31)*%
G04 Layer_Color=65535*
%FSLAX43Y43*%
%MOMM*%
%TF.SameCoordinates,7C648C20-2248-456C-8B3D-9A73573407F1*%
%TF.FilePolarity,Positive*%
%TF.FileFunction,Legend,Top*%
%TF.Part,Single*%
G01*
G75*
%TA.AperFunction,NonConductor*%
%ADD21C,0.240*%
%ADD22C,0.600*%
%ADD23C,0.100*%
%ADD24C,0.200*%
%ADD25C,0.127*%
%ADD26C,0.254*%
%ADD27C,0.152*%
%ADD28C,0.203*%
G36*
X131139Y28653D02*
X131161Y28645D01*
X131259Y28601D01*
X131300Y28589D01*
X131341Y28563D01*
X131364Y28541D01*
X131379Y28533D01*
X131442Y28484D01*
X131450Y28470D01*
X131468Y28451D01*
X131483Y28443D01*
X131495Y28432D01*
X131502Y28417D01*
X131540Y28365D01*
X131562Y28342D01*
X131603Y28226D01*
X131614Y28215D01*
X131637Y28140D01*
X131644Y28020D01*
X131637Y25437D01*
X131622Y25400D01*
X131584Y25318D01*
X131558Y25247D01*
X131517Y25205D01*
X131487Y25153D01*
X131476Y25142D01*
X131461Y25134D01*
X131435Y25108D01*
X131427Y25093D01*
X131416Y25082D01*
X131401Y25074D01*
X131349Y25037D01*
X131326Y25014D01*
X131289Y24999D01*
X131259Y24992D01*
X131176Y24955D01*
X131124Y24940D01*
X131049Y24932D01*
X127980D01*
X127268Y24940D01*
X127231Y24955D01*
X127149Y24992D01*
X127107Y25003D01*
X127066Y25029D01*
X127044Y25052D01*
X127029Y25059D01*
X126973Y25101D01*
X126965Y25116D01*
X126939Y25142D01*
X126924Y25149D01*
X126894Y25194D01*
X126857Y25239D01*
X126845Y25250D01*
X126812Y25344D01*
X126778Y25422D01*
X126771Y25452D01*
X126763Y25595D01*
X126771Y28155D01*
X126786Y28193D01*
X126823Y28275D01*
X126849Y28346D01*
X126883Y28380D01*
X126890Y28395D01*
X126939Y28458D01*
X126954Y28466D01*
X126973Y28484D01*
X126980Y28499D01*
X126991Y28511D01*
X127006Y28518D01*
X127074Y28571D01*
X127141Y28601D01*
X127190Y28619D01*
X127268Y28653D01*
X127366Y28660D01*
X131139Y28653D01*
D02*
G37*
%LPC*%
G36*
X131027Y28376D02*
X127313Y28368D01*
X127246Y28331D01*
X127152Y28267D01*
X127137Y28252D01*
X127130Y28237D01*
X127100Y28193D01*
X127093Y28178D01*
X127063Y28133D01*
X127055Y28080D01*
X127048Y27960D01*
X127055Y25482D01*
X127093Y25415D01*
X127122Y25370D01*
X127130Y25355D01*
X127164Y25314D01*
X127216Y25276D01*
X127268Y25247D01*
X127321Y25224D01*
X127396Y25217D01*
X131094Y25224D01*
X131199Y25284D01*
X131263Y25333D01*
X131270Y25348D01*
X131285Y25363D01*
X131322Y25430D01*
X131345Y25467D01*
X131352Y25520D01*
X131360Y25640D01*
X131352Y28110D01*
X131322Y28163D01*
X131293Y28207D01*
X131270Y28245D01*
X131236Y28286D01*
X131221Y28294D01*
X131176Y28324D01*
X131161Y28331D01*
X131158Y28335D01*
X131109Y28361D01*
X131079Y28368D01*
X131027Y28376D01*
D02*
G37*
%LPD*%
G36*
X129395Y28159D02*
X129762Y28151D01*
X129773Y28140D01*
X129780Y28110D01*
X129773Y28035D01*
X129762Y28024D01*
X129732Y28017D01*
X129466Y28020D01*
X129428Y28005D01*
X129413Y27968D01*
X129421Y27826D01*
X129417Y27238D01*
X129432Y27201D01*
X129462Y27193D01*
X129477Y27201D01*
X129503Y27227D01*
X129511Y27242D01*
X129544Y27283D01*
X130057Y27796D01*
X130065Y27811D01*
X130091Y27837D01*
X130128Y27829D01*
X130155Y27803D01*
X130192Y27721D01*
X130207Y27661D01*
X130226Y27575D01*
X130259Y27511D01*
X130274Y27459D01*
X130282Y27406D01*
X130297Y27339D01*
X130327Y27309D01*
X130349Y27257D01*
X130357Y27182D01*
X130368Y27126D01*
X130394Y27084D01*
X130424Y27017D01*
X130432Y26942D01*
X130439Y26897D01*
X130484Y26830D01*
X130499Y26778D01*
X130506Y26688D01*
X130536Y26635D01*
X130551Y26620D01*
X130566Y26583D01*
X130574Y26508D01*
X130585Y26444D01*
X130596Y26433D01*
X130604Y26418D01*
X130619Y26403D01*
X130641Y26351D01*
X130652Y26242D01*
X130667Y26205D01*
X130694Y26179D01*
X130709Y26141D01*
X130727Y26010D01*
X130753Y25969D01*
X130783Y25902D01*
X130802Y25868D01*
X130832Y25860D01*
X131090Y25864D01*
X131120Y25857D01*
X131143Y25834D01*
X131150Y25774D01*
X131124Y25726D01*
X131094Y25718D01*
X130585Y25726D01*
X130574Y25737D01*
X130566Y25767D01*
X130574Y25842D01*
X130593Y25860D01*
X130682Y25868D01*
X130701Y25887D01*
X130709Y25932D01*
X130690Y25965D01*
X130675Y25973D01*
X130656Y25991D01*
X130641Y26051D01*
X130634Y26104D01*
X130626Y26171D01*
X130611Y26186D01*
X130604Y26201D01*
X130589Y26216D01*
X130574Y26253D01*
X130559Y26358D01*
X130551Y26396D01*
X130514Y26448D01*
X130499Y26501D01*
X130491Y26530D01*
X130484Y26613D01*
X130462Y26650D01*
X130447Y26665D01*
X130432Y26703D01*
X130424Y26733D01*
X130409Y26852D01*
X130375Y26894D01*
X130357Y26935D01*
X130349Y26987D01*
X130338Y27073D01*
X130319Y27099D01*
X130304Y27114D01*
X130282Y27167D01*
X130271Y27283D01*
X130259Y27309D01*
X130188Y27403D01*
X130166Y27410D01*
X130132Y27384D01*
X130125Y27369D01*
X130053Y27298D01*
X130038Y27290D01*
X130024Y27275D01*
X130012Y27272D01*
X130005Y27257D01*
X129971Y27223D01*
X129956Y27216D01*
X129889Y27148D01*
X129874Y27141D01*
X129848Y27114D01*
X129840Y27099D01*
X129806Y27073D01*
X129791Y27066D01*
X129773Y27047D01*
X129765Y27032D01*
X129754Y27021D01*
X129739Y27013D01*
X129724Y26998D01*
X129709Y26991D01*
X129690Y26965D01*
X129672Y26946D01*
X129657Y26938D01*
X129589Y26871D01*
X129574Y26864D01*
X129514Y26804D01*
X129499Y26796D01*
X129428Y26725D01*
X129413Y26665D01*
X129421Y26545D01*
X129417Y25830D01*
X129428Y25804D01*
X129440Y25793D01*
X129492Y25786D01*
X129559Y25793D01*
X129582Y25786D01*
X129612Y25793D01*
X129687Y25786D01*
X129698Y25774D01*
X129713Y25737D01*
X129705Y25677D01*
X129687Y25658D01*
X129634Y25651D01*
X129537Y25658D01*
X129309Y25655D01*
X129271Y25684D01*
X129279Y25917D01*
X129275Y27186D01*
X129279Y27339D01*
Y27347D01*
X129275Y28129D01*
X129290Y28151D01*
X129342Y28166D01*
X129395Y28159D01*
D02*
G37*
G36*
X129121Y28148D02*
X129136Y28110D01*
X129129Y27901D01*
X129133Y26729D01*
X129129Y25774D01*
X129136Y25752D01*
X129129Y25677D01*
X129110Y25658D01*
X129080Y25651D01*
X128871Y25658D01*
X128743Y25651D01*
X128706Y25673D01*
X128695Y25707D01*
X128702Y25759D01*
X128721Y25786D01*
X128773Y25793D01*
X128844Y25789D01*
X128878Y25793D01*
X128901Y25786D01*
X128968Y25793D01*
X128987Y25812D01*
X128994Y25864D01*
X128987Y25962D01*
X128990Y26684D01*
X128983Y26714D01*
X128953Y26759D01*
X128930Y26781D01*
X128916Y26789D01*
X128886Y26819D01*
X128871Y26826D01*
X128852Y26852D01*
X128826Y26871D01*
X128784Y26905D01*
X128766Y26931D01*
X128751Y26938D01*
X128736Y26953D01*
X128721Y26961D01*
X128710Y26972D01*
X128702Y26987D01*
X128683Y27006D01*
X128668Y27013D01*
X128601Y27081D01*
X128586Y27088D01*
X128519Y27156D01*
X128504Y27163D01*
X128436Y27230D01*
X128421Y27238D01*
X128410Y27249D01*
X128403Y27264D01*
X128376Y27290D01*
X128361Y27298D01*
X128320Y27332D01*
X128305Y27347D01*
X128298Y27361D01*
X128249Y27410D01*
X128212Y27403D01*
X128201Y27391D01*
X128171Y27339D01*
X128148Y27317D01*
X128133Y27264D01*
X128126Y27159D01*
X128077Y27088D01*
X128066Y27055D01*
X128051Y26927D01*
X128013Y26875D01*
X127991Y26822D01*
X127983Y26718D01*
X127946Y26650D01*
X127931Y26635D01*
X127924Y26605D01*
Y26583D01*
X127920Y26579D01*
X127912Y26512D01*
X127905Y26482D01*
X127890Y26444D01*
X127879Y26433D01*
X127871Y26418D01*
X127849Y26366D01*
X127841Y26276D01*
X127834Y26253D01*
X127804Y26201D01*
X127789Y26186D01*
X127781Y26156D01*
X127774Y26104D01*
X127763Y26033D01*
X127755Y26003D01*
X127736Y25976D01*
X127725Y25965D01*
X127714Y25962D01*
X127699Y25924D01*
X127710Y25883D01*
X127725Y25868D01*
X127755Y25860D01*
X127822Y25853D01*
X127834Y25842D01*
X127849Y25782D01*
X127841Y25759D01*
X127822Y25726D01*
X127793Y25718D01*
X127283Y25726D01*
X127272Y25737D01*
X127257Y25789D01*
X127268Y25838D01*
X127291Y25860D01*
X127340Y25864D01*
X127590Y25860D01*
X127617Y25879D01*
X127632Y25917D01*
X127639Y25947D01*
X127676Y25999D01*
X127684Y26029D01*
X127691Y26081D01*
X127703Y26152D01*
X127729Y26194D01*
X127744Y26209D01*
X127759Y26261D01*
X127770Y26355D01*
X127778Y26384D01*
X127789Y26396D01*
X127796Y26411D01*
X127811Y26426D01*
X127826Y26463D01*
X127834Y26516D01*
X127841Y26590D01*
X127890Y26662D01*
X127901Y26703D01*
X127909Y26778D01*
X127920Y26819D01*
X127935Y26856D01*
X127961Y26882D01*
X127976Y26935D01*
X127983Y27025D01*
X127998Y27062D01*
X128006Y27077D01*
X128021Y27092D01*
X128028Y27107D01*
X128043Y27144D01*
X128051Y27174D01*
X128058Y27264D01*
X128088Y27317D01*
X128111Y27339D01*
X128118Y27369D01*
X128126Y27421D01*
X128144Y27500D01*
X128159Y27537D01*
X128171Y27549D01*
X128186Y27586D01*
X128193Y27616D01*
X128204Y27680D01*
X128212Y27710D01*
X128227Y27747D01*
X128260Y27811D01*
X128279Y27837D01*
X128302Y27844D01*
X128343Y27811D01*
X128365Y27788D01*
X128373Y27773D01*
X128848Y27298D01*
X128863Y27290D01*
X128882Y27264D01*
X128934Y27197D01*
X128968Y27193D01*
X128979Y27204D01*
X128994Y27257D01*
X128987Y27444D01*
X128990Y27979D01*
X128979Y28005D01*
X128930Y28024D01*
X128856Y28017D01*
X128646Y28024D01*
X128627Y28058D01*
X128635Y28140D01*
X128646Y28151D01*
X128676Y28159D01*
X129084Y28163D01*
X129121Y28148D01*
D02*
G37*
G36*
X131124Y25568D02*
X131135Y25557D01*
X131150Y25505D01*
X131139Y25456D01*
X131117Y25434D01*
X127283Y25441D01*
X127265Y25460D01*
X127257Y25520D01*
X127283Y25568D01*
X127313Y25576D01*
X129144Y25572D01*
X129260Y25576D01*
X129282Y25568D01*
X130607Y25576D01*
X130615D01*
X131124Y25568D01*
D02*
G37*
D21*
X121989Y25616D02*
G03*
X121989Y25616I-120J0D01*
G01*
D22*
X132080Y37973D02*
G03*
X132080Y37973I-254J0D01*
G01*
D23*
X118491Y38989D02*
G03*
X118491Y38989I-127J0D01*
G01*
D24*
X117052Y33125D02*
G03*
X117052Y33125I-100J0D01*
G01*
X110236Y24003D02*
Y41783D01*
X107696D02*
X110236D01*
X107696Y24003D02*
Y41783D01*
Y24003D02*
X110236D01*
D25*
X117500Y26048D02*
Y28892D01*
Y26048D02*
X122784D01*
X117500Y28892D02*
X122784D01*
Y26048D02*
Y28892D01*
X118742Y30255D02*
X121542D01*
X118742Y33245D02*
X121542D01*
D26*
X133096Y39243D02*
X135636D01*
Y29098D02*
Y39243D01*
X133096Y29098D02*
X135636D01*
X133096D02*
Y39243D01*
X111854Y43200D02*
X112023Y43370D01*
X112362D01*
X112531Y43200D01*
Y43031D01*
X112362Y42862D01*
X112193D01*
X112362D01*
X112531Y42693D01*
Y42523D01*
X112362Y42354D01*
X112023D01*
X111854Y42523D01*
X112870Y43370D02*
Y42693D01*
X113208Y42354D01*
X113547Y42693D01*
Y43370D01*
X113885Y43200D02*
X114055Y43370D01*
X114393D01*
X114562Y43200D01*
Y43031D01*
X114393Y42862D01*
X114224D01*
X114393D01*
X114562Y42693D01*
Y42523D01*
X114393Y42354D01*
X114055D01*
X113885Y42523D01*
X114901Y42862D02*
X115578D01*
X115917Y42354D02*
X116425Y42862D01*
X115917Y43370D01*
X116763Y42354D02*
X117102D01*
X116932D01*
Y43370D01*
X116763Y43200D01*
X117609Y43370D02*
Y42693D01*
X117948Y42354D01*
X118287Y42693D01*
Y43370D01*
X118625Y43200D02*
X118794Y43370D01*
X119133D01*
X119302Y43200D01*
Y43031D01*
X119133Y42862D01*
X119302Y42693D01*
Y42523D01*
X119133Y42354D01*
X118794D01*
X118625Y42523D01*
Y42693D01*
X118794Y42862D01*
X118625Y43031D01*
Y43200D01*
X118794Y42862D02*
X119133D01*
X120656Y43370D02*
Y42354D01*
X121334D01*
X122180D02*
X121841D01*
X121672Y42523D01*
Y42862D01*
X121841Y43031D01*
X122180D01*
X122349Y42862D01*
Y42693D01*
X121672D01*
X122688Y43031D02*
X123026Y42354D01*
X123365Y43031D01*
X124211Y42354D02*
X123873D01*
X123704Y42523D01*
Y42862D01*
X123873Y43031D01*
X124211D01*
X124381Y42862D01*
Y42693D01*
X123704D01*
X124719Y42354D02*
X125058D01*
X124888D01*
Y43370D01*
X124719D01*
X127258Y43200D02*
X127089Y43370D01*
X126751D01*
X126581Y43200D01*
Y43031D01*
X126751Y42862D01*
X127089D01*
X127258Y42693D01*
Y42523D01*
X127089Y42354D01*
X126751D01*
X126581Y42523D01*
X127597Y43370D02*
Y42354D01*
Y42862D01*
X127766Y43031D01*
X128105D01*
X128274Y42862D01*
Y42354D01*
X128613D02*
X128951D01*
X128782D01*
Y43031D01*
X128613D01*
X129628Y42354D02*
Y43200D01*
Y42862D01*
X129459D01*
X129798D01*
X129628D01*
Y43200D01*
X129798Y43370D01*
X130475Y43200D02*
Y43031D01*
X130305D01*
X130644D01*
X130475D01*
Y42523D01*
X130644Y42354D01*
X131660D02*
X131321D01*
X131152Y42523D01*
Y42862D01*
X131321Y43031D01*
X131660D01*
X131829Y42862D01*
Y42693D01*
X131152D01*
X132167Y43031D02*
Y42354D01*
Y42693D01*
X132337Y42862D01*
X132506Y43031D01*
X132675D01*
D27*
X119012Y35687D02*
X121018D01*
Y36975D02*
Y37701D01*
X119012Y38989D02*
X121018D01*
D28*
X123338Y28003D02*
Y27263D01*
X123487Y27115D01*
X123783D01*
X123931Y27263D01*
Y28003D01*
X124227Y27855D02*
X124375Y28003D01*
X124671D01*
X124820Y27855D01*
Y27707D01*
X124671Y27559D01*
X124523D01*
X124671D01*
X124820Y27411D01*
Y27263D01*
X124671Y27115D01*
X124375D01*
X124227Y27263D01*
X115952Y24796D02*
X115804Y24944D01*
X115508D01*
X115359Y24796D01*
Y24204D01*
X115508Y24056D01*
X115804D01*
X115952Y24204D01*
X116248Y24796D02*
X116396Y24944D01*
X116692D01*
X116841Y24796D01*
Y24648D01*
X116692Y24500D01*
X116544D01*
X116692D01*
X116841Y24352D01*
Y24204D01*
X116692Y24056D01*
X116396D01*
X116248Y24204D01*
X124952Y24696D02*
X124804Y24844D01*
X124508D01*
X124359Y24696D01*
Y24104D01*
X124508Y23956D01*
X124804D01*
X124952Y24104D01*
X125692Y23956D02*
Y24844D01*
X125248Y24400D01*
X125841D01*
X119401Y34734D02*
Y33994D01*
X119550Y33846D01*
X119846D01*
X119994Y33994D01*
Y34734D01*
X120883Y33846D02*
X120290D01*
X120883Y34438D01*
Y34586D01*
X120734Y34734D01*
X120438D01*
X120290Y34586D01*
X119423Y40576D02*
Y39836D01*
X119571Y39688D01*
X119867D01*
X120015Y39836D01*
Y40576D01*
X120311Y39688D02*
X120607D01*
X120459D01*
Y40576D01*
X120311Y40428D01*
X114829Y29147D02*
Y30035D01*
X115274D01*
X115422Y29887D01*
Y29591D01*
X115274Y29443D01*
X114829D01*
X115126D02*
X115422Y29147D01*
X115718Y30035D02*
X116311D01*
Y29887D01*
X115718Y29295D01*
Y29147D01*
X114829Y34354D02*
Y35242D01*
X115274D01*
X115422Y35094D01*
Y34798D01*
X115274Y34650D01*
X114829D01*
X115126D02*
X115422Y34354D01*
X116311Y35242D02*
X116014Y35094D01*
X115718Y34798D01*
Y34502D01*
X115866Y34354D01*
X116162D01*
X116311Y34502D01*
Y34650D01*
X116162Y34798D01*
X115718D01*
X114829Y31687D02*
Y32575D01*
X115274D01*
X115422Y32427D01*
Y32131D01*
X115274Y31983D01*
X114829D01*
X115126D02*
X115422Y31687D01*
X116311Y32575D02*
X115718D01*
Y32131D01*
X116014Y32279D01*
X116162D01*
X116311Y32131D01*
Y31835D01*
X116162Y31687D01*
X115866D01*
X115718Y31835D01*
X114829Y36767D02*
Y37655D01*
X115274D01*
X115422Y37507D01*
Y37211D01*
X115274Y37063D01*
X114829D01*
X115126D02*
X115422Y36767D01*
X116162D02*
Y37655D01*
X115718Y37211D01*
X116311D01*
X127618Y34354D02*
Y35242D01*
X128063D01*
X128211Y35094D01*
Y34798D01*
X128063Y34650D01*
X127618D01*
X127915D02*
X128211Y34354D01*
X128507Y35094D02*
X128655Y35242D01*
X128951D01*
X129100Y35094D01*
Y34946D01*
X128951Y34798D01*
X128803D01*
X128951D01*
X129100Y34650D01*
Y34502D01*
X128951Y34354D01*
X128655D01*
X128507Y34502D01*
X127656Y31687D02*
Y32575D01*
X128101D01*
X128249Y32427D01*
Y32131D01*
X128101Y31983D01*
X127656D01*
X127953D02*
X128249Y31687D01*
X129138D02*
X128545D01*
X129138Y32279D01*
Y32427D01*
X128989Y32575D01*
X128693D01*
X128545Y32427D01*
X127551Y36767D02*
Y37655D01*
X127995D01*
X128143Y37507D01*
Y37211D01*
X127995Y37063D01*
X127551D01*
X127847D02*
X128143Y36767D01*
X128439D02*
X128735D01*
X128587D01*
Y37655D01*
X128439Y37507D01*
X107798Y42596D02*
Y43485D01*
X108242D01*
X108390Y43336D01*
Y43040D01*
X108242Y42892D01*
X107798D01*
X109279Y42596D02*
X108686D01*
X109279Y43188D01*
Y43336D01*
X109131Y43485D01*
X108834D01*
X108686Y43336D01*
X133808Y39856D02*
Y40744D01*
X134252D01*
X134400Y40596D01*
Y40300D01*
X134252Y40152D01*
X133808D01*
X134696Y39856D02*
X134992D01*
X134844D01*
Y40744D01*
X134696Y40596D01*
X128122Y39793D02*
X127974Y39941D01*
X127678D01*
X127529Y39793D01*
Y39201D01*
X127678Y39053D01*
X127974D01*
X128122Y39201D01*
X129011Y39053D02*
X128418D01*
X129011Y39645D01*
Y39793D01*
X128862Y39941D01*
X128566D01*
X128418Y39793D01*
X115443D02*
X115295Y39941D01*
X114999D01*
X114851Y39793D01*
Y39201D01*
X114999Y39053D01*
X115295D01*
X115443Y39201D01*
X115739Y39053D02*
X116035D01*
X115887D01*
Y39941D01*
X115739Y39793D01*
%TF.MD5,c7584e74d28970c1b97d2ea7d9e7f81d*%
M02*
