%TF.GenerationSoftware,Altium Limited,Altium Designer,24.9.1 (31)*%
G04 Layer_Physical_Order=2*
G04 Layer_Color=16711680*
%FSLAX43Y43*%
%MOMM*%
%TF.SameCoordinates,7C648C20-2248-456C-8B3D-9A73573407F1*%
%TF.FilePolarity,Positive*%
%TF.FileFunction,Copper,L2,Bot,Signal*%
%TF.Part,Single*%
G01*
G75*
%TA.AperFunction,Conductor*%
%ADD15C,0.254*%
%TA.AperFunction,ComponentPad*%
%ADD16R,1.524X1.524*%
%ADD17C,1.524*%
%ADD18C,1.500*%
%ADD19R,1.500X1.500*%
%TA.AperFunction,ViaPad*%
%ADD20C,0.400*%
G36*
X134993Y44243D02*
X135003Y44241D01*
X135017Y44243D01*
X135261Y44220D01*
X135334Y44210D01*
X135599Y44100D01*
X135826Y43926D01*
X136000Y43699D01*
X136017Y43659D01*
Y24041D01*
X136000Y24001D01*
X135826Y23774D01*
X135599Y23600D01*
X135334Y23490D01*
X135259Y23480D01*
X135015Y23457D01*
X135000Y23459D01*
X134984Y23456D01*
X134766Y23445D01*
X108322Y23398D01*
X108304Y23395D01*
X108269Y23390D01*
X107930Y23435D01*
X107614Y23566D01*
X107343Y23774D01*
X107135Y24046D01*
X107004Y24362D01*
X106986Y24498D01*
X106965Y24743D01*
X106967Y24758D01*
X106967Y24758D01*
X106967Y24759D01*
X106966Y24996D01*
X106913Y42881D01*
X106920Y42922D01*
X106924Y42927D01*
X106924Y42928D01*
X106959Y43103D01*
X106957Y43117D01*
X106980Y43361D01*
X106990Y43434D01*
X107100Y43699D01*
X107274Y43926D01*
X107501Y44100D01*
X107766Y44210D01*
X107841Y44220D01*
X108085Y44243D01*
X108100Y44241D01*
X108109Y44243D01*
X108338Y44245D01*
X134764D01*
X134993Y44243D01*
D02*
G37*
%LPC*%
G36*
X126527Y41139D02*
Y40827D01*
X126839D01*
X126785Y40957D01*
X126657Y41085D01*
X126527Y41139D01*
D02*
G37*
G36*
X126273D02*
X126143Y41085D01*
X126015Y40957D01*
X125961Y40827D01*
X126273D01*
Y41139D01*
D02*
G37*
G36*
X126839Y40573D02*
X126527D01*
Y40261D01*
X126657Y40315D01*
X126785Y40443D01*
X126839Y40573D01*
D02*
G37*
G36*
X126273D02*
X125961D01*
X126015Y40443D01*
X126143Y40315D01*
X126273Y40261D01*
Y40573D01*
D02*
G37*
G36*
X109916Y41463D02*
X108016D01*
Y39563D01*
X109916D01*
Y41463D01*
D02*
G37*
G36*
X109098Y38977D02*
X109093D01*
Y38100D01*
X109970D01*
Y38105D01*
X109902Y38361D01*
X109769Y38589D01*
X109582Y38776D01*
X109354Y38909D01*
X109098Y38977D01*
D02*
G37*
G36*
X108839D02*
X108834D01*
X108578Y38909D01*
X108350Y38776D01*
X108163Y38589D01*
X108030Y38361D01*
X107962Y38105D01*
Y38100D01*
X108839D01*
Y38977D01*
D02*
G37*
G36*
X117527Y37739D02*
Y37427D01*
X117839D01*
X117785Y37557D01*
X117657Y37685D01*
X117527Y37739D01*
D02*
G37*
G36*
X117273D02*
X117143Y37685D01*
X117015Y37557D01*
X116961Y37427D01*
X117273D01*
Y37739D01*
D02*
G37*
G36*
X135328Y38935D02*
X133404D01*
Y37011D01*
X135328D01*
Y38935D01*
D02*
G37*
G36*
X109970Y37846D02*
X109093D01*
Y36969D01*
X109098D01*
X109354Y37037D01*
X109582Y37170D01*
X109769Y37357D01*
X109902Y37585D01*
X109970Y37841D01*
Y37846D01*
D02*
G37*
G36*
X108839D02*
X107962D01*
Y37841D01*
X108030Y37585D01*
X108163Y37357D01*
X108350Y37170D01*
X108578Y37037D01*
X108834Y36969D01*
X108839D01*
Y37846D01*
D02*
G37*
G36*
X117839Y37173D02*
X117527D01*
Y36861D01*
X117657Y36915D01*
X117785Y37043D01*
X117839Y37173D01*
D02*
G37*
G36*
X117273D02*
X116961D01*
X117015Y37043D01*
X117143Y36915D01*
X117273Y36861D01*
Y37173D01*
D02*
G37*
G36*
X109091Y36383D02*
X108841D01*
X108599Y36318D01*
X108383Y36193D01*
X108206Y36016D01*
X108081Y35800D01*
X108016Y35558D01*
Y35308D01*
X108081Y35066D01*
X108206Y34850D01*
X108383Y34673D01*
X108599Y34548D01*
X108841Y34483D01*
X109091D01*
X109333Y34548D01*
X109549Y34673D01*
X109726Y34850D01*
X109851Y35066D01*
X109916Y35308D01*
Y35558D01*
X109851Y35800D01*
X109726Y36016D01*
X109549Y36193D01*
X109333Y36318D01*
X109091Y36383D01*
D02*
G37*
G36*
X134493Y36395D02*
X134239D01*
X133995Y36329D01*
X133775Y36203D01*
X133596Y36024D01*
X133470Y35804D01*
X133404Y35560D01*
Y35306D01*
X133470Y35062D01*
X133596Y34842D01*
X133775Y34663D01*
X133995Y34537D01*
X134239Y34471D01*
X134493D01*
X134737Y34537D01*
X134957Y34663D01*
X135136Y34842D01*
X135262Y35062D01*
X135328Y35306D01*
Y35560D01*
X135262Y35804D01*
X135136Y36024D01*
X134957Y36203D01*
X134737Y36329D01*
X134493Y36395D01*
D02*
G37*
G36*
X118858Y33981D02*
X118546D01*
Y33669D01*
X118676Y33723D01*
X118804Y33851D01*
X118858Y33981D01*
D02*
G37*
G36*
X119568Y35688D02*
X119409D01*
X119262Y35627D01*
X119149Y35515D01*
X119089Y35368D01*
Y35359D01*
X118697Y34968D01*
X118074D01*
X117946Y34943D01*
X117838Y34871D01*
X116096Y33129D01*
X116024Y33021D01*
X115999Y32893D01*
Y28713D01*
X112892Y25606D01*
X109860D01*
X109851Y25640D01*
X109726Y25856D01*
X109549Y26033D01*
X109333Y26158D01*
X109091Y26223D01*
X108841D01*
X108599Y26158D01*
X108383Y26033D01*
X108206Y25856D01*
X108081Y25640D01*
X108016Y25398D01*
Y25148D01*
X108081Y24906D01*
X108206Y24690D01*
X108383Y24513D01*
X108599Y24388D01*
X108841Y24323D01*
X109091D01*
X109333Y24388D01*
X109549Y24513D01*
X109726Y24690D01*
X109851Y24906D01*
X109860Y24940D01*
X113030D01*
X113158Y24965D01*
X113266Y25037D01*
X115751Y27523D01*
X116005Y27417D01*
Y27342D01*
X116074Y27175D01*
X116202Y27047D01*
X116332Y26993D01*
Y27432D01*
X116459D01*
Y27559D01*
X116898D01*
X116844Y27689D01*
X116716Y27817D01*
X116549Y27886D01*
X116474D01*
X116368Y28140D01*
X116568Y28339D01*
X116640Y28447D01*
X116665Y28575D01*
Y32755D01*
X117760Y33849D01*
X118034Y33851D01*
X118162Y33723D01*
X118292Y33669D01*
Y34108D01*
X118419D01*
Y34235D01*
X118899D01*
X118963Y34327D01*
X119071Y34399D01*
X119560Y34888D01*
X119568D01*
X119715Y34949D01*
X119828Y35061D01*
X119889Y35208D01*
Y35368D01*
X119828Y35515D01*
X119715Y35627D01*
X119568Y35688D01*
D02*
G37*
G36*
X109091Y33843D02*
X108841D01*
X108599Y33778D01*
X108383Y33653D01*
X108206Y33476D01*
X108081Y33260D01*
X108016Y33018D01*
Y32768D01*
X108081Y32526D01*
X108206Y32310D01*
X108383Y32133D01*
X108599Y32008D01*
X108841Y31943D01*
X109091D01*
X109333Y32008D01*
X109549Y32133D01*
X109726Y32310D01*
X109851Y32526D01*
X109916Y32768D01*
Y33018D01*
X109851Y33260D01*
X109726Y33476D01*
X109549Y33653D01*
X109333Y33778D01*
X109091Y33843D01*
D02*
G37*
G36*
X134493Y33855D02*
X134239D01*
X133995Y33789D01*
X133775Y33663D01*
X133596Y33484D01*
X133470Y33264D01*
X133404Y33020D01*
Y32766D01*
X133470Y32522D01*
X133596Y32302D01*
X133775Y32123D01*
X133995Y31997D01*
X134239Y31931D01*
X134493D01*
X134737Y31997D01*
X134957Y32123D01*
X135136Y32302D01*
X135262Y32522D01*
X135328Y32766D01*
Y33020D01*
X135262Y33264D01*
X135136Y33484D01*
X134957Y33663D01*
X134737Y33789D01*
X134493Y33855D01*
D02*
G37*
G36*
X134500Y31369D02*
X134493D01*
Y30480D01*
X135382D01*
Y30487D01*
X135313Y30745D01*
X135179Y30977D01*
X134990Y31166D01*
X134758Y31300D01*
X134500Y31369D01*
D02*
G37*
G36*
X134239D02*
X134232D01*
X133974Y31300D01*
X133742Y31166D01*
X133553Y30977D01*
X133419Y30745D01*
X133350Y30487D01*
Y30480D01*
X134239D01*
Y31369D01*
D02*
G37*
G36*
X109091Y31303D02*
X108841D01*
X108599Y31238D01*
X108383Y31113D01*
X108206Y30936D01*
X108081Y30720D01*
X108016Y30478D01*
Y30228D01*
X108081Y29986D01*
X108206Y29770D01*
X108383Y29593D01*
X108599Y29468D01*
X108841Y29403D01*
X109091D01*
X109333Y29468D01*
X109549Y29593D01*
X109726Y29770D01*
X109851Y29986D01*
X109916Y30228D01*
Y30478D01*
X109851Y30720D01*
X109726Y30936D01*
X109549Y31113D01*
X109333Y31238D01*
X109091Y31303D01*
D02*
G37*
G36*
X135382Y30226D02*
X134493D01*
Y29337D01*
X134500D01*
X134758Y29406D01*
X134990Y29540D01*
X135179Y29729D01*
X135313Y29961D01*
X135382Y30219D01*
Y30226D01*
D02*
G37*
G36*
X134239D02*
X133350D01*
Y30219D01*
X133419Y29961D01*
X133553Y29729D01*
X133742Y29540D01*
X133974Y29406D01*
X134232Y29337D01*
X134239D01*
Y30226D01*
D02*
G37*
G36*
X113872Y28213D02*
X113712D01*
X113565Y28152D01*
X113560Y28146D01*
X111357D01*
X111352Y28152D01*
X111205Y28213D01*
X111045D01*
X110898Y28152D01*
X110786Y28040D01*
X110725Y27893D01*
Y27733D01*
X110786Y27586D01*
X110898Y27474D01*
X111045Y27413D01*
X111205D01*
X111352Y27474D01*
X111357Y27480D01*
X113560D01*
X113565Y27474D01*
X113712Y27413D01*
X113872D01*
X114019Y27474D01*
X114131Y27586D01*
X114192Y27733D01*
Y27893D01*
X114131Y28040D01*
X114019Y28152D01*
X113872Y28213D01*
D02*
G37*
G36*
X116898Y27305D02*
X116586D01*
Y26993D01*
X116716Y27047D01*
X116844Y27175D01*
X116898Y27305D01*
D02*
G37*
G36*
X109091Y28763D02*
X108841D01*
X108599Y28698D01*
X108383Y28573D01*
X108206Y28396D01*
X108081Y28180D01*
X108016Y27938D01*
Y27688D01*
X108081Y27446D01*
X108206Y27230D01*
X108383Y27053D01*
X108599Y26928D01*
X108841Y26863D01*
X109091D01*
X109333Y26928D01*
X109549Y27053D01*
X109726Y27230D01*
X109851Y27446D01*
X109916Y27688D01*
Y27938D01*
X109851Y28180D01*
X109726Y28396D01*
X109549Y28573D01*
X109333Y28698D01*
X109091Y28763D01*
D02*
G37*
G36*
X124886Y24971D02*
Y24659D01*
X125198D01*
X125144Y24789D01*
X125016Y24917D01*
X124886Y24971D01*
D02*
G37*
G36*
X124632D02*
X124502Y24917D01*
X124374Y24789D01*
X124320Y24659D01*
X124632D01*
Y24971D01*
D02*
G37*
G36*
X125198Y24405D02*
X124886D01*
Y24093D01*
X125016Y24147D01*
X125144Y24275D01*
X125198Y24405D01*
D02*
G37*
G36*
X124632D02*
X124320D01*
X124374Y24275D01*
X124502Y24147D01*
X124632Y24093D01*
Y24405D01*
D02*
G37*
%LPD*%
D15*
X118074Y34635D02*
X118835D01*
X119489Y35288D01*
X116332Y32893D02*
X118074Y34635D01*
X111125Y27813D02*
X113792D01*
X113030Y25273D02*
X116332Y28575D01*
Y32893D01*
X108966Y25273D02*
X113030D01*
D16*
X134366Y37973D02*
D03*
D17*
Y35433D02*
D03*
Y32893D02*
D03*
Y30353D02*
D03*
D18*
X108966Y25273D02*
D03*
Y27813D02*
D03*
Y30353D02*
D03*
Y32893D02*
D03*
Y37973D02*
D03*
Y35433D02*
D03*
D19*
Y40513D02*
D03*
D20*
X124759Y24532D02*
D03*
X119489Y35288D02*
D03*
X117400Y37300D02*
D03*
X126400Y40700D02*
D03*
X113792Y27813D02*
D03*
X111125D02*
D03*
X118419Y34108D02*
D03*
X116459Y27432D02*
D03*
%TF.MD5,2e68dd90940761ebc4ebd4e046dda4db*%
M02*
