%TF.GenerationSoftware,Altium Limited,Altium Designer,24.9.1 (31)*%
G04 Layer_Color=32768*
%FSLAX43Y43*%
%MOMM*%
%TF.SameCoordinates,DA64290B-AB9A-4695-82F0-01906F6A4074*%
%TF.FilePolarity,Positive*%
%TF.FileFunction,Other,Mechanical_15*%
%TF.Part,Single*%
G01*
G75*
%TA.AperFunction,NonConductor*%
%ADD22C,0.100*%
%ADD25C,0.254*%
%ADD26C,0.152*%
%ADD42C,0.050*%
G36*
X121272Y35433D02*
X118758D01*
Y35880D01*
X117856D01*
Y38796D01*
X118758D01*
Y39243D01*
X121272D01*
Y38796D01*
X122174D01*
Y35880D01*
X121272D01*
Y35433D01*
D02*
G37*
D22*
X112428Y39497D02*
X113378D01*
X112903Y39022D02*
Y39972D01*
X125128Y39497D02*
X126078D01*
X125603Y39022D02*
Y39972D01*
X112428Y29591D02*
X113378D01*
X112903Y29116D02*
Y30066D01*
X125128Y32131D02*
X126078D01*
X125603Y31656D02*
Y32606D01*
X112428Y37211D02*
X113378D01*
X112903Y36736D02*
Y37686D01*
X112428Y32131D02*
X113378D01*
X112903Y31656D02*
Y32606D01*
X112428Y34798D02*
X113378D01*
X112903Y34323D02*
Y35273D01*
X125128Y34798D02*
X126078D01*
X125603Y34323D02*
Y35273D01*
X125128Y37211D02*
X126078D01*
X125603Y36736D02*
Y37686D01*
D25*
X132334Y40005D02*
X136398D01*
Y28348D02*
Y40005D01*
X132334Y28348D02*
X136398D01*
X132334D02*
Y40005D01*
D26*
X118758Y35433D02*
Y35880D01*
X117856D02*
X118758D01*
X117856D02*
Y38796D01*
X118758D01*
Y39243D01*
X121272D01*
Y38796D02*
Y39243D01*
Y38796D02*
X122174D01*
Y35880D02*
Y38796D01*
X121272Y35880D02*
X122174D01*
X121272Y35433D02*
Y35880D01*
X118758Y35433D02*
X121272D01*
D42*
X122872Y30025D02*
Y33475D01*
X117412Y30025D02*
Y33475D01*
Y30025D02*
X122872D01*
X117412Y33475D02*
X122872D01*
X122842Y25970D02*
Y28970D01*
X117442Y25970D02*
X122842D01*
X117442D02*
Y28970D01*
X122842D01*
X114453Y38747D02*
Y40247D01*
X111353Y38747D02*
Y40247D01*
Y38747D02*
X114453D01*
X111353Y40247D02*
X114453D01*
X124053Y38747D02*
Y40247D01*
X127153Y38747D02*
Y40247D01*
X124053D02*
X127153D01*
X124053Y38747D02*
X127153D01*
X111353Y28841D02*
Y30341D01*
X114453Y28841D02*
Y30341D01*
X111353D02*
X114453D01*
X111353Y28841D02*
X114453D01*
X127153Y31381D02*
Y32881D01*
X124053Y31381D02*
Y32881D01*
Y31381D02*
X127153D01*
X124053Y32881D02*
X127153D01*
X114453Y36461D02*
Y37961D01*
X111353Y36461D02*
Y37961D01*
Y36461D02*
X114453D01*
X111353Y37961D02*
X114453D01*
X111353Y31381D02*
Y32881D01*
X114453Y31381D02*
Y32881D01*
X111353D02*
X114453D01*
X111353Y31381D02*
X114453D01*
X111353Y34048D02*
Y35548D01*
X114453Y34048D02*
Y35548D01*
X111353D02*
X114453D01*
X111353Y34048D02*
X114453D01*
X127153Y34048D02*
Y35548D01*
X124053Y34048D02*
Y35548D01*
Y34048D02*
X127153D01*
X124053Y35548D02*
X127153D01*
Y36461D02*
Y37961D01*
X124053Y36461D02*
Y37961D01*
Y36461D02*
X127153D01*
X124053Y37961D02*
X127153D01*
%TF.MD5,c1af0c3f1d87a086d8bd356a32452318*%
M02*
