M48
;Layer_Color=9474304
;FILE_FORMAT=4:3
METRIC,LZ
;TYPE=PLATED
T01F00S00C1.150
T03F00S00C1.300
T04F00S00C1.390
T05F00S00C1.600
T07F00S00C3.500
;TYPE=NON_PLATED
T08F00S00C2.650
%
T01
X005446Y0005
X0057
X005954
T03
X00695Y001667
Y002175
Y002675
Y003183
T04
X005446Y0015
X0057
X005954
T05
X001818Y003896
Y00415
Y004404
X004382
Y00415
Y003896
X00489
Y00415
Y004404
X00131
Y00415
Y003896
X000625Y003029
X000375
Y002679
X000625
Y002171
X000375
Y001821
X000625
T07
X00045Y00045
X007
Y0044
X0057Y003205
X00045Y0044
T08
X0005045Y002425
M30
