%TF.GenerationSoftware,Altium Limited,Altium Designer,25.2.1 (25)*%
G04 Layer_Physical_Order=1*
G04 Layer_Color=255*
%FSLAX43Y43*%
%MOMM*%
%TF.SameCoordinates,EE928B88-05C6-4CB7-BE72-DB3FC024E120*%
%TF.FilePolarity,Positive*%
%TF.FileFunction,Copper,L1,Top,Signal*%
%TF.Part,Single*%
G01*
G75*
%TA.AperFunction,NonConductor*%
%ADD10C,0.203*%
%TA.AperFunction,SMDPad,CuDef*%
%ADD11R,0.400X0.600*%
%ADD12R,10.020X11.000*%
%ADD13R,0.600X1.250*%
%TA.AperFunction,Conductor*%
%ADD14C,0.300*%
%TA.AperFunction,ComponentPad*%
%ADD15C,1.725*%
%ADD16C,2.000*%
%ADD17C,6.000*%
%ADD18C,5.000*%
%ADD19C,2.085*%
%ADD20O,12.500X3.750*%
%ADD21O,3.000X5.500*%
%ADD22C,2.300*%
%ADD23C,1.325*%
%ADD24C,2.400*%
G36*
X51500Y28000D02*
X33500D01*
Y48092D01*
X51500D01*
Y28000D01*
D02*
G37*
G36*
X4500Y48092D02*
X20500D01*
Y36000D01*
X10000D01*
Y25000D01*
X6493D01*
X6485Y25020D01*
X6307Y25286D01*
X6081Y25512D01*
X5815Y25690D01*
X5519Y25813D01*
X5205Y25875D01*
X4885D01*
X4571Y25813D01*
X4275Y25690D01*
X4009Y25512D01*
X3783Y25286D01*
X3605Y25020D01*
X3597Y25000D01*
X408D01*
Y44000D01*
X402Y44028D01*
X451Y44641D01*
X601Y45267D01*
X847Y45861D01*
X1183Y46410D01*
X1601Y46899D01*
X2090Y47317D01*
X2639Y47653D01*
X3233Y47899D01*
X3859Y48049D01*
X4472Y48098D01*
X4500Y48092D01*
D02*
G37*
G36*
X28000Y4500D02*
X12000D01*
Y16000D01*
X408D01*
Y23500D01*
X3597D01*
X3605Y23480D01*
X3783Y23214D01*
X4009Y22988D01*
X4275Y22810D01*
X4571Y22687D01*
X4885Y22625D01*
X5205D01*
X5519Y22687D01*
X5815Y22810D01*
X6081Y22988D01*
X6307Y23214D01*
X6485Y23480D01*
X6493Y23500D01*
X13500D01*
Y35000D01*
X28000D01*
Y4500D01*
D02*
G37*
%LPC*%
G36*
X4760Y47300D02*
X4240D01*
X3727Y47219D01*
X3233Y47058D01*
X2770Y46822D01*
X2350Y46517D01*
X1983Y46150D01*
X1678Y45730D01*
X1442Y45267D01*
X1281Y44773D01*
X1200Y44260D01*
Y43740D01*
X1281Y43227D01*
X1442Y42733D01*
X1678Y42270D01*
X1983Y41850D01*
X2350Y41483D01*
X2770Y41178D01*
X3233Y40942D01*
X3727Y40781D01*
X4240Y40700D01*
X4760D01*
X5273Y40781D01*
X5767Y40942D01*
X6230Y41178D01*
X6650Y41483D01*
X7017Y41850D01*
X7322Y42270D01*
X7558Y42733D01*
X7719Y43227D01*
X7800Y43740D01*
Y44260D01*
X7719Y44773D01*
X7558Y45267D01*
X7322Y45730D01*
X7017Y46150D01*
X6650Y46517D01*
X6230Y46822D01*
X5767Y47058D01*
X5273Y47219D01*
X4760Y47300D01*
D02*
G37*
%LPD*%
D10*
X73998Y44000D02*
G03*
X70000Y47998I-3998J0D01*
G01*
X73402Y44000D02*
G03*
X73402Y44000I-3402J0D01*
G01*
X70052Y25462D02*
G03*
X70902Y26750I-552J1288D01*
G01*
Y31830D02*
G03*
X70902Y31830I-1402J0D01*
G01*
Y26750D02*
G03*
X68948Y25462I-1402J0D01*
G01*
X70902Y21750D02*
G03*
X70052Y23038I-1402J0D01*
G01*
X68948D02*
G03*
X70902Y21750I552J-1288D01*
G01*
Y16670D02*
G03*
X68379Y17512I-1402J0D01*
G01*
X68123Y16408D02*
G03*
X70902Y16670I1377J262D01*
G01*
X58444Y15000D02*
G03*
X57319Y16408I-1444J0D01*
G01*
X58334Y14446D02*
G03*
X58444Y15000I-1334J554D01*
G01*
X58957Y13595D02*
G03*
X58795Y13985I-552J0D01*
G01*
X58957Y13595D02*
G03*
X58795Y13985I-552J0D01*
G01*
X55730Y14313D02*
G03*
X56448Y13665I1270J687D01*
G01*
X54601Y17512D02*
G03*
X54211Y17350I0J-552D01*
G01*
X54601Y17512D02*
G03*
X54211Y17350I0J-552D01*
G01*
X54070Y17209D02*
G03*
X53908Y16819I390J-390D01*
G01*
Y16335D02*
G03*
X55730Y14313I552J-1335D01*
G01*
X54070Y17209D02*
G03*
X53908Y16819I390J-390D01*
G01*
X50890Y12640D02*
G03*
X50500Y12802I-390J-390D01*
G01*
X50890Y12640D02*
G03*
X50500Y12802I-390J-390D01*
G01*
X73402Y4500D02*
G03*
X71302Y7643I-3402J0D01*
G01*
X70198Y7896D02*
G03*
X73402Y4500I-198J-3396D01*
G01*
X60804Y5000D02*
G03*
X60804Y5000I-1264J0D01*
G01*
X70000Y502D02*
G03*
X73998Y4500I0J3998D01*
G01*
X51510Y10460D02*
G03*
X51900Y10298I390J390D01*
G01*
X51510Y10460D02*
G03*
X51900Y10298I390J390D01*
G01*
X49002Y9625D02*
G03*
X45198Y9625I-1902J0D01*
G01*
X58795Y9515D02*
G03*
X58957Y9905I-390J390D01*
G01*
X58795Y9515D02*
G03*
X58957Y9905I-390J390D01*
G01*
X57500Y8448D02*
G03*
X57890Y8610I0J552D01*
G01*
X57500Y8448D02*
G03*
X57890Y8610I0J552D01*
G01*
X58264Y5000D02*
G03*
X58264Y5000I-1264J0D01*
G01*
X45198Y7125D02*
G03*
X49002Y7125I1902J0D01*
G01*
X6772Y24250D02*
G03*
X6738Y24591I-1727J0D01*
G01*
Y23909D02*
G03*
X6772Y24250I-1693J341D01*
G01*
X7902Y4500D02*
G03*
X7902Y4500I-3402J0D01*
G01*
X502D02*
G03*
X4500Y502I3998J0D01*
G01*
X72678Y46097D02*
X73103Y46522D01*
X72966Y45666D02*
X73402Y46102D01*
X72008Y47458D02*
X73458Y46008D01*
X73347Y44610D02*
X73842Y45106D01*
X73329Y44700D02*
X73998Y44031D01*
X73193Y45174D02*
X73650Y45632D01*
X72763Y45985D02*
X73910Y44838D01*
X70371Y47381D02*
X70888Y47899D01*
X70838Y47910D02*
X71985Y46763D01*
X69655Y47384D02*
X70261Y47990D01*
X70031Y47998D02*
X70700Y47329D01*
X71939Y46795D02*
X72367Y47222D01*
X72336Y46473D02*
X72758Y46895D01*
X70969Y47261D02*
X71439Y47731D01*
X71486Y47060D02*
X71929Y47502D01*
X72260Y41458D02*
X73998Y39720D01*
X71853Y41147D02*
X73998Y39002D01*
X71387Y40894D02*
X73998Y38283D01*
X70855Y40708D02*
X73998Y37565D01*
X70323Y32965D02*
X73998Y36640D01*
X70673Y32597D02*
X73998Y35922D01*
X70238Y40607D02*
X73998Y36846D01*
X69831Y33192D02*
X73998Y37359D01*
X73401Y43946D02*
X73966Y44510D01*
X73400Y43910D02*
X73998Y43312D01*
X73283Y43109D02*
X73998Y43825D01*
X73322Y43270D02*
X73998Y42594D01*
X73152Y42721D02*
X73998Y41875D01*
X72912Y42243D02*
X73998Y41157D01*
X72614Y41823D02*
X73998Y40438D01*
X60691Y47998D02*
X73998Y34691D01*
X59973Y47998D02*
X73998Y33973D01*
X59254Y47998D02*
X73998Y33254D01*
X58536Y47998D02*
X73998Y32536D01*
X68420Y40987D02*
X73998Y35409D01*
X69092Y33171D02*
X73998Y38077D01*
X57817Y47998D02*
X73998Y31817D01*
X57099Y47998D02*
X73998Y31099D01*
X68594Y47998D02*
X69270Y47322D01*
X68693Y47141D02*
X69551Y47998D01*
X54944D02*
X69729Y33213D01*
X54225Y47998D02*
X69062Y33161D01*
X69312Y47998D02*
X69910Y47400D01*
X69489Y40637D02*
X73998Y36128D01*
X51909Y47998D02*
X70000D01*
X55662D02*
X73998Y29662D01*
X51909Y46722D02*
X73998Y24633D01*
X45131Y12802D02*
X73998Y41669D01*
X45849Y12802D02*
X73998Y40951D01*
X51909Y36664D02*
X73998Y14575D01*
X48004Y12802D02*
X73998Y38796D01*
X46567Y12802D02*
X73998Y40233D01*
X47286Y12802D02*
X73998Y39514D01*
X56380Y47998D02*
X73998Y30380D01*
X51909Y41693D02*
X68948Y24654D01*
X51909Y46004D02*
X69792Y28121D01*
X51909Y45285D02*
X69101Y28094D01*
X51909Y35946D02*
X69821Y18034D01*
X51909Y35227D02*
X69118Y18019D01*
X51909Y40256D02*
X68948Y23217D01*
X70820Y26277D02*
X73998Y29456D01*
X70871Y27042D02*
X73998Y23915D01*
X70182Y30605D02*
X73998Y26788D01*
X70052Y24791D02*
X73998Y28738D01*
X70844Y26351D02*
X73998Y23196D01*
X70664Y22530D02*
X73998Y25864D01*
X70310Y22894D02*
X73998Y26583D01*
X70598Y25879D02*
X73998Y22478D01*
X70878Y32084D02*
X73998Y35204D01*
X70883Y32059D02*
X73998Y28944D01*
X70786Y31273D02*
X73998Y34485D01*
X70293Y27906D02*
X73998Y31612D01*
X70831Y31392D02*
X73998Y28225D01*
X70870Y27046D02*
X73998Y30175D01*
X70653Y27547D02*
X73998Y30893D01*
X70575Y30930D02*
X73998Y27507D01*
X70644Y17480D02*
X73998Y20835D01*
X70866Y16984D02*
X73998Y20117D01*
X70585Y20862D02*
X73998Y17449D01*
X70196Y20533D02*
X73998Y16730D01*
X70864Y16991D02*
X73998Y13857D01*
X70849Y16288D02*
X73998Y13138D01*
X70831Y16231D02*
X73998Y19398D01*
X70607Y15811D02*
X73998Y12420D01*
X70875Y22022D02*
X73998Y25146D01*
X70802Y21231D02*
X73998Y24427D01*
X70214Y25544D02*
X73998Y21759D01*
X70052Y24988D02*
X73998Y21041D01*
X70878Y22006D02*
X73998Y18886D01*
X70837Y21329D02*
X73998Y18167D01*
X70280Y17835D02*
X73998Y21554D01*
X69790Y28121D02*
X73998Y32330D01*
X69634Y30435D02*
X73998Y26070D01*
X69015Y28065D02*
X73998Y33048D01*
X68555Y30795D02*
X73998Y25352D01*
X70052Y24269D02*
X73998Y20323D01*
X70052Y23551D02*
X73998Y19604D01*
X70052Y24073D02*
X73998Y28019D01*
X70052Y23354D02*
X73998Y27301D01*
X68763Y25558D02*
X68948Y25373D01*
X70052Y23038D02*
Y25462D01*
X68948Y23038D02*
Y25462D01*
X69771Y18045D02*
X73998Y22272D01*
X68979Y17971D02*
X73998Y22990D01*
X57743Y17512D02*
X73998Y33767D01*
X67801Y17512D02*
X73998Y23709D01*
X69654Y20357D02*
X73998Y16012D01*
X68675Y20617D02*
X73998Y15294D01*
X61335Y17512D02*
X68948Y25125D01*
X62054Y17512D02*
X68948Y24406D01*
X56306Y17512D02*
X69246Y30452D01*
X57025Y17512D02*
X70057Y30544D01*
X66364Y17512D02*
X69228Y20375D01*
X67083Y17512D02*
X70019Y20448D01*
X62772Y17512D02*
X68948Y23688D01*
X66438Y47998D02*
X67823Y46614D01*
X65720Y47998D02*
X67458Y46260D01*
X65002Y47998D02*
X67147Y45853D01*
X61409Y47998D02*
X66987Y42420D01*
X67875Y47998D02*
X68721Y47152D01*
X67157Y47998D02*
X68243Y46912D01*
X53507Y47998D02*
X68600Y32905D01*
X52788Y47998D02*
X68275Y32512D01*
X51909Y38978D02*
X60930Y47998D01*
X51909Y33949D02*
X65959Y47998D01*
X51909Y42570D02*
X57338Y47998D01*
X51909Y41852D02*
X58056Y47998D01*
X64283D02*
X66894Y45387D01*
X63565Y47998D02*
X66708Y44855D01*
X62846Y47998D02*
X66607Y44238D01*
X62128Y47998D02*
X66637Y43489D01*
X51909Y43848D02*
X68294Y27464D01*
X51909Y42411D02*
X68308Y26013D01*
X51909Y47440D02*
X68465Y30885D01*
X51909Y44567D02*
X68629Y27848D01*
X54869Y17512D02*
X68365Y31007D01*
X55588Y17512D02*
X68733Y30657D01*
X51909Y40975D02*
X68948Y23936D01*
X51909Y39538D02*
X68612Y22835D01*
X52070Y47998D02*
X68105Y31964D01*
X51909Y28920D02*
X66619Y43629D01*
X51909Y30357D02*
X66859Y45307D01*
X51909Y29638D02*
X66616Y44345D01*
X51909Y28202D02*
X66739Y43031D01*
X51909Y38819D02*
X68283Y22446D01*
X51909Y43130D02*
X68110Y26929D01*
X51909Y38259D02*
X61648Y47998D01*
X51909Y37541D02*
X62367Y47998D01*
X51909Y40415D02*
X59493Y47998D01*
X51909Y39696D02*
X60212Y47998D01*
X51909Y35386D02*
X64522Y47998D01*
X51909Y34667D02*
X65241Y47998D01*
X51909Y36823D02*
X63085Y47998D01*
X51909Y36104D02*
X63804Y47998D01*
X51909Y46162D02*
X53746Y47998D01*
X51909Y45444D02*
X54464Y47998D01*
X51909Y47599D02*
X52309Y47998D01*
X51909Y46881D02*
X53027Y47998D01*
X51909Y43288D02*
X56619Y47998D01*
X51909Y41133D02*
X58775Y47998D01*
X51909Y44725D02*
X55183Y47998D01*
X51909Y44007D02*
X55901Y47998D01*
X51909Y38101D02*
X68107Y21904D01*
X51909Y37383D02*
X68367Y20925D01*
X51909Y31794D02*
X68114Y47998D01*
X51909Y31075D02*
X68833Y47998D01*
X51909Y34509D02*
X68641Y17777D01*
X51909Y33790D02*
X68188Y17512D01*
X48723Y12802D02*
X68159Y32238D01*
X49441Y12802D02*
X68138Y31499D01*
X51909Y32512D02*
X67396Y47998D01*
X51909Y33072D02*
X67470Y17512D01*
X51909Y33231D02*
X66677Y47998D01*
X51909Y28000D02*
Y47998D01*
Y31635D02*
X66033Y17512D01*
X51909Y30917D02*
X65315Y17512D01*
X51909Y32354D02*
X66751Y17512D01*
X60617D02*
X68703Y25597D01*
X63491Y17512D02*
X68169Y22190D01*
X58462Y17512D02*
X68185Y27235D01*
X59898Y17512D02*
X68344Y25957D01*
X65646Y17512D02*
X68720Y20586D01*
X67855Y16408D02*
X68276Y15987D01*
X54601Y17512D02*
X68379D01*
X64927D02*
X68356Y20940D01*
X59180Y17512D02*
X68129Y26460D01*
X64209Y17512D02*
X68134Y21437D01*
X57842Y16173D02*
X58077Y16408D01*
X58411Y15306D02*
X59514Y16408D01*
X58371Y14548D02*
X60232Y16408D01*
X57319D02*
X68123D01*
X58196Y15809D02*
X58795Y16408D01*
X58949Y13688D02*
X61669Y16408D01*
X58957Y12978D02*
X62387Y16408D01*
X58661Y14119D02*
X60951Y16408D01*
X58334Y14446D02*
X58795Y13985D01*
X57552Y13062D02*
X57853Y12760D01*
X57554Y13666D02*
X57853Y13367D01*
X55675Y14220D02*
X56448Y13446D01*
X55329Y13847D02*
X56398Y12778D01*
X57552Y13009D02*
X57853Y13311D01*
X57552Y12852D02*
Y13665D01*
X56448Y12852D02*
Y13665D01*
X51620Y27614D02*
X61723Y17512D01*
X51909Y28761D02*
X63159Y17512D01*
X47333Y27591D02*
X57412Y17512D01*
X48051Y27591D02*
X58130Y17512D01*
X50207Y27591D02*
X60286Y17512D01*
X50925Y27591D02*
X61004Y17512D01*
X48770Y27591D02*
X58849Y17512D01*
X49488Y27591D02*
X59567Y17512D01*
X51878Y27843D02*
X51909Y28000D01*
X51790Y27710D02*
X51878Y27843D01*
X51657Y27622D02*
X51790Y27710D01*
X51500Y27591D02*
X51657Y27622D01*
X45896Y27591D02*
X55975Y17512D01*
X46615Y27591D02*
X56694Y17512D01*
X45178Y27591D02*
X55257Y17512D01*
X51909Y28043D02*
X62441Y17512D01*
X51909Y30198D02*
X64596Y17512D01*
X51909Y29480D02*
X63878Y17512D01*
X54070Y17209D02*
X54211Y17350D01*
X53908Y16335D02*
Y16819D01*
X50160Y12802D02*
X53908Y16551D01*
X50793Y12717D02*
X53017Y14941D01*
X51162Y12368D02*
X53162Y14367D01*
X70219Y12027D02*
X73998Y15806D01*
X70228Y15472D02*
X73998Y11701D01*
X69699Y15283D02*
X73998Y10983D01*
X68817Y15446D02*
X73998Y10265D01*
X71602Y11254D02*
X73998Y13651D01*
X71602Y10536D02*
X73998Y12933D01*
X70937Y12027D02*
X73998Y15088D01*
X71602Y11973D02*
X73998Y14369D01*
X66418Y16408D02*
X70800Y12027D01*
X65699Y16408D02*
X70198Y11909D01*
X64981Y16408D02*
X70198Y11191D01*
X64263Y16408D02*
X70198Y10473D01*
Y12027D02*
X71602D01*
X71518D02*
X71602Y11943D01*
X67136Y16408D02*
X71518Y12027D01*
X70198Y10850D02*
Y12027D01*
X71602Y11943D02*
X73998Y9546D01*
Y4500D02*
Y44000D01*
X71302Y9517D02*
X73998Y12214D01*
X71302Y8799D02*
X73998Y11496D01*
X71602Y11225D02*
X73998Y8828D01*
X71602Y10506D02*
X73998Y8109D01*
X71302Y8081D02*
X73998Y10777D01*
X71495Y7555D02*
X73998Y10059D01*
X63544Y16408D02*
X70198Y9754D01*
X62826Y16408D02*
X70198Y9036D01*
X62107Y16408D02*
X70198Y8317D01*
X61389Y16408D02*
X69897Y7900D01*
X70198Y9973D02*
Y10850D01*
X71602Y9973D02*
Y12027D01*
X70198Y9973D02*
Y10850D01*
X59952Y16408D02*
X68712Y7648D01*
X59234Y16408D02*
X68234Y7408D01*
X58515Y16408D02*
X67816Y7108D01*
X57797Y16408D02*
X67452Y6753D01*
X60670Y16408D02*
X69259Y7820D01*
X60042Y6160D02*
X69186Y15304D01*
X59422Y6259D02*
X68690Y15526D01*
X57746Y6020D02*
X68125Y16399D01*
X58957Y10822D02*
X64543Y16408D01*
X58957Y10104D02*
X65261Y16408D01*
X58957Y12259D02*
X63106Y16408D01*
X58957Y11541D02*
X63824Y16408D01*
X58443Y15043D02*
X67142Y6345D01*
X58856Y13912D02*
X66890Y5878D01*
X57248Y6240D02*
X67416Y16408D01*
X56405Y6115D02*
X66698Y16408D01*
X60734Y5415D02*
X73998Y18680D01*
X60777Y4740D02*
X73998Y17962D01*
X57257Y502D02*
X73998Y17243D01*
X57975Y502D02*
X73998Y16525D01*
X60463Y5863D02*
X69939Y15339D01*
X60131Y502D02*
X70198Y10569D01*
X58694Y502D02*
X70198Y12006D01*
X59412Y502D02*
X70198Y11288D01*
X58957Y13093D02*
X66705Y5345D01*
X58957Y12375D02*
X66606Y4726D01*
X58088Y5643D02*
X68335Y15890D01*
X50073Y502D02*
X65979Y16408D01*
X58957Y10938D02*
X67002Y2893D01*
X58957Y10220D02*
X68675Y502D01*
X58957Y11657D02*
X66639Y3974D01*
X72684Y6589D02*
X73998Y7904D01*
X72971Y6157D02*
X73998Y7185D01*
X71302Y9369D02*
X73998Y6673D01*
X71302Y8651D02*
X73998Y5954D01*
X73349Y5099D02*
X73998Y5748D01*
X73332Y5183D02*
X73998Y4517D01*
X73196Y5664D02*
X73998Y6467D01*
X72794Y6440D02*
X73998Y5236D01*
X71302Y9973D02*
X71602D01*
X71416D02*
X73998Y7391D01*
X70198Y7896D02*
Y9973D01*
X71302Y7643D02*
Y9973D01*
X71947Y7289D02*
X73998Y9340D01*
X72343Y6966D02*
X73998Y8622D01*
X71302Y7933D02*
X71940Y7294D01*
X73401Y4432D02*
X73998Y5030D01*
X73400Y4397D02*
X73946Y3852D01*
X73278Y3591D02*
X73994Y4307D01*
X73320Y3759D02*
X73806Y3273D01*
X73148Y3212D02*
X73600Y2760D01*
X72908Y2734D02*
X73340Y2302D01*
X72517Y1393D02*
X73107Y1983D01*
X71046Y641D02*
X73859Y3454D01*
X72608Y2316D02*
X73031Y1892D01*
X72253Y1952D02*
X72676Y1529D01*
X71845Y1642D02*
X72275Y1212D01*
X71378Y1390D02*
X71826Y943D01*
X70845Y1205D02*
X71323Y727D01*
X70226Y1106D02*
X70758Y574D01*
X70193Y506D02*
X70909Y1222D01*
X68716Y7650D02*
X70198Y9133D01*
X58862Y9596D02*
X67956Y502D01*
X58151Y8870D02*
X66519Y502D01*
X58510Y9230D02*
X67238Y502D01*
X69670Y7886D02*
X70198Y8414D01*
X69474Y1139D02*
X70110Y503D01*
X60571Y5732D02*
X65801Y502D01*
X60582Y4284D02*
X64364Y502D01*
X60788Y4797D02*
X65083Y502D01*
X58175Y4535D02*
X62209Y502D01*
X59685Y3744D02*
X62927Y502D01*
X60216Y3932D02*
X63646Y502D01*
X57454Y3820D02*
X60772Y502D01*
X57890Y4102D02*
X61490Y502D01*
X67315D02*
X68343Y1529D01*
X60849Y502D02*
X70198Y9851D01*
X66596Y502D02*
X67911Y1816D01*
X68752Y502D02*
X69401Y1151D01*
X69470Y502D02*
X70068Y1099D01*
X68033Y502D02*
X68836Y1304D01*
X68393Y1502D02*
X69393Y502D01*
X63004D02*
X66620Y4117D01*
X63723Y502D02*
X66742Y3521D01*
X61567Y502D02*
X66850Y5784D01*
X62286Y502D02*
X66614Y4830D01*
X65160Y502D02*
X67211Y2553D01*
X65878Y502D02*
X67534Y2157D01*
X64441Y502D02*
X66945Y3005D01*
X57602Y12341D02*
X57853Y12593D01*
X57602Y12293D02*
X57853Y12041D01*
X57602Y11552D02*
Y12852D01*
X54507Y11402D02*
X56448Y13343D01*
X57602Y11448D02*
Y11552D01*
Y11448D02*
Y11552D01*
Y11623D02*
X57853Y11874D01*
X55944Y11402D02*
X56398Y11856D01*
X54849Y13609D02*
X56398Y12059D01*
X54150Y13590D02*
X56338Y11402D01*
X53070D02*
X55827Y14158D01*
X53788Y11402D02*
X56191Y13804D01*
X56398Y11448D02*
Y11552D01*
Y11448D02*
Y11552D01*
Y12852D01*
X55225Y11402D02*
X56398Y12575D01*
X57853Y10133D02*
Y13367D01*
X58957Y9905D02*
Y13595D01*
X57602Y11575D02*
X57853Y11323D01*
X57602Y10148D02*
Y11448D01*
Y10856D02*
X57853Y10605D01*
X57602Y10186D02*
X57853Y10438D01*
X57602Y10904D02*
X57853Y11156D01*
X56004Y10298D02*
X56751Y9552D01*
X54567Y10298D02*
X55314Y9552D01*
X54812D02*
X55559Y10298D01*
X53131D02*
X53877Y9552D01*
X53375D02*
X54122Y10298D01*
X56398Y10148D02*
Y10298D01*
X55531Y9552D02*
X56277Y10298D01*
X55286D02*
X56033Y9552D01*
X51881Y11649D02*
X53900Y13669D01*
X52352Y11402D02*
X54507Y13557D01*
X51522Y12008D02*
X53466Y13953D01*
X50890Y12640D02*
X52128Y11402D01*
X56398D01*
X48711Y10635D02*
X49775Y11698D01*
X50272D02*
X51510Y10460D01*
X46702Y11698D02*
X46886Y11514D01*
X46683Y11480D02*
X46901Y11698D01*
X45983D02*
X46322Y11360D01*
X45265Y11698D02*
X45880Y11083D01*
X47960Y11321D02*
X48338Y11698D01*
X48385Y11027D02*
X49056Y11698D01*
X47420Y11499D02*
X47619Y11698D01*
X47420D02*
X47684Y11435D01*
X51613Y10379D02*
X52440Y9552D01*
X49575Y11698D02*
X51722Y9552D01*
X51220D02*
X51967Y10298D01*
X52412D02*
X53159Y9552D01*
X52657D02*
X53404Y10298D01*
X51900D02*
X56398D01*
X51938Y9552D02*
X52685Y10298D01*
X48931Y10137D02*
X50382Y11588D01*
X48857Y11698D02*
X51004Y9552D01*
X48138Y11698D02*
X50285Y9552D01*
X49783D02*
X51101Y10869D01*
X50502Y9552D02*
X51460Y10510D01*
X49065Y9552D02*
X50742Y11228D01*
X57591Y10148D02*
X57730Y10010D01*
X57272Y9552D02*
X57853Y10133D01*
X57890Y8610D02*
X58795Y9515D01*
X57136Y8448D02*
X59337Y6248D01*
X56873Y10148D02*
X57370Y9651D01*
X56249Y9552D02*
X56846Y10148D01*
X53849Y10298D02*
X54596Y9552D01*
X54094D02*
X54841Y10298D01*
X56398Y10148D02*
X57602D01*
X56967Y9552D02*
X57564Y10148D01*
X54981Y8448D02*
X57177Y6252D01*
X54262Y8448D02*
X56535Y6175D01*
X56417Y8448D02*
X58824Y6042D01*
X57779Y8524D02*
X60272Y6031D01*
X55699Y8448D02*
X58472Y5676D01*
X54383Y502D02*
X58380Y4498D01*
X56538Y502D02*
X59800Y3763D01*
X56804Y3751D02*
X60054Y502D01*
X55102D02*
X58677Y4077D01*
X55820Y502D02*
X59125Y3806D01*
X53544Y8448D02*
X56102Y5890D01*
X52825Y8448D02*
X55820Y5454D01*
X52107Y8448D02*
X55751Y4804D01*
X52946Y502D02*
X56357Y3912D01*
X53665Y502D02*
X56903Y3740D01*
X52228Y502D02*
X55980Y4254D01*
X49002Y9552D02*
X57272D01*
X46481Y502D02*
X54427Y8448D01*
X45044Y502D02*
X52991Y8448D01*
X45762Y502D02*
X53709Y8448D01*
X49002D02*
X57500D01*
X47405Y5248D02*
X52151Y502D01*
X46659Y5275D02*
X51433Y502D01*
X47199D02*
X55146Y8448D01*
X49002Y8052D02*
X49398Y8448D01*
X49002Y7125D02*
Y8448D01*
X48910Y10209D02*
X49567Y9552D01*
X45198Y7125D02*
Y9625D01*
X49002Y7333D02*
X50117Y8448D01*
X48901Y6514D02*
X50835Y8448D01*
X49354Y502D02*
X57301Y8448D01*
X49952D02*
X57898Y502D01*
X48636D02*
X56583Y8448D01*
X49233D02*
X57180Y502D01*
X50791D02*
X55885Y5595D01*
X51388Y8448D02*
X59335Y502D01*
X49002Y7962D02*
X56462Y502D01*
X50670Y8448D02*
X58617Y502D01*
X48927Y6599D02*
X55025Y502D01*
X49002Y7243D02*
X55743Y502D01*
X47917D02*
X55864Y8448D01*
X48704Y6104D02*
X54306Y502D01*
X48375Y5714D02*
X53588Y502D01*
X51510D02*
X55760Y4752D01*
X47948Y5423D02*
X52869Y502D01*
X28179Y35363D02*
X33091Y40275D01*
X28409Y34875D02*
X33091Y39556D01*
X26925Y47998D02*
X33091Y41833D01*
X27507Y35409D02*
X33091Y40993D01*
X28409Y32720D02*
X33091Y37401D01*
X28409Y32002D02*
X33091Y36683D01*
X28409Y34157D02*
X33091Y38838D01*
X28409Y33438D02*
X33091Y38119D01*
X32673Y47998D02*
X33091Y47580D01*
X31954Y47998D02*
X33091Y46862D01*
X31236Y47998D02*
X33091Y46144D01*
X30517Y47998D02*
X33091Y45425D01*
X29799Y47998D02*
X33091Y44707D01*
X29080Y47998D02*
X33091Y43988D01*
X28362Y47998D02*
X33091Y43270D01*
X27644Y47998D02*
X33091Y42551D01*
X43694Y12802D02*
X73998Y43106D01*
X44412Y12802D02*
X73998Y42388D01*
X39383Y12802D02*
X67903Y41322D01*
X40102Y12802D02*
X68334Y41034D01*
X42257Y12802D02*
X70054Y40599D01*
X42975Y12802D02*
X70891Y40717D01*
X40820Y12802D02*
X68826Y40807D01*
X41538Y12802D02*
X69390Y40653D01*
X37946Y12802D02*
X67205Y42061D01*
X38665Y12802D02*
X67527Y41664D01*
X33091Y28000D02*
Y47998D01*
X37228Y12802D02*
X66940Y42514D01*
X28409Y31283D02*
X33091Y35964D01*
X28409Y30565D02*
X33091Y35246D01*
X28405Y35024D02*
X33091Y30338D01*
X25488Y47998D02*
X33091Y40396D01*
X24770Y47998D02*
X33091Y39678D01*
X24052Y47998D02*
X33091Y38959D01*
X23333Y47998D02*
X33091Y38241D01*
X22615Y47998D02*
X33091Y37523D01*
X21896Y47998D02*
X33091Y36804D01*
X21178Y47998D02*
X33091Y36086D01*
X21041Y35409D02*
X33091Y47459D01*
X20909Y38152D02*
X30756Y47998D01*
X20909Y37433D02*
X31475Y47998D01*
X20909Y39588D02*
X29319Y47998D01*
X20909Y38870D02*
X30038Y47998D01*
X20909D02*
X33091D01*
X26207D02*
X33091Y41115D01*
X20909Y36715D02*
X32193Y47998D01*
X20909Y35995D02*
X32912Y47998D01*
X20909Y46112D02*
X33091Y33931D01*
X20909Y45393D02*
X33091Y33212D01*
X20909Y47548D02*
X33091Y35367D01*
X20909Y46830D02*
X33091Y34649D01*
X26788Y35409D02*
X33091Y41712D01*
X20909Y43238D02*
X33091Y31057D01*
X20909Y44675D02*
X33091Y32494D01*
X20909Y43956D02*
X33091Y31775D01*
X23196Y35409D02*
X33091Y45304D01*
X23915Y35409D02*
X33091Y44585D01*
X21759Y35409D02*
X33091Y46741D01*
X22478Y35409D02*
X33091Y46022D01*
X25352Y35409D02*
X33091Y43148D01*
X26070Y35409D02*
X33091Y42430D01*
X24633Y35409D02*
X33091Y43867D01*
X41586Y27591D02*
X53307Y15869D01*
X40867Y27591D02*
X53069Y15389D01*
X33500Y27591D02*
X51500D01*
X40149D02*
X53050Y14690D01*
X44459Y27591D02*
X54542Y17508D01*
X43741Y27591D02*
X54096Y17236D01*
X43023Y27591D02*
X53908Y16705D01*
X42304Y27591D02*
X53680Y16215D01*
X33210Y27710D02*
X33343Y27622D01*
X33500Y27591D01*
X33091Y28000D02*
X33122Y27843D01*
X33210Y27710D01*
X28409Y19070D02*
X36930Y27591D01*
X28409Y17633D02*
X38367Y27591D01*
X28409Y20507D02*
X35493Y27591D01*
X28409Y19788D02*
X36212Y27591D01*
X34354Y12802D02*
X49143Y27591D01*
X34402D02*
X49190Y12802D01*
X33636D02*
X48425Y27591D01*
X33683D02*
X48472Y12802D01*
X35791D02*
X50580Y27591D01*
X36509Y12802D02*
X51298Y27591D01*
X35073Y12802D02*
X49862Y27591D01*
X35120D02*
X49909Y12802D01*
X30044D02*
X44833Y27591D01*
X30762Y12802D02*
X45551Y27591D01*
X28607Y12802D02*
X43396Y27591D01*
X29325Y12802D02*
X44114Y27591D01*
X32199Y12802D02*
X46988Y27591D01*
X32917Y12802D02*
X47706Y27591D01*
X31481Y12802D02*
X46269Y27591D01*
X28409Y25536D02*
X33091Y30217D01*
X28409Y24817D02*
X33091Y29498D01*
X28409Y26973D02*
X33091Y31654D01*
X28409Y26254D02*
X33091Y30935D01*
X28409Y22662D02*
X33365Y27617D01*
X28409Y21944D02*
X34056Y27591D01*
X28409Y24099D02*
X33091Y28780D01*
X28409Y23381D02*
X33091Y28062D01*
X28409Y29128D02*
X33091Y33809D01*
X28409Y33583D02*
X33091Y28902D01*
X28409Y29846D02*
X33091Y34527D01*
X28409Y34301D02*
X33091Y29620D01*
X28409Y32864D02*
X33091Y28183D01*
X28409Y27691D02*
X33091Y32372D01*
X28409Y28409D02*
X33091Y33091D01*
X28409Y28409D02*
X33091Y33091D01*
X28409Y28554D02*
X44162Y12802D01*
X28409Y27835D02*
X43443Y12802D01*
X28409Y29991D02*
X45598Y12802D01*
X28409Y29272D02*
X44880Y12802D01*
X28409Y14041D02*
X41959Y27591D01*
X28409Y13323D02*
X42677Y27591D01*
X28409Y15478D02*
X40522Y27591D01*
X28409Y14759D02*
X41241Y27591D01*
X28409Y16915D02*
X39085Y27591D01*
X28409Y16196D02*
X39804Y27591D01*
X28409Y21225D02*
X34775Y27591D01*
X28409Y18352D02*
X37648Y27591D01*
X28409Y21369D02*
X36977Y12802D01*
X28409Y20651D02*
X36259Y12802D01*
X28409Y22088D02*
X37696Y12802D01*
X20909Y43899D02*
X25009Y47998D01*
X20909Y43181D02*
X25727Y47998D01*
X20909Y45336D02*
X23572Y47998D01*
X20909Y44617D02*
X24291Y47998D01*
X20909Y41025D02*
X27883Y47998D01*
X20909Y40307D02*
X28601Y47998D01*
X20909Y42462D02*
X26446Y47998D01*
X20909Y41744D02*
X27164Y47998D01*
X20909Y46773D02*
X22135Y47998D01*
X20909Y46054D02*
X22854Y47998D01*
X20909Y47491D02*
X21417Y47998D01*
X20909Y36000D02*
Y47998D01*
X20878Y35843D02*
X20909Y36000D01*
X20790Y35710D02*
X20878Y35843D01*
X20657Y35622D02*
X20790Y35710D01*
X20500Y35591D02*
X20657Y35622D01*
X20909Y41083D02*
X26583Y35409D01*
X20909Y40364D02*
X25864Y35409D01*
X20909Y41801D02*
X27301Y35409D01*
X20909Y42519D02*
X28024Y35405D01*
X28000Y35409D02*
X28157Y35378D01*
X28290Y35290D01*
X20909Y39646D02*
X25146Y35409D01*
X20909Y38927D02*
X24427Y35409D01*
X20909Y36772D02*
X22272Y35409D01*
X20909Y36054D02*
X21554Y35409D01*
X20909Y38209D02*
X23709Y35409D01*
X20909Y37491D02*
X22991Y35409D01*
X20323D02*
X20505Y35591D01*
X20629Y35616D02*
X20835Y35409D01*
X19936Y35591D02*
X20117Y35409D01*
X17062Y35591D02*
X17243Y35409D01*
X17449D02*
X17630Y35591D01*
X16344D02*
X16525Y35409D01*
X16731D02*
X16912Y35591D01*
X17781D02*
X17962Y35409D01*
X18167D02*
X18348Y35591D01*
X10409D02*
X20500D01*
X13500Y35409D02*
X28000D01*
X14188Y35591D02*
X14369Y35409D01*
X14575D02*
X14756Y35591D01*
X13470D02*
X13651Y35409D01*
X13857D02*
X14038Y35591D01*
X15625D02*
X15806Y35409D01*
X16012D02*
X16193Y35591D01*
X14907D02*
X15088Y35409D01*
X15294D02*
X15475Y35591D01*
X18499D02*
X18680Y35409D01*
X18886D02*
X19067Y35591D01*
X12752D02*
X13147Y35195D01*
X10409Y32681D02*
X13319Y35591D01*
X19217D02*
X19398Y35409D01*
X19604D02*
X19785Y35591D01*
X13343Y35378D02*
X13500Y35409D01*
X13210Y35290D02*
X13343Y35378D01*
X10409Y34117D02*
X11883Y35591D01*
X10409Y33399D02*
X12601Y35591D01*
X10409Y34836D02*
X11164Y35591D01*
X10409Y25000D02*
Y35591D01*
X12033D02*
X13091Y34533D01*
X11315Y35591D02*
X13091Y33815D01*
X10596Y35591D02*
X13091Y33096D01*
X28290Y35290D02*
X28378Y35157D01*
X28409Y35000D01*
X13122Y35157D02*
X13210Y35290D01*
X13091Y35000D02*
X13122Y35157D01*
X10409Y31467D02*
X13091Y28786D01*
X10409Y28370D02*
X13091Y31051D01*
X10409Y32185D02*
X13091Y29504D01*
X10409Y29088D02*
X13091Y31769D01*
X10409Y34340D02*
X13091Y31659D01*
X10409Y31244D02*
X13091Y33925D01*
X10409Y35059D02*
X13091Y32378D01*
X10409Y31962D02*
X13091Y34643D01*
X10409Y32904D02*
X13091Y30223D01*
X10409Y29807D02*
X13091Y32488D01*
X10409Y33622D02*
X13091Y30941D01*
X10409Y30525D02*
X13091Y33206D01*
X10409Y26215D02*
X13091Y28896D01*
Y23909D02*
Y35000D01*
X10409Y26933D02*
X13091Y29614D01*
X10409Y29312D02*
X13091Y26630D01*
X11696Y23909D02*
X13091Y25304D01*
X12415Y23909D02*
X13091Y24585D01*
X10409Y28593D02*
X13091Y25912D01*
X10978Y23909D02*
X13091Y26022D01*
X10409Y30030D02*
X13091Y27349D01*
X10409Y25719D02*
X12219Y23909D01*
X10409Y30748D02*
X13091Y28067D01*
X10409Y27652D02*
X13091Y30333D01*
X11199Y15591D02*
X11591Y15199D01*
X10480Y15591D02*
X11591Y14480D01*
X10409Y25001D02*
X11501Y23909D01*
X10409Y27875D02*
X13091Y25194D01*
X10409Y27156D02*
X13091Y24475D01*
X10409Y25496D02*
X13091Y28177D01*
X10378Y24843D02*
X10409Y25000D01*
X10290Y24710D02*
X10378Y24843D01*
X10157Y24622D02*
X10290Y24710D01*
X10000Y24591D02*
X10157Y24622D01*
X6738Y23909D02*
X13091D01*
X7228Y24591D02*
X7909Y23909D01*
X7386D02*
X8067Y24591D01*
X6753Y23995D02*
X7348Y24591D01*
X6770Y24330D02*
X7190Y23909D01*
X6738Y24591D02*
X10000D01*
X10259Y23909D02*
X13091Y26741D01*
X10409Y26438D02*
X12938Y23909D01*
X9541D02*
X13091Y27459D01*
X10085Y24607D02*
X10783Y23909D01*
X9383Y24591D02*
X10064Y23909D01*
X9762Y15591D02*
X11591Y13762D01*
X502Y15591D02*
X11591D01*
X9044D02*
X11591Y13044D01*
X8665Y24591D02*
X9346Y23909D01*
X8823D02*
X9504Y24591D01*
X7946D02*
X8627Y23909D01*
X8104D02*
X8785Y24591D01*
X502Y14152D02*
X1941Y15591D01*
X502Y13433D02*
X2659Y15591D01*
X502Y14870D02*
X1222Y15591D01*
X35838Y27591D02*
X50647Y12782D01*
X36557Y27591D02*
X52746Y11402D01*
X28409Y32146D02*
X47754Y12802D01*
X28409Y31427D02*
X47035Y12802D01*
X38712Y27591D02*
X54901Y11402D01*
X39431Y27591D02*
X55619Y11402D01*
X37275Y27591D02*
X53464Y11402D01*
X37994Y27591D02*
X54183Y11402D01*
X43109Y11698D02*
X45198Y9609D01*
X28409Y7575D02*
X32533Y11698D01*
X28409Y30709D02*
X46317Y12802D01*
X28409Y17777D02*
X33385Y12802D01*
X44546Y11698D02*
X45537Y10708D01*
X43828Y11698D02*
X45297Y10229D01*
X42391Y11698D02*
X45198Y8891D01*
X41673Y11698D02*
X45198Y8173D01*
X40954Y11698D02*
X45198Y7454D01*
X30896Y11698D02*
X42093Y502D01*
X30178Y11698D02*
X41375Y502D01*
X30675D02*
X41872Y11698D01*
X40236D02*
X45250Y6684D01*
X36644Y11698D02*
X47840Y502D01*
X34488Y11698D02*
X45685Y502D01*
X34986D02*
X46183Y11698D01*
X28520Y502D02*
X39717Y11698D01*
X28741D02*
X39938Y502D01*
X28409Y5420D02*
X34688Y11698D01*
X28409Y4702D02*
X35406Y11698D01*
X29459D02*
X40656Y502D01*
X29957D02*
X41154Y11698D01*
X29238Y502D02*
X40435Y11698D01*
X28409Y25680D02*
X41288Y12802D01*
X28409Y24962D02*
X40569Y12802D01*
X28409Y27117D02*
X42725Y12802D01*
X28409Y26398D02*
X42006Y12802D01*
X28409Y22806D02*
X38414Y12802D01*
X28409Y19933D02*
X35540Y12802D01*
X28409Y24243D02*
X39851Y12802D01*
X28409Y23525D02*
X39133Y12802D01*
X28409Y18496D02*
X34104Y12802D01*
X28409Y17059D02*
X32667Y12802D01*
X28409D02*
Y35000D01*
Y19214D02*
X34822Y12802D01*
X28409Y14904D02*
X30512Y12802D01*
X28409Y14185D02*
X29793Y12802D01*
X28409Y16340D02*
X31948Y12802D01*
X28409Y15622D02*
X31230Y12802D01*
X28409Y6857D02*
X33251Y11698D01*
X28409Y6138D02*
X33969Y11698D01*
X28409Y12802D02*
X50500D01*
X24928Y502D02*
X36125Y11698D01*
X27083Y502D02*
X38280Y11698D01*
X27802Y502D02*
X38998Y11698D01*
X25646Y502D02*
X36843Y11698D01*
X26365Y502D02*
X37562Y11698D01*
X28409Y11167D02*
X28941Y11698D01*
X28409Y10449D02*
X29659Y11698D01*
X28409Y13467D02*
X29075Y12802D01*
X28409Y4500D02*
Y11698D01*
Y9012D02*
X31096Y11698D01*
X28409Y8294D02*
X31814Y11698D01*
X28409Y9731D02*
X30377Y11698D01*
X34267Y502D02*
X45464Y11698D01*
X35207D02*
X46404Y502D01*
X33549D02*
X44746Y11698D01*
X33770D02*
X44967Y502D01*
X35925Y11698D02*
X47122Y502D01*
X36423D02*
X45198Y9277D01*
X28409Y11698D02*
X50272D01*
X35704Y502D02*
X45245Y10042D01*
X32112Y502D02*
X43309Y11698D01*
X32333D02*
X43530Y502D01*
X31394D02*
X42591Y11698D01*
X31615D02*
X42812Y502D01*
X32831D02*
X44027Y11698D01*
X33052D02*
X44248Y502D01*
X28409Y5564D02*
X33472Y502D01*
X28409Y4846D02*
X32754Y502D01*
X38799Y11698D02*
X49996Y502D01*
X39517Y11698D02*
X50714Y502D01*
X37362Y11698D02*
X48559Y502D01*
X38081Y11698D02*
X49277Y502D01*
X43607D02*
X51554Y8448D01*
X44325Y502D02*
X52272Y8448D01*
X42170Y502D02*
X46902Y5234D01*
X42888Y502D02*
X47711Y5324D01*
X38578Y502D02*
X45198Y7122D01*
X39296Y502D02*
X45302Y6507D01*
X37141Y502D02*
X45198Y8559D01*
X37860Y502D02*
X45198Y7840D01*
X40733Y502D02*
X45890Y5658D01*
X41452Y502D02*
X46334Y5384D01*
X40015Y502D02*
X45544Y6031D01*
X28378Y4343D02*
X28409Y4500D01*
X28290Y4210D02*
X28378Y4343D01*
X28157Y4122D02*
X28290Y4210D01*
X28000Y4091D02*
X28157Y4122D01*
X23491Y502D02*
X27080Y4091D01*
X24136D02*
X27725Y502D01*
X12000Y4091D02*
X28000D01*
X4500Y502D02*
X70000D01*
X21336D02*
X24925Y4091D01*
X21980D02*
X25569Y502D01*
X20617D02*
X24206Y4091D01*
X21262D02*
X24851Y502D01*
X22773D02*
X26362Y4091D01*
X23417D02*
X27006Y502D01*
X22054D02*
X25643Y4091D01*
X22699D02*
X26288Y502D01*
X28409Y9875D02*
X37783Y502D01*
X28409Y9156D02*
X37064Y502D01*
X28409Y11312D02*
X39219Y502D01*
X28409Y10593D02*
X38501Y502D01*
X28409Y7001D02*
X34909Y502D01*
X28409Y6283D02*
X34190Y502D01*
X28409Y8438D02*
X36346Y502D01*
X28409Y7719D02*
X35627Y502D01*
X25573Y4091D02*
X29162Y502D01*
X28304Y4233D02*
X32035Y502D01*
X24209D02*
X27798Y4091D01*
X24854D02*
X28443Y502D01*
X27009Y4091D02*
X30598Y502D01*
X27728Y4091D02*
X31317Y502D01*
X26291Y4091D02*
X29880Y502D01*
X4992Y7866D02*
X11591Y14464D01*
X5573Y7728D02*
X11591Y13746D01*
X4304Y7896D02*
X11591Y15183D01*
X3296Y15591D02*
X11591Y7296D01*
X6905Y6905D02*
X11591Y11591D01*
X6905Y6905D02*
X11591Y11591D01*
X6077Y7514D02*
X11591Y13027D01*
X6519Y7238D02*
X11591Y12309D01*
X8325Y15591D02*
X11591Y12325D01*
X7607Y15591D02*
X11591Y11607D01*
X6888Y15591D02*
X11591Y10888D01*
X3413Y7723D02*
X11280Y15591D01*
X6170D02*
X11591Y10170D01*
X5452Y15591D02*
X11591Y9452D01*
X4733Y15591D02*
X11591Y8733D01*
X4015Y15591D02*
X11591Y8015D01*
Y4500D02*
Y15591D01*
X7896Y4304D02*
X11591Y7998D01*
X7723Y3413D02*
X11591Y7280D01*
X5531Y502D02*
X11591Y6562D01*
X7795Y5344D02*
X12638Y502D01*
X7902Y4519D02*
X11919Y502D01*
X6249D02*
X11591Y5843D01*
X6967Y502D02*
X11591Y5125D01*
X2578Y15591D02*
X11591Y6578D01*
X7238Y6519D02*
X11591Y10872D01*
X1859Y15591D02*
X11591Y5859D01*
X1141Y15591D02*
X11591Y5141D01*
X7728Y5573D02*
X11591Y9435D01*
X7866Y4992D02*
X11591Y8717D01*
X7514Y6077D02*
X11591Y10154D01*
X502Y9841D02*
X6251Y15591D01*
X502Y9123D02*
X6969Y15591D01*
X502Y11278D02*
X4814Y15591D01*
X502Y10559D02*
X5533Y15591D01*
X502Y12638D02*
X5344Y7795D01*
X502Y6967D02*
X9125Y15591D01*
X502Y8404D02*
X7688Y15591D01*
X502Y7686D02*
X8406Y15591D01*
X502Y11919D02*
X4519Y7902D01*
X502Y11201D02*
X3861Y7841D01*
X502Y12715D02*
X3377Y15591D01*
X502Y11996D02*
X4096Y15591D01*
X502Y9046D02*
X2384Y7163D01*
X502Y8327D02*
X2011Y6818D01*
X502Y10483D02*
X3301Y7683D01*
X502Y9764D02*
X2812Y7453D01*
X502Y15512D02*
X11610Y4403D01*
X502Y14793D02*
X14793Y502D01*
X502Y6249D02*
X9843Y15591D01*
X502Y5531D02*
X10562Y15591D01*
X502Y7609D02*
X1691Y6419D01*
X502Y14075D02*
X14075Y502D01*
X502Y13356D02*
X13356Y502D01*
X502Y6172D02*
X1231Y5442D01*
X502Y4812D02*
X1277Y5587D01*
X502Y6890D02*
X1429Y5963D01*
X502Y4500D02*
Y15591D01*
Y4735D02*
X1120Y4117D01*
X520Y4113D02*
X1104Y4696D01*
X502Y5454D02*
X1115Y4840D01*
X13359Y4091D02*
X16948Y502D01*
X13433D02*
X17022Y4091D01*
X12641D02*
X16230Y502D01*
X12715D02*
X16304Y4091D01*
X14796D02*
X18385Y502D01*
X14870D02*
X18459Y4091D01*
X14078D02*
X17667Y502D01*
X14152D02*
X17741Y4091D01*
X11710Y4210D02*
X11843Y4122D01*
X12000Y4091D01*
X11591Y4500D02*
X11622Y4343D01*
X11710Y4210D01*
X11903Y4110D02*
X15512Y502D01*
X11996D02*
X15585Y4091D01*
X10559Y502D02*
X14148Y4091D01*
X11278Y502D02*
X14867Y4091D01*
X18462Y502D02*
X22051Y4091D01*
X19107D02*
X22696Y502D01*
X17744D02*
X21333Y4091D01*
X18388D02*
X21977Y502D01*
X19899D02*
X23488Y4091D01*
X20544D02*
X24133Y502D01*
X19181D02*
X22769Y4091D01*
X19825D02*
X23414Y502D01*
X16233Y4091D02*
X19822Y502D01*
X16307D02*
X19896Y4091D01*
X15515D02*
X19104Y502D01*
X15588D02*
X19177Y4091D01*
X17025Y502D02*
X20614Y4091D01*
X17670D02*
X21259Y502D01*
X16952Y4091D02*
X20540Y502D01*
X2055Y1336D02*
X2481Y1762D01*
X2484Y1047D02*
X2923Y1486D01*
X789Y3011D02*
X3011Y789D01*
X3502Y628D02*
X4008Y1134D01*
X4113Y520D02*
X4696Y1104D01*
X2964Y808D02*
X3427Y1272D01*
X3133Y1385D02*
X3983Y535D01*
X808Y2964D02*
X1272Y3427D01*
X1047Y2484D02*
X1486Y2923D01*
X628Y3502D02*
X1134Y4008D01*
X535Y3983D02*
X1385Y3133D01*
X1673Y1673D02*
X2095Y2095D01*
X1673Y1673D02*
X2095Y2095D01*
X1336Y2055D02*
X1762Y2481D01*
X9123Y502D02*
X12712Y4091D01*
X9841Y502D02*
X13430Y4091D01*
X7686Y502D02*
X11606Y4422D01*
X8404Y502D02*
X11994Y4092D01*
X7683Y3301D02*
X10483Y502D01*
X7841Y3861D02*
X11201Y502D01*
X7163Y2384D02*
X9046Y502D01*
X7453Y2812D02*
X9764Y502D01*
X6419Y1691D02*
X7609Y502D01*
X6818Y2011D02*
X8327Y502D01*
X4812D02*
X5587Y1277D01*
X5963Y1429D02*
X6890Y502D01*
X4840Y1115D02*
X5454Y502D01*
X5442Y1231D02*
X6172Y502D01*
X4117Y1120D02*
X4735Y502D01*
D11*
X57000Y10850D02*
D03*
Y12150D02*
D03*
D12*
Y28600D02*
D03*
D13*
X69100Y11000D02*
D03*
X70900D02*
D03*
D14*
X70000Y4500D02*
X70750Y5250D01*
Y10850D01*
X70900Y11000D01*
X47725Y9000D02*
X57500D01*
X47100Y8375D02*
X47725Y9000D01*
X57500D02*
X58405Y9905D01*
Y13595D01*
X57000Y15000D02*
X58405Y13595D01*
X57000Y12150D02*
Y12845D01*
X57000Y12845D01*
X57000D02*
Y15000D01*
X14900Y9625D02*
X17525Y12250D01*
X50500D02*
X51900Y10850D01*
X17525Y12250D02*
X50500D01*
X14900Y8375D02*
Y9625D01*
X51900Y10850D02*
X57000D01*
X69210Y16960D02*
X69500Y16670D01*
X54601Y16960D02*
X69210D01*
X54460Y16819D02*
X54601Y16960D01*
X54460Y15000D02*
Y16819D01*
X69500Y21750D02*
Y26750D01*
D15*
X54460Y5000D02*
D03*
X57000D02*
D03*
X59540D02*
D03*
D16*
X69500Y16670D02*
D03*
Y21750D02*
D03*
Y31830D02*
D03*
Y26750D02*
D03*
D17*
X70000Y4500D02*
D03*
X4500Y44000D02*
D03*
X70000D02*
D03*
X4500Y4500D02*
D03*
D18*
X57000Y32050D02*
D03*
D19*
X59540Y15000D02*
D03*
X57000D02*
D03*
X54460D02*
D03*
D20*
X20875Y31750D02*
D03*
X41125D02*
D03*
D21*
X14900Y8375D02*
D03*
X47100D02*
D03*
D22*
X18180Y44040D02*
D03*
Y41500D02*
D03*
Y38960D02*
D03*
X13100D02*
D03*
Y41500D02*
D03*
Y44040D02*
D03*
X48900D02*
D03*
Y41500D02*
D03*
Y38960D02*
D03*
X43820D02*
D03*
Y41500D02*
D03*
Y44040D02*
D03*
D23*
X5045Y24250D02*
D03*
D24*
X6250Y18210D02*
D03*
X3750D02*
D03*
X6250Y21710D02*
D03*
X3750D02*
D03*
X6250Y26790D02*
D03*
X3750D02*
D03*
X6250Y30290D02*
D03*
X3750D02*
D03*
%TF.MD5,15aae87e2e576a75eb52fd6f25ebd95b*%
M02*
