%TF.GenerationSoftware,Altium Limited,Altium Designer,25.2.1 (25)*%
G04 Layer_Color=128*
%FSLAX43Y43*%
%MOMM*%
%TF.SameCoordinates,2635E17B-F086-4753-8714-BA37E3CCEC02*%
%TF.FilePolarity,Positive*%
%TF.FileFunction,Drillmap*%
%TF.Part,Single*%
G01*
G75*
%TA.AperFunction,NonConductor*%
%ADD74C,0.127*%
D74*
X64665Y67290D02*
X65415D01*
X65040Y66915D02*
Y67665D01*
X62125Y64750D02*
X62875D01*
X62500Y64375D02*
Y65125D01*
X64665Y62210D02*
X65415D01*
X65040Y61835D02*
Y62585D01*
X37329Y65000D02*
X38091D01*
X37710Y64619D02*
Y65381D01*
X42409Y65000D02*
X43171D01*
X42790Y64619D02*
Y65381D01*
X39869Y65000D02*
X40631D01*
X40250Y64619D02*
Y65381D01*
X90350Y58450D02*
X91650D01*
X91000Y57800D02*
Y59100D01*
X90350Y53370D02*
X91650D01*
X91000Y52720D02*
Y54020D01*
X90350Y48370D02*
X91650D01*
X91000Y47720D02*
Y49020D01*
X90350Y43290D02*
X91650D01*
X91000Y42640D02*
Y43940D01*
X90350Y38290D02*
X91650D01*
X91000Y37640D02*
Y38940D01*
X90350Y33210D02*
X91650D01*
X91000Y32560D02*
Y33860D01*
X90350Y28210D02*
X91650D01*
X91000Y27560D02*
Y28860D01*
X90350Y23130D02*
X91650D01*
X91000Y22480D02*
Y23780D01*
X90350Y18130D02*
X91650D01*
X91000Y17480D02*
Y18780D01*
X90350Y13050D02*
X91650D01*
X91000Y12400D02*
Y13700D01*
X56930Y6500D02*
X58230D01*
X57580Y5850D02*
Y7150D01*
X51850Y6500D02*
X53150D01*
X52500Y5850D02*
Y7150D01*
X41625Y18600D02*
X43375D01*
X42500Y17725D02*
Y19475D01*
X41625Y3400D02*
X43375D01*
X42500Y2525D02*
Y4275D01*
X74220Y46000D02*
X76870D01*
X75545Y44675D02*
Y47325D01*
X75950Y39960D02*
X77550D01*
X76750Y39160D02*
Y40760D01*
X73450Y39960D02*
X75050D01*
X74250Y39160D02*
Y40760D01*
X75950Y43460D02*
X77550D01*
X76750Y42660D02*
Y44260D01*
X73450Y43460D02*
X75050D01*
X74250Y42660D02*
Y44260D01*
X75950Y48540D02*
X77550D01*
X76750Y47740D02*
Y49340D01*
X73450Y48540D02*
X75050D01*
X74250Y47740D02*
Y49340D01*
X75950Y52040D02*
X77550D01*
X76750Y51240D02*
Y52840D01*
X73450Y52040D02*
X75050D01*
X74250Y51240D02*
Y52840D01*
X49079Y65000D02*
X49841D01*
X49460Y64619D02*
Y65381D01*
X54159Y65000D02*
X54921D01*
X54540Y64619D02*
Y65381D01*
X51619Y65000D02*
X52381D01*
X52000Y64619D02*
Y65381D01*
X7350Y13420D02*
X8650D01*
X8000Y12770D02*
Y14070D01*
X7350Y18500D02*
X8650D01*
X8000Y17850D02*
Y19150D01*
X73450Y30040D02*
X75050D01*
X74250Y29240D02*
Y30840D01*
X75950Y30040D02*
X77550D01*
X76750Y29240D02*
Y30840D01*
X73450Y26540D02*
X75050D01*
X74250Y25740D02*
Y27340D01*
X75950Y26540D02*
X77550D01*
X76750Y25740D02*
Y27340D01*
X73450Y21460D02*
X75050D01*
X74250Y20660D02*
Y22260D01*
X75950Y21460D02*
X77550D01*
X76750Y20660D02*
Y22260D01*
X73450Y17960D02*
X75050D01*
X74250Y17160D02*
Y18760D01*
X75950Y17960D02*
X77550D01*
X76750Y17160D02*
Y18760D01*
X74220Y24000D02*
X76870D01*
X75545Y22675D02*
Y25325D01*
X33740Y47250D02*
X35340D01*
X34540Y46450D02*
Y48050D01*
X33740Y44750D02*
X35340D01*
X34540Y43950D02*
Y45550D01*
X30240Y47250D02*
X31840D01*
X31040Y46450D02*
Y48050D01*
X30240Y44750D02*
X31840D01*
X31040Y43950D02*
Y45550D01*
X25160Y47250D02*
X26760D01*
X25960Y46450D02*
Y48050D01*
X25160Y44750D02*
X26760D01*
X25960Y43950D02*
Y45550D01*
X21660Y47250D02*
X23260D01*
X22460Y46450D02*
Y48050D01*
X21660Y44750D02*
X23260D01*
X22460Y43950D02*
Y45550D01*
X27175Y45955D02*
X29825D01*
X28500Y44630D02*
Y47280D01*
X33740Y55250D02*
X35340D01*
X34540Y54450D02*
Y56050D01*
X33740Y52750D02*
X35340D01*
X34540Y51950D02*
Y53550D01*
X30240Y55250D02*
X31840D01*
X31040Y54450D02*
Y56050D01*
X30240Y52750D02*
X31840D01*
X31040Y51950D02*
Y53550D01*
X25160Y55250D02*
X26760D01*
X25960Y54450D02*
Y56050D01*
X25160Y52750D02*
X26760D01*
X25960Y51950D02*
Y53550D01*
X21660Y55250D02*
X23260D01*
X22460Y54450D02*
Y56050D01*
X21660Y52750D02*
X23260D01*
X22460Y51950D02*
Y53550D01*
X27175Y53955D02*
X29825D01*
X28500Y52630D02*
Y55280D01*
X27250Y4500D02*
X29750D01*
X28500Y3250D02*
Y5750D01*
X19860Y4500D02*
X22360D01*
X21110Y3250D02*
Y5750D01*
X34640Y4500D02*
X37140D01*
X35890Y3250D02*
Y5750D01*
X23800Y22740D02*
X25300D01*
X24550Y21990D02*
Y23490D01*
X31700Y22740D02*
X33200D01*
X32450Y21990D02*
Y23490D01*
X33740Y31250D02*
X35340D01*
X34540Y30450D02*
Y32050D01*
X33740Y28750D02*
X35340D01*
X34540Y27950D02*
Y29550D01*
X30240Y31250D02*
X31840D01*
X31040Y30450D02*
Y32050D01*
X30240Y28750D02*
X31840D01*
X31040Y27950D02*
Y29550D01*
X25160Y31250D02*
X26760D01*
X25960Y30450D02*
Y32050D01*
X25160Y28750D02*
X26760D01*
X25960Y27950D02*
Y29550D01*
X21660Y31250D02*
X23260D01*
X22460Y30450D02*
Y32050D01*
X21660Y28750D02*
X23260D01*
X22460Y27950D02*
Y29550D01*
X27175Y29955D02*
X29825D01*
X28500Y28630D02*
Y31280D01*
X33740Y39250D02*
X35340D01*
X34540Y38450D02*
Y40050D01*
X33740Y36750D02*
X35340D01*
X34540Y35950D02*
Y37550D01*
X30240Y39250D02*
X31840D01*
X31040Y38450D02*
Y40050D01*
X30240Y36750D02*
X31840D01*
X31040Y35950D02*
Y37550D01*
X25160Y39250D02*
X26760D01*
X25960Y38450D02*
Y40050D01*
X25160Y36750D02*
X26760D01*
X25960Y35950D02*
Y37550D01*
X21660Y39250D02*
X23260D01*
X22460Y38450D02*
Y40050D01*
X21660Y36750D02*
X23260D01*
X22460Y35950D02*
Y37550D01*
X27175Y37955D02*
X29825D01*
X28500Y36630D02*
Y39280D01*
X7350Y38460D02*
X8650D01*
X8000Y37810D02*
Y39110D01*
X7350Y33380D02*
X8650D01*
X8000Y32730D02*
Y34030D01*
X7350Y48540D02*
X8650D01*
X8000Y47890D02*
Y49190D01*
X7350Y43460D02*
X8650D01*
X8000Y42810D02*
Y44110D01*
X7350Y58620D02*
X8650D01*
X8000Y57970D02*
Y59270D01*
X7350Y53540D02*
X8650D01*
X8000Y52890D02*
Y54190D01*
X92750Y66500D02*
X96250D01*
X94500Y64750D02*
Y68250D01*
X2750Y66500D02*
X6250D01*
X4500Y64750D02*
Y68250D01*
X79100Y63000D02*
X80400D01*
X79750Y62350D02*
Y63650D01*
X74020Y63000D02*
X75320D01*
X74670Y62350D02*
Y63650D01*
X2750Y4500D02*
X6250D01*
X4500Y2750D02*
Y6250D01*
X92750Y4500D02*
X96250D01*
X94500Y2750D02*
Y6250D01*
X47850Y32263D02*
X48150D01*
X48000Y32112D02*
Y32412D01*
X47850Y51513D02*
X48150D01*
X48000Y51362D02*
Y51662D01*
X88850Y7000D02*
X89150D01*
X89000Y6850D02*
Y7150D01*
X18050Y64000D02*
X18350D01*
X18200Y63850D02*
Y64150D01*
X18100Y68000D02*
X18400D01*
X18250Y67850D02*
Y68150D01*
X52850Y52250D02*
X53150D01*
X53000Y52100D02*
Y52400D01*
X44850Y51000D02*
X45150D01*
X45000Y50850D02*
Y51150D01*
X42100Y58250D02*
X42400D01*
X42250Y58100D02*
Y58400D01*
X41600Y37500D02*
X41900D01*
X41750Y37350D02*
Y37650D01*
X67600Y23050D02*
X67900D01*
X67750Y22900D02*
Y23200D01*
X62100Y23050D02*
X62400D01*
X62250Y22900D02*
Y23200D01*
X67600Y35200D02*
X67900D01*
X67750Y35050D02*
Y35350D01*
X62100Y35200D02*
X62400D01*
X62250Y35050D02*
Y35350D01*
X62100Y42300D02*
X62400D01*
X62250Y42150D02*
Y42450D01*
X67600Y42300D02*
X67900D01*
X67750Y42150D02*
Y42450D01*
X67600Y54450D02*
X67900D01*
X67750Y54300D02*
Y54600D01*
X62100Y54450D02*
X62400D01*
X62250Y54300D02*
Y54600D01*
X54350Y49750D02*
X54650D01*
X54500Y49600D02*
Y49900D01*
X65600Y11250D02*
X65900D01*
X65750Y11100D02*
Y11400D01*
X75850Y7000D02*
X76150D01*
X76000Y6850D02*
Y7150D01*
X11850Y64500D02*
X12150D01*
X12000Y64350D02*
Y64650D01*
X40850Y45750D02*
X41150D01*
X41000Y45600D02*
Y45900D01*
X43350Y45750D02*
X43650D01*
X43500Y45600D02*
Y45900D01*
X42100Y45750D02*
X42400D01*
X42250Y45600D02*
Y45900D01*
X47849Y58250D02*
X48150D01*
X48000Y58100D02*
Y58400D01*
X52849Y57250D02*
X53150D01*
X53000Y57100D02*
Y57401D01*
X52850Y53250D02*
X53150D01*
X53000Y53100D02*
Y53400D01*
X72100Y31750D02*
X72400D01*
X72250Y31600D02*
Y31900D01*
X72100Y28750D02*
X72400D01*
X72250Y28600D02*
Y28900D01*
X72100Y25750D02*
X72400D01*
X72250Y25600D02*
Y25900D01*
X70600Y31750D02*
X70900D01*
X70750Y31600D02*
Y31900D01*
X71350Y30250D02*
X71650D01*
X71500Y30100D02*
Y30400D01*
X70600Y28750D02*
X70900D01*
X70750Y28600D02*
Y28900D01*
X71350Y27250D02*
X71650D01*
X71500Y27100D02*
Y27400D01*
X70600Y25750D02*
X70900D01*
X70750Y25600D02*
Y25900D01*
X69100Y31750D02*
X69400D01*
X69250Y31600D02*
Y31900D01*
X69850Y30250D02*
X70150D01*
X70000Y30100D02*
Y30400D01*
X69100Y28750D02*
X69400D01*
X69250Y28600D02*
Y28900D01*
X69100Y25750D02*
X69400D01*
X69250Y25600D02*
Y25900D01*
X67600Y31750D02*
X67900D01*
X67750Y31600D02*
Y31900D01*
X66100Y31750D02*
X66400D01*
X66250Y31600D02*
Y31900D01*
X66100Y28750D02*
X66400D01*
X66250Y28600D02*
Y28900D01*
X66100Y25750D02*
X66400D01*
X66250Y25600D02*
Y25900D01*
X64600Y31750D02*
X64900D01*
X64750Y31600D02*
Y31900D01*
X64600Y28750D02*
X64900D01*
X64750Y28600D02*
Y28900D01*
X65350Y27250D02*
X65650D01*
X65500Y27100D02*
Y27400D01*
X64600Y25750D02*
X64900D01*
X64750Y25600D02*
Y25900D01*
X63100Y31750D02*
X63400D01*
X63250Y31600D02*
Y31900D01*
X63850Y30250D02*
X64150D01*
X64000Y30100D02*
Y30400D01*
X63100Y28750D02*
X63400D01*
X63250Y28600D02*
Y28900D01*
X63100Y25750D02*
X63400D01*
X63250Y25600D02*
Y25900D01*
X61600Y31750D02*
X61900D01*
X61750Y31600D02*
Y31900D01*
X61600Y25750D02*
X61900D01*
X61750Y25600D02*
Y25900D01*
X60100Y31750D02*
X60400D01*
X60250Y31600D02*
Y31900D01*
X60100Y28750D02*
X60400D01*
X60250Y28600D02*
Y28900D01*
X60100Y25750D02*
X60400D01*
X60250Y25600D02*
Y25900D01*
X58600Y28750D02*
X58900D01*
X58750Y28600D02*
Y28900D01*
X59350Y27250D02*
X59650D01*
X59500Y27100D02*
Y27400D01*
X58600Y25750D02*
X58900D01*
X58750Y25600D02*
Y25900D01*
X57100Y28750D02*
X57400D01*
X57250Y28600D02*
Y28900D01*
X57850Y27250D02*
X58150D01*
X58000Y27100D02*
Y27400D01*
X57100Y25750D02*
X57400D01*
X57250Y25600D02*
Y25900D01*
X57100Y22750D02*
X57400D01*
X57250Y22600D02*
Y22900D01*
X55600Y28750D02*
X55900D01*
X55750Y28600D02*
Y28900D01*
X56350Y27250D02*
X56650D01*
X56500Y27100D02*
Y27400D01*
X55600Y25750D02*
X55900D01*
X55750Y25600D02*
Y25900D01*
X56350Y24250D02*
X56650D01*
X56500Y24100D02*
Y24400D01*
X54100Y28750D02*
X54400D01*
X54250Y28600D02*
Y28900D01*
X54850Y27250D02*
X55150D01*
X55000Y27100D02*
Y27400D01*
X54100Y25750D02*
X54400D01*
X54250Y25600D02*
Y25900D01*
X54850Y24250D02*
X55150D01*
X55000Y24100D02*
Y24400D01*
X54100Y22750D02*
X54400D01*
X54250Y22600D02*
Y22900D01*
X52600Y28750D02*
X52900D01*
X52750Y28600D02*
Y28900D01*
X52600Y22750D02*
X52900D01*
X52750Y22600D02*
Y22900D01*
X52600Y42250D02*
X52900D01*
X52750Y42100D02*
Y42400D01*
X72100Y51250D02*
X72400D01*
X72250Y51100D02*
Y51400D01*
X72850Y49750D02*
X73150D01*
X73000Y49600D02*
Y49900D01*
X72100Y48250D02*
X72400D01*
X72250Y48100D02*
Y48400D01*
X70600Y51250D02*
X70900D01*
X70750Y51100D02*
Y51400D01*
X71350Y49750D02*
X71650D01*
X71500Y49600D02*
Y49900D01*
X70600Y48250D02*
X70900D01*
X70750Y48100D02*
Y48400D01*
X69100Y51250D02*
X69400D01*
X69250Y51100D02*
Y51400D01*
X69850Y49750D02*
X70150D01*
X70000Y49600D02*
Y49900D01*
X69100Y48250D02*
X69400D01*
X69250Y48100D02*
Y48400D01*
X66100Y51250D02*
X66400D01*
X66250Y51100D02*
Y51400D01*
X66100Y48250D02*
X66400D01*
X66250Y48100D02*
Y48400D01*
X64600Y51250D02*
X64900D01*
X64750Y51100D02*
Y51400D01*
X64600Y48250D02*
X64900D01*
X64750Y48100D02*
Y48400D01*
X65350Y46750D02*
X65650D01*
X65500Y46600D02*
Y46900D01*
X63850Y49750D02*
X64150D01*
X64000Y49600D02*
Y49900D01*
X63100Y48250D02*
X63400D01*
X63250Y48100D02*
Y48400D01*
X61600Y48250D02*
X61900D01*
X61750Y48100D02*
Y48400D01*
X60100Y51250D02*
X60400D01*
X60250Y51100D02*
Y51400D01*
X60100Y48250D02*
X60400D01*
X60250Y48100D02*
Y48400D01*
X60850Y46750D02*
X61150D01*
X61000Y46600D02*
Y46900D01*
X58600Y48250D02*
X58900D01*
X58750Y48100D02*
Y48400D01*
X59350Y46750D02*
X59650D01*
X59500Y46600D02*
Y46900D01*
X57100Y48250D02*
X57400D01*
X57250Y48100D02*
Y48400D01*
X57850Y46750D02*
X58150D01*
X58000Y46600D02*
Y46900D01*
X57100Y45250D02*
X57400D01*
X57250Y45100D02*
Y45400D01*
X57100Y42250D02*
X57400D01*
X57250Y42100D02*
Y42400D01*
X55600Y48250D02*
X55900D01*
X55750Y48100D02*
Y48400D01*
X56350Y46750D02*
X56650D01*
X56500Y46600D02*
Y46900D01*
X55600Y45250D02*
X55900D01*
X55750Y45100D02*
Y45400D01*
X56350Y43750D02*
X56650D01*
X56500Y43600D02*
Y43900D01*
X55600Y42250D02*
X55900D01*
X55750Y42100D02*
Y42400D01*
X54100Y48250D02*
X54400D01*
X54250Y48100D02*
Y48400D01*
X54850Y46750D02*
X55150D01*
X55000Y46600D02*
Y46900D01*
X54100Y45250D02*
X54400D01*
X54250Y45100D02*
Y45400D01*
X54850Y43750D02*
X55150D01*
X55000Y43600D02*
Y43900D01*
X54100Y42250D02*
X54400D01*
X54250Y42100D02*
Y42400D01*
X52600Y48250D02*
X52900D01*
X52750Y48100D02*
Y48400D01*
X49150Y31737D02*
X49450D01*
X49300Y31587D02*
Y31888D01*
X46550Y31737D02*
X46850D01*
X46700Y31587D02*
Y31888D01*
X46549Y50988D02*
X46849D01*
X46700Y50838D02*
Y51138D01*
X49150Y50988D02*
X49450D01*
X49299Y50838D02*
Y51138D01*
X47600Y49750D02*
X47900D01*
X47750Y49600D02*
Y49900D01*
X48100Y48750D02*
X48400D01*
X48250Y48600D02*
Y48900D01*
X47600Y47750D02*
X47900D01*
X47750Y47600D02*
Y47900D01*
X48100Y46750D02*
X48400D01*
X48250Y46600D02*
Y46900D01*
X47600Y41750D02*
X47900D01*
X47750Y41600D02*
Y41900D01*
X46600Y49750D02*
X46900D01*
X46750Y49600D02*
Y49900D01*
X47100Y48750D02*
X47400D01*
X47250Y48600D02*
Y48900D01*
X46600Y47750D02*
X46900D01*
X46750Y47600D02*
Y47900D01*
X47100Y46750D02*
X47400D01*
X47250Y46600D02*
Y46900D01*
X46600Y41750D02*
X46900D01*
X46750Y41600D02*
Y41900D01*
X47600Y30750D02*
X47900D01*
X47750Y30600D02*
Y30900D01*
X48100Y29750D02*
X48400D01*
X48250Y29600D02*
Y29900D01*
X47600Y28750D02*
X47900D01*
X47750Y28600D02*
Y28900D01*
X48100Y27750D02*
X48400D01*
X48250Y27600D02*
Y27900D01*
X47600Y26750D02*
X47900D01*
X47750Y26600D02*
Y26900D01*
X47600Y22750D02*
X47900D01*
X47750Y22600D02*
Y22900D01*
X47100Y29750D02*
X47400D01*
X47250Y29600D02*
Y29900D01*
X46600Y28750D02*
X46900D01*
X46750Y28600D02*
Y28900D01*
X47100Y27750D02*
X47400D01*
X47250Y27600D02*
Y27900D01*
X46600Y26750D02*
X46900D01*
X46750Y26600D02*
Y26900D01*
X46600Y22750D02*
X46900D01*
X46750Y22600D02*
Y22900D01*
X47850Y34000D02*
X48150D01*
X48000Y33850D02*
Y34150D01*
X47850Y53250D02*
X48150D01*
X48000Y53100D02*
Y53400D01*
X65350Y5250D02*
X65650D01*
X65500Y5100D02*
Y5400D01*
X52350Y34000D02*
X52650D01*
X52500Y33850D02*
Y34150D01*
X44850Y32000D02*
X45150D01*
X45000Y31850D02*
Y32150D01*
X51100Y35250D02*
X51400D01*
X51250Y35100D02*
Y35400D01*
X44350Y56500D02*
X44650D01*
X44500Y56350D02*
Y56650D01*
X51850Y37750D02*
X52150D01*
X52000Y37600D02*
Y37900D01*
%TF.MD5,9727530a0fcc67754419c5afa81a2186*%
M02*
