%TF.GenerationSoftware,Altium Limited,Altium Designer,25.2.1 (25)*%
G04 Layer_Color=32768*
%FSLAX43Y43*%
%MOMM*%
%TF.SameCoordinates,F6CCAD97-2817-417F-9CE8-614266E95915*%
%TF.FilePolarity,Positive*%
%TF.FileFunction,Other,Mechanical_15*%
%TF.Part,Single*%
G01*
G75*
%TA.AperFunction,NonConductor*%
%ADD55C,0.127*%
%ADD56C,0.100*%
%ADD61C,0.152*%
%ADD98C,0.050*%
G36*
X18736Y60476D02*
X19739D01*
Y58825D01*
X18736D01*
Y57148D01*
X13732D01*
Y58825D01*
X12729D01*
Y60476D01*
X13732D01*
Y62152D01*
X18736D01*
Y60476D01*
D02*
G37*
G36*
Y44826D02*
X19739D01*
Y43174D01*
X18736D01*
Y41498D01*
X13732D01*
Y43174D01*
X12729D01*
Y44826D01*
X13732D01*
Y46502D01*
X18736D01*
Y44826D01*
D02*
G37*
G36*
X11250Y41250D02*
X2550D01*
Y53250D01*
X11250D01*
Y41250D01*
D02*
G37*
G36*
X25304Y42924D02*
X23589D01*
Y47776D01*
X25304D01*
Y48296D01*
X31196D01*
Y47776D01*
X32911D01*
Y42924D01*
X31196D01*
Y42404D01*
X25304D01*
Y42924D01*
D02*
G37*
G36*
X25037Y75189D02*
Y78112D01*
X26562D01*
Y75189D01*
X25037D01*
D02*
G37*
G36*
X66610Y44320D02*
X64096D01*
Y44767D01*
X63194D01*
Y47683D01*
X64096D01*
Y48130D01*
X66610D01*
Y47683D01*
X67512D01*
Y44767D01*
X66610D01*
Y44320D01*
D02*
G37*
D55*
X18500Y65425D02*
Y69425D01*
X11600D02*
X18500D01*
X11600Y65425D02*
Y69425D01*
Y65425D02*
X18500D01*
D56*
X28730Y49075D02*
X32730D01*
X28730Y51575D02*
X32730D01*
Y49075D02*
Y51575D01*
X28730Y49075D02*
Y51575D01*
X38675Y36600D02*
Y38200D01*
Y36600D02*
X40675D01*
Y38200D01*
X38675D02*
X40675D01*
X52700Y29375D02*
X53650D01*
X53175Y28900D02*
Y29850D01*
X64100Y11200D02*
Y12150D01*
X63625Y11675D02*
X64575D01*
X21975Y34250D02*
Y35200D01*
X21500Y34725D02*
X22450D01*
X19675Y34250D02*
Y35200D01*
X19200Y34725D02*
X20150D01*
X60150Y11600D02*
X61100D01*
X60625Y11125D02*
Y12075D01*
X54950Y28950D02*
Y29900D01*
X54475Y29425D02*
X55425D01*
X63600Y36250D02*
X64550D01*
X64075Y35775D02*
Y36725D01*
X63625Y18450D02*
X64575D01*
X64100Y17975D02*
Y18925D01*
X60250Y29475D02*
X61200D01*
X60725Y29000D02*
Y29950D01*
X63500Y29475D02*
X64450D01*
X63975Y29000D02*
Y29950D01*
X71075Y11164D02*
Y12114D01*
X70600Y11639D02*
X71550D01*
X71075Y31600D02*
Y32550D01*
X70600Y32075D02*
X71550D01*
X60775Y35775D02*
Y36725D01*
X60300Y36250D02*
X61250D01*
X71000Y18000D02*
Y18950D01*
X70525Y18475D02*
X71475D01*
X71031Y24764D02*
Y25714D01*
X70556Y25239D02*
X71506D01*
X60750Y17975D02*
Y18925D01*
X60275Y18450D02*
X61225D01*
X4175Y47275D02*
X5125D01*
X4650Y46800D02*
Y47750D01*
X1950Y35675D02*
X2900D01*
X2425Y35200D02*
Y36150D01*
X9775Y35650D02*
X10725D01*
X10250Y35175D02*
Y36125D01*
X9950Y23275D02*
X10900D01*
X10425Y22800D02*
Y23750D01*
X2000Y23300D02*
X2950D01*
X2475Y22825D02*
Y23775D01*
X46900Y26075D02*
X47850D01*
X47375Y25600D02*
Y26550D01*
X50000Y5025D02*
Y5975D01*
X49525Y5500D02*
X50475D01*
X27750Y32150D02*
X28700D01*
X28225Y31675D02*
Y32625D01*
X39200Y33675D02*
X40150D01*
X39675Y33200D02*
Y34150D01*
X33325Y37200D02*
Y38150D01*
X32850Y37675D02*
X33800D01*
X39200Y35375D02*
X40150D01*
X39675Y34900D02*
Y35850D01*
X31625Y37225D02*
Y38175D01*
X31150Y37700D02*
X32100D01*
X34225Y47550D02*
Y48500D01*
X33750Y48025D02*
X34700D01*
X39850Y15975D02*
Y16925D01*
X39375Y16450D02*
X40325D01*
X45200Y19950D02*
X46150D01*
X45675Y19475D02*
Y20425D01*
X39025Y19200D02*
Y20150D01*
X38550Y19675D02*
X39500D01*
X46925Y27925D02*
X47875D01*
X47400Y27450D02*
Y28400D01*
X28350Y24800D02*
X29300D01*
X28825Y24325D02*
Y25275D01*
X35475Y16450D02*
X36425D01*
X35950Y15975D02*
Y16925D01*
X27150Y27900D02*
Y28850D01*
X26675Y28375D02*
X27625D01*
X47400Y33550D02*
Y34500D01*
X46925Y34025D02*
X47875D01*
X42425Y33375D02*
X43375D01*
X42900Y32900D02*
Y33850D01*
X42425Y36900D02*
X43375D01*
X42900Y36425D02*
Y37375D01*
X47400Y31850D02*
Y32800D01*
X46925Y32325D02*
X47875D01*
X35350Y19225D02*
Y20175D01*
X34875Y19700D02*
X35825D01*
X36850Y19675D02*
X37800D01*
X37325Y19200D02*
Y20150D01*
X25525Y49875D02*
Y50825D01*
X25050Y50350D02*
X26000D01*
X34525Y37700D02*
X35475D01*
X35000Y37225D02*
Y38175D01*
X24575Y70375D02*
Y74375D01*
X27075Y70375D02*
Y74375D01*
X24575Y70375D02*
X27075D01*
X24575Y74375D02*
X27075D01*
X10350Y66325D02*
Y67275D01*
X9875Y66800D02*
X10825D01*
X4650Y61550D02*
Y62500D01*
X4175Y62025D02*
X5125D01*
X72375Y45900D02*
Y46850D01*
X71900Y46375D02*
X72850D01*
X68775Y45900D02*
Y46850D01*
X68300Y46375D02*
X69250D01*
X70575Y45900D02*
Y46850D01*
X70100Y46375D02*
X71050D01*
X70475Y40100D02*
Y41050D01*
X70000Y40575D02*
X70950D01*
X62075Y45900D02*
Y46850D01*
X61600Y46375D02*
X62550D01*
X58475Y45900D02*
Y46850D01*
X58000Y46375D02*
X58950D01*
X60275Y45900D02*
Y46850D01*
X59800Y46375D02*
X60750D01*
X58475Y41000D02*
Y41950D01*
X58000Y41475D02*
X58950D01*
X59700Y41475D02*
X60650D01*
X60175Y41000D02*
Y41950D01*
X36150Y37700D02*
X37100D01*
X36625Y37225D02*
Y38175D01*
D61*
X13732Y46502D02*
X18736D01*
X13732Y44826D02*
Y46502D01*
Y41498D02*
Y43174D01*
Y41498D02*
X18736D01*
Y43174D01*
Y44826D02*
Y46502D01*
Y44826D02*
X19739D01*
X12729D02*
X13732D01*
X12729Y43174D02*
Y44826D01*
Y43174D02*
X13732D01*
X18736D02*
X19739D01*
Y44826D01*
X23589Y42924D02*
X25304D01*
Y42404D02*
Y42924D01*
Y42404D02*
X31196D01*
Y42924D01*
X32911D01*
Y47776D01*
X31196D02*
X32911D01*
X31196D02*
Y48296D01*
X25304D02*
X31196D01*
X25304Y47776D02*
Y48296D01*
X23589Y47776D02*
X25304D01*
X23589Y42924D02*
Y47776D01*
X64096Y44320D02*
Y44767D01*
X63194D02*
X64096D01*
X63194D02*
Y47683D01*
X64096D01*
Y48130D01*
X66610D01*
Y47683D02*
Y48130D01*
Y47683D02*
X67512D01*
Y44767D02*
Y47683D01*
X66610Y44767D02*
X67512D01*
X66610Y44320D02*
Y44767D01*
X64096Y44320D02*
X66610D01*
X12729Y58825D02*
Y60476D01*
X13732D01*
X18736D02*
X19739D01*
Y58825D02*
Y60476D01*
X18736Y58825D02*
X19739D01*
X12729D02*
X13732D01*
Y57148D02*
Y58825D01*
Y60476D02*
Y62152D01*
X18736D01*
Y60476D02*
Y62152D01*
Y57148D02*
Y58825D01*
X13732Y57148D02*
X18736D01*
D98*
X8355Y54847D02*
Y60252D01*
X945Y54847D02*
Y60252D01*
Y54847D02*
X8355D01*
X945Y60252D02*
X8355D01*
X29050Y62100D02*
X41650D01*
X29050D02*
Y66240D01*
X27420D02*
X29050D01*
X27420D02*
Y70060D01*
X29050D01*
Y78800D01*
X41650D01*
Y70060D02*
Y78800D01*
Y70060D02*
X43280D01*
Y66240D02*
Y70060D01*
X41650Y66240D02*
X43280D01*
X41650Y62100D02*
Y66240D01*
X15575Y15675D02*
Y26475D01*
X9575D02*
X15575D01*
X9575Y15675D02*
Y26475D01*
Y15675D02*
X15575D01*
X33565Y23431D02*
X41775D01*
X33565Y31641D02*
X41775D01*
X33565Y23431D02*
Y31641D01*
X41775Y23431D02*
Y31641D01*
X13141Y47075D02*
X20141D01*
X13141D02*
Y56075D01*
X20141D01*
Y47075D02*
Y56075D01*
X62845Y39950D02*
Y43400D01*
X68305Y39950D02*
Y43400D01*
X62845D02*
X68305D01*
X62845Y39950D02*
X68305D01*
X35875Y11375D02*
Y14675D01*
X39975D01*
Y11375D02*
Y14675D01*
X35875Y11375D02*
X39975D01*
X38870Y59190D02*
Y60710D01*
X35940D02*
X38870D01*
X35940Y59190D02*
Y60710D01*
Y59190D02*
X38870D01*
X53925Y27825D02*
Y30925D01*
X52425Y27825D02*
Y30925D01*
Y27825D02*
X53925D01*
X52425Y30925D02*
X53925D01*
X62550Y12425D02*
X65650D01*
X62550Y10925D02*
X65650D01*
Y12425D01*
X62550Y10925D02*
Y12425D01*
X50190Y27650D02*
X58010D01*
X50190Y20550D02*
X58010D01*
Y27650D01*
X50190Y20550D02*
Y27650D01*
X21225Y36275D02*
X22725D01*
X21225Y33175D02*
X22725D01*
X21225D02*
Y36275D01*
X22725Y33175D02*
Y36275D01*
X18925Y33175D02*
X20425D01*
X18925Y36275D02*
X20425D01*
Y33175D02*
Y36275D01*
X18925Y33175D02*
Y36275D01*
X16840Y25100D02*
Y32200D01*
X24660Y25100D02*
Y32200D01*
X16840Y25100D02*
X24660D01*
X16840Y32200D02*
X24660D01*
X59075Y10850D02*
Y12350D01*
X62175Y10850D02*
Y12350D01*
X59075Y10850D02*
X62175D01*
X59075Y12350D02*
X62175D01*
X54200Y30975D02*
X55700D01*
X54200Y27875D02*
X55700D01*
X54200D02*
Y30975D01*
X55700Y27875D02*
Y30975D01*
X7375Y28075D02*
Y38875D01*
X1375D02*
X7375D01*
X1375Y28075D02*
Y38875D01*
Y28075D02*
X7375D01*
X62525Y35500D02*
Y37000D01*
X65625Y35500D02*
Y37000D01*
X62525Y35500D02*
X65625D01*
X62525Y37000D02*
X65625D01*
X62550Y17700D02*
Y19200D01*
X65650Y17700D02*
Y19200D01*
X62550Y17700D02*
X65650D01*
X62550Y19200D02*
X65650D01*
X59175Y28725D02*
Y30225D01*
X62275Y28725D02*
Y30225D01*
X59175Y28725D02*
X62275D01*
X59175Y30225D02*
X62275D01*
X62425Y28725D02*
Y30225D01*
X65525Y28725D02*
Y30225D01*
X62425Y28725D02*
X65525D01*
X62425Y30225D02*
X65525D01*
X7375Y15675D02*
Y26475D01*
X1375D02*
X7375D01*
X1375Y15675D02*
Y26475D01*
Y15675D02*
X7375D01*
X9575Y28075D02*
X15575D01*
X9575D02*
Y38875D01*
X15575D01*
Y28075D02*
Y38875D01*
X69525Y10889D02*
X72625D01*
X69525Y12389D02*
X72625D01*
X69525Y10889D02*
Y12389D01*
X72625Y10889D02*
Y12389D01*
X69525Y31325D02*
X72625D01*
X69525Y32825D02*
X72625D01*
X69525Y31325D02*
Y32825D01*
X72625Y31325D02*
Y32825D01*
X59225Y37000D02*
X62325D01*
X59225Y35500D02*
X62325D01*
Y37000D01*
X59225Y35500D02*
Y37000D01*
X69450Y17725D02*
X72550D01*
X69450Y19225D02*
X72550D01*
X69450Y17725D02*
Y19225D01*
X72550Y17725D02*
Y19225D01*
X69481Y24489D02*
X72581D01*
X69481Y25989D02*
X72581D01*
X69481Y24489D02*
Y25989D01*
X72581Y24489D02*
Y25989D01*
X59200Y19200D02*
X62300D01*
X59200Y17700D02*
X62300D01*
Y19200D01*
X59200Y17700D02*
Y19200D01*
X5400Y45725D02*
Y48825D01*
X3900Y45725D02*
Y48825D01*
Y45725D02*
X5400D01*
X3900Y48825D02*
X5400D01*
X3175Y34125D02*
Y37225D01*
X1675Y34125D02*
Y37225D01*
Y34125D02*
X3175D01*
X1675Y37225D02*
X3175D01*
X11000Y34100D02*
Y37200D01*
X9500Y34100D02*
Y37200D01*
Y34100D02*
X11000D01*
X9500Y37200D02*
X11000D01*
X11175Y21725D02*
Y24825D01*
X9675Y21725D02*
Y24825D01*
Y21725D02*
X11175D01*
X9675Y24825D02*
X11175D01*
X3225Y21750D02*
Y24850D01*
X1725Y21750D02*
Y24850D01*
Y21750D02*
X3225D01*
X1725Y24850D02*
X3225D01*
X45825Y25325D02*
Y26825D01*
X48925Y25325D02*
Y26825D01*
X45825D02*
X48925D01*
X45825Y25325D02*
X48925D01*
X49250Y3950D02*
X50750D01*
X49250Y7050D02*
X50750D01*
X49250Y3950D02*
Y7050D01*
X50750Y3950D02*
Y7050D01*
X29775Y31400D02*
Y32900D01*
X26675Y31400D02*
Y32900D01*
Y31400D02*
X29775D01*
X26675Y32900D02*
X29775D01*
X38125Y32925D02*
Y34425D01*
X41225Y32925D02*
Y34425D01*
X38125D02*
X41225D01*
X38125Y32925D02*
X41225D01*
X32575Y36125D02*
X34075D01*
X32575Y39225D02*
X34075D01*
X32575Y36125D02*
Y39225D01*
X34075Y36125D02*
Y39225D01*
X38125Y34625D02*
Y36125D01*
X41225Y34625D02*
Y36125D01*
X38125D02*
X41225D01*
X38125Y34625D02*
X41225D01*
X30875Y36150D02*
X32375D01*
X30875Y39250D02*
X32375D01*
X30875Y36150D02*
Y39250D01*
X32375Y36150D02*
Y39250D01*
X33475Y46475D02*
X34975D01*
X33475Y49575D02*
X34975D01*
X33475Y46475D02*
Y49575D01*
X34975Y46475D02*
Y49575D01*
X38300Y15700D02*
X41400D01*
X38300Y17200D02*
X41400D01*
Y15700D02*
Y17200D01*
X38300Y15700D02*
Y17200D01*
X44125Y19200D02*
Y20700D01*
X47225Y19200D02*
Y20700D01*
X44125D02*
X47225D01*
X44125Y19200D02*
X47225D01*
X38275Y21225D02*
X39775D01*
X38275Y18125D02*
X39775D01*
Y21225D01*
X38275Y18125D02*
Y21225D01*
X45850Y27175D02*
Y28675D01*
X48950Y27175D02*
Y28675D01*
X45850D02*
X48950D01*
X45850Y27175D02*
X48950D01*
X30375Y24050D02*
Y25550D01*
X27275Y24050D02*
Y25550D01*
Y24050D02*
X30375D01*
X27275Y25550D02*
X30375D01*
X37500Y15700D02*
Y17200D01*
X34400Y15700D02*
Y17200D01*
Y15700D02*
X37500D01*
X34400Y17200D02*
X37500D01*
X25600Y29125D02*
X28700D01*
X25600Y27625D02*
X28700D01*
X25600D02*
Y29125D01*
X28700Y27625D02*
Y29125D01*
X45850Y33275D02*
X48950D01*
X45850Y34775D02*
X48950D01*
Y33275D02*
Y34775D01*
X45850Y33275D02*
Y34775D01*
X42150Y31825D02*
Y34925D01*
X43650Y31825D02*
Y34925D01*
X42150Y31825D02*
X43650D01*
X42150Y34925D02*
X43650D01*
X42150Y35350D02*
Y38450D01*
X43650Y35350D02*
Y38450D01*
X42150Y35350D02*
X43650D01*
X42150Y38450D02*
X43650D01*
X45850Y31575D02*
X48950D01*
X45850Y33075D02*
X48950D01*
Y31575D02*
Y33075D01*
X45850Y31575D02*
Y33075D01*
X34600Y21250D02*
X36100D01*
X34600Y18150D02*
X36100D01*
Y21250D01*
X34600Y18150D02*
Y21250D01*
X38075Y18125D02*
Y21225D01*
X36575Y18125D02*
Y21225D01*
X38075D01*
X36575Y18125D02*
X38075D01*
X23975Y49600D02*
X27075D01*
X23975Y51100D02*
X27075D01*
Y49600D02*
Y51100D01*
X23975Y49600D02*
Y51100D01*
X34250Y36150D02*
Y39250D01*
X35750Y36150D02*
Y39250D01*
X34250Y36150D02*
X35750D01*
X34250Y39250D02*
X35750D01*
X9600Y65250D02*
X11100D01*
X9600Y68350D02*
X11100D01*
X9600Y65250D02*
Y68350D01*
X11100Y65250D02*
Y68350D01*
X3100Y62775D02*
X6200D01*
X3100Y61275D02*
X6200D01*
X3100D02*
Y62775D01*
X6200Y61275D02*
Y62775D01*
X32755Y59190D02*
Y60710D01*
Y59190D02*
X35685D01*
Y60710D01*
X32755D02*
X35685D01*
X71625Y47925D02*
X73125D01*
X71625Y44825D02*
X73125D01*
Y47925D01*
X71625Y44825D02*
Y47925D01*
X68025D02*
X69525D01*
X68025Y44825D02*
X69525D01*
Y47925D01*
X68025Y44825D02*
Y47925D01*
X69825Y47925D02*
X71325D01*
X69825Y44825D02*
X71325D01*
Y47925D01*
X69825Y44825D02*
Y47925D01*
X69725Y42125D02*
X71225D01*
X69725Y39025D02*
X71225D01*
Y42125D01*
X69725Y39025D02*
Y42125D01*
X61325Y47925D02*
X62825D01*
X61325Y44825D02*
X62825D01*
Y47925D01*
X61325Y44825D02*
Y47925D01*
X57725D02*
X59225D01*
X57725Y44825D02*
X59225D01*
Y47925D01*
X57725Y44825D02*
Y47925D01*
X59525D02*
X61025D01*
X59525Y44825D02*
X61025D01*
Y47925D01*
X59525Y44825D02*
Y47925D01*
X57725Y43025D02*
X59225D01*
X57725Y39925D02*
X59225D01*
Y43025D01*
X57725Y39925D02*
Y43025D01*
X60925Y39925D02*
Y43025D01*
X59425Y39925D02*
Y43025D01*
X60925D01*
X59425Y39925D02*
X60925D01*
X35875Y36150D02*
Y39250D01*
X37375Y36150D02*
Y39250D01*
X35875Y36150D02*
X37375D01*
X35875Y39250D02*
X37375D01*
%TF.MD5,89fdbe817215d2c983ecbcf3b591c9b9*%
M02*
