%TF.GenerationSoftware,Altium Limited,Altium Designer,24.9.1 (31)*%
G04 Layer_Color=16711935*
%FSLAX43Y43*%
%MOMM*%
%TF.SameCoordinates,04BDF6C9-F0B3-4FCF-A2E1-49DD01746DB9*%
%TF.FilePolarity,Positive*%
%TF.FileFunction,Keep-out,Top*%
%TF.Part,Single*%
G01*
G75*
%TA.AperFunction,NonConductor*%
%ADD95C,0.500*%
G36*
X16996Y44622D02*
Y43378D01*
X15472D01*
Y44622D01*
X16996D01*
D02*
G37*
G36*
X15472Y59028D02*
Y60272D01*
X16996D01*
Y59028D01*
X15472D01*
D02*
G37*
D95*
X74500Y76230D02*
G03*
X73602Y78398I-3066J0D01*
G01*
D02*
G03*
X70942Y79500I-2660J-2660D01*
G01*
X71230Y-4000D02*
G03*
X73398Y-3102I0J3066D01*
G01*
D02*
G03*
X74500Y-442I-2660J2660D01*
G01*
X-730Y79500D02*
G03*
X-2898Y78602I0J-3066D01*
G01*
X-3102Y78398D02*
G03*
X-4000Y76230I2168J-2168D01*
G01*
X-2898Y-3102D02*
G03*
X-730Y-4000I2168J2168D01*
G01*
X-4000Y-730D02*
G03*
X-3102Y-2898I3066J0D01*
G01*
X74500Y-442D02*
Y76500D01*
X-1000Y-4000D02*
X71500D01*
X-730Y79500D02*
X70942D01*
X-3102Y78398D02*
X-2898Y78602D01*
X-4000Y-730D02*
Y76230D01*
X-3102Y-2898D02*
X-2898Y-3102D01*
%TF.MD5,9c8af1fcd0e973d77a48b217c9af12c2*%
M02*
