%TF.GenerationSoftware,Altium Limited,Altium Designer,24.9.1 (31)*%
G04 Layer_Color=8421504*
%FSLAX43Y43*%
%MOMM*%
%TF.SameCoordinates,04BDF6C9-F0B3-4FCF-A2E1-49DD01746DB9*%
%TF.FilePolarity,Positive*%
%TF.FileFunction,Paste,Top*%
%TF.Part,Single*%
G01*
G75*
%TA.AperFunction,SMDPad,CuDef*%
G04:AMPARAMS|DCode=10|XSize=1.97mm|YSize=0.6mm|CornerRadius=0.075mm|HoleSize=0mm|Usage=FLASHONLY|Rotation=0.000|XOffset=0mm|YOffset=0mm|HoleType=Round|Shape=RoundedRectangle|*
%AMROUNDEDRECTD10*
21,1,1.970,0.450,0,0,0.0*
21,1,1.820,0.600,0,0,0.0*
1,1,0.150,0.910,-0.225*
1,1,0.150,-0.910,-0.225*
1,1,0.150,-0.910,0.225*
1,1,0.150,0.910,0.225*
%
%ADD10ROUNDEDRECTD10*%
%ADD11R,1.168X0.533*%
%ADD12R,2.184X1.143*%
%ADD13R,1.500X3.200*%
G04:AMPARAMS|DCode=14|XSize=1.016mm|YSize=1.397mm|CornerRadius=0.127mm|HoleSize=0mm|Usage=FLASHONLY|Rotation=270.000|XOffset=0mm|YOffset=0mm|HoleType=Round|Shape=RoundedRectangle|*
%AMROUNDEDRECTD14*
21,1,1.016,1.143,0,0,270.0*
21,1,0.762,1.397,0,0,270.0*
1,1,0.254,-0.572,-0.381*
1,1,0.254,-0.572,0.381*
1,1,0.254,0.572,0.381*
1,1,0.254,0.572,-0.381*
%
%ADD14ROUNDEDRECTD14*%
%ADD15R,1.000X1.600*%
G04:AMPARAMS|DCode=16|XSize=0.2mm|YSize=0.81mm|CornerRadius=0.025mm|HoleSize=0mm|Usage=FLASHONLY|Rotation=0.000|XOffset=0mm|YOffset=0mm|HoleType=Round|Shape=RoundedRectangle|*
%AMROUNDEDRECTD16*
21,1,0.200,0.760,0,0,0.0*
21,1,0.150,0.810,0,0,0.0*
1,1,0.050,0.075,-0.380*
1,1,0.050,-0.075,-0.380*
1,1,0.050,-0.075,0.380*
1,1,0.050,0.075,0.380*
%
%ADD16ROUNDEDRECTD16*%
G04:AMPARAMS|DCode=17|XSize=0.81mm|YSize=0.2mm|CornerRadius=0.025mm|HoleSize=0mm|Usage=FLASHONLY|Rotation=0.000|XOffset=0mm|YOffset=0mm|HoleType=Round|Shape=RoundedRectangle|*
%AMROUNDEDRECTD17*
21,1,0.810,0.150,0,0,0.0*
21,1,0.760,0.200,0,0,0.0*
1,1,0.050,0.380,-0.075*
1,1,0.050,-0.380,-0.075*
1,1,0.050,-0.380,0.075*
1,1,0.050,0.380,0.075*
%
%ADD17ROUNDEDRECTD17*%
%ADD19R,1.500X2.000*%
%ADD20R,3.800X2.000*%
%ADD21R,1.524X0.533*%
%ADD22R,1.003X0.508*%
G04:AMPARAMS|DCode=23|XSize=1.42mm|YSize=0.4mm|CornerRadius=0.05mm|HoleSize=0mm|Usage=FLASHONLY|Rotation=180.000|XOffset=0mm|YOffset=0mm|HoleType=Round|Shape=RoundedRectangle|*
%AMROUNDEDRECTD23*
21,1,1.420,0.300,0,0,180.0*
21,1,1.320,0.400,0,0,180.0*
1,1,0.100,-0.660,0.150*
1,1,0.100,0.660,0.150*
1,1,0.100,0.660,-0.150*
1,1,0.100,-0.660,-0.150*
%
%ADD23ROUNDEDRECTD23*%
%ADD24R,1.300X1.050*%
G04:AMPARAMS|DCode=25|XSize=0.87mm|YSize=1.02mm|CornerRadius=0.109mm|HoleSize=0mm|Usage=FLASHONLY|Rotation=180.000|XOffset=0mm|YOffset=0mm|HoleType=Round|Shape=RoundedRectangle|*
%AMROUNDEDRECTD25*
21,1,0.870,0.803,0,0,180.0*
21,1,0.653,1.020,0,0,180.0*
1,1,0.217,-0.326,0.401*
1,1,0.217,0.326,0.401*
1,1,0.217,0.326,-0.401*
1,1,0.217,-0.326,-0.401*
%
%ADD25ROUNDEDRECTD25*%
%ADD26R,1.000X0.950*%
%ADD27R,1.000X1.050*%
%ADD28R,0.950X1.000*%
%ADD29R,1.050X1.000*%
%ADD94R,2.160X2.160*%
G36*
X29996Y50925D02*
X30504D01*
Y49725D01*
X29949D01*
X29855Y49740D01*
X29766Y49769D01*
X29682Y49812D01*
X29605Y49867D01*
X29538Y49934D01*
X29483Y50011D01*
X29440Y50095D01*
X29411Y50185D01*
X29396Y50278D01*
Y50372D01*
X29411Y50465D01*
X29440Y50555D01*
X29483Y50639D01*
X29538Y50716D01*
X29605Y50783D01*
X29682Y50838D01*
X29766Y50881D01*
X29855Y50910D01*
X29949Y50925D01*
X29996Y50925D01*
D02*
G37*
G36*
X31604Y50910D02*
X31694Y50881D01*
X31778Y50838D01*
X31855Y50783D01*
X31922Y50716D01*
X31977Y50639D01*
X32020Y50555D01*
X32049Y50465D01*
X32064Y50372D01*
Y50278D01*
X32049Y50185D01*
X32020Y50095D01*
X31977Y50011D01*
X31922Y49934D01*
X31855Y49867D01*
X31778Y49812D01*
X31694Y49769D01*
X31604Y49740D01*
X31511Y49725D01*
X30956D01*
Y50925D01*
X31464D01*
X31464Y50925D01*
X31511D01*
X31604Y50910D01*
D02*
G37*
G36*
X26425Y71641D02*
X26425Y71641D01*
Y71594D01*
X26410Y71501D01*
X26381Y71411D01*
X26338Y71327D01*
X26283Y71250D01*
X26216Y71183D01*
X26139Y71128D01*
X26055Y71085D01*
X25965Y71056D01*
X25872Y71041D01*
X25778D01*
X25684Y71056D01*
X25595Y71085D01*
X25511Y71128D01*
X25434Y71183D01*
X25367Y71250D01*
X25312Y71327D01*
X25269Y71411D01*
X25240Y71501D01*
X25225Y71594D01*
Y71641D01*
Y72149D01*
X26425D01*
Y71641D01*
D02*
G37*
G36*
X25965Y73694D02*
X26055Y73665D01*
X26139Y73622D01*
X26216Y73567D01*
X26283Y73500D01*
X26338Y73423D01*
X26381Y73339D01*
X26410Y73249D01*
X26425Y73156D01*
X26425Y73109D01*
Y72601D01*
X25225D01*
Y73109D01*
Y73109D01*
Y73156D01*
X25240Y73249D01*
X25269Y73339D01*
X25312Y73423D01*
X25367Y73500D01*
X25434Y73567D01*
X25511Y73622D01*
X25595Y73665D01*
X25684Y73694D01*
X25778Y73709D01*
X25872D01*
X25965Y73694D01*
D02*
G37*
D10*
X7120Y59455D02*
D03*
Y58185D02*
D03*
Y56915D02*
D03*
Y55645D02*
D03*
X2180D02*
D03*
Y56915D02*
D03*
Y58185D02*
D03*
Y59455D02*
D03*
D11*
X5483Y66644D02*
D03*
X7515Y67594D02*
D03*
Y65694D02*
D03*
D12*
X14075Y44000D02*
D03*
X18393D02*
D03*
X14075Y59650D02*
D03*
X18393D02*
D03*
D13*
X17150Y67425D02*
D03*
X12950D02*
D03*
D14*
X25800Y75761D02*
D03*
Y77539D02*
D03*
D15*
X40675Y37400D02*
D03*
X38675D02*
D03*
D16*
X34870Y24086D02*
D03*
X35270D02*
D03*
X35670D02*
D03*
X36070D02*
D03*
X36470D02*
D03*
X36870D02*
D03*
X37270D02*
D03*
X37670D02*
D03*
X38070D02*
D03*
X38470D02*
D03*
X38870D02*
D03*
X39270D02*
D03*
X39670D02*
D03*
X40070D02*
D03*
X40470D02*
D03*
Y30986D02*
D03*
X40070D02*
D03*
X39670D02*
D03*
X39270D02*
D03*
X38870D02*
D03*
X38470D02*
D03*
X38070D02*
D03*
X37670D02*
D03*
X37270D02*
D03*
X36870D02*
D03*
X36470D02*
D03*
X36070D02*
D03*
X35670D02*
D03*
X35270D02*
D03*
X34870D02*
D03*
D17*
X34220Y30336D02*
D03*
Y29936D02*
D03*
Y29536D02*
D03*
Y29136D02*
D03*
Y28736D02*
D03*
Y28336D02*
D03*
Y27936D02*
D03*
Y27536D02*
D03*
Y27136D02*
D03*
Y26736D02*
D03*
Y26336D02*
D03*
Y25936D02*
D03*
Y25536D02*
D03*
Y25136D02*
D03*
Y24736D02*
D03*
X41120D02*
D03*
Y25136D02*
D03*
Y25536D02*
D03*
Y25936D02*
D03*
Y26336D02*
D03*
Y26736D02*
D03*
Y27136D02*
D03*
Y27536D02*
D03*
Y27936D02*
D03*
Y28336D02*
D03*
Y28736D02*
D03*
Y29136D02*
D03*
Y29536D02*
D03*
Y29936D02*
D03*
Y30336D02*
D03*
D19*
X16641Y54725D02*
D03*
X18941D02*
D03*
X14341D02*
D03*
D20*
X16641Y48425D02*
D03*
D21*
X31895Y47255D02*
D03*
Y45985D02*
D03*
Y44715D02*
D03*
Y43445D02*
D03*
X24605D02*
D03*
Y44715D02*
D03*
Y45985D02*
D03*
Y47255D02*
D03*
D22*
X63975Y47175D02*
D03*
Y46225D02*
D03*
Y45275D02*
D03*
X66731D02*
D03*
Y47175D02*
D03*
D23*
X63805Y40700D02*
D03*
Y41350D02*
D03*
Y42000D02*
D03*
Y42650D02*
D03*
X67345D02*
D03*
Y42000D02*
D03*
Y41350D02*
D03*
Y40700D02*
D03*
D24*
X39075Y13900D02*
D03*
X36775D02*
D03*
Y12150D02*
D03*
X39075D02*
D03*
D25*
X38185Y59950D02*
D03*
X36625D02*
D03*
X33440D02*
D03*
X35000D02*
D03*
D26*
X46575Y26075D02*
D03*
X48175D02*
D03*
X29025Y32150D02*
D03*
X27425D02*
D03*
X38875Y33675D02*
D03*
X40475D02*
D03*
X38875Y35375D02*
D03*
X40475D02*
D03*
X40650Y16450D02*
D03*
X39050D02*
D03*
X44875Y19950D02*
D03*
X46475D02*
D03*
X46600Y27925D02*
D03*
X48200D02*
D03*
X29625Y24800D02*
D03*
X28025D02*
D03*
X36750Y16450D02*
D03*
X35150D02*
D03*
X26350Y28375D02*
D03*
X27950D02*
D03*
X48200Y34025D02*
D03*
X46600D02*
D03*
X48200Y32325D02*
D03*
X46600D02*
D03*
X3850Y62025D02*
D03*
X5450D02*
D03*
D27*
X50000Y4700D02*
D03*
Y6300D02*
D03*
X42900Y36100D02*
D03*
Y37700D02*
D03*
X37325Y20475D02*
D03*
Y18875D02*
D03*
X35000Y36900D02*
D03*
Y38500D02*
D03*
X72375Y47175D02*
D03*
Y45575D02*
D03*
X70575Y47175D02*
D03*
Y45575D02*
D03*
X70475Y41375D02*
D03*
Y39775D02*
D03*
X58475Y47175D02*
D03*
Y45575D02*
D03*
X60275Y47175D02*
D03*
Y45575D02*
D03*
X58475Y42275D02*
D03*
Y40675D02*
D03*
X36625Y36900D02*
D03*
Y38500D02*
D03*
D28*
X33325Y36875D02*
D03*
Y38475D02*
D03*
X31625Y36900D02*
D03*
Y38500D02*
D03*
X34225Y47225D02*
D03*
Y48825D02*
D03*
X39025Y20475D02*
D03*
Y18875D02*
D03*
X42900Y32575D02*
D03*
Y34175D02*
D03*
X35350Y20500D02*
D03*
Y18900D02*
D03*
X10350Y66000D02*
D03*
Y67600D02*
D03*
X68775Y47175D02*
D03*
Y45575D02*
D03*
X62075Y47175D02*
D03*
Y45575D02*
D03*
X60175Y42275D02*
D03*
Y40675D02*
D03*
D29*
X26325Y50350D02*
D03*
X24725D02*
D03*
D94*
X37670Y27536D02*
D03*
%TF.MD5,bad16ab4508a74017fe91f786984dfee*%
M02*
