%TF.GenerationSoftware,Altium Limited,Altium Designer,25.2.1 (25)*%
G04 Layer_Color=16711833*
%FSLAX43Y43*%
%MOMM*%
%TF.SameCoordinates,956CF245-2F1B-4B54-ACDE-2406063FE020*%
%TF.FilePolarity,Positive*%
%TF.FileFunction,Other,Mechanical_13*%
%TF.Part,Single*%
G01*
G75*
%TA.AperFunction,NonConductor*%
%ADD21C,0.200*%
%ADD22C,0.127*%
%ADD36C,0.300*%
%ADD37C,0.050*%
%ADD38C,0.100*%
D21*
X103616Y50165D02*
G03*
X103616Y50165I-100J0D01*
G01*
D22*
X100432Y38125D02*
Y43383D01*
X103276D01*
X100432Y38125D02*
X103276D01*
Y43383D01*
X102616Y49765D02*
Y50565D01*
X101016Y49765D02*
X102616D01*
X101016D02*
Y50565D01*
X102616D01*
D36*
X102754Y42367D02*
G03*
X102754Y42367I-100J0D01*
G01*
D37*
X92328Y39665D02*
X92878D01*
Y40815D01*
X92328D02*
X92878D01*
X92328Y45965D02*
X92878D01*
Y44815D02*
Y45965D01*
X92328Y40815D02*
Y44815D01*
X92878D01*
X92328Y37465D02*
Y39665D01*
Y48165D02*
X93228D01*
X92328Y45965D02*
Y48165D01*
X87728Y35665D02*
X93228D01*
X87728D02*
Y49965D01*
X93228D01*
Y48165D02*
Y49965D01*
Y35665D02*
Y37465D01*
X92328D02*
X93228D01*
D38*
X101017Y47531D02*
Y48481D01*
X102767Y47531D02*
Y48481D01*
X101017D02*
X102767D01*
X101017Y47531D02*
X102767D01*
X102729Y36355D02*
Y37305D01*
X100979Y36355D02*
Y37305D01*
Y36355D02*
X102729D01*
X100979Y37305D02*
X102729D01*
X100979Y43975D02*
Y44925D01*
X102729Y43975D02*
Y44925D01*
X100979D02*
X102729D01*
X100979Y43975D02*
X102729D01*
X100979Y45753D02*
X102729D01*
X100979Y46703D02*
X102729D01*
Y45753D02*
Y46703D01*
X100979Y45753D02*
Y46703D01*
X87663Y47700D02*
X88613D01*
X87663Y45950D02*
X88613D01*
X87663D02*
Y47700D01*
X88613Y45950D02*
Y47700D01*
%TF.MD5,cfb01cffa97d5b94447e66e02de64442*%
M02*
