%TF.GenerationSoftware,Altium Limited,Altium Designer,25.2.1 (25)*%
G04 Layer_Physical_Order=1*
G04 Layer_Color=255*
%FSLAX43Y43*%
%MOMM*%
%TF.SameCoordinates,956CF245-2F1B-4B54-ACDE-2406063FE020*%
%TF.FilePolarity,Positive*%
%TF.FileFunction,Copper,L1,Top,Signal*%
%TF.Part,Single*%
G01*
G75*
%TA.AperFunction,BGAPad,CuDef*%
%ADD10R,0.500X0.500*%
%TA.AperFunction,SMDPad,CuDef*%
%ADD11R,0.800X0.800*%
%ADD12R,1.050X1.000*%
%ADD13R,1.000X0.950*%
%TA.AperFunction,Conductor*%
%ADD14C,0.254*%
%TA.AperFunction,ComponentPad*%
%ADD15O,1.905X1.397*%
%ADD16R,1.905X1.397*%
%TA.AperFunction,ViaPad*%
%ADD17C,4.170*%
%ADD18C,1.270*%
G36*
X89662Y54303D02*
X103632Y54303D01*
X103651Y54307D01*
X103970Y54276D01*
X104416Y54140D01*
X104828Y53920D01*
X105189Y53624D01*
X105485Y53263D01*
X105705Y52852D01*
X105840Y52405D01*
X105874Y52063D01*
Y33179D01*
X105838Y32809D01*
X105702Y32363D01*
X105482Y31951D01*
X105186Y31590D01*
X104825Y31294D01*
X104413Y31074D01*
X103967Y30939D01*
X103625Y30905D01*
X89662D01*
X89622Y30897D01*
X89197Y30939D01*
X88751Y31074D01*
X88339Y31294D01*
X87978Y31590D01*
X87682Y31951D01*
X87462Y32363D01*
X87327Y32809D01*
X87293Y33153D01*
Y52063D01*
X87327Y52405D01*
X87462Y52852D01*
X87682Y53263D01*
X87978Y53624D01*
X88339Y53920D01*
X88751Y54140D01*
X89197Y54276D01*
X89601Y54315D01*
X89662Y54303D01*
D02*
G37*
%LPC*%
G36*
X103316Y50865D02*
X101916D01*
Y49881D01*
X101824Y49843D01*
X101716Y49951D01*
Y50865D01*
X100316D01*
Y49465D01*
X100974D01*
X100981Y49454D01*
X101583Y48852D01*
X101545Y48760D01*
X101219D01*
Y48006D01*
Y47252D01*
X101867D01*
Y47206D01*
X102886D01*
X102924Y47114D01*
X102813Y47003D01*
X101854Y47003D01*
X101773Y46957D01*
X101754Y46957D01*
X101181D01*
Y46228D01*
Y45499D01*
X101773Y45499D01*
X101854Y45453D01*
X101889Y45453D01*
X102219D01*
Y45296D01*
X102148Y45225D01*
X101854Y45225D01*
X101773Y45179D01*
X101754Y45179D01*
X101181D01*
Y44450D01*
Y43721D01*
X101773Y43721D01*
X101854Y43675D01*
X101889Y43675D01*
X102838D01*
X103854Y42659D01*
X103777Y42525D01*
X103713Y42287D01*
Y42050D01*
X103647Y41983D01*
X103204D01*
Y42117D01*
X103158D01*
Y42240D01*
X102654D01*
Y42494D01*
X103158D01*
Y42871D01*
X102996D01*
X102974Y42982D01*
X102879Y43123D01*
X102697Y43306D01*
X102556Y43400D01*
X102389Y43433D01*
X101319D01*
X101152Y43400D01*
X101011Y43306D01*
X100829Y43123D01*
X100734Y42982D01*
X100712Y42871D01*
X100550D01*
Y42494D01*
X101054D01*
Y42240D01*
X100550D01*
Y42117D01*
X100504D01*
Y41980D01*
X100367D01*
X98225Y44123D01*
X98084Y44217D01*
X97917Y44250D01*
X91832D01*
X91804Y44319D01*
X91644Y44527D01*
X91436Y44687D01*
X91258Y44761D01*
Y44869D01*
X91436Y44943D01*
X91644Y45103D01*
X91804Y45311D01*
X91905Y45554D01*
X91939Y45815D01*
X91905Y46076D01*
X91804Y46319D01*
X91644Y46527D01*
X91436Y46687D01*
X91254Y46763D01*
X91274Y46862D01*
X91884D01*
Y47688D01*
X90678D01*
X89471D01*
Y46862D01*
X90082D01*
X90102Y46763D01*
X89920Y46687D01*
X89712Y46527D01*
X89552Y46319D01*
X89451Y46076D01*
X89417Y45815D01*
X89451Y45554D01*
X89552Y45311D01*
X89712Y45103D01*
X89920Y44943D01*
X90098Y44869D01*
Y44761D01*
X89920Y44687D01*
X89712Y44527D01*
X89552Y44319D01*
X89451Y44076D01*
X89417Y43815D01*
X89451Y43554D01*
X89552Y43311D01*
X89712Y43103D01*
X89920Y42943D01*
X90098Y42869D01*
Y42761D01*
X89920Y42687D01*
X89712Y42527D01*
X89552Y42319D01*
X89451Y42076D01*
X89417Y41815D01*
X89451Y41554D01*
X89552Y41311D01*
X89712Y41103D01*
X89920Y40943D01*
X90098Y40869D01*
Y40761D01*
X89920Y40687D01*
X89712Y40527D01*
X89552Y40319D01*
X89451Y40076D01*
X89417Y39815D01*
X89451Y39554D01*
X89552Y39311D01*
X89712Y39103D01*
X89920Y38943D01*
X90098Y38869D01*
Y38761D01*
X89920Y38687D01*
X89712Y38527D01*
X89552Y38319D01*
X89451Y38076D01*
X89417Y37815D01*
X89451Y37554D01*
X89552Y37311D01*
X89712Y37103D01*
X89920Y36943D01*
X90163Y36842D01*
X90424Y36808D01*
X90932D01*
X91193Y36842D01*
X91436Y36943D01*
X91644Y37103D01*
X91804Y37311D01*
X91832Y37380D01*
X100016D01*
X100229Y37166D01*
Y36030D01*
X101879D01*
Y36076D01*
X102527D01*
Y36830D01*
Y37584D01*
X101879D01*
Y37630D01*
X101489D01*
Y38617D01*
X103204D01*
Y38770D01*
X103827D01*
X103994Y38803D01*
X104135Y38897D01*
X104354Y39116D01*
X104525Y39070D01*
X104771D01*
X105009Y39134D01*
X105222Y39257D01*
X105396Y39431D01*
X105519Y39644D01*
X105583Y39882D01*
Y40128D01*
X105519Y40366D01*
X105396Y40579D01*
X105222Y40753D01*
X105009Y40876D01*
X104771Y40940D01*
X104525D01*
X104287Y40876D01*
X104074Y40753D01*
X103900Y40579D01*
X103777Y40366D01*
X103713Y40128D01*
Y39882D01*
X103750Y39744D01*
X103647Y39640D01*
X103204D01*
Y40217D01*
Y41113D01*
X103827D01*
X103994Y41146D01*
X104135Y41240D01*
X104224Y41329D01*
X104287Y41293D01*
X104525Y41229D01*
X104771D01*
X105009Y41293D01*
X105222Y41416D01*
X105396Y41590D01*
X105519Y41803D01*
X105583Y42041D01*
Y42287D01*
X105519Y42525D01*
X105396Y42738D01*
X105222Y42912D01*
X105009Y43035D01*
X104771Y43099D01*
X104646D01*
X103454Y44291D01*
Y45225D01*
X103089D01*
Y45453D01*
X103454D01*
Y46412D01*
X104194Y47152D01*
X104288Y47293D01*
X104321Y47460D01*
Y48679D01*
X104288Y48846D01*
X104194Y48987D01*
X103316Y49865D01*
Y50865D01*
D02*
G37*
G36*
X96882Y54074D02*
X96412D01*
X95951Y53982D01*
X95517Y53803D01*
X95127Y53542D01*
X94794Y53209D01*
X94533Y52819D01*
X94354Y52385D01*
X94262Y51924D01*
Y51454D01*
X94354Y50993D01*
X94533Y50559D01*
X94794Y50169D01*
X95127Y49836D01*
X95517Y49575D01*
X95951Y49396D01*
X96412Y49304D01*
X96882D01*
X97343Y49396D01*
X97777Y49575D01*
X98167Y49836D01*
X98500Y50169D01*
X98761Y50559D01*
X98940Y50993D01*
X99032Y51454D01*
Y51924D01*
X98940Y52385D01*
X98761Y52819D01*
X98500Y53209D01*
X98167Y53542D01*
X97777Y53803D01*
X97343Y53982D01*
X96882Y54074D01*
D02*
G37*
G36*
X100965Y48760D02*
X100313D01*
Y48133D01*
X100965D01*
Y48760D01*
D02*
G37*
G36*
X91884Y48768D02*
X90805D01*
Y47942D01*
X91884D01*
Y48768D01*
D02*
G37*
G36*
X90551D02*
X89471D01*
Y47942D01*
X90551D01*
Y48768D01*
D02*
G37*
G36*
X100965Y47879D02*
X100313D01*
Y47252D01*
X100965D01*
Y47879D01*
D02*
G37*
G36*
X100927Y46957D02*
X100300D01*
Y46355D01*
X100927D01*
Y46957D01*
D02*
G37*
G36*
Y46101D02*
X100300D01*
Y45499D01*
X100927D01*
Y46101D01*
D02*
G37*
G36*
Y45179D02*
X100300D01*
Y44577D01*
X100927D01*
Y45179D01*
D02*
G37*
G36*
Y44323D02*
X100300D01*
Y43721D01*
X100927D01*
Y44323D01*
D02*
G37*
G36*
X103433Y37584D02*
X102781D01*
Y36957D01*
X103433D01*
Y37584D01*
D02*
G37*
G36*
Y36703D02*
X102781D01*
Y36076D01*
X103433D01*
Y36703D01*
D02*
G37*
G36*
X96882Y36167D02*
X96412D01*
X95951Y36075D01*
X95517Y35896D01*
X95127Y35635D01*
X94794Y35302D01*
X94533Y34912D01*
X94354Y34478D01*
X94262Y34017D01*
Y33547D01*
X94354Y33086D01*
X94533Y32652D01*
X94794Y32262D01*
X95127Y31929D01*
X95517Y31668D01*
X95951Y31489D01*
X96412Y31397D01*
X96882D01*
X97343Y31489D01*
X97777Y31668D01*
X98167Y31929D01*
X98500Y32262D01*
X98761Y32652D01*
X98940Y33086D01*
X99032Y33547D01*
Y34017D01*
X98940Y34478D01*
X98761Y34912D01*
X98500Y35302D01*
X98167Y35635D01*
X97777Y35896D01*
X97343Y36075D01*
X96882Y36167D01*
D02*
G37*
%LPD*%
G36*
X99814Y41302D02*
X99773Y41202D01*
X92160D01*
X91877Y41486D01*
X91905Y41554D01*
X91939Y41815D01*
X91905Y42076D01*
X91804Y42319D01*
X91644Y42527D01*
X91436Y42687D01*
X91258Y42761D01*
Y42869D01*
X91436Y42943D01*
X91644Y43103D01*
X91804Y43311D01*
X91832Y43380D01*
X97737D01*
X99814Y41302D01*
D02*
G37*
G36*
X91980Y40332D02*
X100504D01*
Y39417D01*
Y38617D01*
X100619D01*
Y38139D01*
X100526Y38100D01*
X100504Y38123D01*
X100363Y38217D01*
X100196Y38250D01*
X91832D01*
X91804Y38319D01*
X91644Y38527D01*
X91436Y38687D01*
X91258Y38761D01*
Y38869D01*
X91436Y38943D01*
X91644Y39103D01*
X91804Y39311D01*
X91905Y39554D01*
X91939Y39815D01*
X91905Y40076D01*
X91829Y40260D01*
X91900Y40347D01*
X91980Y40332D01*
D02*
G37*
D10*
X101054Y40767D02*
D03*
X102654D02*
D03*
Y41567D02*
D03*
X101054D02*
D03*
Y42367D02*
D03*
X102654D02*
D03*
X101054Y39967D02*
D03*
Y39167D02*
D03*
X102654Y39967D02*
D03*
Y39167D02*
D03*
X101854Y42367D02*
D03*
Y39167D02*
D03*
D11*
X102616Y50165D02*
D03*
X101016D02*
D03*
D12*
X101092Y48006D02*
D03*
X102692D02*
D03*
X102654Y36830D02*
D03*
X101054D02*
D03*
D13*
X101054Y44450D02*
D03*
X102654D02*
D03*
Y46228D02*
D03*
X101054D02*
D03*
D14*
X104627Y40005D02*
X104648D01*
X103827Y39205D02*
X104627Y40005D01*
X90678Y43815D02*
X97917D01*
X100187Y41545D01*
X100196Y37815D02*
X101054Y36957D01*
X90678Y37815D02*
X100196D01*
X102341Y48357D02*
Y48710D01*
X101289Y49762D02*
X102341Y48710D01*
X101289Y49762D02*
Y49892D01*
X102341Y48357D02*
X102692Y48006D01*
X101016Y50165D02*
X101289Y49892D01*
X102654Y44475D02*
X104454Y42675D01*
X102407Y50375D02*
X102616Y50165D01*
X102654Y49911D02*
X103886Y48679D01*
X102572Y42449D02*
X102654Y42367D01*
X102572Y42449D02*
Y42815D01*
X102389Y42998D02*
X102572Y42815D01*
X101319Y42998D02*
X102389D01*
X101136Y42449D02*
Y42815D01*
X101319Y42998D01*
X101054Y42367D02*
X101136Y42449D01*
X103027Y46576D02*
Y46601D01*
X103886Y47460D02*
Y48679D01*
X102679Y46228D02*
X103027Y46576D01*
X101758Y42463D02*
X101854Y42367D01*
X103027Y46601D02*
X103886Y47460D01*
X102519Y36695D02*
X102654Y36830D01*
X102692Y39205D02*
X103827D01*
X104454Y42358D02*
X104648Y42164D01*
X102654Y41567D02*
X102758D01*
X103827Y41548D02*
X104443Y42164D01*
X102777Y41548D02*
X103827D01*
X104454Y42358D02*
Y42675D01*
X104443Y42164D02*
X104648D01*
X102758Y41567D02*
X102777Y41548D01*
X102654Y39167D02*
X102692Y39205D01*
X102654Y46228D02*
X102679D01*
X102654Y44475D02*
Y46228D01*
X101054D02*
X101092Y46266D01*
X90424Y47815D02*
X90678D01*
X101854Y42367D02*
X101904Y42317D01*
X100187Y41545D02*
X101032D01*
X101054Y41567D01*
X91980Y40767D02*
X101054D01*
X90932Y41815D02*
X91980Y40767D01*
X90678Y41815D02*
X90932D01*
X101904Y41886D02*
X102173Y41617D01*
X102604D02*
X102654Y41567D01*
X102173Y41617D02*
X102604D01*
X101904Y41886D02*
Y42317D01*
X102130Y39967D02*
X102654D01*
X101854Y39691D02*
X102130Y39967D01*
X101854Y39167D02*
Y39691D01*
X102654Y39967D02*
Y40767D01*
Y41567D01*
X101054Y36957D02*
Y39218D01*
Y36957D02*
X101054Y36957D01*
D15*
X90678Y37815D02*
D03*
Y39815D02*
D03*
Y41815D02*
D03*
Y45815D02*
D03*
Y43815D02*
D03*
D16*
Y47815D02*
D03*
D17*
X96647Y51689D02*
D03*
Y33782D02*
D03*
D18*
X104648Y40005D02*
D03*
Y42164D02*
D03*
%TF.MD5,ea12cf837f80b9558a2047931ca5ecee*%
M02*
