%TF.GenerationSoftware,Altium Limited,Altium Designer,25.2.1 (25)*%
G04 Layer_Color=65535*
%FSLAX43Y43*%
%MOMM*%
%TF.SameCoordinates,956CF245-2F1B-4B54-ACDE-2406063FE020*%
%TF.FilePolarity,Positive*%
%TF.FileFunction,Legend,Top*%
%TF.Part,Single*%
G01*
G75*
%TA.AperFunction,NonConductor*%
%ADD20C,0.240*%
%ADD21C,0.200*%
%ADD22C,0.127*%
%ADD23C,0.254*%
%ADD24C,0.203*%
G36*
X104018Y35190D02*
X104151D01*
Y35124D01*
X104218D01*
Y35057D01*
X104285D01*
Y34990D01*
X104352D01*
Y34857D01*
X104418D01*
Y32186D01*
X104352D01*
Y32053D01*
X104285D01*
Y31986D01*
X104218D01*
Y31919D01*
X104151D01*
Y31853D01*
X104018D01*
Y31786D01*
X100280D01*
Y31853D01*
X100146D01*
Y31919D01*
X100079D01*
Y31986D01*
X100012D01*
Y32053D01*
X99946D01*
Y32186D01*
X99879D01*
Y32253D01*
Y34857D01*
X99946D01*
Y34990D01*
X100012D01*
Y35057D01*
X100079D01*
Y35124D01*
X100146D01*
Y35190D01*
X100280D01*
Y35257D01*
X104018D01*
Y35190D01*
D02*
G37*
%LPC*%
G36*
X103951Y34990D02*
X100346D01*
Y34923D01*
X100213D01*
Y34790D01*
X100146D01*
Y32787D01*
Y32720D01*
Y32253D01*
X100213D01*
Y32120D01*
X100346D01*
Y32053D01*
X103951D01*
Y32120D01*
X104085D01*
Y32253D01*
X104151D01*
Y34790D01*
X104085D01*
Y34923D01*
X103951D01*
Y34990D01*
D02*
G37*
%LPD*%
G36*
X102082Y34122D02*
Y34056D01*
Y32453D01*
X101681D01*
Y32587D01*
X101948D01*
Y33455D01*
X101882D01*
Y33521D01*
X101815D01*
Y33588D01*
X101748D01*
Y33655D01*
X101681D01*
Y33722D01*
X101615D01*
Y33789D01*
X101548D01*
Y33855D01*
X101481D01*
Y33922D01*
X101414D01*
Y33989D01*
X101348D01*
Y34056D01*
X101281D01*
Y34122D01*
X101214D01*
Y33989D01*
X101147D01*
Y34189D01*
X101214D01*
Y34389D01*
X101281D01*
Y34523D01*
X101348D01*
Y34456D01*
X101414D01*
Y34389D01*
X101481D01*
Y34323D01*
X101548D01*
Y34256D01*
X101615D01*
Y34189D01*
X101681D01*
Y34122D01*
X101748D01*
Y34056D01*
X101815D01*
Y33989D01*
X101882D01*
Y33922D01*
X101948D01*
Y34656D01*
X101615D01*
Y34790D01*
X102082D01*
Y34122D01*
D02*
G37*
G36*
X101147Y33789D02*
X101081D01*
Y33989D01*
X101147D01*
Y33789D01*
D02*
G37*
G36*
X101081Y33588D02*
X101014D01*
Y33789D01*
X101081D01*
Y33588D01*
D02*
G37*
G36*
X101014Y33455D02*
Y33388D01*
X100947D01*
Y33588D01*
X101014D01*
Y33455D01*
D02*
G37*
G36*
X100947Y33188D02*
X100880D01*
Y33254D01*
Y33388D01*
X100947D01*
Y33188D01*
D02*
G37*
G36*
X100880Y32987D02*
X100814D01*
Y33121D01*
Y33188D01*
X100880D01*
Y32987D01*
D02*
G37*
G36*
X100814Y32787D02*
X100747D01*
Y32921D01*
Y32987D01*
X100814D01*
Y32787D01*
D02*
G37*
G36*
X102683Y34656D02*
X102349D01*
Y33922D01*
X102416D01*
Y33989D01*
X102482D01*
Y34056D01*
X102549D01*
Y34122D01*
X102616D01*
Y34189D01*
X102683D01*
Y34256D01*
X102750D01*
Y34323D01*
X102816D01*
Y34389D01*
X102883D01*
Y34456D01*
X102950D01*
Y34523D01*
X103017D01*
Y34389D01*
X103083D01*
Y34189D01*
X103150D01*
Y33989D01*
X103217D01*
Y33789D01*
X103284D01*
Y33722D01*
Y33588D01*
X103350D01*
Y33388D01*
X103417D01*
Y33188D01*
X103484D01*
Y33121D01*
Y33054D01*
Y32987D01*
X103551D01*
Y32921D01*
Y32854D01*
Y32787D01*
X103617D01*
Y32654D01*
X103951D01*
Y32520D01*
X103417D01*
Y32654D01*
X103551D01*
Y32787D01*
X103484D01*
Y32987D01*
X103417D01*
Y33188D01*
X103350D01*
Y33254D01*
Y33388D01*
X103284D01*
Y33588D01*
X103217D01*
Y33789D01*
X103150D01*
Y33855D01*
Y33922D01*
Y33989D01*
X103083D01*
Y34122D01*
X103017D01*
Y34056D01*
X102950D01*
Y33989D01*
X102883D01*
Y33922D01*
X102816D01*
Y33855D01*
X102750D01*
Y33789D01*
X102683D01*
Y33722D01*
X102616D01*
Y33655D01*
X102549D01*
Y33588D01*
X102482D01*
Y33521D01*
X102416D01*
Y33455D01*
X102349D01*
Y32587D01*
X102616D01*
Y32453D01*
X102215D01*
Y34790D01*
X102683D01*
Y34656D01*
D02*
G37*
G36*
X100747Y32654D02*
X100880D01*
Y32520D01*
X100346D01*
Y32654D01*
X100680D01*
Y32787D01*
X100747D01*
Y32654D01*
D02*
G37*
G36*
X103951Y32253D02*
X100346D01*
Y32387D01*
X103951D01*
Y32253D01*
D02*
G37*
D20*
X103828Y42494D02*
G03*
X103828Y42494I-120J0D01*
G01*
D21*
X103616Y50165D02*
G03*
X103616Y50165I-100J0D01*
G01*
D22*
X87728Y35665D02*
X93228D01*
Y37465D01*
X92328D02*
X93228D01*
X92328D02*
Y39665D01*
X92878D01*
Y40815D01*
X92328D02*
X92878D01*
X92328D02*
Y44815D01*
X92878D01*
Y45965D01*
X92328D02*
X92878D01*
X92328D02*
Y48165D01*
X93228D01*
Y49965D01*
X87728D02*
X93228D01*
X87728Y35665D02*
Y49965D01*
X100432Y43409D02*
X103276D01*
X100432Y38125D02*
Y43409D01*
X103276Y38125D02*
Y43409D01*
X100432Y38125D02*
X103276D01*
D23*
X99314Y36449D02*
Y49022D01*
X93980Y36449D02*
X99314D01*
X93980Y49022D02*
X99314D01*
X93980Y36449D02*
Y49022D01*
D24*
X95580Y48061D02*
X95728Y48209D01*
X96025D01*
X96173Y48061D01*
Y47913D01*
X96025Y47765D01*
X95876D01*
X96025D01*
X96173Y47616D01*
Y47468D01*
X96025Y47320D01*
X95728D01*
X95580Y47468D01*
X96469Y47913D02*
X96765Y47320D01*
X97061Y47913D01*
X97358Y48061D02*
X97506Y48209D01*
X97802D01*
X97950Y48061D01*
Y47913D01*
X97802Y47765D01*
X97654D01*
X97802D01*
X97950Y47616D01*
Y47468D01*
X97802Y47320D01*
X97506D01*
X97358Y47468D01*
X95199Y38176D02*
X95495D01*
X95347D01*
Y37287D01*
X95199D01*
X95495D01*
X95940D02*
Y38176D01*
X96532Y37287D01*
Y38176D01*
X96829D02*
X97421D01*
X97125D01*
Y37287D01*
X97717Y38028D02*
X97865Y38176D01*
X98162D01*
X98310Y38028D01*
Y37435D01*
X98162Y37287D01*
X97865D01*
X97717Y37435D01*
Y38028D01*
X101486Y52273D02*
X101189D01*
X101041Y52125D01*
Y51532D01*
X101189Y51384D01*
X101486D01*
X101634Y51532D01*
Y52125D01*
X101486Y52273D01*
X101930Y51384D02*
Y52273D01*
X102522Y51384D01*
Y52273D01*
X96173Y46156D02*
X96025Y46304D01*
X95728D01*
X95580Y46156D01*
Y45563D01*
X95728Y45415D01*
X96025D01*
X96173Y45563D01*
Y45860D01*
X95876D01*
X96469Y45415D02*
Y46304D01*
X97061Y45415D01*
Y46304D01*
X97358D02*
Y45415D01*
X97802D01*
X97950Y45563D01*
Y46156D01*
X97802Y46304D01*
X97358D01*
X96300Y44124D02*
X96152Y44272D01*
X95855D01*
X95707Y44124D01*
Y43976D01*
X95855Y43828D01*
X96152D01*
X96300Y43679D01*
Y43531D01*
X96152Y43383D01*
X95855D01*
X95707Y43531D01*
X97188Y44124D02*
X97040Y44272D01*
X96744D01*
X96596Y44124D01*
Y43531D01*
X96744Y43383D01*
X97040D01*
X97188Y43531D01*
X97485Y44272D02*
Y43383D01*
X98077D01*
X94564Y40081D02*
X95157Y39192D01*
Y40081D02*
X94564Y39192D01*
X96045Y39933D02*
X95897Y40081D01*
X95601D01*
X95453Y39933D01*
Y39785D01*
X95601Y39637D01*
X95897D01*
X96045Y39488D01*
Y39340D01*
X95897Y39192D01*
X95601D01*
X95453Y39340D01*
X96342Y40081D02*
Y39192D01*
Y39637D01*
X96934D01*
Y40081D01*
Y39192D01*
X97230Y40081D02*
Y39340D01*
X97378Y39192D01*
X97675D01*
X97823Y39340D01*
Y40081D01*
X98119D02*
X98712D01*
X98415D01*
Y39192D01*
X96173Y42092D02*
X96025Y42240D01*
X95728D01*
X95580Y42092D01*
Y41944D01*
X95728Y41796D01*
X96025D01*
X96173Y41647D01*
Y41499D01*
X96025Y41351D01*
X95728D01*
X95580Y41499D01*
X96469Y42240D02*
Y41351D01*
X96913D01*
X97061Y41499D01*
Y42092D01*
X96913Y42240D01*
X96469D01*
X97358Y41351D02*
Y41944D01*
X97654Y42240D01*
X97950Y41944D01*
Y41351D01*
Y41796D01*
X97358D01*
X104056Y38671D02*
Y37931D01*
X104204Y37783D01*
X104500D01*
X104648Y37931D01*
Y38671D01*
X104944Y37783D02*
X105240D01*
X105092D01*
Y38671D01*
X104944Y38523D01*
X104627Y46651D02*
X104479Y46799D01*
X104183D01*
X104034Y46651D01*
Y46059D01*
X104183Y45911D01*
X104479D01*
X104627Y46059D01*
X104923Y46651D02*
X105071Y46799D01*
X105367D01*
X105516Y46651D01*
Y46503D01*
X105367Y46355D01*
X105219D01*
X105367D01*
X105516Y46207D01*
Y46059D01*
X105367Y45911D01*
X105071D01*
X104923Y46059D01*
X103907Y36259D02*
Y37147D01*
X104352D01*
X104500Y36999D01*
Y36703D01*
X104352Y36555D01*
X103907D01*
X104204D02*
X104500Y36259D01*
X105389D02*
X104796D01*
X105389Y36851D01*
Y36999D01*
X105240Y37147D01*
X104944D01*
X104796Y36999D01*
X104183Y47562D02*
Y48450D01*
X104627D01*
X104775Y48302D01*
Y48006D01*
X104627Y47858D01*
X104183D01*
X104479D02*
X104775Y47562D01*
X105071D02*
X105367D01*
X105219D01*
Y48450D01*
X105071Y48302D01*
X104183Y50609D02*
Y49721D01*
X104627D01*
X104775Y49869D01*
Y50461D01*
X104627Y50609D01*
X104183D01*
X105071Y49721D02*
X105367D01*
X105219D01*
Y50609D01*
X105071Y50461D01*
X88181Y50483D02*
Y51371D01*
X88625D01*
X88773Y51223D01*
Y50927D01*
X88625Y50779D01*
X88181D01*
X89069Y50483D02*
X89365D01*
X89217D01*
Y51371D01*
X89069Y51223D01*
X104627Y44746D02*
X104479Y44894D01*
X104183D01*
X104034Y44746D01*
Y44154D01*
X104183Y44006D01*
X104479D01*
X104627Y44154D01*
X105516Y44006D02*
X104923D01*
X105516Y44598D01*
Y44746D01*
X105367Y44894D01*
X105071D01*
X104923Y44746D01*
%TF.MD5,3bf57318df236ba24cd416e5b4ed0509*%
M02*
