%TF.GenerationSoftware,Altium Limited,Altium Designer,25.2.1 (25)*%
G04 Layer_Color=8388736*
%FSLAX43Y43*%
%MOMM*%
%TF.SameCoordinates,B4C06132-466B-4F6F-9965-625186C44480*%
%TF.FilePolarity,Negative*%
%TF.FileFunction,Soldermask,Top*%
%TF.Part,Single*%
G01*
G75*
%TA.AperFunction,SMDPad,CuDef*%
%ADD28R,1.200X1.150*%
%ADD29R,0.950X0.950*%
%TA.AperFunction,BGAPad,CuDef*%
%ADD30R,0.650X0.650*%
%TA.AperFunction,SMDPad,CuDef*%
%ADD31R,1.150X1.100*%
%TA.AperFunction,ViaPad*%
%ADD32C,3.960*%
%TA.AperFunction,ComponentPad*%
%ADD33C,1.293*%
%ADD34R,1.293X1.293*%
%TA.AperFunction,ViaPad*%
%ADD35C,1.420*%
D28*
X102692Y48006D02*
D03*
X101092D02*
D03*
X102527Y36830D02*
D03*
X100927D02*
D03*
D29*
X101016Y50165D02*
D03*
X102616D02*
D03*
D30*
X101054Y40767D02*
D03*
X102654D02*
D03*
Y41567D02*
D03*
X101054D02*
D03*
Y42367D02*
D03*
X102654D02*
D03*
X101054Y39967D02*
D03*
Y39167D02*
D03*
X102654Y39967D02*
D03*
Y39167D02*
D03*
X101854Y42367D02*
D03*
Y39167D02*
D03*
D31*
X101054Y44450D02*
D03*
X102654D02*
D03*
Y46228D02*
D03*
X101054D02*
D03*
D32*
X96647Y32385D02*
D03*
Y51816D02*
D03*
D33*
X90805Y35941D02*
D03*
Y37922D02*
D03*
Y39929D02*
D03*
Y41935D02*
D03*
Y43942D02*
D03*
Y45923D02*
D03*
D34*
Y47930D02*
D03*
D35*
X104648Y40005D02*
D03*
Y42164D02*
D03*
%TF.MD5,9e8a38a67718b6914f8fc5bd31e17770*%
M02*
