%TF.GenerationSoftware,Altium Limited,Altium Designer,25.2.1 (25)*%
G04 Layer_Color=16711833*
%FSLAX43Y43*%
%MOMM*%
%TF.SameCoordinates,B4C06132-466B-4F6F-9965-625186C44480*%
%TF.FilePolarity,Positive*%
%TF.FileFunction,Other,Mechanical_13*%
%TF.Part,Single*%
G01*
G75*
%TA.AperFunction,NonConductor*%
%ADD22C,0.200*%
%ADD25C,0.152*%
%ADD26C,0.127*%
%ADD40C,0.300*%
%ADD41C,0.100*%
D22*
X103616Y50165D02*
G03*
X103616Y50165I-100J0D01*
G01*
D25*
X87859Y33782D02*
X93345D01*
X87859D02*
Y50089D01*
X93345D01*
Y33782D02*
Y50089D01*
X90805Y50343D02*
X91440Y51867D01*
X90170D02*
X91440D01*
X90170D02*
X90805Y50343D01*
D26*
X101016Y50565D02*
X102616D01*
X101016Y49765D02*
Y50565D01*
Y49765D02*
X102616D01*
Y50565D01*
X100432Y38125D02*
Y43383D01*
X103276D01*
X100432Y38125D02*
X103276D01*
Y43383D01*
D40*
X102754Y42367D02*
G03*
X102754Y42367I-100J0D01*
G01*
D41*
X88867Y45988D02*
Y47738D01*
X87917Y45988D02*
Y47738D01*
Y45988D02*
X88867D01*
X87917Y47738D02*
X88867D01*
X101017Y47531D02*
X102767D01*
X101017Y48481D02*
X102767D01*
Y47531D02*
Y48481D01*
X101017Y47531D02*
Y48481D01*
X87917Y38241D02*
X88867D01*
X87917Y39991D02*
X88867D01*
Y38241D02*
Y39991D01*
X87917Y38241D02*
Y39991D01*
X100852Y36355D02*
X102602D01*
X100852Y37305D02*
X102602D01*
Y36355D02*
Y37305D01*
X100852Y36355D02*
Y37305D01*
X100979Y43975D02*
Y44925D01*
X102729Y43975D02*
Y44925D01*
X100979D02*
X102729D01*
X100979Y43975D02*
X102729D01*
X100979Y45753D02*
X102729D01*
X100979Y46703D02*
X102729D01*
Y45753D02*
Y46703D01*
X100979Y45753D02*
Y46703D01*
%TF.MD5,cdbcb3b2031afe0483a95b749d4c975a*%
M02*
