%TF.GenerationSoftware,Altium Limited,Altium Designer,25.2.1 (25)*%
G04 Layer_Physical_Order=2*
G04 Layer_Color=16711680*
%FSLAX43Y43*%
%MOMM*%
%TF.SameCoordinates,956CF245-2F1B-4B54-ACDE-2406063FE020*%
%TF.FilePolarity,Positive*%
%TF.FileFunction,Copper,L2,Bot,Signal*%
%TF.Part,Single*%
G01*
G75*
%TA.AperFunction,Conductor*%
%ADD14C,0.254*%
%TA.AperFunction,ComponentPad*%
%ADD15O,1.905X1.397*%
%ADD16R,1.905X1.397*%
%TA.AperFunction,ViaPad*%
%ADD17C,4.170*%
%ADD18C,1.270*%
%TA.AperFunction,SMDPad,CuDef*%
%ADD19R,0.950X1.000*%
G36*
X89662Y54303D02*
X103632Y54303D01*
X103651Y54307D01*
X103970Y54276D01*
X104416Y54140D01*
X104828Y53920D01*
X105189Y53624D01*
X105485Y53263D01*
X105705Y52852D01*
X105840Y52405D01*
X105874Y52063D01*
Y33179D01*
X105838Y32809D01*
X105702Y32363D01*
X105482Y31951D01*
X105186Y31590D01*
X104825Y31294D01*
X104413Y31074D01*
X103967Y30939D01*
X103625Y30905D01*
X89662D01*
X89622Y30897D01*
X89197Y30939D01*
X88751Y31074D01*
X88339Y31294D01*
X87978Y31590D01*
X87682Y31951D01*
X87462Y32363D01*
X87327Y32809D01*
X87293Y33153D01*
Y46669D01*
X87342Y46724D01*
X87393Y46741D01*
X87409Y46729D01*
Y46152D01*
X88138D01*
Y46025D01*
X88265D01*
Y45271D01*
X88867D01*
Y45380D01*
X89573D01*
X89592Y45335D01*
X89745Y45136D01*
X89944Y44983D01*
X90175Y44887D01*
X90163Y44788D01*
X89920Y44687D01*
X89712Y44527D01*
X89552Y44319D01*
X89451Y44076D01*
X89417Y43815D01*
X89451Y43554D01*
X89552Y43311D01*
X89712Y43103D01*
X89920Y42943D01*
X90098Y42869D01*
Y42761D01*
X89920Y42687D01*
X89712Y42527D01*
X89552Y42319D01*
X89451Y42076D01*
X89417Y41815D01*
X89451Y41554D01*
X89552Y41311D01*
X89712Y41103D01*
X89920Y40943D01*
X90098Y40869D01*
Y40761D01*
X89920Y40687D01*
X89712Y40527D01*
X89552Y40319D01*
X89451Y40076D01*
X89417Y39815D01*
X89451Y39554D01*
X89552Y39311D01*
X89712Y39103D01*
X89920Y38943D01*
X90098Y38869D01*
Y38761D01*
X89920Y38687D01*
X89712Y38527D01*
X89552Y38319D01*
X89451Y38076D01*
X89417Y37815D01*
X89451Y37554D01*
X89552Y37311D01*
X89712Y37103D01*
X89920Y36943D01*
X90163Y36842D01*
X90424Y36808D01*
X90932D01*
X91193Y36842D01*
X91436Y36943D01*
X91644Y37103D01*
X91804Y37311D01*
X91905Y37554D01*
X91939Y37815D01*
X91905Y38076D01*
X91804Y38319D01*
X91644Y38527D01*
X91436Y38687D01*
X91258Y38761D01*
Y38869D01*
X91436Y38943D01*
X91644Y39103D01*
X91804Y39311D01*
X91872Y39475D01*
X103875D01*
X103900Y39431D01*
X104074Y39257D01*
X104287Y39134D01*
X104525Y39070D01*
X104771D01*
X105009Y39134D01*
X105222Y39257D01*
X105396Y39431D01*
X105519Y39644D01*
X105583Y39882D01*
Y40128D01*
X105519Y40366D01*
X105396Y40579D01*
X105222Y40753D01*
X105009Y40876D01*
X104771Y40940D01*
X104525D01*
X104287Y40876D01*
X104074Y40753D01*
X103900Y40579D01*
X103777Y40366D01*
X103771Y40345D01*
X91784D01*
X91644Y40527D01*
X91436Y40687D01*
X91258Y40761D01*
Y40869D01*
X91436Y40943D01*
X91644Y41103D01*
X91804Y41311D01*
X91905Y41554D01*
X91939Y41815D01*
X91905Y42076D01*
X91804Y42319D01*
X91644Y42527D01*
X91436Y42687D01*
X91258Y42761D01*
Y42869D01*
X91436Y42943D01*
X91644Y43103D01*
X91804Y43311D01*
X91905Y43554D01*
X91939Y43815D01*
X91905Y44076D01*
X91804Y44319D01*
X91644Y44527D01*
X91436Y44687D01*
X91193Y44788D01*
X91181Y44887D01*
X91412Y44983D01*
X91611Y45136D01*
X91764Y45335D01*
X91860Y45566D01*
X91876Y45688D01*
X90678D01*
Y45942D01*
X91876D01*
X91860Y46064D01*
X91764Y46295D01*
X91611Y46494D01*
X91412Y46647D01*
X91245Y46716D01*
X91264Y46817D01*
X91930D01*
Y48813D01*
X89425D01*
Y48060D01*
X88913D01*
Y48425D01*
X87393D01*
X87363Y48425D01*
X87293Y48496D01*
Y52063D01*
X87327Y52405D01*
X87462Y52852D01*
X87682Y53263D01*
X87978Y53624D01*
X88339Y53920D01*
X88751Y54140D01*
X89197Y54276D01*
X89601Y54315D01*
X89662Y54303D01*
D02*
G37*
%LPC*%
G36*
X96882Y54074D02*
X96412D01*
X95951Y53982D01*
X95517Y53803D01*
X95127Y53542D01*
X94794Y53209D01*
X94533Y52819D01*
X94354Y52385D01*
X94262Y51924D01*
Y51454D01*
X94354Y50993D01*
X94533Y50559D01*
X94794Y50169D01*
X95127Y49836D01*
X95517Y49575D01*
X95951Y49396D01*
X96412Y49304D01*
X96882D01*
X97343Y49396D01*
X97777Y49575D01*
X98167Y49836D01*
X98500Y50169D01*
X98761Y50559D01*
X98940Y50993D01*
X99032Y51454D01*
Y51924D01*
X98940Y52385D01*
X98761Y52819D01*
X98500Y53209D01*
X98167Y53542D01*
X97777Y53803D01*
X97343Y53982D01*
X96882Y54074D01*
D02*
G37*
G36*
X88011Y45898D02*
X87409D01*
Y45271D01*
X88011D01*
Y45898D01*
D02*
G37*
G36*
X104775Y43050D02*
Y42291D01*
X105534D01*
X105476Y42507D01*
X105359Y42710D01*
X105194Y42875D01*
X104991Y42992D01*
X104775Y43050D01*
D02*
G37*
G36*
X104521D02*
X104305Y42992D01*
X104102Y42875D01*
X103937Y42710D01*
X103820Y42507D01*
X103762Y42291D01*
X104521D01*
Y43050D01*
D02*
G37*
G36*
X105534Y42037D02*
X104775D01*
Y41278D01*
X104991Y41336D01*
X105194Y41453D01*
X105359Y41618D01*
X105476Y41821D01*
X105534Y42037D01*
D02*
G37*
G36*
X104521D02*
X103762D01*
X103820Y41821D01*
X103937Y41618D01*
X104102Y41453D01*
X104305Y41336D01*
X104521Y41278D01*
Y42037D01*
D02*
G37*
G36*
X96882Y36167D02*
X96412D01*
X95951Y36075D01*
X95517Y35896D01*
X95127Y35635D01*
X94794Y35302D01*
X94533Y34912D01*
X94354Y34478D01*
X94262Y34017D01*
Y33547D01*
X94354Y33086D01*
X94533Y32652D01*
X94794Y32262D01*
X95127Y31929D01*
X95517Y31668D01*
X95951Y31489D01*
X96412Y31397D01*
X96882D01*
X97343Y31489D01*
X97777Y31668D01*
X98167Y31929D01*
X98500Y32262D01*
X98761Y32652D01*
X98940Y33086D01*
X99032Y33547D01*
Y34017D01*
X98940Y34478D01*
X98761Y34912D01*
X98500Y35302D01*
X98167Y35635D01*
X97777Y35896D01*
X97343Y36075D01*
X96882Y36167D01*
D02*
G37*
%LPD*%
D14*
X90678Y39815D02*
X90773Y39910D01*
X104553D01*
X104648Y40005D01*
X88348Y45815D02*
X90678D01*
X88138Y46025D02*
X88348Y45815D01*
X90488Y47625D02*
X90678Y47815D01*
X88138Y47625D02*
X90488D01*
D15*
X90678Y37815D02*
D03*
Y39815D02*
D03*
Y41815D02*
D03*
Y45815D02*
D03*
Y43815D02*
D03*
D16*
Y47815D02*
D03*
D17*
X96647Y51689D02*
D03*
Y33782D02*
D03*
D18*
X104648Y40005D02*
D03*
Y42164D02*
D03*
D19*
X88138Y47625D02*
D03*
Y46025D02*
D03*
%TF.MD5,cbbc80af3f120840f69c0433d4d5244f*%
M02*
